<svg width="512" height="512" viewBox="0 0 512 512" fill="none" xmlns="http://www.w3.org/2000/svg">
  <path fill-rule="evenodd" clip-rule="evenodd" d="M266.095 58.0009C263.379 53.2973 257.843 51.0041 252.597 52.4098C247.35 53.8155 243.703 58.5696 243.703 64.0009V437.501H53.9186L192.318 197.786V293.501C192.318 300.128 197.691 305.501 204.318 305.501C210.946 305.501 216.318 300.128 216.318 293.501V153.001C216.318 147.57 212.67 142.816 207.424 141.41C202.178 140.004 196.642 142.297 193.926 147.001L23.6077 442.001C21.4641 445.714 21.4641 450.288 23.6077 454.001C25.7513 457.714 29.7128 460.001 34 460.001H255.703H415.879C416.026 460.004 416.173 460.004 416.32 460.001H477.405C481.692 460.001 485.654 457.714 487.797 454.001C489.941 450.288 489.941 445.714 487.797 442.001L266.095 58.0009ZM423.016 437.501H457.486L267.703 108.786V437.501H395.304L350.127 359.253C346.814 353.514 348.78 346.175 354.52 342.861C360.259 339.547 367.598 341.514 370.912 347.253L423.016 437.501Z" fill="black"/>
</svg>
