<svg width="1254" height="1254" viewBox="0 0 1254 1254" fill="none" xmlns="http://www.w3.org/2000/svg">
<path d="M313.087 276.4C327.686 274.829 350.473 276.168 365.636 276.645C389.007 277.363 412.372 278.258 435.729 279.332C476.424 280.983 517.093 283.222 557.723 286.049L767.591 303.033C837.627 307.957 907.699 312.342 977.808 316.186L1037.88 319.666C1052.59 320.519 1067.08 321.256 1081.75 322.966C1098.82 324.957 1108.72 333.596 1108.4 351.539C1108.07 369.458 1106.04 387.366 1104.33 405.206L1095.88 494.166C1087.06 595.516 1076.98 696.754 1065.65 797.851L1059.18 855.102C1057.6 869.166 1055.01 895.251 1050.57 908.121C1046.17 920.888 1019.7 944.088 1009.73 955.238C996.679 969.842 990.489 973.503 971.568 973.803C956.573 973.497 941.076 971.121 926.197 969.003L876.245 961.778L710.329 938.1L403.31 895.232L303.163 880.99C270.777 876.324 238.956 872.259 207.268 864.415C174.391 856.277 171.595 841.937 176.277 811.316C178.061 799.639 180.06 787.369 182.185 775.612C186.029 754.231 189.98 732.861 194.038 711.516L233.308 505.756L255.342 387.649C260.009 361.889 264.396 336.308 269.791 310.67C275.519 283.453 287.036 278.305 313.087 276.4Z" fill="black"/>
<path d="M314.492 288.65C330.247 287.373 356.014 288.352 371.933 288.882C398.846 289.766 425.751 290.848 452.647 292.127C578.005 298.233 703.997 311.152 829.575 319.273L995.191 328.939L1045.36 331.74C1059.11 332.596 1075.26 332.996 1088.2 337.074C1075.61 347.716 1065.03 358.15 1051.51 368.209C998.902 407.35 940.8 440.606 884.523 474.237L653.25 612.752C623.21 545.143 543.738 540.727 495.874 592.67C482.15 579.059 464.838 559.071 451.629 544.421C417.896 506.928 384.862 468.813 352.542 430.095L316.648 387.479C308.643 377.879 300.609 368.476 293.613 358.061C287.656 349.193 284.201 340.929 282.768 330.204C281.53 320.931 282.211 304.38 288.194 296.728C293.495 289.949 306.52 289.27 314.492 288.65Z" fill="white"/>
<path d="M346.105 300.902C359.331 300.392 400.943 301.622 413.165 303.849C412.184 304.64 381.447 303.521 378.231 303.462C363.862 303.367 349.016 303.57 334.696 305.259C330.225 305.786 317.594 309.61 314.705 307.839L315.286 306.683C322.351 301.42 337.395 301.35 346.105 300.902Z" fill="black"/>
<path d="M923.998 344.098L975.708 343.362C982.32 343.226 1021.2 340.969 1024.59 345.542C1021.63 347.22 1015.29 346.851 1011.78 346.76C983.239 346.023 953.701 344.518 925.174 345.343L923.998 344.098Z" fill="black"/>
<path d="M358.626 315.611C361.288 315.556 371.26 315.57 373.021 316.452C368.059 317.487 356.753 317.893 350.712 318.462C347.153 319.055 339.344 320.603 336.057 320.075L335.861 319.358C340.511 315.487 352.282 315.87 358.626 315.611Z" fill="black"/>
<path d="M989.999 359.063C992.877 358.846 994.897 358.761 997.775 358.805L997.524 358.888L999.802 359.698L999.747 359.87C996.177 361.186 992.668 360.966 988.817 361.064C986.147 361.178 979.994 361.462 977.563 360.731C981.843 359.487 985.566 359.39 989.999 359.063Z" fill="black"/>
<path d="M925.174 345.343C922.872 345.393 918.457 345.7 916.51 344.661C918.873 343.78 921.415 344.064 923.998 344.098L925.174 345.343Z" fill="#353335"/>
<path d="M476.902 624.514C476.676 626.572 475.079 631.978 474.534 634.146C470.324 650.892 470.715 665.875 475.596 682.475C480.969 700.746 491.396 711.651 504.235 724.828C540.451 762.16 605.859 758.707 641.016 721.644C662.52 698.97 668.355 674.625 667.994 644.316L678.574 636.277C697.556 652.858 715.239 668.331 733.517 685.824C776.513 727.492 818.413 770.273 859.174 814.127C887.205 843.891 964.784 923.882 977.22 958.404C962.182 958.416 929.399 952.471 913.497 949.942C886.14 945.595 857.925 942.27 830.751 937.769C807.526 934.983 782.311 930.801 758.958 927.495L612.819 906.995L258.588 857.031C237.777 853.884 215.032 851.079 195.026 844.332C192.156 843.364 190.762 842.213 188.985 839.801C188.676 838.631 188.591 837.957 188.873 836.745C195.184 809.749 365.25 693.319 398.489 671.662C423.959 654.86 450.119 639.13 476.902 624.514Z" fill="white"/>
<path d="M867.011 863.778C873.71 864.078 914.875 900.804 914.838 905.329C907.552 899.641 900.755 893.261 893.04 887.156C884.897 880.709 874.849 873.281 866.981 866.399C866.289 865.793 866.754 865.052 867.011 863.778Z" fill="black"/>
<path d="M268.357 792.181C270.165 792.114 269.446 791.79 270.681 792.873C270.062 794.184 269.057 795.035 267.834 795.776C254.88 803.668 242.926 812.173 230.704 821.18C229.639 821.75 230.223 821.548 228.672 821.241L228.556 820.219C235.321 811.096 257.652 797.845 268.357 792.181Z" fill="black"/>
<path d="M836.714 906.186C842.262 905.88 858.917 910.093 862.903 913.001C859.4 912.965 841.496 910.307 837.768 908.672C836.837 908.262 837.008 907.515 836.714 906.186Z" fill="black"/>
<path d="M860.166 889.587C864.672 889.611 881.131 899.378 882.57 903.26C875.939 899.708 869.277 896.292 862.56 892.893C860.447 891.828 860.527 891.277 860.166 889.587Z" fill="black"/>
<path d="M799.633 770.028C806.785 774.768 820.947 790.179 827.126 796.725L825.907 797.227C818.676 789.555 805.781 778.068 799.633 770.028Z" fill="black"/>
<path d="M272.043 815.51L273.703 815.859C272.67 818.113 264.551 821.18 261.765 822.411L261.016 822.509L260.566 822.062C262.866 819.331 268.731 816.919 272.043 815.51Z" fill="black"/>
<path d="M827.126 796.725C828.895 798.488 831.081 800.294 831.994 802.548C829.808 801.978 827.524 799.009 825.907 797.227L827.126 796.725Z" fill="#353335"/>
<path d="M1093.94 345.209C1096.55 349.115 1091.37 373.099 1090.42 378.64L1080.01 437.35L1049.2 617.552C1037.45 686.645 1026.12 755.805 1015.21 825.032L1003.81 899.439C1001.53 914.538 999.336 929.779 996.648 944.811C995.467 951.417 993.985 953.475 989.019 957.583C983.08 931.083 999.814 845.232 1002.08 813.073C998.981 820.592 995.718 837.976 993.966 846.707C987.396 878.014 982.376 909.622 978.91 941.425C954.822 904.901 908.93 857.325 878.229 824.793C837.578 781.325 796.204 738.538 754.121 696.448C731.165 673.872 708.614 653.494 685.242 631.556C695.456 624.63 705.718 617.779 716.029 611.003C837.633 531.796 966.088 454.223 1076.3 360.139C1069.12 394.27 1001.94 797.79 1003.57 802.346C1005.09 800.539 1006.3 792.8 1006.77 790.124C1015.32 740.779 1023.96 691.433 1032.63 642.106C1045.13 571.779 1058.25 501.561 1071.97 431.462C1075.74 412.734 1083.96 359.249 1093.51 345.784C1093.66 345.59 1093.8 345.401 1093.94 345.209Z" fill="white"/>
<path d="M276.412 342.107C276.979 342.673 282.246 355.618 283.626 357.993C295.056 377.654 310.246 396.782 323.843 414.829C374.827 481.328 428.463 545.751 484.622 607.941L481.802 613.101C477.373 616.187 467.527 621.422 462.43 624.379C449.241 631.911 436.205 639.705 423.329 647.757C381.628 673.86 340.904 701.493 301.242 730.602C284.431 742.83 267.758 755.247 251.226 767.849C235.134 780.113 198.308 808.653 186.354 824.572C188.677 803.325 192.655 780.333 196.218 759.111L212.875 664.167C233.079 556.622 254.26 449.265 276.412 342.107Z" fill="white"/>
<path d="M215.806 738.819C216.095 739.701 216.346 740.754 216.161 741.691C214.519 749.951 211.023 782.17 205.95 786.756C202.891 779.531 211.873 746.197 215.806 738.819Z" fill="black"/>
<path d="M570.683 566.658C589.739 566.649 608.979 573.035 623.375 585.71C638.493 599.186 647.641 618.122 648.798 638.346C650.041 660.56 640.005 686.779 624.808 702.797C606.136 722.477 585.927 731.478 559.287 732.641C538.958 732.384 520.452 726.224 505.251 712.386C490.318 698.56 481.535 679.334 480.861 658.993C480.111 635.934 488.502 613.517 504.208 596.615C522.11 577.238 544.612 567.79 570.683 566.658Z" fill="white"/>
<path d="M563.587 575.741C604.009 575.588 636.956 608.127 637.305 648.547C637.654 688.971 605.279 722.072 564.862 722.624C524.162 723.175 490.776 690.52 490.423 649.82C490.07 609.12 522.885 575.894 563.587 575.741Z" fill="black"/>
<path d="M566.802 583.788C591.911 581.7 613.915 595.994 624.857 618.17L624.165 617.313C584.487 568.311 510.168 596.077 504.86 655.625C503.561 670.412 509.344 686.504 518.791 697.905C521.179 700.783 524.982 703.097 526.904 705.663C525.043 705.644 520.945 702.221 519.378 700.948C490.545 677.619 490.582 636.503 514.264 609.47C528.368 593.369 545.681 585.484 566.802 583.788Z" fill="white"/>
<path d="M617.987 640.654C623.032 642.657 622.114 651.223 621.244 655.429C617.644 672.212 607.486 686.853 593.032 696.105C581.954 703.269 568.935 706.71 555.899 703.826C553.427 702.65 551.475 702.393 552.045 699.497C555.779 696.337 567.452 695.829 573.794 693.551C590.777 687.734 604.759 674.258 611.812 657.817C614.16 652.343 615.232 645.969 617.987 640.654Z" fill="white"/>
<path d="M741.881 584.233C802.603 542.016 864.348 501.29 927.06 462.09C931.634 459.26 942.043 451.22 946.856 450.097C920.006 469.337 889.544 488.982 861.862 507.098L742.915 584.881L741.881 584.233Z" fill="white"/>
<path d="M656.715 686.259C657.254 693.019 645.314 709.239 641.236 714.431C631.096 727.363 607.592 742.866 591.033 744.305C591.766 743.583 593.22 743.27 594.291 742.909C624.949 732.678 642.718 714.639 656.715 686.259Z" fill="white"/>
<path d="M742.915 584.881C740.166 586.976 734.453 590.692 731.318 591.964C734.613 589.086 738.274 586.71 741.881 584.233L742.915 584.881Z" fill="#88888D"/>
<path d="M955.71 443.267L956.114 443.651C955.581 445.377 953.744 445.951 951.822 447.116L951.166 446.449C952.06 444.817 953.818 444.294 955.71 443.267Z" fill="#353335"/>
</svg>
