<svg width="1254" height="1254" viewBox="0 0 1254 1254" fill="none" xmlns="http://www.w3.org/2000/svg">
<path d="M985.119 141.69C1009.57 140.989 1034.48 158.021 1050.91 174.924C1073.38 198.023 1106.72 236.161 1088.05 270.099C1082.94 279.4 1068.8 292.325 1060.95 300.092L1026.88 333.633C1026.51 336.538 1025.46 341.962 1023.61 344.144C1013.96 355.459 1001.03 365.487 990.164 375.449C979.143 385.555 968.623 395.52 957.975 405.954C953.365 410.473 954.142 413.859 951.999 416.197C946.299 421.506 938.528 430.496 932.148 434.676C917.661 444.172 907.687 456.912 894.945 468.326C892.832 470.215 888.044 471.252 885.227 471.776L819.545 538.602C802.609 555.819 784.142 574.18 767.818 591.852C797.674 622.653 830.218 654.076 860.76 684.41C904.325 727.853 947.652 771.535 990.74 815.461L1042.9 869.038C1050.92 877.292 1059.95 886.207 1067.41 894.938C1069.99 897.969 1071.1 904.007 1070.93 908.238C1070.52 914.116 1071.36 933.618 1068.18 938.057C1061.44 947.511 1043.68 963.1 1035.45 970.938L983.9 1020.16L954.797 1048.12C946.335 1056.28 929.576 1077.12 916.718 1065.61C906.389 1056.38 896.243 1045.57 886.421 1035.71L825.442 974.483L610.742 758.297C613.817 755.168 625.769 744.244 625.194 740.166C621.759 740.723 606.989 756.845 603.282 760.587L563.629 800.98L454.862 912.273C444.66 922.688 432.038 936.073 421.607 945.919C416.536 950.707 393.537 962.298 386.181 966.235L328.554 997.23L262.54 1032.86C253.84 1037.63 215.629 1061 208.484 1058.18C207.079 1056.76 206.586 1055.45 206.611 1053.48C206.699 1046.34 232.039 991.664 236.916 980.539C252.008 946.121 267.391 911.838 283.063 877.678L297.232 846.162C306.51 825.62 307.976 825.136 323.496 809.198L356.705 775.117L484.7 643.649C463.448 622.818 442.174 601.035 421.108 579.935L276.63 435.168L223.017 381.967C217.961 377.027 200.532 361.111 197.363 356.54C196.156 349.101 196.481 340.675 196.367 333.114C196.253 325.612 197.427 319.554 202.863 313.98C212.325 304.276 222.109 294.841 231.995 285.547C255.162 263.81 279.101 242.912 303.766 222.892C313.417 215.127 323.1 207.195 333.304 200.181C340.475 195.252 349.831 193.967 356.698 200.208C366.857 209.444 376.666 219.358 386.5 228.989L449.205 290.909L641.646 482.99C683.136 438.908 727.387 396.878 768.828 352.705C771.277 350.094 772.526 343.109 775.019 340.826C785.422 331.306 796.535 322.196 805.781 311.492C808.597 308.207 810.367 301.555 812.877 297.738C818.192 289.663 825.619 282.538 835.22 280.158C844.974 268.194 860.117 255.191 870.305 243.398C878.327 234.121 885.472 222.261 894.945 214.01C897.577 211.713 901.276 210.847 904.637 210.262C917.661 195.496 949.991 156.497 965.06 147.584C971.47 143.794 977.771 142.329 985.119 141.69Z" fill="black"/>
<path d="M762.901 597.441C764.646 598.61 776.813 611.014 779.568 613.762L820.372 654.333C879.686 713.133 938.553 772.373 996.979 832.049L1037.89 874.181C1045.62 882.16 1057.82 894.008 1063.89 902.831C1064.04 905.592 1063.78 909.983 1062.05 912.065C1054.52 921.139 1042.8 931.511 1034.31 939.569L975.805 995.209L950.346 1019.47C943.929 1025.59 939.073 1032.15 930.415 1034.4C926.484 1033.41 923.766 1032.75 920.814 1029.87C906.333 1015.72 891.907 1001.12 877.647 986.772L793.455 901.802L689.663 797.313C669.255 776.806 648.014 755.945 628.231 734.943C673.627 689.608 718.521 643.771 762.901 597.441Z" fill="white"/>
<path d="M936.257 898.539C953.028 896.732 968.109 908.795 970.031 925.547C971.954 942.3 959.996 957.467 943.255 959.506C926.35 961.563 911.005 949.458 909.064 932.546C907.123 915.628 919.333 900.363 936.257 898.539Z" fill="black"/>
<path d="M934.242 915.555C959.365 913.546 971.899 947.15 941.541 953.377C926.282 953.542 917.122 944.768 915.585 929.852C919.872 921.053 924.752 917.245 934.242 915.555Z" fill="white"/>
<path d="M801.984 645.173C804.06 646.974 803.974 646.337 804.501 648.523C801.544 652.343 753.227 701.83 750.918 702.289L746.087 697.464C762.858 680.601 784.283 661.142 801.984 645.173Z" fill="black"/>
<path d="M957.002 801.335C958.716 801.709 959.328 802.578 959.818 804.066C958.581 806.118 945.888 819.105 943.255 821.67C932.32 832.312 920.857 845.421 909.713 855.58L904.441 850.301C918.892 836.218 942.012 813.722 957.002 801.335Z" fill="black"/>
<path d="M881.707 724.283C883.354 725.844 884.027 726.322 884.088 728.141C875.118 738.605 863.239 749.718 853.687 760.017C850.565 763.385 837.761 776.58 834.645 778.809L829.581 773.745C846.824 757.115 864.195 740.631 881.707 724.283Z" fill="black"/>
<path d="M762.76 605.402L763.379 605.964C762.883 610.705 720.462 651.78 713.978 657.217L713.776 657.125L713.813 656.311C728.165 640.581 747.03 619.591 762.76 605.402Z" fill="black"/>
<path d="M847.987 692.296C848.281 692.455 849.548 693.533 849.861 693.784L849.959 695.009C844.154 701.658 832.575 711.706 825.864 717.78C824.64 717.297 825.001 717.364 824.009 716.207C824.425 712.429 843.805 696.056 847.987 692.296Z" fill="black"/>
<path d="M910.479 754.855C911.134 755.296 911.691 755.958 912.267 756.545C911.624 759.778 891.332 777.48 887.572 780.548C886.336 779.464 886.599 779.715 885.619 778.405C886.464 775.613 907.038 757.819 910.479 754.855Z" fill="black"/>
<path d="M832.122 676.964C833.769 677.436 833.138 677.154 834.473 678.458C833.861 681.71 813.998 698.781 810.514 701.922C808.628 700.722 809.105 701.518 808.677 699.687C810.575 695.762 827.615 681.073 832.122 676.964Z" fill="black"/>
<path d="M925.425 770.145C926.76 770.702 926.656 770.696 927.476 771.914C926.582 774.865 906.94 792.506 903.486 795.206C903.045 794.851 902.108 793.902 901.668 793.479C902.225 790.338 921.953 773.096 925.425 770.145Z" fill="black"/>
<path d="M863.723 708.271C865.223 708.81 864.752 708.682 866.025 709.9C865.425 712.772 846.07 729.696 842.421 732.99C840.621 731.863 841.111 732.647 840.535 730.871C842.237 726.94 859.437 712.049 863.723 708.271Z" fill="black"/>
<path d="M940.892 786.021C942.49 786.505 941.927 786.205 943.133 787.448C942.368 790.142 922.713 807.862 919.467 810.55C917.845 809.999 918.53 810.446 917.545 808.94C918.61 805.297 937.108 789.003 940.892 786.021Z" fill="black"/>
<path d="M1013.63 858.402C1014.63 859.394 1014.57 859.321 1015.08 860.631C1013.51 863.87 995.142 880.139 991.26 883.703C990.672 882.858 990.262 882.154 989.735 881.278C991.076 877.953 1009.95 861.335 1013.63 858.402Z" fill="black"/>
<path d="M985.762 830.689C987.268 831.632 986.649 831.044 987.427 832.673C985.933 836.573 967.882 852.15 963.743 855.481C962.598 854.796 962.861 854.881 961.937 853.81C963.284 850.571 981.733 834.375 985.762 830.689Z" fill="black"/>
<path d="M817.219 661.742C818.731 662.263 818.204 661.963 819.337 663.169C818.749 665.924 800.509 681.532 796.896 684.728L795.488 684.324L795.01 683.13C796.792 679.034 812.902 665.33 817.219 661.742Z" fill="black"/>
<path d="M895.826 740.068C896.402 740.301 897.204 741.029 897.749 741.452L897.829 742.358C891.73 748.971 882.325 756.962 875.4 763.085C875.137 763.146 874.298 763.042 873.979 763.017L873.502 761.842C875.351 757.837 891.632 743.65 895.826 740.068Z" fill="black"/>
<path d="M972.536 816.674L973.803 818.394C972.511 822.325 955.293 836.825 951.356 840.253C950.046 839.451 950.53 840.002 949.905 838.606C951.601 834.706 968.397 820.176 972.536 816.674Z" fill="black"/>
<path d="M784.999 628.708C785.875 629.247 785.85 629.48 786.518 630.405C785.771 633.87 769.208 647.61 765.76 650.611L764.156 649.619C764.824 645.779 781.344 631.984 784.999 628.708Z" fill="black"/>
<path d="M1027.5 872.975C1028.75 873.667 1028.18 873.275 1029.05 874.653C1028.04 878.125 1012 891.663 1008.28 894.945C1007.18 894.804 1007.73 894.981 1006.75 893.738C1007.21 890.346 1024.1 876.03 1027.5 872.975Z" fill="black"/>
<path d="M772.067 615.25C773.078 615.985 772.765 615.789 773.476 616.946C772.037 620.693 756.362 634.011 752.388 637.452C751.218 636.858 751.757 637.25 751.016 635.934C752.78 631.672 767.848 618.856 772.067 615.25Z" fill="black"/>
<path d="M1040.84 887.113C1042.04 888.044 1041.68 887.615 1042.29 889.024C1040.15 893.328 1027.4 903.75 1023 907.583C1021.49 907.252 1022.08 907.644 1021.19 906.48C1022.58 902.672 1037.09 890.297 1040.84 887.113Z" fill="black"/>
<path d="M999.183 844.24L1000.29 845.599C999.545 849.695 983.037 862.939 978.965 865.86L978.169 864.929C979.718 860.998 995.179 847.712 999.183 844.24Z" fill="black"/>
<path d="M1051.46 900.455C1052.59 900.81 1052.09 900.48 1052.87 901.6C1051.79 904.925 1039.47 914.893 1036.27 917.373L1035.33 917.52L1035.3 916.259C1038.66 911.575 1046.86 904.527 1051.46 900.455Z" fill="black"/>
<path d="M341.849 203.361C345.446 203.122 349.259 203.011 352.062 205.537C361.438 213.988 370.481 223.124 379.511 231.946L440.398 292.012L636.417 487.903L547.293 579.443C542.681 584.172 507.143 621.648 504.24 622.536L502.795 621.661L275.042 393.435C262.201 380.607 249.237 367.903 236.153 355.323C229.699 349.186 210.045 332.482 206.262 326.23C205.464 324.911 205.167 324.408 205.684 322.914C210.097 310.149 327.111 210.033 341.849 203.361Z" fill="white"/>
<path d="M421.671 282.705C423.298 283.368 424.298 284.173 424.522 285.943C416.462 295.504 401.968 308.037 392.845 317.495C389.258 321.214 373.928 336.242 370.487 338.698L365.216 333.543C382.299 316.761 403.64 298.865 421.671 282.705Z" fill="black"/>
<path d="M500.688 361.08C502.137 362.071 502.055 362.096 503.089 363.547L502.863 364.842C499.01 369.556 455.796 414.501 453.303 415.059L448.578 410.287C462.504 395.81 485.542 374.373 500.688 361.08Z" fill="black"/>
<path d="M580.061 440.31C581.955 442.199 582.114 441.73 582.423 443.836C578.58 448.741 537.645 491.151 535.329 491.439L530.673 486.708C536.707 480.341 545.788 472.22 552.427 465.939C560.923 457.9 571.21 447.761 580.061 440.31Z" fill="black"/>
<path d="M355.468 219.689C357.228 220.397 356.52 219.857 357.664 221.378C356.057 225.011 325.16 250.232 320 254.247L319.144 253.996L318.623 252.988C320.667 248.697 350.076 224.132 355.468 219.689Z" fill="black"/>
<path d="M373.301 235.606C374.585 236.386 374.486 236.362 375.297 237.648C374.438 240.701 354.069 257.825 349.976 261.22C348.584 260.187 349.003 260.558 347.942 259.165C348.9 255.963 369.107 239.117 373.301 235.606Z" fill="black"/>
<path d="M468.411 329.829C469.943 330.411 469.382 330.168 470.616 331.515C470.057 334.568 450.019 351.828 446.863 354.672C445.245 353.749 445.871 354.368 444.941 352.724C446.419 348.477 464.29 333.487 468.411 329.829Z" fill="black"/>
<path d="M452.662 314.469C454.407 315.354 453.783 314.706 454.606 316.473C452.858 320.645 435.883 335.065 431.554 338.647C430.212 338.217 430.019 337.677 429.649 336.547C431.376 332.538 448.194 318.497 452.662 314.469Z" fill="black"/>
<path d="M529.909 392.321C531.734 393.069 531.039 392.489 532.124 394.052C530.721 397.234 511.997 413.868 508.314 417.115C507.043 416.256 507.102 416.34 506.278 415.054C506.897 412.212 526.168 395.588 529.909 392.321Z" fill="black"/>
<path d="M546.192 407.112C547.915 408.926 547.615 407.937 547.693 409.964C543.979 414.642 529.861 427.138 524.569 432.036C523.256 431.068 523.26 431.175 522.51 429.752C523.266 426.84 542.403 410.334 546.192 407.112Z" fill="black"/>
<path d="M611.839 473.694C613.499 474.603 612.935 473.956 613.646 475.649C611.831 479.677 594.55 494.819 590.25 498.561C588.796 497.621 589.297 498.023 588.241 496.554C589.156 493.687 608.166 476.996 611.839 473.694Z" fill="black"/>
<path d="M389.385 250.946C390.158 251.591 390.598 252.199 391.262 252.97C390.784 255.717 371.736 272.012 368.334 274.638C366.425 273.332 366.849 274.154 366.243 272.416C368.177 269.137 385.405 254.448 389.385 250.946Z" fill="black"/>
<path d="M484.396 345.735C486.165 346.948 485.689 346.163 486.187 347.947C484.078 352.083 467.851 366.006 463.442 369.971C461.635 368.746 462.088 369.558 461.58 367.774C463.284 363.953 480.176 349.52 484.396 345.735Z" fill="black"/>
<path d="M597.435 458.604L599.141 460.318L599.065 461.515C593.467 467.881 582.548 477.655 575.931 483.25C574.458 482.514 574.999 483.096 574.159 481.602C575.863 477.377 592.93 462.587 597.435 458.604Z" fill="black"/>
<path d="M561.155 422.946C562.241 423.229 561.967 423.225 562.939 423.983L562.864 425.294C560.267 429.278 545.101 442.907 541.002 446.208C539.218 445.207 539.668 445.923 539.189 444.297C540.99 440.246 556.923 426.638 561.155 422.946Z" fill="black"/>
<path d="M437.582 299.257C439.262 299.818 438.604 299.326 439.616 300.793C438.073 304.657 422.172 317.907 418.021 321.533C416.416 320.936 417.063 321.398 416.17 319.965C417.425 316.078 433.645 302.68 437.582 299.257Z" fill="black"/>
<path d="M405.288 266.273C406.266 267.307 406.264 267.386 407.065 268.579C405.695 271.872 389.526 285.148 385.769 288.32C384.117 287.286 384.534 288.001 384.14 286.347C386.025 282.451 401.049 269.977 405.288 266.273Z" fill="black"/>
<path d="M515.467 377.017C516.716 377.734 516.281 377.368 517.058 378.687C515.638 382.468 499.328 396.34 495.198 400.014C493.77 399.351 494.404 399.787 493.458 398.471C494.95 394.537 511.325 380.509 515.467 377.017Z" fill="black"/>
<path d="M625.365 487.115C626.749 487.551 626.112 487.224 627.135 488.374C626.241 491.86 609.658 505.981 605.916 509.348L604.877 509.504L604.109 508.822C605.101 505.173 621.728 490.451 625.365 487.115Z" fill="black"/>
<path d="M812.02 363.451C830.42 374.915 846.493 389.752 859.388 407.181C844.215 421.434 828.503 437.861 813.955 452.78C784.393 483.308 755.039 514.037 725.893 544.963C655.607 619.652 584.9 693.949 513.776 767.842L438.45 846.573C430.845 854.496 413.887 872.865 406.377 879.331C403.077 882.172 349.441 898.961 346.861 898.759L345.744 897.284C340.869 901.496 338.084 901.655 331.731 902.525C337.462 896.426 358.37 875.277 361.639 869.669C352.209 878.731 340.212 890.536 331.573 900.29C334.997 888.515 349.679 838.429 355.004 831.124C359.791 824.566 366.491 818.749 372.209 812.933L401.061 783.285L506.335 675.256L717.597 459.118L780.223 395.424C790.198 385.315 801.727 373.008 812.02 363.451Z" fill="white"/>
<path d="M345.744 897.284C348.868 894.418 363.634 882.056 366.913 880.617L365.522 881.48L365.859 881.817C361.565 885.901 349.603 895.171 346.861 898.759L345.744 897.284Z" fill="black"/>
<path d="M861.188 409.771C863.533 413.248 865.854 416.739 868.156 420.244C828.369 460.006 789.726 500.89 752.265 542.849L752.988 544.365C790.191 504.844 830.763 460.231 869.503 422.619C871.738 426.828 879.821 441.15 878.639 445.16L880.304 447.027C881.192 451.712 881.694 454.181 881.835 458.906C876.085 466.014 862.333 479.286 855.635 486.081L805.364 537.133L663.512 682.695L490.41 859.823L440.246 911.336C431.879 919.92 423.46 928.578 415.014 937.09C411.733 940.396 407.486 942.202 403.297 944.217C406.069 938.914 410.549 931.805 410.91 926.074C410.563 925.192 410.446 924.274 409.716 924.17C403.714 923.313 392.507 927.929 385.883 928.891C390.802 917.41 397.467 906.493 403.008 895.306C407.837 885.564 414.886 878.945 422.323 871.187L446.083 846.487L524.745 763.936L776.647 499.21C794.214 480.207 811.965 461.373 829.893 442.71C839.255 432.913 852.616 419.75 861.188 409.771Z" fill="white"/>
<path d="M752.988 544.365C746.393 552.153 736.939 561.869 729.898 569.39L685.261 616.652L549.267 759.246L452.789 860.282L422.253 892.318C417.94 896.818 409.895 905.562 405.411 909.156L405.289 908.838C422.95 889.036 443.251 868.714 461.582 849.199C499.857 808.034 538.527 767.23 577.585 726.806C635.511 667.131 697.231 604.925 752.265 542.849L752.988 544.365Z" fill="black"/>
<path d="M878.639 445.16L880.304 447.027C876.992 448.563 869.203 459.026 866.35 459.475C869.154 455.677 875.375 448.767 878.639 445.16Z" fill="black"/>
<path d="M858.17 462.958C858.17 463.045 858.188 463.133 858.176 463.22C857.361 468.134 785.924 538.496 776.868 547.374C777.358 542.684 849.138 471.431 858.17 462.958Z" fill="black"/>
<path d="M474.827 856.712C491.032 839.849 507.432 823.176 524.024 806.693C526.265 804.452 539.724 790.767 541.648 789.695C536.946 795.72 527.527 804.519 522.017 810.373C507.139 826.183 490.789 841.668 476.033 857.533L474.827 856.712Z" fill="black"/>
<path d="M474.827 856.712L476.033 857.533C464.226 869.424 452.51 881.406 440.888 893.481C433.709 900.939 423.798 911.82 416.239 918.249C416.443 915.634 468.605 863.245 474.827 856.712Z" fill="black"/>
<path d="M780.499 354.719C791.569 353.293 799.498 356.879 809.075 361.823C796.498 375.195 782.63 388.82 769.692 401.938L697.887 474.823L515.437 661.699L404.201 775.753L369.508 811.475C352.795 828.54 355.475 829.41 332.556 836.353C325.641 838.545 317.332 841.068 310.313 842.537L310.612 841.496C311.656 837.896 313.198 832.477 315.74 829.832C327.434 817.672 339.366 805.462 351.113 793.375L422.073 720.303L662.599 473.697L744.667 389.898C750.416 384.044 776.066 357.16 780.499 354.719Z" fill="white"/>
<path d="M981.714 149.525C1024.86 146.467 1066.19 196.394 1082.2 231.077C1095.66 260.253 1068.27 280.687 1049.97 298.593C1046.52 301.971 1025.49 322.833 1024.24 323.278C1022.44 322.165 1022.89 322.012 1021.92 319.474C1006.24 276.541 956.83 227.079 912.958 212.995C920.9 203.102 930.654 192.705 939.281 183.194C947.468 174.173 956.824 163.241 966.407 155.925C971.152 152.304 975.922 150.637 981.714 149.525Z" fill="white"/>
<path d="M1072.81 250.202L1073.99 251.015L1073.87 252.626C1070.49 258.36 1028.87 298.58 1021.64 304.506L1020 302.477C1020.03 302.061 1020.04 301.647 1020.07 301.232C1033.12 287.555 1060.16 262.216 1072.81 250.202Z" fill="black"/>
<path d="M1060.59 244.738C1061.66 245.291 1061.25 244.861 1061.69 246.14C1057.96 252.189 1025.21 282.286 1018.09 288.604L1016.9 288.14L1016.87 287.214C1027.54 275.132 1048.44 255.998 1060.59 244.738Z" fill="black"/>
<path d="M967.313 172.651L967.772 173.658C963.621 179.57 934.64 211.658 930.14 213.901C929.344 212.729 929.35 212.827 929.16 211.434C936.918 202.627 958.753 179.605 967.313 172.651Z" fill="black"/>
<path d="M977.851 177.35L978.414 177.594L978.622 178.22C969.787 189.255 952.501 207.418 942.257 217.688C940.88 216.217 941.204 217.077 940.88 215.242C948.001 206.314 969.107 185.525 977.851 177.35Z" fill="black"/>
<path d="M331.7 843.278L343.538 839.758C338.747 860.533 330.108 880.592 324.766 901.215C324.172 903.505 324.52 905.715 325.733 907.742C329.742 910.987 337.159 908.299 341.737 907.013C360.679 901.686 379.427 895 398.347 889.703C392.166 904.227 382.029 919.498 376.335 933.801L375.886 934.91L375.624 935.577C361.085 945.784 346.656 956.151 332.34 966.67C324.848 972.193 315.926 978.383 309.135 984.561C316.643 980.508 327.68 972.536 334.72 967.46C349.058 957.124 363.04 946.788 377.567 936.667C385.669 936.918 394.856 932.926 403 931.34C399.613 937.371 395.069 945.031 392.052 951.117L286.59 1009.02C287.703 1006.46 289.495 1003.11 289.558 1000.47C286.819 996.685 284.556 998.473 283.965 996.342C286.203 993.55 299.657 982.382 299.514 980.9L300.522 980.306L300.463 980.208L300.394 980.196L299.664 981.035L298.653 981.2C291.928 986.227 286.061 992.001 279.657 996.734C280.737 992.626 284.995 980.839 278.409 980.024C277.708 979.957 277.006 979.89 276.304 979.822L275.881 978.849C281.225 971.63 287.708 964.668 292.379 957.277C285.933 963.051 273.153 981.843 265.462 982.333C261.373 980.349 264.895 977.251 260.712 973.54L259.002 972.769C256.459 974.538 251.926 978.102 248.983 976.246C249.141 972.113 298.208 865.45 304.843 851.606C312.742 849.04 320.671 846.554 328.626 844.166L320.447 860.38L321.589 861.145L331.7 843.278Z" fill="white"/>
<path d="M274.534 947.572C271.536 956.034 265.352 965.678 260.712 973.54L259.002 972.769C263.031 965.568 269.813 954.504 274.534 947.572Z" fill="black"/>
<path d="M320.447 860.38L321.589 861.145C319.56 865.101 317.277 868.481 314.859 872.203C316.225 868.046 318.103 864.072 320.447 860.38Z" fill="black"/>
<path d="M393.189 939.184C393.878 939.239 393.521 939.122 394.185 939.71C389.71 944.535 362.695 959.88 355.485 964.074L355.038 964.129L355.019 963.706C366.172 955.753 381.373 946.752 393.189 939.184Z" fill="black"/>
<path d="M344.109 942.974L344.343 943.69C334.133 952.777 320.384 963.467 309.53 971.783L309.051 971.458C310.451 968.795 339.678 946.445 344.109 942.974Z" fill="black"/>
<path d="M299.914 881.009C299.869 885.693 287.334 908.495 284.398 913.038C284.003 909.42 297.349 885.307 299.914 881.009Z" fill="black"/>
<path d="M315.692 984.017L315.878 984.108L316.039 984.653C308.105 989.987 300.143 995.283 292.153 1000.53L291.65 999.955C294.604 996.422 311.253 986.129 315.692 984.017Z" fill="black"/>
<path d="M344.073 927.703L344.211 927.807L344.176 928.548C337.13 935.142 329.763 941.388 322.103 947.26L321.585 946.666C327.556 940.684 337.354 932.871 344.073 927.703Z" fill="black"/>
<path d="M904.503 218.681C918.549 219.898 934.585 229.247 945.888 237.221C972.089 255.777 993.703 280.069 1009.09 308.247C1013.52 316.481 1022 331.717 1015.81 340.367C1014.2 340.623 1014.88 340.558 1014.34 338.686C1005.67 308.715 982.106 277.116 956.426 259.88C960.094 264.573 966.909 271.041 971.195 275.756C982.167 287.832 992.424 300.777 1000.43 315.037C1006.62 325.216 1011.02 331.936 1012.13 343.863L993.281 361.212C991.774 316.638 924.562 250.727 881.468 242.394C885.576 236.85 890.352 231.558 894.938 226.386C909.383 228.326 925.762 240.064 939.19 246.178C928.003 234.337 912.193 227.571 896.641 223.851C899.574 220.872 900.59 220.158 904.503 218.681Z" fill="white"/>
<path d="M943.874 268.636C946.899 269.454 951.228 273.56 953.671 275.604C968.182 287.741 995.442 321.55 996.654 339.67C994.352 338.427 989.754 327.723 988.07 324.62C976.467 303.263 960.43 286.204 943.874 268.636Z" fill="black"/>
<path d="M888.001 237.815C897.039 237.179 919.767 247.396 923.729 255.313C915.53 252.506 904.962 243.912 895.9 241.664C893.855 241.157 889.115 239.561 888.001 237.815Z" fill="black"/>
<path d="M835.232 288.471C871.107 286.541 929.123 349.309 942.067 381.634C943.715 385.746 952.146 405.987 945.9 408.427C943.806 405.872 942.49 398.236 941.198 394.858C931.726 370.028 902.457 332.932 879.318 321.158C882.815 325.737 892.14 333.681 896.72 338.16C905.905 347.086 914.244 356.841 921.635 367.299C931.854 382.678 940.616 394.325 943.17 412.753C938.234 417.755 930.287 424.837 924.819 429.1C923.68 383.895 859.841 317.762 815.994 309.107C822.68 294.581 825.932 295.681 840.657 300.526C849.695 303.502 857.514 308.628 866.227 312.113L867.042 312.435L866.203 311.652C855.267 301.316 841.466 295.692 826.599 294.38C829.814 291.438 831.326 290.303 835.232 288.471Z" fill="white"/>
<path d="M877.653 333.579C878.718 333.856 879.827 334.451 880.672 335.13C898.367 349.281 924.452 384.034 928.383 405.681C926.754 404.782 917.012 386.255 915.396 382.829C906.554 364.155 888.338 349.463 877.653 333.579Z" fill="black"/>
<path d="M823.538 303.902C832.245 303.358 852.591 312.177 856.896 319.635C848.569 315.606 840.633 311.219 832.073 307.72C828.95 306.444 825.062 305.98 823.538 303.902Z" fill="black"/>
<path d="M908.385 257.775C923.092 266.066 937.138 278.554 948.987 290.555L911.771 327.82L911.483 327.999C909.866 327.803 905.844 323.076 904.233 321.489C894.198 311.586 883.862 303.682 872.203 295.815C883.684 283.166 896.426 270.038 908.385 257.775Z" fill="white"/>
<path d="M844.607 325.647C859.633 334.938 870.654 345.267 882.613 357.821C875.4 364.799 868.303 371.9 861.335 379.12C847.277 364.959 839.892 358.548 823.176 347.342C830.193 339.989 837.339 332.757 844.607 325.647Z" fill="white"/>
<path d="M789.273 340.476C831.559 342.97 886.054 405.156 894.528 444.907C895.667 450.254 896.298 459.908 889.042 460.984L888.956 460.149C888.968 459.606 888.974 459.062 888.968 458.519C888.534 418.361 829.256 353.059 788.22 347.36C786.028 347.055 782.262 347.199 779.941 347.251C783.18 343.78 784.975 342.41 789.273 340.476Z" fill="white"/>
<path d="M878.792 246.882L886.287 247.5C876.912 258.645 860.87 274.486 850.369 285.458C848.256 284.813 845.452 284.262 843.248 283.759C853.853 272.425 867.636 257.316 878.792 246.882Z" fill="white"/>
<path d="M987.488 357.493C992.656 363.056 979.149 373.541 975.444 377.035L952.801 398.298L951.289 391.706C963.131 380.258 975.524 368.941 987.488 357.493Z" fill="white"/>
<path d="M815.351 314.216L823.415 314.961C816.27 322.678 808.671 329.728 801.55 337.589L793.498 336.052C800.693 328.684 807.979 321.405 815.351 314.216Z" fill="white"/>
<path d="M255.169 982.565C256.468 987.635 226.975 1032.28 222.281 1038.74C221.179 1034.97 247.505 992.111 251.428 985.786C252.137 984.641 253.965 983.312 255.169 982.565Z" fill="white"/>
<path d="M918.971 424.867C920.129 426.06 919.608 429.935 919.522 431.669C914.881 437.029 905.88 445.182 900.51 450.332C900.088 448.835 899.69 445.201 899.451 443.498C905.862 437.765 912.72 430.881 918.971 424.867Z" fill="white"/>
<path d="M979.645 343.395C980.3 343.984 980.086 343.603 980.153 344.596C974.256 352.128 954.02 370.937 946.415 377.938L945.423 376.276C946.121 373.327 975.114 347.087 979.645 343.395Z" fill="white"/>
<path d="M913.522 408.888L914.177 409.672C913.399 412.852 898.6 426.09 895.453 428.735C894.816 428.14 894.975 428.095 894.645 427.115C896.083 423.747 909.922 412.017 913.522 408.888Z" fill="white"/>
<path d="M925.792 1039.2C927.213 1039.71 926.558 1039.34 927.752 1040.27C927.96 1044.24 924.274 1055.55 922.933 1059.97C922.339 1059.76 921.959 1059.39 921.421 1059C920.692 1054.96 924.47 1043.67 925.792 1039.2Z" fill="white"/>
</svg>
