<svg width="1254" height="1254" viewBox="0 0 1254 1254" fill="none" xmlns="http://www.w3.org/2000/svg">
<path d="M891.044 631.555C943.555 628.684 1076.05 637.838 1112.44 679.352C1117.39 685.101 1121.31 691.665 1124.01 698.75C1133.63 723.805 1136.21 774.682 1134.14 801.721C1131.57 843.988 1122.86 884.033 1112.61 924.727C1093.35 1001.25 1066.48 1007.52 993.734 1001.98C946.066 998.075 896.641 990.152 849.481 981.665C826.311 977.495 789.787 971.262 771.485 955.997C751.996 939.741 750.392 897.43 748.579 873.581C747.226 811.732 751.677 745.236 771.547 686.4C788.079 638.309 847.999 633.594 891.044 631.555Z" fill="black"/>
<path d="M886.654 640.819C900.094 639.662 914.177 640.146 927.66 640.513C971.838 641.707 1071.42 650.065 1103.37 684.281C1116.68 698.542 1120.74 717.854 1119.89 736.853C1118.09 776.58 1096.97 877.861 1081 914.403C1076.49 924.727 1070.76 934.665 1062.34 942.312C1043.28 959.634 1016.81 958.844 992.699 957.699C966.351 957.203 931.891 951.95 905.201 948.074C871.83 942.796 838.19 938.216 806.099 927.28C774.155 916.393 759.919 896.751 758.707 863.166C756.747 808.695 762.05 751.665 776.61 699.135C779.329 689.332 786.077 677.319 792.659 669.512C813.93 645.271 856.192 642.791 886.654 640.819Z" fill="white"/>
<path d="M940.004 708.473C942.882 708.418 947.009 709.073 948.644 711.363C954.699 719.838 961.037 733.259 965.868 742.432C979.075 767.463 992.013 792.641 1004.68 817.96C1011.43 831.369 1018.24 844.693 1024.64 858.286C1028.9 866.607 1024.02 874.089 1014.7 873.967C1004.89 873.838 995.038 872.669 985.253 871.775L929.013 866.57L870.667 861.005C864.635 860.411 858.518 859.927 852.487 859.186C846.303 858.427 836.727 858.402 833.824 851.716C833.089 850.038 832.955 846.462 833.928 844.901C841.656 832.502 850.908 820.623 859.651 808.885C875.351 787.828 891.228 766.906 907.27 746.112C915.763 735.109 924.396 723.628 933.422 713.053C935.583 710.518 936.967 709.771 940.004 708.473Z" fill="black"/>
<path d="M1064.11 906.144L1064.69 907.123C1063.84 914.544 1056.3 925.596 1050.37 930.428C1037.63 940.812 1024.5 943.2 1008.61 942.037C1007.82 941.529 1008.28 941.89 1007.41 940.782C1008.5 939.6 1023.47 937.083 1026.72 936.177C1045 931.064 1053.28 921.243 1064.11 906.144Z" fill="black"/>
<path d="M825.503 667.455L826.471 668.367C825.472 670.241 822.178 671.815 820.207 673.156C815.829 676.076 811.879 679.585 808.456 683.589C799.664 693.833 796.106 705.455 790.571 717.352C785.673 715.38 794.6 695.137 796.566 691.562C803.227 679.438 812.204 671.435 825.503 667.455Z" fill="black"/>
<path d="M362.857 626.657C392.653 625.83 436.034 626.339 459.516 645.589C490.396 670.914 499.051 755.7 503.025 793.816C505.219 834.412 515.213 904.747 490.249 939.471C475.774 959.604 422.848 969.339 399.245 974.048C353.363 983.324 307.004 990.066 260.379 994.23L248.14 994.977C222.913 996.513 194.592 996.716 174.631 978.806C167.876 972.75 162.466 965.243 158.201 957.265C136.623 916.902 120.538 831.191 117.923 785.054C116.113 753.128 116.738 711.339 139.301 686.369C180.207 641.101 303.828 629.486 362.857 626.657Z" fill="black"/>
<path d="M357.178 636.528C382.691 634.838 433.243 635.438 452.552 652.76C483.19 680.24 488.866 761.94 493.533 800.938C495.547 827.573 501.239 872.638 481.396 893.506C454.646 921.641 395.587 929.644 358.682 935.736C328.825 940.947 298.762 944.903 268.573 947.597C266.001 947.793 263.428 947.964 260.853 948.111C238.221 949.373 213.163 947.768 195.545 931.75C188.68 925.511 183.379 917.857 179.024 909.707C160.29 874.628 134.085 780.64 132.351 740.864C131.552 722.55 135.668 705.534 148.399 691.831C185.62 651.774 304.733 638.597 357.178 636.528Z" fill="white"/>
<path d="M365.354 712.355C368.61 711.896 370.999 712.086 374.261 712.184C375.212 712.747 376.13 713.359 377.01 714.027C378.613 715.233 381.14 717.964 381.504 720.015C388.849 761.511 394.811 803.681 399.93 845.532C400.654 853.332 395.592 857.355 388.524 858.451C347.471 864.844 305.267 871.444 264.052 875.816C256.005 876.943 248.844 876.006 246.944 866.974C244.415 854.943 242.904 842.464 241.156 830.297C237.681 806.773 234.442 783.211 231.438 759.619C229.822 746.601 225.116 732.28 241.823 729.322C254.76 727.032 267.591 725.208 280.589 723.322C308.765 719.085 337.027 715.429 365.354 712.355Z" fill="black"/>
<path d="M162.689 701.609C163.139 702.087 162.852 701.726 163.221 702.889C158.667 713.555 156.063 719.844 154.532 731.514C153.703 737.833 156.05 762.46 154.315 764.548L153.185 764.009C150.086 755.455 148.548 746.412 148.64 737.319C148.827 724.093 153.022 710.941 162.689 701.609Z" fill="black"/>
<path d="M196.224 901.159C197.748 901.974 201.428 905.776 202.846 907.209C210.236 914.685 216.948 920.294 226.736 924.335C230.696 925.97 244.534 928.609 247.173 930.55L247.201 931.83C230.874 933.819 215.796 927.819 204.401 915.983C201.218 912.677 196.127 905.849 196.224 901.159Z" fill="black"/>
<path d="M166.289 722.146L167.312 722.838C167.722 724.742 164.153 748.696 163.312 750.906C158.61 742.279 160.915 730.008 166.289 722.146Z" fill="black"/>
<path d="M613.774 176.083C652.374 173.192 716.813 176.325 747.697 201.05C779.115 226.201 787.858 299.261 792.01 337.395C795.8 372.24 802.75 466.593 779.611 494.918C773.322 502.615 765.111 507.692 756.08 511.613C733.896 521.246 708.228 525.295 684.526 529.345C656.011 534.351 627.324 538.329 598.528 541.272C554.578 546.062 478.361 552.249 456.785 503.752C435.432 455.759 424.267 398.863 419.517 346.622C417.758 327.269 420.111 305.077 422.218 285.835C424.257 266.942 425.592 242.557 439.917 228.114C479.713 187.994 560.681 178.772 613.774 176.083Z" fill="black"/>
<path d="M617.228 185.264C649.582 182.457 717.027 186.548 741.893 208.36C772.41 235.138 777.511 305.639 782.672 343.743C785.409 363.909 787.699 408.158 782.342 427.704C780.419 434.938 776.96 441.672 772.202 447.45C745.94 479.133 640.612 490.515 599.773 494.498C591.23 495.335 582.671 495.996 574.101 496.48C547.72 497.876 516.825 498.339 496.133 479.496C490.764 474.551 486.215 468.785 482.657 462.413C461.624 424.489 439.048 328.417 435.238 283.208C433.74 265.428 438.498 244.476 451.457 231.369C486.014 196.413 571.448 187.292 617.228 185.264Z" fill="white"/>
<path d="M604.811 256.472C648.865 251.701 688.426 283.591 693.111 327.653C697.801 371.715 665.839 411.216 621.765 415.82C577.812 420.413 538.439 388.552 533.764 344.607C529.088 300.663 560.875 261.23 604.811 256.472Z" fill="black"/>
<path d="M495.751 447.338C498.273 448.379 504.175 455.823 506.652 458.139C516.585 467.426 528.552 473.334 541.815 476.186C544.824 476.833 548.322 477.129 550.131 479.694C529.973 484.612 499.945 468.025 495.751 447.338Z" fill="black"/>
<path d="M466.912 242.32C467.127 243.359 460.631 260.418 459.959 261.62C457.074 266.784 458.131 295.759 456.455 297.977L455.292 297.358C452.613 289.478 451.736 281.098 452.728 272.834C453.961 262.351 458.29 249.066 466.912 242.32Z" fill="black"/>
<path d="M820.335 355.166C837.302 353.095 883.396 381.894 896.971 392.587C945 430.666 978.751 483.865 992.73 543.543C996.471 559.289 998.167 574.015 1000.05 590.008C1004.06 584.668 1013.38 572.248 1018.32 568.591C1031.05 559.168 1037.73 573.777 1026.44 584.774C1018.57 592.425 1004.01 618.367 994.713 623.632C984.372 624.882 978.138 612.027 971.036 605.028C963.259 597.369 956.059 587.956 948.772 579.512C944.945 575.074 948.931 567.463 954.926 567.487C962.849 569.007 977.495 585.623 982.7 590.858C980.624 574.52 980.575 565.391 976.736 548.446C962.604 484.231 924.072 428.019 869.277 391.674C862.223 387.085 854.924 382.871 847.423 379.049C842.715 376.68 837.951 374.521 833.108 372.445C826.177 369.476 808.181 364.925 820.335 355.166Z" fill="black"/>
<path d="M340.957 377.253C356.836 377.337 378.211 383.398 394.382 385.268C400.629 385.99 406.231 389.58 403.594 396.684C398.799 409.098 393.528 421.382 388.439 433.692C385.835 439.989 382.203 454.106 372.833 450.642C370.96 449.929 369.448 448.498 368.633 446.667C366.553 441.931 376.038 418.531 378.398 412.825C374.697 414.776 371.033 416.793 367.405 418.877C313.016 450.554 275.28 503.086 259.322 563.626C256.824 574.657 255.111 585.851 254.196 597.124C253.703 603.218 253.681 609.188 252.896 615.335C252.887 621.452 243.46 622.959 241.912 618.189C237.422 604.37 242.84 574.141 245.821 561.412C258.641 507.743 288.63 459.727 331.233 424.66C343.293 414.804 356.151 406.663 369.359 398.478C360.071 396.8 342.895 395.029 335.949 388.445C331.624 384.346 337.076 379.378 340.957 377.253Z" fill="black"/>
<path d="M552.533 940.61C559.481 940.151 564.618 945.41 561.256 950.584C557.238 956.775 537.453 961.159 531.176 962.99C588.929 994.738 663.977 999.912 725.71 977.116C730.737 976.222 754.519 961.435 756.466 970.889C759.019 983.282 712.931 995.76 705.914 997.744C660.83 1009.16 613.499 1008.15 568.948 994.805C552.858 989.937 541.284 984.916 526.021 978.285C529.46 985.535 544.425 1005.24 533.874 1009.91C525.08 1013.8 518.265 996.232 514.319 990.305C509.09 981.224 502.479 971.623 498.139 962.139C493.191 951.319 517.51 949.164 523.691 947.768C533.341 945.527 542.956 943.139 552.533 940.61Z" fill="black"/>
<path d="M854.612 336.887C871.23 335.024 914.655 361.981 918.077 378.191C912.977 375.77 898.361 363.243 891.534 358.959C880.249 351.871 870.556 346.043 858.078 340.664C855.849 339.703 855.243 338.867 854.612 336.887Z" fill="black"/>
<path d="M730.02 1013.98L731.833 1014.08L732.182 1014.86C731.545 1016.08 731.037 1016.63 729.91 1017.41C712.925 1029.21 682.456 1034.37 662.599 1031.07C661.883 1030.83 660.854 1030.36 660.132 1030.06L659.979 1028.99C662.275 1027.21 671.9 1026.72 675.403 1026.49C694.562 1025.2 711.853 1019.92 730.02 1013.98Z" fill="black"/>
<path d="M699.087 1040.5C700.581 1040.2 702.815 1039.93 704.12 1040.76C703.189 1045.14 694.206 1046.64 690.367 1047.63C679.285 1050.49 668.22 1050.56 656.948 1049.01C654.407 1048.28 651.449 1047.56 649.594 1045.77L649.814 1044.84C652.098 1043.83 664.057 1044.44 667.663 1044.3C678.636 1043.86 688.316 1042.28 699.087 1040.5Z" fill="black"/>
<path d="M300.085 525.128L301.104 525.972C300.953 528.197 293.386 544.994 291.837 548.58C287.625 558.331 284.819 571.623 280.604 580.705C279.175 579.874 279.049 578.112 279.104 576.598C279.749 558.981 288.186 537.857 300.085 525.128Z" fill="black"/>
<path d="M884.229 331.406C895.251 329.871 923.3 346.767 922.394 357.634C917.6 355.778 907.356 346.48 902.017 343.398C898.588 341.42 885.497 333.799 884.229 331.406Z" fill="black"/>
<path d="M306.551 542.981C307.136 543.6 307.588 544.429 307.397 545.215C305.62 552.489 299.152 573.999 294.936 578.835C290.073 571.69 300.717 548.563 306.551 542.981Z" fill="black"/>
</svg>
