<?xml version="1.0" encoding="UTF-8" standalone="no"?>
<svg
   width="2649.1436"
   height="3141.0942"
   viewBox="0 0 2649.1436 3141.0943"
   version="1.1"
   xml:space="preserve"
   style="clip-rule:evenodd;fill-rule:evenodd;stroke-linejoin:round;stroke-miterlimit:2"
   id="svg5353"
   xmlns="http://www.w3.org/2000/svg"
   xmlns:svg="http://www.w3.org/2000/svg"><defs
   id="defs5353" />&#10;    <g
   id="vectorly-UNI-wallet"
   transform="matrix(4.9999999,0,0,4.9999999,-16635.067,-88672.949)"
   style="stroke-width:0.2"><path
     d="m 3473.4526,18276.509 c 3.2099,1.7 11.2399,3.3 22.4199,5 24.9499,3.9 64.1498,7.5 103.9397,9.9 53.4699,3.2 107.9398,4.2 130.1497,-0.3 1.89,-0.5 3.77,0.7 4.19,2.6 0.43,1.9 -0.76,3.8 -2.65,4.2 -22.3799,5.5 -77.7598,7.1 -132.2097,5.7 -40.3899,-1 -80.2298,-3.6 -105.6097,-7 -14.41,-1.9 -24.5199,-4.4 -28.4099,-6.7 -2.89,-1.6 -8.15,-7.8 -14.22,-18 -9.04,-15.2 -21.5999,-40.1 -35.1399,-69 -11.98,-25.6 -24.7099,-54.2 -36.6899,-81.9 -28.0799,-64.8 -51.9199,-124 -51.9199,-124 -0.77,-1.7 0.05,-3.8 1.82,-4.6 1.78,-0.7 3.84,0.1 4.61,1.9 0,0 26.7299,57.8 57.0499,121.5 12.8899,27.1 26.4399,55.3 38.8599,80.5 13.8199,28.1 26.2399,52.5 35.1199,67.4 2.63,4.5 4.88,8 6.77,10.5 0.72,1 1.75,2.1 1.92,2.3 z m -0.21,-0.1 c 0,0 0,0 0,-0.1 z"
     id="path5178"
     style="stroke:none;stroke-width:0.2" /><path
     d="m 3610.9122,17967.709 c -1.72,0.4 -4.29,1.4 -6.65,1.9 -18.8099,4.5 -56.8698,16.4 -117.1897,22 -35.9999,3.4 -79.8998,4.4 -132.3397,0.5 -1.9299,-0.1 -3.4099,-1.8 -3.2999,-3.7 0.1,-1.9 1.76,-3.4 3.6899,-3.3 51.9199,1.9 95.1898,-1 130.6197,-5.5 59.2199,-7.5 96.4098,-20.1 114.8297,-24.9 5.39,-1.4 9.44,-2.1 12.18,-2.1 2.7,-0.1 4.74,0.6 6.23,1.3 0.85,0.5 2.09,1.3 3.42,3 1.52,1.8 4.01,5.9 7.15,11.8 5.25,9.9 12.7899,25.6 21.4599,44.7 8.92,19.8 19.06,43.2 29.4399,67.9 10.52,25 21.24,51.2 31.15,75.9 23.8399,59.5 42.8799,110.6 43.2999,116.3 0.19,1.9 -1.23,3.6 -3.16,3.8 -1.92,0.2 -3.63,-1.2 -3.82,-3.2 -0.68,-5.9 -25.07,-61.9 -52.9999,-124.7 -11.01,-24.7 -22.5799,-50.5 -33.4999,-74.7 -12.78,-28.4 -24.7299,-54.6 -34.0699,-74.4 -6.02,-12.7 -10.87,-22.8 -14.26,-28.9 -0.75,-1.4 -1.6,-2.7 -2.18,-3.7 z m 0.59,-0.1 c 0.07,0.1 0.14,0.1 0.2,0.1 0.33,0.2 1.14,1 1.22,0.5 0.1,-0.6 -0.47,-0.7 -1.42,-0.6 z"
     id="path5180"
     style="stroke:none;stroke-width:0.2" /><path
     d="m 3340.0229,17979.109 c -0.06,-0.4 -0.44,-1.2 -0.74,-1.1 -2.03,0.7 3.61,3.7 6.65,5 1.87,0.4 3.02,2.3 2.55,4.2 -0.47,1.9 -2.38,3 -4.25,2.6 -5.05,-0.5 -9.82,-2.2 -12.67,-4.5 -3.01,-2.4 -3.62,-5.8 -2.92,-9.6 0.66,-3.6 4.57,-8.4 14.27,-14.5 1.89,-1 4.99,-2.8 9.42,-4.8 2.7599,-1.2 6.0299,-2.4 9.7499,-3.7 4.41,-1.5 9.37,-3 14.95,-4.7 4.73,-1.3 9.71,-2.6 15.16,-4.1 1.78,-0.8 3.8399,0 4.6099,1.8 0.77,1.8 -0.05,3.9 -1.82,4.6 -4.8099,3 -9.1399,5.7 -13.3699,8.3 -4.98,2.9 -9.45,5.5 -13.54,7.7 -3.43,1.9 -6.49,3.5 -9.2,4.7 -4.25,2 -7.5399,3.1 -9.4399,3.9 -3.87,1.4 -6.59,2.5 -8.34,3.8 -0.28,0.2 -0.78,0.3 -1.07,0.4 z m 0,0 c 0.03,0.2 -0.01,0.3 -0.17,0.2 -0.13,0 -0.03,-0.1 0.17,-0.2 z m 395.679,-160.1 c 0.48,-0.1 1,-0.1 1.24,-0.1 -0.39,0 -0.8,0 -1.25,0.1 -0.32,-0.5 -0.6,-0.8 -0.84,-0.5 -0.28,0.4 0.08,0.5 0.59,0.5 -4.68,0.5 -12.39,2.4 -22.4699,5.3 -14.93,4.3 -34.75,10.7 -57.5199,18.6 -1.8,0.7 -3.83,-0.2 -4.52,-2 -0.69,-1.8 0.22,-3.8 2.03,-4.5 22.41,-9.4 41.9399,-17.2 56.7099,-22.4 12.2899,-4.4 21.4299,-6.9 26.3499,-7.4 1.63,-0.2 3.57,0.3 5.68,1.6 1.87,1.1 4.25,3.6 6.9,7.3 6.2,8.6 15.0099,25.4 24.8499,46.9 4.47,9.8 9.16,20.5 13.88,31.9 4.42,10.7 8.91,21.9 13.2799,33.5 6.31,16.6 12.43,33.8 18.25,50.7 7.79,22.7 14.93,44.8 20.8999,64.2 10.46,34 17.15,59.7 17.08,66.2 0.03,1.9 -1.51,3.5 -3.44,3.5 -1.94,0.1 -3.54,-1.5 -3.57,-3.4 -0.33,-6.8 -10.15,-35.1 -23.7999,-71.8 -5.54,-14.9 -11.75,-31.1 -18.18,-47.8 -9.12,-23.7 -18.9799,-48.2 -28.1299,-71.3 -10.76,-27.1 -20.65,-52.2 -29.0699,-70.6 -5.39,-11.9 -9.94,-21 -13.56,-26.2 -0.49,-0.7 -0.97,-1.7 -1.39,-2.3 z m 0,0 c -0.09,0 -0.18,0 -0.26,0 0.09,0 0.17,0 0.25,0 z"
     id="path5182"
     style="stroke:none;stroke-width:0.2" /><path
     d="m 3837.8417,18121.109 c 1.7699,-0.8 3.8399,0 4.6099,1.8 0.78,1.8 -0.03,3.8 -1.8,4.6 0,0 -15.5999,9 -36.0999,19.6 -4.67,2.5 -9.5999,4.9 -14.6799,7.4 -3.25,1.5 -6.55,3.1 -9.92,4.5 -8.61,3.7 -17.35,6.9 -25.4699,9.9 -21.68,8 -38.8299,13.4 -38.8299,13.4 -1.78,0.8 -3.85,0 -4.62,-1.8 -0.78,-1.8 0.03,-3.8 1.8,-4.6 0,0 15.6399,-8.9 36.1699,-19.5 7.69,-4 16.0199,-8.2 24.5299,-12 3.33,-1.5 6.72,-2.9 10.08,-4.2 5.22,-2.1 10.36,-4.1 15.3199,-5.9 21.73,-7.8 38.91,-13.2 38.91,-13.2 z"
     id="path5184"
     style="stroke:none;stroke-width:0.2" /><path
     d="m 3650.1421,18031.509 c -1.83,0.6 -3.83,-0.3 -4.47,-2.1 -0.65,-1.9 0.31,-3.9 2.14,-4.5 0,0 11.31,-6.1 26.56,-13.1 3.4299,-1.6 7.0599,-3.1 10.8199,-4.6 2.4,-1 4.84,-2 7.33,-2.8 6.33,-2.1 12.79,-3.9 18.88,-5.4 12.6099,-3.3 23.4799,-5.4 28.8399,-6.7 1.83,-0.6 3.83,0.4 4.47,2.2 0.64,1.8 -0.33,3.8 -2.15,4.5 -4.95,2.3 -14.76,7.5 -26.6299,12.8 -5.73,2.6 -11.84,5.3 -18.09,7.6 -2.47,1 -4.98,1.7 -7.46,2.5 -3.89,1.1 -7.69,2.2 -11.35,3.1 -16.2899,4.1 -28.8899,6.5 -28.8899,6.5 z"
     id="path5186"
     style="stroke:none;stroke-width:0.2" /><path
     d="m 3734.0119,17998.209 c 0.69,1.8 -0.23,3.8 -2.04,4.5 -1.81,0.7 -3.83,-0.3 -4.52,-2.1 -2.16,-4.2 -4.48,-10.4 -7.81,-15.1 -1.1,-1.5 -2.4599,-2.6 -4.0099,-3.2 -1.02,-0.4 -2.1,0.2 -3.51,0.9 -3.03,1.2 -7.96,3.6 -14.06,6 -4.38,1.7 -9.34,3.5 -14.49,5.1 -7.4399,2.4 -15.2299,4.6 -22.1999,6.6 -12.66,3.5 -22.43,5.9 -22.43,5.9 -1.81,0.7 -3.8399,-0.2 -4.5199,-2 -0.7,-1.8 0.21,-3.8 2.02,-4.5 0,0 8.8999,-4.8 20.7399,-10.5 6.52,-3.2 13.81,-6.7 20.9999,-9.8 3.91,-1.7 7.77,-3.3 11.43,-4.6 7.55,-2.8 14.09,-4.6 17.76,-5.7 7.08,-1.8 12.2899,-0.7 16.1699,2.6 3.03,2.7 5.44,6.4 6.92,10.9 1.69,5.1 2.5,10.8 3.55,15 z"
     id="path5188"
     style="stroke:none;stroke-width:0.2" /><path
     d="m 3717.5919,17941.609 c 1.75,-0.8 3.84,-0.1 4.66,1.7 0.82,1.7 0.07,3.8 -1.68,4.6 0,0 -10.7999,7.3 -25.5299,15.7 -3.33,1.9 -6.86,3.7 -10.53,5.6 -2.35,1.2 -4.73,2.4 -7.18,3.4 -6.2499,2.6 -12.6599,4.9 -18.7299,6.8 -12.84,4.2 -23.9899,6.9 -29.5699,7.6 -1.88,0.4 -3.78,-0.7 -4.24,-2.6 -0.45,-1.9 0.7,-3.8 2.58,-4.2 5.05,-1.9 14.5099,-7.3 25.9199,-13.4 5.58,-2.9 11.5,-6 17.57,-8.8 2.4,-1.1 4.86,-2.1 7.2799,-3.1 3.79,-1.4 7.51,-2.8 11.1,-4.1 15.96,-5.5 28.3499,-9.2 28.3499,-9.2 z"
     id="path5190"
     style="stroke:none;stroke-width:0.2" /><path
     d="m 3712.142,17948.909 c 0.39,1.9 -0.83,3.7 -2.72,4.1 -1.89,0.4 -3.75,-0.8 -4.14,-2.7 0,0 -4.36,-16.3 -12.52,-25.6 -3.07,-3.5 -6.82,-5.8 -11.44,-3.7 -4.9999,2.2 -17.3899,7.9 -33.5499,14.7 -10.16,4.4 -21.7599,9.2 -33.9099,13.9 -13.61,5.3 -27.9099,10.3 -41.3399,15.1 -33.9399,11.9 -62.4498,21.3 -62.4498,21.3 -1.8,0.8 -3.84,-0.1 -4.56,-1.9 -0.71,-1.8 0.17,-3.9 1.97,-4.6 0,0 27.1999,-12.7 60.1198,-27.2 13.03,-5.8 26.89,-11.9 40.3899,-17.5 12.08,-4.9 23.85,-9.3 34.1999,-13.1 16.48,-6.1 29.42,-10.4 34.57,-12.3 8.0899,-2.7 14.7699,-0.7 20.0899,4.3 3.69,3.4 6.79,8.3 9.06,13.5 4.51,10.4 6.23,21.7 6.23,21.7 z"
     id="path5192"
     style="stroke:none;stroke-width:0.2" /><path
     d="m 3700.942,17876.709 c 1.82,-0.6 3.83,0.3 4.49,2.1 0.66,1.9 -0.29,3.9 -2.11,4.5 0,0 -37.9799,15.9 -86.7998,35.4 -11.16,4.4 -22.8999,9 -34.8899,13.6 -7.71,3 -15.51,6 -23.36,8.9 -20.0399,7.3 -40.1999,14.2 -58.8998,20.7 -44.2499,15.3 -80.2998,27.3 -87.7798,31.1 -1.69,1 -3.83,0.4 -4.77,-1.3 -0.93,-1.7 -0.32,-3.9 1.37,-4.8 7.28,-4.4 42.4799,-19.9 86.3698,-37.8 18.35,-7.5 38.1799,-15.4 58.1599,-22.9 7.8299,-3 15.7199,-5.8 23.5099,-8.5 12.13,-4.3 24.0599,-8.4 35.4699,-12.2 49.8999,-16.6 89.2398,-28.8 89.2398,-28.8 z"
     id="path5194"
     style="stroke:none;stroke-width:0.2" /><path
     d="m 3558.9723,17762.509 c -1.4,1.2 -3.7699,3.9 -7.1299,7.6 -8.23,8.9 -20.6,23.7 -35.09,41.5 -18.9799,23.4 -41.5098,52.2 -62.0998,81.5 -24.4499,34.8 -46.4299,70.2 -56.4299,97.9 -0.61,1.9 -2.6,2.9 -4.4399,2.3 -1.83,-0.6 -2.83,-2.6 -2.21,-4.5 10.8099,-35.1 38.7399,-83.1 68.5898,-126.7 17.6399,-25.8 35.8799,-50.1 51.4399,-69.4 10.2899,-12.7 19.4699,-23.3 26.3499,-30.7 7.17,-7.8 12.39,-12.4 14.36,-13.5 2.3,-1.2 6.7199,-1.9 12.4299,1 8.29,4.2 23.79,16.9 41.1099,33.3 37.0599,35.1 83.2698,86.7 88.6298,99.8 0.78,1.7 -0.03,3.8 -1.8,4.6 -1.77,0.8 -3.84,-0.1 -4.62,-1.8 -3.78,-8 -25.2999,-30.6 -49.9699,-54.5 -23.3299,-22.5 -49.5798,-46.1 -67.1598,-59.2 -4.44,-3.4 -9.17,-7.6 -11.96,-9.2 z m -0.12,0 c -1.27,-0.7 -2.12,-0.8 -2.31,0.1 -0.22,1.1 1.24,0.4 2.31,-0.1 z"
     id="path5196"
     style="stroke:none;stroke-width:0.2" /><path
     d="m 3545.6324,17765.609 c 1.33,1.4 1.27,3.7 -0.14,5 -1.4,1.3 -3.62,1.2 -4.95,-0.2 -4.39,-4.2 -15.47,-11.5 -26.7499,-17.1 -7.16,-3.6 -14.41,-6.5 -20,-7.1 -1.74,-0.3 -3.22,-0.6 -3.99,0.4 -1.58,1.8 -4.95,10.6 -10.08,23.6 -6.1399,15.5 -14.0399,36.8 -22.8199,60.2 -3.16,8.4 -6.51,17 -9.92,25.8 -7.89,20.2 -16.0299,40.9 -23.3099,60.1 -12.37,32.6 -22.5,60.7 -25.32,74.2 -0.33,1.9 -2.15,3.2 -4.0499,2.9 -1.91,-0.3 -3.19,-2.1 -2.86,-4.1 1.65,-12.2 7.8499,-36.1 16.4899,-64.5 5.96,-19.6 13.04,-41.3 20.48,-62.9 2.91,-8.4 5.87,-16.7 8.8999,-24.9 3.15,-8.5 6.36,-16.7 9.52,-24.6 6.72,-16.8 13.18,-31.9 18.6,-44 7.48,-16.6 13.3199,-27.7 15.4299,-29.9 2.29,-2.3 5.44,-3.9 9.49,-3.9 4.26,-0.2 9.8,1.2 15.76,3.8 15.1299,6.6 33.6199,20.5 39.5199,27.2 z"
     id="path5198"
     style="stroke:none;stroke-width:0.2" /><path
     d="m 3424.9527,17750.709 c -1.07,5.6 -3.73,24.2 -7.13,48.8 -1.43,10.4 -2.98,21.8 -4.65,33.7 -1.15,8.2 -2.36,16.7 -3.61,25.3 -2.85,19.6 -5.72,39.8 -7.89,58.9 -3.25,28.8 -5.18,54.8 -3.31,72 0.28,1.9 -1.04,3.7 -2.96,4 -1.9099,0.3 -3.6999,-1 -3.9799,-2.9 -2.8,-15.1 -3.55,-37 -2.74,-61.8 0.63,-19.4 2.15,-40.5 4.23,-61.2 0.82,-8.3 1.74,-16.4 2.7799,-24.4 1.08,-8.3 2.28,-16.5 3.54,-24.2 2.66,-16.5 5.48,-31.4 7.88,-43.4 3.18,-15.9 5.74,-26.6 6.52,-29.1 0.91,-3 2.86,-5.3 6.3,-6.4 2.63,-0.9 6.5,-1.1 11.12,-0.3 17.0899,2.8 47.0498,16.8 47.0498,16.8 1.78,0.8 2.62,2.8 1.87,4.6 -0.75,1.8 -2.81,2.6 -4.5899,1.9 0,0 -15.93,-5.9 -30.95,-9.6 -7.63,-1.9 -14.9799,-3.3 -19.4799,-2.7 z m 0.25,-1.2 z"
     id="path5200"
     style="stroke:none;stroke-width:0.2" /><path
     d="m 3535.7924,17888.909 c 1.93,-0.1 3.54,1.5 3.59,3.4 0.04,1.9 -1.49,3.5 -3.42,3.6 -4.14,0.7 -9.72,3.9 -15.07,8.4 -2.03,1.7 -3.81,3.7 -5.5499,5.9 -1.52,1.9 -2.71,4.1 -3.82,6.4 -1.21,2.5 -2.35,5.2 -2.79,8.5 -0.28,2 -0.57,4.1 -0.49,6.4 0.19,5.3 1.05,11.1 3.6,17.9 0.94,1.7 0.32,3.8 -1.37,4.7 -1.69,1 -3.83,0.3 -4.76,-1.4 -4.23,-5.5 -7.01,-10.7 -8.92,-15.6 -1.73,-4.5 -2.41,-8.8 -2.57,-12.8 -0.21,-5.3 0.9,-10.2 2.8,-14.4 1.1,-2.5 2.56,-4.7 4.23,-6.7 2.51,-3.1 5.38,-5.7 8.56,-7.7 2.41,-1.5 4.84,-2.8 7.3699,-3.7 7.13,-2.7 13.93,-3.5 18.61,-2.9 z"
     id="path5202"
     style="stroke:none;stroke-width:0.2" /><path
     d="m 3467.3426,17891.709 c -1.71,-0.9 -2.36,-3 -1.45,-4.7 0.91,-1.7 3.03,-2.4 4.74,-1.5 0,0 5.5599,0.9 12.9999,3 1.62,0.4 3.24,1 4.92,1.7 1.05,0.4 2.12,0.9 3.11,1.4 2.58,1.5 4.88,3.3 7.03,5.1 5.96,4.8 9.79,9 9.79,9 1.71,0.9 2.36,3 1.45,4.7 -0.91,1.7 -3.03,2.4 -4.74,1.4 0,0 -5.56,-0.8 -12.92,-3.1 -2.64,-0.8 -5.42,-1.7 -8.11,-2.9 -1.04,-0.5 -2,-1.2 -2.94,-1.8 -1.5,-1 -2.87,-2.1 -4.17,-3.1 -5.9199,-5 -9.7099,-9.2 -9.7099,-9.2 z"
     id="path5204"
     style="stroke:none;stroke-width:0.2" /><path
     d="m 3364.4828,18358.309 c -1.93,0 -3.5,-1.6 -3.5,-3.5 0,-2 1.57,-3.5 3.5,-3.5 0,0 64.4799,-2 146.6597,-3.5 18.8099,-0.4 38.5499,-0.7 58.6598,-0.8 12.94,-0.2 26.02,-0.3 39.1099,-0.2 33.4299,0.1 66.8399,0.6 97.7698,1.1 82.1698,1.4 146.6496,3.4 146.6496,3.4 1.94,0 3.51,1.5 3.51,3.5 0,1.9 -1.57,3.5 -3.51,3.5 0,0 -64.4798,1.9 -146.6496,3.3 -30.9299,0.5 -64.3399,1 -97.7698,1.2 -13.0899,0 -26.1699,-0.1 -39.1099,-0.2 -20.1099,-0.2 -39.8499,-0.5 -58.6598,-0.8 -82.1798,-1.6 -146.6597,-3.5 -146.6597,-3.5 z"
     id="path5206"
     style="stroke:none;stroke-width:0.2" /></g>&#10;</svg>
