<?xml version="1.0" encoding="UTF-8" standalone="no"?>
<svg
   width="3117.9683"
   height="3012.4021"
   viewBox="0 0 3117.9683 3012.4021"
   version="1.1"
   xml:space="preserve"
   style="clip-rule:evenodd;fill-rule:evenodd;stroke-linejoin:round;stroke-miterlimit:2"
   id="svg5353"
   xmlns="http://www.w3.org/2000/svg"
   xmlns:svg="http://www.w3.org/2000/svg"><defs
   id="defs5353" />&#10;    <g
   id="vectorly-UNI-phone-smartphone"
   transform="matrix(4.9999999,0,0,4.9999999,-12218.685,-80856.641)"
   style="stroke-width:0.2"><path
     d="m 2654.2246,16772.209 c -1.94,0 -3.54,-1.5 -3.58,-3.4 -0.05,-2 1.49,-3.6 3.42,-3.6 0,0 41.3699,-2.9 94.3698,-5.5 12.0999,-0.6 24.7999,-1.1 37.7599,-1.5 8.3199,-0.3 16.7499,-0.6 25.1799,-0.7 21.4899,-0.2 43.0099,-0.1 62.9998,0.2 46.1699,0.6 84.0998,2.1 94.7398,3.1 1.94,0.1 3.41,1.8 3.29,3.7 -0.12,1.9 -1.78,3.4 -3.71,3.3 -10.62,-0.3 -48.2899,1.7 -94.1298,3.6 -19.9599,0.8 -41.4399,1.6 -62.9098,2.1 -8.42,0.2 -16.85,0.3 -25.1699,0.3 -12.96,0 -25.67,0 -37.7799,-0.1 -53.0399,-0.5 -94.4798,-1.5 -94.4798,-1.5 z"
     id="path4640"
     style="stroke:none;stroke-width:0.2" /><path
     d="m 2952.6938,16676.809 c 1.68,7.3 0.59,15.2 -4.0899,21.4 -3.75,5 -9.86,9 -18.97,10.5 -11.3,1.9 -75.5298,12.1 -123.4397,18.7 -28.2799,3.8 -51.1099,6.1 -55.1599,5.1 -8.1199,-2 -13.7599,-6.2 -18.0499,-11.9 -5.3,-7.1 -8.35,-16.6 -11.56,-26.7 -2.54,-8.1 -29.4499,-102.4 -55.7798,-196.9 -26.8,-96.1 -52.9799,-192.4 -54.0399,-197.7 -1.73,-8.9 0.67,-20.2 6.52,-29.2 5.91,-9.1 15.1299,-15.7 26.2099,-16.2 5.07,-0.2 51.7999,2 92.5598,4.3 31.0499,1.7 58.6598,3.5 62.1598,4.2 7.28,1.5 12.29,4 16.04,7.1 6.3,5.2 9.02,12.4 12.54,21 1.22,2.9 41.3499,125.2 75.7798,231.5 25.7299,79.5 48.2498,150 49.2798,154.8 z m -6.8399,1.6 c -0.93,-4 -17.66,-53.1 -38.7899,-114.9 -38.1499,-111.5 -90.7398,-264.4 -92.1498,-267.7 -2.28,-5.3 -3.81,-10.1 -7.05,-13.8 -2.39,-2.7 -5.9,-4.5 -11.54,-5.6 -3.97,-0.7 -39.7099,-2.4 -75.4698,-4 -35.7299,-1.6 -71.4798,-2.9 -75.8398,-2.7 -5.86,0.2 -10.43,4.2 -13.54,9.1 -3.4899,5.4 -5.2599,12.1 -4.2099,17.4 l 105.6097,394.1 c 2.63,8.9 4.88,17.3 9.36,23.4 2.7,3.8 6.29,6.6 11.5099,8 3.73,0.9 24.88,-1.4 51.1699,-4.5 47.9199,-5.6 112.2097,-14.6 123.5197,-16.2 6.77,-1 11.44,-3.6 14.29,-7.3 3.46,-4.4 4.23,-10.1 3.13,-15.3 z"
     id="path4642"
     style="stroke:none;stroke-width:0.2" /><path
     d="m 2780.7243,16721.909 c 1.92,0.2 3.23,2 2.94,3.9 -0.29,2 -2.07,3.3 -3.99,3 -6.57,-0.8 -14.65,-4.4 -21.64,-10.4 -5.97,-5 -11.0499,-11.8 -13.8099,-19.8 -1.69,-5.1 -14,-45.8 -29.58,-99.7 -5.3999,-18.7 -11.1799,-39 -16.9999,-59.9 -3.67,-13.2 -7.37,-26.6 -10.94,-40.1 -7.27,-27.4 -14.23,-54.9 -20.6399,-80.4 -16.51,-65.7 -28.99,-117.8 -29.8,-120.9 -1.39,-5.3 -3.59,-14.4 -3.12,-22.6 0.37,-6.3 2.26,-12 6.66,-15.6 1.47,-1.2 3.68,-1.1 4.94,0.4 1.26,1.5 1.09,3.7 -0.38,4.9 -2.75,2.5 -3.43,6.4 -3.47,10.6 -0.05,7.2 2.38,15.3 3.85,19.9 0.94,3 16.26,54.4 34.9199,119.6 7.23,25.3 14.98,52.6 22.46,80 3.67,13.4 7.19,26.9 10.6299,40.1 5.47,21 10.67,41.4 15.4,60.3 13.6,54.2 23.5599,95.5 25.0199,100.6 1.88,6.6 5.73,12.2 10.32,16.5 5.46,5.2 11.88,8.6 17.23,9.6 z"
     id="path4644"
     style="stroke:none;stroke-width:0.2" /><path
     d="m 2780.2043,16725.309 c -14.73,1.6 -25.24,2.4 -27.82,1.8 -15.9899,-4 -20.2399,-18.8 -25.2299,-35 -5,-16.2 -105.6497,-383.8 -107.7197,-394.3 -2.61,-13.3 6.94,-33.1 22.6499,-35.7 -8.82,7.5 -3.98,26 -1.58,34.3 2.4,8.3 103.1998,384.8 108.1998,400.8 4.9999,16 20.4899,26.5 31.4999,28.1 z"
     id="path4646"
     style="stroke:none;stroke-width:0.2" /><path
     d="m 2743.2744,16679.409 c -1.92,0.3 -3.69,-1 -3.96,-2.9 -0.26,-2 1.08,-3.7 2.99,-4 0,0 24.7699,-5.4 56.6298,-11.4 7.28,-1.4 14.92,-2.7 22.73,-4 5.02,-0.8 10.0999,-1.6 15.1999,-2.3 13.05,-1.7 26.12,-3 38.2299,-4.1 32.27,-3.1 57.5699,-4.7 57.5699,-4.7 1.92,-0.2 3.69,1.1 3.95,3 0.27,2 -1.07,3.7 -2.98,4 0,0 -24.7899,5.4 -56.6599,11.2 -11.9599,2.2 -24.8999,4.5 -37.9099,6.5 -5.09,0.7 -10.1999,1.3 -15.2499,1.9 -7.86,0.9 -15.58,1.7 -22.95,2.4 -32.2899,2.9 -57.5898,4.4 -57.5898,4.4 z"
     id="path4648"
     style="stroke:none;stroke-width:0.2" /><path
     d="m 2641.2946,16303.009 c -1.93,0 -3.48,-1.6 -3.45,-3.6 0.02,-1.9 1.61,-3.4 3.55,-3.4 0,0 24.09,-1.6 54.9499,-2.7 7.06,-0.3 14.4399,-0.5 21.9799,-0.5 4.84,-0.1 9.74,-0.1 14.64,0 12.53,0.3 25.0199,1 36.5899,1.7 30.8199,1.8 54.8599,4.1 54.8599,4.1 1.93,0 3.48,1.6 3.46,3.5 -0.03,1.9 -1.63,3.5 -3.56,3.5 0,0 -24.1,1.5 -54.9499,2.5 -11.59,0.4 -24.0999,0.7 -36.6199,0.7 -4.9,-0.1 -9.8,-0.2 -14.64,-0.4 -7.53,-0.3 -14.9099,-0.7 -21.9499,-1.1 -30.8199,-2 -54.8599,-4.3 -54.8599,-4.3 z"
     id="path4650"
     style="stroke:none;stroke-width:0.2" /><path
     d="m 2719.5344,16299.409 c 0.7,-1.8 2.73,-2.7 4.54,-2 1.8,0.7 2.7,2.7 2.01,4.5 0,0 -3.35,14.1 -8.59,32 -1.2,4.1 -2.55,8.3 -4,12.6 -0.94,2.7 -1.88,5.5 -2.98,8.2 -2.8199,7 -5.9999,13.8 -8.9999,20.1 -8.02,16.8 -14.96,29.5 -14.96,29.5 -0.69,1.8 -2.72,2.7 -4.53,2 -1.8,-0.6 -2.7,-2.7 -2.01,-4.5 0,0 3.4,-14.1 8.76,-31.9 2,-6.7 4.22,-13.9 6.82,-20.9 1.01,-2.8 2.18,-5.5 3.34,-8.2 1.8,-4.1 3.63,-8.1 5.48,-12 8.1399,-16.8 15.1199,-29.4 15.1199,-29.4 z"
     id="path4652"
     style="stroke:none;stroke-width:0.2" /><path
     d="m 2759.2043,16299.909 c 0.74,-1.8 2.79,-2.7 4.58,-2 1.79,0.8 2.64,2.8 1.9,4.6 0,0 -6.8,21.7 -16.4399,49.2 -2.19,6.2 -4.6,12.7 -7.13,19.4 -1.62,4.2 -3.27,8.5 -5.07,12.8 -4.6,10.9 -9.55,21.5 -14.2,31.4 -12.37,26.3 -22.7499,46.5 -22.7499,46.5 -0.73,1.8 -2.78,2.7 -4.57,1.9 -1.79,-0.7 -2.65,-2.7 -1.91,-4.5 0,0 6.86,-21.7 16.5999,-49.1 3.66,-10.3 7.66,-21.3 12.04,-32.3 1.72,-4.3 3.58,-8.5 5.43,-12.7 2.87,-6.5 5.76,-12.8 8.61,-18.8 12.48,-26.3 22.9099,-46.4 22.9099,-46.4 z"
     id="path4654"
     style="stroke:none;stroke-width:0.2" /><path
     d="m 2831.7741,16332.409 c 0.67,-1.8 2.69,-2.7 4.51,-2 1.81,0.7 2.73,2.7 2.05,4.5 0,0 -10.7699,34.4 -25.4299,78.1 -3.36,9.9 -6.98,20.4 -10.74,31 -2.43,6.8 -4.88,13.7 -7.48,20.5 -6.6599,17.5 -13.6799,34.8 -20.2399,50.9 -17.43,42.6 -31.8299,75.6 -31.8299,75.6 -0.68,1.8 -2.7,2.8 -4.51,2.1 -1.81,-0.7 -2.73,-2.7 -2.06,-4.5 0,0 10.83,-34.4 25.6099,-78 5.55,-16.4 11.61,-34.1 18.05,-51.7 2.52,-6.8 5.19,-13.7 7.84,-20.4 4.1099,-10.5 8.2199,-20.7 12.2299,-30.5 17.55,-42.5 31.9999,-75.6 31.9999,-75.6 z"
     id="path4656"
     style="stroke:none;stroke-width:0.2" /><path
     d="m 2863.9941,16428.609 c 0.64,-1.9 2.64,-2.8 4.46,-2.2 1.83,0.6 2.7899,2.6 2.1599,4.5 0,0 -8.6999,30.8 -20.7299,69.9 -2.75,8.9 -5.74,18.2 -8.86,27.7 -2.01,6.1 -4.04,12.3 -6.23,18.4 -5.5899,15.6 -11.5499,31.1 -17.1199,45.5 -14.83,38 -27.17,67.6 -27.17,67.6 -0.6399,1.8 -2.6399,2.8 -4.4699,2.1 -1.83,-0.6 -2.79,-2.6 -2.15,-4.4 0,0 8.7499,-30.8 20.8899,-69.9 4.57,-14.6 9.56,-30.5 14.93,-46.2 2.1,-6.1 4.35,-12.2 6.59,-18.2 3.47,-9.4 6.9499,-18.6 10.3599,-27.3 14.94,-38 27.34,-67.5 27.34,-67.5 z"
     id="path4658"
     style="stroke:none;stroke-width:0.2" /><path
     d="m 2899.444,16535.109 c 0.54,-1.9 2.49,-3 4.35,-2.4 1.85,0.5 2.92,2.5 2.38,4.3 0,0 -2.8,16.6 -7.35,37.8 -1.04,4.8 -2.23,9.8 -3.52,14.9 -0.83,3.3 -1.67,6.6 -2.67,9.9 -2.56,8.4 -5.49,16.6 -8.26,24.2 -7.4,20.3 -13.9099,35.9 -13.9099,35.9 -0.54,1.8 -2.49,2.9 -4.34,2.4 -1.86,-0.6 -2.93,-2.5 -2.39,-4.4 0,0 2.86,-16.6 7.5199,-37.7 1.75,-7.9 3.69,-16.4 6.03,-24.9 0.91,-3.3 1.98,-6.5 3.04,-9.7 1.65,-5 3.33,-9.9 5.05,-14.5 7.52,-20.3 14.07,-35.8 14.07,-35.8 z"
     id="path4660"
     style="stroke:none;stroke-width:0.2" /><path
     d="m 2981.8338,16464.509 c -0.84,0.5 -3.52,2.3 -5.45,3.9 -5.49,4.4 -12.69,10.7 -21.68,15.6 -7.3099,3.9 -15.7299,7 -25.3199,7.6 -1.86,0.2 -3.63,-0.8 -4.51,-2.4 -0.87,-1.7 -0.68,-3.7 0.5,-5.1 0,0 7.7,-8.9 10.26,-19.6 0.92,-3.9 1.24,-7.9 0.1,-11.9 -12.07,-4.6 -19.82,-13.3 -22.99,-23 -4.6599,-14.3 0.53,-31.3 17.09,-43 15.48,-10.9 37.6999,-19.3 60.7399,-21 22.0899,-1.6 44.7998,3.1 63.2598,16.8 17.89,13.8 17.46,36.9 1.88,55.7 -14.03,17 -40.6399,30.2 -73.8798,26.4 z m -38.1699,-9.6 c 0.61,3.7 0.43,7.5 -0.24,11.2 -0.92,5.1 -2.84,10 -4.81,13.9 3.92,-1.4 7.51,-3.2 10.81,-5.2 9.7499,-6 16.9999,-13.7 22.1999,-18 4.29,-3.6 8.15,-4.9 10.81,-4.7 22.6399,1.9 41.3499,-5.2 53.7598,-15.7 7.61,-6.4 12.74,-14 14.58,-21.6 1.82,-7.4 0.03,-14.7 -6.59,-19.7 -15.2199,-11.8 -34.2399,-15.7 -52.7898,-14.9 -20.59,0.8 -40.7199,7.2 -54.9399,16.3 -12.48,7.9 -17.28,19.8 -14.49,30.4 2.78,10.5 12.56,19.3 28.36,21.9 1.9199,0.2 3.2699,2 3.0299,3.9 -0.25,1.9 -2.01,3.3 -3.9299,3 -1.99,-0.2 -3.91,-0.5 -5.76,-0.8 z"
     id="path4662"
     style="stroke:none;stroke-width:0.2" /><path
     d="m 2932.7476,16270.528 c -0.84,0.5 -3.52,2.3 -5.45,3.9 -5.49,4.4 -12.69,10.7 -21.6799,15.6 -7.31,3.9 -15.73,7 -25.32,7.6 -1.86,0.2 -3.63,-0.8 -4.51,-2.4 -0.87,-1.7 -0.68,-3.7 0.5,-5.1 0,0 7.7,-8.9 10.26,-19.6 0.92,-3.9 1.24,-7.9 0.1,-11.9 -12.07,-4.6 -19.8199,-13.3 -22.9899,-23 -4.66,-14.3 0.53,-31.3 17.0899,-43 15.48,-10.9 37.6999,-19.3 60.7399,-21 22.0899,-1.6 44.7999,3.1 63.2598,16.8 17.89,13.8 17.46,36.9 1.88,55.7 -14.0299,17 -40.6399,30.2 -73.8798,26.4 z m -38.1699,-9.6 c 0.61,3.7 0.43,7.5 -0.24,11.2 -0.92,5.1 -2.84,10 -4.81,13.9 3.92,-1.4 7.51,-3.2 10.81,-5.2 9.75,-6 16.9999,-13.7 22.1999,-18 4.29,-3.6 8.15,-4.9 10.81,-4.7 22.6399,1.9 41.3499,-5.2 53.7599,-15.7 7.6099,-6.4 12.7399,-14 14.5799,-21.6 1.82,-7.4 0.03,-14.7 -6.59,-19.7 -15.2199,-11.8 -34.2399,-15.7 -52.7898,-14.9 -20.59,0.8 -40.7199,7.2 -54.9399,16.3 -12.48,7.9 -17.2799,19.8 -14.49,30.4 2.78,10.5 12.56,19.3 28.36,21.9 1.92,0.2 3.27,2 3.03,3.9 -0.25,1.9 -2.01,3.3 -3.93,3 -1.99,-0.2 -3.91,-0.5 -5.76,-0.8 z"
     id="path4664"
     style="stroke:none;stroke-width:0.2" /><path
     d="m 2575.3339,16465.419 c -1.14,4 -0.82,8 0.1,11.9 2.56,10.7 10.26,19.6 10.26,19.6 1.18,1.4 1.37,3.4 0.5,5.1 -0.88,1.6 -2.65,2.6 -4.51,2.4 -9.59,-0.6 -18.01,-3.7 -25.3199,-7.6 -8.99,-4.9 -16.19,-11.2 -21.68,-15.6 -1.93,-1.6 -4.61,-3.4 -5.45,-3.9 -33.2399,3.8 -59.8498,-9.4 -73.8798,-26.4 -15.58,-18.8 -16.01,-41.9 1.88,-55.7 18.46,-13.7 41.1699,-18.4 63.2598,-16.8 23.04,1.7 45.2599,10.1 60.7399,21 16.56,11.7 21.7499,28.7 17.09,43 -3.17,9.7 -10.92,18.4 -22.99,23 z m -7.93,2.3 c -1.85,0.3 -3.77,0.6 -5.76,0.8 -1.9199,0.3 -3.6799,-1.1 -3.9299,-3 -0.24,-1.9 1.11,-3.7 3.0299,-3.9 15.8,-2.6 25.58,-11.4 28.36,-21.9 2.79,-10.6 -2.01,-22.5 -14.49,-30.4 -14.22,-9.1 -34.3499,-15.5 -54.9399,-16.3 -18.5499,-0.8 -37.5699,3.1 -52.7898,14.9 -6.62,5 -8.41,12.3 -6.59,19.7 1.84,7.6 6.97,15.2 14.58,21.6 12.4099,10.5 31.1199,17.6 53.7598,15.7 2.66,-0.2 6.52,1.1 10.81,4.7 5.2,4.3 12.45,12 22.1999,18 3.3,2 6.89,3.8 10.8,5.2 -1.96,-3.9 -3.88,-8.8 -4.8,-13.9 -0.67,-3.7 -0.85,-7.5 -0.24,-11.2 z"
     id="path4666"
     style="stroke:none;stroke-width:0.2" /></g>&#10;</svg>
