<?xml version="1.0" encoding="UTF-8" standalone="no"?>
<svg
   width="3260.5156"
   height="3110.1863"
   viewBox="0 0 3260.5156 3110.1863"
   version="1.1"
   xml:space="preserve"
   style="clip-rule:evenodd;fill-rule:evenodd;stroke-linejoin:round;stroke-miterlimit:2"
   id="svg5353"
   xmlns="http://www.w3.org/2000/svg"
   xmlns:svg="http://www.w3.org/2000/svg"><defs
   id="defs5353" />&#10;    <g
   id="vectorly-UNI-puffer-fish"
   transform="matrix(4.9999999,0,0,4.9999999,-286.96994,-76703.664)"
   style="stroke-width:0.2"><path
     d="m 113.60789,15356.51 c -1.092,-1.6 -0.681,-3.8 0.916,-4.9 1.59699,-1.1 3.77999,-0.7 4.87098,0.9 10.94698,13.6 8.66898,30 0.606,41.8 -5.51198,8.1 -14.13296,13.7 -23.254941,15.3 -6.496984,1.2 -13.316967,0.1 -19.808951,-3.4 -4.05199,-2.4 -7.506981,-5.1 -10.220974,-8.2 -7.438982,-8.5 -10.370975,-19 -8.991978,-28.7 1.956995,-13.8 11.719971,-26.3 27.139933,-28.5 1.888995,-0.4 3.76199,0.8 4.178989,2.7 0.416999,1.9 -0.777998,3.7 -2.666993,4.2 -10.506974,3.1 -15.99296,12.7 -16.11596,22.5 -0.106,8.5 4.431989,17.1 14.391964,22.1 4.948988,2.8 10.336975,2.6 15.148963,0.6 3.630988,-1.5 7.057978,-3.7 9.789978,-6.8 6.85598,-7.6 10.19697,-18.8 4.01699,-29.6 z"
     id="path4204"
     style="stroke:none;stroke-width:0.2" /><path
     d="m 570.42611,15435.923 c -1.09143,-1.598 -0.68148,-3.786 0.91574,-4.91 1.59721,-1.065 3.78008,-0.651 4.87151,0.946 7.65361,8.459 6.25221,19.226 1.30261,27.153 -4.11608,6.625 -11.50645,10.648 -18.92167,10.885 -3.42692,0.118 -6.89938,-0.828 -10.25531,-2.662 -2.66794,-1.657 -4.98982,-3.431 -6.73847,-5.561 -4.82537,-5.797 -6.83135,-12.837 -5.61155,-19.285 1.696,-9.051 8.11208,-17.215 18.30704,-18.102 1.88886,-0.414 3.76115,0.828 4.1782,2.662 0.41705,1.893 -0.7779,3.786 -2.66735,4.2 -5.30039,1.952 -7.43415,7.099 -7.28212,12.186 0.12127,4.023 2.71113,7.75 7.52998,9.939 2.48929,1.538 5.26667,1.242 7.62168,-0.06 2.10241,-1.184 4.18648,-2.603 5.50329,-4.674 2.27456,-3.667 3.5399,-8.104 1.24642,-12.718 z"
     id="path4206"
     style="stroke:none;stroke-width:0.118313" /><path
     d="m 669.29549,15491.29 c -1.09185,-1.585 -0.68184,-3.851 0.91516,-4.87 1.59701,-1.133 3.78072,-0.68 4.87144,0.906 12.03644,15.177 9.44952,33.413 0.38056,46.438 -6.16829,8.948 -15.69823,15.177 -25.79901,16.876 -7.14802,1.246 -14.64375,0.113 -21.77478,-3.738 -4.50107,-2.605 -8.32708,-5.663 -11.35233,-9.061 -8.28178,-9.4 -11.53356,-20.953 -10.08946,-31.827 2.05686,-15.29 12.88592,-29.221 30.00899,-31.826 1.88923,-0.454 3.76146,0.792 4.17827,2.718 0.4168,1.812 -0.77812,3.738 -2.66734,4.077 -12.20747,3.625 -18.75859,14.611 -18.98399,26.051 -0.19594,9.854 4.99376,20.047 16.62132,25.937 5.91459,3.398 12.35245,3.171 18.08468,0.68 4.2349,-1.699 8.20023,-4.418 11.36366,-8.042 7.86158,-8.835 11.51091,-21.86 4.24283,-34.319 z"
     id="path4208"
     style="stroke:none;stroke-width:0.226526" /><path
     d="m 693.75954,15372.536 c -1.09251,-1.635 -0.68078,-3.865 0.91562,-4.905 1.5964,-1.189 3.77992,-0.743 4.87094,0.892 14.96065,19.472 11.52557,42.66 -0.22296,59.159 -7.90915,10.999 -19.86875,18.877 -32.58344,20.958 -8.88274,1.487 -18.18168,0 -27.01983,-4.756 -5.69441,-3.27 -10.5163,-6.986 -14.36757,-11.297 -10.52522,-11.743 -14.64553,-26.309 -13.01792,-39.984 2.3396,-19.472 15.98924,-37.161 37.66099,-40.877 1.88773,-0.445 3.7606,0.744 4.17828,2.676 0.41619,1.932 -0.77887,3.716 -2.66809,4.162 -16.75176,4.608 -26.12502,19.472 -26.63486,35.079 -0.45186,13.675 6.50004,28.093 22.56509,36.268 8.49628,4.906 17.73278,4.46 25.91841,1.041 5.84453,-2.527 11.24909,-6.54 15.55966,-11.445 10.5386,-12.338 15.03794,-30.174 4.84568,-46.971 z"
     id="path4210"
     style="stroke:none;stroke-width:0.29728" /><path
     d="m 219.24983,15395.049 c -1.09197,-1.615 -0.68132,-3.818 0.91577,-4.895 1.5966,-1.076 3.77956,-0.685 4.87153,0.93 6.86311,7.146 5.56606,16.446 1.47619,23.543 -1.96222,3.377 -5.08199,5.825 -8.38531,7.636 -2.51922,1.37 -5.34777,1.908 -8.18709,2.006 -3.05174,0.1 -6.14067,-0.734 -9.13221,-2.349 -2.32001,-1.468 -4.36543,-3.035 -5.86806,-4.895 -4.1623,-5.188 -5.9679,-11.306 -4.76629,-16.984 1.6568,-7.831 7.19986,-14.928 16.09811,-15.466 1.8888,-0.392 3.76145,0.783 4.17846,2.692 0.41702,1.859 -0.77823,3.768 -2.66703,4.16 -4.01938,1.566 -5.27385,5.678 -5.07367,9.544 0.15124,2.937 2.28379,5.482 5.81422,6.999 1.60834,0.979 3.40708,0.881 4.95033,0.05 1.58876,-0.832 3.26661,-1.713 4.29299,-3.23 1.83202,-2.79 3.15355,-6.118 1.48206,-9.74 z"
     id="path4212"
     style="stroke:none;stroke-width:0.0978908" /><path
     d="m 98.820785,15465.327 c 1.092538,-1.707 3.274205,-2.048 4.872035,-1.024 1.59784,1.195 2.00754,3.243 0.91501,4.951 -12.023052,19.46 -6.98201,40.458 5.2237,54.797 5.02055,5.975 11.32826,10.584 18.1754,13.486 9.71336,4.268 20.69849,4.78 30.80447,-1.024 18.83435,-9.73 26.89182,-26.631 26.27556,-42.848 -0.69478,-18.095 -11.81819,-35.337 -31.41049,-40.629 -1.88804,-0.341 -3.08301,-2.219 -2.66647,-4.097 0.41653,-1.878 2.28921,-3.073 4.17896,-2.731 24.51042,4.268 39.88107,24.411 42.43318,46.604 1.28885,11.096 -0.86721,22.875 -6.6901,33.629 -5.09737,9.219 -13.21289,17.583 -24.40458,24.07 -9.90284,5.463 -20.32634,6.999 -30.28893,5.292 -14.3464,-2.39 -27.8273,-11.096 -36.816849,-23.558 -13.416034,-18.607 -17.393558,-44.725 -0.600896,-66.918 z"
     id="path4214"
     style="stroke:none;stroke-width:0.341418" /><path
     d="m 585.28272,15691.01 c 1.93299,-0.1 3.57499,1.4 3.66599,3.3 0.09,2 -1.405,3.6 -3.33699,3.7 -14.68497,1.7 -25.10594,-5.1 -30.85993,-14.4 -6.57998,-10.6 -6.37398,-24.8 0.527,-36 8.39898,-12.8 20.07695,-20.7 32.96392,-22.8 12.38897,-2 25.88194,1.4 38.4389,10.6 11.28698,8.7 14.82297,22.7 10.22098,34.9 -3.81799,10.1 -12.83297,19.1 -26.87893,21 -1.896,0.4 -3.74799,-0.8 -4.13299,-2.7 -0.385,-1.9 0.84099,-3.7 2.73699,-4.1 10.03497,-2.7 15.99396,-9.8 17.93896,-17.5 1.89899,-7.5 -0.64,-15.6 -7.82599,-20.1 -9.37397,-6 -19.02395,-7.8 -27.91193,-6.3 -9.06697,1.5 -17.45795,6.4 -23.79994,15.1 -5.07798,6.6 -5.91598,15.5 -2.57599,22.6 3.31099,7.1 10.25397,12.5 20.82995,12.7 z"
     id="path4216"
     style="stroke:none;stroke-width:0.2" /><path
     d="m 651.74355,15652.41 c 0.057,1.9 -1.46599,3.5 -3.39899,3.6 -1.93399,0.1 -3.55099,-1.5 -3.60799,-3.4 -0.571,-7.4 -8.89998,-18.8 -22.43394,-26.5 -9.20598,-5.2 -20.97195,-8.5 -34.84492,-7.2 -13.95496,1 -25.88693,7.8 -35.46591,16.2 -5.26899,4.7 -9.83898,9.8 -13.53397,15.1 -4.25899,6 -7.47298,12 -9.05997,17.4 -4.33899,14.1 0.225,28.6 11.29497,38.9 9.89197,9.1 24.57194,15.1 42.96489,15 1.932,-0.1 3.58199,1.4 3.68099,3.3 0.1,2 -1.38699,3.6 -3.31899,3.7 -21.11495,2 -38.5759,-3.7 -50.77087,-13.3 -15.95396,-12.7 -22.71895,-32.2 -18.16096,-51.5 2.01,-8 6.45499,-17.5 13.17797,-26.4 3.75799,-5 8.23198,-9.9 13.33197,-14.2 12.15497,-10.3 27.69193,-17.6 45.13288,-18.1 16.83496,-0.2 30.75793,4.7 41.2939,12 15.73796,10.8 23.87694,26.3 23.71894,35.4 z"
     id="path4218"
     style="stroke:none;stroke-width:0.2" /><path
     d="m 150.6308,15631.41 c -0.723,0.8 3.11699,1.1 5.96098,1.2 6.68598,0.4 14.43996,-0.9 21.95495,-2.6 17.33695,-4 33.42291,-10.8 33.42291,-10.8 3.355,-1.4 7.27299,-0.4 9.43198,2.6 2.15899,2.9 1.982,7 -0.425,9.7 0,0 -10.70597,12.1 -26.34793,23.8 -5.61699,4.2 -11.85997,8.3 -18.45996,11.8 2.762,-0.2 5.90199,-0.6 9.43898,-1.3 4.92899,-0.9 9.64997,-0.4 14.41796,0.8 5.14599,1.3 10.35098,3.5 16.22396,4.1 4.59499,0.5 9.64698,-0.1 15.52396,-3.2 13.50697,-7.2 24.81194,-13.7 35.42492,-17.9 9.36097,-3.7 18.21095,-5.7 27.46693,-5 3.50399,0.2 7.65398,0.3 11.71997,-3.8 3.54799,-3.6 6.99098,-9.8 10.20097,-20.2 0.529,-1.9 2.47,-3 4.32999,-2.4 1.861,0.5 2.941,2.4 2.412,4.3 -3.20299,12.3 -7.14199,19.5 -11.08598,23.8 -6.11098,6.7 -12.53496,7.2 -18.05195,7 -7.91098,-0.3 -15.36296,1.8 -23.21594,5.3 -10.14898,4.5 -20.86395,11.3 -33.71192,18.7 -5.88998,3.5 -11.26797,4.9 -16.24896,5.3 -6.89198,0.6 -13.04197,-1 -18.91195,-2.5 -4.68999,-1.3 -9.11998,-2.6 -13.78897,-1.5 -17.99195,4.1 -28.38893,1.3 -32.42192,-1.4 -4.33999,-3 -5.01699,-7 -4.29799,-10.2 0.586,-2.6 2.555,-5.4 6.72299,-7.1 8.88197,-3.6 17.32795,-9 24.71294,-14.5 -0.3,0 -0.6,0.1 -0.901,0.2 -9.02398,2.1 -18.37596,3.3 -26.40794,2.9 -13.61896,-0.8 -18.77995,-7.2 -20.19495,-13.4 -1.66299,-7.2 2.605,-16.4 9.03398,-21.6 11.66497,-9.4 20.93595,-19.3 28.56193,-28.8 10.00297,-12.6 17.21896,-24.6 23.12094,-34.3 6.74999,-11.1 16.78396,-21.5 30.24993,-25.6 10.71097,-3.2 23.66894,-2.7 38.9159,5.1 8.28798,4.2 14.07297,10.8 19.62495,18.3 4.55499,6.1 8.97998,12.7 15.19296,18.4 6.45999,5.9 14.85497,10.9 27.37394,13.2 1.90899,0.3 3.20599,2.1 2.89399,4 -0.312,2 -2.115,3.2 -4.02399,2.9 -10.27398,-1.4 -18.19296,-4.5 -24.68394,-8.5 -9.43498,-5.8 -15.78596,-13.5 -21.75195,-21 -5.75398,-7.1 -11.00997,-14 -19.24195,-17.8 -12.18597,-5.6 -22.31194,-6 -30.60892,-3.1 -10.29098,3.5 -17.55196,12 -22.46395,20.8 -5.86498,10.4 -13.00996,23.1 -23.12494,36.5 -7.98398,10.5 -17.82595,21.4 -30.22192,31.8 -1.394,1.2 -2.608,2.8 -3.255,4.5 -0.155,0.4 -0.53199,1.2 -0.48599,1.5 z m 12.74196,41.6 c -0.003,0 -0.006,0 -0.009,0 0.003,0 0.006,0 0.009,0 z m -12.74196,-41.6 c 0.029,-0.1 0.065,-0.1 0.108,-0.1 0.067,-0.1 0.16899,0.2 0.089,0.2 -0.123,0 -0.182,0 -0.197,-0.1 z"
     id="path4220"
     style="stroke:none;stroke-width:0.2" /><path
     d="m 635.94859,15625.51 c 0.998,1.6 0.464,3.8 -1.193,4.8 -1.65699,1 -3.81299,0.5 -4.81098,-1.2 -17.56696,-27.1 -44.84289,-49 -75.69482,-64.2 -17.95595,-8.8 -37.1489,-15.3 -56.50186,-19.2 -13.14696,-2.7 -26.34593,-4.3 -39.3099,-4.2 -30.02492,-0.6 -56.80086,2.1 -80.7448,6.8 -29.82892,5.9 -55.24086,15 -76.79081,26 -1.69099,1 -3.82699,0.4 -4.76599,-1.3 -0.93899,-1.7 -0.32799,-3.8 1.363,-4.8 21.50895,-12.8 47.06188,-24.1 77.52381,-31.8 24.54394,-6.2 52.23387,-9.9 83.37279,-10.6 14.04597,-0.1 28.40893,1.3 42.6039,4.4 20.59195,4.5 40.8859,12.3 59.56485,22.7 31.69892,17.6 58.72185,42.8 75.38381,72.6 z m -440.46191,45.5 c 0.937,-1.7 3.071,-2.3 4.76399,-1.4 1.692,1 2.306,3.1 1.369,4.8 -15.74796,29.5 -22.19295,56.3 -20.77195,81.9 1.505,27 11.91697,52.6 29.31793,78.6 25.34994,38.2 65.03884,69.7 111.84372,89.5 21.89995,9.3 45.36689,16 69.71783,19.5 23.46994,3.5 47.76088,4.1 72.26682,1.1 66.57383,-7.5 121.3027,-40.6 155.19661,-91.2 31.54593,-47.1 45.18389,-109.4 33.63392,-180.8 -0.334,-1.9 0.941,-3.7 2.84599,-4 1.906,-0.4 3.72399,0.9 4.05899,2.8 14.00597,73.9 1.344,139 -30.31992,188.7 -34.86592,54.7 -92.75277,90.8 -163.5006,100.1 -25.93793,3.2 -51.68287,2.8 -76.51981,-0.9 -25.69793,-3.9 -50.42787,-11.2 -73.39781,-21.4 -49.03688,-21.6 -90.06778,-56 -115.97372,-96.8 -17.81995,-28.2 -28.10993,-55.9 -28.87893,-84.8 -0.71699,-27 6.79199,-55.1 24.34794,-85.7 z"
     id="path4222"
     style="stroke:none;stroke-width:0.2" /><path
     d="m 355.86729,15605.51 c -1.538,-1.1 -1.834,-3.3 -0.661,-4.9 1.174,-1.5 3.37499,-1.8 4.91299,-0.6 0,0 4.69998,1.2 10.99097,4 1.353,0.5 2.66999,1.2 4.02999,2 0.852,0.5 1.71499,1 2.48099,1.7 1.997,1.6 3.65899,3.6 5.20499,5.4 4.36399,5.2 6.84998,9.4 6.84998,9.4 1.538,1.2 1.834,3.4 0.661,4.9 -1.174,1.6 -3.37499,1.9 -4.91299,0.7 0,0 -4.69899,-1.3 -10.88397,-4.1 -2.19099,-1 -4.47799,-2.1 -6.61798,-3.6 -0.822,-0.6 -1.541,-1.3 -2.248,-2 -1.12999,-1.1 -2.13699,-2.2 -3.06399,-3.3 -4.30799,-5.3 -6.74298,-9.6 -6.74298,-9.6 z"
     id="path4224"
     style="stroke:none;stroke-width:0.2" /><path
     d="m 285.28246,15672.01 c -1.92599,-0.2 -3.34099,-1.9 -3.15699,-3.8 0.183,-2 1.89499,-3.4 3.82099,-3.2 0,0 11.50597,-0.9 26.47893,-1 3.389,0 6.91699,0 10.53398,0.2 2.31699,0.1 4.66099,0.2 6.99098,0.5 5.97299,0.7 11.85997,1.7 17.32096,2.8 14.67696,2.8 25.83293,5.8 25.83293,5.8 1.925,0.2 3.34,1.9 3.157,3.8 -0.184,1.9 -1.896,3.4 -3.82199,3.2 0,0 -11.51398,0.8 -26.46194,0.8 -5.56299,0 -11.54697,-0.1 -17.54196,-0.5 -2.33899,-0.2 -4.66098,-0.5 -6.95398,-0.9 -3.58299,-0.5 -7.06098,-1.1 -10.38397,-1.8 -14.67797,-2.9 -25.81494,-5.9 -25.81494,-5.9 z"
     id="path4226"
     style="stroke:none;stroke-width:0.2" /><path
     d="m 300.80242,15708.41 c -1.92699,0.2 -3.63099,-1.2 -3.80099,-3.2 -0.171,-1.9 1.254,-3.6 3.18099,-3.8 0,0 6.09899,-2.4 14.64897,-4.8 1.88999,-0.5 3.85099,-0.9 5.91298,-1.3 1.307,-0.2 2.631,-0.5 3.97199,-0.5 3.463,-0.2 6.87499,0 10.07498,0.2 8.79698,0.7 15.25196,2 15.25196,2 1.927,-0.2 3.62999,1.3 3.80099,3.2 0.171,1.9 -1.255,3.6 -3.18099,3.8 0,0 -6.12699,2.4 -14.66496,4.6 -3.105,0.8 -6.42599,1.7 -9.86898,2.1 -1.333,0.1 -2.67799,0.1 -4.00599,0.1 -2.09499,0 -4.10099,0 -6.05398,-0.2 -8.83098,-0.8 -15.26697,-2.2 -15.26697,-2.2 z"
     id="path4228"
     style="stroke:none;stroke-width:0.2" /><path
     d="m 301.85542,15759.21 c -1.783,0.8 -3.83999,-0.1 -4.59199,-1.8 -0.753,-1.8 0.084,-3.9 1.866,-4.6 0,0 4.73999,-4.1 11.78697,-8.8 1.55299,-1 3.19399,-2 4.94999,-3 1.11199,-0.6 2.23899,-1.2 3.43199,-1.6 3.08499,-1.2 6.23998,-2 9.21897,-2.6 8.21698,-1.9 14.44097,-2.5 14.44097,-2.5 1.78299,-0.8 3.83999,0.1 4.59199,1.8 0.753,1.8 -0.084,3.9 -1.866,4.6 0,0 -4.78099,4.1 -11.85597,8.6 -2.56399,1.7 -5.31899,3.4 -8.31298,4.8 -1.158,0.5 -2.37699,0.9 -3.58099,1.3 -1.90299,0.6 -3.74299,1.1 -5.56899,1.5 -8.28997,1.8 -14.50996,2.3 -14.50996,2.3 z"
     id="path4230"
     style="stroke:none;stroke-width:0.2" /><path
     d="m 205.34666,15694.31 c -1.901,-0.4 -3.15199,-2.2 -2.79299,-4.1 0.36,-1.9 2.19499,-3.2 4.09599,-2.8 0,0 9.97197,-0.1 22.96694,0.8 2.92999,0.2 5.96298,0.5 9.07498,0.9 1.98899,0.3 4.00299,0.5 5.98698,0.9 5.09299,1.1 10.05598,2.6 14.66197,4 12.42197,3.8 21.69794,7.5 21.69794,7.5 1.901,0.3 3.15199,2.2 2.793,4.1 -0.36,1.9 -2.195,3.1 -4.09599,2.8 0,0 -9.97698,0 -22.93495,-1 -4.80399,-0.4 -9.95797,-0.8 -15.09396,-1.7 -2.002,-0.3 -3.97099,-0.8 -5.91599,-1.3 -3.04199,-0.7 -5.97898,-1.6 -8.77797,-2.4 -12.41597,-4 -21.66595,-7.7 -21.66595,-7.7 z"
     id="path4232"
     style="stroke:none;stroke-width:0.2" /><path
     d="m 189.9887,15733.71 c -1.926,-0.1 -3.34299,-1.8 -3.16299,-3.8 0.181,-1.9 1.89099,-3.3 3.81699,-3.1 0,0 10.16597,-1 23.48794,-1.3 3.00599,-0.1 6.12898,-0.1 9.33897,0 2.053,0.1 4.13099,0.2 6.19399,0.4 5.29699,0.6 10.49997,1.6 15.33296,2.6 13.02597,2.7 22.84994,5.5 22.84994,5.5 1.926,0.2 3.344,1.9 3.163,3.8 -0.181,1.9 -1.891,3.4 -3.81699,3.2 0,0 -10.17598,0.9 -23.47195,1.1 -4.93198,0.1 -10.23097,0.1 -15.54896,-0.3 -2.07299,-0.1 -4.12799,-0.4 -6.15898,-0.7 -3.17499,-0.5 -6.24999,-1.1 -9.18998,-1.7 -13.02997,-2.8 -22.83394,-5.7 -22.83394,-5.7 z"
     id="path4234"
     style="stroke:none;stroke-width:0.2" /><path
     d="m 215.29164,15774.71 c -1.876,0.4 -3.781,-0.7 -4.24999,-2.6 -0.469,-1.9 0.67399,-3.8 2.54999,-4.2 0,0 7.35498,-3.9 17.48696,-8 2.26899,-0.9 4.65198,-1.8 7.14098,-2.6 1.58699,-0.5 3.19399,-1.1 4.84299,-1.4 4.24199,-1 8.51198,-1.5 12.50697,-2 10.84597,-1.2 19.14195,-1.3 19.14195,-1.3 1.87699,-0.5 3.78199,0.7 4.25099,2.5 0.469,1.9 -0.674,3.8 -2.551,4.3 0,0 -7.38498,3.8 -17.52895,7.8 -3.73499,1.5 -7.75698,3 -11.94197,4.2 -1.626,0.4 -3.291,0.7 -4.93599,1 -2.57999,0.5 -5.08799,0.8 -7.52698,1.1 -10.89498,1.1 -19.18595,1.2 -19.18595,1.2 z"
     id="path4236"
     style="stroke:none;stroke-width:0.2" /><path
     d="m 220.76162,15822.71 c -1.74999,0.8 -3.83999,0.1 -4.66499,-1.7 -0.82499,-1.7 -0.074,-3.8 1.676,-4.6 0,0 6.37698,-5.2 15.39496,-11.2 2.018,-1.3 4.16099,-2.6 6.41598,-3.9 1.437,-0.8 2.894,-1.6 4.42199,-2.3 3.93099,-1.7 7.96798,-3 11.75497,-4.2 10.28998,-3.3 18.30696,-5 18.30696,-5 1.749,-0.8 3.83999,-0.1 4.66499,1.7 0.825,1.7 0.074,3.8 -1.676,4.7 0,0 -6.41698,5.1 -15.46996,10.9 -3.33299,2.2 -6.93198,4.5 -10.76297,6.4 -1.489,0.7 -3.046,1.3 -4.58499,1.9 -2.415,1 -4.77699,1.8 -7.09498,2.5 -10.35998,3.1 -18.38196,4.8 -18.38196,4.8 z"
     id="path4238"
     style="stroke:none;stroke-width:0.2" /><path
     d="m 264.52751,15837.11 c -1.48999,1.2 -3.70099,1 -4.93498,-0.5 -1.234,-1.5 -1.026,-3.7 0.46399,-4.9 0,0 6.94299,-8.3 16.70596,-18.4 2.207,-2.3 4.57799,-4.6 7.06799,-6.9 1.59299,-1.4 3.20799,-2.9 4.92798,-4.3 4.41199,-3.5 9.03598,-6.7 13.36897,-9.5 11.66297,-7.8 21.05995,-13.2 21.05995,-13.2 1.48999,-1.2 3.70099,-1 4.93499,0.5 1.23399,1.5 1.02599,3.7 -0.464,4.9 0,0 -6.98999,8.3 -16.81896,18.3 -3.65099,3.7 -7.61998,7.6 -11.88297,11.3 -1.662,1.5 -3.42699,2.8 -5.17299,4.1 -2.72799,2 -5.42799,3.9 -8.08298,5.6 -11.75097,7.7 -21.17295,13 -21.17295,13 z"
     id="path4240"
     style="stroke:none;stroke-width:0.2" /><path
     d="m 296.85843,15903.41 c -0.99999,1.6 -3.15699,2.2 -4.81299,1.2 -1.65599,-1 -2.18799,-3.2 -1.18799,-4.9 0,0 2.38199,-7.6 6.47198,-17.4 0.914,-2.2 1.956,-4.5 3.10599,-6.7 0.732,-1.5 1.475,-2.9 2.36,-4.3 2.27799,-3.6 4.85799,-6.8 7.31098,-9.9 6.66898,-8.2 12.31597,-13.9 12.31597,-13.9 1,-1.7 3.15599,-2.2 4.81199,-1.2 1.65599,1 2.18899,3.1 1.18899,4.8 0,0 -2.43799,7.7 -6.62298,17.4 -1.539,3.6 -3.23999,7.4 -5.31599,11.1 -0.80699,1.4 -1.75299,2.7 -2.68999,4 -1.47,2.1 -2.95199,4.1 -4.46899,5.9 -6.78598,8.2 -12.46697,13.9 -12.46697,13.9 z"
     id="path4242"
     style="stroke:none;stroke-width:0.2" /><path
     d="m 361.21127,15818.41 c -1.15199,1.5 -3.34899,1.9 -4.90298,0.7 -1.554,-1.1 -1.881,-3.3 -0.729,-4.9 0,0 2.69399,-6.8 7.19898,-15.6 1.003,-1.9 2.12899,-3.9 3.36499,-5.9 0.786,-1.2 1.584,-2.5 2.51599,-3.7 2.399,-3 5.07199,-5.8 7.60999,-8.3 6.93398,-6.9 12.68496,-11.5 12.68496,-11.5 1.151,-1.6 3.348,-1.9 4.90199,-0.7 1.555,1.1 1.881,3.3 0.73,4.9 0,0 -2.74799,6.8 -7.34098,15.5 -1.682,3.1 -3.52799,6.5 -5.73899,9.7 -0.85799,1.2 -1.84699,2.3 -2.82499,3.4 -1.538,1.8 -3.07599,3.4 -4.64399,5 -7.04598,6.8 -12.82597,11.4 -12.82597,11.4 z"
     id="path4244"
     style="stroke:none;stroke-width:0.2" /><path
     d="m 418.02413,15744.71 c -1.33899,1.4 -3.55999,1.5 -4.95599,0.2 -1.39599,-1.4 -1.44299,-3.6 -0.104,-5 0,0 2.09,-4.9 5.91699,-11.2 0.831,-1.4 1.758,-2.7 2.80299,-4.1 0.657,-0.9 1.324,-1.7 2.113,-2.5 2.04699,-2 4.30599,-3.6 6.46998,-5.1 6.04999,-4.1 10.84398,-6.5 10.84398,-6.5 1.33899,-1.4 3.55999,-1.4 4.95598,-0.1 1.396,1.4 1.443,3.6 0.104,5 0,0 -2.14199,4.9 -6.04398,11.1 -1.395,2.2 -2.912,4.5 -4.78899,6.7 -0.722,0.8 -1.562,1.5 -2.38999,2.2 -1.318,1.1 -2.614,2.1 -3.95299,3 -6.16399,4.1 -10.97098,6.3 -10.97098,6.3 z"
     id="path4246"
     style="stroke:none;stroke-width:0.2" /><path
     d="m 346.76731,15915.31 c -0.724,1.8 -2.76799,2.7 -4.56199,2 -1.794,-0.8 -2.66199,-2.8 -1.93799,-4.6 0,0 1.56899,-9 4.59398,-20.7 0.68,-2.6 1.489,-5.3 2.398,-8.1 0.58,-1.7 1.17,-3.5 1.91299,-5.2 1.907,-4.5 4.15899,-8.7 6.30699,-12.6 5.80898,-10.5 10.92497,-18.1 10.92497,-18.1 0.724,-1.8 2.76799,-2.7 4.56199,-2 1.79399,0.8 2.66199,2.8 1.93799,4.6 0,0 -1.62599,9 -4.75698,20.7 -1.158,4.3 -2.458,8.8 -4.14799,13.3 -0.658,1.8 -1.467,3.5 -2.269,5.2 -1.25599,2.6 -2.54199,5.1 -3.87499,7.4 -5.92898,10.5 -11.08797,18.1 -11.08797,18.1 z"
     id="path4248"
     style="stroke:none;stroke-width:0.2" /><path
     d="m 406.06916,15937.61 c -0.364,1.9 -2.20199,3.1 -4.10199,2.8 -1.89999,-0.4 -3.14699,-2.2 -2.78299,-4.1 0,0 -0.245,-9 0.421,-20.8 0.15,-2.7 0.413,-5.4 0.762,-8.2 0.223,-1.8 0.451,-3.6 0.84099,-5.4 1.001,-4.6 2.379,-9.1 3.71699,-13.3 3.622,-11.2 7.12599,-19.5 7.12599,-19.5 0.364,-1.9 2.20299,-3.1 4.10199,-2.8 1.89999,0.4 3.14699,2.2 2.78299,4.1 0,0 0.189,9.1 -0.594,20.8 -0.289,4.4 -0.659,9 -1.42899,13.7 -0.3,1.8 -0.761,3.6 -1.219,5.3 -0.716,2.8 -1.485,5.4 -2.326,7.9 -3.74499,11.2 -7.29898,19.5 -7.29898,19.5 z"
     id="path4250"
     style="stroke:none;stroke-width:0.2" /><path
     d="m 446.87206,15845.01 c -0.75,1.8 -2.80599,2.6 -4.58999,1.9 -1.78299,-0.8 -2.62199,-2.8 -1.87199,-4.6 0,0 0.505,-6.1 2.20099,-14.3 0.373,-1.8 0.855,-3.6 1.437,-5.4 0.368,-1.2 0.743,-2.4 1.26999,-3.6 1.365,-2.9 3.058,-5.6 4.69299,-8.1 4.51799,-7 8.49398,-11.6 8.49398,-11.6 0.75,-1.8 2.806,-2.7 4.58999,-1.9 1.783,0.7 2.62199,2.8 1.872,4.6 0,0 -0.559,6.1 -2.363,14.2 -0.653,2.9 -1.39799,6 -2.54499,9 -0.444,1.2 -1.038,2.3 -1.625,3.4 -0.93,1.7 -1.88399,3.3 -2.90599,4.9 -4.64499,6.9 -8.65598,11.5 -8.65598,11.5 z"
     id="path4252"
     style="stroke:none;stroke-width:0.2" /><path
     d="m 524.33587,15827.21 c -0.913,1.7 -3.03999,2.4 -4.74499,1.4 -1.705,-0.9 -2.34699,-3 -1.433,-4.7 0,0 0.922,-5.7 3.187,-13.4 0.49599,-1.6 1.09899,-3.3 1.80699,-5 0.447,-1.1 0.902,-2.2 1.504,-3.2 1.55699,-2.7 3.41699,-5.1 5.20799,-7.3 4.97098,-6.1 9.20397,-10.1 9.20397,-10.1 0.914,-1.7 3.03999,-2.3 4.74499,-1.4 1.705,0.9 2.34699,3 1.433,4.7 0,0 -0.976,5.7 -3.34199,13.3 -0.852,2.7 -1.806,5.6 -3.155,8.3 -0.521,1.1 -1.18599,2.1 -1.84299,3.1 -1.041,1.5 -2.095,2.9 -3.21099,4.3 -5.09599,6.1 -9.35898,10 -9.35898,10 z"
     id="path4254"
     style="stroke:none;stroke-width:0.2" /><path
     d="m 491.23395,15865.31 c 0.256,-1.9 2.02,-3.3 3.93799,-3 1.917,0.2 3.26599,2 3.01099,3.9 0,0 1.083,6.3 1.54,15 0.101,1.9 0.1,3.8 0.018,5.9 -0.052,1.3 -0.107,2.6 -0.324,3.9 -0.563,3.3 -1.506,6.5 -2.44099,9.4 -2.576,8.3 -5.22699,14.1 -5.22699,14.1 -0.256,1.9 -2.02,3.3 -3.93699,3 -1.918,-0.3 -3.26699,-2 -3.01199,-3.9 0,0 -1.031,-6.4 -1.366,-15 -0.121,-3.1 -0.197,-6.4 0.132,-9.8 0.128,-1.3 0.418,-2.5 0.706,-3.8 0.455,-2 0.965,-3.9 1.56099,-5.7 2.705,-8.2 5.40099,-14 5.40099,-14 z"
     id="path4256"
     style="stroke:none;stroke-width:0.2" /><path
     d="m 593.3587,15792.21 c -0.213,-2 1.17399,-3.7 3.09699,-3.9 1.923,-0.2 3.65699,1.2 3.87099,3.1 0,0 2.40899,4.7 4.80699,11.5 0.52,1.5 0.948,3.1 1.322,4.7 0.23499,1.1 0.47099,2.1 0.54499,3.2 0.191,2.8 -0.024,5.5 -0.273,8.1 -0.69799,7.2 -1.97799,12.3 -1.97799,12.3 0.213,1.9 -1.174,3.7 -3.09699,3.9 -1.922,0.2 -3.65699,-1.2 -3.86999,-3.1 0,0 -2.368,-4.7 -4.63199,-11.6 -0.809,-2.5 -1.617,-5.1 -2.043,-7.8 -0.164,-1.1 -0.164,-2.2 -0.162,-3.2 0.002,-1.7 0.081,-3.3 0.26,-4.9 0.825,-7.3 2.153,-12.3 2.153,-12.3 z"
     id="path4258"
     style="stroke:none;stroke-width:0.2" /><path
     d="m 486.55896,15538.61 c -1.73799,0.8 -3.83899,0.1 -4.68899,-1.6 -0.84899,-1.8 -0.128,-3.9 1.61,-4.7 7.76698,-4.5 15.89496,-8.5 22.59294,-14.3 3.84299,-3.3 7.02499,-7.3 9.24898,-12.4 3.91799,-8.8 11.72797,-14.6 19.58795,-15.8 8.26598,-1.3 17.10096,2.3 23.07395,13.5 2.80799,5.8 7.33098,12.5 12.30996,18.4 5.07299,6 10.38598,11.5 15.52897,13.3 4.96098,1.8 14.99096,5.7 14.96396,17.2 -0.014,5.9 -2.72099,14.4 -12.36097,26.3 -1.113,1.6 -3.30099,1.9 -4.88299,0.8 -1.58199,-1.1 -1.96299,-3.3 -0.85,-4.9 6.25499,-10.3 8.11698,-17 7.53699,-21.5 -0.283,-2.2 -1.722,-3.3 -3.083,-4.1 -1.73999,-1 -3.68099,-1.3 -4.95298,-1.6 -5.99799,-1.5 -12.85997,-5.8 -19.26196,-11.7 -7.85098,-7.3 -14.86896,-16.9 -19.19095,-25 -1.85299,-3.9 -4.23399,-6 -7.07098,-5.7 -3.67699,0.3 -7.30698,2.9 -9.49698,6.7 -3.86899,6.6 -8.75298,11.6 -14.52296,15.3 -7.93198,5.2 -17.16496,8.2 -26.09094,11.8 z"
     id="path4260"
     style="stroke:none;stroke-width:0.2" /><path
     d="m 87.652952,15755.61 c 0.258999,-2.7 -0.801998,-10 -2.112995,-18.8 -2.634993,-17.6 -6.867983,-40.7 -8.586979,-48.9 -2.429994,-11.8 0.320999,-19.3 4.453989,-23.7 7.370982,-7.7 20.019953,-6.6 25.789933,-0.9 10.28298,10.1 22.98295,19.3 35.20792,26.8 16.57595,10.1 32.22192,17.2 39.9229,19.2 1.88599,0.4 3.06999,2.3 2.64099,4.2 -0.429,1.9 -2.30799,3 -4.19499,2.6 -8.21398,-1.6 -25.15694,-8 -43.15889,-17.7 -13.32397,-7.2 -27.16693,-16.3 -38.558907,-26.5 -1.924995,-1.7 -5.941985,-1.6 -8.178979,0.9 -1.971995,2.3 -2.155995,6.2 -0.692999,12.1 2.021995,8.3 7.191983,31.6 10.374975,49.5 1.99099,11.2 3.01099,20.4 2.63299,23.5 -0.412,3.3 -1.88499,6.1 -4.097987,8.6 -1.926995,2.2 -4.599988,4.1 -7.154982,6.1 -0.703998,0.6 -1.389996,1.1 -2.003995,1.7 -0.421999,0.4 -0.977997,0.8 -0.957998,1.4 0.005,0.2 0.218,0.2 0.312,0.3 0.322999,0.4 0.688998,0.8 1.066997,1.1 0.845998,0.8 1.743996,1.6 2.597994,2.4 3.353991,3.1 5.966985,6.6 6.558983,11.3 0.428999,3.4 -0.097,7.6 -3.144992,13 -4.07999,7 -8.04998,14.7 -10.512974,21.7 -1.707996,4.8 -2.979992,9.1 -2.140994,12.3 2.983992,11.4 1.362996,21 0.395999,27.6 0.408999,-0.5 0.868997,-1.2 1.296996,-1.7 1.619996,-1.8 3.466992,-4.1 5.559987,-6.7 9.779976,-12.5 24.469936,-32.2 45.402886,-44.1 14.42597,-8.3 31.72892,-12.9 52.37487,-9.1 1.911,0.3 3.21899,2.1 2.91899,4 -0.3,1.9 -2.09499,3.2 -4.00599,2.9 -18.58395,-2.4 -33.79191,2.5 -46.29088,10.4 -18.99995,12.1 -31.70792,31.3 -40.3169,43.4 -3.319993,4.7 -6.149986,8.3 -8.450981,10.5 -1.672995,1.7 -3.300991,2.6 -4.686988,3.2 -8.342979,3.2 -12.802968,1.4 -14.910963,-0.5 -1.827995,-1.6 -3.069992,-4.3 -3.087992,-8.2 -0.023,-5.1 3.341991,-15.3 -0.386999,-27.7 -1.288997,-4.4 -1.034998,-10.1 0.594998,-16.6 2.262995,-9 7.239982,-19.6 12.485969,-29.2 0.736998,-1.3 1.242997,-2.3 1.127997,-3.1 -0.085,-0.6 -0.730998,-0.9 -1.166997,-1.3 -1.114997,-1.1 -2.349994,-2.1 -3.465991,-3.1 -3.486991,-3.3 -5.952985,-7.2 -6.088985,-12.3 -0.089,-3.5 0.826998,-6.5 2.412994,-9.1 1.816996,-3 4.663989,-5.5 7.709981,-7.7 1.142997,-0.9 2.308994,-1.7 3.331992,-2.6 0.462999,-0.4 1.698995,-1 1.203997,-1.2 -0.008,0 -0.014,0 -0.019,0 z m -4.574989,110.2 c 0.089,0 0.177,0 0.264999,-0.1 -0.066,0.1 -0.227999,0.1 -0.264999,0.1 z m 4.574989,-110.2 c -0.009,0.1 -0.02,0.2 -0.032,0.3 0.012,-0.1 -0.021,-0.3 0.032,-0.3 z"
     id="path4262"
     style="stroke:none;stroke-width:0.2" /></g>&#10;</svg>
