<?xml version="1.0" encoding="UTF-8" standalone="no"?>
<svg
   width="3251.8728"
   height="2332.6816"
   viewBox="0 0 3251.8728 2332.6817"
   version="1.1"
   xml:space="preserve"
   style="clip-rule:evenodd;fill-rule:evenodd;stroke-linejoin:round;stroke-miterlimit:2"
   id="svg5353"
   xmlns="http://www.w3.org/2000/svg"
   xmlns:svg="http://www.w3.org/2000/svg"><defs
   id="defs5353" />&#10;    <g
   id="vectorly-UNI-building"
   style="stroke:none;stroke-width:0.2"
   transform="matrix(4.9999999,0,0,4.9999999,-12187.394,-32923.192)"><path
     d="m 2472.495,7046.6732 c -1.94,0 -3.51,-1.57 -3.51,-3.5 0,-1.94 1.57,-3.51 3.51,-3.51 0,0 80.7098,-1.96 183.5496,-3.5 23.5499,-0.35 48.2599,-0.61 73.4298,-0.8 16.19,-0.12 32.5699,-0.24 48.9499,-0.19 41.8299,0.12 83.6598,0.63 122.3697,1.16 102.8397,1.42 183.5495,3.33 183.5495,3.33 1.94,0 3.51,1.57 3.51,3.51 0,1.93 -1.57,3.5 -3.51,3.5 0,0 -80.7098,1.9 -183.5495,3.33 -38.7099,0.53 -80.5398,1.04 -122.3697,1.16 -16.38,0.05 -32.7599,-0.07 -48.9499,-0.19 -25.1699,-0.19 -49.8799,-0.45 -73.4298,-0.8 -102.8398,-1.54 -183.5496,-3.5 -183.5496,-3.5 z"
     id="path1826"
     style="stroke:none;stroke-width:0.2" /><path
     d="m 2737.7144,6800.7833 c -0.35,-0.08 -0.71,-0.16 -1.05,-0.23 -5.73,-1.09 -14.89,-2.04 -25.1,-2.7 -6.8999,-0.44 -14.2799,-0.75 -21.4199,-0.81 -13.57,-0.19 -26.2599,0.16 -32.2899,2.45 -0.4,5.66 -0.61,20.42 -0.92,40.14 -0.43,28.03 -0.93,65.7499 -1.25,102.1699 l -1.19,101.33 c 0.03,1.93 -1.53,3.52 -3.46,3.54 -1.94,0.02 -3.52,-1.53 -3.54,-3.47 l -3.13,-101.31 c -0.89,-36.46 -1.81,-74.2199 -2.12,-102.2899 -0.28,-24.9 0.01,-42.4 0.56,-45.31 0.71,-3.71 4.47,-8.19 12.34,-10.34 7.8,-2.13 21.0599,-2.97 35.1599,-2.89 13.75,0.18 28.3199,1.18 39.0999,2.56 7.6,0.97 13.47,2.21 16.3,3.32 2.04,0.8 3.37,1.77 4.1299,2.55 0.69,0.7 2.34,2.97 2.87,7.27 0.57,4.61 0.95,14.27 1.12,27.33 0.21,22.1 -0.04,54.19 -0.67,87.7399 -0.93,50 -2.6,103.2 -3.46,131.37 -0.02,1.94 -1.5999,3.49 -3.5399,3.47 -1.93,-0.02 -3.49,-1.61 -3.47,-3.54 -0.25,-28.16 -0.9,-81.35 -1.7,-131.31 -0.53,-33.4199 -1.08,-65.3799 -1.95,-87.3699 -0.37,-10.63 -0.8,-18.86 -1.32,-23.67 z"
     id="path1828"
     style="stroke:none;stroke-width:0.2" /><path
     d="m 2589.6347,6951.9332 c 0.12,-0.12 0.17,-0.23 0.02,-0.3 -0.39,-0.17 -0.62,0.06 -0.76,0.54 -0.36,0.17 -0.52,0.37 -0.34,0.65 0.06,0.08 0.14,0.04 0.21,-0.04 -0.2,1.54 -0.04,4.25 -0.29,6.48 -0.7499,6.79 -1.3299,16.04 -1.8699,26.18 -0.49,9.27 -1.06,19.19 -1.5,28.72 -0.5,10.79 -1.01,20.93 -1.29,28.88 0.07,1.93 -1.45,3.56 -3.38,3.63 -1.93,0.07 -3.56,-1.45 -3.63,-3.38 -1.15,-10.77 -2.77,-25.58 -3.81,-40.52 -0.65,-9.44 -1.13,-18.86 -1.14,-27.27 -0.01,-10.14 0.63,-18.82 1.72,-24.28 0.91,-4.62 2.52,-7.67 3.85,-9.09 1.39,-1.47 3.51,-3.03 6.55,-4.05 4.17,-1.41 10.6399,-2.41 18.0599,-2.63 20.38,-0.61 48.1499,2.9 48.1499,2.9 1.93,0.09 3.43,1.73 3.34,3.66 -0.09,1.93 -1.73,3.43 -3.66,3.34 0,0 -21.5199,0.83 -40.1099,3.01 -6.68,0.79 -12.91,1.75 -17.49,3.02 -0.77,0.21 -1.83,0.36 -2.63,0.55 z m 0,0 c -0.17,0.18 -0.49,0.38 -0.6,0.51 -0.06,0.08 -0.16,0.24 -0.27,0.34 0.04,-0.23 0.08,-0.43 0.13,-0.61 0.19,-0.09 0.45,-0.17 0.74,-0.24 z"
     id="path1830"
     style="stroke:none;stroke-width:0.2" /><path
     d="m 2746.9944,6827.7333 c -1.91,0.31 -3.71,-0.99 -4.02,-2.89 -0.31,-1.91 0.98,-3.72 2.89,-4.03 0,0 8.5399,-1.78 20.5499,-3.75 6.22,-1.03 13.34,-2.08 20.7,-2.99 13.8499,-1.67 28.4199,-2.72 39.1599,-1.9 5.4299,0.42 9.9699,1.44 13.2499,2.84 3.26,1.39 5.47,3.41 6.88,5.56 1.59,2.44 3.47,10.51 4.51,22.6 1.02,11.85 1.84,28.08 1.99,46.42 0.15,19.0999 -0.41,40.4799 -1.14,61.5499 -1.25,35.98 -3.44,70.96 -4.65,92.1 -0.04,1.93 -1.64,3.47 -3.58,3.43 -1.93,-0.04 -3.47,-1.65 -3.42,-3.58 -0.3,-23.71 -1.25,-64.84 -2.16,-105.19 -0.33,-14.38 -0.65,-28.65 -0.9,-41.9899 -0.19,-9.94 -0.31,-19.36 -0.46,-27.91 -0.27,-14.63 -0.58,-26.66 -1.39,-34.31 -0.3,-2.76 -0.95,-5.99 -0.95,-5.99 0,0 0.13,0.19 0.17,0.27 0.05,0.08 0.14,0.28 0.21,0.2 0.69,-0.73 -1.91,-1.16 -3.36,-1.6 -3.0899,-0.93 -7.0199,-1.54 -11.4799,-1.93 -9.36,-0.82 -20.8,-0.73 -31.8199,-0.21 -7.27,0.32 -14.33,0.81 -20.5,1.32 -11.94,0.97 -20.4799,1.98 -20.4799,1.98 z"
     id="path1832"
     style="stroke:none;stroke-width:0.2" /><path
     d="m 2906.354,6723.0833 c -0.84,-0.32 -1.91,-0.7 -2.89,-0.95 -8.01,-2.08 -21.23,-3.56 -35.8699,-4.4 -15.29,-0.88 -32.09,-1.08 -46.2999,-0.26 -6.22,0.34 -11.92,0.86 -16.77,1.6 -4.35,0.65 -7.95,1.41 -10.47,2.45 -0.63,0.26 -1.47,0.72 -1.65,0.82 -2.08,4.01 -2.6799,14.36 -3.0099,26.66 -0.82,29.72 1.6399,69.95 1.6399,69.95 0.17,1.93 -1.2599,3.63 -3.1899,3.79 -1.93,0.16 -3.63,-1.27 -3.79,-3.19 0,0 -4.44,-40.54 -4.95,-70.6 -0.26,-15.25 0.92,-27.97 3.41,-32.61 1.47,-2.74 5.73,-5.71 12.5999,-7.68 6.28,-1.8 15.12,-3.16 25.22,-4.11 24.6699,-2.19 56.9898,-1.79 76.8298,0.87 7.43,1 13.27,2.43 16.7299,3.97 4.05,1.8 6.07,4.41 6.91,6.51 0.43,1.04 1.07,4.61 1.37,10.38 0.37,6.98 0.59,18.09 0.73,32.14 0.02,13 0.02,28.53 -0.21,45.63 -0.27,21.02 -0.78,44.4 -1.43,68.37 -1.72,64.1299 -4.37,132.4299 -5.77,170.7999 -0.03,1.94 -1.62,3.48 -3.56,3.45 -1.9299,-0.03 -3.4799,-1.63 -3.4399,-3.56 l -1.57,-284.5999 z"
     id="path1834"
     style="stroke:none;stroke-width:0.2" /><path
     d="m 2968.7938,6761.5233 c -0.67,-0.32 -1.6,-0.5 -2.66,-0.73 -4.09,-0.88 -9.62,-1.18 -15.4899,-1.17 -16.35,0.01 -35.16,2.3 -35.16,2.3 -1.91,0.32 -3.72,-0.98 -4.03,-2.89 -0.31,-1.91 0.99,-3.71 2.89,-4.03 0,0 24.22,-4.89 42.0999,-5.43 6.5,-0.2 12.21,0.31 15.99,1.52 2.33,0.74 4.06,1.88 5.3,3.09 0.7,0.69 1.65,2.23 2.31,4.78 0.93,3.58 1.83,11.05 2.56,21.45 0.83,11.88 1.56,27.71 1.96,45.87 0.32,14.11 0.55,29.62 0.39,45.75 -0.23,22.37 -1.04,45.8999 -1.94,68.5299 -1.65,41.7 -4.02,80.24 -5.25,102.68 -0.05,1.94 -1.65,3.47 -3.59,3.43 -1.93,-0.04 -3.46,-1.65 -3.42,-3.58 -0.2,-19.35 -0.75,-50.65 -1.17,-85.62 -0.21,-18.42 -0.45,-37.83 -0.55,-57.0399 -0.06,-13.55 -0.1,-27 0.02,-39.9 0.19,-22.26 0.63,-42.91 0.71,-59.76 0.07,-14.68 0.06,-26.43 -0.41,-33.77 -0.13,-2.17 -0.42,-4.42 -0.56,-5.48 z"
     id="path1836"
     style="stroke:none;stroke-width:0.2" /><path
     d="m 2810.4942,6599.7134 c -0.79,0.17 -1.61,0.38 -2.36,0.61 -10.45,3.21 -26.9399,12.3 -44.3399,28.75 -11.44,10.83 -23.2799,24.75 -33.9399,42.6199 -17.02,28.55 -31.2799,66.72 -36.1299,117.59 -0.13,1.93 -1.8,3.4 -3.73,3.27 -1.93,-0.13 -3.39,-1.8 -3.27,-3.73 1.26,-35.71 7.17,-65.77 15.96,-90.87 7.7899,-22.24 17.7699,-40.6099 28.5599,-55.5699 10.5,-14.55 21.7799,-25.91 32.5499,-34.47 17.3,-13.75 33.3599,-20.42 43.0499,-22.5 5.91,-1.27 10.22,-0.81 12.42,0.17 4.16,1.84 5.82,4.93 5.45,8.69 -0.28,2.78 -0.35,11.41 -0.41,22.77 -0.2,34.65 0.01,93.8399 0.01,93.8399 0.08,1.93 -1.43,3.56 -3.36,3.63 -1.94,0.08 -3.57,-1.43 -3.64,-3.36 0,0 -3.55,-47.26 -5.53,-82.0599 -0.68,-12.08 -1.14,-22.67 -1.29,-29.38 z m -0.02,-6.41 c 0,-0.04 0,-0.08 0,-0.12 0,0.04 0,0.08 0,0.12 z"
     id="path1838"
     style="stroke:none;stroke-width:0.2" /><path
     d="m 2459.5851,6990.2932 c -1.07,-1.61 -0.64,-3.79 0.97,-4.87 1.61,-1.07 3.79,-0.64 4.86,0.97 0,0 2.5299,2.4 6.4399,6.95 1.78,2.08 3.63,4.54 5.79,7.4 1.74,2.74 3.74,5.63 5.37,9.01 0.98,2.04 1.79,4.25 2.49,6.54 1.01,3.31 1.78,6.73 2.34,10.32 0.83,5.27 1.19,10.45 1.19,15.89 0.37,1.9 -0.87,3.74 -2.77,4.11 -1.9,0.36 -3.74,-0.88 -4.11,-2.78 -2.15,-5.47 -4.97,-10.33 -7.59,-15.4 -1.78,-3.46 -3.61,-6.72 -5.16,-10 -0.71,-1.48 -1.27,-2.99 -1.83,-4.44 -0.9099,-2.42 -1.5999,-4.74 -2.4199,-6.88 z"
     id="path1840"
     style="stroke:none;stroke-width:0.2" /><path
     d="m 2502.615,6976.0432 c 0.4,-1.9 2.26,-3.11 4.15,-2.72 1.8899,0.4 3.1099,2.25 2.7199,4.15 l -0.03,25.23 c -0.13,1.98 -0.16,4.02 -0.35,6.1 -0.19,1.99 -0.45,4 -0.79,6.03 -0.6099,3.74 -1.4099,7.43 -2.1199,11.18 -1.12,5.93 -2.35,11.49 -2.84,16.88 0.15,1.93 -1.29,3.62 -3.22,3.77 -1.93,0.15 -3.62,-1.29 -3.77,-3.22 -1.05,-4.07 -1.9,-8.28 -2.53,-12.85 -0.59,-4.26 -0.94,-8.54 -1.05,-12.92 -0.07,-2.88 -0.05,-5.75 0.22,-8.55 0.28,-2.91 0.93,-5.7 1.42,-8.39 0.94,-3.63 1.76,-6.98 2.73,-10.02 2.89,-9.02 5.46,-14.67 5.46,-14.67 z"
     id="path1842"
     style="stroke:none;stroke-width:0.2" /><path
     d="m 2533.6649,6961.5532 c 0.27,-1.92 2.05,-3.25 3.97,-2.97 1.91,0.28 3.24,2.06 2.97,3.97 l 0.64,25.48 c -0.07,3.16 0.01,6.49 -0.12,9.98 -0.08,2.16 -0.19,4.37 -0.42,6.61 -0.53,5 -1.33,10.12 -2.11,15.34 -1.17,7.84 -2.62,15.51 -3.44,23.11 0.05,1.93 -1.47,3.54 -3.41,3.6 -1.93,0.05 -3.54,-1.47 -3.6,-3.41 -1.13,-6.65 -2.13,-13.43 -2.74,-20.43 -0.39,-4.61 -0.65,-9.16 -0.68,-13.66 -0.01,-3.09 0.05,-6.13 0.32,-9.07 0.44,-4.79 1.37,-9.27 2.05,-13.45 1.09,-4.76 2.03,-8.97 2.98,-12.6 2.05,-7.84 3.59,-12.5 3.59,-12.5 z"
     id="path1844"
     style="stroke:none;stroke-width:0.2" /><path
     d="m 2472.785,7007.1432 c -7.2699,3.99 -18.7099,1.8 -26.7799,-6.65 -5.52,-5.78 -8.97,-14.73 -8.48,-26.75 1.4,-14.77 11.71,-22.52 22.38,-23.2 10.9799,-0.7 22.6199,6.04 25.3499,19.23 1.72,9.66 1.49,17.97 -0.73,24.29 -2.33,6.64 -6.25,11.29 -11.74,13.08 z m -2.77,-6.43 c 3,-1.64 4.47,-4.94 5.15,-9.05 0.85,-5.09 -0.16,-11.4 -2.67,-18.53 -1.71,-5.33 -6.7699,-7.28 -11.3199,-6.83 -4.19,0.41 -8.08,3.32 -8.84,9.12 -1.43,7.6 -0.28,13.59 2.61,17.85 3.99,5.89 10.26,8.99 15.0699,7.44 z"
     id="path1846"
     style="stroke:none;stroke-width:0.2" /><path
     d="m 2501.325,7005.1632 c -11.98,-0.98 -19.12,-8.97 -22.54,-18.03 -2.72,-7.21 -2.44,-15.27 -0.29,-21.66 1.26,-3.77 3.48,-6.85 6.04,-9.25 6.4,-5.6 15.51,-7.9 24.0599,-5.64 7.22,1.91 14.07,6.95 18.21,15.35 1.32,2.83 2.19,5.88 2.21,9.14 0.04,5.91 -1.82,12.38 -5.35,17.75 -5.66,8.6 -14.48,14.51 -22.3399,12.34 z m 1.23,-6.9 c 1.45,0.12 2.77,-0.48 4.09,-1.22 3.1699,-1.75 5.5799,-5.44 7.3599,-9.46 2.18,-4.95 2.93,-10.79 0.33,-14.78 -2.41,-3.94 -6.01,-5.94 -9.5899,-6.78 -3.68,-0.87 -7.57,-0.43 -10.38,1.86 -2.25,1.67 -3.64,4.75 -4.16,8.19 -0.57,3.79 -0.53,7.92 0.97,11.64 1.89,4.7 5.36,8.86 11.38,10.55 z"
     id="path1848"
     style="stroke:none;stroke-width:0.2" /><path
     d="m 2533.9549,6990.8432 c -1.93,-0.12 -3.4,-1.78 -3.28,-3.71 0.11,-1.94 1.78,-3.41 3.71,-3.29 6.81,-0.31 11.32,-4.8 14.2199,-10.34 2.14,-4.09 2.91,-8.92 2.88,-13.59 -0.02,-4.26 -1.01,-8.4 -3.42,-11.45 -4.5699,-7.02 -10.6699,-8.08 -16.0599,-5.4 -6.91,3.43 -12.94,10.68 -14.12,19.13 -0.08,1.94 -1.71,3.44 -3.64,3.36 -1.94,-0.08 -3.44,-1.71 -3.36,-3.64 -0.58,-9.79 3.76,-19.42 10.11,-26.07 3.26,-3.41 7.22,-5.79 11.36,-7.2 9.25,-3.16 19.6799,-0.66 28.6099,10.36 2.88,4.16 4.81,9.12 5.28,14.46 0.59,6.86 -0.65,14.28 -3.91,20.61 -5.54,10.79 -15.5799,18.88 -28.3799,16.77 z"
     id="path1850"
     style="stroke:none;stroke-width:0.2" /><ellipse
     cx="2603.8347"
     cy="6967.1328"
     rx="5.2409873"
     ry="7.7659965"
     id="ellipse1852"
     style="stroke:none;stroke-width:0.2" /><ellipse
     cx="2626.5854"
     cy="6966.1362"
     rx="5.2409873"
     ry="7.7659965"
     id="ellipse1854"
     style="stroke:none;stroke-width:0.2" /><ellipse
     cx="2698.1965"
     cy="6907.2476"
     rx="5.2409873"
     ry="7.7659965"
     id="ellipse1856"
     style="stroke:none;stroke-width:0.2" /><ellipse
     cx="2674.5598"
     cy="6862.7661"
     rx="5.2409873"
     ry="7.7659965"
     id="ellipse1858"
     style="stroke:none;stroke-width:0.2" /><ellipse
     cx="2674.5598"
     cy="6828.707"
     rx="5.2409873"
     ry="7.7659965"
     id="ellipse1860"
     style="stroke:none;stroke-width:0.2" /><ellipse
     cx="2695.2188"
     cy="6826.6592"
     rx="5.2409873"
     ry="7.7659965"
     id="ellipse1862"
     style="stroke:none;stroke-width:0.2" /><ellipse
     cx="2769.8511"
     cy="6865.5576"
     rx="5.2409873"
     ry="7.7659965"
     id="ellipse1864"
     style="stroke:none;stroke-width:0.2" /><ellipse
     cx="2805.0273"
     cy="6891.8003"
     rx="5.2409873"
     ry="7.7659965"
     id="ellipse1866"
     style="stroke:none;stroke-width:0.2" /><ellipse
     cx="2818.6948"
     cy="6756.5752"
     rx="5.2409873"
     ry="7.7659965"
     id="ellipse1868"
     style="stroke:none;stroke-width:0.2" /><ellipse
     cx="2852.72"
     cy="6753.0859"
     rx="5.2409873"
     ry="7.7659965"
     id="ellipse1870"
     style="stroke:none;stroke-width:0.2" /><ellipse
     cx="2870.1685"
     cy="6804.5586"
     rx="5.2409873"
     ry="7.7659965"
     id="ellipse1872"
     style="stroke:none;stroke-width:0.2" /><ellipse
     cx="2769.5486"
     cy="6709.7554"
     rx="5.2409873"
     ry="7.7659965"
     id="ellipse1874"
     style="stroke:none;stroke-width:0.2" /><ellipse
     cx="2792.2317"
     cy="6671.6597"
     rx="5.2409873"
     ry="7.7659965"
     id="ellipse1876"
     style="stroke:none;stroke-width:0.2" /><ellipse
     cx="2940.834"
     cy="6792.6353"
     rx="5.2409873"
     ry="7.7659965"
     id="ellipse1878"
     style="stroke:none;stroke-width:0.2" /><ellipse
     cx="2941.1245"
     cy="6826.9507"
     rx="5.2409873"
     ry="7.7659965"
     id="ellipse1880"
     style="stroke:none;stroke-width:0.2" /><path
     d="m 3013.2937,6973.5532 c 0.76,-1.78 2.83,-2.6 4.61,-1.84 1.77,0.76 2.6,2.82 1.84,4.6 0,0 -1.1,7.32 -2.05,19.18 -0.31,3.8 -0.46,8.02 -0.93,12.62 -0.33,3.32 -0.93,6.77 -1.4,10.41 -0.44,3.43 -1.01,6.87 -1.38,10.57 -0.45,4.4 -0.92,8.77 -0.97,13.53 0.3,1.91 -1,3.7 -2.92,4.01 -1.91,0.3 -3.7,-1 -4.01,-2.92 -2.42,-7.41 -4.13,-14.38 -4.95,-21.28 -0.62,-5.14 -0.76,-10.05 -0.4,-14.64 0.16,-2.01 0.51,-3.94 0.9,-5.79 0.64,-3.06 1.38,-5.89 2.27,-8.49 4.4,-12.84 9.39,-19.96 9.39,-19.96 z"
     id="path1882"
     style="stroke:none;stroke-width:0.2" /><path
     d="m 3048.9136,6982.1832 c 1.03,-1.63 3.2,-2.13 4.84,-1.1 1.63,1.03 2.13,3.2 1.1,4.84 0,0 -1.94,6.84 -4.56,17.43 -0.85,3.46 -1.62,7.31 -2.8,11.36 -1.04,3.57 -2.49,7.17 -3.7,11.05 -1.73,5.56 -3.65,11.08 -4.57,17.3 0.06,1.93 -1.46,3.55 -3.4,3.61 -1.93,0.06 -3.55,-1.47 -3.61,-3.4 -1.4299,-6.84 -2.0999,-13.32 -1.8899,-19.77 0.14,-4.64 0.74,-9.05 1.7799,-13.15 0.45,-1.76 1.08,-3.41 1.73,-5 1.07,-2.59 2.18,-4.97 3.42,-7.13 5.98,-10.41 11.66,-16.04 11.66,-16.04 z"
     id="path1884"
     style="stroke:none;stroke-width:0.2" /><path
     d="m 2982.8638,6987.5532 c -0.08,-1.93 1.43,-3.57 3.36,-3.65 1.93,-0.08 3.57,1.42 3.65,3.35 l 4.4799,16.66 c 0.49,2.87 1.26,5.9 1.62,9.17 0.22,2 0.27,4.07 0.25,6.16 -0.02,3.9 -0.33,7.75 -0.59,11.66 -0.26,4.13 -0.72,7.92 -0.93,11.74 0.29,1.91 -1.03,3.7 -2.94,3.99 -1.9199,0.29 -3.6999,-1.03 -3.9899,-2.94 -1.62,-4.39 -3.24,-8.86 -4.65,-13.77 -0.88,-3.1 -1.67,-6.16 -2.25,-9.3 -0.38,-2.11 -0.69,-4.21 -0.8,-6.27 -0.17,-3.35 0.15,-6.52 0.24,-9.49 0.39,-3.28 0.69,-6.12 1.07,-8.65 0.81,-5.47 1.48,-8.66 1.48,-8.66 z"
     id="path1886"
     style="stroke:none;stroke-width:0.2" /><path
     d="m 3009.3437,7004.0532 c -3.56,-0.1 -6.96,-2.64 -9.93,-6.9 -2.44,-3.5 -4.44,-8.35 -5.94,-13.79 -2.2699,-8.23 -3.0199,-17.76 -1.9299,-25.82 0.6299,-4.63 2.0899,-8.74 3.9699,-12.08 8.18,-13.67 19.68,-15.56 29.14,-12.25 4.12,1.43 7.9199,4.02 10.8999,7.29 4.82,5.27 7.69,12.12 7.28,18.39 -1.24,14.69 -6.12,25.55 -12.0999,32.85 -7.83,9.56 -17.08,13.14 -21.39,12.31 z m 0.79,-6.96 c 1.25,0.04 2.84,-1.07 4.78,-2.54 3.35,-2.53 6.83,-6.91 9.58,-12.91 2.75,-5.99 4.41,-13.66 4.03,-23.05 -0.04,-1.7 -0.97,-3.33 -2.02,-4.89 -1.67,-2.48 -4.28,-4.44 -7.12,-5.43 -3.71,-1.29 -7.82,-0.07 -11.26,5.13 -3.73,5.21 -4.92,14.24 -4.56,22.74 0.27,6.61 1.26,12.93 3.41,17.13 0.95,1.88 1.72,3.53 3.16,3.82 z"
     id="path1888"
     style="stroke:none;stroke-width:0.2" /><path
     d="m 3039.7836,7010.9832 c -4.48,-1.63 -9.4699,-7.96 -11.4999,-17.57 -1.66,-7.9 -0.95,-18.01 3.6699,-29.33 4.91,-11.21 15.46,-17.21 25.03,-17.12 10.56,0.11 20.6199,7.12 22.2999,22.29 0.74,11.62 -3.83,22.12 -10.8999,29.71 -4.56,4.91 -9.83,8.66 -14.69,10.77 -5.82,2.53 -10.98,2.95 -13.91,1.25 z m 2.93,-6.36 c 1.22,0.43 2.81,-0.55 4.76,-1.58 3.98,-2.09 8.28,-6.25 11.81,-11.38 3.93,-5.7 6.49,-12.88 5.02,-20.5 -0.78,-5.44 -3.91,-8.19 -7.7,-8.33 -4.53,-0.18 -9.55,2.25 -12.35,7.32 -3.82,6.55 -5.67,12.72 -6.02,18.16 -0.34,5.22 0.35,9.65 1.89,12.76 0.8,1.61 1.54,2.95 2.59,3.55 z"
     id="path1890"
     style="stroke:none;stroke-width:0.2" /><path
     d="m 3000.0537,6959.0332 c 1.52,1.19 1.79,3.4 0.59,4.92 -1.2,1.52 -3.41,1.78 -4.92,0.58 0,0 -2.4,0.56 -6.4999,0.44 -1.04,-0.03 -2.09,0.33 -3.25,0.14 -0.85,-0.14 -1.48,-0.87 -2.39,-1.07 -0.69,-0.15 -1.1,-0.71 -1.84,-0.82 -1.4,-0.22 -2.35,-0.94 -3.96,-0.78 -1.63,1.03 -3.8,0.55 -4.84,-1.08 -1.03,-1.64 -0.55,-3.8 1.08,-4.84 1.99,-3.18 4.3,-4.28 7.01,-5.93 0.75,-0.46 1.48,-0.56 2.28,-0.83 1.69,-0.57 3.39,-0.62 5.06,-0.46 0.89,0.09 1.74,0.34 2.52,0.7 1.2399,0.57 2.3499,1.05 3.3099,1.87 1.1,0.95 1.95,1.57 2.7,2.56 2.26,2.98 3.15,4.6 3.15,4.6 z"
     id="path1892"
     style="stroke:none;stroke-width:0.2" /><path
     d="m 2972.3738,7001.0432 c -1.15,-1.55 -0.82,-3.75 0.73,-4.9 1.56,-1.15 3.76,-0.82 4.91,0.73 0,0 1.89,0.49 4.59,1.03 0.73,0.14 1.39,-0.41 2.23,-0.44 0.63,-0.02 0.98,-0.81 1.72,-1.09 0.84,-0.32 1.86,-0.43 2.94,-1.01 2.5399,-1.36 5.5199,-2.35 8.9799,-5.41 0.99,-1.66 3.14,-2.21 4.8,-1.22 1.66,0.99 2.21,3.14 1.22,4.81 -0.8,3.83 -1.85,6.44 -3.06,9.06 -0.71,1.55 -1.61,2.65 -2.49,3.79 -1.74,2.25 -3.82,3.58 -5.78,4.53 -1.05,0.52 -2.1299,0.84 -3.1799,0.97 -2.97,0.36 -5.64,0.38 -7.92,-0.69 -2.08,-0.99 -3.88,-1.81 -5.23,-3.33 -0.84,-0.94 -1.63,-1.59 -2.19,-2.52 -1.55,-2.61 -2.27,-4.31 -2.27,-4.31 z"
     id="path1894"
     style="stroke:none;stroke-width:0.2" /></g>&#10;</svg>
