<?xml version="1.0" encoding="UTF-8" standalone="no"?>
<svg
   width="2694.238"
   height="2691.137"
   viewBox="0 0 2694.2381 2691.137"
   version="1.1"
   xml:space="preserve"
   style="clip-rule:evenodd;fill-rule:evenodd;stroke-linejoin:round;stroke-miterlimit:2"
   id="svg5353"
   xmlns="http://www.w3.org/2000/svg"
   xmlns:svg="http://www.w3.org/2000/svg"><defs
   id="defs5353" />&#10;    <g
   id="vectorly-UNI-earth"
   style="stroke:none;stroke-width:0.2"
   transform="matrix(4.9999999,0,0,4.9999999,-559.4152,-40816.715)"><path
     d="m 479.41909,8674.8519 c 1.79164,-0.7291 3.84119,0.1443 4.56589,1.9339 0.7247,1.7897 -0.14185,3.8349 -1.93234,4.5634 -59.43289,24.6494 -124.38307,26.2663 -183.21335,7.563 -58.32563,-18.5398 -110.58923,-57.0782 -145.71912,-112.87 -39.59252,-63.1245 -49.84562,-136.411 -34.31584,-203.7632 15.58603,-67.5459 57.12995,-129.0596 120.5593,-168.5855 63.62703,-39.2197 137.20258,-49.055 204.63912,-32.9536 67.24728,16.0599 128.33885,57.8605 167.2685,121.4116 38.65441,63.3247 48.09638,136.3835 31.884,203.2696 -16.12029,66.5274 -57.56551,126.932 -120.57338,165.3393 -1.64398,1.0187 -3.81107,0.5039 -4.82761,-1.1366 -1.02366,-1.652 -0.5129,-3.8103 1.13108,-4.8289 60.43153,-38.0812 99.74425,-97.0691 114.42772,-161.6901 14.6079,-64.2406 4.82236,-134.054 -32.98866,-194.1701 -37.53579,-59.8898 -95.86325,-98.8465 -159.74797,-113.5923 -63.69317,-14.7057 -132.98715,-5.3324 -192.80319,31.9228 -59.99834,36.9712 -99.25182,94.8428 -114.45601,158.421 -15.24738,63.7954 -6.35051,133.3814 30.56508,193.6873 32.87391,53.919 82.47572,91.4235 138.05691,110.0285 56.67331,18.9762 119.55465,18.3713 177.47987,-4.5501 z"
     id="path2082"
     style="stroke:none;stroke-width:0.269924" /><path
     d="m 636.68659,8500.4826 c -6.10398,2.14 -32.11092,15.25 -30.32392,35.89 1.78699,20.65 -32.95492,67.3 -47.44689,67.1 -14.49196,-0.19 -29.77792,-62.93 -29.38092,-74.64 0.39699,-11.71 -6.22199,-36.83 -16.47796,-39.91 -17.86696,-5.35 -39.50591,3.38 -46.05689,-15.48 -6.55098,-18.86 -16.93996,-59.91 34.34392,-76.63 33.15091,-10.81 47.63288,8.4 58.36585,8.14 16.67596,-0.4 35.33691,1.19 35.53591,-3.18 0.198,-4.36 -48.44788,-18.41 -53.60086,-23.22 -8.93398,-8.34 -37.16391,2.97 -45.06489,7.94 -24.79994,15.59 -45.62889,-10.91 -15.64396,-22.5999 -1.652,-12.15 7.87898,-21.69 26.55493,-29.1 0,0 -12.31097,-10.89 3.04899,-26.3 22.52095,-22.58 23.96094,-62.22 66.64584,-51.01 10.48597,11.6 20.07795,24.3 28.60393,38.06 39.4559,63.67 48.41488,137.6899 30.89692,204.9399 z"
     id="path2088"
     style="stroke:none;stroke-width:0.2" /><path
     d="m 483.05397,8191.1727 c -11.84597,14.44 -12.02297,42.64 -21.58995,57.86 -16.06396,25.56 -35.73391,34.22 -47.08288,50.13 -14.71196,20.63 -33.45992,12.66 -32.23992,-1.98 1.221,-14.64 7.56598,-47.47 0,-59.81 -16.89396,-27.55 -7.87398,-51.78 19.62795,-65.59 27.93193,2.12 55.39887,8.67 81.2848,19.39 z"
     id="path2092"
     style="stroke:none;stroke-width:0.2" /><path
     d="m 229.3416,8219.9227 c 4.60499,-3.28 9.34498,-6.43 14.21797,-9.45 40.1909,-24.9 84.50379,-37.66 128.63368,-39.27 -0.537,15.61 -5.60699,25.69 -17.32096,29.76 -15.71496,5.46 -11.93797,26.05 -24.41894,23.54 -24.22294,-4.86 -67.02283,-6.9 -101.11175,-4.58 z"
     id="path2096"
     style="stroke:none;stroke-width:0.2" /><path
     d="m 164.75876,8285.8427 c 15.01896,-22.06 33.59292,-42.09 55.50186,-59.15 14.36597,5.91 35.36992,10.14 56.83086,8.01 36.41091,-3.62 52.09087,17.86 33.50092,35.8 -17.40996,16.8 -18.10596,34.66 -14.61196,41.15 3.49399,6.5 27.49593,-30.89 40.3399,-21.93 25.24993,17.61 19.59495,49.92 15.10496,58.47 -8.08698,15.41 -28.72493,32.2399 -37.03891,40.3299 -34.14592,33.19 -60.03385,31.92 -60.35085,43.04 -0.318,11.11 21.85994,28.12 41.4509,33.35 56.14486,14.98 68.82383,32.42 80.6328,36.03 20.43595,6.25 35.85691,12.67 32.92991,25.04 -9.96297,42.09 -24.82193,37.65 -30.57192,50.23 -20.24995,44.2699 -39.1099,50.4199 -39.5069,63.1199 -0.397,12.71 5.16199,32.17 -2.183,35.34 -7.34598,3.18 -22.03594,-12.9 -25.01393,-41.09 -2.978,-28.1899 4.68898,-62.4099 -6.10499,-75.5699 -20.34795,-24.82 -30.52292,-45.66 -22.58194,-68.49 2.22699,-6.4 1.98499,-9.18 -21.58895,-19.61 -23.57494,-10.42 -56.26086,-12.21 -58.56385,-35.79 -3.97099,-40.64 -26.66294,-40.73 -21.83795,-61.73 7.87898,-34.2899 -3.27199,-55.3199 -16.33696,-86.5499 z"
     id="path2100"
     style="stroke:none;stroke-width:0.2" /></g>&#10;</svg>
