<?xml version="1.0" encoding="UTF-8" standalone="no"?>
<svg
   width="3651.6565"
   height="2231.1367"
   viewBox="0 0 3651.6565 2231.1367"
   version="1.1"
   xml:space="preserve"
   style="clip-rule:evenodd;fill-rule:evenodd;stroke-linejoin:round;stroke-miterlimit:2"
   id="svg5353"
   xmlns="http://www.w3.org/2000/svg"
   xmlns:svg="http://www.w3.org/2000/svg"><defs
   id="defs5353" />&#10;    <g
   id="vectorly-UNI-planet"
   transform="matrix(4.9999999,0,0,4.9999999,-12049.562,-73078.297)"
   style="stroke-width:0.2"><path
     d="m 2605.3048,14625.305 c 0.13,-2.062 0.29,-4.165 0.48,-6.295 0.08,-1.923 1.7,-3.417 3.61,-3.348 1.92,0.06 3.43,1.646 3.4,3.569 0.05,1.854 0.07,3.653 0.07,5.409 0.36,14.167 2.02,25.981 5.59,34.462 3.09,7.346 7.91,11.552 15.4999,11.081 3.02,-0.07 5.71,1.909 6.55,4.815 0.83,2.905 -0.4,6.004 -2.99,7.553 -9.5899,6.101 -15.8199,11.884 -19.4799,20.71 -2.55,6.17 -3.88,13.738 -4.31,23.726 -0.03,1.978 -0.08,4.012 -0.16,6.115 0,0.1 -0.01,0.193 -0.01,0.29 -0.24,4.344 -3.92,7.692 -8.26,7.54 -4.35,-0.166 -7.76,-3.791 -7.68,-8.135 0.1,-3.403 0.27,-6.585 0.52,-9.587 0.25,-8.411 -0.24,-15.522 -2.01,-22.204 -2.38,-9.02 -6.9899,-17.251 -15.2199,-26.852 -1.74,-1.882 -2.13,-4.649 -0.99,-6.945 1.14,-2.297 3.58,-3.652 6.13,-3.403 5.7299,0.774 9.8499,-2.657 12.9599,-9.657 3.03,-6.806 5.14,-16.366 6.3,-28.844 z m 2.47,65.187 c 2.96,-4.399 6.6,-8.176 11.05,-11.662 -2.93,-2.103 -5.38,-4.898 -7.37,-8.384 -1.61,-2.795 -2.89,-6.073 -3.89,-9.781 -0.58,1.397 -1.21,2.684 -1.88,3.874 -2.37,4.164 -5.26,7.124 -8.62,9.02 4.71,5.727 8.18,11.247 10.71,16.933 z"
     id="path2132"
     style="stroke:none;stroke-width:0.235238" /><path
     d="m 2705.6678,14981.44 c 0.1211,-1.397 0.2625,-2.831 0.424,-4.284 0.087,-1.909 1.6963,-3.408 3.6148,-3.343 1.9117,0.06 3.4262,1.649 3.3926,3.567 0.054,1.183 0.094,2.337 0.1212,3.464 0.451,9.378 1.7434,17.163 4.234,22.732 1.7905,4.023 4.51,6.258 8.6969,5.904 3.0224,-0.06 5.7082,1.909 6.5429,4.814 0.8347,2.906 -0.3904,6.016 -2.9887,7.562 -5.9169,3.883 -9.7067,7.543 -11.9347,13.065 -1.6358,4.051 -2.4166,9.024 -2.6253,15.617 -0.013,1.109 -0.034,2.235 -0.061,3.399 0,0.04 0,0.08 -0.01,0.131 v 0 c 0,0.09 -0.01,0.186 -0.01,0.289 -0.2423,4.339 -3.9177,7.692 -8.2661,7.524 -4.3418,-0.158 -7.7613,-3.772 -7.6738,-8.12 0,-0.103 0.01,-0.196 0.01,-0.289 0.088,-2.44 0.2289,-4.722 0.4241,-6.863 0.1683,-5.066 -0.101,-9.415 -1.1309,-13.531 -1.4539,-5.802 -4.2609,-11.138 -9.4373,-17.377 -1.73,-1.891 -2.1204,-4.647 -0.9828,-6.947 1.1443,-2.291 3.5811,-3.651 6.1323,-3.409 3.0493,0.475 5.21,-1.387 6.9535,-5.103 2.0867,-4.433 3.6282,-10.644 4.5706,-18.802 z m 3.2579,39.476 c 1.1242,-1.295 2.3628,-2.515 3.7158,-3.679 -1.2184,-1.248 -2.282,-2.71 -3.1974,-4.386 -0.5049,-0.922 -0.9626,-1.918 -1.3732,-2.989 -1.0905,1.769 -2.3291,3.203 -3.7158,4.349 1.7906,2.244 3.2984,4.47 4.5706,6.705 z"
     id="path2134"
     style="stroke:none;stroke-width:0.158348" /><path
     d="m 2989.6565,14843.491 c 0.1211,-1.397 0.2625,-2.831 0.424,-4.284 0.088,-1.909 1.6963,-3.408 3.6148,-3.343 1.9117,0.06 3.4262,1.648 3.3926,3.567 0.054,1.182 0.094,2.337 0.1212,3.464 0.451,9.378 1.7434,17.163 4.234,22.732 1.7905,4.023 4.51,6.258 8.6969,5.904 3.0224,-0.07 5.7082,1.909 6.5429,4.814 0.8347,2.906 -0.3904,6.016 -2.9887,7.562 -5.9169,3.883 -9.7067,7.543 -11.9347,13.065 -1.6358,4.051 -2.4166,9.024 -2.6253,15.617 -0.013,1.109 -0.034,2.235 -0.061,3.399 0,0.04 0,0.08 -0.01,0.131 v 0 c 0,0.09 -0.01,0.186 -0.01,0.288 -0.2423,4.34 -3.9177,7.693 -8.2661,7.525 -4.3418,-0.158 -7.7613,-3.772 -7.6738,-8.121 0,-0.102 0.01,-0.195 0.01,-0.288 0.088,-2.44 0.2289,-4.722 0.4241,-6.864 0.1683,-5.065 -0.101,-9.414 -1.1309,-13.53 -1.4539,-5.802 -4.2609,-11.138 -9.4373,-17.377 -1.73,-1.891 -2.1204,-4.647 -0.9828,-6.948 1.1443,-2.29 3.5811,-3.65 6.1323,-3.408 3.0493,0.475 5.21,-1.387 6.9535,-5.103 2.0867,-4.433 3.6282,-10.644 4.5706,-18.802 z m 3.2579,39.475 c 1.1242,-1.294 2.3628,-2.514 3.7158,-3.678 -1.2184,-1.248 -2.282,-2.71 -3.1974,-4.386 -0.5049,-0.922 -0.9626,-1.918 -1.3732,-2.989 -1.0905,1.769 -2.3291,3.203 -3.7158,4.349 1.7906,2.244 3.2984,4.469 4.5706,6.704 z"
     id="path2142"
     style="stroke:none;stroke-width:0.158348" /><path
     d="m 2833.8498,14718.44 c -1.7642,-0.75 -2.5022,-2.864 -1.6465,-4.701 0.797,-1.644 2.8965,-2.471 4.6799,-1.715 31.7103,14.528 56.0966,39.827 70.0001,70.101 13.846,30.257 17.2294,65.286 7.1811,99.774 -11.2406,38.109 -37.0648,68.399 -69.6039,85.932 -32.7321,17.684 -72.3146,22.78 -110.749,11.231 -38.3169,-11.934 -68.2712,-38.306 -85.5042,-71.278 -17.1766,-32.745 -21.7279,-72.119 -9.6611,-110.185 12.104,-37.846 38.2306,-67.204 70.8419,-83.876 32.3618,-16.748 70.9983,-21.084 108.2769,-9.048 1.842,0.563 2.8882,2.562 2.3011,4.481 -0.5284,1.727 -2.5139,2.798 -4.3559,2.234 -35.3859,-10.197 -71.5076,-5.301 -101.4653,11.133 -29.6302,16.325 -53.0748,43.776 -63.3185,78.833 -10.1635,34.452 -5.3026,69.934 10.6044,99.352 15.792,29.384 42.6301,52.704 76.9774,63.003 34.23,10.683 69.5221,6.373 99.0519,-9.143 29.6832,-15.47 53.5657,-42.157 64.4392,-76.391 10.1282,-31.525 7.7875,-63.928 -4.2255,-91.945 -12.2004,-28.914 -34.4005,-53.333 -63.824,-67.792 z"
     id="path4130"
     style="stroke:none;stroke-width:0.401318" /><path
     d="m 2899.9156,14781.521 c -1.8924,0.296 -3.6585,-1.024 -3.931,-2.989 -0.282,-1.96 1.0551,-3.752 3.0201,-3.906 8.2832,-1.493 14.9481,-1.767 19.6307,-1.012 5.3607,0.81 8.4277,3.13 9.8488,6.161 1.4306,3.027 0.955,7.05 -2.0383,11.986 -2.656,4.097 -7.4466,9.288 -14.2187,14.988 -11.0403,9.277 -27.3729,20.492 -47.614,32.353 -11.4226,6.666 -24.0846,13.519 -37.7448,20.283 -12.2045,6.136 -25.2549,12.116 -38.7775,18.127 -21.8689,9.266 -42.988,17.341 -62.4499,23.659 -25.3596,8.343 -47.7709,14.025 -64.9487,16.928 -11.2913,1.924 -20.416,2.565 -26.8163,1.857 -7.5601,-0.728 -11.9824,-3.678 -13.3932,-7.234 -1.4202,-3.552 -0.6039,-8.59 4.0985,-14.09 3.9689,-4.663 10.6554,-10.326 19.729,-16.499 1.5516,-1.19 3.7787,-0.763 4.9265,0.824 1.0846,1.441 0.7482,3.668 -0.7939,4.855 -6.5143,5.067 -11.6146,9.698 -15.145,13.652 -1.9019,2.209 -3.2615,4.184 -4.0217,5.901 -0.3243,0.66 -0.6357,1.142 -0.3641,1.719 0.063,0.146 0.2915,0.05 0.4878,0.136 0.589,0.266 1.3493,0.459 2.2142,0.606 2.49,0.487 5.7352,0.475 9.6463,0.175 4.8304,-0.523 10.6599,-1.478 17.2919,-2.952 13.7078,-2.967 30.7151,-8.226 50.0067,-14.991 13.7172,-4.88 28.5641,-10.594 44.1313,-16.966 9.4343,-3.899 19.1825,-7.933 29.0865,-12.208 16.2652,-6.848 31.7321,-13.871 46.0928,-20.764 10.6944,-5.136 20.8466,-10.039 30.1589,-14.926 20.0551,-10.566 36.5279,-20.279 47.6365,-28.719 4.0581,-2.966 7.368,-5.783 9.9263,-8.276 1.8985,-2.034 3.3938,-3.721 4.2172,-5.291 0.2802,-0.815 0.8069,-1.216 0.6365,-1.663 -0.243,-0.589 -0.7404,-0.721 -1.3864,-0.963 -1.6563,-0.673 -3.8645,-1.109 -6.5137,-1.18 -3.5141,-0.218 -7.7607,-0.121 -12.6293,0.419 z"
     id="path4132"
     style="stroke:none;stroke-width:0.256982" /><path
     d="m 2479.2785,14968.729 c 0.6607,1.531 -0.1272,3.687 -1.8956,4.45 -1.7871,0.772 -3.8775,-0.142 -4.5382,-1.672 -2.2641,-4.47 -1.8568,-10.093 1.1277,-16.828 3.4732,-7.31 10.445,-16.492 20.9356,-26.468 6.7675,-6.915 15.0781,-14.134 24.8377,-21.615 5.4345,-4.161 11.2829,-8.502 17.6397,-12.698 5.7171,-3.92 11.8862,-7.673 18.3375,-11.547 8.84,-5.268 18.4897,-10.159 28.4401,-15.544 8.427,-4.364 17.1362,-8.849 26.2973,-13.167 8.5967,-4.074 17.5702,-7.947 26.6561,-12.232 1.7683,-0.763 3.8394,-0.205 4.7639,1.575 0.9244,1.78 0.2494,3.887 -1.5378,4.658 -8.5578,5.147 -16.8522,10.18 -24.9209,15.115 -8.5954,5.163 -16.7201,10.485 -24.6947,15.38 -9.4603,5.899 -18.2994,11.894 -26.8004,17.379 -6.131,4.099 -11.9986,8.084 -17.735,11.649 -6.1875,4.124 -12.0363,8.101 -17.6599,11.618 -9.704,6.73 -18.2416,12.958 -25.4436,18.608 -10.2106,8.039 -17.5237,15.19 -21.2992,21.541 -2.4049,3.58 -3.5301,6.97 -2.5103,9.798 z m 559.208,-260.625 c -1.9009,0.09 -3.4838,-1.401 -3.5993,-3.53 0.035,-1.831 1.5203,-3.562 3.5533,-3.35 5.645,-1.347 10.5003,-1.99 14.9611,-2.1 4.2157,-0.367 7.9436,0.566 11.0126,1.42 2.5043,0.734 4.6327,1.995 6.3661,3.425 2.506,2.187 4.0898,4.408 5.1849,7.204 1.2666,4.537 1.555,9.496 -1.4497,15.151 -2.3856,3.935 -6.0133,8.043 -11.4097,12.551 -1.1839,1.6 -3.3858,1.824 -4.8554,0.643 -1.6017,-1.487 -1.7548,-3.6 -0.571,-5.201 2.254,-3.878 3.3411,-7.615 4.3539,-10.594 0.7117,-2.849 0.5398,-4.954 -0.3654,-6.379 -0.151,-0.298 -0.5277,-0.498 -0.7915,-0.748 -0.49,-0.514 -0.8855,-0.707 -1.526,-1.157 -1.6201,-1.116 -3.4282,-2.151 -5.6879,-2.992 -4.1991,-1.455 -9.0576,-3.353 -15.176,-4.343 z m -162.5386,38.566 c -1.7683,0.763 -3.7646,-0.191 -4.4257,-2.084 -0.6423,-1.902 0.3718,-3.792 2.1401,-4.556 11.0048,-5.113 21.5204,-10.015 32.0557,-14.199 4.4777,-1.57 8.7481,-3.413 13.0942,-4.926 3.0104,-0.936 6.002,-1.865 8.9183,-2.76 7.752,-2.257 15.4108,-3.747 22.8062,-5.124 12.3632,-2.431 23.9371,-3.795 34.815,-4.859 1.8817,-0.45 3.8032,0.9 4.1064,2.585 0.4353,1.991 -0.7293,3.946 -2.6109,4.395 -10.3297,3.006 -21.11,6.933 -32.7557,11.234 -7.0366,2.311 -14.3179,4.727 -21.8248,7.241 -2.8976,0.888 -5.946,1.478 -8.9,2.389 -4.3841,1.167 -8.8059,2.349 -13.435,3.258 -10.9326,2.54 -22.1854,4.855 -33.9838,7.406 z"
     id="path4134"
     style="stroke:none;stroke-width:0.52274" /><path
     d="m 3024.8829,14734.295 c 0.081,0.233 0.098,0.226 0.1792,0.191 0.1304,-0.06 0.016,-0.276 -0.065,-0.241 0.1305,-0.593 0.1142,-0.855 -0.342,-0.926 -0.1629,0.07 0.065,0.509 0.1628,0.735 0,0 0,0 -0.016,0 -0.3421,-0.121 -0.9124,-0.143 -1.2871,-0.25 -1.0753,-0.342 -2.2972,-0.62 -3.6983,-0.821 -4.6108,-0.695 -10.6229,-0.785 -17.9223,-0.32 -4.3666,0.273 -9.2057,0.482 -14.3707,1.1 -9.9715,1.082 -21.3117,2.485 -33.9392,4.713 -1.8576,0.533 -3.8451,-0.757 -4.2521,-2.461 -0.5047,-1.931 0.6525,-3.773 2.51,-4.306 12.4161,-4.286 23.5938,-7.768 33.4679,-10.418 9.0593,-2.031 16.9128,-3.541 23.6419,-4.028 8.6518,-0.781 15.4947,0.02 20.1053,1.526 5.4741,1.934 8.6832,5.115 10.3118,8.977 1.3679,3.438 1.579,7.375 -0.2956,11.944 -1.6464,4.202 -5.1992,8.959 -10.7561,14.311 -4.2532,3.985 -9.7285,8.228 -16.3932,12.716 -7.284,5.024 -15.9854,10.123 -25.8764,15.735 -1.662,0.986 -3.8126,0.571 -4.9039,-1.106 -0.9936,-1.451 -0.6185,-3.761 1.0436,-4.747 13.346,-10.327 23.8405,-19.691 31.4671,-27.548 4.286,-4.536 7.5616,-8.367 9.6314,-11.677 0.489,-1.017 1.3039,-2.174 1.5973,-3.106 z m 0,0 c 0,0 0.016,0 -0.081,-0.234 0.049,-0.02 0.1629,0.198 0.1955,0.184 -0.033,0.01 -0.081,0.03 -0.1141,0.05 z m -502.9909,216.845 c 0.684,1.584 -0.066,3.788 -1.842,4.554 -1.776,0.767 -3.9102,-0.192 -4.5943,-1.776 -2.557,-4.805 -0.5516,-12.116 6.505,-21.339 4.4165,-5.666 10.8535,-12.204 19.2784,-19.332 4.1391,-3.666 8.8485,-7.311 13.9978,-11.145 4.856,-3.438 10.1031,-7.046 15.8063,-10.582 5.084,-3.269 10.5754,-6.445 16.4252,-9.507 7.9192,-4.224 16.3924,-8.418 25.4195,-12.583 8.245,-3.828 16.7833,-7.782 25.7941,-11.671 1.7598,-0.76 3.8941,-0.07 4.7247,1.451 0.9121,1.755 0.2762,3.909 -1.4021,4.903 -13.6063,8.29 -26.0395,16.61 -37.7068,24.332 -8.7667,5.933 -17.0283,11.379 -24.8174,16.352 -7.4468,4.826 -14.421,9.179 -20.7435,13.251 -7.675,5.193 -14.5515,9.504 -20.0919,13.775 -6.893,5.393 -12.0425,9.764 -14.7316,13.879 -1.5156,1.997 -2.575,3.797 -2.0214,5.438 z"
     id="path4136"
     style="stroke:none;stroke-width:0.418376" /><path
     d="m 2928.0506,14843.12 c 1.789,-0.772 3.8365,-0.261 4.6265,1.258 0.982,1.902 0.3227,4.046 -1.4663,4.819 l -16.2394,8.87 c -17.5635,8.976 -35.7611,18.226 -54.6488,27.309 -17.9365,8.672 -36.326,17.54 -55.4162,25.78 -18.219,8.329 -36.3128,16.139 -54.1455,23.372 -18.5467,8.005 -36.979,15.031 -54.8224,21.803 -33.8752,12.762 -66.0281,23.85 -95.79,32.511 -37.5959,11.113 -71.1025,19.065 -98.7878,23.575 -32.5743,4.759 -57.4358,4.794 -71.9937,0.382 -9.3091,-2.957 -15.3107,-8.273 -17.8035,-14.172 -2.6394,-6.302 -2.2217,-13.923 2.0339,-22.735 6.8196,-13.64 24.0215,-31.296 50.0074,-50.884 39.9752,-29.811 100.7006,-65.324 174.0546,-100.707 1.7664,-0.762 3.7913,-0.241 4.7505,1.67 0.7674,1.529 0.085,3.684 -1.6808,4.446 -71.4783,37.364 -130.621,74.053 -169.364,104.728 -19.3601,15.332 -33.569,28.906 -41.2573,40.596 -4.8525,6.745 -7.3725,12.483 -5.2967,17.167 0.6995,1.559 2.1689,2.785 4.046,3.835 2.9854,1.501 7.0804,2.524 12.2278,3.557 13.7464,1.973 33.3819,0.473 57.7397,-3.53 27.2324,-4.314 59.9583,-12.395 96.9988,-22.802 29.4675,-8.534 61.4046,-19.065 95.2786,-30.896 17.8767,-6.321 36.1504,-13.279 54.8997,-20.442 17.9113,-6.801 36.0385,-14.16 54.5053,-21.666 19.1688,-7.809 37.8061,-15.854 55.8439,-24.105 18.989,-8.661 37.4797,-17.108 55.1445,-25.663 z m -65.1579,-108.134 c -1.9356,0.371 -3.802,-0.219 -4.5348,-2.228 -0.5862,-1.607 0.2769,-3.839 2.0432,-4.602 40.4877,-15.616 78.2341,-29.119 112.2187,-39.137 29.0825,-8.368 55.2651,-14.554 77.6646,-18.177 25.9084,-4.208 46.7202,-5.285 61.3258,-2.754 14.7416,2.473 23.594,8.418 27.0341,16.699 2.4475,5.919 2.2562,13.442 -1.7609,21.687 -4.3235,8.842 -12.995,19.561 -25.8772,31.167 -23.0564,20.648 -59.7763,44.869 -106.0834,70.902 -1.5971,1.155 -3.7126,0.673 -4.7851,-1.189 -0.9033,-1.471 -0.5038,-3.968 1.2626,-4.731 36.1857,-22.595 65.8521,-44.236 87.446,-62.858 15.6796,-13.278 26.7408,-25.494 32.5709,-35.451 3.2327,-5.581 4.9815,-10.056 3.3907,-13.555 -0.6995,-1.558 -2.1463,-2.794 -3.9328,-3.883 -2.9174,-1.531 -6.8992,-2.602 -11.7189,-3.312 -13.452,-2.099 -32.5893,-0.815 -56.5501,2.552 -21.9014,3.408 -47.743,8.517 -76.4619,15.798 -34.062,8.657 -72.4946,19.2 -113.2515,33.072 z"
     id="path4138"
     style="stroke:none;stroke-width:0.649038" /><path
     d="m 2913.2539,14854.51 c -0.93,8.5 -2.6599,17 -5.2399,25.4 -22.23,72.7 -99.2698,113.6 -171.9196,91.4 -15.79,-4.9 -30.0799,-12.3 -42.5399,-21.7 34.8899,-12.7 71.5998,-27.3 109.2097,-43.5 39.0799,-16.9 76.1998,-34.3 110.4897,-51.6 z"
     id="path4140"
     style="stroke:none;stroke-width:0.2" /><path
     d="m 2539.4049,14942.21 c -0.82,-1.8 -0.06,-3.8 1.7,-4.7 1.75,-0.8 3.84,0 4.65,1.7 0.81,1.4 2.6599,2 5.2599,2.6 4.36,1 10.64,0.8 19.36,-0.3 6.43,-0.8 14.01,-2.3 23.0799,-4.2 6.89,-1.5 14.57,-3.3 23.2,-5.2 8.48,-1.8 17.8499,-3.6 28.1599,-5.7 12.74,-2.7 26.8299,-5.4 42.4899,-9 1.85,-0.6 3.81,0.4 4.39,2.3 0.57,1.8 -0.46,3.8 -2.31,4.4 -9.03,3.6 -17.46,6.9 -25.5399,9.8 -9.28,3.4 -17.89,6.4 -25.99,8.9 -6.23,1.9 -12.1099,3.6 -17.6899,4.9 -6.47,1.5 -12.52,2.6 -18.11,3.5 -6.3,0.9 -12.03,1.5 -17.2399,1.9 -11.26,0.8 -19.98,0.4 -26.58,-0.6 -11.5099,-1.8 -17.1599,-5.7 -18.8299,-10.3 z"
     id="path4142"
     style="stroke:none;stroke-width:0.2" /><path
     d="m 2835.3641,14715.21 c 24.89,11.8 44.9699,30.5 58.6199,52.9 144.1296,-37.4 121.4097,12.8 96.9398,29.1 -23.53,15.6 -50.3899,28.4 -76.9099,38.6 -56.1498,21.7 -110.7297,32.1 -128.6896,34.2 91.7597,-59.6 50.0398,-154.8 50.0398,-154.8 z m 64.0999,62.8 c 3.93,7.9 7.12,16.1 9.5,24.6 11.6499,-9.3 17.4099,-16.7 15.4899,-21.2 -1.88,-4.3 -10.86,-5.3 -24.9899,-3.4 z"
     id="path4144"
     style="stroke:none;stroke-width:0.2" /><path
     d="m 3113.564,14795.458 c 0.7418,-1.825 2.7611,-2.686 4.5727,-1.995 1.8192,0.7 2.6607,2.767 1.9189,4.591 -0.5021,1.926 -1.2967,3.688 -2.2405,5.455 -0.9512,1.757 -2.2176,3.324 -3.6482,4.878 -4.9939,5.274 -11.7482,7.581 -18.4364,7.629 -7.0976,0.106 -13.8647,-3.174 -19.2295,-8.58 -5.1232,-5.841 -7.608,-13.254 -6.8318,-20.43 0.8139,-7.131 4.383,-13.899 10.562,-18.5 6.0411,-4.223 12.9936,-6.117 19.7099,-4.873 6.3352,1.154 12.2889,4.377 16.1213,10.139 1.253,1.472 1.1188,3.651 -0.3891,4.934 -1.508,1.283 -3.6801,1.067 -4.9331,-0.405 -3.2381,-3.087 -7.5143,-4.158 -11.6963,-4.041 -3.6385,0.04 -7.1695,1.819 -9.9363,4.678 -2.5988,2.517 -3.5031,5.948 -3.6996,9.311 -0.1682,3.217 0.5449,6.571 2.8017,9.223 2.1266,3.039 5.1894,5.021 8.5805,5.591 3.78,0.668 7.8261,0.391 11.2175,-1.914 1.1701,-0.782 2.2289,-1.514 3.1065,-2.46 0.9587,-1.03 1.7911,-2.029 2.4498,-3.231 z"
     id="path4146"
     style="stroke:none;stroke-width:0.23294" /><path
     d="m 2898.6843,14691.499 c 0.6898,-1.782 2.7067,-2.652 4.5069,-1.941 1.8001,0.711 2.6949,2.735 2.0051,4.517 -0.2417,1.336 -0.8033,2.512 -1.3241,3.737 -0.5695,1.275 -1.4419,2.302 -2.3177,3.434 -3.2093,3.898 -7.8375,5.373 -12.5132,5.711 -5.0115,0.376 -9.7029,-2.112 -13.7023,-5.732 -3.6374,-4.166 -5.4848,-9.47 -4.8515,-14.559 0.6073,-5.012 3.1304,-9.825 7.6702,-12.916 4.4184,-2.693 9.1544,-4.149 13.7653,-2.944 4.2378,1.091 8.2441,3.207 10.6077,7.281 1.2522,1.472 1.1,3.669 -0.3928,4.94 -1.4929,1.27 -3.6867,1.068 -4.9389,-0.403 -1.7762,-1.439 -3.9859,-1.444 -6.1128,-1.242 -1.6879,0.177 -2.9028,1.449 -4.0543,2.797 -0.7669,0.827 -0.6966,1.99 -0.8918,3.057 -0.078,0.664 0.072,1.381 0.2675,2.043 0.1236,0.685 0.1893,1.411 0.6612,1.965 0.9799,1.584 2.2401,2.957 3.9359,3.113 1.4757,0.114 3.0297,0.428 4.3887,-0.352 0.6285,-0.341 1.2274,-0.502 1.7424,-0.977 0.5684,-0.52 1.1469,-0.921 1.5485,-1.529 z"
     id="path4148"
     style="stroke:none;stroke-width:0.140015" /></g>&#10;</svg>
