<?xml version="1.0" encoding="UTF-8" standalone="no"?>
<svg
   width="3043.8037"
   height="2616.5342"
   viewBox="0 0 3043.8037 2616.5342"
   version="1.1"
   xml:space="preserve"
   style="clip-rule:evenodd;fill-rule:evenodd;stroke-linejoin:round;stroke-miterlimit:2"
   id="svg5353"
   xmlns="http://www.w3.org/2000/svg"
   xmlns:svg="http://www.w3.org/2000/svg"><defs
   id="defs5353" />&#10;    &#10;<g
   id="vectorly-UNI-house"
   style="stroke:none;stroke-width:0.2"
   transform="matrix(4.9999999,0,0,4.9999999,-4293.5736,-24556.613)"><path
     d="m 1003.4787,5062.364 c -0.95,-1.69 -0.36,-3.83 1.33,-4.78 1.68,-0.95 3.82,-0.36 4.77,1.33 2.6,4.3 6.6499,9.81 12.0399,10.72 3.74,0.63 7.74,-1.59 12.48,-7.63 6.79,-8.55 36.7599,-42.16 67.0098,-75.13 14.48,-15.78 29.02,-31.4 41.0099,-44.0999 16.21,-17.18 27.75,-29.01 27.75,-29.01 1.53,-1.6 3.67,-2.48 5.88,-2.44 2.2199,0.04 4.3099,1.01 5.7899,2.66 l 124.4497,143.6299 c 2.85,2.97 5.84,4.18 8.91,4.06 3.67,-0.14 7.34,-1.8 10.77,-3.96 1.61,-1.07 3.79,-0.63 4.86,0.98 1.08,1.61 0.64,3.79 -0.97,4.86 -4.42,3.12 -9.26,5.41 -14.14,5.87 -5.14,0.48 -10.36,-1.04 -15.41,-5.76 -5.2299,-4.93 -35.7599,-36.89 -65.8298,-69.11 -24.1599,-25.9 -48.0299,-51.9399 -58.7098,-63.6199 -4.91,5.13 -12.62,13.15 -21.97,22.7499 -12.93,13.28 -28.9999,29.62 -44.9899,45.78 -30.3199,30.63 -60.3298,60.59 -67.2598,68.51 -8.09,9.16 -15.32,11.02 -21.22,9.67 -7.4399,-1.71 -13.2699,-9.07 -16.5499,-15.28 z"
     id="path710"
     style="stroke:none;stroke-width:0.2" /><path
     d="m 1068.3985,5315.0539 c 1.3,0.41 6.03,1.83 10.44,2.5 14.37,2.19 37.4599,3.39 62.3798,4.16 54.9999,1.72 118.7397,1.12 118.7397,1.12 1.93,-0.07 3.56,1.44 3.63,3.37 0.07,1.93 -1.44,3.56 -3.37,3.64 0,0 -47.0098,3.04 -95.2597,4.28 -22.56,0.58 -45.3799,0.73 -63.8199,0.08 -17.4399,-0.62 -31.1299,-2.17 -37.5799,-4.42 -3.53,-1.23 -5.71,-3.03 -6.9,-4.56 -1.3799,-1.79 -3.1699,-6.48 -4.3399,-13.77 -1.55,-9.61 -2.89,-24.9 -3.88,-43.42 -0.69,-13 -1.19,-27.62 -1.57,-42.97 -0.51,-20.82 -0.78,-42.9899 -0.94,-64.3399 -0.35,-48.77 -0.14,-93.13 -1.45,-106.78 -0.24,-1.92 1.13,-3.67 3.05,-3.91 1.92,-0.23 3.67,1.14 3.91,3.06 2.04,13.65 4.6,58.22 7.1599,107.26 1.11,21.27 2.21,43.3699 3.31,64.1299 0.8,15.23 1.61,29.73 2.4,42.64 1.1,17.87 2.18,32.63 3.56,41.93 0.3,2.07 0.29,4.51 0.53,6 z m 0.04,0.23 c 0.16,0.85 0.43,1.32 0.93,1.1 0.22,-0.1 -0.24,-0.38 -0.35,-0.52 -0.11,-0.15 -0.36,-0.39 -0.58,-0.58 z"
     id="path712"
     style="stroke:none;stroke-width:0.2" /><path
     d="m 1297.138,5057.354 c 0.42,-1.89 2.2899,-3.08 4.1799,-2.66 1.89,0.41 3.08,2.28 2.67,4.17 -1.35,7.82 -2.77,36.4 -4.6,72.59 -0.77,15.21 -1.5199,31.74 -2.5699,48.61 -0.84,13.43 -1.96,27.0599 -2.93,40.4399 -1,13.95 -2.05,27.58 -2.8,40.41 -1.14,19.38 -1.85,36.79 -1.44,50.46 0.15,1.93 -1.3,3.61 -3.23,3.76 -1.93,0.15 -3.61,-1.3 -3.76,-3.23 -2.35,-19.54 -3.67,-46.95 -3.56,-76.76 0.07,-16.62 0.48,-33.96 1.45,-51.0299 0.38,-6.85 0.96,-13.65 1.56,-20.34 0.94,-10.51 2,-20.74 3.17,-30.45 4.55,-37.95 9.71,-67.98 11.86,-75.97 z"
     id="path714"
     style="stroke:none;stroke-width:0.2" /><path
     d="m 1291.338,5149.634 c -1.93,0.04 -3.54,-1.5 -3.58,-3.43 -0.04,-1.94 1.49,-3.54 3.43,-3.58 0,0 54.1898,-2.82 101.1497,-4.92 23.37,-1.05 44.9399,-1.9 57.1199,-2.36 -4.14,-11.83 -11.51,-33.03 -18.62,-54.32 -8.22,-24.62 -16.0799,-49.35 -19.2799,-59.48 l -149.7797,-2.6 c -1.94,0.02 -3.52,-1.55 -3.53,-3.48 -0.01,-1.93 1.55,-3.51 3.48,-3.53 l 155.0597,-4.61 c 3.0899,-0.02 5.8399,1.94 6.8299,4.87 0,0 11.46,31.76 22.33,63.74 10.87,31.97 21.1299,64.14 21.1299,64.14 0.77,2.27 0.41,4.77 -0.97,6.73 -1.37,1.95 -3.6,3.14 -5.99,3.2 0,0 -31.6299,0.22 -67.5098,0.17 -47.0099,-0.07 -101.2697,-0.54 -101.2697,-0.54 z m -208.7295,-136.58 c 1.93,-0.01 3.51,1.55 3.52,3.48 0.02,1.93 -1.54,3.51 -3.48,3.53 0,0 -138.42567,4.26 -138.42567,4.26 -5.86699,10.57 -24.55094,44.14 -41.5509,73.65 -9.10698,15.8 -17.74896,30.42 -23.37994,39.87 17.00996,0.52 48.42988,1.5 79.8528,2.62 46.41391,1.66 92.78381,3.61 92.78381,3.61 1.94,0.02 3.49,1.62 3.46,3.55 -0.03,1.93 -1.62,3.48 -3.55,3.46 0,0 -46.4099,0.65 -92.85581,1.01 -46.42888,0.36 -92.84377,0.42 -92.84377,0.42 -2.67199,-0.04 -5.12399,-1.49 -6.44298,-3.81 -1.319,-2.32 -1.308,-5.17 0.031,-7.49 0,0 13.38596,-24.16 29.11592,-51.24 20.60495,-35.49 45.11989,-76.04 45.11989,-76.04 1.244,-2.15 3.53499,-3.48 6.01999,-3.5 z"
     id="path716"
     style="stroke:none;stroke-width:0.2" /><path
     d="m 1213.9882,4933.2241 c -1.93,0.11 -3.59,-1.37 -3.7,-3.3 -0.11,-1.93 1.38,-3.59 3.31,-3.7 0,0 7.3599,-2.31 17.7499,-4.08 2.29,-0.39 4.68,-0.66 7.18,-0.85 1.59,-0.12 3.2,-0.23 4.82,-0.16 4.09,0.16 8.16,0.77 12.06,1.55 7.3699,1.49 13.6399,3.57 18.0499,5.74 1.86,0.52 2.96,2.45 2.44,4.32 -0.52,1.86 -2.45,2.95 -4.32,2.43 -3.74,-0.29 -8.51,0.34 -14.0799,0.87 -2.34,0.23 -4.69,0.5 -7.17,0.68 -2.38,0.18 -4.78,0.38 -7.19,0.39 -1.55,0.01 -3.09,-0.1 -4.61,-0.22 -2.42,-0.18 -4.74,-0.43 -6.96,-0.74 -10.21,-1.42 -17.5799,-2.93 -17.5799,-2.93 z"
     id="path718"
     style="stroke:none;stroke-width:0.2" /><path
     d="m 1261.988,4930.5441 c -0.06,-1.93 1.47,-3.55 3.41,-3.6 1.93,-0.05 3.54,1.47 3.59,3.41 0,0 2.28,11.91 4.27,27.4899 0.45,3.53 0.81,7.22 1.1,11.01 0.19,2.43 0.37,4.89 0.4,7.36 0.06,6.31 -0.29,12.59 -0.66,18.42 -1,15.66 -2.56,27.69 -2.56,27.69 0.06,1.93 -1.47,3.54 -3.4,3.6 -1.94,0.05 -3.55,-1.48 -3.6,-3.41 0,0 -2.23,-11.93 -4.09,-27.5 -0.7,-5.8 -1.38,-12.05 -1.68,-18.36 -0.11,-2.46 -0.06,-4.93 -0.01,-7.36 0.08,-3.81 0.24,-7.51 0.49,-11.06 1.12,-15.6699 2.74,-27.6899 2.74,-27.6899 z"
     id="path720"
     style="stroke:none;stroke-width:0.2" /><path
     d="m 1221.8381,4929.1841 c 0.05,-1.93 1.66,-3.46 3.6,-3.41 1.93,0.05 3.46,1.66 3.41,3.6 0,0 1.76,5.54 3.16,13.39 0.31,1.72 0.52,3.48 0.66,5.34 0.09,1.18 0.18,2.37 0.1,3.5499 -0.2,3.08 -0.79,6.05 -1.39,8.84 -1.68,7.74 -3.67,13.22 -3.67,13.22 -0.05,1.94 -1.66,3.47 -3.59,3.42 -1.94,-0.05 -3.47,-1.66 -3.42,-3.6 0,0 -1.7,-5.57 -2.98,-13.39 -0.4599,-2.81 -0.8999,-5.81 -0.9399,-8.9 -0.01,-1.1899 0.14,-2.3699 0.29,-3.5399 0.23,-1.85 0.5399,-3.6 0.9299,-5.3 1.81,-7.77 3.84,-13.22 3.84,-13.22 z"
     id="path722"
     style="stroke:none;stroke-width:0.2" /><path
     d="m 1171.0483,5005.474 c 1.86,-0.53 3.8,0.55 4.32,2.41 0.53,1.86 -0.55,3.8 -2.41,4.33 -8.7,3.39 -12.47,12.45 -12.56,21.11 -0.03,3.3 0.74,6.49 1.98,9.39 1.56,3.66 4.38,6.59 8.63,7.76 4.43,1.56 8.7999,1.07 12.5299,-0.66 2.95,-1.37 5.66,-3.18 7.64,-5.53 2.62,-3.09 4.59,-6.57 4.18,-10.04 -0.39,-3.32 -2.39,-6.41 -6.79,-8.54 -1.81,-0.68 -2.73,-2.7 -2.06,-4.51 0.68,-1.81 2.7,-2.74 4.51,-2.06 6.31,1.68 10.14,5.17 12.48,9.06 4.09,6.81 2.73,15.77 -2.01,23.51 -4.64,7.59 -13.06,13.51 -22.65,15 -3.9999,0.62 -8.2199,0.24 -12.5199,-0.95 -4.55,-1.48 -8.39,-3.77 -11.31,-6.86 -6.46,-6.84 -9.31,-16.95 -7.65,-26.76 2.1,-12.41 10.35,-24.22 23.69,-26.66 z"
     id="path724"
     style="stroke:none;stroke-width:0.2" /><path
     d="m 900.32794,5145.804 c -0.164,-1.92 1.26699,-3.62 3.19499,-3.79 1.92699,-0.16 3.62599,1.27 3.78999,3.2 0,0 4.27099,32.36 8.61598,68.2999 1.17299,9.7 2.31799,19.65 3.38799,29.3 1.293,11.66 2.51399,22.85 3.45799,32.58 1.049,10.81 1.827,19.81 2.30699,25.6 9.94698,0.31 28.99593,0.95 49.72188,1.86 39.67495,1.73 85.40475,4.34 85.40475,4.34 1.94,0.03 3.48,1.62 3.46,3.56 -0.03,1.93 -1.62,3.48 -3.56,3.45 0,0 -45.7798,1.33 -85.49175,1.95 -30.28892,0.47 -56.98486,0.48 -56.98486,0.48 -4.07599,-0.06 -7.44398,-3.2 -7.79098,-7.26 0,0 -1.28499,-13.44 -2.69899,-32.64 -0.718,-9.76 -1.41,-20.99 -2.111,-32.7 -0.57999,-9.69 -1.13599,-19.69 -1.62399,-29.45 -1.806,-36.1599 -3.07899,-68.7799 -3.07899,-68.7799 z"
     id="path726"
     style="stroke:none;stroke-width:0.2" /><path
     d="m 1428.2276,5143.044 c 0.02,-1.93 1.61,-3.48 3.55,-3.46 1.93,0.02 3.48,1.61 3.46,3.54 0,0 1.17,32.07 2.04,67.6499 0.24,9.6 0.42,19.44 0.55,28.98 0.16,11.53 0.3,22.59 0.29,32.21 -0.02,18.92 -0.37,32.19 -0.37,32.19 -0.05,4.31 -3.55,7.78 -7.86,7.8 0,0 -25.0999,-0.32 -53.5798,-1.11 -37.33,-1.04 -80.3698,-2.81 -80.3698,-2.81 -1.94,0.01 -3.51,-1.56 -3.52,-3.49 -0.01,-1.94 1.56,-3.51 3.49,-3.52 0,0 43.0298,-2.07 80.3598,-3.37 18.7999,-0.65 36.1299,-1.08 45.7298,-1.31 0.04,-5.72 0.13,-14.31 0.36,-24.56 0.21,-9.61 0.6,-20.67 1.03,-32.19 0.36,-9.54 0.77,-19.37 1.23,-28.97 1.7,-35.5499 3.61,-67.5799 3.61,-67.5799 z"
     id="path728"
     style="stroke:none;stroke-width:0.2" /><path
     d="m 971.12176,5199.6639 c 1.901,-0.36 3.73599,0.89 4.09499,2.79 0.359,1.9 -0.893,3.74 -2.79399,4.1 -7.86598,2.3 -11.06498,8.06 -11.40197,14.2 -0.257,4.67 1.63899,9.43 4.46698,13.33 2.404,3.31 5.83499,5.83 10.12198,6.17 4.22799,0.64 8.81598,-0.48 12.80897,-2.83 2.75999,-1.63 5.38998,-3.6 7.34998,-6.19 4.65,-6.14 6.5,-14.55 1.78,-24.24 -1,-1.65 -0.47,-3.81 1.17999,-4.81 1.66001,-1 3.81001,-0.47 4.81001,1.19 9.16,12.42 8.12,24.94 2.93,34.67 -4.31,8.09 -12.13,14 -20.39298,16.74 -4.00799,1.33 -8.18898,1.67 -12.20797,1.35 -6.12198,-0.8 -11.54397,-3.37 -15.68596,-7.44 -5.71198,-5.61 -9.40697,-13.64 -9.70097,-21.69 -0.468,-12.83 5.97798,-25.82 22.64094,-27.34 z"
     id="path730"
     style="stroke:none;stroke-width:0.2" /><path
     d="m 1143.4283,5326.3439 c 0.98,1.67 0.43,3.82 -1.24,4.81 -1.66,0.98 -3.81,0.43 -4.8,-1.23 -11.2099,-17.34 -19.0099,-46.19 -17.7299,-72.41 0.95,-19.47 7.24,-37.29 19.3799,-48.78 6.36,-5.87 14.87,-10.21 24.25,-12.33 8.58,-1.9299 17.8899,-2.0299 26.7499,0.1 16.37,3.93 31.3699,15.12 38.0199,35.56 4.7,14.99 6.44,32.95 5.16,49.88 -1.46,19.28 -6.65,37.13 -14.84,47.67 -1.1299,1.58 -3.3199,1.94 -4.8999,0.81 -1.57,-1.13 -1.93,-3.32 -0.8,-4.89 6.6499,-10.07 9.7599,-26.55 9.8399,-44.02 0.08,-15.41 -2.37,-31.59 -7.4999,-44.89 -5.45,-14.58 -16.57,-22.13 -28.49,-24.69 -6.6,-1.43 -13.4499,-1.33 -19.8299,0.03 -6.66,1.42 -12.84,4.1 -17.45,8.13 -6.38,5.47 -10.67,13.19 -13.4399,22 -2.71,8.6 -4.06,18.17 -4.23,27.91 -0.37,20.79 4.23,42.22 11.8499,56.34 z"
     id="path732"
     style="stroke:none;stroke-width:0.2" /><path
     d="m 1132.2684,5434.6239 c -1.93,0.11 -3.58,-1.37 -3.69,-3.3 -0.11,-1.94 1.37,-3.59 3.3,-3.7 9.3999,-1.09 24.4199,-6.05 29.3299,-13.27 1.18,-1.72 0.42,-3.49 -1.64,-5.58 -3.06,-3.1 -8.48,-6.15 -16.8,-9.48 -4.9,-2.08 -14.7699,-4.46 -25.0899,-7.98 -9.19,-3.14 -18.71,-7.08 -25.9899,-11.55 -12.19,-7.48 -18.09,-17.09 -14.14,-26.63 3.8,-8.91 11.65,-15.26 21.3999,-19.34 12.51,-5.24 27.71,-7.06 36.98,-9.08 1.8699,-0.52 3.7999,0.58 4.3199,2.44 0.51,1.86 -0.58,3.8 -2.44,4.31 -8.5499,2.9 -22.6999,6.22 -34.0199,12.39 -6.27,3.42 -11.5999,7.76 -13.5899,13.99 -0.46,1.41 0.59,2.45 1.66,3.6 1.78,1.92 4.43,3.54 7.4399,5.19 6.7,3.68 15.38,6.73 23.59,9.6 10.8,3.78 20.8799,7.2 25.9299,9.6 10.34,5.17 16.81,9.94 20.37,14.3 6.76,8.26 5.99,15.36 1.06,21.14 -3.19,3.74 -8.51,7.04 -14.77,9.25 -7.72,2.71 -16.64,4.13 -23.2099,4.1 z"
     id="path734"
     style="stroke:none;stroke-width:0.2" /><path
     d="m 1212.9882,5325.1539 c 1.34,-1.4 3.56,-1.45 4.9599,-0.11 1.4,1.34 1.45,3.56 0.11,4.95 -4.0699,5.05 -5.1899,11.53 -2.2699,17.34 2.2599,4.49 7.2199,8.13 14.9999,10.82 5.61,2.11 11.35,4.16 16.95,6.49 3.8,1.59 7.55,3.26 11.1599,5.1 9.98,5.1 19.1,10.89 26.32,17.33 12.58,11.22 19.7399,24.18 16.4299,39.69 -0.25,1.92 -2.02,3.27 -3.9399,3.01 -1.91,-0.26 -3.26,-2.02 -3.01,-3.94 0.51,-9.34 -3.81,-16.54 -10.49,-22.84 -7.06,-6.65 -17.02,-11.78 -27.8599,-16.88 -4.04,-1.9 -8.19,-3.81 -12.36,-5.76 -6.29,-2.95 -12.57,-6.07 -18.8,-8.99 -11.0799,-5.63 -17.3199,-12.61 -19.6499,-19.83 -3.13,-9.71 -0.17,-19.67 7.45,-26.38 z"
     id="path736"
     style="stroke:none;stroke-width:0.2" /><path
     d="m 1021.4986,5147.154 30.38,0.42 c 1.84,62.3999 4.03,136.2699 8.2799,163.1299 0.82,5.13 1.7,8.55 2.68,9.84 0.4,0.53 1.12,1.03 2.12,1.5 l -39.3999,-11.83 z"
     id="path738"
     style="stroke:none;stroke-width:0.2" /><path
     d="m 917.74289,5308.7039 c -10.62097,-8.58 -46.40188,-31.42 -51.49887,-45.36 -5.09699,-13.94 34.05192,-25.46 45.17689,-28.75 z"
     id="path740"
     style="stroke:none;stroke-width:0.2" /><path
     d="m 1354.3878,5203.6839 c 1.92,-0.26 3.69,1.08 3.95,3 0.26,1.91 -1.08,3.68 -3,3.94 -8.88,2.24 -13.11,9.45 -12.08,16.54 0.43,2.99 2.29,5.68 5.01,8.19 2.44,2.25 5.66,4.29 9.93,5.69 5.42,2.22 10.32,0.84 13.65,-2.38 4.38,-4.25 7.1299,-10.45 4.9,-15.51 -0.97,-1.68 -0.4,-3.82 1.27,-4.79 1.6699,-0.97 3.8199,-0.4 4.7899,1.27 5.43,7.36 3.98,18.6 -1.84,26.84 -5.6099,7.95 -15.5599,12.23 -27.5399,9.37 -5.36,-1.65 -9.83,-3.85 -13.25,-6.63 -7.4199,-6.04 -10.7799,-13.88 -10.6499,-21.26 0.05,-2.8 0.41,-5.54 1.42,-8.11 3.4,-8.62 11.4199,-15.92 23.4399,-16.16 z"
     id="path742"
     style="stroke:none;stroke-width:0.2" /><path
     style="fill:#000000;stroke:none;stroke-width:0.2;stroke-linecap:round;stroke-linejoin:round"
     d="m 1137.0182,5319.1348 c 0,0 -13.3938,-31.009 -9.7534,-51.3504 3.6404,-20.3414 11.8265,-70.5164 36.7803,-66.4395 24.9537,4.0768 44.7163,1.6639 53.8401,21.9771 9.1239,20.3133 10.164,61.5586 10.164,67.0828 0,5.5243 -9.3263,36.2315 -9.3263,36.2315 l -78.3083,-0.4044 z"
     id="path85" /></g></svg>
