<?xml version="1.0" encoding="UTF-8" standalone="no"?>
<svg
   width="3295.9653"
   height="2719.6187"
   viewBox="0 0 3295.9654 2719.6187"
   version="1.1"
   xml:space="preserve"
   style="clip-rule:evenodd;fill-rule:evenodd;stroke-linejoin:round;stroke-miterlimit:2"
   id="svg5353"
   xmlns="http://www.w3.org/2000/svg"
   xmlns:svg="http://www.w3.org/2000/svg"><defs
   id="defs5353" />&#10;    <g
   id="vectorly-UNI-humberger"
   style="stroke:none;stroke-width:0.2"
   transform="matrix(4.9999999,0,0,4.9999999,-4233.6279,-8262.4271)"><path
     style="fill:#000000;stroke:none;stroke-width:0.2;stroke-linecap:round;stroke-linejoin:round"
     d="m 973.19024,2009.0255 c 0,0 -5.06147,18.6777 5.23511,40.0064 10.29659,21.3286 7.73627,31.7515 49.61845,36.3476 41.8821,4.5961 171.1538,15.4951 199.9885,14.7597 28.8347,-0.7355 90.0862,-11.226 121.1781,-20.423 31.0919,-9.197 37.4216,-38.1712 37.4216,-38.1712 0,0 -10.4236,-10.579 -31.8068,-9.7933 -21.3832,0.7856 -33.2209,-10.0498 -33.2209,-10.0498 0,0 -15.8781,15.6746 -36.1875,14.1929 -20.3095,-1.4817 -53.561,-22.971 -53.561,-22.971 0,0 -24.0403,24.4236 -61.3938,28.101 -37.3535,3.6773 -66.9224,-5.0817 -71.6826,-10.0127 -4.7603,-4.931 -22.0191,-32.4823 -25.6795,-32.9809 -3.6603,-0.4986 -28.5279,-4.5555 -28.5279,-4.5555 0,0 -32.7724,-4.0531 -37.3445,-4.0531 -4.5721,0 -31.48672,0.7264 -31.48672,0.7264 z"
     id="path59" /><path
     d="m 1391.0977,1887.8453 c -0.95,1.69 -3.1,2.28 -4.78,1.33 -1.68,-0.95 -2.28,-3.09 -1.33,-4.77 18.97,-34.69 7.7,-63.12 -18.2599,-83.83 -33.1999,-26.4899 -89.6398,-40.6599 -138.9597,-39.6199 -73.0698,1.23 -127.4897,14.43 -166.7496,31.9499 -48.1598,21.5 -73.02978,49.43 -80.00176,70.52 -7.04799,20.92 -4.39399,34.77 10.52197,43.59 16.25999,9.61 44.12989,14.03 84.22979,16.17 73.8698,4.14 128.2997,3.81 168.3296,1.36 91.9798,-5.62 106.2897,-22.17 106.2897,-22.17 1.2,-1.52 3.41,-1.77 4.92,-0.57 1.52,1.2 1.77,3.41 0.57,4.92 0,0 -11.37,15.57 -82.8398,24.66 -41.6599,5.3 -104.2397,8.47 -197.8795,5.27 -43.3499,-1.61 -73.4298,-6.59 -91.14177,-16.72 -9.55298,-5.46 -15.84696,-12.44 -19.27995,-20.94 -4.27299,-10.58 -3.99499,-23.88 1.37899,-40.49 7.78398,-23.6 34.46293,-56.33 88.53283,-80.0199 40.7499,-17.85 97.3597,-30.59 172.9895,-30.76 51.9499,0.1 111.0097,16.54 145.2597,45.3099 28.6199,24.04 40.5899,56.38 18.1999,94.81 z"
     id="path238"
     style="stroke:none;stroke-width:0.2" /><path
     d="m 921.28688,1936.4953 c 0.271,0.03 0.563,0.05 0.814,0.04 15.05096,-0.54 24.97094,0.71 31.81792,2.68 10.25598,2.95 14.25297,7.56 17.59996,11.37 1.672,1.9 2.93299,3.61 6.36998,3.75 5.49499,0.23 10.44998,-0.92 15.15997,-1.48 4.42999,-0.53 8.67999,-0.6 12.89999,0.5 5.66,1.48 11.3799,5.05 17.2499,13.14 8.71,12 19.35,18.99 31.39,20.25 11.2899,1.17 23.6099,-2.73 36.5399,-11.53 8.5299,-5.79 16.5799,-6.66 23.8299,-5.51 5.94,0.94 11.33,3.43 15.93,5.79 1.7,0.87 3.85,1.87 5.31,2.53 4.1099,-4.59 11.1099,-9.45 18.9299,-12.41 9.02,-3.42 18.95,-4.12 26.6999,-0.54 9.41,4.39 30.36,6.83 50.3799,7 13.53,0.12 26.6699,-0.82 35.5799,-3.4 1.81,-0.52 3.42,-1.09 4.76,-1.77 0.62,-0.32 1.43,-0.9 1.8,-1.18 0.32,-7.42 3.21,-10.06 6.79,-11.55 1.75,-0.73 4.24,-1.09 7.79,-1.09 3.7,0 9.3499,0.14 17.8499,-1.75 8.46,-1.85 18.3,-0.2 29.97,3.23 15.4199,4.54 34.6199,12 59.3498,14.75 11.1,1.23 23.3199,1.54 36.8399,0.16 7.22,-0.74 12.01,-1.6 15.02,-2.79 0.36,-0.14 0.76,-0.34 1.08,-0.51 -0.12,-0.27 -0.27,-0.57 -0.41,-0.81 -0.65,-1.15 -1.48,-2.36 -2.38,-3.65 -3.02,-4.36 -6.4,-9.43 -7.3,-15.05 -0.55,-3.38 -0.28,-6.5 0.54,-9.38 1.54,-5.39 5.08,-9.92 7.78,-13.9 0.69,-1.01 1.32,-1.96 1.72,-2.91 0.19,-0.42 0.44,-0.79 0.35,-1.19 -0.15,-0.63 -0.72,-1.12 -1.56,-1.75 -5.8,-4.29 -18.33,-8.49 -31.5999,-10.63 -11.96,-1.93 -24.55,-2.23 -33.53,0.93 -1.82,0.67 -3.84,-0.25 -4.5099,-2.06 -0.68,-1.82 0.25,-3.84 2.0599,-4.51 9.85,-3.85 23.81,-4.19 37.15,-2.5 15.0299,1.91 29.1999,6.49 35.8999,11.1 4.52,3.12 5.77,6.52 5.73,9.81 -0.03,3.2 -1.82,6.68 -4.29,10.41 -2.67,4.05 -6.56,8.65 -5.39,14.76 0.95,4.92 4.81,8.98 7.34,12.55 2.55,3.6 3.9799,7.03 3.8999,9.91 -0.08,2.99 -1.3899,5.9 -5.1999,8.39 -3.31,2.15 -9.72,4.16 -21.02,5.64 -19.9399,2.6 -37.3399,1.7 -52.5899,-0.68 -17.8799,-2.78 -32.7599,-7.64 -45.3098,-11.21 -10.49,-2.99 -19.05,-5.28 -26.29,-3.54 -8.25,1.96 -14.2599,2.29 -18.5899,2.38 -0.62,0.01 -1.29,0.03 -1.94,0.04 -0.45,3.65 -2.4,7 -5.96,9.83 -5.32,4.22 -15.9,7.38 -28.8799,8.78 -27.18,2.94 -65.2899,-0.81 -79.6398,-7.52 -4.21,-1.99 -9.61,-0.95 -14.55,0.85 -5.9,2.14 -11.36,5.56 -13.68,8.85 -3.03,4.28 -7.01,5.67 -12.1799,4.53 -3.45,-0.76 -8.12,-3.57 -13.61,-6.27 -5.93,-2.92 -13.45,-5.68 -21.96,-0.13 -16.3899,10.64 -32.0299,14.69 -46.0998,12.9 -15.42,-1.97 -29.18,-10.8 -39.9799,-26.48 -3.53,-5.14 -6.77,-7.77 -10.27,-8.78 -3.56001,-1.02 -7.2,-0.59 -11.04999,-0.15 -4.53499,0.53 -9.30898,1.17 -14.46696,0.81 -5.80699,-0.4 -8.98898,-2.45 -11.74098,-5.3 -3.04799,-3.16 -5.09598,-8.1 -14.61396,-11.14 -6.11898,-1.96 -15.03896,-3.22 -28.61693,-3.13 -5.19999,0.03 -8.38898,-2.11 -9.73997,-4.86 -1.44,-2.93 -1.207,-7.86 3.68899,-13.44 6.96998,-7.94 24.48094,-19.27 57.13686,-29.63 1.83399,-0.61 3.82199,0.38 4.43598,2.21 0.614,1.84 -0.37699,3.82 -2.21199,4.44 -14.94496,5.27 -26.49093,10.6 -35.14891,15.56 -8.63298,4.95 -14.26697,9.48 -17.37096,13.24 -0.81,0.98 -1.436,2.2 -1.803,3 z"
     id="path240"
     style="stroke:none;stroke-width:0.2" /><path
     d="m 1245.2881,1979.7453 c -0.12,-1.93 1.36,-3.59 3.29,-3.7 1.93,-0.11 3.59,1.36 3.7,3.29 1.95,17.35 -11.98,34.54 -33.68,47.3199 -7.9999,4.71 -17.0799,8.76 -26.7199,11.95 -9.15,3.03 -18.7899,5.32 -28.4899,6.52 -12.01,1.48 -24.09,1.39 -35.3099,-0.34 -30.69,-4.73 -55.2999,-21.0499 -58.2499,-52.6299 -0.27,-1.91 1.06,-3.69 2.97,-3.96 1.92,-0.27 3.7,1.06 3.97,2.98 3.54,18.15 15.3,28.96 30.7999,34.6499 9.75,3.57 20.96,4.95 32.6999,4.95 8.3,0 16.83,-0.83 25.32,-2.1 12.8899,-1.92 25.6499,-5.0599 37.1199,-9.4499 13.12,-5.03 24.5899,-11.29 32.3299,-18.96 6.26,-6.2 10.24,-13.01 10.25,-20.52 z"
     id="path242"
     style="stroke:none;stroke-width:0.2" /><path
     d="m 913.8799,1998.0053 c 5.35899,-1.82 12.57497,-4.58 21.84695,-7.12 9.53397,-2.62 21.17695,-5.07 34.96591,-6.47 19.87595,-2.01 44.15594,-1.73 73.13584,3.02 1.92,0.22 3.3,1.96 3.09,3.88 -0.23,1.92 -1.96,3.31 -3.88,3.09 -13.97,-0.84 -26.68,-0.63 -38.3099,0.09 -14.20999,0.88 -26.66496,2.75 -37.57793,4.92 -9.26298,1.85 -17.34496,4.01 -24.37894,6.01 -10.47797,2.98 -18.60695,5.74 -24.43394,7.51 -5.38399,1.63 -9.34498,2.32 -11.82597,2.1 -3.58699,-0.33 -6.00398,-1.77 -7.53898,-3.94 -1.269,-1.79 -2.36199,-4.35 -1.83,-8.08 0.916,-6.24 5.71299,-14.92 13.15197,-23.65 12.48597,-14.65 31.46892,-30.4 41.4329,-37.47 1.514,-1.2 3.72099,-0.95 4.92499,0.56 1.20399,1.52 0.95199,3.73 -0.562,4.93 -7.57698,6.75 -20.72395,20.53 -31.06492,33.89 -4.64399,6 -8.79598,11.79 -11.14598,16.73 z m -1.99899,6.53 c -10e-4,0.02 -0.003,0.04 -0.004,0.06 0.001,-0.02 0.003,-0.04 0.004,-0.06 z"
     id="path244"
     style="stroke:none;stroke-width:0.2" /><path
     d="m 1412.3277,1975.9453 c 0.36,-1.89 2.19,-3.15 4.1,-2.79 1.9,0.37 3.1499,2.2 2.7899,4.1 -1.1099,7.99 0.03,15.55 4.09,22.5 3.39,5.82 8.94,11.05 16.94,15.81 9.26,5.54 10.24,16.0299 5.21,25.5799 -5.04,9.59 -16.92,17.71 -31.2099,16.79 -7.24,-0.55 -13.7,-3.58 -20.18,-7.68 -6.62,-4.18 -13.3,-9.6 -21.8999,-13.02 -6.83,-2.71 -14.93,-4.2 -25.5,-2.38 -12.7899,2.06 -22.6199,-2.35 -30.8299,-10.43 -7.35,-7.2299 -13.39,-17.4099 -19.6999,-26.8699 -5.99,-8.98 -12.08,-17.38 -20.71,-20.65 -1.83,-0.6 -2.84,-2.59 -2.23,-4.42 0.6,-1.84 2.58,-2.84 4.42,-2.24 10.37,2.9 18.66,11.63 26.5199,21.47 6.59,8.25 12.84,17.27 20.15,23.46 5.51,4.66 11.7,7.38 19.6099,5.55 13.9,-3.06 24.78,-1.6 33.92,1.77 8.1999,3.0299 14.9399,7.6999 21.2299,12.0399 5.54,3.82 10.49,7.64 16.62,8.32 6.5399,0.81 12.3299,-1.82 15.9899,-5.66 3.63,-3.8 6.11,-8.85 2.1,-11.71 -9.3,-6.6799 -15.4599,-13.7799 -18.9499,-21.2799 -4.21,-9.05 -4.83,-18.53 -2.48,-28.26 z"
     id="path246"
     style="stroke:none;stroke-width:0.2" /><path
     d="m 1382.0977,2032.6852 c 0.2,-1.92 1.93,-3.32 3.85,-3.12 1.93,0.2 3.33,1.93 3.12,3.85 -2.22,28.31 -21.2299,45.24 -48.7399,55.4 -30.3499,11.2 -71.4098,13.8 -110.6397,15.35 -15.0499,0.43 -29.3499,0.85 -42.9299,0.98 -15.2399,0.16 -29.5799,0.06 -43.0299,-0.26 -18.9699,-0.47 -36.1899,-1.42 -51.7498,-2.82 -32.77,-2.95 -58.2299,-7.96 -77.1198,-15.73 -35.59196,-14.63 -49.12493,-38.57 -44.40194,-77.6999 0.185,-1.92 1.899,-3.33 3.82499,-3.15 1.925,0.19 3.33799,1.9 3.153,3.82 -2.465,34.3899 9.89697,54.8999 41.55385,66.3299 18.31,6.62 42.7399,10.22 74.0599,12.03 15.3299,0.89 32.2899,1.29 50.9498,1.48 13.34,0.13 27.55,0.13 42.6499,0.08 13.52,-0.03 27.76,-0.03 42.7399,-0.19 37.9399,-0.01 77.6298,-0.98 107.4198,-10.46 24.4199,-7.78 42.0598,-21.29 45.2898,-45.89 z"
     id="path248"
     style="stroke:none;stroke-width:0.2" /><path
     d="m 1226.7081,2014.1153 c -1.14,-1.56 -0.8,-3.75 0.76,-4.9 1.56,-1.14 3.75,-0.8 4.9,0.76 2.5,2.63 6.26,4.75 10.71,6.86 5.39,2.57 11.86,4.37 18.8199,5.82 3.48,0.73 7.06,1.25 10.7,1.7299 3.53,0.48 7.08,0.91 10.65,1.07 5.97,0.26 11.89,0.13 17.6199,-1.28 5.78,-1.4199 11.32,-3.5099 16.3,-7.3099 1.39,-1.35 3.61,-1.32 4.95,0.07 1.35,1.39 1.32,3.61 -0.07,4.96 -5.06,6.2199 -11.31,10.5999 -18.25,13.7799 -4.7,2.15 -9.6899,3.53 -14.8399,4.35 -5.4,0.86 -10.95,1.01 -16.4,0.46 -2.89,-0.29 -5.75,-0.86 -8.53,-1.58 -4.28,-1.11 -8.3999,-2.5 -12.2099,-4.29 -11.87,-5.55 -20.98,-13.2199 -25.11,-20.4999 z"
     id="path250"
     style="stroke:none;stroke-width:0.2" /><path
     d="m 940.47584,2097.2452 c 5.36498,0.89 17.60295,0.38 32.82292,2.09 14.22296,1.59 33.13994,3.89 57.96984,7.92 11.49,1.87 24.21,4.24 38.3499,6.91 15.69,3.25 30.3699,5.33 44.1699,6.48 15.88,1.33 30.5799,1.38 44.3699,0.16 32.1299,-2.87 59.1999,-12.42 83.8098,-27.49 1.62,-1.05 3.79,-0.6 4.85,1.02 1.06,1.62 0.61,3.79 -1.01,4.85 -24.88,17.34 -52.6599,29.2 -86.2198,34 -14.45,2.07 -29.9499,2.8 -46.7399,2.04 -14.43,-0.66 -29.7799,-2.52 -46.2299,-5.44 -24.3299,-4.85 -44.5099,-8.35 -61.1198,-11.26 -32.05495,-5.62 -50.9789,-8.32 -61.46887,-10.13 -7.85598,-1.36 -11.86697,-2.86 -13.46397,-4.28 -2.91399,-2.58 -3.76099,-5.46 -1.69299,-9.36 2.63799,-4.96 13.36496,-14.78 25.54393,-23.29 10.62198,-7.42 22.16695,-13.98 29.47193,-15.9 1.85399,-0.55 3.80999,0.5 4.35999,2.35 0.56,1.86 -0.5,3.81 -2.35,4.37 -6.58098,2.22 -16.65295,9.12 -25.95393,16.57 -8.29698,6.64 -15.99896,13.69 -19.46895,18.39 z m -1.524,-0.36 c -0.082,-0.18 -0.177,-0.35 -0.28,-0.51 -0.219,-0.36 -0.776,-1.93 -1.04,-1.24 -0.317,0.82 0.161,1.37 1.32,1.75 z"
     id="path252"
     style="stroke:none;stroke-width:0.2" /><path
     d="m 1449.1876,2086.8252 c 0.91,-3.03 0.21,-10.72 -1.4,-16.07 -1.5,-4.98 -4.01,-10.25 -8.24,-15.16 -1.38,-1.36 -1.38,-3.58 -0.02,-4.96 1.36,-1.37 3.58,-1.38 4.95,-0.02 11.86,10.13 16.1899,23.16 16.5499,32.55 0.31,8.01 -3.1299,13.64 -6.5399,15.95 -2.28,1.54 -4.95,1.84 -7.84,1.3 -4.67,-0.96 -13.37,-1.82 -23.99,-3.02 -5.0899,-0.58 -10.6099,-1.23 -16.3299,-1.95 -5.33,-0.67 -10.82,-1.46 -16.33,-2.18 -8.35,-1.1 -16.6899,-2.17 -24.4999,-2.98 -15.08,-1.55 -27.8899,-2.44 -34.0299,-0.73 -1.82,0.65 -3.83,-0.3 -4.48,-2.13 -0.64,-1.82 0.31,-3.83 2.13,-4.47 5.59,-2.45 16.9599,-3.94 30.8199,-4.49 9.31,-0.37 19.6999,-0.33 30.1399,0.08 6.07,0.24 12.14,0.61 17.98,1.15 4.12,0.37 8.13,0.82 11.9399,1.37 12.81,1.84 23.44,4.17 29.19,5.76 z m 0.71,0.2 c 0.02,0 0.04,0.01 0.05,0.01 -0.01,0 -0.03,-0.01 -0.05,-0.01 z m -0.74,-0.07 c -1.1,0.01 -2.49,0.4 -1.75,0.91 0.83,0.57 1.4,0.15 1.75,-0.91 z"
     id="path254"
     style="stroke:none;stroke-width:0.2" /><path
     d="m 1406.6077,2106.8252 c -0.09,-1.93 1.41,-3.57 3.34,-3.66 1.94,-0.08 3.58,1.41 3.66,3.35 1.33,19.01 0.36,33.28 -5.06,44.24 -5.95,12.03 -17.21,20.32 -37.2299,26.19 -16.3,4.7 -57.2699,11.87 -108.9498,16.09 -22.6999,1.85 -47.4598,3.15 -73.0698,3.35 -23.9999,0.18 -48.7399,-0.65 -73.1898,-2.56 -38.1399,-2.98 -75.5598,-8.8 -108.5797,-18.02 -13.29,-3.77 -21.07198,-11.94 -25.44297,-21.78 -7.19698,-16.21 -4.75098,-37.05 -4.46199,-46.79 0.012,-1.93 1.592,-3.49 3.526,-3.48 1.93499,0.01 3.49599,1.59 3.48299,3.52 0.155,8.97 -1.565,28.26 5.72598,42.85 3.61999,7.24 9.68999,13.15 19.79999,15.53 22.0999,5.27 46.1298,8.77 70.9498,11.11 23.5899,2.23 47.8899,3.3 71.9598,3.65 14.59,0.2 29.0899,0.12 43.2999,-0.1 14.84,-0.24 29.3599,-0.64 43.3099,-1.24 23.6799,-1 45.7099,-2.5 64.8698,-4.24 29.86,-2.71 52.7099,-5.88 63.8899,-8.64 16.7199,-4.08 26.6099,-10.02 31.9899,-19.71 5.36,-9.62 6.51,-22.48 6.18,-39.66 z"
     id="path256"
     style="stroke:none;stroke-width:0.2" /><path
     d="m 1457.4276,1841.6053 c -0.13,1.32 -1.31,2.29 -2.63,2.16 -1.33,-0.13 -2.29,-1.31 -2.16,-2.64 -0.44,-2.69 0.58,-5.42 2.19,-8.45 0.55,-1.04 1.3,-1.93 2.1,-2.9 0.98,-1.18 2.17,-2.18 3.4699,-3.14 0.82,-0.61 1.71,-1.15 2.67,-1.57 1.79,-0.78 3.69,-1.3 5.63,-1.49 1.42,-0.14 2.77,-0.22 4.15,-0.04 3.42,0.46 6.48,1.29 9.04,3.42 1.2,0.58 1.7,2.02 1.12,3.22 -0.58,1.19 -2.02,1.7 -3.22,1.12 -2.56,-0.56 -4.93,0.46 -7.52,1.42 -1.38,0.52 -2.61,1.33 -3.95,2.01 -0.66,0.34 -1.34,0.63 -2,0.94 -0.68,0.33 -1.37,0.59 -2.03,0.92 -2.07,1.03 -4,1.78 -5.2699,3.18 -0.6,0.67 -1.29,1.09 -1.59,1.84 z"
     id="path258"
     style="stroke:none;stroke-width:0.2" /><path
     d="m 1486.4775,1773.9854 c -1.14,-0.69 -1.49,-2.18 -0.79,-3.31 0.7,-1.13 2.18,-1.49 3.31,-0.79 0,0 2.53,0.14 6.4,1.29 0.78,0.23 1.53,0.54 2.33,0.94 0.48,0.24 0.98,0.49 1.42,0.84 1.0999,0.9 2.0099,1.98 2.8399,3.13 1.56,2.19 2.51,4.0499 3.28,5.9699 0.91,0.97 0.86,2.5 -0.11,3.41 -0.98,0.91 -2.5,0.85 -3.41,-0.12 -1.38,-0.64 -2.8199,-0.89 -4.6399,-1.54 -0.78,-0.29 -1.5,-0.5 -2.28,-0.85 -0.73,-0.33 -1.47,-0.61 -2.11,-1.08 -1.1,-0.8 -1.94,-1.79 -2.72,-2.7299 -2.48,-2.96 -3.52,-5.16 -3.52,-5.16 z"
     id="path260"
     style="stroke:none;stroke-width:0.2" /><path
     d="m 1107.2984,1658.5654 c 0.98,-0.9 2.5,-0.84 3.4,0.14 0.9,0.98 0.84,2.5 -0.14,3.41 0,0 -0.92,2.7 -2.81,6.58 -0.61,1.24 -1.19,2.6 -2.05,3.89 -0.59,0.87 -1.37,1.58 -2.06,2.4 -0.47,0.57 -0.98,1 -1.45,1.56 -1.25,1.48 -2.51,2.59 -3.24,4.24 -0.13,1.33 -1.31,2.29 -2.6299,2.16 -1.32,-0.13 -2.29,-1.31 -2.16,-2.63 -0.53,-2.38 -0.34,-4.59 0,-7.17 0.13,-1.02 0.4,-1.93 0.71,-2.92 0.42,-1.34 0.98,-2.6 1.6999,-3.77 0.39,-0.62 0.86,-1.17 1.35,-1.69 0.78,-0.82 1.54,-1.54 2.37,-2.16 0.96,-0.74 1.79,-1.3 2.67,-1.8 2.69,-1.56 4.34,-2.24 4.34,-2.24 z"
     id="path262"
     style="stroke:none;stroke-width:0.2" /><path
     d="m 1058.9785,1654.6754 c 0.12,-1.32 1.3,-2.3 2.62,-2.18 1.33,0.13 2.3,1.3 2.18,2.63 0,0 1.22,1.61 2.87,4.3 0.44,0.73 1.13,1.33 1.61,2.18 0.3,0.53 0.33,1.17 0.64,1.75 0.33,0.64 0.35,1.34 0.8,2 0.65,0.95 0.96,1.91 1.95,2.83 1.25,0.46 1.88,1.85 1.42,3.1 -0.46,1.24 -1.85,1.88 -3.1,1.42 -2.47,0.07 -4.13,-0.56 -6.06,-1.24 -0.97,-0.34 -1.66,-0.9 -2.45,-1.45 -1.19,-0.81 -2.06,-1.87 -2.77,-3 -0.39,-0.62 -0.66,-1.29 -0.83,-1.97 -0.28,-1.08 -0.52,-2.06 -0.5,-3.07 0.03,-1.16 0.02,-2.06 0.25,-3.02 0.7,-2.81 1.37,-4.28 1.37,-4.28 z"
     id="path264"
     style="stroke:none;stroke-width:0.2" /><path
     d="m 1076.9185,1703.8954 c 0.48,-1.25 1.87,-1.87 3.11,-1.39 1.25,0.47 1.87,1.87 1.39,3.11 0,0 0.5,2.51 0.87,6.61 0.11,1.24 0.36,2.57 0.33,4.03 -0.02,0.96 -0.3,1.9 -0.41,2.92 -0.08,0.68 -0.28,1.29 -0.36,1.99 -0.23,1.82 -0.64,3.39 -0.47,5.34 0.53,1.21 -0.02,2.64 -1.24,3.17 -1.22,0.53 -2.64,-0.03 -3.18,-1.24 -1.65,-1.82 -2.64,-3.59 -3.69,-5.65 -0.46,-0.91 -0.73,-1.79 -1.01,-2.73 -0.41,-1.36 -0.61,-2.71 -0.63,-4.04 -0.01,-0.74 0.09,-1.45 0.23,-2.14 0.24,-1.12 0.5,-2.13 0.9,-3.08 0.47,-1.12 0.88,-2.02 1.4,-2.88 1.64,-2.7 2.76,-4.02 2.76,-4.02 z"
     id="path266"
     style="stroke:none;stroke-width:0.2" /><path
     d="m 1038.3386,1699.7354 c -0.76,1.09 -2.27,1.35 -3.36,0.59 -1.08,-0.77 -1.35,-2.27 -0.58,-3.36 0,0 0.69,-1.68 2.95,-4.06 0.99,-1.05 2.36,-1.72 4.19,-2.53 1.08,-0.48 2.31,-0.65 3.74,-0.79 0.76,-0.08 1.59,-0.08 2.44,0.07 1.3,0.23 2.68,0.66 4.09,1.44 1.07,0.59 2.11,1.2 3.19,2.13 1.3499,1.16 2.5299,2.27 3.9199,3.89 1.15,0.67 1.53,2.15 0.86,3.3 -0.67,1.15 -2.14,1.54 -3.29,0.87 -2.0799,-0.42 -3.6899,-0.37 -5.3799,-0.57 -1.79,-0.21 -3.24,0 -4.58,-0.14 -0.95,-0.1 -1.73,-0.4 -2.48,-0.48 -1,-0.12 -1.7,-0.56 -2.45,-0.52 -2.13,0.12 -3.26,0.16 -3.26,0.16 z"
     id="path268"
     style="stroke:none;stroke-width:0.2" /><path
     d="m 941.08984,1812.4753 c -0.559,-1.21 -0.033,-2.64 1.17399,-3.2 1.207,-0.56 2.641,-0.03 3.19899,1.17 3.101,4.45 4.18399,8.36 4.46599,11.71 0.113,1.34 -0.105,2.56 -0.321,3.73 -0.60399,3.25 -2.46299,5.66 -4.59398,7.48 -1.963,1.68 -4.43699,2.65 -6.94899,2.91 -2.49299,0.26 -5.07798,-0.15 -7.31598,-1.3 -1.77099,-0.91 -3.45499,-2.06 -4.67199,-3.75 -0.878,-1.22 -1.74599,-2.51 -2.16199,-4.11 -0.981,-3.76 -0.934,-8.67 2.60099,-14.56 0.491,-1.24 1.893,-1.85 3.12899,-1.36 1.236,0.5 1.841,1.9 1.351,3.13 -0.514,2.44 -0.391,4.44 -0.203,6.22 0.419,3.96 3.36399,5.16 6.04999,4.81 1.40699,-0.19 2.92199,-0.56 3.66999,-2.07 0.377,-0.76 0.86799,-1.53 1.02599,-2.56 0.343,-2.25 0.431,-4.9 -0.44899,-8.25 z"
     id="path270"
     style="stroke:none;stroke-width:0.2" /><path
     d="m 864.10203,1790.2553 c -1.307,-0.24 -2.168,-1.51 -1.922,-2.81 0.246,-1.31 1.507,-2.17 2.81399,-1.92 0,0 1.416,-0.09 4.27899,0.51 1.218,0.26 2.248,0.94 3.70199,1.84 0.86,0.54 1.541,1.33 2.329,2.25 0.431,0.5 0.823,1.08 1.117,1.76 0.46499,1.06 0.80799,2.25 0.89799,3.63 0.055,0.84 0.122,1.6 0.003,2.53 -0.231,1.8 -0.476,3.36 -1.17999,5.5 0.089,1.33 -0.917,2.47 -2.244,2.56 -1.32699,0.09 -2.47599,-0.91 -2.56399,-2.24 -0.829,-1.71 -1.721,-2.72 -2.544,-4.01 -0.33099,-0.52 -0.70899,-0.87 -0.99699,-1.35 -0.415,-0.69 -0.95,-1.18 -1.247,-1.79 -0.446,-0.92 -0.488,-1.79 -0.813,-2.49 -1.23299,-2.63 -1.63099,-3.97 -1.63099,-3.97 z"
     id="path272"
     style="stroke:none;stroke-width:0.2" /><path
     d="m 854.57005,1925.2453 c -0.383,1.27 -1.727,1.99 -3.00099,1.61 -1.274,-0.38 -1.997,-1.73 -1.614,-3 0,0 -0.021,-1.86 0.646,-5.05 0.22,-1.06 0.633,-2.02 1.15,-3.2 0.444,-1.01 1.09899,-1.93 1.85599,-2.91 0.462,-0.6 1.002,-1.17 1.641,-1.65 1.122,-0.86 2.40199,-1.58 3.88399,-2.04 0.974,-0.31 1.88299,-0.61 2.96999,-0.7 2.197,-0.19 4.21199,-0.29 6.76198,0.27 1.321,-0.15 2.518,0.8 2.672,2.12 0.154,1.32 -0.793,2.52 -2.114,2.67 -1.79299,0.86 -2.84399,2 -4.13999,3.06 -0.505,0.42 -0.82599,0.9 -1.28999,1.3 -0.681,0.59 -1.144,1.3 -1.777,1.82 -0.984,0.81 -2.01999,1.32 -2.86399,1.98 -2.91699,2.29 -4.78099,3.72 -4.78099,3.72 z"
     id="path274"
     style="stroke:none;stroke-width:0.2" /><path
     d="m 864.77102,2094.3852 c 1.324,0.12 2.299,1.3 2.176,2.62 -0.123,1.32 -1.298,2.3 -2.62199,2.18 -4.64599,0.54 -7.99698,-0.26 -10.66798,-1.37 -2.04699,-0.86 -3.37099,-2.29 -4.52499,-3.64 -1.27099,-1.5 -1.83399,-3.27 -2.19499,-5.01 -0.477,-2.3 -0.124,-4.69 0.827,-6.79 0.91899,-2.03 2.39499,-3.86 4.31799,-5.05 1.49699,-0.93 3.10899,-1.74 4.94398,-1.91 1.33,-0.13 2.695,-0.27 4.09999,0.12 3.331,0.93 7.08999,2.98 9.89098,8.27 0.836,1.04 0.675,2.56 -0.359,3.39 -1.035,0.84 -2.55299,0.68 -3.38899,-0.36 -3.56199,-3.07 -6.45999,-2.97 -8.47998,-1.65 -0.478,0.31 -0.614,0.91 -0.876,1.4 -0.22,0.41 -0.484,0.82 -0.472,1.29 0.038,1.64 0.811,3.36 3.36999,4.69 1.173,0.61 2.369,1.31 3.95999,1.82 z"
     id="path276"
     style="stroke:none;stroke-width:0.2" /><path
     d="m 1388.4177,1716.6454 c 7.17,-3.31 21.77,14.09 9.07,16.63 -12.7,2.53 -16.24,-13.32 -9.07,-16.63 z"
     id="path278"
     style="stroke:none;stroke-width:0.2" /><path
     d="m 1387.4077,1714.4554 c 3.3,-2.2 8.39,-0.8 12.83,2.15 2.48,1.65 4.45,3.97 5.83,6.28 1.97,3.33 1.99,6.91 0.79,9.79 -1.09,2.63 -3.65,4.92 -8.3,5.98 -2.08,0.3 -3.98,0.39 -5.68,0.06 -5.24,-1.03 -8.97,-4.16 -10.61,-8.25 -0.7,-1.75 -1.21,-3.54 -1.19,-5.36 0.04,-4.84 2,-9.38 6.33,-10.65 z m 9.84,13.34 c 0.05,-0.18 0.13,-0.31 0.2,-0.2 0.07,0.1 -0.03,0.16 -0.2,0.2 -0.05,0.21 -0.06,0.49 0.08,0.49 0.84,0.01 -0.12,-1.82 -0.61,-2.75 -0.38,-0.75 -0.75,-1.53 -1.28,-2.23 -1.29,-1.73 -2.65,-3.41 -4.3,-4.03 -0.61,-0.23 -1.14,-0.6 -1.71,-0.44 -0.66,0.44 -0.86,1.21 -1.1,1.94 -0.59,1.75 0.34,3.8 1.56,5.56 1.22,1.75 3.51,2.44 6.53,1.56 0.24,-0.05 0.6,-0.05 0.83,-0.1 z"
     id="path279"
     style="stroke:none;stroke-width:0.2" /><path
     d="m 1274.488,1828.9653 c -1.42,0.29 -2.82,-0.63 -3.11,-2.05 -0.29,-1.42 0.63,-2.81 2.05,-3.1 0,0 1.07,-0.64 3.45,-1.68 1.09,-0.48 2.18,-0.61 3.69,-0.83 0.99,-0.15 1.96,0 3.07,0.15 0.67,0.09 1.35,0.28 1.99,0.59 1.14,0.55 2.23,1.27 3.15,2.31 0.61,0.7 1.21,1.26 1.67,2.14 0.94,1.79 1.76,3.21 2.19,5.58 0.83,1.19 0.53,2.83 -0.67,3.65 -1.19,0.83 -2.83,0.53 -3.65,-0.67 -1.21,-0.7 -2.19,-0.75 -3.32,-1.18 -0.79,-0.3 -1.49,-0.19 -2.21,-0.42 -0.65,-0.21 -1.31,-0.14 -1.87,-0.38 -0.9,-0.39 -1.5,-1.04 -2.22,-1.43 -2.81,-1.5 -4.21,-2.68 -4.21,-2.68 z"
     id="path280"
     style="stroke:none;stroke-width:0.2" /><path
     d="m 1201.2882,1780.8753 c -1.2,0.81 -2.84,0.5 -3.65,-0.7 -0.82,-1.1899 -0.51,-2.8299 0.69,-3.6499 0,0 0.75,-0.97 2.73,-2.86 0.86,-0.81 1.84,-1.29 3.23,-2.03 0.86,-0.46 1.81,-0.65 2.91,-0.88 0.63,-0.13 1.3,-0.19 2,-0.12 1.17,0.11 2.36,0.39 3.56,0.98 0.78,0.39 1.48,0.69 2.22,1.27 1.51,1.2 2.7299,2.14 4.1599,3.93 1.29,0.66 1.81,2.24 1.15,3.5299 -0.66,1.3 -2.24,1.81 -3.5399,1.15 -1.82,-0.08 -3,0.35 -4.52,0.5 -0.58,0.06 -1.02,0.27 -1.55,0.31 -0.76,0.06 -1.41,0.34 -2.07,0.3 -1.02,-0.05 -1.83,-0.47 -2.64,-0.59 -3.17,-0.49 -4.68,-1.14 -4.68,-1.14 z"
     id="path282"
     style="stroke:none;stroke-width:0.2" /><path
     d="m 1257.4481,1779.2154 c -1.44,-0.15 -2.49,-1.45 -2.34,-2.89 0.15,-1.44 1.44,-2.49 2.8899,-2.34 0,0 1.78,-0.43 5.01,-0.59 1.1,-0.05 2.11,0.11 3.38,0.31 1.12,0.18 2.17,0.6 3.3,1.09 0.72,0.32 1.42,0.72 2.05,1.24 1.15,0.96 2.19,2.1 2.94,3.53 0.51,0.9699 1.04,1.8399 1.3,2.9699 0.53,2.3 1.01,4.33 0.56,7.09 0.29,1.43 -0.63,2.81 -2.06,3.1 -1.42,0.29 -2.81,-0.62 -3.1,-2.05 -0.82,-1.27 -1.85,-1.82 -2.81,-2.72 -0.67,-0.62 -1.46,-0.79 -2.15,-1.29 -0.64,-0.47 -1.39,-0.66 -1.98,-1.11 -0.95,-0.73 -1.61,-1.62 -2.41,-2.29 -2.84,-2.36 -4.5799,-4.0499 -4.5799,-4.0499 z"
     id="path284"
     style="stroke:none;stroke-width:0.2" /><path
     d="m 1329.4579,1792.7453 c -1.43,0.25 -2.79,-0.71 -3.04,-2.14 -0.25,-1.43 0.71,-2.79 2.14,-3.04 0,0 1.38,-0.8 4.33,-1.84 0.95,-0.33 1.85,-0.41 3.06,-0.56 1.01,-0.13 2.01,0.01 3.1399,0.17 0.68,0.09 1.37,0.27 2.04,0.58 1.17,0.55 2.29,1.27 3.27,2.3 0.66,0.69 1.29,1.26 1.8,2.14 1.06,1.81 1.97,3.3 2.53,5.69 0.86,1.17 0.61,2.81 -0.56,3.67 -1.17,0.86 -2.82,0.61 -3.68,-0.56 -1.25,-0.72 -2.3,-0.8 -3.49,-1.24 -0.84,-0.3 -1.59,-0.22 -2.37,-0.47 -0.7199,-0.22 -1.4399,-0.18 -2.0699,-0.44 -0.99,-0.41 -1.71,-1.08 -2.51,-1.5 -3.01,-1.57 -4.59,-2.76 -4.59,-2.76 z"
     id="path286"
     style="stroke:none;stroke-width:0.2" /><path
     d="m 1368.4378,1838.6653 c -1.34,-0.53 -2.01,-2.06 -1.48,-3.41 0.53,-1.35 2.06,-2.02 3.41,-1.49 0,0 1.26,0.09 3.92,0.69 1.18,0.26 2.13,0.86 3.52,1.64 0.8699,0.5 1.5499,1.24 2.3399,2.07 0.46,0.49 0.87,1.05 1.18,1.7 0.51,1.1 0.9,2.31 0.98,3.69 0.05,0.88 0.15,1.66 -0.02,2.61 -0.32,1.9 -0.55,3.44 -1.49,5.57 0.01,1.45 -1.15,2.64 -2.5999,2.66 -1.46,0.01 -2.64,-1.15 -2.66,-2.6 -0.63,-1.31 -1.37,-1.97 -2.04,-3.01 -0.48,-0.75 -1.08,-1.13 -1.52,-1.78 -0.4,-0.59 -0.95,-0.96 -1.24,-1.51 -0.45,-0.84 -0.47,-1.7 -0.78,-2.4 -1.23,-2.82 -1.52,-4.43 -1.52,-4.43 z"
     id="path288"
     style="stroke:none;stroke-width:0.2" /><path
     d="m 1326.7879,1882.8153 c -1.44,0.22 -2.79,-0.75 -3.01,-2.19 -0.23,-1.43 0.75,-2.78 2.18,-3.01 0,0 1.02,-0.54 3.44,-1.48 1.06,-0.42 2.09,-0.47 3.59,-0.63 0.94,-0.09 1.85,0.09 2.91,0.29 0.62,0.11 1.25,0.31 1.84,0.64 1.0199,0.56 1.9899,1.27 2.8199,2.28 0.55,0.67 1.07,1.21 1.49,2.04 0.84,1.72 1.57,3.03 2.01,5.25 0.87,1.16 0.63,2.81 -0.53,3.68 -1.16,0.87 -2.81,0.63 -3.68,-0.53 -1.23,-0.63 -2.1699,-0.65 -3.2999,-1.06 -0.8,-0.28 -1.47,-0.19 -2.19,-0.43 -0.65,-0.21 -1.3,-0.17 -1.84,-0.44 -0.85,-0.41 -1.37,-1.09 -2.03,-1.51 -2.61,-1.66 -3.7,-2.9 -3.7,-2.9 z"
     id="path290"
     style="stroke:none;stroke-width:0.2" /><path
     d="m 1228.3581,1849.9353 c -1.4,0.36 -2.84,-0.48 -3.2,-1.89 -0.36,-1.4 0.49,-2.84 1.89,-3.2 0,0 1.35,-0.91 4.16,-2.16 0.93,-0.41 1.85,-0.53 3.04,-0.75 1.03,-0.2 2.07,-0.09 3.22,0.02 0.71,0.08 1.44,0.25 2.13,0.55 1.24,0.55 2.43,1.28 3.43,2.38 0.66,0.73 1.32,1.32 1.81,2.26 0.97,1.87 1.85,3.4 2.19,5.91 0.75,1.24 0.35,2.86 -0.89,3.61 -1.24,0.75 -2.86,0.36 -3.61,-0.88 -1.15,-0.81 -2.17,-0.89 -3.28,-1.36 -0.75,-0.32 -1.45,-0.18 -2.16,-0.41 -0.63,-0.21 -1.27,-0.11 -1.84,-0.33 -0.9,-0.35 -1.54,-0.98 -2.3,-1.32 -2.94,-1.33 -4.59,-2.43 -4.59,-2.43 z"
     id="path292"
     style="stroke:none;stroke-width:0.2" /><path
     d="m 1150.9183,1856.7553 c 1.03,-1.02 2.7,-1 3.71,0.04 1.02,1.04 1,2.7 -0.04,3.72 0,0 -0.64,2.72 -2.15,6.75 -0.46,1.24 -0.83,2.61 -1.52,3.94 -0.46,0.89 -1.16,1.61 -1.71,2.48 -0.38,0.59 -0.85,1.03 -1.23,1.63 -0.99,1.59 -2.11,2.77 -2.6,4.61 0.12,1.44 -0.96,2.71 -2.41,2.82 -1.45,0.12 -2.72,-0.96 -2.83,-2.41 -1.08,-2.43 -1.26,-4.67 -1.39,-7.3 -0.06,-1.1 0.09,-2.08 0.25,-3.16 0.23,-1.49 0.66,-2.89 1.28,-4.2 0.33,-0.7 0.76,-1.33 1.23,-1.91 0.74,-0.94 1.46,-1.76 2.29,-2.48 0.96,-0.83 1.77,-1.47 2.67,-2.04 2.77,-1.74 4.45,-2.49 4.45,-2.49 z"
     id="path294"
     style="stroke:none;stroke-width:0.2" /><path
     d="m 1165.4383,1892.0253 c -0.23,-1.43 0.75,-2.78 2.19,-3.01 1.43,-0.22 2.78,0.76 3,2.19 0,0 1.52,0.62 3.7,2.53 0.52,0.46 1.25,0.67 1.76,1.28 0.39,0.47 0.35,1.15 0.73,1.69 0.2899,0.43 0.24,0.92 0.5699,1.37 0.63,0.85 0.75,1.67 1.65,2.47 1.41,0.34 2.29,1.75 1.95,3.16 -0.33,1.42 -1.75,2.29 -3.16,1.96 -2.1999,0.57 -3.6099,0.22 -5.5399,0.02 -0.93,-0.09 -1.56,-0.48 -2.38,-0.8 -1.19,-0.45 -2.09,-1.22 -2.91,-2.05 -0.34,-0.34 -0.61,-0.72 -0.81,-1.14 -0.52,-1.04 -0.99,-1.95 -1.12,-2.98 -0.17,-1.37 -0.34,-2.27 -0.19,-3.34 0.33,-2.35 0.56,-3.35 0.56,-3.35 z"
     id="path296"
     style="stroke:none;stroke-width:0.2" /><path
     d="m 1093.2185,1846.5653 c -1.42,-0.3 -2.33,-1.69 -2.04,-3.11 0.3,-1.42 1.7,-2.33 3.12,-2.04 0,0 1.98,-1.05 5.7699,-2.23 1.09,-0.35 2.21,-0.85 3.55,-1.05 0.88,-0.14 1.77,0.02 2.73,0.01 0.66,0 1.24,0.13 1.92,0.15 1.77,0.04 3.24,0.34 5.16,0.1 1.27,-0.7 2.87,-0.23 3.57,1.04 0.7,1.27 0.23,2.87 -1.04,3.57 -1.5,1.83 -2.91,2.96 -4.62,4.3 -0.77,0.59 -1.51,0.98 -2.34,1.41 -1.19,0.62 -2.39,1.04 -3.61,1.28 -0.69,0.13 -1.37,0.14 -2.03,0.1 -1.1,-0.06 -2.07,-0.15 -3.02,-0.41 -1.49,-0.4 -2.57,-0.75 -3.63,-1.26 -2.4099,-1.16 -3.4899,-1.86 -3.4899,-1.86 z"
     id="path298"
     style="stroke:none;stroke-width:0.2" /><path
     d="m 1070.1785,1816.4453 c -0.77,1.23 -2.4,1.6 -3.63,0.83 -1.22,-0.78 -1.59,-2.4 -0.82,-3.63 0,0 0.33,-1.25 1.44,-3.82 0.48,-1.11 1.22,-1.99 2.23,-3.25 0.62,-0.79 1.44,-1.38 2.37,-2.05 0.55,-0.4 1.15,-0.74 1.84,-0.98 1.15,-0.4 2.4,-0.65 3.78,-0.63 0.9,0.02 1.7,-0.01 2.65,0.21 1.95,0.43 3.56,0.79 5.68,1.81 1.45,0.05 2.58,1.28 2.53,2.73 -0.06,1.45 -1.28,2.58 -2.73,2.52 -1.77,0.68 -2.77,1.57 -4.16,2.36 -0.53,0.3 -0.89,0.69 -1.39,0.95 -0.72,0.39 -1.25,0.93 -1.92,1.19 -1.03,0.41 -2.01,0.41 -2.87,0.66 -3.24,0.95 -5,1.1 -5,1.1 z"
     id="path300"
     style="stroke:none;stroke-width:0.2" /><path
     d="m 1020.2886,1841.8353 c 1.44,-0.18 2.76,0.84 2.94,2.28 0.18,1.44 -0.84,2.76 -2.28,2.94 0,0 -1.15,1.63 -3.27,4.04 -0.54,0.61 -0.82,1.46 -1.47,2.18 -0.4,0.45 -1.0299,0.66 -1.4999,1.16 -0.53,0.55 -1.23,0.81 -1.77,1.49 -0.78,0.98 -1.65,1.61 -2.35,2.93 -0.12,1.44 -1.39,2.52 -2.84,2.4 -1.44,-0.12 -2.52,-1.39 -2.4,-2.84 -0.8,-2.47 -0.75,-4.28 -0.73,-6.37 0.01,-1.1 0.33,-1.96 0.59,-2.93 0.41,-1.52 1.2,-2.75 2.08,-3.85 0.37,-0.47 0.81,-0.87 1.28,-1.2 1.2,-0.83 2.3,-1.55 3.54,-1.88 1.24,-0.34 2.19,-0.65 3.27,-0.66 3.1899,-0.03 4.9099,0.31 4.9099,0.31 z"
     id="path302"
     style="stroke:none;stroke-width:0.2" /><path
     d="m 1086.7885,1879.7153 c 0.22,-1.43 1.57,-2.41 3.01,-2.18 1.43,0.23 2.41,1.57 2.18,3.01 0,0 1.04,2.62 2.34,6.58 0.41,1.23 1.02,2.44 1.38,3.84 0.26,0.99 0.25,2.02 0.49,3.03 0.23,1.04 0.12,2.03 0.4999,3.04 0.51,1.33 0.68,2.62 1.68,3.81 1.25,0.74 1.66,2.35 0.92,3.6 -0.74,1.25 -2.35,1.66 -3.5999,0.92 -2.98,-0.64 -4.95,-2.17 -7.09,-3.95 -0.94,-0.78 -1.58,-1.72 -2.3,-2.7 -0.97,-1.34 -1.65,-2.84 -2.11,-4.4 -0.24,-0.81 -0.35,-1.64 -0.39,-2.47 -0.05,-1.28 -0.05,-2.47 0.14,-3.65 0.23,-1.32 0.44,-2.41 0.81,-3.5 1.1,-3.21 2.04,-4.98 2.04,-4.98 z"
     id="path304"
     style="stroke:none;stroke-width:0.2" /><path
     d="m 1223.7081,1889.6553 c 1.08,-0.96 2.74,-0.87 3.71,0.21 0.97,1.08 0.87,2.74 -0.21,3.71 0,0 0.19,0.74 0.08,2.16 -0.04,0.42 0.3,0.7 0.31,1.18 0,0.33 0.51,0.44 0.56,0.8 0.01,0.11 0.29,0.02 0.31,0.14 0.04,0.21 -0.39,0.32 -0.34,0.56 0.3,1.33 -0.21,2.68 0.96,4.54 1.24,0.76 1.62,2.39 0.85,3.62 -0.76,1.23 -2.39,1.61 -3.62,0.85 -2.85,-0.24 -4.23,-1.15 -6,-2.03 -0.64,-0.32 -0.96,-0.81 -1.44,-1.23 -1.31,-1.15 -1.8099,-2.63 -2.1799,-4.01 -0.17,-0.65 -0.23,-1.32 -0.14,-1.95 0.23,-1.53 0.37,-2.94 1.2399,-4.05 0.77,-0.98 1.17,-1.81 2.1,-2.4 0.76,-0.49 1.12,-0.95 1.79,-1.22 1.42,-0.58 2.02,-0.88 2.02,-0.88 z"
     id="path306"
     style="stroke:none;stroke-width:0.2" /><path
     d="m 1317.4179,1824.6353 c -1.29,-0.68 -1.79,-2.26 -1.12,-3.55 0.67,-1.29 2.26,-1.79 3.54,-1.12 0,0 1.99,0.32 5.3,1.5 1.08,0.39 2.08,0.92 3.28,1.6 1.03,0.59 1.97,1.35 2.95,2.23 0.61,0.54 1.19,1.15 1.67,1.86 0.88,1.28 1.59,2.72 2.05,4.31 0.31,1.1 0.62,2.13 0.7,3.32 0.17,2.56 0.23,4.88 -0.54,7.65 0.08,1.45 -1.04,2.69 -2.48,2.76 -1.45,0.08 -2.69,-1.03 -2.77,-2.48 -0.78,-1.98 -2.01,-3.2 -3.16,-4.7 -0.45,-0.58 -0.98,-0.98 -1.42,-1.53 -0.66,-0.81 -1.45,-1.42 -2.03,-2.21 -0.9,-1.22 -1.49,-2.49 -2.2,-3.58 -2.36,-3.64 -3.77,-6.06 -3.77,-6.06 z"
     id="path308"
     style="stroke:none;stroke-width:0.2" /><path
     d="m 1206.2882,1806.0153 c 0.22,0.01 0.4,-0.03 0.41,-0.16 0.01,-0.07 0.06,-0.21 -0.02,-0.21 -0.14,0.02 -0.26,-0.16 -0.41,-0.13 -0.14,0.04 -0.28,0.07 -0.42,0.1 -0.06,-0.02 -0.12,-0.01 -0.16,0.03 -1.74,0.4 -3.63,0.92 -4.55,2.51 -0.35,1.41 -1.77,2.28 -3.18,1.94 -1.41,-0.35 -2.28,-1.77 -1.93,-3.18 -0.22,-3.43 1.51,-6.5 3.62,-9.15 1.15,-1.45 2.75,-2.17 4.27,-2.84 3.09,-1.36 6.59,-0.76 9.33,1.49 1.64,1.35 3.28,3.48 3.72,6.74 0.17,1.22 0.35,2.52 0.15,4.07 -0.29,2.34 -0.78,4.8 -1.99,8.02 -0.11,1.45 -1.37,2.53 -2.82,2.42 -1.44,-0.1 -2.53,-1.37 -2.42,-2.81 -0.67,-3.2 -1.69,-5.27 -2.54,-7.16 -0.26,-0.59 -0.65,-0.98 -0.9,-1.44 -0.05,-0.07 -0.1,-0.16 -0.16,-0.24 z m 0,0 c -0.36,-0.02 -0.8,-0.19 -0.61,-0.36 0.01,0 0.01,0 0.01,-0.01 0.05,-0.01 0.1,-0.02 0.16,-0.03 0.14,0.03 0.3,0.21 0.44,0.4 z"
     id="path310"
     style="stroke:none;stroke-width:0.2" /><path
     d="m 1141.9783,1788.5453 c 1.43,0.22 2.42,1.56 2.19,3 -0.22,1.43 -1.56,2.41 -3,2.19 0,0 -0.96,1.27 -3.29,3.02 -0.55,0.42 -0.9,1.13 -1.6099,1.6 -0.47,0.3 -1.08,0.31 -1.64,0.6 -0.65,0.34 -1.32,0.33 -2.04,0.73 -1.04,0.58 -1.95,0.77 -3.06,1.61 -0.66,1.29 -2.24,1.81 -3.54,1.16 -1.29,-0.65 -1.81,-2.24 -1.16,-3.53 0.06,-2.31 0.56,-3.73 1.1,-5.55 0.28,-0.92 0.74,-1.54 1.18,-2.3 0.7,-1.19 1.63,-2.04 2.6,-2.76 0.42,-0.32 0.89,-0.57 1.36,-0.73 1.27,-0.44 2.36,-0.83 3.52,-0.81 1.56,0.03 2.6499,-0.02 3.7899,0.37 2.5,0.85 3.6,1.4 3.6,1.4 z"
     id="path312"
     style="stroke:none;stroke-width:0.2" /><path
     d="m 1051.8886,1849.0953 c 1.35,-0.53 2.88,0.13 3.41,1.49 0.53,1.35 -0.14,2.87 -1.49,3.4 0,0 -2.19,2.81 -4.04,6.59 -0.36,0.73 -0.49,1.56 -0.76,2.42 -0.25,0.79 -0.86,1.47 -0.96,2.47 -0.19,1.97 -0.63,4.01 0.14,6.82 0.78,1.22 0.41,2.85 -0.81,3.62 -1.23,0.78 -2.85,0.41 -3.63,-0.81 -2.55,-2.15 -3.88,-4.2 -5.09,-6.32 -0.72,-1.28 -0.96,-2.53 -1.24,-3.78 -0.49,-2.17 -0.2,-4.23 0.33,-6.08 0.23,-0.81 0.57,-1.57 1.01,-2.25 1.02,-1.6 2.13,-3.03 3.58,-4.03 1.28,-0.88 2.4,-1.63 3.69,-2.09 3.42,-1.21 5.86,-1.45 5.86,-1.45 z"
     id="path314"
     style="stroke:none;stroke-width:0.2" /><path
     d="m 1268.728,1876.1353 c -1.35,-0.53 -2.01,-2.06 -1.48,-3.41 0.53,-1.35 2.06,-2.02 3.41,-1.49 0,0 0.89,0.21 2.8,0.7 0.58,0.15 0.96,0.52 1.63,0.83 1.3,0.61 2.15,1.71 3.41,3.2 0.85,1 1.27,2.32 1.74,3.89 0.16,0.53 0.25,1.11 0.25,1.72 -0.01,1.24 -0.15,2.57 -0.7,3.98 -0.33,0.82 -0.59,1.58 -1.14,2.42 -1.04,1.57 -1.95,2.9 -3.63,4.6 -0.53,1.35 -2.06,2.02 -3.41,1.49 -1.35,-0.53 -2.02,-2.05 -1.49,-3.4 -0.07,-1.59 -0.4,-2.63 -0.57,-3.94 -0.12,-0.99 -0.46,-1.69 -0.57,-2.52 -0.11,-0.76 -0.42,-1.37 -0.47,-2 -0.04,-0.61 0.21,-1.13 0.19,-1.62 -0.05,-0.87 0.52,-1.45 0.35,-2.06 -0.44,-1.54 -0.32,-2.39 -0.32,-2.39 z"
     id="path316"
     style="stroke:none;stroke-width:0.2" /><path
     d="m 1445.2476,2141.0152 c -0.74,1.11 -2.23,1.41 -3.34,0.68 -1.11,-0.74 -1.41,-2.24 -0.67,-3.34 0,0 0.73,-2.23 2.54,-5.04 0.71,-1.11 1.67,-1.97 2.79,-2.93 1.3,-1.12 2.95,-1.76 4.74,-2.25 0.76,-0.21 1.57,-0.3 2.39,-0.26 1.82,0.09 3.76,0.47 5.59,1.66 0.9699,0.64 1.9799,1.26 2.8599,2.31 1.42,1.68 2.75,3.48 3.88,6.34 0.84,1.03 0.67,2.55 -0.36,3.39 -1.04,0.83 -2.55,0.67 -3.39,-0.37 -3.0099,-2.15 -5.4199,-2.22 -7.5199,-2.45 -0.59,-0.07 -1.11,0.06 -1.62,0.1 -0.72,0.06 -1.4,-0.13 -2.04,0.04 -3.29,0.85 -5.85,2.12 -5.85,2.12 z"
     id="path318"
     style="stroke:none;stroke-width:0.2" /></g>&#10;</svg>
