<?xml version="1.0" encoding="UTF-8" standalone="no"?>
<svg
   width="2434.7832"
   height="2958.5559"
   viewBox="0 0 2434.7832 2958.5559"
   version="1.1"
   xml:space="preserve"
   style="clip-rule:evenodd;fill-rule:evenodd;stroke-linejoin:round;stroke-miterlimit:2"
   id="svg5353"
   xmlns="http://www.w3.org/2000/svg"
   xmlns:svg="http://www.w3.org/2000/svg"><defs
   id="defs5353" />&#10;    <g
   id="vectorly-UNI-palette-art-drawing"
   transform="matrix(4.9999999,0,0,4.9999999,-4519.0418,-64707.406)"
   style="stroke-width:0.2"><path
     d="m 1241.3581,13329.411 c -1.76,0.8 -3.85,0 -4.65,-1.7 -0.81,-1.8 -0.04,-3.9 1.72,-4.7 9.45,-5.1 24.1099,-9.2 37.3399,-11 12.05,-1.7 22.8799,-1.1 28.1399,0.8 10.41,4.2 13.64,13.3 10.45,22.8 -1.25,3.7 -3.7,7.6 -7.49,11.1 -3.72,3.5 -8.8,6.6 -15.1699,8.9 -13.55,4.4 -26.15,6 -37.0299,5.6 -18.93,-0.7 -32.4,-6.8 -36.34,-10.7 -1.4599,-1.3 -1.6199,-3.5 -0.36,-5 1.27,-1.4 3.49,-1.6 4.95,-0.3 3.72,2.8 15.67,5.5 31.51,4.2 9.5099,-0.7 20.3599,-3 31.7899,-8.1 5.86,-2.3 9.94,-5.6 12.1599,-9 0.96,-1.5 1.89,-2.8 1.38,-4.1 -0.29,-0.7 -0.88,-1.2 -1.7499,-1.6 -4.65,-2.3 -15.66,-2.8 -27.28,-2.1 -10.59,0.6 -21.5999,2 -29.3699,4.9 z"
     id="path3604"
     style="stroke:none;stroke-width:0.2" /><path
     d="m 1355.9778,13283.911 c 1.87,-0.5 3.79,0.6 4.27,2.5 0.49,1.9 -0.63,3.8 -2.51,4.3 -10.63,2.9 -23.0199,4.1 -33.6899,4.1 -10.29,-0.1 -19.01,-1.5 -23.39,-3.6 -3.6899,-1.8 -5.8699,-4.1 -6.9999,-6.5 -1.3,-2.8 -1.3,-6.1 0.16,-10 2.43,-6.4 9.7099,-15.2 19.9099,-27.2 23.43,-27.6 38.3699,-56.6 36.0799,-79.4 -1.67,-16.6 -13.3299,-29.2 -37.6999,-35 -48.5499,-11.6 -125.7497,1 -200.3795,32.2 -63.6398,26.6 -125.52268,66.8 -165.76258,118.5 -23.35794,29.6 -32.52892,66.7 -22.99894,97.5 8.88098,28.7 34.19392,51.4 78.70182,57.4 95.4797,13.2 184.3095,-0.7 250.5794,-25.1 45.9798,-17 81.0898,-39 99.7797,-60.6 13.18,-15.3 18.18,-30.1 11.72,-42.7 -0.9,-1.7 -0.24,-3.8 1.47,-4.7 1.71,-0.9 3.84,-0.3 4.74,1.4 7.93,14.8 3.46,32.8 -11.83,51.2 -18.97,22.8 -54.8799,46.4 -102.2997,64.8 -67.3899,26.1 -158.0897,41.7 -255.97941,29.7 -51.80287,-6.5 -80.8408,-33.6 -91.44777,-66.8 -11.20998,-35.2 -1.528,-77.9 24.99993,-112 42.0869,-53.4 106.30775,-95.3 172.67755,-122.3 77.9098,-31.7 158.5796,-42.8 208.8795,-30 30.3799,7.9 43.8399,24.7 45.5499,45.5 2.05,24.9 -13.85,56.7 -39.9499,86.3 -7.7,8.7 -13.75,15.5 -17.11,20.9 -1.76,2.9 -2.99,5 -2.33,6.8 0.41,1.2 1.53,2 3.17,2.8 4.43,2.3 14.21,3.4 25.22,3.2 8.7,-0.1 18.1499,-1.1 26.4699,-3.2 z"
     id="path3606"
     style="stroke:none;stroke-width:0.2" /><path
     d="m 1258.578,13515.011 c -0.13,1.9 -1.7999,3.4 -3.7299,3.3 -1.93,-0.2 -3.39,-1.8 -3.26,-3.8 0,0 -1.06,-13.1 -1.45,-30.1 -0.09,-3.8 -0.07,-7.9 0.02,-12 0.06,-2.6 0.13,-5.3 0.35,-8 0.59,-6.8 1.57,-13.5 2.53,-19.8 2.58,-16.8 5.3599,-29.6 5.3599,-29.6 0.13,-1.9 1.8,-3.4 3.74,-3.3 1.93,0.2 3.39,1.8 3.25,3.8 0,0 1,13.1 1.28,30.1 0.1,6.3 0.15,13.1 -0.2,19.9 -0.14,2.7 -0.44,5.4 -0.74,8 -0.47,4.1 -1,8.1 -1.61,11.9 -2.7,16.8 -5.54,29.6 -5.54,29.6 z m 10.97,-160.3 c -0.13,1.9 -1.8,3.3 -3.73,3.2 -1.93,-0.1 -3.39,-1.8 -3.26,-3.7 0,0 0.96,-42.8 3.15,-97.4 0.5,-12.5 1.14,-25.6 1.87,-38.9 0.46,-8.6 0.94,-17.3 1.58,-25.9 1.63,-22.2 3.65,-44.3 5.59,-64.7 5.14,-54.4 9.96,-96.9 9.96,-96.9 0.13,-2 1.81,-3.4 3.74,-3.3 1.93,0.2 3.39,1.8 3.25,3.8 0,0 -1.02,42.8 -3.32,97.3 -0.87,20.5 -1.87,42.7 -3.27,64.9 -0.55,8.6 -1.26,17.3 -1.96,25.8 -1.1,13.4 -2.25,26.4 -3.46,38.9 -5.26,54.3 -10.14,96.9 -10.14,96.9 z"
     id="path3608"
     style="stroke:none;stroke-width:0.2" /><path
     d="m 1317.6679,12952.911 c 2.68,9.7 5.43,28.7 4.18,45.9 -0.6,8.4 -2.31,16.2 -5.06,22.5 -1.67,3.8 -3.87,6.9 -6.36,9.5 -9.24,9.2 -21.2499,10.2 -29.5799,5.4 -7.83,-4.5 -13.38,-14.3 -9.79,-28.2 1.28,-4.6 4.69,-9.4 9.85,-14.6 6.06,-6 14.44,-13 21.4099,-23.6 3.25,-4.9 6.26,-10.5 8.54,-17.1 0.42,-1.6 1.86,-2.7 3.49,-2.6 1.62,0 2.99,1.2 3.32,2.8 z m -6.13,20 c -1.35,2.8 -2.8,5.5 -4.31,8 -4.93,8.2 -10.5499,14.6 -15.1199,20.1 -3.32,3.9 -6.14,7.1 -6.73,10.3 -1.08,5.4 0.28,9.3 3.31,11 3.16,1.8 7.46,0.9 11.0099,-2.5 5.06,-4.5 7.66,-13.2 9.4,-22.6 1.48,-8.1 2.23,-16.6 2.44,-24.3 z"
     id="path3610"
     style="stroke:none;stroke-width:0.2" /><path
     d="m 1389.3482,12944.609 c 1.7806,10.083 2.4116,29.596 -1.3045,46.675 -2.8245,12.957 -8.6392,24.045 -16.7379,30.026 -10.5354,7.302 -22.4972,7.182 -30.6058,2.184 -8.4892,-5.244 -13.7519,-15.843 -8.9981,-29.878 2.2199,-6.181 5.2954,-10.748 9.1978,-14.512 5.5989,-5.373 12.6483,-8.962 19.9948,-13.321 7.6629,-4.624 15.6592,-10.416 21.7704,-22.174 0.6505,-1.533 2.1735,-2.358 3.7344,-2.071 1.5729,0.188 2.7786,1.54 2.9489,3.071 z m -7.7118,15.998 c -1.3607,1.852 -2.7995,3.594 -4.2714,5.231 -6.363,7.095 -13.5185,11.477 -19.8227,16.363 -5.2643,4.004 -9.7659,8.3 -11.7469,15.818 -1.5869,5.652 -0.1517,9.852 3.2086,11.865 3.6967,2.153 8.9489,1.875 13.8031,-1.272 6.0719,-3.705 9.979,-11.799 12.9468,-20.71 2.9678,-8.911 4.8964,-18.852 5.8825,-27.295 z"
     id="path3612"
     style="stroke:none;stroke-width:0.21274" /><path
     d="m 1224.0281,13530.511 c -0.47,1.9 -2.37,3 -4.25,2.6 -1.88,-0.5 -3.0199,-2.4 -2.5599,-4.3 0,0 1.6299,-14.7 4.6999,-33.5 0.7,-4.3 1.53,-8.8 2.47,-13.3 0.59,-2.9 1.2,-5.9 1.97,-8.8 1.96,-7.4 4.3,-14.7 6.53,-21.5 5.95,-18.1 11.32,-31.9 11.32,-31.9 0.46,-1.9 2.37,-3 4.24,-2.5 1.88,0.4 3.03,2.3 2.56,4.2 0,0 -1.69,14.7 -4.86,33.5 -1.19,7 -2.53,14.6 -4.27,22.1 -0.68,2.9 -1.52,5.8 -2.35,8.7 -1.29,4.4 -2.63,8.7 -4.01,12.8 -6.07,18.1 -11.49,31.9 -11.49,31.9 z m 43.3199,-175 c -0.47,1.9 -2.37,3.1 -4.25,2.6 -1.87,-0.5 -3.02,-2.4 -2.56,-4.3 0,0 9.09,-44.8 21.62,-101.8 2.87,-13.1 5.99,-26.7 9.23,-40.6 2.09,-9 4.21,-18 6.49,-27 5.8099,-23 12.0099,-45.9 17.8099,-67.1 15.4,-56.3 28.2399,-100.3 28.2399,-100.3 0.47,-1.8 2.37,-3 4.25,-2.5 1.87,0.4 3.02,2.3 2.56,4.2 0,0 -9.15,44.9 -21.7899,101.9 -4.76,21.4 -9.96,44.5 -15.55,67.6 -2.19,9 -4.53,18 -6.86,26.9 -3.61,13.8 -7.22,27.3 -10.7799,40.2 -15.52,56.3 -28.41,100.2 -28.41,100.2 z"
     id="path3614"
     style="stroke:none;stroke-width:0.2" /><path
     d="m 1232.6181,13159.111 c 26.2399,-18.7 42.3099,4.9 31.3299,15.5 -19.6499,18.9 -56.6998,29 -86.7798,24.6 -21.1299,-3.2 -21.6099,-27.2 4.55,-27 25.53,0.3 37.0599,-3.3 50.8999,-13.1 z"
     id="path3616"
     style="stroke:none;stroke-width:0.2" /><path
     d="m 1112.8084,13215.911 c 36.7699,-6.1 34.3199,21.9 13.98,31.3 -18.99,8.8 -48.5399,10.1 -66.6399,-1.6 -15.9599,-10.3 3.49,-45.1 28.9,-34.7 7.34,3 16.1399,6.3 23.7599,5 z"
     id="path3618"
     style="stroke:none;stroke-width:0.2" /><path
     d="m 1042.8586,13260.711 c 29.7599,-7.7 36.9599,31.1 5.07,35.3 -8.28,1.1 -41.9199,7.2 -58.69988,-0.5 -11.53098,-5.4 -14.71197,-24.1 4.80998,-30.2 9.9,-3.1 28.4599,0.7 48.8199,-4.6 z"
     id="path3620"
     style="stroke:none;stroke-width:0.2" /><path
     d="m 1029.5186,13324.111 c 26.8699,-5.6 29.1699,19 2.92,35.2 -15.99,9.8 -57.59385,8.6 -73.21381,-5.7 -9.49898,-8.7 -7.48498,-27.9 7.97198,-31.9 15.45796,-4.1 39.25193,7.2 62.32183,2.4 z"
     id="path3622"
     style="stroke:none;stroke-width:0.2" /><path
     d="m 1043.1186,13379.411 c 18.3299,-4.7 37.6799,13.6 27.1699,23.9 -12.27,12.2 -48.3299,23.6 -72.40981,12.2 -15.85096,-7.5 -16.10496,-23 -0.80999,-28.4 15.29,-5.4 24.7299,-2.1 46.0499,-7.7 z"
     id="path3624"
     style="stroke:none;stroke-width:0.2" /><path
     d="m 1162.7183,13375.011 c 29.1299,-9.8 44.5599,18 26.9799,29.4 -20.8399,13.4 -48.4799,23.1 -71.6498,15.8 -17.79,-5.6 -18.11,-29 3.65,-31.6 16.9399,-2.1 29.5699,-9.7 41.0199,-13.6 z"
     id="path3626"
     style="stroke:none;stroke-width:0.2" /></g>&#10;</svg>
