<?xml version="1.0" encoding="UTF-8" standalone="no"?>
<svg
   width="3084.4458"
   height="3093.3452"
   viewBox="0 0 3084.4458 3093.3452"
   version="1.1"
   xml:space="preserve"
   style="clip-rule:evenodd;fill-rule:evenodd;stroke-linejoin:round;stroke-miterlimit:2"
   id="svg5353"
   xmlns="http://www.w3.org/2000/svg"
   xmlns:svg="http://www.w3.org/2000/svg"><defs
   id="defs5353" />&#10;    <g
   id="vectorly-UNI-balloons"
   style="stroke:none;stroke-width:0.2"
   transform="matrix(4.9999999,0,0,4.9999999,-16637.113,-20236.691)"><path
     d="m 3600.3251,4459.7954 c 1.9,0.4 3.11,2.2 2.72,4.1 -0.4,1.9 -2.25,3.1 -4.15,2.7 -19.8999,-3.4 -37.2799,-24.7999 -44.9498,-49.8999 -4.21,-13.8 -5.37,-28.6 -2.69,-42 2.01,-10 6.3099,-19.1 12.9299,-26.7 15.7,-17.39 33.2999,-23.85 49.1799,-23.64 22.01,0.29 40.7099,13.44 48.0599,27.34 10.98,21.3 12.14,43.4 7.05,62.5 -6.18,23.2 -21.26,41.8 -37.4799,48.8999 -1.75,0.9 -3.84,0.2 -4.68,-1.6 -0.84,-1.7 -0.11,-3.7999 1.63,-4.6999 13.7699,-7.2 25.5899,-24.5 29.7399,-45.2 3.34,-16.5 1.53,-35.3 -8.85,-53 -5.64,-9.9 -19.6699,-18.2 -35.6199,-18.3 -12.2,-0.1 -25.6099,4.8 -37.8899,18 -13.16,13.6 -14.8,35.5 -10.09,55.3 5.23,22 18.18,42 35.0899,46.1999 z"
     id="path1336"
     style="stroke:none;stroke-width:0.2" /><path
     d="m 3628.7851,4468.7954 c -1.29,-1.5 -1.17,-3.7 0.27,-5 1.44,-1.3 3.66,-1.2 4.95,0.3 9.7999,8.5 8.5599,16.2 5.6099,21 -3.11,4.9 -10.2199,7.1 -16.6899,6.4 -2.88,-0.3 -5.5,-1.6 -7.82,-3.2 -2.11,-1.6 -3.68,-2 -5.4,-1.8 -1.56,0.2 -3.18,0.8 -5.12,1.4 -2.99,0.9 -6.48,1.9 -10.7799,2.8 -8.08,1.5 -17.67,-2.5 -19.06,-11.5 -0.86,-5.5 0.9,-13.8 11.88,-22.5999 1.36,-1.4 3.58,-1.4 4.96,0 1.38,1.3 1.39,3.4999 0.04,4.8999 -3.3,4.3 -4.9,7.9 -5.59,10.9 -0.4,1.7 0.02,3 0.6,4 0.63,1.1 2.16,0.6 3.28,0.2 3.85,-1.3 6.8799,-2.8 9.5799,-3.8 3.21,-1.2 6.03,-1.9 8.67,-2.1 5.32,-0.4 10.32,0.8 16.27,6.2 1.21,1.2 3.1,1.9 4.72,1.5 0.85,-0.2 1.98,0 2.25,-0.9 0.65,-2 0.03,-4.9 -2.62,-8.7 z"
     id="path1338"
     style="stroke:none;stroke-width:0.2" /><path
     d="m 3607.4451,4477.6954 c 0.49,-1.9 2.41,-3 4.29,-2.5 1.86,0.5 2.98,2.4 2.48,4.3 -2.45,12.5 -1.7,25.3 -0.18,38.8 0.96,8.5 2.34,17.3 3.56,26.4 0.98,7.3 1.92,14.8 2.43,22.6 0.49,7.4 0.58,15.1 0.2,23 -0.49,10 -1.77,20.2 -4.2,30.7 -3.23,13.9 -8.46,28.2 -16.5,43 -0.82,1.7 -2.9,2.5 -4.6599,1.7 -1.75,-0.8 -2.51,-2.9 -1.69,-4.7 7.4499,-18.8 10.4199,-36.3 11.4899,-53 0.67,-10.4 0.39,-20.5 -0.08,-30.3 -0.32,-7 -0.73,-13.8 -1.15,-20.4 -0.7,-10.9 -1.42,-21.4 -1.66,-31.5 -0.41,-17.1 0.62,-33.1 5.67,-48.1 z"
     id="path1340"
     style="stroke:none;stroke-width:0.2" /><path
     d="m 3599.3151,4352.5955 c 1.84,-0.6 3.81,0.4 4.41,2.2 0.59,1.9 -0.43,3.9 -2.27,4.4 -3.19,1.9 -5.31,4.3 -7.4499,6.8 -2.05,2.4 -3.21,5.1 -4.46,7.9 -0.73,1.7 -1.3,3.4 -1.91,5.1 -0.63,1.8 -1.35,3.5 -1.88,5.3 -1.72,6 -2.94,12.2 -2.16,18.5 0.58,1.9 -0.45,3.8 -2.29,4.4 -1.85,0.6 -3.82,-0.4 -4.4,-2.3 -2.23,-4 -3.7,-8.2 -4.75,-12.7 -0.73,-3.1 -0.96,-6.1 -0.94,-9.3 0.03,-3.5 0.6,-6.9 1.7,-10.2 0.61,-1.8 1.45,-3.5 2.44,-5.1 1.53,-2.5 3.23,-4.8 5.38,-6.7 1.6,-1.4 3.19,-2.8 5.11,-3.9 4.04,-2.2 8.28,-3.9 13.4699,-4.4 z"
     id="path1342"
     style="stroke:none;stroke-width:0.2" /><path
     d="m 3698.7349,4400.3955 c 1.93,-0.2 3.61,1.3 3.75,3.2 0.14,2 -1.32,3.6 -3.25,3.8 0,0 -3.1,1.8 -10.16,4.2 -1.26,0.4 -2.59,0.8 -4.11,1.1 -0.88,0.1 -1.79,0.3 -2.76,0.3 -2.2,0.1 -4.49,-0.2 -7.0099,-0.7 -3.48,-0.6 -6.63,-1.6 -10.61,-2.6 -1.93,0.1 -3.6,-1.4 -3.72,-3.3 -0.12,-1.9 1.35,-3.6 3.28,-3.7 3.82,-1.5 6.79,-3 10.16,-4 2.4399,-0.8 4.6599,-1.4 6.8399,-1.6 0.96,-0.1 1.89,-0.1 2.78,0 1.54,0.1 2.9,0.3 4.2,0.5 7.3,1.4 10.61,2.8 10.61,2.8 z m -140.1097,8 c 1.93,-0.1 3.57,1.4 3.66,3.4 0.09,1.9 -1.41,3.6 -3.34,3.6 -50.2098,3.1 -104.3497,5.6 -144.9796,5.3 -21.2749,-0.1 -38.8979,-1 -50.4529,-2.9 -6.383,-1 -11.1169,-2.5 -13.9919,-4.1 -13.213,-7.3 -19.669,-17.3 -21.536,-27.5 -2.139,-11.7 1.948,-24 10.188,-33.8 11.604,-13.8 31.4519,-22.49 52.4169,-17.42 -0.286,-29.99 5.5649,-55.2 15.5719,-75.59 15.018,-30.6 39.2209,-50.5599 65.7239,-60.0599 54.1698,-19.41 118.4597,4.53 136.2896,70.3799 25.35,-17.04 53.3399,-18.27 74.8998,-6.43 21.84,11.97 37.3899,37.45 36.0999,74.02 -0.04,1.9 -1.64,3.4 -3.5699,3.4 -1.94,0 -3.48,-1.6 -3.44,-3.57 0.19,-32.69 -13.69,-55.39 -33.5,-65.54 -20.6799,-10.59 -47.5598,-7.14 -70.3998,12.57 -1.58,1.32 -3.73,1.71 -5.67,1.04 -1.94,-0.67 -3.38,-2.32 -3.8,-4.32 -13.7699,-62.96 -72.6498,-85.6799 -121.6697,-67.2699 -22.9199,8.5999 -43.5598,26.1999 -56.5998,52.8199 -10.23,20.88 -15.878,47.21 -14.239,79.17 0.151,2.7 -1.161,5.3 -3.444,6.8 -2.282,1.5 -5.19,1.7 -7.632,0.5 -17.8369,-9.1 -36.0659,-2.7 -46.1508,8.8 -5.575,6.4 -8.792,14.4 -7.543,22.1 1.109,6.9 5.694,13.5 14.4739,18.6 2.803,1.7 8.2,2.8 15.551,3.8 10.851,1.5 25.5189,2.5 42.6529,3.1 40.4309,1.4 94.3708,0.6 144.4306,-0.9 z"
     id="path1344"
     style="stroke:none;stroke-width:0.2" /><path
     d="m 3696.9949,4357.9955 c -1.18,1.6 -3.38,1.9 -4.92,0.7 -1.53,-1.2 -1.83,-3.4 -0.66,-4.9 9.99,-15.3 22.11,-23.58 34.4399,-27.15 6.66,-1.92 13.41,-2.29 20,-1.56 9.46,1.04 18.6199,4.53 26.5399,9.81 7.9,5.3 14.6,12.3 19.39,20.1 12.3899,20.1 13.1699,44.8 -7.45,59.6 -1.5,1.3 -3.71,1.1 -4.93,-0.4 -1.23,-1.5 -1.01,-3.8 0.49,-5 12.21,-11.4 11.28,-26.6 3.97,-39.9 -4.57,-8.2 -11.83,-15.6 -20.31,-21.1 -3.27,-2.1 -6.67,-4 -10.2599,-5.5 -5.31,-2.2 -10.91,-3.6 -16.73,-3.8 -13.07,-0.4 -26.8999,4.7 -39.5699,19.1 z"
     id="path1346"
     style="stroke:none;stroke-width:0.2" /><path
     d="m 3660.815,4197.1456 c 1.63,1.04 2.11,3.2 1.07,4.83 -1.04,1.64 -3.21,2.12 -4.84,1.08 -22.7599,-13.57 -34.0799,-45.05 -31.8399,-76.18 2.15,-29.8 16.9899,-58.79 44.2899,-72.31 23.0699,-10.98 44.8299,-8.57 61.5998,1.33 18.58,10.98 30.9499,31.23 32.6599,52.1 2.06,28.1 -6.4,52.22 -20.8299,69.98 -16.3,20.07 -39.9999,32.07 -63.8299,32.6 -1.93,0.1 -3.5799,-1.39 -3.6799,-3.32 -0.1,-1.93 1.3899,-3.58 3.3199,-3.68 21.28,-1.7 41.8099,-13.61 55.4599,-32.32 11.78,-16.15 18.28,-37.46 15.34,-61.88 -1.79,-16.16 -11.96,-31.35 -26.46,-39.74 -12.8899,-7.45 -29.3599,-9.42 -47.0698,-1.22 -23.39,10.39 -35.88,34.71 -38.96,59.62 -3.3799,27.41 4.38,55.91 23.77,69.11 z"
     id="path1348"
     style="stroke:none;stroke-width:0.2" /><path
     d="m 3657.045,4224.4455 c -0.07,0 -0.22,0.09 -0.3,0.1 -0.3,0.03 -0.6,0.1 -0.91,0.16 -1.19,0.24 -2.41,0.57 -3.65,0.82 -3.43,0.68 -6.95,1.02 -10.4,-0.14 -3.09,-1.04 -6.3999,-2.84 -9.2799,-6.96 -4.21,-6.4799 -4.31,-12.3799 -1.24,-17.5599 1.77,-3.01 4.25,-5.78 7.0299,-7.89 3.32,-2.52 6.55,-4.18 7.57,-4.85 1.46,-1.27 3.67,-1.12 4.95,0.33 1.27,1.46 1.12,3.67 -0.33,4.95 -1.03,1.18 -5.54,5.37 -7.95,10.32 -0.61,1.23 -0.71,2.56 -0.61,3.85 0.06,0.75 0.83,1.19 1.53,1.88 1.09,1.17 2.17,1.17 3.15,1.06 1.03,-0.13 2.03,-0.49 3.05,-0.75 3.11,-0.81 6.21,-1.4 9.15,-1 1.6,0.22 3.2,0.62 4.73,1.42 3.08,1.7 5.67,4.1 8.02,6.6399 0.73,0.79 1.36,1.63 2.13,2.29 0.4,0.34 0.65,0.85 1.14,1.02 1.4099,0.47 3.1399,0.36 5.6699,-1 1.51,-0.79 2.77,-1.7 3.63,-2.79 1.81,-2.2699 2.67,-4.3799 2.67,-4.3799 0.3,-1.91 2.1,-3.21 4.01,-2.91 1.91,0.31 3.21,2.1 2.91,4.01 0,0 -0.23,3.6199 -2.07,7.8199 -1.05,2.38 -2.84,4.68 -5.21,6.81 -5.72,5.03 -10.5199,5.48 -14.4299,5.03 -3.25,-0.38 -6.01,-2.15 -8.78,-4.17 -2,-1.46 -3.87,-3.32 -6.27,-4.22 0.04,0.01 0.07,0.07 0.09,0.11 z m 0,0 c 0.02,0 0.04,0.01 0.04,0.04 0,0.03 -0.02,0 -0.04,-0.04 z"
     id="path1350"
     style="stroke:none;stroke-width:0.2" /><path
     d="m 3739.2648,4412.6955 c 0.75,-3.3 1.97,-6.1 3.4,-8.3 3.65,-5.5 9,-7.7 13.92,-7.1 6.9399,0.8 10.2799,4.5 11.6699,8.4 1.76,5 -0.17,12.2 -6.43,17.4 -2.41,2 -5.4999,3.8 -9.1099,4.9 2.04,8.6 8.2099,19.3 20.9099,30.6 12.97,11.4999 32.3799,23.3999 60.8199,34.3999 1.83,0.7 2.78,2.7 2.14,4.5 -0.64,1.8 -2.65,2.8 -4.47,2.1 -50.8599,-16.4 -75.5898,-37.5 -86.2998,-55.2999 -3.29,-5.4 -5.32,-10.7 -6.39,-15.5 -3.55,-0.6 -7.32,-1.8 -11.22,-3.9 -11.8699,-6.6 -24.2299,-18.1 -35.3899,-33 -12.85,-17.2 -24.3399,-39 -32.5899,-61.98 -14.28,-39.87 -18.81,-83.56 -5.21,-114.57 0.72,-1.7899 2.77,-2.6599 4.56,-1.9299 1.79,0.72 2.66,2.7699 1.93,4.5599 -11.07,29.8 -3.74,70.3 11.34,107.1 8.7299,21.32 20.1799,41.32 32.5199,57.22 9.88,12.8 20.1899,23.1 30.4599,28.8 1.17,0.6 2.32,1.2 3.44,1.6 z m 14.66,-2.5 c 0.39,-0.4 0.58,-0.7 0.23,-0.7 -0.3,-0.1 -0.34,0.3 -0.23,0.7 z m 1,1.7 c 0.22,0.2 0.41,0.2 0.53,-0.1 0.06,-0.1 -0.1,-0.1 -0.3,-0.1 -0.06,0 -0.14,0.1 -0.23,0.2 z"
     id="path1352"
     style="stroke:none;stroke-width:0.2" /><path
     d="m 3809.2046,4400.5955 c -1.93,0 -3.49,-1.6 -3.48,-3.5 0.01,-1.9 1.58,-3.5 3.52,-3.5 0,0 40.5199,-2 75.7098,-3.1 11.13,-0.4 21.7,-0.6 30.28,-0.7 5.2699,-0.1 9.7899,-0.1 13.1999,-0.1 0.71,-7.3 0.3,-14.2 -1.07,-20.5 -2.01,-9.3 -5.99,-17.3 -11.7899,-24 -11.61,-13.22 -29.63,-20.99 -50.9199,-21.64 -1.93,0.03 -3.53,-1.52 -3.56,-3.45 -0.03,-1.94 1.52,-3.53 3.45,-3.56 24.3699,-1.51 45.7299,5.89 60.2098,19.98 10.87,10.57 17.81,25.07 19.3,42.47 0.53,6.3 0.23,13 -0.79,20 -0.63,3.9 -3.99,6.7 -7.92,6.7 0,0 -8.1,0 -20.1899,-0.2 -8.57,-0.2 -19.15,-0.5 -30.27,-1 -35.1699,-1.4 -75.6798,-3.9 -75.6798,-3.9 z"
     id="path1354"
     style="stroke:none;stroke-width:0.2" /><path
     d="m 3865.1845,4329.1255 c -0.78,1.77 -2.85,2.58 -4.62,1.81 -1.77,-0.78 -2.58,-2.84 -1.81,-4.62 7.48,-19.72 -1.08,-37.5 -15.99,-47.29 -7.1699,-4.71 -15.8399,-7.4 -24.9699,-7.6 -8.22,-0.18 -16.81,1.75 -25.0099,6.51 -2.7,1.52 -6.03,1.34 -8.55,-0.46 -2.53,-1.8 -3.78,-4.89 -3.23,-7.93 2.04,-10.17 2.75,-19.55 2.41,-28.2 -0.38,-10.1 -2.15,-19.16 -5.28,-27.2499 -7.21,-18.61 -20.92,-32.05 -37.9799,-40.38 -1.77,-0.77 -2.59,-2.83 -1.83,-4.61 0.77,-1.77 2.83,-2.59 4.61,-1.83 20.1099,7.57 37.0099,21.4 46.8499,41.75 5.97,12.3299 9.2399,27.0899 8.8799,44.2699 -0.03,1.7 -0.11,3.42 -0.23,5.16 6.75,-1.93 13.51,-2.62 20.05,-2.16 11.91,0.83 23.0799,5.18 31.9099,12.1 17.58,13.77 26.55,37.09 14.79,60.73 z M 3637.295,4173.5856 c 1.69,-0.94 3.82,-0.32 4.76,1.37 0.94,1.69 0.32,3.83 -1.37,4.76 -3.36,2.83 -6.1699,5.87 -9.2299,8.97 -2.93,2.97 -5.54,6.08 -8.31,9.18 -1.44,1.6 -2.87,3.2 -4.37,4.75 -2.26,2.34 -4.63,4.51 -6.86,6.93 -4.09,4.42 -8.03,8.7199 -11.35,14.0099 -0.72,1.79 -2.77,2.65 -4.56,1.93 -1.7899,-0.73 -2.6599,-2.78 -1.9299,-4.57 1.4699,-6.8599 3.5299,-13.1299 6.6099,-19.1599 2.1,-4.1 4.63,-7.92 7.65,-11.35 1.21,-1.37 2.57,-2.6 3.97,-3.77 2.1,-1.76 4.26,-3.4 6.61,-4.82 5.83,-3.53 11.86,-6.06 18.3799,-8.23 z"
     id="path1356"
     style="stroke:none;stroke-width:0.2" /></g>&#10;</svg>
