<?xml version="1.0" encoding="UTF-8" standalone="no"?>
<svg
   width="2783.3481"
   height="3386.449"
   viewBox="0 0 2783.3482 3386.449"
   version="1.1"
   xml:space="preserve"
   style="clip-rule:evenodd;fill-rule:evenodd;stroke-linejoin:round;stroke-miterlimit:2"
   id="svg5353"
   xmlns="http://www.w3.org/2000/svg"
   xmlns:svg="http://www.w3.org/2000/svg"><defs
   id="defs5353" />&#10;    <g
   id="vectorly-UNI-globe"
   style="stroke:none;stroke-width:0.2"
   transform="matrix(4.9999999,0,0,4.9999999,-12572.547,-48407.199)"><path
     d="m 2624.743,10145.671 c 1.5302,1.182 1.7973,3.395 0.6121,4.913 -1.1911,1.528 -3.3965,1.804 -4.9199,0.611 -46.4221,-35.536 -77.2383,-85.888 -89.2929,-140.664 -11.9588,-54.3363 -5.4087,-112.9962 22.51,-166.0398 31.6812,-59.903 84.7255,-101.3412 144.8306,-119.7619 60.3052,-18.4801 127.666,-13.7234 187.6728,18.2511 59.8385,32.3011 101.0495,85.8127 119.0168,146.2763 17.9091,60.2794 12.7364,127.4033 -19.6511,186.9553 -32.3278,59.195 -85.5753,99.815 -145.6172,117.408 -59.6841,17.494 -126.0459,12.287 -184.8636,-19.897 -1.7045,-0.915 -2.3477,-3.038 -1.4331,-4.743 0.9145,-1.704 3.0453,-2.353 4.7498,-1.439 57.246,30.118 121.3174,34.18 178.6303,16.4 56.9468,-17.656 107.216,-56.957 137.1849,-113.819 29.914,-56.516 34.0038,-119.8164 16.6439,-176.5362 -17.3052,-56.5238 -55.9799,-106.5488 -112.2145,-136.5271 -56.072,-30.294 -119.1404,-34.8734 -175.8143,-18.0572 -56.8829,16.8846 -107.4026,55.3008 -137.9783,111.4759 -27.4211,50.143 -34.4129,105.9955 -23.8863,157.9926 10.7406,53.043 39.6415,102.118 83.82,137.201 z"
     id="path2084"
     style="stroke:none;stroke-width:0.244854" /><path
     d="m 2876.3854,9721.7371 c -1.7646,-0.7926 -2.5483,-2.8786 -1.7557,-4.6432 0.7913,-1.7652 2.8652,-2.5493 4.6298,-1.7567 l 17.3247,8.1852 c 66.1997,34.3323 112.2504,92.3668 132.9784,158.3582 12.7163,40.5035 15.8856,84.0271 8.4109,126.8204 -4.7989,27.497 -14.1266,54.677 -27.986,80.628 -17.0807,31.363 -39.3708,58.096 -65.3538,79.516 -26.8373,22.119 -57.5454,38.644 -90.172,48.959 -63.9625,20.226 -135.3192,16.7 -199.5368,-14.765 -1.7478,-0.83 -2.4999,-2.914 -1.6738,-4.661 0.8325,-1.758 2.9223,-2.503 4.67,-1.673 62.6996,28.614 131.4609,30.178 192.616,9.185 30.7475,-10.552 59.5266,-26.848 84.6664,-48.288 24.1801,-20.63 44.9976,-46.009 60.7454,-75.805 13.1545,-24.402 21.8699,-49.998 26.6656,-75.862 7.5027,-40.4345 5.2151,-81.5573 -5.9484,-120.1636 -18.4768,-63.8582 -61.0191,-120.766 -123.6798,-155.5434 z"
     id="path2086"
     style="stroke:none;stroke-width:0.27178" /><path
     d="m 2832.8511,10190.405 c -4.4497,-3.825 -26.5446,-18.309 -41.9487,-7.544 -15.412,10.77 -67.8175,4.636 -74.2334,-6.84 -6.4238,-11.471 35.9311,-51.936 45.3105,-56.935 9.3793,-4.999 26.1113,-21.593 23.8791,-31.047 -3.9008,-16.463 -20.5737,-29.502 -8.7287,-43.203 11.845,-13.701 39.3815,-40.481 75.7771,-7.776 23.5283,21.14 15.0055,41.23 20.0779,49.544 7.8778,12.919 15.0927,28.3 18.616,26.474 3.5149,-1.822 -7.5115,-46.41 -6.07,-52.64 2.4997,-10.801 -19.1894,-27.849 -26.6774,-31.802 -23.4957,-12.411 -12.1248,-40.7937 10.6589,-22.54 8.7957,-6.8084 20.6131,-3.648 34.9051,7.663 0,0 2.9713,-14.6109 22.044,-9.534 27.9533,7.451 59.7473,-9.3967 70.3012,29.221 -4.3569,13.499 -9.9833,26.794 -16.926,39.733 -32.1229,59.875 -86.209,100.486 -146.9856,117.226 z"
     id="path2090"
     style="stroke:none;stroke-width:0.181425" /><path
     d="m 3006.1606,9929.4206 c -16.7169,-2.7567 -38.9509,9.8947 -55.2468,9.2822 -27.3658,-1.0267 -43.0906,-12.5514 -60.7369,-14.2509 -22.8795,-2.2006 -25.1217,-20.5438 -13.0673,-26.2255 12.0548,-5.681 40.7237,-15.5869 46.9863,-27.1277 13.9805,-25.7674 37.1066,-29.6712 60.4295,-14.3296 11.0034,22.9047 18.3158,47.4534 21.6352,72.6515 z"
     id="path2094"
     style="stroke:none;stroke-width:0.181425" /><path
     d="m 2868.5001,9743.1456 c 4.6654,2.1299 9.2899,4.4249 13.8726,6.8834 37.7904,20.28 67.9133,49.3044 89.1938,83.2424 -12.5067,6.6583 -22.725,7.2472 -31.2354,-0.1092 -11.4171,-9.8691 -25.8793,2.4369 -29.5684,-8.5065 -7.1687,-21.2337 -24.9785,-55.7823 -42.2626,-81.5101 z"
     id="path2098"
     style="stroke:none;stroke-width:0.181425" /><path
     d="m 2787.4214,9722.3086 c 24.1423,1.7932 48.3022,7.2999 71.6415,16.7736 1.873,13.9664 8.0765,32.3856 19.4838,48.2791 19.3585,26.9623 9.5958,49.0229 -12.9295,42.5557 -21.0944,-6.0573 -35.4408,1.4965 -38.9545,7.185 -3.5216,5.693 36.7381,7.5901 35.5247,21.7442 -2.3818,27.8234 -30.3292,38.0355 -39.0825,38.3862 -15.774,0.6363 -38.3561,-7.9433 -48.4825,-10.8054 -41.5611,-11.771 -52.3052,-32.6845 -61.1848,-27.8899 -8.8722,4.7893 -12.176,29.9273 -7.3989,47.6899 13.6971,50.9015 5.7471,68.7722 8.2672,79.6866 4.3591,18.8894 6.3099,33.9154 -4.7354,37.2264 -37.5844,11.264 -40.8359,-2.423 -53.3266,-1.234 -43.9628,4.171 -57.3484,-7.856 -67.5055,-2.408 -10.165,5.453 -22.9312,18.647 -28.753,14.314 -5.83,-4.328 0.1395,-23.162 20.9346,-38.2875 20.7952,-15.1254 51.1556,-24.6232 56.5982,-39.0718 10.2694,-27.2427 22.0261,-44.6883 43.5629,-48.8048 6.0379,-1.1533 8.1121,-2.6043 5.6135,-25.8545 -2.5068,-23.2465 -15.9258,-49.7362 1.554,-62.2405 30.1253,-21.5524 19.9038,-39.4199 38.5897,-45.1542 30.5116,-9.363 41.9749,-27.6616 60.5831,-52.0901 z"
     id="path2102"
     style="stroke:none;stroke-width:0.181425" /><path
     d="m 3063.6736,10000.912 c -0.46,-1.8 0.7,-3.7 2.57,-4.2 1.88,-0.5 3.78,0.7 4.24,2.6 0,0 4.9799,12.7 -11.71,26.2 -3.85,3.1 -9.02,6.1 -15.9,8.8 -3.66,1.4 -7.84,2.7 -12.5999,3.6 -3.86,0.8 -8.1,1.3 -12.75,1.6 -5.73,0.4 -11.99,0.5 -18.97,0.2 -5.82,-0.3 -11.9599,-0.8 -18.7099,-1.6 -1.94,0.1 -3.52,-1.5 -3.53,-3.4 -0.02,-2 1.54,-3.6 3.47,-3.6 7.76,-0.9 14.6399,-2.1 21.0499,-3.2 7.74,-1.4 14.44,-2.8 20.43,-4.2 3.82,-0.9 7.31,-1.7 10.52,-2.5 6.0299,-1.5 10.9799,-2.8 15.0299,-4.4 17.14,-6.7 16.86,-15.9 16.86,-15.9 z"
     id="path2736"
     style="stroke:none;stroke-width:0.2" /><path
     d="m 3039.5136,10058.712 c 0.45,-1.9 2.34,-3 4.22,-2.6 1.88,0.5 3.05,2.4 2.61,4.2 0,0 -1.32,12.6 -17.4199,21.4 -4.43,2.4 -10.05,4.4 -17.13,5.5 -3.88,0.6 -8.22,0.9 -13.01,0.6 -3.9,-0.2 -8.0899,-0.8 -12.5899,-1.7 -5.52,-1.2 -11.45,-2.9 -17.93,-5.2 -5.35,-1.9 -10.91,-4.3 -16.97,-7.1 -1.8399,-0.5 -2.8499,-2.5 -2.2599,-4.4 0.6,-1.8 2.5699,-2.8 4.4099,-2.2 6.31,1.2 12.06,2 17.49,2.7 6.34,0.9 12.01,1.3 17.23,1.6 4.0499,0.3 7.7599,0.3 11.1899,0.4 4,0.1 7.59,0.1 10.85,0 5.51,-0.3 9.99,-0.9 13.7,-2.1 12.1999,-3.7 15.6099,-11.1 15.6099,-11.1 z"
     id="path2738"
     style="stroke:none;stroke-width:0.2" /><path
     d="m 2555.3848,9767.8421 c 1.36,-1.37 3.59,-1.38 4.96,-0.02 1.37,1.37 1.38,3.59 0.02,4.96 0,0 -16.5799,19.4 3.21,53.02 3.69,6.2699 8.63,12.9799 15,20.2899 5.04,5.79 11.0299,11.87 17.9799,18.42 5.8,5.46 12.21,11.28 19.48,17.36 9.12,7.63 19.4399,15.73 31.2599,24.26 9.96,7.17 20.83,14.71 32.9499,22.49 1.68,0.96 2.27,3.1 1.31,4.78 -0.96,1.68 -3.1,2.27 -4.78,1.31 -13.0499,-6.53 -24.8999,-12.83 -35.6399,-19.12 -12.9499,-7.57 -24.2599,-14.94 -34.1399,-22.17 -8.03,-5.86 -15.12,-11.59 -21.2899,-17.25 -7.58,-6.95 -13.81,-13.75 -18.96,-20.22 -9.55,-11.99 -15.48,-22.91 -18.9499,-32.5499 -13.3,-36.95 7.5899,-55.56 7.5899,-55.56 z"
     id="path2740"
     style="stroke:none;stroke-width:0.2" /><path
     d="m 2519.8649,9848.292 c 1.49,-1.24 3.7,-1.03 4.93,0.47 1.23,1.49 1.02,3.7 -0.47,4.93 0,0 -2.88,3.62 -0.02,12.51 2.33,7.24 8.52,16.97 21.46,30.71 6.0199,6.39 13.5299,13.48 22.6299,21.73 4.8,4.35 9.99,9.08 15.68,14.13 7.2199,6.42 15.1599,13.41 24.0499,20.94 11.01,9.3 23.2299,19.5 37.2499,30.5 1.59,1.1 1.99,3.3 0.89,4.9 -1.1,1.6 -3.28,2 -4.87,0.9 -15.3799,-9.3 -29.0099,-17.9 -41.0199,-26.1 -9.81,-6.8 -18.5299,-13.17 -26.2499,-19.33 -6.15,-4.91 -11.67,-9.64 -16.55,-14.24 -9.42,-8.86 -16.6799,-17.02 -22.4199,-24.27 -8.02,-10.13 -12.98,-18.6 -16.03,-25.56 -10.8,-24.61 0.74,-32.22 0.74,-32.22 z"
     id="path2742"
     style="stroke:none;stroke-width:0.2" /><path
     d="m 2890.094,9683.4821 c 0.81,-1.76 2.89,-2.53 4.65,-1.72 1.75,0.81 2.52,2.89 1.71,4.65 0,0 -1.62,8.16 -4.74,18.69 -0.7,2.36 -1.52,4.77 -2.45,7.22 -0.58,1.57 -1.18,3.16 -1.93,4.68 -1.93,3.91 -4.19,7.59 -6.34,11 -5.86,9.25 -10.9499,15.84 -10.9499,15.84 -0.81,1.76 -2.89,2.53 -4.65,1.72 -1.76,-0.81 -2.53,-2.89 -1.72,-4.65 0,0 1.68,-8.15 4.9,-18.62 1.19,-3.85 2.5199,-7.97 4.2299,-11.97 0.67,-1.56 1.48,-3.05 2.29,-4.52 1.26,-2.3 2.55,-4.49 3.89,-6.56 5.97,-9.22 11.11,-15.76 11.11,-15.76 z m -225.8894,491.0299 c 0.81,-1.7 2.89,-2.5 4.65,-1.7 1.7599,0.8 2.5299,2.9 1.7199,4.7 0,0 -1.31,7.4 -4.0199,17.1 -0.6,2.2 -1.33,4.3 -2.16,6.6 -0.52,1.4 -1.06,2.9 -1.74,4.3 -1.77,3.5 -3.86,6.8 -5.86,9.9 -5.47,8.4 -10.23,14.3 -10.23,14.3 -0.81,1.7 -2.89,2.5 -4.65,1.7 -1.75,-0.8 -2.52,-2.9 -1.72,-4.7 0,0 1.37,-7.4 4.19,-17 1.03,-3.5 2.19,-7.3 3.74,-10.9 0.6,-1.4 1.35,-2.8 2.1,-4.1 1.16,-2.1 2.35,-4.1 3.6,-6 5.58,-8.3 10.38,-14.2 10.38,-14.2 z"
     id="path2744"
     style="stroke:none;stroke-width:0.2" /><path
     d="m 2733.9044,10224.512 c -0.68,-1.8 0.23,-3.8 2.04,-4.5 1.81,-0.7 3.83,0.2 4.52,2 0,0 4.08,6 8.26,17.7 0.81,2.3 1.4899,4.7 2.1099,7.4 0.37,1.6 0.73,3.3 0.91,5 0.4,4 0.39,8.3 0.07,12.8 -0.42,6 -1.53,12.1 -2.9199,18.9 -0.04,2 -1.65,3.5 -3.58,3.5 -1.94,-0.1 -3.47,-1.7 -3.43,-3.6 -1.02,-6.6 -2.54,-12.3 -3.7,-17.9 -0.86,-4.1 -1.8,-8 -2.3,-11.6 -0.59,-4.3 -0.7,-8.3 -0.91,-11.8 -0.69,-11.4 -1.07,-17.9 -1.07,-17.9 z"
     id="path2746"
     style="stroke:none;stroke-width:0.2" /><path
     d="m 2789.6743,10222.812 c 0.7599,-1.8 2.8099,-2.6 4.5899,-1.9 1.79,0.8 2.62,2.8 1.87,4.6 0,0 -0.6,6.4 -1.57,17.6 -0.3,3.5 -0.5,7.4 -1.18,11.6 -0.58,3.6 -1.61,7.4 -2.54,11.5 -1.2599,5.5 -2.8899,11.1 -4.0099,17.5 0.01,2 -1.55,3.5 -3.48,3.6 -1.93,0 -3.52,-1.6 -3.53,-3.5 -1.29,-6.8 -2.28,-12.9 -2.59,-18.8 -0.24,-4.6 -0.15,-8.8 0.34,-12.7 0.22,-1.7 0.62,-3.4 1.02,-5 0.69,-2.6 1.44,-5 2.3,-7.2 4.5,-11.6 8.78,-17.3 8.78,-17.3 z"
     id="path2748"
     style="stroke:none;stroke-width:0.2" /><path
     d="m 2716.3675,10287.133 c 5.4611,1.271 13.4948,1.964 23.1383,2.427 8.3195,0.462 17.7523,0.693 27.7719,0.346 10.0196,0.232 19.4524,-0.231 27.7569,-0.693 8.7257,-0.462 16.1426,-1.156 21.4984,-2.196 -5.7168,-1.849 -14.0063,-3.583 -23.8905,-4.97 -1.9256,-0.115 -3.3699,-1.849 -3.2345,-3.814 0.1504,-1.849 1.8504,-3.351 3.7761,-3.12 13.6302,0.116 24.6427,1.387 31.1269,3.236 3.9717,1.156 6.4991,2.889 7.8682,4.392 1.4292,1.502 1.8354,3.351 1.9407,4.97 0.1204,2.311 -0.9177,4.622 -3.4151,6.818 -2.0159,1.85 -5.9876,3.699 -11.5841,5.317 -6.4541,1.965 -15.4205,3.698 -25.9967,4.738 -7.8532,0.809 -16.6241,1.156 -25.8463,1.272 -9.2072,-0.232 -17.963,-0.694 -25.8162,-1.618 -10.5461,-1.156 -19.4674,-2.89 -25.9064,-4.739 -5.5062,-1.618 -9.4178,-3.467 -11.4036,-5.316 -2.3921,-2.081 -3.385,-4.277 -3.2496,-6.472 0.1504,-2.659 2.2115,-6.588 8.2744,-8.553 5.446,-1.849 14.8187,-3.12 26.6436,-3.583 1.9257,-0.231 3.6407,1.156 3.8363,3.121 0.1956,1.964 -1.2186,3.698 -3.1443,3.814 -8.4399,1.387 -15.4054,2.889 -20.1444,4.623 z m -4.6939,-1.272 c -0.09,-0.462 -0.2557,-0.809 -0.5416,-0.346 -0.1504,0.115 0.1204,0.346 0.5416,0.346 z"
     id="path2750"
     style="stroke:none;stroke-width:0.263722" /><path
     d="m 2637.9446,10327.112 c 2.11,1.2 4.86,2.2 8.06,3.3 9.3,3.2 22.26,5.6 37.4599,7.6 12.66,1.6 26.8399,2.8 41.7699,3.8 13.6,0.9 27.7999,1.6 42.0799,1.9 27.3799,0.8 65.5398,0.3 93.5998,-2.9 13.1599,-1.5 24.0299,-3.4 30.2599,-6.4 2.04,-0.9 3.63,-1.7 3.99,-3 0.46,-1.8 2.36,-3 4.24,-2.5 1.88,0.4 3.03,2.3 2.57,4.2 -0.59,2.8 -3.01,5.6 -7.27,8.1 -6.55,3.7 -18.15,6.9 -32.3599,9.4 -28.34,5.1 -67.1799,7.5 -95.0998,8.1 -17.11,0.1 -34.1799,-0.2 -50.1899,-1.5 -18.5799,-1.4 -35.7499,-3.8 -50.0598,-6.8 -12.36,-2.6 -22.62,-5.8 -29.94,-9.2 -6.25,-2.9 -10.5899,-6.2 -12.8699,-9.5 -1.2,-1.7 -1.77,-3.8 -1.12,-6.1 0.31,-1.1 0.91,-2.5 2.2,-3.9 1.25,-1.4 3.38,-3.1 6.3399,-5 18.69,-11.7 73.9099,-33.6 73.9099,-33.6 1.78,-0.7 3.8399,0.1 4.6099,1.9 0.77,1.7 -0.05,3.8 -1.8199,4.6 0,0 -52.4299,24.7 -69.9699,37.2 -0.13,0.1 -0.26,0.2 -0.39,0.3 z m -3.56,-2.8 z"
     id="path2752"
     style="stroke:none;stroke-width:0.2" /><path
     d="m 2869.7241,10307.212 c 1.5499,-1.1 3.7499,-0.8 4.8999,0.7 1.15,1.6 0.83,3.8 -0.73,4.9 -7.0599,5.9 -18.4499,13 -41.9999,17.7 -10.6099,2.1 -23.7199,3.7 -40.0999,4.2 -8.0599,0.3 -16.9199,0.2 -26.6499,-0.1 -13.33,-1 -25.1799,-1.7 -35.6499,-2.6 -25.2799,-2.2 -42.6599,-4.5 -53.8699,-7.4 -14.3999,-3.7 -19.6999,-9.1 -19.3799,-16.4 -0.02,-1.9 1.53,-3.5 3.46,-3.5 1.94,-0.1 3.53,1.5 3.55,3.4 0.12,1.8 1.22,3.1 3.01,4.1 2.49,1.5 6.1999,2.4 11.2599,3.1 11.11,1.7 28.1,1.9 52.7199,2.3 10.49,0.2 22.3299,0.6 35.6599,1 12.08,0.8 22.77,1 32.2599,1.1 12.68,0.1 23.17,-0.2 31.98,-1 21.6099,-2.2 32.6299,-6.9 39.5799,-11.5 z"
     id="path2754"
     style="stroke:none;stroke-width:0.2" /></g>&#10;</svg>
