<?xml version="1.0" encoding="UTF-8" standalone="no"?>
<svg
   width="3569.1365"
   height="2154.2129"
   viewBox="0 0 3569.1365 2154.2129"
   version="1.1"
   xml:space="preserve"
   style="clip-rule:evenodd;fill-rule:evenodd;stroke-linejoin:round;stroke-miterlimit:2"
   id="svg5353"
   xmlns="http://www.w3.org/2000/svg"
   xmlns:svg="http://www.w3.org/2000/svg"><defs
   id="defs5353" />&#10;    <g
   id="vectorly-UNI-truck-delivery-car"
   transform="matrix(4.9999999,0,0,4.9999999,-208.38875,-69169.504)"
   style="stroke-width:0.2"><path
     d="m 512.0149,13964.01 c -1.927,0.2 -3.63399,-1.3 -3.80999,-3.2 -0.176,-1.9 1.245,-3.6 3.17099,-3.8 0,0 31.46592,-4.8 71.77282,-10.1 9.21798,-1.2 18.89296,-2.3 28.76393,-3.4 6.34799,-0.7 12.76997,-1.4 19.20695,-1.9 16.44996,-1.4 32.91792,-2.4 48.16688,-3.3 40.5719,-2.3 72.39482,-3.3 72.39482,-3.3 1.926,-0.1 3.633,1.3 3.809,3.2 0.176,1.9 -1.245,3.6 -3.171,3.8 0,0 -31.47592,4.8 -71.78882,9.9 -15.15196,1.9 -31.52592,4 -47.95488,5.6 -6.42898,0.6 -12.87197,1.1 -19.24195,1.5 -9.90498,0.8 -19.62695,1.4 -28.90893,1.9 -40.5869,2.1 -72.40982,3.1 -72.40982,3.1 z"
     id="path3800"
     style="stroke:none;stroke-width:0.2" /><path
     d="m 591.77732,14004.202 c -1.92595,0.205 -3.63443,-1.272 -3.80964,-3.172 -0.1752,-1.9 1.24501,-3.623 3.1703,-3.828 0,0 20.32275,-3.789 46.51499,-7.79 5.97779,-0.904 12.25044,-1.694 18.66209,-2.477 4.11953,-0.496 8.288,-0.99 12.47327,-1.284 10.69854,-0.873 21.40521,-1.348 31.32678,-1.761 26.45655,-1.002 47.13688,-0.99 47.13688,-0.99 1.92847,-0.106 3.63443,1.272 3.80963,3.172 0.17838,1.999 -1.24566,3.623 -3.17095,3.828 0,0 -20.33384,3.788 -46.53179,7.59 -9.8265,1.414 -20.43755,2.988 -31.11538,4.061 -4.17687,0.394 -8.36539,0.688 -12.50881,0.884 -6.44336,0.483 -12.76257,0.773 -18.80435,0.977 -26.47409,0.901 -47.15302,0.79 -47.15302,0.79 z"
     id="path3802"
     style="stroke:none;stroke-width:0.161202" /><path
     d="m 174.21974,14111.81 c 3.41499,-0.8 11.83297,-4 20.57695,-7.5 7.62598,-3 15.35196,-6.3 19.76795,-8.7 1.99599,-1.1 3.92099,-0.8 5.66898,-0.4 1.907,0.5 4.01199,2.1 5.32399,5.4 0.974,2.4 1.391,9.1 -0.419,16.8 -1.342,5.8 -3.84299,12.2 -7.63098,17.5 -4.28499,6 -10.06198,10.7 -17.17496,12.4 -10.13697,2.1 -18.93195,-2.6 -24.50894,-10.2 -4.60099,-6.3 -7.11798,-13.9 -6.85498,-18.4 0.255,-4.3 2.22199,-6.8 5.25099,-6.9 z m 45.98788,-2.8 c 0.143,-0.1 0.287,-0.1 0.433,-0.2 -0.142,0.1 -0.286,0.1 -0.433,0.2 z m -8.78098,-3.3 c 0.101,-0.4 0.265,-0.8 0.037,-0.8 -0.46499,0.1 -0.33999,0.4 -0.037,0.8 z m -34.99591,12.6 c 0.335,-0.2 0.507,-0.3 0.191,-0.4 -0.238,-0.1 -0.271,0.1 -0.191,0.4 z m 0.125,0.4 c 0.243,0.6 0.694,1.4 0.946,2.1 1.426,3.7 4.83799,8.3 9.09498,11.4 2.82899,2.1 6.23298,3.1 9.84597,1.8 4.84899,-1.7 7.56598,-6.5 9.87098,-11.1 1.79599,-3.7 3.15299,-7.5 4.01099,-10.8 -3.82199,1 -8.04998,2.1 -12.26597,3 -8.68798,1.8 -17.13996,3.2 -21.50295,3.6 z"
     id="path3804"
     style="stroke:none;stroke-width:0.2" /><path
     d="m 305.61441,14068.21 c 0.234,-4.4 7.87298,-16.2 16.03396,-25.6 4.16999,-4.8 8.51498,-8.9 11.72797,-11.2 2.302,-1.7 4.44299,-2.5 5.93599,-2.8 4.48199,-1 9.61397,0.1 14.30796,2.6 3.84899,2 7.35198,5.1 9.74898,8.6 4.55899,6.7 5.30998,14.7 0.849,20.8 -2.106,2.8 -5.65499,5.7 -10.50698,7.9 -6.54098,2.9 -15.28496,5.2 -23.40694,6.3 -9.99198,1.3 -18.86995,0.8 -21.88495,-1.1 -2.29199,-1.5 -3.35999,-3.3 -2.80499,-5.5 z m 36.20791,-25 c -0.003,0 -0.007,0 -0.011,0 0.004,0 0.007,0 0.011,0 z m -27.93793,23.9 c 0.2,0 0.397,0 0.581,0 5.60899,-0.3 14.76596,-3 23.08794,-6.4 6.29099,-2.6 12.10897,-5.4 14.04697,-8.7 0.103,-0.1 -0.114,-0.3 -0.135,-0.5 -0.047,-0.4 -0.254,-0.8 -0.432,-1.2 -0.72,-1.6 -2.027,-3.1 -3.52899,-4.3 -1.75,-1.5 -3.62999,-3 -5.53699,-2.8 -0.615,0.3 -2.06399,1 -3.13899,1.7 -3.50599,2.3 -7.86398,5.6 -12.03697,9.3 -4.24099,3.7 -8.31498,7.5 -11.10197,10.8 -0.667,0.8 -1.29,1.5 -1.805,2.1 z"
     id="path3806"
     style="stroke:none;stroke-width:0.2" /><path
     d="m 395.14819,13953.41 c -0.056,-0.5 -0.18,-0.7 -0.44,-0.6 -0.002,0 -0.004,0 -0.006,0 -0.818,-1.4 -0.604,-3.2 0.61,-4.3 1.406,-1.4 3.62599,-1.3 4.95499,0.1 0.74799,0.7 1.99499,4.4 2.75899,10.5 1.775,14.2 3.67999,44.4 4.96299,77.6 0.832,21.5 1.51599,44.2 1.72899,64.5 0.124,11.8 0.013,22.8 -0.105,32.2 -0.22,17.7 -0.645,30 -0.655,32.2 -0.14199,11.4 -1.55099,20 -4.54198,25.8 -3.73299,7.2 -9.39198,11.1 -17.87796,11.2 l -64.79584,6.3 c -1.92999,0.1 -3.59999,-1.3 -3.72599,-3.3 -0.127,-1.9 1.338,-3.6 3.26799,-3.7 5.29699,-0.5 33.68192,-6.2 51.22388,-9.3 6.32198,-1.1 11.28897,-1.9 13.44096,-2.1 3.28899,-0.2 5.34699,-1.9 6.62499,-4.8 2.01099,-4.6 2.33699,-11.2 1.96199,-19.9 -0.077,-2.2 -0.422,-14.6 -0.608,-32.4 -0.099,-9.4 -0.201,-20.4 -0.114,-32.2 0.14,-18.9 0.609,-39.9 0.97,-60.1 0.4,-22.4 0.878,-43.8 0.891,-60.1 0.008,-10.3 -0.096,-18.6 -0.456,-23.7 -0.099,-1.5 0.038,-3.1 -0.071,-3.9 z m 0,0 c -0.161,-0.2 -0.738,-0.5 -0.446,-0.6 0.125,0.2 0.274,0.4 0.446,0.6 z"
     id="path3808"
     style="stroke:none;stroke-width:0.2" /><path
     d="m 399.67418,13957.01 c 1.92199,0.2 3.30699,2 3.09099,3.9 -0.216,1.9 -1.95199,3.3 -3.87399,3.1 -8.20898,-0.5 -17.13996,1.5 -25.30594,4.4 -9.45197,3.3 -17.75495,8 -22.31894,11.9 -7.09098,5.8 -16.66696,20.4 -25.48394,35.6 -3.87599,6.6 -7.56698,13.4 -10.76897,19.7 -3.88299,7.7 -7.11098,14.6 -8.52498,19.8 -3.78299,12.9 -6.54698,30.5 -8.60298,47.3 -2.59399,21.3 -4.04799,41.1 -3.71699,48.6 0.177,1.9 -1.242,3.6 -3.16799,3.8 -1.927,0.1 -3.63499,-1.3 -3.81299,-3.2 -1.073,-7.6 -1.851,-28.1 -0.997,-50.1 0.689,-17.8 2.56799,-36.4 5.57999,-50.2 1.42899,-6 4.54598,-14.2 8.96697,-23.1 3.34,-6.7 7.40998,-13.9 11.80297,-20.7 10.50298,-16.5 22.79595,-31.5 31.08093,-37.4 5.71898,-4 15.78496,-8.7 27.13193,-11.5 9.49198,-2.3 19.77095,-3.4 28.92093,-1.9 z"
     id="path3810"
     style="stroke:none;stroke-width:0.2" /><path
     d="m 232.25959,14234.21 c -3.93299,-0.5 -6.71298,-2.4 -8.61098,-4.9 -3.19799,-4.3 -3.81699,-10.7 -3.24699,-14.9 0.18,-1.9 1.891,-3.4 3.81699,-3.2 1.926,0.2 3.34299,1.9 3.163,3.8 -0.124,2.4 0.24299,5.6 1.70699,8.2 0.936,1.6 2.57599,2.6 5.09199,2.5 4.04499,-0.2 6.15698,-2.6 7.38198,-5.5 1.694,-4 1.786,-8.9 1.789,-12.7 0.058,-15.9 5.30798,-33.2 14.47296,-45.5 7.54098,-10.2 17.82396,-16.8 29.77193,-17.9 14.82496,-1.2 25.72993,4.8 32.92191,14.8 3.85099,5.3 6.59399,12 8.10298,19.4 1.834,9 1.855,19.2 0.198,29.5 -2.76199,16.1 -9.30897,32.2 -19.60695,42.9 -7.91498,8.3 -17.86695,13.6 -29.81992,14 -11.41698,0.4 -22.05795,-2.8 -30.32093,-8.2 -8.94798,-5.8 -15.14496,-13.9 -16.81196,-22.3 z m 7.44898,-0.4 c 2.067,5.9 7.28499,11.1 14.05897,14.9 6.97398,3.8 15.72496,5.8 24.91594,4.9 10.82597,-1 18.87495,-7.7 24.67994,-16.8 5.70498,-8.8 9.13497,-20 10.49697,-31.2 1.588,-11.9 0.465,-23.5 -3.49199,-32.4 -3.87499,-8.7 -10.85297,-14.6 -21.72895,-14 -9.96997,0.5 -17.99395,7.4 -23.82694,16.6 -5.94898,9.4 -9.76597,21 -10.53297,32.1 -0.437,6.1 -1.618,14.4 -5.80999,19.8 -2.16299,2.8 -4.97598,5.1 -8.76098,6.1 z"
     id="path3812"
     style="stroke:none;stroke-width:0.2" /><path
     d="m 308.7284,14199.21 c 0.689,1.8 -0.22,3.8 -2.02799,4.5 -1.807,0.7 -3.83399,-0.2 -4.52299,-2 -3.42099,-6.6 -7.69198,-9.7 -12.04397,-9.4 -1.575,0.1 -2.92399,1.1 -4.35199,2.1 -2.19899,1.7 -3.93199,4.4 -5.44999,7.8 -1.94599,3.7 -2.28099,8 -2.31699,12 -0.047,5.2 0.425,9.9 1.641,12.3 1.65599,3.5 4.71498,5.5 7.97498,5.1 3.84599,-0.5 7.63198,-3.1 9.49597,-8.1 0.476,-1.9 2.385,-3 4.25999,-2.5 1.875,0.4 3.00999,2.3 2.534,4.2 -1.333,9.3 -7.35499,14.7 -13.77097,16.9 -7.95698,2.8 -16.84996,-0.4 -22.59394,-8.5 -2.375,-3.6 -5.15499,-10.9 -5.40299,-19.2 -0.193,-6.5 1.333,-13.5 4.72699,-19.5 6.72998,-10.4 15.64296,-15.6 23.78894,-14.5 7.35498,1.1 14.86496,6.5 18.05995,18.8 z"
     id="path3814"
     style="stroke:none;stroke-width:0.2" /><path
     d="m 292.72844,14148.71 c 1.569,1.2 1.924,3.4 0.793,4.9 -1.132,1.6 -3.32399,2 -4.89299,0.8 -7.90998,-5.1 -17.62895,0.5 -26.53893,9.2 -11.47397,11.3 -21.26195,28.8 -22.66794,42.8 -0.897,7.9 -5.95199,12.9 -13.29597,15.8 -5.21099,2.1 -11.82997,3 -18.35396,3.1 -6.15498,0.2 -12.19897,-0.3 -16.51896,-0.6 -8.35397,-0.6 -19.56895,-1.6 -31.88392,-3.3 -10.07497,-1.3 -20.87094,-2.9 -31.46192,-4.7 -29.226926,-4.9 -56.712857,-10.6 -62.849842,-13.2 -1.812996,-0.6 -2.736993,-2.7 -2.062995,-4.5 0.674998,-1.8 2.693993,-2.7 4.506989,-2 5.248987,1.6 25.734936,3.8 49.418878,6.1 14.82396,1.4 30.84692,2.7 45.23089,3.8 11.57497,0.9 22.05094,1.7 29.92692,1.9 6.40299,0.4 17.01296,1.5 25.37094,-0.1 2.14599,-0.4 4.13999,-0.9 5.65999,-1.9 0.85199,-0.6 1.60199,-1.3 1.78699,-2.4 2.93599,-16.4 15.50596,-36.6 30.16793,-48.6 13.15096,-10.8 27.60893,-15.1 37.6649,-7.1 z"
     id="path3816"
     style="stroke:none;stroke-width:0.2" /><path
     d="m 223.87661,14214.91 c 4.42799,-1.8 7.61999,-4.7 8.28198,-9.5 3.90199,-28 38.78191,-68.1 58.51986,-53.8 -0.836,0 -1.69,0 -2.56,0.1 -23.28894,1.6 -38.3849,30.5 -39.3029,56 -0.3,8.3 -1.80399,21.4 -13.50196,22.3 -0.355,0 -0.719,0 -1.092,0 -9.27198,0.1 -10.81397,-9.6 -10.34498,-15.1 z"
     id="path3818"
     style="stroke:none;stroke-width:0.2" /><path
     d="m 55.99703,14190.71 c 1.844996,0.6 2.871993,2.6 2.291995,4.4 -0.579999,1.9 -2.548994,2.9 -4.39499,2.3 -3.069992,-0.9 -5.741985,-3.7 -7.67598,-8.3 -2.084995,-4.9 -3.400992,-12.1 -4.05099,-20.5 -1.811996,-23.3 1.671995,-55.2 6.120984,-67.4 2.598994,-7.1 8.10398,-14.1 15.241963,-20.7 12.910968,-11.9 31.382922,-22.7 45.002888,-31.3 1.095,-0.7 2.48099,-2.6 4.41899,-5 3.33299,-4.3 7.46998,-10.2 12.20797,-17 11.83297,-17.1 27.01793,-40 41.4679,-58.5 12.39197,-15.9 24.53794,-28.5 33.28291,-32.8 3.146,-1.6 8.92898,-3 16.72196,-3.7 14.20297,-1.4 35.93591,-1.5 59.22286,-0.7 46.62188,1.6 99.43975,6.6 109.92372,9.4 1.878,0.5 3.02499,2.4 2.56,4.3 -0.465,1.9 -2.367,3 -4.24399,2.5 -10.42898,-2.3 -62.53585,-4.4 -108.40373,-4.1 -22.61295,0.2 -43.6829,0.9 -57.41086,2.8 -5.41399,0.7 -9.49298,1.4 -11.65197,2.6 -5.26499,2.8 -11.58097,9.6 -18.71196,18.1 -13.09296,15.7 -27.95093,37.5 -40.8129,55.9 -8.81297,12.6 -16.76495,23.7 -22.44594,30.5 -3.53699,4.2 -6.50698,7 -8.46998,8.2 -11.45297,6.7 -26.359934,14.8 -38.497904,23.9 -8.361979,6.2 -15.505961,12.7 -18.490954,19.9 -4.07199,9.6 -7.88898,33.2 -8.487979,53.5 -0.287999,9.8 0.11,18.8 1.739996,25.1 0.876998,3.3 1.646996,6 3.545991,6.6 z"
     id="path3820"
     style="stroke:none;stroke-width:0.2" /><path
     d="m 342.95932,13951.31 c 1.85199,-0.5 3.80899,0.5 4.36799,2.4 0.559,1.8 -0.49,3.8 -2.342,4.3 -4.83098,2 -10.86397,6.3 -16.58996,11.4 -5.11298,4.5 -9.75997,9.8 -12.54396,14.8 -2.185,3.7 -4.89399,9.3 -8.27098,15.8 -1.761,3.3 -3.64799,7 -5.76999,10.7 -4.90599,8.5 -10.59397,17.6 -16.30796,26 -10.38497,15.4 -21.01795,28.2 -28.04293,32 -1.627,1.1 -3.79699,0.6 -4.84299,-1 -1.04599,-1.7 -0.574,-3.8 1.053,-4.9 3.28299,-2.5 6.84998,-8.1 10.96497,-15.2 4.31299,-7.4 8.77998,-16.4 13.39997,-25.6 2.95099,-5.8 5.88299,-11.7 8.84298,-17.3 2.14399,-4 4.31699,-7.8 6.39898,-11.3 4.20899,-7.1 8.08898,-13 10.88297,-16.9 4.26499,-5.6 10.67298,-11.3 17.73596,-15.7 7.42398,-4.7 15.21496,-8.3 21.06395,-9.5 z"
     id="path3822"
     style="stroke:none;stroke-width:0.2" /><path
     d="m 242.21157,14060.21 c 1.92099,-0.2 3.66699,1.2 3.89599,3.1 0.229,1.9 -1.144,3.7 -3.06499,3.9 -5.46699,1.2 -20.52595,2 -39.06791,1.6 -4.92198,-0.1 -10.06097,-0.3 -15.32696,-0.6 -3.35999,-0.2 -6.76698,-0.5 -10.16997,-0.9 -8.53798,-1 -17.08296,-2.5 -25.19994,-3.9 -15.22096,-2.9 -28.66993,-6.1 -37.50691,-8.1 -1.91599,-0.3 -3.25399,-2 -2.98699,-4 0.268,-1.9 2.04099,-3.2 3.95699,-2.9 9.00198,0.4 22.74494,0.6 38.11391,1.4 8.19197,0.4 16.78995,0.8 25.29993,1.6 3.38499,0.3 6.73899,0.8 10.04798,1.2 5.17598,0.7 10.21197,1.5 15.02196,2.3 17.49596,2.8 31.64492,5.5 36.98691,5.3 z"
     id="path3824"
     style="stroke:none;stroke-width:0.2" /><path
     d="m 289.24345,14011.31 c 1.794,-0.8 3.83799,0.1 4.56299,1.9 0.724,1.8 -0.144,3.8 -1.93799,4.6 0,0 -13.80797,7.6 -32.02293,16.7 -4.14499,2 -8.52497,4.1 -13.03496,6.1 -2.895,1.3 -5.82499,2.6 -8.81698,3.8 -7.65898,2.9 -15.43096,5.5 -22.65994,7.9 -19.31996,6.2 -34.57992,10.3 -34.57992,10.3 -1.79299,0.8 -3.83799,-0.1 -4.56199,-1.9 -0.725,-1.8 0.143,-3.8 1.937,-4.6 0,0 13.83896,-7.6 32.08892,-16.5 6.82798,-3.4 14.21596,-6.9 21.78694,-10.1 2.958,-1.2 5.97699,-2.3 8.96098,-3.4 4.64999,-1.7 9.22298,-3.2 13.63197,-4.6 19.37395,-6.2 34.64591,-10.2 34.64591,-10.2 z"
     id="path3826"
     style="stroke:none;stroke-width:0.2" /><path
     d="m 315.11039,13970.71 c 1.92999,0.2 3.39299,1.8 3.26399,3.8 -0.128,1.9 -1.8,3.4 -3.72999,3.2 0,0 -17.88496,0.8 -40.8629,0.8 -5.23699,0 -10.71297,-0.1 -16.30496,-0.3 -3.59099,-0.1 -7.22498,-0.2 -10.84797,-0.5 -9.26898,-0.7 -18.47896,-1.9 -27.00994,-3 -22.77194,-2.9 -40.4099,-6 -40.4099,-6 -1.92999,-0.1 -3.39299,-1.8 -3.26499,-3.7 0.129,-1.9 1.8,-3.4 3.72999,-3.3 0,0 17.89096,-0.7 40.8519,-0.6 8.60198,0 17.88096,0.1 27.16493,0.6 3.629,0.2 7.24699,0.6 10.82198,1 5.56698,0.5 11.00897,1.1 16.19896,1.8 22.77294,3.1 40.3989,6.2 40.3989,6.2 z"
     id="path3828"
     style="stroke:none;stroke-width:0.2" /><path
     d="m 285.49846,13969.11 c 1.807,-0.7 3.83399,0.2 4.52499,2 0.691,1.8 -0.215,3.8 -2.022,4.5 0,0 -19.70995,9.7 -45.35088,21.1 -5.85399,2.6 -12.02597,5.3 -18.35596,7.9 -4.06699,1.7 -8.18298,3.4 -12.35797,4.9 -10.67497,4 -21.46694,7.5 -31.48292,10.8 -26.69493,8.7 -47.78888,14.7 -47.78888,14.7 -1.807,0.7 -3.83499,-0.2 -4.52499,-2 -0.691,-1.8 0.215,-3.9 2.022,-4.5 0,0 19.73695,-9.6 45.41388,-21 9.63398,-4.2 20.05995,-8.8 30.65093,-12.9 4.14299,-1.7 8.34298,-3.1 12.49597,-4.6 6.46198,-2.3 12.81896,-4.4 18.92395,-6.4 26.74393,-8.5 47.85188,-14.5 47.85188,-14.5 z"
     id="path3830"
     style="stroke:none;stroke-width:0.2" /><path
     d="m 237.40558,13965.81 c 1.837,-0.6 3.81999,0.4 4.42399,2.2 0.604,1.9 -0.397,3.9 -2.235,4.5 0,0 -10.08497,5.3 -23.61094,11.4 -3.05999,1.4 -6.28898,2.7 -9.63297,4 -2.14,0.9 -4.30799,1.7 -6.52799,2.4 -5.69098,1.7 -11.45797,3.1 -16.83295,4.3 -14.44697,3.2 -25.74394,5 -25.74394,5 -1.837,0.6 -3.81999,-0.4 -4.42399,-2.3 -0.604,-1.8 0.397,-3.8 2.23499,-4.4 0,0 10.11598,-5.3 23.66595,-11.3 5.04098,-2.2 10.48697,-4.5 16.10596,-6.5 2.19099,-0.8 4.43198,-1.4 6.64798,-2 3.45999,-0.9 6.84898,-1.8 10.12997,-2.5 14.49797,-3.1 25.79894,-4.8 25.79894,-4.8 z"
     id="path3832"
     style="stroke:none;stroke-width:0.2" /><path
     d="m 162.71177,14105.71 c 1.92899,0.1 3.37299,1.8 3.22399,3.7 -0.15,2 -1.837,3.4 -3.76499,3.3 0,0 -14.03697,0.8 -32.30892,0.8 -4.13499,0 -8.45398,-0.1 -12.88097,-0.3 -2.83199,-0.1 -5.70099,-0.2 -8.55998,-0.5 -7.27798,-0.8 -14.507964,-2 -21.258947,-3.2 -14.732963,-2.7 -26.889933,-5.7 -31.893921,-7.3 -1.893995,-0.4 -3.107992,-2.2 -2.709993,-4.1 0.396999,-1.9 2.256994,-3.1 4.149989,-2.7 5.081988,0.5 17.250958,0.2 31.800922,0.5 6.815983,0.1 14.09196,0.3 21.34495,0.8 2.85599,0.2 5.69098,0.6 8.48998,1 4.37898,0.5 8.63897,1.2 12.69996,1.9 17.96996,3.1 31.66793,6.1 31.66793,6.1 z"
     id="path3834"
     style="stroke:none;stroke-width:0.2" /><path
     d="m 138.98382,14119.11 c 1.931,-0.1 3.591,1.4 3.704,3.3 0.11299,2 -1.363,3.6 -3.294,3.7 0,0 -10.92497,2.5 -27.15493,3.8 -3.44499,0.3 -7.09598,0.4 -10.93797,0.4 -2.375996,0 -4.81799,0 -7.294984,-0.2 -5.885985,-0.5 -11.96397,-1.5 -18.081955,-2.9 -9.047978,-2 -17.868956,-4.8 -26.367935,-8.1 -1.875995,-0.5 -3.017992,-2.4 -2.546993,-4.3 0.469998,-1.9 2.375994,-3 4.251989,-2.5 8.644979,1 17.489957,1.1 26.342935,1.4 5.983985,0.1 11.84897,0.2 17.487956,0.4 2.381994,0.2 4.705989,0.4 6.972987,0.6 3.68599,0.4 7.18298,0.8 10.48897,1.2 15.68796,2 26.42993,3.2 26.42993,3.2 z"
     id="path3836"
     style="stroke:none;stroke-width:0.2" /><path
     d="m 165.14876,14140.41 c 1.93199,-0.1 3.58199,1.4 3.68299,3.3 0.101,2 -1.386,3.6 -3.31799,3.7 -3.81999,0.6 -17.98896,2.5 -35.89791,3.4 -4.59299,0.2 -9.40398,0.3 -14.34597,0.3 -3.15599,-0.1 -6.35998,-0.1 -9.56697,-0.3 -8.073983,-0.6 -16.173963,-1.6 -23.841944,-2.9 -14.527964,-2.5 -27.275932,-5.9 -35.417912,-9.5 -1.834996,-0.6 -2.829993,-2.6 -2.219995,-4.4 0.609999,-1.8 2.594994,-2.8 4.430989,-2.2 5.301987,1.2 12.36197,1.7 20.51795,2.1 6.524983,0.3 13.621966,0.4 21.007947,0.5 4.632989,0.1 9.342977,0.1 14.046965,0.3 4.73699,0.2 9.45098,0.6 14.04497,1 6.62098,0.5 12.94696,1.2 18.76295,1.8 14.12996,1.5 24.85494,2.8 28.11393,2.9 z"
     id="path3838"
     style="stroke:none;stroke-width:0.2" /><path
     d="m 208.55765,14183.61 c 1.913,-0.3 3.69999,1.1 3.98999,3 0.289,1.9 -1.029,3.7 -2.94199,4 -4.53899,1 -24.83494,1.5 -49.98888,0.7 -6.30998,-0.2 -12.90496,-0.6 -19.63095,-1 -4.31999,-0.3 -8.68998,-0.6 -13.04597,-1.1 -11.10697,-1.2 -22.15594,-2.8 -32.419915,-4.5 -23.416942,-3.8 -42.534895,-7.8 -48.50688,-9.3 -1.901995,-0.3 -3.159992,-2.2 -2.806993,-4.1 0.351999,-1.9 2.182995,-3.1 4.08499,-2.8 6.045985,0.7 25.313937,1.3 48.691879,2.6 10.337979,0.6 21.442949,1.2 32.525919,2.2 4.34499,0.4 8.67198,0.9 12.94897,1.5 6.65498,0.8 13.16397,1.6 19.38095,2.5 10.95397,1.6 20.89195,3.1 29.00493,4.2 9.55897,1.4 16.30996,2.3 18.71395,2.1 z"
     id="path3840"
     style="stroke:none;stroke-width:0.2" /><path
     d="m 73.236987,14203.21 c -0.268999,-1.9 1.067998,-3.7 2.982993,-4 1.915995,-0.2 3.689991,1.1 3.95899,3 1.796996,6.7 4.889988,11.6 8.459979,15.5 3.825991,4.2 8.647979,6.6 13.760971,8.3 3.16499,1.1 6.47398,1.7 9.82997,2.2 3.49999,0.5 7.01998,0.9 10.52597,1 8.44198,0.2 16.53296,-0.8 22.66295,-3 3.44099,-1.3 6.28498,-2.4 7.91898,-4.2 1.153,-1.5 3.35099,-1.8 4.90399,-0.7 1.55299,1.2 1.87699,3.4 0.72299,4.9 -3.67599,6.3 -14.99296,13.2 -28.83692,16.5 -4.95099,1.2 -10.19898,1.7 -15.45997,1.6 -2.28199,0 -4.56498,-0.2 -6.80498,-0.6 -5.84298,-1 -11.47997,-3.1 -16.399958,-6.2 -3.539991,-2.2 -6.793983,-4.9 -9.442976,-8.3 -5.089988,-6.5 -8.573979,-14.9 -8.782979,-26 z"
     id="path3842"
     style="stroke:none;stroke-width:0.2" /><path
     d="m 383.30622,13960.91 c -0.154,-1.9 1.286,-3.6 3.21399,-3.8 1.929,-0.1 3.61899,1.3 3.77399,3.2 1.278,6.5 2.315,14.4 2.93999,22.9 0.371,5 0.567,10.1 0.627,15.1 0.039,3.3 0.01,6.4 -0.115,9.5 -0.135,3.3 -0.333,6.5 -0.662,9.4 -1.05399,9.5 -2.61799,16.7 -3.21499,19.1 -2.17499,7.8 -6.11998,13.7 -11.74297,17.1 -5.52798,3.4 -12.15997,4.9 -19.24495,3.6 -1.928,-0.2 -3.37499,-1.9 -3.22799,-3.8 0.147,-1.9 1.83299,-3.4 3.76199,-3.2 4.86999,-0.2 9.02198,-2.1 12.21897,-5.1 2.78399,-2.6 4.23999,-6.4 4.64699,-11 0.213,-1.9 0.278,-6.6 0.61699,-12.9 0.145,-2.7 0.3,-5.7 0.608,-8.8 0.62,-6.4 1.5,-13.4 2.403,-20.6 1.41099,-11.1 3.14999,-22.1 3.39699,-30.7 z"
     id="path3844"
     style="stroke:none;stroke-width:0.2" /><path
     d="m 399.90118,14129.01 c -1.634,-1.1 -2.121,-3.2 -1.085,-4.9 1.035,-1.6 3.20199,-2.1 4.83599,-1.1 0,0 6.09298,3.4 15.01196,5.3 4.59199,1 9.93598,1.5 15.60196,0.9 2.336,-0.3 17.10196,-2.7 38.56091,-6.1 11.38497,-1.8 24.61494,-3.9 38.8699,-6 8.36098,-1.2 17.06596,-2.4 25.95494,-3.6 8.55997,-1.1 17.28495,-2.2 26.01893,-3.2 17.82496,-2 35.65591,-3.7 52.16887,-5.3 43.92189,-4.1 78.38381,-6.9 78.38381,-6.9 1.91899,-0.3 3.67599,1.1 3.92199,3 0.245,1.9 -1.113,3.7 -3.03199,3.9 0,0 -42.4579,7.4 -93.17077,15.4 -12.13197,1.9 -24.72594,3.9 -37.33991,5.6 -8.35898,1.2 -16.71996,2.3 -24.95394,3.3 -18.63395,2.2 -36.55991,4 -52.15487,5.5 -28.86893,2.8 -49.75788,4.3 -52.58787,4.4 -6.76598,0.1 -13.04397,-1 -18.37395,-2.6 -10.02698,-3.1 -16.63096,-7.6 -16.63096,-7.6 z"
     id="path3846"
     style="stroke:none;stroke-width:0.2" /><path
     d="m 698.63044,13851.51 c -5.98699,-0.6 -16.84796,-0.9 -31.35393,-1.2 -31.91092,-0.6 -81.10879,-0.5 -135.02566,-0.4 -32.98592,0 -67.73183,-0.1 -101.37175,-0.1 -36.28391,0.1 -71.27082,0.2 -101.36775,0.4 -38.8799,0.3 -69.55883,0.8 -84.23579,1.7 -2.84999,0.1 -5.79398,0.4 -7.06898,0.6 -0.327,0.7 -0.906,2.1 -1.205,3.3 -1.67999,6.5 -2.52299,17.3 -2.94299,28.9 -0.938,26 0.324,56.2 0.324,56.2 0.112,1.9 -1.366,3.6 -3.29699,3.7 -1.931,0.1 -3.59,-1.4 -3.70099,-3.3 0,0 -3.521,-48.5 -1.345,-75.9 0.556,-7 1.55799,-12.7 2.93099,-16.2 1.128,-2.9 2.74799,-4.6 4.27299,-5.5 0.729,-0.4 3.25299,-1.1 7.46398,-1.5 8.68398,-0.9 26.75494,-2 50.96188,-3 35.37391,-1.4 83.90379,-2.9 135.30366,-3.9 29.77793,-0.6 60.51385,-1.1 90.20678,-1.3 29.94992,-0.2 58.83685,-0.1 84.59879,0.1 36.41491,0.4 66.60183,1.2 84.78979,2.2 8.81197,0.5 14.95396,1 17.84595,1.6 4.03799,0.8 5.80799,2.9 6.35399,3.8 0.52,0.8 1.53399,3.6 1.86099,8.2 0.563,7.9 0.703,24.6 0.48,45.6 -0.774,73.3 -5.43499,200.8 -5.43499,200.8 -0.04,1.9 -1.64299,3.5 -3.57699,3.4 -1.93399,0 -3.47199,-1.6 -3.43199,-3.6 0,0 0.339,-80.6 -0.06,-150.4 -0.219,-38.3 -0.65,-73.4 -1.62899,-89.9 -0.087,-1.5 -0.219,-3 -0.346,-4.3 z"
     id="path3848"
     style="stroke:none;stroke-width:0.2" /><path
     d="m 429.1151,13842.51 c -0.011,-1.9 1.55,-3.5 3.485,-3.5 1.93399,0 3.51399,1.6 3.52499,3.5 0,0 2.18499,38.4 4.00999,87.5 0.418,11.2 0.744,23 1,35 0.16399,7.7 0.32799,15.5 0.32799,23.3 -0.001,20 -0.39899,39.9 -0.82599,58.4 -1.137,49 -2.817,87.5 -2.817,87.5 0.011,1.9 -1.55099,3.5 -3.48499,3.5 -1.93399,0 -3.51399,-1.5 -3.52499,-3.5 0,0 -2.12699,-38.4 -3.83399,-87.5 -0.642,-18.4 -1.271,-38.3 -1.504,-58.3 -0.091,-7.8 -0.018,-15.6 0.057,-23.3 0.116,-12 0.306,-23.8 0.593,-35 1.255,-49.1 2.99299,-87.6 2.99299,-87.6 z"
     id="path3850"
     style="stroke:none;stroke-width:0.2" /><path
     d="m 614.68564,14156.01 c 0.26,1.9 -1.08599,3.6 -3.00299,3.9 -1.91699,0.3 -3.68399,-1.1 -3.94399,-3 -1.92799,-7.9 -5.06399,-12.2 -8.63298,-13.8 -0.84499,-0.4 -1.70699,-0.1 -2.53499,0.1 -2.32599,0.5 -3.82199,3 -4.93399,6 -2.44099,5.8 -3.08499,11.2 -3.05499,16.2 0.036,5.9 1.079,11.1 3.52199,14.9 1.37,2.3 4.37199,3.1 7.21198,1 3.18099,-2.3 6.28499,-6.3 8.55298,-13 0.436,-1.9 2.321,-3.1 4.20499,-2.7 1.885,0.5 3.05999,2.4 2.62399,4.3 -1.64099,12.6 -7.10498,19.4 -12.38896,22.7 -7.80899,4.8 -16.30096,1.9 -21.47395,-4.2 -4.43899,-5.6 -7.88398,-13.5 -8.17398,-22.7 -0.218,-7 1.573,-14.7 5.45699,-22.7 4.88798,-8.8 12.86196,-13.6 20.28395,-12.3 2.54599,0.5 5.10298,1.3 7.34298,3.1 4.43999,3.7 8.59098,10.5 8.94097,22.2 z"
     id="path3852"
     style="stroke:none;stroke-width:0.2" /><path
     d="m 550.1648,14173.21 c 0.002,0 0.005,0 0.009,0 0.061,0.1 0.117,0.1 0.168,0.1 0.109,0 0.182,-0.1 0.182,-0.2 10e-4,0 -0.009,0 -0.026,0 0.174,-0.3 0.27,-1.1 0.366,-1.5 1.173,-5.1 2.775,-12.4 5.54799,-20.2 2.30099,-6.5 5.27199,-13.3 9.15098,-19.5 5.45698,-8.6 12.38997,-16.1 21.38094,-19.9 1.712,-0.9 3.83299,-0.3 4.73599,1.4 0.902,1.8 0.246,3.9 -1.46599,4.8 -6.75999,4.3 -11.13398,11.4 -14.49997,19.1 -2.57299,5.9 -4.27899,12.2 -5.68598,18.1 -1.789,7.5 -2.917,14.4 -3.631,19.1 -2.34699,12.3 -11.48597,16.1 -19.55495,14.1 -6.33698,-1.6 -12.88497,-7.4 -14.03196,-17.1 -1.003,-10.5 0.213,-20.8 3.47699,-29.9 3.68199,-10.3 9.48698,-19 16.31696,-24.8 1.374,-1.3 3.59499,-1.3 4.95599,0.1 1.36199,1.3 1.35099,3.6 -0.023,4.9 -4.93899,5.7 -8.45498,13.8 -10.32698,22.8 -1.60099,7.7 -1.71599,16.2 0.148,24.6 0.315,1.6 1.136,2.7 2.055,3.5 0.184,0.2 0.502,0.4 0.75199,0.5 z m 0,0 c -0.056,-0.1 0.241,-0.2 0.333,-0.1 -0.046,0.1 -0.098,0.1 -0.156,0.2 -0.052,0 -0.113,-0.1 -0.177,-0.1 z"
     id="path3854"
     style="stroke:none;stroke-width:0.2" /><path
     d="m 588.57871,14115.11 c -20.70995,10.9 -27.23393,43.8 -29.94893,57.9 -2.36699,12.4 -16.60496,9.7 -18.54595,-2.6 -3.19399,-20.3 4.06299,-40.3 14.98596,-51.1 11.18797,-1.4 22.46795,-2.8 33.50892,-4.2 z"
     id="path3856"
     style="stroke:none;stroke-width:0.2" /><path
     d="m 402.23017,14166.21 c -1.91599,0.3 -3.69199,-1 -3.96499,-3 -0.273,-1.9 1.06,-3.7 2.97499,-3.9 0,0 18.10096,-4.6 41.5369,-9.5 5.34399,-1.1 10.95497,-2.2 16.70096,-3.2 3.68999,-0.6 7.42298,-1.3 11.18097,-1.8 9.61198,-1.2 19.24895,-2.1 28.18593,-2.8 23.84794,-2 42.5019,-2.7 42.5019,-2.7 1.91499,-0.3 3.69199,1 3.96499,3 0.273,1.9 -1.06,3.7 -2.975,3.9 0,0 -18.11795,4.5 -41.56289,9.3 -8.78598,1.8 -18.27796,3.7 -27.85693,5.2 -3.74499,0.5 -7.51199,1 -11.23498,1.4 -5.79798,0.6 -11.48297,1.2 -16.92595,1.6 -23.87294,1.8 -42.5259,2.5 -42.5259,2.5 z"
     id="path3858"
     style="stroke:none;stroke-width:0.2" /><path
     d="m 398.40718,14180.91 c -1.21,-1.5 -0.967,-3.8 0.542,-5 1.509,-1.2 3.71699,-0.9 4.92699,0.6 5.02699,4.7 10.60897,7 16.26696,8.4 2.84899,0.6 5.69198,0.8 8.55098,0.8 2.85899,0 5.66998,-0.4 8.47797,-0.9 3.457,-0.6 6.88199,-1.3 10.13298,-2.6 2.24999,-0.8 4.45899,-1.7 6.53598,-2.9 5.49599,-3.2 10.34998,-7.2 13.46797,-12.6 0.735,-1.8 2.78399,-2.6 4.57299,-1.9 1.78999,0.8 2.64699,2.8 1.91299,4.6 -1.66099,6.5 -5.07498,12.2 -9.57597,17.3 -2.99699,3.4 -6.57199,6.2 -10.49698,8.6 -4.21899,2.5 -8.89997,4.3 -13.74996,5.3 -2.616,0.5 -5.29699,0.6 -7.96298,0.5 -3.99999,-0.1 -7.99898,-0.7 -11.80897,-2.1 -8.50998,-3.1 -16.22396,-8.8 -21.79295,-18.1 z"
     id="path3860"
     style="stroke:none;stroke-width:0.2" /><path
     d="m 606.27767,14114.91 c -1.313,-1.4 -1.226,-3.7 0.194,-5 1.41999,-1.3 3.63899,-1.2 4.95298,0.2 15.95396,15.2 22.60795,32.3 23.94994,48.1 1.04,12.3 -1.29099,23.8 -5.05998,33.2 -3.459,8.6 -8.35798,15.4 -12.83197,19.7 -4.93999,4.5 -11.60997,7.5 -19.24095,8.5 -8.86498,1.1 -18.95696,-0.2 -28.09693,-4.2 -13.91797,-6.1 -25.81794,-17.9 -27.77394,-35.1 -0.338,-1.9 0.934,-3.7 2.839,-4.1 1.90499,-0.3 3.72499,1 4.06299,2.9 3.22399,13.3 13.70296,21.3 25.17693,24.9 5.95999,1.8 12.21097,2.3 17.94796,1.7 5.69199,-0.6 10.81997,-2.5 14.15996,-6 3.263,-3.1 6.47099,-8.2 9.21998,-14.4 3.33199,-7.5 5.90499,-16.6 6.06199,-26.6 0.217,-13.8 -3.54399,-29 -15.56196,-43.8 z"
     id="path3862"
     style="stroke:none;stroke-width:0.2" /><path
     d="m 701.12443,14117.71 c 1.921,-0.2 3.66699,1.2 3.89799,3.1 0.23,1.9 -1.142,3.7 -3.06299,3.9 0,0 -10.12098,3.2 -23.56194,6.3 -3.036,0.8 -6.21499,1.4 -9.49698,2 -2.09999,0.4 -4.22599,0.7 -6.37198,0.9 -5.50699,0.6 -11.00698,0.7 -16.12596,0.8 -13.78297,0.2 -24.37594,-0.4 -24.37594,-0.4 -1.921,0.2 -3.66699,-1.2 -3.89799,-3.1 -0.23,-1.9 1.14199,-3.6 3.06299,-3.9 0,0 10.14197,-3.1 23.58294,-6.2 4.99199,-1.1 10.36997,-2.3 15.84796,-3 2.136,-0.3 4.28999,-0.5 6.41798,-0.6 3.326,-0.2 6.56699,-0.3 9.68698,-0.4 13.81297,-0.1 24.39694,0.6 24.39694,0.6 z"
     id="path3864"
     style="stroke:none;stroke-width:0.2" /><path
     d="m 589.53771,14212.91 c -90.38678,14.6 -250.20238,40.2 -267.27834,43.1 -39.5479,6.8 -108.39573,11.9 -163.77159,6.1 -33.40792,-3.5 -67.177837,-4.7 -79.366807,-10.5 -11.604971,-5.6 -4.643989,-12.5 22.057947,-17.8 18.30795,6.4 41.6089,1 51.58187,-6.4 5.52499,-0.4 11.34497,-0.8 17.46396,-1.1 3.99499,-0.2 24.67894,-3.1 53.69486,-7.3 0.54,5.2 3.069,11.1 10.30198,11 0.373,0 0.737,0 1.092,0 0.90299,15.6 20.81694,30.6 43.72489,29.2 24.46994,-1.6 38.5699,-26.9 42.30189,-52.5 0.061,-0.4 0.118,-0.9 0.173,-1.3 7.17098,-0.5 56.65486,-8.4 64.73084,-8.8 3.46499,-0.2 6.25399,-1.2 8.45998,-3 7.46898,-1.1 14.68996,-2.2 21.57495,-3.3 13.97396,6 30.14792,2.6 41.65089,-6.1 14.98197,-2.2 24.77094,-3.6 26.75894,-3.8 6.65098,-0.6 34.86191,0.5 61.63284,1.7 4.95899,20.3 25.42494,30.7 43.2159,30.8 z m 35.15791,-28.8 c 17.51596,0.1 36.68891,0.4 48.55488,1.7 12.93897,1.4 16.42796,10.3 -24.01094,17.4 -5.43199,0.9 -22.37195,3.7 -45.88589,7.5 3.34699,-1.2 6.30399,-3 8.66598,-5.3 4.59099,-4.4 9.41398,-11.9 12.67597,-21.3 z"
     id="path3866"
     style="stroke:none;stroke-width:0.2" /></g>&#10;</svg>
