<?xml version="1.0" encoding="UTF-8" standalone="no"?>
<svg
   width="3407.385"
   height="2438.1384"
   viewBox="0 0 3407.385 2438.1384"
   version="1.1"
   xml:space="preserve"
   style="clip-rule:evenodd;fill-rule:evenodd;stroke-linejoin:round;stroke-miterlimit:2"
   id="svg5353"
   xmlns="http://www.w3.org/2000/svg"
   xmlns:svg="http://www.w3.org/2000/svg"><defs
   id="defs5353" />&#10;    <g
   id="vectorly-UNI-laptop-computer"
   style="stroke:none;stroke-width:0.189104"
   transform="matrix(5.2880974,0,0,5.2880974,-8663.8091,-56128.88)"><path
     d="m 1762.8668,10674.312 c -0.18,8.2 0.75,31.6 2.04,60.7 2.23,50.3 6.07,117 9.99,151.7 0.64,5.7 0.54,11.9 0.98,15.8 8.9699,-1.5 32.7499,-6.4 63.7698,-12.6 39.7699,-8 91.0498,-18.4 138.6997,-28 61.7298,-12.5 117.3497,-23.7 133.8196,-27.1 l -13.9899,-203.6 c -0.15,-2 1.29,-3.7 3.22,-3.8 1.93,-0.2 3.6199,1.3 3.7699,3.2 l 18.9,208.5 c 0.23,2.9 -1.73,5.5 -4.57,6.1 0,0 -140.0496,31.1 -242.0594,52.8 -57.4698,12.2 -103.1297,21.2 -106.0397,21 -1.85,-0.1 -3.9,-0.7 -5.76,-2.6 -1,-1 -2.59,-3.5 -3.6,-7.8 -1.77,-7.4 -3.61,-23.7 -5.22,-44.5 -3.02,-38.9 -5.48,-94.2 -6.73,-135.8 -0.98,-32.6 -0.99,-57.1 -0.28,-60 0.32,-1.3 1.04,-3 2.98,-4.4 1.16,-0.9 3.83,-2.1 7.99,-3.2 10.35,-2.8 32.7199,-6.8 61.2699,-11.1 98.5697,-15 271.4293,-35.4 271.4293,-35.4 1.92,-0.2 3.67,1.1 3.92,3.1 0.25,1.9 -1.11,3.6 -3.03,3.9 0,0 -84.6698,11.8 -169.1296,24.6 -61.5699,9.4 -123.0097,19.2 -151.2596,25.5 -4.3,1 -8.61,2.2 -11.11,3 z m 13.29,230.1 c 0.35,1.6 0.91,2.4 1.87,2.1 1.34,-0.5 -0.73,-1.6 -1.87,-2.1 z m -4.04,-1.3 z"
     id="path2946"
     style="stroke:none;stroke-width:0.189104" /><path
     d="m 2105.0559,10713.612 c 0.65,-1.9 2.66,-2.8 4.48,-2.2 1.82,0.7 2.77,2.7 2.12,4.5 0,0 -4.62,18.7 -11.4699,42.4 -1.56,5.4 -3.3,11 -5.16,16.7 -1.18,3.7 -2.39,7.4 -3.75,11.1 -3.48,9.3 -7.32,18.5 -10.94,27 -9.64,22.7 -17.8899,40.1 -17.8899,40.1 -0.65,1.8 -2.66,2.8 -4.48,2.1 -1.82,-0.6 -2.77,-2.6 -2.12,-4.4 0,0 4.67,-18.7 11.6299,-42.4 2.61,-8.8 5.49,-18.4 8.75,-27.8 1.27,-3.7 2.7,-7.3 4.11,-10.9 2.2,-5.6 4.43,-11.1 6.66,-16.2 9.76,-22.7 18.0599,-40 18.0599,-40 z"
     id="path2948"
     style="stroke:none;stroke-width:0.189104" /><path
     d="m 2035.7261,10623.612 c 0.75,-1.8 2.81,-2.7 4.59,-1.9 1.78,0.7 2.62,2.8 1.88,4.6 0,0 -11.6,32.7 -27.2999,74.1 -3.59,9.5 -7.46,19.4 -11.48,29.5 -2.58,6.4 -5.2,13 -7.96,19.5 -7.07,16.5 -14.4999,32.9 -21.4299,48 -18.43,40.3 -33.5899,71.6 -33.5899,71.6 -0.75,1.8 -2.81,2.6 -4.59,1.9 -1.78,-0.8 -2.63,-2.8 -1.88,-4.6 0,0 11.6499,-32.7 27.4599,-74.1 5.95,-15.6 12.43,-32.4 19.28,-49 2.68,-6.5 5.5199,-13 8.3199,-19.4 4.36,-9.9 8.7,-19.6 12.94,-28.8 18.55,-40.2 33.7599,-71.4 33.7599,-71.4 z"
     id="path2950"
     style="stroke:none;stroke-width:0.189104" /><path
     d="m 1984.8662,10630.412 c 0.76,-1.8 2.83,-2.6 4.6,-1.9 1.78,0.8 2.6,2.9 1.83,4.6 0,0 -11.8399,32.5 -27.8599,73.5 -3.66,9.4 -7.6,19.2 -11.7,29.1 -2.63,6.5 -5.29,12.9 -8.11,19.3 -7.1899,16.4 -14.7399,32.6 -21.7799,47.6 -18.74,39.9 -34.1299,70.8 -34.1299,70.8 -0.77,1.8 -2.83,2.6 -4.61,1.8 -1.78,-0.7 -2.6,-2.8 -1.83,-4.6 0,0 11.9,-32.4 28.0199,-73.4 6.06,-15.4 12.67,-32 19.65,-48.5 2.73,-6.4 5.61,-12.8 8.46,-19.1 4.44,-9.8 8.8499,-19.4 13.1599,-28.5 18.85,-39.9 34.2999,-70.7 34.2999,-70.7 z"
     id="path2952"
     style="stroke:none;stroke-width:0.189104" /><path
     d="m 1877.2865,10645.512 c 0.79,-1.8 2.87,-2.6 4.63,-1.8 1.77,0.8 2.56,2.9 1.77,4.7 0,0 -10.51,28.3 -24.8199,64.1 -3.28,8.2 -6.81,16.7 -10.49,25.4 -2.36,5.6 -4.75,11.2 -7.29,16.8 -6.5,14.3 -13.35,28.3 -19.7499,41.3 -17.02,34.6 -31.06,61.4 -31.06,61.4 -0.79,1.7 -2.86,2.5 -4.63,1.7 -1.76,-0.7 -2.56,-2.8 -1.77,-4.6 0,0 10.57,-28.3 24.99,-64 5.42,-13.5 11.33,-28 17.6199,-42.3 2.46,-5.6 5.07,-11.2 7.65,-16.7 4.01,-8.5 8.02,-16.8 11.93,-24.7 17.1299,-34.6 31.2199,-61.3 31.2199,-61.3 z"
     id="path2954"
     style="stroke:none;stroke-width:0.189104" /><path
     d="m 1825.9766,10653.112 c 0.91,-1.7 3.04,-2.3 4.74,-1.4 1.71,0.9 2.35,3 1.43,4.7 0,0 -7.38,17.8 -17.7199,40.3 -2.36,5.1 -4.93,10.4 -7.62,15.8 -1.72,3.5 -3.48,7 -5.37,10.4 -4.85,8.7 -10.04,17.3 -14.89,25.1 -12.9599,21.1 -23.7299,37 -23.7299,37 -0.92,1.8 -3.04,2.4 -4.75,1.5 -1.7,-0.9 -2.34,-3.1 -1.42,-4.8 0,0 7.43,-17.8 17.87,-40.1 3.92,-8.4 8.1999,-17.4 12.8399,-26.3 1.82,-3.5 3.78,-6.9 5.72,-10.2 3.02,-5.2 6.04,-10.3 9.02,-15.1 13.06,-20.9 23.8799,-36.9 23.8799,-36.9 z"
     id="path2956"
     style="stroke:none;stroke-width:0.189104" /><path
     d="m 2105.4959,10863.712 c -6.7399,1.4 -64.5098,15.5 -125.8796,30.4 -47.3999,11.5 -96.9198,23.7 -126.7597,31.4 -4.81,1.2 -9.09,2.3 -12.77,3.3 7.81,5.6 18.68,13.1 28.8199,20 8.67,5.9 16.83,11.3 22.29,14.4 1.21,0.6 2.63,1.3 3.42,1.7 1.24,-0.2 3.61,-0.5 5.87,-1 13.4399,-2.6 41.3999,-9 74.4098,-16.6 81.3698,-18.7 193.1695,-45 193.1695,-45 1.87,-0.5 3.78,0.6 4.26,2.5 0.48,1.9 -0.66,3.8 -2.53,4.3 0,0 -110.8197,30.4 -191.6995,51.3 -33.03,8.6 -61.0899,15.5 -74.5699,18.3 -6.1999,1.4 -10.1099,1.7 -11.0399,1.5 -2.98,-0.4 -13.23,-5.9 -25.18,-13.6 -21.1499,-13.7 -48.7298,-33.8 -50.3298,-35.7 -1.76,-2.2 -2.3,-4.5 -1.62,-7.2 0.3,-1.1 0.99,-3.2 3.6,-4.9 0.59,-0.4 2,-1.1 4.2699,-1.8 4.24,-1.4 13.33,-3.8 25.79,-6.8 29.9999,-7.4 79.8498,-18.6 127.6197,-29 65.0198,-14.2 126.2097,-26.7 128.5896,-26.9 0.76,-0.1 1.98,0 3.5,0.6 2.29,1 6.53,3.6 11.68,7.2 16.98,11.9 45.0699,34.5 45.0699,34.5 1.53,1.2 1.8,3.4 0.62,4.9 -1.19,1.5 -3.4,1.8 -4.92,0.6 0,0 -18.1199,-13.6 -34.1999,-24.8 -7.23,-5 -14.03,-9.6 -18.54,-12.1 -1.09,-0.6 -2.34,-1.2 -2.94,-1.5 z m -276.2493,56.9 z"
     id="path2958"
     style="stroke:none;stroke-width:0.189104" /><path
     d="m 2281.1455,10943.612 c 1.61,1.1 2.05,3.2 0.98,4.8 -1.07,1.7 -3.25,2.1 -4.86,1 0,0 -22.2499,-12.4 -50.2099,-29.2 -6.3899,-3.8 -13.0299,-7.9 -19.7499,-12.1 -4.33,-2.8 -8.7,-5.5 -12.98,-8.4 -10.9499,-7.5 -21.6599,-15.2 -31.5399,-22.4 -26.3199,-19.2 -46.4399,-34.9 -46.4399,-34.9 -1.61,-1 -2.04,-3.2 -0.97,-4.8 1.07,-1.6 3.24,-2.1 4.85,-1 0,0 22.23,12.5 50.1199,29.3 10.48,6.3 21.7499,13.2 32.8299,20.5 4.33,2.8 8.58,5.7 12.77,8.7 6.52,4.5 12.8699,9.1 18.8699,13.5 26.25,19.3 46.3299,35 46.3299,35 z"
     id="path2960"
     style="stroke:none;stroke-width:0.189104" /><path
     d="m 1957.3063,11031.612 c 2.97,-0.1 13.56,-2.9 29.1899,-6.7 15.26,-3.7 34.93,-8.6 56.8099,-14.1 17.89,-4.5 37.2699,-9.3 56.8999,-14.1 17.1599,-4.3 34.5099,-8.6 51.2498,-12.7 64.3999,-15.8 119.6697,-29.4 119.6697,-29.4 1.87,-0.5 3.8,0.6 4.3,2.5 0.51,1.9 -0.59,3.8 -2.46,4.3 0,0 -62.2098,18.7 -131.4496,38.5 -29.49,8.4 -60.2399,17 -87.9998,24.4 -25.99,6.9 -49.3599,12.8 -66.5099,16.8 -17.0799,4 -28.4799,5.9 -31.0499,5.7 -1.66,-0.1 -4.92,-1.1 -9.26,-3.4 -9.9099,-5.4 -29.0599,-18.4 -51.1698,-34.4 -53.8399,-38.9 -125.7397,-95.1 -125.7397,-95.1 -1.56,-1.2 -1.87,-3.4 -0.72,-5 1.16,-1.5 3.36,-1.8 4.91,-0.7 0,0 74.1898,52.9 129.2196,89.8 18.28,12.3 34.4,22.8 44.9799,28.9 3.78,2.2 8.23,4.3 9.13,4.7 z m -0.36,0 z"
     id="path2962"
     style="stroke:none;stroke-width:0.189104" /><path
     d="m 2253.2656,10981.112 c 1.87,-0.6 3.8,0.5 4.32,2.4 0.53,1.8 -0.56,3.8 -2.42,4.3 0,0 -60.5499,18.7 -127.9797,38.4 -28.7299,8.3 -58.6899,16.9 -85.7398,24.2 -30.4799,8.2 -57.2599,14.9 -74.3198,18.6 -11.58,2.5 -19.3,3.4 -21.58,3 -2.34,-0.3 -7.2199,-2.4 -13.6999,-6.4 -9.6,-6 -24.05,-16.1 -40.2199,-28.2 -46.6399,-34.7 -108.0998,-84.7 -111.4997,-87.5 -5.54,-4.5 -8.31,-9.5 -9.71,-14.8 -1.83,-7 -1.09,-14.9 -2.01,-23.6 -0.25,-1.9 1.11,-3.7 3.03,-3.9 1.92,-0.3 3.67,1.1 3.92,3 1.25,8.3 0.79,15.7 2.82,22.3 1.16,3.7 3.29,7.1 7.3599,10.2 3.49,2.6 66.7599,49.8 114.2998,82.9 16.1299,11.3 30.3999,20.9 39.8999,26.5 3.9199,2.3 6.6099,3.9 8.0099,4.1 1.23,0.2 4.66,-0.7 9.92,-1.7 11.02,-2.3 28.2799,-6.5 49.0999,-11.7 14.94,-3.7 31.6999,-7.9 49.2699,-12.4 24.0099,-6 49.5098,-12.4 73.9398,-18.6 65.5598,-16.5 123.2897,-31.1 123.2897,-31.1 z"
     id="path2964"
     style="stroke:none;stroke-width:0.189104" /><path
     d="m 2024.3361,10966.812 c 6.14,5.5 16.01,12.4 22.82,16.7 1.3,0.8 2.65,1.9 3.69,2.7 -0.15,0 -0.25,0 -0.24,0.1 0.03,0.4 0.39,0.4 0.96,0.3 0.53,0.3 0.9,0.4 1.04,0 0.04,-0.1 0.02,-0.2 -0.04,-0.2 0.99,-0.3 2.22,-0.7 3.41,-0.9 6.27,-1.2 16.1299,-3.3 27.0099,-5.6 18.06,-3.9 38.8499,-8.5 50.3599,-12 1.14,-0.3 2.3,-0.7 3.34,-1.1 -6.98,-7 -22.69,-17.3 -22.69,-17.3 -1.66,-1 -2.2,-3.1 -1.2,-4.8 0.99,-1.7 3.15,-2.2 4.81,-1.2 0,0 17.14,9.3 25.45,16.2 2.6499,2.2 4.4099,4.3 5.1999,5.9 1.02,2 0.82,3.9 0.3,5.4 -0.35,0.9 -1.78,2.8 -4.9099,4.4 -4.3,2.2 -13.88,5.7 -25.39,9.3 -17.2499,5.5 -38.8599,11.4 -52.6099,14.8 -8.5999,2 -14.6599,2.8 -15.8299,2.7 -1.47,-0.1 -5.47,-1.6 -10.34,-4.7 -7.66,-4.8 -19.1199,-13.4 -25.9699,-20.1 -4.24,-4.1 -6.84,-7.9 -7.46,-10.1 -0.59,-2.1 -0.51,-3.9 0.03,-5.4 0.46,-1.3 1.67,-3.7 5.06,-5.3 2.92,-1.5 9.41,-3.5 17.8399,-5.5 27.18,-6.5 75.3599,-14.4 75.3599,-14.4 1.8899,-0.4 3.7499,0.8 4.1499,2.7 0.4,1.9 -0.81,3.8 -2.7,4.2 0,0 -58.5698,15.1 -81.4498,23.2 z m 26.51,19.4 c 0.22,0 0.53,0.2 0.64,0.2 0.22,0 0.87,-0.1 1.08,0 -0.38,0.1 -0.71,0.2 -1,0.2 -0.22,-0.1 -0.46,-0.2 -0.72,-0.4 z"
     id="path2966"
     style="stroke:none;stroke-width:0.189104" /><path
     d="m 1939.8164,11059.412 c 1.63,-1 3.7999,-0.5 4.8399,1.1 1.03,1.6 0.55,3.8 -1.08,4.8 0,0 -12.2399,8.2 -22.7399,9.7 -4.83,0.7 -9.31,-0.1 -12.69,-2.7 -5.26,-4 -43.7899,-29.3 -100.8097,-63.9 -12.05,-7.3 -24.91,-15 -38.4199,-23.1 -12.32,-7.4 -25.21,-15.1 -38.4899,-23 -24.49,-14.7 -50.3399,-30.2 -77.3398,-45.4 -11.26,-6.5 -15.51,-14.3 -14.61,-20.2 0.87,-5.7 6.69,-12.1 20.09,-14.4 6.7199,-1.1 20.8699,-2.8 36.0399,-4.4 25.4799,-2.7 53.7698,-5.4 53.7698,-5.4 1.92,-0.2 3.67,1.2 3.9,3.1 0.23,1.9 -1.14,3.7 -3.06,3.9 0,0 -35.1499,5.2 -62.1798,9.6 -11.25,1.8 -21.07,3.5 -26.2699,4.6 -3.7,0.8 -6.53,1.9 -8.5,3.2 -0.74,0.4 -1.37,0.8 -1.44,1.4 -0.07,0.7 0.67,1.1 1.31,1.8 1.59,1.8 4.08,3.5 7.3,5.1 27.5899,14.5 54.2798,28.9 79.0598,43.4 18.1799,10.6 35.3299,21.2 51.3198,31.3 23.76,15 44.8699,29.1 62.7099,41.4 35.0499,24 57.3198,40.8 61.1898,44.1 2.2,1.8 5.57,1.6 8.98,0.9 8.39,-1.7 17.12,-6.9 17.12,-6.9 z"
     id="path2968"
     style="stroke:none;stroke-width:0.189104" /><path
     d="m 1770.1168,10908.012 c 1.7,-1 3.82,-0.3 4.74,1.4 0.92,1.7 0.28,3.8 -1.42,4.7 -4.74,2.9 -9.41,1.9 -13.97,-2.3 -3.22,-3 -6.37,-8 -9.33,-14.7 -5.46,-12.3 -10.3999,-30.6 -14.1999,-51.7 -1.81,-10 -3.32,-20.7 -4.5,-31.6 -0.76,-6.9 -1.41,-14 -1.8,-21.1 -0.8,-14.4 -0.88,-28.8 -0.44,-42.4 0.85,-25.7 3.71,-48.6 8.13,-63.7 2.03,-6.9 4.4199,-12.3 7.1299,-15.7 3.92,-5 8.4,-6.7 13.36,-4.7 1.82,0.7 2.78,2.7 2.14,4.5 -0.64,1.8 -2.65,2.8 -4.47,2.1 -1.91,-0.5 -3.23,0.8 -4.51,2.8 -1.93,3 -3.3,7.5 -4.48,13.3 -3.01,14.8 -3.57,36.8 -2.94,61.4 0.34,13.4 1.12,27.4 2.04,41.4 0.46,7 0.87,13.9 1.38,20.7 0.79,10.7 1.72,21.1 2.82,31 2.28,20.3 5.24,38 9.34,50.2 1.87,5.6 3.77,9.9 6.09,12.5 1.51,1.7 3.04,2.7 4.89,1.9 z"
     id="path2970"
     style="stroke:none;stroke-width:0.189104" /><path
     d="m 1941.6964,11062.412 c 0,0 -21.65,13.7 -30.77,6.4 -9.1199,-7.3 -119.4397,-84.1 -254.6593,-157.8 -16.14,-8.8 -16,-19.2 3.4,-23 17.8499,-3.4 89.1297,-12 89.1297,-12 5.98,24.8 13.84,40 22.98,35 0.03,0 0.06,0 0.1,0 1.82,14.2 -1.09,26 10.9499,35.5 4.91,3.9 129.2797,100.7 158.8697,115.9 z"
     id="path2972"
     style="stroke:none;stroke-width:0.189104" /></g>&#10;</svg>
