<?xml version="1.0" encoding="UTF-8" standalone="no"?>
<svg
   width="2915.4761"
   height="1744.7799"
   viewBox="0 0 2915.4761 1744.7799"
   version="1.1"
   xml:space="preserve"
   style="clip-rule:evenodd;fill-rule:evenodd;stroke-linejoin:round;stroke-miterlimit:2"
   id="svg5353"
   xmlns="http://www.w3.org/2000/svg"
   xmlns:svg="http://www.w3.org/2000/svg"><defs
   id="defs5353" />&#10;    &#10;<g
   id="vectorly-UNI-cloud-upload"
   style="stroke:none;stroke-width:0.185987"
   transform="matrix(5.3767108,0,0,5.3767108,-22068.773,-35654.315)"><path
     d="m 4541.5667,6893.9866 c 1.93,-0.01 3.51,1.56 3.52,3.49 0.01,1.94 -1.56,3.51 -3.49,3.52 0,0 -13.34,1.85 -35.4899,3.65 -4.4,0.36 -9.13,0.64 -14.19,0.86 -3.05,0.13 -6.21,0.26 -9.47,0.23 -7.42,-0.08 -15.33,-0.51 -23.6699,-1.07 -11.24,-0.76 -23.04,-2.07 -35.5099,-3.2 -1.94,0.01 -3.51,-1.55 -3.52,-3.49 -0.01,-1.93 1.56,-3.51 3.49,-3.51 12.4699,-1.22 24.2499,-2.62 35.4899,-3.46 8.3299,-0.63 16.2399,-1.13 23.6599,-1.26 3.26,-0.06 6.42,0.05 9.46,0.15 5.06,0.17 9.8,0.42 14.21,0.74 22.1499,1.62 35.5099,3.35 35.5099,3.35 z m -231.7395,0.85 c 1.94,0 3.51,1.56 3.52,3.5 0,1.93 -1.56,3.51 -3.5,3.51 -35.0999,1.21 -68.6398,2.52 -96.0597,3.25 -33.0199,0.87 -57.1199,1.1 -64.2199,1.08 -11.9899,-0.19 -23.2299,-6.5 -31.4799,-16.76 -6.75,-8.39 -11.51,-19.4 -13.03,-31.17 -2.6599,-20.49 4.13,-43.3599 26.32,-58.6399 20.7599,-14.05 38.9099,-14.06 53.6098,-8.29 24.59,9.66 39.11,35.91 39.11,35.91 0.9799,1.6699 0.42,3.8199 -1.25,4.7999 -1.67,0.98 -3.81,0.42 -4.79,-1.25 0,0 -14.21,-22.5699 -36.5199,-29.8399 -12.05,-3.92 -26.52,-2.89 -42.5199,9.29 -16.59,12.43 -21.12,30.1099 -18.63,45.8099 1.4,8.84 5.06,17.03 10.15,23.34 5.19,6.43 11.85,10.99 19.3699,11.21 8.17,0.35 38.9299,0.8 79.8698,1.83 24.04,0.61 51.5199,1.58 80.0498,2.42 z"
     id="path1680"
     style="stroke:none;stroke-width:0.185987" /><path
     d="m 4203.0475,6804.5867 c 0.34,1.91 -0.92,3.73 -2.83,4.08 -1.9,0.35 -3.72,-0.92 -4.07,-2.82 -10.31,-49.67 0.04,-89.16 21.4,-117.97 10.8499,-14.63 24.6099,-26.49 40.0499,-35.51 22.0399,-12.87 47.5599,-20.02 73.0198,-21 26.1099,-1 52.1799,4.45 74.3598,16.14 46.0499,24.27 76.3098,75.4 56.2499,153.75 -0.44,1.89 -2.33,3.06 -4.21,2.62 -1.88,-0.44 -3.06,-2.32 -2.62,-4.2 15.1999,-72.56 -13.09,-118.34 -55.9799,-139.21 -20.2799,-9.87 -43.6899,-14.1 -67.1698,-13.12 -12.28,0.51 -24.58,2.39 -36.4599,5.75 -17.81,5.04 -34.6599,13.32 -49.0499,24.9 -32.1399,25.87 -51.8899,68.01 -42.6899,126.59 z"
     id="path1686"
     style="stroke:none;stroke-width:0.185987" /><path
     d="m 4463.9569,6783.9567 c -1.26,1.46 -3.48,1.62 -4.94,0.35 -1.46,-1.27 -1.62,-3.49 -0.35,-4.95 18.0599,-22.61 39.6899,-33.87 60.2598,-36.9 11.13,-1.63 21.98,-0.75 31.8799,2.06 18.61,5.28 33.92,17.58 41.6799,33.86 5.56,11.65 7.25,25.39 3.69,40.09 19.55,-3.62 34.4399,1.99 42.7899,12.2899 10.69,13.19 11.37,34.77 -4.25,55.45 -1.1,1.59 -3.29,1.98 -4.88,0.88 -1.58,-1.11 -1.9799,-3.29 -0.87,-4.88 11.06,-17.32 10.72,-34.24 1.53,-44.07 -8.3199,-8.91 -23.6399,-10.8399 -42.9798,-2.15 -2.75,1.14 -5.92,0.49 -8,-1.64 -2.08,-2.12 -2.66,-5.3 -1.47,-8.0199 6.43,-15.32 5.53,-29.46 0.02,-41.1 -5.97,-12.58 -17.36,-22.18 -31.5099,-26.98 -24.29,-8.24 -55.9199,-2.8 -82.5998,25.71 z"
     id="path1692"
     style="stroke:none;stroke-width:0.185987" /><path
     d="m 4334.3905,6936.6925 c -0.21,1.92 -1.95,3.31 -3.87,3.09 -1.92,-0.21 -3.31,-1.95 -3.09,-3.87 0,0 -0.44,-13.49 -0.46,-31.35 0,-3.99 0.08,-8.17 0.22,-12.47 0.09,-2.73 0.17,-5.49 0.41,-8.27 0.59,-6.94 1.51,-13.9 2.32,-20.55 1.5,-12.33 3.1,-23.26 2.96,-30.54 -0.24,-1.92 1.13,-3.68 3.05,-3.92 1.92,-0.24 3.67,1.13 3.91,3.05 1.74,7.43 3.2,18.95 3.73,31.96 0.28,6.83 0.36,14 -0.02,21.1 -0.14,2.82 -0.47,5.62 -0.8,8.37 -0.52,4.32 -1.12,8.5 -1.82,12.48 -3.12,17.73 -6.54,30.92 -6.54,30.92 z"
     id="path1696"
     style="stroke:none;stroke-width:0.185987" /><path
     d="m 4392.9304,6952.4225 c -0.09,1.94 -1.74,3.43 -3.67,3.33 -1.94,-0.1 -3.42,-1.75 -3.33,-3.68 0,0 -1.16,-15.47 -1.93,-36.07 -0.17,-4.59 -0.25,-9.41 -0.27,-14.38 -0.01,-3.16 -0.02,-6.36 0.12,-9.58 0.36,-8.02 1.07,-16.11 1.76,-23.88 1.25,-14.04 2.8,-26.74 3.23,-35.72 -0.08,-1.93 1.42,-3.57 3.35,-3.65 1.93,-0.09 3.57,1.41 3.65,3.35 1.24,9.05 2.6899,21.97 3.4299,36.28 0.41,7.84 0.7,16.03 0.56,24.11 -0.05,3.24 -0.27,6.46 -0.5,9.62 -0.36,4.98 -0.8,9.81 -1.32,14.4 -2.3699,20.54 -5.0799,35.87 -5.0799,35.87 z"
     id="path1700"
     style="stroke:none;stroke-width:0.185987" /><path
     d="m 4365.4539,6772.7436 c -0.16,0.14 -0.31,0.28 -0.46,0.38 -5.02,3.57 -11.8899,10.41 -18.8999,17.77 -11.54,12.1099 -23.39,25.5099 -26.52,30.4799 -0.33,0.52 -0.75,1.28 -0.75,1.28 l -0.36,-0.32 c 0,0 0.57,0.56 0.98,0.74 3.34,1.49 8.28,1.52 8.28,1.52 1.93,-0.15 3.62,1.29 3.77,3.22 0.15,1.93 -1.29,3.61 -3.22,3.77 0,0 -9.61,1.01 -14.5199,-1.77 -2.01,-1.15 -3.27,-2.94 -3.95,-5.08 -0.64,-2.04 -0.43,-4.68 1.17,-8.11 2.45,-5.11 11.2599,-18.78 21.2299,-31.6399 5.6,-7.22 11.55,-14.15 16.8,-19.2 4.76,-4.58 9.1999,-7.63 12.3199,-8.85 4,-1.56 7.28,-1.09 9.6,0.18 1.28,0.71 3.29,2.22 5.5,4.75 3.01,3.43 7.2,9 11.57,15.62 12.7699,19.2999 27.9999,46.8599 27.9999,46.8599 1.06,1.62 0.61,3.79 -1.01,4.86 -1.62,1.06 -3.79,0.6 -4.85,-1.01 0,0 -18.9999,-24.62 -33.5399,-42.2999 -3.87,-4.71 -7.36,-8.94 -10.14,-11.94 -0.34,-0.36 -0.68,-0.79 -1,-1.21 z m -0.93,-1.19 c -0.55,-0.67 -1.01,-1.06 -1.28,-0.67 -0.08,0.13 0.24,0.17 0.35,0.22 0.21,0.11 0.54,0.27 0.93,0.45 z m 1.55,0.62 c 0.83,0.25 1.47,0.26 1.16,-0.47 -0.16,-0.4 -0.63,-0.03 -1.16,0.47 z"
     id="path1704"
     style="stroke:none;stroke-width:0.185987" /><path
     style="fill:#000000;stroke:none;stroke-width:0.185987;stroke-linecap:round;stroke-linejoin:round"
     d="m 4328.3591,6936.7838 8.0701,-105.2188 -22.9572,-7.4521 53.9213,-59.5048 46.1438,60.7626 -19.592,5.5221 -3.4909,124.4069 c -22.5242,-3.8119 -50.2812,-7.4667 -62.0951,-18.5159 z"
     id="path93" /></g></svg>
