<?xml version="1.0" encoding="UTF-8" standalone="no"?>
<svg
   width="3496.5073"
   height="3135.8105"
   viewBox="0 0 3496.5073 3135.8106"
   version="1.1"
   xml:space="preserve"
   style="clip-rule:evenodd;fill-rule:evenodd;stroke-linejoin:round;stroke-miterlimit:2"
   id="svg5353"
   xmlns="http://www.w3.org/2000/svg"
   xmlns:svg="http://www.w3.org/2000/svg"><defs
   id="defs5353" />&#10;    <g
   id="vectorly-UNI-flag"
   style="stroke:none;stroke-width:0.2"
   transform="matrix(4.9999999,0,0,4.9999999,-238.03638,-44785.464)"><path
     d="m 341.33032,9264.2923 c 0.039,-1.94 1.641,-3.48 3.57499,-3.44 1.934,0.04 3.473,1.64 3.434,3.58 0,0 1.25899,34.51 2.05499,79.1499 0.18,10.13 0.265,20.77 0.282,31.65 0.011,6.96 0.024,14.01 -0.125,21.09 -0.375,17.87 -1.117,35.83 -1.836,52.7 -1.46299,34.32 -3.19099,63.99 -3.44999,78.95 0.048,1.94 -1.48399,3.55 -3.41699,3.59 -1.93399,0.05 -3.54299,-1.48 -3.59099,-3.41 -1.001,-15 -2.46199,-44.8 -3.20199,-79.28 -0.363,-16.9 -0.636,-34.89 -0.492,-52.78 0.056,-7.08 0.282,-14.14 0.509,-21.1 0.356,-10.88 0.788,-21.52 1.30999,-31.65 2.302,-44.5999 4.94799,-79.0499 4.94799,-79.0499 z"
     id="path2348"
     style="stroke:none;stroke-width:0.2" /><path
     d="m 292.53944,9052.4424 c -0.211,-0.25 -0.69899,-0.84 -1.08999,-1.17 -0.852,-0.72 -1.849,-1.43 -2.932,-2.16 -4.45299,-3 -9.94397,-6.3 -13.98396,-10.97 -3.11399,-3.61 -5.48899,-7.93 -6.22999,-13.39 -1.38199,-10.36 1.496,-23.44 9.48898,-33.02 6.76298,-8.1 17.01896,-13.91 31.31492,-13.29 12.90597,0.55 22.06095,9.82 26.54794,21.32 4.71399,12.08 4.15899,26.25 -1.44,33.52 -1.15,1.55 -3.34699,1.88 -4.90199,0.73 -1.55499,-1.15 -1.88299,-3.35 -0.733,-4.9 4.15099,-5.85 3.51,-16.92 -0.52399,-26.22 -3.527,-8.12 -9.91698,-15.06 -19.18396,-15.12 -10.61897,-0.08 -18.15895,4.31 -22.96294,10.49 -5.68399,7.33 -7.52598,17.11 -6.22698,24.77 0.99899,5.97 5.53198,9.3 9.77997,12.09 5.05999,3.33 10.03098,6.06 12.66397,9.1 1.858,2.15 2.84699,4.51 3.06999,7.06 2.039,24.27 4.69699,67.1399 6.89199,117.8199 1.07199,24.73 2.01199,51.32 2.79399,78.51 0.559,19.48 0.975,39.26 1.34499,58.89 0.574,30.42 0.995,60.4399 1.296,88.3499 0.895,83.02 0.941,147.27 0.941,147.27 0.045,1.93 -1.488,3.54 -3.42199,3.58 -1.934,0.05 -3.54099,-1.49 -3.58599,-3.42 0,0 -2.954,-64.17 -6.51499,-147.09 -1.32599,-30.87 -2.75699,-64.3299 -4.04399,-98.0599 -1.26599,-33.18 -2.52899,-66.61 -3.49399,-98.05 -1.93099,-62.89 -3.11799,-117.7699 -4.86399,-146.6399 z"
     id="path2350"
     style="stroke:none;stroke-width:0.2" /><path
     d="m 349.5093,9059.6024 c 2.547,14.26 4.29799,49.5199 5.80599,86.1099 1.36199,33.02 2.55299,67.16 5.09399,87.15 0.53199,4.19 1.05299,7.67 1.67499,10.27 21.04695,-4.89 47.24988,-6.92 70.86383,-3.75 19.19095,2.57 36.6619,8.57 48.61987,18.76 3.677,3.14 9.61698,5.32 16.87096,6.88 13.23797,2.85 30.53693,3.4 47.81088,2.04 26.61294,-2.09 53.23787,-8.52 64.54384,-18.88 1.403,-1.33 3.624,-1.27 4.95499,0.13 1.332,1.4 1.274,3.62 -0.129,4.96 -11.75797,11.55 -39.9439,20.05 -68.46783,23.25 -18.30495,2.05 -36.70791,1.92 -50.86687,-0.66 -9.54398,-1.75 -17.24596,-4.75 -22.17895,-8.71 -10.62397,-8.53 -26.03393,-12.94 -42.73489,-14.74 -23.84894,-2.58 -50.38088,0.42 -70.51483,6.27 -3.18799,0.93 -6.50798,0.3 -9.40297,-3.15 -2.128,-2.54 -4.53699,-9.84 -6.05799,-20.66 -2.85099,-20.28 -4.69499,-54.95 -6.05998,-88.51 -1.559,-38.34 -2.399,-75.2099 -5.09599,-86.2899 -0.931,-3.88 0.003,-7.66 3.65599,-10.88 1.901,-1.68 4.92399,-3.37 9.03498,-4.67 6.88498,-2.17 17.50596,-3.72 29.92492,-4.43 30.68593,-1.76 72.62182,1.23 94.06777,8.72 10.72797,3.76 17.35396,8.52 21.22895,15.38 3.44799,6.1 4.78599,14.04 4.27299,25.05 l -2.16,116.2899 c -0.001,1.93 -1.57199,3.5 -3.50599,3.5 -1.93399,0 -3.50499,-1.57 -3.50399,-3.5 l -1.531,-116.6199 c 0.134,-8.36 -0.66499,-14.42 -3.41299,-18.97 -2.80499,-4.64 -7.74998,-7.35 -15.20796,-9.74 -12.12797,-3.89 -31.06892,-5.96 -50.49187,-6.61 -23.27495,-0.78 -47.25089,0.57 -61.12085,3.94 -2.087,0.51 -4.46499,1.43 -5.98099,2.07 z m 7.39398,184.8099 c -0.005,0 -0.011,0.01 -0.016,0.01 0.005,0 0.011,-0.01 0.016,-0.01 z m -8.05498,-187.9499 c -0.002,-0.01 -0.005,-0.02 -0.007,-0.03 0.002,0.01 0.005,0.02 0.007,0.03 z"
     id="path2352"
     style="stroke:none;stroke-width:0.2" /><path
     d="m 609.94366,9099.0423 c -8.02098,2.96 -16.64796,5.04 -25.52494,6.21 -10.76397,1.43 -21.84995,1.65 -32.50692,1.01 -29.61993,-1.79 -55.73286,-9.9399 -62.85284,-15.5999 -1.57,-1.12 -1.927,-3.32 -0.797,-4.89 1.13,-1.57 3.32199,-1.93 4.89199,-0.79 7.01398,4.56 31.70892,8.92 59.01885,8.38 9.86598,-0.2 20.04795,-1.11 29.92093,-2.91 9.81297,-1.79 19.30495,-4.46 27.69893,-8.59 2.07499,-0.99 4.11199,-1.11 6.08698,-0.64 2.048,0.49 4.45999,1.81 6.30699,4.9 1.37199,2.3 2.85099,6.83 3.78799,13.1099 1.71399,11.49 2.56199,29.93 2.71099,49.08 0.274,35.18 -1.608,72.63 -1.608,72.63 0.002,1.94 -1.56699,3.51 -3.50199,3.51 -1.93399,0 -3.50599,-1.56 -3.50799,-3.5 0,0 -1.95499,-37.21 -4.67099,-72.07 -1.43199,-18.38 -3.05999,-36.05 -5.06998,-47.05 -0.162,-0.89 -0.279,-1.86 -0.383,-2.79 z m -0.384,-3.0799 c -0.216,-1.23 -0.52,-1.96 -1.092,-1.62 -0.931,0.56 -0.06,1.15 1.092,1.62 z m 6.88298,0.42 c 0.059,-0.03 0.119,-0.06 0.178,-0.08 -0.059,0.02 -0.119,0.05 -0.178,0.08 z"
     id="path2354"
     style="stroke:none;stroke-width:0.2" /><path
     d="m 644.45557,8958.7124 c 1.038,-1.63 3.20599,-2.11 4.83799,-1.07 1.63299,1.03 2.11499,3.2 1.077,4.83 0,0 -5.06799,11.6 -12.50597,26.19 -1.687,3.31 -3.54199,6.71 -5.51199,10.16 -1.263,2.21 -2.54199,4.44 -3.96099,6.58 -3.63499,5.5 -7.57998,10.75 -11.28997,15.59 -9.95098,12.98 -18.26696,22.52 -18.26696,22.52 -1.03799,1.64 -3.20599,2.12 -4.83798,1.08 -1.633,-1.04 -2.115,-3.2 -1.077,-4.84 0,0 5.12199,-11.58 12.65397,-26.09 2.80899,-5.42 5.88798,-11.21 9.32497,-16.84 1.341,-2.19 2.821,-4.3 4.28499,-6.38 2.284,-3.24 4.57499,-6.36 6.85599,-9.29 10.05897,-12.93 18.41595,-22.44 18.41595,-22.44 z"
     id="path2356"
     style="stroke:none;stroke-width:0.2" /><path
     d="m 709.73741,9052.9824 c 1.77099,-0.78 3.83999,0.03 4.61699,1.8 0.777,1.77 -0.031,3.84 -1.803,4.62 0,0 -6.57498,4.99 -15.82496,10.76 -2.07099,1.29 -4.26599,2.54 -6.57298,3.75 -1.47,0.78 -2.96,1.56 -4.51799,2.19 -4.00599,1.63 -8.10898,2.87 -11.95497,3.97 -10.44598,3 -18.56596,4.51 -18.56596,4.51 -1.77199,0.77 -3.84099,-0.03 -4.61698,-1.8 -0.777,-1.78 0.031,-3.85 1.80299,-4.62 0,0 6.61299,-4.95 15.89596,-10.6 3.41699,-2.08 7.10698,-4.26 11.01897,-6.1 1.521,-0.72 3.106,-1.29 4.67299,-1.84 2.457,-0.88 4.85799,-1.65 7.21199,-2.29 10.51297,-2.9 18.63695,-4.35 18.63695,-4.35 z"
     id="path2358"
     style="stroke:none;stroke-width:0.2" /><path
     d="m 669.20151,9166.6923 c -1.93,-0.13 -3.38799,-1.81 -3.25499,-3.74 0.134,-1.93 1.80899,-3.38 3.73899,-3.25 0,0 9.68097,-1.28 22.42894,-1.96 2.873,-0.15 5.85699,-0.21 8.92998,-0.18 1.964,0.01 3.95199,0.03 5.93099,0.22 5.07798,0.46 10.07097,1.33 14.71096,2.18 12.52597,2.31 21.95894,4.85 21.95894,4.85 1.93,0.14 3.388,1.81 3.255,3.74 -0.134,1.93 -1.809,3.39 -3.73899,3.26 0,0 -9.69298,1.22 -22.41695,1.78 -4.71399,0.21 -9.77797,0.37 -14.87296,0.14 -1.984,-0.09 -3.95599,-0.35 -5.90299,-0.6 -3.04799,-0.4 -5.99698,-0.86 -8.81997,-1.41 -12.53297,-2.43 -21.94695,-5.03 -21.94695,-5.03 z"
     id="path2360"
     style="stroke:none;stroke-width:0.2" /><path
     d="m 658.33354,9228.0423 c -1.915,-0.27 -3.252,-2.05 -2.983,-3.96 0.269,-1.92 2.043,-3.25 3.95899,-2.98 0,0 6.22299,-1.05 14.76697,-1.46 1.88399,-0.1 3.81099,-0.08 5.82398,0.01 1.273,0.06 2.564,0.12 3.83399,0.34 3.284,0.58 6.42299,1.54 9.35898,2.49 8.09298,2.63 13.81797,5.3 13.81797,5.3 1.91499,0.27 3.25199,2.05 2.98299,3.96 -0.269,1.92 -2.043,3.25 -3.95899,2.99 0,0 -6.23999,0.99 -14.74297,1.28 -3.08399,0.11 -6.36598,0.16 -9.68197,-0.18 -1.283,-0.14 -2.54099,-0.43 -3.78199,-0.73 -1.96,-0.46 -3.81599,-0.98 -5.60099,-1.59 -8.09998,-2.75 -13.79396,-5.47 -13.79396,-5.47 z"
     id="path2362"
     style="stroke:none;stroke-width:0.2" /><path
     d="m 313.39439,9523.3022 c 1.818,-0.66 3.83099,0.28 4.49099,2.1 0.66,1.82 -0.28,3.83 -2.09899,4.49 -7.06499,3.2 -12.55897,6.72 -16.78996,10.26 -5.32999,4.47 -8.10498,8.96 -8.39298,13.21 -0.213,3.13 1.82699,5.65 4.86099,7.9 4.37399,3.24 11.03497,5.39 19.67395,6.24 8.73798,1.34 16.79296,1.82 24.09594,1.8 9.12198,-0.01 17.02096,-0.76 23.57494,-2.41 8.54598,-2.16 14.73396,-5.2 17.65196,-9.33 1.43899,-2.03 2.18999,-4.17 1.61799,-6.44 -0.612,-1.83 0.382,-3.82 2.217,-4.43 1.83499,-0.62 3.82199,0.38 4.43299,2.21 4.12098,9.98 -3.642,21.91 -22.34795,29.19 -7.21398,2.8 -16.10896,4.88 -26.51793,5.77 -8.04198,0.68 -16.97496,0.45 -26.69894,-0.48 -9.45297,-1.38 -17.10896,-3.96 -22.68194,-7.5 -10.12498,-6.42 -14.46597,-15.27 -12.80397,-24.17 0.871,-4.67 3.22299,-9.57 7.84498,-14 5.74599,-5.52 14.82196,-10.74 27.87093,-14.41 z"
     id="path2364"
     style="stroke:none;stroke-width:0.2" /><path
     d="m 198.39868,9455.5922 c 15.57596,9.77 28.86093,18.04 40.0519,25.31 21.43894,13.92 35.46791,23.68 44.91289,30.51 17.49595,12.65 19.89095,16.67 20.85494,20.43 0.569,1.85 -0.46999,3.81 -2.31899,4.38 -1.849,0.57 -3.81199,-0.47 -4.38099,-2.32 -1.091,-3.03 -4.04099,-5.29 -19.41895,-14.5 -9.92798,-5.94 -24.76794,-14.15 -46.83188,-26.7 -12.97597,-7.37 -28.32893,-16.39 -46.80289,-27 -3.31999,-1.98 -4.88499,-4.98 -4.66099,-8.89 0.151,-2.64 1.964,-6.99 6.21299,-11.3 7.84498,-7.95 24.38494,-18.04 37.22791,-19.4 22.02794,-1.98 40.89389,-5.34 55.94286,-11.41 12.59597,-5.08 22.49294,-11.92 29.04392,-21.72 1.005,-1.66 3.163,-2.18 4.81599,-1.18 1.653,1.01 2.179,3.17 1.174,4.82 -6.47898,11.76 -16.92696,20.66 -30.77792,27.55 -15.43297,7.67 -35.20092,12.63 -58.39186,16.37 -6.30298,0.93 -13.51997,5 -19.48495,9.23 -2.77199,1.97 -5.27499,3.98 -7.16798,5.82 z m -2.392,2.7 c -0.156,0.21 -0.299,0.42 -0.427,0.63 -0.039,0.06 -0.162,0.15 -0.104,0.18 0.489,0.25 0.58,-0.2 0.531,-0.81 z m -3.10899,-6.15 c -0.068,-0.04 -0.137,-0.09 -0.208,-0.13 0.07,0.04 0.139,0.09 0.208,0.13 z"
     id="path2366"
     style="stroke:none;stroke-width:0.2" /><path
     d="m 92.839939,9389.0722 c 8.945981,-4.57 18.263951,-6.62 28.111931,-7.55 17.03496,-1.6 35.72591,0.36 56.85686,-4.74 11.18697,-2.7 23.09894,-7.36 35.84591,-15.76 6.97398,-4.58 16.87096,-10.56 25.15394,-13.04 6.21098,-1.86 11.71597,-1.75 15.42896,0.66 l 58.40385,33.79 c 1.702,0.92 2.337,3.05 1.417,4.75 -0.919,1.7 -3.04799,2.34 -4.74999,1.42 0,0 -24.33394,-12.43 -42.20389,-21.73 -8.83498,-4.6 -16.09596,-8.45 -18.17796,-9.68 -0.753,-0.45 -1.72899,-0.34 -2.80199,-0.22 -2.192,0.25 -4.65099,1.13 -7.23098,2.28 -6.49999,2.88 -13.49697,7.63 -18.67396,11.34 -13.78596,9.84 -26.80493,15.52 -39.1119,18.93 -17.89796,4.96 -34.25492,4.99 -49.33188,5.97 -14.78196,0.96 -28.23993,2.72 -40.559897,13.25 -0.272999,0.23 -0.556999,0.43 -0.851998,0.62 12.377965,9 35.651915,25.93 61.952845,45.04 23.25594,16.91 48.83788,35.54 71.47482,51.76 30.64493,21.96 55.70987,39.55 61.83585,42.26 1.786,0.74 2.63199,2.79 1.887,4.58 -0.744,1.79 -2.797,2.63 -4.58299,1.89 -6.36099,-2.5 -32.77692,-19.19 -64.89484,-40.36 -23.28394,-15.34 -49.61188,-32.99 -73.41282,-49.19 -33.32692,-22.67 -61.716846,-42.42 -70.184825,-48.32 -4.562989,0.42 -9.027978,-0.08 -13.012968,-1.74 -5.003988,-2.1 -9.395977,-5.99 -12.31497,-12.68 -3.357991,-7.75 -0.971997,-18.5 5.957986,-24.57 5.669985,-4.96 14.226964,-7.4 24.760938,-1.88 7.340982,3.88 11.080973,8.6 13.009968,12.92 z m -14.327965,12.27 c 0.094,-0.52 0.242,-1.03 0.443999,-1.53 0,0 0.649999,-2.28 -0.790998,-4.76 -0.983997,-1.69 -2.812993,-3.29 -5.701986,-4.78 -2.914992,-1.51 -5.289986,-1.58 -6.855983,-0.21 -1.786995,1.57 -2.728993,4.24 -1.870995,6.25 0.948998,2.23 2.216995,3.72 3.87699,4.43 2.234995,0.97 4.833988,0.87 7.425982,0.43 1.166997,-0.21 2.353994,-0.14 3.472991,0.17 z"
     id="path2368"
     style="stroke:none;stroke-width:0.2" /><path
     d="m 310.9754,9385.5122 c 0.085,3.12 0.168,6.22 0.251,9.29 -14.07597,23.15 -44.87389,33.24 -87.07779,38.52 -17.06095,2.14 -41.06489,22.23 -35.57191,25.53 102.22175,61.44 110.27873,67.48 112.29172,74.02 -10.02397,5.81 -15.39796,12.46 -16.58896,18.78 -18.47295,-7.7 -207.87448,-142.78 -207.87448,-142.78 -7.992981,1.41 -15.984961,-0.13 -19.981951,-9.42 -3.84499,-8.93 4.898988,-23.97 19.723951,-16.24 14.823964,7.74 10.054975,19.53 10.054975,19.53 34.442915,-28.8 75.545815,0.93 130.735675,-36.93 10.22298,-7.02 27.19193,-17.53 34.64392,-12.9 6.17998,3.85 59.39385,32.6 59.39385,32.6 z"
     id="path2370"
     style="stroke:none;stroke-width:0.2" /></g>&#10;</svg>
