<?xml version="1.0" encoding="UTF-8" standalone="no"?>
<svg
   width="3079.3484"
   height="2107.2197"
   viewBox="0 0 3079.3484 2107.2197"
   version="1.1"
   xml:space="preserve"
   style="clip-rule:evenodd;fill-rule:evenodd;stroke-linejoin:round;stroke-miterlimit:2"
   id="svg5353"
   xmlns="http://www.w3.org/2000/svg"
   xmlns:svg="http://www.w3.org/2000/svg"><defs
   id="defs5353" />&#10;    <g
   id="vectorly-UNI-camera"
   style="stroke:none;stroke-width:0.2"
   transform="matrix(4.9999999,0,0,4.9999999,-12570.269,-563.05966)"><path
     d="m 3066.7945,239.26718 c -2.779,-0.58 -7.626,-1.02 -14.197,-1.45 -30.2169,-1.96 -94.4728,-2.33 -164.7776,-2.2 -116.4357,0.23 -249.4664,2.04 -271.6383,3.15 -0.262,1.72 -0.368,4.17 -0.696,6.22 -3.682,23.00999 -4.286,74.19997 -3.764,125.58995 0.674,66.26997 3.235,132.86994 4.551,139.85994 0.441,2.35 2.361,3.79 4.947,5.03 3.049,1.46 6.9199,2.48 11.4399,3.25 10.689,1.81999 24.647,2.16999 40.2889,2.26999 8.742,0.06 38.2469,-0.45 77.3408,-1.19999 114.1958,-2.16 310.0033,-6.44 310.0033,-6.44 1.933,-0.06 3.551,1.46 3.609,3.4 0.058,1.93 -1.464,3.54999 -3.398,3.60999 0,0 -156.4166,6.06 -271.1524,10.09 -57.7278,2.03 -104.9157,3.51 -116.4027,3.59 -20.3159,0.13 -37.9579,-0.35 -49.9068,-3.46 -11.836,-3.09 -18.722,-9.08 -20.404,-17.49999 -2.037,-10.29 -8.503,-148.00994 -6.108,-227.37991 0.752,-24.88999 2.536,-44.21998 5.265,-52.67998 2.296,-7.11999 6.77,-9.59999 9.749,-9.93999 6.218,-0.72 77.0998,-1.81 161.5126,-1.94 52.4629,-0.09 110.1767,0.2 160.7436,0.95 55.3709,0.83 102.1957,2.27 124.3107,4.39 6.688,0.63 11.318,1.39999 13.5449,2.15999 1.83,0.62 2.95,1.47 3.563,2.12 1.194,1.27 2.802,4.74 3.765,10.34 2.167,12.62999 3.605,39.26998 4.45,70.93997 1.793,67.23997 1.097,157.34994 0.514,182.49993 -0.028,1.93999 -1.621,3.47999 -3.555,3.45999 -1.934,-0.03 -3.482,-1.62 -3.454,-3.55999 0.135,-25.09999 -0.824,-114.99996 -3.744,-182.03993 -1.117,-25.65999 -2.5089,-47.94998 -4.2749,-61.88997 -0.568,-4.49 -1.644,-9.24 -2.125,-11.24 z m -453.3669,-0.31 c -0.01,0 -0.01,0 -0.016,0 0.01,0 0.011,0 0.016,0 z m 2.832,-0.66 c 1.318,-0.43 2.324,-1.02 1.243,-1.61 -0.658,-0.36 -1.01,0.36 -1.243,1.61 z"
     id="path800"
     style="stroke:none;stroke-width:0.2" /><path
     d="m 2997.3002,446.89284 c 1.1619,-1.54644 3.3609,-1.85957 4.9076,-0.69897 1.5464,1.16193 1.8609,3.36119 0.699,4.90763 -13.9443,19.3228 -33.2264,34.11602 -55.2102,42.73534 -21.6257,8.46772 -45.8519,10.87713 -70.2753,5.87051 -34.0169,-7.07757 -61.9537,-27.34925 -79.5364,-54.3562 -17.7319,-27.22346 -24.818,-61.28931 -17.4815,-95.53203 7.7504,-34.20141 28.5533,-62.16809 56.1376,-79.41787 27.4231,-17.15876 61.4616,-23.74189 95.4102,-15.7869 33.5965,8.01626 60.8745,28.77733 77.6282,56.08774 16.5591,26.98085 22.8914,60.25149 14.9186,93.42477 -0.4203,1.88913 -2.2931,3.08141 -4.1876,2.65991 -1.8811,-0.41851 -3.0717,-2.29237 -2.6514,-4.18149 6.3545,-31.09664 -0.5147,-61.82724 -16.7054,-86.40788 -15.9946,-24.2578 -41.1767,-42.45995 -71.8483,-48.79183 -30.2932,-6.38448 -60.2774,0.22923 -84.4065,15.82938 -23.9661,15.50106 -42.1745,39.98241 -48.7498,70.04286 -6.9225,30.03677 -0.9428,60.01244 14.1419,84.30331 15.2322,24.51545 39.6542,43.34521 69.9132,50.51739 22.154,5.31958 44.3292,3.76245 64.3376,-3.26719 20.8022,-7.30146 39.2875,-20.41481 52.9585,-37.93848 z"
     id="path802"
     style="stroke:none;stroke-width:0.275294" /><path
     d="m 2927.9939,347.82358 c -1.5174,-1.20042 -1.7765,-3.40721 -0.5783,-4.92369 1.1987,-1.51637 3.405,-1.77749 4.9229,-0.57696 7.1786,5.0525 12.6015,12.14493 15.8511,20.22246 3.2477,8.06727 4.0497,17.13048 2.2402,26.29044 -2.6707,12.94184 -10.4885,23.49767 -20.7898,30.14715 -10.5092,6.78415 -23.7043,9.18519 -36.86,6.23247 -13.0931,-3.40785 -23.7392,-11.6697 -29.9785,-22.55851 -6.1542,-10.7402 -8.1812,-23.86792 -4.5461,-36.70757 3.6909,-12.47771 11.85,-22.45361 22.4722,-28.18996 10.2821,-5.55115 22.6315,-7.35812 34.6912,-3.72149 1.8777,0.46621 3.0237,2.36865 2.557,4.24817 -0.4666,1.87952 -2.3694,3.02496 -4.2471,2.55874 -10.0248,-1.96943 -19.8408,0.41753 -27.7211,5.68255 -7.5522,5.04742 -13.098,12.98063 -15.0352,22.57956 -1.9747,9.22681 0.1808,18.3025 4.8601,25.70055 4.5767,7.24023 11.8009,12.82375 20.7853,14.95156 8.9615,2.44082 18.0387,1.03725 25.5544,-3.17597 7.7502,-4.3462 14.0392,-11.41831 16.7154,-20.61312 2.0673,-6.88484 2.0661,-13.87149 0.219,-20.30158 -1.9644,-6.84652 -5.728,-13.09062 -11.1127,-17.8448 z"
     id="path804"
     style="stroke:none;stroke-width:0.095164" /><ellipse
     cx="2890.8418"
     cy="370.80698"
     rx="8.8979778"
     ry="9.4919958"
     id="ellipse806"
     style="stroke:none;stroke-width:0.2" /><ellipse
     cx="2908.6523"
     cy="383.28619"
     rx="5.4500089"
     ry="5.81387"
     id="ellipse808"
     style="stroke:none;stroke-width:0.1225" /><path
     d="m 2878.3309,467.05709 c -1.845,-0.58 -2.873,-2.55 -2.293,-4.4 0.58,-1.84 2.549,-2.87 4.394,-2.29 3.63,-0.06 6.657,-0.88 10.334,-1.12 2.13,-0.14 4.22,-0.39 6.386,-0.24 1.595,0.11 3.107,0.59 4.702,0.9 1.113,0.22 2.099,0.55 3.216,0.82 2.915,0.7 5.3949,1.52 8.4689,2 1.911,-0.3 3.708,1.01 4.011,2.92 0.304,1.91 -1.001,3.7 -2.911,4.01 -3.748,1.86999 -6.9999,3.29999 -10.8769,4.31999 -2.579,0.68 -5.129,1.04 -7.736,0.98 -1.043,-0.02 -2.069,-0.23 -3.077,-0.47 -1.558,-0.37 -3.03,-0.77 -4.48,-1.42 -3.819,-1.7 -6.8,-3.59999 -10.138,-6.00999 z m -69.8928,-102.67996 c 0.011,-1.94 1.59,-3.5 3.524,-3.49 1.935,0.01 3.497,1.59 3.486,3.53 0.807,6.92 2.616,13.61999 4.829,20.40999 1.419,4.35 3.144,8.56 4.968,12.81 1.491,3.47999 3.161,6.86999 4.8129,10.27999 1.647,3.41 3.284,6.81 5.071,10.14 3.035,5.64999 6.227,11.11999 9.999,16.22999 3.902,5.29 7.971,10.25 12.744,14.61999 1.568,1.14 1.921,3.33 0.788,4.9 -1.133,1.56 -3.326,1.92 -4.894,0.78 -9.259,-5.26 -17.675,-11.94999 -24.8889,-20.08999 -4.768,-5.38 -8.947,-11.33 -12.285,-17.73999 -1.334,-2.57 -2.433,-5.25 -3.419,-7.96 -1.483,-4.08 -2.723,-8.22 -3.568,-12.45999 -2.138,-10.71 -2.438,-21.45 -1.167,-31.95999 z"
     id="path810"
     style="stroke:none;stroke-width:0.2" /><path
     d="m 2946.8258,297.96716 c -1.575,-1.13 -1.944,-3.32 -0.822,-4.89 1.122,-1.58 3.312,-1.95 4.8879,-0.82 10.388,5.75 19.029,11.99999 26.089,19.16999 3.223,3.27 5.976,6.77 8.429,10.37 1.711,2.52 3.26,5.10999 4.521,7.79999 3.2309,6.89 5.2249,14.14 6.1169,21.56999 1.269,10.59 0.339,21.35 -2.263,32.50999 -0.235,1.92 -1.984,3.29 -3.9039,3.06 -1.92,-0.24 -3.289,-1.98 -3.054,-3.9 0.092,-8.57 -1.007,-16.55999 -2.904,-24.33999 -0.756,-3.1 -1.734,-6.08 -2.763,-9.07 -1.509,-4.38999 -3.517,-8.55999 -5.594,-12.80999 -2.67,-5.46 -5.646,-10.9 -9.398,-16.27999 -5.256,-7.54 -11.27,-15.13 -19.3419,-22.36999 z"
     id="path812"
     style="stroke:none;stroke-width:0.2" /><path
     d="m 3077.2964,284.65716 c 1.935,-0.01 3.514,1.55 3.525,3.49 0.012,1.93 -1.55,3.51 -3.484,3.52 0,0 -12.0849,2.02 -27.8669,3.67 -3.577,0.37 -7.313,0.65 -11.15,0.86 -2.458,0.13 -4.945,0.26 -7.435,0.23 -6.3799,-0.08 -12.7159,-0.55 -18.5979,-1.05 -15.786,-1.35 -27.9059,-3.17 -27.9059,-3.17 -1.934,0.01 -3.514,-1.55 -3.525,-3.48 -0.011,-1.94 1.55,-3.52 3.485,-3.53 0,0 12.0979,-1.96 27.8669,-3.48 5.876,-0.57 12.206,-1.12 18.584,-1.28 2.4899,-0.06 4.9789,0.05 7.4379,0.15 3.839,0.17 7.578,0.4 11.159,0.73 15.8,1.47 27.9069,3.34 27.9069,3.34 z m -253.3923,1.47 c 1.935,0 3.503,1.58 3.5,3.51 0,1.93 -1.575,3.5 -3.51,3.5 0,0 -28.9,1.92 -65.8659,3.4 -8.451,0.34 -17.3109,0.59 -26.3459,0.76 -5.809,0.11 -11.686,0.22 -17.563,0.17 -15.0199,-0.14 -30.0189,-0.68 -43.9049,-1.23 -36.9569,-1.48 -65.8568,-3.43 -65.8568,-3.43 -1.934,0 -3.502,-1.57 -3.499,-3.51 0,-1.93 1.575,-3.5 3.51,-3.5 0,0 28.9049,-1.86 65.8658,-3.22 13.887,-0.52 28.888,-1.01 43.9089,-1.1 5.877,-0.04 11.754,0.09 17.562,0.21 9.035,0.2 17.8929,0.48 26.3429,0.84 36.9619,1.6 65.8559,3.6 65.8559,3.6 z"
     id="path814"
     style="stroke:none;stroke-width:0.2" /><path
     d="m 2702.8284,228.92718 c 0.18,-1.91999 1.89,-3.33999 3.816,-3.15999 1.9259,0.18 3.3439,1.88999 3.1629,3.81999 0,0 -2.8749,61.23998 -2.8759,61.23998 0.098,1.38 1.4909,21.38999 2.5909,48.37998 0.409,10.01 0.758,20.98999 0.905,32.31999 0.208,16.03999 0.06,32.76998 -0.1,48.51998 -0.404,39.58998 -1.335,72.80997 -1.335,72.80997 0.048,1.93 -1.4839,3.53999 -3.4179,3.58999 -1.934,0.05 -3.542,-1.47999 -3.59,-3.41999 0,0 -2.554,-33.13999 -4.893,-72.65997 -0.931,-15.72 -1.897,-32.41999 -2.474,-48.44998 -0.408,-11.33 -0.595,-22.31 -0.677,-32.32999 -0.229,-27.99999 0.223,-48.52998 0.223,-48.52998 -0.01,-0.25 0,-0.5 0.026,-0.75 z"
     id="path816"
     style="stroke:none;stroke-width:0.2" /><path
     d="m 2631.0205,261.63717 c -1.935,0 -3.5049,-1.57 -3.5049,-3.51 0,-1.93 1.5699,-3.5 3.5049,-3.5 0,0 6.805,-1.92 16.136,-3.49999 2.072,-0.36 4.216,-0.61 6.454,-0.8 1.421,-0.12 2.861,-0.24 4.303,-0.19 3.718,0.11 7.356,0.63 10.7569,1.16 9.308,1.45999 16.136,3.32999 16.136,3.32999 1.934,0 3.505,1.57 3.505,3.5 0,1.94 -1.571,3.51 -3.505,3.51 0,0 -6.828,1.86 -16.136,3.32 -3.4009,0.54 -7.0389,1.05 -10.7569,1.17 -1.442,0.04 -2.882,-0.08 -4.303,-0.2 -2.238,-0.18 -4.382,-0.44 -6.454,-0.79 -9.331,-1.59 -16.136,-3.5 -16.136,-3.5 z"
     id="path818"
     style="stroke:none;stroke-width:0.2" /><path
     d="m 2811.3841,231.14718 c -1.415,1.32 -3.634,1.25 -4.954,-0.17 -1.32,-1.41 -1.244,-3.62999 0.171,-4.94999 0,0 14.982,-15.92 30.3589,-28.83999 9.068,-7.62 18.414,-13.94 24.909,-16.32 5.017,-1.74 13.3049,-3.21999 22.9889,-3.96999 6.902,-0.53 14.543,-0.74 22.116,-0.56 9.4519,0.23 18.7899,1.08 26.5149,2.21 8.956,1.30999 15.908,3.21999 19.1159,5.18999 3.412,2.14 8.132,6.78 12.844,12.62 10.439,12.92999 21.775,31.11998 21.775,31.11998 1.117,1.58 0.741,3.77 -0.839,4.89 -1.579,1.11 -3.768,0.74 -4.885,-0.84 0,0 -10.426,-12.97999 -20.801,-23.90999 -5.419,-5.71999 -10.7379,-10.84999 -14.3689,-12.64999 -1.564,-0.78 -4.371,-1.13 -7.921,-1.58 -6.235,-0.79 -14.442,-1.05 -23.192,-1.19 -8.3359,-0.14 -17.1439,-0.02 -25.2189,0.26 -9.95,0.34 -18.737,0.78 -23.7799,2.22 -5.644,1.5 -13.773,6.46 -22.064,12.04999 -16.2549,10.96 -32.7699,24.41999 -32.7699,24.41999 z"
     id="path820"
     style="stroke:none;stroke-width:0.2" /><path
     d="m 2869.422,210.37719 c -1.935,0 -3.505,-1.57 -3.505,-3.5 0,-1.94 1.57,-3.51 3.505,-3.51 0,0 8.7869,-1.92999 20.5019,-3.49999 2.632,-0.35 5.37,-0.61 8.2,-0.8 1.807,-0.12 3.637,-0.24 5.468,-0.19 4.705,0.12 9.3459,0.63 13.6679,1.17 11.697,1.44 20.501,3.31999 20.501,3.31999 1.935,0 3.505,1.57 3.505,3.51 0,1.93 -1.57,3.5 -3.505,3.5 0,0 -8.804,1.88 -20.501,3.33 -4.322,0.53 -8.9629,1.04 -13.6679,1.16 -1.831,0.05 -3.661,-0.07 -5.468,-0.19 -2.83,-0.19 -5.568,-0.45 -8.2,-0.8 -11.715,-1.57 -20.5019,-3.5 -20.5019,-3.5 z"
     id="path822"
     style="stroke:none;stroke-width:0.2" /><path
     d="m 2991.6056,229.89718 c -0.176,1.92 -1.8829,3.34 -3.8099,3.17 -1.926,-0.18 -3.347,-1.89 -3.171,-3.81 -0.158,-3.89999 -0.889,-8.08999 -0.796,-12.04999 0.091,-3.87 1.288,-7.29 3.349,-10.26 2.71,-3.90999 7.6749,-6.54999 16.4749,-7.30999 3.885,-0.17 8.103,-0.62 12.457,-0.76 4.194,-0.14 8.484,-0.12 12.627,0.03 11.2119,0.41 21.2759,1.53 26.1699,2.65 3.819,0.98 6.472,2.61999 8.079,4.98999 3.429,5.05 2.614,11.82 2.614,11.82 -0.121,1.93 -1.787,3.4 -3.717,3.28 -1.931,-0.12 -3.401,-1.79 -3.28,-3.72 0,0 -0.4,-2.69 -2.045,-4.79 -0.605,-0.77 -1.681,-0.93 -3.082,-0.95 -3.088,-0.1 -8.205,0.57 -14.399,1.15 -4.657,0.43 -9.8109,1 -15.0939,1.27 -3.402,0.17 -6.844,0.19 -10.191,0.11 -3.598,-0.08 -7.066,-0.37 -10.306,-0.61 -4.578,-0.52 -7.13,-0.44 -8.368,1.7 -2.267,3.93 -2.471,9.41 -3.512,14.08999 z"
     id="path824"
     style="stroke:none;stroke-width:0.2" /><path
     d="m 2980.5917,193.9572 c -1.842,0.59 -3.817,-0.43 -4.406,-2.27 -0.589,-1.84 0.428,-3.81 2.271,-4.4 11.581,-4.2 18.8459,-10.74999 21.7689,-19.85999 3.694,-11.52 0.362,-26.67999 -8.917,-45.63998 -1.4309,-3.19 -0.093,-6.93 3.031,-8.49 3.124,-1.56 6.921,-0.37 8.603,2.69 7.746,13.31 15.885,23.34999 24.349,30.32999 6.7739,5.59 13.7629,9.03999 21.0559,10.37999 7.391,1.37 15.043,0.46 23.0619,-2.39 10.354,-3.68999 21.25,-10.46999 32.638,-20.36999 2.908,-2.62 7.357,-2.47 10.0929,0.32 2.736,2.79 2.789,7.24 0.119,10.1 -13.8819,14.07999 -19.7229,26.79999 -20.1569,37.38998 -0.672,16.41 11.79,26.94999 23.2939,25.49999 0.421,-0.07 0.849,-0.08 1.272,-0.02 9.845,1.6 12.309,8.14 10.882,14.37 -1.42,6.20999 -7.245,11.94999 -13.182,11.47999 -1.933,-0.08 -3.434,-1.72 -3.351,-3.65 0.083,-1.94 1.72,-3.43999 3.653,-3.34999 2.66,0.01 4.582,-3.18 5.018,-5.98 0.29,-1.87 -0.796,-3.45 -3.477,-3.91 -13.6999,2.31 -29.2719,-6.76 -34.4659,-23.42999 -2.314,-7.43 -2.512,-16.51999 0.759,-26.83999 -2.571,1.28 -5.121,2.4 -7.65,3.34 -10.8879,4.05 -21.4449,5 -31.4999,2.98 -9.727,-1.96 -19.0879,-6.69 -27.8559,-14.51 -1.813,-1.62 -3.604,-3.37 -5.373,-5.25999 0.227,6.86999 -0.724,12.93999 -2.84,18.21999 -4.462,11.12999 -13.816,19.12999 -28.6939,23.26999 z"
     id="path826"
     style="stroke:none;stroke-width:0.2" /><path
     d="m 3076.3904,250.76718 c -1.541,1.16999 -3.742,0.87 -4.911,-0.67 -1.1689,-1.54 -0.8669,-3.74 0.675,-4.91 9.893,-10.01 19.907,-9.06 27.526,-4.86 2.314,1.28 4.257,3.16 6.041,5.24 3.46,4.03 5.774,9.36999 6.4589,14.84999 0.466,3.73 0.134,7.54 -0.9769,11.03 -0.957,3 -2.277,5.84999 -4.32,8.22999 -1.611,1.88 -3.362,3.68 -5.654,4.95 -5.814,3.23 -13.88,4.84 -24.865,1.15 -1.9,-0.36 -3.151,-2.2 -2.791,-4.1 0.359,-1.9 2.195,-3.15 4.095,-2.79 2.818,0.11 5.247,-0.16 7.487,-0.53 1.956,-0.32 3.569,-0.99 5.074,-1.64 2.961,-1.27999 4.469,-3.57999 5.541,-5.96999 1.148,-2.55 0.923,-5.47 0.543,-8.34 -0.376,-2.85 -1.06,-5.69 -2.494,-8.06 -3.219,-5.30999 -9.003,-8.34999 -17.429,-3.57999 z"
     id="path828"
     style="stroke:none;stroke-width:0.2" /><path
     d="m 2625.7646,524.22706 c -23.826,-0.45 -36.903,0.4 -108.6168,-97.46996 -9.066,-12.37999 -3.222,-34.57998 87.3988,-29.52998 1.249,57.11997 3.727,108.41995 4.908,114.52995 1.235,6.38 7.132,10.19999 16.31,12.46999 z"
     id="path830"
     style="stroke:none;stroke-width:0.2" /></g>&#10;</svg>
