<?xml version="1.0" encoding="UTF-8" standalone="no"?>
<svg
   width="2173.2153"
   height="3048.4834"
   viewBox="0 0 2173.2153 3048.4834"
   version="1.1"
   xml:space="preserve"
   style="clip-rule:evenodd;fill-rule:evenodd;stroke-linejoin:round;stroke-miterlimit:2"
   id="svg5353"
   xmlns="http://www.w3.org/2000/svg"
   xmlns:svg="http://www.w3.org/2000/svg"><defs
   id="defs5353" />&#10;    &#10;<g
   id="vectorly-UNI-chart-page-down"
   style="stroke:none;stroke-width:0.2"
   transform="matrix(4.9999999,0,0,4.9999999,-17056.558,-7950.8743)"><path
     d="m 3840.3845,1806.2065 c 4.2,5.22 6.52,13.36 5.2,25.77 -5.73,53.37 -29.4199,120.16 -58.7498,182.06 -32.5299,68.6699 -72.0198,131.2499 -100.9698,163.1899 -1.25,1.38 -4.35,3.43 -9.56,2.16 -3.9099,-0.95 -11.7999,-4.43 -22.3499,-9.87 -51.0399,-26.36 -170.0696,-99.49 -196.7395,-114.43 -1.73,-0.98 -2.92,-2.35 -3.66,-4.06 -0.73,-1.67 -1.33,-4.44 0.39,-8.08 1.24,-2.63 5.24,-7.85 11.6,-16.01 17.2399,-22.1099 52.5698,-68.9399 89.7697,-153.7299 21.63,-49.29 43.9599,-111.2999 63.6399,-188.7299 0.55,-2.16 2.11,-4.6 6.18,-4.85 2.08,-0.12 6.67,0.84 13.0999,3.16 19.91,7.21 61.6299,27.01 101.9698,49.27 33.5599,18.53 66.1598,38.75 84.5198,54.7599 8.44,7.36 13.8899,14.09 15.6599,19.39 z m -14.0299,-7.81 c -9.7,-9.7 -26.87,-21.52 -47.1999,-33.7899 -46.8199,-28.25 -110.3797,-58.59 -140.0597,-69.64 -3.7499,-1.39 -7.5999,-2.51 -10.1799,-3.21 -23.51,96.8799 -51.2699,169.8899 -77.1698,223.9199 -32.56,67.91 -62.0999,106.0099 -76.1299,124.1499 -1.4199,1.84 -2.9799,3.55 -4.3099,5.01 35.3399,20.72 142.0796,86.53 189.5195,111.51 7.41,3.91 13.22,6.82 16.9099,8.21 28.53,-31.67 66.4499,-90.93 98.4098,-155.6899 29.8099,-60.37 54.4599,-125.52 61.0299,-177.86 1.5899,-12.58 -1.05,-19.55 -6.45,-22.87 -4.14,-2.54 -9.53,-2.96 -14.95,-2.51 -10.08,0.83 -20.3399,4.77 -24.6799,6.58 -1.78,0.76 -3.84,-0.06 -4.6,-1.84 -0.76,-1.78 0.06,-3.84 1.84,-4.6 4.69,-2.06 15.7899,-6.52 26.7499,-7.64 3.86,-0.4 7.69,-0.36 11.27,0.27 z m -151.1896,368.9599 c 0,0.01 -0.01,0.01 -0.01,0.02 0,-0.01 0.01,-0.01 0.01,-0.02 z m -206.1295,-119.93 c -0.9,1.14 -1.26,1.91 -0.62,2.15 1.07,0.42 0.94,-0.88 0.62,-2.15 z m -3.95,-6.19 c -0.02,-0.01 -0.03,-0.02 -0.05,-0.03 0.02,0.01 0.03,0.02 0.05,0.03 z"
     id="path1038"
     style="stroke:none;stroke-width:0.2" /><path
     d="m 3774.2647,1794.0665 c 0.91,1.71 0.27,3.83 -1.44,4.74 -1.71,0.91 -3.83,0.27 -4.74,-1.44 0,0 -4.12,-5.6 -17.3199,-17.92 -4.15,-3.8799 -9.21,-8.2799 -15.15,-13.6199 -4.52,-4.06 -9.62,-8.51 -15.12,-13.69 -5.4299,-5.1 -11.1699,-10.91 -17.5899,-17.22 -7.96,-7.84 -16.54,-16.61 -26.52,-26.07 -1.5099,-1.21 -1.7599,-3.41 -0.5499,-4.93 1.1999,-1.51 3.4099,-1.76 4.9199,-0.55 12.1,8.05 22.83,15.24 32.17,22.28 7.6799,5.79 14.4399,11.24 20.2799,16.5 2.73,2.46 5.19,4.95 7.5,7.32 4.04,4.15 7.58,8.02 10.65,11.65 19.0799,22.5199 22.9099,32.9499 22.9099,32.9499 z"
     id="path1040"
     style="stroke:none;stroke-width:0.2" /><path
     d="m 3692.8749,1628.2166 c 0.09,-1.93 1.73,-3.42 3.67,-3.33 1.93,0.09 3.42,1.73 3.33,3.66 0,0 1.13,16.3 -0.17,39.41 -0.28,4.97 -0.75,10.22 -1.4,15.7 -0.41,3.4 -0.86,6.89 -1.52,10.41 -1.59,8.39 -3.79,17.01 -6.41,25.57 -3.93,12.86 -8.98,25.36 -14.6399,36.87 -0.7,1.8 -2.73,2.69 -4.54,1.99 -1.8,-0.7 -2.69,-2.73 -1.99,-4.54 2.3,-7.98 4.04,-16.34 5.67,-24.9 1.2799,-6.69 2.3099,-13.43 3.3999,-20.12 1.11,-6.85 2.05,-13.63 3.2,-20.14 1.52,-8.6 3.2,-16.72 4.63,-24.12 4.15,-21.47 6.77,-36.46 6.77,-36.46 z"
     id="path1042"
     style="stroke:none;stroke-width:0.2" /><path
     d="m 3728.0048,1700.3066 c 0.3,-1.91 2.1,-3.21 4.02,-2.9 1.91,0.31 3.21,2.11 2.9,4.02 0,0 -0.11,12.51 -2.42,30.04 -0.5,3.78 -1.18,7.75 -2.01,11.87 -0.52,2.57 -1.07,5.2 -1.82,7.82 -1.81,6.31 -4.14,12.69 -6.76,18.98 -4.03,9.6599 -8.8499,18.7899 -13.8799,27.0499 -0.81,1.76 -2.9,2.52 -4.65,1.71 -1.76,-0.81 -2.52,-2.9 -1.71,-4.65 2.95,-8.81 4.99,-18.4799 7.23,-28.2799 1.46,-6.4 2.79,-12.8 4.32,-18.93 0.64,-2.57 1.4,-5.05 2.13,-7.48 1.1699,-3.92 2.3299,-7.66 3.4799,-11.19 5.38,-16.46 9.17,-28.06 9.17,-28.06 z"
     id="path1044"
     style="stroke:none;stroke-width:0.2" /><path
     d="m 3745.6948,1593.7866 c -0.06,-1.93 1.47,-3.55 3.4,-3.61 1.93,-0.06 3.55,1.47 3.61,3.4 0,0 2.1,8.57 2.96,21.5 0.18,2.73 0.2,5.61 0.11,8.65 -0.06,1.87 -0.14,3.8 -0.42,5.75 -0.65,4.63 -1.79,9.37 -3.26,14.12 -2.18,7.02 -5.09,13.7 -8.43,20.2 -0.61,1.83 -2.59,2.84 -4.43,2.23 -1.84,-0.6 -2.84,-2.59 -2.23,-4.43 1.09,-6.75 1.24,-13.56 1.65,-20.45 0.28,-4.64 0.34,-9.18 0.82,-13.53 0.54,-4.83 1.45,-9.33 2.2,-13.43 2.25,-12.21 4.02,-20.4 4.02,-20.4 z"
     id="path1046"
     style="stroke:none;stroke-width:0.2" /><path
     d="m 3808.9246,1603.1866 c 0.08,-1.93 1.7,-3.44 3.64,-3.37 1.93,0.07 3.44,1.7 3.37,3.64 0,0 1.35,14.76 1.09,35.2 -0.05,4.47 -0.27,9.18 -0.62,14.06 -0.22,3.07 -0.47,6.2 -0.92,9.35 -1.08,7.66 -2.69,15.46 -4.6,23.1 -3.06,12.23 -7.04,23.8 -11.31,33.74 -0.59,1.84 -2.57,2.86 -4.4099,2.26 -1.84,-0.59 -2.86,-2.56 -2.27,-4.4 2.23,-10.17 3.33,-21.87 4.5299,-33.94 0.76,-7.61 1.37,-15.3 2.2,-22.76 0.34,-3.09 0.82,-6.11 1.27,-9.08 0.71,-4.74 1.44,-9.3 2.18,-13.61 3.41,-19.84 5.85,-34.19 5.85,-34.19 z"
     id="path1048"
     style="stroke:none;stroke-width:0.2" /><path
     d="m 3615.3051,1881.1065 c 2.68,1.05 6.29,2.23 9.5,3.77 6.42,3.07 14.4699,6.81 23.4499,10.98 10.84,5.03 23.03,10.66 35.4299,16.41 43.1599,20 88.8298,40.99 88.8298,40.99 1.79,0.74 2.64,2.79 1.9,4.58 -0.74,1.78 -2.79,2.64 -4.58,1.9 0,0 -47.2699,-17.32 -91.5598,-34.85 -12.7799,-5.05 -25.2799,-10.15 -36.3299,-14.85 -9.2499,-3.94 -17.4799,-7.62 -24.0099,-10.72 -7.71,-3.66 -13.16,-6.65 -15.52,-8.32 -5.88,-4.19 -4.54,-9.54 -3.77,-11.13 11,-21.86 19.98,-44.04 27.36,-63.64 14.1899,-37.69 21.8599,-66.0599 21.8599,-66.0599 0.42,-1.9 2.29,-3.09 4.18,-2.68 1.89,0.41 3.09,2.28 2.67,4.17 0,0 -4.97,29.4899 -16.96,68.5799 -5.7799,18.84 -13.3599,39.82 -22.4499,60.87 z m -2.29,5.24 c -0.04,0.09 -0.08,0.17 -0.12,0.26 0.04,-0.09 0.08,-0.17 0.12,-0.26 z m 0.04,-6.22 c -0.29,-1.21 -0.82,-3.18 -1.58,-2.07 -0.49,0.71 0.19,1.37 1.58,2.07 z"
     id="path1050"
     style="stroke:none;stroke-width:0.2" /><path
     d="m 3656.935,1835.2665 c -3.11,7.32 -6.32,14.54 -9.57,21.27 -10.5,21.7 -20.2699,38.31 -20.2699,38.31 -0.85,1.74 -2.95,2.46 -4.69,1.62 -1.74,-0.85 -2.46,-2.95 -1.62,-4.68 0,0 5.55,-14.27 12.47,-33.44 3.7099,-10.28 7.8999,-21.88 11.5299,-33.55 0.72,-2.16 2.36,-4 5.25,-5.08 1.3,-0.49 3.55,-0.76 6.5,-0.38 4.05,0.52 10.81,2.4 17.17,4.64 8.0899,2.85 15.5199,6.17 15.5199,6.17 3.86,1.56 5.78,5.91 4.33,9.81 0,0 -9.32,22.35 -18.5999,42.37 -5.4,11.64 -10.8,22.4 -14.02,27.81 -0.88,1.73 -2.99,2.41 -4.71,1.53 -1.73,-0.88 -2.41,-2.99 -1.53,-4.71 1.92,-4.47 4.63,-12.39 7.66,-21.41 2.75,-8.22 5.65,-17.29 8.34,-25.49 2.32,-7.07 4.44,-13.46 5.9799,-18.07 -2.4399,-0.87 -5.3199,-1.88 -8.2699,-2.91 -4.06,-1.42 -8.23,-2.92 -11.47,-3.81 z m 2.06,-4.91 c 0.05,-0.11 0.09,-0.22 0.13,-0.33 -0.04,0.11 -0.09,0.22 -0.13,0.33 z"
     id="path1052"
     style="stroke:none;stroke-width:0.2" /><path
     d="m 3719.9321,1837.8449 c -3.6,8.41 -8.51,18.79 -14.13,29.67 -8.9199,17.26 -19.4699,35.71 -27.6499,50.07 -0.87,1.73 -2.98,2.43 -4.71,1.56 -1.73,-0.87 -2.43,-2.98 -1.56,-4.71 6.59,-15.05 14.75,-34.53 22.12,-52.4 5.5199,-13.39 10.6099,-25.79 13.5599,-34.81 0.75,-2.19 2.39,-4.08 5.33,-5.16 1.32,-0.48 3.59,-0.76 6.56,-0.37 4.04,0.55 10.78,2.51 17.15,4.75 8.0899,2.86 15.5499,6.08 15.5499,6.08 1.97,0.79 3.52,2.35 4.31,4.31 0.79,1.97 0.75,4.16 -0.11,6.1 0,0 -9.96,20.72 -21.9799,44.57 -7.54,14.94 -15.95,30.98 -22.83,44.19 -0.81,1.76 -2.89,2.53 -4.65,1.73 -1.76,-0.81 -2.53,-2.89 -1.72,-4.65 6.64,-16.61 14.77,-37.67 21.91,-55.45 4.8,-11.95 9.09,-22.4 11.8499,-29.07 -2.2899,-0.83 -4.9299,-1.77 -7.6299,-2.71 -4.01,-1.4 -8.14,-2.84 -11.37,-3.7 z m 2.13,-5.1 c 0.03,-0.07 0.06,-0.14 0.09,-0.21 -0.03,0.07 -0.06,0.14 -0.09,0.21 z"
     id="path1054"
     style="stroke:none;stroke-width:0.2" /><path
     d="m 3780.2041,1837.8749 c -4.47,10.58 -10.98,24.31 -18.19,38.26 -13.3299,25.81 -28.6699,52.44 -34.3999,62.51 -0.89,1.72 -3,2.4 -4.73,1.51 -1.72,-0.88 -2.39,-3 -1.51,-4.72 4.82,-10.47 17.28,-38.39 28.72,-64.94 7.11,-16.49 13.8899,-32.38 17.5499,-43.3 0.75,-2.21 2.4,-4.14 5.38,-5.2 1.32,-0.48 3.61,-0.78 6.58,-0.35 9.23,1.34 32.7199,10.84 32.7199,10.84 1.98,0.79 3.54,2.36 4.34,4.33 0.79,1.98 0.75,4.19 -0.12,6.14 0,0 -12.87,27.15 -26.7599,55.18 -10.75,21.68 -22.14,43.8 -27.91,54.71 -0.83,1.74 -2.93,2.48 -4.6799,1.65 -1.74,-0.83 -2.48,-2.93 -1.65,-4.67 5.6599,-13.26 17.3399,-42.59 27.7999,-68.05 6.35,-15.44 12.22,-29.44 15.68,-37.64 -5.69,-2.15 -13.46,-4.93 -18.82,-6.26 z m -2.28,-0.5 c -0.23,-0.05 -0.45,-0.08 -0.67,-0.12 -0.24,-0.03 -0.63,-0.27 -0.64,-0.09 -0.03,0.8 0.59,0.64 1.31,0.21 z m 4.4,-4.67 c 0.02,-0.05 0.03,-0.09 0.05,-0.14 -0.02,0.05 -0.03,0.09 -0.05,0.14 z"
     id="path1056"
     style="stroke:none;stroke-width:0.2" /><path
     d="m 3539.5253,2025.4564 c 2.19,1.19 5.27,2.61 7.94,4.28 11.8799,7.44 30.5399,18.36 49.9698,29.6 32.33,18.71 66.6199,38.35 76.1999,42.68 1.79,0.73 2.6599,2.78 1.93,4.57 -0.73,1.79 -2.77,2.65 -4.57,1.93 -9.13,-3.31 -40.2799,-17.4 -71.3199,-32.77 -16.6199,-8.22 -33.1999,-16.76 -46.3498,-24.1 -12.39,-6.92 -21.78,-12.88 -25.81,-16.14 -2.79,-2.25 -4.03,-4.35 -4.44,-5.45 -0.87,-2.36 -0.65,-4.35 -0.02,-5.96 3.85,-9.3799 13.99,-27.3499 25.71,-46.0099 19.5699,-31.16 43.0199,-64.47 43.0199,-64.47 1.03,-1.64 3.2,-2.12 4.8299,-1.09 1.64,1.04 2.12,3.21 1.09,4.84 0,0 -25.1099,44.1 -43.4498,78.74 -6.13,11.57 -11.56,22 -14.73,29.3499 z m -1.66,4.12 c -0.02,0.06 -0.04,0.11 -0.06,0.17 0.02,-0.06 0.04,-0.11 0.06,-0.17 z m 0.28,-4.91 c -0.13,-1.4 -0.45,-3.04 -1.37,-2.08 -0.55,0.58 0.08,1.27 1.37,2.08 z"
     id="path1058"
     style="stroke:none;stroke-width:0.2" /><path
     d="m 3556.4452,2044.3164 c -0.95,1.69 -3.0899,2.28 -4.7799,1.33 -1.68,-0.94 -2.28,-3.08 -1.33,-4.77 0,0 0.76,-5.17 2.83,-12.16 0.45,-1.51 1,-3.01 1.66,-4.57 0.4199,-0.97 0.8399,-1.96 1.3999,-2.88 1.47,-2.3699 3.24,-4.4499 4.94,-6.3799 4.77,-5.43 8.78,-8.81 8.78,-8.81 0.95,-1.69 3.09,-2.28 4.77,-1.34 1.69,0.95 2.29,3.09 1.34,4.78 0,0 -0.82,5.18 -2.99,12.0699 -0.77,2.46 -1.64,5.05 -2.91,7.53 -0.48,0.96 -1.11,1.83 -1.73,2.69 -0.99,1.37 -1.99,2.62 -3.05,3.79 -4.9,5.39 -8.93,8.72 -8.93,8.72 z"
     id="path1060"
     style="stroke:none;stroke-width:0.2" /><path
     d="m 3594.5852,2065.6964 c -0.97,1.67 -3.12,2.24 -4.79,1.27 -1.67,-0.97 -2.24,-3.12 -1.27,-4.79 0,0 3.01,-9.05 7.8699,-20.54 1.1,-2.59 2.33,-5.23 3.68,-7.92 0.85,-1.71 1.73,-3.45 2.74,-5.11 2.6,-4.24 5.51,-8.24 8.27,-11.9299 7.46,-9.98 13.78,-17.12 13.78,-17.12 0.97,-1.67 3.12,-2.24 4.8,-1.27 1.67,0.97 2.24,3.12 1.27,4.79 0,0 -3.07,9.03 -8.03,20.4599 -1.84,4.22 -3.86,8.74 -6.26,13.1 -0.94,1.7 -2.01,3.32 -3.08,4.92 -1.66,2.49 -3.34,4.88 -5.05,7.11 -7.57,9.93 -13.9299,17.03 -13.9299,17.03 z"
     id="path1062"
     style="stroke:none;stroke-width:0.2" /><path
     d="m 3640.395,2089.9364 c -0.98,1.67 -3.13,2.23 -4.7999,1.25 -1.66,-0.98 -2.22,-3.13 -1.24,-4.8 0,0 4.9799,-12.31 12.3099,-27.83 1.66,-3.52 3.49,-7.15 5.44,-10.83 1.25,-2.35 2.51,-4.74 3.92,-7.04 3.61,-5.9 7.53,-11.56 11.22,-16.78 9.8999,-13.9899 18.1999,-24.3699 18.1999,-24.3699 0.98,-1.66 3.13,-2.22 4.8,-1.24 1.66,0.98 2.22,3.13 1.24,4.8 0,0 -5.04,12.29 -12.46,27.7399 -2.77,5.76 -5.8099,11.94 -9.2199,17.96 -1.32,2.35 -2.79,4.61 -4.25,6.85 -2.27,3.49 -4.54,6.85 -6.81,10.02 -10.01,13.94 -18.35,24.27 -18.35,24.27 z"
     id="path1064"
     style="stroke:none;stroke-width:0.2" /><path
     d="m 3531.8553,2030.2264 c -1.76,0.8 -3.84,0.01 -4.64,-1.75 -0.79,-1.76 -0.01,-3.84 1.75,-4.64 l 41.4499,-21.7499 c 0.59,-0.26 1.21,-0.44 1.85,-0.51 0,0 13.62,-2.35 27.3099,-4.4 13.68,-2.05 27.39,-3.79 27.39,-3.79 0.31,-0.04 0.62,-0.06 0.94,-0.06 0,0 15.1399,0.13 30.2799,0.6 15.16,0.46 30.2799,1.28 30.2799,1.28 l -0.36,0.01 47.2399,-0.17 c 1.93,-0.12 3.59,1.36 3.7,3.29 0.12,1.93 -1.36,3.59 -3.29,3.7 l -46.9299,5.39 c -0.12,0 -0.24,0.01 -0.36,0.01 0,0 -15.1199,0.81 -30.2799,1.28 -13.59,0.42 -27.1699,0.56 -29.8199,0.59 -2.51,0.27 -14.77,1.57 -27.05,2.63 -12.0799,1.04 -24.1699,1.85 -26.9799,2.04 z"
     id="path1066"
     style="stroke:none;stroke-width:0.2" /><path
     d="m 3725.9548,2000.6665 c -0.35,-0.36 -0.69,-0.74 -1.04,-1.14 -4.03,-4.55 -7.76,-9.91 -7.76,-9.91 -1.5699,-1.13 -1.9299,-3.32 -0.8,-4.89 1.13,-1.57 3.33,-1.93 4.9,-0.8 0,0 6.26,1.84 11.86,4.21 1.68,0.71 3.16,1.49 4.38,2.18 1.69,0.95 2.72,1.74 2.72,1.74 3.41,2.45 4.34,7.12 2.13,10.69 0,0 -2.2,3.03 -5.19,6.17 -4.13,4.32 -9.11,8.43 -9.11,8.43 -1.02,1.65 -3.18,2.16 -4.83,1.14 -1.64,-1.02 -2.15,-3.18 -1.13,-4.82 0,0 1.45,-6.3 3.47,-11.92 0.13,-0.37 0.27,-0.73 0.4,-1.08 z"
     id="path1068"
     style="stroke:none;stroke-width:0.2" /><path
     d="m 3428.5666,1775.9166 c 2.179,16.3399 4.7,32.1999 7.2549,47.6099 3.819,23.03 7.908,45.01 12.374,65.86 10.73,50.08 23.22,93.59 35.8599,129.35 0.69,1.8099 -0.22,3.8399 -2.02,4.5299 -1.81,0.69 -3.84,-0.21 -4.53,-2.02 -14.6599,-35.4199 -30.2599,-78.4799 -43.0929,-128.6199 -5.3619,-20.95 -10.2849,-43.11 -14.2939,-66.45 -3.695,-21.51 -6.436,-44.04 -8.72,-67.4099 -0.945,-10.49 6.048,-11.69 9.665,-10.89 1.11,0.24 2.698,0.79 4.4,2.26 1.761,1.52 4.702,5.06 8.6899,10.17 15.622,19.9999 51.3319,65.8799 115.3718,86.8999 1.85,0.55 2.9,2.51 2.34,4.36 -0.55,1.85 -2.51,2.91 -4.36,2.35 -30.95,-8.41 -56.0499,-22.49 -75.7998,-37.29 -19.39,-14.54 -33.585,-29.73 -43.1389,-40.7099 z m 204.4485,370.1898 c 1.93,0.02 3.4899,1.61 3.4699,3.54 -0.02,1.94 -1.6099,3.49 -3.5399,3.47 0,0 -20.03,1.53 -42.5299,0.64 -9.58,-0.37 -19.56,-1.23 -28.6,-2.77 -6.9799,-1.19 -13.3999,-2.85 -18.6599,-4.9 -5.55,-2.16 -9.92,-4.87 -12.81,-7.75 -1.18,-1.23 -6.94,-9.84 -14.45,-25.76 -4.6499,-9.87 -10.0099,-22.6 -15.9399,-38.07 -0.81,-1.75 -0.05,-3.84 1.71,-4.65 1.75,-0.81 3.84,-0.05 4.65,1.7 7.85,14.29 14.9599,25.88 20.6399,34.99 7.86,12.6 12.78,19.77 13.86,20.71 2.41,2.17 6.51,3.54 11.36,5.08 6.3999,2.03 14.0799,3.82 22.1299,5.36 7.72,1.48 15.69,2.84 23.2399,3.97 19.32,2.88 35.47,4.44 35.47,4.44 z"
     id="path1070"
     style="stroke:none;stroke-width:0.2" /><path
     d="m 3460.6155,1763.4866 c -0.51,-1.86 0.59,-3.79 2.46,-4.3 1.86,-0.51 3.79,0.59 4.3,2.45 3.46,8.36 7.3599,16.6199 11.0999,25.2699 1.44,3.35 2.81,6.71 4.15,10.1 0.9,2.25 1.8,4.49 2.57,6.78 1.94,5.78 3.61,11.59 5.34,17.29 2.77,9.1 5.2,17.82 8.33,25.99 0.91,1.72 0.25,3.84 -1.46,4.74 -1.71,0.9 -3.83,0.25 -4.74,-1.46 -5.16,-7.46 -10.24,-15.37 -14.78,-24.11 -2.84,-5.48 -5.5099,-11.16 -7.7499,-17.08 -0.88,-2.33 -1.59,-4.72 -2.28,-7.12 -1.03,-3.61 -1.96,-7.22 -2.74,-10.88 -1.98,-9.36 -3.21,-18.5799 -4.5,-27.6699 z m -17.348,-77.62 c -0.316,-1.91 0.978,-3.72 2.886,-4.03 1.912,-0.32 3.712,0.97 4.032,2.88 0,0 2.65,5.4 6.4,15.35 0.72,1.92 1.4,3.97 2.06,6.22 0.39,1.35 0.8,2.74 1.07,4.21 0.59,3.37 0.89,6.98 1.15,10.85 0.34,5.3 0.22,10.66 0.44,16.64 0.45,1.88 -0.71,3.78 -2.59,4.23 -1.88,0.45 -3.77,-0.71 -4.23,-2.59 -2.56,-5.48 -5.01,-10.32 -6.96,-15.32 -1.432,-3.67 -2.646,-7.15 -3.464,-10.53 -0.359,-1.48 -0.538,-2.95 -0.707,-4.36 -0.285,-2.37 -0.462,-4.56 -0.521,-6.64 -0.311,-10.81 0.434,-16.91 0.434,-16.91 z"
     id="path1072"
     style="stroke:none;stroke-width:0.2" /><path
     d="m 3504.3554,1771.9266 c -0.36,-1.9 0.9,-3.73 2.8,-4.09 1.9,-0.35 3.73,0.9 4.09,2.8 0,0 3.43,9.8799 9.8899,25.0899 2.11,4.96 4.56,10.41 7.16,16.38 1.52,3.48 3.11,7.11 4.66,10.91 2.16,5.28 4.26,10.84 6.65,16.53 3.97,9.5 8.19,19.33 13.63,29.05 1.11,1.58 0.73,3.77 -0.86,4.88 -1.58,1.11 -3.77,0.73 -4.88,-0.86 -7.6,-8.78 -14.37,-17.66 -20.03,-26.79 -4.11,-6.63 -7.66,-13.24 -10.52,-19.7 -1.24,-2.81 -2.2499,-5.61 -3.1899,-8.35 -1.53,-4.47 -2.82,-8.76 -3.84,-12.82 -4.93,-19.68 -5.56,-33.0299 -5.56,-33.0299 z"
     id="path1074"
     style="stroke:none;stroke-width:0.2" /><path
     d="m 3457.3255,1848.2265 c 0.27,-1.92 2.04,-3.26 3.96,-2.99 1.91,0.27 3.25,2.04 2.99,3.95 -0.09,2.04 1.5,7.76 3.57,15.38 1.56,5.77 3.56,12.43 5.57,19.35 1.8799,6.49 3.8699,13.1 5.6299,19.26 1.62,5.67 3.06,10.92 4.32,15.19 1.14,3.85 1.71,6.81 2.5,7.97 2.32,3.62 9.59,8.48 17.57,12.54 7.73,3.93 15.9599,7.29 22.0999,7.25 1.92,-0.19 3.64,1.22 3.82,3.15 0.18,1.93 -1.23,3.64 -3.16,3.82 -7.1,1.32 -17.4399,-0.46 -27.1599,-3.62 -6.64,-2.16 -12.84,-5.09 -17.5,-7.92 -3.49,-2.13 -6.03,-4.45 -7.6399,-6.39 -1.58,-1.97 -4.17,-7.28 -6.47,-14.72 -1.76,-5.66 -3.47,-12.69 -4.94,-20.12 -1.33,-6.68 -2.4,-13.67 -3.25,-20.3 -1.97,-15.3 -2.68,-28.49 -1.91,-31.8 z"
     id="path1076"
     style="stroke:none;stroke-width:0.2" /><path
     d="m 3481.8054,1933.6865 c -1.62,1.06 -3.79,0.61 -4.85,-1.01 -1.07,-1.62 -0.61,-3.79 1,-4.85 0,0 8.91,-7.85 16.97,-14.46 6.11,-5.01 11.63,-9.16 11.63,-9.16 3.36,-2.21 7.88,-1.39 10.2499,1.86 0,0 2.92,3.44 5.64,7.04 0.14,0.19 0.28,0.38 0.42,0.57 2.02,-1.61 4.34,-3.45 6.78,-5.34 9.79,-7.54 21.27,-15.73 21.27,-15.73 1.42,-1.32 3.64,-1.25 4.9599,0.17 1.32,1.41 1.24,3.63 -0.17,4.95 0,0 -8.9399,10.91 -17.1299,20.16 -6.21,7.01 -11.91,12.92 -11.91,12.92 -1.64,1.54 -3.86,2.3 -6.1,2.08 -2.24,-0.21 -4.27,-1.37 -5.6,-3.19 0,0 -2.8099,-3.52 -5.3999,-7.21 -0.47,-0.66 -0.93,-1.33 -1.37,-1.99 -1.9,1.03 -4.09,2.19 -6.38,3.36 -9.27,4.78 -20.01,9.83 -20.01,9.83 z"
     id="path1078"
     style="stroke:none;stroke-width:0.2" /><path
     d="m 3444.4355,2145.6864 c 0.274,0.33 0.641,0.74 0.993,1.06 1.967,1.8 5.137,3.66 9.667,5.76 2.37,1.16 3.74,3.7 3.39,6.31 -0.34,2.62 -2.32,4.72 -4.91,5.22 0,0 -7.409,1.61 -14.311,3.93 0.656,0.1 1.337,0.2 2.042,0.3 18.089,2.6 50.6289,3.43 88.3088,5.34 18.95,0.97 39.1799,2.25 59.5299,4.02 23.9199,2.08 47.9798,4.96 70.3598,8.68 2.48,-0.36 7.11,-1.71 13.05,-3.57 16.8399,-5.27 43.2599,-14.63 61.8598,-20.56 0.99,-0.32 1.96,-0.62 2.9,-0.92 -14.22,-3.15 -33.0099,-6.61 -39.2899,-6.01 -1.92,0.22 -3.66,-1.15 -3.89,-3.07 -0.23,-1.92 1.15,-3.67 3.07,-3.9 8.76,-1.23 41.3399,3.86 54.4599,6.72 3.32,0.73 5.5599,1.45 6.2999,1.83 2.94,1.48 2.84,4.01 2.74,5.04 -0.12,1.12 -0.74,3.73 -4.3999,4.31 -10.76,1.68 -63.0799,23.59 -85.5298,30.99 -6.58,2.17 -11.31,2.88 -12.9,2.67 -33.3599,-4.73 -70.5098,-6.97 -105.1397,-8.93 -14.73,-0.84 -29.01,-1.68 -42.3599,-2.49 -25.99,-1.57 -48.4799,-3.16 -63.9799,-5.22 -9.201,-1.23 -16.1159,-2.71 -20.1649,-4.41 -4.525,-1.9 -6.743,-4.59 -7.492,-6.88 -1.248,-3.83 0.328,-9.11 6.82,-12.48 3.115,-1.61 7.587,-3.08 11.9269,-4.27 -2.943,-2.9 -4.3349,-5.54 -4.7209,-7.68 -1.099,-6.11 3.6279,-11.97 12.5789,-14.11 5.882,-1.39 35.2519,-7.9 58.0219,-11.52 11.5699,-1.84 21.4899,-2.9 26.0599,-2.35 1.92,0.19 3.33,1.9 3.14,3.83 -0.18,1.93 -1.9,3.34 -3.82,3.15 -4.24,-0.31 -13.31,1.28 -23.8999,3.48 -22.3,4.63 -50.9899,12.34 -56.7399,13.99 -1.32,0.37 -2.836,1.23 -3.67,1.74 z"
     id="path1080"
     style="stroke:none;stroke-width:0.2" /><path
     d="m 3529.0853,2122.9864 c 3.49,5.82 5.79,9.14 6.49,9.81 16.97,16.04 97.4098,16.82 97.4098,16.82 26.4899,14.89 45.6998,24.67 47.5298,22.68 5.37,-5.84 11.11,-12.74 17.1,-20.53 11.26,-1.34 62.3798,9.03 58.0299,9.62 -13.31,1.81 -90.0798,32.74 -96.7398,31.72 -98.3198,-15.04 -229.5794,-11.16 -233.8204,-23.4 -2.068,-5.97 27.3209,-11.69 27.3209,-11.69 -20.0559,-9.79 -15.674,-16.75 -5.68,-19.36 8.67,-2.27 69.0098,-16.97 82.3598,-15.67 z"
     id="path1082"
     style="stroke:none;stroke-width:0.2" /><path
     style="fill:#000000;stroke:none;stroke-width:0.2;stroke-linecap:round;stroke-linejoin:round"
     d="m 3725.9567,1933.8923 51.6303,-103.3264 29.332,16.9861 -47.0198,104.9832 -36.78,-14.5635 z"
     id="path63" /></g></svg>
