<?xml version="1.0" encoding="UTF-8" standalone="no"?>
<svg
   width="3519.8525"
   height="2340.4553"
   viewBox="0 0 3519.8526 2340.4553"
   version="1.1"
   xml:space="preserve"
   style="clip-rule:evenodd;fill-rule:evenodd;stroke-linejoin:round;stroke-miterlimit:2"
   id="svg5353"
   xmlns="http://www.w3.org/2000/svg"
   xmlns:svg="http://www.w3.org/2000/svg"><defs
   id="defs5353" />&#10;    <g
   id="vectorly-UNI-mosque"
   transform="matrix(4.9999999,0,0,4.9999999,-16145.312,-57170.806)"
   style="stroke-width:0.2"><path
     d="m 3250.0531,11897.811 c -1.94,0 -3.51,-1.6 -3.51,-3.5 0,-2 1.57,-3.6 3.51,-3.6 0,0 87.5298,-1.9 199.0695,-3.5 25.54,-0.3 52.3299,-0.6 79.6198,-0.8 17.56,-0.1 35.3299,-0.2 53.0899,-0.1 45.3699,0.1 90.7398,0.6 132.7097,1.1 111.5297,1.4 199.0695,3.3 199.0695,3.3 1.94,0 3.51,1.6 3.51,3.6 0,1.9 -1.57,3.5 -3.51,3.5 0,0 -87.5398,1.9 -199.0695,3.3 -41.9699,0.5 -87.3398,1 -132.7097,1.1 -17.76,0.1 -35.5299,0 -53.0899,-0.1 -27.2899,-0.2 -54.0798,-0.5 -79.6198,-0.8 -111.5397,-1.6 -199.0695,-3.5 -199.0695,-3.5 z"
     id="path3316"
     style="stroke:none;stroke-width:0.2" /><path
     d="m 3888.5515,11795.111 c 0.42,-1.9 2.29,-3.1 4.18,-2.7 1.89,0.5 3.08,2.3 2.66,4.2 0,0 -0.64,9.9 -1.78,23.8 -0.4,4.9 -0.84,10.2 -1.46,15.8 -0.42,3.8 -0.88,7.7 -1.5,11.6 -0.6,3.9 -1.39,7.8 -2.1,11.6 -1.14,6 -2.3,11.8 -3.13,17.2 -1,6.6 -1.79,12.4 -1.66,17.1 0.28,2 -1.04,3.7 -2.96,4 -1.91,0.3 -3.6899,-1 -3.9799,-2.9 -2.03,-7.8 -3.11,-18.8 -2.98,-31 0.07,-6.6 0.44,-13.4 1.3,-20.2 0.34,-2.7 0.86,-5.3 1.39,-7.9 0.85,-4.1 1.77,-8.1 2.7899,-11.8 4.55,-16.7 9.23,-28.8 9.23,-28.8 z"
     id="path3318"
     style="stroke:none;stroke-width:0.2" /><path
     d="m 3879.7015,11839.711 c 1.48,1.2 1.68,3.4 0.43,4.9 -1.24,1.5 -3.4499,1.7 -4.9299,0.4 -10.88,-8 -15.96,-22.7 -16.05,-37.5 -0.05,-8.7 1.79,-17.4 5.07,-24.8 2.58,-5.9 6.25,-10.9 10.55,-14.8 6.0699,-5.3 12.7299,-9.1 19.2299,-11.1 5.74,-1.7 11.4,-2.1 16.5,-0.9 11.2799,2.5 20.9399,11.9 22.4399,31.3 0.67,11.3 -2.39,23.7 -7.31,34.2 -6.7999,14.6 -16.7599,25.6 -22.3999,27 -1.84,0.6 -3.81,-0.5 -4.38,-2.3 -0.57,-1.9 0.47,-3.8 2.31,-4.4 1.58,-0.6 3.23,-2.7 5.19,-5.4 3.35,-4.6 6.69,-11.3 9.28,-18.9 3.11,-9.1 4.9299,-19.4 3.4699,-28.7 -1.4699,-10.5 -5.6999,-16.1 -11.8699,-17.3 -2.73,-0.5 -5.69,-0.2 -8.76,0.7 -4.66,1.3 -9.52,3.8 -14.01,7.4 -7.7499,5.9 -12.4699,17.1 -13.6499,28.6 -1.23,11.8 1,24.1 8.8899,31.6 z"
     id="path3320"
     style="stroke:none;stroke-width:0.2" /><path
     d="m 3257.8431,11793.411 c -0.59,-1.9 0.44,-3.8 2.28,-4.4 1.84,-0.6 3.81,0.4 4.4,2.3 0,0 5.8,11.9 11.5399,29.5 1.25,3.8 2.4,7.9 3.47,12.2 0.67,2.7 1.32,5.4 1.78,8.3 1.13,6.8 1.75,14 1.98,21.1 0.35,11.3 -0.46,22.2 -2.23,32.1 -0.14,1.9 -1.82,3.4 -3.75,3.2 -1.93,-0.1 -3.38,-1.8 -3.24,-3.7 -0.2799,-6.4 -1.2899,-13.1 -2.4799,-20.1 -0.9,-5.3 -2.05,-10.5 -3.13,-15.9 -1.08,-5.4 -2.3,-10.7 -3.24,-15.9 -1.21,-6.8 -2.1,-13.4 -2.99,-19.4 -2.54,-17.1 -4.39,-29.3 -4.39,-29.3 z"
     id="path3322"
     style="stroke:none;stroke-width:0.2" /><path
     d="m 3274.043,11841.611 c 1.94,0.1 3.43,1.7 3.33,3.6 -0.1,2 -1.75,3.5 -3.6799,3.4 -12.72,0 -24.26,-10.3 -32.46,-24.8 -5.83,-10.3 -9.8399,-22.7 -11.4499,-34.6 -1.24,-9.2 -0.85,-18 0.94,-25.5 5.3099,-19.7 18.2299,-28.1 30.8799,-28.2 13.2599,-0.1 27.1199,9.1 32.5599,25.4 3.25,10.2 3.48,22.8 1.93,34.5 -1.97,14.8 -6.42,28 -9.23,32.4 -0.94,1.7 -3.08,2.3 -4.77,1.3 -1.68,-0.9 -2.29,-3 -1.34,-4.7 2.09,-4.3 4.55,-16.5 5.01,-29.9 0.34,-10 -0.55,-20.6 -4.08,-29 -3.84,-9.4 -11.8499,-14.7 -19.6899,-14.4 -7.04,0.3 -13.29,5.7 -16.25,16.7 -2.17,7.1 -2.41,16.1 -1.29,25.2 1.08,8.9 3.33,17.9 6.79,25.8 5.29,12 12.82,21.7 22.7999,22.8 z"
     id="path3324"
     style="stroke:none;stroke-width:0.2" /><path
     d="m 3554.7824,11894.011 c 0.11,2 -1.37,3.6 -3.3,3.8 -1.93,0.1 -3.59,-1.4 -3.7,-3.3 0,0 -3.28,-30 -4,-57.4 -0.44,-16.3 0.29,-31.8 2.44,-39.8 5.11,-17.7 21.9099,-27.3 38.3899,-27.1 16.8899,0.2 33.0599,10.4 35.8499,30.2 0.97,7.7 1.44,21.9 1.38,38 -0.07,18.5 -0.78,39.6 -1.36,55.8 0.02,2 -1.54,3.5 -3.48,3.6 -1.93,0 -3.51,-1.6 -3.53,-3.5 -0.95,-18.9 -2.51,-44.4 -4.21,-64.7 -0.95,-11.4 -1.93,-21.1 -3.06,-26.9 -2.06,-11.5 -11.9199,-16.5 -21.7599,-16.5 -10.02,-0.1 -20.61,4.7 -24.01,15.4 -2.43,7.1 -3.59,21 -4.3799,35.7 -1.44,27 -1.27,56.7 -1.27,56.7 z"
     id="path3326"
     style="stroke:none;stroke-width:0.2" /><path
     d="m 3670.7121,11688.011 c -1.76,-0.2 -4.16,-0.2 -6.18,-0.4 -12.8,-1.7 -34.3599,-2.8 -57.9299,-3.4 -19.3799,-0.5 -40.1099,-0.6 -58.4798,-0.2 -18.11,0.4 -33.8899,1.1 -43.6599,2.8 -1.78,0.3 -4.06,0.3 -5.45,0.6 -0.28,1.5 -0.93,5.3 -1.2,8.8 -0.91,11.3 -1.2,29.4 -1.22,50.1 -0.04,54.3 2.03,126.9 2.7,147.8 0.1,1.9 -1.39,3.6 -3.32,3.7 -1.94,0 -3.58,-1.4 -3.68,-3.4 -1.46,-20.9 -6.49,-93.5 -8.29,-147.9 -0.85,-25.7 -0.91,-47.5 0.23,-58 0.51,-4.7 1.61,-7.8 2.49,-9.2 0.76,-1.2 2.03,-2.5 3.96,-3.6 1.92,-1.1 5.03,-2.2 9.2,-3 15.8899,-3.4 50.7099,-5.1 85.5098,-4.8 34.7699,0.3 69.5198,2.5 85.1998,5.4 5.84,1.1 9.6599,2.7 11.2199,3.9 2.24,1.8 3.11,3.8 3.32,5.7 0.38,3.1 -0.18,30.2 -1.39,64.2 -2.21,62 -6.19,147.2 -6.19,147.2 -0.05,2 -1.6599,3.5 -3.5899,3.5 -1.94,-0.1 -3.47,-1.7 -3.42,-3.6 0,0 0.36,-106.8 0.32,-168.4 -0.01,-17.8 0.01,-31.7 -0.15,-37.8 z m -171.9796,-0.6 c -0.76,0.2 -1.17,0.5 -0.93,1 0.25,0.5 0.67,-0.5 0.93,-1 z m 171.8096,-2.6 z m 1.44,3.3 c 0.01,0 0.01,0 0.02,0 0.24,0.3 0.9,1.8 1.15,1.1 0.22,-0.6 -0.27,-0.9 -1.17,-1.1 z"
     id="path3328"
     style="stroke:none;stroke-width:0.2" /><path
     d="m 3354.1729,11537.211 c -0.1,1.6 -0.22,4.1 -0.25,6.6 -0.12,9.9 0.28,26.3 0.8199,46.8 0.38,14 0.88,30 1.27,47 0.7,30.7 1.36,64.9 1.91,97.7 1.28,77.1 2.01,146.7 2.01,146.7 0.08,1.9 -1.43,3.6 -3.36,3.7 -1.93,0 -3.5599,-1.5 -3.6399,-3.4 0,0 -4.85,-69.5 -8.78,-146.5 -1.68,-32.8 -3.17,-67 -4.1,-97.8 -0.51,-17 -0.75,-33 -0.87,-47.2 -0.19,-20.7 0,-37.4 0.43,-47.4 0.23,-5.3 0.57,-8.9 0.95,-10.6 0.78,-3.6 2.71,-5 3.61,-5.6 4.3,-2.5 5.51,-6.2 4.3,-10.5 -1.37,-4.9 -4.84,-10.2 -9.76,-15.5 -5.3,-5.7 -8.93,-10.9 -11.41,-15.5 -1.21,3.2 -2.45,5.8 -3.88,8.2 -2.79,4.7 -6.28,8.6 -11.9099,13.8 -4.53,4.2 -5.5,10.1 -3.69,15.1 1.86,5 6.4699,9.1 13.0099,9.1 1.94,0 3.52,1.6 3.55,3.5 0.02,1.9 -1.54,3.5 -3.47,3.5 -10.0499,0.4 -17.3799,-5.5 -20.6099,-13.2 -3.3,-7.8 -2.1,-17.4 4.9,-24.5 4.57,-4.7 7.46,-8 9.6499,-12.1 2.78,-5.2 4.39,-11.5 6.97,-22.9 0.89,-3.8 4.09,-4 4.86,-4.1 1.12,-0.1 4.74,-0.2 5.85,4.3 0.02,0.1 0.09,0.4 0.15,1.1 0.04,0.3 0.14,1.1 0.41,2.3 0.99,4.2 4.29,12.6 14.54,22.8 8.7999,8.8 13.8799,18 14.6699,25.8 0.72,7.2 -1.72,13.7 -8.1299,18.8 z"
     id="path3330"
     style="stroke:none;stroke-width:0.2" /><path
     d="m 3849.8316,11537.211 c -0.1,1.6 -0.22,4.3 -0.26,6.9 -0.15,11.8 0.35,32.4 0.99,58.2 0.3,12 0.66,25.1 0.92,39 0.59,31.3 1.15,66.5 1.59,101.1 0.74,59.2 1,116.8 1.4,151.7 0.06,2 -1.45,3.6 -3.39,3.7 -1.93,0 -3.55,-1.5 -3.62,-3.4 -1.97,-34.9 -5.52,-92.5 -8.22,-151.6 -1.58,-34.6 -2.92,-69.8 -3.73,-101.2 -0.36,-13.8 -0.53,-27 -0.63,-39 -0.22,-26.1 0.01,-47 0.51,-58.9 0.22,-5.3 0.55,-9 0.91,-10.8 0.75,-3.6 2.74,-5.1 3.59,-5.6 4.32,-2.5 5.54,-6.3 4.32,-10.6 -1.37,-4.9 -4.84,-10.2 -9.77,-15.5 -5.33,-5.8 -8.9599,-11 -11.4499,-15.6 -1.22,3.2 -2.46,5.9 -3.9,8.3 -2.79,4.7 -6.28,8.6 -11.9,13.8 -3.42,3.2 -4.84,7.3 -4.5,11.3 0.36,4.3 2.55,8.4 6.28,10.7 1.07,0.7 2.25,1.3 3.55,1.7 1.24,0.3 2.58,0.5 4,0.5 1.94,0 3.52,1.6 3.55,3.5 0.02,1.9 -1.54,3.5 -3.47,3.5 -2.08,0.1 -4.04,-0.1 -5.88,-0.5 -2.04,-0.5 -3.91,-1.3 -5.62,-2.2 -6,-3.5 -9.79,-9.7 -10.66,-16.3 -0.85,-6.5 1.14,-13.3 6.46,-18.7 4.58,-4.6 7.47,-8 9.67,-12.1 2.78,-5.2 4.39,-11.5 6.99,-22.9 0.87,-3.8 4.05,-4 4.82,-4.1 1.1,-0.1 4.6999,-0.1 5.7899,4.3 0.03,0.1 0.09,0.5 0.15,1.1 0.04,0.3 0.15,1.1 0.41,2.3 0.99,4.3 4.3,12.6 14.56,22.9 8.78,8.7 13.85,17.9 14.64,25.7 0.72,7.2 -1.71,13.7 -8.1,18.8 z"
     id="path3332"
     style="stroke:none;stroke-width:0.2" /><path
     d="m 3307.853,11533.211 c -0.14,-1.9 1.31,-3.6 3.24,-3.7 1.93,-0.2 3.6099,1.3 3.7499,3.2 0.4,3.8 2.68,50 3.92,108.8 0.29,13.9 0.45,28.5 0.5,43.4 0.03,9.6 0.04,19.3 -0.13,29 -0.45,24.6 -1.42,49.3 -2.6,72.4 -2.5299,49.5 -6.3699,91.4 -10.3199,108.6 -0.38,1.9 -2.22,3.2 -4.12,2.8 -1.9,-0.4 -3.14,-2.2 -2.76,-4.1 1.23,-7.6 1.99,-20 2.56,-35.6 0.94,-25.8 1.04,-60.4 1.04,-97.4 0,-10.7 0,-21.6 0.09,-32.5 0.08,-10.8 0.22,-21.7 0.41,-32.5 0.19,-11 0.46,-21.9 0.73,-32.5 0.44,-17.2 0.92,-33.7 1.38,-48.8 1.37,-45 2.43,-77.9 2.31,-81.1 z"
     id="path3334"
     style="stroke:none;stroke-width:0.2" /><path
     d="m 3803.5417,11533.211 c -0.14,-1.9 1.31,-3.6 3.24,-3.7 1.93,-0.2 3.61,1.3 3.75,3.2 0.37,3.5 2.59,48.9 3.96,108.7 0.32,13.8 0.52,28.4 0.61,43.4 0.06,9.5 0.11,19.2 -0.02,28.9 -0.33,24.1 -1.14,48.6 -2.12,72.3 -1.7,41 -4.26,79.4 -6.75,108.4 -0.11,2 -1.76,3.5 -3.69,3.4 -1.93,-0.2 -3.41,-1.8 -3.31,-3.7 0.7,-29.1 0.31,-67.4 0.09,-108.3 -0.12,-23.7 -0.31,-48.2 -0.21,-72.2 0.04,-9.8 0.23,-19.4 0.41,-28.9 0.28,-15 0.6,-29.6 0.98,-43.4 1.65,-59.4 3.2,-104.6 3.06,-108.1 z"
     id="path3336"
     style="stroke:none;stroke-width:0.2" /><path
     d="m 3319.8629,11434.782 c 1.61,-1.1 3.79,-0.7 4.86,0.9 1.08,1.7 0.64,3.8 -0.97,4.9 -0.82,0.9 -1.08,2 -1.56,3.2 -1.03,2.4 -0.45,5 0.03,7.5 0.24,1.3 1.09,2.3 1.82,3.3 0.47,0.7 0.94,1.3 1.78,1.7 2.18,0.8 4.83,1.6 8.64,1 2.36,-0.4 4.85,-0.7 7.78,-1.6 1.67,-1 3.82,-0.4 4.7899,1.3 0.96,1.6 0.39,3.8 -1.2899,4.7 -4.59,4.2 -8.69,6.5 -12.48,8.1 -2.65,1.1 -5.11,1.4 -7.39,1.5 -5.05,0.2 -9.13,-1.7 -12.09,-4.3 -3.2,-2.9 -5.22,-7 -5.54,-11.4 -0.19,-2.7 -0.17,-5.4 0.72,-7.9 1.97,-5.7 5.36,-10.8 10.9,-12.9 z"
     id="path3338"
     style="stroke:none;stroke-width:0.2" /><path
     d="m 3815.5518,11434.782 c 1.61,-1.1 3.79,-0.7 4.86,0.9 1.08,1.7 0.64,3.8 -0.97,4.9 -0.82,0.9 -1.08,2 -1.56,3.2 -1.03,2.4 -0.45,5 0.03,7.5 0.24,1.3 1.09,2.3 1.82,3.3 0.47,0.7 0.94,1.3 1.78,1.7 2.18,0.8 4.83,1.6 8.64,1 2.3599,-0.4 4.8499,-0.7 7.7799,-1.6 1.67,-1 3.82,-0.4 4.79,1.3 0.96,1.6 0.39,3.8 -1.29,4.7 -4.59,4.2 -8.69,6.5 -12.4799,8.1 -2.65,1.1 -5.11,1.4 -7.39,1.5 -5.05,0.2 -9.13,-1.7 -12.09,-4.3 -3.2,-2.9 -5.22,-7 -5.54,-11.4 -0.19,-2.7 -0.17,-5.4 0.72,-7.9 1.97,-5.7 5.36,-10.8 10.9,-12.9 z"
     id="path3340"
     style="stroke:none;stroke-width:0.2" /><path
     d="m 3401.8503,11589.105 c 1.61,-1.1 3.79,-0.7 4.86,0.9 1.08,1.7 0.64,3.8 -0.97,4.9 -0.82,0.9 -1.08,2 -1.56,3.2 -1.03,2.4 -0.45,5 0.03,7.5 0.24,1.3 1.09,2.3 1.82,3.3 0.47,0.7 0.94,1.3 1.78,1.7 2.18,0.8 4.83,1.6 8.6399,1 2.36,-0.4 4.85,-0.7 7.78,-1.6 1.67,-1 3.82,-0.4 4.79,1.3 0.96,1.6 0.39,3.8 -1.29,4.7 -4.59,4.2 -8.69,6.5 -12.48,8.1 -2.6499,1.1 -5.1099,1.4 -7.3899,1.5 -5.05,0.2 -9.13,-1.7 -12.09,-4.3 -3.2,-2.9 -5.22,-7 -5.54,-11.4 -0.19,-2.7 -0.17,-5.4 0.72,-7.9 1.97,-5.7 5.36,-10.8 10.9,-12.9 z"
     id="path3342"
     style="stroke:none;stroke-width:0.2" /><path
     d="m 3736.6189,11581.752 c 1.61,-1.1 3.79,-0.7 4.8599,0.9 1.08,1.7 0.64,3.8 -0.9699,4.9 -0.82,0.9 -1.08,2 -1.56,3.2 -1.03,2.4 -0.45,5 0.03,7.5 0.24,1.3 1.09,2.3 1.82,3.3 0.4699,0.7 0.9399,1.3 1.7799,1.7 2.18,0.8 4.83,1.6 8.64,1 2.36,-0.4 4.85,-0.7 7.78,-1.6 1.67,-1 3.82,-0.4 4.79,1.3 0.96,1.6 0.39,3.8 -1.29,4.7 -4.59,4.2 -8.69,6.5 -12.48,8.1 -2.65,1.1 -5.11,1.4 -7.39,1.5 -5.0499,0.2 -9.1299,-1.7 -12.0899,-4.3 -3.2,-2.9 -5.22,-7 -5.54,-11.4 -0.19,-2.7 -0.17,-5.4 0.72,-7.9 1.97,-5.7 5.36,-10.8 10.9,-12.9 z"
     id="path3344"
     style="stroke:none;stroke-width:0.2" /><path
     d="m 3577.8032,11447.215 c 1.61,-1.1 3.79,-0.7 4.86,0.9 1.08,1.7 0.64,3.8 -0.97,4.9 -0.82,0.9 -1.08,2 -1.56,3.2 -1.03,2.4 -0.45,5 0.03,7.5 0.24,1.3 1.09,2.3 1.82,3.3 0.47,0.7 0.94,1.3 1.78,1.7 2.18,0.8 4.83,1.6 8.64,1 2.36,-0.4 4.85,-0.7 7.78,-1.6 1.67,-1 3.82,-0.4 4.79,1.3 0.96,1.6 0.39,3.8 -1.29,4.7 -4.59,4.2 -8.69,6.5 -12.48,8.1 -2.65,1.1 -5.11,1.4 -7.39,1.5 -5.05,0.2 -9.13,-1.7 -12.09,-4.3 -3.2,-2.9 -5.22,-7 -5.5399,-11.4 -0.19,-2.7 -0.17,-5.4 0.7199,-7.9 1.97,-5.7 5.36,-10.8 10.9,-12.9 z"
     id="path3346"
     style="stroke:none;stroke-width:0.2" /><path
     d="m 3359.4328,11719.411 c -1.92,0.3 -3.66,-1.1 -3.88,-3 -0.22,-2 1.16,-3.7 3.09,-3.9 0,0 16.78,-3.9 39.1999,-7.1 5.04,-0.7 10.35,-1.3 15.82,-1.8 3.49,-0.4 7.03,-0.7 10.6,-0.8 8.97,-0.2 18.0499,0 26.6799,0.6 16.17,1.1 30.5999,3.5 40.0999,6.8 1.87,0.5 3,2.4 2.52,4.3 -0.49,1.8 -2.4,3 -4.27,2.5 -6.62,-1.1 -15.4199,-1 -25.4599,-0.6 -6.54,0.2 -13.5,0.7 -20.7,1.2 -6.85,0.5 -13.8499,1 -20.7699,1.3 -8.7,0.4 -17.23,0.4 -25.08,0.5 -21.6299,0.2 -37.8499,0 -37.8499,0 z"
     id="path3348"
     style="stroke:none;stroke-width:0.2" /><path
     d="m 3393.4828,11709.411 c 1.88,0.5 3.01,2.4 2.53,4.3 -0.48,1.9 -2.4,3 -4.27,2.5 -17.91,-3.4 -28.1799,-16 -30.4699,-28.3 -2.01,-10.9 2.38,-21.7 12.8699,-28.6 8.57,-5.3 14.42,-11.2 18.7,-16.5 8.8,-11.1 9.86,-20.4 9.86,-20.4 0.21,-4.1 3.6,-7.3 7.71,-7.3 4.0999,0 7.4899,3.2 7.6999,7.3 0,0 0.36,9.7 8.93,21.1 4.19,5.6 10.08,11.7 18.73,17.4 5.85,3.8 9.6399,9 11.2399,14.7 1.57,5.7 1.27,11.9 -1.17,17.8 -0.64,1.8 -2.6399,2.8 -4.4699,2.1 -1.82,-0.6 -2.79,-2.6 -2.15,-4.4 1.22,-4.3 0.96,-8.7 -0.61,-12.6 -1.43,-3.5 -4.23,-6.4 -8.19,-8.5 -10.71,-5.5 -18.3,-11.9 -23.76,-18 -2.25,-2.5 -4.1499,-5 -5.7299,-7.4 -1.58,2.6 -3.5,5.4 -5.84,8.2 -5.34,6.4 -13.04,12.9 -23.8,18.8 -7.69,4 -10.0499,12.1 -7.52,19.7 2.53,7.6 9.12,14.7 19.71,18.1 z"
     id="path3350"
     style="stroke:none;stroke-width:0.2" /><path
     d="m 3720.4327,11699.159 c 1.72,0.9 2.4,3 1.52,4.7 -0.88,1.7 -3,2.4 -4.72,1.5 -11.1,-4.8 -17.84,-13.7 -20.28,-22.7 -3.06,-11.4 1.08,-23.1 12.1,-30.4 8.56,-5.4 14.39,-11.4 18.6399,-16.8 8.72,-11 9.67,-20.4 9.67,-20.4 0.21,-4.1 3.65,-7.4 7.82,-7.4 4.16,0 7.6,3.3 7.81,7.4 0,0 0.37,9.6 8.9,21.1 4.19,5.6 10.0599,11.7 18.6899,17.3 5.85,3.9 9.65,9 11.24,14.8 1.56,5.7 1.25,11.9 -1.21,17.8 -0.64,1.8 -2.64,2.8 -4.47,2.1 -1.82,-0.6 -2.79,-2.6 -2.15,-4.4 1.21,-4.3 0.94,-8.7 -0.65,-12.6 -1.43,-3.5 -4.24,-6.4 -8.19,-8.4 -13.5499,-7 -22.1499,-15.3 -27.6999,-22.8 -0.65,-0.9 -1.25,-1.8 -1.82,-2.6 -0.62,1 -1.29,2 -2.02,3 -5.4,7.8 -14.1,16.3 -27.6899,23.6 -6.69,3.5 -9.56,9.9 -8.6,16.6 0.99,6.9 5.35,13.9 13.11,18.6 z"
     id="path3352"
     style="stroke:none;stroke-width:0.2" /><path
     d="m 3392.6128,11712.811 c -27.34,-7 -33.89,-36.3 -14.89,-47.3 31.4299,-18.4 32.6899,-42.7 32.6899,-42.7 0.15,43.3 -24.6899,48.4 -23.8999,64.1 0.55,11 6.25,19.5 11.9299,25.5 -1.99,0.1 -3.9299,0.3 -5.8299,0.4 z"
     id="path3354"
     style="stroke:none;stroke-width:0.2" /><path
     d="m 3718.832,11702.259 c -19.95,-10.3 -23.17,-34.3 -6.34,-44.1 31.4299,-18.4 32.6899,-42.7 32.6899,-42.7 0.15,43.3 -24.6899,48.4 -23.8999,64.1 0.4599,9.1 4.4699,16.6 9.0699,22.2 -3.84,0.2 -7.68,0.3 -11.5199,0.5 z"
     id="path3356"
     style="stroke:none;stroke-width:0.2" /><path
     d="m 3470.5726,11710.911 c 7.6299,0.5 14.3599,1.4 19.5899,2.7 -0.69,52.3 4.33,155.1 5.63,180.7 h -15.28 c -13.4599,-63 -10.4199,-123 -9.9399,-183.4 z"
     id="path3358"
     style="stroke:none;stroke-width:0.2" /><path
     d="m 3428.7427,11894.211 c 0.01,2 -1.56,3.5 -3.49,3.6 -1.94,0 -3.51,-1.6 -3.52,-3.5 -0.84,-10.8 -2.04,-24.7 -2.76,-36.9 -0.66,-11.1 -0.89,-20.7 -0.81,-25 0.67,-14 10.64,-22.4 19.7899,-23.2 9.56,-1 20.54,5.2 20.5,23 -0.12,4 -0.54,16.8 -1.28,31.1 -0.54,10.5 -1.3,21.8 -1.86,30.9 0.02,1.9 -1.53,3.5 -3.46,3.6 -1.94,0 -3.53,-1.6 -3.55,-3.5 -0.74,-9.1 -1.74,-20.4 -2.52,-30.9 -1.06,-14.2 -1.8,-26.9 -2.11,-30.8 -0.15,-2.4 -0.69,-4.2 -1.41,-5.7 -0.64,-1.3 -1.64,-1.9 -2.75,-1.8 -3.16,0.3 -5.9199,3.6 -6.3599,8.4 z"
     id="path3360"
     style="stroke:none;stroke-width:0.2" /><path
     d="m 3754.3969,11894.211 c 0.01,2 -1.56,3.5 -3.49,3.6 -1.94,0 -3.51,-1.6 -3.52,-3.5 -0.84,-10.8 -2.04,-24.7 -2.76,-36.9 -0.66,-11.1 -0.89,-20.7 -0.81,-25 0.67,-14 10.64,-22.4 19.79,-23.2 9.5599,-1 20.5399,5.2 20.4999,23 -0.12,4 -0.54,16.8 -1.28,31.1 -0.54,10.5 -1.3,21.8 -1.86,30.9 0.02,1.9 -1.53,3.5 -3.46,3.6 -1.94,0 -3.53,-1.6 -3.55,-3.5 -0.74,-9.1 -1.74,-20.4 -2.52,-30.9 -1.06,-14.2 -1.8,-26.9 -2.11,-30.8 -0.15,-2.4 -0.69,-4.2 -1.41,-5.7 -0.64,-1.3 -1.64,-1.9 -2.75,-1.8 -3.1599,0.3 -5.9199,3.6 -6.3599,8.4 z"
     id="path3362"
     style="stroke:none;stroke-width:0.2" /><path
     d="m 3381.1084,11894.211 c 0.01,2 -1.56,3.5 -3.49,3.6 -1.94,0 -3.51,-1.6 -3.52,-3.5 -0.84,-10.8 -2.04,-24.7 -2.76,-36.9 -0.66,-11.1 -0.89,-20.7 -0.81,-25 0.67,-14 10.64,-22.4 19.79,-23.2 9.5599,-1 20.5399,5.2 20.4999,23 -0.12,4 -0.54,16.8 -1.28,31.1 -0.54,10.5 -1.3,21.8 -1.86,30.9 0.02,1.9 -1.53,3.5 -3.46,3.6 -1.94,0 -3.53,-1.6 -3.55,-3.5 -0.74,-9.1 -1.74,-20.4 -2.5199,-30.9 -1.06,-14.2 -1.8,-26.9 -2.11,-30.8 -0.15,-2.4 -0.69,-4.2 -1.41,-5.7 -0.64,-1.3 -1.64,-1.9 -2.75,-1.8 -3.16,0.3 -5.92,3.6 -6.36,8.4 z"
     id="path3364"
     style="stroke:none;stroke-width:0.2" /><path
     d="m 3706.7622,11894.211 c 0.01,2 -1.56,3.5 -3.49,3.6 -1.94,0 -3.51,-1.6 -3.52,-3.5 -0.84,-10.8 -2.04,-24.7 -2.76,-36.9 -0.66,-11.1 -0.89,-20.7 -0.81,-25 0.67,-14 10.64,-22.4 19.79,-23.2 9.56,-1 20.5399,5.2 20.4999,23 -0.12,4 -0.54,16.8 -1.28,31.1 -0.54,10.5 -1.3,21.8 -1.86,30.9 0.02,1.9 -1.53,3.5 -3.46,3.6 -1.9399,0 -3.5299,-1.6 -3.5499,-3.5 -0.74,-9.1 -1.74,-20.4 -2.52,-30.9 -1.06,-14.2 -1.8,-26.9 -2.11,-30.8 -0.15,-2.4 -0.69,-4.2 -1.41,-5.7 -0.64,-1.3 -1.64,-1.9 -2.75,-1.8 -3.16,0.3 -5.92,3.6 -6.36,8.4 z"
     id="path3366"
     style="stroke:none;stroke-width:0.2" /><path
     d="m 3678.312,11708.911 c -1.9199,0.3 -3.6499,-1.1 -3.8599,-3.1 -0.21,-1.9 1.18,-3.6 3.0999,-3.8 12.93,-2.6 25.7,-5 38.73,-6.6 5.2099,-0.7 10.4199,-1.1 15.6599,-1.5 3.49,-0.2 6.98,-0.4 10.47,-0.4 8.75,0 17.4699,0.6 26.1799,1.4 13.07,1.2 25.92,3.3 38.8899,5.6 1.93,0.2 3.35,1.9 3.18,3.8 -0.18,1.9 -1.88,3.4 -3.81,3.2 -12.9599,-0.1 -25.7299,0.6 -38.6399,1 -8.54,0.4 -17.0499,0.8 -25.5999,1 -3.41,0.1 -6.82,0.1 -10.23,0 -5.13,0 -10.24,-0.1 -15.3799,-0.1 -12.92,-0.3 -25.71,-0.7 -38.69,-0.5 z"
     id="path3368"
     style="stroke:none;stroke-width:0.2" /><path
     d="m 3493.5025,11686.411 c 1.53,1.2 1.81,3.4 0.62,4.9 -1.18,1.5 -3.38,1.8 -4.91,0.6 -31.7299,-23.3 -38.9399,-63.5 -29.9499,-101.7 5.14,-21.8 15.67,-42.9 29.7899,-59.7 10.16,-12.2 22.28,-22 35.5399,-28.6 11.22,-5.5 23.85,-9.2 37.0299,-11 12.53,-1.8 25.55,-1.8 38.2299,-0.3 27.07,3.4 52.5899,14.2 69.2899,31.5 19.3999,20.4 28.0799,44.4 30.6499,66.9 4.01,35 -6.77,65.9 -12.29,72.1 -1.25,1.5 -3.46,1.7 -4.94,0.4 -1.48,-1.2 -1.66,-3.4 -0.41,-4.9 4.75,-5.9 12.4,-34.5 7.33,-66.2 -3.21,-20 -11.68,-41.3 -29.8299,-58.8 -15.06,-14.8 -37.8099,-23.1 -61.5599,-25.5 -11.3899,-1.2 -23.0299,-1 -34.2599,0.6 -11.5099,1.6 -22.5999,4.6 -32.4399,9.3 -17.2699,8.1 -32.2399,22.7 -43.4599,40.2 -7.31,11.4 -13.0799,24.1 -16.7499,37.1 -9.63,34.1 -5.24,70.6 22.3199,93.1 z"
     id="path3370"
     style="stroke:none;stroke-width:0.2" /><path
     d="m 3491.3525,11689.211 c -58.4898,-45.4 -24.2899,-150.9 36.6399,-180.2 6.79,-3.3 14.14,-5.9 21.81,-7.8 -49.7499,43.7 -64.7499,124 -26.33,176.1 -16.9399,1.2 -28.8299,3.1 -30.6799,5.9 -0.59,0.9 -1.06,3 -1.44,6 z"
     id="path3372"
     style="stroke:none;stroke-width:0.2" /></g>&#10;</svg>
