<?xml version="1.0" encoding="UTF-8" standalone="no"?>
<svg
   width="2842.2083"
   height="2758.1528"
   viewBox="0 0 2842.2083 2758.1528"
   version="1.1"
   xml:space="preserve"
   style="clip-rule:evenodd;fill-rule:evenodd;stroke-linejoin:round;stroke-miterlimit:2"
   id="svg5353"
   xmlns="http://www.w3.org/2000/svg"
   xmlns:svg="http://www.w3.org/2000/svg"><defs
   id="defs5353" />&#10;    <g
   id="vectorly-UNI-printer"
   transform="matrix(4.9999999,0,0,4.9999999,-16538.196,-72905.491)"
   style="stroke-width:0.2"><path
     d="m 3457.9726,14807.31 c 0.01,0.1 -0.34,0 -0.45,0 0.12,0 0.27,0 0.45,0 z m 0,0 c 0,0 0,0 -0.01,0 -0.58,-2.5 -6.71,2.5 -12.26,5.2 -14.4099,7.2 -36.3799,19.8 -58.0498,32.9 -25.96,15.7 -51.4899,32.1 -62.8299,40.9 -1.95,1.6 -3.98,3.4 -4.5,3.9 -0.29,1.1 -0.44,3.3 -0.69,6.2 -0.66,7.9 -1.12,20.3 -1.45,34.4 -1,42.6 -0.76,101.1 -0.76,101.1 0.04,2 -1.49,3.6 -3.4299,3.6 -1.93,0.1 -3.53,-1.5 -3.58,-3.4 0,0 -2.28,-58.6 -2.71,-101.4 -0.17,-17.5 -0.02,-32.3 0.69,-39.6 0.28,-3 0.78,-5 1.2,-6 0.6,-1.4 3.14,-4.5 7.6499,-8.2 11.33,-9.3 36.85,-26.9 62.9599,-43.5 26.1599,-16.7 52.8899,-32.4 66.4398,-38.6 5.4,-2.4 9.44,-3.3 11.39,-3.3 3.03,0.1 27.2899,2.5 62.2998,6.5 26.2,3 58.4699,6.9 92.3898,11.1 22.79,2.9 46.3199,5.9 69.2398,8.8 84.8798,11 161.4296,21.4 161.4296,21.4 1.92,0.3 3.3,2 3.08,3.9 -0.22,2 -1.96,3.3 -3.88,3.1 0,0 -96.4597,-9.1 -192.9395,-18.8 -41.0299,-4.1 -82.0598,-8.4 -115.6697,-12 -41.0499,-4.4 -70.9298,-7.9 -76.0098,-8.2 z"
     id="path4150"
     style="stroke:none;stroke-width:0.2" /><path
     d="m 3450.1926,14852.51 c -1.92,-0.2 -3.28,-2 -3.03,-3.9 0.24,-1.9 2,-3.3 3.92,-3 0,0 37.8199,2.8 86.3398,7.4 11.05,1 22.6399,2.2 34.4599,3.5 7.59,0.9 15.27,1.7 22.94,2.7 19.4599,2.6 38.9499,5.5 57.1298,8.2 39.1699,6 72.1498,11.6 85.5098,13.4 1.93,0.1 3.35,1.9 3.16,3.8 -0.18,1.9 -1.89,3.3 -3.81,3.1 -13.5,-0.7 -46.9599,-3 -86.5198,-6.7 -18.3199,-1.7 -37.9399,-3.6 -57.4498,-5.9 -7.69,-0.9 -15.34,-2 -22.9,-3.1 -11.78,-1.6 -23.3099,-3.4 -34.2699,-5.1 -48.1499,-7.6 -85.4798,-14.4 -85.4798,-14.4 z"
     id="path4152"
     style="stroke:none;stroke-width:0.2" /><path
     d="m 3379.4028,14931.01 c -0.16,3.2 -0.21,7.6 -0.17,12.8 0.15,22.7 2.04,59.4 4.44,77.2 0.37,2.7 0.95,5.5 1.29,7.1 l 27.0399,4.1 c 1.92,0.2 3.3,1.9 3.07,3.8 -0.23,2 -1.97,3.3 -3.89,3.1 l -30.0499,-2.8 c -1.11,-0.2 -3.53,-1.8 -4.81,-5.9 -1.57,-5.1 -3.41,-16.3 -5.08,-29.7 -2.98,-23.8 -5.45,-54.6 -5.5,-68.8 -0.02,-6 1.03,-9.9 1.69,-11.1 0.58,-0.9 2.19,-2.9 5.9,-3.5 1.66,-0.2 5.18,-0.3 10.28,-0.1 10.92,0.5 30.1099,2.1 53.8398,4.5 11.01,1.1 23.01,2.4 35.6,4 28.9599,3.5 61.0998,8 91.9597,12.5 72.3698,10.5 137.5397,21.1 137.5397,21.1 1.92,0.3 3.27,2.1 3.02,4 -0.26,1.9 -2.02,3.2 -3.94,3 0,0 -65.6598,-6.8 -138.3297,-14.6 -30.9599,-3.4 -63.1798,-6.9 -92.1197,-10.2 -12.57,-1.4 -24.51,-2.9 -35.47,-4.2 -23.3499,-2.8 -42.1998,-5 -52.9498,-5.8 -1.14,-0.1 -2.3,-0.3 -3.36,-0.5 z m -2.03,-0.3 c -1.37,-0.2 -2.27,-0.1 -2.2,0.4 0.17,1.5 1.21,0.7 2.2,-0.4 z m 329.6292,135.8 c 1.92,0.2 3.3,1.9 3.08,3.8 -0.22,2 -1.96,3.3 -3.89,3.1 0,0 -5.16,1.1 -15.03,1.8 -1.84,0.1 -3.8,0.2 -5.94,0.1 -1.27,0 -2.58,0 -3.93,-0.2 -3.05,-0.5 -6.2099,-1.3 -9.6199,-2.3 -4.59,-1.4 -9.04,-3.2 -14.24,-5 -1.92,-0.2 -3.3,-2 -3.08,-3.9 0.22,-1.9 1.96,-3.3 3.88,-3.1 5.48,-0.6 10.23,-1.3 15.01,-1.6 3.54,-0.2 6.8199,-0.3 9.8899,0 1.36,0.1 2.64,0.4 3.88,0.6 2.1,0.5 3.99,0.9 5.76,1.5 9.45,2.9 14.23,5.2 14.23,5.2 z"
     id="path4154"
     style="stroke:none;stroke-width:0.2" /><path
     d="m 3709.812,14969.51 c -0.18,0 -0.36,0 -0.54,0 0.72,0.3 1.33,0 1.76,-0.2 -0.39,0.2 -0.81,0.2 -1.22,0.2 l -2.07,-6.3 c 0,0 0.19,-0.1 0.35,-0.2 0.35,-0.3 1.18,-0.5 2.37,-0.6 0.81,0 2.74,0.2 4.81,4.4 1.52,3.1 4.0699,10.2 6.1299,27.9 0.56,4.9 1.07,10.5 1.19,17.1 0.06,3.5 -0.07,7.3 -0.32,11.3 -0.33,5.2 -0.91,10.8 -1.66,16.9 -0.94,7.7 -2.28,15.9 -3.7199,25.2 -0.07,2 -1.71,3.5 -3.64,3.4 -1.93,-0.1 -3.44,-1.7 -3.36,-3.7 -0.8,-11.3 -1.83,-21.1 -2.38,-30 -0.46,-7.4 -0.85,-14 -0.89,-19.9 -0.04,-5 0.24,-9.4 0.41,-13.4 0.14,-3.3 0.34,-6.2 0.51,-8.9 0.73,-11.9 0.95,-18.2 0.55,-21.7 -0.09,-0.8 -0.19,-1.6 -0.23,-2.1 -0.29,-0.1 -0.56,-0.4 -0.78,-0.7 -1.21,-1.5 -0.97,-3.7 2.73,1.3 z m 2.04,-0.6 c -0.14,0.1 -0.3,0.2 -0.45,0.3 0.01,0 0.01,0 0.02,0 0.23,-0.1 0.43,-0.3 0.43,-0.3 z"
     id="path4156"
     style="stroke:none;stroke-width:0.2" /><path
     d="m 3714.712,15036.01 c 1.92,0.2 3.2599,2 2.9999,3.9 -0.26,1.9 -2.0299,3.3 -3.9499,3 0,0 -44.8799,-4.1 -102.0198,-10.4 -13.07,-1.4 -26.7699,-3 -40.7199,-4.7 -8.97,-1.2 -18.0499,-2.3 -27.0999,-3.6 -23.14,-3.2 -46.1999,-6.9 -67.5399,-10.4 -56.7298,-9.1 -101.0997,-17.1 -101.0997,-17.1 -1.91,-0.3 -3.25,-2.1 -2.99,-4 0.26,-1.9 2.03,-3.2 3.95,-3 0,0 44.8699,4.2 101.9897,10.6 21.48,2.4 44.6899,5.1 67.8499,8.1 9.07,1.2 18.1099,2.5 27.0499,3.9 13.9,2.1 27.5299,4.2 40.5099,6.3 56.7199,9.3 101.0698,17.4 101.0698,17.4 z"
     id="path4158"
     style="stroke:none;stroke-width:0.2" /><path
     d="m 3714.632,14987.11 c 1.92,0.2 3.3099,2 3.0899,3.9 -0.22,1.9 -1.9599,3.3 -3.8799,3.1 0,0 -45.2099,-3.2 -102.7798,-8.2 -13.18,-1.1 -26.9799,-2.4 -41.0399,-3.8 -9.05,-1 -18.1999,-1.9 -27.3299,-3 -23.32,-2.7 -46.5899,-5.9 -68.1198,-8.9 -57.2299,-7.9 -102.0098,-14.9 -102.0098,-14.9 -1.92,-0.2 -3.3,-2 -3.09,-3.9 0.22,-1.9 1.96,-3.3 3.88,-3.1 0,0 45.2099,3.2 102.7597,8.4 21.65,1.9 45.0399,4 68.3899,6.6 9.14,0.9 18.2599,2.1 27.2799,3.2 14.02,1.8 27.7699,3.6 40.8599,5.5 57.2299,8 101.9898,15.1 101.9898,15.1 z"
     id="path4160"
     style="stroke:none;stroke-width:0.2" /><ellipse
     cx="5096.4829"
     cy="14514.138"
     rx="9.7346182"
     ry="6.0197005"
     id="ellipse4162"
     transform="rotate(6.2612003)"
     style="stroke:none;stroke-width:0.167377" /><ellipse
     cx="5129.5166"
     cy="14515.604"
     rx="9.7346182"
     ry="6.0197005"
     id="ellipse4164"
     transform="rotate(6.2612003)"
     style="stroke:none;stroke-width:0.167377" /><ellipse
     cx="5160.7007"
     cy="14515.682"
     rx="9.7346182"
     ry="6.0197005"
     id="ellipse4166"
     transform="rotate(6.2612003)"
     style="stroke:none;stroke-width:0.167377" /><path
     d="m 3695.052,15034.21 c 1.6,-1.1 3.78,-0.7 4.87,0.9 1.09,1.6 0.67,3.8 -0.93,4.9 0,0 -14.25,12 -33.2699,27.3 -4.28,3.5 -8.83,7 -13.54,10.6 -2.99,2.3 -6.03,4.6 -9.17,6.8 -7.8899,5.5 -16.0199,10.8 -23.6899,15.9 -14.78,9.8 -27.9299,18.2 -35.0399,24.1 -1.39,1.3 -3.61,1.3 -4.96,-0.1 -1.35,-1.4 -1.31,-3.6 0.07,-4.9 6.29,-7.2 17.8499,-18.3 31.7399,-30 7.09,-6 14.71,-12.2 22.53,-18 3.1099,-2.3 6.3099,-4.4 9.4699,-6.5 4.94,-3.3 9.82,-6.5 14.53,-9.3 20.8799,-12.8 37.3899,-21.7 37.3899,-21.7 z"
     id="path4168"
     style="stroke:none;stroke-width:0.2" /><path
     d="m 3341.3429,15099.41 c 2.54,0.3 5.37,0.7 8.47,1 11.6099,1.5 26.7199,3.2 43.5699,5.1 13.7299,1.5 28.6099,3.3 43.6898,5 63.7899,7.5 131.2297,15.3 131.2297,15.3 1.92,0.1 3.36,1.8 3.2,3.7 -0.16,2 -1.86,3.4 -3.79,3.2 0,0 -67.8598,-3.5 -131.9697,-8.2 -15.1899,-1.1 -30.1499,-2.3 -43.9598,-3.5 -17.02,-1.6 -32.26,-3.3 -43.9599,-4.8 -11.11,-1.4 -19.14,-2.8 -22.73,-3.8 -10.57,-3 -7.43,-12.1 -5.31,-14.1 10.21,-9.5 30.38,-25.1 52.1999,-41 38.0899,-27.6 80.9098,-56.1 80.9098,-56.1 1.57,-1.2 3.76,-0.8 4.89,0.8 1.13,1.5 0.77,3.7 -0.81,4.9 0,0 -50.8099,39 -89.8598,70.9 -9.64,7.9 -18.5799,15.3 -25.7699,21.6 z m -10.79,9.9 c -0.02,0 -0.05,0.1 -0.07,0.1 0.02,0 0.05,-0.1 0.07,-0.1 z"
     id="path4170"
     style="stroke:none;stroke-width:0.2" /><path
     d="m 3454.9326,15004.01 c 0,0 -9.21,6.6 -22.8299,16.6 -41.0099,2 -55.2799,-16.6 -55.2799,-16.6 -0.37,-3.4 -0.72,-7.1 -1.06,-10.8 z"
     id="path4172"
     style="stroke:none;stroke-width:0.2" /><path
     d="m 3384.0928,15034.01 c -1.32,1.4 -3.54,1.5 -4.95,0.2 -1.42,-1.4 -1.51,-3.6 -0.19,-5 0,0 0.88,-3.6 3.27,-8.7 0.5,-1 1.06,-2 1.76,-3 0.42,-0.7 0.86,-1.3 1.42,-1.9 1.47,-1.4 3.12,-2.4 4.74,-3.4 4.7599,-2.8 8.2799,-4 8.2799,-4 1.32,-1.4 3.54,-1.5 4.96,-0.2 1.42,1.3 1.5,3.6 0.18,5 0,0 -0.93,3.6 -3.4,8.5 -0.84,1.7 -1.74,3.5 -3.04,5 -0.49,0.6 -1.1,1.1 -1.7,1.6 -0.9699,0.7 -1.9099,1.4 -2.9199,2 -4.88,2.7 -8.41,3.9 -8.41,3.9 z"
     id="path4174"
     style="stroke:none;stroke-width:0.2" /><path
     d="m 3697.022,15037.11 17.22,2.4 c -0.14,5.4 -0.32,11.3 -0.55,17.6 -4.24,-0.9 -22.16,-4.6 -37.5099,-5.6 12.3999,-8.7 20.8399,-14.4 20.8399,-14.4 z"
     id="path4176"
     style="stroke:none;stroke-width:0.2" /><path
     d="m 3777.5418,15095.51 c 0.14,0 0.92,-0.5 1.42,-0.8 1.32,-1 2.78,-2.3 4.39,-4 7.43,-7.7 17.1899,-21.4 27.1699,-36.6 20.64,-31.4 41.9899,-69.2 43.9899,-74.2 1.05,-2.6 1.89,-16.5 3.01,-34.1 1.73,-27.3 3.28,-63.1 2.92,-83 -0.18,0.2 -0.37,0.4 -0.55,0.6 -11.02,10.5 -28.0499,27.5 -43.2999,43.3 -11.17,11.6 -21.3799,22.5 -27.5099,29.8 -2.38,2.9 -4.85,6.4 -4.85,6.4 0,0 0.04,-0.3 0.06,-0.3 -0.85,2.9 -1.65,20.7 -2.55,42.9 -1.76,43.7 -3.35,103.7 -3.35,103.7 -0.01,1.9 -1.6,3.5 -3.53,3.4 -1.94,0 -3.49,-1.5 -3.48,-3.5 0,0 -0.64,-60 -0.38,-103.8 0.14,-23.7 0.71,-42.8 1.52,-45.9 0.42,-1.7 2.74,-5.6 6.83,-10.8 6.04,-7.7 16.15,-19.2 27.2699,-31.3 17.9,-19.5 38.3999,-40.7 48.4199,-50.2 3.85,-3.6 6.64,-5.8 7.61,-6.3 1.93,-0.9 3.82,-1 5.63,-0.5 1.74,0.4 4.42,1.7 5.86,5.6 0.77,2.1 1.48,7.3 1.74,14.5 0.71,19.7 -0.56,57.7 -2.5,86.4 -1.36,20.2 -3.37,35.9 -4.61,38.9 -2.46,5.8 -31.1599,54.6 -55.5699,88 -8.88,12.2 -17.2299,22.3 -23.5099,27.9 -4.45,3.9 -8.42,5.7 -11.17,5.9 -2.98,0.1 -19.93,-1.8 -45.6699,-5.1 -26.8899,-3.5 -63.5698,-8.6 -103.9497,-14.2 -1.92,-0.2 -3.29,-2 -3.05,-3.9 0.23,-1.9 1.98,-3.3 3.9,-3.1 40.5099,4.3 77.3198,8.1 104.2897,10.7 24.0099,2.3 40.0299,3.8 43.4999,3.6 z m 0.26,0 z m -390.839,-44.6 c 1.92,0.2 3.28,2 3.04,3.9 -0.25,1.9 -2,3.3 -3.92,3 -6.37,0.5 -11.97,1.2 -17.5,1.3 -2.42,0.1 -4.7,0.1 -6.93,0 -1.58,-0.1 -3.11,-0.2 -4.57,-0.4 -4.2399,-0.7 -7.9399,-1.7 -11.2299,-2.6 -10.97,-3.1 -16.64,-5.5 -16.64,-5.5 -1.92,-0.2 -3.28,-2 -3.03,-3.9 0.24,-1.9 2,-3.3 3.92,-3.1 0,0 6.09,-0.9 17.48,-1.1 3.41,0 7.2499,-0.1 11.5199,0.3 1.47,0.2 2.97,0.5 4.52,0.8 2.18,0.4 4.41,1 6.72,1.6 5.31,1.6 10.57,3.6 16.62,5.7 z"
     id="path4178"
     style="stroke:none;stroke-width:0.2" /><path
     d="m 3314.133,14893.01 c -1.93,-0.2 -3.31,-2 -3.1,-3.9 0.22,-1.9 1.95,-3.3 3.8699,-3.1 0,0 61.3899,4.9 139.5397,12.1 17.89,1.6 36.6499,3.4 55.7499,5.4 12.2799,1.2 24.7099,2.5 37.1299,3.9 31.6999,3.7 63.3498,7.7 92.6297,11.5 77.8198,10.1 138.7797,18.8 138.7797,18.8 1.92,0.3 3.31,2 3.1,3.9 -0.22,1.9 -1.95,3.3 -3.88,3.1 0,0 -61.3798,-4.9 -139.5097,-12.2 -29.3999,-2.7 -61.1698,-5.8 -92.8997,-9.2 -12.42,-1.3 -24.82,-2.8 -37.0799,-4.3 -19.06,-2.3 -37.7599,-4.7 -55.5699,-7 -77.8098,-10.2 -138.7596,-19 -138.7596,-19 z"
     id="path4180"
     style="stroke:none;stroke-width:0.2" /><path
     d="m 3815.7417,14808.91 c -2.08,-0.4 -5.77,-0.9 -10.79,-1.6 -15.0199,-2 -41.4499,-4.8 -72.3598,-8.1 -15.3099,-1.6 -31.6999,-3.3 -48.3399,-5.2 -8.9099,-1 -17.8999,-2 -26.8199,-3.1 -13.69,-1.7 -27.2399,-3.4 -40.1799,-5 -26.0099,-3.4 -49.5499,-6.5 -66.8998,-8.4 -11.86,-1.2 -20.73,-2.1 -25.38,-2.1 -0.55,2.1 -1.36,4.7 -2.33,7.5 -3.57,10.1 -9.0699,23.3 -9.0699,23.3 -0.69,1.8 -2.71,2.7 -4.52,2 -1.81,-0.7 -2.73,-2.7 -2.04,-4.5 0,0 3.56,-10.6 6.31,-20.1 1.55,-5.4 2.8599,-10.4 2.9199,-12.6 0.03,-1.3 0.59,-2.5 1.9,-3.7 0.6,-0.5 2.12,-1.2 4.68,-1.5 3.63,-0.4 11.48,-0.4 22.39,0.1 12.5199,0.5 29.1899,1.5 48.1699,3 14.8699,1.1 31.1499,2.6 47.9498,4.3 9.46,0.9 19.08,2 28.7,3.1 9.5999,1.1 19.1999,2.4 28.6299,3.7 32.6199,4.5 63.3198,9.4 85.6598,13.2 15.3899,2.6 26.8099,4.8 32.2099,6.1 4.01,1 5.95,2.6 6.25,3.1 0.55,0.8 1.08,2 1.19,3.5 0.11,1.7 -0.14,4.1 -0.83,7 -2.45,10.3 -9.69,27.4 -9.69,27.4 -0.7,1.8 -2.73,2.7 -4.54,2 -1.8,-0.7 -2.7,-2.7 -2,-4.5 0,0 2.86,-8.3 5.18,-16.7 1.07,-3.9 3.33,-9.3 3.65,-12.2 z m -292.0993,-33.5 c -0.42,0 -0.81,-0.1 -0.77,0.1 0.1,0.4 0.43,0.3 0.77,-0.1 z m 292.1393,32.9 c 0,-0.9 -0.28,-1.4 -1.01,-1.3 -0.35,0 0.23,0.6 0.36,0.7 0.09,0.2 0.35,0.4 0.65,0.6 z"
     id="path4182"
     style="stroke:none;stroke-width:0.2" /><path
     d="m 3800.3317,14603.71 c -3.5799,-0.5 -9.8999,-1.3 -16.0199,-1.7 -24.17,-1.8 -64.4699,-2.8 -103.0498,-4 -42.3899,-1.2 -82.7298,-2.5 -97.9097,-3 -0.03,0.2 -0.06,0.5 -0.09,0.8 -1.29,11.4 -3.08,35.7 -7.83,67 -4.79,31.4 -12.59,70 -25.6499,109.7 -0.57,1.9 -2.53,2.9 -4.38,2.4 -1.85,-0.6 -2.89,-2.6 -2.32,-4.4 19.8899,-69.3 23.9599,-134.2 25.9499,-164.7 0.57,-8.7 1.03,-14.7 1.53,-17.5 1.22,-6.9 6.73,-7.3 8.27,-7.2 1.48,0.2 54.9699,-0.1 109.7597,1.2 26.1,0.7 52.4799,1.8 73.7698,3 19.76,1.2 35.22,2.7 42.2899,4.2 4.01,0.9 6.4,2.3 7.35,3.2 1.82,1.7 2.46,3.6 2.51,5.4 0.67,26.3 -1.81,54.8 -5.84,81.9 -9.49,63.6 -26.9599,119.1 -26.9599,119.1 -0.54,1.9 -2.49,3 -4.34,2.4 -1.86,-0.5 -2.93,-2.5 -2.39,-4.3 0,0 11.76,-44.3 19.38,-98.8 4.2399,-30.4 7.2499,-63.9 5.9699,-94.7 z m -222.1494,-8.9 c -0.64,-0.1 -1.02,-0.1 -1.13,-0.1 0.38,0.1 0.75,0.1 1.13,0.1 z m 221.9094,3.9 z"
     id="path4184"
     style="stroke:none;stroke-width:0.2" /><path
     d="m 3565.0323,14697.11 c 1.79,0.7 2.67,2.7 1.95,4.5 -0.72,1.8 -2.76,2.7 -4.56,2 0,0 -4.27,-0.8 -8.0299,0.2 -0.71,0.2 -1.22,0.7 -1.74,1.3 -0.32,0.3 -0.04,0.9 -0.14,1.5 -0.21,1 -0.33,6 -1.17,12.7 -0.5,4 -1.14,8.6 -2.15,13.4 -1.14,5.2 -2.74,10.6 -4.3,15.7 -3.39,11 -6.93,20.3 -8.69,23.6 -0.71,1.8 -2.75,2.6 -4.55,1.9 -1.8,-0.7 -2.69,-2.7 -1.98,-4.5 0.84,-3.3 1.23,-12.8 2.21,-23.6 0.47,-5.3 0.94,-10.8 1.74,-16 0.57,-3.8 1.32,-7.3 2.09,-10.6 2.05,-8.6 4.14,-15 4.64,-16.3 2.35,-5.2 5.69,-8 9.93,-8.7 2.21,-0.4 4.48,-0.5 6.6499,-0.1 4.44,1 8.1,3 8.1,3 z"
     id="path4186"
     style="stroke:none;stroke-width:0.2" /><path
     d="m 3797.1418,14719.31 c -1.94,0.1 -3.54,-1.5 -3.58,-3.4 -0.04,-1.9 1.5,-3.6 3.43,-3.6 4.9599,-0.7 11.9499,-0.8 16.9599,1.6 4.56,2.2 7.19,6.5 7.44,13.3 0.01,5 -0.19,11.6 -1.11,18.9 -0.49,4 -1.19,8.1 -2.12,12.2 -1.37,6.1 -3.19,12.2 -4.98,17.9 -4.05,12.7 -8.2,23.1 -9.84,26.4 -0.68,1.8 -2.7,2.7 -4.52,2 -1.8099,-0.7 -2.7299,-2.7 -2.0499,-4.5 0.84,-3.3 1.9199,-14 3.5099,-26.8 0.72,-5.8 1.42,-11.9 2.38,-18 0.64,-4 1.41,-8 2.2,-11.8 1.41,-6.7 2.99,-12.6 3.69,-17.3 0.17,-0.8 0.6,-1.5 0.31,-2.1 -0.41,-0.8 -0.94,-1.6 -1.79,-2 -3.06,-1.7 -6.95,-2.5 -9.9299,-2.8 z"
     id="path4188"
     style="stroke:none;stroke-width:0.2" /></g>&#10;</svg>
