<?xml version="1.0" encoding="UTF-8" standalone="no"?>
<svg
   width="2674.7747"
   height="3040.9946"
   viewBox="0 0 2674.7747 3040.9946"
   version="1.1"
   xml:space="preserve"
   style="clip-rule:evenodd;fill-rule:evenodd;stroke-linejoin:round;stroke-miterlimit:2"
   id="svg5353"
   xmlns="http://www.w3.org/2000/svg"
   xmlns:svg="http://www.w3.org/2000/svg"><defs
   id="defs5353" />&#10;    <g
   id="vectorly-UNI-thumb-up"
   transform="matrix(4.9999999,0,0,4.9999999,-8400.9806,-92613.067)"
   style="stroke-width:0.2"><path
     d="m 1797.5167,18892.908 c -21.5399,5.5 -42.0299,10 -59.2598,13.9 -17.26,3.9 -31.11,7.2 -39.0699,10.8 -0.81,0.3 -1.94,0.7 -2.76,1 1.12,8.7 3.57,36.9 6.5499,69.6 2.1,23.1 4.48,48.5 7.08,70.6 2.33,19.8 4.76,37 7.36,47.5 0.8,3.2 2.07,6.5 2.48,7.5 17.01,6.7 35.6599,7.9 52.5199,7 30.0599,-1.8 54.5198,-10.7 54.5198,-10.7 1.8,-0.7 3.83,0.2 4.54,2 0.7,1.8 -0.19,3.8 -1.99,4.5 0,0 -25.0999,10.4 -56.3598,13.4 -18.63,1.8 -39.3899,0.9 -58.4299,-6 -1.68,-0.6 -3.86,-2.4 -5.62,-6.1 -2.9,-6 -6.09,-19.5 -9.0899,-37.1 -3.94,-23 -7.78,-53 -10.93,-81 -4.48,-39.8 -7.57,-75.4 -8.6,-80.1 -0.7,-3.4 -0.02,-6.7 2.39,-9.8 1.78,-2.3 5.02,-4.8 9.84,-6.9 8.5999,-3.9 23.5399,-7.5 42.2299,-11.5 17.8499,-3.7 39.2499,-7.8 61.6798,-13.2 2.04,-0.4 4.27,-0.3 6.6,0.9 2.15,1 4.92,3.5 7.56,7.8 7.64,12.2 17.9699,42.5 25.1199,78.4 8.93,44.8 13.1,98.1 2.35,134.8 -0.51,1.8 -2.44,2.9 -4.3,2.4 -1.87,-0.5 -2.97,-2.4 -2.46,-4.3 6.19,-24.3 5.26,-55.9 0.98,-87.1 -6.51,-47.4 -20.9599,-94.1 -31.5499,-113.3 -1.04,-1.9 -2.47,-3.8 -3.38,-5 z m -101.2697,25.8 c -0.71,0.3 -1.13,0.6 -0.78,1 0.52,0.5 0.73,-0.1 0.78,-1 z m -0.14,-2.2 c 0,-0.1 -0.01,-0.1 -0.01,-0.1 0,0 0.01,0 0.01,0.1 z m 103.9397,-24.2 z"
     id="path5296"
     style="stroke:none;stroke-width:0.2" /><path
     d="m 1982.7263,18584.208 c -3.27,21.7 -7.26,42.4 -11.95,61.9 -5.26,21.8 -11.27,42.2 -17.44,60.7 -21.1699,63.7 -44.0099,106.1 -47.9499,116.1 -8.9699,22.4 -23.9499,38.4 -39.8899,49.7 -22.3799,15.8 -46.4298,22.6 -56.6598,26.3 -1.8,0.7 -3.83,-0.2 -4.53,-2 -0.7,-1.8 0.2,-3.9 2.01,-4.6 9.68,-3.9 32.5499,-11.3 53.4699,-27.4 14.0099,-10.8 27.1299,-25.6 34.4899,-46.2 3.64,-10 24.6499,-52.9 44.4699,-116.6 5.6999,-18.3 11.3099,-38.3 16.4799,-59.8 4.62,-19.1 8.99,-39.4 12.45,-60.7 0.61,-3.6 2.82,-7.4 6.81,-10.4 7.13,-5.3 20.6799,-8.4 33.9299,-2.3 12.28,5.6 24.9699,19.2 29.6499,47.9 4.53,28.2 5.02,58.3 3.33,86.3 -2.02,33.5 -7.09,64 -11.65,85 -0.37,1.9 -2.21,3.2 -4.11,2.8 -1.8999,-0.4 -3.1399,-2.2 -2.7599,-4.1 3.6899,-20.9 7.4699,-51.1 8.2699,-84.1 0.66,-27.3 -0.71,-56.4 -6.02,-83.6 -3.3099,-17.3 -9.5599,-27.7 -16.8399,-33.5 -7.39,-5.8 -15.68,-6.2 -21.38,-4.1 -1.35,0.5 -2.52,1.2 -3.4299,1.9 -0.27,0.2 -0.6,0.6 -0.75,0.8 z"
     id="path5298"
     style="stroke:none;stroke-width:0.2" /><path
     d="m 1742.9268,18529.208 c -1.7199,-0.9 -2.3799,-3 -1.4799,-4.7 0.8999,-1.7 3.0199,-2.4 4.7299,-1.5 0,0 22.91,9.8 51.7899,23.2 6.6,3.1 13.47,6.4 20.44,9.9 4.4799,2.2 9.0099,4.4 13.4599,6.8 11.39,6.1 22.57,12.6 32.8999,18.6 27.51,16 48.6199,29.3 48.6199,29.3 1.71,0.9 2.37,3 1.47,4.7 -0.9,1.7 -3.02,2.4 -4.73,1.5 0,0 -22.8799,-9.9 -51.7098,-23.4 -10.82,-5.1 -22.48,-10.6 -33.98,-16.5 -4.4999,-2.3 -8.9199,-4.8 -13.2799,-7.2 -6.8,-3.8 -13.43,-7.6 -19.7,-11.3 -27.4499,-16.1 -48.5299,-29.4 -48.5299,-29.4 z"
     id="path5300"
     style="stroke:none;stroke-width:0.2" /><path
     d="m 1790.0367,18671.908 c -1.93,-0.1 -3.42,-1.7 -3.33,-3.7 0.09,-1.9 1.74,-3.4 3.67,-3.3 0,0 13,-1.3 29.87,-2.1 3.8299,-0.1 7.8299,-0.2 11.9199,-0.2 2.63,0 5.28,0 7.93,0.2 6.79,0.4 13.51,1.3 19.75,2.1 16.7199,2.2 29.5499,4.8 29.5499,4.8 1.93,0.1 3.42,1.7 3.33,3.6 -0.09,2 -1.74,3.5 -3.67,3.4 0,0 -13.01,1.2 -29.8599,1.9 -6.29,0.2 -13.06,0.4 -19.86,0.2 -2.66,-0.1 -5.3,-0.4 -7.91,-0.6 -4.08,-0.4 -8.05,-0.8 -11.8499,-1.4 -16.72,-2.3 -29.54,-4.9 -29.54,-4.9 z"
     id="path5302"
     style="stroke:none;stroke-width:0.2" /><path
     d="m 1791.3867,18764.808 c -1.83,0.7 -3.83,-0.3 -4.48,-2.1 -0.65,-1.8 0.3,-3.8 2.13,-4.5 0,0 9.25,-5.4 21.77,-11.5 2.82,-1.3 5.81,-2.7 8.91,-4 1.98,-0.8 3.9899,-1.7 6.0499,-2.3 5.3,-1.8 10.67,-3.2 15.69,-4.4 13.5,-3.3 24.0599,-5 24.0599,-5 1.82,-0.7 3.83,0.3 4.48,2.1 0.65,1.8 -0.31,3.8 -2.13,4.5 0,0 -9.2899,5.3 -21.8299,11.3 -4.66,2.2 -9.69,4.5 -14.9,6.5 -2.04,0.8 -4.12,1.4 -6.19,2 -3.2199,1 -6.3799,1.8 -9.4399,2.5 -13.56,3.2 -24.12,4.9 -24.12,4.9 z"
     id="path5304"
     style="stroke:none;stroke-width:0.2" /><path
     d="m 1976.3463,18798.208 c -1.91,0.3 -3.71,-1 -4.02,-2.9 -0.3,-1.9 1,-3.7 2.91,-4.1 0,0 31.8099,-6.5 70.7098,-12.5 15.28,-2.3 31.6099,-4.6 47.5599,-6.3 17.1799,-1.8 33.8799,-3 48.1999,-3.1 13.7499,-0.1 25.3899,0.8 33.3899,2.7 29.3999,7.2 41.1199,23.6 39.9799,40.7 -0.55,8.2 -4.03,16.8 -10.5,24.9 -9.92,12.3 -26.7499,23.6 -48.9799,30 -1.84,0.7 -3.82,-0.3 -4.43,-2.2 -0.61,-1.8 0.39,-3.8 2.23,-4.4 24.21,-9 40.7899,-23.6 46.8899,-38.2 2.94,-7.1 3.1,-14.1 -0.17,-20 -4.12,-7.6 -13.49,-13.1 -28.2699,-16 -5.64,-1.1 -13.27,-1.5 -22.23,-1.6 -10.3299,-0.1 -22.3399,0.3 -35.1399,1 -17.7199,0.9 -36.9099,2.3 -55.1998,3.8 -44.1299,3.7 -82.9298,8.2 -82.9298,8.2 z"
     id="path5306"
     style="stroke:none;stroke-width:0.2" /><path
     d="m 2181.0658,18852.108 c -1.25,-1.5 -1.06,-3.7 0.42,-4.9 1.47,-1.3 3.6899,-1.1 4.9399,0.4 5.43,5.2 10.93,13.5 14.52,23.5 1.35,3.7 2.3,7.7 2.89,11.8 0.77,5.4 0.7,11 -0.26,16.7 -0.63,3.6 -1.68,7.3 -3.3,10.9 -3.54,7.7 -9.33,15 -18.0099,21 -8.83,6.1 -20.61,10.9 -36.17,13.6 -1.8599,0.5 -3.7899,-0.6 -4.2999,-2.4 -0.51,-1.9 0.6,-3.8 2.46,-4.3 10.6499,-4 18.7999,-8.8 25.3199,-14 3.06,-2.4 5.6,-4.9 7.88,-7.4 3.76,-4.2 6.27,-8.6 8.1899,-13 1.76,-4 3,-8.1 3.59,-12.2 0.65,-4.5 0.82,-8.9 0.41,-13.3 -1,-10.6 -4.35,-20.2 -8.5799,-26.4 z"
     id="path5308"
     style="stroke:none;stroke-width:0.2" /><path
     d="m 2177.8958,18925.908 c -1.14,-1.5 -0.78,-3.7 0.79,-4.9 1.57,-1.1 3.76,-0.7 4.89,0.8 5.3399,5.8 10.7799,13.2 11.4099,25.2 0.28,5.2 -0.61,11.3 -3.12,18.5 -1.33,3.7 -3.17,7.8 -5.73,12.1 -2.0499,3.4 -4.5899,6.9 -7.5999,10.5 -3.64,4.5 -7.93,9.1 -13.04,14 -4.2,4 -8.87,8.1 -14.13,12.5 -1.33,1.4 -3.56,1.4 -4.96,0.1 -1.4,-1.3 -1.46,-3.5 -0.12,-4.9 4.74,-6.3 8.65,-12.1 12.28,-17.5 4.43,-6.6 7.93,-12.4 10.98,-17.7 1.95,-3.4 3.64,-6.5 5.18,-9.3 2.86,-5.4 4.99,-9.8 6.19,-13.9 3.46,-11.8 0.41,-19.3 -3.02,-25.5 z"
     id="path5310"
     style="stroke:none;stroke-width:0.2" /><path
     d="m 2167.6658,18986.708 c -0.41,-1.9 0.8,-3.8 2.69,-4.2 1.9,-0.4 3.76,0.8 4.16,2.7 1.77,5.3 4.14,12.3 5.04,20.6 0.52,4.7 0.42,9.7 -0.47,15 -0.8,4.7 -2.42,9.6 -4.95,14.5 -1.48,2.9 -3.29,5.8 -5.59,8.6 -4.58,5.5 -10.79,10.8 -19.01,15.4 -8.5599,4.9 -19.2299,8.9 -32.6099,12.3 -1.82,0.7 -3.83,-0.2 -4.49,-2.1 -0.66,-1.8 0.28,-3.8 2.1,-4.5 6.49,-3.1 12.03,-6.4 17.07,-9.6 5.97,-3.8 10.83,-7.7 15.0199,-11.4 3.23,-2.9 5.88,-5.9 8.25,-8.7 2.68,-3.1 4.91,-6.2 6.66,-9.3 3.59,-6.3 5.52,-12.3 6.24,-18.1 1.03,-8.3 0.43,-15.7 -0.11,-21.2 z"
     id="path5312"
     style="stroke:none;stroke-width:0.2" /><path
     d="m 2074.526,19069.808 c 1.92,-0.3 3.66,1.1 3.88,3 0.22,2 -1.16,3.7 -3.08,3.9 0,0 -30.2099,5.5 -70.6798,10.2 -9.04,1 -18.59,2 -28.4299,2.8 -6.25,0.5 -12.6,1 -19.02,1.3 -15.8799,0.7 -32.0799,0.8 -47.7099,0.5 -27.2099,-0.6 -52.5598,-2.8 -71.6098,-6.5 -1.92,-0.2 -3.24,-2 -2.96,-3.9 0.27,-2 2.05,-3.3 3.97,-3 13.19,1.2 29.2799,1.3 46.8699,0.7 12.04,-0.3 24.7299,-1 37.6499,-1.8 12.51,-0.7 25.1999,-1.6 37.6699,-2.2 15.8,-0.8 31.1999,-1.4 45.3199,-2 39.0799,-1.7 68.1298,-3 68.1298,-3 z"
     id="path5314"
     style="stroke:none;stroke-width:0.2" /><path
     d="m 1807.5767,18895.608 c 3.69,-1.4 9.23,-3.3 15.8499,-5.9 0,0 41.0099,48.9 54.7699,178.6 0.73,6.9 136.8897,10.7 136.8897,10.7 -54.3199,4.5 -132.4697,9 -176.7096,2.6 8.6,-62.8 -14.93,-155.3 -30.7999,-186 z"
     id="path5316"
     style="stroke:none;stroke-width:0.2" /></g>&#10;</svg>
