<?xml version="1.0" encoding="UTF-8" standalone="no"?>
<svg
   width="3591.5166"
   height="2928.9875"
   viewBox="0 0 3591.5166 2928.9876"
   version="1.1"
   xml:space="preserve"
   style="clip-rule:evenodd;fill-rule:evenodd;stroke-linejoin:round;stroke-miterlimit:2"
   id="svg5353"
   xmlns="http://www.w3.org/2000/svg"
   xmlns:svg="http://www.w3.org/2000/svg"><defs
   id="defs5353" />&#10;    <g
   id="vectorly-UNI-megaphone"
   transform="matrix(4.9999999,0,0,4.9999999,-12150.181,-60737.185)"
   style="stroke-width:0.2"><path
     d="m 2825.8642,12553.811 c 1.7,0.9 2.33,3 1.4,4.7 -0.92,1.7 -3.05,2.3 -4.75,1.4 -34.5399,-18.1 -66.4499,-29.7 -96.8498,-35.3 -35.0699,-6.4 -68.0898,-4.5 -100.8597,5.4 -13.23,3.9 -56.1299,15.6 -89.2098,22.4 -19.4,4 -35.6899,6 -41.8199,4.8 -8.7,-1.7 -17.61,-8.9 -24.86,-19.1 -8.1399,-11.5 -14.3799,-26.5 -16.7699,-38.9 -2.39,-12.7 -1.93,-29 2.16,-42 3.82,-12.1 10.87,-21.3 20.4599,-24.3 6.74,-2.2 74.0798,-19.7 126.3197,-34.2 22.84,-6.3 42.7699,-12 53.3299,-15.7 22.2899,-7.7 39.9199,-16.4 53.7199,-24.9 32.6099,-20 43.5698,-38.4 43.5698,-38.4 0.95,-1.6 3.09,-2.2 4.77,-1.3 1.69,1 2.28,3.1 1.33,4.8 0,0 -8.6499,16.1 -34.7699,35.4 -15.1299,11.3 -36.2099,23.6 -64.9598,34.5 -10.59,4 -30.5899,10.4 -53.5699,17.4 -51.6599,15.7 -118.3797,34.5 -125.0497,36.7 -2.48,0.9 -4.39,2.7 -6.01,5.1 -2.75,3.9 -4.5,9.2 -5.62,14.9 -1.8499,9.6 -1.7599,20.3 -0.05,29 1.69,8.7 5.7,18.9 10.93,27.7 3.14,5.2 6.71,10 10.57,13.4 2.48,2.2 5.01,3.9 7.66,4.5 5.22,1.1 19.0799,-1.2 35.6999,-4.4 32.7599,-6.2 75.3398,-16.7 88.4698,-20.4 34.8799,-9.4 69.7998,-10.5 106.5997,-2.7 31.0099,6.7 63.3498,19.7 98.1598,39.5 z"
     id="path3498"
     style="stroke:none;stroke-width:0.2" /><path
     d="m 2587.5748,12406.311 c 1.0499,-1.7 3.2199,-2.1 4.8399,-1.1 1.63,1.1 2.1,3.2 1.06,4.8 0,0 -4.65,11.1 -6.4099,28.1 -0.59,5.6 -0.67,11.9 -0.53,18.7 0.13,5.9 0.27,12.2 1.28,18.8 1.3399,8.8 3.3599,18.2 7.6399,28.2 0.95,1.7 0.35,3.9 -1.34,4.8 -1.68,1 -3.82,0.4 -4.77,-1.3 -6.9599,-9.8 -11.7899,-19.2 -14.8199,-28.5 -2.44,-7.5 -3.69,-14.7 -3.97,-21.6 -0.13,-3 0.05,-5.9 0.34,-8.8 0.49,-4.6 1.3,-8.9 2.39,-12.9 1.65,-6 3.68,-11.1 5.75,-15.3 4.43,-9 8.54,-13.9 8.54,-13.9 z"
     id="path3500"
     style="stroke:none;stroke-width:0.2" /><path
     d="m 2478.935,12535.911 c 1.84,-0.6 3.81,0.4 4.4,2.3 0.59,1.8 -0.42,3.8 -2.27,4.4 -12.66,5.5 -23.9199,2.5 -32.9699,-4.6 -3.79,-2.9 -7.02,-6.8 -9.76,-11.2 -3.53,-5.6 -6.13,-12.2 -7.39,-19.1 -1.23,-6.8 -1.21,-13.8 0.05,-20.4 3.16,-16.6 13.12,-30.8 30.72,-33.8 1.87,-0.5 3.79,0.6 4.29,2.5 0.49,1.8 -0.63,3.7 -2.5,4.2 -8.94,3.3 -13.92,10.4 -16.45,18.6 -0.99,3.3 -1.41,6.7 -1.65,10.3 -0.35,5.1 0.26,10.5 1.26,15.6 0.67,3.5 1.47,6.9 2.64,10.2 1.21,3.3 2.6,6.4 4.38,9.2 5.47,8.6 13.7099,14.3 25.2499,11.8 z"
     id="path3502"
     style="stroke:none;stroke-width:0.2" /><path
     d="m 2644.9646,12681.211 c -0.25,-0.4 -1.03,-0.9 -0.99,-0.5 0.23,2.7 5.95,-2.8 10.29,-6.6 11.91,-10.3 18.9199,-18.3 22.6299,-24.9 4.06,-7.3 3.38,-11.9 1.08,-15.3 -18.6499,-28 -37.6599,-56.9 -43.9199,-79.5 -4.68,-17 -2.64,-30.7 9.92,-39.1 1.58,-1.1 3.77,-0.7 4.89,0.9 1.12,1.5 0.74,3.7 -0.84,4.9 -9.22,6.9 -9.3,17.7 -4.96,30.5 7.29,21.4 27.1299,48.1 46.4999,74.2 4.11,5.6 6.94,13 3.48,23.8 -2.82,8.8 -10.68,20.6 -28.2299,36.4 -7.87,7 -14.59,10.2 -19.52,10.6 -5.84,0.4 -10.43,-1.8 -13.64,-6.9 -9.3899,-15.1 -18.8899,-29.8 -27.9599,-43.8 -10.1,-15.6 -19.7199,-30.3 -28.5699,-43.4 -18.27,-27.1 -32.9699,-47.6 -40.5699,-55.7 -1.36,-1.4 -1.35,-3.6 0.02,-5 1.37,-1.3 3.59,-1.3 4.96,0.1 8.25,7.7 24.7499,27.4 44.9399,53.9 9.6699,12.6 20.1899,26.8 31.0099,42.1 9.7,13.7 19.5699,28.4 29.4799,43.3 z m 0,0 z"
     id="path3504"
     style="stroke:none;stroke-width:0.2" /><path
     d="m 2655.0746,12683.711 c 1.41,-1.1 2.9,-2.3 4.47,-3.6 4.87,-4.3 8.96,-8.3 12.3699,-12 4.83,5.1 26.05,19.9 15.32,30.4 -13.85,13.4 -32.1599,-14.8 -32.1599,-14.8 z"
     id="path3506"
     style="stroke:none;stroke-width:0.2" /><path
     d="m 2777.9443,12705.011 c -5.45,-0.1 -11.34,-0.1 -17.41,0 -17.5999,0 -40.9699,1.4 -58.5998,-0.6 -11.85,-1.3 -21.22,-4.3 -25.49,-9.5 -1.28,-1.4 -1.14,-3.7 0.31,-4.9 1.45,-1.3 3.67,-1.2 4.95,0.3 3.66,3.9 11.45,5 20.93,5.5 17.4099,0.8 40.2399,-1.9 57.4998,-3 18.25,-1 34.9799,-1.4 44.7299,0.3 4.71,0.8 8.15,2.3 10.22,3.9 3.28,2.5 4.43,5.7 4.15,9.2 -0.22,2.6 -2.09,6.3 -7.49,8.5 -5.91,2.5 -19.67,4.7 -36.2899,6.2 15.6499,0.9 29.3199,2.5 37.3699,5.5 1.84,0.6 2.82,2.6 2.2,4.4 -0.62,1.9 -2.61,2.9 -4.45,2.2 -11.44,-3.5 -34.2199,-3.1 -57.4199,-2.3 -22.6099,0.8 -45.5698,2.2 -59.3498,1.8 -7.14,-0.3 -12.23,-1.3 -14.58,-2.5 -2,-1.1 -3.14,-2.5 -3.85,-3.8 -0.77,-1.4 -0.94,-2.8 -0.86,-4.2 0.12,-1.9 0.99,-4.1 3.38,-5.9 1.8,-1.4 7.07,-3.1 14.89,-4.2 11.45,-1.7 29.5599,-3.1 48.2599,-4.4 12.6799,-0.9 25.6399,-1.6 36.8999,-2.5 z m 27.1299,-2.5 c 1.41,-0.3 2.08,-0.9 1.62,-1.7 -0.63,-1.1 -1.23,0.3 -1.62,1.7 z"
     id="path3508"
     style="stroke:none;stroke-width:0.2" /><path
     d="m 2918.1039,12511.411 c -0.17,2 -1.88,3.4 -3.8,3.2 -1.93,-0.2 -3.35,-1.9 -3.18,-3.8 2.31,-31.5 -3.3699,-75.8 -13.7099,-118.1 -10.72,-43.8 -26.42,-85.5 -44.3499,-108.2 -13.1,-16.8 -27.3999,-22.7 -39.4699,-16.6 -11.11,5.7 -19.34,20.3 -23.01,42.2 -7.3699,41.1 -4.7599,83.9 3.29,122.6 9.84,47.3 27.82,88.5 47.1899,113.1 12.98,16.5 26.48,26.1 38.6499,24.4 11.51,-1.6 20.78,-13.2 26.99,-36.3 0.47,-1.9 2.37,-3 4.2499,-2.5 1.88,0.4 3.02,2.3 2.55,4.2 -6.4599,27.9 -18.7399,40.9 -32.4299,43.3 -14.5699,2.5 -31.9399,-7.2 -48.1899,-26.5 -20.9499,-25 -41.4099,-67.5 -52.7598,-116.7 -9.31,-40.3 -12.37,-85.1 -5.3,-128.3 4.95,-28.3 17.3199,-46.3 31.7799,-53.4 17.57,-8.7 39.5099,-3.1 58.0599,21.6 18.1399,24.3 33.9499,68.4 43.7399,114.6 9.2099,43.6 13.1999,89.1 9.6999,121.2 z"
     id="path3510"
     style="stroke:none;stroke-width:0.2" /><path
     d="m 2867.0641,12479.011 c -1.88,0.5 -3.77,-0.7 -4.22,-2.6 -0.44,-1.8 0.72,-3.7 2.61,-4.2 0,0 42.9999,-12.5 75.6998,-18.8 16.2299,-3.2 30.1299,-4.4 35.9099,-3.1 5.66,1.2 10.94,5.7 15.3099,12.5 5.47,8.6 9.89,21.3 15.21,31.2 1.64,3 3.29,5.8 5.22,7.9 1.45,1.6 2.85,3 4.77,3 5.42,0.2 14.08,-0.2 23.7399,-0.9 25.14,-1.7 56.7199,-5.1 56.7199,-5.1 1.91,-0.3 3.71,1 4,2.9 0.3,1.9 -1.02,3.7 -2.93,4 0,0 -25.07,5.2 -48.3399,8.9 -13.28,2.2 -25.9499,3.8 -33.1899,4.1 -6.66,0.2 -12.53,-3.3 -17.61,-9.3 -6.58,-7.8 -11.8899,-20.7 -17.3099,-31.3 -1.97,-3.9 -3.88,-7.5 -6.07,-10.1 -1.02,-1.2 -1.9,-2.3 -3.15,-2.7 -4.78,-1.2 -16.38,0 -30.1199,1.7 -32.7099,4 -76.2498,11.9 -76.2498,11.9 z"
     id="path3512"
     style="stroke:none;stroke-width:0.2" /><path
     d="m 2878.374,12394.711 c -1.8,0.7 -3.84,-0.2 -4.53,-2 -0.7,-1.8 0.2,-3.8 2,-4.5 0,0 38.2499,-17 72.0899,-30.9 23.5599,-9.6 45.0598,-17.5 50.1298,-18.6 5.24,-1 9.2,-0.1 12.77,1.4 1.3,0.6 2.52,1.2 3.76,1.8 1.08,0.6 2.12,1.3 3.63,1 2.23,-0.3 4.9,-1.7 8.67,-4.5 6.0599,-4.5 19.2599,-10.5 34.9999,-16.1 34.8299,-12.5 81.9098,-24.8 81.9098,-24.8 1.85,-0.5 3.81,0.5 4.38,2.4 0.57,1.8 -0.47,3.8 -2.32,4.3 0,0 -45.3499,16.2 -78.9698,30.7 -13.63,5.9 -25.29,11.4 -30.47,15.7 -6.6399,5.3 -11.7099,7.4 -15.7099,8.1 -5.14,0.8 -9.05,-0.4 -12.75,-2.2 -2.04,-1 -3.8,-2.8 -6.93,-2.2 -1.79,0.3 -5.84,1.6 -11.4399,3.4 -11.02,3.5 -27.45,9.1 -44.3699,14.8 -32.61,10.9 -66.8499,22.2 -66.8499,22.2 z"
     id="path3514"
     style="stroke:none;stroke-width:0.2" /><path
     d="m 2821.6242,12325.711 c -1.63,1.1 -3.8,0.6 -4.83,-1 -1.03,-1.7 -0.54,-3.9 1.09,-4.9 l 80.8098,-55.4 c 0.62,-0.4 0.34,-1.2 0.43,-1.9 0.2,-1.5 0.26,-3.2 0.44,-4.9 0.46,-4.7 1.56,-10 5.26,-15.6 2.9,-4.4 7.5799,-9.1 15.3099,-13.8 5.01,-3 14.52,-8.2 26.74,-14.4 11.6399,-5.9 25.7299,-12.7 40.4899,-19.6 47.7698,-22.4 102.2997,-46.4 102.2997,-46.4 1.74,-0.9 3.84,-0.1 4.69,1.6 0.85,1.7 0.12,3.8 -1.61,4.7 0,0 -40.8099,22 -82.4498,44.2 -17.36,9.2 -34.8199,18.5 -49.5299,26.2 -14.8899,7.8 -26.9299,13.9 -32.6899,17.3 -5.3,3 -8.67,5.8 -10.74,8.7 -3.78,5.4 -3.34,10.4 -4.02,14.2 -0.86,4.8 -2.5799,8.7 -6.8599,11.4 -2.95,1.8 -13.06,7.9 -25.4,15.1 -25.1499,14.8 -59.4298,34.5 -59.4298,34.5 z"
     id="path3516"
     style="stroke:none;stroke-width:0.2" /><path
     d="m 2781.0943,12392.511 c -1.83,0.6 -3.82,-0.4 -4.42,-2.3 -0.6,-1.8 0.4,-3.8 2.24,-4.4 10.25,-4 26.2199,-8 40.3199,-10.5 8.89,-1.5 16.9999,-2.5 22.4599,-2.6 3.22,-0.1 5.7,0.1 7.23,0.5 5.19,1.3 10.69,5.2 15.38,11.3 4.55,5.9 8.4499,13.8 10.3899,22.5 3.08,13.8 1.36,29.1 -7.6099,40.7 -0.99,1.2 -2.62,2.8 -5.05,4.3 -3.7,2.2 -9.52,5 -16.31,7.6 -19.6699,7.7 -47.2199,15.5 -47.2199,15.5 -1.82,0.7 -3.82,-0.3 -4.46,-2.1 -0.63,-1.9 0.33,-3.9 2.16,-4.5 0,0 20.64,-8.6 38.2599,-17.2 6.44,-3.1 12.44,-6.2 16.79,-8.8 2.12,-1.3 3.75,-2.3 4.36,-3.3 5.86,-8.3 5.72,-19.1 3.49,-28.6 -1.5,-6.5 -3.95,-12.5 -7.12,-17 -2.18,-3.1 -4.33,-5.8 -6.86,-6.5 -3.84,-1.3 -17.0199,-0.7 -31.1299,0.5 -11.88,1.1 -24.3099,2.6 -32.8999,4.9 z"
     id="path3518"
     style="stroke:none;stroke-width:0.2" /><path
     d="m 2837.6441,12378.511 c 0.64,-1.8 2.64,-2.8 4.47,-2.2 1.83,0.7 2.79,2.7 2.15,4.5 0,0 -0.03,4.9 1.07,12.8 0.35,2.4 0.98,5.1 1.57,8.1 0.32,1.7 0.7,3.4 1.01,5.3 0.43,2.6 0.67,5.3 1.26,8.1 0.98,4.8 1.91,9.7 4.24,15 1.12,1.6 0.73,3.7 -0.85,4.9 -1.58,1.1 -3.77,0.7 -4.88,-0.9 -3.36,-3.1 -5.98,-6.2 -8.36,-9.5 -1.79,-2.4 -3.15,-4.9 -4.36,-7.4 -1.41,-3 -2.41,-5.9 -3.02,-8.8 -0.35,-1.7 -0.5,-3.3 -0.55,-4.9 -0.08,-2.7 0.01,-5.2 0.35,-7.5 0.4,-2.7 0.9,-5.1 1.57,-7.2 2.11,-6.7 4.33,-10.3 4.33,-10.3 z"
     id="path3520"
     style="stroke:none;stroke-width:0.2" /><path
     d="m 2779.5543,12314.111 c -1.27,-1.4 -1.13,-3.6 0.33,-4.9 1.45,-1.3 3.67,-1.1 4.94,0.3 6.4099,5.5 12.4199,11.1 17.9499,17.5 2.2,2.5 4.21,5.2 6.14,7.9 1.28,1.8 2.53,3.7 3.61,5.6 2.7,4.9 4.92,10 6.88,15.2 2.93,7.8 4.99,15.7 6.96,23.9 0.71,1.8 -0.18,3.8 -1.98,4.5 -1.8,0.7 -3.83,-0.2 -4.54,-2 -3.96,-7 -8.35,-13.5 -12.66,-20.3 -2.83,-4.4 -5.73,-8.7 -8.46,-13.2 -1.09,-1.8 -2.06,-3.6 -3.06,-5.4 -1.51,-2.8 -2.98,-5.5 -4.44,-8.3 -3.7699,-7.1 -7.2999,-14 -11.6699,-20.8 z m 59.3998,140.7 c -0.29,-1.9 1.03,-3.7 2.94,-4 1.91,-0.3 3.7,1.1 3.99,3 2.81,10.4 5.33,20.6 7.01,30.9 0.69,4.2 1.18,8.4 1.54,12.6 0.25,2.8 0.46,5.6 0.48,8.4 0.05,7.2 -0.46,14.3 -1.22,21.1 -1.23,11.1 -3.33,21.5 -5.57,31.3 -0.22,1.9 -1.96,3.3 -3.88,3.1 -1.93,-0.3 -3.3,-2 -3.08,-3.9 0.1,-9.8 -0.56,-20 -1.13,-30.8 -0.34,-6.7 -0.83,-13.5 -1.11,-20.4 -0.1,-2.7 -0.08,-5.4 -0.08,-8.1 0,-4.1 0.02,-8.2 0.08,-12.3 0.14,-10.2 0.45,-20.4 0.03,-30.9 z"
     id="path3522"
     style="stroke:none;stroke-width:0.2" /><path
     d="m 2782.1943,12311.811 c 17.5599,20.1 30.9699,43.8 40.9099,69.1 -14.55,1.6 -32.1,4.6 -43.0999,8.2 -2.31,-25.4 -1.91,-51.6 2.19,-77.3 z m 15.1599,160 c 0,0 26.08,-9.1 45.0699,-17.5 5.63,36.9 5.76,73.2 2.22,103.4 -2.57,-2.6 -5.13,-5.5 -7.67,-8.6 -14.6899,-18.1 -28.8999,-45.2 -39.6199,-77.3 z"
     id="path3524"
     style="stroke:none;stroke-width:0.2" /></g>&#10;</svg>
