<?xml version="1.0" encoding="UTF-8" standalone="no"?>
<svg
   width="3253.1799"
   height="3199.9946"
   viewBox="0 0 3253.18 3199.9946"
   version="1.1"
   xml:space="preserve"
   style="clip-rule:evenodd;fill-rule:evenodd;stroke-linejoin:round;stroke-miterlimit:2"
   id="svg5353"
   xmlns="http://www.w3.org/2000/svg"
   xmlns:svg="http://www.w3.org/2000/svg"><defs
   id="defs5353" />&#10;    <g
   id="vectorly-UNI-report-page"
   style="stroke:none;stroke-width:0.2"
   transform="matrix(4.9999999,0,0,4.9999999,-20802.86,-20144.178)"><path
     d="m 4269.8235,4181.4756 c -17.57,4.32 -70.8598,17.15 -93.4798,19.55 -3.98,0.42 -7.11,0.5 -9.12,0.26 -2.17,-0.25 -3.62,-1.01 -4.45,-1.69 -2.19,-1.77 -2.83,-4.04 -1.54,-6.92 9.32,-20.83 21.03,-39.87 34.7,-50.97 12.7199,-10.34 27.1499,-14.09 43.0599,-7.76 11.1399,4.43 23.2299,14.21 35.9399,31.29 14.9199,20.05 30.9499,50.5399 47.9898,94.4499 12.04,31.39 24.11,59.11 35.69,83.71 15.0099,31.8 29.3699,58.2 42.7799,79.8 23.8699,38.4999 44.4698,61.8999 59.2598,74.2999 5.02,4.2 9.26,7.1 12.67,8.8 1.7,0.8 3,1.4 3.98,1.5 5.2399,0 34.0199,-8.3 69.6598,-18.8 69.9598,-20.7 165.3996,-50.6999 165.3996,-50.6999 1.84,-0.6 3.82,0.4 4.43,2.2 0.6,1.8 -0.39,3.8 -2.23,4.4 0,0 -94.6298,32.7999 -164.1196,55.2999 -37.2999,12.1 -67.6099,21 -73.1398,21 -4.6,0.1 -13.65,-3.4 -25.54,-13 -15.7299,-12.7 -37.9899,-36.7 -63.4498,-76.7999 -13.92,-21.9 -28.8899,-48.7 -44.1499,-81.2 -11.7,-24.94 -23.4699,-53.24 -35.3799,-85.16 -13.61,-36.95 -26.61,-64.1799 -38.9599,-83.5599 z m -4.26,-6.4 c -0.47,-0.68 -0.94,-1.34 -1.4,-1.99 -10.58,-14.81 -20.43,-23.71 -29.8699,-27.71 -11.41,-4.83 -21.84,-1.94 -31.23,5.32 -11.5699,8.95 -21.6299,24.02 -30.1399,40.8 0.83,-0.02 1.69,-0.05 2.53,-0.12 21.34,-1.71 70.4498,-12.04 90.1098,-16.3 z"
     id="path1358"
     style="stroke:none;stroke-width:0.2" /><path
     d="m 4757.7123,4418.2955 c 1.71,1 2.35,3.1 1.44,4.8 -0.91,1.7 -3.03,2.3 -4.74,1.4 -13.45,-6.8 -47.2199,-28.7 -93.2298,-85.2 -16.82,-20.71 -35.3199,-46.04 -54.9599,-77.07 -15.0699,-23.82 -30.7499,-51.0399 -47.0398,-81.9699 -19.89,-38.61 -33.48,-62.06 -44.3599,-76.12 -9.84,-12.7 -16.68,-16.8 -25.26,-17.04 -3.58,-0.1 -24.7499,4.01 -53.8198,9.69 -80.9198,15.84 -220.9395,44.94 -220.9395,44.94 -1.88,0.42 -3.76,-0.77 -4.19,-2.65 -0.42,-1.89 0.77,-3.77 2.65,-4.19 0,0 110.9897,-27.03 192.0995,-45.5 44.1399,-10.05 79.6398,-17.37 84.4898,-17.34 12.26,0.14 23.12,4.39 37.3399,22.44 11.36,14.42 25.4,38.68 45.9799,78.56 15.55,30.84 30.6799,57.9199 45.0199,81.7999 18.63,31 36.0099,56.51 51.9299,77.39 42.9599,56.36 74.7598,78.96 87.5898,86.06 z"
     id="path1360"
     style="stroke:none;stroke-width:0.2" /><path
     d="m 4790.9322,4091.9156 c -2.65,-0.77 -5.75,-1.63 -8.67,-2.65 -12.53,-4.4 -30.4199,-9.91 -50.1299,-15.69 -24.9199,-7.3 -52.7098,-15.02 -76.3598,-21.16 -18.1199,-4.71 -33.7799,-8.54 -43.7999,-10.52 -4.76,-0.94 -7.91,-1.69 -9.0099,-1.48 -11.34,2.12 -28.98,11.82 -42.1799,33.6 -8.17,13.48 -14.64,31.45 -17.05,54.99 -0.16,1.92 -1.85,3.36 -3.78,3.2 -1.93,-0.16 -3.37,-1.85 -3.21,-3.78 1.98,-31.68 11.36,-54.19 22.68,-69.72 13.5099,-18.51 30.0399,-27.17 41.1899,-29.68 1.17,-0.27 3.7999,-0.29 7.6499,0.19 9.31,1.16 28.17,4.95 50.7099,10.13 23.97,5.5 52.1499,12.5 77.3598,19.41 20.16,5.52 38.4299,10.97 51.1999,15.41 10.04,3.48 16.95,6.63 19.5399,8.59 3.84,2.93 4.29,6.34 4.1,8.37 -0.19,1.95 -0.94,3.82 -2.65,5.43 -15.5099,14.43 -32.0899,38.84 -48.4298,66.57 -9.71,16.49 -19.32,34.13 -28.46,51.66 -29.9999,57.5199 -54.8998,113.8299 -61.8798,124.3099 -1.04,1.6 -3.21,2.1 -4.84,1.1 -1.63,-1.1 -2.11,-3.25 -1.07,-4.89 6.52,-10.69 28.6799,-67.87 56.5199,-126.1499 8.6299,-18.08 17.8299,-36.24 27.2699,-53.18 14.26,-25.59 29.1499,-48.34 43.2999,-64.06 z m 6.59,-6.86 c 0.02,-0.02 0.04,-0.03 0.06,-0.05 -0.02,0.02 -0.04,0.03 -0.06,0.05 z m -2,8.36 c 0.28,1.9 0.86,3.5 1.94,2.05 0.55,-0.72 -0.29,-1.38 -1.94,-2.05 z"
     id="path1362"
     style="stroke:none;stroke-width:0.2" /><path
     d="m 4595.7227,4077.5156 c -1.83,-0.62 -2.81,-2.61 -2.19,-4.45 0.63,-1.83 2.62,-2.81 4.45,-2.19 0,0 14.6199,2.91 33.2399,7.61 4.23,1.07 8.62,2.29 13.0999,3.61 2.87,0.85 5.77,1.71 8.62,2.73 7.3,2.61 14.44,5.58 21.03,8.38 17.6499,7.51 31.0399,14.07 31.0399,14.07 1.83,0.62 2.81,2.62 2.19,4.45 -0.62,1.83 -2.61,2.81 -4.44,2.19 0,0 -14.62,-2.97 -33.1899,-7.77 -6.94,-1.8 -14.4,-3.79 -21.78,-6.18 -2.88,-0.93 -5.6999,-2.02 -8.4999,-3.09 -4.35,-1.68 -8.58,-3.39 -12.58,-5.12 -17.62,-7.63 -30.9899,-14.24 -30.9899,-14.24 z"
     id="path1364"
     style="stroke:none;stroke-width:0.2" /><path
     d="m 4580.927,4113.9456 c -1.8254,-0.6235 -2.8081,-2.613 -2.1879,-4.4429 0.6203,-1.8299 2.613,-2.8104 4.4477,-2.1972 0,0 12.873,2.3195 29.3112,6.274 3.7262,0.8987 7.5893,1.9395 11.5288,3.0757 2.5236,0.7322 5.0735,1.4732 7.573,2.374 6.411,2.3043 12.6484,4.9707 18.4114,7.4895 15.4693,6.7749 27.1115,12.7341 27.1115,12.7341 1.8343,0.6231 2.817,2.6126 2.1879,4.4429 -0.6207,1.8398 -2.6133,2.8203 -4.4388,2.1968 0,0 -12.8708,-2.3787 -29.2607,-6.4338 -6.1118,-1.5184 -12.6796,-3.205 -19.1612,-5.2895 -2.5295,-0.8108 -4.9996,-1.7818 -7.4526,-2.7338 -3.8104,-1.4965 -7.5127,-3.0271 -11.0096,-4.586 -15.4382,-6.8945 -27.0607,-12.9038 -27.0607,-12.9038 z"
     id="path1366"
     style="stroke:none;stroke-width:0.187367" /><path
     d="m 4571.3645,4151.8975 c -1.8275,-0.6238 -2.8101,-2.6157 -2.1903,-4.4458 0.6308,-1.8297 2.6234,-2.8078 4.4506,-2.1942 0,0 16.2524,3.4649 36.91,8.8581 4.7006,1.23 9.5938,2.6177 14.5677,4.1091 3.1936,0.96 6.4206,1.9312 9.5981,3.0626 8.1387,2.8952 16.1135,6.1491 23.4761,9.2119 19.6972,8.203 34.7098,15.3179 34.7098,15.3179 1.8275,0.6238 2.8101,2.6157 2.1903,4.4458 -0.6197,1.8301 -2.612,2.8183 -4.4395,2.1945 0,0 -16.2431,-3.5151 -36.8605,-9.0182 -7.7136,-2.0631 -16.0185,-4.347 -24.2264,-7.0119 -3.2074,-1.0414 -6.3542,-2.2425 -9.4783,-3.4227 -4.8541,-1.8515 -9.577,-3.7291 -14.047,-5.6189 -19.6683,-8.3234 -34.6606,-15.4882 -34.6606,-15.4882 z"
     id="path1368"
     style="stroke:none;stroke-width:0.21112" /><path
     d="m 4388.3032,4315.5755 c -1.87,0.5 -3.79,-0.62 -4.29,-2.48 -0.5,-1.87 0.62,-3.8 2.49,-4.29 0,0 14.96,-6.01 34.5399,-12.83 4.45,-1.55 9.14,-3.06 13.97,-4.54 3.09,-0.95 6.22,-1.9 9.3999,-2.7 8.12,-2.04 16.31,-3.7 23.92,-5.17 20.3399,-3.94 36.2999,-6.22 36.2999,-6.22 1.87,-0.5 3.79,0.61 4.29,2.48 0.5,1.87 -0.62,3.79 -2.49,4.29 0,0 -14.98,5.95 -34.5799,12.65 -7.33,2.51 -15.26,5.15 -23.33,7.42 -3.15,0.89 -6.34,1.61 -9.4999,2.33 -4.92,1.12 -9.74,2.13 -14.38,3.01 -20.37,3.82 -36.3399,6.05 -36.3399,6.05 z"
     id="path1370"
     style="stroke:none;stroke-width:0.2" /><path
     d="m 4405.5754,4347.0475 c -1.87,0.5 -3.79,-0.62 -4.29,-2.48 -0.5,-1.87 0.62,-3.8 2.49,-4.29 0,0 14.96,-6.01 34.5399,-12.83 4.45,-1.55 9.14,-3.06 13.97,-4.54 3.09,-0.95 6.22,-1.9 9.3999,-2.7 8.12,-2.04 16.31,-3.7 23.92,-5.17 20.3399,-3.94 36.2999,-6.22 36.2999,-6.22 1.87,-0.5 3.79,0.61 4.29,2.48 0.5,1.87 -0.62,3.79 -2.49,4.29 0,0 -14.98,5.95 -34.5799,12.65 -7.33,2.51 -15.26,5.15 -23.33,7.42 -3.15,0.89 -6.34,1.61 -9.4999,2.33 -4.92,1.12 -9.74,2.13 -14.38,3.01 -20.37,3.82 -36.3399,6.05 -36.3399,6.05 z"
     id="path1372"
     style="stroke:none;stroke-width:0.2" /><path
     d="m 4422.8475,4378.5082 c -1.87,0.5 -3.79,-0.62 -4.29,-2.48 -0.5,-1.87 0.62,-3.8 2.49,-4.29 0,0 14.96,-6.01 34.5399,-12.83 4.45,-1.55 9.14,-3.06 13.97,-4.54 3.09,-0.95 6.22,-1.9 9.3999,-2.7 8.12,-2.04 16.31,-3.7 23.92,-5.17 20.3399,-3.94 36.2999,-6.22 36.2999,-6.22 1.87,-0.5 3.79,0.61 4.29,2.48 0.5,1.87 -0.62,3.79 -2.49,4.29 0,0 -14.98,5.95 -34.5799,12.65 -7.33,2.51 -15.26,5.15 -23.33,7.42 -3.15,0.89 -6.34,1.61 -9.4999,2.33 -4.92,1.12 -9.74,2.13 -14.38,3.01 -20.37,3.82 -36.3399,6.05 -36.3399,6.05 z"
     id="path1374"
     style="stroke:none;stroke-width:0.2" /><path
     d="m 4375.0632,4279.1655 c 3.05,-0.86 7.3,-2.46 11.4,-3.45 7.6,-1.83 17.0299,-4.29 27.5599,-7.09 12.72,-3.37 26.99,-7.24 41.5199,-11.19 50.5199,-13.75 103.8198,-28.78 103.8198,-28.78 1.85,-0.59 3.8199,0.42 4.4099,2.27 0.59,1.84 -0.42,3.81 -2.2599,4.41 0,0 -52.1899,18.87 -102.0298,35.24 -14.39,4.73 -28.5799,9.21 -41.2599,12.98 -10.65,3.16 -20.2399,5.81 -27.9799,7.7 -9.36,2.29 -16.26,3.44 -19.47,3.44 -6.7,0 -8.97,-4.27 -9.5099,-6.45 -3.9,-16.33 -8.29,-30.94 -12.73,-44.02 -5.63,-16.56 -11.41,-30.6299 -17.07,-42.4299 -17.2399,-35.94 -32.7199,-50.61 -32.7199,-50.61 -1.46,-1.26 -1.63,-3.48 -0.36,-4.94 1.26,-1.47 3.48,-1.63 4.94,-0.36 0,0 22.3099,17.49 45.6699,64.61 9.03,18.2099 17.9899,40.9299 26.0699,68.6699 z m 1.4,4.92 c 0.02,0.08 0.04,0.15 0.07,0.23 -0.03,-0.08 -0.05,-0.16 -0.07,-0.23 z m -3.15,-4.48 c -1.19,-1.13 -2.67,-2.25 -2.65,-0.71 0.01,0.92 1.02,1.03 2.65,0.71 z"
     id="path1376"
     style="stroke:none;stroke-width:0.2" /><path
     d="m 4378.1932,4195.1556 c 0.44,1.34 1.05,3.07 1.77,5.12 2.69,7.66 6.94,19.0999 11.22,30.8999 8.25,22.77 16.7099,46.7 16.7099,46.7 0.76,1.78 -0.06,3.84 -1.84,4.6 -1.77,0.77 -3.84,-0.06 -4.5999,-1.84 0,0 -16.76,-33.15 -28.18,-57.94 -5.98,-12.9699 -10.34,-23.7899 -11.07,-26.5699 -1.1799,-4.73 0.58,-9.24 5.19,-12.83 3.11,-2.42 8.1,-4.46 13.01,-5.79 6.2,-1.68 12.13,-2.35 12.13,-2.35 3.39,-0.45 6.69,1.35 8.15,4.44 0,0 7.3699,16.62 15.3599,35.6599 10.49,24.97 22.07,53.94 22.07,53.94 0.83,1.75 0.07,3.84 -1.68,4.67 -1.74,0.82 -3.84,0.07 -4.66,-1.68 0,0 -14.99,-27.37 -27.58,-51.34 -6.1999,-11.8099 -11.7899,-22.7699 -14.9699,-29.0599 -1.41,0.32 -2.99,0.69 -4.6,1.14 -2.26,0.63 -4.64,1.29 -6.43,2.23 z m -0.75,-2.54 c 0,-0.01 0,-0.01 -0.01,-0.01 0.01,0 0.01,0 0.01,0.01 z"
     id="path1378"
     style="stroke:none;stroke-width:0.2" /><path
     d="m 4425.7531,4166.3256 c 3.28,8.32 10.77,26.77 17.9899,45.3 9.79,25.1299 19.11,50.3299 19.11,50.3299 0.78,1.77 -0.03,3.84 -1.8,4.62 -1.77,0.78 -3.84,-0.03 -4.62,-1.8 0,0 -15.7099,-30.79 -28.7899,-57.8499 -9.41,-19.47 -17.36,-37.01 -18.34,-39.45 -1.7,-4.44 -0.16,-10.06 6.57,-13.82 7.4,-4.12 23.93,-6.85 23.93,-6.85 3.5299,-0.57 6.9899,1.3 8.4499,4.56 0,0 8.05,19.05 16.81,40.83 11.49,28.5699 24.2099,61.6999 24.2099,61.6999 0.79,1.77 -0.01,3.84 -1.77,4.63 -1.77,0.79 -3.84,0 -4.63,-1.77 0,0 -16.1899,-31.59 -29.7999,-59.1999 -6.88,-13.97 -13.0699,-26.9 -16.4599,-34.03 -2.37,0.54 -5.17,1.24 -7.82,2.06 -0.87,0.27 -2.01,0.5 -3.04,0.74 z m -1.25,0.31 c -1.11,0.31 -1.81,0.66 -1.35,1.12 0.79,0.78 1.2,0.07 1.35,-1.12 z m -0.37,-4.51 c -0.01,-0.03 -0.02,-0.07 -0.03,-0.1 0.01,0.03 0.02,0.06 0.03,0.1 z"
     id="path1380"
     style="stroke:none;stroke-width:0.2" /><path
     d="m 4472.473,4135.6856 41.4999,110.6199 c 0.76,1.78 -0.07,3.84 -1.84,4.6 -1.78,0.77 -3.84,-0.06 -4.61,-1.83 0,0 -21.8,-44.6499 -36.7899,-77.6499 -8.32,-18.33 -14.33,-33.31 -14.78,-35.54 -0.73,-3.94 0.95,-8.53 5.95,-12.05 6.84,-4.83 22.4499,-8.42 22.4499,-8.42 3.62,-0.81 7.31,1.01 8.89,4.37 0,0 9.76,21.78 20.44,46.68 13.9899,32.64 29.5699,70.5199 29.5699,70.5199 0.82,1.75 0.07,3.84 -1.68,4.66 -1.76,0.82 -3.84,0.07 -4.67,-1.69 0,0 -19.1099,-36.2199 -35.2299,-67.8699 -8.36,-16.4 -15.87,-31.56 -19.8299,-39.59 -1.98,0.6 -4.22,1.34 -6.34,2.19 -0.84,0.34 -2.03,0.67 -3.03,1 z m -0.82,0.29 c -0.87,0.34 -1.38,0.69 -0.93,1.06 0.6,0.48 0.85,-0.15 0.93,-1.06 z"
     id="path1382"
     style="stroke:none;stroke-width:0.2" /><path
     d="m 4373.2032,4287.1555 c -0.23,1.92 -1.97,3.29 -3.9,3.06 -1.92,-0.23 -3.29,-1.97 -3.06,-3.89 0,0 1.99,-32.76 4.23,-61.16 1.7,-21.6399 3.58,-40.6699 3.58,-40.6699 0.29,-2.39 1.66,-4.51 3.72,-5.76 0,0 11.42,-7.21 23.05,-14.1 11.6299,-6.89 23.4499,-13.44 23.4499,-13.44 l -0.27,0.17 47.2999,-28.78 19.3599,-23.34 c 1.16,-1.55 3.36,-1.86 4.91,-0.7 1.55,1.16 1.86,3.35 0.7,4.9 l -17.5699,26.05 c -0.35,0.46 -0.77,0.86 -1.25,1.18 l -45.3299,32.89 c -0.09,0.06 -0.18,0.12 -0.27,0.18 0,0 -11.3,7.41 -22.81,14.5 -7.8499,4.84 -15.7999,9.52 -20.0499,12.01 -0.95,6.63 -3.03,20.89 -5.52,36.4599 -4.51,28.13 -10.27,60.44 -10.27,60.44 z"
     id="path1384"
     style="stroke:none;stroke-width:0.2" /><path
     d="m 4490.0529,4109.6856 c -1.12,0.02 -2.35,-0.05 -3.66,-0.13 -1.28,-0.09 -2.48,-0.2 -3.75,-0.38 -4.9099,-0.69 -8.8299,-1.59 -8.8299,-1.59 -1.92,0.26 -3.69,-1.08 -3.95,-3 -0.27,-1.91 1.08,-3.68 2.99,-3.95 0,0 3.54,-1.92 8.08,-3.91 1.18,-0.51 2.3099,-0.95 3.5099,-1.37 1.41,-0.5 2.72,-0.94 3.93,-1.23 2.33,-0.54 4.02,-0.64 4.02,-0.64 3.27,-0.45 6.48,1.18 8.06,4.09 0,0 1.23,3.09 2.24,6.85 1.39,5.18 2.28,10.85 2.28,10.85 0.92,1.7 0.29,3.83 -1.41,4.75 -1.71,0.92 -3.83,0.28 -4.75,-1.42 0,0 -4.25,-3.85 -7.83,-7.86 -0.32,-0.36 -0.63,-0.71 -0.93,-1.06 z"
     id="path1386"
     style="stroke:none;stroke-width:0.2" /><path
     d="m 4247.5935,4343.8955 c 5.76,38.9 19.43,76.2 37.0699,110.6 12.22,23.7999 26.42,46.1999 41.3299,66.8999 12.83,17.8 26.19,34.4 39.3799,49.3 24.87,28.2 49.1099,50.7 67.9999,65.4 10.5199,8.2 19.2199,13.9 25.3099,16.7 1.3,0.6 2.33,1.2 3.15,1.4 1.27,-1.2 4.01,-4 6.35,-6.9 7.93,-9.6 19.6299,-25.6 31.9699,-43 27.1599,-38.3 57.3399,-83.4 57.3399,-83.4 1.04,-1.6 3.21,-2.1 4.84,-1 1.6299,1 2.0999,3.2 1.0599,4.8 0,0 -45.0998,73.4 -73.2598,113.9 -8.3099,11.9 -15.2699,21.1 -19.2199,25 -2.63,2.5 -5.02,3.4 -6.31,3.6 -2.42,0.4 -6.29,-0.2 -11.24,-2.2 -6.82,-2.9 -16.6999,-8.9 -28.5299,-17.6 -19.8,-14.7 -45.3999,-37.3 -71.2898,-66.2 -13.67,-15.2 -27.41,-32.2 -40.4199,-50.6 -15.16,-21.5 -29.31,-44.9 -41.3199,-69.7 -17.54,-36.2999 -30.43,-75.5999 -35.1699,-116.2999 -0.13,-1.2 -0.01,-2.9 0.93,-5 1.6,-3.57 6.2299,-9.92 12.6499,-17.53 21.18,-25.06 61.8499,-65.51 61.8499,-65.51 1.34,-1.38 3.56,-1.42 4.95,-0.07 1.39,1.35 1.42,3.57 0.08,4.96 0,0 -24.6,26.29 -44.8199,49.93 -9.13,10.67 -17.36,20.78 -21.91,27.62 -1.26,1.9 -2.39,4.1 -2.77,4.9 z"
     id="path1388"
     style="stroke:none;stroke-width:0.2" /><path
     d="m 4332.0333,4452.7955 c 3.59,-2.1 8.11,-6.5 12.6,-11.2 9.7,-10.3 19.0799,-22.4 19.0799,-22.4 1.07,-1.7 3.24,-2.1 4.86,-1 1.61,1 2.06,3.2 1,4.8 0,0 -14.7399,26.1 -26.0099,37.4999 -3.89,4 -7.87,6.1 -10.74,6.7 -2.63,0.5 -4.91,-0.1 -6.94,-1.3 -1.52,-0.8 -4.01,-3.4 -6.6499,-7.7999 -3.32,-5.5 -7.88,-14.4 -12.24,-25 -3.8,-9.3 -7.44,-19.8 -10.76,-29.9 -7.8,-23.8 -13.51,-45.6 -13.51,-45.6 -0.66,-1.8 0.29,-3.8 2.1,-4.4 1.82,-0.7 3.83,0.2 4.49,2.1 0,0 6.2,13.4 14.07,30.7 2.96,6.5 6.14,13.4 9.28,20.4 2.71,6.1 5.44,12.2 7.92,17.9 2.8199,6.6 5.3599,12.7 7.6099,17.9 1.6,3.6 2.71,8.2 3.84,10.6 z m 0.42,0.8 c 0.49,0.7 0.99,1 1.54,0.6 0.24,-0.1 -0.47,-0.2 -0.61,-0.3 -0.22,-0.1 -0.56,-0.2 -0.93,-0.3 z"
     id="path1390"
     style="stroke:none;stroke-width:0.2" /><path
     d="m 4333.1333,4459.8954 c -0.01,2 -1.59,3.5 -3.53,3.5 -1.93,0 -3.49,-1.6 -3.48,-3.5 0,0 -1.3,-11.4999 -2.45,-25.2999 -0.45,-5.5 -0.89,-11.2 -1.16,-16.8 -0.3,-6.2 -0.49,-12.1 -0.46,-16.9 0.03,-6.7 0.4,-11.2 0.4,-11.2 0.02,-2.4 1.14,-4.6 3.03,-6.1 1.88,-1.4 4.33,-1.9 6.63,-1.3 0,0 15.55,5.4 15.55,5.4 l 11.8,-19.4 c 0.84,-1.8 2.9399,-2.5 4.6799,-1.7 1.74,0.9 2.47,3 1.63,4.7 l -9.7999,26.6 c -1.31,2.7 -4.34,4.1 -7.23,3.3 0,0 -10.69,-2.1 -10.69,-2.1 0,0.6 0,1.3 -0.01,1.9 -0.05,4.8 -0.31,10.7 -0.7,16.9 -0.35,5.6 -0.87,11.3 -1.4,16.8 -1.34,13.8 -2.81,25.1999 -2.81,25.1999 z"
     id="path1392"
     style="stroke:none;stroke-width:0.2" /><path
     d="m 4355.2233,4505.7954 c -1.41,1.3 -3.63,1.3 -4.95,-0.1 -1.33,-1.5 -1.26,-3.7 0.15,-5 0,0 6.03,-8.3 14.6699,-18.6 1.95,-2.3 4.06,-4.7 6.28,-7 1.43,-1.5 2.87,-3 4.42,-4.4 4,-3.6 8.22,-6.9 12.18,-9.9 10.69,-8.0999 19.3499,-13.5999 19.3499,-13.5999 1.41,-1.3 3.63,-1.3 4.95,0.1 1.33,1.4 1.26,3.7 -0.15,5 0,0 -6.08,8.2999 -14.7899,18.4999 -3.23,3.7 -6.75,7.8 -10.58,11.5 -1.49,1.5 -3.1,2.8 -4.68,4.2 -2.49,2 -4.95,4 -7.38,5.8 -10.77,8 -19.4699,13.5 -19.4699,13.5 z"
     id="path1394"
     style="stroke:none;stroke-width:0.2" /><path
     d="m 4380.5032,4539.4954 c -1.35,1.4 -3.57,1.4 -4.96,0.1 -1.38,-1.4 -1.41,-3.6 -0.06,-5 0,0 5.79,-8.7 14.13,-19.5 1.89,-2.4 3.93,-4.9 6.09,-7.4 1.38,-1.5 2.78,-3.1 4.3,-4.6 3.8899,-3.9 8.0299,-7.4 11.9199,-10.6 10.48,-8.7 19.02,-14.7 19.02,-14.7 1.35,-1.4 3.57,-1.4 4.95,-0.1 1.39,1.4 1.41,3.6 0.06,5 0,0 -5.84,8.7 -14.25,19.4 -3.13,3.9 -6.53,8.2 -10.26,12.1 -1.45,1.6 -3.02,3 -4.57,4.4 -2.43,2.3 -4.84,4.4 -7.2299,6.3 -10.57,8.6 -19.14,14.6 -19.14,14.6 z"
     id="path1396"
     style="stroke:none;stroke-width:0.2" /><path
     d="m 4412.2631,4577.1954 c -1.34,1.4 -3.56,1.5 -4.96,0.1 -1.4,-1.3 -1.45,-3.5 -0.11,-4.9 0,0 6.38,-9.5 15.46,-21.2 2.05,-2.7 4.28,-5.4 6.62,-8.1 1.5,-1.8 3.02,-3.5 4.66,-5.2 4.2,-4.2 8.6499,-8.1 12.8299,-11.7 11.23,-9.7 20.4,-16.5 20.4,-16.5 1.33,-1.4 3.55,-1.5 4.95,-0.2 1.4,1.4 1.45,3.6 0.12,5 0,0 -6.44,9.5 -15.59,21.1 -3.41,4.4 -7.12,9 -11.15,13.4 -1.58,1.7 -3.27,3.3 -4.9399,4.9 -2.61,2.4 -5.21,4.8 -7.77,6.9 -11.33,9.6 -20.52,16.4 -20.52,16.4 z"
     id="path1398"
     style="stroke:none;stroke-width:0.2" /><path
     d="m 4486.1529,4664.2954 c -1.93,0 -3.5,-1.5 -3.5,-3.5 0,-1.9 1.57,-3.5 3.5,-3.5 0,0 30.73,-1.9 70.0099,-3.5 8.9799,-0.3 18.3999,-0.6 27.9999,-0.8 6.18,-0.1 12.43,-0.2 18.67,-0.2 15.9699,0.2 31.9099,0.7 46.6698,1.2 39.2799,1.4 70.0099,3.3 70.0099,3.3 1.94,0 3.51,1.6 3.51,3.5 0,2 -1.57,3.5 -3.51,3.5 0,0 -30.73,1.9 -70.0099,3.4 -14.7599,0.5 -30.6999,1 -46.6698,1.1 -6.24,0.1 -12.49,0 -18.67,-0.2 -9.6,-0.1 -19.02,-0.4 -27.9999,-0.8 -39.2799,-1.5 -70.0099,-3.5 -70.0099,-3.5 z m -265.3093,0 c -1.93,0 -3.5,-1.5 -3.5,-3.5 0,-1.9 1.57,-3.5 3.5,-3.5 0,0 27.1999,-1.9 62.0198,-3.5 7.95,-0.3 16.29,-0.6 24.8,-0.8 5.47,-0.1 11,-0.2 16.5399,-0.2 14.14,0.2 28.26,0.7 41.3399,1.2 34.8,1.4 62.0099,3.3 62.0099,3.3 1.93,0 3.5,1.6 3.5,3.5 0,2 -1.57,3.5 -3.5,3.5 0,0 -27.2099,1.9 -62.0099,3.4 -13.0799,0.5 -27.1999,1 -41.3399,1.1 -5.5399,0.1 -11.0699,0 -16.5399,-0.2 -8.51,-0.1 -16.85,-0.4 -24.8,-0.8 -34.8199,-1.5 -62.0198,-3.5 -62.0198,-3.5 z"
     id="path1400"
     style="stroke:none;stroke-width:0.2" /></g>&#10;</svg>
