<?xml version="1.0" encoding="UTF-8" standalone="no"?>
<svg
   width="2489.9636"
   height="2886.5537"
   viewBox="0 0 2489.9636 2886.5537"
   version="1.1"
   xml:space="preserve"
   style="clip-rule:evenodd;fill-rule:evenodd;stroke-linejoin:round;stroke-miterlimit:2"
   id="svg5353"
   xmlns="http://www.w3.org/2000/svg"
   xmlns:svg="http://www.w3.org/2000/svg"><defs
   id="defs5353" />&#10;    <g
   id="vectorly-UNI-bell"
   style="stroke:none;stroke-width:0.2"
   transform="matrix(4.9999999,0,0,4.9999999,-688.33925,-16246.261)"><path
     d="m 220.07962,3580.6746 c 0.474,-1.87 2.381,-3.01 4.25699,-2.54 1.875,0.48 3.013,2.38 2.54,4.26 0,0 -1.19,9.94 -1.149,26.11 0.013,5.21 0.204,11.01 0.472,17.39 0.191,4.54 0.511,9.34 0.775,14.39 0.242,4.61 0.437,9.41 0.74199,14.38 0.469,7.66 1.051,15.67 2.166,24.02 1.042,7.8 2.26799,15.77 4.21399,23.99 0.622,1.83 -0.36,3.82 -2.192,4.45 -1.83199,0.62 -3.82399,-0.36 -4.44598,-2.2 -5.45499,-12.32 -9.62398,-24.34 -12.36197,-36.06 -2.045,-8.76 -3.364,-17.24 -3.94399,-25.25 -0.253,-3.51 -0.26,-6.93 -0.201,-10.23 0.098,-5.43 0.41999,-10.54 0.96799,-15.3 2.663,-23.12 8.15998,-37.41 8.15998,-37.41 z"
     id="path452"
     style="stroke:none;stroke-width:0.2" /><path
     d="m 188.4497,3641.8046 c 0.476,-1.87 2.385,-3.01 4.25999,-2.53 1.875,0.47 3.00999,2.38 2.53399,4.26 0,0 0.779,4.71 2.055,13.31 0.384,2.59 0.976,5.46 1.148,8.71 0.146,2.77 -0.143,5.68 -0.249,8.86 -0.146,4.4 -0.679,8.77 -0.531,13.89 0.498,1.86 -0.615,3.79 -2.48399,4.28 -1.869,0.5 -3.791,-0.61 -4.28899,-2.48 -2.623,-4.89 -4.70599,-9.2 -6.21499,-13.72 -1.145,-3.44 -1.88399,-6.71 -2.19199,-9.83 -0.137,-1.39 -0.077,-2.75 0.011,-4.04 0.15,-2.19 0.404,-4.18 0.79299,-6.04 0.476,-2.29 0.984,-4.19 1.581,-5.95 1.986,-5.87 3.57799,-8.72 3.57799,-8.72 z"
     id="path454"
     style="stroke:none;stroke-width:0.2" /><path
     d="m 455.16204,3428.0547 c -1.91199,0.3 -3.70299,-1.02 -3.99799,-2.93 -0.294,-1.91 1.02,-3.7 2.93199,-3.99 0,0 6.50099,-1.93 18.85396,0.45 3.48299,0.67 7.34798,1.77 11.69697,3.44 3.41099,1.3 7.02898,3.02 10.87397,5.2 2.18999,1.25 4.45999,2.63 6.69498,4.31 4.70899,3.53 9.51898,7.96 14.39497,13.34 5.76998,6.37 11.36597,14.03 17.34495,23.13 1.245,1.48 1.054,3.69 -0.42699,4.94 -1.48,1.24 -3.69299,1.05 -4.93799,-0.43 -5.16699,-4.79 -10.10598,-8.78 -14.77797,-12.57 -5.42898,-4.4 -10.50497,-8.03 -15.16796,-11.37 -2.85999,-2.05 -5.56198,-3.92 -8.07098,-5.71 -4.50099,-3.23 -8.43798,-6.03 -12.09497,-8.26 -14.65896,-8.96 -23.31694,-9.55 -23.31694,-9.55 z"
     id="path456"
     style="stroke:none;stroke-width:0.2" /><path
     d="m 529.78086,3402.8247 c -1.75,-0.82 -2.503,-2.91 -1.679,-4.66 0.824,-1.75 2.91399,-2.5 4.66399,-1.68 0,0 3.20999,0.54 8.32298,2.54 1.66899,0.65 3.28899,1.52 5.14598,2.62 1.594,0.95 3.096,2.14 4.63899,3.52 0.948,0.85 1.868,1.79 2.662,2.87 1.41099,1.93 2.59999,4.1 3.49999,6.52 0.602,1.62 1.14499,3.2 1.45999,4.99 0.668,3.8 1.034,7.46 0.569,11.79 0.31,1.91 -0.98899,3.71 -2.89899,4.02 -1.909,0.31 -3.71099,-0.99 -4.02099,-2.9 -1.193,-2.57 -2.71599,-4.43 -4.18999,-6.52 -1.185,-1.69 -2.55199,-2.95 -3.76199,-4.43 -1.234,-1.51 -2.58799,-2.77 -3.68599,-4.18 -1.537,-1.98 -2.66499,-3.96 -3.93199,-5.66 -4.04799,-5.44 -6.79398,-8.84 -6.79398,-8.84 z"
     id="path458"
     style="stroke:none;stroke-width:0.2" /><path
     d="m 294.20414,3794.69 c -16.12192,-23.8073 -12.76569,-57.8573 6.3368,-93.6767 18.94118,-35.4967 53.38474,-72.7551 98.6145,-103.2577 45.59053,-30.4947 93.42332,-48.3215 133.64613,-52.3742 42.08544,-4.2486 75.99758,6.774 92.53138,31.7495 16.32773,25.0947 12.94762,60.5697 -7.67913,97.4789 -19.71871,35.2875 -55.03814,72.0788 -101.12481,101.7913 -45.92611,29.4156 -93.76434,46.2329 -133.83119,49.5487 -40.45137,3.353 -73.02491,-7.0394 -88.49368,-31.2598 z m 5.86179,-3.8513 c 14.69154,21.7384 44.89906,29.6663 81.73293,25.7056 38.50892,-4.1445 84.18219,-21.4425 127.73572,-50.7889 43.4054,-29.0577 76.47819,-64.6138 94.82565,-98.4703 16.83569,-31.0699 21.43873,-60.516 7.60984,-81.3745 -13.6725,-20.9452 -42.52539,-28.3538 -77.70704,-25.207 -38.33883,3.4292 -84.05685,19.6578 -127.9332,47.9716 -44.22348,28.2997 -78.21391,63.3251 -97.32353,96.9958 -18.27479,32.2081 -23.02904,63.0478 -8.94037,85.1677 z"
     id="path460"
     style="stroke:none;stroke-width:0.257846" /><path
     d="m 584.95272,3581.3746 c 0.088,-1.93 1.72799,-3.43 3.66099,-3.34 1.93199,0.09 3.42999,1.73 3.34199,3.66 -0.598,38.64 -20.75395,75.5 -51.06787,106.18 -11.05397,11.18 -23.51094,21.48 -36.80091,30.73 -8.73198,6.08 -17.83296,11.71 -27.19593,16.7399 -14.88097,8 -30.36893,14.6 -45.78489,19.73 -16.53296,5.49 -33.00892,9.27 -48.70388,11.11 -40.3849,4.73 -75.53081,-3.14 -94.15477,-26.62 -1.24599,-1.48 -1.05599,-3.7 0.423,-4.94 1.48,-1.25 3.69299,-1.06 4.93899,0.42 18.15396,20.32 50.54588,24.71 86.98579,18.53 14.74396,-2.5 30.12192,-6.8 45.58588,-12.53 14.49097,-5.36 28.98793,-12.0699 43.0999,-19.7599 8.87197,-4.83 17.60895,-10.01 26.03793,-15.59 12.78997,-8.47 24.87694,-17.81 35.83491,-27.91 29.72693,-27.38 51.07088,-60.29 53.79887,-96.41 z"
     id="path462"
     style="stroke:none;stroke-width:0.2" /><path
     d="m 375.40732,3724.578 c -1.79221,-0.7291 -2.65682,-2.771 -1.92601,-4.5675 0.72641,-1.7858 2.77529,-2.6551 4.56749,-1.9261 8.21664,2.7497 16.70252,1.7491 23.91127,-1.8018 6.82364,-3.3669 12.25343,-9.3568 14.92831,-17.1107 2.69533,-7.3546 1.89409,-15.0467 -1.05252,-21.6944 -2.88766,-6.5227 -8.06788,-12.0609 -15.18915,-14.9451 -7.13675,-3.2059 -14.8688,-3.2988 -21.66913,-0.7674 -7.09826,2.6498 -13.33541,7.7563 -16.78496,15.1572 -2.11535,4.4497 -3.16884,9.117 -3.08404,13.7302 0.085,4.9412 1.2089,9.7752 3.45074,14.1306 0.9894,1.6638 0.44528,3.8138 -1.21701,4.8026 -1.66121,0.9892 -3.81355,0.4416 -4.80735,-1.2114 -3.45163,-5.062 -5.59583,-10.9039 -6.43555,-17.0224 -0.83244,-6.0652 -0.13824,-12.367 1.97202,-18.5468 3.8205,-10.9205 11.87638,-19.0965 21.57538,-23.6777 9.96555,-4.7124 21.75504,-5.2142 32.90802,-1.1187 11.10921,4.5317 19.50569,13.081 23.64034,23.4157 4.09086,10.216 4.16277,22.0514 -0.69102,32.8796 -4.91984,10.4354 -13.33968,18.148 -23.43203,21.7241 -9.70097,3.4326 -20.67465,3.3707 -30.6648,-1.45 z"
     id="path464"
     style="stroke:none;stroke-width:0.233674" /><path
     d="m 322.58937,3676.2446 c 19.69095,-25.79 47.03888,-51.26 80.1548,-73.02 33.91992,-22.29 69.01083,-37.47 101.12075,-45.14 -4.88299,45.13 -40.9369,86.66 -85.93879,107.85 -3.67099,-4.57 -8.51998,-8.29 -14.32796,-10.65 -18.23096,-7.42 -39.0529,1.36 -46.46889,19.59 -0.77599,1.91 -1.37499,3.84 -1.80399,5.79 -11.04097,0.02 -22.03995,-1.39 -32.73592,-4.42 z"
     id="path466"
     style="stroke:none;stroke-width:0.2" /><path
     d="m 587.98971,3535.8646 c 1.575,1.13 1.94,3.32 0.815,4.89 -1.124,1.58 -3.31499,1.94 -4.88899,0.82 -16.08196,-10.86 -43.95589,-16.66 -77.75681,-14.11 -18.37095,1.39 -38.4459,5.35 -59.42185,12.34 -17.97595,5.98 -36.61291,14.16 -55.28886,25.12 -13.94097,7.96 -26.34694,16.78 -37.45491,25.9 -12.50797,10.27 -23.32394,20.99 -32.43492,31.81 -24.77094,29.43 -37.21991,59.26 -37.9999,79.8 -0.591,13.88 0.66499,27.7 2.54099,39.7999 3.49899,22.57 9.10498,39.18 9.10498,39.18 0.67,1.81 -0.26,3.83 -2.075,4.5 -1.81399,0.67 -3.83199,-0.26 -4.50099,-2.08 0,0 -6.72298,-16.84 -11.50197,-39.98 -2.60199,-12.5899 -4.57799,-27.0299 -4.66199,-41.6299 -0.026,-22.45 11.59797,-55.94 37.64591,-88.92 9.34098,-11.83 20.53995,-23.61 33.74792,-34.69 11.68097,-9.8 24.98693,-18.97 39.7939,-27.38 35.03891,-19.21 69.61283,-29.78 100.62875,-33.57 45.99988,-5.61 83.96179,3.31 103.70874,18.2 z"
     id="path468"
     style="stroke:none;stroke-width:0.2" /><path
     d="m 491.65895,3502.6846 c 1.863,0.52 2.95299,2.45 2.43099,4.31 -0.52099,1.87 -2.45599,2.96 -4.31899,2.44 -27.76793,-6.95 -52.62586,-27.2399 -77.3388,-45.2099 -16.16196,-11.75 -32.20892,-22.44 -49.27788,-26.89 -16.56196,-4.32 -34.06492,-2.31 -53.72387,11.12 -8.43798,5.61 -15.47996,11.35 -21.39995,17.12 -17.95495,17.48 -24.85493,35.6799 -25.56693,54.5099 -0.847,22.42 6.45998,45.44 13.96996,68.31 8.03298,24.46 16.25796,48.68 16.24496,71.61 0.05,1.94 -1.47899,3.55 -3.41299,3.6 -1.93399,0.05 -3.54399,-1.48 -3.59399,-3.42 -1.378,-26.44 -14.48796,-53.96 -24.58594,-81.82 -7.06998,-19.5 -12.67497,-39.16 -12.62997,-58.56 0.052,-22.35 7.40498,-44.4899 28.40093,-65.5399 6.48599,-6.5 14.37497,-12.83 23.74494,-19.08 24.55994,-15.92 46.25089,-17.73 66.42684,-11.74 18.45295,5.48 35.64591,17.66 52.63187,31.33 22.97894,18.49 45.60389,39.7299 71.99882,47.9099 z"
     id="path470"
     style="stroke:none;stroke-width:0.2" /><path
     d="m 285.24746,3457.4647 c 1.267,1.47 1.108,3.68 -0.354,4.95 -1.46199,1.27 -3.67699,1.11 -4.94399,-0.36 -12.58296,-13.77 -40.0319,-45 -66.89483,-76.52 -27.49593,-32.25 -54.34586,-64.75 -65.10184,-78.06 -17.58195,-22.44 -10.21097,-42.66 4.09299,-52.25 14.45597,-9.7 37.32691,-8.87 51.07688,12.13 3.93399,6.1 19.13695,31.75 35.71091,60.35 24.49494,42.27 52.07087,90.88 52.07087,90.88 1,1.66 0.467,3.81 -1.189,4.81 -1.656,1 -3.81199,0.47 -4.81199,-1.19 l -94.07576,-146.59 c -8.33198,-12.1 -21.45795,-12.99 -29.86093,-7.23 -7.97598,5.46 -10.43997,16.78 -0.617,29.41 7.79598,10.29 24.63294,31.66 43.57689,55.92 14.26497,18.28 29.68993,38.18 43.6359,56.03 15.93796,20.4 29.82892,38.14 37.6849,47.72 z"
     id="path472"
     style="stroke:none;stroke-width:0.2" /><path
     d="m 406.17416,3482.2547 c 3.47599,5.9699 2.552,16.4299 -11.48097,7.6599 -4.79199,-2.9999 -41.8859,-22.2899 -48.15688,-30.1499 -7.49498,-9.4 -0.5,-11.4 7.65398,-11.15 18.48395,0.56 40.9419,14.7 51.98387,33.64 z"
     id="path474"
     style="stroke:none;stroke-width:0.2" /></g>&#10;</svg>
