<?xml version="1.0" encoding="UTF-8" standalone="no"?>
<svg
   width="3437.2256"
   height="2561.1228"
   viewBox="0 0 3437.2256 2561.1228"
   version="1.1"
   xml:space="preserve"
   style="clip-rule:evenodd;fill-rule:evenodd;stroke-linejoin:round;stroke-miterlimit:2"
   id="svg5353"
   xmlns="http://www.w3.org/2000/svg"
   xmlns:svg="http://www.w3.org/2000/svg"><defs
   id="defs5353" />&#10;    <g
   id="vectorly-UNI-dollar"
   transform="matrix(5.3016174,0,0,5.3016174,-248.65958,-64790.548)"
   style="stroke-width:0.188622"><path
     d="m 357.18528,12463.811 c -2.49599,-1.3 -6.17898,-3 -10.74397,-5.1 -32.84492,-15.2 -109.03573,-46.2 -136.34366,-57.3 -5.43699,50.8 -19.05195,92.1 -40.3869,124.3 -24.77394,37.5 -59.80585,62.9 -104.191743,77.2 15.334962,12 48.038883,37 80.952803,58.7 23.46594,15.5 47.00288,29.4 64.38184,35.6 1.83099,0.6 2.81199,2.6 2.18899,4.4 -0.624,1.8 -2.61699,2.8 -4.44799,2.2 -17.98495,-5.9 -42.54489,-19.3 -67.01383,-34.6 -46.353887,-28.9 -92.397773,-64 -92.397773,-64 -1.760995,-1.4 -2.599993,-3.6 -2.168994,-5.8 0.429998,-2.2 2.055994,-4 4.206989,-4.6 46.079886,-13.6 81.723798,-38.9 106.173738,-77.1 21.12795,-33 33.93891,-75.5 37.80091,-128.3 0.19699,-2.6 1.59799,-4.9 3.76999,-6.2 2.17099,-1.3 4.85198,-1.6 7.21298,-0.6 0,0 105.98173,44 146.27064,63.3 7.38798,3.5 12.67996,6.3 14.99396,7.9 4.49099,3.1 4.36199,7.1 4.09799,8.3 -13.84897,65.3 -34.04292,112.6 -54.44287,146.4 -29.43592,48.9 -59.17085,70 -70.44482,77 -1.624,1.1 -3.79599,0.6 -4.84699,-1 -1.051,-1.6 -0.585,-3.8 1.039,-4.8 10.65697,-7.2 38.5229,-28.4 65.61183,-76.2 18.56796,-32.8 36.75391,-78 48.72788,-139.7 z m 0.835,-4.3 c 0.002,-0.1 0.003,-0.1 0.005,-0.1 -0.002,0 -0.003,0 -0.005,0.1 z"
     id="path3410"
     style="stroke:none;stroke-width:0.188622" /><path
     d="m 248.75255,12610.711 c -1.93099,0.1 -3.59199,-1.4 -3.70799,-3.3 -0.115,-2 1.359,-3.6 3.28999,-3.7 8.50898,-1.1 19.19896,-11.7 25.38894,-22.9 5.00399,-9.1 7.38098,-19.2 -3.27499,-22.6 -2.84499,-1 -5.42399,-0.4 -7.93398,0.6 -3.37199,1.3 -6.56399,3.7 -9.91098,6.1 -8.36898,5.9 -17.25195,12.4 -27.36993,13.7 -8.00798,1 -16.93296,-0.7 -26.91593,-8.5 -10.03398,-8 -10.05798,-22.1 -3.036,-33.5 6.32799,-10.3 17.47596,-17.8 27.68094,-15.2 1.89699,0.4 3.12899,2.2 2.74899,4.1 -0.379,1.9 -2.227,3.2 -4.12399,2.8 -7.20498,-1 -13.74997,5.7 -17.33996,13.2 -3.10699,6.5 -4.10399,14.3 1.705,18 6.54498,4.4 12.02597,5.3 16.94096,4.4 4.30699,-0.8 8.06498,-3.2 11.76797,-5.8 4.60099,-3.1 8.99697,-6.7 13.45596,-9.5 8.74098,-5.6 17.71296,-8.4 27.55694,-4.5 16.79795,7 19.03695,20.9 12.35196,35.2 -3.43199,7.3 -9.21597,14.6 -15.83296,20.2 -7.83398,6.7 -16.59395,11.2 -23.44094,11.2 z"
     id="path3412"
     style="stroke:none;stroke-width:0.188622" /><path
     d="m 171.01775,12531.411 c -1.71,-0.9 -2.365,-3 -1.46,-4.7 0.904,-1.7 3.02699,-2.4 4.73699,-1.5 0,0 3.07099,-0.1 9.35597,1 1.116,0.3 2.219,0.5 3.458,1 0.71099,0.2 1.45499,0.5 2.14699,0.9 1.606,1 3.04899,2.3 4.59199,3.8 2.23199,2.1 3.81399,4.3 6.14098,7 1.707,0.9 2.353,3 1.443,4.7 -0.911,1.8 -3.03599,2.4 -4.74199,1.5 -3.51099,-0.5 -6.22298,-0.5 -9.26098,-1.2 -2.10099,-0.4 -3.97299,-0.9 -5.67898,-1.7 -0.734,-0.3 -1.361,-0.8 -1.963,-1.2 -1.04899,-0.8 -1.90899,-1.6 -2.70599,-2.4 -4.48999,-4.5 -6.06298,-7.2 -6.06298,-7.2 z m 105.12873,56.7 c -1.68899,-0.9 -2.29699,-3 -1.35499,-4.7 0.942,-1.7 3.07899,-2.3 4.76799,-1.4 3.47099,0.4 6.06598,0.5 9.12697,1.1 1.211,0.3 2.273,0.6 3.36199,1 0.733,0.3 1.45,0.6 2.075,1 1.795,1.2 3.12199,2.5 4.36499,3.9 2.89599,3.1 4.33399,5.4 5.69398,7.3 1.614,1.1 2.057,3.3 0.99,4.9 -1.067,1.6 -3.24299,2.1 -4.85699,1 -2.19999,-0.5 -4.82898,-0.5 -8.74797,-1.5 -1.724,-0.4 -3.573,-0.7 -5.40199,-1.7 -1.589,-0.9 -2.95999,-2.2 -4.37599,-3.7 -2.16899,-2.2 -3.48699,-4.4 -5.64299,-7.2 z"
     id="path3414"
     style="stroke:none;stroke-width:0.188622" /><path
     d="m 331.63335,12598.411 c 0.90799,-0.9 2.66099,-2.6 4.30299,-4.3 9.26997,-9.5 27.92893,-30.2 50.20187,-54.6 7.15598,-7.8 14.68597,-16 22.43995,-24.2 4.98898,-5.3 10.06497,-10.7 15.21196,-15.9 13.15497,-13.5 26.46993,-26.8 38.8669,-39 32.97792,-32.6 59.28785,-57.6 59.28785,-57.6 1.33,-1.4 3.551,-1.5 4.95499,-0.1 1.405,1.3 1.465,3.5 0.135,4.9 0,0 -23.58394,27.7 -54.53086,62.2 -11.63697,12.9 -24.31594,26.9 -37.21691,40.6 -5.04899,5.4 -10.17698,10.7 -15.28296,15.9 -7.93898,8.1 -15.82896,15.9 -23.39994,23.3 -19.52496,19.2 -36.85991,35.6 -47.91489,45.8 -7.86198,7.2 -13.04296,11.4 -14.07196,11.7 -3.39399,1.2 -6.39998,0.3 -8.70598,-2.7 -3.96399,-5.1 -5.33099,-18.9 -5.33099,-18.9 -0.224,-1.9 1.154,-3.7 3.076,-3.9 1.92099,-0.2 3.66299,1.2 3.88699,3.1 0,0 0.97099,5.8 2.84499,10.6 0.35,0.9 0.804,2.2 1.245,3.1 z m 0.224,0.4 c 0.29,0.5 0.56499,0.7 0.78999,0.3 0.037,-0.1 -0.102,-0.1 -0.163,-0.1 -0.20199,-0.1 -0.40999,-0.2 -0.62699,-0.2 z"
     id="path3416"
     style="stroke:none;stroke-width:0.188622" /><path
     d="m 414.28314,12236.111 c 0.488,-0.6 0.934,-1.2 1.141,-1.5 -0.237,0.4 -0.648,0.8 -1.224,1.5 -1.149,-0.2 -1.86499,-0.1 -1.81899,0.7 0.034,0.6 0.35,0.6 0.76899,0.4 -3.34599,3.4 -9.90597,9.4 -18.92895,17.2 -12.32797,10.7 -29.39193,25 -48.61188,40.7 -20.53395,16.9 -43.51989,35.4 -65.67484,53.1 -52.01887,41.5 -99.39275,78.4 -99.39275,78.4 -1.49599,1.2 -3.70699,1 -4.93299,-0.5 -1.22599,-1.5 -1.00599,-3.7 0.49,-5 0,0 54.00187,-46.5 109.60273,-94.3 25.79194,-22.2 51.92087,-44.6 73.07582,-62.8 23.98994,-20.6 41.5209,-35.5 43.60289,-38.5 1.564,-2.2 4.42699,-4.3 9.17698,-4.6 5.72898,-0.2 17.65095,3 32.44692,8.7 45.79888,17.9 123.09569,58.6 123.09569,58.6 2.381,1.3 3.60599,3.9 2.945,6.5 l -28.33993,102.1 c -0.479,1.9 -2.39,3 -4.26399,2.5 -1.874,-0.4 -3.007,-2.4 -2.528,-4.2 0,0 23.03895,-98.6 23.03895,-98.6 -10.77598,-5.2 -41.6469,-19.8 -72.77582,-33.4 -23.44795,-10.2 -47.02389,-19.9 -62.15085,-24.2 -3.00499,-0.9 -6.59298,-2.4 -8.74198,-2.8 z m 0,0 c -0.383,0.4 -0.792,0.8 -1.133,1.1 0.395,-0.4 0.746,-0.8 1.05,-1.1 0.028,0 0.055,0 0.083,0 z"
     id="path3418"
     style="stroke:none;stroke-width:0.188622" /><path
     d="m 411.91215,12401.911 c -10e-4,0 -0.002,0 -0.003,0 -0.059,-0.3 -0.122,-0.6 -0.191,-0.8 0.052,0.2 0.114,0.5 0.191,0.8 -2.038,-1 -6.00699,-2 -9.32698,-3.4 -5.63099,-2.4 -12.72897,-5.1 -20.67195,-8 -9.66397,-3.6 -20.56595,-7.6 -31.65992,-11.6 -38.6989,-14.1 -79.7668,-28.4 -79.7668,-28.4 -1.856,-0.6 -2.91999,-2.5 -2.374,-4.4 0.545,-1.8 2.495,-2.9 4.35099,-2.4 0,0 28.69193,6.9 60.96085,15.7 12.06497,3.4 24.59494,7 36.31691,10.6 8.64098,2.7 16.83196,5.4 24.04694,8 13.07697,4.7 23.09195,9.1 27.46893,12.1 3.414,2.3 4.88599,4.8 5.35499,6.4 0.393,1.3 0.81,4.5 0.852,9.2 0.061,6.7 -0.23,17.1 -0.898,29.1 -1.65099,29.6 -5.15299,68.7 -6.45398,83.7 -0.09,2 -1.732,3.5 -3.66499,3.4 -1.932,-0.1 -3.428,-1.8 -3.338,-3.7 0.099,-15 0.076,-54.1 -0.24999,-83.7 -0.173,-15.8 -0.19,-28.6 -0.944,-32.6 z"
     id="path3420"
     style="stroke:none;stroke-width:0.188622" /><path
     d="m 461.17203,12369.511 c 0.019,0 0.039,0 0.058,0 1.26199,-2.1 -6.21799,-3 -11.85098,-5.2 -5.85598,-2.3 -13.17496,-5 -21.30194,-8 -9.88998,-3.7 -20.97195,-7.9 -32.24792,-12.2 -10.92998,-4.1 -21.98695,-8.3 -32.30192,-12.2 -26.87094,-10.3 -48.48488,-18.5 -48.48488,-18.5 -1.842,-0.6 -2.858,-2.6 -2.267,-4.5 0.59,-1.8 2.565,-2.8 4.40699,-2.2 0,0 30.93793,8 64.93884,18.1 14.48997,4.3 29.52393,8.9 42.9099,13.6 15.18596,5.2 28.26392,10.4 36.3559,14.1 6.18999,2.9 9.93498,5.6 11.02098,7 1.16799,1.5 2.59399,4.5 3.27299,9 0.858,5.7 1.231,14.7 1.118,24.9 -0.326,29.6 -3.94499,70 -3.94499,70 -0.081,1.9 -1.717,3.4 -3.64899,3.3 -1.933,-0.1 -3.436,-1.7 -3.355,-3.6 0,0 -0.217,-31.9 -1.58699,-59.5 -0.608,-12.2 -1.437,-23.6 -2.695,-30.8 -0.188,-1 -0.25399,-2.4 -0.39599,-3.3 z m 0,0 c -0.133,0 -0.259,-0.5 -0.347,-0.6 -0.14,-0.1 -0.633,-0.4 -0.394,-0.6 0.415,-0.2 0.61,0.3 0.741,1.2 z"
     id="path3422"
     style="stroke:none;stroke-width:0.188622" /><path
     d="m 562.38877,12290.611 c 1.531,-1.2 3.734,-0.9 4.91699,0.6 1.182,1.5 0.9,3.7 -0.631,4.9 0,0 -11.43397,11.3 -26.80293,25.1 -3.49899,3.2 -7.22798,6.4 -11.09097,9.6 -2.479,2.1 -4.98899,4.2 -7.59998,6.1 -6.68199,5 -13.57897,9.7 -20.00795,14 -17.17996,11.5 -30.97593,19.7 -30.97593,19.7 -1.53099,1.2 -3.73399,0.9 -4.91598,-0.6 -1.183,-1.5 -0.9,-3.7 0.63099,-4.9 0,0 11.47598,-11.3 26.90994,-25 5.77598,-5.2 12.04397,-10.6 18.58395,-15.8 2.55499,-2.1 5.20999,-4 7.83498,-5.8 4.09099,-3 8.13498,-5.8 12.06397,-8.4 17.26196,-11.3 31.08392,-19.5 31.08392,-19.5 z"
     id="path3424"
     style="stroke:none;stroke-width:0.188622" /><path
     d="m 517.44689,12365.311 c 1.38999,-1.3 3.61099,-1.3 4.95598,0.1 1.345,1.4 1.308,3.6 -0.082,5 0,0 -21.82894,23.8 -50.39887,53.6 -6.53399,6.8 -13.46197,13.9 -20.57995,21 -4.57699,4.6 -9.20898,9.3 -13.95497,13.8 -12.12897,11.6 -24.52093,22.9 -36.03291,33.2 -30.62692,27.7 -55.14586,48.8 -55.14586,48.8 -1.391,1.3 -3.61099,1.3 -4.95699,-0.1 -1.34499,-1.4 -1.30799,-3.6 0.082,-5 0,0 21.87295,-23.8 50.52188,-53.5 10.76797,-11.1 22.44594,-23.1 34.41191,-34.9 4.68299,-4.6 9.47998,-9.1 14.22297,-13.5 7.37598,-6.9 14.66296,-13.6 21.68694,-19.9 30.71293,-27.5 55.26987,-48.6 55.26987,-48.6 z"
     id="path3426"
     style="stroke:none;stroke-width:0.188622" /><path
     d="m 450.99305,12373.411 c 1.538,-1.1 3.73899,-0.8 4.91199,0.7 1.172,1.6 0.875,3.8 -0.664,4.9 0,0 -2.98199,4.7 -7.92998,10.5 -1.079,1.2 -2.24899,2.4 -3.53899,3.7 -0.812,0.7 -1.637,1.5 -2.564,2.2 -2.40499,1.6 -4.96698,3 -7.40798,4.1 -6.80398,3.4 -12.06897,5.1 -12.06897,5.1 -1.53799,1.1 -3.73999,0.8 -4.91198,-0.7 -1.172,-1.5 -0.875,-3.7 0.66399,-4.9 0,0 3.032,-4.6 8.03698,-10.3 1.796,-2.1 3.73499,-4.2 5.99599,-6.1 0.872,-0.7 1.84099,-1.3 2.79699,-1.8 1.519,-1 2.99899,-1.8 4.50399,-2.5 6.90398,-3.2 12.17597,-4.9 12.17597,-4.9 z"
     id="path3428"
     style="stroke:none;stroke-width:0.188622" /><path
     d="m 417.00513,12402.811 c 1.296,-1.4 3.514,-1.5 4.94999,-0.2 1.436,1.3 1.55,3.5 0.254,4.9 0,0 -5.84598,9.4 -14.25896,21.1 -1.902,2.6 -3.96799,5.3 -6.15199,8 -1.39699,1.7 -2.81299,3.4 -4.35199,5.1 -3.94699,4.2 -8.15298,8.1 -12.10397,11.7 -10.62597,9.6 -19.32595,16.4 -19.32595,16.4 -1.296,1.4 -3.51499,1.6 -4.95099,0.3 -1.43599,-1.3 -1.54899,-3.6 -0.253,-5 0,0 5.89599,-9.3 14.38897,-20.9 3.15699,-4.3 6.60098,-8.9 10.37397,-13.2 1.471,-1.7 3.063,-3.3 4.63799,-4.9 2.461,-2.4 4.90899,-4.8 7.33398,-6.9 10.72598,-9.6 19.45795,-16.4 19.45795,-16.4 z"
     id="path3430"
     style="stroke:none;stroke-width:0.188622" /><path
     d="m 415.44714,12488.711 c 1.433,-1.3 3.65199,-1.2 4.94999,0.2 1.29899,1.4 1.18999,3.7 -0.244,4.9 0,0 -9.99698,11.7 -23.58694,26.1 -3.092,3.3 -6.40099,6.7 -9.83998,10 -2.20699,2.2 -4.44199,4.4 -6.78798,6.4 -6.00399,5.3 -12.24597,10.3 -18.07396,14.8 -15.58096,12.2 -28.16993,21.1 -28.16993,21.1 -1.43399,1.3 -3.65199,1.2 -4.95099,-0.3 -1.29899,-1.4 -1.18899,-3.6 0.244,-4.9 0,0 10.04298,-11.7 23.70594,-26 5.10899,-5.3 10.66298,-11.1 16.50896,-16.5 2.285,-2.1 4.67899,-4.2 7.04599,-6.1 3.68999,-3.1 7.34498,-6.1 10.90997,-8.8 15.66896,-12.2 28.28893,-20.9 28.28893,-20.9 z"
     id="path3432"
     style="stroke:none;stroke-width:0.188622" /><path
     d="m 173.37274,12432.711 c 0.011,-1.9 1.59,-3.5 3.52499,-3.5 1.934,0 3.49599,1.6 3.48499,3.6 0,0 1.886,8.4 3.39299,19.7 0.338,2.6 0.581,5.2 0.753,7.9 0.11,1.8 0.218,3.6 0.163,5.3 -0.142,4.6 -0.681,9 -1.237,13.2 -1.50899,11.3 -3.43499,19.7 -3.43499,19.7 -0.01,2 -1.58999,3.5 -3.52399,3.5 -1.93399,0 -3.49599,-1.6 -3.48599,-3.5 0,0 -1.832,-8.5 -3.21599,-19.8 -0.511,-4.2 -1,-8.6 -1.092,-13.2 -0.036,-1.7 0.092,-3.5 0.221,-5.2 0.202,-2.8 0.474,-5.4 0.84,-7.9 1.63199,-11.3 3.60999,-19.8 3.60999,-19.8 z"
     id="path3434"
     style="stroke:none;stroke-width:0.188622" /><path
     d="m 569.13076,12429.411 c -31.49892,24.2 -70.33683,52.2 -104.35674,75.4 -34.04792,23.1 -63.27885,41.4 -75.42682,46.5 -1.76799,0.8 -3.83999,0 -4.62398,-1.7 -0.783,-1.8 0.017,-3.9 1.78599,-4.7 11.77297,-5.4 39.8179,-24.4 72.60082,-48.2 34.14292,-24.7 73.35482,-54.6 104.48474,-80 1.565,-1.3 5.08799,-2.6 10.05198,-0.3 4.62599,2.1 13.56096,8.5 24.50394,17.4 35.65291,28.9 94.60176,84.1 94.60176,84.1 2.68399,2.5 3.26399,6.6 1.398,9.8 0,0 -14.78997,25.7 -51.03788,59 -15.96996,14.7 -36.16391,30.9 -61.10684,46.9 -35.89092,23.2 -81.6668,46.2 -138.83866,64.4 -2.61899,0.8 -6.28598,0.8 -10.73697,-0.4 -7.41698,-2 -17.83096,-7.4 -29.20793,-14.4 -32.70492,-20.1 -74.05082,-53.7 -74.05082,-53.7 -1.51899,-1.2 -1.78099,-3.4 -0.583,-4.9 1.197,-1.5 3.403,-1.8 4.92199,-0.6 0,0 41.8189,31.9 74.69182,50.9 8.90897,5.1 17.12895,9.3 23.60794,11.5 3.45399,1.1 6.16398,2 7.93698,1.3 55.48486,-19.2 99.63575,-42.8 134.28967,-66.1 23.82294,-16.1 43.09889,-32 58.41585,-46.4 24.38594,-22.8 38.54191,-41.6 44.53289,-50.3 -16.83196,-16.1 -73.53482,-69.8 -99.84775,-89.9 -2.93999,-2.3 -6.13299,-4.4 -8.00698,-5.6 z"
     id="path3436"
     style="stroke:none;stroke-width:0.188622" /><path
     d="m 509.36691,12523.911 c 1.93399,0 3.47699,1.6 3.44399,3.5 -0.034,2 -1.631,3.5 -3.56499,3.5 -9.64098,0.5 -16.45196,5.6 -20.06995,11.4 -3.282,5.4 -3.85399,12 2.20299,13 3.39199,0.7 8.12698,-1 13.57297,-2.2 8.74998,-2 18.75695,-4 27.85093,-2.3 7.39898,1.3 14.25996,4.8 19.71695,11.7 8.88398,11.7 5.94598,25.3 -4.68899,34.7 -11.09997,9.9 -30.12892,15.1 -45.56789,6.2 -1.72999,-0.9 -2.43199,-3 -1.56699,-4.7 0.865,-1.8 2.97199,-2.5 4.70199,-1.6 10.29997,4.3 21.46494,1.2 29.39192,-4.6 7.43098,-5.4 12.37297,-13.8 6.27999,-20.4 -4.31999,-5 -9.96498,-5.9 -15.66796,-6 -6.72899,0 -13.69397,1.3 -19.84095,2.4 -6.90299,1.1 -12.99397,1.7 -17.29896,0.5 -12.99397,-3.7 -16.97096,-15.4 -11.59197,-26.9 4.61399,-9.9 16.23096,-19.6 32.69692,-18.2 z"
     id="path3438"
     style="stroke:none;stroke-width:0.188622" /><path
     d="m 463.57002,12520.811 c -1.479,-1.2 -1.668,-3.4 -0.422,-4.9 1.246,-1.5 3.45899,-1.7 4.93899,-0.4 0,0 2.91899,0.4 8.70898,2.9 1.01499,0.4 1.98999,0.9 3.06999,1.6 0.617,0.4 1.263,0.8 1.81899,1.4 1.288,1.3 2.34,2.8 3.427,4.6 1.56999,2.6 2.49399,5 4.00099,8.1 1.42399,1.3 1.51699,3.6 0.207,5 -1.309,1.4 -3.529,1.5 -4.95199,0.2 -3.20399,-1.2 -5.69899,-1.9 -8.40498,-3.2 -1.86,-0.8 -3.54799,-1.6 -4.90599,-2.8 -1.597,-1.4 -2.58999,-3 -3.49699,-4.4 -3.31599,-5.2 -3.98999,-8.1 -3.98999,-8.1 z m 75.97781,75.5 c -1.229,-1.5 -1.015,-3.7 0.479,-5 1.494,-1.2 3.70399,-1 4.93399,0.5 3.16199,1.8 5.77898,3.2 8.63698,5.2 1.08799,0.8 2.01499,1.7 2.94999,2.6 0.612,0.6 1.213,1.2 1.67999,2 1.229,1.8 2.047,3.8 2.764,5.9 1.22799,3.5 1.72799,6.4 2.40799,9.8 0.997,1.7 0.461,3.8 -1.197,4.8 -1.65799,1 -3.81299,0.5 -4.80998,-1.2 -2.53,-2 -4.99199,-3.4 -7.66698,-5.7 -1.542,-1.3 -3.141,-2.5 -4.40399,-4.2 -1.217,-1.6 -2.011,-3.5 -2.818,-5.4 -1.32699,-3.2 -1.81599,-6 -2.95599,-9.3 z"
     id="path3440"
     style="stroke:none;stroke-width:0.188622" /></g>&#10;</svg>
