<?xml version="1.0" encoding="UTF-8" standalone="no"?>
<svg
   width="3110.2048"
   height="2943.3787"
   viewBox="0 0 3110.2049 2943.3787"
   version="1.1"
   xml:space="preserve"
   style="clip-rule:evenodd;fill-rule:evenodd;stroke-linejoin:round;stroke-miterlimit:2"
   id="svg5353"
   xmlns="http://www.w3.org/2000/svg"
   xmlns:svg="http://www.w3.org/2000/svg"><defs
   id="defs5353" />&#10;    <g
   id="vectorly-UNI-trash"
   transform="matrix(4.9999999,0,0,4.9999999,-20276.318,-84789.354)"
   style="stroke-width:0.2"><path
     d="m 4369.4503,17040.109 c 0.65,1.8 -0.31,3.8 -2.13,4.5 -1.82,0.6 -3.83,-0.4 -4.48,-2.2 -4.9599,-11.8 -10.2399,-27.7 -10.4999,-41.9 -0.23,-12.1 3.52,-22.8 12.2599,-30 5.29,-4.2 13.95,-7.6 24.18,-9.8 7.47,-1.6 15.8199,-2.6 24.1099,-2.8 12.48,-0.3 24.83,1.2 34.0499,3.9 6.88,2 12.19,4.8 15.24,8.1 6.38,6.9 9.97,16.7 11.24,27.1 1.89,15.7 -0.79,32.6 -2.6,40.4 -0.34,1.9 -2.16,3.2 -4.06,2.8 -1.9,-0.3 -3.18,-2.1 -2.85,-4 0.9,-7.4 1.69,-23.1 -1.45,-37.3 -1.69,-7.6 -4.58,-14.8 -9.74,-19.5 -1.92,-1.7 -5.34,-2.7 -9.44,-3.6 -8.1999,-1.9 -19.0199,-2.3 -29.9399,-1.9 -9,0.2 -18.0699,1.1 -25.8099,2.8 -5.95,1.2 -11.11,2.8 -14.49,5.1 -6.09,4.2 -8.45,11.2 -9.09,19.1 -1.07,12.9 2.17,27.9 5.5,39.2 z"
     id="path4964"
     style="stroke:none;stroke-width:0.2" /><path
     d="m 4586.1194,17038.542 c -1.1415,-0.848 -3.226,-2.181 -5.2236,-3.151 -10.807,-4.725 -29.9767,-8.482 -54.6181,-11.511 -29.7037,-3.635 -67.1869,-6.18 -107.9457,-6.422 -40.8209,-0.485 -78.391,1.333 -108.1815,4.604 -24.964,2.787 -44.3694,6.544 -55.3377,11.269 -2.6676,1.091 -4.7893,2.181 -6.2286,3.514 -0.5459,0.364 -1.1539,0.727 -1.1539,1.212 -0.025,0.969 1.2407,1.696 2.7421,2.666 3.747,2.544 9.7027,4.968 17.4946,7.27 10.9559,3.151 25.3362,6.18 42.3222,8.603 1.9108,0.243 3.2756,1.939 3.0398,3.878 -0.2481,1.939 -1.9976,3.271 -3.9207,3.029 -21.5023,-2.302 -39.0342,-5.453 -50.9951,-9.209 -8.6605,-2.666 -14.5789,-5.937 -17.5071,-9.209 -2.072,-2.181 -2.953,-4.726 -2.9902,-7.028 -0.062,-3.999 2.7669,-8.482 9.3677,-12.359 8.2634,-4.726 23.3386,-9.209 43.4389,-12.845 32.1976,-5.816 77.5968,-9.814 127.9095,-10.42 22.6065,-0.121 44.2453,0.242 64.1346,1.454 24.4553,1.454 46.2802,3.877 64.1099,7.028 20.46,3.514 35.8206,7.997 44.2453,12.723 7.6803,4.362 10.7202,9.693 10.6829,14.419 -0.05,4.605 -3.0646,9.936 -10.7945,14.177 -8.4868,4.483 -23.8722,8.724 -44.3322,11.754 -32.3341,4.968 -77.783,7.634 -128.046,6.785 -11.7003,-0.121 -23.1153,-0.484 -34.1704,-1.09 -11.8493,-0.606 -23.2518,-1.333 -34.1084,-2.302 -1.9356,-0.122 -3.3997,-1.818 -3.2632,-3.757 0.1241,-1.938 1.7991,-3.393 3.7347,-3.271 10.7946,0.605 22.1351,0.969 33.8974,1.09 10.9807,0.121 22.3088,0.121 33.9099,-0.121 40.8705,-0.606 78.4157,-3.514 108.1318,-7.634 24.6911,-3.514 43.8111,-7.876 54.5561,-12.844 1.6502,-0.727 3.7843,-1.575 5.0995,-2.302 z m 0.6576,-0.485 c 0.5707,-0.485 0.7568,-0.848 0.2729,-1.09 -0.3598,-0.243 -0.2729,0.727 -0.2729,1.09 z"
     id="path4966"
     style="stroke:none;stroke-width:0.24523" /><path
     d="m 4239.0207,17038.209 c -0.08,-2 1.43,-3.6 3.3699,-3.7 1.93,0 3.56,1.5 3.63,3.4 1.1,14.7 0.94,23.7 2.48,29.5 1.28,4.9 4.51,6.2 11.7,7.7 16.49,3.7 43.8399,5.9 76.5198,7.3 12.26,0.4 25.26,0.8 38.7199,1.1 12.61,0.2 25.6,0.4 38.7699,0.5 20.57,0.2 41.5399,0.1 62.0399,-0.5 33.4599,-1.1 65.6098,-3.4 92.5897,-8 1.9,-0.4 3.75,0.9 4.13,2.8 0.39,1.9 -0.84,3.7 -2.74,4.1 -27.0299,6.4 -59.3898,11.1 -93.2297,13.9 -20.68,1.8 -41.8899,2.9 -62.7099,3.3 -10.61,0.2 -21.1199,0.2 -31.3999,0 -10.77,-0.2 -21.2699,-0.7 -31.3899,-1.3 -13.33,-0.8 -25.97,-1.9 -37.6099,-3.2 -23.73,-2.6 -43.3299,-6 -56.2599,-9.7 -8.66,-2.5 -13.25,-5.3 -15.83,-9.7 -1.8099,-3 -2.7499,-6.9 -2.9599,-12.4 -0.23,-5.9 0.19,-13.9 0.18,-25.1 z"
     id="path4968"
     style="stroke:none;stroke-width:0.2" /><path
     d="m 4590.6598,17037.609 c 0.22,-1.9 1.96,-3.3 3.88,-3 1.92,0.2 3.3,1.9 3.08,3.8 0,0 1.41,3.8 2.42,9.6 0.22,1.2 0.33,2.4 0.37,3.7 0.03,0.9 0.05,1.7 -0.09,2.5 -0.37,2.1 -1.11,4.1 -1.86,6 -2.18,5.4 -4.36,8.7 -4.36,8.7 -0.23,2 -1.97,3.3 -3.89,3.1 -1.92,-0.2 -3.3,-1.9 -3.08,-3.9 0,0 -1.36,-3.7 -2.24,-9.5 -0.31,-2 -0.59,-4.1 -0.45,-6.2 0.04,-0.9 0.26,-1.7 0.47,-2.5 0.34,-1.2 0.73,-2.4 1.21,-3.5 2.32,-5.5 4.54,-8.8 4.54,-8.8 z"
     id="path4970"
     style="stroke:none;stroke-width:0.2" /><path
     d="m 4584.0998,17078.209 c 0.17,-1.9 1.86,-3.3 3.79,-3.2 1.93,0.2 3.36,1.9 3.2,3.8 0,0 -2.51,52.9 -6.66,120.3 -0.95,15.4 -2.06,31.5 -3.27,48 -0.77,10.6 -1.56,21.3 -2.51,32 -2.43,27.3 -5.25,54.6 -7.93,79.9 -7.0999,67.1 -13.4599,119.7 -13.4599,119.7 -0.16,1.9 -1.86,3.3 -3.79,3.2 -1.92,-0.2 -3.36,-1.9 -3.19,-3.8 0,0 2.56,-52.9 6.83,-120.3 1.61,-25.3 3.41,-52.7 5.61,-80 0.86,-10.7 1.8799,-21.4 2.8899,-32 1.58,-16.4 3.2,-32.6 4.86,-47.9 7.22,-67.1 13.63,-119.7 13.63,-119.7 z"
     id="path4972"
     style="stroke:none;stroke-width:0.2" /><path
     d="m 4249.6906,17078.909 c -0.21,-1.9 1.19,-3.7 3.11,-3.9 1.93,-0.2 3.65,1.2 3.86,3.1 0,0 8.2,63.1 17.53,138.1 3.71,29.9 7.6,61.6 11.1899,92.1 3.23,27.5 6.28,53.8 8.78,76.8 4.58,42.1 7.49,72.5 8.12,76.4 0.41,2.6 3.06,6.2 8.14,10.4 10.72,8.9 31.0899,18.3 66.5098,22.8 32.6399,4.2 77.5598,4.4 138.8297,-4 1.91,-0.3 3.7,1 4,2.9 0.3,1.9 -1.01,3.7 -2.92,4 -78.2798,13.7 -130.7197,12.6 -165.0796,5.9 -29,-5.6 -45.6599,-15.4 -54.4699,-23.8 -6.34,-6 -8.98,-11.8 -9.69,-15.7 -0.7,-3.9 -4.65,-34.6 -9.3399,-77.2 -2.53,-22.9 -5.21,-49.3 -7.91,-76.9 -2.99,-30.5 -5.94,-62.4 -8.65,-92.4 -6.78,-75.3 -12.01,-138.6 -12.01,-138.6 z"
     id="path4974"
     style="stroke:none;stroke-width:0.2" /><path
     d="m 4353.5204,17420.709 c 0.21,2 -1.18,3.7 -3.1,3.9 -1.92,0.2 -3.66,-1.2 -3.87,-3.1 0,0 -6.79,-43.7 -14.5,-99.5 -1.76,-12.8 -3.5,-26.2 -5.2,-39.9 -1.09,-8.8 -2.19,-17.7 -3.13,-26.6 -2.3999,-22.8 -4.3999,-45.6 -6.1899,-66.7 -4.77,-56.2 -7.72,-100.3 -7.72,-100.3 -0.21,-1.9 1.18,-3.7 3.1,-3.9 1.93,-0.2 3.66,1.2 3.87,3.1 0,0 6.7399,43.7 14.3299,99.6 2.85,21 5.87,43.7 8.5,66.4 1.03,8.9 1.9,17.9 2.75,26.7 1.33,13.7 2.56,27.2 3.62,40 4.65,56.2 7.54,100.3 7.54,100.3 z"
     id="path4976"
     style="stroke:none;stroke-width:0.2" /><path
     d="m 4424.7602,17278.309 c 0.06,2 -1.46,3.6 -3.4,3.6 -1.93,0.1 -3.55,-1.4 -3.61,-3.4 0,0 -2.7,-24.4 -5.2,-55.8 -0.57,-7.2 -1.06,-14.7 -1.48,-22.4 -0.27,-4.9 -0.54,-9.9 -0.65,-14.9 -0.27,-12.8 -0.14,-25.6 0.03,-37.4 0.47,-31.5 1.62,-56.1 1.62,-56.1 -0.06,-1.9 1.47,-3.5 3.4,-3.6 1.93,0 3.55,1.5 3.61,3.4 0,0 2.65,24.5 5.03,55.9 0.89,11.8 1.79,24.5 2.3,37.3 0.2,5 0.23,10 0.26,14.9 0.05,7.7 0.02,15.2 -0.11,22.4 -0.59,31.5 -1.8,56.1 -1.8,56.1 z"
     id="path4978"
     style="stroke:none;stroke-width:0.2" /><path
     d="m 4500.73,17458.009 c -0.08,2 -1.71,3.5 -3.65,3.4 -1.93,-0.1 -3.43,-1.7 -3.35,-3.6 0,0 0.05,-49 1.08,-111.4 0.24,-14.3 0.6,-29.3 1.04,-44.5 0.28,-9.9 0.58,-19.8 1.03,-29.7 1.16,-25.4 2.72,-50.7 4.22,-74.1 3.99,-62.3 7.91,-111.1 7.91,-111.1 0.08,-1.9 1.71,-3.4 3.64,-3.4 1.94,0.1 3.44,1.7 3.36,3.7 0,0 -0.11,48.9 -1.26,111.3 -0.43,23.5 -0.97,48.9 -1.89,74.2 -0.37,10 -0.89,19.9 -1.42,29.7 -0.81,15.2 -1.69,30.2 -2.63,44.5 -4.11,62.2 -8.08,111 -8.08,111 z"
     id="path4980"
     style="stroke:none;stroke-width:0.2" /><path
     d="m 4569.7698,17275.709 c -1.77,-0.8 -2.57,-2.8 -1.79,-4.6 0.78,-1.8 2.85,-2.6 4.62,-1.8 12.64,5 37.0299,17.6 58.9799,34.7 7.91,6.1 15.4399,12.9 22.0299,20.1 10.11,11 17.9,23.1 21.5,35.4 2.86,9.8 3.01,19.9 -0.05,29.8 -1.09,3.3 -4.27,8.2 -9.54,13.6 -5.82,6 -14.26,13.3 -23.9999,20.8 -10.31,8.1 -22.05,16.6 -33.51,24.4 -25.3799,17.5 -49.2798,32.1 -52.8298,33.5 -1.77,0.7 -3.84,-0.1 -4.62,-1.8 -0.78,-1.8 0.03,-3.9 1.8,-4.6 4.31,-2.1 39.4999,-28.4 69.0398,-53.1 11.66,-9.7 22.42,-19.1 29.9099,-26.9 4.45,-4.6 7.78,-8.1 8.55,-10.7 2.76,-8.6 1.67,-17.4 -1.64,-26 -3.29,-8.6 -8.73,-17 -15.3299,-25.1 -22.24,-27.1 -57.2999,-50 -73.1199,-57.7 z"
     id="path4982"
     style="stroke:none;stroke-width:0.2" /><path
     d="m 4571.1798,17272.509 c 27.44,12.1 111.7898,64.8 96.2798,114.4 -5.86,18.7 -106.1897,88.2 -113.6897,91.5 z"
     id="path4984"
     style="stroke:none;stroke-width:0.2" /><path
     d="m 4243.7206,17533.709 c -0.1,-0.2 -0.2,-0.4 -0.29,-0.5 -0.62,-1.2 -1.59,-2.4 -2.7599,-3.7 -3.18,-3.6 -19.88,-19.7 -29.29,-34.6 -5.32,-8.4 -8.07,-16.7 -7.32,-22.8 2.9,-20.7 6.17,-35.6 8.84,-46.3 2.05,-8.1 3.77,-13.6 4.32,-17.2 -4.76,-0.9 -9.69,-0.2 -14.82,3.6 -4.5299,3.4 -9.1699,8.8 -13.9699,16.9 -8.13,13.6 -16.1,29.2 -24.52,38.8 -6.2399,7.1 -12.8299,11.1 -19.6599,10.2 -1.92,-0.2 -3.32,-1.9 -3.12,-3.9 0.19,-1.9 1.92,-3.3 3.84,-3.1 4.69,0.3 8.55,-3.4 12.46,-8.5 7.4899,-9.8 14.1199,-25.4 21.1099,-39 6.79,-13.1 13.87,-20.7 20.69,-24.8 8.0499,-4.8 16.0799,-5.1 23.9399,-3.2 3,0.8 4.95,2.3 6.36,4.2 1.47,2 2.35,4.8 2.1,9 -0.51,8.1 -7.12,26.2 -11.7,65.4 -0.22,1.6 0.47,3.5 1.35,5.6 1.53,3.7 3.94,7.7 6.69,11.7 8.79,12.8 20.9899,25.6 23.5599,28.7 7.34,9 7.49,17.1 3.21,21.6 -1.51,1.6 -3.65,3 -6.76,3.9 -4.04,1 -10.3599,1.3 -19.3799,-0.2 -8.15,-1.3 -15.23,-5 -21.14,-9.9 -9.4999,-8 -15.9899,-18.9 -19.4999,-26.3 -3.02,-6.3 -3.8,-12.5 -4.37,-18.2 -0.38,-3.7 -0.58,-7 -1.91,-9.8 -1.16,-2.4 -3.25,-4.1 -7.12,-5.2 -1.88,-0.5 -3.04,-2.4 -2.59,-4.2 0.46,-1.9 2.35,-3.1 4.23,-2.6 6.67,1.3 10.18,4.5 12.41,8.4 1.94,3.3 2.71,7.6 3.5,12.3 0.77,4.6 1.6,9.8 4.43,14.9 2.92,5.3 7.8199,12.7 14.5199,18.7 5.23,4.8 11.65,8.6 19.25,9.4 5.26,0.6 10.89,1.1 13.4099,0.7 z m -24.2699,-124.5 c 0,0 0.01,0 0.01,0 z m 24.5999,124.4 c 0.91,-0.2 1.27,-0.6 0.83,-1.2 -0.31,-0.4 -0.65,0.6 -0.83,1.2 z"
     id="path4986"
     style="stroke:none;stroke-width:0.2" /><path
     d="m 4065.4711,17470.309 c 1.76,-10.8 9.12,-20.4 22.6399,-24.6 6.83,-2 13.75,-1.5 20.75,1 9.53,3.4 19.3599,10.5 29.4999,16.5 8.37,5 16.93,9.5 26.1399,8.6 2.3,-0.2 4.68,-2 7.36,-4.5 3.81,-3.4 7.83,-8.2 11.9,-13.6 16.37,-22 33.4799,-54.6 41.8499,-63 1.33,-1.4 3.54,-1.5 4.96,-0.1 1.41,1.3 1.49,3.5 0.16,4.9 -8.9,10.1 -27.07,52.1 -44.0199,73.9 -7.05,9.1 -14.46,14.6 -20.6,15.5 -6.4299,1 -12.7499,0.1 -18.9599,-1.9 -7.77,-2.4 -15.35,-6.7 -22.72,-11 -12.3299,-0.2 -27.5599,0 -39.7899,2.6 -1.22,0.2 -2.41,0.5 -3.56,0.8 -0.15,2.9 0.4,6 1.57,8.9 3.67,9.2 12.9,17.1 26.58,18.2 3.36,0.3 4.93,1.9 5.63,2.8 1.69,2.2 2.28,4.7 1.04,7.5 -0.37,0.8 -2.12,3.7 -6.61,5.1 -5.66,1.7 -19.62,4 -31.7199,0 -10.81,-3.6 -20.5,-11.5 -22.19,-28.3 -0.85,-8.7 2.96,-15 10.09,-19.3 z m 1.4,16.6 c 0,0.4 0.04,0.8 0.11,1.3 0.87,5.8 3.13,9.9 6.19,12.8 1.22,1.1 2.57,2 4.01,2.7 -4,-4 -7.05,-8.6 -9.07,-13.4 -0.47,-1.1 -0.89,-2.2 -1.24,-3.4 z m 41.3599,30 c 0.03,0 0.05,0 0.08,0 -0.03,0 -0.05,0 -0.08,0 z m 1.23,-53.2 c -5.73,-2.8 -11.22,-4.6 -16.66,-2.9 -2.7,0.9 -4.9,2.1 -6.63,3.6 7.36,-0.8 15.46,-0.9 23.29,-0.7 z"
     id="path4988"
     style="stroke:none;stroke-width:0.2" /><path
     d="m 4172.7308,17444.809 c 1.86,0.5 2.92,2.5 2.38,4.3 -0.54,1.9 -2.49,2.9 -4.35,2.4 -3.73,-0.6 -7.75,-2.1 -11.5299,-4.1 -4.27,-2.2 -7.72,-5.4 -10.09,-8.6 -1.13,-1.7 -2.4,-2.4 -3.61,-2.7 -0.86,-0.3 -1.67,0.3 -2.55,0.6 -1.6,0.5 -3.17,1.3 -4.74,2.2 -0.9,0.5 -1.16,1.4 -0.93,2.3 0.36,1.5 0.97,3.2 2.3,4.7 2.65,3.1 6.25,6.1 9.99,8.8 4.47,3.2 8.84,6 11.9699,7.4 1.85,0.6 2.87,2.6 2.29,4.4 -0.58,1.9 -2.55,2.9 -4.3899,2.3 -4.45,-0.8 -11.33,-3 -17.96,-6 -4.23,-2 -8.12,-4.4 -11.34,-6.9 -6.31,-5.2 -8.78,-12.1 -8.37,-17.9 0.39,-5.5 3.6,-10.3 9.21,-13.2 5.19,-2.3 10.6,-4.2 15.51,-3.3 5.02,1 10.16,3.6 13.53,11.1 0.9599,2.3 2.6499,4.7 4.8699,6.7 2.47,2.3 5.12,4.3 7.81,5.5 z"
     id="path4990"
     style="stroke:none;stroke-width:0.2" /><path
     d="m 4216.0507,17453.909 c -1.91,0.3 -3.71,-1 -4.03,-2.9 -0.31,-1.9 0.99,-3.7 2.9,-4 0,0 9.35,-3.5 22.24,-7.7 2.83,-1 5.7999,-1.9 8.9099,-2.8 1.95,-0.5 3.94,-1.1 5.97,-1.5 5.03,-1.1 10.17,-1.9 15.17,-2.7 8.57,-1.4 16.4599,-2.4 22.4899,-4.3 1.75,-0.8 3.85,-0.1 4.67,1.7 0.83,1.7 0.08,3.8 -1.67,4.6 -5.64,3.7 -13.1799,7.7 -21.8099,11.2 -4.89,1.9 -10.01,3.7 -15.19,5.1 -2.07,0.5 -4.18,0.8 -6.24,1.2 -3.27,0.5 -6.43,0.9 -9.4699,1.2 -13.76,1.2 -23.94,0.9 -23.94,0.9 z"
     id="path4992"
     style="stroke:none;stroke-width:0.2" /><path
     d="m 4291.1605,17457.509 c 0.73,-1.8 2.78,-2.7 4.57,-1.9 1.79,0.7 2.65,2.7 1.92,4.5 -1.15,4.8 -6.06,9.5 -13.07,14.3 -3.4699,2.5 -7.3999,4.9 -11.7099,7.2 -3.75,2 -7.68,4 -11.67,5.8 -2.9,1.3 -5.85,2.5 -8.66,3.8 -2.88,1.3 -5.64,2.5 -8.18,3.9 -5.4199,3.2 -10.0099,6.4 -11.8099,11.4 -0.39,1.9 -2.25,3.2 -4.15,2.8 -1.89,-0.4 -3.11,-2.3 -2.71,-4.2 0.64,-9 6.72,-16.7 15.3,-23.5 3.8699,-3.1 8.2799,-5.9 12.9699,-8.4 2.19,-1.1 4.49,-2.1 6.77,-3 2.29,-1 4.58,-1.8 6.84,-2.6 3.3,-1.1 6.46,-2.1 9.43,-3.1 3.31,-1.2 6.2899,-2.1 8.7799,-3.4 2.38,-1.2 4.42,-2 5.38,-3.6 z"
     id="path4994"
     style="stroke:none;stroke-width:0.2" /><path
     d="m 4212.0107,17473.109 80.7598,-28.2 c 0.69,6.1 1.25,10.8 1.63,13.9 -5.93,14.5 -60.1498,22.3 -65.2798,47 -9.13,-11 -18.21,-24.3 -17.12,-32.6 0,-0.1 0.01,-0.1 0.01,-0.1 z"
     id="path4996"
     style="stroke:none;stroke-width:0.2" /><path
     d="m 4189.2808,17498.909 c -2.13,-1.3 -6.73,-1.5 -13.09,2.6 -13.66,8.8 -55.4999,7.6 -67.8198,8.2 -5.13,-0.4 -9.75,-1.5 -13.84,-3.3 7.07,-14.9 39.2299,-10.9 50.0799,-15.7 4.36,-1.9 -1.54,-8.7 2.9,-14.9 5.79,2.2 11.72,3.3 17.7999,2.6 3.12,-0.4 6.52,-2.5 10.07,-5.7 13.63,3.2 10.98,14.1 13.9,26.2 z"
     id="path4998"
     style="stroke:none;stroke-width:0.2" /></g>&#10;</svg>
