<?xml version="1.0" encoding="UTF-8" standalone="no"?>
<svg
   width="3570.1191"
   height="2110.3691"
   viewBox="0 0 3570.1192 2110.3692"
   version="1.1"
   xml:space="preserve"
   style="clip-rule:evenodd;fill-rule:evenodd;stroke-linejoin:round;stroke-miterlimit:2"
   id="svg5353"
   xmlns="http://www.w3.org/2000/svg"
   xmlns:svg="http://www.w3.org/2000/svg"><defs
   id="defs5353" />&#10;    <g
   id="vectorly-UNI-mouse"
   transform="matrix(4.9999999,0,0,4.9999999,-20158.997,-65462.196)"
   style="stroke-width:0.2"><path
     d="m 4555.1999,13198.911 c 1.74,0.9 2.47,3 1.63,4.7 -0.84,1.8 -2.94,2.5 -4.68,1.7 -18.02,-8.2 -40.4699,-6.5 -76.7098,8.9 -22.41,9.6 -49.7999,24.4 -84.4898,45.3 -14.99,9 -31.3199,19.2 -49.2199,30.4 -10.35,6.6 -21.2599,13.4 -32.6699,20.7 -16.38,10.2 -34.8199,18.5 -53.8999,24.3 -29.7299,9 -60.9098,12.1 -87.7298,8.1 -37.2299,-5.6 -66.1798,-24.6 -72.3998,-60.1 -0.38,-1.9 0.86,-3.8 2.75,-4.1 1.9,-0.4 3.75,0.8 4.12,2.7 6.99,31.3 33.6999,46.6 66.9898,50.2 25.25,2.7 54.2499,-1.4 81.8398,-10.7 17.64,-5.9 34.7099,-13.9 49.7799,-23.8 11.46,-7.3 22.3499,-14.3 32.7999,-20.8 18.15,-11.2 34.8399,-21 50.1999,-29.7 35.9499,-20.2 64.5798,-34.1 87.8098,-42.8 40.1199,-15 64.7298,-14.8 83.8798,-5 z"
     id="path3776"
     style="stroke:none;stroke-width:0.2" /><path
     d="m 4571.1698,13177.111 c 0.98,1.7 0.43,3.8 -1.24,4.8 -1.67,1 -3.82,0.4 -4.8,-1.2 -22.3099,-36.1 -53.9898,-57.5 -90.4597,-67.4 -35.0599,-9.6 -74.5798,-8.6 -114.6397,0.7 -21.11,4.5 -40.9199,10.3 -59.5399,16.7 -31.9499,10.8 -60.2598,23.7 -84.7798,37.4 -68.7298,38.5 -107.8297,82.8 -113.9097,100.4 -0.59,1.8 -2.57,2.9 -4.41,2.3 -1.84,-0.6 -2.85,-2.6 -2.26,-4.5 5.58,-18.6 43.6099,-67.4 113.8497,-109.8 24.78,-14.9 53.5699,-29.2 86.3398,-40.8 19.11,-6.7 39.6099,-12.4 61.3699,-17.1 42.7199,-8.6 84.6998,-8.7 121.4597,2.8 38.3599,12 71.0398,36.4 93.0197,75.7 z"
     id="path3778"
     style="stroke:none;stroke-width:0.2" /><path
     d="m 4195.2008,13260.611 c 0.79,0 1.91,-0.2 2.82,-0.3 4.5699,-0.7 10.7899,-3.1 19.3099,-8.2 8.4,-5.1 18.79,-12.3 31.4999,-23 1.4,-1.3 3.61,-1.3 4.96,0.1 1.34,1.4 1.3,3.6 -0.09,5 -13.6499,15 -24.5999,24.9 -33.4299,31.1 -7.98,5.7 -14.44,8.4 -19.3299,9.6 -6.86,1.6 -11.66,0.2 -14.84,-1.6 -5.08,-2.9 -6.87,-7.9 -6.84,-12.2 0.18,-5.8 2.02,-11.7 5.5,-17.3 3.9,-6.4 9.73,-12.4 16.6299,-17.6 6.12,-4.6 12.99,-8.6 19.95,-11.6 13.07,-5.6 26.1099,-8.1 34.3599,-6 1.9,0.4 3.17,2.2 2.83,4.1 -0.34,1.9 -2.17,3.2 -4.07,2.8 -4.27,-0.4 -9.68,1.1 -15.6299,3.5 -7.19,2.8 -14.83,7.5 -21.91,12.8 -6.79,5.2 -12.82,11.2 -16.9899,17.5 -2.5,3.7 -4.35,7.5 -4.73,11.3 z m -0.06,1 z m -0.21,-1.1 c -0.17,-0.4 -0.42,-0.8 -0.66,-0.5 -0.21,0.4 0.1,0.5 0.66,0.5 z"
     id="path3780"
     style="stroke:none;stroke-width:0.2" /><path
     d="m 4321.7605,13159.711 c 1.6799,-1 3.8199,-0.4 4.7699,1.3 0.94,1.7 0.34,3.9 -1.35,4.8 0,0 -9.2599,7.4 -22.0399,16.8 -2.83,2.1 -5.84,4.2 -9,6.3 -1.99,1.4 -4.01,2.8 -6.12,4 -5.26,3.1 -10.7399,6 -15.9999,8.8 -9.37,5 -18,9.2 -23.8,13.1 -1.46,1.3 -3.68,1.1 -4.95,-0.3 -1.26,-1.5 -1.1,-3.7 0.36,-5 4.92,-5.4 12.21,-12.3 20.89,-19.2 4.76,-3.8 9.83,-7.6 15.09,-11 2.1,-1.3 4.2799,-2.5 6.4299,-3.7 3.39,-1.8 6.72,-3.5 9.95,-5 14.51,-6.8 25.77,-10.9 25.77,-10.9 z"
     id="path3782"
     style="stroke:none;stroke-width:0.2" /><path
     d="m 4186.1208,13263.011 c 1.31,-1.4 3.53,-1.5 4.95,-0.2 1.42,1.4 1.5,3.6 0.19,5 0,0 -5.75,9.1 -14.05,20.6 -1.85,2.6 -3.86,5.2 -5.98,7.9 -1.36,1.7 -2.72,3.4 -4.22,5.1 -3.77,4.1 -7.7999,7.9 -11.6299,11.6 -7.47,7.1 -14.24,12.9 -17.72,16.9 -1.07,1.6 -3.25,2 -4.86,0.9 -1.61,-1.1 -2.04,-3.2 -0.97,-4.8 2.42,-5 7.04,-13 13.15,-21.9 3.06,-4.4 6.39,-9 10.04,-13.3 1.44,-1.7 3,-3.3 4.55,-4.9 2.4199,-2.4 4.8399,-4.7 7.2299,-6.8 10.68,-9.6 19.32,-16.1 19.32,-16.1 z"
     id="path3784"
     style="stroke:none;stroke-width:0.2" /><path
     d="m 4576.1498,13203.411 c 0.02,-1.9 1.61,-3.4 3.54,-3.4 1.94,0 3.49,1.6 3.47,3.5 0.26,25.2 -2.57,47.5 -12.64,67 -9.3399,18 -24.9299,33.8 -50.1698,47.2 -17.27,9.1 -48.0499,24 -82.0298,39.5 -18.15,8.2 -37.2099,16.5 -55.5899,24.2 -16.67,6.9 -32.7899,13.3 -47.1299,18.6 -22.2399,8.1 -40.3699,13.5 -49.9999,14.6 -44.9498,4.8 -90.4597,-0.3 -126.7796,-19.7 -35.87,-19.2 -62.9699,-52.2 -71.6999,-103.4 -0.36,-1.9 0.89,-3.7 2.79,-4.1 1.9,-0.3 3.73,0.9 4.09,2.8 9.93,47.5 36.0999,77.4 70.1698,94.3 34.7,17.2 77.5098,20.7 119.6197,15.1 8.95,-1.2 25.63,-6.8 46.2999,-14.6 14.14,-5.2 30.07,-11.5 46.6299,-18.2 18.33,-7.5 37.4099,-15.4 55.6399,-23.2 34.0399,-14.5 65.0798,-28.3 82.4598,-36.8 23.3099,-11.3 38.0099,-24.9 47.1099,-41 10.1599,-17.9 13.4799,-38.7 14.2199,-62.4 z"
     id="path3786"
     style="stroke:none;stroke-width:0.2" /><path
     d="m 4122.6209,13332.911 c 9.16,-4.2 17.6,12.4 8.54,16.9 -4.47,2.2 -30.9899,12.3 -34.6599,12.5 -3.66,0.3 -12.82,-10.4 -6.74,-13.7 6.08,-3.2 29.76,-14.3 32.8599,-15.7 z"
     id="path3788"
     style="stroke:none;stroke-width:0.2" /><path
     d="m 4403.4002,13449.511 c 0.28,-0.1 0.56,-0.1 0.84,-0.2 38.51,-6.7 83.9498,-11.1 124.7797,-20.1 43.5999,-9.6 77.1698,-18.9 102.2898,-28.4 30.5399,-11.5 48.1499,-22.5 55.3298,-34.9 3.16,-5.4 4.74,-9.4 3.46,-12.6 -1.37,-3.4 -5.5399,-4.7 -11.1499,-5.9 -13.14,-2.8 -33.32,-1.8 -57.5499,1.2 -23.7099,3 -51.5799,5.9 -67.3098,4.2 -5.24,-0.6 -9.35,-1.7 -12.02,-3.2 -5.3,-3.1 -7.16,-7.4 -5.24,-13 1.69,-5 7.3,-9.9 16.2,-13.6 15.7499,-6.6 42.6399,-11.3 64.9998,-16.3 26.7799,-5.9 70.0198,-12.7 97.0198,-21.3 7.81,-2.4 14.1899,-5 18.1799,-7.8 1.55,-1.1 2.85,-1.9 2.95,-3.1 0.05,-0.7 -0.5,-1.2 -1.19,-1.9 -1,-1 -2.39,-2 -4.17,-3.1 -24.3899,-14.6 -61.8398,-17.2 -88.4997,-25.1 -8.84,-2.7 -16.56,-5.9 -22.43,-10.1 -9.18,-6.6 -9.73,-13.3 -6.62,-18.7 3.71,-6.4 14.52,-11.3 24.81,-11.6 1.93,-0.1 3.56,1.5 3.62,3.4 0.07,1.9 -1.45,3.5 -3.38,3.6 -7.65,0.3 -15.93,3.5 -18.61,8.3 -1.51,2.7 -0.03,5.5 4.6,8.7 18.84,13.1 57.5999,14.2 88.8298,23.9 8.11,2.5 15.7399,5.6 22.4599,9.4 6.45,3.8 9.3,7.8 10.01,11.2 0.61,2.9 -0.08,5.8 -2.12,8.6 -2.09,2.9 -6.01,5.8 -11.46,8.4 -23.6399,11.6 -79.2798,20.8 -111.4197,28.4 -18.4299,4.4 -40.0499,8.5 -55.4999,13.7 -4.9199,1.7 -9.1599,3.4 -12.3499,5.4 -1.22,0.7 -2.29,1.4 -3.04,2.1 4.12,1.3 10.83,1.5 18.8799,1.2 14.96,-0.4 34.1,-2.8 51.0499,-5.1 33.9399,-4.6 60.6699,-4.6 73.5398,2 6.21,3.3 9.9,7.9 11.23,13.7 1.32,5.7 0.1,13.1 -5.09,22.3 -6.76,11.9 -21.1299,23.6 -45.6799,34.8 -26.7499,12.2 -66.1198,24.2 -121.1797,36.7 -35.6799,7.9 -74.8298,12.4 -109.9097,17.7 2.49,3.2 4.05,6.8 4.4,10.6 0.46,5 -1.03,10.4 -5.94,15.9 -6.98,7.7 -22.6699,16.2 -52.8799,22.6 -19.2599,4.1 -33.1399,3.6 -41.5499,0.9 -6.0099,-1.9 -9.8199,-5.1 -11.9099,-8.5 -2.82,-4.8 -3.04,-10.5 0.37,-16.7 4.19,-7.6 15.5999,-16.9 35.0999,-24.3 8.16,-3.1 17.3599,-5.8 27.3299,-8.2 -14.32,-4 -31.9399,-7.3 -51.6199,-9.9 -40.3199,-5.3 -89.1197,-7.3 -136.8596,-4.9 -32.9499,1.6 -81.2898,4.2 -114.9697,-1.7 -24.05,-4.3 -40.6199,-13.6 -42.0999,-28.6 -1.28,-12.9 6.91,-24.8 18.6999,-34.4 18.18,-14.8 44.4299,-24.5 49.6599,-26.2 1.83,-0.6 3.83,0.3 4.45,2.2 0.62,1.8 -0.36,3.8 -2.19,4.4 -4.95,1.7 -29.7999,11.4 -46.8499,25.7 -9.31,7.9 -16.4699,17.1 -15.28,27.4 0.6,5.1 3.95,9 8.99,12 6.46,4 15.56,6.5 26.18,8.2 33.1199,5.4 80.4898,2 112.7897,-0.1 48.4499,-3.1 98.0697,-1.8 139.0996,3.1 31.7,3.7 58.3599,9.9 75.9198,17.6 z m 0.86,15.9 c -18.3399,3.2 -34.9899,6.9 -48.6098,12 -12.38,4.7 -20.91,9.8 -25.4,14.8 -0.89,1 -1.6,1.9 -2.05,2.9 -0.19,0.4 -0.61,0.7 -0.42,1 0.97,1.6 3.53,2.2 7.02,2.8 7.07,1.2 17.18,0.7 30.3199,-2 20.17,-4 33.07,-8.8 40.7099,-13.9 4.56,-3.1 7,-5.6 6.97,-8.5 -0.03,-2 -1.45,-3.7 -3.16,-5.2 -1.53,-1.4 -3.33,-2.6 -5.38,-3.9 z"
     id="path3790"
     style="stroke:none;stroke-width:0.2" /><path
     d="m 4689.1295,13184.911 c 2.74,-0.4 5.34,1.1 7.61,4 3.57,4.6 5.97,14 6.26,22.6 0.21,5.9 -0.98,11.4 -2.94,14.9 -2.09,3.7 -5.38,5.5 -9.15,5.9 -4.56,0.4 -13.7999,1.5 -22.1499,2.3 -6.42,0.5 -12.31,0.9 -15.24,0.9 -4.84,0 -10.5099,-2.5 -14.9199,-7.4 -4.5,-5 -7.79,-12.2 -7.84,-19.5 0.07,-6.9 1.23,-14.8 5.51,-20 3.13,-3.9 7.52,-6.8 14.2099,-7.1 1.4,-0.1 4.47,0.1 8.37,0.4 10.18,0.9 26.4299,2.9 30.2799,3 z m 1,34.3 c 0.32,-0.6 0.63,-1.7 0.85,-2.4 1.2,-3.8 1.66,-8.9 1.36,-13.5 -0.25,-4 -0.79,-7.7 -2.1,-10.1 -0.24,-0.4 -0.4,-0.8 -0.7,-1.1 -0.08,0 0.05,-0.2 -0.04,-0.2 l -37.8299,1.7 c -2.9,0.4 -4.37,2.2 -5.21,4.2 -1.27,3.1 -1.06,6.9 -0.78,10.3 0.17,2.3 1.18,4.4 2.37,6.4 0.95,1.5 2.13,2.8 3.38,3.8 0.73,0.6 1.36,1.3 2.09,1.3 z m 0.14,0 h 0.05 c -0.01,0 -0.03,0 -0.05,0 z m -0.14,0 c -0.44,0.1 -1.04,0.3 -0.83,0.6 0.26,0.3 0.55,0 0.83,-0.6 z"
     id="path3792"
     style="stroke:none;stroke-width:0.2" /><path
     d="m 4689.3095,13188.411 c 9.28,-0.5 12.21,36.9 1.3,37.4 -7.9899,0.3 -30.4199,1.8 -37.0899,1.8 -6.67,0 -14.9399,-9.5 -15.2999,-19.2 -0.32,-8.8 1.3,-19.7 12.8599,-20.9 4.92,-0.4 33.03,1.1 38.2299,0.9 z"
     id="path3794"
     style="stroke:none;stroke-width:0.2" /><path
     d="m 4694.9195,13196.111 c -1.91,0.3 -3.7,-1 -4,-2.9 -0.3,-1.9 1.01,-3.7 2.92,-4 0,0 4.35,-1.8 10.19,-3.6 2.29,-0.6 4.66,-1.2 7.12,-1.6 2.71,-0.5 5.37,-0.6 7.76,-0.5 2.46,0 4.62,0.6 6.36,1.2 1.7999,0.8 3.5599,1.7 4.9599,3.1 2.46,2.4 4.56,5.5 5.6,9.2 0.53,1.9 1.01,3.8 1.16,5.8 0.41,5.5 -0.1,10.6 -1.13,13.3 -0.3,1.9 -2.1,3.2 -4.01,2.9 -1.91,-0.3 -3.21,-2.1 -2.91,-4.1 -0.11,-2.3 -2.02,-6.4 -4.2299,-10.5 -1.2,-2.3 -2.73,-4.2 -4.88,-4.7 -0.68,-0.3 -1.55,-0.4 -2.52,-0.6 -1.79,-0.3 -3.76,-0.7 -5.84,-1 -8.13,-1.1 -16.55,-2 -16.55,-2 z"
     id="path3796"
     style="stroke:none;stroke-width:0.2" /><path
     d="m 4676.7096,13225.011 c -1.93,0 -3.51,-1.6 -3.51,-3.5 -0.01,-2 1.56,-3.5 3.49,-3.6 0,0 5.41,-1.9 13.1699,-3.5 1.69,-0.4 3.43,-0.6 5.27,-0.8 1.16,-0.1 2.33,-0.3 3.51,-0.2 3.04,0.1 5.99,0.6 8.79,1.1 6.11,1.1 10.8,2.7 13.17,3.2 1.93,0 3.53,1.6 3.55,3.5 0.03,1.9 -1.52,3.5 -3.45,3.5 -2.37,0.7 -7.07,2.3 -13.2,3.5 -2.81,0.5 -5.76,1 -8.79,1.2 -1.18,0 -2.36,-0.1 -3.52,-0.2 -1.84,-0.2 -3.58,-0.4 -5.28,-0.8 -7.7799,-1.6 -13.1999,-3.4 -13.1999,-3.4 z"
     id="path3798"
     style="stroke:none;stroke-width:0.2" /></g>&#10;</svg>
