<?xml version="1.0" encoding="UTF-8" standalone="no"?>
<svg
   width="2600.8853"
   height="2854.0684"
   viewBox="0 0 2600.8853 2854.0684"
   version="1.1"
   xml:space="preserve"
   style="clip-rule:evenodd;fill-rule:evenodd;stroke-linejoin:round;stroke-miterlimit:2"
   id="svg5353"
   xmlns="http://www.w3.org/2000/svg"
   xmlns:svg="http://www.w3.org/2000/svg"><defs
   id="defs5353" />&#10;    <g
   id="vectorly-UNI-mouse-2"
   transform="matrix(4.9999999,0,0,4.9999999,-4395.3927,-88851.475)"
   style="stroke-width:0.2"><path
     d="m 1115.4284,17774.609 c -0.44,-1.9 0.74,-3.8 2.63,-4.2 1.88,-0.5 3.77,0.7 4.2,2.6 0,0 3.95,8.5 8.21,20.1 0.96,2.6 1.86,5.4 2.7,8.2 0.54,1.8 1.09,3.7 1.47,5.5 0.99,4.9 1.57,9.7 2.07,14.2 1.3299,12.3 1.5599,21.7 1.5599,21.7 0.43,1.9 -0.75,3.8 -2.6299,4.2 -1.89,0.4 -3.77,-0.7 -4.2,-2.6 0,0 -3.9,-8.6 -8.05,-20.2 -1.53,-4.3 -3.12,-8.9 -4.33,-13.7 -0.48,-1.8 -0.79,-3.7 -1.1,-5.6 -0.48,-2.9 -0.87,-5.8 -1.14,-8.5 -1.22,-12.3 -1.39,-21.7 -1.39,-21.7 z"
     id="path5034"
     style="stroke:none;stroke-width:0.2" /><path
     d="m 1184.2382,17778.309 c 0.97,-1.7 3.11,-2.3 4.79,-1.3 1.68,0.9 2.25,3.1 1.29,4.7 0,0 -3.39,9.8 -8.73,22.3 -1.21,2.8 -2.56,5.6 -4.02,8.5 -0.9299,1.9 -1.8799,3.8 -2.9699,5.6 -2.79,4.6 -5.91,9 -8.85,13.1 -7.93,10.9 -14.65,18.8 -14.65,18.8 -0.97,1.6 -3.11,2.2 -4.79,1.3 -1.67,-1 -2.25,-3.2 -1.29,-4.8 0,0 3.45,-9.8 8.89,-22.2 2.01,-4.5 4.24,-9.4 6.83,-14.2 1.01,-1.8 2.16,-3.6 3.3,-5.3 1.79,-2.8 3.59,-5.4 5.4,-7.8 8.0399,-10.9 14.7999,-18.7 14.7999,-18.7 z"
     id="path5036"
     style="stroke:none;stroke-width:0.2" /><path
     d="m 1132.0884,17887.509 c -0.82,1.7 -2.91,2.5 -4.66,1.7 -1.76,-0.9 -2.51,-3 -1.69,-4.7 1,-3.7 -0.68,-8.1 -3.47,-12.1 -1.07,-1.5 -2.63,-2.6 -4.29,-3.8 -1.43,-0.9 -3.13,-1.7 -5.08,-2.2 -3.29,-1.3 -6.12,-2.1 -8.6,-2.6 -3.05,-0.5 -5.32,-1.1 -7.14,-0.5 -1.0299,0.3 -2.0199,0.4 -2.6199,1 -1.28,1.5 -2.19,3.1 -2.15,4.9 0.38,1.8 -0.85,3.7 -2.75,4.1 -1.9,0.4 -3.74,-0.9 -4.12,-2.8 -2.27,-5.9 -0.44,-13.1 6.45,-17.8 3.1,-2.2 7.5599,-3.4 13.6699,-3.4 3.46,0 7.45,0.7 12.14,1.9 3.07,1.2 5.83,2.5 8.06,4.4 3.77,3.1 6.61,6.8 8.01,11 2.58,7.6 1.91,15.6 -1.76,20.9 z"
     id="path5038"
     style="stroke:none;stroke-width:0.2" /><path
     d="m 1173.0883,17912.709 c -1.63,1.1 -3.8,0.6 -4.85,-1 -1.06,-1.6 -0.6,-3.8 1.03,-4.8 1.89,-1.8 3.82,-5.8 3.65,-9.8 -0.08,-2 -2.01,-3.2 -5.21,-4.5 -1.93,-1 -4.9,-2 -8.21,-3.5 -2.68,-1.2 -5.55,-2.7 -8.49,-4.2 -4.39,-2.3 -8.76,-4.8 -12.71,-7 -7.2999,-4 -12.6799,-7.2 -12.6799,-7.2 -1.81,-0.7 -2.73,-2.7 -2.05,-4.5 0.67,-1.8 2.69,-2.8 4.51,-2.1 0,0 6.2,1.2 14.3899,3.2 4.47,1.1 9.4,2.3 14.2,3.8 3.29,1.1 6.48,2.2 9.29,3.4 3.89,1.7 7.05,3.5 9.2,4.9 8.5599,6.2 10.8699,12.8 9.4499,18.9 -0.62,2.6 -1.61,5.2 -3.26,7.3 -2.59,3.4 -5.7199,6 -8.2599,7.1 z"
     id="path5040"
     style="stroke:none;stroke-width:0.2" /><path
     d="m 1122.0584,17865.309 c -1.91,0.3 -3.71,-1 -4.02,-2.9 -0.31,-1.9 0.99,-3.7 2.9,-4 8.46,-1.5 22.7599,-3.1 40.0799,-2.2 12.1,0.7 25.6499,2.6 39.7199,6.7 41.9099,12.2 94.6598,44.8 133.7897,89.9 36.5699,42.2 60.9898,95.2 55.3898,151.7 -3.62,33.3 -17.9199,54.8 -37.5299,66.6 -20.9199,12.6 -48.2299,14.1 -75.9298,6 -30.0099,-8.8 -55.1199,-24.2 -77.7298,-43.4 -49.7999,-42.3 -87.3098,-102.6 -142.0197,-144.3 -1.5499,-1.2 -1.8699,-3.4 -0.7199,-4.9 1.1499,-1.6 3.3499,-1.9 4.8999,-0.8 55.8099,40.3 95.0798,99.3 145.8797,140.3 21.6099,17.4 45.3299,31.5 73.6198,39.2 23.4199,6.4 46.3899,5.3 63.8798,-5.4 15.93,-9.8 26.95,-27.8 29.78,-55 5.8999,-52.3 -16.91,-101.3 -50.0199,-141 -36.6899,-44.1 -86.1598,-77.1 -126.0697,-89.8 -13.24,-4.3 -26.0499,-6.6 -37.5199,-7.5 -16.53,-1.5 -30.2399,-0.4 -38.3799,0.8 z"
     id="path5042"
     style="stroke:none;stroke-width:0.2" /><path
     d="m 1149.4883,17906.609 c 1.77,0.8 2.56,2.9 1.77,4.6 -0.79,1.8 -2.87,2.6 -4.63,1.8 -9.8999,-3.9 -31.9499,-13.2 -52.3798,-21.9 -7.95,-3.4 -15.62,-6.7 -22.25,-9.4 -8.25,-3.5 -14.73,-6.1 -17.7799,-6.9 -1.9,-0.5 -4.34,0.3 -7.31,1.3 -4.33,1.5 -9.27,4.1 -14.7,7.3 -10.83,6.4 -23.3299,15.4 -35.2799,26 -0.75,0.7 -0.38,1.9 0.35,4.2 1.16999,3.5 3.63,8.1 8.01,14 6.19,8.3 15.7899,18.9 30.5299,32.4 1.48,1.2 1.68,3.5 0.44,4.9 -1.24,1.5 -3.45,1.7 -4.93,0.5 -21.1299,-16 -33.23991,-28 -39.88989,-36.9 -12.10597,-16.2 -7.65998,-25.2 -3.83999,-29.1 8.13998,-8 16.48998,-15.5 24.59998,-21.6 6.5599,-4.9 12.9499,-9 18.8099,-12 11.34,-5.9 21.18,-7.6 27.3699,-5.8 4.42,1.4 15.54,6.4 28.66,13.2 22.3699,11.5 50.9098,27.6 62.4498,33.4 z"
     id="path5044"
     style="stroke:none;stroke-width:0.2" /><path
     d="m 1073.6285,17962.109 c -1.61,1.1 -3.79,0.6 -4.87,-1 -1.08,-1.6 -0.65,-3.8 0.96,-4.8 0,0 7.32,-7.2 19.13,-15.3 2.56,-1.8 5.36,-3.5 8.3599,-5.1 1.87,-1 3.81,-2.1 5.86,-2.9 4.97,-2.1 10.29,-3.8 15.71,-5 8.48,-1.9 16.9,-2.7 24.9099,-2.4 1.92,-0.2 3.64,1.2 3.83,3.1 0.19,2 -1.22,3.7 -3.14,3.9 -4.77,1.2 -9.4099,3.1 -14.2599,5.2 -3.72,1.5 -7.3,3.4 -10.99,5.1 -3.72,1.8 -7.33,3.7 -10.96,5.3 -4.77,2.1 -9.42,3.8 -13.6599,5.5 -12.27,4.9 -20.88,8.4 -20.88,8.4 z"
     id="path5046"
     style="stroke:none;stroke-width:0.2" /><path
     d="m 1202.0182,17917.909 c -1.71,0.9 -3.83,0.3 -4.74,-1.4 -0.9,-1.7 -0.24,-3.9 1.47,-4.8 0,0 5.49,-4.9 14.9,-9.8 2.02,-1.1 4.2199,-2 6.5999,-2.8 1.47,-0.5 3.01,-1 4.62,-1.3 2.91,-0.6 5.95,-0.8 9.05,-0.8 2.88,0 5.69,0.2 8.57,0.7 4.32,0.8 8.35,1.9 12.39,3.6 1.89,0.4 3.1099,2.3 2.73,4.1 -0.39,1.9 -2.25,3.2 -4.14,2.8 -3.57,0 -6.86,0.7 -10.35,1.4 -2.75,0.5 -5.3,1.3 -7.97,2 -2.71,0.6 -5.31,1.5 -7.9,2 -3.5,0.8 -6.83,1.2 -9.8799,1.7 -9.14,1.5 -15.35,2.6 -15.35,2.6 z"
     id="path5048"
     style="stroke:none;stroke-width:0.2" /><path
     d="m 1375.2678,18051.609 c -0.68,-1.9 0.23,-3.9 2.04,-4.6 1.8099,-0.7 3.8299,0.3 4.5199,2.1 18.22,45.7 22.41,89.5 11.36,124.5 -8.86,28 -27.4899,50.5 -56.3698,64.1 -22.39,10.4 -64.1999,8.8 -104.1598,-4.1 -16.6699,-5.4 -32.9999,-12.8 -47.4099,-21.9 -15.9799,-10.1 -29.5599,-22.5 -38.8799,-36.5 -9.43,-14.4 -33.1699,-44.7 -59.1598,-77.1 -39.1699,-48.8 -83.4798,-102.3 -93.3898,-112.8 -7.48698,-7.9 -11.99397,-14.7 -14.48696,-22.2 -3.32699,-10 -3.06899,-21.3 -1.21,-38.6 0.172,-1.9 1.876,-3.4 3.80299,-3.2 1.927,0.2 3.352,1.9 3.18,3.8 -0.913,12.8 -1.144,22 0.52599,29.9 1.86,8.7 6.25799,15.6 14.73798,23.9 10.27,10.3 56.6598,62.5 97.2797,110.6 27.21,32.3 51.7699,62.6 61.6399,77 8.29,12.3 20.4599,22.8 34.4999,31.7 13.36,8.4 28.4399,15.2 43.8099,20.4 35.7899,12.1 73.1998,15.5 93.4998,6.5 32.2399,-14.1 50.4698,-40.8 56.2298,-74.2 5.03,-29.3 0.76,-63.6 -12.0599,-99.3 z"
     id="path5050"
     style="stroke:none;stroke-width:0.2" /><path
     d="m 1264.728,18272.909 c 4.65,-0.4 10.25,0.1 14.6,3.1 3.56,2.5 6.28,6.9 6.98,14.3 l 2.68,30.6 c 0.57,5.6 -1.23,9.9 -4.11,13.1 -3.56,4 -9.6,6.3 -17.09,6.4 l -36.8799,0.7 c -8.86,-0.3 -15.2099,-4 -19.3999,-9 -4.86,-5.8 -6.85,-13.4 -6.44,-19.6 0.21,-2.8 0.15,-12.3 0.43,-18.4 0.13,-2.5 0.3,-4.6 0.54,-5.7 0.66,-2.9 1.6,-9.2 8.54,-13.7 3.9899,-2.6 10.1999,-4.9 20.3299,-4.8 z m 0.17,7 -29.6399,0.2 c -5.55,0.4 -9.37,1.6 -12.06,3.1 -4.31,2.4 -4.2,6 -4.4,7.5 l 0.97,22.3 c -0.03,2.9 1.13,6.3 3.48,8.9 1.77,1.9 4.44,3.2 8.03,3.2 l 36.7799,0.7 c 2.52,0.1 4.76,0.1 6.35,-0.9 1.04,-0.6 1.66,-1.7 1.63,-3.2 l 0.39,-31 c 0.08,-4 -0.65,-6.5 -2.36,-8.1 -2.55,-2.2 -6.18,-2.6 -9.17,-2.7 z"
     id="path5052"
     style="stroke:none;stroke-width:0.2" /><path
     d="m 1264.808,18276.409 c 6.72,-0.2 16.07,1 16.56,14.1 0.18,4.9 0.91,26.9 1.15,30.8 0.49,8.2 -5.74,12 -14.59,11.8 -5.6,-0.1 -32.9499,0.1 -36.8299,0 -13.7499,-0.3 -18.9899,-12.1 -18.6799,-20.4 0.14,-3.7 -0.63,-19.7 0,-23.1 0.63,-3.5 1.57,-13.9 22.6599,-14.6 4.2,-0.2 23.0099,1.5 29.7299,1.4 z"
     id="path5054"
     style="stroke:none;stroke-width:0.2" /><path
     d="m 1303.4979,18294.909 c 0.41,0.1 0.93,0.1 1.23,0.1 l -1.28,-0.2 c -0.14,-0.3 -0.28,-0.5 -0.44,-0.3 -0.06,0.1 -0.08,0.1 -0.06,0.2 l -21.8399,-4 c -1.93,0 -3.54,-1.5 -3.59,-3.4 -0.05,-2 1.47,-3.6 3.41,-3.6 0,0 7.3,-2 14.68,-3.3 3.9299,-0.6 7.7299,-0.8 10.2899,-0.9 4.03,0.1 7.57,2 10.11,5.8 1.25,1.8 2.35,4.2 2.85,7.1 0.54,3.2 0.79,6.9 0.33,11.1 -0.52,4.6 -1.58,9.5 -3.03,14.8 -0.14,1.9 -1.82,3.4 -3.75,3.3 -1.93,-0.2 -3.38,-1.9 -3.24,-3.8 -0.75,-6.5 -2.15,-12.3 -3.55,-17.1 -0.49,-1.8 -1.13,-3.2 -1.68,-4.6 -0.14,-0.3 -0.28,-0.8 -0.44,-1.2 z m 0,0 c -0.29,0 -0.52,-0.1 -0.55,-0.2 l 0.5,0.1 c 0.02,0 0.04,0.1 0.05,0.1 z"
     id="path5056"
     style="stroke:none;stroke-width:0.2" /><path
     d="m 1211.7482,18300.609 c 1.92,-0.3 3.67,1.1 3.9,3 0.23,2 -1.14,3.7 -3.06,3.9 -30.6,4.1 -51.6899,4 -64.5399,-0.6 -12.2199,-4.4 -17.8799,-12.5 -18.1399,-24.4 -0.23,-11.5 -7.61,-20.9 -19.71,-29.3 -13.41,-9.3 -32.5399,-17 -55.3298,-23.7 -30.35,-9 -59.4599,-13.2 -84.67884,-16.9 -23.32794,-3.5 -43.44489,-6.6 -58.45785,-12.2 -15.71796,-6 -26.19694,-14.8 -30.55093,-28.5 -5.47998,-17.2 0.145,-30.1 12.31697,-40.4 8.14998,-7 19.61295,-12.7 32.51892,-17.7 15.51896,-6 33.18892,-11.2 49.05288,-17.1 11.19397,-4.1 21.46895,-8.5 29.16895,-14 5.45,-3.9 9.6,-8.2 11.18,-13.6 2.7699,-9.5 -2.29,-19.5 -10.45,-29.9 -19.27498,-24.8 -56.64888,-50.6 -82.57582,-72.9 -10.44897,-9 -19.11495,-17.4 -24.33894,-25.1 -4.04499,-5.9 -6.14798,-11.4 -6.11098,-16.4 0.17,-22.8 18.87595,-38.1 44.42089,-46.6 31.25592,-10.4 72.28485,-11.1 94.85475,-6.5 1.9,0.3 3.16,2.1 2.8,4 -0.35,1.9 -2.19,3.2 -4.09,2.8 -21.6699,-3.7 -60.84283,-2 -90.43976,8.7 -20.57895,7.4 -36.77791,19 -36.44691,37.6 0.055,3 1.806,6.3 4.38799,9.8 4.93899,6.9 13.10797,14.4 22.82794,22.4 27.07893,22.3 65.82084,48.1 86.04074,73.2 11.87,14.7 17.35,29.4 13.61,43 -2.35,8.5 -8.21,15.8 -16.6499,22 -8.61,6.3 -20.07999,11.6 -32.67796,16.3 -15.74696,6 -33.31392,11.2 -48.76088,17.2 -11.08697,4.3 -21.05595,9 -28.09593,14.9 -7.21598,6 -10.86798,13.5 -7.72898,23.7 2.85799,9.3 10.52097,14.8 21.17094,19 30.71293,12.1 83.93281,13.1 141.33261,31.5 23.95,7.7 43.9399,16.5 57.8999,26.7 14.94,10.9 23.2199,23.5 23.1399,37.9 -0.07,10.2 6.37,15.8 19.52,18.4 12.21,2.4 29.5799,2.2 52.6899,-0.2 z"
     id="path5058"
     style="stroke:none;stroke-width:0.2" /></g>&#10;</svg>
