<?xml version="1.0" encoding="UTF-8" standalone="no"?>
<svg
   width="2909.9006"
   height="2018.3997"
   viewBox="0 0 2909.9007 2018.3997"
   version="1.1"
   xml:space="preserve"
   style="clip-rule:evenodd;fill-rule:evenodd;stroke-linejoin:round;stroke-miterlimit:2"
   id="svg5353"
   xmlns="http://www.w3.org/2000/svg"
   xmlns:svg="http://www.w3.org/2000/svg"><defs
   id="defs5353" />&#10;    <g
   id="vectorly-UNI-folder-2"
   style="stroke:none;stroke-width:0.2"
   transform="matrix(4.9999999,0,0,4.9999999,-8305.5103,-41261.612)"><path
     d="m 1968.9463,8493.9326 c -1.91,0.32 -3.72,-0.96 -4.04,-2.87 -0.32,-1.91 0.97,-3.72 2.88,-4.04 0,0 18.6599,-5.11 42.8199,-10.72 5.51,-1.28 11.29,-2.51 17.2199,-3.69 3.81,-0.77 7.66,-1.53 11.54,-2.13 9.92,-1.55 19.88,-2.7 29.1199,-3.7 24.64,-2.68 43.9499,-3.99 43.9499,-3.99 1.9,-0.32 3.71,0.97 4.03,2.88 0.32,1.9 -0.97,3.71 -2.88,4.03 0,0 -18.6699,5.06 -42.8399,10.55 -9.0599,2.06 -18.8499,4.22 -28.7399,6 -3.86,0.69 -7.75,1.22 -11.6,1.75 -5.99,0.81 -11.8599,1.53 -17.4899,2.12 -24.67,2.57 -43.9699,3.81 -43.9699,3.81 z"
     id="path2160"
     style="stroke:none;stroke-width:0.2" /><path
     d="m 2107.3359,8335.0327 c 0.43,-1.92 1.17,-5.42 1.57,-8.31 1.32,-9.75 2.57,-22.53 5.25,-31.35 1.97,-6.51 5.05,-11.15 8.49,-13.19 6.43,-3.79 48.0499,-13.81 79.2198,-18.32 14.24,-2.06 26.3499,-2.92 32.2099,-1.89 3.12,0.55 5.2,1.73 6.36,2.91 0.65,0.66 1.38,1.64 1.85,3.12 0.54,1.65 0.9,4.98 0.77,9.75 -0.39,13.95 -4.07,43.2 -9.4,77.92 -11.0999,72.2899 -29.2699,168.3999 -38.7099,198.4999 -0.57,1.85 -2.53,2.9 -4.38,2.34 -1.85,-0.57 -2.89,-2.53 -2.33,-4.38 6.64,-22.58 17.44,-82.24 26.58,-141.04 8.12,-52.2399 14.9099,-103.7999 16.1399,-128.0499 0.18,-3.44 0.1,-6.99 0.02,-9.17 -1.46,-0.11 -3.59,-0.22 -5.5499,-0.14 -10.52,0.47 -27.07,3.2 -43.5699,6.56 -23.84,4.84 -47.6499,10.83 -52.1899,13.6 -0.57,0.35 -0.75,1.2 -1.14,2.1 -0.95,2.2 -1.67,5 -2.29,8.08 -1.97,9.82 -2.76,22.2 -4.06,30.18 -0.79,4.86 -2.05,8.47 -3.29,10.26 -0.58,0.84 -2.33,2.59 -5.9,3.82 -3.92,1.35 -12.2999,3.33 -23.7799,5.67 -49.8899,10.15 -160.4096,28.2599 -207.6395,39.4999 -6.27,1.49 -13.46,2.1 -16.77,3.31 0.07,-0.21 0.13,-0.37 0.17,-0.46 -0.05,0.12 -0.11,0.27 -0.17,0.46 -1.45,0.53 -2.15,1.17 -1.7,2.06 0.56,1.09 1.25,-0.76 1.64,-1.87 -2.9899,9.42 -16.1499,84.87 -24.6899,150.69 -4.24,32.63 -7.34,62.8999 -7.29,81.6899 0.02,4.88 0.22,8.92 0.72,11.93 0.08,0.5 0.21,1.05 0.34,1.53 2.02,-0.05 5.31,-0.55 9.68,-1.12 23.8999,-3.16 73.3398,-13.32 127.2797,-25.21 91.9898,-20.2699 196.9895,-45.5699 210.6795,-50.5499 1.81,-0.68 3.8299,0.24 4.5099,2.05 0.68,1.81 -0.24,3.83 -2.0499,4.51 -15.44,5.95 -147.6997,40.4099 -245.9394,63.1199 -42.4999,9.83 -78.6598,17.43 -96.3398,19.71 -7.05,0.91 -11.76,0.76 -13.63,0.19 -2.64,-0.81 -5.68,-3.39 -7.2099,-8.85 -2.24,-7.96 -2.26,-25.9 -0.58,-48.8899 3.5599,-48.44 14.0299,-120.33 21.6199,-165.23 3.99,-23.56 7.4,-39.94 8.49,-42.5 0.69,-1.6 3.26,-4.74 9,-6.88 7.8299,-2.94 24.9799,-6.96 46.9298,-11.32 56.4999,-11.2099 145.5297,-25.2999 185.1696,-33.2599 7.22,-1.45 12.71,-2.64 15.9099,-3.58 z m -242.5394,61.7799 c -0.02,0.06 -0.04,0.12 -0.06,0.19 0.02,-0.07 0.04,-0.13 0.06,-0.19 z"
     id="path2162"
     style="stroke:none;stroke-width:0.2" /><path
     d="m 1836.3466,8342.3027 c -1.04,5.93 -0.3,20.46 0.79,37.7599 2.6,41.5 8.68,97.83 8.68,97.83 0.26,1.92 -1.08,3.68 -3,3.94 -1.92,0.26 -3.68,-1.08 -3.94,-3 0,0 -9.18,-56.2 -13.74,-97.74 -1.53,-13.93 -2.5,-26.2199 -2.54,-34.3099 -0.02,-4.86 0.43,-8.46 1.05,-10.44 0.46,-1.45 1.54,-3.17 3.64,-4.8 1.67,-1.28 4.56,-2.77 8.6,-4.3 9.86,-3.71 27.9099,-8.32 50.5799,-13.02 10.36,-2.15 21.6999,-4.35 33.6699,-6.42 27.4099,-4.75 58.0799,-9.29 87.6398,-13.23 64.3598,-8.59 123.3997,-14.41 132.2197,-14.82 1.93,-0.14 3.61,1.31 3.75,3.24 0.14,1.93 -1.31,3.61 -3.24,3.75 -7.88,0.79 -55.9499,8.7 -111.9798,18.3 -24.2499,4.15 -49.9798,8.64 -74.5898,12.96 -19.7799,3.48 -38.8299,6.86 -55.7798,9.99 -23.71,4.39 -43.2599,8.24 -54.7099,11.71 -2.89,0.87 -5.78,2.04 -7.1,2.6 z m 0.39,-1.59 c 0,-0.01 0,-0.01 0,-0.01 z"
     id="path2164"
     style="stroke:none;stroke-width:0.2" /><path
     d="m 1867.5465,8389.1426 c 0.44,1.88 -0.72,3.77 -2.61,4.21 -1.88,0.45 -3.7699,-0.72 -4.2099,-2.61 -3.1,-10.97 -7.24,-22.1 -6.83,-30.5499 0.3,-6.33 2.95,-11.32 8.6599,-14.71 3.18,-1.87 23.49,-7.42 51.7099,-13.73 15.15,-3.39 32.5999,-7.1 50.8599,-10.59 8.06,-1.54 16.29,-2.97 24.5299,-4.35 12.43,-2.08 24.9,-4.01 36.9199,-5.81 50.2399,-7.52 92.5298,-13 92.5298,-13 1.91,-0.34 3.73,0.94 4.06,2.85 0.33,1.9 -0.95,3.72 -2.85,4.05 0,0 -33.3799,7.41 -76.0598,16.48 -16.05,3.41 -33.3799,7.09 -50.7699,10.57 -10.6799,2.13 -21.3899,4.18 -31.8099,6.07 -11.08,2.02 -21.8399,3.82 -31.8999,5.53 -14.62,2.49 -27.7399,4.66 -38.2399,6.51 -13.12,2.31 -21.94,3.8 -23.91,4.77 -3.7,1.81 -4.44,5.42 -4.33,9.74 0.19,7.1799 2.62,15.9399 4.25,24.5699 z"
     id="path2166"
     style="stroke:none;stroke-width:0.2" /><path
     d="m 1827.0466,8646.0925 c 1.46,-1.26 3.68,-1.1 4.94,0.37 1.26,1.47 1.09,3.68 -0.38,4.94 -3.71,3.31 -7.27,2.96 -10.6799,-0.41 -5.96,-5.87 -11.59,-28.25 -15.94,-58.9899 -6.21,-43.91 -10.79,-105.23 -13.7,-157.71 -3.03,-54.75 -4.23,-99.7999 -4.62,-104.9699 -0.69,-9.96 3.67,-16.99 14.45,-22.19 9,-4.34 23.8199,-7.34 44.8399,-11.01 11.37,-1.9 38.8999,-6.33 73.0498,-11.54 33.2299,-5.06 72.7198,-10.89 109.6497,-16.18 61.5699,-8.83 115.9998,-16.1 122.6497,-16.08 7.67,0.02 13.63,2.34 17.74,5.87 5.34,4.59 7.75,11.18 6.75,17.91 -0.25,1.91 -2.01,3.27 -3.93,3.01 -1.92,-0.25 -3.27,-2.01 -3.02,-3.93 0.49,-4.27 -1.17,-8.38 -4.64,-11.16 -3,-2.4 -7.34,-3.73 -12.79,-3.56 -4.22,0.12 -27.8299,3.96 -60.2498,9.4 -41.5299,6.96 -97.3398,16.7 -145.5397,25.05 -44.8098,7.75 -83.0298,14.27 -96.9297,16.83 -15.48,2.74 -27.3399,4.98 -35.7199,7.81 -2.97,1 -5.43,2.04 -7.36,3.29 -2.14,1.38 -3.29,3.02 -3.14,5.43 0.32,5.5 1.19,55.8899 3.22,115.2499 1.3,37.7 3,79.02 5.69,114.71 2.51,33.25 5.74,61.5599 10.23,77.3099 1.2499,4.38 2.5099,7.71 3.9699,9.73 0.5,0.69 0.86,1.31 1.46,0.82 z"
     id="path2168"
     style="stroke:none;stroke-width:0.2" /><path
     d="m 1800.9067,8499.9026 c 1.84,-0.59 3.81,0.43 4.4,2.27 0.59,1.84 -0.43,3.82 -2.27,4.4 l -121.6897,44.23 c -2.19,0.95 -3.74,1.95 -4.39,3.34 -0.54,1.15 0.11,2.38 0.81,3.74 2.17,4.21 6.84,8.45 13.02,12.37 5.8,3.82 20.2499,14.53 37.8399,27.01 17.7399,12.5899 38.6799,27.0199 57.6198,37.1899 11.5,6.18 22.14,10.89 30.77,12.5 4.9,0.92 9.0399,1 12.0899,-0.66 1.66,-1 3.81,-0.45 4.8,1.21 1,1.66 0.45,3.81 -1.21,4.8 -4.11,2.67 -9.89,3.48 -16.8899,2.69 -9.46,-1.08 -21.37,-5.23 -34.2299,-11.13 -20.01,-9.17 -42.3899,-22.5 -61.0899,-34.5699 -17.95,-11.58 -32.4199,-21.99 -38.2799,-25.6 -11.94,-7.68 -19.26,-17.03 -20.73,-24.91 -1.6199,-8.75 1.82,-17.17 14.04,-22.02 3.55,-1.38 25.46,-8.24 50.2599,-15.52 31.0099,-9.1 66.4898,-18.93 75.1298,-21.34 z"
     id="path2170"
     style="stroke:none;stroke-width:0.2" /><path
     d="m 1801.9667,8503.2326 c 5.12,81.09 13.56,157.3699 27.3599,145.5099 0.22,0.18 0.45,0.3 0.7,0.38 0.23,0.07 0.53,0.13 0.87,0.17 -26.2899,15.71 -126.4097,-60.8399 -144.3996,-72.3199 -17.99,-11.48 -24.51,-26.37 -8.07,-33.19 7.87,-3.27 108.2597,-35.67 123.5397,-40.55 z"
     id="path2172"
     style="stroke:none;stroke-width:0.2" /></g>&#10;</svg>
