<?xml version="1.0" encoding="UTF-8" standalone="no"?>
<svg
   width="3282.2395"
   height="2181.4421"
   viewBox="0 0 3282.2395 2181.4421"
   version="1.1"
   xml:space="preserve"
   style="clip-rule:evenodd;fill-rule:evenodd;stroke-linejoin:round;stroke-miterlimit:2"
   id="svg5353"
   xmlns="http://www.w3.org/2000/svg"
   xmlns:svg="http://www.w3.org/2000/svg"><defs
   id="defs5353" />&#10;    <g
   id="vectorly-UNI-bag"
   style="stroke:none;stroke-width:0.2"
   transform="matrix(4.9999999,0,0,4.9999999,-20435.501,-4775.4413)"><path
     d="m 4546.6328,1379.2167 c -1.73,0.86 -3.83,0.15 -4.69,-1.59 -0.86,-1.73 -0.15,-3.83 1.58,-4.69 1.24,-0.64 1.84,-2.03 2.32,-3.77 1.08,-3.95 0.93,-9.52 0.19,-15.96 -1.26,-10.83 -4.34,-23.94 -7.34,-36.12 -15.42,-63.2399 -34.4699,-155.0799 -55.4499,-220.9199 -8.1799,-25.68 -16.5699,-47.34 -25.3399,-61.4699 -3.13,-5.06 -6.25,-9.08 -9.46,-11.77 -1.97,-1.66 -3.88,-2.77 -5.89,-2.85 -2.1199,-0.08 -4.0499,1.12 -6.0599,2.85 -3.37,2.91 -6.55,7.38 -9.72,13 -8.85,15.6599 -16.85,39.7199 -24.26,67.5899 -9.7699,36.76 -18.3199,80.06 -25.2099,120.01 -9.76,56.67 -16.2999,106.5999 -18.2899,121.7499 -1.67,12.62 -0.57,19.62 3.8299,23.63 5.6,5.09 14.95,5.53 25.81,7.26 25.6399,4.06 49.5799,5.81 70.1898,6.33 42.1899,1.07 70.3798,-3 70.3798,-3 1.91,-0.3 3.71,1 4.01,2.91 0.31,1.91 -1,3.71 -2.91,4.02 0,0 -28.5899,4.95 -71.5898,4.95 -20.9999,0 -45.4099,-1.2 -71.6098,-4.7 -13.48,-1.8 -24.77,-3.14 -31.8299,-9.28 -6.48,-5.63 -10.23,-15.29 -8.22,-33.57 1.69,-15.25 7.06,-65.5699 15.9699,-122.6399 6.33,-40.53 14.38,-84.47 24.07,-121.72 9.36,-35.92 20.4499,-65.7099 32.3099,-81.0899 7.48,-9.69 15.75,-14.2 23.8199,-13.8 7.21,0.36 14.66,4.69 21.53,13.33 7.43,9.36 14.73,24.15 21.5999,42.6999 10.17,27.44 19.7,63.31 28.46,101.25 12.1999,52.86 22.9099,109.76 32.3999,153.2499 3.28,15.15 6.6,31.67 6.83,43.81 0.2,10.43 -2.35,17.87 -7.43,20.3 z"
     id="path998"
     style="stroke:none;stroke-width:0.2" /><path
     d="m 4697.4424,1182.2568 c -0.4,1.89 -2.27,3.1 -4.16,2.69 -1.89,-0.4 -3.1,-2.27 -2.69,-4.16 1.52,-8.17 11.35,-57.1 15.88,-101.23 1.48,-14.5 2.41,-28.47 2.2,-40.2499 -0.17,-10.21 -1.09,-18.63 -3.58,-23.86 -3.41,-7.24 -10.88,-16.93003 -18.99,-25.13003 -4.7199,-4.77 -9.6699,-9.02999 -14.2799,-11.85999 -1.61,-0.99 -3.17,-1.79 -4.63,-2.32 -0.93,-0.34 -1.75,-0.68 -2.48,-0.54 -8.84,1.59 -46.9899,8.92999 -89.4098,16.62999 -62.6198,11.36003 -134.4396,23.71003 -134.4396,23.71003 -1.9,0.38 -3.75,-0.85 -4.13,-2.75 -0.38,-1.89 0.85,-3.74 2.74,-4.12 0,0 71.0098,-16.41003 133.1696,-30.10002 42.1499,-9.28 80.2298,-17.2 89.0298,-19.03 3.62,-0.71 7.96,-0.18 12.64,1.82 5.48,2.33 11.7799,6.79 17.8799,12.43 11.29,10.44999 22.08,24.90999 26.57,35.00002 4.59,10.52 4.98,31.06 2.32,54.6999 -5.37,47.89 -21.41,109.14 -23.64,118.37 z"
     id="path1000"
     style="stroke:none;stroke-width:0.2" /><path
     d="m 4495.8629,1003.6969 c -0.99,1.66 -3.14,2.2 -4.81,1.22 -1.66,-0.99 -2.2,-3.15 -1.21,-4.81 2.88,-5.99003 7.33,-16.59002 15.47,-25.04002 4.83,-5.01 11.01,-8.92 18.5299,-11.24 5.51,-1.54 10.62,-2.99 15.43,-4.13 3.68,-0.86999 7.17,-1.58999 10.48,-2.14999 5.94,-1.02 11.29,-1.63 16.0999,-2 10.83,-0.83 18.98,-0.5 25.23,0.72 15.1199,2.94999 20.2799,10.00999 23.7299,20.40999 0.76,1.78 -0.07,3.84 -1.85,4.6 -1.78,0.76 -3.84,-0.07 -4.6,-1.85 -3.6,-6.78 -7.8799,-11.03 -18.6699,-11.5 -4.79,-0.21 -10.68,0.43 -18.22,1.64 -5.43,0.87 -11.6099,2.18 -18.7999,3.64 -3.18,0.65 -6.56,1.29 -10.14,1.95 -4.76,0.89 -9.87,1.72 -15.36,2.78 -6.9999,1.13 -12.5999,4.56 -17.1299,8.66999 -6.57,5.97 -11.16,12.92 -14.18,17.09003 z"
     id="path1002"
     style="stroke:none;stroke-width:0.2" /><path
     d="m 4728.4623,1239.6468 c 1.57,-1.12 3.76,-0.75 4.88,0.83 1.13,1.57 0.76,3.76 -0.82,4.88 0,0 -22.7899,18.64 -52.5098,41.69 -6.8,5.2699 -13.98,10.6999 -21.36,16.1799 -4.74,3.53 -9.54,7.09 -14.43,10.52 -12.5099,8.76 -25.2299,17.18 -37.0399,24.94 -31.4299,20.63 -56.4698,36.12 -56.4698,36.12 -1.58,1.12 -3.77,0.75 -4.89,-0.82 -1.13,-1.58 -0.76,-3.77 0.82,-4.89 0,0 22.8299,-18.59 52.6199,-41.54 11.1899,-8.63 23.3099,-17.89 35.6799,-26.84 4.84,-3.5 9.7799,-6.87 14.6599,-10.2 7.59,-5.1799 15.08,-10.1899 22.28,-14.8799 31.5099,-20.54 56.5798,-35.99 56.5798,-35.99 z"
     id="path1004"
     style="stroke:none;stroke-width:0.2" /><path
     d="m 4737.6223,1226.6468 c -0.43,1.88 -2.32,3.05 -4.2,2.62 -1.89,-0.44 -3.06,-2.33 -2.62,-4.21 1.09,-6.98 2.38,-19.72 -1.32,-45.89 -1.06,-7.44 -2.55,-15.92 -4.26,-25.73 -0.9399,-5.34 -1.8699,-11.07 -2.8999,-17.23 -1.32,-7.96 -2.73,-16.59 -4.41,-26.01 -2.11,-11.84 -4.41,-24.8 -7.44,-39.13 -0.53,-1.86 0.54,-3.8 2.4,-4.34 1.86,-0.53 3.8,0.54 4.34,2.4 3.57,9.63 6.81,18.57 9.6199,27.09 3.26,9.92 6.02,19.07 8.29,27.61 1.77,6.65 3.27,12.89 4.4,18.78 1.32,6.89 2.18,13.28 2.79,19.16 1.05,10.04 1.33,18.62 1.21,25.98 -0.34,21.64 -3.91,32.59 -5.9,38.9 z"
     id="path1006"
     style="stroke:none;stroke-width:0.2" /><path
     d="m 4666.7325,1165.7368 c -2.77,0.62 -6.48,2.24 -10.09,4.03 -2.69,1.32 -7.14,2.81 -9.08,4.21 0.68,2.85 2.34,7.69 4.36,13.5 4.14,11.93 9.82,27.58 13.48,39.08 2.34,7.36 3.83,13.15 3.88,15.62 0,0.33 -0.09,0.97 0.4,1.1 0.57,0.14 1.27,0.15 2.15,-0.15 1.54,-0.54 3.38,-1.53 5.53,-3.23 1.45,-1.29 3.66,-1.17 4.95,0.27 1.29,1.44 1.17,3.66 -0.27,4.95 -5.29,5.33 -9.66,6.62 -12.69,6.61 -6.02,-0.02 -8.84,-5.28 -9.29,-8.89 -0.37,-2.93 -4.1,-10.91 -8.4,-20.46 -4.81,-10.67 -10.5299,-22.99 -14.5199,-32.33 -2.06,-4.84 -3.62,-8.93 -4.47,-11.65 -0.75,-2.42 -0.93,-4.25 -0.91,-5.27 0.04,-2.33 1.12,-5.33 3.84,-8.25 2.87,-3.07 8.3399,-6.74 14.2399,-9.55 5.86,-2.79 12.08,-4.76 16.13,-5.14 4.72,-0.45 8.02,1.03 9.69,2.74 2.65,2.75 5.49,7.01 7.97,12.43 3.6099,7.89 6.9099,18.23 9.2599,28.68 2.4,10.68 3.89,21.38 4.05,29.53 0.13,6.63 -0.64,11.7 -2.22,14.21 -0.93,1.7 -3.06,2.32 -4.76,1.4 -1.7,-0.93 -2.32,-3.06 -1.39,-4.76 0.89,-1.9 0.49,-5.53 -0.16,-10.17 -1.07,-7.55 -3.68,-17.31 -6.9599,-27.01 -2.18,-6.45 -4.72,-12.81 -7.31,-18.46 -2.46,-5.36 -4.94,-9.99 -7.41,-13.04 z m -19.32,8.35 c -0.8,0.63 -1.09,1.23 -0.48,1.79 0.6,0.55 0.51,-0.94 0.48,-1.79 z m 0.04,-0.61 c 0.05,-0.23 0.12,-0.52 -0.08,-0.5 -0.11,0.02 0.02,0.24 0.05,0.38 0.01,0.04 0.02,0.08 0.03,0.12 z m 17.55,-9.59 c -0.01,-0.01 -0.01,-0.01 -0.02,-0.02 0.01,0.01 0.01,0.01 0.02,0.02 z"
     id="path1008"
     style="stroke:none;stroke-width:0.2" /><path
     d="m 4653.6898,1210.7444 c -1.7273,0.8626 -3.8473,0.1708 -4.7215,-1.5471 -0.8682,-1.7309 -0.1796,-3.8334 1.5538,-4.709 0,0 3.2301,-3.7243 8.5032,-8.2044 1.1455,-0.9757 2.3466,-1.8642 3.6777,-2.743 0.8372,-0.5607 1.6905,-1.1143 2.6191,-1.5407 2.4008,-1.0707 4.8636,-1.7372 7.236,-2.3332 6.6665,-1.6868 11.5757,-2.1157 11.5757,-2.1157 1.7334,-0.8756 3.8474,-0.1708 4.7216,1.5471 0.8682,1.7309 0.1735,3.8464 -1.5538,4.709 0,0 -3.272,3.6902 -8.5886,8.0571 -1.8907,1.5452 -3.9197,3.1398 -6.2114,4.431 -0.883,0.4935 -1.8293,0.8337 -2.7755,1.1738 -1.5057,0.5511 -2.9407,0.9916 -4.3813,1.3198 -6.7479,1.5726 -11.655,1.9553 -11.655,1.9553 z"
     id="path1010"
     style="stroke:none;stroke-width:0.31686" /><path
     d="m 4660.5025,1225.5768 c 1.93,-0.03 3.53,1.52 3.55,3.45 0.03,1.94 -1.52,3.53 -3.46,3.56 -8.19,0.44 -20.2499,-7.29 -34.3699,-20.8 -10.85,-10.37 -23.1499,-24.07 -36.1599,-39.53 -7.31,-8.68 -14.83,-17.92 -22.43,-27.42 -6.2199,-7.79 -12.5199,-15.74 -18.7599,-23.73 -4.14,-5.3 -8.24,-10.62 -12.3,-15.92 -16.3899,-21.36 -32.4599,-41.87 -47.5699,-57.87 -11.6599,-12.3399 -22.4999,-22.0899 -32.4099,-27.3299 -5.74,-3.03 -11.01,-4.64 -15.8499,-4.03 -1.91,0.32 -3.71,-0.97 -4.03,-2.88 -0.32,-1.91 0.97,-3.72 2.88,-4.03 14.8599,-3.06 35.3199,9.08 57.6798,29.96 16.42,15.3299 34.0999,35.2199 51.5599,56.4399 4.27,5.19 8.5,10.48 12.65,15.82 6.2399,8.02 12.3499,16.15 18.3299,24.15 7.25,9.69 14.29,19.22 21.06,28.26 11.8499,15.84 22.7999,30.13 32.6199,41.06 6.88,7.65 13.0399,13.67 18.5099,17.28 3.19,2.11 5.98,3.48 8.5,3.56 z"
     id="path1012"
     style="stroke:none;stroke-width:0.2" /><path
     d="m 4403.0331,1081.8568 c -1.6599,1 -3.8099,0.47 -4.8099,-1.19 -1,-1.65 -0.47,-3.81 1.19,-4.81 7.1399,-5.67 16.1499,-10.09 26.1499,-12.88 3.75,-1.05 7.62,-1.71 11.52,-2.15 2.61,-0.29 5.2299,-0.47 7.8299,-0.39 6.8,0.19 13.42,1.37 19.41,3.31 11.1,3.6 20.0099,9.4 24.8499,16.98 1.23,1.5 1.01,3.71 -0.48,4.94 -1.49,1.23 -3.7,1.01 -4.93,-0.48 -3.5899,-3.36 -8.5999,-5.23 -14.3299,-6.71 -5.01,-1.29 -10.53,-1.73 -16.36,-1.98 -3.27,-0.13 -6.62,-0.1 -10,-0.09 -3.3399,0.01 -6.6999,-0.03 -10.0599,0.12 -4.12,0.18 -8.16,0.39 -12.14,0.95 -6.45,0.9 -12.48,2.07 -17.84,4.38 z"
     id="path1014"
     style="stroke:none;stroke-width:0.2" /><path
     d="m 4486.4629,1082.9568 c -14.9499,-18.14 -60.4298,-19.07 -85.2397,-4.1 12.1299,-39.6399 26.1699,-67.2199 41.6698,-66.5299 15.45,0.69 30.04,29.38 43.5699,70.6299 z"
     id="path1016"
     style="stroke:none;stroke-width:0.2" /><path
     d="m 4375.7032,1190.3668 c 1.9,0.35 3.16,2.18 2.81,4.08 -0.35,1.9 -2.18,3.16 -4.08,2.81 -7.27,-1.17 -38.6199,-6.8 -66.5498,-8.59 -11.36,-0.73 -22.13,-0.83 -30.3599,0.37 -4.36,0.63 -7.89,1.55 -10.07,3.18 -1.08,0.81 -6.88,4.06 -14.1,7.96 -13.3299,7.18 -31.6899,16.76 -31.6899,16.76 -1.51,0.76 -3.25,0.92 -4.88,0.46 0,0 -6.21,-1.65 -12.82,-2.17 -3.57,-0.28 -7.3499,-0.54 -9.5999,0.88 -11.78,7.38 -19.62,12.07 -24.75,16.36 -4.33,3.62 -5.98,6.82 -6.34,12.24 -0.19,2.43 -1.52,4.64 -3.5899,5.94 0,0 -19,12.16 -35.27,23.8 -9.1799,6.56 -17.5799,12.73 -20.1499,16.3599 -3.4,4.73 0.64,8.57 6.42,12.75 8.53,6.17 21.6299,11.76 36.6899,16.51 51.4099,16.52 92.7098,27.98 124.9497,35.64 44.9699,10.68 72.0398,13.87 84.2898,12.04 1.91,-0.32 3.72,0.96 4.05,2.87 0.32,1.91 -0.97,3.72 -2.87,4.04 -12.6,2.4 -40.7899,0.64 -87.6998,-8.73 -32.7399,-6.54 -74.6698,-16.86 -126.9797,-31.83 -21.27,-6.22 -39.0099,-14.38 -47.9799,-23.21 -5.32,-5.25 -7.92,-10.95 -8.03,-16.62 -0.08,-4.14 1.16,-8.3999 4.18,-12.6799 2.54,-3.59 9.4,-9.57 17.95,-15.86 13.8099,-10.17 32.0099,-21.74 39.1699,-26.23 1.02,-5.83 3.18,-10.23 7.1,-14.46 5.3299,-5.77 14.7799,-11.27 31.4199,-21.14 3.02,-1.79 7.18,-2.77 11.76,-2.85 7.0699,-0.12 15.2199,1.68 19.2599,2.71 l 42.6999,-21.02 c 6.45,-4.45 20.3099,-5.95 36.6399,-4.93 30.4999,1.9 70.0898,10.84 78.4198,12.56 z"
     id="path1018"
     style="stroke:none;stroke-width:0.2" /><path
     d="m 4375.0632,1193.8168 c -12.15,67.93 -19.8799,133.0299 -22.0199,150.7299 -1.64,13.54 0.05,21.62 4.16,26.66 -21.21,3.6 -86.8098,-6.12 -211.9595,-44.12 -34.0599,-10.35 -58.6999,-25.08 -47.4699,-40.8899 7.45,-10.5 57.8099,-42.09 57.8099,-42.09 1.1,-14.37 8.3699,-17.84 35.0599,-34.11 7.93,-4.83 27.9999,0.92 27.9999,0.92 0,0 42.3499,-21.25 45.3999,-23.44 17.5199,-12.59 98.7097,4.07 111.0197,6.34 z"
     id="path1020"
     style="stroke:none;stroke-width:0.2" /></g>&#10;</svg>
