<?xml version="1.0" encoding="UTF-8" standalone="no"?>
<svg
   width="2831.541"
   height="2608.9631"
   viewBox="0 0 2831.541 2608.9631"
   version="1.1"
   xml:space="preserve"
   style="clip-rule:evenodd;fill-rule:evenodd;stroke-linejoin:round;stroke-miterlimit:2"
   id="svg5353"
   xmlns="http://www.w3.org/2000/svg"
   xmlns:svg="http://www.w3.org/2000/svg"><defs
   id="defs5353" />&#10;    <g
   id="vectorly-UNI-candle"
   style="stroke:none;stroke-width:0.2"
   transform="matrix(4.9999999,0,0,4.9999999,-8594.5982,-8327.4242)"><path
     d="m 1930.5664,1811.3453 c 0.58,-1.85 2.54,-2.88 4.39,-2.3 1.85,0.58 2.88,2.54 2.3,4.39 -0.57,3.87 -0.21,11.73 0.07,21.56 0.08,2.78 0.13,5.66 0.14,8.66 0.01,1.89 0.05,3.8 -0.05,5.73 -0.25,4.74 -0.75,9.52 -1.06,14.27 -0.49,7.68 -1.09,14.91 -0.26,21.37 0.53,1.86 -0.56,3.8 -2.42,4.33 -1.86,0.52 -3.8,-0.56 -4.33,-2.42 -2.95,-6.54 -5.26,-14.23 -6.63,-22.61 -0.84,-5.08 -1.32,-10.28 -1.29,-15.41 0.02,-2.08 0.23,-4.13 0.46,-6.13 0.37,-3.18 0.85,-6.22 1.49,-9.11 2.3,-10.45 5.31,-18.52 7.19,-22.33 z"
     id="path320"
     style="stroke:none;stroke-width:0.2" /><path
     d="m 1941.7764,1847.4153 c -1.9,0.39 -3.76,-0.82 -4.15,-2.72 -0.4,-1.89 0.82,-3.75 2.71,-4.14 20.2399,-5.28 28.6099,-13.77 31.1999,-24.18 1.46,-5.87 1,-12.2 0.17,-18.65 -0.89,-6.96 -2.38,-14.01 -3.24,-20.7699 -0.59,-4.72 -0.84,-9.3 -0.55,-13.64 -1.08,0.47 -2.15,0.94 -3.22,1.4 -6.68,2.92 -12.9,5.66 -18.56,8.41 -14.4699,7.0399 -25.2699,13.6799 -31.1799,21.7899 -8.36,11.48 -6.02,25.17 7.93,45.09 1.18,1.53 0.89,3.73 -0.64,4.91 -1.53,1.18 -3.74,0.9 -4.92,-0.63 -19.6999,-23.29 -21.7099,-40.89 -12.4,-56.08 6.14,-10.0099 17.88,-19.1499 34.32,-28.3099 5.7299,-3.2 12.0599,-6.41 18.9599,-9.61 6,-2.79 12.46,-5.5 19.27,-8.38 3.32,-1.4 7.1599,-0.39 9.3599,2.46 2.21,2.85 2.22,6.83 0.03,9.69 -2.66,3.35 -3.5799,7.46 -3.8599,11.94 -0.31,5.1 0.18,10.61 0.7399,16.2499 1.27,12.78 2.82,26.13 -1.0899,37.44 -4.4,12.69 -15.03,23.63 -40.8799,27.73 z"
     id="path322"
     style="stroke:none;stroke-width:0.2" /><path
     d="m 1911.9764,1857.8853 c 14.67,4.26 25.92,6.86 36.0399,12.64 9.62,5.5 18.12,13.84 27.35,28.79 2.32,3.86 2.23,7.29 1.31,10.12 -1.13,3.5 -4.44,6.65 -10.04,8.38 -5.84,1.8 -15.24,2.09 -25.4199,0.61 -7.73,-1.13 -15.91,-3.34 -23.25,-6.27 -20.1999,-8.79 -33.3399,-19.72 -40.8599,-30.11 -6.53,-9.03 -9.11,-17.65 -8.86,-24.2 0.21,-5.64 2.2,-10.04 5.47,-12.66 5.2,-4.19 10.42,-4.28 16.04,-1.54 6.42,3.14 13.4699,10.71 22.2199,14.24 z m 49.9399,45.91 c -6.3,-11.9 -12.47,-19.04 -19.7099,-24.13 -8.96,-6.31 -19.23,-9.76 -32.53,-15.16 -9.1199,-2.67 -16.9699,-9.5 -23.7199,-12.02 -1.9,-0.71 -3.62,-0.8 -5.18,0.7 -1.34,1.3 -1.21,3.6 -0.76,6.28 0.94,5.68 5.08,12.53 12.52,19.49 7.15,6.69 17.3999,13.22 31.3799,18.44 10.14,4.2 22.2299,6.57 31.3399,6.75 2.53,0.05 4.8,-0.01 6.66,-0.35 z"
     id="path324"
     style="stroke:none;stroke-width:0.2" /><path
     d="m 1891.2965,2095.6352 c -0.13,-0.12 -0.25,-0.23 -0.37,-0.35 0.09,0.09 0.39,0.24 0.37,0.35 z m 0,0 c 1.71,1.49 4.31,2.48 7.32,3.36 4.8499,1.43 10.6899,2.23 16.7599,2.58 10.79,0.62 22.29,-0.2 30.4099,-2.23 2.44,-0.62 5.34,-1.9 6.44,-2.41 3.71,-19.3 6.32,-47.02 8.4,-75.3999 4.19,-57.26 5.83,-117.15 5.83,-117.15 0,-1.93 1.57,-3.5 3.51,-3.5 1.93,0 3.5,1.57 3.5,3.5 0,0 1.65,60.18 -0.26,117.82 -0.99,29.8899 -3.07,59.0599 -6.38,78.9799 -0.58,3.36 -3.11,7.03 -8.21,9.74 -5.76,3.07 -16.0199,5.46 -27.4099,6.33 -11.99,0.92 -25.24,0.22 -35.3699,-2.44 -6.99,-1.84 -12.62,-4.73 -16.15,-8.27 -2.3,-2.33 -5.05,-8.51 -6.7,-18.08 -2.33,-13.51 -3.91,-35.05 -4.73,-59.76 -2.22,-67.6099 0.68,-159.1499 2.33,-172.6999 0.2,-1.92 1.92,-3.33 3.84,-3.13 1.93,0.19 3.33,1.91 3.14,3.84 -0.95,11.91 0.18,84.03 3.45,146.85 1.61,30.9099 3.7,59.5299 6.61,77.4799 0.83,5.08 1.68,9.25 2.65,12.24 0.33,1.02 0.43,2.75 0.98,2.39 0.02,-0.01 0.04,-0.03 0.04,-0.04 z m 60.6398,2.81 c 0,0.01 0,0.01 -0.01,0.01 0.01,0 0.01,0 0.01,-0.01 z"
     id="path326"
     style="stroke:none;stroke-width:0.2" /><path
     d="m 1966.7063,1905.6753 c -0.71,-1.79 0.17,-3.83 1.97,-4.55 1.79,-0.71 3.83,0.17 4.54,1.97 5.11,9.77 9.53,18.41 13.0699,26.49 2.94,6.71 5.29,12.85 7.13,18.52 1.5,4.64 2.65,8.95 3.45,12.93 1.66,8.26 2.11,15.06 2,20.55 -0.29,14.99 -5.05,21.66 -10.19,23.75 -5.3099,2.17 -12.0099,0.45 -17.2699,-4.19 -1.58,-1.13 -1.95,-3.31 -0.83,-4.89 1.13,-1.58 3.32,-1.95 4.89,-0.82 2.98,1.68 6.27,2.68 8.5999,1.13 0.68,-0.45 0.81,-1.4 1.17,-2.49 0.87,-2.65 0.66,-6.42 -0.01,-11.75 -0.61,-4.81 -2.0599,-10.59 -3.8599,-17.81 -0.92,-3.68 -1.89,-7.72 -2.97,-12.16 -1.35,-5.57 -2.81,-11.71 -4.51,-18.54 -2.1,-8.41 -4.26,-17.7 -7.18,-28.14 z"
     id="path328"
     style="stroke:none;stroke-width:0.2" /><path
     d="m 1810.9067,1796.0653 c -1.33,0.59 -2.88,-0.02 -3.46,-1.35 -0.58,-1.33 0.02,-2.88 1.36,-3.46 0,0 1.04,-0.87 3.52,-2.26 1.12,-0.62 2.31,-0.78 3.98,-1.08 1.19,-0.21 2.43,0 3.85,0.26 0.51,0.1 1.04,0.27 1.54,0.53 1.1099,0.57 2.1999,1.28 3.1499,2.38 0.59,0.67 1.16,1.24 1.63,2.11 0.91,1.69 1.68,3.09 2.29,5.38 0.9,1.13 0.72,2.79 -0.41,3.69 -1.13,0.91 -2.78,0.73 -3.69,-0.4 -1.34,-0.67 -2.36,-0.79 -3.5499,-1.22 -0.86,-0.32 -1.6,-0.28 -2.35,-0.53 -0.68,-0.23 -1.35,-0.19 -1.91,-0.44 -0.85,-0.37 -1.36,-1.03 -2.02,-1.35 -2.68,-1.28 -3.93,-2.26 -3.93,-2.26 z"
     id="path330"
     style="stroke:none;stroke-width:0.2" /><path
     d="m 1912.6164,1713.0154 c 1.19,-0.84 2.83,-0.57 3.67,0.61 0.84,1.18 0.57,2.83 -0.61,3.67 0,0 -0.42,2.04 -1.65,5.87 -0.35,1.08 -0.51,2.31 -1.07,3.6 -0.36,0.84 -0.98,1.56 -1.48,2.45 -0.34,0.61 -0.76,1.08 -1.15,1.72 -0.95,1.57 -1.97,2.84 -2.86,4.81 -0.09,1.44 -1.35,2.54 -2.8,2.44 -1.45,-0.1 -2.5399,-1.35 -2.4399,-2.8 -0.63,-2.04 -0.89,-3.64 -1.13,-5.5 -0.19,-1.39 -0.13,-2.56 -0.04,-3.83 0.1,-1.48 0.41,-2.81 0.88,-4.04 0.28,-0.72 0.66,-1.36 1.0799,-1.94 0.71,-1.01 1.37,-1.88 2.17,-2.59 1.29,-1.15 2.28,-1.97 3.41,-2.58 2.65,-1.44 4.02,-1.89 4.02,-1.89 z"
     id="path332"
     style="stroke:none;stroke-width:0.2" /><path
     d="m 2003.3862,1705.4854 c -0.41,-1.39 0.39,-2.85 1.78,-3.26 1.4,-0.4 2.86,0.4 3.26,1.79 0,0 1,1.27 2.51,3.93 0.49,0.86 0.81,1.71 1.21,2.82 0.34,0.94 0.51,1.92 0.65,3.01 0.09,0.67 0.13,1.37 0.04,2.07 -0.16,1.3 -0.52,2.58 -1.12,3.82 -0.43,0.9 -0.78,1.71 -1.41,2.51 -1.43,1.83 -2.6,3.37 -4.68,4.7 -0.84,1.19 -2.48,1.47 -3.66,0.63 -1.19,-0.84 -1.47,-2.48 -0.63,-3.67 0.41,-1.71 0.01,-3.06 -0.04,-4.72 -0.02,-0.62 -0.21,-1.14 -0.22,-1.74 -0.03,-0.87 -0.26,-1.69 -0.19,-2.52 0.1,-1.27 0.52,-2.38 0.77,-3.46 0.83,-3.74 1.73,-5.91 1.73,-5.91 z"
     id="path334"
     style="stroke:none;stroke-width:0.2" /><path
     d="m 2039.0361,1666.5754 c 0.83,-1.16 2.45,-1.44 3.63,-0.62 1.19,0.83 1.48,2.47 0.65,3.66 0,0 1.22,0.27 2.72,2.9 0.23,0.4 0.63,0.74 0.82,1.3 0.17,0.53 0.06,1.12 0.16,1.78 0.07,0.48 -0.04,0.88 0,1.42 0.11,1.4 -0.09,2.4 0.16,4.11 0.87,1.16 0.63,2.81 -0.53,3.68 -1.16,0.87 -2.81,0.63 -3.68,-0.53 -1.83,-0.84 -2.79,-1.51 -4.15,-2.43 -0.67,-0.46 -1.06,-0.91 -1.57,-1.43 -0.81,-0.83 -1.32,-1.7 -1.7,-2.6 -0.23,-0.56 -0.35,-1.14 -0.38,-1.69 -0.05,-1.07 -0.16,-1.92 0.07,-2.77 0.43,-1.57 0.52,-2.57 1.19,-3.5 0.5,-0.7 0.57,-1.2 1.03,-1.62 0.81,-0.74 0.97,-1.19 1.3,-1.37 0.14,-0.07 0.22,-0.14 0.2,-0.19 -0.58,-1.28 -0.38,-0.97 0.08,-0.1 z"
     id="path336"
     style="stroke:none;stroke-width:0.2" /><path
     d="m 2093.096,1785.2853 c -1.22,-0.78 -1.58,-2.41 -0.8,-3.63 0.79,-1.22 2.41,-1.57 3.64,-0.79 0,0 1.57,0.37 4.39,1.63 0.94,0.43 1.62,1.05 2.59,1.81 0.95,0.75 1.6199,1.78 2.3599,2.95 0.29,0.45 0.52,0.96 0.67,1.51 0.35,1.28 0.58,2.65 0.37,4.11 -0.14,0.96 -0.17,1.82 -0.58,2.79 -0.79,1.88 -1.3799,3.47 -3.0299,5.34 -0.43,1.39 -1.91,2.16 -3.29,1.72 -1.39,-0.43 -2.16,-1.91 -1.72,-3.29 -0.18,-1.4 -0.76,-2.22 -1.12,-3.36 -0.21,-0.63 -0.64,-1 -0.85,-1.57 -0.28,-0.75 -0.91,-1.22 -1.14,-1.89 -0.31,-0.87 -0.19,-1.72 -0.41,-2.47 -0.87,-2.99 -1.08,-4.86 -1.08,-4.86 z"
     id="path338"
     style="stroke:none;stroke-width:0.2" /><path
     d="m 2033.6861,1894.9853 c 0.52,0.18 1.82,0.21 1.82,0.21 l -1.63,-0.57 c -1.14,-0.9 -1.33,-2.55 -0.43,-3.69 0.9,-1.14 2.56,-1.33 3.7,-0.43 0,0 1.17,0.64 3.42,3.15 0.75,0.85 1.22,1.91 1.95,3.42 0.61,1.27 0.96,2.77 1.25,4.7 0.14,0.85 0.2,1.77 0.09,2.75 -0.13,1.22 -0.46,2.51 -1,3.87 -0.47,1.18 -0.97,2.28 -1.72,3.53 -0.97,1.61 -1.93,3.01 -3.28,4.79 -0.43,1.38 -1.91,2.16 -3.29,1.72 -1.39,-0.43 -2.16,-1.9 -1.73,-3.29 -0.09,-2.39 -0.41,-4.15 -0.58,-6.09 -0.07,-0.83 -0.2,-1.53 -0.23,-2.29 -0.04,-1.17 -0.21,-2.21 -0.13,-3.18 0.14,-1.56 0.61,-2.77 0.79,-3.87 0.44,-2.69 1.13,-3.93 1,-4.73 z m 0,0 c -0.27,-0.09 -0.33,-0.23 0.07,-0.41 0.06,-0.03 -0.15,0.13 -0.1,0.29 0.01,0.04 0.02,0.08 0.03,0.12 z"
     id="path340"
     style="stroke:none;stroke-width:0.2" /><path
     d="m 1995.0462,2078.3652 c -1.93,-0.11 -3.41,-1.77 -3.29,-3.7 0.11,-1.94 1.77,-3.41 3.7,-3.29 46.4199,1.86 78.2298,8.74 96.6998,17.35 11.77,5.48 18.4399,12.06 20.9799,18.26 2.92,7.12 1.27,14.39 -5.3,21.04 -9.3599,9.47 -31.1899,17.88 -64.5098,21.23 -19.31,1.84 -52.0599,3.84 -88.0298,4.48 -19.1799,0.35 -39.2799,0.32 -58.7198,-0.27 -39.8799,-1.23 -77.0098,-4.79 -98.3598,-11.03 -27.0399,-8.04 -48.3699,-16.99 -56.8398,-25.53 -4.95,-4.99 -6.49,-10.15 -5.1,-15.02 1.26,-4.43 5.4699,-9.4 14.4699,-13.55 17.8,-8.2 57.1599,-15.65 127.3697,-21.02 1.93,-0.18 3.64,1.23 3.82,3.16 0.19,1.92 -1.23,3.64 -3.15,3.82 -59.4098,6.7 -95.9898,13.95 -115.7497,21.37 -6.53,2.45 -11.01,4.83 -13.64,7.3 -1.15,1.08 -1.68,2.06 -1.04,3.13 1.85,3.09 6.44,5.8 12.63,8.78 10.16,4.9 24.4899,9.6 41.0499,14.02 20.6699,5.62 56.5399,7.81 94.9598,8.67 19.2399,0.43 39.1199,0.53 58.0998,0.39 35.5399,-0.26 67.9199,-1.31 87.0298,-2.76 23.9499,-1.71 41.4499,-6.07 51.7999,-12.04 6.39,-3.69 10.06,-7.4 8.38,-11.95 -1.64,-4.44 -6.72,-8.63 -14.88,-12.81 -17.45,-8.94 -47.8199,-16.51 -92.3798,-20.03 z"
     id="path342"
     style="stroke:none;stroke-width:0.2" /><path
     d="m 2005.6262,2107.2552 c -4.49,-2.17 -9.78,-4.24 -15.3,-6 -10.1299,-3.23 -20.9199,-5.52 -29.3699,-5.1 -1.92,0.21 -3.65,-1.18 -3.86,-3.1 -0.22,-1.92 1.17,-3.66 3.1,-3.87 9.19,-1.57 21.34,-0.65 32.8299,1.66 13.4,2.71 25.69,7.62 31.7999,12.2 3.93,3.03 4.92,6 5.2,7.8 0.58,3.82 -1.17,7.52 -6.7199,9.5 -2.65,0.95 -7.52,1.4 -12.95,1.88 -4.73,0.42 -10.06,0.81 -13.69,2.6 -5.24,2.41 -12.93,4.67 -22.0599,6.1 -14.7,2.32 -33.1699,3 -49.9499,2.18 -15.54,-0.76 -29.5799,-2.89 -38.0299,-6.13 -5.02,-1.93 -8.31,-4.33 -9.57,-6.91 -0.95,-1.68 -0.36,-3.82 1.32,-4.77 1.69,-0.96 3.83,-0.36 4.78,1.32 0.86,1.32 3.08,1.88 5.95,2.63 8.1,2.11 21.2099,2.41 35.5899,1.79 13.5,-0.57 27.9999,-2.21 40.5599,-4.32 10.28,-1.73 19.1799,-3.66 24.6899,-6.29 4.28,-1.9 10.02,-2.82 15.68,-3.17 z m 11.57,0.55 c 1.24,-0.07 1.96,-0.39 1.73,-1.2 -0.29,-1.01 -1.09,0.1 -1.73,1.2 z m -1.75,5.5 c -0.07,1.25 0.22,2.09 1.27,1.28 0.24,-0.18 -0.43,-0.53 -0.78,-0.85 -0.15,-0.14 -0.32,-0.28 -0.49,-0.43 z"
     id="path344"
     style="stroke:none;stroke-width:0.2" /><path
     d="m 2104.7459,2116.4052 c -0.15,-1.93 1.29,-3.62 3.22,-3.77 1.93,-0.14 3.62,1.3 3.76,3.23 2.11,19.49 -15.7899,33.3 -42.3099,42.2 -20.1499,6.76 -45.2199,10.91 -68.8898,13.29 -29.6999,2.99 -57.1099,3.18 -69.3598,3.53 -12.81,0.08 -35.0699,-0.58 -59.9499,-3.46 -29.3899,-3.39 -62.3998,-9.73 -87.9198,-20.04 -26.5099,-10.72 -44.8898,-26 -44.9198,-46.19 -0.06,-1.93 1.46,-3.55 3.3899,-3.61 1.94,-0.06 3.56,1.46 3.62,3.39 1.03,17.3 18.46,28.37 41.6699,36.36 25.1,8.65 57.1799,12.99 85.6198,15.33 24.22,2 45.8099,2.57 58.2399,2.25 12.08,-0.04 39.0799,0.09 68.4498,-1.74 22.88,-1.42 47.1899,-3.94 66.9298,-9.35 12.46,-3.41 23.08,-7.78 30.07,-13.87 5.47,-4.76 8.6899,-10.48 8.3799,-17.55 z"
     id="path346"
     style="stroke:none;stroke-width:0.2" /><path
     d="m 2104.476,2101.0052 c -0.24,1.91 -2,3.27 -3.92,3.02 -1.92,-0.25 -3.27,-2.01 -3.03,-3.92 3.64,-35.65 29.1199,-67.94 61.7298,-85.6199 20.04,-10.85 42.7999,-16.08 64.7599,-13.54 14.7699,1.71 29.1699,7.05 42.2898,16.44 14.35,10.5099 20.5,25.6299 18.58,41.9799 -2.1,17.8 -14.16,37.46 -36.2199,53.09 -14.65,10.37 -33.7299,19.09 -57.0699,24.26 -25.3699,5.62 -55.8098,7.08 -90.9897,2.14 -1.92,-0.22 -3.3,-1.96 -3.08,-3.88 0.22,-1.92 1.95,-3.3 3.88,-3.08 64.1098,5.79 110.8197,-9.33 138.8996,-30.81 14.16,-10.82 23.33,-23.22 27.1699,-35.3 4.37,-13.77 1.23,-27.02 -10.5399,-35.58 -10.75,-8.0199 -22.63,-12.5799 -34.8599,-14.3599 -19.15,-2.78 -39.0899,1.21 -57.0499,9.8999 -30.5499,14.79 -55.4699,42.87 -60.5498,75.26 z"
     id="path348"
     style="stroke:none;stroke-width:0.2" /><path
     d="m 2223.2157,2140.8952 c -0.58,-0.46 -1.43,-1.06 -2.3,-1.45 -2.29,-1.02 -5.4,-1.91 -9.44,-2.58 -6.46,-1.06 -15.11,-1.56 -26.3599,-1.07 -1.93,0.12 -3.6,-1.34 -3.73,-3.27 -0.12,-1.93 1.34,-3.6 3.27,-3.73 20.2999,-1.74 32.8799,0.04 39.5999,2.72 5.9299,2.37 8.1599,5.97 8.5299,8.77 0.49,3.77 -2.17,8.12 -8.5999,10.13 -7.1,2.22 -20.25,3.48 -35.32,4.11 -32.1799,1.36 -73.4698,-0.1 -79.0698,1.05 -4.51,0.9 -10.1799,3.91 -18.8899,7.56 -16.13,6.75 -41.6499,16.12 -86.0298,21.02 -18.42,2.03 -40.1499,3.26 -65.8098,3.11 -27.77,-0.17 -60.1699,-2.1 -98.0998,-5.99 -59.5798,-6.53 -95.5298,-16.77 -111.0497,-26.34 -8,-4.92 -11.17,-10.2 -10.99,-14.53 0.13,-3.08 1.64,-6.15 5.1,-8.74 4.81,-3.59 14.1,-6.61 27.6399,-8.07 1.92,-0.25 3.68,1.11 3.93,3.03 0.24,1.91 -1.11,3.68 -3.03,3.92 -9.02,1.38 -15.8799,3.3 -20.4299,5.63 -2.51,1.28 -4.22,2.5 -4.68,4.03 -0.29,0.95 0.48,1.77 1.44,2.79 2.49,2.65 7.12,5.19 13.8199,7.82 18.2,7.13 50.7599,13.62 99.4598,17.12 37.4899,2.94 69.4898,3.8 96.8798,3.61 25.0299,-0.17 46.1798,-1.34 64.1598,-3.14 68.4998,-6.85 91.2098,-23.68 104.1297,-25.95 5.79,-0.98 48.1599,1.71 81.2698,1.52 14.03,-0.07 26.3,-0.61 32.98,-2.42 0.53,-0.15 1.15,-0.42 1.62,-0.66 z"
     id="path350"
     style="stroke:none;stroke-width:0.2" /><path
     d="m 1752.1168,2127.0752 c 34.0699,34.42 143.3797,40.39 178.9196,39.82 28.5899,-0.45 140.2396,-0.03 169.9696,-31.52 32.1799,3.68 60.2098,2.06 83.8798,-3.08 44.5598,-2.9 49.9398,10.2 37.9999,13.69 -22.33,6.52 -106.0798,1.49 -114.3198,3.03 -20.1399,3.77 -63.5198,44 -266.9893,25.59 -124.3597,-11.25 -144.5296,-40.39 -89.4598,-47.53 z"
     id="path352"
     style="stroke:none;stroke-width:0.2" /></g>&#10;</svg>
