<?xml version="1.0" encoding="UTF-8" standalone="no"?>
<svg
   width="2679.7109"
   height="2996.2612"
   viewBox="0 0 2679.711 2996.2612"
   version="1.1"
   xml:space="preserve"
   style="clip-rule:evenodd;fill-rule:evenodd;stroke-linejoin:round;stroke-miterlimit:2"
   id="svg5353"
   xmlns="http://www.w3.org/2000/svg"
   xmlns:svg="http://www.w3.org/2000/svg"><defs
   id="defs5353" />&#10;    &#10;<g
   id="vectorly-UNI-gift-box"
   style="stroke:none;stroke-width:0.2"
   transform="matrix(4.9999999,0,0,4.9999999,-12518.362,-44696.12)"><path
     d="m 2636.9846,8977.7524 c -1.91,-0.29 -3.22,-2.09 -2.92,-4 0.29,-1.91 2.09,-3.22 4,-2.93 0,0 15.33,0.58 37.9399,13.48 4.26,2.43 8.7,5.4 13.32,8.91 2.7,2.05 5.46,4.29 8.16,6.84 5.85,5.51 11.69,12.12 17.4399,19.86 7.01,9.44 13.64,20.55 20.24,33.47 1.03,1.64 0.53,3.81 -1.11,4.83 -1.64,1.03 -3.8,0.53 -4.83,-1.11 -4.88,-6.39 -9.76,-12.07 -14.5,-17.42 -5.31,-6 -10.5099,-11.28 -15.4799,-16.15 -3.72,-3.63 -7.35,-6.92 -10.77,-10.07 -3.83,-3.53 -7.42,-6.82 -10.87,-9.79 -5.55,-4.77 -10.5899,-8.81 -15.2599,-12.1 -15.22,-10.75 -25.36,-13.82 -25.36,-13.82 z"
     id="path2496"
     style="stroke:none;stroke-width:0.2" /><path
     d="m 2874.004,9056.6124 c -0.75,1.78 -2.81,2.61 -4.5899,1.86 -1.78,-0.75 -2.62,-2.81 -1.86,-4.59 0,0 6.6199,-20.54 23.1099,-45.41 3.57,-5.38 7.67,-10.89 12.27,-16.42 2.86,-3.42 5.89,-6.86 9.2199,-10.16 7.79,-7.7 16.76,-15.02 26.75,-21.52 13.6899,-8.91 29.2799,-16.13 46.6499,-20.95 1.83,-0.64 3.83,0.32 4.47,2.15 0.64,1.83 -0.32,3.83 -2.15,4.47 -10.25,4.43 -19.48,9.89 -28.12,15.78 -9.1399,6.22 -17.2999,13.11 -24.8499,20.12 -4.82,4.47 -9.32,9.02 -13.62,13.48 -4.64,4.8 -9.05,9.48 -13.0999,14.09 -5.54,6.32 -10.5,12.35 -14.77,17.96 -12.73,16.73 -19.41,29.14 -19.41,29.14 z"
     id="path2498"
     style="stroke:none;stroke-width:0.2" /><path
     d="m 2944.0739,9172.3023 c -0.62,1.84 -2.61,2.82 -4.44,2.2 -1.83,-0.62 -2.82,-2.61 -2.2,-4.44 0,0 1.48,-6.98 6.39,-16.43 2.38,-4.59 5.61,-9.63 9.9099,-14.69 2.94,-3.45 6.42,-6.79 10.44,-9.92 2.47,-1.91 5.14,-3.75 8.08,-5.32 6.52,-3.48 14.12,-6.14 22.7499,-7.46 10.14,-1.56 21.55,-1.26 34.59,1.37 1.93,0.19 3.3399,1.91 3.1499,3.84 -0.19,1.92 -1.9099,3.33 -3.8399,3.14 -9.81,0.05 -18.28,1.5 -25.93,3.5 -4.31,1.14 -8.22,2.57 -11.9199,4.09 -4.03,1.64 -7.62,3.61 -11.05,5.51 -6.34,3.49 -11.78,7.21 -16.34,11.14 -13.3499,11.53 -19.5899,23.47 -19.5899,23.47 z"
     id="path2500"
     style="stroke:none;stroke-width:0.2" /><path
     d="m 2978.1138,9309.8223 c -1.93,-0.21 -3.32,-1.94 -3.11,-3.86 0.2,-1.92 1.93,-3.32 3.86,-3.11 0,0 7.53,-1.13 17.6599,-1.63 2.25,-0.11 4.58,-0.12 7,-0.05 1.53,0.04 3.09,0.09 4.63,0.3 3.96,0.54 7.81,1.47 11.4,2.39 9.78,2.51 16.9299,5.16 16.9299,5.16 1.93,0.21 3.32,1.94 3.11,3.86 -0.2,1.92 -1.93,3.32 -3.85,3.11 0,0 -7.5599,1.07 -17.6499,1.46 -3.7,0.13 -7.66,0.23 -11.65,-0.08 -1.55,-0.12 -3.08,-0.4 -4.59,-0.69 -2.37,-0.44 -4.64,-0.94 -6.83,-1.53 -9.7799,-2.64 -16.9099,-5.33 -16.9099,-5.33 z"
     id="path2502"
     style="stroke:none;stroke-width:0.2" /><path
     d="m 2535.2549,9123.7723 c -1.79,0.73 -3.84,-0.13 -4.57,-1.92 -0.73,-1.79 0.13,-3.84 1.92,-4.57 0,0 5.11,-2.97 13.57,-5.48 4.1599,-1.23 9.0299,-2.21 14.4999,-2.62 3.81,-0.29 7.84,-0.16 12.03,0.39 2.62,0.34 5.3,0.87 7.95,1.71 4.63,1.47 9.2599,3.67 13.7099,6.69 3.69,2.5 7.27,5.47 10.61,9.16 4.2,4.64 8.04,10.06 11.43,16.75 1.09,1.6 0.68,3.78 -0.91,4.87 -1.6,1.09 -3.79,0.68 -4.88,-0.92 -5.28,-5.97 -10.8,-10.13 -16.28,-13.5 -2.4,-1.48 -4.8,-2.63 -7.1699,-3.75 -3.77,-1.78 -7.54,-2.9 -11.14,-3.99 -5.52,-1.68 -10.73,-2.85 -15.62,-3.4 -14.2499,-1.59 -25.1499,0.58 -25.1499,0.58 z"
     id="path2504"
     style="stroke:none;stroke-width:0.2" /><path
     d="m 2508.2349,9258.2223 c -1.8499,0.58 -3.8199,-0.44 -4.3999,-2.29 -0.58,-1.84 0.44,-3.81 2.29,-4.39 0,0 7.7099,-4.4 19.5499,-8.17 2.57,-0.81 5.32,-1.48 8.23,-2.05 1.82,-0.35 3.7,-0.68 5.63,-0.8 4.68,-0.31 9.5199,-0.09 14.3299,0.6 7.44,1.07 14.44,3.15 20.86,6.28 1.86,0.56 2.91,2.52 2.35,4.37 -0.55,1.85 -2.51,2.9 -4.36,2.35 -4.19,-0.5 -8.37,-0.25 -12.77,0.03 -3.41,0.22 -6.72,0.74 -10.12,1.14 -3.4399,0.4 -6.8099,0.97 -10.1199,1.26 -4.38,0.39 -8.56,0.47 -12.4,0.66 -11.23,0.56 -19.07,1.01 -19.07,1.01 z"
     id="path2506"
     style="stroke:none;stroke-width:0.2" /><path
     d="m 2792.8742,9200.5523 c -6.4399,-20.59 -5.6799,-51.88 2.79,-75.79 7.45,-21 21.23,-35.8199 39.4799,-36.7299 9.54,-0.4 19.93,2.02 29.88,6.35 9.0699,3.9399 17.7599,9.4599 25.0499,15.5699 8.34,7 14.83,14.82 18.36,21.86 2.6999,5.41 3.7699,10.53 3.2199,14.88 -0.52,3.83 -3.6299,9.22 -9.8699,14.57 -9.6,8.25 -26.79,18.3 -44.6499,26.65 -22.16,10.37 -45.2299,18.16 -55.5099,17.85 -5.19,-0.16 -8.06,-2.27 -8.75,-5.21 z m 6.65,-2.24 c -0.05,-0.16 -0.11,-0.28 -0.17,-0.17 -0.07,0.11 0.02,0.16 0.17,0.17 z m 0.02,0 c 0.28,0.02 0.76,-0.05 1.08,-0.03 1.67,0.06 3.83,-0.33 6.4,-0.96 10.97,-2.7 28.1599,-10.61 44.8399,-19.79 13.65,-7.5 26.8699,-15.91 35.8599,-23.26 2.99,-2.44 5.47,-4.75 7.25,-6.84 0.86,-1.01 2.6,-2.44 1.78,-2.72 -0.03,-0.01 -0.05,0 -0.06,0.03 -0.01,0.09 -0.01,0.18 -0.02,0.28 0.01,-0.07 -0.01,-0.22 0.02,-0.28 0.15,-3.2 -2.22,-6.85 -5.29,-10.88 -4.4,-5.75 -10.89,-11.59 -18.26,-16.74 -11.5199,-8.05 -25.2699,-14.52 -37.6499,-14.4 -13.1899,-0.04 -22.2899,11.62 -28.5699,26.42 -9.08,21.39 -11.88,49.82 -7.38,69.17 z"
     id="path2508"
     style="stroke:none;stroke-width:0.2" /><path
     d="m 2801.2242,9201.0923 c 0.3,2.72 -2.47,6.89 -8.53,10.8 -8.4799,5.48 -23.6399,11.79 -39.7599,16.23 -12.9399,3.57 -26.4699,5.84 -37.6599,5.7 -7.0099,-0.08 -13.1499,-1.25 -17.9499,-3.33 -6.95,-3.06 -12.97,-8.94 -17.57,-16.56 -5.41,-8.97 -8.83,-20.46 -9.56,-32.04 -0.61,-9.75 0.7,-19.56 4.1,-28 3.95,-9.78 10.64,-17.78 20.2,-22.28 6.56,-3.04 14.44,-3.99 23.0199,-2.79 13.81,1.94 29.69,9.13 43.8099,19.08 21.84,15.38 39.3699,37.02 39.8999,53.19 z m -7,0.34 c 0.09,-0.11 0.11,-0.19 0,-0.25 -0.02,-0.01 -0.03,-0.01 -0.04,-0.01 -1.76,-14.19 -19.2099,-31.33 -39.2299,-43.59 -10.8999,-6.67 -22.6599,-11.78 -33.3999,-13.9 -7.77,-1.53 -14.9199,-1.47 -20.4499,1.4 -5.92,3.03 -9.69,8.39 -12.07,14.6 -2.47,6.46 -3.32,13.89 -2.94,21.3 0.46,9.1 2.73,18.19 6.73,25.38 2.75,4.96 6.17,9.11 10.51,11.25 4.33,2.17 10.3999,2.99 17.2899,3.05 9.16,0.08 19.62,-1.17 29.7699,-3.21 15.36,-3.09 29.99,-7.8 38.31,-12.3 1.8899,-1.02 3.4399,-1.97 4.5099,-2.93 0.3,-0.26 0.81,-0.56 1.01,-0.79 z"
     id="path2510"
     style="stroke:none;stroke-width:0.2" /><path
     d="m 2793.1042,9187.4623 c 0.39,0.7 0.75,1.39 1.09,2.08 -4.6999,-32.99 5.8,-81.4 31.2,-92.05 0,0 12.4099,52.14 -18.33,103.89 -4.28,0.82 -7.53,0.87 -9.33,-0.05 0.7,10.23 -72.1098,34.52 -97.3997,22.72 -0.31,-0.14 -0.61,-0.29 -0.91,-0.44 0,0 54.9598,-37.89 93.6797,-36.15 z"
     id="path2512"
     style="stroke:none;stroke-width:0.2" /><path
     d="m 2931.6339,9254.5123 c 1.49,-2.4 2.79,-6.84 4.01,-11.61 2.69,-10.48 4.6,-22.37 4.6,-22.37 0.19,-1.93 1.91,-3.33 3.84,-3.14 1.92,0.19 3.33,1.91 3.14,3.83 0,0 -0.69,15.7 -2.82,27.55 -1.02,5.68 -2.61,10.48 -4.24,13 -0.45,0.68 -1.34,1.52 -2.72,2.42 -1.97,1.29 -6.21,3.17 -12.18,5.31 -11.78,4.23 -30.7699,10.01 -51.4499,15.46 -6.3699,1.68 -12.9199,3.26 -19.4599,4.75 -6.59,1.5 -13.18,2.87 -19.58,4.15 -32.0099,6.42 -59.0498,10.96 -59.0498,10.96 -1.53,0.33 -3.13,-0.05 -4.34,-1.04 -1.21,-0.99 -1.9,-2.48 -1.87,-4.05 l 2.17,-31.73 c 0.03,-1.93 1.63,-3.47 3.57,-3.44 1.93,0.04 3.47,1.63 3.44,3.57 l 0.83,25.04 c 8.13,-2.24 23.7999,-6.51 42.1899,-11.39 10.1699,-2.7 21.1399,-5.63 32.1899,-8.33 11.02,-2.7 22.0899,-5.18 32.3199,-7.52 12.48,-2.86 23.71,-5.34 32.1599,-7.5 6.35,-1.62 11.03,-2.84 13.22,-3.9 0.01,0 0.02,-0.01 0.03,-0.02 z"
     id="path2514"
     style="stroke:none;stroke-width:0.2" /><path
     d="m 2618.3347,9260.4323 c -0.15,-0.17 -0.38,-0.39 -0.53,-0.47 -0.06,-0.03 -0.18,-0.28 -0.22,-0.17 -0.13,0.4 0.22,0.62 0.87,0.78 0.03,0.03 0.06,0.05 0.06,0.05 0,0 -0.02,-0.02 -0.04,-0.05 1.23,0.29 3.52,0.32 5.5,0.76 7.1599,1.57 18.5499,3.6 31.8999,6.23 6.32,1.25 13.07,2.65 20.0099,4.16 6.54,1.43 13.24,2.99 19.94,4.58 10.91,2.58 21.7699,5.26 31.8299,7.79 26.7799,6.74 47.6499,12.29 47.6499,12.29 1.9,0.37 3.13,2.22 2.76,4.11 -0.37,1.9 -2.22,3.14 -4.11,2.77 0,0 -21.46,-2.68 -48.7699,-6.93 -15.29,-2.38 -32.3899,-5.15 -48.5399,-8.26 -9.0299,-1.74 -17.7499,-3.64 -25.6899,-5.51 -21.61,-5.1 -37.6499,-10.03 -39.8399,-11.45 -1.2,-0.79 -2.58,-2 -3.66,-3.97 -1.28,-2.31 -2.58,-6 -3.54,-10.59 -3.59,-17.06 -4.75,-47.46 -4.75,-47.46 -0.18,-1.92 1.25,-3.63 3.17,-3.81 1.93,-0.17 3.63,1.25 3.81,3.18 0,0 2.75,18.46 6.4,34.18 1.8,7.7 3.71,14.67 5.79,17.79 z m 0,0 c 0.06,0.06 0.1,0.11 0.14,0.14 -0.01,0 -0.02,0 -0.02,0 -0.03,-0.03 -0.07,-0.07 -0.09,-0.1 -0.01,-0.01 -0.02,-0.03 -0.03,-0.04 z"
     id="path2516"
     style="stroke:none;stroke-width:0.2" /><path
     d="m 2618.0347,9208.1123 c 4.92,1.99 10.9099,4.15 17.2199,6.38 21.82,7.74 47.1399,15.88 47.1399,15.88 1.89,0.43 3.07,2.31 2.64,4.2 -0.44,1.88 -2.32,3.06 -4.2,2.63 0,0 -16.5299,-2.31 -34.7399,-5.96 -7.8,-1.56 -15.85,-3.37 -23.0499,-5.34 -8.43,-2.3 -15.67,-4.87 -20.12,-7.13 -3.66,-1.86 -5.9,-4.02 -6.95,-5.62 -2.01,-3.13 -2.21,-6.35 -0.42,-9.63 1.11,-2.03 4.05,-4.97 9.25,-7.02 6.58,-2.58 17.81,-5.15 29.6699,-7.07 21,-3.41 43.7499,-5.19 43.7499,-5.19 1.92,-0.3 3.71,1 4.02,2.91 0.3,1.92 -1.01,3.71 -2.92,4.01 0,0 -21.8399,5.32 -42.0299,11.02 -7.02,1.98 -13.7999,3.99 -19.2599,5.93 z m -8.14,3.23 c -0.81,0.29 -1.53,0.55 -1.24,0.91 0.57,0.69 0.97,0.04 1.24,-0.91 z m -0.35,-6.6 c -0.07,-0.11 -0.14,-0.23 -0.21,-0.34 -0.15,-0.22 -0.34,-0.98 -0.58,-0.72 -0.34,0.37 0.04,0.71 0.79,1.06 z"
     id="path2518"
     style="stroke:none;stroke-width:0.2" /><path
     d="m 2685.1545,9207.5723 c 1.76,-0.82 3.84,-0.06 4.66,1.69 0.82,1.75 0.06,3.84 -1.69,4.66 0,0 -9.99,6.81 -19.09,12.35 -2.9399,1.79 -5.7599,3.42 -8.0199,4.69 0.07,0.87 0.13,1.84 0.19,2.88 0.18,3.36 0.24,7.49 0.18,11.86 -0.2,13.94 -1.29,29.78 -1.29,29.78 0.16,1.93 -1.28,3.62 -3.21,3.78 -1.93,0.15 -3.62,-1.29 -3.77,-3.22 0,0 -3.62,-15.46 -6.05,-29.19 -0.76,-4.3 -1.37,-8.38 -1.73,-11.73 -0.51,-4.7 -0.54,-7.87 -0.54,-7.87 -0.27,-3.28 1.53,-6.37 4.51,-7.76 0,0 6.52,-2.65 14.13,-5.22 10.0899,-3.42 21.7199,-6.7 21.7199,-6.7 z"
     id="path2520"
     style="stroke:none;stroke-width:0.2" /><path
     d="m 2744.5244,9220.8223 c 1.81,-0.69 3.84,0.22 4.52,2.03 0.6899,1.81 -0.22,3.84 -2.03,4.52 0,0 -38.9999,16.6 -38.9999,16.6 0.56,8.6 2.0299,31.94 3.4399,61.51 0.64,13.45 1.26,28.19 1.69,43.4099 0.24,8.59 0.36,17.32 0.45,26.07 0.13,13.19 0.14,26.38 0.1,39.1 -0.19,53.16 -0.93,97.8 -0.93,97.8 0.05,1.93 -1.48,3.54 -3.41,3.59 -1.9299,0.05 -3.5399,-1.48 -3.5899,-3.41 0,0 -2.99,-44.55 -5.86,-97.63 -0.69,-12.7 -1.34,-25.88 -1.88,-39.06 -0.35,-8.74 -0.67,-17.47 -0.86,-26.05 -0.34,-15.2299 -0.47,-29.9799 -0.51,-43.4399 -0.11,-37.62 0.39,-65.2 0.39,-65.2 -0.06,-2.27 1.33,-4.34 3.46,-5.15 z"
     id="path2522"
     style="stroke:none;stroke-width:0.2" /><path
     d="m 2775.2443,9252.2323 c 0,0.01 0,0.01 0,0.02 0.27,2.07 5.99,-1.37 11.2,-2.78 3.6699,-1 7.9099,-2.19 12.5499,-3.43 5.87,-1.57 12.34,-3.24 19.05,-4.96 11.41,-2.94 23.4399,-5.97 34.1999,-8.68 19.2399,-4.84 34.2999,-8.52 34.2999,-8.52 1.84,-0.59 3.82,0.42 4.41,2.26 0.59,1.85 -0.42,3.82 -2.27,4.41 0,0 -21.8099,8.71 -46.3599,17.61 -10.46,3.79 -21.3499,7.66 -31.2899,10.78 -11.29,3.54 -21.2999,6.18 -27.7199,7.55 -5.28,1.12 -8.9,1.18 -10.16,0.9 -2.81,-0.68 -15.33,-4.37 -29.1299,-8.89 -19.95,-6.54 -42.5499,-14.59 -42.5499,-14.59 -1.86,-0.52 -2.96,-2.45 -2.44,-4.31 0.51,-1.87 2.44,-2.96 4.31,-2.45 z m 0,0 c -0.02,-0.34 0.64,0.13 0.84,0.17 z m 0.84,0.17 0.01,0.01 c 0,-0.01 -0.01,-0.01 -0.01,-0.01 z"
     id="path2524"
     style="stroke:none;stroke-width:0.2" /><path
     d="m 2856.3941,9238.5123 c 0.18,0.72 0.43,1.35 0.83,0.86 0.27,-0.33 -0.15,-0.59 -0.83,-0.86 -0.8,-0.3 -1.97,-0.61 -2.84,-1.05 -2.5,-1.24 -5.68,-2.64 -9.2,-4.26 -4.4,-2.04 -9.32,-4.38 -14.3299,-6.75 -4.91,-2.32 -9.82,-4.72 -14.45,-6.97 -12.09,-5.88 -21.73,-10.63 -21.73,-10.63 -1.82,-0.65 -2.78,-2.65 -2.14,-4.47 0.65,-1.83 2.65,-2.79 4.47,-2.15 0,0 14.61,3.24 30.61,8 6.8399,2.04 13.8799,4.31 20.0699,6.78 7.31,2.91 13.44,6.08 17.05,8.48 4.06,2.68 5.95,5.54 6.38,7.17 0.28,1.05 0.6099,2.64 0.5699,4.68 -0.05,2.87 -0.4599,7.09 -1.2599,11.83 -2.31,13.68 -6.95,31.73 -6.95,31.73 -0.29,1.91 -2.07,3.23 -3.99,2.94 -1.91,-0.29 -3.23,-2.08 -2.94,-3.99 0,0 0.61,-14.49 0.83,-27.3 0.1,-5.88 0.26,-11.28 -0.15,-14.04 z m 0,0 c -0.09,-0.53 -0.19,-0.96 -0.32,-1.28 0.09,0.23 0.19,0.78 0.32,1.28 z"
     id="path2526"
     style="stroke:none;stroke-width:0.2" /><path
     d="m 2899.964,9222.6923 c -2.27,-0.59 -6,-1.36 -10.56,-2.5 -5.54,-1.38 -12.25,-3.2 -19.2499,-5.17 -6.41,-1.81 -12.99,-3.82 -19.21,-5.74 -15.76,-4.87 -28.7499,-9.16 -28.7499,-9.16 -1.89,-0.42 -3.09,-2.29 -2.68,-4.18 0.42,-1.89 2.29,-3.09 4.18,-2.67 0,0 13.6299,1.53 29.9799,3.95 6.47,0.95 13.31,2.02 19.8899,3.25 7.24,1.35 14.13,2.8 19.75,4.23 6.67,1.69 11.62,3.42 13.67,4.29 2.04,0.9 3.94,2.25 5.2199,4.52 1.51,2.67 2.6,7.09 2.29,12.65 -0.31,5.41 -1.45,12.12 -3.07,18.73 -3.2599,13.35 -7.9299,26.15 -7.9299,26.15 -0.49,1.87 -2.41,2.99 -4.28,2.49 -1.87,-0.49 -2.99,-2.41 -2.49,-4.28 0,0 1.94,-11.94 3.15,-24.61 0.78,-8.28 1.24,-16.82 0.09,-21.95 z m 1.49,0.44 c 0,0 0.01,0.01 0.02,0.01 -0.01,0 -0.02,-0.01 -0.02,-0.01 z"
     id="path2528"
     style="stroke:none;stroke-width:0.2" /><path
     d="m 2936.0939,9206.4823 c 1.81,-0.67 3.83,0.26 4.49,2.08 0.67,1.82 -0.26,3.83 -2.08,4.5 0,0 -2.91,3.02 -7.86,6.62 -1.05,0.76 -2.14,1.43 -3.36,2.08 -0.75,0.4 -1.52,0.81 -2.35,1.07 -2.17,0.67 -4.36,0.92 -6.45,1.13 -6.03,0.58 -10.2199,0.2 -10.2199,0.2 -1.82,0.67 -3.83,-0.26 -4.5,-2.08 -0.67,-1.81 0.27,-3.83 2.08,-4.5 0,0 2.96,-2.99 7.9299,-6.45 1.73,-1.2 3.55,-2.42 5.65,-3.31 0.79,-0.34 1.64,-0.53 2.48,-0.71 1.35,-0.29 2.62,-0.49 3.91,-0.59 6.1,-0.47 10.28,-0.04 10.28,-0.04 z"
     id="path2530"
     style="stroke:none;stroke-width:0.2" /><path
     d="m 2848.1341,9189.0823 c -1.92,-0.29 -3.23,-2.09 -2.93,-4 0.3,-1.91 2.09,-3.22 4,-2.92 0,0 10.77,-0.26 25.4699,0.71 3.23,0.22 6.6,0.56 10.09,1.02 2.2,0.28 4.44,0.58 6.67,1.05 5.5,1.17 11.01,2.77 16.34,4.47 9.1299,2.92 17.3699,6.31 23.9899,9.24 1.86,0.54 2.92,2.49 2.38,4.34 -0.54,1.86 -2.49,2.93 -4.35,2.38 -6.95,-1.07 -15.59,-1.59 -24.8499,-2.6 -5.47,-0.59 -11.06,-1.19 -16.51,-2.12 -2.22,-0.38 -4.38,-0.91 -6.51,-1.42 -3.38,-0.81 -6.62,-1.66 -9.69,-2.56 -14.0199,-4.09 -24.0999,-7.59 -24.0999,-7.59 z"
     id="path2532"
     style="stroke:none;stroke-width:0.2" /><path
     d="m 2927.2839,9260.8223 c 0.12,-1.93 1.79,-3.39 3.72,-3.27 1.93,0.12 3.4,1.79 3.27,3.72 0,0 0.2,27.78 -0.51,63.26 -0.16,8.11 -0.44,16.5999 -0.8,25.2599 -0.24,5.57 -0.48,11.2 -0.88,16.83 -1.03,14.36 -2.45,28.69 -3.83,41.95 -3.67,35.29 -7.32,62.82 -7.32,62.82 -0.13,1.93 -1.79,3.4 -3.73,3.28 -1.93,-0.12 -3.39,-1.79 -3.27,-3.72 0,0 -0.14,-27.78 0.69,-63.25 0.31,-13.33 0.7,-27.71 1.5,-42.1 0.31,-5.63 0.79,-11.24 1.26,-16.8 0.74,-8.6299 1.53,-17.0899 2.4,-25.1599 3.78,-35.29 7.5,-62.82 7.5,-62.82 z"
     id="path2534"
     style="stroke:none;stroke-width:0.2" /><path
     d="m 2652.1446,9475.8422 c 1.1,0.67 6.37,3.85 11.24,6.37 14.1699,7.32 37.0799,17.81 58.6098,26.62 21.06,8.62 40.6099,15.97 48.7899,15.88 6.44,-0.04 21.0499,-4.62 38.1599,-10.58 39.3299,-13.71 90.8898,-35.27 90.8898,-35.27 1.76,-0.79 3.84,0 4.64,1.76 0.79,1.76 0,3.84 -1.76,4.63 0,0 -50.6599,24.49 -89.5598,40.11 -18.69,7.51 -34.8599,12.77 -42.0199,13.1 -10.67,0.43 -39.6899,-8.97 -67.5798,-20.41 -19.43,-7.97 -38.3199,-16.81 -49.9599,-23.06 -8.15,-4.37 -13.12,-8.3 -14.18,-9.93 -0.54,-0.82 -1.23,-2.17 -1.62,-4.18 -0.49,-2.56 -0.77,-7.69 -0.79,-14.81 -0.05,-14.86 0.64,-39.34 0.56,-67.05 -0.07,-21.24 -0.55,-44.38 -2.36,-66.5599 -1.86,-22.76 -5.01,-44.47 -10.4999,-61.96 -0.62,-1.84 0.36,-3.83 2.19,-4.45 1.8299,-0.63 3.8199,0.35 4.4499,2.18 8.49,23.06 13.49,53.65 16.33,84.5199 4.26,46.32 3.79,93.15 4.65,115.14 0.11,2.85 -0.25,5.98 -0.18,7.95 z m 0,0.17 c 0.06,1.23 0.29,1.96 0.96,1.8 0.69,-0.16 -0.49,-1.13 -0.69,-1.42 -0.05,-0.08 -0.16,-0.24 -0.27,-0.38 z"
     id="path2536"
     style="stroke:none;stroke-width:0.2" /><path
     d="m 2662.1246,9278.0023 c -0.17,-1.93 1.25,-3.63 3.18,-3.81 1.92,-0.17 3.63,1.26 3.7999,3.18 0,0 4.54,28.75 9.04,65.9699 1.02,8.47 1.96,17.37 2.83,26.48 0.56,5.83 1.11,11.74 1.48,17.68 0.96,15.06 1.45,30.2 1.73,44.38 0.58,30.1 -0.13,55.73 -1.7,67.08 -0.16,1.93 -1.86,3.36 -3.79,3.19 -1.93,-0.17 -3.36,-1.87 -3.19,-3.8 0.41,-11.23 -2.13,-36.26 -4.96,-65.69 -1.35,-14.04 -2.8599,-29.05 -4.0399,-44.03 -0.46,-5.91 -0.78,-11.82 -1.09,-17.65 -0.49,-9.11 -0.92,-18.03 -1.24,-26.53 -1.41,-37.4099 -2.05,-66.4499 -2.05,-66.4499 z"
     id="path2538"
     style="stroke:none;stroke-width:0.2" /><path
     d="m 2771.1243,9353.3322 c -0.06,-1.93 1.45,-3.55 3.39,-3.61 1.93,-0.07 3.55,1.45 3.62,3.39 0,0 2.7,23.26 4.57,53.62 0.43,6.88 0.73,14.1 0.94,21.5 0.12,4.73 0.23,9.53 0.16,14.35 -0.18,12.16 -0.87,24.38 -1.78,35.9 -1.81,22.97 -4.79,42.94 -8.07,53.9 -0.43,1.89 -2.32,3.06 -4.2,2.62 -1.89,-0.43 -3.06,-2.32 -2.62,-4.2 1.18,-7.26 1.45,-18.29 1.47,-31.47 0.01,-9.77 -0.24,-20.62 -0.45,-31.95 -0.14,-7 -0.32,-14.17 -0.33,-21.33 -0.01,-7.18 0.13,-14.36 0.31,-21.36 0.25,-10.04 0.63,-19.7 1,-28.51 1.04,-24.9 1.99,-42.85 1.99,-42.85 z"
     id="path2540"
     style="stroke:none;stroke-width:0.2" /><path
     d="m 2843.5541,9283.3123 c -0.02,-1.94 1.53,-3.53 3.46,-3.55 1.94,-0.02 3.52,1.54 3.54,3.47 0,0 2.26,29.18 3.95,66.8799 0.38,8.57 0.66,17.57 0.86,26.77 0.12,5.89 0.24,11.86 0.19,17.85 -0.13,15.16 -0.7,30.39 -1.38,44.63 -1.41,29.99 -3.61,55.53 -5.29,67.1 -0.18,1.93 -1.89,3.34 -3.82,3.16 -1.92,-0.18 -3.34,-1.89 -3.16,-3.82 0.52,-11.56 -0.54,-36.88 -1.39,-66.56 -0.4,-14.22 -0.85,-29.41 -0.95,-44.53 -0.04,-5.97 0.08,-11.93 0.19,-17.81 0.18,-9.19 0.41,-18.18 0.73,-26.74 1.41,-37.6699 3.07,-66.8499 3.07,-66.8499 z"
     id="path2542"
     style="stroke:none;stroke-width:0.2" /><path
     d="m 2883.274,9273.4823 c 0.06,-1.94 1.68,-3.46 3.61,-3.4 1.93,0.06 3.46,1.68 3.4,3.61 0,0 1.06,28.81 1.23,66.02 0.04,8.4499 -0.04,17.3199 -0.21,26.3899 -0.11,5.81 -0.23,11.69 -0.52,17.58 -0.73,14.92 -1.9,29.89 -3.13,43.9 -2.56,29.25 -5.7,54.21 -7.75,65.84 -0.24,1.92 -1.99,3.29 -3.91,3.05 -1.92,-0.24 -3.28,-1.99 -3.04,-3.91 0.86,-11.67 0.75,-36.57 1.06,-65.65 0.14,-14.03 0.29,-29 0.8,-43.89 0.2,-5.88 0.55,-11.75 0.9,-17.54 0.54,-9.03 1.14,-17.87 1.8,-26.2899 2.92,-37.06 5.76,-65.71 5.76,-65.71 z"
     id="path2544"
     style="stroke:none;stroke-width:0.2" /><path
     d="m 2547.4249,9377.6022 c -0.04,0.01 -0.06,0.04 -0.06,0.09 -0.04,0.04 -0.05,0.06 -0.05,0.06 0,0 0.02,-0.01 0.05,-0.03 0.03,0.19 0.32,0.6 0.43,0.87 0.3199,0.83 0.8499,1.71 1.5199,2.7 2.57,3.93 11.06,12.57 21.67,23.41 10.58,10.81 23.2499,23.61 35.3499,35.45 18.22,17.81 34.7899,33.62 40.6599,36.54 1.77,0.78 2.57,2.85 1.79,4.62 -0.77,1.77 -2.84,2.58 -4.61,1.8 -7.51,-2.89 -32.7399,-22.12 -56.8898,-42.85 -11.33,-9.72 -22.4,-19.75 -31.29,-28.41 -10.0699,-9.8 -17.3299,-18.03 -19.8599,-21.86 -5.96,-9.44 -4.84,-16.09 -1.43,-20.85 1.7,-2.37 4.13,-4.45 7.21,-6.02 4.2,-2.14 9.6899,-3.55 14.5999,-4.8 9.83,-2.44 21.9,-4.77 33.8799,-6.67 25.76,-4.09 50.8599,-6.51 50.8599,-6.51 1.91,-0.28 3.7,1.04 3.98,2.95 0.28,1.92 -1.04,3.7 -2.96,3.98 0,0 -24.4799,4.9 -49.5699,11.03 -11.4199,2.79 -22.9599,5.79 -32.2799,8.84 -4.37,1.39 -9.48,2.69 -12.5499,5.17 -0.15,0.12 -0.33,0.34 -0.45,0.49 z m 0,0 c 0.01,0 0.02,0 0.04,0 0.05,0 -0.04,0.07 -0.1,0.12 0,-0.01 0,-0.02 0,-0.03 0.02,-0.03 0.04,-0.06 0.06,-0.09 z"
     id="path2546"
     style="stroke:none;stroke-width:0.2" /><path
     d="m 2645.5846,9479.9022 c -14.34,-6.31 -93.5898,-80.21 -102.8597,-94.26 -9.27,-14.05 4.94,-17.41 15.7399,-20.51 30.3399,-8.71 83.2998,-16.52 83.2998,-16.52 4.64,60.14 1.36,122.39 3.82,131.29 z"
     id="path2548"
     style="stroke:none;stroke-width:0.2" /><path
     style="fill:#000000;stroke:none;stroke-width:0.2;stroke-linecap:round;stroke-linejoin:round"
     d="m 2664.8278,9280.0248 36.0108,7.7034 7.7138,223.2299 -28.5212,-11.118 c 0,0 -5.3729,-113.3155 -7.5576,-129.7514 -2.1848,-16.436 -7.6458,-90.0639 -7.6458,-90.0639 z"
     id="path119" /><path
     style="fill:#000000;stroke:none;stroke-width:0.2;stroke-linecap:round;stroke-linejoin:round"
     d="m 2849.2506,9283.3921 36.6148,-4.4456 c 0,0 3.341,76.7414 2.6056,92.0232 -0.7355,15.2818 -9.6127,118.7854 -9.6127,118.7854 l -31.0113,11.2183 z"
     id="path121" /></g></svg>
