<?xml version="1.0" encoding="UTF-8" standalone="no"?>
<svg
   width="3553.2429"
   height="2553.5813"
   viewBox="0 0 3553.2429 2553.5813"
   version="1.1"
   xml:space="preserve"
   style="clip-rule:evenodd;fill-rule:evenodd;stroke-linejoin:round;stroke-miterlimit:2"
   id="svg5353"
   xmlns="http://www.w3.org/2000/svg"
   xmlns:svg="http://www.w3.org/2000/svg"><defs
   id="defs5353" />&#10;    &#10;<g
   id="vectorly-UNI-electric-car"
   style="stroke:none;stroke-width:0.2"
   transform="matrix(4.9999999,0,0,4.9999999,-20478.268,84.256573)"><path
     d="m 4099.1839,492.01708 c -1.93,0.02 -3.51,-1.54 -3.53,-3.47 -0.02,-1.94 1.54,-3.52 3.48,-3.54 0,0 92.8098,-2.74 211.0595,-5.27 27.0799,-0.58 55.4898,-1.08 84.4298,-1.51 18.6199,-0.27 37.4499,-0.55 56.2898,-0.66 48.1099,-0.29 96.2198,-0.18 140.7397,-0.02 118.2697,0.43 211.1195,1.55 211.1195,1.55 1.93,-0.01 3.5199,1.55 3.5299,3.48 0.02,1.94 -1.5399,3.52 -3.4699,3.53 0,0 -92.8098,2.69 -211.0695,5.1 -44.4999,0.91 -92.6098,1.83 -140.7197,2.35 -18.8299,0.2 -37.6699,0.24 -56.2898,0.28 -28.94,0.05 -57.3599,0.04 -84.4398,-0.09 -118.2797,-0.55 -211.1295,-1.73 -211.1295,-1.73 z"
     id="path872"
     style="stroke:none;stroke-width:0.2" /><path
     d="m 4253.4839,366.97969 c 16.6703,-0.60423 31.9487,5.75097 43.2564,16.31421 11.599,10.82219 18.7958,26.17611 19.3461,43.25641 0.3992,17.42556 -6.3768,33.36213 -17.6198,44.98277 -11.3616,11.75012 -27.3629,18.90377 -44.9827,19.07641 -17.5981,-0.22659 -33.5563,-7.41261 -44.8856,-19.17352 -11.189,-11.60985 -17.9542,-27.50326 -17.5442,-44.88566 0.5287,-17.04793 7.7147,-32.35869 19.2598,-43.18088 11.2754,-10.56324 26.5214,-16.95081 43.17,-16.38974 z m 0,7.01338 c -14.2965,0.49633 -27.0068,6.7868 -36.0811,16.46527 -8.826,9.41952 -14.0375,22.18388 -13.6059,36.09197 0.3237,13.57359 6.2473,25.64741 15.3107,34.37637 8.9124,8.59949 21.0401,13.86493 34.3763,13.69229 13.3254,0.12948 25.41,-5.1899 34.29,-13.7786 9.0203,-8.72897 14.9223,-20.75963 15.246,-34.29006 0.4424,-13.86493 -4.7367,-26.59692 -13.5196,-36.00565 -9.0526,-9.70005 -21.7199,-16.02289 -36.0164,-16.55159 z"
     id="path874"
     style="stroke:none;stroke-width:0.215796" /><path
     d="m 4686.3638,416.2227 c -0.3713,-1.89767 0.8582,-3.74175 2.7538,-4.12823 1.8977,-0.37136 3.7417,0.85812 4.1282,2.75376 2.0133,8.2509 2.2216,16.87605 0.6359,25.32739 -1.5543,8.28542 -4.9582,16.32753 -10.1197,23.6674 -9.9488,14.02881 -24.7468,22.58336 -40.4904,25.15272 -16.0526,2.61872 -33.0359,-1.26556 -47.1933,-11.59741 -13.9794,-10.72536 -22.4864,-26.08413 -24.4519,-42.31724 -1.9472,-16.097 2.4042,-32.92781 13.3297,-46.56479 10.8297,-13.26225 25.8919,-21.11336 41.7031,-22.66792 15.4159,-1.51665 31.4211,2.70738 44.3008,13.32698 1.5445,1.17749 1.8336,3.37881 0.6627,4.91475 -1.1775,1.54452 -3.3702,1.84018 -4.9147,0.66269 -11.6858,-8.21695 -25.5888,-10.83829 -38.6582,-8.59101 -12.6566,2.16851 -24.447,9.16273 -32.4709,20.45303 -7.9196,10.92209 -10.4504,24.01224 -8.6034,36.39663 1.8159,12.21151 8.0389,23.82107 18.6536,31.8591 10.5128,8.36741 23.3897,11.6583 35.7829,10.33366 12.7042,-1.35887 24.9676,-7.30057 33.6922,-17.96168 4.7846,-5.79552 8.1137,-12.28012 9.9736,-19.09783 1.9642,-7.18591 2.4286,-14.6469 1.286,-21.922 z"
     id="path876"
     style="stroke:none;stroke-width:0.215796" /><path
     d="m 4268.627,426.5219 c -0.01,-1.93314 1.5563,-3.50983 3.4895,-3.51591 1.9349,-0.009 3.5116,1.55326 3.5208,3.48816 0.2697,1.92524 0.1561,3.84447 -0.082,5.81697 -0.2362,1.96136 -0.8642,3.82961 -1.628,5.74898 -2.6142,6.25112 -7.7969,10.44312 -13.6545,12.72046 -6.1716,2.39674 -13.2078,1.71044 -19.6842,-1.28572 -6.3972,-3.49475 -10.9775,-9.23755 -12.6069,-15.80008 -1.608,-6.47639 -0.6338,-13.62206 3.3313,-19.62697 3.9774,-5.60296 9.4526,-9.53976 15.7455,-10.55155 5.8918,-0.94963 12.1249,-0.0572 17.3008,3.75796 1.687,0.94984 2.285,3.08867 1.3369,4.77263 -0.9498,1.68707 -3.0886,2.28505 -4.7757,1.33521 -3.6977,-1.52228 -7.566,-1.04626 -11.0058,0.34982 -3.0256,1.23023 -5.2892,3.8111 -6.6891,7.04287 -1.3418,2.8365 -0.9434,5.89983 -0.077,8.67957 0.8263,2.65414 2.3964,5.13455 4.9858,6.63766 2.6681,1.79433 5.691,2.6445 8.6254,2.12417 3.3326,-0.58423 6.6367,-1.9292 8.7819,-4.8771 0.7709,-1.01841 1.4998,-1.99876 1.9662,-3.12686 0.5014,-1.2195 0.9501,-2.41108 1.119,-3.69027 z"
     id="path878"
     style="stroke:none;stroke-width:0.0717068" /><path
     d="m 4649.9769,426.5219 c -0.01,-1.93314 1.5563,-3.50983 3.4895,-3.51591 1.9349,-0.009 3.5116,1.55326 3.5208,3.48816 0.2697,1.92524 0.1561,3.84447 -0.082,5.81697 -0.2362,1.96136 -0.8642,3.82961 -1.628,5.74898 -2.6142,6.25112 -7.7969,10.44312 -13.6545,12.72046 -6.1716,2.39674 -13.2078,1.71044 -19.6842,-1.28572 -6.3972,-3.49475 -10.9775,-9.23755 -12.6069,-15.80008 -1.608,-6.47639 -0.6338,-13.62206 3.3313,-19.62697 3.9774,-5.60296 9.4526,-9.53976 15.7455,-10.55155 5.8918,-0.94963 12.1249,-0.0572 17.3008,3.75796 1.687,0.94984 2.285,3.08867 1.3369,4.77263 -0.9498,1.68707 -3.0886,2.28505 -4.7757,1.33521 -3.6977,-1.52228 -7.566,-1.04626 -11.0058,0.34982 -3.0256,1.23023 -5.2892,3.8111 -6.6891,7.04287 -1.3418,2.8365 -0.9434,5.89983 -0.077,8.67957 0.8263,2.65414 2.3964,5.13455 4.9858,6.63766 2.6681,1.79433 5.691,2.6445 8.6254,2.12417 3.3326,-0.58423 6.6367,-1.9292 8.7819,-4.8771 0.7709,-1.01841 1.4998,-1.99876 1.9662,-3.12686 0.5014,-1.2195 0.9501,-2.41108 1.119,-3.69027 z"
     id="path880"
     style="stroke:none;stroke-width:0.0717068" /><path
     d="m 4690.8524,430.0471 c -1.93,-0.02 -3.49,-1.61 -3.47,-3.54 0.02,-1.93 1.61,-3.49 3.55,-3.47 15.16,-0.02 40.3799,-1.56999 60.5799,-7.60999 14.2099,-4.25 26.1199,-10.32 28.3499,-20.73999 3.2,-14.9 3.45,-42.54999 -1.61,-65.67998 -3.45,-15.74999 -8.97,-29.56998 -18.8199,-34.19998 -14.36,-6.77 -35.2199,-11.81 -52.3999,-20.72999 -8.11,-4.21 -15.42,-9.29 -21.13,-15.58 -17.8699,-19.73999 -41.6899,-42.31998 -66.9498,-59.22997 -17.2599,-11.56 -35.1599,-20.48 -52.3199,-23.60999 -24.5499,-4.57 -75.6298,-5.39 -121.0797,-2.22 -33.2199,2.32 -63.4298,6.52999 -77.3098,13.93999 -24.9699,13.23 -65.7398,56.97998 -97.0097,80.13997 -11.87,8.78999 -22.62,14.68999 -30.8699,15.92999 -27.68,4.13 -54.1199,9.33 -74.8199,18.69999 -16.3099,7.39 -29.0099,17.3 -35.3299,31.74999 -7.43,16.99999 -13.8999,38.91999 -15.1499,56.80998 -0.6,8.60999 -0.08,16.22999 2.44,21.66999 1.75,3.8 4.5399,6.38 8.8099,6.93 8.15,1.05 18.33,2.1 28.43,3.04 21.6499,2.01999 42.8899,3.53999 42.8899,3.53999 1.93,0.12 3.4099,1.78 3.2899,3.71 -0.12,1.93 -1.7799,3.41 -3.7099,3.29 0,0 -21.35,-1.04 -43.1199,-2.58 -10.23,-0.72 -20.54,-1.56 -28.79,-2.44 -12.1799,-1.31 -18.4099,-11.72999 -19.5899,-27.00999 -1.57,-20.22999 5.67,-49.41998 14.6499,-71.14997 7.03,-17.02999 21.34,-29.22998 40.2199,-38.21998 21.43,-10.2 48.9099,-16.22999 77.7199,-21.05999 6.7099,-1.12 15.1399,-6.53 24.7199,-13.84 31.5199,-24.04999 72.6698,-68.91997 97.9398,-82.73996 14.9699,-8.13 47.4998,-13.76 83.4597,-16.32 46.9399,-3.33999 99.7198,-1.85 125.0597,2.98 18.96,3.67 38.8099,13.51 57.7599,26.54999 26.0099,17.90999 50.3899,41.74998 68.6398,62.52998 4.61,5.25999 10.62,9.44999 17.23,13.03999 16.8399,9.14 37.3899,14.51999 51.4799,21.49999 12.2699,6.08 20.4299,22.75999 24.3499,42.65998 4.87,24.74999 3.9,54.18998 0.16,69.98998 -2.51,10.49999 -11.91,18.29999 -24.9499,23.41999 -22.2,8.71999 -54.8899,10.25999 -73.2999,9.84999 z"
     id="path882"
     style="stroke:none;stroke-width:0.2" /><path
     d="m 4309.4834,432.8971 c -1.94,0 -3.51,-1.57 -3.51,-3.51 0,-1.93 1.57,-3.5 3.51,-3.5 0,0 35.4799,-1.96 80.8098,-3.49999 10.37,-0.36 21.2399,-0.62 32.3199,-0.8 7.13,-0.12 14.34,-0.24 21.5599,-0.19 18.42,0.11 36.83,0.63 53.8699,1.16 45.3199,1.41999 80.8198,3.32999 80.8198,3.32999 1.93,0 3.5,1.57 3.5,3.5 0,1.94 -1.57,3.51 -3.5,3.51 0,0 -35.4999,1.9 -80.8198,3.32 -17.0399,0.54 -35.4499,1.05 -53.8699,1.17 -7.2199,0.04 -14.4299,-0.08 -21.5599,-0.2 -11.08,-0.18 -21.9499,-0.44 -32.3199,-0.79 -45.3299,-1.54 -80.8098,-3.5 -80.8098,-3.5 z"
     id="path884"
     style="stroke:none;stroke-width:0.2" /><path
     d="m 4160.6837,298.25716 c -0.9599,-1.67 -0.38,-3.82 1.3,-4.78 1.67,-0.97 3.82,-0.39 4.78,1.29 1.87,2.37 3.92,8.74999 4.77,16.81999 0.37,3.55 0.36,7.33 -0.02,11.23 -0.37,3.86999 -1.3,7.72999 -2.67,11.39999 -0.98,2.61 -2.24,5.1 -3.84,7.34 -3.19,4.44 -7.4199,8.09999 -12.7199,10.20999 -3.28,1.3 -6.88,2.23 -10.98,2.2 -6.31,-0.05 -13.58,-1.62 -22.1199,-6.05999 -1.83,-0.65 -2.77,-2.66 -2.12,-4.48 0.65,-1.82 2.6599,-2.77 4.4799,-2.12 4.71,0.97 8.75,1.11 12.43,1.01 6.34,-0.17 10.73,-2.34 14.13,-5.34 1.11,-0.98 1.99,-2.15 2.88,-3.31 0.95,-1.24 1.8,-2.56 2.59,-3.93 1.73,-3.05 3.17,-6.29999 4.2,-9.65999 1.76,-5.72 2.8999,-11.29 3.0699,-15.74 0.1,-2.77 0.29,-4.89999 -0.16,-6.07999 z"
     id="path886"
     style="stroke:none;stroke-width:0.2" /><path
     d="m 4326.8633,261.70717 c 0.06,0.1 0.22,0.27 0.29,0.18 0.67,-0.9 -2.19,-1 -3.72,-1.13 -4.2799,-0.35 -9.6199,0.28 -15.0999,1.66 -9.34,2.33 -19.02,6.24 -24.74,10.94 -1.38,1.35 -3.5999,1.32 -4.9499,-0.07 -1.35,-1.39 -1.32,-3.61 0.07,-4.95 7.8999,-9.01 24.7799,-18.20999 38.1499,-20.98999 6.2899,-1.31 11.9199,-0.86 15.9799,0.68 3.53,1.34 6.01,3.78 7.7,6.83999 2.16,4.04 3.41,9.42 3.35,15.17 -0.06,4.72 -0.98,9.70999 -2.85,14.26999 -4.05,9.85 -11.97,17.84999 -23.3899,18.89999 -8.82,0.61 -17.12,-1.28 -24.2,-4.59999 -8.75,-4.1 -15.5399,-9.81 -19.0499,-13.46 -1.45,-1.28 -1.58,-3.5 -0.3,-4.95 1.28,-1.45 3.5,-1.58 4.95,-0.3 3.4999,2.64 10.1199,6.51 18.1399,8.9 5.66,1.68 12.05,2.4 18.59,1.02 5.7399,-1.07 8.7499,-5.98 10.5299,-11.1 1.02,-2.92999 1.55,-6.03999 1.64,-9.00999 0.09,-2.99 -0.08,-5.84 -1.09,-8 z m 0,0 c 0,0 0,0 0,-0.01 z"
     id="path888"
     style="stroke:none;stroke-width:0.2" /><path
     d="m 4628.2626,261.00717 c 2.72,-2.27 2.16,-5.82 0.78,-9.65999 -2.61,-7.29 -8.82,-15.37 -16.37,-22.82 -12.3799,-12.22999 -28.4499,-22.94999 -40.3999,-23.89999 -30.4999,-2.56999 -57.2198,-3.53999 -80.6598,-3.37999 -32.5099,0.22 -58.6898,2.67999 -79.9298,6.68999 -59.0198,11.14 -79.3398,33.81999 -91.0497,48.24998 -1.19,1.52 -3.39,1.79 -4.92,0.6 -1.52,-1.19 -1.79,-3.4 -0.6,-4.92 11.8199,-15.72999 32.2999,-40.81998 94.3297,-54.75997 21.68,-4.88 48.4999,-8.39 81.8998,-9.5 23.82,-0.8 50.9999,-0.29 82.0598,1.67 7.98,0.53 17.62,4.12 27.19,9.83 11.3199,6.73999 22.6499,16.37999 31.0299,26.39999 7.32,8.75999 12.3599,17.89999 13.8599,25.74999 1.81,9.46999 -0.76,17.53999 -8.7399,22.98999 -1.68,1.14 -6.81,2.83999 -14.93,4.00999 -19.9799,2.87 -62.1198,5.79 -108.6097,7.79 -72.4298,3.11 -155.3596,4.1 -180.8896,1.43 -1.93,-0.16 -3.36,-1.87 -3.19,-3.79 0.17,-1.93 1.87,-3.36 3.8,-3.19 21.94,1.54 86.2198,-1.4 149.5896,-5.44999 54.7199,-3.5 108.7298,-7.86 134.0797,-11.67 5.6,-0.84 12.45,-0.26 11.7,-2.33 -0.01,-0.02 -0.02,-0.03 -0.03,-0.04 z m 0,0 c -0.14,0.11 -0.29,0.23 -0.44,0.34 0.1,-0.08 0.33,-0.44 0.44,-0.34 z"
     id="path890"
     style="stroke:none;stroke-width:0.2" /><path
     d="m 4480.843,194.1672 c 0.24,-1.92 1.9999,-3.28 3.9199,-3.03 1.92,0.24 3.28,1.99 3.03,3.91 0,0 -1.91,27.65999 -4.33,54.52998 -1.2299,13.55999 -2.6799,26.85998 -3.7499,36.33998 -1.07,8.22 -2.69,16.28999 -4.92,24.12999 -2.25,7.89 -5.04,15.56999 -8.23,22.95999 -7.76,18.01999 -17.55,34.46999 -26.4299,49.18998 -11.59,19.22999 -21.92,35.09999 -23.81,47.55998 -0.2,1.92 -1.92,3.32 -3.85,3.12 -1.92,-0.2 -3.32,-1.93 -3.12,-3.85 0.76,-13.33999 9.48,-31.38998 20.13,-52.68998 7.45,-14.91999 15.6699,-31.51998 22.5699,-49.26998 2.71,-6.99999 5.27,-14.15999 7.47,-21.48999 2.14,-7.13999 4.06,-14.40999 5.32,-21.87999 z"
     id="path892"
     style="stroke:none;stroke-width:0.2" /><path
     d="m 4297.6234,294.66716 c 0.46,-1.87 2.36,-3.02 4.24,-2.56 1.88,0.46 3.03,2.36 2.56,4.24 0,0 -0.73,11.11999 -2.66,25.45999 -0.44,3.24999 -1,6.60999 -1.66,10.03999 -0.41,2.2 -0.84,4.42 -1.43,6.61 -1.5,5.61 -3.37,11.07999 -5.17,16.13999 -4.84,13.62 -9.3,23.82999 -9.3,23.82999 -0.46,1.88 -2.36,3.02 -4.2399,2.56 -1.88,-0.46 -3.03,-2.36 -2.56,-4.24 0,0 0.79,-11.10999 2.83,-25.41999 0.7599,-5.31999 1.6399,-11.02999 2.9199,-16.68999 0.49,-2.21 1.15,-4.38 1.8,-6.52 1.02,-3.34999 2.08,-6.57999 3.2,-9.65999 4.95,-13.6 9.47,-23.78999 9.47,-23.78999 z"
     id="path894"
     style="stroke:none;stroke-width:0.2" /><path
     d="m 4619.5126,268.98717 c 0.7,-1.81 2.73,-2.7 4.54,-2 1.8,0.69 2.7,2.73 2,4.53 0,0 -2.32,10.40999 -4.46,25.87999 -0.72,5.24999 -1.37,11.03999 -2.05,17.21999 -0.41,3.68 -0.81,7.48 -1.27,11.36999 -0.66,5.54 -1.42,11.2 -1.84,17.01 -0.73,10.16999 -1,20.45999 0.76,30.61999 0.53,1.85999 -0.56,3.79999 -2.42,4.32999 -1.86,0.52 -3.8,-0.56 -4.33,-2.42 -4.14,-10.40999 -6.67,-21.34999 -7.6699,-32.37998 -0.68,-7.54 -0.68,-15.03 0,-22.16999 0.28,-2.98 0.7899,-5.89 1.3399,-8.72 0.89,-4.52 1.93,-8.81 3.14,-12.80999 5.56,-18.4 12.26,-30.45999 12.26,-30.45999 z"
     id="path896"
     style="stroke:none;stroke-width:0.2" /><path
     d="m 4726.1623,276.70716 c 0.15,-1.92999 1.84,-3.37999 3.76,-3.22999 1.93,0.15 3.38,1.83 3.23,3.75999 0.41,5.74 2.54,11.68 5.58,17.48 1.34,2.54 3.01,4.87 4.81,7.18999 1.65,2.14 3.6,4.04 5.67,5.91 2.34,2.11 4.8,4.19 7.82,5.77 1.95,1.02 3.95,2.05 6.23,2.8 5.2699,1.73 11.2199,2.89 18.4299,2.58 1.91,-0.35 3.74,0.9 4.09,2.81 0.35,1.9 -0.91,3.72999 -2.81,4.07999 -6.72,2.27 -12.76,3.16 -18.4199,3.21 -4.79,0.04 -9.11,-0.8 -13.13,-2.09 -4.92,-1.57 -9.21,-4.08999 -12.83,-7.19999 -2.01,-1.74 -3.76,-3.72 -5.27,-5.83 -2.26,-3.17 -4.13,-6.56 -5.42,-10.15 -0.97,-2.68 -1.75,-5.35999 -2.18,-8.11999 -1.05,-6.68 -0.91,-13.13 0.44,-18.97 z"
     id="path898"
     style="stroke:none;stroke-width:0.2" /><path
     style="fill:#000000;stroke:none;stroke-width:0.2;stroke-linecap:round;stroke-linejoin:round"
     d="m 4452.4881,-16.851315 h 77.3756 l -32.0088,53.882461 32.0813,-12.036192 -68.5259,102.963356 20.8371,-78.277556 -26.8451,8.675491 z"
     id="path51" /></g></svg>
