<?xml version="1.0" encoding="UTF-8" standalone="no"?>
<svg
   width="3042.6721"
   height="3115.2092"
   viewBox="0 0 3042.6721 3115.2092"
   version="1.1"
   xml:space="preserve"
   style="clip-rule:evenodd;fill-rule:evenodd;stroke-linejoin:round;stroke-miterlimit:2"
   id="svg5353"
   xmlns="http://www.w3.org/2000/svg"
   xmlns:svg="http://www.w3.org/2000/svg"><defs
   id="defs5353" />&#10;    <g
   id="vectorly-UNI-bug"
   style="stroke:none;stroke-width:0.2"
   transform="matrix(4.9999999,0,0,4.9999999,-8415.2016,-20195.288)"><path
     d="m 2119.2859,4267.9043 c 0.73,1.79 -0.13,3.84 -1.92,4.57 -1.79,0.74 -3.84,-0.12 -4.57,-1.91 -2.2,-4.75 -9.1999,-8.16 -17.0199,-10.07 -6.84,-1.66 -14.47,-1.87 -20.74,0.12 -8.44,2.63 -23.0299,10.94 -34.3499,20.33 -4.22,3.5 -7.94,7.17 -10.61,10.79 -1.68,2.28 -2.92,4.47 -3.18,6.6 -0.08,0.67 0.46,1.35 0.89,2.21 0.7,1.43 1.73,2.93 2.93,4.52 4.95,6.56 13.14,13.93 21.92,20.61 8.83,6.71 18.1999,12.79 25.9499,16.16 3.9,1.7 7.06,3.12 9.21,2.63 2.72,-0.62 5.35,-3.53 8.14,-7.29 3.9,-5.22 7.67,-12.07 10.9099,-19.28 6.12,-13.61 10.58,-28.3 10.21,-35.52 -0.17,-1.93 1.25,-3.64 3.17,-3.82 1.93,-0.17 3.64,1.24 3.81,3.17 1.24,9.2 -3.36,30.29 -10.6,47.55 -3.45,8.22 -7.58,15.51 -11.7799,20.45 -3.38,3.97 -7.07,6.41 -10.52,7.45 -4.43,1.3 -11.91,0.13 -20.61,-3.5 -10.7299,-4.47 -23.8999,-12.47 -34.8699,-21.34 -8.35,-6.75 -15.3899,-14.06 -19.5099,-20.42 -3.85,-5.94 -5.26,-11.5 -4.59,-15.78 0.71,-4.36 2.91,-9.06 6.59,-13.61 3.51,-4.36 8.3199,-8.75 13.8199,-12.77 13.33,-9.74 30.48,-17.64 40.1299,-19.91 8.14,-1.86 17.78,-1.03 26.24,1.83 10.2199,3.45 18.5999,9.63 20.9499,16.23 z"
     id="path630"
     style="stroke:none;stroke-width:0.2" /><path
     d="m 2102.326,4284.0943 c -1.07,1.61 -3.25,2.04 -4.86,0.97 -1.61,-1.07 -2.04,-3.25 -0.97,-4.86 7.2,-11.88 19.3199,-32.14 34.4699,-55.36 4.91,-7.5099 10.14,-15.2999 15.6299,-23.2199 5.81,-8.38 11.85,-16.91 18.16,-25.31 6.27,-8.34 12.74,-16.59 19.37,-24.47 11.8399,-14.08 24.0499,-27.09 35.7299,-38.15 15.6999,-14.85 30.6299,-26.02 43.1599,-31.29 9.0799,-3.78 16.2299,-3.5 20.9199,-1.24 5.71,2.75 8.51,8.07 7.4,13.79 -0.28,1.91 -2.07,3.24 -3.98,2.95 -1.92,-0.28 -3.24,-2.06 -2.95,-3.98 0.3,-3 -1.98,-5.31 -5.64,-5.79 -3.11,-0.42 -7.05,0.51 -11.73,2.92 -15.8099,8.02 -34.6699,27.6 -54.5098,51.12 -7.44,8.81 -14.95,18.2 -22.56,27.72 -7.4499,9.31 -14.9799,18.74 -22.2999,28.09 -9.21,11.75 -18.14,23.2999 -26.4099,34.1399 -16.75,21.95 -30.77,40.8 -38.9299,51.97 z"
     id="path632"
     style="stroke:none;stroke-width:0.2" /><path
     d="m 2083.766,4273.2443 c -0.96,1.68 -3.1,2.27 -4.78,1.31 -1.68,-0.95 -2.27,-3.09 -1.32,-4.77 2.7,-5.42 5.28,-18.79 8.1,-36.05 2.19,-13.37 4.27,-28.9899 6.48,-45.1099 1.37,-10 2.72,-20.19 4.2,-30.12 1.99,-13.29 4.12,-26.11 5.84,-37.53 2.4799,-16.39 4.4399,-29.77 4.8099,-37.22 0.38,-6.6 -1.08,-12.11 -4.1099,-15.73 -3.39,-4.05 -8.45,-5.71 -13.94,-3.7 -1.77,0.76 -3.84,-0.06 -4.6,-1.84 -0.76,-1.78 0.06,-3.84 1.84,-4.6 8.63,-4.25 17.19,-2.16 23.4199,3.9 4.94,4.79 8.19,12.45 8.59,22.05 0.31,10.45 -0.83,32.43 -3.61,57.96 -0.67,6.18 -1.47,12.57 -2.42,19.04 -0.91,6.27 -1.98,12.61 -3.13,18.93 -2.35,12.94 -4.9999,25.76 -7.7699,37.62 -6.26,26.8699 -13.01,48.6799 -17.6,55.8599 z"
     id="path634"
     style="stroke:none;stroke-width:0.2" /><path
     d="m 2140.5259,4045.2144 c -1.46,-1.26 -1.62,-3.48 -0.36,-4.94 1.27,-1.47 3.48,-1.63 4.9499,-0.36 4.89,3.06 10.17,11.01 13.75,21.61 1.02,3.03 1.73,6.28 2.25,9.67 0.33,2.16 0.56,4.37 0.57,6.6 0.01,4.16 -0.48,8.36 -1.42,12.44 -0.9,3.91 -2.11,7.66 -3.82,11.19 -2.68,5.52 -5.99,10.4 -10.48,14.31 -1.2499,1.48 -3.4699,1.66 -4.9399,0.42 -1.48,-1.25 -1.67,-3.46 -0.42,-4.94 2.37,-3.89 3.47,-8.22 4.3799,-12.81 0.86,-4.39 0.92,-8.9 0.92,-13.49 0,-2.74 -0.15,-5.46 -0.24,-8.16 -0.09,-2.81 -0.11,-5.56 -0.26,-8.24 -0.35,-6.58 -0.8599,-12.52 -2.3199,-17.15 -0.81,-2.58 -1.4,-4.74 -2.56,-6.15 z"
     id="path636"
     style="stroke:none;stroke-width:0.2" /><path
     d="m 2205.9057,4079.2044 c -0.66,1.82 -2.66,2.77 -4.48,2.11 -1.83,-0.65 -2.77,-2.66 -2.12,-4.48 1.42,-7.43 3.92,-13.66 7.99,-19.16 2.84,-3.84 6.62,-6.95 11.24,-9.64 2.37,-1.37 5.02,-2.56 7.9699,-3.42 3.63,-1.07 7.71,-1.71 12.24,-1.9 3.68,-0.16 7.59,-0.05 11.89,0.4 5.25,0.55 10.8,1.53 17.0799,2.9 1.93,0.13 3.4,1.8 3.27,3.73 -0.12,1.93 -1.79,3.39 -3.72,3.27 -4.9999,0.44 -9.3999,1.1 -13.6299,1.72 -4.83,0.71 -9.05,1.62 -12.97,2.52 -2.91,0.67 -5.52,1.48 -7.99,2.2 -2.69,0.77 -5.14,1.51 -7.3799,2.41 -4.23,1.72 -7.79,3.56 -10.74,6.35 -3.31,3.14 -6.21,6.57 -8.65,10.99 z"
     id="path638"
     style="stroke:none;stroke-width:0.2" /><path
     d="m 2084.526,4350.5843 c 0.26,-1.92 2.03,-3.26 3.95,-3 1.91,0.26 3.26,2.02 3,3.94 -5.62,45.59 -44.6299,115.0599 -97.7098,173.2199 -23.0599,25.27 -48.7799,48.4 -75.4898,66.52 -30.8899,20.97 -63.1798,35.17 -94.2198,38.8 -25.8499,2.94 -51.7198,1.27 -73.9498,-5.11 -17.8199,-5.11 -33.3499,-13.25 -44.8799,-24.24 -26.0599,-24.82 -33.2599,-64.47 0.95,-118.9 36.7299,-57.8899 84.9098,-98.8599 136.0897,-127.6599 59.4799,-33.46 122.8797,-50.49 176.2796,-59.34 1.9,-0.34 3.72,0.94 4.06,2.84 0.34,1.91 -0.93,3.73 -2.84,4.07 -52.2499,9.92 -114.0698,28.2 -171.8096,62.3 -48.8399,28.84 -94.7898,69.05 -129.2297,125.5899 -28.1999,45.86 -24.4499,78.85 -2.53,99.52 9.88,9.33 23.17,16.09 38.3299,20.52 20.39,5.94 44.0999,7.67 67.8598,5.16 28.95,-2.98 59.0499,-16.12 88.1598,-35.16 26.2,-17.14 51.5799,-39.05 74.4998,-63.06 52.9099,-55.4099 92.9198,-121.7999 99.4798,-166.0099 z"
     id="path640"
     style="stroke:none;stroke-width:0.2" /><path
     d="m 1908.7264,4289.4943 c -28.8599,3.8 -53.0098,6.41 -72.5298,8.06 -22.2299,1.87 -38.3099,2.73 -48.2799,4.08 -2.16,0.29 -4.71,0.28 -6.2899,0.51 -4.31,14.75 -15.15,32.01 -28.4,48.14 -23.7299,28.89 -54.2598,54.57 -60.3198,58.57 -1.57,1.12 -3.76,0.76 -4.89,-0.81 -1.12,-1.58 -0.76,-3.77 0.81,-4.89 5.56,-4.3 32.7099,-31.65 53.9598,-60.94 11.45,-15.77 21.32,-32.01 24.12,-45.7 0.55,-2.53 2.13,-5.1 5.57,-7.08 2.47,-1.41 6.87,-2.75 13.3299,-3.61 10.19,-1.35 26.65,-2.14 49.4299,-3.15 19.63,-0.87 43.9899,-1.71 73.1798,-3.84 6.05,-0.41 10.2,3.58 10.72,11.61 0.85,13.23 -8.01,39.68 -8.01,39.68 -0.56,1.85 -2.52,2.91 -4.37,2.35 -1.85,-0.56 -2.9,-2.52 -2.34,-4.37 0,0 3.06,-11.9 4.46,-23.35 0.6,-4.9 0.89,-9.7 0.39,-13.31 -0.09,-0.64 -0.34,-1.4 -0.54,-1.95 z m -127.1696,12.66 c -1.08,0.17 -1.68,0.45 -1.37,1.03 0.45,0.83 0.97,0.02 1.37,-1.03 z m 0.4899,-1.54 c 0.07,-0.24 0.12,-0.44 0.16,-0.6 -0.05,0.2 -0.1,0.4 -0.16,0.6 z"
     id="path642"
     style="stroke:none;stroke-width:0.2" /><path
     d="m 1933.4864,4268.1343 c -8.06,0.93 -19.01,1.49 -31.3699,1.33 -7.24,-0.09 -14.96,-0.46 -22.84,-1.04 -11.31,-0.83 -22.9399,-2.08 -34.0099,-3.44 -21.18,-2.61 -40.1199,-5.76 -50.6699,-7.45 -1.92,-0.19 -3.33,-1.91 -3.14,-3.84 0.2,-1.92 1.91,-3.33 3.84,-3.14 9.77,0.37 26.68,0.7 45.8599,1.18 9.83,0.25 20.2,0.5 30.4899,0.82 8.65,0.27 17.22,0.52 25.3,0.84 9.2099,0.37 17.7599,0.85 25.0899,0.96 5.24,0.08 9.81,0.11 13.52,-0.15 3.14,-0.21 6.17,0.74 8.2199,4.15 1.37,2.26 2.57,6.6 2.75,12.27 0.55,16.92 -4.4999,47.89 -4.4999,47.89 -0.21,1.92 -1.93,3.32 -3.86,3.12 -1.92,-0.2 -3.32,-1.93 -3.12,-3.85 0,0 1.74,-35.77 -1.56,-49.65 z m -0.27,-1.08 c -0.03,-0.07 -0.05,-0.14 -0.06,-0.21 -0.15,-0.5 -0.21,-1.39 -0.52,-1.21 -0.89,0.51 -0.39,1.03 0.58,1.42 z m 3.8,0.62 c 0.01,0 0.02,0 0.04,0 -0.02,0 -0.03,0 -0.04,0 z"
     id="path644"
     style="stroke:none;stroke-width:0.2" /><path
     d="m 1979.6963,4265.8943 c -3.55,0.32 -7.61,0.48 -12.05,0.41 -6.14,-0.09 -13.03,-0.64 -20.24,-1.52 -7.7499,-0.94 -15.8499,-2.29 -23.8399,-3.95 -12.69,-2.63 -24.9099,-6.02 -34.9999,-9.48 -1.88,-0.48 -3.01,-2.39 -2.53,-4.26 0.49,-1.88 2.4,-3.01 4.27,-2.53 13.8999,2.51 31.6999,3.72 48.6499,4.63 8.5399,0.46 16.8099,0.8 24.2299,1.01 4.3,0.11 8.31,0.25 11.88,0.26 4.49,0.02 8.24,0 10.9799,-0.46 2.82,-0.47 4.98,0.13 6.6,1.46 1.06,0.87 2.11,1.94 2.66,3.55 0.53,1.55 0.93,4.82 -0.49,9.09 -1.59,4.79 -5.01,12.26 -9.01,19.86 -7.0899,13.46 -15.5599,27.36 -15.5599,27.36 -0.87,1.73 -2.98,2.43 -4.7,1.56 -1.73,-0.87 -2.43,-2.98 -1.56,-4.71 0,0 11.2,-26.92 15.71,-42.28 z m 1.4,-5.4 c 0,-0.04 0.01,-0.07 0.02,-0.11 0.15,-0.75 0.66,-1.83 0.2,-1.83 -1.24,0.01 -0.96,0.92 -0.22,1.94 z m 7.7999,4.01 c 0.05,-0.01 0.1,-0.03 0.15,-0.04 -0.05,0.01 -0.1,0.03 -0.15,0.04 z"
     id="path646"
     style="stroke:none;stroke-width:0.2" /><path
     d="m 2140.8159,4382.4643 c -7.01,-0.49 -17.82,0.63 -28.38,2 -16.9799,2.19 -33.1599,5.09 -33.1599,5.09 -1.87,0.49 -3.79,-0.64 -4.27,-2.51 -0.49,-1.87 0.64,-3.79 2.51,-4.28 0,0 17.29,-5.84 34.9999,-10.2 8.77,-2.16 17.6,-3.86 24.53,-4.51 5.01,-0.46 9.1699,-0.17 11.9799,0.53 2.15,0.53 3.76,1.49 4.99,2.45 3.28,2.57 4.43,6.11 3.26,10.73 -1.32,4.8 -2.46,9.37 -3.66,13.66 -1.35,4.83 -2.7,9.33 -3.94,13.55 -2.25,7.63 -4.22,14.33 -5.8799,20.26 -2.28,8.11 -4.05,14.71 -5.25,20.23 -3.76,17.3299 -2.51,22.6399 -0.14,26.9399 1.05,1.63 0.59,3.8 -1.04,4.85 -1.62,1.05 -3.79,0.58 -4.84,-1.04 -3.6,-4.79 -7,-10.88 -5.2,-32.4299 0.49,-5.89 1.38,-12.98 2.91,-21.64 1.11,-6.22 2.54,-13.22 4.42,-21.15 1.02,-4.36 2.18,-8.99 3.56,-13.89 0.78,-2.8 1.67,-5.67 2.6,-8.64 z m 1.53,-4.91 c 0.02,-0.05 0.03,-0.09 0.05,-0.14 -0.02,0.05 -0.03,0.09 -0.05,0.14 z"
     id="path648"
     style="stroke:none;stroke-width:0.2" /><path
     d="m 2104.366,4405.1843 c -1.74,-0.05 -4.52,0.36 -6.55,0.56 -12.07,1.22 -28.15,6.39 -28.15,6.39 -1.8,0.7 -3.84,-0.2 -4.53,-2 -0.7,-1.81 0.2,-3.84 2,-4.54 0,0 26.14,-11.44 38.3899,-11.01 4.56,0.15 7.68,2.09 9.46,4.51 1.47,2.01 2.07,4.74 1.33,8.38 -0.91,4.43 -2.09,15.65 -3.68,29.56 -1.06,9.26 -2.16,19.69 -3.51,30.0899 -1.35,10.4 -2.94,20.77 -4.28,29.98 -2.0299,13.88 -3.7899,25.01 -3.9799,29.4 -0.41,7.67 -2.53,16.5 -5.95,24.49 -3.78,8.81 -8.86,16.59 -14.19,20.77 -1.45,1.29 -3.67,1.16 -4.95,-0.29 -1.29,-1.45 -1.16,-3.66 0.29,-4.95 4.03,-4.04 7.28,-11.15 9.58,-18.89 2.1,-7.04 3.2,-14.64 2.85,-21.13 -0.19,-4.61 0.29,-16.44 1.54,-31.12 0.8,-9.34 1.83,-19.87 3.23,-30.35 1.4,-10.4799 3.19,-20.8899 4.85,-30.1299 2.46,-13.71 4.88,-24.81 6.25,-29.72 z m 0.1899,-0.65 z m 0.37,0.69 c 0.16,0.32 0.43,0.57 0.7,0.82 0.07,0.07 0.23,0.23 0.29,0.13 0.31,-0.58 -0.14,-0.85 -0.99,-0.95 z"
     id="path650"
     style="stroke:none;stroke-width:0.2" /><path
     d="m 2072.736,4465.0842 c -1.93,-1.15 -5.76,-3.2999 -8.9899,-4.4099 -9.48,-3.24 -20.58,-5.4 -20.58,-5.4 -1.91,-0.28 -3.24,-2.06 -2.97,-3.97 0.27,-1.92 2.05,-3.25 3.97,-2.97 0,0 23.0799,2.39 33.0799,7.37 6.82,3.4 8.35,8.5799 5.75,13.3399 -8.28,14.9 -16.06,30.58 -23.7399,46.18 -5.17,10.49 -10.18,20.97 -15.21,31.15 -5.3,10.72 -10.58,21.11 -15.65,31.01 -8.8899,17.37 -17.2099,33.17 -24.3899,46.32 -11.07,20.29 -19.86,34.18 -24.9099,37.67 -1.53,1.18 -3.74,0.89 -4.91,-0.65 -1.18,-1.53 -0.89,-3.73 0.65,-4.91 2.43,-2.07 5.36,-7.58 9.2299,-15.47 5.08,-10.38 11.18,-24.77 18.45,-41.56 4.05,-9.35 8.41,-19.42 13.19,-29.92 4.37,-9.59 8.9899,-19.56 14.0399,-29.61 5.15,-10.26 10.74,-20.59 16.55,-30.88 8.35,-14.78 17.31,-29.34 26.4399,-43.29 z m 1.05,-1.6 c 0,0 0,-0.01 0.01,-0.01 -0.01,0 -0.01,0.01 -0.01,0.01 z"
     id="path652"
     style="stroke:none;stroke-width:0.2" /><path
     d="m 2060.4861,4341.5243 c 0.45,-1.88 2.34,-3.04 4.2199,-2.6 1.88,0.45 3.05,2.34 2.6,4.23 -18.3499,83.74 -50.7398,138.6699 -87.4797,173.8199 -34.15,32.66 -72.0299,48.52 -105.7998,54.74 -32.9099,6.06 -61.9998,2.8 -80.4498,-2.34 -32.3399,-9.26 -57.8698,-42.28 -53.0098,-85.67 3.9999,-35.7199 29.0199,-78.9199 89.8197,-119.8499 1.58,-1.11 3.77,-0.73 4.88,0.86 1.11,1.58 0.72,3.77 -0.86,4.88 -55.8798,40.63 -78.7498,81.53 -81.4598,115.2999 -2.88,35.83 17.77,63.02 44.5899,69.94 16.93,4.5 43.4999,6.64 73.6098,1.16 31.39,-5.7 66.5699,-19.82 99.0798,-49.32 36.4199,-33.05 69.5798,-84.8599 90.2598,-165.1499 z"
     id="path654"
     style="stroke:none;stroke-width:0.2" /><path
     d="m 2024.6061,4341.2143 c 0.62,-1.83 2.61,-2.82 4.44,-2.2 1.83,0.63 2.82,2.62 2.19,4.45 -4.14,13.63 -16.1699,60.36 -43.6299,103.31 -8.0799,12.65 -17.5599,24.8999 -28.4799,35.8899 -7.24,7.28 -15.19,13.94 -23.7299,19.86 -16.83,11.18 -33.5699,19.87 -49.8099,25.98 -19.54,7.37 -38.2499,11.19 -55.1199,11.96 -31.7699,1.46 -57.0698,-7.79 -70.0598,-24.7 -1.23,-1.5 -1.01,-3.71 0.48,-4.93 1.5,-1.23 3.71,-1.01 4.93,0.48 12.51,14.28 35.6199,20.41 63.7798,17.49 15.62,-1.63 32.73,-6.18 50.6199,-13.74 15.03,-6.35 30.6199,-14.78 46.1599,-25.73 12.35,-8.29 23.1999,-18.44 32.8899,-29.3599 10.17,-11.45 19.04,-23.78 26.6899,-36.09 22.27,-35.84 34.36,-71.29 38.6499,-82.67 z"
     id="path656"
     style="stroke:none;stroke-width:0.2" /><path
     d="m 2029.5061,4316.9443 c 1.06,-1.62 3.23,-2.08 4.85,-1.03 1.62,1.05 2.09,3.23 1.03,4.85 -6.11,10.42 -24.2799,34.22 -50.9199,58.4 -7.3699,6.68 -15.4299,13.32 -24.0399,19.71 -5.49,4.06 -11.2,8.05 -17.17,11.73 -14.6199,9.02 -30.4999,16.8 -47.0198,22.55 -24.87,8.64 -51.1699,12.53 -77.3598,9.01 -1.93,-0.17 -3.35,-1.88 -3.18,-3.8 0.18,-1.93 1.88,-3.35 3.81,-3.18 16.5899,0.72 32.8499,-1.87 48.6698,-6.44 15.74,-4.55 30.86,-11.31 45.3099,-19.12 8.78,-4.75 17.26,-9.92 25.47,-15.22 8.5399,-5.52 16.7899,-11.16 24.5599,-16.9 10.25,-7.55 19.71,-15.13 28.1299,-22.39 18.88,-16.31 32.4899,-30.72 37.8599,-38.17 z"
     id="path658"
     style="stroke:none;stroke-width:0.2" /></g>&#10;</svg>
