<?xml version="1.0" encoding="UTF-8" standalone="no"?>
<svg
   width="1546.121"
   height="2724.5161"
   viewBox="0 0 1546.121 2724.5161"
   version="1.1"
   xml:space="preserve"
   style="clip-rule:evenodd;fill-rule:evenodd;stroke-linejoin:round;stroke-miterlimit:2"
   id="svg5353"
   xmlns="http://www.w3.org/2000/svg"
   xmlns:svg="http://www.w3.org/2000/svg"><defs
   id="defs5353" />&#10;    &#10;<g
   id="vectorly-UNI-bottle"
   style="stroke:none;stroke-width:0.2"
   transform="matrix(4.9999999,0,0,4.9999999,-5120.5429,-20456.908)"><path
     d="m 1177.6382,4559.6653 c 24.86,-0.8866 47.2899,0.7631 62.9999,4.04 10.66,2.2332 18.3999,5.5101 22.4099,8.8992 3.34,2.8393 4.64,6.1274 4.73,9.292 0.09,3.1759 -1.33,6.4528 -4.54,9.4941 -3.87,3.6584 -11.5699,7.3169 -22.2499,10.1449 -15.66,4.1298 -38.2499,6.7558 -63.3499,7.07 -25.0899,-0.3816 -47.6698,-3.0637 -63.3198,-7.2271 -10.64,-2.828 -18.3299,-6.4528 -22.1799,-10.1001 -3.17,-3.0187 -4.57,-6.2395 -4.48,-9.3818 0.09,-3.1197 1.39,-6.363 4.69,-9.1573 3.99,-3.3891 11.6899,-6.6772 22.3199,-8.9217 15.69,-3.3105 38.1199,-4.9939 62.9698,-4.1522 z m 77.0699,22.1864 c 0,0.022 0,0.034 0,0.045 0,0.2582 -0.04,0.8978 0.22,0.7856 0.38,-0.1796 0.22,-0.4713 -0.22,-0.8304 z m -153.5997,-0.101 c 0.12,0.09 0.24,0.1907 0.35,0.2581 1.17,0.8304 2.72,1.5599 4.55,2.3005 6.57,2.6597 16.45,4.6573 28.44,6.1161 12.5499,1.5263 27.3499,2.4016 43.1898,2.1884 15.83,0.1571 30.62,-0.7631 43.1699,-2.323 11.96,-1.4814 21.82,-3.4901 28.39,-6.1386 1.82,-0.7294 3.36,-1.4364 4.52,-2.2669 0.16,-0.101 0.34,-0.2469 0.5,-0.3815 -0.77,-0.4938 -1.88,-1.0661 -2.73,-1.5263 -4.88,-2.7157 -12.42,-5.1734 -21.86,-7.2495 -14.1199,-3.0974 -32.1999,-5.3418 -51.9899,-6.06 -19.7999,0.6733 -37.8899,2.8841 -52.0098,5.959 -9.46,2.0536 -17.02,4.5001 -21.92,7.2047 -0.95,0.5274 -1.92,1.313 -2.6,1.919 z"
     id="path614"
     style="stroke:none;stroke-width:0.21187" /><path
     d="m 1096.1185,4579.0642 c 1.5499,1.16 1.8799,3.36 0.7199,4.91 -1.1499,1.55 -3.3499,1.87 -4.8999,0.72 -7.07,-4.96 -13.06,-17.94 -17.53,-36.33 -5.64,-23.2 -9.36,-55.21 -11.28,-89.5299 -1.79,-31.89 -2.19,-65.75 -1.43,-96.24 0.44,-17.47 1.35,-33.84 2.4,-48.09 1.7,-22.92 3.96,-40.45 5.89,-48.62 5.55,-22.85 17.38,-41.04 30.0399,-57.4899 13.35,-17.36 27.57,-32.66 34.58,-50.39 3.4899,-8.83 5.2099,-18.23 3.9999,-28.83 -0.27,-1.91 1.06,-3.69 2.98,-3.96 1.92,-0.27 3.69,1.07 3.96,2.99 2,11.89 0.63,22.62 -2.81,32.78 -6.3699,18.83 -20.1899,35.63 -33.3099,54.32 -10.93,15.5799 -21.3599,32.5199 -25.6099,53.6499 -1.76,8.51 -3.24,27.57 -4.48,52.25 -0.55,10.9 -1.03,22.87 -1.48,35.52 -0.61,16.9 -1.11,35 -1.35,53.34 -0.37,27.19 -0.22,54.8799 1.04,79.9499 1.3,25.85 3.64,48.86 7.74,65.54 2.81,11.44 6.14,19.81 10.83,23.51 z"
     id="path616"
     style="stroke:none;stroke-width:0.2" /><path
     d="m 1190.5482,4129.7044 c 0.27,-0.4 0.8,-1.23 1.04,-1.88 1.04,-2.78 1.51,-6.43 1.31,-10.07 -0.21,-3.76 -0.99,-7.57 -2.91,-10.25 -0.81,-1.15 -2.3,-1.86 -4.08,-2.47 -3.14,-1.09 -7.03,-1.68 -11.1999,-1.92 -10.84,-0.63 -23.39,0.96 -30.38,3.08 -3.43,1.03 -5.34,3.14 -6.26,5.82 -1.8999,5.54 -0.79,12.61 -0.01,18.22 0.14,1.03 1.31,1.44 2.61,2 2.74,1.18 6.43,1.91 10.46,2.35 10.38,1.14 22.91,0.42 29.0999,-0.41 1.91,-0.29 3.7,1.02 4,2.93 0.3,1.91 -1.01,3.7 -2.92,4 -7.6299,1.35 -24.3899,2.91 -36.2199,1.19 -4.99,-0.72 -9.1699,-2.14 -11.8499,-4.09 -2.38,-1.73 -3.76,-3.96 -4.22,-6.53 -1.26,-6.95 -2.56,-15.73 -0.46,-22.72 1.71,-5.68 5.45,-10.33 12.5299,-12.76 9.08,-3.13 26.66,-5.81 39.9799,-4.45 8.7,0.89 15.63,3.89 19.02,8.3 4.86,6.36 6.63,16.68 5.67,25.27 -0.58,5.2 -2.26,9.73 -4.43,12.67 -0.43,0.6 -0.89,1.13 -1.38,1.62 2.46,11.01 9.52,22.67 17.8599,34.74 13.3,19.25 30.13,39.2 40.6699,58.0899 5.88,10.53 9.79,20.84 10.7,30.5 0.66,7.68 2.23,35.7 3.44,72.09 1.07,32.18 1.9,70.91 1.97,107.84 0.1,50.5199 -1.31,97.6399 -5.2,120.1499 -0.29,1.91 -2.08,3.23 -3.99,2.94 -1.91,-0.3 -3.23,-2.09 -2.94,-4 2.38,-17.82 2.44,-51.03 1.5,-89.04 -1.01,-40.5999 -3.3,-86.6199 -5.42,-125.2999 -2.2799,-41.67 -4.3599,-74.78 -5.2299,-83.18 -1.12,-12.08 -8.57,-25.09 -17.6,-38.65 -12.93,-19.4299 -29.3599,-39.6399 -39.6699,-58.6499 -5.67,-10.46 -9.53,-20.63 -10.38,-30.16 -0.35,-3.32 1.75,-6.36 4.89,-7.27 z m 0.68,-0.16 c 0,0 0.01,0 0.02,0 -0.01,0 -0.02,0 -0.02,0 z"
     id="path618"
     style="stroke:none;stroke-width:0.2" /><path
     d="m 1121.3984,4204.0944 c 1.6,-1.1 3.78,-0.69 4.88,0.9 1.09,1.6 0.69,3.78 -0.91,4.88 -1.46,1.54 -2.28,3.74 -3.44,6.38 -1.38,3.1499 -2.24,6.9099 -3.49,11.3099 -0.58,2.05 -1.15,4.22 -1.91,6.46 -0.7,2.08 -1.57,4.19 -2.47,6.4 -1.42,3.46 -3.04,6.94 -4.69,10.77 -1.55,3.6 -3.22,7.08 -4.86,11.01 -0.38,1.89 -2.23,3.12 -4.13,2.73 -1.9,-0.38 -3.12,-2.23 -2.74,-4.13 0.02,-3.92 0.04,-7.5 0.26,-11.14 0.23,-3.94 0.6,-7.58 1.16,-11.14 0.41,-2.58 0.9,-5.03 1.6,-7.35 0.77,-2.54 1.75,-4.9 2.82,-7.06 1.68,-3.43 3.46,-6.3899 5.4,-8.9399 4.3,-5.64 8.36,-9.32 12.52,-11.08 z m -34.4999,155.1999 c 0.08,-1.93 1.71,-3.43 3.64,-3.36 1.94,0.08 3.44,1.71 3.37,3.65 0.56,14.72 1.77,29.59 2.8799,44.55 0.43,5.93 0.82,11.84 1.2,17.74 0.26,3.94 0.54,7.88 0.69,11.8 0.39,10.01 0.58,19.88 0.93,29.5499 0.57,15.55 1.13,30.43 2.66,44.37 0.35,1.9 -0.9,3.73 -2.81,4.08 -1.9,0.36 -3.7299,-0.9 -4.0799,-2.8 -3.64,-13.84 -7,-28.67 -9.37,-44.38 -1.48,-9.7799 -2.67,-19.8099 -3.3,-30.0299 -0.24,-4 -0.3,-8.02 -0.31,-12.06 -0.03,-6.02 0.08,-12.05 0.37,-18.09 0.75,-15.18 2.38,-30.2 4.13,-45.02 z"
     id="path620"
     style="stroke:none;stroke-width:0.2" /><path
     d="m 1078.1985,4267.1143 c -1.92,0.21 -3.65,-1.18 -3.86,-3.11 -0.21,-1.92 1.17,-3.65 3.1,-3.86 0,0 22.5299,-4.37 54.8599,-7.76 6.9499,-0.73 14.3499,-1.33 22.0799,-1.8 4.81,-0.3 9.74,-0.57 14.77,-0.64 11.9799,-0.16 24.4499,0.23 36.9799,1.02 18.8299,1.19 37.6399,3.55 55.1898,6.63 1.92,0.22 3.3,1.96 3.08,3.88 -0.22,1.93 -1.96,3.31 -3.88,3.09 -11.7499,-0.58 -23.9799,-0.56 -36.4199,-0.37 -9.7099,0.14 -19.4499,0.51 -29.1199,0.82 -9.9,0.32 -19.6699,0.79 -29.0999,1 -12.45,0.27 -24.28,0.28 -35.0099,0.38 -31.02,0.27 -52.6699,0.72 -52.6699,0.72 z"
     id="path622"
     style="stroke:none;stroke-width:0.2" /><path
     d="m 1070.0585,4364.7943 c -1.92,0.19 -3.64,-1.22 -3.83,-3.15 -0.19,-1.92 1.22,-3.64 3.14,-3.83 0,0 25.48,-4.48 58.7999,-8.27 7.56,-0.86 15.4999,-1.6 23.6499,-2.23 5.21,-0.4 10.5,-0.78 15.82,-0.97 13.4199,-0.47 26.9499,-0.37 39.6999,0.11 25.3199,0.93 47.4399,3.62 59.7898,7.77 1.86,0.52 2.96,2.45 2.45,4.31 -0.51,1.87 -2.45,2.97 -4.31,2.45 -8.8099,-1.86 -22.3499,-2.07 -38.3399,-1.66 -9.7299,0.25 -20.2799,0.86 -31.2199,1.44 -10.27,0.55 -20.8299,1.28 -31.2899,1.72 -13.02,0.55 -25.85,0.82 -37.6699,1.1 -32.1999,0.76 -56.6899,1.21 -56.6899,1.21 z"
     id="path624"
     style="stroke:none;stroke-width:0.2" /><path
     d="m 1027.6186,4585.3842 c -1.94,0 -3.51,-1.57 -3.51,-3.5 0,-1.94 1.57,-3.51 3.51,-3.51 0,0 8.52,-1.93 19.92,-3.5 2.56,-0.35 5.22,-0.61 7.97,-0.8 1.7599,-0.12 3.5299,-0.23 5.3099,-0.19 4.58,0.12 9.09,0.63 13.29,1.17 11.38,1.44 19.92,3.32 19.92,3.32 1.93,0 3.5099,1.57 3.5099,3.51 0,1.93 -1.5799,3.5 -3.5099,3.5 0,0 -8.54,1.88 -19.92,3.33 -4.2,0.53 -8.71,1.04 -13.29,1.16 -1.78,0.05 -3.55,-0.07 -5.3099,-0.19 -2.75,-0.19 -5.41,-0.44 -7.97,-0.8 -11.4,-1.57 -19.92,-3.5 -19.92,-3.5 z m 233.6294,0 c -1.94,0 -3.51,-1.57 -3.51,-3.5 0,-1.94 1.57,-3.51 3.51,-3.51 0,0 8.82,-1.93 20.57,-3.5 2.64,-0.35 5.39,-0.61 8.23,-0.8 1.81,-0.12 3.65,-0.23 5.49,-0.19 4.7199,0.12 9.3799,0.63 13.7099,1.17 11.74,1.44 20.58,3.32 20.58,3.32 1.93,0 3.5,1.57 3.5,3.51 0,1.93 -1.57,3.5 -3.5,3.5 0,0 -8.84,1.88 -20.58,3.33 -4.33,0.53 -8.99,1.04 -13.7099,1.16 -1.84,0.05 -3.68,-0.07 -5.49,-0.19 -2.84,-0.19 -5.59,-0.44 -8.23,-0.8 -11.75,-1.56 -20.57,-3.5 -20.57,-3.5 z"
     id="path626"
     style="stroke:none;stroke-width:0.2" /><path
     d="m 1297.788,4601.9342 c 5.3299,-1.34 9.7399,-2.15 12.5099,-2.09 6.59,0.14 8.22,4.37 8.58,6.27 0.31,1.65 0.33,3.71 -1.13,5.86 -0.63,0.92 -2.22,2.62 -5.08,4.16 -2.92,1.56 -7.95,3.69 -13.4,5.96 4.38,-0.65 8.86,-1.2 13.19,-1.39 6.77,-0.29 13.17,0.18 18.48,2.22 1.84,0.62 2.83,2.61 2.21,4.44 -0.61,1.83 -2.6,2.83 -4.43,2.21 -4.57,-1.31 -9.93,-1.1 -15.53,-0.38 -15.02,1.91 -31.5099,7.69 -40.6099,7.04 -3.64,-0.27 -5.24,-2.15 -6.02,-3.33 -0.99,-1.49 -1.46,-3.44 -0.6,-5.66 -9.5499,1.99 -18.1199,2.23 -23.5699,0.21 -4.13,-1.55 -5.78,-3.98 -6.45,-5.8 -0.89,-2.44 -0.91,-5.05 0.78,-7.69 0.63,-0.98 1.95,-2.26 3.92,-3.55 -3.82,0.45 -6.21,0.75 -6.21,0.75 -1.91,0.33 -3.73,-0.95 -4.06,-2.85 -0.33,-1.91 0.95,-3.72 2.86,-4.05 0,0 22.58,-4.98 39.7799,-7.79 8.19,-1.34 15.24,-2.06 18.49,-1.83 4.42,0.32 5.58,3.3 5.99,4.4 0.27,0.71 0.47,1.74 0.3,2.89 z m -47.5999,19.01 c -1.35,0.62 -2,1.28 -1.43,2.06 0.65,0.9 1.19,-1.18 1.43,-2.06 z m -2.66,-7.94 c 0,0 -0.01,0 -0.01,-0.01 0,0.01 0.01,0.01 0.01,0.01 z"
     id="path628"
     style="stroke:none;stroke-width:0.2" /><path
     style="fill:#000000;stroke:none;stroke-width:0.2;stroke-linecap:round;stroke-linejoin:round"
     d="m 1068.6128,4359.9583 c 1.5096,-9.1391 6.3752,-98.0898 6.3752,-98.0898 l 182.7481,-2.3673 8.4518,95.4602 z"
     id="path83" /></g></svg>
