<?xml version="1.0" encoding="UTF-8" standalone="no"?>
<svg
   width="3532.1621"
   height="3586.4075"
   viewBox="0 0 3532.1621 3586.4075"
   version="1.1"
   xml:space="preserve"
   style="clip-rule:evenodd;fill-rule:evenodd;stroke-linejoin:round;stroke-miterlimit:2"
   id="svg5353"
   xmlns="http://www.w3.org/2000/svg"
   xmlns:svg="http://www.w3.org/2000/svg"><defs
   id="defs5353" />&#10;    <g
   id="vectorly-UNI-five-stars-review"
   style="stroke:none;stroke-width:0.2"
   transform="matrix(4.9999999,0,0,4.9999999,-20202.675,-48330.256)"><path
     d="m 4466.7401,10055.312 c 0.26,1.9 -1.09,3.6 -3,3.9 -1.92,0.3 -3.69,-1.1 -3.95,-3 l -11.71,-77.5 c -0.17,-1.2 0.19,-2.5 1,-3.5 0,0 49.5999,-63.31 49.5999,-63.31 l -77.9298,-11.22 c -2.26,-0.35 -4.19,-1.78 -5.19,-3.84 l -32.4299,-65.59 -38.6399,69.29 c -1.25,2.21 -3.46,3.7 -5.98,4.02 l -72.5898,8.73 54.7699,60.22 c 1.32,1.5 1.9599,3.4 1.7599,5.3 l -8.9299,76 68.7998,-30 c 1.31,-0.6 2.83,-0.6 4.11,0.1 l 72.5198,40 c 1.7,0.9 2.35,3.1 1.44,4.8 -0.91,1.7 -3.04,2.3 -4.74,1.4 l -71.5098,-36.9 -75.1498,35.2 c -1.89,0.9 -4.09,0.7 -5.76,-0.6 -1.68,-1.2 -2.58,-3.2 -2.36,-5.2 l 7.87,-83.1 -63.8999,-67.85 c -1.93,-2.08 -2.53,-5.08 -1.56,-7.75 0.98,-2.67 3.36,-4.58 6.19,-4.93 0,0 83.0598,-10.77 83.0598,-10.77 l 44.3199,-78.1799 c 1.4,-2.49 4.07,-3.99 6.92,-3.91 2.85,0.09 5.42,1.75 6.66,4.32 l 36.1199,76.1199 83.9898,14.11 c 2.09,0.33 3.84,1.74 4.6,3.71 0.76,1.97 0.42,4.2 -0.91,5.84 l -56.6099,68.29 z"
     id="path2756"
     style="stroke:none;stroke-width:0.2" /><path
     d="m 4666.6328,10055.713 c 0.2591,1.977 -1.0839,3.681 -2.9995,3.954 -1.9155,0.272 -3.688,-1.091 -3.947,-3 l -8.3509,-52.764 c -0.1772,-1.227 0.1841,-2.522 0.9953,-3.544 l 31.5219,-40.7389 -50.0164,-6.9261 c -2.2564,-0.3477 -4.1925,-1.7861 -5.1878,-3.838 0,0 -20.2056,-40.4726 -20.2056,-40.4726 l -24.0368,43.2744 c -1.2407,2.2087 -3.463,3.7016 -5.9785,4.0152 l -44.9104,5.3037 34.0237,37.7457 c 1.3225,1.4316 1.9633,3.3406 1.7587,5.2496 l -5.9785,48.741 44.0447,-18.951 c 1.3157,-0.614 2.8359,-0.545 4.1107,0.136 l 49.2665,27.609 c 1.7043,0.886 2.3519,3 1.4384,4.704 -0.9067,1.704 -3.0336,2.386 -4.7378,1.5 l -48.2235,-24.542 -50.4732,24.064 c -1.8883,0.818 -4.0834,0.614 -5.7604,-0.613 -1.6838,-1.227 -2.5836,-3.204 -2.3655,-5.249 l 4.9833,-55.627 -43.1176,-45.4286 c -1.936,-2.086 -2.5359,-5.0787 -1.5611,-7.7509 0.9748,-2.6723 3.3676,-4.5743 6.1898,-4.9287 l 55.3405,-7.3011 29.6677,-52.1433 c 1.3974,-2.4882 4.0629,-3.9879 6.9192,-3.8993 2.8495,0.082 5.4127,1.7451 6.6602,4.3152 l 23.9618,50.9844 56.0154,9.7347 c 2.086,0.3204 3.838,1.7383 4.6015,3.7084 0.7567,1.9702 0.409,4.1925 -0.9135,5.8354 l -38.5093,45.9198 z"
     id="path2758"
     style="stroke:none;stroke-width:0.13634" /><path
     d="m 4204.9313,10060.375 c 0.2591,1.976 -1.0839,3.681 -2.9995,3.953 -1.9155,0.273 -3.688,-1.09 -3.947,-2.999 l -8.3509,-52.764 c -0.1772,-1.227 0.1841,-2.522 0.9953,-3.545 l 31.5219,-40.738 -50.0164,-6.9261 c -2.2564,-0.3477 -4.1925,-1.7861 -5.1878,-3.838 0,0 -20.2056,-40.4726 -20.2056,-40.4726 l -24.0368,43.2744 c -1.2407,2.2087 -3.463,3.7016 -5.9785,4.0152 l -44.9104,5.3037 34.0237,37.7454 c 1.3225,1.432 1.9633,3.341 1.7587,5.249 l -5.9785,48.742 44.0447,-18.951 c 1.3157,-0.614 2.8359,-0.546 4.1107,0.136 l 49.2665,27.609 c 1.7043,0.886 2.3519,2.999 1.4384,4.704 -0.9067,1.704 -3.0336,2.386 -4.7378,1.499 l -48.2235,-24.541 -50.4732,24.064 c -1.8883,0.818 -4.0834,0.614 -5.7604,-0.613 -1.6838,-1.227 -2.5836,-3.204 -2.3655,-5.249 l 4.9833,-55.627 -43.1176,-45.4287 c -1.936,-2.086 -2.5359,-5.0787 -1.5611,-7.7509 0.9748,-2.6723 3.3676,-4.5743 6.1898,-4.9287 l 55.3405,-7.3011 29.6677,-52.1433 c 1.3974,-2.4882 4.0629,-3.9879 6.9192,-3.8993 2.8495,0.082 5.4127,1.7451 6.6602,4.3152 l 23.9618,50.9844 56.0154,9.7347 c 2.086,0.3204 3.838,1.7383 4.6015,3.7084 0.7567,1.9702 0.409,4.1925 -0.9135,5.8354 l -38.5093,45.9189 z"
     id="path2760"
     style="stroke:none;stroke-width:0.13634" /><path
     d="m 4331.1329,10242.609 c 0.2596,1.893 -1.0871,3.678 -3.0017,3.948 -1.92,0.216 -3.6831,-1.136 -3.9427,-3.029 l -6.874,-41.807 c -0.1731,-1.298 0.1838,-2.596 0.9951,-3.569 l 23.5373,-30.758 -37.6748,-5.04 c -2.2553,-0.352 -4.1915,-1.785 -5.1867,-3.84 l -14.7757,-29.368 -17.5935,31.774 c -1.2385,2.207 -3.4559,3.7 -5.9762,4.013 l -32.6829,3.803 24.8623,27.739 c 1.3251,1.46 1.9633,3.353 1.7578,5.3 l -4.6513,36.615 33.0669,-14.007 c 1.3197,-0.595 2.8394,-0.541 4.1158,0.108 l 38.9728,22.12 c 1.7037,0.919 2.3527,3.029 1.4387,4.759 -0.9086,1.677 -3.0341,2.326 -4.7432,1.407 l -37.902,-18.984 -39.5623,19.092 c -1.8875,0.865 -4.0833,0.649 -5.7654,-0.595 -1.6766,-1.19 -2.5744,-3.245 -2.358,-5.3 l 3.7047,-43.43 -33.9268,-35.517 c -1.9308,-2.087 -2.5311,-5.084 -1.5576,-7.755 0.9735,-2.672 3.364,-4.576 6.1872,-4.927 l 43.0724,-5.76 23.1858,-40.617 c 1.4007,-2.488 4.0617,-3.992 6.9173,-3.905 2.8502,0.09 5.4138,1.752 6.6577,4.316 l 18.5886,39.876 43.6295,7.782 c 2.0822,0.325 3.84,1.736 4.5971,3.705 0.7626,1.969 0.4165,4.197 -0.9086,5.841 l -30.5033,35.988 z"
     id="path2762"
     style="stroke:none;stroke-width:0.108168" /><path
     d="m 4543.1196,10243.366 c 0.2596,1.893 -1.0871,3.678 -3.0017,3.948 -1.92,0.217 -3.6831,-1.136 -3.9427,-3.028 l -6.874,-41.807 c -0.1731,-1.298 0.1838,-2.596 0.9951,-3.57 l 23.5373,-30.757 -37.6748,-5.041 c -2.2553,-0.352 -4.1915,-1.785 -5.1867,-3.84 l -14.7757,-29.368 -17.5935,31.775 c -1.2385,2.206 -3.4559,3.699 -5.9762,4.013 l -32.6829,3.802 24.8623,27.739 c 1.3251,1.461 1.9633,3.354 1.7578,5.301 l -4.6513,36.615 33.0669,-14.008 c 1.3197,-0.595 2.8394,-0.541 4.1158,0.108 l 38.9728,22.12 c 1.7037,0.92 2.3527,3.029 1.4387,4.76 -0.9086,1.676 -3.0341,2.325 -4.7432,1.406 l -37.902,-18.984 -39.5623,19.092 c -1.8875,0.865 -4.0833,0.649 -5.7654,-0.595 -1.6766,-1.19 -2.5744,-3.245 -2.358,-5.3 l 3.7047,-43.43 -33.9268,-35.516 c -1.9308,-2.088 -2.5311,-5.084 -1.5576,-7.756 0.9735,-2.672 3.364,-4.576 6.1872,-4.927 l 43.0724,-5.76 23.1858,-40.617 c 1.4007,-2.488 4.0617,-3.992 6.9173,-3.905 2.8502,0.09 5.4138,1.752 6.6577,4.316 l 18.5886,39.876 43.6295,7.783 c 2.0822,0.324 3.84,1.736 4.5971,3.704 0.7626,1.969 0.4165,4.197 -0.9086,5.841 l -30.5033,35.988 z"
     id="path2764"
     style="stroke:none;stroke-width:0.108168" /><path
     d="m 4453.8801,9974.812 c 1.83,0.6 2.8,2.6 2.16,4.5 -0.64,1.8 -2.64,2.7 -4.47,2.1 0,0 -27.2699,-7.4 -61.8498,-17.9 -7.9,-2.3 -16.15,-5 -24.54,-7.7 -5.3899,-1.7 -10.8399,-3.5 -16.2399,-5.45 -13.81,-4.94 -27.4599,-10.25 -40.0899,-15.22 -33.5899,-13.23 -59.5999,-24.32 -59.5999,-24.32 -1.82,-0.64 -2.79,-2.64 -2.15,-4.46 0.64,-1.83 2.64,-2.79 4.46,-2.16 0,0 27.26,7.5 61.7999,18.04 12.9699,3.96 26.9599,8.3 40.8399,13.02 5.44,1.85 10.8099,3.85 16.1199,5.83 8.27,3.08 16.35,6.18 24.02,9.23 33.5599,13.39 59.5398,24.49 59.5398,24.49 z"
     id="path2766"
     style="stroke:none;stroke-width:0.2" /><path
     d="m 4657.1299,9999.9495 c 1.827,0.6815 2.795,2.6585 2.1542,4.4995 -0.634,1.84 -2.6382,2.795 -4.4652,2.181 0,0 -18.7399,-4.499 -42.5245,-11.1797 -5.4263,-1.4998 -11.0708,-3.204 -16.8175,-4.9764 -3.688,-1.1589 -7.4169,-2.386 -11.0981,-3.6812 -9.4007,-3.4222 -18.6514,-7.192 -27.1999,-10.7436 -22.7961,-9.4689 -40.2749,-17.5743 -40.2749,-17.5743 -1.8338,-0.6408 -2.795,-2.6382 -2.161,-4.4651 0.6408,-1.827 2.6382,-2.795 4.4652,-2.1542 0,0 18.7331,4.5197 42.4767,11.2958 8.8962,2.5427 18.481,5.3445 27.9634,8.5281 3.7085,1.2475 7.3624,2.645 10.9754,4.0288 5.6172,2.161 11.0913,4.3424 16.2858,6.5307 22.7689,9.5984 40.2204,17.7106 40.2204,17.7106 z"
     id="path2768"
     style="stroke:none;stroke-width:0.13634" /><path
     d="m 4195.4284,10004.611 c 1.827,0.682 2.795,2.659 2.1542,4.5 -0.634,1.84 -2.6382,2.795 -4.4652,2.181 0,0 -18.7399,-4.499 -42.5245,-11.18 -5.4263,-1.4996 -11.0708,-3.2038 -16.8175,-4.9762 -3.688,-1.1589 -7.4169,-2.386 -11.0981,-3.6812 -9.4007,-3.4222 -18.6514,-7.192 -27.1999,-10.7436 -22.7961,-9.4689 -40.2749,-17.5743 -40.2749,-17.5743 -1.8338,-0.6408 -2.795,-2.6382 -2.161,-4.4651 0.6408,-1.827 2.6382,-2.795 4.4652,-2.1542 0,0 18.7331,4.5197 42.4767,11.2958 8.8962,2.5427 18.481,5.3445 27.9634,8.5281 3.7085,1.2475 7.3624,2.645 10.9754,4.0288 5.6172,2.161 11.0913,4.3424 16.2858,6.5307 22.7689,9.5984 40.2204,17.7102 40.2204,17.7102 z"
     id="path2770"
     style="stroke:none;stroke-width:0.13634" /><path
     d="m 4323.1122,10197.773 c 1.8281,0.649 2.7962,2.65 2.158,4.435 -0.6382,1.839 -2.6393,2.812 -4.4673,2.163 0,0 -14.9542,-3.136 -33.9755,-8.112 -4.3321,-1.136 -8.8211,-2.434 -13.3966,-3.84 -2.9314,-0.92 -5.9006,-1.839 -8.8157,-2.867 -7.4636,-2.758 -14.7541,-5.841 -21.5037,-8.756 -18.0316,-7.809 -31.731,-14.597 -31.731,-14.597 -1.8227,-0.638 -2.7908,-2.639 -2.1526,-4.462 0.6382,-1.828 2.6393,-2.796 4.4619,-2.158 0,0 14.9488,3.207 33.9269,8.318 7.0958,1.909 14.727,4.029 22.2663,6.539 2.9476,0.973 5.8356,2.109 8.6913,3.234 4.4511,1.747 8.7724,3.532 12.8665,5.333 18.01,7.902 31.6715,14.77 31.6715,14.77 z"
     id="path2772"
     style="stroke:none;stroke-width:0.108168" /><path
     d="m 4535.0989,10198.531 c 1.8281,0.649 2.7962,2.65 2.158,4.434 -0.6382,1.839 -2.6393,2.813 -4.4673,2.164 0,0 -14.9542,-3.137 -33.9755,-8.113 -4.3321,-1.136 -8.8211,-2.434 -13.3966,-3.84 -2.9314,-0.919 -5.9006,-1.839 -8.8157,-2.866 -7.4636,-2.759 -14.7541,-5.841 -21.5037,-8.756 -18.0316,-7.81 -31.731,-14.598 -31.731,-14.598 -1.8227,-0.638 -2.7908,-2.639 -2.1526,-4.462 0.6382,-1.828 2.6393,-2.796 4.4619,-2.158 0,0 14.9488,3.208 33.9269,8.319 7.0958,1.909 14.727,4.029 22.2663,6.538 2.9476,0.974 5.8356,2.11 8.6913,3.234 4.4511,1.747 8.7724,3.532 12.8665,5.333 18.01,7.902 31.6715,14.771 31.6715,14.771 z"
     id="path2774"
     style="stroke:none;stroke-width:0.108168" /><path
     d="m 4380.0303,9814.7921 c -0.01,-1.93 1.56,-3.51 3.49,-3.51 1.94,-0.01 3.51,1.55 3.52,3.49 0,0 2.05,28.1899 3.71,64.2699 0.38,8.24 0.67,16.89 0.88,25.71 0.14,5.66 0.28,11.4 0.25,17.14 -0.07,14.66 -0.53,29.32 -1.02,42.82 -1.31,36.1 -3.12,64.3 -3.12,64.3 0.01,2 -1.56,3.5 -3.49,3.5 -1.94,0 -3.51,-1.5 -3.52,-3.5 0,0 -2,-28.2 -3.54,-64.2 -0.58,-13.6 -1.14,-28.21 -1.3,-42.87 -0.07,-5.74 0.03,-11.47 0.13,-17.14 0.16,-8.82 0.39,-17.47 0.72,-25.72 1.42,-36.08 3.29,-64.2899 3.29,-64.2899 z"
     id="path2776"
     style="stroke:none;stroke-width:0.2" /><path
     d="m 4605.3002,9891.9612 c -0.01,-1.936 1.5611,-3.5107 3.4971,-3.5175 1.9292,-0.01 3.5039,1.561 3.5108,3.4903 0,0 2.0246,19.1626 3.6471,43.8129 0.3749,5.6172 0.6476,11.5071 0.8521,17.5197 0.1363,3.8653 0.2659,7.7782 0.2318,11.6844 -0.082,10.0073 -0.5658,20.0011 -1.0703,29.204 -1.343,24.678 -3.1767,43.833 -3.1767,43.833 0.01,1.977 -1.5611,3.545 -3.4972,3.545 -1.936,0 -3.5107,-1.568 -3.5175,-3.476 0,0 -1.9565,-19.224 -3.4631,-43.8338 -0.5658,-9.2711 -1.1111,-19.2171 -1.2611,-29.2177 -0.061,-3.9061 0.048,-7.8191 0.15,-11.6844 0.1704,-6.0194 0.409,-11.9093 0.743,-17.5333 1.4589,-24.6571 3.354,-43.8266 3.354,-43.8266 z"
     id="path2778"
     style="stroke:none;stroke-width:0.13634" /><path
     d="m 4143.5987,9896.6231 c -0.01,-1.936 1.5611,-3.5107 3.4971,-3.5175 1.9292,-0.01 3.5039,1.561 3.5108,3.4903 0,0 2.0246,19.1626 3.6471,43.8129 0.3749,5.6172 0.6476,11.5071 0.8521,17.5197 0.1363,3.8653 0.2659,7.7782 0.2318,11.6844 -0.082,10.0073 -0.5658,20.0011 -1.0703,29.204 -1.343,24.6781 -3.1767,43.8331 -3.1767,43.8331 0.01,1.977 -1.5611,3.545 -3.4972,3.545 -1.936,0 -3.5107,-1.568 -3.5175,-3.477 0,0 -1.9565,-19.223 -3.4631,-43.8329 -0.5658,-9.2711 -1.1111,-19.2171 -1.2611,-29.2177 -0.061,-3.9061 0.048,-7.8191 0.15,-11.6844 0.1704,-6.0194 0.409,-11.9093 0.743,-17.5333 1.4589,-24.6571 3.354,-43.8266 3.354,-43.8266 z"
     id="path2780"
     style="stroke:none;stroke-width:0.13634" /><path
     d="m 4281.0296,10112.748 c -0.01,-1.931 1.563,-3.51 3.4938,-3.516 1.9362,0 3.51,1.558 3.5154,3.494 0,0 2.0066,15.149 3.6183,34.755 0.3677,4.456 0.6381,9.123 0.8437,13.899 0.1244,3.067 0.2542,6.171 0.2217,9.27 -0.092,7.945 -0.5787,15.874 -1.0925,23.175 -1.3629,19.633 -3.2072,34.776 -3.2072,34.776 0.01,1.947 -1.563,3.516 -3.4938,3.516 -1.9362,0 -3.51,-1.569 -3.5154,-3.462 0,0 -1.947,-15.197 -3.4398,-34.776 -0.5624,-7.355 -1.0979,-15.23 -1.2439,-23.175 -0.054,-3.104 0.054,-6.203 0.1623,-9.27 0.173,-4.781 0.411,-9.448 0.7517,-13.91 1.4819,-19.616 3.3857,-34.776 3.3857,-34.776 z"
     id="path2782"
     style="stroke:none;stroke-width:0.108168" /><path
     d="m 4493.0163,10113.505 c -0.01,-1.931 1.563,-3.51 3.4938,-3.515 1.9362,0 3.51,1.557 3.5154,3.493 0,0 2.0066,15.149 3.6183,34.755 0.3677,4.456 0.6381,9.124 0.8437,13.899 0.1244,3.067 0.2542,6.171 0.2217,9.27 -0.092,7.945 -0.5787,15.874 -1.0925,23.175 -1.3629,19.633 -3.2072,34.776 -3.2072,34.776 0.01,1.947 -1.563,3.516 -3.4938,3.516 -1.9362,0 -3.51,-1.569 -3.5154,-3.462 0,0 -1.947,-15.197 -3.4398,-34.776 -0.5624,-7.355 -1.0979,-15.23 -1.2439,-23.175 -0.054,-3.104 0.054,-6.203 0.1623,-9.27 0.173,-4.781 0.411,-9.448 0.7517,-13.91 1.4819,-19.616 3.3857,-34.776 3.3857,-34.776 z"
     id="path2784"
     style="stroke:none;stroke-width:0.108168" /><path
     d="m 4508.43,9904.222 c 1.82,-0.66 3.83,0.27 4.5,2.09 0.66,1.82 -0.28,3.83 -2.1,4.5 0,0 -24.84,11.13 -56.9699,24.47 -7.34,3.04 -15.0799,6.14 -22.9899,9.22 -5.09,1.98 -10.24,3.98 -15.45,5.82 -13.2999,4.69 -26.7299,9.09 -39.1699,12.99 -33.1399,10.6 -59.3098,18.1 -59.3098,18.1 -1.82,0.7 -3.83,-0.3 -4.49,-2.1 -0.66,-1.8 0.27,-3.8 2.09,-4.5 0,0 24.8699,-11.1 57.0298,-24.3 12.08,-4.96 25.15,-10.27 38.3799,-15.21 5.18,-1.93 10.41,-3.71 15.58,-5.47 8.04,-2.73 15.95,-5.34 23.5399,-7.72 33.18,-10.44 59.3599,-17.89 59.3599,-17.89 z"
     id="path2786"
     style="stroke:none;stroke-width:0.2" /><path
     d="m 4693.5668,9951.8691 c 1.8202,-0.6612 3.8312,0.2795 4.4924,2.0928 0.6613,1.8202 -0.2726,3.8312 -2.0928,4.4925 0,0 -16.6676,8.1531 -38.4547,17.731 -4.9696,2.1814 -10.2051,4.3629 -15.5905,6.5239 -3.4494,1.3838 -6.9534,2.7881 -10.5051,4.0152 -9.0938,3.204 -18.29,5.999 -26.8317,8.5213 -22.7961,6.8172 -40.793,11.3162 -40.793,11.3162 -1.8201,0.682 -3.8312,-0.273 -4.4924,-2.045 -0.6613,-1.841 0.2795,-3.886 2.0928,-4.499 0,0 16.6949,-8.1126 38.5161,-17.5814 8.1804,-3.5448 17.0221,-7.3146 26.0342,-10.7232 3.5244,-1.3293 7.1033,-2.5086 10.6413,-3.6675 5.5082,-1.8065 10.9277,-3.504 16.1359,-5.031 22.8438,-6.6738 40.8475,-11.1458 40.8475,-11.1458 z"
     id="path2788"
     style="stroke:none;stroke-width:0.13634" /><path
     d="m 4231.8653,9956.531 c 1.8202,-0.6612 3.8312,0.2795 4.4924,2.0928 0.6613,1.8202 -0.2726,3.8312 -2.0928,4.4925 0,0 -16.6676,8.1531 -38.4547,17.731 -4.9696,2.1814 -10.2051,4.3629 -15.5905,6.5239 -3.4494,1.3838 -6.9534,2.7881 -10.5051,4.0152 -9.0938,3.204 -18.29,5.999 -26.8317,8.5213 -22.7961,6.8173 -40.793,11.3163 -40.793,11.3163 -1.8201,0.682 -3.8312,-0.273 -4.4924,-2.045 -0.6613,-1.841 0.2795,-3.886 2.0928,-4.499 0,0 16.6949,-8.1127 38.5161,-17.5815 8.1804,-3.5448 17.0221,-7.3146 26.0342,-10.7232 3.5244,-1.3293 7.1033,-2.5086 10.6413,-3.6675 5.5082,-1.8065 10.9277,-3.504 16.1359,-5.031 22.8438,-6.6738 40.8475,-11.1458 40.8475,-11.1458 z"
     id="path2790"
     style="stroke:none;stroke-width:0.13634" /><path
     d="m 4351.5333,10159.595 c 1.8172,-0.66 3.8346,0.276 4.4944,2.093 0.6598,1.818 -0.2758,3.835 -2.0931,4.495 0,0 -13.0342,6.825 -30.2599,14.748 -3.9157,1.801 -8.0531,3.581 -12.3149,5.328 -2.7312,1.13 -5.4949,2.266 -8.3235,3.239 -7.2256,2.488 -14.554,4.652 -21.3685,6.545 -18.2317,5.137 -32.5964,8.328 -32.5964,8.328 -1.8172,0.649 -3.8291,-0.27 -4.4944,-2.109 -0.6598,-1.785 0.2759,-3.84 2.0931,-4.489 0,0 13.0667,-6.76 30.3248,-14.57 6.4468,-2.921 13.4236,-6.009 20.5735,-8.735 2.7908,-1.065 5.641,-1.974 8.4533,-2.871 4.3916,-1.401 8.7021,-2.694 12.8558,-3.835 18.2857,-5.008 32.6558,-8.167 32.6558,-8.167 z"
     id="path2792"
     style="stroke:none;stroke-width:0.108168" /><path
     d="m 4563.52,10160.353 c 1.8172,-0.66 3.8346,0.275 4.4944,2.093 0.6598,1.817 -0.2758,3.834 -2.0931,4.494 0,0 -13.0342,6.825 -30.2599,14.749 -3.9157,1.801 -8.0531,3.58 -12.3149,5.327 -2.7312,1.13 -5.4949,2.266 -8.3235,3.24 -7.2256,2.488 -14.554,4.651 -21.3685,6.544 -18.2317,5.138 -32.5964,8.329 -32.5964,8.329 -1.8172,0.649 -3.8291,-0.271 -4.4944,-2.11 -0.6598,-1.784 0.2759,-3.839 2.0931,-4.488 0,0 13.0667,-6.761 30.3248,-14.571 6.4468,-2.92 13.4236,-6.008 20.5735,-8.734 2.7908,-1.066 5.641,-1.974 8.4533,-2.872 4.3916,-1.401 8.7021,-2.694 12.8558,-3.835 18.2857,-5.008 32.6558,-8.166 32.6558,-8.166 z"
     id="path2794"
     style="stroke:none;stroke-width:0.108168" /><path
     d="m 4460.1701,10066.012 c 1.11,1.6 0.72,3.8 -0.87,4.9 -1.58,1.1 -3.77,0.7 -4.88,-0.9 0,0 -17.3699,-21.4 -38.7999,-49.4 -4.9,-6.4 -9.94,-13.2 -15.0299,-20.1 -3.26,-4.5 -6.57,-9 -9.74,-13.6 -8.1,-11.8 -15.86,-23.8 -23,-35 -18.9999,-29.63 -33.1999,-53.28 -33.1999,-53.28 -1.11,-1.58 -0.72,-3.77 0.86,-4.88 1.59,-1.11 3.77,-0.72 4.88,0.87 0,0 17.33,21.47 38.6599,49.51 8.02,10.58 16.62,21.98 24.9099,33.58 3.24,4.6 6.35,9.3 9.43,13.9 4.77,7.1 9.39,14.2 13.72,21 18.8999,29.7 33.0599,53.4 33.0599,53.4 z"
     id="path2796"
     style="stroke:none;stroke-width:0.2" /><path
     d="m 4661.9632,10062.598 c 1.1111,1.568 0.7226,3.749 -0.8658,4.84 -1.5884,1.159 -3.7698,0.75 -4.881,-0.818 0,0 -12.3115,-14.248 -27.3635,-33.063 -3.4357,-4.294 -6.9328,-8.862 -10.4504,-13.565 -2.2633,-3 -4.547,-6.068 -6.6943,-9.272 -5.4945,-8.044 -10.6482,-16.2923 -15.3724,-23.9955 -12.6115,-20.5533 -21.7735,-36.9755 -21.7735,-36.9755 -1.1044,-1.5883 -0.7158,-3.7766 0.8657,-4.8809 1.5884,-1.1112 3.7767,-0.7226 4.881,0.8657 0,0 12.2775,14.2476 27.2203,33.1511 5.6036,7.0897 11.6026,14.793 17.288,22.7011 2.2223,3.135 4.3151,6.271 6.3739,9.475 3.2108,4.908 6.2921,9.749 9.1484,14.452 12.516,20.588 21.6236,37.085 21.6236,37.085 z"
     id="path2798"
     style="stroke:none;stroke-width:0.13634" /><path
     d="m 4200.2617,10067.26 c 1.1111,1.568 0.7226,3.749 -0.8658,4.84 -1.5884,1.159 -3.7698,0.75 -4.881,-0.818 0,0 -12.3115,-14.248 -27.3635,-33.063 -3.4357,-4.294 -6.9328,-8.862 -10.4504,-13.566 -2.2633,-2.999 -4.547,-6.067 -6.6943,-9.271 -5.4945,-8.044 -10.6482,-16.2924 -15.3724,-23.9956 -12.6115,-20.5533 -21.7735,-36.9755 -21.7735,-36.9755 -1.1044,-1.5883 -0.7158,-3.7766 0.8657,-4.8809 1.5884,-1.1112 3.7767,-0.7226 4.881,0.8657 0,0 12.2775,14.2476 27.2203,33.1511 5.6036,7.0897 11.6026,14.793 17.288,22.7002 2.2223,3.136 4.3151,6.272 6.3739,9.476 3.2108,4.908 6.2921,9.748 9.1484,14.452 12.516,20.588 21.6236,37.085 21.6236,37.085 z"
     id="path2800"
     style="stroke:none;stroke-width:0.13634" /><path
     d="m 4327.3037,10247.693 c 1.1088,1.568 0.7194,3.786 -0.8653,4.867 -1.5847,1.136 -3.7751,0.757 -4.8838,-0.865 0,0 -10.065,-10.979 -22.3042,-25.798 -2.7799,-3.353 -5.6031,-6.923 -8.4262,-10.655 -1.8118,-2.379 -3.6399,-4.813 -5.3381,-7.301 -4.3429,-6.436 -8.3452,-13.034 -12.0012,-19.2 -9.7892,-16.517 -16.7065,-29.735 -16.7065,-29.735 -1.1088,-1.585 -0.7193,-3.77 0.8653,-4.879 1.5847,-1.108 3.7697,-0.719 4.8784,0.866 0,0 10.0271,11.044 22.1581,25.906 4.5377,5.571 9.3782,11.574 13.9104,17.902 1.774,2.434 3.4127,4.976 5.0298,7.517 2.5149,3.895 4.9108,7.789 7.1175,11.574 9.6972,16.55 16.5658,29.801 16.5658,29.801 z"
     id="path2802"
     style="stroke:none;stroke-width:0.108168" /><path
     d="m 4539.2904,10248.45 c 1.1088,1.568 0.7194,3.786 -0.8653,4.868 -1.5847,1.135 -3.7751,0.757 -4.8838,-0.866 0,0 -10.065,-10.979 -22.3042,-25.798 -2.7799,-3.353 -5.6031,-6.923 -8.4262,-10.654 -1.8118,-2.38 -3.6399,-4.814 -5.3381,-7.302 -4.3429,-6.436 -8.3452,-13.034 -12.0012,-19.2 -9.7892,-16.517 -16.7065,-29.735 -16.7065,-29.735 -1.1088,-1.585 -0.7193,-3.77 0.8653,-4.878 1.5847,-1.109 3.7697,-0.72 4.8784,0.865 0,0 10.0271,11.044 22.1581,25.906 4.5377,5.571 9.3782,11.574 13.9104,17.902 1.774,2.434 3.4127,4.976 5.0298,7.518 2.5149,3.894 4.9108,7.788 7.1175,11.574 9.6972,16.549 16.5658,29.8 16.5658,29.8 z"
     id="path2804"
     style="stroke:none;stroke-width:0.108168" /><path
     d="m 4418.9202,9891.852 c 1.08,-1.6 3.26,-2.02 4.86,-0.94 1.61,1.08 2.03,3.26 0.94,4.87 0,0 -13.53,23.51 -31.6599,53.06 -4.14,6.77 -8.58,13.77 -13.17,20.87 -2.95,4.6 -5.93,9.2 -9.05,13.8 -7.98,11.6 -16.2799,22.9 -24.0099,33.4 -20.58,27.9 -37.3199,49.2 -37.3199,49.2 -1.08,1.6 -3.26,2 -4.86,1 -1.61,-1.1 -2.03,-3.3 -0.95,-4.9 0,0 13.59,-23.5 31.8099,-53 6.85,-11 14.3,-23 22.08,-34.7 3.05,-4.6 6.2299,-9.1 9.3799,-13.5 4.89,-6.9 9.76,-13.65 14.48,-20.02 20.68,-27.82 37.4699,-49.14 37.4699,-49.14 z"
     id="path2806"
     style="stroke:none;stroke-width:0.2" /><path
     d="m 4632.0024,9943.8591 c 1.0839,-1.602 3.2654,-2.0246 4.8674,-0.9407 1.602,1.0839 2.0246,3.2653 0.9407,4.8673 0,0 -8.6781,16.3268 -20.6624,36.8051 -2.7336,4.656 -5.6853,9.4961 -8.7666,14.4043 -1.977,3.1359 -3.9812,6.2719 -6.1217,9.4079 -5.4741,7.839 -11.2617,15.474 -16.6744,22.564 -14.4384,18.747 -26.3137,32.926 -26.3137,32.926 -1.0839,1.636 -3.2653,2.045 -4.8673,0.954 -1.602,-1.09 -2.0247,-3.272 -0.9408,-4.84 0,0 8.7326,-16.292 20.8055,-36.743 4.5265,-7.635 9.4621,-15.816 14.7452,-23.8599 2.0656,-3.1358 4.2675,-6.2034 6.4421,-9.2029 3.3881,-4.6356 6.7693,-9.1894 10.0824,-13.4636 14.5407,-18.74 26.4636,-32.8785 26.4636,-32.8785 z"
     id="path2808"
     style="stroke:none;stroke-width:0.13634" /><path
     d="m 4170.3009,9948.521 c 1.0839,-1.602 3.2654,-2.0246 4.8674,-0.9407 1.602,1.0839 2.0246,3.2653 0.9407,4.8673 0,0 -8.6781,16.3268 -20.6624,36.8051 -2.7336,4.656 -5.6853,9.4961 -8.7666,14.4043 -1.977,3.136 -3.9812,6.272 -6.1217,9.407 -5.4741,7.84 -11.2617,15.475 -16.6744,22.565 -14.4384,18.747 -26.3137,32.926 -26.3137,32.926 -1.0839,1.636 -3.2653,2.045 -4.8673,0.954 -1.602,-1.09 -2.0247,-3.272 -0.9408,-4.84 0,0 8.7326,-16.292 20.8055,-36.743 4.5265,-7.635 9.4621,-15.816 14.7452,-23.86 2.0656,-3.136 4.2675,-6.2034 6.4421,-9.2029 3.3881,-4.6356 6.7693,-9.1894 10.0824,-13.4636 14.5407,-18.74 26.4636,-32.8785 26.4636,-32.8785 z"
     id="path2810"
     style="stroke:none;stroke-width:0.13634" /><path
     d="m 4302.3386,10153.516 c 1.0817,-1.601 3.2667,-2.022 4.8676,-0.941 1.6009,1.087 2.0227,3.267 0.941,4.868 0,0 -6.5279,13.137 -15.7925,29.622 -2.1092,3.731 -4.4024,7.571 -6.8199,11.465 -1.5468,2.542 -3.1207,5.03 -4.8243,7.518 -4.37,6.22 -9.0428,12.223 -13.429,17.74 -11.7254,14.819 -21.4443,25.798 -21.4443,25.798 -1.0871,1.622 -3.2667,2.001 -4.8676,0.919 -1.6008,-1.082 -2.0227,-3.245 -0.941,-4.867 0,0 6.5766,-13.089 15.9385,-29.476 3.4992,-6.166 7.323,-12.71 11.4982,-19.092 1.628,-2.488 3.3965,-4.867 5.1434,-7.247 2.7258,-3.71 5.4463,-7.274 8.1342,-10.628 11.8336,-14.732 21.5957,-25.679 21.5957,-25.679 z"
     id="path2812"
     style="stroke:none;stroke-width:0.108168" /><path
     d="m 4514.3253,10154.274 c 1.0817,-1.601 3.2667,-2.023 4.8676,-0.941 1.6009,1.087 2.0227,3.266 0.941,4.867 0,0 -6.5279,13.137 -15.7925,29.622 -2.1092,3.732 -4.4024,7.572 -6.8199,11.466 -1.5468,2.542 -3.1207,5.029 -4.8243,7.517 -4.37,6.22 -9.0428,12.223 -13.429,17.74 -11.7254,14.819 -21.4443,25.798 -21.4443,25.798 -1.0871,1.622 -3.2667,2.001 -4.8676,0.919 -1.6008,-1.081 -2.0227,-3.245 -0.941,-4.867 0,0 6.5766,-13.088 15.9385,-29.476 3.4992,-6.166 7.323,-12.71 11.4982,-19.092 1.628,-2.487 3.3965,-4.867 5.1434,-7.247 2.7258,-3.71 5.4463,-7.274 8.1342,-10.627 11.8336,-14.733 21.5957,-25.679 21.5957,-25.679 z"
     id="path2814"
     style="stroke:none;stroke-width:0.108168" /><path
     d="m 4337.5204,9896.622 38.1499,54.59 -125.2597,-43.7 z m -21.7799,81.49 62.7498,-22.8 0.9,1.2 -72.7798,107.7 z m 68.4898,50.9 -0.21,-65.8 73.2798,104.8 z m 68.4998,-50.9 -68.7398,-24 v -0.8 l 125.6397,-45.8 z m -30.9099,-84.3 -37.8399,55.96 -0.45,-134.9899 z"
     id="path2816"
     style="stroke:none;stroke-width:0.2" /><path
     d="m 4577.4391,9947.738 26.0069,37.2141 -85.3899,-29.7904 z m -14.8475,55.552 42.7767,-15.5429 0.6136,0.818 -49.6142,73.4189 z m 46.6897,34.698 -0.1431,-44.8555 49.955,71.4425 z m 46.6965,-34.698 -46.8601,-16.361 v -0.5453 l 85.6489,-31.222 z m -21.0713,-57.4676 -25.7956,38.148 -0.3068,-92.0228 z"
     id="path2818"
     style="stroke:none;stroke-width:0.13634" /><path
     d="m 4115.7376,9952.3999 26.0069,37.2141 -85.3899,-29.7904 z m -14.8475,55.5521 42.7767,-15.543 0.6136,0.818 -49.6142,73.419 z m 46.6897,34.698 -0.1431,-44.8556 49.955,71.4426 z m 46.6965,-34.698 -46.8601,-16.3611 v -0.5453 l 85.6489,-31.222 z m -21.0713,-57.4677 -25.7956,38.148 -0.3068,-92.0228 z"
     id="path2820"
     style="stroke:none;stroke-width:0.13634" /><path
     d="m 4259.6502,10156.999 20.633,29.525 -67.7454,-23.635 z m -11.7794,44.073 33.9376,-12.331 0.4867,0.649 -39.3622,58.249 z m 37.042,27.529 -0.1136,-35.587 39.6327,56.68 z m 37.0475,-27.529 -37.1773,-12.98 v -0.433 l 67.951,-24.77 z m -16.7174,-45.592 -20.4653,30.265 -0.2434,-73.008 z"
     id="path2822"
     style="stroke:none;stroke-width:0.108168" /><path
     d="m 4471.6369,10157.757 20.633,29.524 -67.7454,-23.635 z m -11.7794,44.073 33.9376,-12.332 0.4867,0.649 -39.3622,58.249 z m 37.042,27.528 -0.1136,-35.587 39.6327,56.68 z m 37.0475,-27.528 -37.1773,-12.981 v -0.432 l 67.951,-24.771 z m -16.7174,-45.593 -20.4653,30.265 -0.2434,-73.008 z"
     id="path2824"
     style="stroke:none;stroke-width:0.108168" /><path
     d="m 4374.5503,9669.6121 c -0.03,-1.93 1.51,-3.53 3.44,-3.56 1.94,-0.04 3.53,1.5 3.57,3.44 0,0 2.16,12.03 3.99,27.76 0.42,3.57 0.74,7.29 1,11.12 0.16,2.45 0.32,4.93 0.32,7.41 0,6.37 -0.4,12.7 -0.83,18.58 -1.16,15.77 -2.84,27.88 -2.84,27.88 0.04,1.93 -1.5,3.53 -3.44,3.57 -1.93,0.03 -3.53,-1.51 -3.56,-3.45 0,0 -2.11,-12.04 -3.82,-27.76 -0.64,-5.86 -1.27,-12.17 -1.5,-18.53 -0.09,-2.49 -0.01,-4.97 0.06,-7.42 0.12,-3.84 0.31,-7.57 0.6,-11.15 1.28,-15.78 3.01,-27.89 3.01,-27.89 z"
     id="path2826"
     style="stroke:none;stroke-width:0.2" /><path
     d="m 4571.7098,9699.3121 c 1.14,-1.56 3.33,-1.9 4.9,-0.76 1.56,1.15 1.9,3.34 0.75,4.9 0,0 -6.55,12.26 -15.8499,27.59 -2.11,3.48 -4.41,7.06 -6.82,10.68 -1.55,2.32 -3.12,4.67 -4.83,6.92 -4.36,5.76 -9.02,11.26 -13.39,16.32 -11.7,13.57 -21.3599,23.56 -21.3599,23.56 -1.14,1.56 -3.33,1.9 -4.89,0.76 -1.57,-1.14 -1.91,-3.34 -0.76,-4.9 0,0 6.6,-12.23 15.9899,-27.48 3.5,-5.7 7.33,-11.8 11.51,-17.7 1.63,-2.31 3.39,-4.52 5.13,-6.7 2.72,-3.4 5.43,-6.67 8.12,-9.74 11.8,-13.5 21.4999,-23.45 21.4999,-23.45 z"
     id="path2828"
     style="stroke:none;stroke-width:0.2" /><path
     d="m 4655.3496,9805.3521 c 1.56,-1.14 3.75,-0.79 4.89,0.77 1.14,1.57 0.79,3.76 -0.77,4.9 0,0 -5.26,6.22 -12.95,13.76 -1.72,1.69 -3.5799,3.36 -5.5399,5.0199 -1.25,1.06 -2.52,2.13 -3.89,3.07 -3.52,2.42 -7.22,4.47 -10.7,6.35 -9.45,5.09 -16.97,8.24 -16.97,8.24 -1.57,1.14 -3.76,0.79 -4.9,-0.77 -1.1399,-1.56 -0.7899,-3.76 0.77,-4.9 0,0 5.31,-6.18 13.06,-13.6199 2.85,-2.73 5.94,-5.62 9.33,-8.23 1.31,-1.01 2.72,-1.89 4.11,-2.76 2.19,-1.36 4.34,-2.61 6.48,-3.73 9.5399,-5 17.0799,-8.1 17.0799,-8.1 z"
     id="path2830"
     style="stroke:none;stroke-width:0.2" /><path
     d="m 4179.7108,9699.2421 c -0.93,-1.7 -0.32,-3.83 1.37,-4.77 1.7,-0.93 3.83,-0.32 4.77,1.37 0,0 8.12,10.66 17.8099,24.98 2.21,3.25 4.41,6.71 6.6,10.29 1.41,2.29 2.83,4.61 4.1,7.02 3.28,6.15 6.18,12.46 8.82,18.34 7.08,15.76 11.84,28.28 11.84,28.28 0.94,1.7 0.33,3.83 -1.37,4.77 -1.69,0.93 -3.83,0.32 -4.76,-1.37 0,0 -8.08,-10.69 -17.66,-25.07 -3.58,-5.36 -7.38,-11.17 -10.8599,-17.21 -1.35,-2.36 -2.57,-4.8 -3.76,-7.21 -1.87,-3.76 -3.62,-7.46 -5.21,-11.05 -6.98,-15.83 -11.69,-28.37 -11.69,-28.37 z"
     id="path2832"
     style="stroke:none;stroke-width:0.2" /><path
     d="m 4065.2711,9805.6021 c -1.72,-0.88 -2.4,-2.99 -1.52,-4.72 0.88,-1.72 2.99,-2.4 4.71,-1.52 0,0 8.73,2.28 19.8999,6.23 2.51,0.89 5.08,1.91 7.69,3.03 1.67,0.72 3.35,1.45 4.97,2.32 4.15,2.25 8.06,4.83 11.68,7.28 9.7799,6.62 16.7899,12.3099 16.7899,12.3099 1.73,0.88 2.41,2.99 1.53,4.71 -0.88,1.73 -2.99,2.41 -4.72,1.53 0,0 -8.7199,-2.34 -19.8199,-6.39 -4.1,-1.49 -8.48,-3.1499 -12.73,-5.1999 -1.66,-0.79 -3.24,-1.73 -4.8,-2.66 -2.44,-1.46 -4.77,-2.94 -6.96,-4.45 -9.7499,-6.74 -16.7199,-12.47 -16.7199,-12.47 z"
     id="path2834"
     style="stroke:none;stroke-width:0.2" /><path
     d="m 4103.931,10171.012 c 1.58,-1.1 3.77,-0.7 4.88,0.9 1.12,1.6 0.73,3.8 -0.85,4.9 0,0 -6.89,7.2 -16.56,15.9 -2.18,2 -4.52,3.9 -6.97,5.9 -1.57,1.2 -3.16,2.5 -4.8399,3.6 -4.33,2.9 -8.83,5.4 -13.06,7.7 -11.38,6.3 -20.48,10.4 -20.48,10.4 -1.58,1.1 -3.77,0.7 -4.88,-0.9 -1.11,-1.6 -0.73,-3.8 0.85,-4.9 0,0 6.93,-7.2 16.66,-15.7 3.61,-3.2 7.53,-6.6 11.72,-9.7 1.63,-1.2 3.35,-2.3 5.06,-3.3 2.67,-1.7 5.2999,-3.2 7.8899,-4.6 11.47,-6.1 20.58,-10.2 20.58,-10.2 z"
     id="path2836"
     style="stroke:none;stroke-width:0.2" /><path
     d="m 4113.101,10372.312 c -1.2,1.6 -3.4,1.8 -4.92,0.6 -1.53,-1.2 -1.8,-3.4 -0.61,-4.9 0,0 7.94,-13.3 18.9799,-29.9 2.51,-3.8 5.23,-7.7 8.07,-11.6 1.82,-2.6 3.66,-5.1 5.64,-7.6 5.06,-6.2 10.4,-12.3 15.41,-17.8 13.3699,-14.8 24.3499,-25.7 24.3499,-25.7 1.19,-1.5 3.4,-1.8 4.92,-0.6 1.52,1.2 1.79,3.4 0.6,4.9 0,0 -7.99,13.3 -19.11,29.8 -4.16,6.2 -8.6999,12.9 -13.5699,19.3 -1.91,2.5 -3.94,4.9 -5.95,7.3 -3.13,3.7 -6.26,7.3 -9.32,10.6 -13.48,14.7 -24.4899,25.6 -24.4899,25.6 z"
     id="path2838"
     style="stroke:none;stroke-width:0.2" /><path
     d="m 4325.1704,10308.212 c 0.52,-1.9 2.46,-2.9 4.32,-2.4 1.87,0.5 2.96,2.4 2.44,4.3 0,0 -0.69,9.6 -2.56,22.1 -0.42,2.9 -0.97,5.8 -1.6,8.7 -0.41,1.9 -0.83,3.9 -1.4,5.7 -1.47,4.9 -3.31,9.5 -5.0699,13.9 -4.77,11.6 -9.13,20.3 -9.13,20.3 -0.52,1.8 -2.46,2.9 -4.32,2.4 -1.87,-0.5 -2.95,-2.4 -2.43,-4.3 0,0 0.74,-9.7 2.72,-22.1 0.74,-4.6 1.59,-9.6 2.83,-14.5 0.49,-1.9 1.13,-3.7 1.77,-5.6 0.99,-2.8 2.03,-5.6 3.13,-8.2 4.89,-11.7 9.2999,-20.3 9.2999,-20.3 z"
     id="path2840"
     style="stroke:none;stroke-width:0.2" /><path
     d="m 4556.9699,10285.112 c -1.03,-1.6 -0.54,-3.8 1.09,-4.8 1.64,-1.1 3.81,-0.6 4.84,1.1 0,0 9.6299,11.6 21.2699,27.1 2.65,3.5 5.32,7.3 7.99,11.1 1.72,2.5 3.45,5.1 5.05,7.7 4.08,6.7 7.8099,13.5 11.2199,19.9 9.12,17.1 15.5,30.8 15.5,30.8 1.03,1.6 0.54,3.8 -1.09,4.8 -1.64,1 -3.8,0.5 -4.84,-1.1 0,0 -9.58,-11.6 -21.1199,-27.2 -4.31,-5.8 -8.91,-12.1 -13.19,-18.7 -1.67,-2.6 -3.2,-5.2 -4.72,-7.8 -2.36,-4.1 -4.6,-8.1 -6.65,-12 -9.0199,-17.2 -15.3499,-30.9 -15.3499,-30.9 z"
     id="path2842"
     style="stroke:none;stroke-width:0.2" /><path
     d="m 4638.1097,10159.112 c -1.52,-1.2 -1.77,-3.4 -0.57,-4.9 1.2,-1.5 3.4,-1.8 4.92,-0.6 0,0 14.7299,9.2 33.1299,21.8 4.19,2.8 8.51,5.9 12.8699,9.1 2.81,2.1 5.64,4.2 8.38,6.4 6.99,5.7 13.72,11.7 19.91,17.3 16.5399,14.9 28.8899,27.1 28.8899,27.1 1.52,1.2 1.77,3.4 0.57,4.9 -1.2,1.5 -3.4,1.8 -4.92,0.6 0,0 -14.71,-9.3 -33.0199,-21.9 -6.86,-4.8 -14.22,-9.9 -21.36,-15.4 -2.7899,-2.2 -5.4799,-4.5 -8.1299,-6.7 -4.14,-3.5 -8.14,-7 -11.89,-10.5 -16.47,-15 -28.7799,-27.2 -28.7799,-27.2 z"
     id="path2844"
     style="stroke:none;stroke-width:0.2" /></g>&#10;</svg>
