<?xml version="1.0" encoding="UTF-8" standalone="no"?>
<svg
   width="3238.7212"
   height="3239.0762"
   viewBox="0 0 3238.7212 3239.0762"
   version="1.1"
   xml:space="preserve"
   style="clip-rule:evenodd;fill-rule:evenodd;stroke-linejoin:round;stroke-miterlimit:2"
   id="svg5353"
   xmlns="http://www.w3.org/2000/svg"
   xmlns:svg="http://www.w3.org/2000/svg"><defs
   id="defs5353" />&#10;    <g
   id="vectorly-UNI-stopwatch"
   transform="matrix(5.2456542,0,0,5.2456542,-4853.2137,-88731.549)"
   style="stroke-width:0.190634"><path
     d="m 963.69286,17263.038 c -0.31182,1.888 -2.14473,3.032 -4.04404,2.587 -1.89401,-0.477 -3.21956,-2.406 -2.58767,-4.241 11.49303,-49.692 41.66495,-91.038 81.29305,-117.967 39.9535,-26.907 89.998,-39.26 140.969,-31.337 54.4813,8.569 100.1894,38.409 130.1923,79.729 29.9819,41.447 43.9174,94.45 35.2475,148.947 -9.31,54.392 -39.5394,100.069 -81.2541,129.678 -41.6883,29.449 -94.5629,43.011 -148.912,33.642 -53.6932,-9.359 -98.6765,-39.605 -127.67173,-81.054 -29.03747,-41.193 -42.44909,-93.386 -32.9723,-146.797 0.31711,-1.92 2.17116,-3.192 4.09161,-2.875 1.92044,0.317 3.26712,2.118 2.95002,4.038 -8.13077,51.233 5.6931,100.929 33.80965,139.734 28.48415,38.57 71.22935,66.441 121.87505,74.343 50.6298,7.999 99.5261,-5.365 137.9849,-33.177 38.4377,-27.685 66.1177,-69.87 74.0952,-120.174 8.6124,-50.167 -4.357,-99.064 -31.5397,-137.551 -27.4764,-38.699 -69.481,-67.073 -119.9946,-75.776 -47.9318,-8.407 -95.1092,2.511 -133.0395,27.123 -38.6444,24.954 -68.08928,63.888 -80.49264,111.128 z"
     id="path4774"
     style="stroke:none;stroke-width:0.618434" /><path
     d="m 949.91979,17224.097 c -0.83165,1.759 -2.94076,2.583 -4.64736,1.841 -1.7066,-0.742 -2.68218,-2.852 -1.85052,-4.612 20.84945,-50.119 58.69919,-89.609 104.94739,-113.052 46.1933,-23.229 100.4656,-30.645 154.334,-17.294 60.2573,15.068 108.8997,53.183 138.3298,102.564 29.4027,49.488 39.9215,110.439 24.7899,170.794 -15.8435,60.172 -54.4466,108.5 -104.0663,137.679 -49.5923,29.072 -110.5937,39.047 -170.6589,23.23 -59.3166,-15.775 -107.10994,-54.241 -135.74579,-103.759 -28.70904,-49.234 -38.34298,-109.199 -22.72817,-168.481 0.48484,-1.887 2.64884,-2.924 4.42862,-2.467 1.77978,0.458 2.81939,2.319 2.33455,4.205 -13.95231,57.243 -3.69632,114.788 24.50288,161.575 28.25409,46.574 73.69371,82.386 130.40971,96.469 56.6886,14.189 113.5641,4.027 159.7689,-23.677 46.1683,-27.561 82.022,-72.573 96.0925,-128.799 14.7823,-56.043 5.0735,-112.764 -22.0761,-159.206 -27.1222,-46.549 -72.0412,-82.91 -128.5468,-97.811 -50.792,-13.509 -102.4895,-7.252 -146.6552,13.993 -45.0331,21.668 -81.94148,58.971 -102.96311,106.808 z"
     id="path4776"
     style="stroke:none;stroke-width:0.700626" /><path
     d="m 1143.5583,17115.809 c 0,-1.9 1.57,-3.5 3.51,-3.5 1.93,0 3.5,1.6 3.5,3.5 0,0 1.94,3 3.5,8.2 0.52,1.8 1.02,3.6 0.99,5.5 -0.03,2 -0.63,3.7 -1.16,5.5 -1.57,5.1 -3.33,8.2 -3.33,8.2 0,1.9 -1.57,3.5 -3.5,3.5 -1.94,0 -3.51,-1.6 -3.51,-3.5 0,0 -1.76,-3.1 -3.32,-8.2 -0.53,-1.8 -1.14,-3.5 -1.17,-5.5 -0.03,-1.9 0.48,-3.7 0.99,-5.5 1.56,-5.2 3.5,-8.2 3.5,-8.2 z"
     id="path4778"
     style="stroke:none;stroke-width:0.190634" /><path
     d="m 1240.2498,17139.632 c 0.95,-1.646 3.1097,-2.246 4.7898,-1.276 1.6714,0.965 2.2311,3.135 1.2811,4.781 0,0 0.1801,3.568 -1.0689,8.851 -0.4497,1.819 -0.9167,3.628 -1.8927,5.258 -1.0259,1.717 -2.3956,2.89 -3.7545,4.183 -3.9097,3.632 -6.9839,5.437 -6.9839,5.437 -0.95,1.645 -3.1097,2.246 -4.7811,1.281 -1.6801,-0.97 -2.2397,-3.141 -1.2897,-4.786 0,0 0.026,-3.565 1.2248,-8.762 0.441,-1.823 0.7627,-3.601 1.7367,-5.348 0.924,-1.66 2.2657,-2.964 3.6074,-4.268 3.951,-3.723 7.131,-5.351 7.131,-5.351 z"
     id="path4780"
     style="stroke:none;stroke-width:0.190634" /><path
     d="m 1312.0924,17208.562 c 1.6454,-0.95 3.8161,-0.391 4.7861,1.289 0.965,1.672 0.3643,3.831 -1.2811,4.781 0,0 -1.6281,3.181 -5.3514,7.132 -1.2989,1.35 -2.6077,2.683 -4.2682,3.607 -1.747,0.974 -3.5193,1.304 -5.3431,1.745 -5.2017,1.191 -8.7664,1.216 -8.7664,1.216 -1.6454,0.95 -3.8161,0.391 -4.7811,-1.281 -0.97,-1.68 -0.3693,-3.839 1.2761,-4.789 0,0 1.8047,-3.075 5.4414,-6.976 1.2939,-1.359 2.4611,-2.737 4.1782,-3.763 1.6304,-0.976 3.4442,-1.434 5.2581,-1.893 5.2833,-1.249 8.8514,-1.068 8.8514,-1.068 z"
     id="path4782"
     style="stroke:none;stroke-width:0.190634" /><path
     d="m 1339.8646,17304.156 c 1.9,0 3.5,1.57 3.5,3.51 0,1.93 -1.6,3.5 -3.5,3.5 0,0 -3,1.94 -8.2,3.5 -1.8,0.52 -3.6,1.02 -5.5,0.99 -2,-0.03 -3.7,-0.63 -5.5,-1.16 -5.1,-1.57 -8.2,-3.33 -8.2,-3.33 -1.9,0 -3.5,-1.57 -3.5,-3.5 0,-1.94 1.6,-3.51 3.5,-3.51 0,0 3.1,-1.76 8.2,-3.32 1.8,-0.53 3.5,-1.14 5.5,-1.17 1.9,-0.03 3.7,0.48 5.5,0.99 5.2,1.56 8.2,3.5 8.2,3.5 z"
     id="path4784"
     style="stroke:none;stroke-width:0.190634" /><path
     d="m 1316.0642,17400.853 c 1.6455,0.95 2.2461,3.109 1.2761,4.789 -0.965,1.672 -3.1356,2.232 -4.781,1.282 0,0 -3.5681,0.18 -8.8514,-1.069 -1.8189,-0.45 -3.6277,-0.917 -5.2582,-1.893 -1.717,-1.026 -2.8893,-2.396 -4.1831,-3.755 -3.6317,-3.909 -5.4364,-6.983 -5.4364,-6.983 -1.6455,-0.95 -2.2461,-3.11 -1.2811,-4.782 0.97,-1.68 3.1406,-2.239 4.7861,-1.289 0,0 3.5647,0.03 8.7614,1.225 1.8238,0.441 3.6011,0.762 5.3481,1.736 1.6605,0.924 2.9643,2.266 4.2681,3.608 3.7234,3.951 5.3514,7.131 5.3514,7.131 z"
     id="path4786"
     style="stroke:none;stroke-width:0.190634" /><path
     d="m 1247.1447,17472.656 c 0.95,1.645 0.3904,3.816 -1.2897,4.786 -1.6714,0.965 -3.8311,0.364 -4.7811,-1.281 0,0 -3.1801,-1.629 -7.1311,-5.352 -1.3503,-1.299 -2.6833,-2.608 -3.6073,-4.268 -0.974,-1.747 -1.3044,-3.519 -1.7454,-5.343 -1.1904,-5.202 -1.2162,-8.767 -1.2162,-8.767 -0.95,-1.645 -0.3903,-3.816 1.2811,-4.781 1.6801,-0.97 3.8398,-0.369 4.7898,1.276 0,0 3.0742,1.805 6.9752,5.442 1.3589,1.294 2.7372,2.461 3.7632,4.178 0.976,1.63 1.4343,3.444 1.8926,5.258 1.249,5.283 1.0689,8.852 1.0689,8.852 z"
     id="path4788"
     style="stroke:none;stroke-width:0.190634" /><path
     d="m 1143.5583,17473.02 c 0,-1.9 1.57,-3.5 3.51,-3.5 1.93,0 3.5,1.6 3.5,3.5 0,0 1.94,3 3.5,8.2 0.52,1.8 1.02,3.6 0.99,5.5 -0.03,2 -0.63,3.7 -1.16,5.5 -1.57,5.1 -3.33,8.2 -3.33,8.2 0,1.9 -1.57,3.5 -3.5,3.5 -1.94,0 -3.51,-1.6 -3.51,-3.5 0,0 -1.76,-3.1 -3.32,-8.2 -0.53,-1.8 -1.14,-3.5 -1.17,-5.5 -0.03,-1.9 0.48,-3.7 0.99,-5.5 1.56,-5.2 3.5,-8.2 3.5,-8.2 z"
     id="path4790"
     style="stroke:none;stroke-width:0.190634" /><path
     d="m 1061.6574,17448.988 c 0.95,-1.646 3.1097,-2.246 4.7898,-1.276 1.6714,0.965 2.2311,3.135 1.2811,4.781 0,0 0.1801,3.568 -1.0689,8.851 -0.4497,1.819 -0.9167,3.628 -1.8927,5.258 -1.0259,1.717 -2.3956,2.89 -3.7545,4.184 -3.9097,3.631 -6.9839,5.436 -6.9839,5.436 -0.95,1.645 -3.1097,2.246 -4.7811,1.281 -1.6801,-0.97 -2.2397,-3.141 -1.2897,-4.786 0,0 0.026,-3.565 1.2248,-8.761 0.441,-1.824 0.7627,-3.602 1.7367,-5.349 0.924,-1.66 2.2657,-2.964 3.6074,-4.268 3.951,-3.723 7.131,-5.351 7.131,-5.351 z"
     id="path4792"
     style="stroke:none;stroke-width:0.190634" /><path
     d="m 1002.7364,17387.127 c 1.6454,-0.95 3.8161,-0.39 4.7861,1.29 0.965,1.671 0.3643,3.831 -1.2811,4.781 0,0 -1.6281,3.18 -5.3514,7.131 -1.29888,1.35 -2.60772,2.683 -4.26817,3.607 -1.74705,0.974 -3.51929,1.305 -5.34313,1.746 -5.20172,1.19 -8.76639,1.216 -8.76639,1.216 -1.64545,0.95 -3.81609,0.39 -4.78108,-1.281 -0.97,-1.68 -0.36936,-3.84 1.27608,-4.79 0,0 1.80468,-3.074 5.44141,-6.975 1.29384,-1.359 2.46108,-2.738 4.17813,-3.764 1.63045,-0.976 3.44429,-1.434 5.25813,-1.892 5.28333,-1.249 8.85142,-1.069 8.85142,-1.069 z"
     id="path4794"
     style="stroke:none;stroke-width:0.190634" /><path
     d="m 982.65957,17304.156 c 1.89999,0 3.49999,1.57 3.49999,3.51 0,1.93 -1.6,3.5 -3.49999,3.5 0,0 -2.99999,1.94 -8.19998,3.5 -1.8,0.52 -3.59999,1.02 -5.49999,0.99 -1.99999,-0.03 -3.69999,-0.63 -5.49998,-1.16 -5.09999,-1.57 -8.19998,-3.33 -8.19998,-3.33 -1.9,0 -3.49999,-1.57 -3.49999,-3.5 0,-1.94 1.59999,-3.51 3.49999,-3.51 0,0 3.09999,-1.76 8.19998,-3.32 1.79999,-0.53 3.49999,-1.14 5.49998,-1.17 1.9,-0.03 3.69999,0.48 5.49999,0.99 5.19999,1.56 8.19998,3.5 8.19998,3.5 z"
     id="path4796"
     style="stroke:none;stroke-width:0.190634" /><path
     d="m 1006.7292,17222.231 c 1.6455,0.95 2.2461,3.109 1.2761,4.789 -0.965,1.672 -3.1356,2.232 -4.781,1.282 0,0 -3.56812,0.18 -8.85144,-1.069 -1.81885,-0.45 -3.62769,-0.917 -5.25813,-1.893 -1.71705,-1.026 -2.88929,-2.396 -4.18314,-3.755 -3.63172,-3.909 -5.4364,-6.983 -5.4364,-6.983 -1.64545,-0.95 -2.24609,-3.11 -1.28109,-4.782 0.97,-1.68 3.14063,-2.239 4.78608,-1.289 0,0 3.56467,0.03 8.76139,1.225 1.82385,0.441 3.60109,0.762 5.34814,1.736 1.66044,0.924 2.96429,2.266 4.26809,3.608 3.7234,3.951 5.3514,7.131 5.3514,7.131 z"
     id="path4798"
     style="stroke:none;stroke-width:0.190634" /><path
     d="m 1068.5527,17163.322 c 0.95,1.645 0.3904,3.816 -1.2897,4.786 -1.6714,0.965 -3.8311,0.364 -4.7811,-1.281 0,0 -3.1801,-1.629 -7.1311,-5.352 -1.3503,-1.299 -2.6833,-2.608 -3.6073,-4.268 -0.974,-1.747 -1.3044,-3.519 -1.7454,-5.343 -1.1904,-5.202 -1.2162,-8.767 -1.2162,-8.767 -0.95,-1.645 -0.3903,-3.816 1.2811,-4.781 1.6801,-0.97 3.8398,-0.369 4.7898,1.276 0,0 3.0742,1.805 6.9752,5.442 1.3589,1.294 2.7372,2.461 3.7632,4.178 0.976,1.63 1.4343,3.444 1.8926,5.258 1.249,5.283 1.0689,8.852 1.0689,8.852 z"
     id="path4800"
     style="stroke:none;stroke-width:0.190634" /><path
     d="m 1154.6883,17163.328 c 0,-2 1.57,-3.5 3.51,-3.5 1.93,0 3.5,1.5 3.5,3.5 1.07,4.2 -0.48,8 -2.66,11.5 -2.4,3.7 -6.75,5.4 -11.5,6.4 -5.05,0.4 -9.89,-1.4 -13.1799,-4.8 -3.29,-3.3 -5.12,-8.1 -4.59,-13.1 0.91,-4.8 2.61,-9 6.36,-11.5 3.3899,-2.1 7.1799,-3.7 11.4099,-2.7 1.94,0 3.51,1.6 3.51,3.5 0,1.9 -1.57,3.5 -3.51,3.5 -1.49,0.4 -2.31,1.6 -3.25,2.7 -1.04,1.1 -0.61,2.8 -0.29,4.5 0.06,0.3 0.48,0.6 0.63,0.9 0.25,0.6 0.85,0.9 1.34,1.2 0.52,0.4 0.87,1.2 1.57,1.2 1.61,0.4 3.25,0.9 4.4,-0.2 1.09,-0.9 2.37,-1.6 2.75,-3.1 z"
     id="path4802"
     style="stroke:none;stroke-width:0.190634" /><path
     d="m 1226.1269,17186.354 c 1,-1.732 3.1097,-2.247 4.7898,-1.277 1.6714,0.966 2.2811,3.05 1.2811,4.782 -1.1734,4.172 -4.4157,6.688 -8.0536,8.629 -3.9285,2.004 -8.5457,1.301 -13.1593,-0.208 -4.5734,-2.178 -7.865,-6.157 -9.0142,-10.746 -1.1992,-4.503 -0.3841,-9.575 2.5749,-13.64 3.1881,-3.702 6.7603,-6.49 11.2579,-6.78 3.9858,-0.123 8.0681,0.386 11.2314,3.367 1.68,0.97 2.2397,3.141 1.2897,4.786 -0.95,1.646 -3.1097,2.246 -4.7897,1.276 -1.4904,-0.398 -2.8006,0.231 -4.1646,0.713 -1.4507,0.433 -1.9283,2.12 -2.5012,3.753 -0.098,0.289 0.1157,0.759 0.096,1.094 -0.083,0.645 0.2862,1.204 0.5605,1.709 0.2503,0.607 0.1535,1.474 0.7597,1.824 1.1943,1.152 2.3646,2.405 3.9105,2.027 1.3939,-0.234 2.8525,-0.2 3.9315,-1.309 z"
     id="path4804"
     style="stroke:none;stroke-width:0.190634" /><path
     d="m 1276.5037,17241.954 c 1.732,-1 3.816,-0.39 4.786,1.29 0.965,1.671 0.451,3.781 -1.281,4.781 -3.1024,3.027 -7.1682,3.584 -11.2893,3.446 -4.4043,-0.228 -8.0515,-3.145 -11.2926,-6.759 -2.8714,-4.173 -3.7325,-9.265 -2.433,-13.814 1.2129,-4.499 4.4548,-8.484 9.0499,-10.525 4.6119,-1.612 9.0992,-2.24 13.1393,-0.242 3.5136,1.886 6.7942,4.368 8.0432,8.531 0.97,1.68 0.3694,3.84 -1.2761,4.79 -1.6454,0.95 -3.8161,0.39 -4.7861,-1.29 -1.0914,-1.09 -2.5406,-1.2 -3.9632,-1.464 -1.4726,-0.351 -2.7299,0.871 -4.0421,1.998 -0.2298,0.202 -0.2796,0.716 -0.4644,0.996 -0.3947,0.516 -0.3545,1.186 -0.3693,1.76 -0.086,0.651 -0.6042,1.354 -0.2542,1.96 0.4586,1.594 0.8456,3.265 2.3732,3.711 1.3244,0.494 2.5706,1.252 4.0597,0.831 z"
     id="path4806"
     style="stroke:none;stroke-width:0.190634" /><path
     d="m 1292.3407,17315.286 c 2,0 3.5,1.57 3.5,3.51 0,1.93 -1.5,3.5 -3.5,3.5 -4.2,1.07 -8,-0.48 -11.5,-2.66 -3.7,-2.4 -5.4,-6.75 -6.4,-11.5 -0.4,-5.05 1.4,-9.89 4.8,-13.18 3.3,-3.29 8.1,-5.12 13.1,-4.59 4.8,0.91 9,2.61 11.5,6.36 2.0999,3.39 3.6999,7.18 2.6999,11.41 0,1.94 -1.5999,3.51 -3.4999,3.51 -1.9,0 -3.5,-1.57 -3.5,-3.51 -0.4,-1.49 -1.6,-2.31 -2.7,-3.25 -1.1,-1.04 -2.8,-0.61 -4.5,-0.29 -0.3,0.06 -0.6,0.48 -0.9,0.63 -0.6,0.25 -0.9,0.85 -1.2,1.34 -0.4,0.52 -1.2,0.87 -1.2,1.57 -0.4,1.61 -0.9,3.25 0.2,4.4 0.9,1.09 1.6,2.37 3.1,2.75 z"
     id="path4808"
     style="stroke:none;stroke-width:0.190634" /><path
     d="m 1269.3456,17386.738 c 1.732,1 2.246,3.109 1.276,4.789 -0.965,1.672 -3.049,2.281 -4.781,1.281 -4.1723,-1.173 -6.6882,-4.415 -8.6293,-8.053 -2.0043,-3.929 -1.3016,-8.546 0.2074,-13.159 2.1786,-4.574 6.1574,-7.866 10.7469,-9.015 4.5029,-1.199 9.5748,-0.384 13.6399,2.575 3.7019,3.188 6.4892,6.761 6.7793,11.258 0.1237,3.986 -0.3857,8.068 -3.3667,11.232 -0.97,1.68 -3.1406,2.239 -4.7861,1.289 -1.6454,-0.95 -2.2461,-3.109 -1.2761,-4.789 0.3986,-1.491 -0.2306,-2.801 -0.7132,-4.165 -0.4327,-1.451 -2.1199,-1.928 -3.7522,-2.501 -0.2898,-0.1 -0.7596,0.115 -1.0944,0.1 -0.6446,-0.08 -1.2044,0.286 -1.7092,0.561 -0.6064,0.25 -1.4742,0.153 -1.8242,0.76 -1.1514,1.194 -2.4045,2.364 -2.0268,3.91 0.2344,1.394 0.2006,2.853 1.3097,3.932 z"
     id="path4810"
     style="stroke:none;stroke-width:0.190634" /><path
     d="m 1213.7439,17437.047 c 1,1.732 0.3904,3.816 -1.2897,4.786 -1.6714,0.965 -3.7811,0.451 -4.7811,-1.281 -3.0266,-3.103 -3.5843,-7.169 -3.4464,-11.29 0.2285,-4.404 3.1457,-8.051 6.7593,-11.292 4.1735,-2.872 9.265,-3.733 13.8142,-2.433 4.4992,1.213 8.4841,4.454 10.5251,9.05 1.6119,4.612 2.2396,9.099 0.242,13.139 -1.8858,3.514 -4.368,6.794 -8.5313,8.043 -1.6801,0.97 -3.8397,0.37 -4.7897,-1.276 -0.95,-1.645 -0.3904,-3.816 1.2897,-4.786 1.0904,-1.091 1.2005,-2.541 1.4646,-3.963 0.3506,-1.473 -0.8717,-2.73 -1.9989,-4.042 -0.2019,-0.23 -0.7157,-0.28 -0.9956,-0.465 -0.5165,-0.394 -1.1861,-0.354 -1.7604,-0.369 -0.6504,-0.09 -1.3535,-0.604 -1.9597,-0.254 -1.5943,0.458 -3.2646,0.845 -3.7105,2.373 -0.494,1.324 -1.2525,2.571 -0.8316,4.06 z"
     id="path4812"
     style="stroke:none;stroke-width:0.190634" /><path
     d="m 1140.3928,17452.866 c 0,2 -1.57,3.5 -3.51,3.5 -1.93,0 -3.5,-1.5 -3.5,-3.5 -1.07,-4.2 0.48,-8 2.66,-11.5 2.4,-3.7 6.75,-5.4 11.5,-6.4 5.05,-0.4 9.89,1.4 13.1799,4.8 3.29,3.3 5.12,8.1 4.59,13.1 -0.91,4.8 -2.61,9 -6.36,11.5 -3.3899,2.1 -7.1799,3.7 -11.4099,2.7 -1.94,0 -3.51,-1.6 -3.51,-3.5 0,-1.9 1.57,-3.5 3.51,-3.5 1.49,-0.4 2.31,-1.6 3.25,-2.7 1.04,-1.1 0.61,-2.8 0.29,-4.5 -0.06,-0.3 -0.48,-0.6 -0.63,-0.9 -0.25,-0.6 -0.85,-0.9 -1.34,-1.2 -0.52,-0.4 -0.87,-1.2 -1.57,-1.2 -1.61,-0.4 -3.25,-0.9 -4.4,0.2 -1.09,0.9 -2.37,1.6 -2.75,3.1 z"
     id="path4814"
     style="stroke:none;stroke-width:0.190634" /><path
     d="m 1068.9942,17429.824 c -1,1.732 -3.1097,2.246 -4.7898,1.276 -1.6714,-0.965 -2.2811,-3.049 -1.2811,-4.781 1.1734,-4.173 4.4157,-6.688 8.0536,-8.63 3.9285,-2.004 8.5457,-1.301 13.1593,0.208 4.5734,2.178 7.865,6.157 9.0142,10.747 1.1992,4.503 0.3841,9.575 -2.5749,13.64 -3.1881,3.702 -6.7603,6.489 -11.2579,6.779 -3.9858,0.124 -8.0681,-0.386 -11.2314,-3.367 -1.68,-0.97 -2.2397,-3.14 -1.2897,-4.786 0.95,-1.645 3.1097,-2.246 4.7897,-1.276 1.4904,0.399 2.8006,-0.23 4.1646,-0.713 1.4507,-0.433 1.9283,-2.12 2.5012,-3.752 0.098,-0.29 -0.1157,-0.76 -0.096,-1.095 0.083,-0.644 -0.2862,-1.204 -0.5605,-1.709 -0.2503,-0.606 -0.1535,-1.474 -0.7597,-1.824 -1.1943,-1.151 -2.3646,-2.405 -3.9105,-2.027 -1.3939,0.235 -2.8525,0.201 -3.9315,1.31 z"
     id="path4816"
     style="stroke:none;stroke-width:0.190634" /><path
     d="m 1018.6573,17374.285 c -1.732,1 -3.816,0.39 -4.786,-1.29 -0.965,-1.671 -0.451,-3.781 1.281,-4.781 3.1024,-3.027 7.1682,-3.584 11.2893,-3.446 4.4043,0.228 8.0515,3.145 11.2926,6.759 2.8714,4.174 3.7325,9.265 2.433,13.814 -1.2129,4.5 -4.4548,8.484 -9.0499,10.525 -4.6119,1.612 -9.0992,2.24 -13.1393,0.242 -3.5136,-1.885 -6.7942,-4.368 -8.0432,-8.531 -0.97,-1.68 -0.3694,-3.84 1.2761,-4.79 1.6454,-0.95 3.8161,-0.39 4.7861,1.29 1.0914,1.09 2.5406,1.201 3.9632,1.465 1.4726,0.35 2.7299,-0.872 4.0421,-1.999 0.2298,-0.202 0.2796,-0.716 0.4644,-0.996 0.3947,-0.516 0.3545,-1.186 0.3693,-1.76 0.086,-0.651 0.6042,-1.354 0.2542,-1.96 -0.4586,-1.594 -0.8456,-3.264 -2.3732,-3.71 -1.3244,-0.494 -2.5706,-1.253 -4.0597,-0.832 z"
     id="path4818"
     style="stroke:none;stroke-width:0.190634" /><path
     d="m 1002.8203,17301.009 c -2,0 -3.49997,-1.57 -3.49997,-3.51 0,-1.93 1.49997,-3.5 3.49997,-3.5 4.2,-1.07 8,0.48 11.5,2.66 3.7,2.4 5.4,6.75 6.4,11.5 0.4,5.05 -1.4,9.89 -4.8,13.18 -3.3,3.29 -8.1,5.12 -13.1,4.59 -4.79997,-0.91 -8.99996,-2.61 -11.49995,-6.36 -2.1,-3.39 -3.69999,-7.18 -2.7,-11.41 0,-1.94 1.6,-3.51 3.49999,-3.51 1.9,0 3.5,1.57 3.5,3.51 0.39999,1.49 1.59999,2.31 2.69999,3.25 1.1,1.04 2.79997,0.61 4.49997,0.29 0.3,-0.06 0.6,-0.48 0.9,-0.63 0.6,-0.25 0.9,-0.85 1.2,-1.34 0.4,-0.52 1.2,-0.87 1.2,-1.57 0.4,-1.61 0.9,-3.25 -0.2,-4.4 -0.9,-1.09 -1.6,-2.37 -3.1,-2.75 z"
     id="path4820"
     style="stroke:none;stroke-width:0.190634" /><path
     d="m 1025.7954,17229.613 c -1.732,-1 -2.246,-3.109 -1.276,-4.789 0.965,-1.672 3.049,-2.282 4.781,-1.282 4.1723,1.174 6.6882,4.416 8.6293,8.054 2.0043,3.929 1.3016,8.546 -0.2074,13.159 -2.1786,4.574 -6.1574,7.865 -10.7469,9.015 -4.5029,1.199 -9.5748,0.384 -13.6399,-2.575 -3.7019,-3.188 -6.4892,-6.761 -6.7793,-11.258 -0.1237,-3.986 0.3857,-8.068 3.3667,-11.232 0.97,-1.68 3.1406,-2.239 4.7861,-1.289 1.6454,0.95 2.2461,3.109 1.2761,4.789 -0.3986,1.491 0.2306,2.801 0.7132,4.165 0.4327,1.451 2.1199,1.928 3.7522,2.501 0.2898,0.1 0.7596,-0.116 1.0944,-0.09 0.6446,0.08 1.2044,-0.287 1.7092,-0.561 0.6064,-0.25 1.4742,-0.153 1.8242,-0.76 1.1514,-1.194 2.4045,-2.364 2.0268,-3.91 -0.2344,-1.394 -0.2006,-2.853 -1.3097,-3.932 z"
     id="path4822"
     style="stroke:none;stroke-width:0.190634" /><path
     d="m 1081.3769,17179.276 c -1,-1.732 -0.3904,-3.816 1.2897,-4.786 1.6714,-0.965 3.7811,-0.451 4.7811,1.281 3.0266,3.102 3.5843,7.168 3.4464,11.289 -0.2285,4.405 -3.1457,8.052 -6.7593,11.293 -4.1735,2.871 -9.265,3.733 -13.8142,2.433 -4.4992,-1.213 -8.4841,-4.455 -10.5251,-9.05 -1.6119,-4.612 -2.2396,-9.099 -0.242,-13.139 1.8858,-3.514 4.368,-6.795 8.5313,-8.044 1.6801,-0.97 3.8397,-0.369 4.7897,1.277 0.95,1.645 0.3904,3.816 -1.2897,4.786 -1.0904,1.091 -1.2005,2.54 -1.4646,3.963 -0.3506,1.473 0.8717,2.73 1.9989,4.042 0.2019,0.23 0.7157,0.28 0.9956,0.464 0.5165,0.395 1.1861,0.355 1.7604,0.37 0.6504,0.09 1.3535,0.604 1.9597,0.254 1.5943,-0.459 3.2646,-0.846 3.7105,-2.373 0.494,-1.325 1.2525,-2.571 0.8316,-4.06 z"
     id="path4824"
     style="stroke:none;stroke-width:0.190634" /><path
     d="m 1184.8446,17212.442 c -0.9348,-1.699 -0.2958,-3.829 1.4678,-4.809 1.6708,-0.89 3.7643,-0.233 4.6901,1.457 5.8551,9.517 8.0399,20.662 6.87,31.53 -1.1428,10.896 -5.9327,21.402 -13.9387,29.916 -10.2418,10.682 -23.8545,16.059 -37.4811,16.225 -13.8283,0.145 -27.6753,-5.298 -38.3084,-15.805 -10.3729,-10.798 -15.5345,-24.803 -15.1103,-38.662 0.4131,-13.684 6.1651,-27.289 17.0417,-37.321 10.689,-9.668 24.2389,-14.367 37.6172,-13.673 13.0023,0.681 25.8029,6.167 35.1426,16.65 1.3513,1.383 1.3352,3.594 -0.056,4.954 -1.3918,1.36 -3.6026,1.326 -4.9538,-0.06 -8.5242,-7.978 -19.4273,-11.708 -30.3039,-11.328 -10.4169,0.294 -20.7055,4.617 -28.3766,12.732 -7.669,7.931 -11.1341,18.122 -11.0476,28.234 0.089,9.928 3.894,19.761 11.4596,27.316 7.3055,7.845 17.0854,11.911 27.0363,12.254 10.1706,0.382 20.5665,-2.903 28.7071,-10.352 6.8598,-6.16 11.2262,-14.129 12.9103,-22.615 1.6793,-8.863 0.6761,-18.242 -3.3658,-26.646 z"
     id="path4826"
     style="stroke:none;stroke-width:0.247338" /><path
     d="m 1156.2901,17227.308 c 0.341,0.275 0.6326,0.622 0.8467,1.038 1.8468,1.644 2.0438,3.887 2.4618,6.259 0.451,2.577 -0.9984,4.686 -2.3267,7.165 -1.9538,3.144 -5.4017,4.119 -8.7893,4.712 -3.5179,0.608 -6.9408,-1.245 -9.9575,-3.642 -2.4419,-2.991 -4.1736,-6.509 -3.5884,-10.044 0.5705,-3.427 1.6914,-6.906 4.8687,-8.895 3.0492,-1.629 5.8967,-3.169 8.9661,-2.194 2.7275,0.871 5.4127,1.724 6.7871,4.483 0.3234,0.331 0.5585,0.719 0.7315,1.118 z m -5.4737,4.044 c -0.099,-0.08 -0.1866,-0.166 -0.2756,-0.257 -0.5791,-0.297 -1.0676,0.409 -1.6608,0.491 -0.1023,0.02 -0.1917,0.07 -0.2706,0.166 -0.248,0 -0.2679,0.562 -0.1824,0.846 0.035,0.135 0.087,0.409 0.2114,0.34 0,0 0.019,0 0.027,0 0.057,0.231 0.1061,0.404 0.2065,0.236 0,0 0.011,-0.01 0.015,0 0.021,0 0.027,0 0.043,0 0.088,0.04 0.2429,0.248 0.2743,0.158 0.034,-0.09 0.1146,-0.129 0.2145,-0.15 0.1866,0.07 0.3671,0.13 0.4528,-0.03 0,0 0.01,-0.02 0.01,-0.02 0.096,-0.02 0.1551,-0.06 0.1403,-0.152 0.01,-0.02 0,-0.03 0,-0.05 0.3722,-0.431 1.0547,-0.668 0.9554,-1.237 -0.06,-0.11 -0.1044,-0.229 -0.1591,-0.335 z m -2.207,0.4 c 0.018,0 0.037,-0.01 0.045,0 0.421,0.09 0.9961,-0.432 1.2838,-0.06 0.3383,0.297 0.038,0.826 0.082,1.24 -0.058,0.06 -0.097,0.122 -0.1433,0.198 -0.1219,0.02 -0.3165,0.02 -0.4591,0.05 -0.172,-0.05 -0.3489,-0.111 -0.4716,-0.02 -0.013,0.01 -0.015,0.01 -0.017,0 -0.021,0 -0.027,0 -0.043,0 -0.064,-0.04 -0.1398,-0.217 -0.2212,-0.227 -0.047,-0.22 -0.098,-0.493 -0.1654,-0.636 -0.088,-0.164 -0.027,-0.397 0.1097,-0.552 z"
     id="path4828"
     style="stroke:none;stroke-width:0.0327845" /><path
     d="m 1156.2901,17302.257 c 0.341,0.275 0.6326,0.622 0.8467,1.038 1.8468,1.644 2.0438,3.887 2.4618,6.259 0.451,2.577 -0.9984,4.686 -2.3267,7.165 -1.9538,3.144 -5.4017,4.119 -8.7893,4.712 -3.5179,0.608 -6.9408,-1.245 -9.9575,-3.642 -2.4419,-2.991 -4.1736,-6.509 -3.5884,-10.044 0.5705,-3.427 1.6914,-6.906 4.8687,-8.895 3.0492,-1.629 5.8967,-3.169 8.9661,-2.194 2.7275,0.871 5.4127,1.724 6.7871,4.483 0.3234,0.331 0.5585,0.719 0.7315,1.118 z m -5.4737,4.044 c -0.099,-0.08 -0.1866,-0.166 -0.2756,-0.257 -0.5791,-0.297 -1.0676,0.409 -1.6608,0.491 -0.1023,0.02 -0.1917,0.07 -0.2706,0.166 -0.248,0 -0.2679,0.562 -0.1824,0.846 0.035,0.135 0.087,0.409 0.2114,0.34 0,0 0.019,0 0.027,0 0.057,0.231 0.1061,0.404 0.2065,0.236 0,0 0.011,-0.01 0.015,0 0.021,0 0.027,0 0.043,0 0.088,0.04 0.2429,0.248 0.2743,0.158 0.034,-0.09 0.1146,-0.129 0.2145,-0.15 0.1866,0.07 0.3671,0.13 0.4528,-0.03 0,0 0.01,-0.02 0.01,-0.02 0.096,-0.02 0.1551,-0.06 0.1403,-0.152 0.01,-0.02 0,-0.03 0,-0.05 0.3722,-0.431 1.0547,-0.668 0.9554,-1.237 -0.06,-0.11 -0.1044,-0.229 -0.1591,-0.335 z m -2.207,0.4 c 0.018,0 0.037,-0.01 0.045,0 0.421,0.09 0.9961,-0.432 1.2838,-0.06 0.3383,0.297 0.038,0.826 0.082,1.24 -0.058,0.06 -0.097,0.122 -0.1433,0.198 -0.1219,0.02 -0.3165,0.02 -0.4591,0.05 -0.172,-0.05 -0.3489,-0.111 -0.4716,-0.01 -0.013,0.01 -0.015,0.01 -0.017,0 -0.021,0 -0.027,0 -0.043,0 -0.064,-0.04 -0.1398,-0.217 -0.2212,-0.227 -0.047,-0.22 -0.098,-0.493 -0.1654,-0.636 -0.088,-0.164 -0.027,-0.397 0.1097,-0.552 z"
     id="path4830"
     style="stroke:none;stroke-width:0.0327845" /><path
     d="m 1143.6705,17199.489 c -0.046,-1.953 1.487,-3.629 3.4169,-3.633 1.9301,-0.1 3.5469,1.482 3.5931,3.434 0,0 2.1059,7.156 3.9466,17.009 0.4058,2.138 0.7214,4.369 0.9667,6.786 0.1571,1.487 0.3142,2.975 0.3111,4.555 -0.018,3.906 -0.4252,7.812 -0.8723,11.439 -1.1992,9.858 -2.8832,17.114 -2.8832,17.114 0.056,1.952 -1.4769,3.536 -3.407,3.632 -1.9399,0 -3.5469,-1.481 -3.5931,-3.434 0,0 -2.0557,-7.249 -3.7666,-17.009 -0.6331,-3.532 -1.2454,-7.436 -1.4578,-11.341 -0.087,-1.487 -0.014,-3.068 0.069,-4.556 0.1247,-2.418 0.3291,-4.65 0.6234,-6.882 1.3192,-9.858 3.0533,-17.114 3.0533,-17.114 z"
     id="path4832"
     style="stroke:none;stroke-width:0.183819" /><path
     d="m 1068.7085,17329.809 c -1.88,0.5 -3.77,-0.7 -4.21,-2.6 -0.45,-1.8 0.72,-3.7 2.6,-4.2 0,0 30.2899,-9.1 69.2299,-19.9 8.8999,-2.5 18.2599,-5 27.8199,-7.4 6.15,-1.6 12.37,-3.2 18.6299,-4.6 16,-3.6 32.07,-6.9 46.9599,-9.9 39.6099,-7.9 70.7898,-13.3 70.7898,-13.3 1.88,-0.4 3.77,0.7 4.21,2.6 0.45,1.9 -0.72,3.8 -2.6,4.2 0,0 -30.3099,9.2 -69.2698,19.8 -14.64,4 -30.4699,8.3 -46.4099,12.2 -6.24,1.5 -12.5199,2.8 -18.7199,4.2 -9.65,2.1 -19.13,4 -28.19,5.8 -39.6499,7.8 -70.8398,13.1 -70.8398,13.1 z"
     id="path4834"
     style="stroke:none;stroke-width:0.190634" /><path
     d="m 986.21472,17080.109 c 0.529,0.4 1.055,0.7 0.954,0.2 -0.104,-0.5 -0.467,-0.5 -0.969,-0.2 -0.283,-0.2 -0.542,-0.4 -0.77899,-0.5 0.18299,0.1 0.47899,0.3 0.77699,0.5 -0.99699,0.6 -2.54299,2.1 -3.71199,3 -3.16199,2.3 -6.48198,5.5 -9.43897,8.7 -3.08,3.3 -5.86799,6.6 -7.10799,9.3 1.114,1.8 2.903,4.4 5.03099,7.5 10.21398,15.1 27.83893,40.3 27.83893,40.3 1.22001,1.5 1,3.7 -0.5,5 -1.49999,1.2 -3.70999,1 -4.92998,-0.5 0,0 -17.10596,-18 -29.24093,-31.8 -6.19999,-7 -10.99097,-13.1 -12.28297,-15.2 -1.406,-2.4 -1.798,-6.3 -0.041,-10.9 1.83299,-4.9 6.58998,-11.8 12.40497,-17.6 6.12698,-6.1 13.41196,-10.9 18.69295,-12.2 4.24599,-1.1 7.85698,-0.5 10.52698,1.3 2.74999,2 8.43999,8.3 14.42999,16.5 11.6799,15.9 25.7899,38.4 25.7899,38.4 1.15,1.6 0.81,3.8 -0.75,4.9 -1.56,1.2 -3.76,0.8 -4.9,-0.7 0,0 -16.9699,-20 -30.20991,-34.3 -4.88998,-5.3 -9.08997,-9.8 -11.58397,-11.7 z m 0,0 c -0.005,0 -0.011,0 -0.017,0 10e-4,0 10e-4,0 0.002,0 0.005,0 0.01,0 0.015,0 z m -20.33095,21.1 c -0.006,0 -0.012,0 -0.018,0 -0.1,0.3 -0.472,0.6 -0.283,0.6 0.43,0.1 0.45,-0.2 0.301,-0.6 z m -0.426,-0.9 c -0.20999,-0.4 -0.42899,-0.8 -0.53799,-1 0.127,0.3 0.308,0.6 0.53799,1 z"
     id="path4836"
     style="stroke:none;stroke-width:0.190634" /><path
     d="m 963.94478,17089.209 c -1.244,-1.4 -1.05,-3.7 0.431,-4.9 1.48199,-1.3 3.69499,-1.1 4.93799,0.4 0,0 7.06598,5.4 15.70296,13.4 1.93599,1.8 3.86199,3.7 5.79198,5.8 1.24,1.3 2.48,2.6 3.59999,4.1 2.86,3.6 5.37999,7.5 7.67,11.2 5.33,8.7 8.97,16 10,18.7 0.99,1.6 0.43,3.8 -1.23,4.8 -1.67,1 -3.82,0.4 -4.8,-1.3 -1.73,-2 -7.73001,-6.9 -14.61999,-13.6 -3.09999,-3 -6.37598,-6.2 -9.39398,-9.7 -1.18099,-1.4 -2.23399,-2.9 -3.27399,-4.3 -1.63399,-2.3 -3.15499,-4.5 -4.53999,-6.8 -6.19198,-9.9 -10.27597,-17.8 -10.27597,-17.8 z"
     id="path4838"
     style="stroke:none;stroke-width:0.190634" /><path
     d="m 996.0887,17151.209 c 0,0 -34.28992,-42.1 -37.70191,-48.4 -1.45999,-2.7 2.55,-9.4 8.24298,-15.8 0,0 38.18893,45.5 42.42893,52.7 -4.46,3.6 -8.79,7.4 -12.97,11.5 z"
     id="path4840"
     style="stroke:none;stroke-width:0.190634" /><path
     d="m 1164.3683,16978.609 c -0.62,0 -1.32,0.1 -1.93,0 -8.87,-0.3 -25.65,1.2 -38.3099,3.1 -4.46,0.7 -10.68,0.5 -12.26,1.7 -2.11,0.1 -1.59,8.9 -1.93,14.4 -0.5,8 -0.34,16.7 0.65,22.2 0.11,0.6 0.29,1.4 0.42,2 2.27,0.4 7.61,1.2 11.75,1.4 11.18,0.5 24.0099,0.3 24.0099,0.3 1.93,-0.2 3.63,1.3 3.79,3.2 0.16,1.9 -1.27,3.6 -3.2,3.8 0,0 -20.7099,3 -32.9499,3 -5.37,0 -9.41,-1.1 -11.07,-2.1 -1.5,-1 -3.31,-3.6 -4.61,-7.7 -1.58,-5 -2.7799,-13.1 -3.2199,-21.2 -0.44,-8.3 0.1,-16.7 1.4699,-22 0.94,-3.7 2.59,-6.4 4.17,-8 1.51,-1.5 4.64,-3.3 9.18,-4.5 6.4,-1.7 16.52,-3 26.6499,-3.6 12.29,-0.6 24.55,-0.1 30.2,1.1 3.86,0.8 6.11,2.3 6.92,3.4 0.59,0.8 1.53,2.4 2.15,4.7 1.3199,5 2.7799,15.3 3.2499,25.9 0.55,12.3 -0.31,24.8 -3.3199,29.4 -0.96,1.7 -3.1,2.3 -4.78,1.4 -1.68,-1 -2.27,-3.1 -1.32,-4.8 1.71,-3.5 1.07,-11.3 0.03,-19.7 -1.12,-9.2 -3.18,-19 -4.95,-25.1 -0.23,-0.8 -0.52,-1.6 -0.79,-2.3 z m 0.52,-0.1 c 0.44,0.6 0.9,1 1.07,0.4 0.1,-0.4 -0.38,-0.4 -1.07,-0.4 z m -53.0199,4.9 c 0.17,0 0.36,0 0.56,0.1 0.21,0.2 -0.23,0.4 -0.35,0.5 -0.13,0.2 -0.36,0.7 -0.47,0.5 -0.23,-0.5 -0.11,-0.8 0.26,-1.1 z"
     id="path4842"
     style="stroke:none;stroke-width:0.190634" /><path
     d="m 1159.8183,17028.609 c -0.1,-1.9 1.39,-3.6 3.33,-3.7 1.93,-0.1 3.58,1.4 3.68,3.3 0,0 2.32,7.9 4.58,18.7 0.5,2.4 0.92,4.9 1.28,7.5 0.23,1.6 0.46,3.3 0.54,5 0.18,4.2 -0.01,8.5 -0.21,12.5 -0.39,8 -1.27,14.7 -1.25,18.8 0.34,1.9 -0.93,3.7 -2.83,4.1 -1.9,0.3 -3.73,-0.9 -4.07,-2.8 -1.47,-4 -3.67,-10.8 -5.46,-18.9 -0.89,-4 -1.71,-8.3 -2.13,-12.6 -0.17,-1.7 -0.17,-3.4 -0.16,-5.1 0.01,-2.6 0.1,-5.2 0.3,-7.6 0.9,-11.1 2.4,-19.2 2.4,-19.2 z"
     id="path4844"
     style="stroke:none;stroke-width:0.190634" /><path
     d="m 1109.1784,17028.409 c -0.15,-1.9 1.29,-3.6 3.22,-3.8 1.93,-0.1 3.61,1.3 3.77,3.2 0,0 2.57,8.1 4.91,19.1 0.52,2.5 0.95,5.1 1.31,7.7 0.23,1.7 0.46,3.5 0.52,5.2 0.15,4.4 -0.11,8.9 -0.46,13.1 -0.73,8.7 -2.05,16 -2.98,19.9 -0.13,1.9 -1.8,3.3 -3.73,3.2 -1.93,-0.1 -3.39,-1.8 -3.27,-3.7 -0.38,-3.8 -2.18,-10.5 -3.66,-18.8 -0.73,-4.1 -1.48,-8.4 -1.86,-12.7 -0.15,-1.7 -0.14,-3.5 -0.13,-5.2 0.01,-2.6 0.1,-5.2 0.28,-7.7 0.81,-11.2 2.08,-19.5 2.08,-19.5 z"
     id="path4846"
     style="stroke:none;stroke-width:0.190634" /><path
     d="m 1126.1384,17028.509 c -0.15,-1.9 1.29,-3.6 3.22,-3.8 1.92,-0.1 3.61,1.3 3.77,3.2 0,0 2.55,7.8 4.8799,18.6 0.52,2.4 0.94,4.9 1.3,7.5 0.23,1.6 0.45,3.3 0.51,5 0.14,4.3 -0.12,8.6 -0.47,12.6 -0.75,8.6 -2.08,15.7 -3.0199,19.4 -0.13,1.9 -1.81,3.4 -3.74,3.2 -1.93,-0.1 -3.39,-1.8 -3.25,-3.7 -0.38,-3.6 -2.17,-10.2 -3.64,-18.2 -0.72,-4 -1.47,-8.1 -1.84,-12.4 -0.15,-1.6 -0.13,-3.3 -0.12,-4.9 0.02,-2.6 0.11,-5.1 0.29,-7.6 0.83,-10.8 2.11,-18.9 2.11,-18.9 z"
     id="path4848"
     style="stroke:none;stroke-width:0.190634" /><path
     d="m 1129.6384,17028.209 c 0,0 4.05,50.4 3.2,62.5 -5.67,0.4 -11.29,1 -16.87,1.8 0.84,-12.5 -3.3,-64.4 -3.3,-64.4 4.56,0.4 10.94,0.4 16.97,0.1 z"
     id="path4850"
     style="stroke:none;stroke-width:0.190634" /><path
     d="m 1182.3782,17067.209 c -1.62,1.1 -3.79,0.6 -4.85,-1 -1.0499,-1.6 -0.5899,-3.8 1.04,-4.8 19.93,-13.8 29.25,-38.3 29.67,-62.2 0.43,-24.6 -8.67,-49 -27.29,-59.3 -19.4299,-11.2 -40.9499,-10.7 -59.7598,-4.8 -22.27,6.9 -41.1999,21.5 -47.5799,36.6 -9.44,21.8 -8.24,41.6 -1.3,57.6 8.9,20.4 26.8799,34.5 43.7599,37.8 1.91,0.3 3.2,2.1 2.89,4 -0.31,1.9 -2.12,3.2 -4.03,2.9 -19.4399,-2.6 -40.9399,-17.5 -52.3199,-40.2 -9.0699,-18.2 -11.5899,-41.3 -1.8,-67.2 7.15,-18.5 28.74,-38.1 55.5699,-46.7 22.6799,-7.3 48.8299,-6.8 72.1498,7.1 9.63,5.8 17.3,14.6 22.58,25.2 6.8399,13.8 9.8899,30.7 8.6899,47.5 -1.92,26.8 -14.1799,53.4 -37.4199,67.5 z"
     id="path4852"
     style="stroke:none;stroke-width:0.190634" /><path
     d="m 1208.5682,17021.709 c -0.07,0.5 -0.11,1.1 -0.17,1.5 -0.35,2.6 -0.23,5.6 0.3,8.5 0.76,4.6 1.43,12 1.73,20.6 0.57,16.4 0.2,36.7 0.11,46.3 0.1,1.9 -1.38,3.5 -3.31,3.6 -1.94,0.1 -3.59,-1.3 -3.69,-3.3 -0.96,-8.2 -2.93,-24.4 -4.91,-39.1 -1.39,-10.3 -2.77,-19.8 -4.15,-25 -1.35,-5.4 -1.72,-11.1 -0.96,-15.7 0.6,-3.5 2.01,-6.5 3.87,-8.6 4.35,-5.1 13.15,-8.1 26.9799,2.4 3.37,2.7 6.46,6.6 8.89,11.5 3.6,7.4 6.17,17.1 7.58,27.5 3.03,22.5 1.41,48.1 -0.93,58.2 -0.33,1.9 -2.14,3.2 -4.05,2.8 -1.91,-0.3 -3.19,-2.1 -2.86,-4 1.11,-9.7 -0.54,-33.8 -5.39,-54.5 -1.72,-7.4 -3.87,-14.3 -6.54,-19.9 -1.84,-3.9 -3.8799,-7.1 -6.4499,-9 -1.78,-1.4 -3.36,-2.4 -4.77,-3.1 -0.39,-0.2 -0.87,-0.5 -1.28,-0.7 z m -0.34,-0.2 c -0.29,-0.1 -0.48,-0.1 -0.49,0.1 0,0.1 0.17,0 0.25,0 0.07,0 0.15,-0.1 0.24,-0.1 z m 0.4,-0.1 c 0.43,-0.2 0.81,-0.4 0.54,-0.6 -0.28,-0.2 -0.44,0.1 -0.54,0.6 z"
     id="path4854"
     style="stroke:none;stroke-width:0.190634" /><path
     d="m 1207.1882,17000.209 c -1.86,-0.6 -2.91,-2.5 -2.35,-4.4 0.56,-1.8 2.52,-2.9 4.37,-2.3 6.22,0.8 11.7999,3.8 16.6899,8 2.11,1.7 3.85,3.9 5.47,6.1 2.25,3.1 3.8,6.6 4.84,10.2 0.75,2.5 1.13,5.2 1.06,7.8 -0.13,5.2 -1.63,10.3 -4.83,14.5 -2,2.7 -4.41,5.2 -7.71,7.1 -5.14,2.9 -11.7199,5 -20.5599,4.9 -1.92,0.3 -3.69,-1.1 -3.96,-3 -0.27,-1.9 1.06,-3.7 2.98,-4 5.15,-1.5 8.89,-3.8 11.95,-6.1 2.4399,-1.9 3.8199,-4.2 4.9299,-6.5 1.11,-2.2 1.21,-4.6 1.21,-7.1 0,-2.2 -0.16,-4.4 -0.76,-6.7 -0.64,-2.4 -1.36,-4.7 -2.57,-7 -2.6199,-4.8 -5.9399,-9.2 -10.7599,-11.5 z"
     id="path4856"
     style="stroke:none;stroke-width:0.190634" /><path
     d="m 1518.3574,17504.209 c -1.94,-0.1 -3.97,-0.1 -6.04,0 -8.47,0.2 -17.3899,1.3 -22.7499,2 -6.32,0.8 -26.57,-0.2 -46.8299,-2 -19.59,-1.8 -39.1799,-4.1 -45.8799,-5.7 -7.91,-1.9 -9.11,-6.3 -8.57,-10 0.2,-1.4 0.75,-3 1.84,-4.6 1.49,-2.1 4.27,-4.7 6.86,-7.3 0.91,-0.9 2.05,-2.3 2.72,-3.1 -2.12,-1.7 -5.72,-2.2 -10.19,-2.7 -6.7,-0.7 -15.0899,-0.6 -24.5299,-0.6 -10.79,-0.1 -20.88,-3.7 -28.6199,-9.9 -8.12,-6.5 -13.7,-15.7 -14.77,-26.2 -0.24,-1.9 1.12,-3.7 3.04,-3.9 1.92,-0.3 3.68,1.1 3.92,3 1.24,8.4 6.08,15.6 12.8399,20.5 6.45,4.7 14.71,7.3 23.4,6.9 12.07,-0.4 22.5199,-0.9 30.1699,0.2 6.98,1 11.93,3.5 14.76,7.1 2.61,3.3 2.43,7.3 -0.18,11.6 -1.37,2.2 -3.62,4.6 -5.81,6.9 -0.2,0.2 -0.4,0.4 -0.61,0.7 8.42,1.1 24.5299,2.3 40.6199,3.3 18.9599,1.1 37.8799,1.8 43.7599,0.9 9.34,-1.4 28.5399,-3.9 40.0199,-2 7.07,1.2 11.81,4.5 13.8199,8.2 1.8,3.4 1.78,7.2 -0.87,11 -1.8999,2.8 -6.5199,6.3 -13.2899,9.3 -15.56,6.8 -43.8199,12.8 -62.0599,11.6 -16.7399,-1.4 -70.7498,-8.7 -112.1197,-12.6 -21.5999,-2 -39.5999,-3.2 -46.4099,-1.7 -11.4499,2.7 -34.1399,4.9 -54.3298,5.3 -16.17,0.4 -30.73,-0.3 -36.9099,-2.5 -1.83,-0.7 -2.82,-2.7 -2.21,-4.5 0.62,-1.8 2.61,-2.8 4.4399,-2.2 5.81,1.8 19.34,1.7 34.3,0.7 19.4199,-1.3 41.1999,-4.1 52.1298,-7.1 7.25,-2 26.66,-1.8 49.9499,-0.3 41.3799,2.5 95.4298,8.5 112.1597,9.4 10.58,0.6 24.92,-1.8 37.4199,-5 5.46,-1.5 10.57,-3.1 14.81,-4.7 z m 9.11,1 c 0.18,0.4 0.42,0.9 0.61,0.6 0.22,-0.3 -0.09,-0.5 -0.61,-0.6 z"
     id="path4858"
     style="stroke:none;stroke-width:0.190634" /></g>&#10;</svg>
