<?xml version="1.0" encoding="UTF-8" standalone="no"?>
<svg
   width="3614.5691"
   height="2884.0518"
   viewBox="0 0 3614.5691 2884.0518"
   version="1.1"
   xml:space="preserve"
   style="clip-rule:evenodd;fill-rule:evenodd;stroke-linejoin:round;stroke-miterlimit:2"
   id="svg5353"
   xmlns="http://www.w3.org/2000/svg"
   xmlns:svg="http://www.w3.org/2000/svg"><defs
   id="defs5353" />&#10;    <g
   id="vectorly-UNI-lighthouse"
   style="stroke:none;stroke-width:0.2"
   transform="matrix(4.9999999,0,0,4.9999999,-4108.8154,-52885.99)"><path
     d="m 1498.53,11124.002 c -9.7477,-3.079 -25.0028,-6.294 -44.8423,-9.579 -1.9245,-0.205 -3.3327,-1.915 -3.1293,-3.831 0.2034,-1.916 1.9245,-3.353 3.849,-3.147 23.1409,0.957 40.5239,2.6 50.9287,4.926 5.8674,1.3 9.7946,3.147 11.9381,4.789 2.9728,2.258 3.7864,5.063 3.8803,7.527 0.1096,2.531 -0.97,5.268 -3.9272,7.8 -3.3014,2.873 -11.9694,6.294 -25.5661,8.894 -6.0238,1.163 -13.0959,2.19 -21.1381,3.011 -6.4307,0.684 -13.4715,1.163 -21.0912,1.574 -18.0559,0.889 -39.2253,1.163 -63.0859,1.163 -1.9245,0.07 -3.5831,-1.369 -3.6926,-3.285 -0.1095,-1.984 1.3613,-3.626 3.3014,-3.694 12.4388,-1.506 24.0797,-3.079 35.0008,-4.516 12.783,-1.642 24.4082,-3.284 34.813,-4.79 8.5429,-1.231 16.2252,-2.463 23.0001,-3.489 7.9327,-1.232 14.5667,-2.258 19.7613,-3.353 z m 8.4803,-1.779 c 0.9231,-0.273 1.4081,-0.615 1.0483,-1.094 -0.532,-0.684 -0.8606,0.07 -1.0483,1.094 z m 0.063,5.064 c 0.219,0.821 0.5789,1.368 1.1108,0.752 0.2504,-0.273 -0.485,-0.547 -1.1108,-0.752 z m -665.59391,-2.874 c 0.0626,0 0.14082,0 0.20341,0.07 13.70616,3.353 39.03753,5.953 72.91178,8.416 14.94222,1.095 31.51166,2.121 49.48927,3.284 30.80757,1.916 65.68315,3.832 103.40645,5.474 32.7164,1.437 67.4981,2.874 103.6255,3.832 1.9401,0 3.5047,1.573 3.5047,3.489 0,1.984 -1.5646,3.558 -3.5047,3.558 -51.9771,1.231 -101.2629,1.847 -145.4794,1.231 -20.6218,-0.273 -40.11711,-0.821 -58.25118,-1.642 -13.7531,-0.615 -26.73954,-1.368 -38.81849,-2.258 -46.03143,-3.489 -79.24854,-8.552 -93.95606,-13.41 -4.99118,-1.711 -8.29255,-3.558 -9.98235,-5.268 -2.11225,-2.121 -2.91021,-4.379 -2.86327,-6.5 0.0469,-2.258 0.87619,-4.858 3.583,-6.979 3.1762,-2.6 11.39051,-5.474 24.23613,-7.527 20.99734,-3.421 55.56003,-5.952 99.57309,-7.526 1.9245,-0.137 3.59865,1.369 3.70818,3.284 0.12517,1.916 -1.36123,3.558 -3.28573,3.695 -23.45381,2.053 -44.15387,4.242 -61.50563,6.432 -20.90346,2.736 -36.81575,5.473 -46.5947,8.347 z m -6.83743,-1.505 c -0.14082,-1.027 -0.40681,-1.848 -0.90749,-1.163 -0.35986,0.478 0.0469,0.821 0.90749,1.163 z"
     id="path2900"
     style="stroke:none;stroke-width:0.206934" /><path
     d="m 975.15475,11111.712 c 18.52395,1.1 36.61395,1.9 54.18385,2.6 13.54,0.5 26.7699,0.9 39.6299,1.3 20.85,0.7 40.7399,1.2 59.4799,1.5 13.8899,0.2 27.1399,0.4 39.6799,0.5 80.8398,0.4 132.2396,-3.3 132.2396,-3.3 1.92,-0.2 3.65,1.2 3.85,3.2 0.2,1.9 -1.21,3.6 -3.13,3.8 0,0 -37.6699,5.1 -99.4997,8.4 -19.85,1.1 -42.1599,1.9 -66.5298,2.3 -13.29,0.2 -27.18,0.3 -41.6099,0.1 -13.42,-0.2 -27.31,-0.5 -41.5999,-1.1 -26.45,-1.2 -54.2299,-3.3 -83.01183,-5.9 -3.302,-0.3 -5.49799,-1.8 -6.88199,-4 -1.13499,-1.8 -1.92899,-4.4 -1.32199,-7.8 0.56,-3.1 2.44299,-7.7 5.53898,-13 10.77398,-18.3 35.82693,-46.9 47.04693,-52.3 1.87,-0.9 6.9699,-2.7 19.4499,-3.1 9.08,-0.2 22.43,0.2 41.9499,2.3 1.93,0.1 3.37,1.8 3.21,3.8 -0.15,1.9 -1.85,3.3 -3.77,3.2 -15.28,-0.9 -26.6599,-0.9 -35.1299,-0.5 -14.14,0.6 -19.44,2.3 -21.16,3.3 -4.8699,2.6 -12.3299,10.7 -19.87991,20 -9.58997,11.9 -19.11095,26 -22.73394,34.7 z m -5.23099,-0.3 c -0.007,0 -0.014,0 -0.022,0 0.008,0 0.015,0 0.022,0 z"
     id="path2902"
     style="stroke:none;stroke-width:0.2" /><path
     d="m 1272.648,11077.212 c 1.93,0 3.45,1.7 3.4,3.6 -0.06,1.9 -1.68,3.5 -3.61,3.4 -4.19,0.1 -9.07,1.9 -14.4,4 -7.5399,3 -15.7899,6.7 -23.9599,8.4 -6.97,1.5 -13.88,1.4 -20.3799,-0.9 -9.66,-3.6 -25.94,-7.8 -43.2299,-10.7 -14.94,-2.5 -30.66,-4.2 -43.4899,-2.9 -8.93,0.6 -23.62,4.5 -40.6699,8.7 -20.05,4.9 -43.1599,10.2 -63.9699,12.6 -19.0599,2.3 -36.22288,1.9 -47.72185,-3.3 -1.79299,-0.7 -2.65899,-2.8 -1.93299,-4.6 0.726,-1.8 2.77099,-2.6 4.56399,-1.9 10.79097,3.9 26.34095,2.6 43.48085,-0.7 20.18,-3.8 42.3599,-10.6 61.7599,-16.3 17.9799,-5.3 33.6599,-9.5 43.1599,-10.5 14.1099,-0.9 31.3599,1 47.6099,4.5 18.1099,3.9 34.9399,9.7 44.8998,14.1 4.4,2 9.22,2.2 14.16,1.6 14.6,-1.9 29.9399,-9.9 40.3299,-9.1 z"
     id="path2904"
     style="stroke:none;stroke-width:0.2" /><path
     d="m 1045.5786,11051.912 c -1.45,1.2 -3.66,1.1 -4.95,-0.3 -1.29,-1.5 -1.16,-3.7 0.28,-5 5.32,-5.2 9.44,-11.9 13.87,-18.6 4.6199,-7 9.5299,-14 15.8599,-19.8 7.98,-7.3 18.2,-12.6 32.6899,-14 9.05,-0.7 25.36,-0.8 44.6899,0.1 9.23,0.5 19.15,1.2 29.2799,2.1 14.61,1.4 29.64,3 43.7199,4.7 35.85,4.3 65.3699,8.6 65.3699,8.6 1.92,0.2 3.34,1.9 3.15,3.9 -0.18,1.9 -1.89,3.3 -3.82,3.1 0,0 -21.11,-0.9 -49.3099,-2.2 -15.12,-0.6 -32.2499,-1.4 -49.2499,-2.2 -11.1999,-0.5 -22.3299,-1 -32.7599,-1.6 -12.14,-0.7 -23.3199,-1.5 -32.5799,-2 -7.29,-0.3 -13.34,-0.5 -17.67,-0.4 -11.2499,0.2 -19.4199,3.7 -26.0399,8.8 -13.07,10.1 -20.9,25.3 -32.5299,34.8 z"
     id="path2906"
     style="stroke:none;stroke-width:0.2" /><path
     d="m 1276.448,11009.612 c 1.62,-1.1 3.79,-0.6 4.84,1 1.05,1.6 0.58,3.8 -1.04,4.8 0,0 -12.52,9.3 -37.3799,15.7 -10.95,2.8 -24.29,4.9 -39.9699,5.5 -8.45,0.1 -18.21,0.5 -28.5899,0.5 -9.22,0 -18.91,-0.3 -28.6,-0.6 -14.9299,-0.4 -29.7999,-1.1 -42.9099,-1.7 -24.6799,-1.2 -42.9099,-2.3 -42.9099,-2.3 -1.93,0 -3.5,-1.6 -3.5,-3.5 0,-1.9 1.57,-3.5 3.5,-3.5 0,0 18.23,-1.2 42.9199,-2.3 13.11,-0.6 27.98,-1.3 42.9199,-1.7 9.69,-0.2 19.39,-0.4 28.62,-0.4 10.3899,0 20.1599,0.5 28.6199,0.7 14.6299,0.7 27.1799,-0.3 37.6099,-1.9 23.3699,-3.5 35.8699,-10.3 35.8699,-10.3 z"
     id="path2908"
     style="stroke:none;stroke-width:0.2" /><path
     d="m 1059.8885,11029.012 c 9.87,-13.4 21.07,-26.4 43.8499,-27.7 30.38,-1.8 143.8897,8.4 174.6096,11.2 0,0 -26.1599,16.9 -75.4098,16.7 -49.2599,-0.2 -143.0497,-0.2 -143.0497,-0.2 z"
     id="path2910"
     style="stroke:none;stroke-width:0.2" /><path
     d="m 1421.6476,11099.512 c 1.17,1.5 0.85,3.7 -0.7,4.9 -1.54,1.1 -3.7399,0.8 -4.8999,-0.7 -16.97,-21.2 -40.2199,-38.2 -55.3599,-55.2 -9.55,-10.7 -15.8,-21.6 -16.77,-33 -0.4,-4.9 -2.61,-9.3 -6.1999,-13.7 -4.71,-5.7 -11.76,-11 -20.92,-16.6 -14.32,-8.8 -24.0499,-16.5 -33.3199,-20.9 -6.4,-2.9 -12.53,-4 -20.58,-1.7 -7.3299,2.1 -22.8999,5.5 -41.1199,9.1 -37.2899,7.3 -85.7097,15.7 -94.8997,18.2 -4.67,1.2 -13.13,2.8 -19.35,5.4 -1.92,0.9 -3.63,1.7 -4.78,2.8 -0.66,0.6 -1.18,1.3 -0.8,2.2 0.82,1.7 0.06,3.8 -1.69,4.6 -1.75,0.8 -3.8399,0.1 -4.6599,-1.7 -2.58,-5 -0.18,-9.5 5.2199,-13.1 6.36,-4.2 17.68,-7.1 23.46,-9 7.42,-2.4 40.7099,-10.4 72.9498,-18.1 18.06,-4.3 35.7799,-8.5 48.2899,-11.7 5.49,-1.4 9.96,-2.7 12.9499,-3.6 9.23,-2.8 16.89,-2.7 24.29,-0.7 6.19,1.8 12.24,5 18.9299,9.4 6.61,4.3 13.97,9.8 23.28,15.8 10.67,6.9 18.7299,13.7 24.0599,20.6 5.34,7 8.19,14.2 8.48,21.9 0.3,8.9 5.3,17.4 12.27,26.2 14.1699,17.8 36.2399,36.3 51.8698,58.6 z"
     id="path2912"
     style="stroke:none;stroke-width:0.2" /><path
     d="m 1190.9782,10691.312 c -0.23,0.7 -0.37,2 -0.54,2.8 -0.42,2 -0.66,4.3 -0.76,6.6 -0.3,7.6 0.6,16 1.35,21 0.63,0.2 1.39,0.3 1.97,0.5 17.76,5.9 65.9998,8.1 72.6098,7.9 1.93,-0.2 3.61,1.3 3.75,3.2 0.14,1.9 -1.31,3.6 -3.24,3.8 -6.01,0.7 -45.4399,2.6 -67.9098,-0.1 -6.82,-0.8 -12.21,-2.3 -15.29,-3.9 -3.57,-1.9 -5.11,-4.7 -5.66,-7.1 -1.5099,-7 -4.1399,-22.9 -2.4899,-33.8 1.51,-10 6.9199,-16.1 14.3199,-16.8 5.75,-0.4 23.49,-0.9 41.1199,-0.8 18.52,0 36.8699,0.6 40.9499,0.8 5.23,0.4 8.61,2.1 10.81,4.7 2.64,3.1 3.84,8 3.56,14.5 -0.39,9 -1.33,16.2 -2.42,21.6 -2.03,10 -4.43,14.4 -4.43,14.4 -0.83,1.7 -2.92,2.4 -4.67,1.6 -1.75,-0.8 -2.49,-2.9 -1.65,-4.7 0,0 1.96,-5 2.79,-16 0.34,-4.6 0.47,-10.2 0.17,-16.9 -0.13,-2.8 -0.38,-5 -1.3,-6.6 -0.53,-0.9 -1.66,-0.8 -3.22,-0.7 z m 0.29,31.9 c 0,0 0.01,0 0.01,0 z m -0.37,-1.5 c -0.25,-0.8 -0.61,-1.4 -1.02,-0.9 -0.28,0.4 0.26,0.6 1.02,0.9 z m 0.1,-30.5 c 0.44,-0.1 0.88,-0.2 0.65,-0.4 -0.28,-0.3 -0.49,-0.1 -0.65,0.4 z"
     id="path2914"
     style="stroke:none;stroke-width:0.2" /><path
     d="m 1200.7282,10682.612 c 0.04,-2 1.63,-3.5 3.57,-3.5 1.93,0.1 3.48,1.7 3.44,3.6 0,0 1.8,6.1 3.25,14.6 0.32,1.9 0.54,3.8 0.7,5.9 0.09,1.2 0.19,2.5 0.12,3.8 -0.17,3.4 -0.74,6.7 -1.33,9.7 -1.61,8.4 -3.58,14.5 -3.58,14.5 -0.03,2 -1.63,3.5 -3.56,3.5 -1.94,-0.1 -3.48,-1.7 -3.45,-3.6 0,0 -1.75,-6.1 -3.07,-14.6 -0.48,-3.1 -0.94,-6.4 -1,-9.7 -0.02,-1.3 0.12,-2.6 0.26,-3.9 0.23,-2 0.52,-4 0.9,-5.8 1.74,-8.5 3.75,-14.5 3.75,-14.5 z"
     id="path2916"
     style="stroke:none;stroke-width:0.2" /><path
     d="m 1221.0781,10682.112 c -0.03,-1.9 1.52,-3.5 3.45,-3.6 1.94,0 3.53,1.6 3.56,3.5 0,0 2,6.4 3.71,15.2 0.38,2 0.66,4 0.88,6.1 0.14,1.4 0.28,2.8 0.25,4.1 -0.07,3.6 -0.53,7 -1.02,10.2 -1.34,8.9 -3.11,15.4 -3.11,15.4 0.02,1.9 -1.53,3.5 -3.46,3.5 -1.93,0.1 -3.53,-1.5 -3.55,-3.4 0,0 -1.95,-6.4 -3.54,-15.3 -0.58,-3.2 -1.1399,-6.6 -1.3099,-10.2 -0.06,-1.3 0.04,-2.7 0.14,-4 0.15,-2.2 0.3799,-4.2 0.7099,-6.2 1.46,-8.9 3.29,-15.3 3.29,-15.3 z"
     id="path2918"
     style="stroke:none;stroke-width:0.2" /><path
     d="m 1240.4381,10681.712 c -0.04,-1.9 1.49,-3.5 3.42,-3.6 1.94,0 3.54,1.5 3.59,3.4 0,0 2.06,6.6 3.86,15.6 0.39,2 0.7,4 0.94,6.2 0.15,1.4 0.3,2.8 0.28,4.2 -0.03,3.6 -0.46,7.1 -0.92,10.4 -1.26,9.1 -2.97,15.7 -2.97,15.7 0.04,1.9 -1.49,3.6 -3.42,3.6 -1.94,0 -3.54,-1.5 -3.59,-3.4 0,0 -2.01,-6.6 -3.68,-15.6 -0.61,-3.3 -1.2,-6.8 -1.4,-10.4 -0.08,-1.4 0.01,-2.8 0.09,-4.1 0.14,-2.2 0.35,-4.3 0.66,-6.3 1.38,-9.1 3.14,-15.7 3.14,-15.7 z"
     id="path2920"
     style="stroke:none;stroke-width:0.2" /><path
     d="m 1257.898,10681.412 c -0.05,-1.9 1.49,-3.5 3.42,-3.5 1.93,-0.1 3.54,1.4 3.58,3.4 0,0 2.06,6.5 3.85,15.6 0.4,2 0.7,4.1 0.94,6.3 0.15,1.3 0.3,2.7 0.29,4.1 -0.04,3.7 -0.48,7.2 -0.94,10.5 -1.25,9.1 -2.97,15.8 -2.97,15.8 0.04,2 -1.49,3.6 -3.43,3.6 -1.93,0 -3.54,-1.5 -3.58,-3.4 0,0 -2.0099,-6.6 -3.6699,-15.7 -0.61,-3.3 -1.2,-6.8 -1.4,-10.4 -0.08,-1.4 0.01,-2.8 0.1,-4.2 0.14,-2.2 0.35,-4.3 0.65,-6.3 1.39,-9.1 3.1599,-15.8 3.1599,-15.8 z"
     id="path2922"
     style="stroke:none;stroke-width:0.2" /><path
     d="m 1234.3181,10615.312 c -2.32,1.8 -6.56,5.4 -11.4,9.3 -2.75,2.3 -5.6599,4.7 -8.4999,7 4.2099,0.4 8.7299,0.8 13.2499,1.3 17.02,1.8 33.8699,4.1 33.8699,4.1 1.93,0.1 3.44,1.7 3.36,3.6 -0.08,2 -1.71,3.5 -3.64,3.4 0,0 -16.9899,0.9 -34.0899,1.3 -17.0399,0.5 -34.0499,0.3 -34.0499,0.3 -3.32,-0.1 -6.2,-2.3 -7.21,-5.5 -1,-3.2 0.1,-6.6 2.74,-8.6 0,0 7.09,-5.7 15.53,-11.7 10.09,-7.2 22.0099,-14.8 25.0099,-16.3 1.51,-0.8 3.3,-1.4 5.44,-1 2.04,0.4 4.93,1.7 7.92,4 8.82,7.1 21.4399,23.1 21.4399,23.1 1.3,1.5 1.2,3.7 -0.23,5 -1.43,1.3 -3.65,1.2 -4.95,-0.2 0,0 -15.9999,-15.2 -24.4899,-19.1 z m 1.22,-0.9 c 0,0 0.01,0 0.01,0 z"
     id="path2924"
     style="stroke:none;stroke-width:0.2" /><path
     d="m 1207.7182,10638.212 c 0.15,-1.9 1.84,-3.4 3.77,-3.2 1.93,0.1 3.37,1.8 3.22,3.7 0,0 1.32,4.5 2.44,13.5 0.21,1.7 0.3299,3.4 0.3799,5.4 0.02,1.1 0.05,2.3 -0.09,3.5 -0.3299,2.8 -1.0099,5.6 -1.8599,8.7 -1.16,4.2 -2.77,8.2 -4.38,13 -0.15,1.9 -1.84,3.4 -3.77,3.2 -1.93,-0.1 -3.37,-1.8 -3.21,-3.8 -0.83,-4.9 -1.79,-9.1 -2.26,-13.4 -0.35,-3.2 -0.57,-6.2 -0.46,-8.9 0.05,-1.3 0.27,-2.4 0.47,-3.6 0.35,-1.9 0.75,-3.6 1.21,-5.2 2.53,-8.7 4.54,-12.9 4.54,-12.9 z m -7.44,92.7 c 0.16,-1.9 1.85,-3.3 3.78,-3.2 1.93,0.2 3.37,1.9 3.21,3.8 -0.76,22.7 -1.35,47.7 -2.51,72.9 -0.45,9.7 -1.03,19.5 -1.67,29.1 -0.43,6.5 -0.88,13 -1.47,19.4 -1.59,17 -3.56,33.3 -5.45,48.3 -4.24,33.5 -8.5,60.2 -10.77,72.3 -0.27,1.9 -2.04,3.2 -3.96,3 -1.91,-0.3 -3.25,-2.1 -2.98,-4 1.15,-12.2 2.22,-39.1 4.1,-72.6 0.85,-15 1.78,-31.4 3.12,-48.4 0.51,-6.4 1.18,-12.8 1.86,-19.3 1,-9.6 2.07,-19.3 3.25,-29 3.06,-25 6.56,-49.7 9.49,-72.3 z"
     id="path2926"
     style="stroke:none;stroke-width:0.2" /><path
     d="m 1248.2181,10640.212 c -0.05,-1.9 1.48,-3.5 3.41,-3.6 1.93,0 3.55,1.5 3.6,3.4 0.7,2.3 2.28,6.1 3.8399,12.3 0.39,1.6 0.69,3.2 0.94,5 0.14,1 0.3,2.1 0.28,3.3 -0.03,2.6 -0.41,5.3 -0.93,8.3 -0.71,4 -1.8799,7.9 -2.9699,12.5 0.06,1.9 -1.47,3.5 -3.4,3.6 -1.93,0 -3.55,-1.5 -3.6,-3.4 -1.36,-4.6 -2.75,-8.3 -3.68,-12.3 -0.68,-3 -1.22,-5.7 -1.4,-8.3 -0.08,-1.1 0.01,-2.2 0.1,-3.3 0.14,-1.8 0.36,-3.4 0.66,-5 1.21,-6.3 2.58,-10.2 3.15,-12.5 z m 2.7,93.7 c -0.06,-2 1.46,-3.6 3.39,-3.6 1.94,-0.1 3.5499,1.4 3.6099,3.4 1.73,20.8 3.88,43.4 5.55,66.1 0.65,8.9 1.19,17.7 1.66,26.5 0.31,6 0.63,11.8 0.78,17.7 0.41,15.5 0.42,30.4 0.42,44.2 -0.02,29.7 -0.52,53.8 -0.27,66.2 0.14,1.9 -1.32,3.6 -3.25,3.8 -1.93,0.1 -3.61,-1.4 -3.74,-3.3 -1.4999,-12.4 -4.1299,-36.5 -6.3999,-66.2 -1.04,-13.8 -2.09,-28.7 -2.74,-44.2 -0.24,-5.8 -0.33,-11.7 -0.4,-17.7 -0.11,-8.8 -0.15,-17.6 -0.07,-26.5 0.22,-22.8 0.98,-45.5 1.46,-66.4 z"
     id="path2928"
     style="stroke:none;stroke-width:0.2" /><path
     d="m 1271.698,10649.712 c -1.89,0.4 -3.76,-0.8 -4.17,-2.7 -0.41,-1.9 0.79,-3.8 2.68,-4.2 0,0 29.5299,-8.4 67.4899,-18.3 8.6799,-2.2 17.8099,-4.5 27.1299,-6.7 5.99,-1.4 12.06,-2.9 18.1499,-4.2 15.59,-3.3 31.24,-6.1 45.7399,-8.8 38.5899,-6.9 68.9499,-11.6 68.9499,-11.6 1.89,-0.4 3.7599,0.8 4.1699,2.7 0.41,1.9 -0.78,3.8 -2.6799,4.2 0,0 -29.54,8.4 -67.5299,18.1 -14.2699,3.7 -29.6999,7.5 -45.2399,11 -6.08,1.4 -12.1899,2.6 -18.2399,3.8 -9.4,1.9 -18.63,3.6 -27.46,5.2 -38.6199,6.8 -68.9898,11.5 -68.9898,11.5 z"
     id="path2930"
     style="stroke:none;stroke-width:0.2" /><path
     d="m 1279.968,10667.312 c -1.92,-0.3 -3.27,-2.1 -3.02,-4 0.24,-1.9 2,-3.2 3.92,-3 0,0 34.5999,2.5 78.6798,6.7 10.08,0.9 20.6399,2 31.3899,3.2 6.92,0.8 13.91,1.6 20.89,2.5 17.8199,2.5 35.5699,5.3 51.9998,7.9 43.6899,7.1 77.7898,13.5 77.7898,13.5 1.92,0.2 3.28,2 3.03,3.9 -0.25,1.9 -2.01,3.3 -3.93,3 0,0 -34.5899,-2.5 -78.6498,-6.8 -16.5599,-1.6 -34.4499,-3.4 -52.2998,-5.6 -6.98,-0.9 -13.95,-1.9 -20.83,-2.9 -10.7099,-1.6 -21.1999,-3.2 -31.1899,-4.8 -43.6799,-7.3 -77.7798,-13.6 -77.7798,-13.6 z"
     id="path2932"
     style="stroke:none;stroke-width:0.2" /><path
     d="m 1173.0683,10660.312 c 1.93,-0.2 3.66,1.2 3.88,3.1 0.2199,1.9 -1.16,3.6 -3.08,3.9 0,0 -38.6899,6.4 -88.1898,13.6 -11.33,1.6 -23.22,3.2 -35.3499,4.8 -7.8,1 -15.69,2 -23.6,2.9 -20.2099,2.2 -40.45188,4 -59.19183,5.6 -49.83388,4.3 -88.96778,6.8 -88.96778,6.8 -1.92199,0.2 -3.66099,-1.1 -3.88099,-3.1 -0.219,-1.9 1.163,-3.6 3.08499,-3.8 0,0 38.70091,-6.4 88.21178,-13.5 18.61896,-2.6 38.74393,-5.5 58.92383,-7.9 7.9,-0.9 15.82,-1.7 23.65,-2.5 12.1699,-1.2 24.1199,-2.3 35.5299,-3.3 49.8499,-4.1 88.9798,-6.6 88.9798,-6.6 z"
     id="path2934"
     style="stroke:none;stroke-width:0.2" /><path
     d="m 924.69188,10584.112 c -1.884,-0.4 -3.057,-2.3 -2.618,-4.2 0.439,-1.9 2.325,-3.1 4.20899,-2.6 0,0 33.10692,5.7 75.18583,13.9 9.63,1.9 19.6999,3.9 29.9399,6.1 6.59,1.5 13.26,2.9 19.89,4.5 16.9299,4 33.7599,8.5 49.3298,12.7 41.3999,11.1 73.6399,20.5 73.6399,20.5 1.88,0.5 3.0599,2.4 2.62,4.3 -0.44,1.8 -2.33,3 -4.21,2.6 0,0 -33.1,-5.8 -75.1499,-14.1 -15.8099,-3.2 -32.8699,-6.6 -49.8598,-10.4 -6.65,-1.5 -13.26,-3.2 -19.8,-4.9 -10.16,-2.5 -20.1099,-5.1 -29.57991,-7.7 -41.37989,-11.2 -73.59681,-20.7 -73.59681,-20.7 z"
     id="path2936"
     style="stroke:none;stroke-width:0.2" /><path
     d="m 1216.1993,10750.334 c 0.076,-1.974 1.719,-3.47 3.6488,-3.366 1.9298,0.104 3.4374,1.692 3.3512,3.666 0,0 1.6715,3.56 3.1167,9.095 0.3001,1.23 0.5011,2.338 0.6401,3.694 0.084,0.739 0.1669,1.601 0.081,2.342 -0.2073,2.099 -0.8037,4.078 -1.4191,5.934 -1.7751,5.445 -3.7031,8.794 -3.7031,8.794 -0.086,1.975 -1.729,3.471 -3.6589,3.367 -1.9298,-0.104 -3.4373,-1.692 -3.3512,-3.666 0,0 -1.6314,-3.56 -2.9366,-9.097 -0.4451,-1.845 -0.8781,-3.938 -0.901,-6.034 -0.014,-0.74 0.1432,-1.605 0.2893,-2.346 0.2502,-1.236 0.5504,-2.473 0.9596,-3.587 1.9152,-5.446 3.8833,-8.796 3.8833,-8.796 z"
     id="path2938"
     style="stroke:none;stroke-width:0.222158" /><path
     d="m 1212.4048,10831.477 c 0.076,-1.974 1.719,-3.471 3.6488,-3.367 1.9299,0.104 3.4374,1.692 3.3512,3.667 0,0 1.6715,3.559 3.1168,9.095 0.3,1.23 0.501,2.338 0.64,3.693 0.084,0.739 0.167,1.602 0.081,2.343 -0.2072,2.099 -0.8036,4.078 -1.419,5.934 -1.7751,5.445 -3.7032,8.794 -3.7032,8.794 -0.086,1.974 -1.729,3.471 -3.6588,3.367 -1.9298,-0.104 -3.4374,-1.692 -3.3512,-3.666 0,0 -1.6315,-3.561 -2.9367,-9.097 -0.4451,-1.846 -0.8781,-3.938 -0.901,-6.035 -0.014,-0.739 0.1432,-1.604 0.2893,-2.346 0.2502,-1.236 0.5504,-2.472 0.9597,-3.586 1.9151,-5.446 3.8832,-8.796 3.8832,-8.796 z"
     id="path2940"
     style="stroke:none;stroke-width:0.222158" /><path
     d="m 1233.4028,10776.191 c -0.029,-1.975 1.5312,-3.557 3.4638,-3.557 1.9326,0 3.5228,1.506 3.5422,3.482 0,0 1.8592,3.466 3.5979,8.916 0.3654,1.213 0.6252,2.308 0.8364,3.654 0.1233,0.734 0.2522,1.591 0.2058,2.335 -0.095,2.107 -0.5847,4.115 -1.1001,6.002 -1.4818,5.531 -3.2283,8.979 -3.2283,8.979 0.019,1.976 -1.5412,3.558 -3.4738,3.557 -1.9326,-10e-4 -3.5228,-1.506 -3.5422,-3.482 0,0 -1.8193,-3.468 -3.4182,-8.927 -0.543,-1.819 -1.0872,-3.885 -1.222,-5.978 -0.053,-0.738 0.057,-1.61 0.1636,-2.358 0.1839,-1.247 0.4176,-2.498 0.7668,-3.632 1.6217,-5.541 3.4081,-8.991 3.4081,-8.991 z"
     id="path2942"
     style="stroke:none;stroke-width:0.222158" /><path
     d="m 1233.7093,10855.875 c -0.029,-1.975 1.5312,-3.557 3.4638,-3.557 1.9327,0 3.5229,1.506 3.5422,3.482 0,0 1.8592,3.466 3.598,8.916 0.3653,1.213 0.6252,2.308 0.8364,3.654 0.1233,0.734 0.2522,1.591 0.2058,2.335 -0.095,2.107 -0.5847,4.115 -1.1001,6.002 -1.4819,5.531 -3.2283,8.979 -3.2283,8.979 0.019,1.976 -1.5412,3.558 -3.4738,3.557 -1.9327,0 -3.5229,-1.506 -3.5422,-3.482 0,0 -1.8193,-3.468 -3.4183,-8.927 -0.543,-1.819 -1.0871,-3.885 -1.2219,-5.978 -0.053,-0.738 0.057,-1.61 0.1636,-2.358 0.1838,-1.247 0.4176,-2.498 0.7668,-3.632 1.6216,-5.541 3.408,-8.991 3.408,-8.991 z"
     id="path2944"
     style="stroke:none;stroke-width:0.222158" /></g>&#10;</svg>
