<?xml version="1.0" encoding="UTF-8" standalone="no"?>
<svg
   width="3060.6841"
   height="3052.1067"
   viewBox="0 0 3060.6841 3052.1067"
   version="1.1"
   xml:space="preserve"
   style="clip-rule:evenodd;fill-rule:evenodd;stroke-linejoin:round;stroke-miterlimit:2"
   id="svg5353"
   xmlns="http://www.w3.org/2000/svg"
   xmlns:svg="http://www.w3.org/2000/svg"><defs
   id="defs5353" />&#10;    <g
   id="vectorly-UNI-medal"
   transform="matrix(4.9999999,0,0,4.9999999,-16431.815,-60665.474)"
   style="stroke-width:0.2"><path
     d="m 3705.842,12480.311 c 0.78,-1.2 1.82,-2.9 2.62,-4.5 8.34,-16.8 20.5899,-55.5 24.6999,-100.8 2.24,-24.6 2.1,-51.2 -2.47,-77.3 -6.73,-38.6 -23.8299,-68.7 -43.2799,-91.5 -36.9399,-43.3 -82.3398,-60.7 -82.3398,-60.7 -1.82,-0.7 -2.75,-2.7 -2.08,-4.5 0.67,-1.8 2.69,-2.8 4.51,-2.1 0,0 47.5799,17 86.8798,61.3 20.98,23.6 39.5499,54.9 47.4499,95.5 8.09,41.8 5.29,85.1 -1.09,120.2 -5.99,33.1 -15.21,59 -21.35,70.1 -2.7799,5 -5.7299,7.7 -7.5199,8.6 -1.94,0.9 -3.76,1 -5.35,0.7 -7.73,-1.6 -15.25,-1.6 -24.06,0.6 -9.7199,2.5 -20.8699,7.8 -35.2599,16.6 -11.8299,7.3 -20.4899,7.4 -26.2399,5 -8.01,-3.5 -12.39,-13.2 -12.5,-24.8 -0.23,-32.7 -9.56,-61.8 -23.6599,-84.2 -17.72,-28.2 -42.9299,-46.2 -67.4199,-46.6 -26.4899,-0.4 -42.2198,13.4 -54.3598,34.8 -23.03,40.6 -33.8799,106.3 -68.9398,163.9 -9.77,16 -22.02,24.5 -34.57,26.5 -13.6499,2.2 -27.9899,-3.1 -40.3399,-16 -19.5399,-20.4 -34.4199,-60.4 -32.6699,-116.9 0.04,-1.9 1.64,-3.4 3.57,-3.4 1.94,0 3.48,1.6 3.44,3.6 -0.44,53.3 13.77,91 32.6399,109.9 9.87,9.8 20.94,14.3 31.5799,12.4 9.9,-1.8 19.11,-9.1 26.58,-21.9 18.6999,-32 29.8499,-66.4 39.9699,-97.5 8.32,-25.7 15.9799,-49.2 26.1399,-67.6 14.63,-26.6 34.3799,-43.2 67.1198,-43.1 24.02,0.2 49.2899,13.8 69.1899,37.5 21.8299,26 37.2199,64.2 37.4399,108.5 0.01,2.8 0.28,5.4 1.02,7.6 0.44,1.3 0.88,2.5 1.99,3 0.87,0.4 1.96,0.3 3.28,0.1 2.47,-0.6 5.37,-1.8 8.7799,-3.9 16.15,-9.7 28.72,-15.2 39.5999,-17.9 9.85,-2.4 18.42,-2.6 27,-1.2 z m 3.6,0.7 z"
     id="path3526"
     style="stroke:none;stroke-width:0.2" /><path
     d="m 3559.4223,12150.011 c 1.65,-1 3.81,-0.4 4.82,1.2 1,1.7 0.48,3.8 -1.17,4.8 -17.4199,11.6 -34.6399,32.2 -51.2298,56 -8.39,12.1 -16.55,24.9 -24.47,37.8 -8.04,13.1 -15.7199,26.4 -23.0899,38.9 -10.34,17.5 -19.96,33.8 -27.92,46.9 -9.8399,16.1 -17.6499,27.6 -22.0699,31.3 -18.51,15.4 -32.2999,22.2 -42.9899,24.4 -15.95,3.3 -25.2799,-2.9 -32.7899,-7.4 -1.71,-0.9 -2.34,-3 -1.42,-4.7 0.92,-1.7 3.04,-2.3 4.75,-1.4 6.42,3.1 14.3699,8.1 27.2699,4.5 9.44,-2.6 21.27,-9.7 36.9499,-24.6 2.71,-2.6 6.51,-9.1 11.63,-18.1 7.01,-12.3 15.8,-29.1 26.2999,-47.7 4.93,-8.7 10.26,-17.8 15.91,-27 8.1,-13.2 16.8299,-26.5 25.9899,-39.4 23.29,-32.6 49.1099,-61.7 73.5298,-75.5 z"
     id="path3528"
     style="stroke:none;stroke-width:0.2" /><path
     d="m 3304.633,12365.311 c -1.66,-1 -2.21,-3.1 -1.22,-4.8 0.99,-1.7 3.15,-2.2 4.81,-1.2 9.8999,5.7 23.9199,4.5 44.4399,-14.9 13.5699,-12.9 29.6299,-33.5 48.7298,-65.1 38.6099,-63.4 69.2499,-101.7 94.8598,-122.8 26.0899,-21.6 47.6199,-26.1 66.6798,-22.1 27.47,6 46.7899,25.3 59.8699,49.3 21.5599,39.6 26.0699,91.7 27.3499,109 2.78,39.8 1.32,77.3 -2.21,109.9 -5.77,53.2 -16.9299,93.1 -23.1499,107.5 -0.74,1.8 -2.8,2.6 -4.58,1.9 -1.79,-0.8 -2.64,-2.8 -1.9,-4.6 5.64,-14.2 15.12,-53.6 19.2199,-105.8 2.52,-32 3.02,-68.9 -0.78,-107.8 -1.5299,-16.3 -6.7699,-65.3 -27.5999,-102.5 -11.12,-19.8 -26.7199,-36.4 -49.5899,-41.3 -19.0899,-4.2 -40.4699,3.8 -69.4398,32.4 -21.9599,21.6 -47.7899,54.6 -78.9198,103 -26.4199,40.7 -47.3099,63.2 -63.7898,74.4 -19.2,13.1 -32.96,11.6 -42.7799,5.5 z"
     id="path3530"
     style="stroke:none;stroke-width:0.2" /><path
     d="m 3472.5426,12354.511 c -1.77,0.8 -3.84,0 -4.61,-1.8 -0.76,-1.8 0.05,-3.9 1.83,-4.6 14.0899,-7.2 25.8499,-14 36.0099,-20 8.93,-5.4 16.4699,-10.2 23.0199,-14.6 9.29,-6.1 16.45,-11.3 22.36,-15.5 6.7099,-4.7 11.9499,-8.1 16.5899,-10.3 5.7,-2.7 10.74,-3.8 16.38,-3.1 14.1799,1.8 25.2799,4 35.2999,8.8 9.8,4.7 18.5899,11.7 28.1399,23 1.33,1.4 1.28,3.6 -0.12,4.9 -1.4,1.4 -3.62,1.3 -4.96,-0.1 -9.6799,-9 -18.1799,-14.2 -27.3399,-17.4 -9.37,-3.3 -19.4199,-4.3 -32.2099,-4.7 -5.44,-0.3 -9.42,2.8 -16.01,7.4 -4.74,3.3 -10.42,7.4 -17.8399,12.1 -7.56,4.8 -16.86,10.3 -28.69,16.1 -12.7399,6.2 -28.3799,12.7 -47.8498,19.8 z"
     id="path3532"
     style="stroke:none;stroke-width:0.2" /><path
     d="m 3544.8924,12357.211 c 1.93,0.2 3.35,1.9 3.16,3.8 -0.17,1.9 -1.89,3.3 -3.81,3.2 -6.93,-0.4 -12.36,3.8 -20.1,15.3 -4.92,7.4 -10.4199,17.7 -17.3399,31.6 -4.62,9.3 -9.8,20.2 -15.87,32.9 -3.86,8.1 -8.04,16.9 -12.73,26.4 -2.74,5.6 -5.7299,11.4 -8.7899,17.5 -2.5,4.8 -6.81,11.4 -12.49,18.6 -9.06,11.7 -21.41,25.3 -33.9199,37.1 -14.94,14 -30.1199,25.2 -40.1099,27.5 -1.86,0.6 -3.8,-0.5 -4.34,-2.4 -0.53,-1.8 0.55,-3.8 2.41,-4.3 8.91,-3 21.4599,-14.8 34.0999,-28.7 17.58,-19.2 34.9299,-42.7 40.3199,-54.7 4.15,-8.6 7.95,-16.6 11.7,-24.1 4.35,-8.7 8.4999,-16.6 12.4099,-23.8 11,-20.4 19.94,-35.5 27.37,-46.7 16.6399,-25 26.9499,-30.8 38.0299,-29.2 z"
     id="path3534"
     style="stroke:none;stroke-width:0.2" /><path
     d="m 3790.7718,12598.311 c 0.42,1.9 -0.77,3.7 -2.65,4.2 -1.89,0.4 -3.77,-0.8 -4.19,-2.7 -4.53,-18.2 -16.93,-41 -34.7999,-57.8 -15.86,-14.9 -36.1699,-24.9 -59.4299,-21.3 -28.5399,4.2 -47.9499,23 -58.4298,46.4 -5.38,12 -8.38,25.2 -9.09,38.4 -0.71,13.4 0.93,26.8 5.22,38.8 7.38,21.2 22.5299,41 40.7899,54.1 19.2799,13.7 42.0799,20.1 62.9998,11.3 19.53,-8.1 32.2799,-20.5 40.5899,-33.4 16.04,-24.9 15.89,-51.3 15.89,-51.3 -0.05,-1.9 1.47,-3.5 3.4,-3.6 1.94,0 3.55,1.5 3.61,3.4 0,0 1.43,28.7 -14.88,56.4 -8.69,14.8 -22.4299,29.3 -43.9199,39.2 -24.6199,11.3 -52.2599,5.4 -75.7298,-10.4 -21.12,-14.2 -38.6799,-36.5 -47.5999,-60.4 -5.04,-13.9 -7.2,-29.5 -6.29,-45 0.89,-15.1 4.61,-30.3 11.06,-43.9 12.96,-27.4 36.7699,-48.9 70.6598,-52.9 21.84,-2.5 41.2299,4.7 57.1899,17 24.5399,19 40.8699,50 45.5999,73.5 z"
     id="path3536"
     style="stroke:none;stroke-width:0.2" /><path
     d="m 3670.7021,12608.311 c 0.05,-0.1 0.21,-0.2 0.25,-0.3 0.15,-0.2 0.36,-0.9 0.55,-0.6 0.29,0.4 -0.11,0.7 -0.8,0.9 z m 0,0 c -0.03,0 -0.03,0.1 0.02,0.1 2.21,0.9 1.89,-6.5 3.06,-11.7 2.69,-11.8 6.0399,-27.4 9.4299,-34.8 2.66,-5.7 6.61,-8 9.28,-8.1 2.63,-0.1 6.17,1 9.15,4.9 3.94,5.1 8.58,16.8 12.6,25.4 0.98,2.1 1.87,4.9 2.63,6.2 1.5899,-0.1 4.0599,-1.4 6.8399,-2.6 5.97,-2.6 12.63,-5.7 16.59,-6.2 3.31,-0.4 5.67,0.5 7,2 1.31,1.5 2.21,5.1 1.2,9.7 -1.93,8.7 -8.68,23 -8.68,23 -0.76,1.8 -2.83,2.6 -4.6,1.9 -1.78,-0.8 -2.6,-2.9 -1.84,-4.6 0,0 5.59,-14.3 6.55,-22.1 -0.41,0.1 -0.83,0.3 -1.19,0.4 -4.63,2 -10.55,5.5 -15.17,7.6 -3.48,1.6 -6.5499,2.2 -8.4799,2.1 -1.42,-0.1 -3.03,-0.8 -4.68,-2.2 -1.55,-1.3 -3.37,-3.8 -5.26,-7 -3.34,-5.7 -7.13,-14.3 -10.61,-20.2 -2.55,9 -4.66,23.3 -6.62,32.8 -1.29,6.2 -2.92,10.7 -4.02,12.3 -1.6,2.3 -4.87,4.6 -9.2199,6.2 -0.41,0.2 -0.84,0.3 -1.28,0.5 2.79,0.5 5.4999,1 7.7399,1.6 4.69,1.3 7.94,3.4 9.37,5.5 1.11,1.6 2.39,5.1 3.09,9.8 0.87,5.8 1.35,14.1 2.37,20.3 3.36,-5.6 7.01,-13.4 10.08,-18.5 2.53,-4.2 5.1,-7 6.85,-7.7 2.47,-1.1 5.6199,-1.5 9.1499,-1.1 4.9,0.5 10.73,2.2 15.87,3.1 0.66,0.1 1.17,0.4 1.43,0.1 0.31,-0.5 0.46,-1 0.48,-1.7 0.1,-2.3 -0.67,-5.1 -2.14,-7.7 -1.01,-1.7 -0.49,-3.8 1.17,-4.8 1.65,-1 3.8,-0.5 4.81,1.1 3.25,4.9 4.47,10.5 3.73,14.3 -0.91,4.8 -4.25,7.8 -10.62,7.2 -4.3,-0.4 -9.1,-1.4 -13.38,-1.7 -2.17,-0.2 -4.15,-0.3 -5.65,0.2 -0.3,0.5 -2.3999,4.1 -3.7599,7 -3.81,8.1 -8.29,19.1 -11.99,23.8 -3.01,3.9 -6.6,4.7 -9.15,4.4 -2.59,-0.3 -5.55,-2.3 -7.53,-6.7 -2.45,-5.4 -4,-16.9 -5.52,-25.8 -0.42,-2.4 -1.19,-5.5 -1.53,-6.8 -1.2999,-0.2 -3.3699,-0.1 -4.7999,-0.4 -5.51,-0.9 -11.96,-1.6 -16.4,-3 -6.52,-2 -9.79,-6.2 -10.37,-10.1 -0.68,-4.7 1.47,-9.1 6.96,-12.2 3.45,-2 8.93,-3.5 13.68,-5 0.94,-0.3 2.41,-0.5 3.36,-0.8 z m 7.7899,31.5 c 0.27,0.5 0.69,1.4 0.91,1 0.25,-0.5 -0.17,-0.8 -0.91,-1 z m -16.8699,-11.9 c -0.06,0 -0.12,0.1 -0.18,0.1 -0.12,0.1 -0.39,0.1 -0.32,0.2 0.17,0.2 0.35,0 0.5,-0.3 z m 0.31,-5.9 c -0.35,-1.1 -0.83,-1.9 -1.3,-1.1 -0.37,0.6 0.26,0.9 1.3,1.1 z m 54.9699,-31.7 c 0.36,0.7 0.6999,0.9 0.9999,0.5 0.28,-0.4 -0.4,-0.4 -0.9999,-0.5 z m -0.47,0 c -0.06,0 -0.12,0 -0.16,0 0.05,0 0.11,0 0.16,0 z"
     id="path3538"
     style="stroke:none;stroke-width:0.2" /><path
     d="m 3892.8215,12403.411 c 1.51,-1.2 3.72,-0.9 4.92,0.6 1.2,1.5 0.94,3.7 -0.58,4.9 0,0 -13.38,13.1 -31.2099,29.2 -4.06,3.6 -8.39,7.4 -12.86,11.1 -2.87,2.5 -5.77,4.9 -8.78,7.2 -7.6899,6 -15.6099,11.6 -22.9799,16.7 -19.66,13.8 -35.4399,23.8 -35.4399,23.8 -1.52,1.2 -3.73,1 -4.93,-0.6 -1.2,-1.5 -0.94,-3.7 0.58,-4.9 0,0 13.42,-13 31.3199,-29 6.7,-6 13.98,-12.4 21.53,-18.5 2.95,-2.4 5.9999,-4.7 9.0199,-6.9 4.7,-3.5 9.35,-6.8 13.85,-9.9 19.74,-13.7 35.5599,-23.7 35.5599,-23.7 z"
     id="path3540"
     style="stroke:none;stroke-width:0.2" /><path
     d="m 3831.4717,12571.211 c -1.88,0.4 -3.77,-0.8 -4.2,-2.6 -0.43,-1.9 0.74,-3.8 2.63,-4.2 0,0 7.82,-3.8 18.5099,-7.9 2.39,-0.9 4.91,-1.7 7.54,-2.5 1.67,-0.5 3.36,-1.1 5.1,-1.4 4.45,-0.9 8.93,-1.4 13.12,-1.8 11.3399,-1.1 20.0299,-1.2 20.0299,-1.2 1.89,-0.4 3.77,0.7 4.21,2.6 0.43,1.9 -0.75,3.8 -2.64,4.2 0,0 -7.84,3.7 -18.5399,7.7 -3.95,1.4 -8.2,3 -12.6,4.1 -1.71,0.4 -3.46,0.7 -5.19,1 -2.71,0.4 -5.34,0.7 -7.89,1 -11.39,1 -20.0799,1 -20.0799,1 z"
     id="path3542"
     style="stroke:none;stroke-width:0.2" /><path
     d="m 3406.3227,12657.211 c -1.89,0.4 -3.74,-0.8 -4.12,-2.7 -0.38,-1.9 0.86,-3.8 2.75,-4.1 0,0 15.81,-5.2 36.3999,-10.9 4.69,-1.3 9.62,-2.5 14.67,-3.7 3.25,-0.8 6.53,-1.5 9.85,-2.2 8.49,-1.5 17.0299,-2.7 24.9499,-3.7 21.16,-2.8 37.7299,-4.2 37.7299,-4.2 1.89,-0.4 3.74,0.9 4.12,2.8 0.38,1.9 -0.86,3.7 -2.75,4.1 0,0 -15.8299,5.1 -36.4299,10.7 -7.71,2 -16.05,4.2 -24.4899,6 -3.3,0.7 -6.63,1.3 -9.93,1.8 -5.13,0.8 -10.16,1.6 -14.98,2.2 -21.1999,2.6 -37.7699,3.9 -37.7699,3.9 z"
     id="path3544"
     style="stroke:none;stroke-width:0.2" /><path
     d="m 3562.1923,12698.011 c 1.3,-1.5 3.51,-1.6 4.95,-0.3 1.44,1.3 1.56,3.5 0.27,4.9 0,0 -3.07,6.3 -8.06,14.3 -1.11,1.8 -2.34,3.5 -3.6799,5.3 -0.85,1.1 -1.71,2.3 -2.7,3.3 -2.55,2.6 -5.33,5 -7.98,7.1 -7.25,5.9 -13.15,9.7 -13.15,9.7 -1.29,1.5 -3.51,1.6 -4.95,0.3 -1.44,-1.3 -1.56,-3.5 -0.27,-5 0,0 3.12,-6.2 8.2,-14.1 1.85,-2.8 3.87,-5.9 6.25,-8.7 0.91,-1.1 1.96,-2.1 2.98,-3 1.62,-1.6 3.23,-3 4.87,-4.3 7.3499,-5.8 13.2699,-9.5 13.2699,-9.5 z"
     id="path3546"
     style="stroke:none;stroke-width:0.2" /><path
     d="m 3615.1222,12521.911 c 1.3,-1.4 3.52,-1.5 4.95,-0.2 1.43,1.3 1.53,3.5 0.23,4.9 -13.87,16.9 -21.08,38.2 -23.42,60.4 -0.9099,8.6 -1.0599,17.4 -0.5199,26.1 0.3499,5.7 1.0699,11.5 1.9599,17.2 2.28,14.6 6.35,28.7 12.56,41.3 9.94,20.2 24.71,36.9 44.8099,45.1 1.83,0.6 2.79,2.6 2.15,4.4 -0.65,1.9 -2.65,2.8 -4.47,2.2 -23.1899,-6.9 -41.8199,-23.6 -54.5199,-45.2 -7.9299,-13.5 -13.5299,-29 -16.3099,-45.2 -1.09,-6.3 -1.63,-12.8 -1.78,-19.2 -0.21,-9.6 0.48,-19.3 2.25,-28.7 4.49,-24 15.1599,-46.3 32.1099,-63.1 z"
     id="path3548"
     style="stroke:none;stroke-width:0.2" /></g>&#10;</svg>
