<?xml version="1.0" encoding="UTF-8" standalone="no"?>
<svg
   width="2054.8376"
   height="3166.1008"
   viewBox="0 0 2054.8377 3166.1008"
   version="1.1"
   xml:space="preserve"
   style="clip-rule:evenodd;fill-rule:evenodd;stroke-linejoin:round;stroke-miterlimit:2"
   id="svg5353"
   xmlns="http://www.w3.org/2000/svg"
   xmlns:svg="http://www.w3.org/2000/svg"><defs
   id="defs5353" />&#10;    <g
   id="vectorly-UNI-chair"
   style="stroke:none;stroke-width:0.2"
   transform="matrix(4.9999999,0,0,4.9999999,-4843.4612,-32485.65)"><path
     d="m 989.31872,6725.0633 c -1.922,0.24 -3.674,-1.13 -3.91099,-3.05 -0.238,-1.92 1.12699,-3.67 3.05099,-3.9 0,0 10.79997,-3.3 25.07998,-6.64 3.2299,-0.76 6.6199,-1.44 10.1099,-2.06 2.24,-0.4 4.5,-0.79 6.78,-1.03 5.86,-0.61 11.71,-0.82 17.16,-0.95 14.6399,-0.37 25.9299,0.13 25.9299,0.13 1.92,-0.23 3.67,1.13 3.91,3.05 0.23,1.92 -1.13,3.67 -3.05,3.91 0,0 -10.82,3.25 -25.1099,6.46 -5.31,1.2 -11.04,2.43 -16.87,3.27 -2.27,0.33 -4.56,0.49 -6.83,0.65 -3.53,0.25 -6.98,0.42 -10.2999,0.48 -14.67,0.24 -25.94998,-0.32 -25.94998,-0.32 z"
     id="path1788"
     style="stroke:none;stroke-width:0.2" /><path
     d="m 1243.6081,6750.4833 c -1.9,0.35 -3.73,-0.92 -4.08,-2.82 -0.35,-1.9 0.92,-3.73 2.82,-4.08 0,0 13.71,-4.48 31.6499,-9.33 4.08,-1.1 8.37,-2.15 12.77,-3.14 2.83,-0.64 5.68,-1.28 8.57,-1.76 7.3999,-1.23 14.8299,-2.06 21.7299,-2.78 18.47,-1.92 32.8799,-2.62 32.8799,-2.62 1.9,-0.34 3.73,0.92 4.08,2.82 0.34,1.9 -0.92,3.73 -2.82,4.08 0,0 -13.7299,4.43 -31.6799,9.16 -6.71,1.77 -13.96,3.61 -21.32,5.07 -2.8699,0.57 -5.7699,0.98 -8.6399,1.38 -4.47,0.63 -8.85,1.16 -13.05,1.57 -18.51,1.8 -32.9099,2.45 -32.9099,2.45 z"
     id="path1790"
     style="stroke:none;stroke-width:0.2" /><path
     d="m 1327.1279,6809.5233 c 0.12,-0.2 0.69,-1.14 0.94,-1.86 0.83,-2.36 1.25,-5.56 1.5,-9.35 1.2,-18.11 -2.18,-48.26 -0.7,-72.85 0.53,-8.89 1.7,-17.09 3.82,-23.88 10.7999,-34.54 14.8699,-74.7299 4.74,-109.9599 -9.39,-32.63 -31.24,-60.87 -71.7299,-75.86 -22.0399,-8.2 -58.0298,-1.88 -89.4997,16.96 -25.74,15.41 -48.5299,39.43 -58.0899,71.94 -9.65,32.44 -10.93,66.5999 -8.75,97.0099 3.88,54.24 18.89,96.68 18.89,96.68 0.74,2.03 0.52,4.28 -0.58,6.14 -1.09,1.86 -2.97,3.13 -5.1,3.46 0,0 -44.2099,6.65 -81.8998,18.19 -20.79,6.37 -39.7299,13.79 -46.6999,22.99 -8.89397,11.74 -11.09297,21.84 -2.01999,30.65 9.24999,8.97 27.54989,16.49 56.65989,23.2999 28.2699,6.62 59.3998,11.43 86.5998,12.43 23.0199,0.85 43.1698,-0.92 56.0798,-6.88 15.4,-7.0899 36.2699,-16.3899 54.9599,-23.6699 16.1299,-6.29 30.6699,-11.07 38.8699,-11.85 1.93,-0.2 3.65,1.2 3.85,3.13 0.2,1.92 -1.19,3.64 -3.12,3.84 -7.79,0.88 -21.5,5.79 -36.7299,12.04 -18.41,7.55 -38.9499,17.1199 -54.0999,24.4199 -13.77,6.62 -35.3399,9.17 -60.0898,8.66 -27.83,-0.58 -59.7499,-4.97 -88.7698,-11.28 -32.1899,-7.03 -52.2199,-15.6699 -62.55287,-25.4099 -6.16698,-5.81 -9.23098,-12.14 -9.86798,-18.83 -0.81499,-8.54 2.588,-17.98 10.06498,-28.14 6.35598,-8.62 21.13597,-16.78 39.15587,-23.5 31.02,-11.59 71.6699,-19.73 88.9798,-22.9 -4.8,-15.23 -14.61,-50.33 -17.9299,-92.31 -2.55,-32.16 -1.22,-68.2999 8.7999,-102.6699 10.81,-36.57 36.2699,-63.79 65.3099,-81.01 36.1499,-21.44 77.7098,-27.1 102.8997,-17.53 45.3799,17.34 69.6598,49.39 79.7798,86.24 10.37,37.79 5.65,80.7099 -6.41,117.4699 -4.19,12.7 -4.48,30.99 -4.22,48.86 0.31,20.74 1.39,40.94 -0.88,52.3 -1.6099,8.01 -5.3799,12.38 -9.9399,13.23 -25.24,4.68 -48.8199,14.51 -69.9099,25.91 -31.8099,17.19 -57.9998,37.96 -75.7198,50.58 -9.3299,6.6399 -16.5399,11.0399 -21.1199,11.9699 -1.9,0.4 -3.76,-0.81 -4.16,-2.71 -0.4,-1.89 0.81,-3.7499 2.71,-4.1499 4.01,-0.89 10.11,-5.14 18.1999,-11.13 17.69,-13.09 43.8099,-34.59 75.6799,-52.55 21.6799,-12.22 45.9898,-22.78 72.0998,-28.12 z"
     id="path1792"
     style="stroke:none;stroke-width:0.2" /><path
     d="m 1310.9779,6734.2033 c -0.12,-1.93 1.36,-3.59 3.29,-3.71 1.93,-0.12 3.59,1.35 3.71,3.28 2.01,14.32 3.89,27.1 5.19,38.78 1.05,9.48 1.82,18.1 2.3,26.01 0.37,6.27 0.57,12.07 0.55,17.43 -0.02,10.35 -0.6,19.02 -1.25,26.3 -2.34,26.09 -6.99,35.48 -11.56,38.69 -3.64,2.56 -7.56,2.38 -11.91,1.62 -1.93,-0.17 -3.3499,-1.88 -3.18,-3.8 0.18,-1.93 1.88,-3.35 3.81,-3.18 1.74,0.02 3.38,0.05 4.85,-0.45 1.02,-0.34 1.56,-1.37 2.23,-2.99 1.27,-3.02 1.82,-7.78 2.11,-15.31 0.24,-6.19 0.01,-14.05 -0.32,-24.16 -0.22,-7.04 -0.68,-15.12 -0.85,-24.45 -0.16,-8.74 -0.09,-18.52 0.04,-29.53 0.15,-13.12 0.75,-27.81 0.99,-44.53 z"
     id="path1794"
     style="stroke:none;stroke-width:0.2" /><path
     d="m 1283.518,6811.2133 c 1.93,0.11 3.41,1.77 3.29,3.7 -0.12,1.93 -1.78,3.41 -3.71,3.29 0,0 -21.32,0.68 -48.9199,0.31 -6.27,-0.09 -12.83,-0.3 -19.5399,-0.61 -4.3,-0.19 -8.65,-0.4 -13,-0.78 -11.03,-0.97 -22.06,-2.37 -32.3899,-3.83 -21.58,-3.06 -39.8999,-6.64 -48.5099,-9.05 -1.89,-0.4 -3.11,-2.25 -2.72,-4.15 0.4,-1.89 2.25,-3.11 4.15,-2.72 8.68,1.2 26.9499,1.53 48.2899,2.31 10.3699,0.38 21.4199,0.77 32.3999,1.49 4.34,0.29 8.66,0.74 12.93,1.17 6.6599,0.68 13.1699,1.4 19.3599,2.19 27.3299,3.46 48.3699,6.68 48.3699,6.68 z"
     id="path1796"
     style="stroke:none;stroke-width:0.2" /><path
     d="m 1029.6486,6719.3433 c -1.67,-0.97 -2.23,-3.12 -1.26,-4.79 0.98,-1.67 3.12,-2.24 4.79,-1.26 0,0 8.78,3.52 19.49,19.26 2.85,4.19 5.7599,9.28 8.4999,15.51 1.62,3.69 3.17,7.78 4.46,12.33 1.11,3.91 1.99,8.14 2.73,12.71 0.96,5.89 1.65,12.24 2.05,19.22 0.35,6.01 0.42,12.31 0.33,19.17 0.2,1.92 -1.2,3.64 -3.12,3.84 -1.93,0.2 -3.65,-1.2 -3.85,-3.13 -1.67,-7.69 -3.56,-14.57 -5.33,-21.07 -2.06,-7.59 -4.2299,-14.3 -6.1999,-20.45 -1.21,-3.79 -2.38,-7.33 -3.43,-10.66 -1.89,-6.02 -3.54,-11.26 -5.26,-15.79 -7.09,-18.76 -13.9,-24.89 -13.9,-24.89 z"
     id="path1798"
     style="stroke:none;stroke-width:0.2" /><path
     d="m 990.89871,7037.3632 c -0.55,0.14 -1.62999,0.95 -1.05,1.2 3.53,1.49 0.37,-10.73 0.37,-10.73 -0.52,-1.86 0.56,-3.8 2.42,-4.32 1.86999,-0.53 3.79999,0.56 4.32999,2.42 0,0 2.87999,7.56 2.88999,12.98 0.01,4.4 -2.40999,7.28 -5.46999,8.68 -7.30798,3.17 -10.04797,8.67 -10.26897,13.98 -0.116,2.82 0.728,5.53 2.01199,7.88 1.171,2.14 2.617,4.16 4.81699,4.94 5.15999,2.1 11.03999,-1.32 13.68999,-6.17 1.96,-3.58 2.74,-7.85 0.16,-11.95 -1.2,-1.52 -0.94,-3.72 0.58,-4.92 1.52,-1.2 3.73,-0.94 4.92,0.58 7.4699,7.63 6.4099,17.69 1.84,25.52 -3.46,5.93 -9.55,10.07 -15.98,11.55 -3.14999,0.74 -6.41999,0.5 -9.69398,-0.29 -6.01598,-1.63 -11.17497,-5.85 -14.33796,-11.53 -2.78499,-5 -4.07099,-11.16 -3.12799,-17.11 1.51299,-9.56 7.83898,-19.25 21.89994,-22.71 z m 0,0 c 0.02,-0.01 0.03,-0.01 0.04,-0.01 -0.01,0 -0.03,0 -0.04,0.01 z"
     id="path1800"
     style="stroke:none;stroke-width:0.2" /><path
     d="m 1166.2483,7081.8032 c 1.88,-0.45 3.77,0.71 4.22,2.6 0.45,1.88 -0.71,3.77 -2.59,4.22 -4.96,1.92 -7.53,5.96 -8.87,10.2 -0.79,2.53 -0.61,5.17 -0.24,7.67 0.44,2.95 1.87,5.62 4.49,6.79 2.85,1.63 5.84,2.19 8.64,1.77 2.17,-0.32 4.29,-0.78 6.0299,-1.9 4.62,-2.97 7.55,-8.16 4.21,-13.91 -1.17,-1.54 -0.87,-3.74 0.67,-4.91 1.54,-1.17 3.74,-0.87 4.91,0.67 9.01,9.25 5.85,20.65 -1.72,28.16 -5.05,5 -12.6899,7.72 -20.6399,7.1 -3.13,-0.24 -6.27,-1.26 -9.38,-2.76 -3.23,-1.78 -5.97,-4.16 -7.81,-7.22 -3.54,-5.9 -4.75,-13.81 -2.32,-21.03 2.88,-8.53 9.56,-16.3 20.4,-17.45 z"
     id="path1802"
     style="stroke:none;stroke-width:0.2" /><path
     d="m 1361.9378,7039.7132 c 8.05,0.41 13.52,6.38 16.29,13.95 0.9899,2.71 1.3899,5.69 1.4299,8.7 0.05,4.01 -0.8,8.09 -2.5299,11.64 -2.89,5.91 -8.02,10.48 -14.99,11.98 -2.5,0.44 -4.99,0.65 -7.44,0.17 -4.92,-0.97 -9.71,-3.36 -13.27,-7.06 -5.7199,-5.94 -8.8599,-13.77 -6.5199,-19.39 0.49,-1.87 2.42,-2.98 4.2899,-2.48 1.87,0.5 2.98,2.42 2.48,4.29 -0.11,0.94 0.39,1.82 0.82,2.79 1.04,2.36 3.47,4.27 6.11,5.94 2.92,1.86 6.54,2.67 9.76,1.45 1.82,-0.58 2.86,-2.06 3.78,-3.54 1.18,-1.89 1.91,-4.1 2.11,-6.37 0.26,-2.87 0.31,-5.83 -1.09,-7.99 -0.76,-1.18 -1.51,-2.43 -2.98,-2.81 -2.92,-0.79 -5.68,-2.59 -6.39,-6.52 -0.36,-1.99 -0.5,-4.51 -0.15,-7.07 0.59,-4.46 1.84,-8.81 1.84,-8.81 0.32,-1.91 2.13,-3.2 4.04,-2.88 1.9,0.31 3.2,2.12 2.88,4.03 0,0 -1.14,6.7 -0.47,9.98 z m 0,0.01 c 0.27,1.33 0.85,2.1 1.93,1.62 0.99,-0.46 -0.99,-1.51 -1.93,-1.62 z m -0.08,-0.01 c -0.02,0 -0.04,0 -0.05,0 0.02,0 0.03,0 0.05,0 z"
     id="path1804"
     style="stroke:none;stroke-width:0.2" /><path
     d="m 1098.7384,6999.0732 c -0.75,-1.78 0.09,-3.84 1.87,-4.59 1.78,-0.75 3.84,0.08 4.59,1.87 4.52,7.61 4.65,14.81 2.84,20.63 -2.53,8.09 -9.94,12.95 -18.8899,14.17 -4.51,0.36 -9.01,-0.78 -12.89,-3.12 -3.56,-2.15 -6.65,-5.3 -8.63,-8.98 -4.15,-7.71 -4.63,-17.28 1.81,-24.42 1.45,-1.51 2.04,-3.45 2,-5.4 -0.09,-4.5 -1.56,-8.58 -1.56,-8.58 -0.98,-1.68 -0.41,-3.82 1.27,-4.79 1.67,-0.98 3.82,-0.4 4.79,1.27 0,0 4.47,6.21 5.65,13.21 0.67,3.96 -0.21,7.93 -2.36,11.64 -1.87,3.03 -0.31,6.29 1.55,8.95 1,1.42 2.35,2.57 3.81,3.48 1.24,0.77 2.53,1.54 3.99,1.55 3.62,0.22 6.95,-0.87 8.6899,-3.79 1.97,-3.31 2.92,-7.69 1.47,-13.1 z"
     id="path1806"
     style="stroke:none;stroke-width:0.2" /><path
     d="m 1189.3382,6914.2032 -1.14,35.25 c 0,0 68.8599,11.53 80.3698,14.4 20.85,5.22 13.1,19.66 7.59,20.4 0,0 75.4998,21.03 88.2198,40.87 5.35,8.34 -4.7,12.74 -14.5,10.24 -8.14,-2.08 -75.4398,-25.4 -75.4398,-25.4 -10.54,16.93 -30.2899,3.47 -29.9199,-8.73 l -58.5199,-22.34 c 0,0 0.91,112.85 -12.6699,114.9 -6.72,1.01 -14.89,-16.75 -12.47,-112.42 0,0 -127.0297,48.19 -156.6796,51.98 -15.88998,2.03 -21.58097,-5.84 -14.87998,-13.28 11.02998,-12.26 74.10978,-32.3 74.10978,-32.3 0,0 -4.22,-18.08 19.24,-23.68 26.2099,-6.25 82.1898,-17.71 82.1898,-17.71 l -0.1,-26.91 c 9.43,-0.98 17.7799,-2.69 24.5999,-5.27 z"
     id="path1808"
     style="stroke:none;stroke-width:0.2" /></g>&#10;</svg>
