<?xml version="1.0" encoding="UTF-8" standalone="no"?>
<svg
   width="3032.8274"
   height="3178.1953"
   viewBox="0 0 3032.8274 3178.1953"
   version="1.1"
   xml:space="preserve"
   style="clip-rule:evenodd;fill-rule:evenodd;stroke-linejoin:round;stroke-miterlimit:2"
   id="svg5353"
   xmlns="http://www.w3.org/2000/svg"
   xmlns:svg="http://www.w3.org/2000/svg"><defs
   id="defs5353" />&#10;    <g
   id="vectorly-UNI-bank"
   style="stroke:none;stroke-width:0.2"
   transform="matrix(4.9999999,0,0,4.9999999,-358.27495,-20130.275)"><path
     d="m 75.399982,4615.0642 c 0,0 191.265528,-2.18 356.895118,-3.35 126.44268,-0.89 237.93041,-1.12 237.93041,-1.12 4.40399,0 7.97398,3.57 7.97398,7.98 l 0.021,35.13 c 0,4.41 -3.57899,7.99 -7.99498,7.99 0,0 -111.46573,-0.24 -237.88341,-1.07 -165.59559,-1.08 -356.827118,-3.06 -356.827118,-3.06 -2.126995,0 -3.852991,-1.72 -3.859991,-3.85 l 0.24,-35.13 c -0.003,-0.93 0.363999,-1.83 1.021997,-2.49 0.657999,-0.66 1.550996,-1.03 2.482994,-1.03 z m 3.551991,7.05 0.371999,27.69 c 27.677928,-0.29 201.130498,-2.04 353.018128,-3.03 106.41373,-0.69 202.2335,-0.98 229.89343,-1.05 l 0.012,-19.2 c -27.64793,-0.07 -123.4997,-0.35 -229.95243,-1.1 -152.39563,-1.07 -326.49419,-3.01 -353.343127,-3.31 z"
     id="path566"
     style="stroke:none;stroke-width:0.2" /><path
     d="m 106.45591,4618.6642 c -0.049,1.93 -1.658,3.46 -3.592,3.41 -1.93399,-0.05 -3.463987,-1.66 -3.415988,-3.59 l 0.08,-29.4 c 0.057,-2.26 1.910998,-4.07 4.174988,-4.06 0,0 70.03983,-1.67 159.28761,-2.67 33.58591,-0.38 69.88582,-0.71 106.18873,-0.6 36.30391,0.1 72.60082,0.69 106.18574,1.22 89.23878,1.41 159.27561,3.21 159.27561,3.21 2.14599,0 3.92899,1.65 4.09699,3.79 l 1.61299,28.32 c 0.152,1.93 -1.29,3.62 -3.21899,3.77 -1.928,0.15 -3.61699,-1.29 -3.76899,-3.22 0,0 -2.447,-24.35 -2.447,-24.35 -15.56296,0.32 -78.3888,1.57 -155.57961,2.47 -33.58692,0.39 -69.88583,0.82 -106.18974,0.77 -36.30291,-0.04 -72.60182,-0.53 -106.18573,-1.05 -76.75281,-1.18 -139.29766,-2.79 -155.29962,-3.22 z"
     id="path568"
     style="stroke:none;stroke-width:0.2" /><path
     d="m 135.73683,4590.0342 c -0.434,1.89 -2.31699,3.06 -4.20199,2.63 -1.88499,-0.44 -3.06299,-2.32 -2.62899,-4.2 0.248,-5.32 1.83799,-11.69 5.83998,-17.16 2.577,-3.52 6.48199,-5.96 11.36098,-7.89 1.08599,-0.37 2.23699,-0.63 3.44799,-0.87 1.091,-0.22 2.23599,-0.33 3.43399,-0.43 2.07599,-0.05 4.09699,-0.18 6.05298,-0.11 3.233,0.11 6.24699,0.41 9.07598,0.78 13.99397,1.81 22.53995,4.22 22.53995,4.22 1.92999,0.13 3.38899,1.8 3.25699,3.73 -0.133,1.93 -1.807,3.39 -3.73699,3.26 0,0 -4.72099,0.7 -12.90897,1.75 -3.69799,0.48 -7.95698,1.05 -12.85797,1.59 -1.76699,0.2 -3.58499,0.4 -5.48998,0.51 -1.775,0.1 -3.61,0.07 -5.48899,0.12 l -3.55799,0.11 c -3.23099,0.39 -5.80199,1.38 -7.73598,3.19 -2.929,2.74 -5.12399,5.82 -6.40099,8.77 z"
     id="path570"
     style="stroke:none;stroke-width:0.2" /><path
     d="m 259.65901,4590.2742 c -0.422,1.89 -2.29699,3.08 -4.18499,2.65 -1.88799,-0.42 -3.07899,-2.29 -2.65699,-4.18 0.216,-5.32 1.767,-11.8 5.79399,-17.35 2.58899,-3.57 6.53098,-6.05 11.46697,-7.99 1.08799,-0.37 2.23899,-0.63 3.45099,-0.87 1.09,-0.23 2.23699,-0.33 3.43499,-0.43 2.61699,-0.03 5.14599,-0.14 7.56698,-0.03 2.67599,0.13 5.17899,0.4 7.56198,0.72 13.98497,1.86 22.53995,4.21 22.53995,4.21 1.92999,0.13 3.38899,1.8 3.25699,3.73 -0.133,1.93 -1.807,3.39 -3.73699,3.26 0,0 -4.72199,0.69 -12.90897,1.75 -3.69799,0.47 -7.95798,1.04 -12.85797,1.58 -1.76699,0.2 -3.58499,0.4 -5.48998,0.51 -1.775,0.11 -3.609,0.08 -5.48899,0.14 l -3.55499,0.12 c -3.26299,0.39 -5.84899,1.41 -7.78798,3.25 -2.951,2.81 -5.14599,5.95 -6.40499,8.93 z"
     id="path572"
     style="stroke:none;stroke-width:0.2" /><path
     d="m 383.5814,4590.5042 c -0.409,1.89 -2.27599,3.1 -4.16699,2.69 -1.89099,-0.41 -3.09399,-2.28 -2.68499,-4.17 0.186,-5.32 1.697,-11.91 5.74799,-17.54 2.59999,-3.62 6.57698,-6.14 11.57197,-8.09 1.08799,-0.37 2.23999,-0.63 3.45199,-0.88 1.091,-0.22 2.23799,-0.31 3.43599,-0.42 2.61799,-0.02 5.14799,-0.13 7.56798,-0.01 2.67599,0.13 5.17899,0.4 7.56198,0.72 13.98297,1.86 22.53995,4.2 22.53995,4.2 1.92999,0.13 3.38899,1.8 3.25699,3.73 -0.133,1.93 -1.807,3.39 -3.73699,3.26 0,0 -4.72299,0.69 -12.90797,1.74 -3.69899,0.47 -7.95898,1.04 -12.85897,1.59 -1.76699,0.19 -3.58599,0.39 -5.48998,0.51 -1.775,0.1 -3.609,0.08 -5.48799,0.15 l -3.55299,0.12 c -3.29499,0.4 -5.89599,1.46 -7.83898,3.33 -2.973,2.86 -5.16799,6.08 -6.40899,9.07 z"
     id="path574"
     style="stroke:none;stroke-width:0.2" /><path
     d="m 507.50518,4590.7442 c -0.396,1.89 -2.25499,3.11 -4.14799,2.71 -1.89399,-0.39 -3.10899,-2.25 -2.71299,-4.15 0.155,-5.32 1.626,-12.01 5.70099,-17.73 2.61099,-3.66 6.62298,-6.23 11.67597,-8.19 1.08799,-0.37 2.23999,-0.64 3.45399,-0.88 1.091,-0.22 2.23899,-0.31 3.43699,-0.41 2.61799,-0.02 5.14799,-0.12 7.56798,0 2.67599,0.13 5.17899,0.4 7.56198,0.72 13.98097,1.86 22.53995,4.19 22.53995,4.19 1.92999,0.13 3.38899,1.8 3.25699,3.73 -0.133,1.93 -1.807,3.39 -3.73699,3.26 0,0 -4.72399,0.68 -12.90797,1.73 -3.69899,0.48 -7.95698,1.06 -12.85997,1.59 -2.10399,0.22 -4.28999,0.45 -6.58598,0.58 -1.43,0.08 -2.896,0.05 -4.39099,0.09 l -3.54999,0.13 c -3.32699,0.41 -5.94199,1.5 -7.88998,3.4 -2.996,2.93 -5.18999,6.22 -6.41199,9.23 z"
     id="path576"
     style="stroke:none;stroke-width:0.2" /><path
     d="m 226.29061,4589.1242 c 0.174,1.92 -1.248,3.63 -3.17399,3.8 -1.927,0.18 -3.633,-1.24 -3.80799,-3.17 -0.534,-4.18 -1.703,-8.58 -4.24299,-11.75 -2.004,-2.5 -5.06999,-3.88 -9.49898,-3.57 -1.238,0.04 -2.43899,-0.42 -3.33099,-1.28 -0.892,-0.86 -1.398,-2.04 -1.403,-3.28 0,0 -1.396,-32.4 -2.65999,-76.12 -0.413,-14.27 -0.776,-29.74 -1.045,-45.6799 -0.17,-10.02 -0.332,-20.23 -0.334,-30.45 -0.004,-20.82 0.305,-41.64 0.643,-60.9 0.896,-51.21 2.23499,-91.37 2.23499,-91.37 -0.005,-1.34 0.585,-2.61 1.611,-3.46 1.026,-0.86 2.37999,-1.22 3.69499,-0.97 0,0 5.08299,1.07 8.91898,-3.3 2.02599,-2.31 3.72999,-5.86 4.58199,-11.27 0.234,-1.92 1.98299,-3.29 3.90299,-3.05 1.92099,0.23 3.28999,1.98 3.05599,3.9 -0.829,9.62 -4.27699,15.01 -7.83898,18.18 -2.94299,2.62 -6.14899,3.76 -8.77298,4.22 0.459,11.65 1.751,45.76 2.81399,87.06 0.495,19.26 0.975,40.07 1.142,60.9 0.082,10.21 0.005,20.42 -0.082,30.45 -0.139,15.9399 -0.375,31.4099 -0.67,45.6799 -0.71499,34.54 -1.56999,62.02 -1.89699,72.05 3.74599,0.75 6.68398,2.37 8.97698,4.58 4.78898,4.63 6.80898,11.9 7.18098,18.8 z"
     id="path578"
     style="stroke:none;stroke-width:0.2" /><path
     d="m 350.28979,4589.4042 c 0.165,1.92 -1.267,3.62 -3.19399,3.79 -1.928,0.16 -3.626,-1.27 -3.78999,-3.2 -0.516,-4.22 -1.668,-8.68 -4.20999,-11.91 -2.003,-2.54 -5.08299,-3.96 -9.55398,-3.65 -1.239,0.05 -2.44299,-0.42 -3.33599,-1.28 -0.894,-0.86 -1.401,-2.04 -1.406,-3.28 0,0 -1.392,-32.4 -2.65399,-76.12 -0.411,-14.27 -0.774,-29.74 -1.043,-45.6799 -0.17,-10.02 -0.331,-20.23 -0.334,-30.45 -0.005,-20.82 0.302,-41.64 0.638,-60.9 0.892,-51.21 2.22799,-91.37 2.22799,-91.37 -0.006,-1.34 0.586,-2.61 1.615,-3.47 1.029,-0.86 2.38699,-1.22 3.70499,-0.98 0,0 5.16899,1.1 9.01598,-3.41 2.02599,-2.38 3.71499,-6.01 4.53099,-11.54 0.215,-1.92 1.94999,-3.31 3.87299,-3.09 1.92199,0.21 3.30799,1.95 3.09299,3.87 -0.749,9.77 -4.16199,15.27 -7.71598,18.51 -2.98699,2.72 -6.26399,3.9 -8.93898,4.38 0.459,11.65 1.747,45.75 2.80599,87.04 0.495,19.26 0.973,40.07 1.139,60.9 0.081,10.21 0.003,20.42 -0.084,30.45 -0.138,15.9399 -0.373,31.4099 -0.668,45.6799 -0.71199,34.54 -1.56399,62.01 -1.89099,72.04 3.79899,0.76 6.76698,2.42 9.07398,4.68 4.78498,4.69 6.76398,12.05 7.10098,18.99 z"
     id="path580"
     style="stroke:none;stroke-width:0.2" /><path
     d="m 474.28718,4589.6742 c 0.154,1.93 -1.286,3.62 -3.21499,3.78 -1.928,0.15 -3.618,-1.29 -3.77199,-3.22 -0.497,-4.25 -1.631,-8.78 -4.17599,-12.07 -2.001,-2.58 -5.09599,-4.03 -9.60798,-3.72 -1.241,0.04 -2.44699,-0.42 -3.34199,-1.28 -0.894,-0.86 -1.402,-2.05 -1.407,-3.29 0,0 -1.389,-32.4 -2.64799,-76.12 -0.411,-14.27 -0.772,-29.74 -1.042,-45.6799 -0.169,-10.02 -0.331,-20.23 -0.334,-30.45 -0.007,-20.82 0.298,-41.64 0.633,-60.9 0.888,-51.21 2.22099,-91.37 2.22099,-91.37 -0.006,-1.34 0.588,-2.62 1.619,-3.48 1.032,-0.87 2.39299,-1.22 3.71499,-0.98 0,0 5.25499,1.11 9.11098,-3.54 2.02499,-2.43 3.69799,-6.16 4.47699,-11.81 0.197,-1.92 1.91999,-3.32 3.84399,-3.12 1.92399,0.19 3.32699,1.91 3.12899,3.84 -0.667,9.92 -4.04599,15.53 -7.58898,18.84 -3.02999,2.83 -6.37799,4.04 -9.10398,4.53 0.459,11.66 1.744,45.75 2.79899,87.03 0.493,19.26 0.969,40.07 1.134,60.9 0.081,10.21 0.003,20.42 -0.084,30.45 -0.139,15.9399 -0.373,31.4099 -0.666,45.6799 -0.70999,34.53 -1.55999,62 -1.88599,72.03 3.85099,0.78 6.84898,2.47 9.16898,4.78 4.78198,4.75 6.71998,12.21 7.02198,19.17 z"
     id="path582"
     style="stroke:none;stroke-width:0.2" /><path
     d="m 598.28396,4589.9542 c 0.144,1.93 -1.306,3.61 -3.23499,3.76 -1.929,0.14 -3.612,-1.31 -3.75599,-3.24 -0.477,-4.29 -1.594,-8.88 -4.13999,-12.23 -2,-2.62 -5.10799,-4.11 -9.66098,-3.79 -1.244,0.04 -2.45099,-0.42 -3.34799,-1.29 -0.896,-0.86 -1.404,-2.05 -1.409,-3.29 0,0 -1.386,-32.4 -2.64299,-76.12 -0.41,-14.27 -0.77,-29.74 -1.039,-45.6799 -0.169,-10.02 -0.332,-20.23 -0.336,-30.45 -0.007,-20.82 0.296,-41.64 0.629,-60.9 0.884,-51.21 2.21399,-91.37 2.21399,-91.37 -0.006,-1.35 0.589,-2.63 1.623,-3.49 1.035,-0.87 2.39999,-1.23 3.72499,-0.98 0,0 5.34099,1.12 9.20498,-3.66 2.02299,-2.51 3.67899,-6.32 4.42099,-12.08 0.179,-1.93 1.88899,-3.34 3.81499,-3.17 1.92599,0.19 3.34399,1.9 3.16399,3.82 -0.587,10.07 -3.92799,15.79 -7.46098,19.17 -3.07199,2.93 -6.48999,4.18 -9.26598,4.68 0.458,11.67 1.74,45.76 2.79199,87.02 0.491,19.26 0.966,40.07 1.13,60.9 0.08,10.21 10e-4,20.42 -0.086,30.45 -0.138,15.9399 -0.371,31.4099 -0.664,45.6799 -0.70799,34.52 -1.55399,61.99 -1.87999,72.02 3.90399,0.79 6.93098,2.52 9.26497,4.88 4.77599,4.82 6.67399,12.37 6.94099,19.36 z"
     id="path584"
     style="stroke:none;stroke-width:0.2" /><path
     d="m 124.69986,4246.9443 1.305,-39.5099 c 0.099,-2.14 1.86899,-3.83 4.01899,-3.83 0,0 150.17662,-2.09 280.2313,-3.11 99.27976,-0.78 186.82054,-0.86 186.82054,-0.86 4.41499,0 7.99498,3.57 7.99498,7.99 l -0.074,37.8299 c 0,4.37 -3.52999,7.91 -7.89298,7.93 0,0 -87.88178,-0.08 -187.55454,-0.63 -130.56467,-0.71 -281.3353,-2.14 -281.3353,-2.14 -0.96,0 -1.87899,-0.39 -2.54299,-1.08 -0.664,-0.69 -1.015,-1.63 -0.971,-2.59 z m 7.22398,-3.4 c 23.98294,-0.39 159.09861,-2.58 277.57831,-4.06 81.9438,-1.03 155.91862,-1.68 179.63656,-1.88 l -0.043,-21.9999 c -23.73494,-0.04 -97.33176,-0.21 -178.84056,-0.85 -117.91371,-0.93 -252.36737,-2.73 -276.44331,-3.05 z"
     id="path586"
     style="stroke:none;stroke-width:0.2" /><path
     d="m 129.11185,4230.8743 c -1.934,0 -3.50499,-1.57 -3.50499,-3.51 0,-1.93 1.57099,-3.5 3.50499,-3.5 0,0 61.71685,-1.96 140.38965,-3.5 18.01196,-0.36 36.90691,-0.61 56.15586,-0.8 12.38297,-0.12 24.90894,-0.24 37.43691,-0.19 31.99992,0.11 63.98984,0.63 93.59177,1.16 78.6698,1.42 140.38965,3.33 140.38965,3.33 1.93399,0 3.50499,1.57 3.50499,3.5 0,1.94 -1.571,3.51 -3.50499,3.51 0,0 -61.71985,1.9 -140.38965,3.32 -29.60193,0.54 -61.59185,1.05 -93.59177,1.17 -12.52697,0.04 -25.05394,-0.07 -37.43691,-0.19 -19.24795,-0.19 -38.1439,-0.45 -56.15586,-0.8 -78.6728,-1.54 -140.38965,-3.5 -140.38965,-3.5 z"
     id="path588"
     style="stroke:none;stroke-width:0.2" /><path
     d="m 127.24785,4209.7644 -19.04195,-24.13 c -0.68,-0.88 -0.944,-2.02 -0.725,-3.11 0.219,-1.09 0.899,-2.03 1.866,-2.58 l 262.55935,-153 c 2.18499,-1.24 4.87898,-1.18 7.00598,0.16 0,0 79.2348,49.14 147.65963,91.98 52.23687,32.71 98.15476,61.78 98.15476,61.78 2.13899,1.35 3.50999,3.63 3.69299,6.16 0.183,2.52 -0.843,4.98 -2.76499,6.62 l -23.45094,19.97 c -2.627,2.25 -6.41299,2.52 -9.33698,0.68 l -217.95946,-139.51 -243.1444,135.88 c -1.51899,0.87 -3.44599,0.49 -4.51499,-0.9 z m 3.69799,-6.74 241.09141,-140.88 c 1.99699,-1.14 4.46099,-1.09 6.40598,0.14 l 217.88046,135.58 c 0,0 10.78597,-9.27 10.78597,-9.27 -15.93396,-10.05 -50.79987,-32.05 -88.88778,-56.27 -59.75385,-38.01 -127.46068,-81.43 -143.19264,-91.53 l -258.05036,143.7 z"
     id="path590"
     style="stroke:none;stroke-width:0.2" /><path
     d="m 373.15824,4128.2481 c 0.094,0.12 0.508,0.27 0.674,0.42 0.774,0.71 1.767,1.27 2.745,1.94 3.72399,2.56 7.86598,5.32 10.46997,8.85 3.14099,4.27 4.84699,9.39 2.87499,15.9199 -3.20099,9.53 -11.46197,13.95 -19.79395,11.63 -7.71798,-2.15 -16.03996,-9.65 -14.41196,-23.2599 0.015,-1.94 1.59799,-3.5 3.53199,-3.48 1.93399,0.01 3.49299,1.6 3.47699,3.53 0.52,4.86 2.72999,8.04 5.32699,9.99 2.30599,1.7399 5.22998,1.6599 7.01698,0.06 0.473,-0.42 0.405,-1.18 0.529,-1.95 0.212,-1.14 -0.384,-1.9 -0.94,-2.61 -0.809,-1.03 -1.92,-1.85 -3.01899,-2.71 -3.24899,-2.54 -6.75199,-4.94 -9.00798,-7.61 -3.00299,-3.55 -4.72699,-7.41 -3.86699,-11.98 2.25099,-10.29 10.13697,-15.5 18.11495,-14.9 8.17998,0.61 16.11496,6.01 14.16597,15.85 -0.145,1.93 -1.828,3.37 -3.75699,3.23 -1.929,-0.14 -3.37799,-1.83 -3.23299,-3.76 -0.174,-3.78 -3.72699,-4.73 -6.79699,-4.29 -2.36699,0.34 -4.23299,2.4 -4.29499,5.55 0.005,-0.12 0.118,-0.3 0.195,-0.42 z m 0,0 c -0.031,-0.04 -0.028,-0.08 0.026,-0.11 0.074,-0.05 0.037,0.01 -0.026,0.11 z"
     id="path592"
     style="stroke:none;stroke-width:0.2" /><path
     d="m 373.82224,4108.1881 c 0.12,-1.93 1.785,-3.4 3.71499,-3.28 1.931,0.12 3.40099,1.78 3.28199,3.71 0,0 1.424,8.21 2.319,19.17 0.2,2.46 0.3,5 0.324,7.63 0.016,1.68 0.029,3.38 -0.121,5.07 -0.387,4.35 -1.166,8.6 -1.946,12.56 -2.11899,10.7599 -4.49499,18.7499 -4.49499,18.7499 -0.12,1.93 -1.78499,3.4 -3.71599,3.28 -1.92999,-0.12 -3.40099,-1.78 -3.28099,-3.71 0,0 -1.36999,-8.23 -2.14299,-19.1599 -0.285,-4.03 -0.532,-8.35 -0.379,-12.71 0.059,-1.7 0.283,-3.38 0.505,-5.04 0.35,-2.61 0.76299,-5.12 1.26599,-7.53 2.242,-10.77 4.66999,-18.74 4.66999,-18.74 z"
     id="path594"
     style="stroke:none;stroke-width:0.2" /><path
     d="m 403.61238,4116.6652 c -1.28506,-1.4446 -1.15128,-3.6678 0.29403,-4.9513 1.44642,-1.2832 3.66332,-1.1529 4.94838,0.2917 6.04415,6.1351 10.23757,13.8246 12.3158,22.1723 2.07004,8.2821 1.80728,17.1957 -0.837,25.9586 -4.12121,13.3092 -13.39397,23.6083 -24.88122,29.538 -11.71755,6.0492 -25.81187,7.2579 -39.32396,2.8267 -13.4227,-4.8763 -23.78563,-14.6182 -29.26295,-26.6871 -5.41244,-11.908 -6.21839,-25.928 -1.12298,-39.0689 5.12346,-12.7798 14.72897,-22.4721 26.48668,-27.466 11.39611,-4.833 24.60924,-5.4998 36.97315,-0.4704 1.82365,0.6438 2.78121,2.6501 2.13548,4.4793 -0.64179,1.8181 -2.64669,2.7787 -4.47034,2.1349 -10.49945,-3.1544 -21.23518,-1.6633 -30.20686,3.135 -8.615,4.598 -15.40676,12.4989 -18.49499,22.5726 -3.09279,9.6959 -1.75462,19.6639 2.48481,28.0972 4.15894,8.2669 11.3239,15.061 20.76588,18.2938 9.40037,3.5567 19.32422,2.9832 27.85493,-0.7791 8.78778,-3.8722 16.26986,-10.8646 20.09258,-20.4784 2.70846,-6.6705 3.50631,-13.6141 2.53045,-20.2555 -1.03895,-7.0526 -3.82045,-13.767 -8.28187,-19.3434 z"
     id="path596"
     style="stroke:none;stroke-width:0.236568" /><path
     d="m 129.50985,4247.2943 c -0.111,-1.93 1.36599,-3.59 3.29699,-3.7 1.93099,-0.11 3.58999,1.37 3.70199,3.3 0.825,3.54 2.44399,7.29 4.73699,10.4 1.347,1.83 3.38999,2.63 6.11298,2.55 l 1.024,-0.09 c 2.80799,-0.12 5.72999,-0.43 8.69298,-0.44 2.93299,-0.02 5.86899,0.18 8.75298,0.37 4.76999,0.31 9.23497,0.78 13.20597,1.19 7.90198,0.8 13.25796,1.53 13.25796,1.53 1.931,-0.11 3.58599,1.37 3.69199,3.31 0.106,1.93 -1.37599,3.58 -3.30799,3.69 0,0 -5.29099,1.3 -13.15397,2.8 -3.96299,0.75 -8.42798,1.56 -13.21696,2.19 -2.915,0.38 -5.88899,0.74 -8.86898,0.86 -3.03899,0.12 -6.04899,-0.09 -8.93198,-0.17 l -2.65899,-0.26 c -6.24599,-1.4 -10.77298,-4.2 -13.29397,-8.79 -3.05999,-5.58 -3.71699,-12.68 -3.04199,-18.74 z"
     id="path598"
     style="stroke:none;stroke-width:0.2" /><path
     d="m 253.46003,4246.8343 c -0.095,-1.94 1.39599,-3.58 3.32799,-3.68 1.93199,-0.09 3.57799,1.4 3.67399,3.33 0.798,3.59 2.40299,7.45 4.70899,10.67 1.346,1.88 3.39799,2.74 6.16498,2.67 l 1.022,-0.08 c 2.80699,-0.12 5.73099,-0.42 8.69398,-0.43 2.93299,-0.01 5.86799,0.19 8.75298,0.38 4.76999,0.32 9.23497,0.78 13.20597,1.19 7.89898,0.8 13.25696,1.52 13.25696,1.52 1.931,-0.11 3.58599,1.37 3.69199,3.31 0.106,1.93 -1.37599,3.58 -3.30799,3.69 0,0 -5.29299,1.29 -13.15497,2.78 -3.96199,0.75 -8.42798,1.56 -13.21696,2.19 -2.915,0.39 -5.88799,0.75 -8.86798,0.87 -3.03899,0.13 -6.04899,-0.07 -8.93198,-0.14 l -2.66099,-0.26 c -6.35799,-1.4 -10.91798,-4.31 -13.46097,-9 -1.337,-2.46 -2.38199,-5.08 -2.79099,-7.97 -0.536,-3.8 -0.539,-7.59 -0.107,-11.04 z"
     id="path600"
     style="stroke:none;stroke-width:0.2" /><path
     d="m 377.41342,4246.3643 c -0.079,-1.93 1.42599,-3.57 3.35799,-3.65 1.93299,-0.08 3.56699,1.43 3.64599,3.36 0.771,3.63 2.36099,7.61 4.67799,10.93 1.345,1.93 3.40599,2.87 6.21698,2.8 l 1.02,-0.09 c 2.80699,-0.1 5.73099,-0.39 8.69398,-0.39 2.93299,-0.01 5.86899,0.19 8.75298,0.38 4.76999,0.32 9.23497,0.79 13.20597,1.19 7.89798,0.8 13.25696,1.51 13.25696,1.51 1.931,-0.11 3.58599,1.37 3.69199,3.31 0.106,1.93 -1.37599,3.58 -3.30799,3.69 0,0 -5.29499,1.29 -13.15497,2.77 -3.96299,0.75 -8.42898,1.56 -13.21696,2.19 -2.915,0.39 -5.88699,0.75 -8.86798,0.88 -3.03799,0.13 -6.04899,-0.06 -8.93198,-0.12 l -2.66299,-0.26 c -6.46899,-1.41 -11.08298,-4.4 -13.62597,-9.2 -1.327,-2.5 -2.35099,-5.18 -2.73799,-8.11 -0.51,-3.87 -0.473,-7.73 -0.014,-11.19 z"
     id="path602"
     style="stroke:none;stroke-width:0.2" /><path
     d="m 501.3712,4245.9043 c -0.064,-1.94 1.45399,-3.56 3.38799,-3.62 1.93299,-0.07 3.55499,1.45 3.61799,3.38 0.743,3.66 2.31499,7.76 4.64499,11.2 1.343,1.98 3.41199,2.98 6.26698,2.93 l 1.017,-0.09 c 2.80799,-0.1 5.73299,-0.38 8.69498,-0.38 2.93399,0 5.86899,0.2 8.75398,0.4 4.76899,0.32 9.23397,0.78 13.20597,1.18 7.89598,0.8 13.25596,1.5 13.25596,1.5 1.931,-0.11 3.58599,1.37 3.69199,3.31 0.106,1.93 -1.37599,3.58 -3.30799,3.69 0,0 -5.29799,1.28 -13.15597,2.76 -3.96299,0.75 -8.42898,1.55 -13.21696,2.19 -2.915,0.38 -5.88599,0.75 -8.86698,0.88 -3.03699,0.14 -6.04999,-0.04 -8.93198,-0.09 l -2.66499,-0.26 c -6.57899,-1.42 -11.24597,-4.5 -13.78597,-9.41 -1.318,-2.54 -2.32099,-5.26 -2.68599,-8.23 -0.485,-3.95 -0.405,-7.88 0.079,-11.34 z"
     id="path604"
     style="stroke:none;stroke-width:0.2" /><path
     d="m 143.09681,4267.3543 c -0.009,-1.93 1.555,-3.51 3.489,-3.52 1.93499,-0.01 3.51199,1.55 3.52099,3.49 0,0 2.14499,39.97 3.91799,91.01 0.406,11.67 0.72,23.92 0.96299,36.4 0.156,8.03 0.312,16.15 0.303,24.27 -0.022,20.75 -0.43999,41.49 -0.88699,60.6899 -1.188,51.04 -2.909,91.04 -2.909,91.04 0.009,1.93 -1.55399,3.51 -3.48899,3.52 -1.93399,0.01 -3.51199,-1.56 -3.52099,-3.49 0,0 -2.08599,-39.98 -3.74199,-91.01 -0.622,-19.1899 -1.23,-39.9199 -1.442,-60.6699 -0.083,-8.13 -0.002,-16.25 0.081,-24.28 0.129,-12.48 0.331,-24.73 0.63,-36.41 1.306,-51.05 3.08499,-91.04 3.08499,-91.04 z"
     id="path606"
     style="stroke:none;stroke-width:0.2" /><path
     d="m 267.07199,4267.3543 c -0.009,-1.93 1.555,-3.51 3.489,-3.52 1.93499,-0.01 3.51199,1.55 3.52099,3.49 0,0 2.14499,39.97 3.91799,91.01 0.406,11.67 0.72,23.92 0.96299,36.4 0.156,8.03 0.312,16.15 0.303,24.27 -0.022,20.75 -0.43999,41.49 -0.88699,60.6899 -1.188,51.04 -2.909,91.04 -2.909,91.04 0.009,1.93 -1.55399,3.51 -3.48899,3.52 -1.93399,0.01 -3.51199,-1.56 -3.52099,-3.49 0,0 -2.08599,-39.98 -3.74199,-91.01 -0.622,-19.1899 -1.23,-39.9199 -1.442,-60.6699 -0.083,-8.13 -0.002,-16.25 0.081,-24.28 0.129,-12.48 0.331,-24.73 0.63,-36.41 1.306,-51.05 3.08499,-91.04 3.08499,-91.04 z"
     id="path608"
     style="stroke:none;stroke-width:0.2" /><path
     d="m 391.04638,4267.3543 c -0.009,-1.93 1.555,-3.51 3.489,-3.52 1.93499,-0.01 3.51199,1.55 3.52099,3.49 0,0 2.14499,39.97 3.91799,91.01 0.406,11.67 0.72,23.92 0.96299,36.4 0.156,8.03 0.312,16.15 0.303,24.27 -0.022,20.75 -0.43999,41.49 -0.88699,60.6899 -1.188,51.04 -2.909,91.04 -2.909,91.04 0.009,1.93 -1.55399,3.51 -3.48899,3.52 -1.93399,0.01 -3.51199,-1.56 -3.52099,-3.49 0,0 -2.08599,-39.98 -3.74199,-91.01 -0.622,-19.1899 -1.23,-39.9199 -1.442,-60.6699 -0.083,-8.13 -0.002,-16.25 0.081,-24.28 0.129,-12.48 0.331,-24.73 0.63,-36.41 1.306,-51.05 3.08499,-91.04 3.08499,-91.04 z"
     id="path610"
     style="stroke:none;stroke-width:0.2" /><path
     d="m 515.02116,4267.3543 c -0.009,-1.93 1.555,-3.51 3.489,-3.52 1.93499,-0.01 3.51199,1.55 3.52099,3.49 0,0 2.14499,39.97 3.91799,91.01 0.406,11.67 0.72,23.92 0.96299,36.4 0.156,8.03 0.312,16.15 0.303,24.27 -0.022,20.75 -0.43999,41.49 -0.88699,60.6899 -1.188,51.04 -2.909,91.04 -2.909,91.04 0.009,1.93 -1.55399,3.51 -3.48899,3.52 -1.93399,0.01 -3.51199,-1.56 -3.52099,-3.49 0,0 -2.08599,-39.98 -3.74199,-91.01 -0.622,-19.1899 -1.23,-39.9199 -1.442,-60.6699 -0.083,-8.13 -0.002,-16.25 0.081,-24.28 0.129,-12.48 0.331,-24.73 0.63,-36.41 1.306,-51.05 3.08499,-91.04 3.08499,-91.04 z"
     id="path612"
     style="stroke:none;stroke-width:0.2" /></g>&#10;</svg>
