<?xml version="1.0" encoding="UTF-8" standalone="no"?>
<svg
   width="2444.6309"
   height="3006.9666"
   viewBox="0 0 2444.6309 3006.9666"
   version="1.1"
   xml:space="preserve"
   style="clip-rule:evenodd;fill-rule:evenodd;stroke-linejoin:round;stroke-miterlimit:2"
   id="svg5353"
   xmlns="http://www.w3.org/2000/svg"
   xmlns:svg="http://www.w3.org/2000/svg"><defs
   id="defs5353" />&#10;    <g
   id="vectorly-UNI-cart-shop"
   style="stroke:none;stroke-width:0.2"
   transform="matrix(4.9999999,0,0,4.9999999,-12665.651,-24138.305)"><path
     d="m 2847.1587,4883.6951 c -2.02,-0.31 -5.93,0.08 -8.88,-0.02 -10.27,-0.35 -23.73,0.58 -30.4599,3.05 0.07,3.31 0.67,9.8 1.32,18.13 0.62,7.9 1.4299,17.2499 2.2499,27.1599 1.82,21.89 3.81,46.36 5.34,63.56 0.25,1.92 -1.1,3.68 -3.01,3.94 -1.92,0.25 -3.68,-1.1 -3.9399,-3.01 -3.77,-21.34 -9.64,-53.97 -13.36,-78.78 -1.72,-11.4399 -2.93,-21.2199 -3.51,-27.4499 -0.44,-4.73 -0.31,-7.9 -0.08,-9.03 0.56,-2.79 2.75,-5.99 7.3,-8.25 4.18,-2.08 11.5299,-3.78 19.6499,-4.59 10.01,-0.99 21.21,-0.75 28.31,0.58 4.8899,0.91 8.3499,2.61 9.9999,4.22 0.68,0.66 1.79,1.97 2.78,4.14 1.56,3.44 3.98,10.6 6.64,20.04 6.59,23.3599 15.35,60.9899 21.32,86.8499 0.51,1.86 -0.59,3.79 -2.46,4.3 -1.87,0.51 -3.79,-0.59 -4.3,-2.46 -5.83,-18.36 -13.79,-42.74 -20.73,-63.49 -4.58,-13.6899 -8.71,-25.7299 -11.6699,-33.2299 -0.92,-2.35 -2.11,-4.84 -2.51,-5.66 z m -39.2399,0.91 z m 39.3399,-0.9 c 0.17,0.22 0.39,0.49 0.52,0.6 0.17,0.16 0.51,0.82 0.64,0.52 0.29,-0.63 -0.21,-0.96 -1.16,-1.12 z"
     id="path1482"
     style="stroke:none;stroke-width:0.2" /><path
     d="m 2753.7889,4931.675 c -0.98,-0.15 -2.92,-0.44 -4.68,-0.61 -6.85,-0.67 -17.67,-1.04 -30.0399,-1.33 -11.17,-0.26 -23.59,-0.34 -35.5199,-0.46 -13.19,-0.14 -25.77,-0.3 -35.3699,-0.08 -3.83,0.09 -7.14,0.2 -9.77,0.36 0.16,0.44 0.33,0.88 0.5,1.3 7.31,17.82 28.6499,55.69 45.1399,81.14 1.11,1.58 0.72,3.77 -0.87,4.88 -1.58,1.11 -3.77,0.72 -4.88,-0.86 -15.79,-20.93 -35.8799,-50.61 -46.8199,-69.97 -4.95,-8.77 -7.93,-15.75 -8.56,-19.2 -0.8,-4.43 1.13,-7.1 2.68,-8.48 0.98,-0.88 3.87,-2.28 8.61,-2.98 8.62,-1.29 26.9099,-2.1699 46.9199,-2.1199 8.1199,0.02 16.5299,0.2499 24.6799,0.5899 14.1,0.58 27.3999,1.54 37.1099,2.6 9.8,1.07 16.43,2.73 18.09,3.88 0.96,0.67 2.46,2.06 3.92,4.47 1.6,2.65 3.72,6.94 6.0599,12.36 6.81,15.85 16.05,41.58 22.8,60.86 0.71,1.8 -0.17,3.84 -1.97,4.55 -1.8,0.71 -3.84,-0.17 -4.55,-1.97 -5.93,-13.4 -13.47,-30 -20.1599,-43.94 -4.49,-9.36 -8.6,-17.45 -11.59,-22.42 -0.56,-0.94 -1.26,-1.92 -1.73,-2.57 z"
     id="path1484"
     style="stroke:none;stroke-width:0.2" /><path
     d="m 2605.7793,4942.525 c 0.29,1.78 1.1,4.79 1.77,8.53 0.62,3.43 1.1599,7.37 1.7199,11.47 0.79,5.87 1.48,11.98 2.1,17.49 1.12,9.96 1.8,17.63 1.8,17.63 0.45,1.89 -0.71,3.78 -2.6,4.22 -1.88,0.45 -3.7699,-0.71 -4.2199,-2.6 0,0 -4.28,-10.91 -8.41,-23.48 -1.75,-5.31 -3.46,-10.83 -4.76,-15.94 -0.81,-3.19 -1.43,-6.2 -1.86,-8.82 -0.84,-5.09 -0.99,-8.97 -0.82,-10.6 0.19,-1.56 0.54,-3.24 1.64,-4.8 1.33,-1.87 3.64,-4.14 7.11,-5.84 3.32,-1.62 7.57,-3.19 11.9799,-4.37 8.82,-2.37 17.63,-3.67 17.63,-3.67 1.86,-0.54 3.81,0.53 4.35,2.39 0.54,1.86 -0.54,3.81 -2.39,4.35 0,0 -8.96,4.15 -17.09,8.73 -3.13,1.76 -6.0299,3.6 -7.9499,5.31 z m -0.22,0.19 c -0.24,0.23 -0.47,0.46 -0.68,0.68 -0.07,0.07 -0.21,0.19 -0.14,0.25 0.47,0.36 0.71,-0.23 0.82,-0.93 z m 0.11,-1.22 c 0,-0.04 0,-0.08 0,-0.12 0,0.04 0,0.08 0,0.12 z"
     id="path1486"
     style="stroke:none;stroke-width:0.2" /><path
     d="m 2764.7589,4897.1351 c 0.06,-0.06 0.12,-0.12 0.18,-0.17 -0.06,0.06 -0.1,0.27 -0.15,0.2 -0.01,-0.01 -0.02,-0.02 -0.03,-0.03 z m 0,0 c -1.19,1.18 -2.79,3.64 -4.76,6.73 -3.85,6.05 -8.71,13.7299 -12.87,21.0599 -0.71,1.79 -2.75,2.67 -4.55,1.96 -1.8,-0.72 -2.68,-2.76 -1.96,-4.55 2.08,-8.47 4.39,-17.5999 6.89,-24.5899 1.97,-5.49 4.34,-9.48 5.86,-11.44 1.2,-1.39 3.06,-2.85 5.59,-4.05 2.64,-1.25 6.21,-2.36 10.22,-3.09 4.0299,-0.73 8.4699,-1.19 12.7799,-1.37 10.07,-0.42 18.89,0.28 18.89,0.28 1.92,-0.19 3.64,1.22 3.83,3.14 0.19,1.93 -1.22,3.65 -3.14,3.84 0,0 -8.16,2.36 -17.43,5.27 -2.41,0.75 -4.84,1.54 -7.25,2.3 -3.28,1.03 -6.36,2.15 -8.9299,3.17 -1.29,0.51 -3.61,0.69 -3.17,1.34 z"
     id="path1488"
     style="stroke:none;stroke-width:0.2" /><path
     d="m 2954.3284,4954.445 c 1.92,0.27 3.25,2.04 2.99,3.96 -0.27,1.91 -2.04,3.25 -3.96,2.98 0,0 -10.5,0.5 -24.1899,0.16 -3.08,-0.07 -6.29,-0.26 -9.58,-0.53 -2.11,-0.18 -4.24,-0.35 -6.35,-0.69 -5.41,-0.88 -10.72,-2.14 -15.64,-3.37 -13.2599,-3.3 -23.2399,-6.6 -23.2399,-6.6 -1.92,-0.27 -3.25,-2.04 -2.99,-3.95 0.27,-1.92 2.04,-3.26 3.96,-2.99 0,0 10.5,-0.44 24.1599,0.02 5.07,0.16 10.52,0.41 15.96,1.05 2.12,0.25 4.22,0.66 6.29,1.07 3.24,0.64 6.38,1.34 9.3699,2.11 13.26,3.43 23.22,6.78 23.22,6.78 z"
     id="path1490"
     style="stroke:none;stroke-width:0.2" /><path
     d="m 2997.4883,4935.585 c -2.35,-0.67 -5.42,-1.32 -9.04,-2.06 -8.03,-1.66 -18.5299,-3.16 -30.0399,-4.99 -6.51,-1.04 -13.33,-2.17 -20.19,-3.43 -13.0299,-2.41 -26.1799,-5.12 -37.8399,-7.48 -21.6499,-4.3899 -37.8699,-7.9299 -37.8699,-7.9299 -1.92,-0.25 -3.28,-2 -3.04,-3.92 0.25,-1.92 2,-3.28 3.92,-3.04 0,0 23.54,0.88 51.6699,3.71 11.13,1.12 22.9599,2.5 34.2599,4.41 10.15,1.71 19.83,3.9299 28.2899,6.0599 13.93,3.51 24.56,7.23 28.85,10.03 2.18,1.47 4.57,4.83 2.32,9.82 -3.1,6.88 -16.64,21.77 -20.21,23.99 -1.57,1.14 -3.76,0.78 -4.89,-0.78 -1.14,-1.57 -0.78,-3.77 0.79,-4.9 2.35,-1.96 9.93,-12.75 13.02,-19.49 z m 3.25,1.19 c 0,0 0.01,0 0.01,0.01 0,-0.01 -0.01,-0.01 -0.01,-0.01 z"
     id="path1492"
     style="stroke:none;stroke-width:0.2" /><path
     d="m 2566.2394,4993.025 c 8.3499,2.9 23.9499,7.3 41.4499,10.99 16.0199,3.37 33.6399,6.1 48.8398,6.39 6.14,0.14 62.3299,-8.07 127.6397,-17.87 31.4999,-4.72 65.0999,-9.86 96.2598,-14.67 38.6099,-5.95 73.4898,-11.35 95.8297,-15.78 8.81,-1.69 17.34,1.83 20.96,10.81 2.44,6.04 2.64,15.48 -3.34,28.37 l -76.2298,206.5999 c -0.63,1.83 -2.64,2.79 -4.46,2.15 -1.83,-0.64 -2.79,-2.64 -2.15,-4.46 0,0 22.2499,-67.4099 41.7799,-125.7399 14.54,-43.46 27.6299,-81.88 28.6199,-84.16 2.83,-6.48 3.79,-11.52 3.24,-15.28 -0.24,-1.65 -0.82,-2.89 -1.81,-3.6 -1.01,-0.73 -2.36,-0.7 -3.68,-0.41 -19.2999,4.11 -47.8799,9.4 -80.2298,14.67 -25.3899,4.14 -53.0998,8.3 -80.4298,12.16 -34.7399,4.9 -68.8598,9.27 -96.7597,12.65 -35.8599,4.35 -61.5899,6.9 -65.6599,6.7 -15.8599,-0.8 -34.1599,-4.17 -50.7598,-8.23 -24.34,-5.96 -45.0199,-13.37 -49.2099,-15.89 -2.97,-1.78 -3.41,-4.08 -2.75,-6.27 0.4,-1.33 1.84,-3.35 4.88,-4.93 9.24,-4.81 37.9699,-11.27 46.5299,-12.1 1.92,-0.21 3.6599,1.17 3.8799,3.09 0.22,1.92 -1.1599,3.66 -3.0899,3.88 -7.01,0.93 -28.49,6.36 -39.3499,10.93 z m -5.66,-2.28 c -0.01,0 -0.01,0 -0.01,0 z"
     id="path1494"
     style="stroke:none;stroke-width:0.2" /><path
     d="m 2973.1183,5312.6549 c -7.7499,-28.5 -18.1699,-48.69 -28.6999,-62.63 -13.09,-17.32 -25.9999,-24.59 -33.5499,-25.57 -2.52,-0.34 -22.6099,-0.01 -50.4799,0.41 -29.5099,0.44 -67.5798,1.19 -102.9897,1.73 -50.7299,0.77 -95.9898,1.21 -102.5098,1.74 -9.3999,0.71 -38.2399,-6.73 -62.4398,-16.53 -10.47,-4.24 -20.06,-8.87 -26.8499,-13.28 -5.68,-3.68 -9.55,-7.45 -11.21,-10.69 -1.09,-2.12 -2.2,-6.8 -2.86,-13.51 -1.06,-10.74 -1.54,-27.4999 -1.6,-46.6099 -0.17,-54.68 2.97,-128.71 4.28,-135.08 0.36,-1.9 2.2,-3.15 4.1,-2.79 1.9,0.36 3.15,2.2 2.79,4.1 -0.97,5.6 -1.6,63.71 -0.53,114.45 0.51,24.11 1.4,46.54 2.9,60.8599 0.66,6.36 1.22,10.87 2.19,12.64 1.24,2.3 4.7999,4.49 9.3399,7.06 8.3,4.68 19.96,9.4 31.89,13.48 19.3899,6.64 39.4899,11.73 46.7198,11.04 7.67,-0.69 68.5299,-2.45 129.3197,-3.22 62.6799,-0.8 125.2797,-0.52 129.9097,0.16 9.43,1.43 26.2799,9.75 42.1599,31.8 11.05,15.33 21.8799,37.49 29.4199,68.75 0.7,2.94 -0.21,6.24 -3.3,9.71 -2.87,3.23 -8.41,7.36 -10.3999,15.06 -1.01,3.91 -1.1,8.72 0.47,14.77 2.3099,8.95 9.2699,14.25 16.8999,15.71 8.1,1.55 16.98,-1.02 21.97,-8.19 2.9899,-4.29 4.8599,-12.23 3.9199,-19.41 -0.82,-6.28 -3.8099,-12.11 -10.7999,-13.79 -1.89,-0.42 -3.08,-2.3 -2.65,-4.18 0.42,-1.89 2.29,-3.08 4.18,-2.66 8.3899,1.74 13.2699,7.41 15.6599,14.38 3.53,10.31 1.09,23.63 -3.32,30.38 -6.7499,10.31 -19.0899,14.47 -30.5699,12.61 -11.12,-1.81 -21.3299,-9.31 -25.0499,-22.18 -2.34,-8.12 -2.24,-14.64 -1.02,-19.96 1.95,-8.47 6.91,-13.98 10.64,-18.06 0.7199,-0.79 1.5799,-1.87 2.0699,-2.5 z"
     id="path1496"
     style="stroke:none;stroke-width:0.2" /><path
     d="m 2989.6283,5368.4949 c 1.5,-1.22 3.71,-0.99 4.94,0.51 1.22,1.5 0.99,3.71 -0.51,4.93 -7.91,8.02 -18.33,11.13 -28.7299,11.34 -4.6,0.09 -9.15,-0.59 -13.46,-1.72 -6.39,-1.68 -12.19,-4.56 -16.63,-8 -4.18,-3.24 -7.2199,-7.04 -8.8499,-10.76 -3.27,-7.43 -2.72,-14.96 4.5699,-20.38 2.55,-1.89 5.96,-3.74 10.69,-4.8 5.66,-1.28 13.13,-1.85 23,-1.16 1.93,-0.08 3.56,1.44 3.63,3.37 0.08,1.93 -1.44,3.56 -3.37,3.63 -11.19,1.59 -18.47,4.18 -23.02,7.1 -1.58,1.01 -2.45,2.15 -2.89,3.29 -0.28,0.75 0.5,1.34 0.94,2.1 1.02,1.79 2.92,3.32 5.06,4.96 3.17,2.43 7.08,4.71 11.46,6.42 6.23,2.45 13.13,4.2 20.0499,3.42 4.53,-0.5 9,-1.61 13.12,-4.25 z"
     id="path1498"
     style="stroke:none;stroke-width:0.2" /><path
     d="m 2991.8483,5371.2149 c -33.3699,27.15 -100.1998,-26.53 -27.0699,-29.26 0.06,2.95 0.53,6.23 1.53,9.88 3.47,12.68 14.5199,19.23 25.5399,19.38 z"
     id="path1500"
     style="stroke:none;stroke-width:0.2" /><path
     d="m 2656.1091,5016.255 c 0.04,-1.94 1.64,-3.47 3.57,-3.43 1.94,0.03 3.47,1.64 3.43,3.57 0,0 1.41,26.86 2.09,61.52 0.16,7.88 0.2,16.14 0.16,24.59 -0.02,5.42 -0.06,10.9 -0.26,16.39 -0.51,13.93 -1.44,27.89 -2.42,40.9399 -2.08,27.82 -4.72,51.35 -6.24,61.46 -0.19,1.93 -1.9,3.34 -3.83,3.15 -1.92,-0.18 -3.34,-1.9 -3.15,-3.82 0.42,-10.13 -0.22,-33.59 -0.43,-61.25 -0.1,-13.0599 -0.19,-27.0199 0.09,-40.9299 0.11,-5.48 0.38,-10.95 0.64,-16.36 0.41,-8.42 0.88,-16.67 1.43,-24.52 2.41,-34.56 4.92,-61.31 4.92,-61.31 z"
     id="path1502"
     style="stroke:none;stroke-width:0.2" /><path
     d="m 2557.5994,4993.615 c 0.01,0.35 0.25,0.68 0.75,0.97 6.94,4 59.7998,20.56 97.9697,21.89 0.61,0.02 1.72,-0.03 3.29,-0.15 0,0 -3.54,172.0799 -6.66,204.6299 -17.7999,0.12 -85.3897,-21.79 -92.9297,-36.09 -7.66,-14.54 -4.27,-178.6799 -2.42,-191.2499 z"
     id="path1504"
     style="stroke:none;stroke-width:0.2" /><path
     d="m 2796.2988,5221.1849 c -1.75,-0.83 -2.49,-2.93 -1.65,-4.67 0.83,-1.75 2.92,-2.49 4.67,-1.66 14.3599,6.29 24.8899,13.96 28.9499,20.41 2.24,3.57 2.68,7.03 1.87,10.06 -1.2,4.48 -6.13,8.88 -16.88,10.82 -2.69,0.47 -26.0299,8.03 -57.2598,18.18 -17.54,5.71 -37.5099,12.29 -57.6999,18.92 -12.9199,4.23 -25.9399,8.47 -38.4499,12.56 -13.6299,4.45 -26.6799,8.69 -38.3099,12.68 -22.3599,7.67 -39.4199,13.99 -44.9699,18.21 -7.17,5.41 -10.9599,13.81 -9.8999,21.99 1,7.66 6.0699,14.97 15.9099,19.54 3.95,1.85 8.55,0.79 12.46,-1.72 4.08,-2.61 7.53,-6.72 9,-11.47 0.52,-1.86 2.45,-2.95 4.3199,-2.44 1.86,0.52 2.96,2.45 2.44,4.31 -1.59,6.54 -5.8799,12.42 -11.1699,16.29 -6.25,4.56 -13.91,6.09 -20.66,3.41 -13.9799,-5.55 -21.1099,-15.69 -23.0699,-26.22 -2.25,-12.06 2.62,-24.91 12.8599,-33.5 5.82,-4.85 23.78,-13.09 47.7499,-22.25 14.29,-5.46 30.73,-11.41 47.9599,-17.12 19.17,-6.35 39.2799,-12.5 58.2499,-18.03 46.0599,-13.44 85.4098,-23.29 88.9697,-23.74 7.4,-0.89 10.68,-2.1 8.65,-5.85 -3.13,-5.76 -12.0699,-12.52 -24.0399,-18.71 z"
     id="path1506"
     style="stroke:none;stroke-width:0.2" /><path
     d="m 2968.9984,5321.8049 c 1.88,-0.46 3.7699,0.69 4.2299,2.57 0.46,1.88 -0.7,3.78 -2.5799,4.24 -10.33,2.83 -61.8299,12.22 -119.4198,21.87 -17.6899,2.96 -35.9499,5.9 -53.7698,8.68 -12.28,1.92 -24.35,3.77 -35.8799,5.42 -20.31,2.92 -38.8999,5.38 -53.8599,7.49 -18.7,2.63 -31.5799,4.43 -34.7299,5.43 -9.06,2.83 -13.92,9.92 -14.78,17.19 -0.96,8.0199 2.56,16.3499 10.76,18.4699 8.67,2.25 14.87,-1.12 18.31,-6.47 4.2199,-6.5999 4.9199,-15.7699 1.05,-20.9699 -1.21,-1.51 -0.95,-3.72 0.57,-4.92 1.5099,-1.2 3.7199,-0.95 4.9199,0.57 5.92,7.03 6.29,20.0699 0.84,29.7499 -4.88,8.68 -14.2199,14.65 -27.9499,11.88 -13.87,-2.8 -21.1499,-15.96 -20.2299,-29.4099 0.8,-11.69 7.9899,-23.44 22.2499,-28.66 3.31,-1.19 16.89,-3.97 36.6999,-7.4 14.93,-2.59 33.4799,-5.69 53.8299,-8.75 10.7699,-1.62 22.0599,-3.19 33.5599,-4.74 16.63,-2.24 33.7099,-4.45 50.4199,-6.49 59.9898,-7.36 114.9797,-13.44 125.7597,-15.75 z"
     id="path1508"
     style="stroke:none;stroke-width:0.2" /><path
     d="m 2567.0494,5339.1349 c -1.79,-0.74 -2.64,-2.79 -1.91,-4.58 0.74,-1.79 2.79,-2.64 4.5799,-1.9 0,0 13.14,3.31 30.01,8.51 3.81,1.17 7.76,2.5 11.7799,3.93 2.58,0.92 5.18,1.85 7.73,2.93 6.48,2.74 12.81,5.84 18.72,8.78 12.5799,6.26 22.8599,12.03 27.5299,14.2 1.83,0.63 2.81,2.62 2.18,4.45 -0.62,1.83 -2.61,2.81 -4.44,2.19 -5.09,-1.15 -16.7199,-3.96 -30.3399,-8.15 -6.33,-1.95 -13.06,-4.11 -19.65,-6.65 -2.59,-1 -5.1099,-2.15 -7.5999,-3.29 -3.89,-1.78 -7.65,-3.59 -11.2,-5.42 -15.71,-8.09 -27.3899,-15 -27.3899,-15 z"
     id="path1510"
     style="stroke:none;stroke-width:0.2" /><path
     d="m 2652.5091,5395.1649 c 1.93,0.11 3.41,1.78 3.29,3.71 -0.12,1.93 -1.78,3.3999 -3.71,3.2899 -5.0099,0.63 -7.8199,3.2 -9.5999,5.82 -0.99,1.45 -0.4,3.05 0.86,4.26 0.97,0.94 2.2,1.92 4.09,2.41 1.4399,0.38 2.9799,0.85 4.8199,1.01 4.05,0.33 8.76,0.39 14.67,-0.76 1.8,-0.71 3.84,0.19 4.54,1.99 0.7,1.81 -0.2,3.84 -2,4.54 -6.01,3.67 -11.2,5.68 -15.87,6.84 -3.05,0.76 -5.7999,0.84 -8.2999,0.75 -5.81,-0.24 -10.17,-2.55 -13.11,-5.33 -2.99,-2.82 -4.66,-6.42 -4.96,-10.06 -0.24,-2.95 -0.01,-5.98 1.38,-8.7 0.97,-1.9 2.02,-3.8499 3.78,-5.3299 4.43,-3.75 11.06,-6.73 20.1199,-4.44 z"
     id="path1512"
     style="stroke:none;stroke-width:0.2" /><path
     d="m 2652.2991,5398.6649 c 0.7,9.0599 6.08,17.2399 15.54,19.4199 0.12,0.03 0.24,0.06 0.36,0.08 -40.6399,15.8 -42.2199,-21.0899 -15.9,-19.4999 z"
     id="path1514"
     style="stroke:none;stroke-width:0.2" /><path
     d="m 2581.8893,5379.6449 c 1.89,-0.42 3.76,0.78 4.18,2.67 0.42,1.88 -0.77,3.76 -2.66,4.18 -9.19,3.54 -17.5999,4.48 -24.9699,3.76 -4.28,-0.42 -8.08,-1.68 -11.37,-3.19 -3.03,-1.39 -5.58,-3.2 -7.59,-5.19 -2.76,-2.73 -4.65,-5.81 -5.52,-8.91 -1.01,-3.62 -1.24,-7.25 0.12,-10.63 1.29,-3.18 3.28,-6.47 7.12,-8.83 4.3,-2.64 10.47,-4.78 19.36,-4.98 1.9,-0.33 3.72,0.95 4.05,2.86 0.32,1.91 -0.96,3.72 -2.86,4.05 -5.54,1.83 -9.26,4.21 -11.94,6.57 -1.48,1.31 -2.02,2.79 -2.26,4.17 -0.1,0.59 0.44,1.05 0.69,1.62 0.59,1.35 1.94,2.38 3.43,3.55 1.65,1.29 3.55,2.59 5.85,3.67 3.91,1.81 8.41,3.49 13.8699,4.13 3.31,0.38 6.72,0.72 10.5,0.5 z"
     id="path1516"
     style="stroke:none;stroke-width:0.2" /><path
     d="m 2582.6493,5383.0749 c -38.9199,8.64 -60.7198,-24.37 -21.4999,-31.1 -1.39,11.63 4.47,23.92 19.6199,30.44 0.62,0.27 1.25,0.49 1.88,0.66 z"
     id="path1518"
     style="stroke:none;stroke-width:0.2" /><path
     d="m 2823.2187,5249.8049 c -1.88,-0.47 -3.02,-2.37 -2.56,-4.24 0.46,-1.88 2.37,-3.03 4.24,-2.57 0,0 20.89,3.17 47.9199,9.5 6.08,1.43 12.43,3.09 18.9099,4.93 4.14,1.17 8.33,2.39 12.48,3.81 10.39,3.55 20.72,7.69 30.4199,12.02 17.81,7.95 33.31,16.69 43.0999,24.67 1.58,1.11 1.95,3.3 0.84,4.88 -1.12,1.58 -3.31,1.96 -4.89,0.84 -7.2599,-4.37 -17.3399,-8.43 -28.8499,-12.54 -7.61,-2.72 -15.8199,-5.3 -24.2499,-7.99 -8.06,-2.57 -16.34,-5.03 -24.42,-7.7 -10.1699,-3.37 -20.0399,-6.92 -29.1299,-10.12 -25.0399,-8.84 -43.8099,-15.49 -43.8099,-15.49 z"
     id="path1520"
     style="stroke:none;stroke-width:0.2" /><path
     d="m 2824.0587,5246.4049 c 0,0 114.7997,28.34 151.6396,54.38 1.12,3.71 2.2,7.57 3.22,11.58 0.83,3.24 -4.71,6.55 -9.0999,12.84 -24.68,6.01 -283.0393,40.62 -298.9593,46.02 -2.41,0.81 -4.58,1.86 -6.5,3.1 -15.61,-5.32 -95.9798,-38.43 -95.9798,-38.43 1.28,-1.48 2.71,-2.85 4.29,-4.11 22.57,-17.96 231.4195,-79.58 239.8094,-80.84 5.84,-0.88 9.6,-2.47 11.58,-4.54 z"
     id="path1522"
     style="stroke:none;stroke-width:0.2" /><path
     d="m 2596.2893,4845.9351 c -1.56,-1.15 -1.89,-3.34 -0.74,-4.9 1.15,-1.56 3.35,-1.89 4.9,-0.74 0,0 7.64,3.3 17.1599,9.6 2.1,1.39 4.17,2.98 6.28,4.72 1.33,1.11 2.66,2.25 3.87,3.55 3.03,3.23 5.73,6.84 8.05,10.59 3.99,6.43 6.77,12.86 8.05,18.94 0.71,1.8 -0.16,3.84 -1.96,4.56 -1.79,0.72 -3.83,-0.16 -4.55,-1.96 -1.78,-2.78 -4.22,-5.22 -6.89,-7.97 -2.43,-2.5 -5.14,-4.79 -7.88,-7.26 -1.78,-1.61 -3.62,-3.15 -5.33,-4.83 -1.75,-1.72 -3.39,-3.51 -4.97,-5.26 -2.34,-2.61 -4.4299,-5.15 -6.3899,-7.48 -5.76,-6.85 -9.6,-11.56 -9.6,-11.56 z"
     id="path1524"
     style="stroke:none;stroke-width:0.2" /><path
     d="m 2559.9994,4902.3951 c -1.93,-0.17 -3.35,-1.87 -3.18,-3.8 0.17,-1.93 1.87,-3.35 3.8,-3.18 0,0 6.01,-1.36 14.4599,-1.73 1.87,-0.09 3.77,-0.02 5.77,0.14 1.27,0.1 2.56,0.22 3.82,0.52 3.26,0.78 6.37,1.97 9.24,3.37 6.07,2.95 10.71,6.19 13.03,9.51 1.4599,1.28 1.5899,3.5 0.31,4.95 -1.28,1.4499 -3.49,1.5899 -4.94,0.31 -2.31,-1.2 -5.74,-1.09 -9.91,-1.46 -1.76,-0.15 -3.53,-0.19 -5.42,-0.38 -1.8,-0.18 -3.64,-0.25 -5.44,-0.62 -3.02,-0.61 -5.89,-1.58 -8.57,-2.49 -7.6699,-2.62 -12.9699,-5.14 -12.9699,-5.14 z"
     id="path1526"
     style="stroke:none;stroke-width:0.2" /><path
     d="m 2856.2486,4853.2851 c -1.48,1.25 -3.7,1.06 -4.94,-0.42 -1.2499,-1.48 -1.0599,-3.69 0.42,-4.94 0,0 3.2,-5.1 9.47,-11.07 1.35,-1.29 2.87,-2.46 4.54,-3.63 1.05,-0.73 2.15,-1.44 3.35,-2.01 2.21,-1.05 4.57,-1.84 7.02,-2.41 2.35,-0.55 4.62,-0.94 7.02,-1.06 3.81,-0.18 7.23,-0.12 10.7699,0.67 1.94,-0.07 3.56,1.45 3.63,3.38 0.07,1.93 -1.44,3.56 -3.38,3.63 -3.29,0.96 -6.0299,2.79 -9.1499,4.64 -1.19,0.71 -2.25,1.49 -3.44,2.2 -1.78,1.06 -3.41,2.28 -5.21,3.2 -2.63,1.34 -5.28,2.29 -7.7,3.25 -7.29,2.91 -12.4,4.57 -12.4,4.57 z"
     id="path1528"
     style="stroke:none;stroke-width:0.2" /><path
     d="m 2876.9086,4869.5351 c -1.92,-0.24 -3.28,-1.99 -3.05,-3.91 0.24,-1.92 1.99,-3.28 3.91,-3.05 0,0 3.41,-1.46 10.26,-3.63 2,-0.63 4.1699,-1.48 6.7499,-1.9 2.19,-0.36 4.52,-0.26 7.09,-0.34 3.62,-0.11 7.08,0.24 11.3,-0.05 1.81,-0.67 3.83,0.26 4.5,2.08 0.67,1.81 -0.26,3.83 -2.07,4.5 -3.71,2.75 -6.83,4.92 -10.36,6.71 -2.64,1.34 -5.19,2.29 -7.69,2.84 -1.11,0.25 -2.21,0.31 -3.26,0.33 -1.81,0.05 -3.43,-0.01 -4.9799,-0.21 -1.93,-0.25 -3.47,-0.54 -4.97,-0.93 -5.08,-1.35 -7.43,-2.44 -7.43,-2.44 z"
     id="path1530"
     style="stroke:none;stroke-width:0.2" /></g>&#10;</svg>
