<?xml version="1.0" encoding="UTF-8" standalone="no"?>
<svg
   width="3032.3777"
   height="2816.4321"
   viewBox="0 0 3032.3777 2816.4321"
   version="1.1"
   xml:space="preserve"
   style="clip-rule:evenodd;fill-rule:evenodd;stroke-linejoin:round;stroke-miterlimit:2"
   id="svg5353"
   xmlns="http://www.w3.org/2000/svg"
   xmlns:svg="http://www.w3.org/2000/svg"><defs
   id="defs5353" />&#10;    <g
   id="vectorly-UNI-noodle"
   style="stroke:none;stroke-width:0.2"
   transform="matrix(4.9999999,0,0,4.9999999,-8377.7218,-347.52826)"><path
     d="m 2152.8055,221.8399 c -0.05,-1.9281 1.478,-3.54102 3.4118,-3.5915 1.9338,-0.0505 3.5461,1.48045 3.5964,3.40854 1.0784,26.93437 -23.8534,52.77812 -65.4992,71.58636 -37.476,16.92974 -88.4861,28.31398 -144.9645,30.4643 -56.7192,1.92311 -108.635,-5.85247 -147.3724,-20.14126 -22.6193,-8.34376 -40.8234,-18.97797 -53.1924,-30.99344 -12.3418,-11.99159 -19.0314,-25.49485 -19.3999,-39.67926 -0.3253,-14.16097 5.6745,-27.97091 17.4002,-40.52937 11.7497,-12.59594 29.3796,-24.0919 51.5216,-33.55503 37.936,-16.2044 89.3269,-26.62773 146.0178,-27.59154 48.4432,-0.69935 93.2168,5.60364 129.12,16.85725 34.7443,10.87832 61.2219,26.39657 75.0124,44.42122 1.1957,1.51723 0.9314,3.72389 -0.5883,4.91875 -1.5216,1.19491 -3.7268,0.93296 -4.9225,-0.58427 -13.4803,-16.7055 -39.047,-30.44102 -72.1521,-39.91201 -35.2396,-10.09117 -78.9832,-15.22899 -126.1496,-13.44466 -54.654,1.93064 -104.017,12.84176 -140.3616,29.02919 -19.7369,8.79817 -35.5411,19.10357 -45.9754,30.50999 -8.4718,9.25373 -13.2902,19.12487 -12.9865,29.46445 0.2714,10.32814 5.6404,19.90875 14.5985,28.67059 11.0314,10.7846 27.3604,20.17739 47.5137,27.87276 37.1307,14.19555 86.9482,22.46832 141.5715,21.47246 54.869,-0.78108 104.6212,-10.68235 141.4163,-26.16876 38.3254,-16.14083 62.6828,-37.9633 62.3842,-62.48476 z"
     id="path88"
     style="stroke:none;stroke-width:0.295586" /><path
     d="m 1797.0167,291.01096 c 0.43,1.886 -0.75,3.766 -2.64,4.197 -1.88,0.43 -3.76,-0.752 -4.19,-2.638 -2.46,-9.002 -3.84,-26.51199 3.35,-36.43899 4.65,-6.43099 12.62,-10.24199 25.82,-7.59599 4.1599,0.835 9.4599,3.706 15.3399,6.952 5.74,3.17599 12.17,6.74299 18.65,7.89099 5.3,0.938 10.5399,-0.386 15.2799,-6.111 4.58,-5.43299 8.78,-13.05199 14.01,-20.19399 5.62,-7.66699 12.28,-14.83599 20.7599,-19.33799 9.88,-5.252 22.24,-7.206 38.44,-1.903 21.0999,7.185 42.5698,27.74099 48.8898,46.57398 3.06,9.127 2.85,17.82799 -1.86,24.65999 -3.69,5.368 -10.1699,9.821 -20.5499,11.955 -1.88,0.465 -3.78,-0.681 -4.25,-2.559 -0.46,-1.878 0.68,-3.78 2.56,-4.246 9.37,-2.721 14.45,-7.149 16.08,-12.75399 1.1999,-4.119 0.32,-8.714 -1.64,-13.437 -6.39,-15.40099 -25.38,-31.51799 -43.4299,-36.39998 -11.41,-3.232 -19.91,-1.869 -26.69,1.94099 -6.35,3.573 -11.1699,9.207 -15.4999,14.992 -5.56,7.42 -10.36,15.13499 -15.31,20.68899 -9.48,10.436 -19.6599,12.232 -29.6099,9.915 -7.86,-1.83 -15.59,-6.426 -22.34,-10.783 -4.45,-2.867 -8.2999,-5.695 -11.5199,-6.595 -9.73,-2.728 -15.09,0.396 -17.67,6.054 -3.62,7.914 -3.12,18.93599 -1.98,25.17299 z"
     id="path90"
     style="stroke:none;stroke-width:0.2" /><path
     d="m 1809.1767,283.36996 c -0.99,1.659 -3.14,2.197 -4.8,1.202 -1.66,-0.995 -2.2,-3.15 -1.21,-4.80899 1.47,-2.764 3.07,-5.283 6.41,-6.866 2.62,-1.242 6.55,-1.787 13.0299,-0.743 7.98,1.285 20.48,5.301 40.7799,13.81599 5.59,2.421 11.17,0.792 16.42,-2.073 9.16,-5.00299 17.22,-14.41899 22.39,-21.85799 11.5199,-15.43699 23.1599,-21.73099 33.9799,-22.29499 12.9499,-0.676 25.3099,6.726 35.7099,18.24999 6.77,7.612 8.8,14.187 8.34,20.199 -0.48,6.24099 -3.63,11.95299 -7.34,17.56799 -4.06,6.147 -8.94,12.13999 -7.32,19.95799 0.48,1.873 -0.65,3.786 -2.52,4.269 -1.88,0.483 -3.79,-0.645 -4.27,-2.519 -2.59,-8.304 0.32,-15.66599 4,-22.81499 2.9,-5.613 6.53,-10.948 6.45,-16.81099 -0.04,-3.538 -2,-7.034 -6.33,-11.149 -7.88,-7.601 -16.49,-13.01399 -25.5799,-12.05399 -3.92,0.415 -7.8,2.25699 -11.82,5.46299 -3.44,2.733 -6.9,6.438 -10.38,11.296 -6.69,8.86299 -17.1299,19.96599 -28.6899,25.46699 -9.32,4.439 -19.25,5.605 -28.5799,0.745 -18.35,-9.823 -29.72,-14.759 -37.0999,-16.725 -4.85,-1.29299 -7.38,-1.53199 -9.02,-0.459 -1.14,0.749 -1.81,1.856 -2.55,2.943 z"
     id="path92"
     style="stroke:none;stroke-width:0.2" /><path
     d="m 1877.2765,316.97695 c -1.92,0.24 -3.68,-1.124 -3.92,-3.043 -0.24,-1.92 1.12,-3.673 3.05,-3.913 10.14,-2.281 17.4,-6.92199 23.48,-11.99299 4.9399,-4.121 8.8599,-8.695 12.5299,-12.901 3.05,-3.49 5.9,-6.74999 8.75,-9.43899 2.7,-2.534 5.44,-4.591 8.27,-6.016 3.51,-1.774 7.15,-2.742 11.05,-2.577 7.0699,0.434 15.5999,5.33 15.6699,17.44699 0.02,3.532 -0.54,7.792 -2.56,12.721 -2.52,6.125 -6.95,13.46799 -14.4799,22.06399 -1.13,1.567 -3.32,1.919 -4.89,0.785 -1.57,-1.134 -1.92,-3.327 -0.79,-4.894 5.26,-8.9 7.93,-16.09999 9.15,-21.86799 0.8299,-3.929 0.6299,-6.953 -0.08,-9.246 -0.38,-1.232 -1.17,-1.896 -2.02,-1.845 -1.64,0.066 -2.98,0.946 -4.4,1.879 -1.91,1.253 -3.74,2.938 -5.73,4.779 -6.02,5.587 -12.67,12.797 -21.63,18.46099 -8.3299,5.259 -18.3899,9.224 -31.4499,9.599 z"
     id="path94"
     style="stroke:none;stroke-width:0.2" /><path
     d="m 1780.5568,283.45396 c 0.03,1.934 -1.52,3.529 -3.45,3.56 -1.94,0.031 -3.53,-1.514 -3.56,-3.449 -1.73,-17.88899 3.51,-33.38798 12.9799,-44.81798 4.29,-5.174 9.59,-9.35099 15.45,-12.57399 3.88,-2.134 8.07,-3.806 12.47,-4.872 7.74,-1.876 16.1299,-2.104 24.6499,-0.434 6.95,1.363 14,3.9 20.91,7.901 8.4499,4.90199 16.6799,11.76599 24.3199,21.00199 1.35,1.387 1.32,3.608 -0.07,4.956 -1.39,1.34899 -3.61,1.31699 -4.96,-0.07 -9.75,-8.572 -19.7899,-13.891 -29.5399,-16.926 -4.34,-1.349 -8.6,-2.085 -12.76,-2.492 -6.56,-0.642 -12.79,0.098 -18.6499,1.571 -8.19,2.055 -15.6,5.829 -21.61,11.537 -8.92,8.46399 -15.2299,20.24799 -16.1799,35.10798 z"
     id="path96"
     style="stroke:none;stroke-width:0.2" /><path
     d="m 1769.3768,275.90597 c 0.28,1.914 -1.04,3.698 -2.95,3.982 -1.92,0.28399 -3.7,-1.039 -3.99,-2.952 -4.48,-20.925 3.07,-40.20499 16.79,-54.84398 5.3899,-5.74 11.8299,-10.627 18.8399,-14.609 4.6,-2.61799 9.48,-4.82399 14.53,-6.46699 9.6,-3.123 19.7399,-4.501 29.5699,-3.839 22.6299,1.526 43.7599,13.01899 54.2799,37.67898 0.87,1.732 0.16,3.838 -1.57,4.701 -1.73,0.863 -3.84,0.157 -4.7,-1.574 -9.53,-16.52599 -24.34,-24.18399 -40.1999,-25.97799 -10.69,-1.208 -21.79,0.565 -32.3299,4.183 -4.17,1.432 -8.28,3.067 -12.21,5.049 -5.97,3.012 -11.55,6.648 -16.48,10.93999 -12.6299,11.018 -21.0699,25.91399 -19.5799,43.72899 z"
     id="path98"
     style="stroke:none;stroke-width:0.2" /><path
     d="m 1987.4762,264.50397 c -1.37,1.364 -3.6,1.359 -4.9599,-0.012 -1.36,-1.372 -1.36,-3.593 0.01,-4.957 4.3299,-5.06899 9.2299,-6.08399 14.4199,-5.35699 6.92,0.969 14.72,6.54399 23.14,11.83899 5.8299,3.666 11.9499,7.216 18.6099,7.355 5.11,0.244 10.05,-0.172 14.88,-0.739 5.13,-0.604 10.12,-1.509 14.9599,-2.617 8.03,-1.837 15.66,-4.131 22.8,-6.436 8.81,-2.842 16.8599,-5.532 24.0499,-7.028 9.02,-1.87699 16.69,-1.99299 22.83,1.443 1.76,0.818 2.52,2.905 1.7,4.658 -0.82,1.753 -2.91,2.513 -4.66,1.696 -6.77,-2.57 -14.75,0.637 -24.38,4.839 -7.1499,3.123 -14.9799,7.03 -23.5699,10.572 -5.38,2.21599 -11.02,4.28099 -16.94,5.88099 -5.19,1.402 -10.5799,2.447 -16.1399,2.951 -5.41,0.49 -10.97,0.405 -16.65,-0.173 -9.13,-1.166 -17.4599,-6.197 -24.8199,-12.24199 -6.54,-5.377 -12.05,-11.505 -17.74,-13.229 -2.51,-0.759 -4.99,-0.597 -7.54,1.556 z"
     id="path100"
     style="stroke:none;stroke-width:0.2" /><path
     d="m 1975.4963,247.59898 c -1.53,1.186 -3.73,0.909 -4.92,-0.619 -1.19,-1.528 -0.91,-3.732 0.62,-4.918 5.77,-5.194 11.73,-6.865 17.7599,-6.798 10.4,0.115 21.25,6.643 32.56,12.245 8.2499,4.081 16.7499,7.79 26.0799,5.142 4.53,-1.12 8.83,-2.796 13.03,-4.535 4.6199,-1.91 9.1099,-3.945 13.4999,-5.902 10.87,-4.846 21.19,-9.086 31.4599,-9.023 12.02,0.075 24.3,5.297 36.84,22.84999 1.22,1.5 0.99,3.709 -0.51,4.931 -1.5,1.222 -3.71,0.997 -4.93,-0.503 -11.61,-12.53099 -21.33,-16.14299 -30.8,-15.14999 -8.5699,0.899 -16.6499,5.605 -25.4299,10.355 -4.46,2.41199 -9.04,4.89199 -13.85,7.03999 -4.9499,2.206 -10.1499,4.003 -15.5499,5.315 -7.05,1.523 -13.72,1.076 -20.07,-0.904 -5.68,-1.775 -11.1099,-4.619 -16.3099,-7.882 -4.7,-2.952 -9.19,-6.19799 -13.66,-8.93699 -4.41,-2.695 -8.64,-5.025 -13.09,-5.682 -4.1,-0.605 -8.2899,0.014 -12.7299,2.975 z"
     id="path102"
     style="stroke:none;stroke-width:0.2" /><path
     d="m 2107.9959,127.78803 c -8.3499,10.15799 -17.5799,21.40799 -26.9999,32.84998 -30.2299,36.70199 -62.3798,75.36097 -72.4998,87.66497 -1.19,1.527 -3.39,1.802 -4.92,0.614 -1.53,-1.188 -1.8,-3.392 -0.62,-4.919 10.3,-13.98099 44.5499,-60.98498 75.3198,-101.59996 25.69,-33.90298 49.0799,-63.294973 53.0799,-67.052971 7.98,-7.334997 15.8899,-6.712997 20.8499,-3.805998 6.77,3.962998 10.26,13.498994 3.81,22.56499 -0.93,1.279 -26.2299,30.803989 -55.6698,64.275969 -33.2,37.73999 -71.6299,80.52397 -84.1198,94.55897 -1.25,1.477 -3.46,1.661 -4.94,0.412 -1.48,-1.25 -1.66,-3.463 -0.41,-4.94 11.77,-14.644 47.5999,-59.61998 79.2498,-98.65896 6.2,-7.641 12.23,-15.051 17.8699,-21.96399 z m 36.19,-42.405985 c 0.2,0.141 0.52,0.357 0.48,0.156 -0.04,-0.257 -0.22,-0.276 -0.48,-0.156 z"
     id="path104"
     style="stroke:none;stroke-width:0.2" /><path
     d="m 2027.1161,245.49998 c -4.5999,3.217 -8.4699,5.931 -11.4299,8.013 -1.55,1.155 -3.75,0.833 -4.9,-0.719 -1.16,-1.552 -0.84,-3.749 0.72,-4.904 16.2899,-12.796 61.1298,-48.38798 100.9097,-78.87997 34.2099,-26.22599 64.7299,-48.62398 69.4599,-51.31298 15.0199,-8.29 23.2899,-2.581 26.1599,2.887 2.86,5.45 1.69,14.07799 -4.44,19.70599 -1.15,1.034 -34.2799,23.13899 -72.6498,47.92798 -42.8499,27.68399 -92.2198,58.83698 -108.5797,69.24997 -1.6,1.079 -3.78,0.651 -4.86,-0.954 -1.08,-1.60599 -0.65,-3.78599 0.95,-4.86499 2.27,-1.609 5.19,-3.686 8.6599,-6.149 z m 167.6096,-116.42795 c 0.39,0.4 0.91,0.871 0.95,0.423 0.04,-0.498 -0.33,-0.584 -0.95,-0.423 z"
     id="path106"
     style="stroke:none;stroke-width:0.2" /><path
     d="m 2005.7262,246.15098 c 19.4199,-24.95799 122.1797,-156.842937 131.0097,-164.924933 9.7599,-8.929997 18.5299,0.158999 12.7899,8.291996 -1.94,2.738999 -113.1697,134.204947 -135.9796,161.156937 -2.64,-1.548 -5.24,-3.099 -7.82,-4.524 z m 7.87,4.55 c 30.7199,-22.86699 161.8696,-120.37895 172.1295,-126.02295 16.5,-9.086 19.21,3.548 12.47,9.77299 -2.39,2.209 -147.4996,99.75696 -177.7795,120.10796 -2.31,-1.229 -4.58,-2.542 -6.82,-3.858 z"
     id="path108"
     style="stroke:none;stroke-width:0.2" /><path
     d="m 2030.3861,234.98198 c 17.06,-13.14799 40.9599,-31.53798 64.8499,-49.71098 12.2299,-9.30899 24.4599,-18.55099 35.7699,-27.00699 26.7999,-20.05399 48.3899,-35.73898 52.3199,-37.93898 8.7699,-4.847 14.7999,-4.275 18.1799,-2.353 2.56,1.452 4.16,3.758 4.81,6.495 0.99,4.224 -0.55,9.78799 -4.74,13.63899 -0.95,0.87 -24.1599,16.581 -54.0599,36.29499 -45.7598,30.16699 -107.2297,69.98797 -125.7996,82.08796 -0.72,0.479 -1.64,0.526 -2.4,0.122 l -6.15,-3.61699 c -0.27,-0.046 -0.55,-0.142 -0.8,-0.292 l -7.7,-4.634 c -0.56,-0.31 -0.96,-0.85 -1.08,-1.477 -0.13,-0.628 0.02,-1.28 0.41,-1.786 8.87,-11.799 35.3899,-47.22698 62.2198,-82.39697 9.19,-12.04799 18.43,-24.05499 26.99,-35.07598 20.2799,-26.08499 36.8599,-46.690983 40.1699,-49.774982 6.65,-6.105997 13.1799,-5.843998 17.3099,-3.427999 5.48,3.195999 8.1,10.924996 2.91,18.260993 -0.93,1.280999 -26.0399,30.814988 -55.1098,64.421978 -23.97,27.70898 -50.6299,58.20097 -68.0999,78.16996 z m -21.3199,10.517 c 0,0 3.91,2.171 3.91,2.171 11.1599,-13.622 38.5399,-47.12898 65.6098,-80.07097 11.68,-14.21299 23.3,-28.31499 33.5299,-40.67498 18.69,-22.59099 32.67,-39.319986 33.3399,-40.277986 1.25,-1.770999 1.25,-3.844998 -0.38,-4.088998 -1.4399,-0.215 -3.1099,0.633 -4.9799,2.337999 -2.52,2.275999 -12.71,14.708994 -26.56,31.697985 -12.3099,15.097 -27.4199,33.75899 -42.4499,52.32198 -25.9299,32.00999 -51.6198,63.70197 -62.0198,76.58397 z m 8.64,4.944 c 0,0 2.56,1.388 2.56,1.388 14.5599,-10.119 50.9998,-35.51999 86.9397,-60.44898 15.38,-10.67099 30.67,-21.25099 44.1099,-30.51699 24.45,-16.86299 42.6799,-29.29698 43.5099,-30.06898 0.78,-0.732 1.34,-1.622 1.63,-2.524 0.18,-0.588 0.33,-1.181 0.08,-1.641 -0.16,-0.314 -0.61,-0.158 -1.14,-0.142 -1.86,0.057 -4.25,0.883 -7.28,2.542 -2.98,1.619 -16.2899,11.09099 -34.4699,24.07099 -16.0299,11.44499 -35.7599,25.60699 -55.4798,39.73698 -32.54,23.31999 -65.0199,46.52898 -80.4598,57.60398 z"
     id="path109"
     style="stroke:none;stroke-width:0.2" /><path
     d="m 1963.9363,237.11898 c -1.52,1.194 -3.73,0.928 -4.92,-0.595 -1.19,-1.522 -0.93,-3.727 0.59,-4.921 6.76,-6.57499 19.22,-10.40299 33.7699,-11.10699 4.51,-0.219 9.19,0.004 13.93,0.521 3.05,0.333 6.12,0.792 9.14,1.514 7.6499,1.833 15.0599,4.669 21.6899,8.169 12.19,6.43699 21.68,14.87999 25.8,24.16499 0.9699,1.67899 0.3799,3.82199 -1.3,4.78299 -1.68,0.96 -3.82,0.377 -4.78,-1.302 -4.18,-5.80099 -11.63,-9.92399 -20.37,-13.38599 -3.82,-1.512 -7.89,-2.737 -12.1,-3.91 -4.0499,-1.13 -8.2399,-2 -12.4199,-2.912 -4.2,-0.915 -8.38,-1.843 -12.52,-2.523 -4.34,-0.716 -8.55,-1.336 -12.62,-1.627 -9.7599,-0.698 -18.2999,-0.328 -23.8899,3.131 z"
     id="path110"
     style="stroke:none;stroke-width:0.2" /><path
     d="m 1948.2563,227.63799 c -1.45,1.284 -3.66,1.152 -4.95,-0.295 -1.2799,-1.447 -1.1499,-3.664 0.3,-4.948 9.78,-10.085 26.15,-16.93199 44.8899,-19.85799 6.33,-0.989 12.92,-1.408 19.57,-1.376 4.35,0.021 8.73,0.233 13.06,0.782 11.1299,1.411 21.9799,4.332 31.6499,8.42799 17.7199,7.508 31.4799,18.835 36.7699,32.86899 0.81,1.757 0.04,3.841 -1.72,4.65 -1.75,0.809 -3.84,0.04 -4.65,-1.717 -5.22,-9.446 -15.58,-15.97199 -28.1199,-20.65999 -5.49,-2.056 -11.42,-3.623 -17.59,-4.929 -5.89,-1.249 -12.01,-2.085 -18.1799,-2.756 -3.91,-0.426 -7.83,-0.823 -11.74,-1.07 -5.99,-0.377 -11.93,-0.489 -17.71,-0.273 -16.6199,0.621 -31.7799,3.688 -41.5799,11.153 z"
     id="path112"
     style="stroke:none;stroke-width:0.2" /><path
     d="m 1932.9364,222.46499 c -1.02,1.64 -3.19,2.14 -4.83,1.115 -1.64,-1.026 -2.14,-3.19 -1.11,-4.83 8.07,-14.81299 27.8799,-26.06199 52.2399,-31.08599 7.7499,-1.599 15.9599,-2.45 24.3499,-2.607 5.4,-0.101 10.87,0.082 16.33,0.713 13.5899,1.574 27.1099,5.265 39.3499,10.991 19.0599,8.912 35.0299,22.68499 44.1499,41.49298 0.94,1.69 0.33,3.826 -1.36,4.767 -1.69,0.941 -3.83,0.333 -4.77,-1.357 -9.97,-15.72699 -25.66,-25.85199 -43.2599,-32.28799 -11.38,-4.16099 -23.6,-6.47699 -35.8099,-7.70599 -7.75,-0.78 -15.47,-1.221 -23,-1.044 -7.97,0.186 -15.6799,0.865 -22.9099,2.188 -17.46,3.191 -32.0899,9.47599 -39.3699,19.65099 z"
     id="path114"
     style="stroke:none;stroke-width:0.2" /><path
     d="m 2160.1058,258.15597 c -0.12,-1.932 1.35,-3.59299 3.29,-3.70899 1.93,-0.116 3.59,1.35799 3.7,3.28899 2.9,37.86399 5.23,110.35396 -30.4199,168.63494 -25.59,41.83398 -70.5399,76.34396 -147.7797,86.14396 -27.7699,3.215 -56.4698,0.251 -84.1198,-8.976 -37.8399,-12.62499 -73.7898,-36.73298 -102.8197,-71.36997 -38.6799,-46.16198 -65.0998,-111.19095 -67.3898,-192.80292 -0.08,-1.932 1.42,-3.569 3.35,-3.653 1.94,-0.083 3.57,1.418 3.66,3.351 4.5899,78.80797 31.8699,140.82694 70.3798,184.50993 28.0299,31.79398 62.0598,53.67497 97.6797,65.10997 25.54,8.196 51.8699,11.09999 77.4098,8.067 71.9099,-7.743 114.1698,-38.87799 138.9397,-77.11097 35.7799,-55.22598 35.6999,-124.94295 34.1199,-161.48394 z"
     id="path116"
     style="stroke:none;stroke-width:0.2" /><path
     d="m 2075.726,473.90089 c 0.61,-1.838 2.59,-2.839 4.43,-2.234 1.84,0.605 2.84,2.587 2.23,4.42499 -2.82,10.351 -6.34,23.483 -12.19,34.23099 -4.66,8.555 -10.9399,15.40199 -18.9199,19.08299 -5.29,2.344 -24.11,7.081 -46.0599,10.85 -9.87,1.695 -20.39,3.174 -30.5199,4.235 -11.3,1.185 -22.11,1.786 -31.01,1.897 -10.8799,0.135 -19.1699,-0.734 -22.8799,-2.369 -10.72,-4.821 -18.9399,-13.479 -24.5299,-23.21199 -6.32,-10.983 -9.45,-22.98899 -9.92,-30.88099 -0.21,-1.924 1.18,-3.654 3.11,-3.863 1.92,-0.209 3.65,1.183 3.86,3.106 1.09,6.891 4.94,17.12199 11.3799,26.25499 5.12,7.26 12.01,13.73399 20.8,16.79099 1.76,0.627 4.92,0.563 9.05,0.472 6.84,-0.15 15.8599,-1.099 25.8499,-2.254 11.03,-1.273 23.2099,-2.98 34.9299,-4.616 9.29,-1.298 18.3,-2.47699 26.2,-3.67399 12.0899,-1.835 21.4799,-3.365 24.9099,-4.62 5.98,-2.117 10.7,-6.919 14.65,-12.743 6.4599,-9.52199 10.9899,-21.47099 14.6299,-30.87898 z"
     id="path118"
     style="stroke:none;stroke-width:0.2" /><path
     d="m 1921.6364,534.39286 c 1.88,-0.428 3.76,0.756 4.19,2.643 0.43,1.886 -0.75,3.765 -2.64,4.193 -37.1199,9.34699 -81.9298,5.973 -122.6697,-4.248 -25.8899,-6.496 -50.1099,-15.78099 -69.6798,-26.09699 -18.57,-9.786 -32.9399,-20.71499 -41.1299,-30.96699 -15.89,-20.37599 -16.98,-41.26598 -10.28,-58.11197 6.87,-17.267 22.0999,-30.21999 38.1099,-34.40899 -5.2,-16.88699 -15.75,-57.14198 -11.87,-95.11896 2.48,-24.12099 10.69,-47.28798 29.33,-63.21897 1.45,-1.29 3.66,-1.168 4.95,0.273 1.29,1.441 1.17,3.65899 -0.27,4.94899 -16.29,15.28 -22.56,36.77099 -23.87,58.81798 -2.83,47.32198 17.61,97.41296 17.61,97.41296 0.81,2.098 0.57,4.456 -0.64,6.35 -1.21,1.895 -3.25,3.1 -5.49,3.246 -13.84,1.085 -27.6499,12.31499 -33.3399,27.33298 -4.73,12.48 -3.5,27.71799 8.2899,42.63599 7.04,9.11499 19.74,18.54599 35.81,27.53199 18.4599,10.32599 41.3099,19.88399 65.8198,27.07798 38.7999,11.393 81.6498,17.011 117.7697,9.707 z"
     id="path120"
     style="stroke:none;stroke-width:0.2" /><path
     d="m 1922.4064,537.81086 c -80.9298,18.36399 -197.2795,-25.69599 -226.4294,-62.81497 -30.6,-38.95999 0.87,-79.99397 30.8499,-81.93997 0,0 -43.5999,-112.93696 10.51,-161.38694 0,0.342 0.01,0.684 0.02,1.026 0.05,2.197 0.3,4.371 0.71,6.52 5.6199,130.07195 72.6898,216.33991 151.7696,250.3319 1.46,13.44999 11.73,39.46098 32.5699,48.26398 z"
     id="path122"
     style="stroke:none;stroke-width:0.2" /><path
     d="m 1922.8964,539.94786 c -36.9299,8.72599 -81.2998,4.648 -121.5697,-5.953 -49.2199,-12.95599 -92.2198,-35.78398 -108.6597,-56.39998 -15.14,-19.04199 -16.29,-38.66798 -10.2,-54.61097 6.61,-17.29 21.9599,-30.19999 37.8999,-33.78699 -5.08,-14.85899 -17.85,-56.98698 -14.61,-96.91296 1.98,-24.33599 9.93,-47.78398 28.37,-64.20897 1.41,-1.269 3.44,-1.586 5.18,-0.81 1.74,0.777 2.8599,2.501 2.8599,4.40399 v 0.9 l 0.61,5.73 c 0.04,0.234 0.07,0.471 0.08,0.71 2.15,57.48898 16.53,106.35996 38.69,145.89894 27.3099,48.73098 66.4398,83.29597 109.3697,102.14196 0.9,0.387 1.52,1.229 1.63,2.204 0.7,7.02 3.88,17.60699 9.81,27.20999 4.9599,8.03499 11.8399,15.40799 20.9099,19.32899 0.87,0.37 1.41,1.264 1.33,2.211 -0.09,0.948 -0.77,1.733 -1.7,1.944 z M 1733.4569,242.75398 c -11.33,14.04499 -16.26,31.96999 -17.74,50.33698 -3.84,47.47098 15.57,98.24396 15.57,98.24396 0.54,1.418 0.38,3.013 -0.43,4.294 -0.82,1.281 -2.2,2.096 -3.72,2.195 -14.8,0.891 -29.9399,12.47799 -36.2299,28.43699 -5.28,13.40099 -4.21,29.91298 8.38,46.13698 15.4799,20.03699 56.7098,42.04898 103.7597,55.27397 37.0499,10.411 77.7298,15.332 112.6997,9.212 -7.26,-4.412 -13.0899,-10.843 -17.5499,-17.79799 -6.14,-9.566 -9.67,-20.11799 -10.84,-27.63999 -43.8699,-18.82799 -84.1798,-53.47798 -112.6097,-102.66596 -22.86,-39.53398 -37.9999,-88.46596 -41.2899,-146.02594 z"
     id="path123"
     style="stroke:none;stroke-width:0.2" /><path
     d="m 2069.996,619.03783 c 0.68,-0.005 1.71,-0.053 2.56,-0.262 3.33,-0.814 7.51,-2.705 12.65,-5.838 4.62,-2.8 21.2799,-16.05399 41.5299,-32.39099 41.1299,-33.19698 96.6698,-79.06197 96.6698,-79.06197 1.47,-1.26 3.6799,-1.092 4.9399,0.376 1.26,1.468 1.09,3.683 -0.37,4.943 0,0 -53.8198,47.98898 -93.8697,82.57297 -20.34,17.56299 -37.2299,31.65299 -41.9099,34.69098 -10.73,6.928 -18.72,9.041 -23.79,8.687 -4.4199,-0.309 -7.4999,-2.239 -9.5899,-4.911 -1.84,-2.355 -2.89,-5.553 -2.82,-9.46299 0.06,-4.098 1.53,-9.311 4.53,-14.982 2.16,-4.067 18.9399,-23.18599 38.3499,-44.01098 25.4599,-27.33099 55.2898,-57.90698 58.9998,-61.49497 4.5,-4.276 6.63,-11.423 8.13,-19.185 2.54,-13.10299 2.79,-27.99898 4.13,-38.29198 2.57,-19.15399 16.9299,-42.90098 35.8599,-56.03898 13.77,-9.56299 29.7499,-13.63899 45.1299,-7.48199 24.7999,9.97499 33.1499,33.97498 30.3899,58.24097 -2.73,24.01599 -16.2899,47.87098 -33.2899,56.46998 -1.71,0.908 -3.83,0.258 -4.74,-1.45 -0.91,-1.709 -0.26,-3.833 1.45,-4.74 14.7,-8.19 25.4399,-29.89699 27.0499,-51.18198 1.47,-19.51299 -4.94,-38.99498 -25.0799,-46.27898 -14.47,-5.261 -28.9899,2.067 -40.3899,13.309 -11.72,11.54999 -20.24,27.57998 -21.6899,40.93498 -1.4,12.44399 -1.22,31.31999 -5.08,46.27198 -2.19,8.504 -5.74,15.81199 -10.88,20.82899 -2.52,2.43 -17.07,17.50799 -34.2499,35.30099 -11.19,11.59299 -23.52,24.30899 -34.2399,35.59298 -14.14,14.883 -25.57,26.97899 -27.3,30.05399 -1.57,2.792 -2.65,5.359 -3,7.577 -0.06,0.36 -0.08,0.834 -0.08,1.213 z"
     id="path124"
     style="stroke:none;stroke-width:0.2" /><path
     d="m 2209.1457,464.23989 c -11.02,-15.38799 -8.99,-50.56098 20.6299,-58.15198 3.68,-0.941 7.93,6.259 1,9.767 -9.3299,4.727 -20.9299,20.13999 -16.9599,41.97798 1.42,7.777 -2.94,8.822 -4.67,6.407 z"
     id="path126"
     style="stroke:none;stroke-width:0.2" /><path
     d="m 2206.2957,466.28089 c -7.45,-8.755 -10.94,-24.27499 -7.58,-38.50199 1.62,-6.89899 5.08,-13.36499 10.24,-18.70499 4.67,-4.842 10.98,-8.50199 18.8399,-10.73199 5.26,-1.294 11.55,1.819 13.73,7.72299 1.21,3.277 1.33,7.18 -0.76,10.733 -1.25,2.124 -3.19,4.359 -6.53,5.885 -4.38,1.92 -9.4299,6.63999 -12.6199,13.62099 -2.58,5.659 -4.25,12.55 -3.39,20.72699 0.51,5.282 -0.66,8.375 -2.16,9.92 -3.16,3.237 -7.64,2.928 -9.77,-0.67 z m 20.5799,-56.99498 c 0.15,-0.088 0.29,-0.175 0.44,-0.259 0.09,-0.049 0.24,-0.136 0.19,-0.2 -0.26,-0.297 -0.47,0.024 -0.63,0.459 z m 4.58,4.62 c 0.1,-0.021 0.21,-0.045 0.31,-0.072 -0.1,0.023 -0.21,0.047 -0.31,0.072 z m -21.2599,47.92498 c -0.23,0.044 -0.45,0.082 -0.28,0.133 0.16,0.051 0.25,-0.003 0.28,-0.133 z"
     id="path128"
     style="stroke:none;stroke-width:0.2" /></g>&#10;</svg>
