<?xml version="1.0" encoding="UTF-8" standalone="no"?>
<svg
   width="3122.5784"
   height="2777.7427"
   viewBox="0 0 3122.5784 2777.7427"
   version="1.1"
   xml:space="preserve"
   style="clip-rule:evenodd;fill-rule:evenodd;stroke-linejoin:round;stroke-miterlimit:2"
   id="svg5353"
   xmlns="http://www.w3.org/2000/svg"
   xmlns:svg="http://www.w3.org/2000/svg"><defs
   id="defs5353" />&#10;    <g
   id="vectorly-UNI-monitor"
   transform="matrix(4.9999999,0,0,4.9999999,-20322.057,-56941.048)"
   style="stroke-width:0.2"><path
     d="m 4670.0696,11758.911 c 0.45,-2.7 1.18,-7.5 1.54,-12.2 2.4,-30.8 2.51,-97.3 1.64,-163.8 -0.87,-66.5 -2.75,-133 -4.67,-164.1 -0.31,-5 -0.6,-9.1 -0.9,-12 -5.76,-0.7 -15.7,-1.2 -28.9599,-1.6 -63.2699,-2.1 -200.0995,-2.3 -322.8792,-0.9 -91.6798,1.1 -175.5196,3 -215.0295,6 -8.27,0.6 -14.54,1.2 -18.45,1.9 -0.57,0.1 -1.2,0.3 -1.71,0.4 -0.3899,1.2 -1.1099,3.7 -1.5099,6.1 -2.78,16.4 -4.12,51.3 -4.67,92.7 -1.35,102 2.24,242.8 2.24,242.8 0.06,1.9 -1.46,3.6 -3.39,3.6 -1.94,0.1 -3.56,-1.4 -3.62,-3.4 0,0 -6.75,-176.7 -5,-277.9 0.5,-29.3 1.78,-52.4 4.05,-63.3 1.11,-5.3 3.02,-8.4 4.48,-9.6 0.84,-0.7 2.71,-1.6 5.74,-2.3 5.5099,-1.2 16.9499,-2.4 32.9599,-3.5 63.4298,-4.4 200.4795,-7.8 323.4692,-9.1 92.0897,-0.9 176.2995,-0.6 215.8794,1 11.17,0.5 18.95,1.1 22.61,1.8 4.96,1 7.03,3.6 7.64,4.6 0.42,0.8 1.16,2.5 1.59,5.4 0.6,4 1.25,12.2 1.84,23.7 2.4299,47.2 4.4399,150.4 3.8699,230.8 -0.32,44.4 -1.48,81.9 -3.64,99.5 -0.7399,5.9 -1.7599,10 -2.7099,11.9 -0.98,2 -2.23,3.1 -3.28,3.8 -0.61,0.3 -1.73,0.9 -3.49,1.2 -1.99,0.4 -6.01,0.8 -11.83,1.1 -18.93,1 -58.5899,1.5 -108.8497,1.6 -176.0096,0.2 -482.4188,-4.2 -482.4188,-4.2 -1.94,0 -3.49,-1.6 -3.48,-3.5 0.02,-2 1.6,-3.5 3.53,-3.5 0,0 244.4294,0.2 422.0089,-1.3 72.2698,-0.6 133.4397,-1.5 162.4896,-2.9 5.64,-0.2 10,-0.5 12.91,-0.8 z"
     id="path3374"
     style="stroke:none;stroke-width:0.2" /><path
     d="m 4633.1597,11739.411 c 1.94,0 3.51,1.6 3.5,3.5 0,2 -1.57,3.5 -3.51,3.5 0,0 -73.9098,1.9 -168.0896,3.3 -21.57,0.3 -44.1999,0.6 -67.2398,0.7 -14.83,0.1 -29.83,0.2 -44.8299,0.2 -38.3099,-0.2 -76.6198,-0.8 -112.0597,-1.3 -94.1798,-1.6 -168.0896,-3.6 -168.0896,-3.6 -1.94,0 -3.51,-1.5 -3.5,-3.5 0,-1.9 1.57,-3.5 3.51,-3.5 0,0 73.9098,-1.8 168.0896,-3.1 35.4499,-0.5 73.7598,-1 112.0697,-1 14.9999,0 29.9999,0.1 44.8299,0.2 23.0399,0.2 45.6698,0.5 67.2298,0.9 94.1898,1.7 168.0896,3.7 168.0896,3.7 z"
     id="path3376"
     style="stroke:none;stroke-width:0.2" /><path
     d="m 4677.8896,11549.011 c 1.23,-1.5 3.44,-1.7 4.93,-0.4 1.49,1.2 1.7,3.4 0.46,4.9 0,0 -19.39,26.5 -44.9099,59.7 -5.84,7.6 -12.05,15.5 -18.43,23.5 -4.11,5.1 -8.27,10.3 -12.55,15.4 -10.9499,13 -22.1899,25.8 -32.6399,37.6 -27.7999,31.3 -50.1699,55.3 -50.1699,55.3 -1.2299,1.5 -3.4499,1.7 -4.9399,0.5 -1.49,-1.3 -1.69,-3.5 -0.46,-5 0,0 19.4399,-26.4 45.0498,-59.5 9.63,-12.5 20.08,-25.9 30.85,-39.1 4.21,-5.1 8.55,-10.2 12.8399,-15.2 6.67,-7.7 13.28,-15.3 19.66,-22.5 27.8899,-31.2 50.3099,-55.2 50.3099,-55.2 z"
     id="path3378"
     style="stroke:none;stroke-width:0.2" /><path
     d="m 4675.7896,11461.111 c 1.21,-1.5 3.42,-1.8 4.92,-0.5 1.51,1.2 1.75,3.4 0.54,4.9 0,0 -28.12,38.1 -64.7499,86 -8.38,11 -17.2599,22.4 -26.3599,34 -5.86,7.5 -11.79,15.1 -17.85,22.5 -15.4699,19 -31.2399,37.8 -45.8899,55.2 -38.9199,46 -70.0598,81.7 -70.0598,81.7 -1.21,1.5 -3.42,1.7 -4.93,0.5 -1.5,-1.2 -1.74,-3.4 -0.53,-4.9 0,0 28.17,-38 64.8799,-85.9 13.8099,-18 28.7899,-37.4 44.0799,-56.6 5.9799,-7.5 12.0899,-14.9 18.1399,-22.3 9.39,-11.3 18.67,-22.4 27.6099,-33 39.02,-46 70.1999,-81.6 70.1999,-81.6 z"
     id="path3380"
     style="stroke:none;stroke-width:0.2" /><path
     d="m 4528.0799,11393.311 c 1.43,-1.3 3.65,-1.2 4.95,0.2 1.3,1.4 1.19,3.7 -0.24,5 0,0 -46.1199,44.5 -105.5597,100.6 -13.61,12.9 -27.9599,26.3 -42.6299,39.9 -9.44,8.7 -18.99,17.6 -28.6499,26.3 -24.67,22.2 -49.6099,44.2 -72.7199,64.5 -61.4298,53.9 -110.1597,95.6 -110.1597,95.6 -1.43,1.3 -3.65,1.2 -4.95,-0.2 -1.3,-1.4 -1.19,-3.6 0.24,-4.9 0,0 46.1599,-44.6 105.6798,-100.6 22.3899,-21.1 46.6399,-43.8 71.1598,-66.3 9.6,-8.7 19.3099,-17.4 28.9099,-26 14.91,-13.3 29.6099,-26.3 43.6999,-38.6 61.5099,-53.9 110.2697,-95.5 110.2697,-95.5 z"
     id="path3382"
     style="stroke:none;stroke-width:0.2" /><path
     d="m 4423.2002,11393.511 c 1.45,-1.2 3.66,-1.1 4.95,0.3 1.28,1.5 1.14,3.7 -0.3,5 0,0 -39.2199,37.3 -89.8598,84.2 -11.59,10.7 -23.8299,21.9 -36.3399,33.2 -8.05,7.3 -16.2,14.7 -24.4599,21.9 -21.08,18.5 -42.4299,36.7 -62.2199,53.5 -52.5999,44.7 -94.3797,79.1 -94.3797,79.1 -1.45,1.3 -3.66,1.2 -4.94,-0.3 -1.29,-1.4 -1.15,-3.6 0.3,-4.9 0,0 39.2499,-37.3 89.9697,-84.1 19.08,-17.6 39.7399,-36.6 60.6799,-55.2 8.19,-7.4 16.4899,-14.5 24.6999,-21.7 12.76,-11 25.34,-21.8 37.3999,-32 52.6799,-44.6 94.4998,-79 94.4998,-79 z"
     id="path3384"
     style="stroke:none;stroke-width:0.2" /><path
     d="m 4218.5607,11396.811 c 1.42,-1.3 3.64,-1.2 4.95,0.2 1.3,1.5 1.21,3.7 -0.22,5 0,0 -18.62,19.7 -43.1099,44.2 -5.59,5.6 -11.53,11.4 -17.65,17.2 -3.9299,3.8 -7.8999,7.6 -11.9899,11.3 -10.45,9.4 -21.15,18.5 -31.0999,26.8 -26.48,22.3 -47.7199,39.2 -47.7199,39.2 -1.42,1.3 -3.64,1.2 -4.95,-0.2 -1.3,-1.5 -1.2,-3.7 0.22,-5 0,0 18.6599,-19.6 43.2299,-44 9.22,-9.2 19.2299,-19.1 29.5199,-28.6 4.03,-3.8 8.17,-7.4 12.26,-11 6.36,-5.6 12.6499,-11 18.7199,-16.1 26.57,-22.2 47.8399,-39 47.8399,-39 z"
     id="path3386"
     style="stroke:none;stroke-width:0.2" /><path
     d="m 4162.7908,11398.411 c 1.52,-1.2 3.73,-1 4.93,0.6 1.2,1.5 0.94,3.7 -0.58,4.9 0,0 -11.2199,11.3 -26.3399,25.3 -3.44,3.1 -7.1,6.3 -10.9,9.6 -2.44,2.1 -4.91,4.2 -7.49,6.1 -6.5799,5.1 -13.3799,9.8 -19.7199,14.1 -16.95,11.6 -30.5699,19.9 -30.5699,19.9 -1.52,1.2 -3.72,1 -4.92,-0.5 -1.2,-1.5 -0.94,-3.8 0.58,-5 0,0 11.26,-11.3 26.4399,-25.1 5.68,-5.1 11.84,-10.7 18.28,-15.9 2.52,-2.1 5.13,-4 7.72,-5.9 4.0299,-2.9 8.0199,-5.7 11.8999,-8.3 17.03,-11.5 30.6699,-19.8 30.6699,-19.8 z"
     id="path3388"
     style="stroke:none;stroke-width:0.2" /><path
     d="m 4500.0119,11878.73 c -0.7896,-0.253 -1.6465,-0.59 -2.4865,-0.759 -8.3502,-2.276 -22.48,-3.794 -40.4572,-4.89 -11.576,-0.758 -24.7145,-1.18 -38.9283,-1.433 -12.2984,-0.253 -25.4033,-0.337 -39.0123,-0.169 -16.5155,-0.168 -32.2918,0.169 -46.7912,0.591 -11.24,0.253 -21.6903,0.674 -31.1157,1.264 -17.9605,1.096 -32.0734,2.614 -40.4068,4.806 -0.6385,0.169 -1.2769,0.422 -1.8986,0.59 5.4436,2.277 14.8019,4.384 27.0331,6.408 1.9153,0.253 3.293,1.939 3.0578,3.878 -0.252,1.939 -1.9993,3.288 -3.9147,3.035 -13.7769,-1.096 -24.2608,-2.866 -30.3764,-4.89 -3.7131,-1.264 -6.0485,-2.951 -7.2749,-4.384 -1.1761,-1.349 -1.5794,-2.867 -1.6298,-4.384 -0.067,-2.276 1.1929,-4.974 4.8052,-7.251 5.1243,-3.288 17.9772,-6.745 36.2401,-9.442 12.8865,-1.94 28.5619,-3.626 46.1023,-4.722 14.3314,-0.927 29.9061,-1.264 46.1696,-1.433 14.785,0.169 28.982,0.59 42.2045,1.433 25.7394,1.518 47.7489,4.216 63.206,7.251 12.8025,2.445 21.3878,5.48 24.6137,8.262 2.2345,1.939 3.1082,3.963 3.041,5.902 -0.084,2.529 -2.1002,6.155 -7.8966,8.262 -5.4099,1.939 -14.785,3.71 -27.201,4.89 -1.9154,0.253 -3.6795,-1.096 -3.9483,-2.951 -0.252,-1.939 1.0921,-3.709 3.0074,-3.962 10.8535,-1.855 19.0861,-3.878 23.8576,-5.902 z"
     id="path3390"
     style="stroke:none;stroke-width:0.238034" /><path
     d="m 4356.9804,11769.011 c -0.13,-1.9 1.33,-3.6 3.26,-3.7 1.94,-0.1 3.5999,1.3 3.7299,3.3 0,0 2.72,12 5.1,28.2 0.53,3.7 0.96,7.5 1.32,11.4 0.23,2.5 0.46,5 0.51,7.6 0.13,6.4 -0.16,12.9 -0.58,19.1 -0.79,11.6 -2.28,21.9 -3.61,28.8 -0.15,1.9 -1.83,3.4 -3.76,3.2 -1.9299,-0.1 -3.3799,-1.8 -3.2299,-3.7 -0.29,-6.8 -1.82,-16.8 -3.06,-28 -0.67,-6.1 -1.38,-12.5 -1.74,-18.8 -0.14,-2.5 -0.13,-5 -0.12,-7.5 0.02,-4 0.1,-7.7 0.27,-11.4 0.76,-16.3 1.91,-28.5 1.91,-28.5 z"
     id="path3392"
     style="stroke:none;stroke-width:0.2" /><path
     d="m 4395.8403,11768.411 c 0.28,-2 2.06,-3.3 3.98,-3 1.91,0.3 3.2399,2.1 2.96,4 -0.14,6.7 0.07,16.7 -0.05,28.5 -0.03,3.6 -0.14,7.4 -0.3,11.3 -0.1,2.5 -0.19,5 -0.43,7.5 -0.58,6.2 -1.45,12.4 -2.22,18.6 -1.22,9.9 -2.62,19.3 -2.95,28 0.16,1.9 -1.29,3.6 -3.22,3.7 -1.92,0.2 -3.61,-1.3 -3.76,-3.2 -1.75,-8.8 -3.17,-18.7 -3.72,-29 -0.35,-6.4 -0.44,-12.9 -0.07,-19.3 0.15,-2.6 0.48,-5.2 0.82,-7.7 0.54,-3.9 1.17,-7.7 1.92,-11.4 2.38,-11.7 5.24,-21.4 7.04,-28 z"
     id="path3394"
     style="stroke:none;stroke-width:0.2" /><path
     d="m 4254.7697,11891.75 c 10.9024,0.126 16.8826,10.199 18.8032,21.279 1.5755,9.192 -0.2645,18.761 -3.3466,23.672 -2.5186,4.029 -6.2563,5.54 -9.9709,5.54 -6.2907,-0.126 -19.2517,1.637 -29.4525,1.511 -7.0268,-0.126 -12.9495,-1.259 -16.0661,-3.022 -2.0471,-1.259 -4.1402,-3.148 -5.6122,-6.17 -2.2311,-4.533 -3.6341,-11.835 -3.3006,-19.012 0.2415,-5.163 1.127,-10.073 2.8061,-13.977 2.116,-4.784 5.1982,-8.184 9.0163,-9.317 4.2091,-1.133 9.6488,-1.763 15.33,-1.889 8.0733,-0.126 16.4801,0.63 21.7933,1.385 z m 6.2332,36.515 c 0.034,0 0.069,0 0.1035,0 -0.034,0 -0.069,0 -0.1035,0 z m -0.8625,0.126 c -0.7245,0 -1.4491,0.251 -1.0695,0.755 0.368,0.378 0.736,0 1.0695,-0.755 z m -37.7443,-1.385 c -0.034,0 -0.069,0 -0.1035,-0.126 0.023,0 0.069,0.126 0.1035,0.126 0.5405,0.251 1.311,0.251 2.185,0.377 1.9091,0.252 4.1632,0.378 6.6013,0.378 9.8788,0.378 22.3568,0 29.004,0.504 0.414,-1.008 0.782,-2.393 1.081,-3.274 1.3571,-4.407 2.0471,-10.073 1.1846,-15.11 -0.9086,-5.288 -2.9556,-10.198 -8.2228,-11.08 -5.0257,0 -12.915,0.504 -20.3902,1.637 -4.6117,0.756 -8.9934,1.763 -12.3055,3.148 -0.1495,0.126 0.035,0.378 -0.069,0.503 -0.3565,0.504 -0.5175,1.26 -0.7475,2.015 -0.8165,2.644 -0.8855,6.044 -0.7245,9.444 0.23,4.784 0.874,13.85 3.0361,11.961 0.2415,-0.126 -0.322,-0.378 -0.6325,-0.503 z"
     id="path3396"
     style="stroke:none;stroke-width:0.24067" /><path
     d="m 4254.5052,11895.276 c 19.0562,1.511 15.8361,40.543 6.1757,40.04 -9.6718,-0.63 -35.1797,2.266 -42.1605,-1.511 -6.9922,-3.778 -8.3263,-32.611 1.0696,-35.885 9.3958,-3.148 26.3359,-3.274 34.9152,-2.644 z"
     id="path3398"
     style="stroke:none;stroke-width:0.24067" /><path
     d="m 4235.761,11911.112 c -1.9235,0 -3.5076,-1.6 -3.5076,-3.5 0,-1.9 1.5841,-3.5 3.5076,-3.5 0,0 7.6234,-1.9 17.9341,-3.5 2.3054,-0.4 4.6957,-0.6 7.1708,-0.8 1.5841,-0.1 3.1824,-0.2 4.7947,-0.2 4.1158,0.1 8.1751,0.6 11.9514,1.2 10.2824,1.4 17.9341,3.3 17.9341,3.3 1.9236,0 3.5076,1.6 3.5076,3.5 0,1.9 -1.584,3.5 -3.5076,3.5 0,0 -7.6517,1.9 -17.9341,3.3 -3.7763,0.6 -7.8356,1.1 -11.9514,1.2 -1.6123,0 -3.2106,-0.1 -4.7947,-0.2 -2.4751,-0.2 -4.8654,-0.4 -7.1708,-0.8 -10.3107,-1.6 -17.9341,-3.5 -17.9341,-3.5 z"
     id="path3400"
     style="stroke:none;stroke-width:0.237854" /><path
     d="m 4235.761,11926.523 c -1.9235,0 -3.5076,-1.6 -3.5076,-3.5 0,-1.9 1.5841,-3.5 3.5076,-3.5 0,0 7.6234,-1.9 17.9341,-3.5 2.3054,-0.4 4.6957,-0.6 7.1708,-0.8 1.5841,-0.1 3.1824,-0.2 4.7947,-0.2 4.1158,0.1 8.1751,0.6 11.9514,1.2 10.2824,1.4 17.9341,3.3 17.9341,3.3 1.9236,0 3.5076,1.6 3.5076,3.5 0,1.9 -1.584,3.5 -3.5076,3.5 0,0 -7.6517,1.9 -17.9341,3.3 -3.7763,0.6 -7.8356,1.1 -11.9514,1.2 -1.6123,0 -3.2106,-0.1 -4.7947,-0.2 -2.4751,-0.2 -4.8654,-0.4 -7.1708,-0.8 -10.3107,-1.6 -17.9341,-3.5 -17.9341,-3.5 z"
     id="path3402"
     style="stroke:none;stroke-width:0.237854" /><path
     d="m 4181.0608,11879.611 c -6.29,-0.2 -12.22,-0.6 -15.66,-1.9 -5.4999,-2.1 -7.8799,-5.8 -7.8499,-10.4 0.02,-2.3 0.85,-5.3 4.4099,-7.7 2.39,-1.6 8.28,-3.6 16.76,-5.1 26.3999,-5 81.6998,-9.9 115.7097,-14.7 9.49,-1.3 17.28,-2.6 22.17,-4 1.5,-0.4 3.27,-1.1 3.38,-1.1 0.97,-1 1.69,-2.9 2.4399,-5.2 1.6,-4.9 2.82,-11.6 3.77,-18.6 2.62,-19.6 3.18,-42.2 3.18,-42.2 0,-1.9 1.57,-3.5 3.51,-3.5 1.93,0 3.5,1.6 3.5,3.5 0,0 0.68,29.2 -1.98,50.4 -1.36,10.9 -4.11,19.8 -7.44,23.1 -1.43,1.5 -5.3299,3.3 -11.2999,4.9 -8.72,2.3 -22.65,4.9 -38.6299,7.4 -23.89,3.8 -52.4099,7.6 -74.3799,11.2 6.92,2.3 10.15,7 9.76,12.8 -0.17,2.3 -1.23,5.1 -4.31,7.6 -3.4,2.7 -12.0099,5.9 -23.4799,8.8 -21.98,5.4 -55.3799,10.8 -75.4398,15.6 5.33,0.8 11.5799,1.3 18.3999,1.8 27.5,1.8 63.7599,1.8 85.4098,2.4 1.94,0 3.5,1.6 3.5,3.5 -0.01,1.9 -1.59,3.5 -3.52,3.5 -21.7699,0.4 -58.1798,2.3 -85.8698,1.7 -12.5299,-0.2 -23.3099,-1 -30.3599,-2.5 -4.2,-0.9 -7.3,-2.2 -9.2,-3.5 -2.05,-1.5 -2.85,-3.3 -3.19,-4.9 -0.45,-2.1 -0.04,-4.3 1.79,-6.5 1.43,-1.8 5.45,-4.1 11.66,-6.2 17.93,-5.9 58.2399,-13.4 83.2598,-20.2 z m -85.8898,27.5 c -0.01,0 -0.01,0 -0.01,0 z m 76.8598,-35.6 c -1.05,0.3 -1.67,0.6 -1.37,1.2 0.41,0.7 0.97,-0.3 1.37,-1.2 z m 0.5,-7.5 c -0.49,-1.2 -1.12,-2 -1.61,-1 -0.36,0.7 0.37,0.9 1.61,1 z m 147.3797,-29.3 c -0.03,0.1 -0.07,0.1 -0.09,0.1 0.03,0 0.06,0 0.09,-0.1 z m -123.1997,40.8 c 1.38,-0.5 2.01,-1.1 1.41,-1.8 -0.76,-0.9 -1.19,0.5 -1.41,1.8 z"
     id="path3404"
     style="stroke:none;stroke-width:0.2" /><path
     d="m 4490.85,11843.611 c -0.97,-0.7 -1.88,-1.4 -2.7,-2.1 -3.5,-3 -5.3599,-6.4 -5.5299,-9.2 -0.25,-4.1 1.9899,-7.1 5.2299,-8.8 3.8,-2 9.22,-1.7 13.18,1.4 1.99,1.6 13.92,11.4 30.9599,22.7 3.33,0.7 6.74,1.5 10.19,2.3 3.51,0.9 7.07,1.8 10.63,2.7 0.72,-0.7 1.76,-1.1 2.87,-1 30.1699,2.5 48.6399,6.6 58.4998,10.3 5.33,2.1 8.46,4.2 9.97,5.9 2.4,2.7 2.34,5.3 1.62,7.3 -0.43,1.1 -1.33,2.4 -2.85,3.3 3.48,3.1 4.53,6.1 4.61,8.3 0.11,3.1 -0.99,5.9 -3.92,7.9 -1.44,1 -3.6,1.9 -6.54,2.3 -3.72,0.4 -9.36,0 -16.1599,-1.7 -15.71,-4.2 -31.6,-11.4 -46.0999,-19.8 -1.06,-0.6 -2.12,-1.2 -3.17,-1.9 -23.6,-3.1 -45.8599,-6.4 -52.1999,-7.5 -8.19,-1.4 -15.83,-3.5 -18.5499,-5.3 -2.68,-1.7 -3.69,-3.9 -4.09,-5.5 -0.56,-2.3 -0.17,-4.5 1.43,-6.7 0.73,-1 1.99,-2.2 4.21,-3.2 1.4799,-0.6 4.1699,-1.2 8.4099,-1.7 z m 18.37,0.1 c -7.7,-6.2 -12.72,-10.8 -13.94,-11.8 -0.69,-0.6 -1.56,-0.9 -2.4,-0.9 -0.87,0 -1.98,0.1 -1.97,1 0.01,0.7 0.5,1.3 1.11,2.1 1.21,1.5 2.95,3 4.98,4.4 2.77,1.9 6.03,3.6 9.31,4.9 0.94,0.1 1.91,0.2 2.91,0.3 z m 87.5098,22.5 c 2.34,0.8 4.54,1.6 6.57,2.4 0.73,0.1 1.4499,0.2 2.1399,0.2 -2.4899,-0.8 -5.3899,-1.7 -8.7099,-2.6 z"
     id="path3406"
     style="stroke:none;stroke-width:0.2" /><path
     d="m 4566.0498,11848.011 c 0.93,1.7 0.31,3.8 -1.38,4.7 -1.6999,1 -3.8299,0.4 -4.7599,-1.3 -1.98,-2.4 -5.18,-1.6 -8.32,-0.6 -2.35,0.8 -4.15,2.9 -6.03,5.2 -1.09,1.4 -2.27,2.9 -3.02,4.8 -0.57,1.1 -1.28,2.1 -1.19,3.1 0.03,0.3 -0.28,0.7 -0.16,0.9 0.19,0.5 -0.87,1.2 -0.4,1.1 1.2,0 2.68,-0.3 4.26,-1.6 1.2,-1.5 3.4,-1.8 4.92,-0.6 1.53,1.2 1.79,3.4 0.6,4.9 -4.85,9.4 -12.23,8.4 -17.02,5.7 -3.74,-2.1 -5.9,-7 -6.22,-13 -0.09,-1.8 0.33,-3.6 0.79,-5.6 1,-3.3 2.35,-6.2 4.21,-8.6 3.39,-4.3 7.78,-7 12.26,-8.1 2.58,-0.7 5.06,-1.1 7.48,-0.7 6.5,0.9 12.1199,3.7 13.9799,9.7 z"
     id="path3408"
     style="stroke:none;stroke-width:0.2" /></g>&#10;</svg>
