<?xml version="1.0" encoding="UTF-8" standalone="no"?>
<svg
   width="2458.9666"
   height="3015.1992"
   viewBox="0 0 2458.9666 3015.1992"
   version="1.1"
   xml:space="preserve"
   style="clip-rule:evenodd;fill-rule:evenodd;stroke-linejoin:round;stroke-miterlimit:2"
   id="svg5353"
   xmlns="http://www.w3.org/2000/svg"
   xmlns:svg="http://www.w3.org/2000/svg"><defs
   id="defs5353" />&#10;    <g
   id="vectorly-UNI-task-report"
   style="stroke:none;stroke-width:0.2"
   transform="matrix(4.9999999,0,0,4.9999999,-17032.712,-4192.4481)"><path
     d="m 3646.605,850.11693 c -0.97,-0.06 -3.5,-0.18 -5.84,-0.09 -8.6199,0.35 -22.2199,2.3 -36.8799,4.56 -14.1899,2.19 -29.3199,4.78 -41.8599,6.89 -7.3799,1.24999 -13.8599,2.31999 -18.7199,3.11999 1.36,3.93 3.04,8.74 4.76,13.53 2.38,6.64 4.82,13.25999 6.67,17.38999 0.1,0.23 0.22,0.48 0.3299,0.72 1.41,0.05 3.29,0.09 5.08,0.06 24.7,-0.53 87.6398,-6.21 87.6398,-6.21 1.92,-0.25 3.68,1.11 3.93,3.03 0.24,1.92 -1.12,3.68 -3.03,3.92 0,0 -49.3499,8.31 -77.8698,11.63 -8.58,1 -15.37,1.46 -18.6399,1.33 -3.28,-0.14 -5.17,-1.38 -5.95,-2.01 -1.2,-0.98 -3.84,-5.07 -6.52,-10.94 -5.92,-13.00999 -14.46,-36.13998 -14.46,-36.13998 -0.77,-2.2 -0.54,-4.64 0.65,-6.66 1.18,-2.01 3.19,-3.41 5.5,-3.81 0,0 21.99,-3.87 47.0499,-7.07 16.32,-2.09 33.9199,-3.84 47.5699,-4.56 10.6099,-0.56 18.9599,-0.39 22.9299,0.6 2.57,0.65 4.21,1.7 5.04,2.71 2.03,2.46 4.2,8.13 5.7,15.04 2.97,13.66999 4.61,32.24998 4.61,32.24998 0.25,1.91 -1.1,3.68 -3.02,3.93 -1.92,0.25 -3.68,-1.1 -3.93,-3.02 0,0 -2.53,-14.16999 -5.85,-26.44999 -1.57,-5.78999 -3.15,-11.14999 -4.89,-13.74999 z m -0.67,-0.85 z"
     id="path954"
     style="stroke:none;stroke-width:0.2" /><path
     d="m 3732.0548,874.69692 c -0.6,-0.11 -1.33,-0.22 -1.98,-0.26 -5.61,-0.38 -14.5199,0.23 -24.0999,1.22 -21.48,2.22 -46.2099,6.34 -46.2099,6.34 -1.9,0.37 -3.74,-0.87 -4.11,-2.77 -0.36,-1.9 0.88,-3.74 2.78,-4.11 0,0 39.3299,-8.6 62.1498,-10.73 5.81,-0.55 10.64,-0.62 13.71,-0.18 2.96,0.42 4.88,1.59 5.92,2.65 0.39,0.39 1.15,1.46 1.89,3.36 0.93,2.41 2.48,7.45 4.5,14.69 4.3,15.40999 10.9499,41.01998 18.5299,71.99997 5.36,21.96999 11.28,46.60001 17.09,72.23001 2.88,12.71 5.67,25.6799 8.43,38.6599 4.16,19.58 8.2199,39.2 12.0199,58.13 15.85,79.06 28.19,145.71 28.19,145.71 0.41,1.89 -0.8,3.75 -2.69,4.16 -1.89,0.41 -3.75,-0.79 -4.16,-2.68 0,0 -13.12,-52.76 -29.2999,-120.13 -6.09,-25.35 -12.61,-52.75 -18.96,-80.2 -3.9,-16.88 -7.73,-33.7799 -11.34,-50.2299 -3.84,-17.5 -7.42,-34.48003 -10.7799,-50.34002 -8.69,-41.02998 -15.76,-74.52997 -19.67,-90.37996 -0.68,-2.78 -1.47,-5.6 -1.91,-7.14 z"
     id="path956"
     style="stroke:none;stroke-width:0.2" /><path
     d="m 3764.8947,854.34693 c -1.02,-0.19 -3.34,-0.58 -5.48,-0.7 -8.3699,-0.44 -21.6699,0.12 -35.9799,1.08 -31.6999,2.12 -68.2498,6.21 -68.2498,6.21 -1.91,0.25 -3.68,-1.1 -3.93,-3.02 -0.25,-1.92 1.1,-3.68 3.02,-3.93 0,0 57.9299,-8.77 91.3598,-10.9 10.17,-0.65 18.2099,-0.57 22.1299,0.3 2.34,0.53 3.86,1.53 4.75,2.38 0.49,0.47 1.73,2.4 3,5.97 2.11,5.93 5.88,18.41999 10.79,35.73998 7.74,27.31999 18.5299,66.68998 30.1499,111.10996 4.03,15.40003 8.17,31.41003 12.23,47.75993 9.8199,39.53 19.6799,80.9 28.7699,119.86 22.7999,97.81 40.7799,180.3299 40.7799,180.3299 0.46,1.88 -0.69,3.78 -2.57,4.24 -1.88,0.46 -3.78,-0.7 -4.24,-2.57 0,0 -17.6299,-65.4199 -39.6399,-148.8699 -8.28,-31.41 -17.1899,-65.36 -25.9199,-99.36 -6.48,-25.2 -12.88,-50.43 -18.89,-74.6499 -6.61,-26.62003 -12.6999,-52.03002 -18.2399,-74.79001 -10.08,-41.35998 -18.08,-73.96997 -22.43,-89.40996 -0.7,-2.47 -0.99,-5.17 -1.41,-6.78 z m -0.09,-0.29 c -0.25,-0.85 -0.56,-1.3 -1.03,-1.11 -0.51,0.22 0.58,0.71 0.71,0.85 0.07,0.07 0.19,0.16 0.32,0.26 z"
     id="path958"
     style="stroke:none;stroke-width:0.2" /><path
     d="m 3416.4896,893.08691 c 0.032,0.81 0.096,2.09 0.209,3.31 0.432,4.64 1.414,11.99 2.821,21.58999 6.827,46.58998 24.1719,145.4599 42.1559,244.1999 7.65,41.99 15.4399,83.96 22.5399,121.87 9.59,51.2299 17.97,95.0399 23.96,121.3399 2.22,9.8 4.04,17.07 5.43,21.23 1.5699,0.03 3.6999,0.03 5.7599,-0.08 18.09,-1 55.8799,-6.25 100.4698,-13.03 109.9497,-16.71 260.8793,-43.03 260.8793,-43.03 1.9,-0.36 3.73,0.89 4.09,2.8 0.35,1.9 -0.9,3.73 -2.8,4.09 0,0 -188.5395,37.73 -297.4292,55.26 -31.4199,5.07 -56.2899,8.38 -68.2899,8.84 -3.3499,0.13 -5.8799,0.01 -7.4999,-0.25 -2.22,-0.36 -3.69,-1.14 -4.59,-1.8 -0.89,-0.64 -2.36,-2.12 -3.59,-4.93 -1.42,-3.26 -3.48,-10.22 -5.95,-20.24 -5.12,-20.79 -12.44,-55.48 -20.5099,-97.45 -5.71,-29.6999 -11.83,-63.0399 -17.88,-97.6699 -16.355,-93.59 -32.6609,-196.4399 -41.9989,-261.39991 -4.04,-28.10999 -6.698,-49.15998 -7.509,-59.37998 -0.372,-4.68 -0.206,-7.59 0.078,-8.49 0.633,-2.01 2.526,-4.38999 6.202,-6.25999 4.311,-2.2 11.707,-4.33 20.886,-6.19 36.5219,-7.4 102.4517,-11.78 102.4517,-11.78 1.93,-0.15 3.62,1.29 3.77,3.22 0.15,1.93 -1.29,3.62 -3.22,3.77 0,0 -41.1299,3.71 -76.1098,9.31 -15.877,2.54 -30.4649,5.43999 -39.1579,8.60999 -2.108,0.77 -4.264,2 -5.168,2.54 z"
     id="path960"
     style="stroke:none;stroke-width:0.2" /><path
     d="m 3479.2654,904.95691 c 3.32,14.72999 26.34,104.40999 50.1699,196.19989 5.79,22.31 11.61,44.74 17.15,66.27 6.09,23.65 11.8499,46.2 17.0499,66.27 8.87,34.21 16.03,61.1399 20.27,73.7499 0.43,1.28 0.91,2.57 1.31,3.59 1.21,0.03 2.76,0.05 4.24,-0.02 15.4899,-0.67 47.9798,-4.87 83.4498,-9.92 64.8398,-9.21 139.5296,-21.2799 139.5296,-21.2799 1.9,-0.35 3.73,0.92 4.07,2.82 0.35,1.91 -0.92,3.73 -2.82,4.08 0,0 -117.5397,23.3499 -185.5195,33.6999 -19.77,3.01 -35.4399,4.85 -43.0499,4.91 -4.56,0.03 -7.42,-1.02 -8.57,-1.77 -0.77,-0.5 -1.97,-1.55 -3.08,-3.54 -1.07,-1.91 -2.71,-6 -4.71,-12 -6.57,-19.6699 -18.4299,-61.7399 -31.2599,-111.7499 -9.37,-36.52 -19.2,-77.31 -28.4499,-116.52 -21.47,-90.94993 -39.4799,-173.57989 -39.5799,-176.34989 -0.06,-1.58 0.46,-3.49 2.53,-5.08 2.01,-1.54 7.1999,-3.37 14.1599,-4.84 20.51,-4.33 57.6899,-7.87999 57.6899,-7.87999 1.93,-0.22 3.66,1.15999 3.88,3.08999 0.21,1.92 -1.17,3.66 -3.09,3.87 0,0 -46.4099,5.99 -63.0999,11.5 -0.77,0.26 -1.59,0.6 -2.27,0.9 z m -0.41,-2.03 z"
     id="path962"
     style="stroke:none;stroke-width:0.2" /><path
     d="m 3565.9952,1332.6467 c 1.52,0.01 3.7,-0.01 5.81,-0.13 17.65,-1.04 54.8399,-5.81 95.4798,-11.32 74.0998,-10.05 159.5696,-22.72 159.5696,-22.72 1.91,-0.32 3.72,0.97 4.04,2.88 0.32,1.9 -0.96,3.71 -2.87,4.04 0,0 -77.0798,14.64 -148.2197,26.68 -22.7899,3.86 -44.9698,7.42 -63.8098,10.19 -22.4999,3.31 -40.3099,5.45 -48.8899,5.69 -5.62,0.16 -8.98,-1.22 -10.05,-2 -0.7,-0.53 -1.9,-1.65 -2.9599,-3.78 -0.94,-1.87 -2.4,-5.85 -4.2,-11.65 -3.53,-11.36 -8.79,-30.36 -14.86,-54.0799 -4.14,-16.18 -8.64,-34.56 -13.32,-54.2 -8.4199,-35.37 -17.4399,-74.81 -25.9299,-112.73 -19.92,-88.9399 -36.9699,-169.47991 -36.9699,-169.47991 -0.44,-1.88 0.74,-3.77 2.62,-4.21 1.89,-0.44 3.77,0.74 4.21,2.62 z"
     id="path964"
     style="stroke:none;stroke-width:0.2" /><path
     d="m 3548.4853,1358.5467 c 2.23,-0.03 5.8,-0.62 9.0099,-0.77 13.52,-0.61 34.94,-3.08 59.4399,-6.3 73.4098,-9.65 174.0896,-26.48 174.0896,-26.48 1.9,-0.35 3.73,0.9 4.09,2.8 0.36,1.9 -0.9,3.74 -2.8,4.09 0,0 -125.6597,26.17 -198.4295,36.72 -21.35,3.1 -38.29,4.75 -46.4999,4.33 -4.83,-0.24 -7.87,-1.65 -9.24,-2.75 -0.7,-0.57 -1.61,-1.54 -2.5,-3.06 -1.12,-1.91 -2.71,-5.89 -4.56,-11.69 -3.55,-11.14 -8.57,-29.8 -14.21,-53.12 -3.8299,-15.8699 -7.9799,-33.9099 -12.2099,-53.1999 -7.62,-34.73 -15.61,-73.46 -23.1,-110.7 -17.5599,-87.36 -32.2399,-166.48992 -32.2399,-166.48992 -0.39,-1.89 0.83,-3.75 2.73,-4.14 1.89,-0.39 3.75,0.83 4.14,2.73 0,0 17.89,78.40992 37.9899,165.16992 8.56,36.96 17.53,75.42 25.6699,109.97 4.52,19.15 8.75,37.1 12.55,52.9199 5.51,22.89 10.06,41.3 13.4,52.28 0.93,3.04 2.09,6.15 2.68,7.69 z m -0.53,0 c -0.06,-0.05 -0.11,-0.09 -0.14,-0.13 -0.34,-0.28 -1.32,-1.57 -1.52,-0.86 -0.19,0.69 0.48,0.95 1.66,0.99 z"
     id="path966"
     style="stroke:none;stroke-width:0.2" /><path
     d="m 3587.8952,1215.4768 c -1.9,0.35 -3.73,-0.92 -4.07,-2.82 -0.34,-1.9 0.92,-3.73 2.82,-4.07 0,0 11.8699,-4.13 27.5099,-8.54 3.55,-1 7.28,-1.93 11.11,-2.82 2.46,-0.56 4.95,-1.13 7.47,-1.54 6.4599,-1.05 12.9399,-1.7 18.9599,-2.25 16.16,-1.47 28.7199,-1.82 28.7199,-1.82 1.91,-0.34 3.73,0.92 4.08,2.83 0.34,1.9 -0.92,3.73 -2.83,4.07 0,0 -11.8799,4.07 -27.5399,8.36 -5.83,1.6 -12.13,3.26 -18.5399,4.54 -2.51,0.5 -5.04,0.84 -7.54,1.17 -3.9,0.52 -7.72,0.94 -11.39,1.25 -16.2,1.35 -28.7599,1.64 -28.7599,1.64 z"
     id="path968"
     style="stroke:none;stroke-width:0.2" /><path
     d="m 3681.6777,998.13105 c -1.9008,0.34961 -3.7286,-0.91246 -4.0709,-2.82204 -0.3474,-1.90047 0.9208,-3.72847 2.8223,-4.06821 0,0 6.4214,-3.11393 15.3901,-6.34724 1.9937,-0.71843 4.0801,-1.3565 6.2628,-1.94304 1.3916,-0.3667 2.7999,-0.741 4.2378,-0.95522 3.7086,-0.55498 7.414,-0.70022 10.8813,-0.78839 9.4924,-0.23579 16.6025,0.37231 16.6025,0.37231 1.9074,-0.33898 3.7294,0.92233 4.0775,2.83266 0.3416,1.89972 -0.9208,3.72847 -2.8281,4.06746 0,0 -6.4485,3.06159 -15.4212,6.16744 -3.2774,1.13817 -6.7958,2.29396 -10.4637,3.07881 -1.4253,0.30375 -2.8743,0.44817 -4.3065,0.58499 -2.2514,0.21631 -4.4288,0.34455 -6.5445,0.37335 -9.5365,0.1129 -16.6394,-0.55288 -16.6394,-0.55288 z"
     id="path970"
     style="stroke:none;stroke-width:0.150892" /><path
     d="m 3675.7467,973.22285 c -1.9008,0.34961 -3.7286,-0.91246 -4.0709,-2.82204 -0.3474,-1.90047 0.9208,-3.72847 2.8223,-4.06821 0,0 6.4214,-3.11393 15.3901,-6.34724 1.9937,-0.71843 4.0801,-1.3565 6.2628,-1.94304 1.3916,-0.3667 2.7999,-0.741 4.2378,-0.95522 3.7086,-0.55498 7.414,-0.70022 10.8813,-0.78839 9.4924,-0.23579 16.6025,0.37231 16.6025,0.37231 1.9074,-0.33898 3.7294,0.92233 4.0775,2.83266 0.3416,1.89972 -0.9208,3.72847 -2.8281,4.06746 0,0 -6.4485,3.06159 -15.4212,6.16744 -3.2774,1.13817 -6.7958,2.29396 -10.4637,3.07881 -1.4253,0.30375 -2.8743,0.44817 -4.3065,0.58499 -2.2514,0.21631 -4.4288,0.34455 -6.5445,0.37335 -9.5365,0.1129 -16.6394,-0.55288 -16.6394,-0.55288 z"
     id="path972"
     style="stroke:none;stroke-width:0.150892" /><path
     d="m 3669.8357,948.37065 c -1.9008,0.34961 -3.7286,-0.91246 -4.0709,-2.82204 -0.3474,-1.90047 0.9208,-3.72847 2.8223,-4.06821 0,0 6.4214,-3.11393 15.3901,-6.34724 1.9937,-0.71843 4.0801,-1.3565 6.2628,-1.94304 1.3916,-0.3667 2.7999,-0.741 4.2378,-0.95522 3.7086,-0.55498 7.414,-0.70022 10.8813,-0.78839 9.4924,-0.23579 16.6025,0.37231 16.6025,0.37231 1.9074,-0.33898 3.7294,0.92233 4.0775,2.83266 0.3416,1.89972 -0.9208,3.72847 -2.8281,4.06746 0,0 -6.4485,3.06159 -15.4212,6.16744 -3.2774,1.13817 -6.7958,2.29396 -10.4637,3.07881 -1.4253,0.30375 -2.8743,0.44817 -4.3065,0.58499 -2.2514,0.21631 -4.4288,0.34455 -6.5445,0.37335 -9.5365,0.1129 -16.6394,-0.55288 -16.6394,-0.55288 z"
     id="path974"
     style="stroke:none;stroke-width:0.150892" /><path
     d="m 3593.2037,1246.6404 c -1.9052,0.3511 -3.716,-0.9176 -4.0707,-2.8167 -0.3358,-1.9108 0.9318,-3.7334 2.8181,-4.0728 0,0 21.5926,-5.8992 49.4454,-12.5086 6.3667,-1.5096 13.0586,-2.9837 19.8828,-4.4072 4.3937,-0.9099 8.8414,-1.8341 13.3199,-2.5984 11.4454,-1.9556 22.9414,-3.5095 33.5814,-4.8953 28.3841,-3.6897 50.651,-5.7878 50.651,-5.7878 1.9038,-0.3409 3.7322,0.9264 4.0869,2.8256 0.3371,1.9005 -0.9319,3.7333 -2.8356,4.0742 0,0 -21.5845,5.8376 -49.4735,12.3282 -10.45,2.4358 -21.7681,5.0001 -33.1571,7.1845 -4.4733,0.8552 -8.9597,1.5492 -13.3922,2.2288 -6.8965,1.054 -13.6781,2.028 -20.1598,2.8367 -28.4203,3.5708 -50.6966,5.6088 -50.6966,5.6088 z"
     id="path976"
     style="stroke:none;stroke-width:0.266808" /><path
     d="m 3600.6052,1277.7839 c -1.8951,0.3523 -3.7272,-0.9204 -4.0661,-2.8206 -0.3519,-1.8996 0.9205,-3.727 2.815,-4.0692 0,0 15.8188,-4.8518 36.3903,-10.1466 4.6903,-1.2063 9.6122,-2.362 14.6615,-3.4626 3.2428,-0.7016 6.5254,-1.415 9.8382,-1.9684 8.4794,-1.4172 16.9889,-2.4326 24.8793,-3.3209 21.1014,-2.3649 37.5984,-3.4264 37.5984,-3.4264 1.9076,-0.3427 3.7272,0.9204 4.0786,2.8301 0.3388,1.9002 -0.9205,3.7271 -2.8281,4.0698 0,0 -15.8285,4.7917 -36.4194,9.9665 -7.7003,1.9384 -16.0307,3.9639 -24.4575,5.6106 -3.3048,0.6438 -6.6269,1.1271 -9.9092,1.5986 -5.1202,0.7308 -10.132,1.3864 -14.9403,1.8924 -21.1345,2.2554 -37.6407,3.2467 -37.6407,3.2467 z"
     id="path978"
     style="stroke:none;stroke-width:0.229402" /><path
     d="m 3549.9153,1100.1868 c -0.4,-1.9 0.8,-3.76 2.69,-4.17 1.9,-0.4 3.7599,0.8 4.1699,2.7 0,0 7.53,27.39 13.75,51.25 2.77,10.63 5.26,20.54 6.85,26.95 5.36,-1.15 13.51,-2.85 23.2899,-4.69 9.04,-1.71 19.49,-3.47 30.39,-5.23 15.2499,-2.46 31.3599,-4.84 45.7698,-6.93 25.7,-3.74 45.8699,-6.38 45.8699,-6.38 1.9,-0.36 3.73,0.89 4.09,2.79 0.36,1.9 -0.89,3.74 -2.79,4.1 0,0 -19.7399,4.9 -45.0299,10.83 -14.1699,3.32 -30.0299,6.99 -45.1298,10.28 -10.78,2.34 -21.15,4.53 -30.2,6.25 -17.8099,3.38 -30.3899,5.25 -30.3899,5.25 -4,0.76 -7.88,-1.81 -8.73,-5.8 0,0 -3.01,-16.28 -6.14,-34.82 -4.1099,-24.31 -8.4599,-52.38 -8.4599,-52.38 z"
     id="path980"
     style="stroke:none;stroke-width:0.2" /><path
     d="m 3586.0252,1138.0268 c -0.46,-1.88 0.7,-3.78 2.58,-4.23 1.88,-0.46 3.78,0.69 4.23,2.57 0,0 3.1499,4.92 6.5699,12.16 0.75,1.58 1.41,3.24 2.04,5.01 0.39,1.11 0.79,2.24 1.03,3.41 0.62,3.04 0.83,6.07 0.98,8.94 0.41,7.94 -0.07,13.77 -0.07,13.77 0.45,1.88 -0.7,3.78 -2.58,4.24 -1.88,0.45 -3.78,-0.7 -4.23,-2.58 0,0 -3.1099,-4.96 -6.3999,-12.2 -1.18,-2.61 -2.39,-5.4 -3.24,-8.38 -0.33,-1.15 -0.49,-2.34 -0.65,-3.51 -0.26,-1.86 -0.43,-3.63 -0.5,-5.38 -0.29,-8 0.24,-13.82 0.24,-13.82 z"
     id="path982"
     style="stroke:none;stroke-width:0.2" /><path
     d="m 3615.6484,1113.4301 c -0.4582,-1.8845 0.6942,-3.7727 2.5843,-4.2325 1.8691,-0.4636 3.7672,0.6868 4.2253,2.5714 0,0 3.7987,7.407 7.8969,17.6138 0.9215,2.2838 1.7622,4.6752 2.5639,7.182 0.5199,1.5985 1.0312,3.213 1.3931,4.8702 0.9174,4.2588 1.4275,8.5484 1.8568,12.5609 1.1656,10.8963 1.2555,19.2184 1.2555,19.2184 0.4581,1.8845 -0.6943,3.7727 -2.5738,4.2344 -1.8796,0.4617 -3.7778,-0.6887 -4.2359,-2.5732 0,0 -3.7397,-7.4313 -7.7161,-17.6509 -1.468,-3.7473 -2.9788,-7.7996 -4.1273,-12.0132 -0.4419,-1.6368 -0.7325,-3.2985 -1.0126,-4.9582 -0.4422,-2.5986 -0.7825,-5.1086 -1.0249,-7.5658 -1.0353,-10.925 -1.0852,-19.2573 -1.0852,-19.2573 z"
     id="path984"
     style="stroke:none;stroke-width:0.27054" /><path
     d="m 3645.2615,1120.0491 c -0.4582,-1.8845 0.6942,-3.7727 2.5843,-4.2325 1.8691,-0.4636 3.7672,0.6868 4.2253,2.5714 0,0 3.3921,5.8116 7.0388,14.1002 0.811,1.8264 1.5393,3.7427 2.2286,5.7743 0.4351,1.2859 0.8722,2.5896 1.1598,3.9359 0.7202,3.4711 1.0418,6.9569 1.2882,10.2192 0.6846,8.9901 0.3974,15.7047 0.3974,15.7047 0.4581,1.8845 -0.6924,3.7905 -2.572,4.2522 -1.8814,0.4439 -3.7796,-0.7065 -4.2377,-2.591 0,0 -3.333,-5.8359 -6.8561,-14.1194 -1.2889,-3.0327 -2.6093,-6.2635 -3.5606,-9.6892 -0.3657,-1.3082 -0.5734,-2.675 -0.7793,-4.0239 -0.3279,-2.1056 -0.5577,-4.1584 -0.6791,-6.1564 -0.5648,-9.0207 -0.2376,-15.7455 -0.2376,-15.7455 z"
     id="path986"
     style="stroke:none;stroke-width:0.27054" /><path
     d="m 3676.7896,1088.7499 c -0.457,-1.8741 0.7028,-3.7664 2.5822,-4.2288 1.8794,-0.4624 3.7704,0.693 4.2274,2.5671 0,0 4.2206,9.1065 8.8159,21.3744 1.0342,2.7568 2.0049,5.661 2.9279,8.6756 0.5982,1.9305 1.1886,3.8794 1.6298,5.8722 1.1328,5.1326 1.8554,10.2835 2.4707,15.08 1.6723,12.9556 2.1741,22.9766 2.1741,22.9766 0.4597,1.8953 -0.6894,3.7903 -2.5688,4.2527 -1.8822,0.4412 -3.7838,-0.7169 -4.2408,-2.591 0,0 -4.1621,-9.1325 -8.6349,-21.4102 -1.6562,-4.5502 -3.3798,-9.465 -4.7388,-14.512 -0.5211,-1.9722 -0.8931,-3.9883 -1.2491,-5.9594 -0.5636,-3.1072 -1.0365,-6.1505 -1.392,-9.0822 -1.5524,-12.9864 -2.0036,-23.015 -2.0036,-23.015 z"
     id="path988"
     style="stroke:none;stroke-width:0.29523" /><path
     d="m 3575.1452,1187.0068 c -0.65,1.82 -2.67,2.76 -4.48,2.1 -1.83,-0.65 -2.77,-2.67 -2.11,-4.48 l 14.51,-49.74 c 0.41,-1.13 1.11,-2.13 2.04,-2.9 l 28.8499,-25.53 c 1.9,-1.58 4.43,-2.19 6.84,-1.65 0,0 25.8399,6.39 25.8399,6.39 4.48,-4.06 13.14,-11.89 21.89,-19.65 12.6199,-11.19 25.3399,-22.17 25.3399,-22.17 1.37,-1.36 3.59,-1.36 4.96,0.02 1.36,1.37 1.35,3.59 -0.02,4.95 0,0 -11.06,12.65 -22.33,25.2 -11.2599,12.53 -22.6499,24.88 -22.6499,24.88 -1.77,1.76 -4.32,2.5 -6.76,1.95 0,0 -25.9999,-5.23 -25.9999,-5.23 l -26.1199,20.35 z"
     id="path990"
     style="stroke:none;stroke-width:0.2" /><path
     d="m 3690.1149,1079.5468 c -1.05,-0.13 -2.16,-0.32 -3.32,-0.52 -1.45,-0.25 -2.85,-0.53 -4.29,-0.88 -5.51,-1.33 -10.0199,-2.78 -10.0199,-2.78 -1.94,0 -3.51,-1.57 -3.51,-3.5 0,-1.94 1.57,-3.51 3.51,-3.51 0,0 4.5099,-1.44 10.0199,-2.77 1.44,-0.35 2.84,-0.64 4.29,-0.89 1.72,-0.3 3.32,-0.56 4.77,-0.68 2.8,-0.22 4.77,-0.09 4.77,-0.09 4.11,0 7.53,3.13 7.9,7.22 0,0 -0.03,3.9 -0.52,8.4 -0.68,6.12 -2.01,12.71 -2.01,12.71 0.17,1.93 -1.25,3.64 -3.18,3.81 -1.93,0.17 -3.63,-1.25 -3.8,-3.18 0,0 -2.5,-6.24 -4.26,-12.14 -0.13,-0.4 -0.24,-0.8 -0.35,-1.2 z"
     id="path992"
     style="stroke:none;stroke-width:0.2" /><path
     d="m 3585.9152,987.99687 c 8.45,2.54 25.8199,7.85 36.9699,11.83 6.36,2.27003 10.85,4.57003 11.87,5.56003 2.6599,2.59 3.3799,8.4 -0.35,15.42 -4.64,8.73 -16.1,20.62 -31.41,27.4199 -14.8899,6.61 -33.2799,8.26 -52.4298,-1.56 -19.7,-10.4699 -32.58,-28.9899 -35.71,-48.65993 -3.1799,-20.00999 3.5,-41.13998 22.25,-55.99998 12.07,-9.40999 25.7499,-13.03999 38.1699,-12.87999 18.05,0.25 33.1299,8.45999 37.2799,16.73999 0.41,0.82 0.8,1.89 0.65,3.28 -0.12,1.2 -0.87,3.45 -2.53,6.2 -5.03,8.31999 -18.4799,24.99999 -24.7599,32.64998 z m 40.1499,24.29003 c -0.35,-0.19 -0.72,-0.39 -1.08,-0.57 -3.64,-1.77 -9.45,-4.21 -15.75,-6.75 -14.0999,-5.68003 -30.4899,-11.80003 -30.4899,-11.80003 -1.08,-0.36 -1.92,-1.22 -2.25,-2.31 -0.33,-1.1 -0.1,-2.28 0.6,-3.18 0,0 19.1899,-26.11999 24.9799,-37.16998 0.19,-0.36 0.38,-0.77 0.54,-1.15 -1.23,-1.35 -3.05,-2.55 -5.2,-3.67 -5.5699,-2.92 -13.4499,-4.63 -21.9799,-4.3 -9.74,0.38 -20.34,3.65 -29.4299,11.48 -13.72,11.61999 -18.06,27.53999 -15.5,42.55998 2.59,15.16003 12.18,29.53003 27.3099,37.77003 14.34,8.09 28.42,7.18 40.0399,2.68 12.67,-4.91 22.63,-13.78 26.8,-20.63 0.56,-0.93 1.1,-2.17 1.41,-2.96 z"
     id="path994"
     style="stroke:none;stroke-width:0.2" /><path
     d="m 3631.3951,953.92689 c -0.16,0.28 -0.33,0.55 -0.51,0.8 -2.45,3.46 -5.57,8.20999 -8.91,12.80999 -2.77,3.81 -5.6,7.55 -7.96,10.63 2.6,1.09 5.56,2.35 8.63,3.68 12.48,5.38999 26.6599,11.85999 26.6599,11.85999 1.83,0.63 2.8,2.62 2.17,4.45 -0.63,1.83 -2.63,2.80003 -4.45,2.17003 0,0 -15.1599,-3.65003 -28.3099,-7.09003 -10,-2.61 -18.73,-5.11 -18.73,-5.11 -2.17,-0.75 -3.86,-2.47 -4.57,-4.65999 -0.6999,-2.18 -0.3399,-4.57 0.98,-6.45 0,0 3.13,-5.1 7.42,-11.42 2.41,-3.54 5.17,-7.45999 7.91,-11.08999 5.88,-7.78 11.68,-14.3 13.02,-15.27 1.89,-1.31 4.68,-2.6 8.28,-1.07 2.7199,1.15 7.9099,5.16 12.2799,12.35 5.16,8.48 10.11,21.11999 9.83,35.85998 0.12,1.93 -1.35,3.6 -3.28,3.72 -1.93,0.11 -3.6,-1.36 -3.72,-3.29 -2.15,-15.56999 -10.62,-27.34999 -16.7399,-32.87998 z m 1.65,-2.96 c 0.27,-0.1 0.49,-0.22 0.64,-0.35 0.07,-0.07 0.47,-0.12 0.33,-0.23 -0.29,-0.25 -0.61,0.03 -0.97,0.58 z"
     id="path996"
     style="stroke:none;stroke-width:0.2" /></g>&#10;</svg>
