<?xml version="1.0" encoding="UTF-8" standalone="no"?>
<svg
   width="3534.8159"
   height="2095.7412"
   viewBox="0 0 3534.8159 2095.7412"
   version="1.1"
   xml:space="preserve"
   style="clip-rule:evenodd;fill-rule:evenodd;stroke-linejoin:round;stroke-miterlimit:2"
   id="svg5353"
   xmlns="http://www.w3.org/2000/svg"
   xmlns:svg="http://www.w3.org/2000/svg"><defs
   id="defs5353" />&#10;    <g
   id="vectorly-UNI-carrot"
   style="stroke:none;stroke-width:0.2"
   transform="matrix(4.9999999,0,0,4.9999999,-180.59504,-12804.222)"><path
     d="m 314.27439,2874.9149 c -6.65798,-14.5 -13.53397,-32.86 -20.62295,-52.01 -7.62198,-20.6 -15.51296,-42.12 -24.49394,-60.31 -9.35898,-18.9499 -19.38895,-34.4399 -31.83092,-40.3299 -15.38896,-7.36 -31.43892,-6.55 -44.76389,-1.33 -16.33996,6.41 -28.83193,19.17 -30.67692,32.07 -0.222,1.92 -1.962,3.2999 -3.88399,3.0799 -1.922,-0.22 -3.30199,-1.9699 -3.08,-3.8899 1.358,-15.38 14.90297,-31.67 33.85592,-40.24 15.59196,-7.04 34.73691,-8.69 53.53287,-0.78 14.75096,6.29 28.04393,23.13 39.6289,44.8599 9.79498,18.38 18.62395,40.21 26.59393,61.3 8.72298,23.08 16.33096,45.27 24.10694,60.38 1.321,2.62 1.247,4.97 0.454,6.99 -0.655,1.66 -1.81799,3.37 -4.05799,4.55 -1.65599,0.87 -5.22998,1.75 -10.47497,1.28 -12.62297,-1.12 -40.3559,-8.51 -69.88783,-24.74 -31.80592,-17.49 -65.77083,-45.11 -85.19779,-85.17 -0.88499,-1.72 -0.207,-3.84 1.514,-4.72 1.72,-0.89 3.83499,-0.21 4.71999,1.51 13.09497,24 31.76992,42.7 51.61787,57.17 34.87091,25.43 73.58282,37.47 92.94677,40.33 z m 4.75999,9.74 c 0.018,0.04 0.037,0.07 0.056,0.11 -0.019,-0.04 -0.037,-0.07 -0.056,-0.11 z"
     id="path354"
     style="stroke:none;stroke-width:0.2" /><path
     d="m 242.81757,2791.5349 c 1.90499,0.34 3.17699,2.16 2.83899,4.06 -0.339,1.91 -2.15999,3.18 -4.06399,2.84 -0.262,0.02 -0.433,0.37 -0.801,0.51 -0.964,0.37 -1.91399,1.12 -3.21199,1.9 -1.413,0.86 -2.76699,1.99 -4.44399,3.16 -2.09499,1.46 -4.18599,3.2 -6.51298,4.95 -1.203,0.91 -2.408,1.84 -3.67199,2.73 -0.823,0.58 -1.675,1.11 -2.532,1.63 -3.30799,2.04 -6.58298,3.81 -9.25997,6.16 -2.438,2.14 -4.72599,3.9 -5.88199,6.46 -0.392,1.9 -2.24899,3.12 -4.14299,2.72 -1.89399,-0.39 -3.11399,-2.24 -2.72099,-4.14 -0.047,-4.9 1.96299,-9.67 4.93098,-14.67 1.077,-1.82 2.371,-3.46 3.811,-5.14 1.91599,-2.22 4.09299,-4.28 6.49598,-6.04 1.263,-0.92 2.62299,-1.69 3.99499,-2.39 2.15099,-1.09 4.26599,-2.04 6.41498,-2.72 8.66898,-2.73 15.89396,-3.21 18.75696,-2.02 z"
     id="path356"
     style="stroke:none;stroke-width:0.2" /><path
     d="m 214.95564,2760.6949 c -0.624,1.83 -2.617,2.81 -4.44799,2.19 -1.831,-0.62 -2.812,-2.62 -2.189,-4.45 0.781,-5.7699 5.13799,-11.8899 11.80497,-17.4899 2.005,-1.68 4.30099,-3.1 6.74999,-4.44 1.54399,-0.84 3.16499,-1.61 4.86598,-2.19 3.139,-1.07 6.43699,-1.76 9.76098,-2.07 3.19099,-0.31 6.28398,-0.38 9.37398,-0.05 5.02698,0.54 9.57197,1.56 13.68596,3.55 1.871,0.49 2.992,2.41 2.502,4.28 -0.491,1.87 -2.408,2.99 -4.27899,2.5 -3.61799,-0.22 -7.20398,0.64 -11.10498,1.57 -3.57999,0.86 -6.99498,2.31 -10.54497,3.68 -1.84099,0.71 -3.65199,1.47 -5.47499,2.13 -2.86099,1.05 -5.66898,1.9 -8.25397,3.01 -3.707,1.6 -7.03599,2.8599 -9.45198,4.9199 -1.176,0.99 -2.313,1.74 -2.99699,2.86 z"
     id="path358"
     style="stroke:none;stroke-width:0.2" /><path
     d="m 275.21349,2831.7149 c -1.121,1.58 -3.311,1.95 -4.88799,0.83 -1.577,-1.12 -1.947,-3.31 -0.827,-4.89 0.731,-2.82 2.204,-4.98 4.09899,-7.69 0.734,-1.05 1.607,-1.8 2.55199,-2.72 1.19,-1.16 2.561,-2.01 4.02999,-2.87 0.951,-0.55 1.968,-1.01 3.037,-1.3 2.04699,-0.56 4.14299,-0.8 6.24098,-0.62 1.557,0.13 2.96799,0.21 4.42899,0.7 3.53099,1.18 6.49798,2.28 9.10898,4.87 1.74799,0.83 2.49499,2.92 1.66599,4.67 -0.82799,1.75 -2.91999,2.5 -4.66798,1.67 -1.907,-0.18 -3.387,0.59 -5.26399,1.02 -1.341,0.31 -2.356,1.12 -3.68199,1.58 -1.207,0.43 -2.293,1.1 -3.51299,1.5 -0.94,0.32 -1.917,0.38 -2.861,0.63 -1.05899,0.29 -2.05699,0.29 -3.07599,0.59 -2.44799,0.71 -4.54299,0.79 -6.38398,2.03 z"
     id="path360"
     style="stroke:none;stroke-width:0.2" /><path
     d="m 248.67755,2811.9749 c 1.634,-1.04 3.80099,-0.55 4.83699,1.08 1.036,1.64 0.551,3.8 -1.083,4.84 0,0 -0.749,2.72 -2.99799,7.29 -0.632,1.29 -1.101,2.76 -2.07599,4.17 -0.634,0.92 -1.57,1.58 -2.388,2.48 -0.563,0.61 -1.2,1.01 -1.81199,1.64 -1.589,1.63 -3.16,2.72 -4.62499,4.78 -0.438,1.88 -2.323,3.06 -4.20699,2.62 -1.885,-0.44 -3.05899,-2.32 -2.622,-4.21 -0.50599,-3.09 -0.37499,-5.42 -0.182,-8.25 0.088,-1.28 0.379,-2.34 0.69,-3.52 0.452,-1.73 1.132,-3.26 2.006,-4.65 0.492,-0.78 1.101,-1.45 1.73799,-2.04 1.07,-1 2.041,-1.85 3.16,-2.5 1.76599,-1.03 3.08099,-1.74 4.55298,-2.25 3.359,-1.14 5.00899,-1.48 5.00899,-1.48 z"
     id="path362"
     style="stroke:none;stroke-width:0.2" /><path
     d="m 542.39682,2812.0949 c 6.10999,4.22 12.54097,10.78 16.80196,18.61 4.17499,7.66 6.17499,16.52 4.12899,25.65 -4.13599,18.38 -16.26496,32.07 -32.93392,42.9 -30.44392,19.8 -76.62081,29.74 -113.76471,43.38 -18.89196,6.83 -39.41591,14.01 -57.16986,19.3 -17.75996,5.28 -32.90492,8.63 -41.2719,8.57 -6.69898,-0.05 -10.77397,-2.58 -12.61897,-5.16 -2.08899,-2.92 -3.14799,-7.15 -0.045,-12.71 5.94199,-10.48 29.70993,-49.84 75.46581,-92.58 25.22194,-23.56 57.21386,-48.03 96.30177,-69.49 17.94795,-9.77 30.25792,-9.64 39.2289,-5.63 7.83098,3.5 13.24697,10.08 17.60895,16.38 3.07,4.43 5.48499,8.68 8.26798,10.78 z m -219.38245,142.15 c 7.78098,-0.87 19.11595,-3.68 32.09092,-7.34 17.58495,-4.96 37.9969,-11.52 56.76486,-17.87 36.79891,-12.25 82.36679,-20.46 112.83672,-38.85 14.73596,-8.9 25.88093,-20.15 30.03292,-35.92 1.845,-6.99 0.397,-13.86 -2.59399,-19.9 -3.40699,-6.88 -8.73098,-12.74 -13.84797,-16.59 -3.34299,-2.3 -6.55298,-6.98 -10.34397,-11.99 -3.77599,-4.99 -8.24698,-10.39 -14.75996,-12.99 -7.27699,-2.9 -16.94596,-1.89 -30.93293,6.48 -37.3919,22.2 -67.57683,47.3 -91.58577,70.89 -36.70291,36.06 -58.59585,68.91 -67.66083,84.08 z m -3.52199,6.13 c -0.004,0 -0.007,0.01 -0.011,0.02 0.004,-0.01 0.007,-0.02 0.011,-0.02 z m -1.807,-5.82 c -0.464,-0.57 -0.909,-0.82 -1.137,-0.18 -0.115,0.33 0.508,0.24 1.137,0.18 z"
     id="path364"
     style="stroke:none;stroke-width:0.2" /><path
     d="m 440.01708,2822.7649 c -1.82,-0.65 -2.766,-2.66 -2.11,-4.48 0.655,-1.82 2.665,-2.77 4.48499,-2.11 0,0 2.577,0.28 7.32998,2.37 1.918,0.84 3.81099,2.12 6.12299,3.93 1.385,1.08 2.65199,2.45 3.99199,4.06 0.758,0.91 1.494,1.92 2.10099,3.08 0.992,1.88 1.796,4.01 2.373,6.42 0.471,1.97 0.836,3.93 0.998,6.21 0.20999,2.95 0.24799,5.77 0.046,9.22 0.43299,1.88 -0.745,3.77 -2.631,4.2 -1.88499,0.43 -3.76699,-0.75 -4.20099,-2.63 -1.80199,-3.26 -3.63399,-5.65 -5.37798,-8.21 -0.743,-1.09 -1.494,-1.99 -2.157,-3 -1.04,-1.59 -2.16099,-2.91 -2.96399,-4.33 -1.268,-2.25 -2.018,-4.32 -2.94499,-6.05 -3.203,-5.99 -5.06199,-8.68 -5.06199,-8.68 z"
     id="path366"
     style="stroke:none;stroke-width:0.2" /><path
     d="m 383.24922,2867.9549 c -1.44,-1.29 -1.562,-3.51 -0.271,-4.95 1.292,-1.44 3.50899,-1.56 4.94999,-0.27 0,0 1.74899,0.66 5.04698,2.37 1.459,0.76 2.87,1.63 4.61999,2.89 1.117,0.81 2.143,1.75 3.225,2.85 0.64999,0.66 1.28799,1.38 1.81199,2.2 0.942,1.49 1.682,3.12 2.27499,4.91 0.551,1.66 0.984,3.2 1.257,5 0.405,2.67 0.66,4.93 0.634,7.73 0.642,1.83 -0.317,3.83 -2.14199,4.47 -1.824,0.65 -3.82799,-0.31 -4.46999,-2.14 -1.789,-2.21 -3.64199,-3.65 -5.57699,-5.57 -0.754,-0.74 -1.493,-1.32 -2.19099,-2.08 -1.035,-1.12 -2.143,-2.06 -2.95,-3.24 -1.22099,-1.77 -1.95399,-3.61 -2.72199,-5.26 -2.55799,-5.49 -3.49699,-8.91 -3.49699,-8.91 z"
     id="path368"
     style="stroke:none;stroke-width:0.2" /><path
     d="m 439.04508,2898.3049 c -1.524,-1.19 -1.793,-3.4 -0.602,-4.92 1.192,-1.53 3.39699,-1.8 4.92099,-0.6 0,0 1.788,0.58 5.25999,2.27 1.49799,0.73 2.93099,1.62 4.73898,2.92 1.135,0.81 2.17,1.78 3.273,2.92 0.652,0.68 1.28999,1.41 1.81299,2.27 0.918,1.49 1.644,3.15 2.206,5 0.504,1.65 0.90099,3.2 1.12899,5.03 0.323,2.6 0.507,4.84 0.438,7.69 0.617,1.83 -0.371,3.82 -2.20499,4.43 -1.833,0.62 -3.82199,-0.37 -4.43899,-2.2 -1.818,-2.31 -3.61899,-3.81 -5.46299,-5.73 -0.736,-0.77 -1.45699,-1.36 -2.12599,-2.12 -1.003,-1.14 -2.076,-2.08 -2.84299,-3.23 -1.177,-1.77 -1.847,-3.56 -2.592,-5.15 -2.55499,-5.43 -3.50899,-8.58 -3.50899,-8.58 z"
     id="path370"
     style="stroke:none;stroke-width:0.2" /><path
     d="m 363.09127,2908.2849 c -1.932,0.11 -3.58599,-1.37 -3.69199,-3.31 -0.106,-1.93 1.37599,-3.58 3.30699,-3.69 0,0 1.054,-0.17 3.75199,-0.65 0.722,-0.13 1.327,0.07 2.25999,0.06 1.651,-0.02 3.111,0.56 5.34199,1.3 1.239,0.41 2.315,1.19 3.60899,2.1 0.689,0.49 1.36,1.08 1.932,1.82 0.906,1.18 1.68399,2.54 2.23699,4.22 0.342,1.04 0.664,1.95 0.826,3.15 0.324,2.42 0.544,4.39 0.456,7.36 0.746,1.79 -0.098,3.84 -1.883,4.59 -1.78499,0.74 -3.83999,-0.1 -4.58498,-1.89 -1.891,-1.76 -3.424,-2.58 -5.07299,-3.88 -0.663,-0.53 -1.283,-0.82 -1.858,-1.32 -0.826,-0.73 -1.71399,-1.17 -2.31299,-1.88 -0.903,-1.07 -1.18,-2.23 -1.775,-3.08 -2.30699,-3.27 -2.54199,-4.9 -2.54199,-4.9 z"
     id="path372"
     style="stroke:none;stroke-width:0.2" /><path
     d="m 535.54484,2810.6349 c -1.121,0.6 -2.53099,0.57 -3.64799,-0.2 -1.591,-1.11 -1.99,-3.29 -0.89,-4.88 3.91699,-5.99 8.62298,-15.03 13.24097,-22.03 2.65899,-4.03 5.36399,-7.39 7.83398,-9.43 0.588,-0.48 0.705,-1.17 0.824,-1.87 0.229,-1.35 0.152,-2.87 0.136,-4.49 -0.037,-3.76 0.087,-7.95 1.75899,-12.2699 1.185,-3.07 3.182,-6.18 6.47199,-9.27 3.53599,-3.31 4.60499,-9.16 6.43698,-14.74 2.458,-7.48 5.83599,-14.55 12.37297,-18.7 6.00599,-3.81 15.01796,-5.36 29.46193,-1.35 11.37997,3.19 19.37695,1.62 26.88093,-0.29 7.08598,-1.81 13.82797,-3.86 21.79395,-4.02 6.94198,-0.13 14.77596,1.16 24.43994,5.27 7.90898,3.38 13.60696,8.3 17.88595,13.9 6.30699,8.27 9.34198,18.15 11.87297,26.63 0.84,2.8199 1.614,5.4499 2.509,7.7199 0.63099,1.6 1.07699,3.05 2.10399,3.82 17.34196,13.05 21.54295,28.08 18.91295,40.53 -3.34399,15.83 -18.22395,28.17 -34.52191,28.78 -10.28897,0.35 -18.33995,-1.14 -25.26594,-3.52 -7.66998,-2.65 -13.89896,-6.38 -20.34895,-9.78 -7.65498,-4.05 -15.67196,-7.59 -27.96593,-7.02 -34.25191,1.52 -50.96787,-4.11 -64.38884,-4.89 -7.81498,-0.45 -14.36996,0.97 -23.19194,7.24 -1.548,1.16 -3.74699,0.85 -4.90599,-0.7 -1.017,-1.36 -0.899,-3.22 0.19,-4.44 z m 1.111,-0.93 c 10.00597,-7.73 17.78295,-9.63 27.07993,-9.54 13.19497,0.14 29.83393,5.03 63.35284,2.02 6.46999,-0.57 12.00897,-0.15 16.98896,0.84 9.30898,1.84 16.58396,5.82 24.34394,9.6 8.49898,4.14 17.69496,7.96 32.28092,6.97 9.72998,-0.64 18.51196,-8.1 20.29395,-17.61 1.476,-7.87 -2.36999,-16.72 -13.43097,-24.74 -3.62999,-2.67 -6.40998,-7.34 -8.50397,-13.47 -2.292,-6.72 -4.00799,-15.6399 -8.34198,-23.6699 -2.939,-5.44 -7.18299,-10.5 -14.23797,-13.68 -7.16098,-3.24 -12.97197,-4.44 -18.16795,-4.47 -6.77299,-0.05 -12.52597,1.66 -18.59696,3 -9.55197,2.11 -19.71895,3.57 -33.94191,-0.97 -9.40998,-3.03 -15.36597,-3.22 -19.43296,-0.88 -5.41898,3.12 -7.14698,9.69 -9.33597,15.6 -2.249,6.06 -4.70299,11.72 -8.80498,15.23 -2.05799,1.7599 -3.39099,3.5299 -4.18899,5.3299 -2.13499,4.84 -1.312,9.62 -1.85,13.33 -0.50499,3.49 -1.71299,6.39 -4.59698,8.52 -2.029,1.5 -4.21799,4.11 -6.47699,7.18 -4.95799,6.73 -10.10697,15.49 -14.31496,21.25 -0.038,0.05 -0.077,0.1 -0.117,0.16 z"
     id="path374"
     style="stroke:none;stroke-width:0.2" /><path
     d="m 714.2114,2825.6649 c -1.885,-0.43 -3.06299,-2.32 -2.629,-4.2 0.434,-1.89 2.318,-3.06 4.20299,-2.63 13.76497,2.54 22.34595,11.2 25.69794,20.47 4.36199,12.06 -0.193,25.33 -13.76597,31.56 -6.71198,3.04 -8.83397,10.46 -11.12397,16.95 -2.76799,7.85 -5.73498,14.88 -10.18397,18.38 -4.16199,3.27 -9.62398,4.55 -17.53496,1.5 -9.25698,-3.66 -16.24396,-1.94 -22.06294,0.03 -4.61999,1.57 -8.72398,3.25 -12.52397,3.94 -5.50099,1 -10.58498,0.37 -15.62996,-3.32 -4.82399,-3.61 -7.95799,-9.92 -10.01298,-17.49 -1.804,-6.65 -2.85099,-14.4 -6.21698,-20.12 -1.703,-2.9 -4.07299,-5.22 -8.09298,-5.83 -11.95097,-1.85 -19.65396,-4.76 -24.80294,-8.1 -6.35899,-4.12 -9.28898,-8.76 -11.14898,-13.16 -1.22499,-2.9 -1.69799,-5.66 -3.17199,-7.66 -3.22099,-4.36 -7.69098,-7.44 -12.33197,-9.4 -5.70398,-2.42 -11.58997,-3.36 -15.78096,-2.88 -1.91099,0.3 -3.70499,-1.01 -4.00399,-2.92 -0.299,-1.91 1.01,-3.71 2.921,-4 5.14598,-1.03 12.55996,-0.61 19.87395,1.82 6.29498,2.09 12.40096,5.8 17.06395,11.2 1.46,1.69 2.482,3.8 3.54699,6.14 1.256,2.76 2.589,6 5.99899,8.83 4.08099,3.39 10.98897,5.89 23.43094,6.97 8.85098,0.82 14.49197,5.35 18.54096,11.48 3.69599,5.6 5.74898,12.92 7.76798,19.82 0.85099,2.91 1.71299,5.71 2.77399,8.18 0.765,1.78 1.554,3.37 2.88499,4.3 1.221,0.86 2.476,0.67 3.79899,0.38 1.786,-0.38 3.64799,-1.06 5.65099,-1.77 5.60399,-1.98 11.98997,-4.21 19.61895,-4.23 5.27099,-0.01 11.12497,0.95 17.67796,3.79 1.20399,0.53 2.04099,1.09 2.80799,0.81 0.847,-0.31 1.357,-1.14 1.92199,-2.06 0.694,-1.14 1.336,-2.42 1.957,-3.79 2.95499,-6.55 5.71199,-14.66 10.67697,-20.63 2.944,-3.54 6.51199,-6.49 11.14898,-8.21 8.07498,-2.97 11.07097,-10.48 9.13597,-17.61 -1.92399,-7.1 -8.01998,-13.75 -18.08195,-16.54 z"
     id="path376"
     style="stroke:none;stroke-width:0.2" /><path
     d="m 644.61357,2898.5049 c 1.423,1.31 1.514,3.53 0.204,4.95 -1.311,1.43 -3.52999,1.52 -4.95299,0.21 -9.15498,-7.86 -21.54694,-14.17 -33.84091,-18.02 -11.59098,-3.63 -23.08695,-5.13 -31.36993,-2.86 -0.119,7.07 -1.99999,20.77 -13.05396,34.68 -9.07798,11.42 -24.63594,22.98 -51.07988,30.65 -5.86498,1.61 -13.92896,3.7 -23.40094,5.91 -10.38597,2.42 -22.45994,5.05 -35.09891,7.68 -31.85292,6.61 -67.24084,13.23 -88.01878,17.18 -8.97998,1.66 -19.16196,1.5 -28.55893,-0.79 -9.99998,-2.44 -19.09996,-7.14 -24.99394,-14.21 -1.287,-1.45 -1.158,-3.66 0.286,-4.95 1.44499,-1.29 3.66199,-1.16 4.94899,0.28 5.27498,5.55 13.14296,8.79 21.56494,10.28 8.18798,1.45 16.92996,1.1 24.54794,-0.79 l 144.52464,-35.93 c 17.85296,-4.62 30.08593,-11.32 38.46391,-18.57 18.74495,-16.21 17.40895,-34.86 17.40895,-34.86 -0.32499,-2.67 1.114,-5.24 3.556,-6.35 8.89997,-3.73 21.89994,-3.39 35.50791,0.66 15.62296,4.65 32.10292,13.75 43.35589,24.85 z"
     id="path378"
     style="stroke:none;stroke-width:0.2" /><path
     d="m 708.03741,2823.0849 c 0.594,-1.84 2.571,-2.85 4.41199,-2.26 1.841,0.6 2.853,2.58 2.259,4.42 -2.875,12 -9.89998,18.48 -20.79095,20.66 -6.77099,1.36 -15.30296,0.69 -25.77694,-2.04 -4.75199,-1.24 -9.87297,-3.04 -15.46696,-5.19 -6.14798,-2.52 -10.97997,-4.33 -15.00696,-5.68 -3.41099,-1.14 -6.13699,-1.93 -8.76498,-2.17 -4.60999,-0.42 -8.81898,0.53 -15.18596,2.53 -5.95599,1.78 -12.14097,2.1 -18.42296,1.17 -12.38997,-1.85 -24.91594,-8.02 -35.78291,-9.86 -1.92499,-0.19 -3.33599,-1.91 -3.14799,-3.83 0.188,-1.93 1.90399,-3.34 3.82899,-3.15 10.81297,0.29 23.83494,4.42 36.12591,4.66 4.40599,0.09 8.65998,-0.47 12.62497,-2.17 8.60998,-3.54 14.44796,-5.13 20.90395,-4.93 3.85299,0.11 7.95198,0.91 12.93097,2.59 4.35598,1.48 9.45797,3.77 16.00396,6.76 7.71698,3.79 14.49096,6.52 20.44794,8.25 5.09599,1.47 9.45398,2.34 13.29297,2.13 7.39398,-0.41 12.38997,-4.27 15.51596,-11.89 z"
     id="path380"
     style="stroke:none;stroke-width:0.2" /><path
     d="m 642.23858,2901.0849 c -20.14995,-18.56 -56.46086,-30.46 -73.93282,-22.49 0,0 5.36699,44 -59.88485,61.85 -28.40693,7.77 -109.29773,25.51 -145.52164,33.35 -16.97596,3.68 -38.8869,0.05 -49.83388,-12.24 9.06498,5.09 59.19986,-11.03 101.18475,-25.72 56.03686,-19.61 132.54267,-30.38 144.78364,-80.53 3.29299,-13.49 -3.87999,-26.46 -12.47797,-35.06 -2.02899,-2.03 -4.13899,-3.82 -6.20898,-5.31 -0.738,-0.53 -1.463,-1.2 -2.187,-1.96 24.30894,-18.21 33.41892,-1.42 89.30478,-5.17 31.91392,-2.14 38.47391,20.65 73.59782,18.86 3.57999,-0.18 7.07398,-1.06 10.30997,-2.5 -6.27398,19.44 -23.39794,21.45 -55.64586,7.47 -23.54194,-10.21 -28.10293,-10.77 -44.39789,-4.87 -16.29596,5.91 -35.96691,-4.08 -51.47787,-5.59 6.92598,1.75 14.23297,5.46 19.23095,11.72 5.38599,6.74 2.114,21.32 36.04991,25.43 21.25795,2.58 16.66096,33.14 27.10694,42.76 z"
     id="path382"
     style="stroke:none;stroke-width:0.2" /><path
     d="m 289.20045,2782.4449 c -0.56,1.86 -2.51699,2.9 -4.36899,2.34 -1.85199,-0.56 -2.90099,-2.51 -2.34199,-4.36 4.64299,-19.2 23.12094,-36.6199 45.16989,-44.8099 12.90496,-4.79 27.05393,-6.29 40.0629,-3.42 9.07297,2.01 17.54695,6.31 24.87394,12.8 8.50497,7.96 16.88795,17.2599 24.26794,26.6699 17.44795,22.22 29.82992,44.1 29.82992,44.1 1.056,1.62 0.598,3.79 -1.023,4.85 -1.61999,1.06 -3.79399,0.6 -4.84998,-1.02 0,0 -11.73798,-15.63 -27.73994,-33.29 -9.21297,-10.17 -19.77295,-21.04 -30.57692,-29.67 -5.44499,-4.6199 -11.76397,-7.3299 -18.35495,-8.9099 -10.38698,-2.48 -21.58395,-1.88 -32.21592,1.08 -19.37096,5.39 -36.95391,17.7799 -42.7329,33.6399 z"
     id="path384"
     style="stroke:none;stroke-width:0.2" /><path
     d="m 393.78519,2755.255 c 1.651,-1.01 3.80999,-0.49 4.81699,1.1699 1.008,1.65 0.485,3.81 -1.166,4.81 0,0 -4.99198,5.33 -11.95797,12.61 -2.42799,2.54 -4.95698,5.35 -7.79798,8.05 -2.18699,2.08 -4.58999,3.97 -6.84398,6 -2.29799,2.07 -4.59899,3.93 -6.60698,6.07 -2.709,2.88 -5.16699,5.49 -6.60599,8.65 -0.455,1.88 -2.35099,3.03 -4.23099,2.58 -1.88099,-0.46 -3.03699,-2.36 -2.58199,-4.24 0.227,-4.64 1.73099,-9.24 3.93699,-14.09 1.289,-2.83 2.90399,-5.52 4.76799,-8.2 1.88299,-2.71 4.00399,-5.28 6.35498,-7.6 1.25,-1.23 2.609,-2.32 3.97699,-3.35 2.148,-1.62 4.27799,-3.08 6.43199,-4.32 9.64597,-5.56 17.50595,-8.1399 17.50595,-8.1399 z"
     id="path386"
     style="stroke:none;stroke-width:0.2" /><path
     d="m 394.72719,2823.3749 c 1.872,-0.49 3.78799,0.64 4.27499,2.51 0.488,1.87 -0.636,3.79 -2.50799,4.27 0,0 -3.585,2.92 -8.77598,7.74 -1.635,1.51 -3.18599,3.35 -5.12699,5.14 -1.387,1.27 -2.99999,2.38 -4.53099,3.75 -1.49199,1.35 -3.10499,2.48 -4.59899,4.06 -1.84299,1.95 -3.69899,3.7 -5.32898,6.21 -0.601,1.83 -2.582,2.84 -4.42099,2.24 -1.838,-0.6 -2.843,-2.59 -2.241,-4.42 0.28,-4.55 1.28,-8.29 2.624,-12.06 0.63899,-1.8 1.47199,-3.34 2.37399,-4.9 1.356,-2.36 2.96799,-4.4 4.75899,-6.15 1.012,-0.98 2.12599,-1.8 3.25399,-2.52 1.833,-1.17 3.60099,-2.15 5.41299,-2.86 2.10599,-0.83 3.94499,-1.45 5.78098,-1.84 5.60499,-1.19 9.05198,-1.17 9.05198,-1.17 z"
     id="path388"
     style="stroke:none;stroke-width:0.2" /><path
     d="m 411.20915,2665.145 c 1.199,15.1 -3.06799,22.33 -8.26698,25.67 -3.46099,2.22 -7.70498,3.1 -12.35497,2.82 -4.47599,-0.28 -9.39498,-1.57 -13.89197,-2.73 -2.09199,-0.54 -5.14898,-2 -6.65098,-2.1 -1.73099,3.08 -3.75799,5.3 -6.12398,7.02 -2.672,1.95 -5.74799,3.28 -9.30498,4.54 -4.69099,1.65 -10.38497,3.26 -16.92696,7.8 -6.33098,4.38 -10.57297,9.29 -12.38397,15.2 -1.78399,5.81 -1.33399,12.44 1.275,20.1 0.748,2.03 -0.118,4.31 -2.03,5.33 -1.91199,1.03 -4.28499,0.48 -5.56198,-1.27 0,0 -5.63399,-8.16 -12.34797,-15.97 -2.98799,-3.47 -6.17399,-6.89 -9.17298,-9.45 -3.77399,-2.91 -6.07498,-6.06 -7.61498,-9.22 -2.10899,-4.33 -2.63899,-8.73 -3.29199,-12.79 -0.505,-3.13 -0.942,-6.04 -3.49199,-8.1 -6.48999,-5.23 -9.44898,-11.67 -10.37898,-18.47 -1.31399,-9.62 1.863,-20.16 5.30599,-29.17 0.71,-1.86 -0.245,-3.53 -1.302,-5.28 -1.83699,-3.05 -4.60699,-6.07 -7.04198,-9.3 -3.12299,-4.14 -5.66399,-8.6 -6.50298,-13.4 -3.117,-17.9 2.60799,-35.02 21.37994,-37.11 11.61397,-1.29 29.98293,4.06 57.07286,22.28 1.429,0.96 2.91799,0.56 4.42799,0.06 1.893,-0.63 3.79399,-1.64 5.74799,-2.69 6.97598,-3.73 14.40296,-7.67 21.87194,-7.36 7.92798,0.32 16.82496,4.68 25.11194,20.35 2.039,3.9 3.58899,6.04 5.45999,6.87 2.40999,1.07 4.75998,0.18 7.12598,0.13 4.99699,-0.12 10.03297,0.63 15.33896,5.54 13.50097,12.57 13.66797,21.65 10.83397,27.06 -1.44399,2.76 -3.86299,5.17 -7.14398,7.01 -3.98199,2.24 -9.45497,3.75 -14.39396,5.1 -1.501,0.41 -3.42599,1.06 -4.77199,1.53 z m -41.1779,23.66 c -0.599,-0.03 -0.947,0.15 -0.881,0.71 0.059,0.5 0.53,-0.14 0.881,-0.71 z m 53.58087,-44.02 c -0.815,-2.35 -3.31599,-5.04 -7.48698,-8.77 -1.427,-1.28 -2.816,-1.35 -4.14399,-1.31 -1.464,0.04 -2.917,0.21 -4.37399,0.27 -3.23699,0.14 -6.46499,-0.17 -9.78598,-1.61 -4.12199,-1.79 -8.70598,-5.48 -13.21596,-14.03 -4.24099,-8.13 -7.59099,-11.76 -11.69298,-11.97 -2.50699,-0.13 -4.93798,0.87 -7.36798,1.99 -3.53999,1.63 -7.02098,3.65 -10.41397,5.16 -7.71398,3.42 -15.12096,4.37 -22.11095,-0.6 -22.45394,-16.07 -37.3719,-22.1 -47.22588,-21.32 -10.74997,0.84 -12.20197,11.66 -10.79397,21.93 0.6,4.42 3.78999,8.27 6.56598,12.05 2.78599,3.8 5.35299,7.5 6.52198,11.17 1.12,3.51 1.243,7.01 -0.30099,10.59 -3.197,7.4 -6.51499,16.03 -5.75999,24.11 0.439,4.7 2.29899,9.18 6.59598,12.97 3.44799,3.04 4.89799,6.75 5.58199,10.99 0.658,4.08 0.478,8.74 2.46499,13.35 1.005,2.34 2.583,4.68 5.20999,6.91 3.38899,2.61 7.03798,6.13 10.46297,9.74 0.835,0.88 1.657,1.77 2.457,2.65 0.01,-2.91 0.37,-5.69 1.056,-8.36 2.06799,-8.03 7.23798,-15.05 15.47796,-21.3 9.42297,-7.15 17.30995,-8.66 23.17894,-11.79 2.00199,-1.07 3.59699,-2.47 4.77599,-4.91 1.55299,-3.22 4.32399,-5.01 8.13598,-5.62 2.31899,-0.37 5.26198,-0.12 8.53898,0.48 3.68299,0.68 7.93998,1.85 12.03697,2.42 2.75699,0.39 5.43398,0.77 7.34898,-0.56 0.956,-0.66 1.304,-1.94 1.62299,-3.7 0.534,-2.94 0.386,-6.83 -0.39699,-11.93 -0.566,-3.69 0.78599,-6.95 4.20199,-9.62 2.05799,-1.62 5.50498,-3.04 9.53097,-4.29 3.66899,-1.14 7.96598,-2.23 11.35397,-3.85 0.635,-0.3 1.465,-0.89 1.95,-1.24 z"
     id="path390"
     style="stroke:none;stroke-width:0.2" /><path
     d="m 55.521031,2682.815 c -16.815958,-16.1 -17.420956,-30.52 -12.655968,-41.88 4.845988,-11.54 16.678958,-20.21 25.155937,-25.21 -2.069994,-2.68 -4.317989,-5.86 -6.271984,-9.25 -2.792993,-4.84 -4.927988,-10.11 -5.559986,-15.02 -0.994998,-7.71 1.218997,-14.75 8.665978,-19.72 16.739959,-11.02 32.621919,-12.57 46.979882,-9.51 16.85796,3.59 31.53992,13.77 42.7329,21.64 3.42899,2.41 6.48598,4.57 9.15597,6.13 1.539,0.9 2.696,1.8 3.75199,1.8 13.74597,0.08 23.96894,2.23 31.96492,8.23 7.22799,5.42 12.85697,14.01 17.20996,27.76 2.94799,9.32 4.02499,17.17 1.742,24.07 -2.134,6.46 -7.04199,12.38 -16.78596,17.65 -1.491,0.8 -1.96,2.71 -2.26,4.97 -0.50899,3.85 -0.093,8.63 0.882,13.55 1.624,8.2 4.71899,16.79 7.95598,22.38 1.01,1.65 0.49,3.81 -1.15999,4.82 -1.651,1.01 -3.80999,0.49 -4.81899,-1.16 -5.45899,-8.45 -10.94598,-23.41 -11.79197,-34.84 -0.627,-8.48 1.77799,-15.1 6.50698,-17.95 6.62298,-3.97 10.23398,-7.9 11.52397,-12.47 1.44,-5.08 -0.074,-10.69 -2.50799,-17.37 -3.82999,-10.51 -8.08498,-17.22 -13.84797,-21.19 -6.20998,-4.29 -14.07596,-5.12 -24.44794,-4.81 -3.77399,0.11 -9.17497,-2.14 -15.57396,-6.18 -10.58997,-6.69 -25.60593,-18.54 -43.29189,-21.95 -10.793974,-2.08 -22.631945,-0.71 -35.056914,7.71 -1.634996,1.09 -1.896995,2.72 -1.681996,4.42 0.264,2.08 1.069998,4.25 2.076995,6.38 4.15799,8.8 11.838971,16.86 11.838971,16.86 1.812995,1.88 2.568994,4.53 2.017995,7.08 -0.550999,2.55 -2.337994,4.66 -4.762988,5.61 0,0 -8.16198,3.11 -15.926961,8.98 -4.344989,3.27 -8.679978,7.38 -10.974973,12.45 -3.430991,7.58 -1.480996,16.83 10.455975,28.19 1.610996,1.53 3.177992,4.48 2.183994,8.86 -0.632998,2.78 -2.583993,7.22 -3.96899,11.87 -0.829998,2.78 -1.736996,5.66 -0.915998,7.98 0.433999,1.23 1.643996,1.93 3.626991,2.36 3.239992,0.72 7.729981,0.68 13.863966,-0.26 4.336989,-0.65 7.99398,0.17 11.218972,1.97 4.823988,2.7 8.554981,7.91 12.497971,12.02 2.28399,2.38 4.64999,4.46 8.41998,2.77 7.50798,-3.36 19.66995,-4.86 31.49092,-4.75 13.42297,0.13 26.32793,2.25 31.31592,5.09 1.704,0.91 2.344,3.04 1.428,4.74 -0.916,1.71 -3.04299,2.35 -4.74699,1.43 -4.51999,-2.29 -16.03396,-3.25 -27.88793,-2.83 -10.35598,0.36 -20.99695,1.87 -27.44693,5.09 -4.25299,2.13 -7.91098,2.19 -11.17198,1.3 -4.58298,-1.25 -8.437974,-5.05 -12.235965,-9.12 -3.123992,-3.34 -5.979985,-7.45 -10.938973,-6.48 -20.607949,3.97 -28.407929,-2.29 -31.056923,-8.98 -1.497996,-3.78 -1.417996,-8.41 -0.481999,-13.08 0.893998,-4.46 2.660994,-8.95 3.565991,-12.15 z"
     id="path392"
     style="stroke:none;stroke-width:0.2" /><path
     d="m 270.4505,2749.475 c -1.599,1.09 -3.78099,0.68 -4.86999,-0.92 -1.089,-1.6 -0.675,-3.79 0.923,-4.87 3.78199,-2.96 10.84697,-3.71 18.73895,-2.85 3.43599,0.38 7.01698,1.08 10.49698,1.98 -0.042,-0.07 -0.084,-0.14 -0.127,-0.22 -1.118,-1.89 -2.369,-3.71 -3.66799,-5.25 -0.827,-0.98 -1.605,-1.85 -2.501,-2.12 -10.22897,-3.14 -17.79095,-6.44 -23.20094,-11.47 -6.01299,-5.6 -9.67398,-13.27 -11.06297,-25.23 -0.649,-7.3 -4.30799,-13.76 -9.84198,-17.13 -5.41799,-3.3 -12.37197,-3.82 -19.49995,0.5 -6.50498,3.89 -12.23697,10.4 -18.80195,12.41 -3.66,1.12 -7.52299,1.29 -11.77998,-0.7 -1.80099,-0.71 -2.68799,-2.75 -1.98099,-4.55 0.707,-1.8 2.74299,-2.69 4.54399,-1.98 3.31999,1.07 5.94898,0.01 8.39398,-1.64 4.74899,-3.2 8.79498,-8.67 13.63096,-12.37 10.96998,-8.29 22.60395,-8.09 31.98292,-3.45 9.64898,4.77 16.72896,14.96 18.70296,26.97 1.003,7.34 3.00199,12.09 6.65198,15.58 3.95899,3.79 9.49698,6.3 16.96096,8.99 3.52499,1.33 7.23798,4.47 10.12197,8.99 5.43599,8.53 9.01098,21.42 9.01098,21.42 0.764,2.37 -0.004,4.9599 -1.93399,6.5299 -1.931,1.57 -4.62699,1.79 -6.78599,0.55 -5.28298,-3.4399 -13.40196,-7.0099 -20.87294,-8.7899 -5.39399,-1.28 -10.34398,-2.08 -13.23197,-0.38 z"
     id="path394"
     style="stroke:none;stroke-width:0.2" /><path
     d="m 163.48276,2777.4049 c 0.893,-1.72 3.011,-2.39 4.72699,-1.5 1.716,0.9 2.385,3.02 1.492,4.73 -6.07299,13.07 -5.13599,25.31 -0.285,36.14 7.56898,16.9 24.86694,30.2 41.4559,37.51 9.30497,4.31 19.11195,8.18 28.77592,11.86 6.63099,2.52 13.20397,4.92 19.55596,7.19 20.70794,7.4 39.1379,13.05 49.63087,15.43 5.38299,1.29 10.61598,2.36 15.10497,2.44 2.84899,0.06 5.34898,0.03 7.00898,-1.26 2.41299,-1.88 2.36899,-5.54 0.754,-11.75 -0.542,-1.78 0,-3.72 1.38799,-4.96 1.388,-1.25 3.37099,-1.57 5.08399,-0.84 0,0 7.45198,3.57 16.30696,6.97 3.61399,1.39 7.44198,2.77 11.10497,3.85 1.879,0.46 3.02899,2.36 2.568,4.24 -0.462,1.88 -2.362,3.03 -4.24099,2.57 -4.95099,-0.99 -10.23198,-2.43 -14.95397,-3.86 -2.17599,-0.66 -4.22799,-1.33 -6.06698,-1.94 0.604,6.77 -1.593,11.26 -4.80899,14.19 -2.60099,2.38 -6.25198,3.77 -10.64197,4.41 -5.88599,0.86 -13.40697,0.07 -21.19095,-1.21 -10.97497,-1.92 -30.47592,-6.33 -52.13287,-13.35 -6.61598,-2.15 -13.41897,-4.57 -20.22695,-7.25 -10.00298,-3.94 -19.98895,-8.48 -29.51993,-13.26 -18.64995,-9.8 -37.6669,-26.72 -44.88189,-47 -4.79198,-13.47 -4.70098,-28.32 3.99299,-43.35 z"
     id="path396"
     style="stroke:none;stroke-width:0.2" /><path
     d="m 301.85342,2831.6349 c -1.233,-1.49 -1.024,-3.7 0.466,-4.93 1.49,-1.24 3.70099,-1.03 4.93499,0.46 5.11198,4.71 11.75897,9.48 20.01395,14.86 3.58099,2.33 7.47598,4.63 11.62597,7.18 2.48999,1.53 5.02899,3.19 7.69098,4.88 4.59799,2.92 9.39598,6.03 14.80996,9.04 4.92399,2.74 9.98598,5.58 15.73396,8.21 1.852,0.56 2.899,2.52 2.338,4.37 -0.561,1.85 -2.52,2.9 -4.37099,2.34 -9.63398,-1.62 -18.17696,-3.58 -25.95694,-6.34 -6.06598,-2.15 -11.54397,-4.65 -16.41596,-7.52 -2.14899,-1.26 -4.11699,-2.69 -5.98498,-4.12 -3.03699,-2.32 -5.79799,-4.67 -8.25898,-7.13 -7.56198,-7.54 -12.64597,-14.9 -16.62596,-21.3 z"
     id="path398"
     style="stroke:none;stroke-width:0.2" /><path
     d="m 166.59276,2779.0149 c 45.50688,88.5 164.06259,111.43 159.2726,102.22 -6.90098,-13.26 -13.86596,-31.84 -21.31095,-51.83 11.66497,14.09 32.59392,33.47 71.55783,45.28 -3.98099,4.04 -7.76698,8.03 -11.36098,11.93 -13.05096,-3.2 -28.46392,-9.81 -28.46392,-9.81 6.91798,22.77 -10.16498,22.13 -28.74393,18.39 -18.82396,-3.79 -63.05085,-16.39 -99.92076,-34.17 -29.14292,-14.06 -59.55685,-46.39 -41.02989,-82.01 z"
     id="path400"
     style="stroke:none;stroke-width:0.2" /><path
     d="m 161.51477,2740.125 c 1.90699,0.32 3.19399,2.13 2.87099,4.04 -0.323,1.91 -2.13299,3.19 -4.04099,2.87 -6.27798,-0.56 -14.12796,-4.36 -21.30495,-5.76 -2.23199,-0.44 -4.34098,-0.48 -6.20898,0.2 -3.19999,1.13 -10.35397,3.62 -19.05495,6.15 -6.04399,1.75 -12.79797,3.55 -19.431955,4.96 -4.628988,0.99 -9.200977,1.77 -13.408967,2.27 -5.696985,0.67 -10.770973,0.79 -14.577963,0.45 -21.667947,-2.51 -29.629927,-12.62 -30.200926,-23.11 -0.215999,-3.98 0.507999,-8.11 2.274995,-12.01 3.548991,-7.84 10.504974,-14.94 18.264955,-17.79 1.760995,-0.8 3.84099,-0.02 4.641988,1.74 0.799998,1.76 0.02,3.84 -1.740996,4.64 -7.482981,4.09 -13.285967,13.95 -11.78497,22.06 0.450998,2.44 2.033995,4.45 4.541988,6.08 3.291992,2.12 8.17998,3.13 14.938963,3.22 4.407989,0.19 10.780974,-0.88 17.823956,-2.02 5.725986,-0.92 11.853971,-1.94 17.715952,-2.98 11.87197,-2.11 22.62195,-4.11 26.75194,-5.03 3.84799,-0.81 8.00398,-0.45 12.23697,1.07 6.74698,2.42 13.70296,7.44 19.69295,8.95 z"
     id="path402"
     style="stroke:none;stroke-width:0.2" /><path
     d="m 160.92977,2743.575 c -8.97798,-1.52 -20.83995,-10.32 -29.72193,-7.79 -8.88097,2.54 -48.561876,12.91 -64.382837,11.93 -37.769906,-2.33 -25.835936,-34.33 -8.677978,-42.13 1.812995,5.36 8.16198,8.63 24.375939,5.83 14.959963,-2.59 18.320956,22.59 33.240916,15.52 14.91997,-7.06 50.14188,-5.76 59.07186,-0.96 -6.26399,5.16 -11.10698,11.26 -13.90597,17.6 z"
     id="path404"
     style="stroke:none;stroke-width:0.2" /></g>&#10;</svg>
