<?xml version="1.0" encoding="UTF-8" standalone="no"?>
<svg
   width="3382.6025"
   height="2720.2678"
   viewBox="0 0 3382.6026 2720.2678"
   version="1.1"
   xml:space="preserve"
   style="clip-rule:evenodd;fill-rule:evenodd;stroke-linejoin:round;stroke-miterlimit:2"
   id="svg5353"
   xmlns="http://www.w3.org/2000/svg"
   xmlns:svg="http://www.w3.org/2000/svg"><defs
   id="defs5353" />&#10;    <g
   id="vectorly-UNI-report"
   style="stroke:none;stroke-width:0.2"
   transform="matrix(4.9999999,0,0,4.9999999,-12534.721,-4507.0768)"><path
     d="m 2789.4941,1161.2668 c 1.34,-1.39 3.56,-1.44 4.956,-0.1 1.395,1.34 1.44,3.56 0.101,4.96 -8.0799,9.66 -15.3569,20.26 -22.1799,31.33 -4.454,7.22 -8.585,14.64 -12.524,22.14 -3.294,6.28 -6.353,12.63 -9.328,18.95 -3.0359,6.44 -5.9629,12.84 -8.6159,19.22 -4.685,11.26 -8.645,22.34 -11.399,33.1399 -3.107,12.19 -4.975,23.8 -4.87,34.59 0.145,1.93 -1.304,3.61 -3.233,3.75 -1.929,0.15 -3.613,-1.3 -3.757,-3.23 -2.271,-16.58 -0.986,-35.73 3.851,-55.7099 2.821,-11.65 6.795,-23.57 12.016,-35.24 2.011,-4.5 4.302,-8.91 6.725,-13.27 3.587,-6.47 7.4859,-12.81 11.7459,-18.93 10.691,-15.35 23.163,-29.37 36.5119,-41.6 z"
     id="path900"
     style="stroke:none;stroke-width:0.2" /><path
     d="m 2605.0906,1001.8569 c 1.715,-0.89 3.834,-0.23 4.728,1.49 0.895,1.71 0.229,3.83 -1.486,4.73 -8.419,5.19 -17.254,14.82 -25.4559,28.25 -4.099,6.71 -7.886,14.3999 -11.429,23.0199 -2.329,5.67 -4.483,11.75 -6.564,18.21 -1.906,5.91 -3.797,12.11 -5.432,18.71 -2.236,9.02 -4.173,18.65 -5.512,29.04 -1.212,9.41 -2.11,19.3 -2.333,29.86 0.095,1.93 -1.396,3.58 -3.328,3.67 -1.9319,0.1 -3.5779,-1.4 -3.6729,-3.33 -2.175,-18.85 -2.48,-36.07 -0.868,-51.75 1.286,-12.51 3.6729,-23.99 6.9939,-34.32 1.492,-4.64 3.272,-9.01 5.153,-13.16 3.105,-6.84 6.516,-13.0699 10.208,-18.6399 12.466,-18.79 26.8869,-30.49 38.9979,-35.78 z"
     id="path902"
     style="stroke:none;stroke-width:0.2" /><path
     d="m 2630.8045,1112.1068 c 1.09,-1.6 3.273,-2.01 4.871,-0.92 1.598,1.09 2.011,3.27 0.921,4.87 -1.295,2.7 -2.451,8.29 -3.986,15.6 -1.017,4.84 -1.888,10.32 -2.944,16.19 -0.501,2.79 -1.036,5.65 -1.666,8.53 -0.9189,4.2 -2.0219,8.4 -2.8779,12.68 -1.587,7.93 -2.971,15.63 -2.626,23.04 0.35,1.91 -0.91,3.74 -2.812,4.09 -1.903,0.35 -3.732,-0.91 -4.082,-2.81 -2.585,-7.86 -3.956,-16.52 -4.087,-25.53 -0.083,-5.74 0.339,-11.5 1.327,-17.04 0.404,-2.26 1.008,-4.45 1.647,-6.59 1.011,-3.38 2.125,-6.6 3.395,-9.59 4.73,-11.16 9.9629,-19.29 12.9199,-22.52 z"
     id="path904"
     style="stroke:none;stroke-width:0.2" /><path
     d="m 3168.4752,1099.4968 c 1.815,-0.67 3.833,0.26 4.505,2.07 0.671,1.82 -0.256,3.84 -2.07,4.51 0,0 -91.8008,36.39 -171.5556,67.28 -25.2559,9.79 -49.3188,18.96 -68.8358,26.34 -20.161,7.63 -35.4779,13.32 -42.2299,15.81 -2.876,9.47 -11.363,34.38 -29.4529,66.47 -10.709,18.9899 -24.812,40.5299 -43.1069,62.8499 -27.4869,33.52 -64.4439,68.8 -113.3967,100.05 -1.61,1.08 -3.788,0.64 -4.859,-0.97 -1.072,-1.61 -0.634,-3.79 0.976,-4.86 46.7639,-32.4 81.5138,-68.39 107.3397,-102.1 17.017,-22.22 30.0869,-43.46 40.0659,-62.0999 21.188,-39.59 28.1239,-67.37 28.1239,-67.37 0.642,-2.56 2.503,-4.63 4.974,-5.55 0,0 18.463,-6.88 46.1299,-16.91 19.619,-7.11 43.8509,-15.82 69.3878,-24.84 80.6448,-28.5 174.0046,-60.68 174.0046,-60.68 z"
     id="path906"
     style="stroke:none;stroke-width:0.2" /><path
     d="m 2698.3874,1432.6467 c 1.152,1.55 0.826,3.75 -0.729,4.9 -1.554,1.15 -3.751,0.83 -4.903,-0.73 l -184.4906,-243.4999 c -2.1049,-2.84 -1.6479,-6.82 1.047,-9.11 31.03,-26.74 58.7799,-56.55 82.8538,-89.86 23.228,-32.14 43.0309,-67.5599 58.7159,-106.88993 0.888,-2.2 2.711,-3.9 4.974,-4.61999 0,0 48.2429,-15.43 103.0327,-32.69999 71.7678,-22.60999 154.7496,-48.40998 154.7496,-48.40998 2.045,-0.65 4.281,-0.27 5.996,1.02 l 247.7814,190.43989 c 1.545,1.17 1.855,3.37 0.692,4.91 -1.164,1.55 -3.363,1.86 -4.908,0.7 0,0 -248.7194,-183.4199 -248.7194,-183.4199 -15.8279,5.22 -87.6487,28.85999 -150.8926,49.43998 -45.8729,14.93 -87.2378,28.21999 -99.3157,32.09999 -16.202,39.07003 -36.265,74.40993 -59.8649,106.36993 -23.8509,32.3 -51.2849,61.15 -81.6568,87.14 z"
     id="path908"
     style="stroke:none;stroke-width:0.2" /><path
     d="m 2655.8395,992.94687 c -1.382,-1.35 -1.404,-3.57 -0.05,-4.96 1.354,-1.38 3.575,-1.4 4.956,-0.05 0,0 30.8209,27.46003 69.4818,63.19993 8.847,8.17 18.047,16.83 27.3689,25.7 5.996,5.71 12.06,11.49 18.009,17.39 15.1999,15.06 30.1119,30.39 43.8719,44.62 36.5849,37.85 64.7018,68.07 64.7018,68.07 1.382,1.35 1.404,3.58 0.05,4.96 -1.354,1.38 -3.575,1.4 -4.956,0.05 0,0 -30.7829,-27.51 -69.3578,-63.32 -14.508,-13.47 -30.1389,-28.07 -45.5019,-42.97 -6.014,-5.82 -11.912,-11.77 -17.7399,-17.65 -9.062,-9.14 -17.901,-18.17 -26.255,-26.85 -36.5049,-37.9299 -64.5788,-68.18993 -64.5788,-68.18993 z"
     id="path910"
     style="stroke:none;stroke-width:0.2" /><path
     d="m 3122.6643,1089.8768 c 1.515,1.2 1.769,3.41 0.567,4.92 -1.203,1.52 -3.409,1.77 -4.925,0.57 0,0 -209.1734,-161.8499 -209.1734,-161.8499 -14.222,5.06999 -69.9339,24.89999 -119.1388,42.18998 -28.4969,10.01999 -54.8138,19.17999 -69.5598,24.28999 16.147,15.60003 50.8049,49.11993 85.3548,82.74993 40.5699,39.49 80.9868,79.13 91.6278,89.57 l 198.6895,-72.81 c 1.808,-0.68 3.834,0.23 4.522,2.04 0.687,1.8 -0.223,3.83 -2.031,4.52 l -200.5345,79.01 c -2.203,0.83 -4.691,0.33 -6.391,-1.31 0,0 -48.1189,-45.11 -96.0418,-90.43 -47.9198,-45.33 -95.6387,-90.8599 -95.6387,-90.8599 -2.008,-1.93 -2.869,-4.76003 -2.273,-7.48003 0.596,-2.72 2.564,-4.93 5.194,-5.84 0,0 38.3889,-13.27999 82.0048,-28.12999 57.1328,-19.43999 123.2127,-41.59998 123.2127,-41.59998 2.1979,-0.76 4.6319,-0.34 6.4539,1.11 z"
     id="path912"
     style="stroke:none;stroke-width:0.2" /><path
     d="m 2774.6252,1005.9569 c 0.181,0.09 0.444,0.2 0.581,0.32 0.587,0.54 1.394,0.64 2.152,0.88 1.822,0.58 3.885,0.53 5.989,0.6 5.171,0.19 10.5909,0 14.8629,0.87 4.568,0.93 8.248,2.79 10.547,5.95 5.164,7.49 4.98,18.07 -4.43,22.64 -5.062,2.46 -13.552,3.47 -25.9869,-2.02 -1.844,-0.59 -2.868,-2.56 -2.284,-4.4 0.583,-1.84 2.555,-2.87 4.399,-2.28 5.582,1.09 9.9059,1.02 13.2909,0.44 2.649,-0.46 4.211,-1.61 4.985,-2.97 0.45,-0.8 -0.539,-1.48 -1.192,-2.15 -0.069,-0.07 -0.14,0.22 -0.242,0.19 -0.32,-0.11 -0.683,-0.1 -1.051,-0.15 -1.421,-0.23 -3.021,-0.11 -4.712,-0.12 -4.2459,-0.03 -8.9159,0.05 -13.1379,-0.68 -5.433,-0.95 -10.259,-3 -13.584,-6.98 -3.212,-4.03 -4.353,-7.71 -3.735,-10.98 0.503,-2.66 1.557,-5.30003 3.951,-7.28003 2.179,-1.81 5.143,-3.52 8.966,-4.26 5.284,-1.01 11.943,-0.97 18.7039,1.22 1.898,0.37 3.136,2.21 2.764,4.11 -0.373,1.90003 -2.217,3.14003 -4.115,2.77003 -4.3479,-0.32 -8.3739,0.39 -11.8029,1.46 -2.784,0.87 -7.192,3.07 -5.569,3.74 0.266,0.11 0.594,-0.55 0.65,-0.92 z m 0,0 c -0.162,-0.08 -0.26,-0.15 -0.15,-0.22 0.139,-0.07 0.176,0.04 0.15,0.22 z"
     id="path914"
     style="stroke:none;stroke-width:0.2" /><path
     d="m 2761.9712,992.76687 c -1.284,-1.44 -1.153,-3.66 0.293,-4.94 1.447,-1.29 3.664,-1.16 4.949,0.29 0,0 7.154,5.14 15.952,12.69003 1.975,1.69 3.948,3.53 5.9289,5.48 1.265,1.24 2.543,2.5 3.7,3.87 2.973,3.53 5.607,7.26 8.019,10.78 6.532,9.54 10.847,17.23 10.847,17.23 1.285,1.44 1.154,3.66 -0.293,4.94 -1.446,1.29 -3.663,1.16 -4.948,-0.29 0,0 -7.126,-5.19 -15.821,-12.8 -3.2089,-2.81 -6.6109,-5.87 -9.7599,-9.24 -1.225,-1.31 -2.326,-2.73 -3.412,-4.13 -1.702,-2.2 -3.29,-4.38 -4.738,-6.54 -6.453,-9.62 -10.717,-17.34003 -10.717,-17.34003 z"
     id="path916"
     style="stroke:none;stroke-width:0.2" /><path
     d="m 2830.953,978.66688 c -1.8009,0.71 -3.8359,-0.18 -4.5419,-1.98 -0.705,-1.8 0.184,-3.84 1.985,-4.54 0,0 6.9639,-4.8 16.6749,-10.3 2.176,-1.23 4.478,-2.41 6.89,-3.54999 1.539,-0.73 3.097,-1.47 4.717,-2.05 4.167,-1.51 8.414,-2.62 12.393,-3.61 10.7949,-2.67 19.1649,-3.94 19.1649,-3.94 1.801,-0.7 3.836,0.19 4.542,1.99 0.706,1.8 -0.184,3.84 -1.985,4.54 0,0 -7,4.75999 -16.739,10.12999 -3.589,1.98 -7.4619,4.05 -11.5429,5.77 -1.587,0.67 -3.232,1.19 -4.857,1.7 -2.55,0.8 -5.038,1.5 -7.471,2.07 -10.857,2.57 -19.23,3.77 -19.23,3.77 z"
     id="path918"
     style="stroke:none;stroke-width:0.2" /><path
     d="m 2860.8687,1012.5119 c -1.8009,0.71 -3.8359,-0.18 -4.5419,-1.98 -0.705,-1.8 0.184,-3.84 1.985,-4.54 0,0 6.9639,-4.8 16.6749,-10.30002 2.176,-1.23 4.478,-2.41 6.89,-3.54999 1.539,-0.73 3.097,-1.47 4.717,-2.05 4.167,-1.51 8.414,-2.62 12.393,-3.61 10.7949,-2.67 19.1649,-3.94 19.1649,-3.94 1.801,-0.7 3.836,0.19 4.542,1.99 0.706,1.8 -0.184,3.84 -1.985,4.54 0,0 -7,4.75999 -16.739,10.12999 -3.589,1.98002 -7.4619,4.05002 -11.5429,5.77002 -1.587,0.67 -3.232,1.19 -4.857,1.7 -2.55,0.8 -5.038,1.5 -7.471,2.07 -10.857,2.57 -19.23,3.77 -19.23,3.77 z"
     id="path920"
     style="stroke:none;stroke-width:0.2" /><path
     d="m 2875.6763,1030.4582 c -1.8009,0.71 -3.8359,-0.18 -4.5419,-1.98 -0.705,-1.8 0.184,-3.84 1.985,-4.54 0,0 6.9639,-4.8 16.6749,-10.3 2.176,-1.23 4.478,-2.41 6.89,-3.55 1.539,-0.73 3.097,-1.47 4.717,-2.05 4.167,-1.51 8.414,-2.62 12.393,-3.61 10.7949,-2.67 19.1649,-3.94 19.1649,-3.94 1.801,-0.70001 3.836,0.19 4.542,1.99 0.706,1.8 -0.184,3.84 -1.985,4.54 0,0 -7,4.76 -16.739,10.13 -3.589,1.98 -7.4619,4.05 -11.5429,5.77 -1.587,0.67 -3.232,1.19 -4.857,1.7 -2.55,0.8 -5.038,1.5 -7.471,2.07 -10.857,2.57 -19.23,3.77 -19.23,3.77 z"
     id="path922"
     style="stroke:none;stroke-width:0.2" /><path
     d="m 2897.3959,1137.5968 c -0.222,1.92 -1.962,3.3 -3.884,3.08 -1.921,-0.22 -3.301,-1.96 -3.079,-3.88 l 1.868,-42.17 c 0.225,-1.95 1.32,-3.69 2.978,-4.74 0,0 13.346,-9.62 25.2229,-17.53 8.098,-5.39 15.52,-9.93 16.988,-10.82 1.905,-1.49 8.614,-6.71 16.1819,-12.38 10.184,-7.6199 21.85,-16.0399 24.797,-18.1699 l 11.385,-21.21 c 0.7939,-1.76 2.8709,-2.55 4.6349,-1.76 1.764,0.8 2.552,2.88 1.758,4.64 l -8.8759,24.08 c -0.333,0.74 -0.832,1.4 -1.458,1.91 0,0 -12.301,11.6199 -23.179,21.4899 -8.288,7.53 -15.7329,14 -15.7329,14 -0.256,0.21 -0.525,0.4 -0.805,0.58 0,0 -8.005,5.28 -17.328,10.88 -9.252,5.55 -19.7529,11.43 -24.3219,13.97 z"
     id="path924"
     style="stroke:none;stroke-width:0.2" /><path
     d="m 2844.8312,996.73691 c -1.8011,0.7101 -3.836,-0.17812 -4.5422,-1.97805 -0.7062,-1.79992 0.1843,-3.84196 1.9846,-4.5417 0,0 9.1394,-5.67013 21.5213,-12.1986 2.798,-1.47366 5.7555,-2.90772 8.8278,-4.30914 1.9661,-0.8973 3.9577,-1.8068 6.0088,-2.55605 5.2645,-1.94505 10.6231,-3.48545 15.624,-4.87578 13.4604,-3.7271 24.011,-5.83845 24.011,-5.83845 1.8002,-0.69975 3.8363,0.18839 4.5412,1.9884 0.7062,1.79993 -0.1843,3.84196 -1.9845,4.54171 0,0 -9.1731,5.62117 -21.5848,12.02836 -4.6103,2.38013 -9.5942,4.88063 -14.7731,7.03543 -2.0185,0.83946 -4.0962,1.52894 -6.1494,2.20632 -3.2102,1.06177 -6.3557,2.01582 -9.4091,2.82924 -13.5182,3.6182 -24.0756,5.66831 -24.0756,5.66831 z"
     id="path926"
     style="stroke:none;stroke-width:0.225382" /><path
     d="m 2827.3981,1084.9468 c -1.471,-1.25 -1.644,-3.47 -0.387,-4.94 1.257,-1.47 3.4709,-1.64 4.9409,-0.39 0,0 27.168,20.9 46.7809,36.32 6.892,5.42 12.83,10.16 16.371,13 5.286,-2.16 15.8899,-6.44 29.3639,-11.53 9.918,-3.74 21.408,-7.88 33.4199,-12.05 16.811,-5.83 34.6379,-11.67 50.5729,-16.88 28.4269,-9.29 50.7989,-16.26 50.7989,-16.26 1.815,-0.68 3.833,0.25 4.505,2.07 0.672,1.81 -0.256,3.83 -2.07,4.5 0,0 -21.515,9.28 -49.1379,20.75 -15.484,6.43 -32.8109,13.61 -49.3659,20.14 -11.83,4.66 -23.2389,9.01 -33.2039,12.63 -19.635,7.13 -33.5779,11.62 -33.5779,11.62 -2.442,0.91 -5.181,0.42 -7.16,-1.27 0,0 -8.277,-7.47 -18.697,-17.15 -18.2839,-16.97 -43.1538,-40.56 -43.1538,-40.56 z"
     id="path928"
     style="stroke:none;stroke-width:0.2" /><path
     d="m 2897.0949,1104.6668 15.7929,24.26 c 1.237,1.49 1.034,3.7 -0.453,4.93 -1.487,1.24 -3.6989,1.04 -4.9359,-0.45 -6.118,-5.81 -13.645,-12.8 -19.184,-18.35 -4.989,-5 -8.22,-9.04 -8.597,-9.67 -0.904,-1.59 -0.994,-3.41 -0.601,-5.42 0.261,-1.34 1.589,-3.86 4.839,-6.08 2.276,-1.55 6.47,-3.74 10.671,-5.47 5.257,-2.15 10.434,-3.63 10.434,-3.63 2.882,-1.05 6.1179,-0.27 8.1949,1.99 0,0 6.353,7.96 12.503,16.16 6.188,8.26 12.043,16.59 12.043,16.59 1.309,1.42 1.215,3.64 -0.21,4.95 -1.424,1.31 -3.644,1.21 -4.952,-0.21 0,0 -7.805,-6.54 -15.507,-13.4 -4.09,-3.65 -8.1049,-7.35 -10.9579,-10 -1.581,0.7 -3.477,1.52 -5.427,2.34 -1.22,0.51 -2.468,0.99 -3.653,1.46 z"
     id="path930"
     style="stroke:none;stroke-width:0.2" /><path
     d="m 2942.89,1076.3309 c 1.787,2.31 3.993,5.19 6.391,8.41 5.463,7.35 11.6889,16.22 17.4509,24.16 1.282,1.45 1.148,3.66 -0.3,4.95 -1.448,1.28 -3.665,1.14 -4.948,-0.3 -8.5359,-7.98 -18.2619,-16.89 -25.3749,-23.86 -4.496,-4.41 -7.875,-8.01 -9.483,-9.79 -1.172,-1.29 -1.7,-2.26 -1.862,-2.56 -0.903,-1.63 -1.029,-3.47 -0.61,-5.51 0.278,-1.35 1.6,-3.93 4.908,-6.14 2.293,-1.53 6.527,-3.65 10.728,-5.38 5.254,-2.16 10.393,-3.74 10.393,-3.74 2.89,-1.06 6.1329,-0.3 8.2489,1.93 0,0 6.43,7.48 13.497,16.2 9.297,11.47 19.61,24.9 19.61,24.9 1.33,1.4 1.269,3.62 -0.136,4.95 -1.405,1.33 -3.625,1.27 -4.955,-0.14 0,0 -12.835,-11.03 -23.78,-20.94 -4.478,-4.06 -8.6049,-7.91 -11.4609,-10.6 -1.559,0.66 -3.405,1.44 -5.295,2.23 -1.007,0.42 -2.032,0.83 -3.022,1.23 z m -4.419,-5.82 c 0,-0.01 0,-0.01 -0.01,-0.02 0,0.01 0,0.01 0.01,0.02 z"
     id="path932"
     style="stroke:none;stroke-width:0.2" /><path
     d="m 2983.5323,1042.7054 c 2.905,3.6 6.934,8.58 11.218,14.08 8.9859,11.54 19.0049,25.01 24.7709,32.56 1.285,1.44 1.154,3.66 -0.292,4.95 -1.446,1.28 -3.663,1.15 -4.948,-0.3 -7.904,-7.7 -23.0229,-22.13 -34.1409,-33.43 -5.863,-5.96 -10.533,-11.07 -12.746,-13.55 -1.42,-1.59 -2.1,-2.74 -2.268,-3.05 -0.901,-1.66 -1.063,-3.54 -0.617,-5.6 0.294,-1.36 1.593,-4.02 4.974,-6.2 5.248,-3.38 21.135,-9.14 21.135,-9.14 2.933,-1.08 6.2249,-0.3 8.3729,1.97 0,0 8.872,10.02 18.67,21.65 12.868,15.28 27.2799,33.17 27.2799,33.17 1.33,1.41 1.269,3.63 -0.136,4.96 -1.405,1.33 -3.626,1.27 -4.955,-0.14 0,0 -17.0699,-15.37 -31.6219,-29.06 -6.805,-6.4 -13.0209,-12.42 -16.8049,-16.11 -2.344,0.92 -5.252,2.09 -7.891,3.24 z m -4.475,-5.69 c 0,-0.01 0,-0.01 0,-0.01 z"
     id="path934"
     style="stroke:none;stroke-width:0.2" /><path
     d="m 2975.2837,1014.7269 c -1.935,0 -3.505,-1.57 -3.505,-3.51 0,-1.93 1.57,-3.5 3.505,-3.5 0,0 3.211,-1.42 7.462,-2.8 1.084,-0.35 2.095,-0.62 3.198,-0.88 1.283,-0.3 2.46,-0.56 3.553,-0.68 2.0779,-0.21 3.5539,-0.06 3.5539,-0.06 2.61,0 5.052,1.29 6.529,3.44 0,0 1.288,2.56 2.396,5.76 1.552,4.49 2.601,9.32 2.601,9.32 1.095,1.6 0.689,3.78 -0.906,4.88 -1.595,1.09 -3.779,0.68 -4.874,-0.91 0,0 -4.135,-2.72 -7.762,-5.78 -0.352,-0.3 -0.6919,-0.59 -1.0149,-0.88 -0.169,-0.02 -0.344,-0.03 -0.523,-0.05 -1.093,-0.11 -2.27,-0.38 -3.553,-0.68 -1.103,-0.25 -2.114,-0.53 -3.198,-0.88 -4.251,-1.38 -7.462,-2.79 -7.462,-2.79 z"
     id="path936"
     style="stroke:none;stroke-width:0.2" /><path
     d="m 3162.7762,1124.2368 c 1.812,-0.68 3.833,0.24 4.511,2.06 0.678,1.81 -0.243,3.83 -2.054,4.51 0,0 -26.6559,11.51 -62.8628,26.54 -11.814,4.9 -24.633,10.14 -37.8959,15.45 -8.34,3.33 -16.849,6.68 -25.391,9.95 -6.817,2.61 -13.6519,5.18 -20.4339,7.64 -10.545,3.84 -20.938,7.48 -30.8669,10.89 -43.3809,14.94 -77.6019,26.06 -77.6019,26.06 -1.6149,0.6 -3.4319,0.24 -4.6889,-0.94 l -17.344,-17.69 c -1.41,-1.32 -1.48,-3.54 -0.156,-4.95 1.324,-1.41 3.544,-1.48 4.954,-0.16 0,0 16.475,14.23 16.474,14.23 8.3519,-3.53 37.4619,-15.79 73.2298,-30.26 9.7329,-3.94 19.9629,-8.02 30.4319,-12.05 6.735,-2.6 13.576,-5.15 20.4319,-7.65 8.592,-3.14 17.21,-6.2 25.691,-9.16 13.4859,-4.7 26.5979,-9.16 38.7279,-13.22 37.1749,-12.44 64.8438,-21.25 64.8438,-21.25 z"
     id="path938"
     style="stroke:none;stroke-width:0.2" /><path
     d="m 3162.7482,1153.3368 c 1.806,-0.69 3.835,0.21 4.529,2.02 0.693,1.81 -0.211,3.83 -2.017,4.53 0,0 -32.7499,14.4 -74.8358,32.05 -15.828,6.64 -32.9599,13.72 -50.1869,20.6 -8.446,3.37 -16.9239,6.66 -25.2779,9.81 -8.681,3.28 -17.231,6.39 -25.4599,9.34 -42.9319,15.4 -76.8129,26.91 -76.8129,26.91 -1.615,0.62 -3.4329,0.39 -4.8429,-0.62 l -34.45,-26.53 c -1.576,-1.12 -1.946,-3.31 -0.825,-4.89 1.121,-1.57 3.311,-1.94 4.888,-0.82 0,0 33.8939,22.2 33.8929,22.2 8.246,-3.52 37.178,-15.83 72.7249,-30.38 8.0899,-3.31 16.5289,-6.72 25.1739,-10.09 8.32,-3.24 16.822,-6.47 25.3549,-9.61 17.407,-6.42 34.876,-12.62 51.0799,-18.27 43.0859,-15.04 77.0648,-26.25 77.0648,-26.25 z"
     id="path940"
     style="stroke:none;stroke-width:0.2" /><path
     d="m 3171.6272,1180.3068 c 1.818,-0.66 3.831,0.28 4.492,2.09 0.662,1.82 -0.277,3.84 -2.095,4.5 0,0 -41.7389,17.46 -91.8708,37.15 -19.9479,7.83 -41.2009,16.04 -61.7048,23.51 -14.496,5.29 -28.651,10.09 -41.5709,14.49 -36.0789,12.27 -62.6839,20.82 -62.6839,20.82 -1.68,0.61 -3.551,0.37 -5.022,-0.65 l -44.8008,-33.37 c -1.592,-1.1 -1.992,-3.28 -0.893,-4.88 1.099,-1.59 3.283,-1.99 4.8749,-0.89 0,0 44.5189,28.42 44.5189,28.42 7.242,-2.93 29.862,-12.05 58.9529,-23.34 12.723,-4.94 26.6519,-10.36 41.1549,-15.62 20.5119,-7.45 42.0689,-14.83 62.3848,-21.65 51.0609,-17.13 94.2628,-30.58 94.2628,-30.58 z"
     id="path942"
     style="stroke:none;stroke-width:0.2" /><path
     d="m 3168.4822,1209.9968 c 1.815,-0.66 3.831,0.27 4.5,2.08 0.668,1.82 -0.263,3.83 -2.078,4.5 0,0 -40.2659,16.92 -88.5668,36.17 -19.2199,7.65 -39.6969,15.67 -59.4208,23.08 -10.28,3.86 -20.376,7.5 -29.959,10.87 -39.7019,13.9699 -70.3948,24.0199 -70.3948,24.0199 -1.929,0.71 -4.087,0.39 -5.728,-0.84 l -57.3508,-46.5099 c -1.543,-1.16 -1.85,-3.36 -0.684,-4.91 1.167,-1.54 3.366,-1.85 4.91,-0.68 0,0 57.5388,40.4399 57.5388,40.4399 8.357,-3.4 34.1889,-13.8399 66.3059,-26.1899 9.4819,-3.65 19.5239,-7.43 29.8539,-11.16 19.8179,-7.15 40.6069,-14.32 60.2028,-20.96 49.2459,-16.68 90.8708,-29.91 90.8708,-29.91 z"
     id="path944"
     style="stroke:none;stroke-width:0.2" /><path
     d="m 3178.7342,1234.6868 c 1.812,-0.68 3.833,0.24 4.509,2.05 0.676,1.82 -0.246,3.84 -2.059,4.51 0,0 -33.1449,13.91 -75.6028,31.17 -14.416,5.86 -29.897,12.08 -45.5299,18.2499 -10.181,4.02 -20.413,8.04 -30.4709,11.86 -14.283,5.41 -28.165,10.55 -40.8799,15.12 -35.503,12.76 -61.7479,21.54 -61.7479,21.54 -2.209,0.83 -4.691,0.37 -6.461,-1.19 l -67.2098,-62.9899 c -1.453,-1.28 -1.594,-3.49 -0.316,-4.95 1.278,-1.45 3.494,-1.59 4.947,-0.31 0,0 67.9218,56.0899 67.9218,56.0899 8.027,-3.28 29.7549,-12.09 57.4149,-22.8 12.6019,-4.87 26.4539,-10.09 40.7969,-15.3499 10.0989,-3.7 20.4599,-7.37 30.7869,-11 15.856,-5.58 31.6269,-11.02 46.3579,-16.03 43.3889,-14.77 77.5428,-25.97 77.5428,-25.97 z"
     id="path946"
     style="stroke:none;stroke-width:0.2" /><path
     d="m 2923.1138,1330.0867 c 1.721,-0.89 3.835,-0.21 4.72,1.51 0.885,1.72 0.206,3.84 -1.514,4.72 0,0 -18.6029,11.68 -46.5899,25.54 -6.01,2.98 -12.4709,5.97 -19.2849,8.95 -4.236,1.84 -8.595,3.7 -13.111,5.4 -10.746,4.04 -22.1449,7.69 -33.7699,10.94 -17.332,4.86 -35.1089,8.53 -52.1769,11.03 -1.893,0.4 -3.754,-0.81 -4.155,-2.7 -0.4,-1.89 0.811,-3.76 2.704,-4.16 10.901,-3.08 21.935,-6.9 33.0459,-10.97 8.737,-3.19 17.392,-6.63 25.975,-10.01 8.827,-3.47 17.4529,-7.05 25.8549,-10.29 11.114,-4.3 21.733,-8.17 31.3239,-11.78 27.813,-10.48 46.9779,-18.18 46.9779,-18.18 z"
     id="path948"
     style="stroke:none;stroke-width:0.2" /><path
     d="m 2855.597,1272.3768 69.1198,60.8199 c 0,0 -88.6768,45.6 -164.0556,61.55 46.7689,-43 76.5938,-87.67 94.9358,-122.3699 z"
     id="path950"
     style="stroke:none;stroke-width:0.2" /><path
     d="m 2575.1657,1273.2868 c -1.725,0.87 -3.836,0.18 -4.711,-1.54 -0.875,-1.73 -0.185,-3.84 1.54,-4.71 4.982,-3.01 9.57,-6.47 13.808,-10.5 3.9439,-3.75 7.4229,-8.05 10.4419,-13.09 1.102,-1.59 2.901,-2.56 4.839,-2.61 1.938,-0.04 3.781,0.84 4.957,2.38 0,0 7.221,8.18 16.604,19.55 4.983,6.04 10.6309,12.91 16.0279,19.99 5.398,7.0799 10.524,14.3499 15.036,20.7499 8.496,12.04 14.5129,21.14 14.5129,21.14 1.323,1.74 1.613,4.05 0.758,6.05 -3.3779,6.73 -7.6509,12.52 -13.2819,17.08 -5.206,4.21 -11.367,7.5 -18.801,9.54 -1.826,0.65 -3.827,-0.32 -4.467,-2.14 -0.639,-1.83 0.324,-3.83 2.15,-4.47 5.942,-2.55 10.69,-5.96 14.557,-10.03 3.089,-3.25 5.46,-7 7.296,-11.17 -2.814,-3.26 -8.122,-9.45 -14.413,-17.08 -4.983,-6.03 -10.649,-12.89 -16.0559,-19.96 -5.408,-7.0699 -10.552,-14.3299 -15.064,-20.7299 -4.209,-5.97 -7.803,-11.22 -10.359,-14.99 -2.691,2.71 -5.531,5.14 -8.547,7.29 -5.2669,3.76 -10.8809,6.77 -16.8279,9.25 z"
     id="path952"
     style="stroke:none;stroke-width:0.2" /></g>&#10;</svg>
