<?xml version="1.0" encoding="UTF-8" standalone="no"?>
<svg
   width="2737.5552"
   height="1947.2108"
   viewBox="0 0 2737.5552 1947.2108"
   version="1.1"
   xml:space="preserve"
   style="clip-rule:evenodd;fill-rule:evenodd;stroke-linejoin:round;stroke-miterlimit:2"
   id="svg5353"
   xmlns="http://www.w3.org/2000/svg"
   xmlns:svg="http://www.w3.org/2000/svg"><defs
   id="defs5353" />&#10;    <g
   id="vectorly-UNI-office-bag"
   style="stroke:none;stroke-width:0.2"
   transform="matrix(4.9999999,0,0,4.9999999,-12813.312,-8726.4249)"><path
     d="m 2828.3861,2004.9465 c -5.398,-0.1 -10.085,-0.07 -14.155,-0.06 -5.657,0 -10.053,0.05 -13.479,0.43 -1.966,0.22 -3.538,0.41 -4.762,0.86 -0.452,0.17 -0.916,0.07 -1.077,0.4 -0.396,0.8 -0.576,1.78 -0.667,2.95 l -1.133,41.0699 c -0.074,3.67 0.336,6.6 1.258,8.81 1.097,2.64 2.423,4.38 4.098,4.31 1.923,-0.21 3.652,1.19 3.858,3.11 0.206,1.93 -1.188,3.65 -3.112,3.86 -3.496,0.61 -7.575,-0.98 -10.9079,-5.24 -2.402,-3.07 -4.251,-7.82 -4.921,-14.47 -0.382,-3.97 -1.703,-18.22 -2.527,-29.08 -0.468,-6.1599 -0.731,-11.2399 -0.748,-12.8699 -0.029,-4.52 0.926,-8.02 2.758,-10.89 1.868,-2.93 4.913,-5.27 9.9959,-6.89 3.525,-1.13 8.442,-1.95 15.29,-2.23 5.475,-0.22 12.314,-0.01 20.84,0.33 6.8109,0.42 12.1669,4.5 14.4549,13.76 1.005,4.07 1.559,9.37 1.58,15.74 0.031,9.0899 -0.85,20.4599 -1.716,33.5599 -0.543,7.11 -2.611,11.92 -5.447,14.88 -3.188,3.33 -7.069,4.77 -10.9139,4.37 -1.933,-0.07 -3.447,-1.7 -3.377,-3.63 0.069,-1.93 1.694,-3.45 3.627,-3.38 2.0649,-0.07 3.8729,-1.45 5.0529,-3.89 0.994,-2.05 1.299,-4.85 1.091,-8.44 -0.658,-13.92 -1.209,-25.85 -2.295,-34.9799 -0.481,-4.05 -1.098,-7.46 -1.9629,-10.14 -0.214,-0.66 -0.443,-1.63 -0.703,-2.25 z m 0,0 c -0.206,-0.49 -0.431,-0.76 -0.684,-0.48 -0.197,0.22 0.329,0.43 0.684,0.48 z m 0.087,0 c 0.01,0 0.015,0 0.022,0 -0.01,0 -0.014,0 -0.022,0 z"
     id="path1022"
     style="stroke:none;stroke-width:0.2" /><path
     d="m 2787.6022,2034.7864 c -1.935,-0.01 -3.498,-1.59 -3.488,-3.52 0.01,-1.94 1.588,-3.5 3.522,-3.49 0,0 6.4099,-1.88 15.2709,-3.43 1.961,-0.34 3.986,-0.59 6.105,-0.76 1.344,-0.12 2.706,-0.23 4.069,-0.18 3.519,0.14 6.951,0.67 10.163,1.22 8.8229,1.51 15.2379,3.4 15.2379,3.4 1.934,0.01 3.497,1.59 3.487,3.52 -0.01,1.93 -1.587,3.5 -3.522,3.49 0,0 -6.433,1.83 -15.2699,3.25 -3.217,0.52 -6.654,1.01 -10.175,1.11 -1.363,0.04 -2.724,-0.08 -4.066,-0.21 -2.118,-0.2 -4.141,-0.46 -6.098,-0.83 -8.845,-1.63 -15.2359,-3.57 -15.2359,-3.57 z"
     id="path1024"
     style="stroke:none;stroke-width:0.2" /><path
     d="m 2837.869,2036.1164 c 0,0 -0.01,-0.01 -0.01,-0.01 -0.038,-0.09 0.159,-0.01 0.216,-0.01 -0.07,0 -0.139,0.01 -0.208,0.02 z m 204.6195,-216.7699 c -10e-4,0 0,0 0,0 -0.064,-0.04 0.102,-0.1 0.147,-0.15 -0.026,0.03 -0.074,0.08 -0.144,0.15 z m -204.6195,216.7699 c 0.571,1.15 3.103,-2.1 5.681,-4.31 11.002,-9.47 32.2129,-31.2399 56.8549,-57.3599 59.2198,-62.78 138.0026,-150.64 142.0836,-155.1 0.484,0.31 0.512,-1.19 0.726,-1.98 0.718,-2.67 0.976,-6.22 0.606,-9.6 -0.229,-2.09 -0.702,-4.13 -1.6,-5.74 -0.419,-0.76 -0.921,-1.44 -1.783,-1.57 -2.501,-0.39 -60.8278,0.51 -134.6676,1.4 -28.635,0.34 -59.5829,0.74 -90.5318,0.97 -110.1957,0.82 -220.3865,0.98 -226.0605,1.02 -0.211,0.31 -0.677,1.02 -0.876,1.54 -0.822,2.16 -1.1609,4.83 -1.2269,7.44 -0.098,3.87 0.074,7.67 0.9779,9.05 3.59,5.51 51.4719,56.42 99.5958,107.06 48.9479,51.51 98.1288,102.7299 102.0207,105.2599 1.635,1.03 2.122,3.2 1.087,4.84 -1.035,1.63 -3.2019,2.12 -4.8359,1.08 -3.994,-2.46 -55.1259,-52.8999 -105.7418,-103.9199 -50.0029,-50.41 -99.4657,-101.4 -103.2257,-106.92 -1.165,-1.71 -2.391,-5.16 -2.989,-9.44 -0.828,-5.93 -0.566,-13.62 1.455,-19.23 2.339,-6.48 6.904,-10.46 13.2379,-10.67 2.249,-0.06 114.3388,-2.08 226.4495,-3.11 30.9539,-0.28 61.9098,-0.37 90.5528,-0.44 75.0958,-0.18 134.4176,0.14 136.9556,0.57 7.369,1.25 12.132,7.24 13.881,15.21 1.259,5.75 0.997,12.42 -0.214,17.45 -0.959,3.99 -2.596,7.08 -4.238,8.74 -1.547,1.56 -83.6378,89.78 -145.1516,152.33 -25.43,25.86 -47.3719,47.3399 -58.6969,56.6399 -4.6,3.78 -7.963,5.6 -9.377,5.74 -1.924,0.2 -3.651,-1.2 -3.855,-3.12 -0.197,-1.85 1.092,-3.52 2.906,-3.83 z m -248.8844,-232.2699 c 0,0 -10e-4,0 -10e-4,0 z m 249.0924,232.2499 c 10e-4,0 10e-4,0 0,0 z"
     id="path1026"
     style="stroke:none;stroke-width:0.2" /><path
     d="m 2717.6633,1797.5365 c -1.015,1.65 -3.176,2.16 -4.823,1.15 -1.646,-1.02 -2.159,-3.18 -1.143,-4.83 1.697,-3.13 14.313,-24.3799 28.553,-36.5599 6.957,-5.95 14.5219,-9.4 21.3149,-9.43 2.181,0.02 13.352,-0.82 27.193,-1.54 5.8469,-0.3 12.1589,-0.59 18.4729,-0.78 4.69,-0.14 9.38,-0.21 13.88,-0.24 16.9829,-0.11 31.3069,0.22 33.3969,0.55 7.743,1.31 16.6689,6.91 24.4959,14.59 11.548,11.33 21.051,26.3599 22.527,32.7599 0.536,1.86 -0.537,3.8 -2.396,4.34 -1.859,0.54 -3.803,-0.54 -4.339,-2.4 -1.646,-4.71 -9.422,-14.23 -18.612,-22.5399 -7.5489,-6.83 -16.0879,-12.88 -23.3059,-13.42 -1.353,-0.11 -8.167,0.42 -17.48,0.93 -8.0489,0.45 -17.8469,1.05 -27.6649,1.41 -6.314,0.23 -12.633,0.32 -18.489,0.38 -14.3799,0.15 -26.0039,-0.02 -28.2609,-0.18 -5.622,-0.51 -11.944,3.66 -18.0869,8.7 -12.445,10.1999 -23.553,24.7099 -25.233,27.1099 z"
     id="path1028"
     style="stroke:none;stroke-width:0.2" /><path
     d="m 3054.0595,2110.1964 c -0.47,1.87 -2.376,3.01 -4.252,2.54 -1.877,-0.47 -3.018,-2.37 -2.548,-4.25 0.316,-1.57 -0.201,-10.44 -0.932,-24.12 -0.799,-14.95 -2.142,-35.36 -3.477,-58.26 -0.623,-10.6799 -1.22,-21.8799 -1.767,-33.3099 -0.351,-7.34 -0.716,-14.77 -0.929,-22.21 -0.542,-18.95 -0.768,-37.92 -1.018,-55.56 -0.568,-40 -0.851,-72.99 -2.344,-82.87 -0.365,-1.9 0.881,-3.74 2.781,-4.11 1.9,-0.36 3.738,0.89 4.103,2.79 2.307,9.86 6.07,43.12 9.107,83.58 1.325,17.64 2.575,36.63 3.352,55.62 0.305,7.45 0.433,14.9 0.546,22.27 0.176,11.46 0.245,22.71 0.177,33.4199 -0.287,45.3 -1.816,81.14 -2.799,84.47 z"
     id="path1030"
     style="stroke:none;stroke-width:0.2" /><path
     d="m 2580.6807,2113.9464 c 1.02,0.32 2.448,0.56 4.208,0.87 4.4939,0.81 10.6259,1.41 18.1219,1.95 24.6959,1.77 63.6929,2.17 108.2817,2.17 39.9349,0 84.3248,-0.29 126.9717,-0.78 96.0458,-1.12 183.1906,-3 190.4736,-3.4 1.93,-0.14 3.6079,1.31 3.7459,3.24 0.138,1.93 -1.317,3.61 -3.2459,3.75 -7.282,0.64 -94.4708,5.97 -190.6496,9.59 -42.7179,1.6 -87.1998,2.92 -127.2247,3.28 -45.1058,0.42 -84.5717,-0.35 -109.5377,-2.38 -15.8599,-1.29 -26.4179,-3.61 -30.0799,-5.92 -2.351,-1.48 -5.329,-5.54 -6.744,-12.72 -2.757,-13.98 -2.926,-44.17 -1.295,-79.97 3.602,-79.0699 15.321,-185.9599 20.43,-203.0799 0.525,-1.87 2.463,-2.95 4.3249,-2.43 1.862,0.53 2.947,2.47 2.422,4.33 -3.9959,15.07 -10.5939,99.29 -13.1859,172.69 -1.299,36.7899 -1.597,70.8299 0.143,92.0299 0.586,7.13 2.306,14.58 2.84,16.78 z"
     id="path1032"
     style="stroke:none;stroke-width:0.2" /><path
     d="m 3095.8354,1996.8965 c 0.01,0.04 0.014,0.08 0.012,0.11 0,-0.05 0.01,-0.1 0.01,-0.15 0.131,-0.25 0.185,-0.43 0.017,-0.47 0,0 -0.01,0 -0.011,-0.01 -0.062,-2.32 -1.434,-3.98 -3.552,-5.2 -2.139,-1.23 -4.718,-2.23 -7.629,-2.96 -10.515,-2.64 -24.3479,-2.78 -35.6519,-2.01 -1.918,0.26 -3.682,-1.09 -3.938,-3.01 -0.256,-1.91 1.093,-3.68 3.011,-3.93 14.628,-2.9 33.4479,-4.68 45.7359,-1.17 10.198,2.91 16.067,9.48 16.334,19.23 0.021,2.14 -2.991,12.32 -8.582,25.6699 -2.16,5.16 -4.743,10.84 -7.568,16.74 -2.569,5.36 -5.364,10.89 -8.256,16.37 -7.305,13.87 -15.0309,27.43 -21.1109,37.33 -5.544,9.03 -9.981,15.03 -11.682,16.09 -1.563,1.14 -3.758,0.8 -4.897,-0.77 -1.139,-1.56 -0.795,-3.75 0.768,-4.89 0.437,-0.37 0.891,-1.52 1.728,-3.08 2.03,-3.81 4.757,-9.93 7.995,-17.37 3.425,-7.88 7.232,-17.19 11.267,-26.78 3.7929,-9.01 7.6289,-18.26 11.3279,-26.74 3.47,-7.96 6.821,-15.2099 9.431,-21.0999 2.081,-4.7 3.789,-8.45 4.719,-10.92 0.125,-0.33 0.368,-0.69 0.523,-0.98 z m 0,0 c -0.043,-0.21 -0.164,-0.55 0.027,-0.52 0,0.16 0,0.32 -0.01,0.48 -0.01,0.01 -0.014,0.03 -0.021,0.04 z"
     id="path1034"
     style="stroke:none;stroke-width:0.2" /><path
     d="m 3050.9095,2106.6964 c 0.62,-12.89 -0.463,-66.91 -2.344,-123.9599 22.348,-2.98 54.8389,-3.34 54.4449,14.43 -0.155,6.93 -45.6019,104.7899 -52.1009,109.5299 z"
     id="path1036"
     style="stroke:none;stroke-width:0.2" /></g>&#10;</svg>
