<?xml version="1.0" encoding="UTF-8" standalone="no"?>
<svg
   width="3583.5327"
   height="3127.0342"
   viewBox="0 0 3583.5327 3127.0342"
   version="1.1"
   xml:space="preserve"
   style="clip-rule:evenodd;fill-rule:evenodd;stroke-linejoin:round;stroke-miterlimit:2"
   id="svg5353"
   xmlns="http://www.w3.org/2000/svg"
   xmlns:svg="http://www.w3.org/2000/svg"><defs
   id="defs5353" />&#10;    <g
   id="vectorly-UNI-cake"
   style="stroke:none;stroke-width:0.2"
   transform="matrix(4.9999999,0,0,4.9999999,-8193.3117,-16281.891)"><path
     d="m 1941.6664,3379.6747 c 8.0499,8.3 21.8699,22.6 32.9099,34.24 8.48,8.93 15.3299,16.35 16.8799,18.44 1.37,1.85 1.63,4.06 0.21,6.54 -0.79,1.38 -2.82,3.28 -6.31,5.08 -9.2399,4.77 -31.5299,11.03 -61.5598,12.43 -28.6099,1.32 -64.2898,-1.79 -102.2997,-14.6 -47.6599,-16.29 -59.1899,-41.64 -50.5099,-64.41 7.49,-19.66 32.2599,-39.29 66.8298,-52.13 18.65,-6.76 40.8199,-10.74 64.1499,-12 31.9799,-1.74 66.1498,1.49 96.1797,8.65 28.7299,6.85 53.6799,17.37 69.6498,30.46 10.57,8.66 17.35,18.5 19.32,29.13 0.4,2.17 0,5.99 -5.13,7.37 -2.3,0.61 -7.62,0.93 -15.02,0.78 -30.4399,-0.64 -99.8897,-7.42 -125.2996,-9.98 z m 134.3296,4.02 c 0,0.01 0,0.01 0,0.01 z m -94.6097,51.45 c -2.8,-3.37 -7.68,-8.91 -13.32,-15.25 -16.03,-18.02 -38.1699,-42.28 -38.1699,-42.28 -1,-1.06 -1.24,-2.63 -0.6,-3.94 0.64,-1.31 2.02,-2.09 3.47,-1.96 0,0 96.8797,7.3 134.2796,7.02 2.55,-0.02 5.12,-0.16 7.22,-0.31 -2.67,-6.04 -7.58,-11.53 -14.0499,-16.58 -15.05,-11.75 -38.4499,-20.65 -65.1399,-26.45 -28.8699,-6.27 -61.5898,-8.71 -92.1698,-6.67 -21.6799,1.45 -42.2798,5.13 -59.5798,11.56 -16.04,5.85 -29.8099,13.21 -40.2199,21.38 -8.55,6.71 -14.81,13.86 -17.75,21.3 -3.7299,9.42 -1.34,18.97 8.25,27.7 7.16,6.52 17.86,12.54 32.5599,17.86 29.01,10.58 56.7299,15.05 80.7098,16.11 34.61,1.53 61.3799,-3.98 72.7499,-8.85 0.54,-0.23 1.17,-0.44 1.76,-0.64 z m 1.63,-0.64 c 0.48,-0.25 0.7099,-0.5 0.46,-0.78 -0.3,-0.34 -0.4,0.25 -0.46,0.78 z"
     id="path508"
     style="stroke:none;stroke-width:0.2" /><path
     d="m 1986.9962,3530.9246 c 0.08,0.36 0.18,0.72 0.23,0.93 -0.07,-0.28 -0.14,-0.59 -0.21,-0.95 0.41,-0.33 0.53,-0.64 0.17,-0.91 -0.22,-0.17 -0.29,-0.06 -0.3,0.19 -0.81,-4.88 -1.5,-15.38 -1.91,-27.74 -0.92,-28.0299 -0.93,-65.9799 -0.93,-65.9799 -0.06,-1.93 1.46,-3.55 3.39,-3.61 1.94,-0.06 3.55,1.46 3.61,3.4 0,0 2.29,37.71 4.78,65.5199 1.14,12.76 2.25,23.33 3.31,26.68 1.16,3.71 -0.17,8.55 -5.73,12.97 -5.44,4.32 -16.1599,9.04 -30.5799,12.49 -14.86,3.55 -33.7899,5.9 -54.6699,5.3 -11.6699,-0.34 -23.9299,-1.68 -36.4299,-4.1 -31.7599,-6.7 -54.1398,-15.5 -68.3298,-24.49 -14.86,-9.43 -21.32,-19.55 -21.8299,-27.57 l -9.06,-112.3499 c -0.21,-1.93 1.18,-3.66 3.1,-3.87 1.93,-0.21 3.66,1.18 3.87,3.1 0,0 6.2599,45.14 10.6799,78.3 2.22,16.69 3.94,30.3399 4.31,33.7399 0.23,2.21 1.64,4.46 3.8,6.91 4.13,4.68 11.07,9.35 20.85,13.96 13.2899,6.27 31.6499,12.14 55.7098,16.61 21.74,4.47 42.7699,5.11 60.8299,3.83 20.6399,-1.46 37.3699,-5.4 46.5699,-10.01 1.5699,-0.79 3.8499,-1.62 4.7699,-2.35 z m 0,0 c -0.06,-0.28 -0.11,-0.55 -0.11,-0.74 0.05,0.25 0.09,0.5 0.13,0.72 0,0.01 -0.01,0.01 -0.02,0.02 z"
     id="path510"
     style="stroke:none;stroke-width:0.2" /><path
     d="m 2077.546,3382.9247 c 0.17,-1.92 1.87,-3.35 3.79,-3.19 1.93,0.16 3.36,1.86 3.2,3.79 0,0 0.08,16.55 -0.33,36.34 -0.16,7.86 -0.39,16.18 -0.76,24.18 -0.34,7.2 -0.74,14.11 -1.25,20.1 -1.02,11.8 -2.22,20.02 -2.22,20.02 -0.3,3.4599 -2.94,6.2699 -6.38,6.7699 0,0 -14.4499,1.49 -31.6999,1.56 -10.49,0.04 -21.9099,-0.48 -31.7699,-1.86 -1.94,-0.13 -3.4,-1.8 -3.27,-3.7299 0.12,-1.93 1.8,-3.39 3.73,-3.26 7.66,-0.06 16.1699,-0.92 24.4299,-1.88 12.15,-1.41 23.57,-3.3 30.2799,-4.5 0.17,-3.55 0.47,-8.57 0.96,-14.47 0.5,-5.99 1.28,-12.87 2.16,-20.03 0.98,-7.94 2.16,-16.18 3.33,-23.96 2.94,-19.58 5.8,-35.88 5.8,-35.88 z"
     id="path512"
     style="stroke:none;stroke-width:0.2" /><path
     d="m 1779.4968,3452.4547 c -0.93,-1.69 -0.31,-3.82 1.39,-4.75 1.6899,-0.94 3.8299,-0.31 4.7599,1.38 9.03,14.5 18.94,23.81 30.29,26.75 10.7099,2.79 22.4899,-0.89 36.0799,-11.22 3.2,-2.25 7.57,-1.75 10.18,1.16 5.8999,6.45 11.7099,11.64 17.2099,15.83 6.63,5.04 12.83,8.5399 18.97,10.0599 13.1199,3.24 25.1899,-2.31 36.7999,-16.1199 0.9,-1.17 2.24,-1.91 3.71,-2.04 1.46,-0.14 2.92,0.34 4.01,1.32 0,0 4.7699,4.79 12.3899,8.11 4.15,1.82 9.08,3.31 14.58,3.3 1.93,-0.11 3.59,1.3699 3.7,3.2999 0.11,1.93 -1.37,3.59 -3.3,3.7 -6.65,0.75 -12.83,-0.34 -18.09,-1.99 -4.77,-1.51 -8.75,-3.55 -11.5799,-5.2599 -13.31,16.8399 -28.68,23.1599 -45.3099,20.1799 -8.13,-1.46 -16.71,-5.33 -25.45,-11.82 -4.9,-3.63 -9.8199,-8.1799 -14.8399,-13.5299 -16.29,9.1299 -30.42,10.9399 -42.6199,6.53 -13.08,-4.73 -24.14,-16.61 -32.8799,-34.89 z"
     id="path514"
     style="stroke:none;stroke-width:0.2" /><path
     d="m 2092.236,3468.2747 c -1.7,-0.93 -2.32,-3.07 -1.39,-4.76 0.93,-1.7 3.06,-2.32 4.76,-1.39 33.6699,17.62 42.0099,49.3299 29.7399,80.0099 -13.21,33.04 -51.2699,65.11 -108.7797,76.49 -34.3599,6.55 -68.5599,10.2 -101.1298,10.29 -36.5899,0.1 -71.1098,-4.12 -101.3797,-12.43 -52.1499,-14.32 -91.7698,-41.04 -109.2298,-79.6 -8.4299,-18.81 -4.1799,-38.6 7.27,-55.3799 15.86,-23.25 45.3299,-40.54 69.7499,-40.48 1.9299,-0.03 3.5199,1.52 3.5499,3.46 0.03,1.93 -1.51,3.52 -3.45,3.55 -18.4899,0.61 -39.7199,12.45 -54.1598,28.88 -13.96,15.8799 -21.67,36.2699 -12.48,55.0599 16.95,35.01 54.4599,57.67 102.5998,69.99 29.2199,7.48 62.3598,10.99 97.5197,11.01 31.6899,0.03 65.0299,-2.61 98.5698,-8.45 52.8598,-8.81 88.7398,-36.6 101.8297,-66.38 11.5,-26.13 4.91,-53.5699 -23.5899,-69.8699 z"
     id="path516"
     style="stroke:none;stroke-width:0.2" /><path
     d="m 1746.9868,3714.8846 c 9.14,8.55 22.78,15.67 39.2899,21.7099 13.53,4.95 28.97,9.03 45.5699,12.42 29.32,6 62.2499,9.57 94.9298,10.4 49.1399,1.26 97.6397,-3.5 132.0697,-15.87 21.1699,-7.6 36.9999,-17.7999 43.7299,-31.4999 0.81,-1.75 2.8899,-2.52 4.6499,-1.7 1.75,0.81 2.52,2.89 1.71,4.65 -6.7799,15.54 -23.4899,28.1499 -46.6598,37.5399 -35.01,14.19 -84.9198,21.32 -135.6797,21.33 -33.6699,0.01 -67.7098,-3.1 -97.9298,-9.18 -17.4799,-3.52 -33.6799,-8.12 -47.8398,-13.56 -18.76,-7.22 -33.96,-16.06 -44.0899,-26.0999 -1.3,-1.29 -3.01,-3.96 -4.46,-8.12 -3.42,-9.79 -7.52,-30.45 -11.41,-54.94 -9.44,-59.36 -18.27,-141.52 -18.27,-141.52 -0.25,-1.92 1.11,-3.67 3.03,-3.92 1.92,-0.25 3.67,1.11 3.92,3.03 0,0 12.22,81.43 23.67,140.23 3.79,19.44 7.45,36.37 10.6499,46.92 1.07,3.55 2.8,7.46 3.12,8.18 z"
     id="path518"
     style="stroke:none;stroke-width:0.2" /><path
     d="m 1717.8569,3626.7146 c -0.63,-1.83 0.33,-3.83 2.16,-4.46 1.83,-0.64 3.83,0.33 4.46,2.16 8.63,22.72 29.0599,38.84 51.7899,45.25 22.1599,6.25 46.6798,3.07 64.1898,-13.63 1.82,-1.66 4.35,-2.29 6.73,-1.7 2.39,0.6 4.31,2.36 5.13,4.68 3.42,9.3 11.5899,16.35 21.6199,21.54 9.55,4.92 20.9,8 32.3599,9.23 14.02,1.51 28.24,0.3 39.5399,-4.5 7.9,-3.36 14.4,-8.33 17.82,-15.55 1.05,-2.33 3.29,-3.91 5.85,-4.11 2.55,-0.2 5.02,1 6.43,3.13 12.0299,19.09 34.8799,26.54 56.2398,23.88 21.85,-2.72 42.3699,-15.87 49.2699,-38.91 0.5,-1.87 2.43,-2.98 4.29,-2.47 1.87,0.5 2.98,2.43 2.47,4.3 -6.51,26.99 -29.3799,43.46 -54.4199,47.84 -22.4999,3.94 -46.5899,-2.17 -62.8198,-18.69 -6.37,7.99 -15.73,13.79 -26.76,17.34 -11.9099,3.83 -25.8199,5.02 -39.5699,3.62 -13.5099,-1.37 -26.8599,-5.26 -37.9999,-11.26 -10.2599,-5.52 -18.6599,-12.86 -23.9999,-21.65 -20.7699,13.77 -46.5499,15.54 -69.7198,7.72 -25.03,-8.45 -46.8699,-27.82 -55.0599,-53.76 z"
     id="path520"
     style="stroke:none;stroke-width:0.2" /><path
     d="m 2122.4759,3514.4946 c 0.21,-1.92 1.95,-3.31 3.87,-3.09 1.92,0.22 3.31,1.95 3.09,3.88 0,0 -0.71,23.69 -2.58,53.96 -0.43,6.91 -0.99,14.14 -1.63,21.52 -0.42,4.73 -0.84,9.53 -1.43,14.3 -1.5,12.21 -3.39,24.35 -5.2,35.58 -4.82,29.93 -9.36,53.2 -9.36,53.2 -0.22,1.92 -1.96,3.31 -3.88,3.09 -1.9199,-0.22 -3.2999,-1.96 -3.0899,-3.88 0,0 0.77,-23.69 2.7599,-53.94 0.74,-11.36 1.62,-23.61 2.88,-35.85 0.5,-4.78 1.16,-9.55 1.81,-14.26 1.02,-7.33 2.09,-14.5 3.22,-21.34 4.93,-29.92 9.54,-53.17 9.54,-53.17 z"
     id="path522"
     style="stroke:none;stroke-width:0.2" /><path
     d="m 2130.1059,3640.1046 c -1.71,-0.9 -2.37,-3.02 -1.47,-4.74 0.9,-1.71 3.02,-2.37 4.73,-1.47 61.5098,31.29 85.0498,72.88 78.6098,112.4299 -4.16,25.54 -20.93,50.6 -48.9699,71.96 -28.4699,21.69 -68.7198,39.55 -118.8597,50.4 -50.9199,10.7 -98.5598,14.59 -141.9696,12.6 -86.7498,-3.97 -156.5697,-30.26 -202.3195,-65.27 -38.9299,-29.79 -60.5299,-66.2 -61.1799,-101.4499 -0.64,-35.28 19.56,-69.87 65.6398,-95.75 1.67,-0.97 3.82,-0.4 4.79,1.27 0.97,1.68 0.39,3.82 -1.28,4.79 -41.9099,24.99 -60.5098,56.85 -59.1298,89.39 1.38,32.3499 22.5199,64.8899 58.7998,91.5699 44.5799,32.79 112.0098,56.14 195.3696,59.55 42.2498,1.73 88.5997,-1.38 138.2096,-11.51 47.9899,-9.5 86.6598,-25.8 114.2297,-45.91 25.66,-18.71 41.6599,-40.61 45.9999,-63.52 6.86,-36.2499 -15.36,-74.0099 -71.1998,-104.3399 z"
     id="path524"
     style="stroke:none;stroke-width:0.2" /><path
     d="m 2205.4157,3593.8646 c 0.2,-0.54 0.36,-1.07 0.46,-1.3 -0.13,0.3 -0.29,0.74 -0.46,1.3 -1.12,0.38 -1.75,0.76 -1.41,1.24 0.53,0.74 1.03,-0.22 1.39,-1.19 -1.44,4.66 -4.23,17.55 -5.93,30.33 -1.1,8.23 -1.81,16.41 -1.14,22.31 0.14,1.17 0.07,2.94 0.31,3.78 -0.11,-0.03 -0.2,-0.06 -0.27,-0.09 0.09,0.04 0.18,0.08 0.27,0.12 0.12,0.39 0.31,0.58 0.62,0.39 0.08,-0.05 0.09,-0.1 0.05,-0.14 4.29,1.5 15.18,3.48 28.1699,5.68 30.65,5.2 72.3799,11 72.3799,11 1.92,0.2 3.32,1.92 3.12,3.85 -0.2,1.92 -1.92,3.32 -3.85,3.12 0,0 -42.2299,-2.97 -73.2699,-6.35 -15.7899,-1.72 -28.7599,-3.76 -32.6599,-5.26 -2.54,-0.98 -4.71,-3.04 -6.33,-6.19 -2.1199,-4.12 -3.1199,-11.2 -3.0599,-19.5 0.16,-19.54 5.8199,-46.43 7.4799,-50.54 0.53,-1.28 1.94,-3.43 5.12,-5.24 3.32,-1.89 10.73,-4.71 20.32,-7.72 7.62,-2.38 16.6799,-4.96 26.0499,-7.45 29.0799,-7.74 61.0499,-14.92 61.0499,-14.92 2.06,-0.52 4.2499,0.01 5.8599,1.4 0,0 10.54,9.47 15.81,24.02 3.02,8.32 4.44,18.23 1.33,28.93 -1.23,4.21 -2.23,11.49 -3.05,19.13 -1.55,14.43 -2.41,30.08 -2.41,30.08 -0.04,1.94 -1.64,3.47 -3.57,3.43 -1.94,-0.04 -3.47,-1.64 -3.43,-3.58 0,0 -0.18,-15.9 0.48,-30.61 0.38,-8.37 1.09,-16.34 2.16,-21 1.9,-8.33 0.3,-15.85 -2.37,-22.1 -3.19,-7.49 -8.07,-13.15 -10.9999,-16.12 -8.56,2.4 -32.1,9.03 -54.5199,15.63 -14.65,4.31 -28.8299,8.56 -37.8699,11.83 -2.01,0.73 -4.34,1.23 -5.83,1.73 z m -6.78,56.47 c 0.25,0.08 0.57,0.18 0.67,0.28 -0.25,-0.09 -0.47,-0.17 -0.67,-0.25 0,-0.01 0,-0.02 0,-0.03 z m 6.78,-56.47 c 0,0.02 -0.01,0.04 -0.02,0.05 0.01,-0.01 0.01,-0.03 0.02,-0.05 z"
     id="path526"
     style="stroke:none;stroke-width:0.2" /><path
     d="m 2197.6057,3594.1646 c -1.91,-0.31 -3.21,-2.11 -2.91,-4.01 0.31,-1.92 2.11,-3.22 4.01,-2.91 0,0 13.6,0.21 31.7099,1.27 4.03,0.23 8.24,0.57 12.59,1 2.75,0.26 5.54,0.53 8.34,0.96 6.95,1.06 13.93,2.48 20.6399,3.85 12.05,2.46 22.9,5.1 30.8,6.34 1.93,0.1 3.4199,1.75 3.3199,3.68 -0.1,1.94 -1.7499,3.42 -3.6799,3.32 -8.15,0.44 -19.55,0.74 -32.1,0.22 -6.8999,-0.29 -14.0899,-0.72 -21.1399,-1.57 -2.83,-0.34 -5.62,-0.85 -8.36,-1.35 -4.31,-0.8 -8.48,-1.66 -12.43,-2.59 -17.7399,-4.18 -30.7899,-8.21 -30.7899,-8.21 z"
     id="path528"
     style="stroke:none;stroke-width:0.2" /><path
     d="m 2318.5054,3628.9946 c -1.9,-0.39 -3.12,-2.25 -2.72,-4.14 0.39,-1.9 2.24,-3.11 4.14,-2.72 19.32,2.57 30.7299,12.76 34.2999,24.28 2.01,6.51 1.34,13.64 -1.77,20.7 -2.02,4.57 -5.26,9.06 -9.7099,13.3 -4.03,3.83 -9.12,7.48 -15.38,10.51 -7,3.4 -15.5,6.1 -25.4499,7.77 -9.39,1.59 -20.07,2.26 -32.13,1.77 -9.6199,-0.39 -20.0299,-1.56 -31.3899,-3.53 -1.92,-0.2 -3.32,-1.92 -3.12,-3.84 0.2,-1.93 1.92,-3.33 3.84,-3.13 11.11,0.37 21.18,-0.02 30.4299,-0.79 11.11,-0.92 20.82,-2.65 29.35,-4.83 6.85,-1.75 12.8199,-3.91 18.0699,-6.21 6.32,-2.76 11.46,-5.81 15.49,-9.17 16.8099,-14.02 10.52,-33.32 -13.95,-39.97 z"
     id="path530"
     style="stroke:none;stroke-width:0.2" /><path
     d="m 1906.9664,3355.9347 c -1.32,-1.41 -1.26,-3.63 0.14,-4.96 1.41,-1.33 3.63,-1.27 4.96,0.14 9.97,8.81 8.51,24.54 0.1,34.91 -7.61,9.38 -21.0099,13.84 -36.7899,6.6 -6.55,-3.5 -11.15,-8.53 -13.6099,-14.34 -3.85,-9.07 -3.09,-19.81 1.6799,-27.95 6.99,-11.95 21.68,-19.8 39.6899,-7.34 1.67,0.96 2.25,3.11 1.29,4.78 -0.97,1.68 -3.1099,2.26 -4.7899,1.29 -12.47,-5.87 -21.04,-0.9 -24.37,7.14 -2,4.84 -1.74,10.64 0.7,15.53 1.37,2.75 3.56,5.18 6.78,6.84 8.09,4.79 15.41,3.27 20.1999,-1.17 6.14,-5.68 9.18,-14.93 4.02,-21.47 z"
     id="path532"
     style="stroke:none;stroke-width:0.2" /><path
     d="m 1890.6765,3261.3147 c -0.79,-1.76 0,-3.84 1.77,-4.63 1.76,-0.79 3.84,0 4.63,1.77 5.74,9.71 10.4599,19.27 13.6199,29.18 1.37,4.26 2.32,8.56 3.01,12.87 0.46,2.95 0.8,5.9 0.85,8.86 0.13,7.47 -0.83,14.88 -2.84,22.11 -2.82,10.2 -7.64,19.88 -14.4999,29.35 -0.96,1.68 -3.1,2.26 -4.78,1.3 -1.68,-0.96 -2.26,-3.1 -1.3,-4.78 2.74,-6.37 4.45,-12.62 5.76,-18.89 1.33,-6.41 1.79,-12.71 1.9,-19.06 0.06,-3.8 -0.1,-7.58 -0.29,-11.39 -0.19,-3.81 -0.39,-7.62 -0.8,-11.49 -0.49,-4.62 -1.08,-9.26 -1.96,-13.99 -1.3,-7 -2.83,-14 -5.07,-21.21 z"
     id="path534"
     style="stroke:none;stroke-width:0.2" /><path
     d="m 2061.5747,3262.8603 c -0.05,-1.93 1.47,-3.55 3.4,-3.61 1.94,-0.05 3.55,1.47 3.61,3.4 0,0 1.94,3.66 3.78,9.43 0.39,1.22 0.68,2.44 0.91,3.79 0.14,0.83 0.29,1.68 0.27,2.53 -0.06,2.25 -0.51,4.37 -0.98,6.39 -1.36,5.84 -3.05,9.63 -3.05,9.63 0.06,1.93 -1.46,3.55 -3.4,3.61 -1.93,0.05 -3.55,-1.47 -3.6,-3.4 0,0 -1.91,-3.69 -3.61,-9.44 -0.59,-1.99 -1.16,-4.08 -1.35,-6.32 -0.07,-0.85 0.03,-1.7 0.12,-2.54 0.15,-1.36 0.37,-2.6 0.68,-3.84 1.5,-5.87 3.22,-9.63 3.22,-9.63 z"
     id="path536"
     style="stroke:none;stroke-width:0.2" /><path
     d="m 2194.1714,3478.9131 c -0.05,-1.93 1.47,-3.55 3.4,-3.61 1.94,-0.05 3.55,1.47 3.61,3.4 0,0 1.94,3.66 3.78,9.43 0.39,1.22 0.68,2.44 0.91,3.79 0.14,0.83 0.29,1.68 0.27,2.53 -0.06,2.25 -0.51,4.37 -0.98,6.39 -1.36,5.84 -3.05,9.63 -3.05,9.63 0.06,1.93 -1.46,3.55 -3.4,3.61 -1.93,0.05 -3.55,-1.47 -3.6,-3.4 0,0 -1.91,-3.69 -3.61,-9.44 -0.59,-1.99 -1.16,-4.08 -1.35,-6.32 -0.07,-0.85 0.03,-1.7 0.12,-2.54 0.15,-1.36 0.37,-2.6 0.68,-3.84 1.5,-5.87 3.22,-9.63 3.22,-9.63 z"
     id="path538"
     style="stroke:none;stroke-width:0.2" /><path
     d="m 1686.3263,3372.8353 c -0.05,-1.93 1.47,-3.55 3.4,-3.61 1.94,-0.05 3.55,1.47 3.61,3.4 0,0 1.9399,3.66 3.7799,9.43 0.39,1.22 0.68,2.44 0.91,3.79 0.14,0.83 0.29,1.68 0.27,2.53 -0.06,2.25 -0.51,4.37 -0.98,6.39 -1.36,5.84 -3.05,9.63 -3.05,9.63 0.06,1.93 -1.4599,3.55 -3.3999,3.61 -1.93,0.05 -3.55,-1.47 -3.6,-3.4 0,0 -1.91,-3.69 -3.61,-9.44 -0.59,-1.99 -1.16,-4.08 -1.35,-6.32 -0.07,-0.85 0.03,-1.7 0.12,-2.54 0.15,-1.36 0.37,-2.6 0.68,-3.84 1.5,-5.87 3.22,-9.63 3.22,-9.63 z"
     id="path540"
     style="stroke:none;stroke-width:0.2" /><path
     d="m 2086.626,3301.9747 c -1.58,1.11 -3.77,0.73 -4.88,-0.85 -1.11,-1.59 -0.73,-3.78 0.86,-4.89 0,0 0.66,-2.72 3.31,-6.6 0.81,-1.19 1.69,-2.43 2.98,-3.3 1.32,-0.89 2.79,-1.18 4.22,-1.54 4.46,-1.11 7.24,-1.01 7.24,-1.01 1.58,-1.11 3.77,-0.73 4.8799,0.85 1.11,1.59 0.73,3.77 -0.8499,4.88 0,0 -0.86,2.65 -3.42,6.46 -0.82,1.23 -1.6,2.51 -2.88,3.45 -1.26,0.92 -2.72,1.32 -4.12,1.68 -4.55,1.18 -7.34,0.87 -7.34,0.87 z"
     id="path542"
     style="stroke:none;stroke-width:0.2" /><path
     d="m 2219.2226,3518.0276 c -1.58,1.11 -3.77,0.73 -4.88,-0.85 -1.11,-1.59 -0.73,-3.78 0.86,-4.89 0,0 0.66,-2.72 3.31,-6.6 0.81,-1.19 1.69,-2.43 2.98,-3.3 1.32,-0.89 2.79,-1.18 4.22,-1.54 4.46,-1.11 7.24,-1.01 7.24,-1.01 1.58,-1.11 3.77,-0.73 4.88,0.85 1.11,1.59 0.73,3.77 -0.85,4.88 0,0 -0.86,2.65 -3.42,6.46 -0.82,1.23 -1.6,2.51 -2.88,3.45 -1.26,0.92 -2.72,1.32 -4.12,1.68 -4.55,1.18 -7.34,0.87 -7.34,0.87 z"
     id="path544"
     style="stroke:none;stroke-width:0.2" /><path
     d="m 1711.3775,3411.9498 c -1.58,1.11 -3.77,0.73 -4.88,-0.85 -1.11,-1.59 -0.73,-3.78 0.86,-4.89 0,0 0.66,-2.72 3.31,-6.6 0.81,-1.19 1.69,-2.43 2.9799,-3.3 1.32,-0.89 2.79,-1.18 4.22,-1.54 4.46,-1.11 7.24,-1.01 7.24,-1.01 1.58,-1.11 3.77,-0.73 4.88,0.85 1.11,1.59 0.73,3.77 -0.85,4.88 0,0 -0.86,2.65 -3.42,6.46 -0.82,1.23 -1.6,2.51 -2.88,3.45 -1.26,0.92 -2.72,1.32 -4.12,1.68 -4.55,1.18 -7.3399,0.87 -7.3399,0.87 z"
     id="path546"
     style="stroke:none;stroke-width:0.2" /><path
     d="m 2023.3063,3301.7421 c -1.9213,-0.217 -3.3108,-1.9495 -3.1012,-3.8695 0.2096,-1.9201 1.9378,-3.3077 3.8585,-3.1008 0,0 3.3981,-1.4419 8.8655,-2.5504 1.1276,-0.2263 2.2451,-0.3627 3.4767,-0.4243 0.7488,-0.03 1.5126,-0.07 2.2713,0.06 2.0072,0.3409 3.8028,1.0551 5.5207,1.7761 5.0735,2.13 8.1127,4.2394 8.1127,4.2394 1.9207,0.2069 3.3102,1.9393 3.1006,3.8594 -0.209,1.9301 -1.9372,3.3177 -3.8585,3.1008 0,0 -3.4157,1.411 -8.8448,2.3804 -1.8406,0.3286 -3.7445,0.6447 -5.7687,0.5341 -0.7682,-0.031 -1.5156,-0.2309 -2.2316,-0.4301 -1.1932,-0.3287 -2.2641,-0.7026 -3.3093,-1.166 -5.0979,-2.2715 -8.0919,-4.4092 -8.0919,-4.4092 z"
     id="path548"
     style="stroke:none;stroke-width:0.25096" /><path
     d="m 2155.9032,3517.7949 c -1.9213,-0.2169 -3.3108,-1.9494 -3.1012,-3.8695 0.2096,-1.92 1.9378,-3.3077 3.8585,-3.1008 0,0 3.3981,-1.4418 8.8655,-2.5503 1.1276,-0.2264 2.2451,-0.3628 3.4767,-0.4243 0.7488,-0.03 1.5126,-0.07 2.2713,0.06 2.0072,0.3409 3.8028,1.055 5.5207,1.7761 5.0735,2.1299 8.1127,4.2393 8.1127,4.2393 1.9207,0.2069 3.3102,1.9394 3.1006,3.8594 -0.209,1.9301 -1.9372,3.3178 -3.8585,3.1008 0,0 -3.4157,1.411 -8.8448,2.3805 -1.8406,0.3286 -3.7445,0.6446 -5.7687,0.5341 -0.7682,-0.031 -1.5156,-0.231 -2.2316,-0.4302 -1.1932,-0.3286 -2.2641,-0.7026 -3.3093,-1.166 -5.0979,-2.2715 -8.0919,-4.4092 -8.0919,-4.4092 z"
     id="path550"
     style="stroke:none;stroke-width:0.25096" /><path
     d="m 1648.0578,3411.7174 c -1.9213,-0.2169 -3.3108,-1.9494 -3.1012,-3.8694 0.2096,-1.9201 1.9378,-3.3077 3.8585,-3.1008 0,0 3.3981,-1.4419 8.8655,-2.5504 1.1276,-0.2264 2.2451,-0.3628 3.4767,-0.4243 0.7488,-0.03 1.5126,-0.07 2.2713,0.06 2.0072,0.3409 3.8028,1.055 5.5207,1.7761 5.0735,2.13 8.1127,4.2394 8.1127,4.2394 1.9207,0.2068 3.3102,1.9393 3.1006,3.8594 -0.209,1.9301 -1.9372,3.3177 -3.8585,3.1008 0,0 -3.4157,1.411 -8.8448,2.3804 -1.8406,0.3286 -3.7445,0.6447 -5.7687,0.5341 -0.7682,-0.03 -1.5156,-0.231 -2.2316,-0.4301 -1.1932,-0.3287 -2.2641,-0.7027 -3.3093,-1.166 -5.0979,-2.2715 -8.0919,-4.4093 -8.0919,-4.4093 z"
     id="path552"
     style="stroke:none;stroke-width:0.25096" /><path
     d="m 2059.6775,3312.1892 c 1.1379,-1.5613 3.3389,-1.9022 4.8997,-0.7732 1.5588,1.1516 1.9087,3.3411 0.7708,4.9024 0,0 -0.047,3.3094 -1.6605,8.2201 -0.5226,1.5829 -1.1048,3.239 -2.2005,4.6836 -1.0967,1.4559 -2.5551,2.4268 -3.9296,3.4124 -4.1236,2.9567 -7.1695,4.1886 -7.1695,4.1886 -1.1379,1.5613 -3.34,1.9135 -4.8997,0.7732 -1.5598,-1.1402 -1.9087,-3.3411 -0.7601,-4.9034 0,0 0.2349,-3.2705 1.7998,-8.109 0.5138,-1.6046 0.9927,-3.2962 2.0505,-4.7937 1.0333,-1.4613 2.4363,-2.5285 3.7894,-3.5121 4.1736,-3.0404 7.3097,-4.0889 7.3097,-4.0889 z"
     id="path554"
     style="stroke:none;stroke-width:0.220036" /><path
     d="m 2192.2751,3528.2418 c 1.1379,-1.5613 3.339,-1.9022 4.8998,-0.7733 1.5588,1.1517 1.9087,3.3412 0.7708,4.9025 0,0 -0.047,3.3093 -1.6606,8.2201 -0.5225,1.5828 -1.1047,3.2389 -2.2004,4.6835 -1.0967,1.456 -2.5551,2.4269 -3.9297,3.4124 -4.1236,2.9568 -7.1694,4.1887 -7.1694,4.1887 -1.1379,1.5613 -3.34,1.9135 -4.8998,0.7732 -1.5598,-1.1403 -1.9087,-3.3411 -0.7601,-4.9034 0,0 0.2349,-3.2706 1.7998,-8.1091 0.5138,-1.6046 0.9927,-3.2961 2.0505,-4.7936 1.0333,-1.4613 2.4364,-2.5285 3.7894,-3.5121 4.1736,-3.0404 7.3097,-4.0889 7.3097,-4.0889 z"
     id="path556"
     style="stroke:none;stroke-width:0.220036" /><path
     d="m 1684.4287,3422.1643 c 1.1379,-1.5614 3.339,-1.9022 4.8998,-0.7733 1.5588,1.1517 1.9087,3.3411 0.7708,4.9025 0,0 -0.047,3.3093 -1.6606,8.2201 -0.5225,1.5828 -1.1047,3.2389 -2.2004,4.6835 -1.0967,1.456 -2.5551,2.4268 -3.9296,3.4124 -4.1237,2.9568 -7.1695,4.1886 -7.1695,4.1886 -1.1379,1.5614 -3.34,1.9136 -4.8998,0.7733 -1.5598,-1.1403 -1.9087,-3.3411 -0.76,-4.9035 0,0 0.2348,-3.2705 1.7997,-8.109 0.5139,-1.6046 0.9928,-3.2962 2.0505,-4.7936 1.0334,-1.4613 2.4364,-2.5285 3.7895,-3.5121 4.1735,-3.0404 7.3096,-4.0889 7.3096,-4.0889 z"
     id="path558"
     style="stroke:none;stroke-width:0.220036" /><path
     d="m 2073.616,3316.3147 c -1.13,-1.57 -0.79,-3.76 0.78,-4.9 1.56,-1.13 3.76,-0.78 4.89,0.78 0,0 2.82,0.7 6.79,3.38 1.23,0.83 2.51,1.72 3.43,3.04 0.93,1.34 1.28,2.85 1.68,4.31 1.26,4.51 1.26,7.39 1.26,7.39 1.14,1.56 0.79,3.76 -0.78,4.89 -1.56,1.14 -3.75,0.79 -4.89,-0.77 0,0 -2.74,-0.9 -6.64,-3.49 -1.26,-0.83 -2.59,-1.63 -3.57,-2.93 -0.97,-1.29 -1.42,-2.78 -1.83,-4.21 -1.32,-4.6 -1.12,-7.49 -1.12,-7.49 z"
     id="path560"
     style="stroke:none;stroke-width:0.2" /><path
     d="m 2206.2127,3532.3676 c -1.13,-1.57 -0.79,-3.76 0.78,-4.9 1.56,-1.13 3.7599,-0.78 4.8899,0.78 0,0 2.82,0.7 6.79,3.38 1.23,0.83 2.51,1.72 3.43,3.04 0.93,1.34 1.28,2.85 1.68,4.31 1.26,4.51 1.26,7.39 1.26,7.39 1.14,1.56 0.79,3.76 -0.78,4.89 -1.56,1.14 -3.75,0.79 -4.89,-0.77 0,0 -2.74,-0.9 -6.64,-3.49 -1.26,-0.83 -2.59,-1.63 -3.57,-2.93 -0.9699,-1.29 -1.4199,-2.78 -1.8299,-4.21 -1.32,-4.6 -1.12,-7.49 -1.12,-7.49 z"
     id="path562"
     style="stroke:none;stroke-width:0.2" /><path
     d="m 1698.3675,3426.2898 c -1.13,-1.57 -0.79,-3.76 0.78,-4.9 1.56,-1.13 3.76,-0.78 4.89,0.78 0,0 2.82,0.7 6.79,3.38 1.23,0.83 2.5099,1.72 3.4299,3.04 0.93,1.34 1.28,2.85 1.68,4.31 1.26,4.51 1.26,7.39 1.26,7.39 1.14,1.56 0.79,3.76 -0.78,4.89 -1.56,1.14 -3.7499,0.79 -4.8899,-0.77 0,0 -2.74,-0.9 -6.64,-3.49 -1.26,-0.83 -2.59,-1.63 -3.57,-2.93 -0.97,-1.29 -1.42,-2.78 -1.83,-4.21 -1.32,-4.6 -1.12,-7.49 -1.12,-7.49 z"
     id="path564"
     style="stroke:none;stroke-width:0.2" /></g>&#10;</svg>
