<?xml version="1.0" encoding="UTF-8" standalone="no"?>
<svg
   width="3575.2114"
   height="2318.1978"
   viewBox="0 0 3575.2115 2318.1978"
   version="1.1"
   xml:space="preserve"
   style="clip-rule:evenodd;fill-rule:evenodd;stroke-linejoin:round;stroke-miterlimit:2"
   id="svg5353"
   xmlns="http://www.w3.org/2000/svg"
   xmlns:svg="http://www.w3.org/2000/svg"><defs
   id="defs5353" />&#10;    <g
   id="vectorly-UNI-passport"
   transform="matrix(5.3252365,0,0,5.3252365,-17260.711,-73674.141)"
   style="stroke-width:0.187785"><path
     d="m 3892.2415,13992.81 c -4.77,-0.1 -10.96,-0.1 -18.2999,0 -73.7199,1.2 -258.6694,13.1 -273.8794,14.7 -2.29,1.2 -6.7099,4 -12.8599,8 -25.3,16.5 -78.1898,53.1 -130.8897,89.9 -52.7199,36.9 -105.2797,74 -129.4497,92.1 -4.55,3.4 -8.07,6.1 -10.34,7.9 2.2,1.8 6.82,5.4 11.33,7.5 2.77,1.3 5.83,2.6 9.09,3.7 6.49,2.3 13.8,4.3 21.3599,5.6 17.81,3.1 56.6899,8.1 102.0598,13.6 103.0097,12.4 239.3594,27.4 239.3594,27.4 1.92,0.2 3.33,1.9 3.14,3.8 -0.2,1.9 -1.92,3.4 -3.84,3.2 0,0 -136.6697,-12.5 -239.9194,-23.3 -45.7299,-4.7 -84.9198,-9.2 -102.8898,-12 -19.3799,-3.1 -37.2899,-10.3 -46.2598,-17 -8.21,-6.2 -9.58,-13.3 -6.84,-18.2 0.63,-1.1 6,-6 15.4099,-13.2 24.03,-18.5 76.2099,-56.4 128.8597,-93.8 52.6499,-37.3 105.7598,-74 131.1697,-90.5 6.78,-4.4 11.7,-7.4 14.22,-8.7 1.93,-1 3.34,-1.4 4.0399,-1.5 7.33,-1.1 200.9296,-11.8 276.9894,-12.1 13.9399,0 24.0599,0.3 28.5899,1 5.09,0.8 7.02,3.7 7.44,4.9 0.69,1.9 0.68,3.9 -0.76,6 -1.91,2.7 -27.3,31.3 -59.4199,67 -58.3598,65 -138.9796,153.9 -138.9796,153.9 -1.28,1.4 -3.5,1.6 -4.94,0.3 -1.45,-1.3 -1.58,-3.5 -0.3,-5 0,0 98.8697,-113.3 155.4396,-178.8 13.59,-15.7 24.7299,-28.6 31.3699,-36.4 z m -292.9593,14.8 c -0.01,0 -0.01,0 -0.01,0 z"
     id="path3958"
     style="stroke:none;stroke-width:0.187785" /><path
     d="m 3892.5215,14034.71 c -2.27,-0.5 -4.93,-1.1 -7.61,-1.6 -7.4099,-1.5 -14.8499,-2.7 -14.8499,-2.7 -1.92,-0.2 -3.29,-1.9 -3.07,-3.9 0.23,-1.9 1.97,-3.3 3.89,-3 0,0 15.6099,1.2 24.5699,2.7 4.16,0.7 7.12,1.9 8.02,2.7 0.57,0.4 2.74,3.3 0.3,7.2 -0.97,1.6 -3.29,4.7 -6.74,9 -7.16,9.1 -19.2599,24 -34.2499,41.6 -10.6,12.5 -22.56,26.4 -35.2199,40.5 -7.84,8.8 -15.98,17.7 -24.15,26.5 -8.2499,8.8 -16.5599,17.5 -24.6599,25.9 -40.4899,42 -75.1098,76.8 -75.1098,76.8 -1.31,1.4 -3.53,1.5 -4.96,0.2 -1.42,-1.3 -1.51,-3.6 -0.2,-5 0,0 31.6999,-37.4 69.8398,-81.5 7.62,-8.8 15.51,-17.9 23.53,-27 7.9499,-8.9 15.9799,-17.9 23.9499,-26.5 12.85,-14 25.4399,-27.3 36.6499,-39.2 15.78,-16.7 28.9699,-30.4 36.6899,-38.9 1.29,-1.5 2.42,-2.7 3.38,-3.8 z m 5.19,1.6 c 0.01,0 0.01,0 0.01,0 z"
     id="path3960"
     style="stroke:none;stroke-width:0.187785" /><path
     d="m 3691.502,14223.31 c 1.93,0.2 3.34,1.9 3.16,3.8 -0.18,2 -1.89,3.4 -3.81,3.2 0,0 -38.4999,-2 -90.9898,-5.3 -18.7899,-1.1 -39.3599,-2.4 -60.5998,-4 -14.94,-1 -30.2099,-2.2 -45.3999,-3.5 -15.32,-1.3 -30.5599,-2.8 -45.3299,-4.2 -43.8899,-4.2 -83.5898,-8.2 -108.7097,-9.8 -9.48,-0.6 -16.83,-1 -21.5,-0.9 -2.05,0 -3.42,0 -3.99,0.2 -1.7199,0.9 -3.8399,0.2 -4.7199,-1.5 -0.88,-1.7 -0.19,-3.8 1.53,-4.7 1.77,-1 9.0599,-1.8 20.5699,-1.9 17.1,-0.2 44.2299,0.5 76.1798,1.9 14.95,0.6 30.9499,1.4 47.4499,2.4 15.51,1 31.4599,2 47.3899,3.2 10.14,0.8 20.2599,1.8 30.2699,2.8 15.55,1.5 30.8099,3 45.3399,4.6 63.4898,7.1 113.1597,13.7 113.1597,13.7 z"
     id="path3962"
     style="stroke:none;stroke-width:0.187785" /><path
     d="m 3691.572,14247.71 c 1.92,0.3 3.31,2 3.09,3.9 -0.22,1.9 -1.96,3.3 -3.88,3.1 0,0 -50.6799,-3.8 -115.2497,-9.8 -14.77,-1.3 -30.2599,-2.9 -46.0199,-4.5 -10.15,-1.1 -20.4099,-2.1 -30.6499,-3.4 -26.1499,-3.2 -52.2399,-6.8 -76.4098,-10.2 -59.5999,-8.4 -107.3298,-16 -114.5697,-17.7 -1.9,-0.4 -3.13,-2.2 -2.75,-4.1 0.37,-1.9 2.22,-3.2 4.11,-2.8 7.2899,1.3 55.2098,5.3 114.8197,11.1 24.2799,2.3 50.4899,4.9 76.6598,7.8 10.25,1.2 20.4799,2.5 30.5899,3.8 15.72,2 31.1499,4.1 45.8299,6.1 64.2098,9 114.4297,16.7 114.4297,16.7 z"
     id="path3964"
     style="stroke:none;stroke-width:0.187785" /><path
     d="m 3906.6615,14054.21 c 1.35,-1.4 3.57,-1.4 4.96,0 1.38,1.3 1.41,3.5 0.06,4.9 0,0 -24.77,28.2 -57.0799,63.6 -7.4,8.1 -15.23,16.5 -23.2699,25 -5.17,5.5 -10.4,11 -15.76,16.5 -13.67,13.8 -27.6099,27.4 -40.5599,39.9 -34.4399,33.3 -61.9798,58.9 -61.9798,58.9 -1.35,1.3 -3.57,1.4 -4.95,0 -1.39,-1.3 -1.42,-3.6 -0.07,-4.9 0,0 24.8199,-28.2 57.2198,-63.5 12.18,-13.3 25.39,-27.6 38.8899,-41.6 5.29,-5.5 10.69,-10.9 16.03,-16.2 8.31,-8.2 16.51,-16.3 24.4099,-23.9 34.5199,-33.2 62.0999,-58.7 62.0999,-58.7 z"
     id="path3966"
     style="stroke:none;stroke-width:0.187785" /><path
     d="m 3373.3328,14010.51 c -6.74,5.1 -32.9399,24.3 -59.3998,43 -16.53,11.7 -33.16,23.3 -44.9299,31.4 24.1399,2 65.4898,5.5 98.7997,8.8 25.4,2.5 46.1499,5 51.3199,6.4 1.88,0.5 3.02,2.4 2.55,4.2 -0.47,1.9 -2.37,3.1 -4.25,2.6 -5.11,-1.2 -25.4699,-2.4 -50.3499,-3.8 -50.3899,-2.8 -119.0697,-5.6 -119.0697,-5.6 -3.02,-0.2 -5.59,-2.3 -6.42,-5.2 -0.84,-2.9 0.26,-6 2.72,-7.7 0,0 29.9899,-22.2 60.3799,-44 28.4799,-20.5 57.3298,-40.5 60.6998,-43 0.94,-0.8 3.28,-2 7.16,-2.5 6.15,-0.9 18.96,-1.4 35.1899,-1.5 55.7199,-0.3 152.6496,3.3 152.6496,3.3 1.93,0 3.48,1.6 3.46,3.6 -0.03,1.9 -1.62,3.5 -3.55,3.4 0,0 -77.1798,1.1 -133.2396,3 -18.69,0.6 -34.9999,1.3 -45.2399,2.2 -4.15,0.4 -9.07,-0.3 -8.62,1.2 0.03,0.1 0.08,0.2 0.14,0.2 z m 0,0 c 0.6,-0.5 1.05,-0.8 1.33,-1 -0.25,0.2 -0.99,1.2 -1.33,1 z"
     id="path3968"
     style="stroke:none;stroke-width:0.187785" /><path
     d="m 3248.1831,14111.61 c -1.93,-0.1 -3.39,-1.8 -3.25,-3.7 0.13,-1.9 1.81,-3.4 3.73,-3.3 0,0 18.52,-0.7 42.2799,-0.6 5.42,0.1 11.09,0.2 16.87,0.4 3.72,0.1 7.4799,0.3 11.2299,0.6 9.59,0.8 19.12,1.9 27.94,3.1 23.5499,3 41.8099,6.2 41.8099,6.2 1.93,0.1 3.39,1.8 3.26,3.7 -0.14,1.9 -1.81,3.4 -3.74,3.3 0,0 -18.52,0.6 -42.2699,0.4 -8.9,-0.1 -18.5,-0.2 -28.1,-0.8 -3.76,-0.2 -7.4999,-0.6 -11.1999,-0.9 -5.76,-0.6 -11.39,-1.3 -16.76,-2 -23.5499,-3.2 -41.7999,-6.4 -41.7999,-6.4 z"
     id="path3970"
     style="stroke:none;stroke-width:0.187785" /><path
     d="m 3248.0931,14125.91 c -1.93,-0.2 -3.34,-1.9 -3.16,-3.8 0.19,-2 1.9,-3.4 3.83,-3.2 0,0 16.98,-0.3 38.7799,0.2 4.97,0.2 10.16,0.4 15.46,0.7 3.4,0.2 6.84,0.5 10.27,0.8 8.7699,1 17.4699,2.3 25.5199,3.7 21.5099,3.5 38.1299,7 38.1299,7 1.93,0.2 3.34,1.9 3.15,3.8 -0.18,1.9 -1.9,3.3 -3.82,3.2 0,0 -16.98,0.2 -38.7699,-0.4 -8.16,-0.3 -16.95,-0.6 -25.7399,-1.4 -3.44,-0.2 -6.86,-0.7 -10.24,-1.1 -5.26,-0.7 -10.4,-1.5 -15.3,-2.3 -21.5099,-3.6 -38.1099,-7.2 -38.1099,-7.2 z"
     id="path3972"
     style="stroke:none;stroke-width:0.187785" /><path
     d="m 3379.3328,14030.91 c -3.49,2.4 -25.0699,17.8 -25.0699,17.8 l 5.1299,2.1 c 1.85,0.6 2.9,2.5 2.33,4.4 -0.56,1.8 -2.52,2.9 -4.37,2.3 l -14.6599,-3 c -1.72,-0.5 -3.02,-1.9 -3.4,-3.7 -0.37,-1.7 0.24,-3.6 1.6,-4.7 0,0 11.8,-12.3 21.0299,-20.9 5.23,-4.9 9.94,-8.3 11.44,-9.1 1.87,-0.9 6.69,-1.5 12.39,-0.8 8.63,1 20.0199,4 20.0199,4 2.58,0.5 4.67,2.4 5.43,4.9 0.77,2.5 0.08,5.3 -1.79,7.1 l -30.3499,25.1 c -1.38,1.4 -3.6,1.4 -4.96,0 -1.36,-1.3 -1.36,-3.6 0.01,-4.9 0,0 16.4,-19.7 16.4,-19.7 -0.71,-0.1 -1.44,-0.1 -2.15,-0.2 -3.35,-0.4 -6.62,-0.7 -8.87,-0.7 -0.05,0 -0.1,0 -0.16,0 z m -0.03,0 c -0.25,-0.1 -0.52,-0.2 -0.5,0 0.03,0.2 0.26,0.1 0.5,0 z"
     id="path3974"
     style="stroke:none;stroke-width:0.187785" /><path
     d="m 3414.5527,14049.91 c -1.93,0 -3.43,-1.7 -3.35,-3.6 0.08,-1.9 1.71,-3.4 3.64,-3.4 0,0 8.58,-1.5 20.01,-2.6 2.5699,-0.3 5.2299,-0.4 7.9799,-0.5 1.76,0 3.54,-0.1 5.31,0 4.55,0.3 9.03,1 13.19,1.8 11.29,1.9 19.7199,4.1 19.7199,4.1 1.94,0.1 3.44,1.7 3.36,3.7 -0.08,1.9 -1.71,3.4 -3.65,3.3 0,0 -8.5899,1.5 -19.9999,2.5 -4.21,0.4 -8.73,0.7 -13.29,0.6 -1.78,0 -3.54,-0.2 -5.29,-0.4 -2.74,-0.3 -5.38,-0.7 -7.9099,-1.1 -11.3,-2.1 -19.72,-4.4 -19.72,-4.4 z"
     id="path3976"
     style="stroke:none;stroke-width:0.187785" /><path
     d="m 3431.55,14028.169 c -1.93,0 -3.4299,-1.7 -3.3499,-3.6 0.08,-1.9 1.7099,-3.399 3.6399,-3.399 0,0 8.58,-1.5 20.01,-2.6 2.57,-0.3 5.23,-0.4 7.98,-0.5 1.76,0 3.54,-0.1 5.31,0 4.5499,0.3 9.0299,1 13.1899,1.8 11.29,1.899 19.72,4.099 19.72,4.099 1.94,0.1 3.44,1.7 3.36,3.7 -0.08,1.9 -1.71,3.4 -3.65,3.3 0,0 -8.59,1.5 -20,2.5 -4.21,0.4 -8.73,0.7 -13.2899,0.6 -1.78,0 -3.54,-0.2 -5.29,-0.4 -2.74,-0.3 -5.38,-0.7 -7.91,-1.1 -11.3,-2.1 -19.72,-4.4 -19.72,-4.4 z"
     id="path3978"
     style="stroke:none;stroke-width:0.187785" /><path
     d="m 3410.5327,13872.71 c -0.61,1.7 -1.15,4.4 -1.96,6.6 -3.62,9.9 -8.38,25.8 -13.27,43 -10.8499,38.1 -22.2599,82.3 -22.2599,82.3 -0.42,1.9 -2.3,3.1 -4.19,2.6 -1.89,-0.4 -3.07,-2.3 -2.65,-4.2 0,0 11.07,-56.6 20.96,-97.5 3.35,-13.9 6.62,-26 9.1999,-33.5 1.89,-5.5 3.92,-9.1 5.16,-10.3 0.58,-0.6 1.54,-1.4 2.98,-2 1.6,-0.8 4.86,-1.7 9.58,-2.6 8.71,-1.6 23.2199,-3.7 41.3099,-5.8 12.28,-1.3 26.2099,-2.8 41.0999,-4.1 26.7899,-2.2 56.6399,-4.2 85.3198,-5.9 67.2798,-4 128.0897,-6.4 128.0897,-6.4 1.93,-0.1 3.61,1.3 3.74,3.2 0.14,2 -1.32,3.6 -3.25,3.8 0,0 -35.3599,3.5 -81.9798,8.2 -25.3,2.5 -53.8899,5.4 -81.9398,8.2 -18.84,1.9 -37.4299,3.8 -54.5999,5.4 -21.0199,2 -39.8999,3.6 -54.4599,5.2 -10.3999,1.2 -18.5399,2.1 -23.5999,3.1 -1.23,0.2 -2.67,0.6 -3.28,0.7 z m 0.07,-0.2 c 0.35,-0.2 0.85,-0.6 1.02,-0.7 0.1,-0.1 0.49,-0.3 0.32,-0.4 -0.53,-0.4 -0.95,0.2 -1.34,1.1 z"
     id="path3980"
     style="stroke:none;stroke-width:0.187785" /><path
     d="m 3707.192,13847.01 c 1.04,-1.6 3.21,-2.1 4.84,-1.1 1.63,1.1 2.11,3.2 1.07,4.9 0,0 -6.45,13 -15.26,32.7 -2.99,6.6 -6.21,14 -9.69,21.9 -2.08,4.7 -4.24,9.5 -6.53,14.5 -3.28,7 -6.7599,14.2 -10.0699,21.6 -5.87,13.1 -11.5,26.4 -15.42,39.7 -0.4,1.9 -2.26,3.1 -4.16,2.7 -1.89,-0.4 -3.1,-2.3 -2.69,-4.2 1.9,-14.2 5.08,-28.9 9.49,-43 2.97,-9.6 6.37,-18.9 10.19,-27.6 1.6,-3.6 3.36,-7.1 5.12,-10.5 2.83,-5.4 5.6799,-10.6 8.5399,-15.3 13.26,-22.1 24.57,-36.3 24.57,-36.3 z"
     id="path3982"
     style="stroke:none;stroke-width:0.187785" /><path
     d="m 3428.0727,13890.11 c -1.94,0.1 -3.59,-1.4 -3.69,-3.4 -0.1,-1.9 1.39,-3.5 3.32,-3.6 0,0 17.7599,-2.9 41.1299,-5.7 5.27,-0.7 10.7999,-1.2 16.4899,-1.7 3.62,-0.3 7.3,-0.7 11,-0.8 9.31,-0.4 18.7,-0.4 27.5999,-0.4 17.24,0.1 32.4099,0.7 41.4499,0.8 1.93,-0.1 3.61,1.4 3.74,3.3 0.14,1.9 -1.32,3.6 -3.25,3.7 -8.97,1.4 -23.9999,3.8 -41.1699,5.9 -8.84,1 -18.1899,2 -27.4899,2.7 -3.7,0.2 -7.4,0.3 -11.04,0.4 -5.71,0.1 -11.2699,0.1 -16.5699,0.1 -23.56,-0.3 -41.5199,-1.3 -41.5199,-1.3 z"
     id="path3984"
     style="stroke:none;stroke-width:0.187785" /><path
     d="m 3427.8827,13918.21 c -1.93,0 -3.5,-1.6 -3.5,-3.5 0,-2 1.57,-3.5 3.5,-3.5 0,0 6.7,-2 15.9099,-3.5 2.04,-0.4 4.16,-0.7 6.36,-0.8 1.4,-0.2 2.82,-0.3 4.25,-0.2 3.66,0.1 7.25,0.6 10.6,1.1 9.18,1.5 15.9099,3.4 15.9099,3.4 1.93,0 3.5,1.5 3.5,3.5 0,1.9 -1.57,3.5 -3.5,3.5 0,0 -6.7299,1.8 -15.9099,3.3 -3.35,0.5 -6.94,1 -10.6,1.2 -1.43,0 -2.85,-0.1 -4.25,-0.2 -2.2,-0.2 -4.32,-0.5 -6.36,-0.8 -9.2099,-1.6 -15.9099,-3.5 -15.9099,-3.5 z"
     id="path3986"
     style="stroke:none;stroke-width:0.187785" /><path
     d="m 3711.264,14073.211 c 1.3577,-1.315 3.5613,-1.268 4.9244,0.105 1.363,1.374 1.3486,3.582 0,4.897 -7.9013,8.569 -18.3336,15.835 -29.8565,21.062 -11.5706,5.321 -24.1146,8.222 -36.2563,8.539 -16.1565,0.135 -28.5198,-5.026 -35.9534,-12.866 -9.3721,-9.801 -11.5795,-24.154 -3.9148,-39.929 6.8099,-13.008 19.8411,-24.828 35.7181,-32.554 14.3256,-6.991 30.7693,-10.768 46.0684,-9.866 14.425,0.884 25.5004,5.538 32.2941,12.596 5.843,6.077 8.7585,13.821 7.8729,22.443 -0.1529,2.013 -1.7799,3.418 -3.7496,3.376 -1.922,-0.137 -3.3881,-1.8 -3.2829,-3.718 0.1237,-7.775 -3.7679,-14.195 -10.6255,-18.278 -5.739,-3.387 -13.4821,-5.088 -22.7584,-4.902 -13.228,0.101 -27.0528,4.511 -39.1069,11.166 -12.4451,6.839 -23.0396,16.311 -28.1639,26.955 -4.5389,8.736 -4.2395,16.808 0.7741,22.579 5.049,5.677 13.6964,9.318 25.1253,9.85 10.521,0.705 21.6659,-1.169 32.105,-4.883 10.8316,-3.801 20.9557,-9.538 28.7827,-16.572 z"
     id="path3988"
     style="stroke:none;stroke-width:0.20416" /><path
     d="m 3620.7822,14055.91 c -1.93,-0.1 -3.38,-1.8 -3.24,-3.7 0.15,-1.9 1.83,-3.4 3.76,-3.2 0,0 13.3,-1 30.7699,-1.1 3.94,0 8.05,0.1 12.28,0.3 2.69,0.1 5.42,0.3 8.15,0.6 6.8999,0.7 13.7699,1.9 20.2399,3.2 13.09,2.5 24.21,5.4 30.2499,7.5 1.89,0.4 3.1,2.2 2.69,4.1 -0.41,1.9 -2.27,3.1 -4.16,2.7 -6.1499,-0.6 -17.3099,-0.4 -30.2399,-0.8 -6.52,-0.1 -13.42,-0.3 -20.2799,-0.8 -2.71,-0.2 -5.4,-0.6 -8.06,-1 -4.17,-0.5 -8.21,-1.1 -12.06,-1.8 -17.1499,-3 -30.0999,-6 -30.0999,-6 z"
     id="path3990"
     style="stroke:none;stroke-width:0.187785" /><path
     d="m 3682.382,14016.91 c 0.83,-1.7 2.93,-2.5 4.67,-1.6 1.75,0.8 2.49,2.9 1.65,4.6 0,0 -3.31,11.5 -8.42,26.1 -1.16,3.3 -2.46,6.7 -3.8599,10.2 -0.9,2.2 -1.8,4.4 -2.86,6.6 -2.68,5.6 -5.69,10.9 -8.51,16 -6.3,11.1 -11.93,19.9 -13.08,23.1 -0.43,1.9 -2.31,3.1 -4.2,2.7 -1.88,-0.5 -3.07,-2.4 -2.63,-4.2 0.36,-3.6 3.07,-14.3 7.43,-27.2 1.86,-5.5 3.97,-11.4 6.46,-17.1 0.98,-2.2 2.11,-4.4 3.23,-6.5 1.75,-3.3 3.52,-6.5 5.32,-9.5 7.96,-13.4 14.7999,-23.2 14.7999,-23.2 z"
     id="path3992"
     style="stroke:none;stroke-width:0.187785" /><path
     d="m 3682.302,14098.01 c -0.82,1.7 -2.9,2.5 -4.66,1.7 -1.7499,-0.8 -2.5199,-2.9 -1.7099,-4.7 0,0 2.3399,-9.7 5.7399,-22.6 1.23,-4.6 2.5,-9.6 4.09,-14.7 1.27,-4 2.83,-7.9 4.19,-11.8 1.44,-4.1 2.92,-8 3.98,-11.7 1.59,-5.6 2.82,-10.4 2.23,-14.3 -0.56,-1.8 0.48,-3.8 2.33,-4.4 1.85,-0.5 3.81,0.5 4.38,2.4 2.81,6.1 3.31,15.7 2,26.6 -0.66,5.4 -1.77,11.1 -3.4,16.6 -0.64,2.1 -1.47,4.2 -2.3,6.3 -1.31,3.2 -2.69,6.2 -4.15,9.1 -6.49,12.6 -12.72,21.5 -12.72,21.5 z"
     id="path3994"
     style="stroke:none;stroke-width:0.187785" /><path
     d="m 3616.6022,14087.61 c -1.9,0.5 -3.76,-0.7 -4.17,-2.6 -0.41,-1.9 0.79,-3.8 2.68,-4.2 0,0 8.11,-3.6 20.64,-6.5 2.6699,-0.6 5.5099,-1 8.5299,-1.3 1.86,-0.2 3.79,-0.4 5.75,-0.4 4.7,0 9.56,0.6 14.44,1.5 7.24,1.4 14.1799,3.7 20.8699,6.7 1.86,0.5 2.97,2.5 2.46,4.3 -0.5,1.9 -2.43,3 -4.3,2.5 -6.6599,-0.7 -13.2699,-0.2 -19.9999,0.1 -4.52,0.3 -8.92,0.8 -13.19,0.9 -4.74,0.1 -9.22,-0.2 -13.32,-0.3 -12.1099,-0.4 -20.3899,-0.7 -20.3899,-0.7 z"
     id="path3996"
     style="stroke:none;stroke-width:0.187785" /><path
     d="m 3668.4121,14018.41 c 1.25,-1.5 3.47,-1.6 4.94,-0.4 1.47,1.3 1.64,3.5 0.39,4.9 0,0 -3.94,7.7 -9.6,17.9 -2.01,3.6 -4.11,7.6 -6.57,11.5 -1.92,3 -4.11,5.9 -6.14,8.9 -2.11,3.1 -4.24,5.9 -6.04,8.9 -2.56,4.1 -4.78,7.8 -5.69,11.5 -0.15,1.9 -1.84,3.4 -3.7699,3.2 -1.92,-0.1 -3.37,-1.8 -3.22,-3.7 -0.5,-6.5 1.11,-14.5 4.2299,-22.9 1.7,-4.5 3.84,-9.1 6.42,-13.4 1.01,-1.6 2.19,-3.2 3.37,-4.8 1.85,-2.4 3.72,-4.6 5.64,-6.7 8.6,-9.1 16.04,-14.9 16.04,-14.9 z"
     id="path3998"
     style="stroke:none;stroke-width:0.187785" /><path
     d="m 3646.2621,14031.91 c -1.47,-1.3 -1.62,-3.5 -0.36,-5 1.27,-1.4 3.49,-1.6 4.95,-0.3 0,0 5.56,2.2 15.75,2.9 2.67,0.1 5.61,0 8.94,0 1.8899,0 3.8899,0.1 6.0199,0.1 3.62,0 7.45,0.2 11.79,-0.1 3.88,-0.3 7.86,-0.4 12.34,-1.2 1.81,-0.7 3.83,0.2 4.51,2 0.68,1.9 -0.24,3.9 -2.05,4.6 -6.36,3.8 -12.03,6.5 -17.64,8.2 -4.71,1.5 -9.14,2.3 -13.22,2.4 -1.9099,0 -3.7299,-0.1 -5.4599,-0.4 -2.97,-0.4 -5.64,-1.1 -8.05,-1.9 -2.96,-1.1 -5.44,-2.2 -7.58,-3.4 -6.98,-4.2 -9.94,-7.9 -9.94,-7.9 z"
     id="path4000"
     style="stroke:none;stroke-width:0.187785" /><path
     d="m 3541.0324,14116.51 c -1.92,-0.2 -3.29,-1.9 -3.06,-3.9 0.23,-1.9 1.97,-3.2 3.89,-3 0,0 16.6899,0 38.0999,1 4.88,0.3 9.97,0.6 15.17,1 3.3299,0.3 6.7099,0.6 10.0699,1.1 8.59,1.1 17.1,2.6 24.98,4.1 21.0499,4 37.2799,7.8 37.2799,7.8 1.92,0.3 3.3,2 3.07,3.9 -0.23,2 -1.98,3.3 -3.9,3.1 0,0 -16.69,-0.1 -38.0799,-1.2 -8,-0.4 -16.64,-1 -25.26,-1.9 -3.36,-0.3 -6.71,-0.8 -10.0199,-1.4 -5.15,-0.8 -10.18,-1.6 -14.98,-2.6 -21.05,-4 -37.2599,-8 -37.2599,-8 z"
     id="path4002"
     style="stroke:none;stroke-width:0.187785" /><path
     d="m 3489.8497,14141.611 c -1.9223,-0.176 -3.299,-1.938 -3.0679,-3.837 0.2311,-1.9 1.986,-3.339 3.8994,-3.063 0,0 24.8853,0.975 56.6631,3.225 7.2677,0.587 14.8473,1.185 22.5962,1.891 4.9648,0.495 10.0039,0.994 15.025,1.693 12.8113,1.608 25.5567,3.614 37.3513,5.583 31.4176,5.25 55.8407,10.025 55.8407,10.025 1.9282,0.277 3.3049,2.038 3.0738,3.938 -0.2311,1.9 -1.9712,3.339 -3.8994,3.063 0,0 -24.8911,-1.076 -56.645,-3.426 -11.9089,-0.868 -24.7951,-1.976 -37.6393,-3.384 -5.0094,-0.497 -10.0155,-1.196 -14.9681,-1.993 -7.6979,-1.105 -15.2175,-2.203 -22.4071,-3.49 -31.4027,-5.249 -55.8227,-10.225 -55.8227,-10.225 z"
     id="path4004"
     style="stroke:none;stroke-width:0.229426" /><path
     d="m 3489.8411,14174.63 c -1.92,-0.2 -3.29,-1.9 -3.06,-3.9 0.23,-1.9 1.97,-3.2 3.89,-3 0,0 16.6899,0 38.0999,1 4.88,0.3 9.97,0.6 15.17,1 3.33,0.3 6.7099,0.6 10.0699,1.1 8.59,1.1 17.1,2.6 24.98,4.1 21.0499,4 37.2799,7.8 37.2799,7.8 1.92,0.3 3.3,2 3.07,3.9 -0.23,2 -1.98,3.3 -3.9,3.1 0,0 -16.69,-0.1 -38.0799,-1.2 -8,-0.4 -16.64,-1 -25.26,-1.9 -3.36,-0.3 -6.7099,-0.8 -10.0199,-1.4 -5.15,-0.8 -10.18,-1.6 -14.98,-2.6 -21.0499,-4 -37.2599,-8 -37.2599,-8 z"
     id="path4006"
     style="stroke:none;stroke-width:0.187785" /></g>&#10;</svg>
