<?xml version="1.0" encoding="UTF-8" standalone="no"?>
<svg
   width="1953.6304"
   height="3191.9324"
   viewBox="0 0 1953.6304 3191.9324"
   version="1.1"
   xml:space="preserve"
   style="clip-rule:evenodd;fill-rule:evenodd;stroke-linejoin:round;stroke-miterlimit:2"
   id="svg5353"
   xmlns="http://www.w3.org/2000/svg"
   xmlns:svg="http://www.w3.org/2000/svg"><defs
   id="defs5353" />&#10;    <g
   id="vectorly-UNI-glass-drink-wine-cocktail"
   style="stroke:none;stroke-width:0.2"
   transform="matrix(4.9999999,0,0,4.9999999,-5020.5697,-40679.419)"><path
     d="m 1302.2987,8286.6085 c 1.2023,-1.5162 3.4219,-1.7777 4.9479,-0.5782 1.526,1.1964 1.7572,3.4016 0.5549,4.9209 -6.6588,8.8976 -26.4503,17.3585 -54.4729,23.2083 -23.9071,4.9947 -53.918,8.2025 -86.5186,8.8791 -42.1726,0.5044 -80.1834,-3.3492 -106.4488,-10.1862 -17.3869,-4.5273 -29.9185,-10.6477 -36.1149,-16.9403 -4.208,-4.2904 -6.1039,-8.9161 -6.0577,-13.4987 0,-4.5703 1.8959,-9.1867 6.1502,-13.4064 6.2889,-6.188 18.7742,-12.1239 36.1612,-16.485 26.3116,-6.5971 64.2299,-10.3309 106.31,-9.602 16.3697,0.3537 32.0919,1.341 46.7043,2.8972 17.202,1.83 32.8318,4.4135 46.2419,7.5475 1.8959,0.3967 3.1445,2.2574 2.7283,4.1489 -0.4162,1.8946 -2.2659,3.1094 -4.1618,2.7127 -13.2714,-2.4636 -28.6699,-4.2628 -45.5482,-5.3054 -14.4275,-0.8888 -29.8723,-1.2148 -45.9645,-0.8704 -33.6178,0.6028 -64.3687,4.109 -88.322,9.2759 -16.2309,3.5 -29.2248,7.7167 -37.5021,12.573 -2.3121,1.3317 -4.1618,2.6973 -5.549,4.112 -0.7862,0.8273 -1.526,1.5224 -1.4798,2.402 0,0.8704 0.7861,1.4978 1.5722,2.3067 1.3873,1.3871 3.2832,2.685 5.5491,3.9798 8.3697,4.7364 21.3175,8.7531 37.5021,12.1178 23.9533,4.9762 54.6579,8.387 88.2295,8.8238 31.8144,0.6612 61.178,-1.3256 84.7152,-5.1393 25.7104,-4.1582 44.3459,-10.1125 50.7735,-17.8937 z"
     id="path2104"
     style="stroke:none;stroke-width:0.238512" /><path
     d="m 1055.1109,8317.595 c 1.1735,0.9529 3.2372,2.447 5.1795,3.3885 7.4859,3.575 18.8564,6.7702 32.9786,9.5038 20.8392,4.0343 47.3435,7.084 76.3565,8.0278 l 17.7639,0.4025 c 1.9423,-0.059 3.5609,1.4646 3.6014,3.3999 0.081,1.933 -1.4567,3.55 -3.399,3.6068 l -17.9663,0.9256 c -36.0943,1.1416 -68.7492,-0.896 -91.6926,-5.3079 -15.1742,-2.9178 -26.3019,-7.1591 -32.1693,-11.5573 -5.0176,-3.7706 -7.0004,-8.2189 -7.0408,-12.3897 -0.081,-4.1959 1.9827,-8.6441 6.9194,-12.5671 5.7864,-4.5756 16.9142,-9.0557 32.0884,-12.2896 12.7058,-2.6994 28.4061,-4.6734 46.0081,-5.7377 14.2436,-0.8596 29.701,-1.0348 45.8868,-0.6209 14.3649,0.4435 28.0824,1.3304 40.8692,2.654 15.0528,1.5601 28.7298,3.6773 40.4645,6.1698 1.9018,0.3366 3.1967,2.1559 2.873,4.0617 -0.3642,1.9057 -2.1851,3.177 -4.0869,2.8404 -11.6538,-1.6556 -25.169,-2.7722 -39.9385,-3.343 -12.6249,-0.4844 -26.0996,-0.5595 -40.1813,-0.1228 -28.8917,0.6368 -55.3555,3.4999 -76.1542,7.1977 -14.0817,2.5016 -25.4522,5.3512 -32.9786,8.7419 -2.1042,0.9415 -3.8441,1.8626 -5.1795,2.87 -0.081,0.048 -0.1214,0.096 -0.2023,0.1456 z m -0.8497,0.514 c -0.2428,0.1705 -0.3642,0.3252 -0.1619,0.4343 0.1619,0.1069 0.1619,-0.1478 0.1619,-0.4343 z m 233.804,1.8034 c 1.3353,-1.4146 3.5609,-1.4896 4.9771,-0.1683 1.4163,1.319 1.4972,3.5386 0.1619,4.9531 -2.7921,4.0617 -8.6594,8.3189 -17.5212,12.4397 -3.6822,1.717 -7.8905,3.3044 -12.6249,4.6985 -2.9944,0.8892 -6.2315,1.6874 -9.671,2.2491 -3.1158,0.5117 -6.3934,0.7914 -9.7924,0.9893 -4.7344,0.2729 -9.5901,0.3206 -14.7696,0.2047 -4.7748,-0.1047 -9.5496,-0.4162 -14.6481,-0.771 -1.9423,0.1501 -3.6418,-1.2917 -3.8037,-3.2202 -0.1214,-1.9285 1.2949,-3.6159 3.2372,-3.7683 7.9715,-1.7602 15.2551,-3.8206 22.2959,-5.5626 5.139,-1.2713 9.9947,-2.5903 14.6077,-3.5409 4.3297,-0.8847 8.4166,-1.4509 12.1798,-2.0786 4.4916,-0.7391 8.4571,-1.2462 12.0585,-2.0013 6.1101,-1.2962 10.6826,-2.3469 13.3128,-4.4232 z"
     id="path2106"
     style="stroke:none;stroke-width:0.191857" /><path
     d="m 1304.6079,8249.5727 c -0.62,-1.84 0.37,-3.83 2.2,-4.44 1.83,-0.62 3.82,0.37 4.44,2.2 0,0 5.69,10.82 12.19,25.25 1.48,3.28 2.91,6.73 4.31,10.3 0.89,2.29 1.8,4.6 2.55,6.97 1.91,6.07 3.44,12.22 4.81,17.95 3.6599,15.38 5.7199,27.43 5.7199,27.43 0.62,1.84 -0.37,3.83 -2.2,4.44 -1.8399,0.62 -3.8299,-0.37 -4.4399,-2.2 0,0 -5.65,-10.85 -12.03,-25.31 -2.38,-5.39 -4.88,-11.21 -7.02,-17.21 -0.83,-2.34 -1.51,-4.73 -2.18,-7.09 -1.05,-3.69 -1.99,-7.31 -2.8,-10.81 -3.55,-15.42 -5.55,-27.48 -5.55,-27.48 z"
     id="path2108"
     style="stroke:none;stroke-width:0.2" /><path
     d="m 1277.0294,8283.7921 c -1.8757,-0.5018 -2.9854,-2.4276 -2.4809,-4.2894 0.4963,-1.8674 2.422,-2.9771 4.2894,-2.4809 0,0 12.161,1.248 27.7772,3.8189 3.551,0.5822 7.216,1.3002 10.9643,2.1096 2.3999,0.5259 4.8276,1.0462 7.2167,1.7329 6.1128,1.768 12.082,3.8968 17.6129,5.9264 14.8359,5.4622 26.0128,10.4143 26.0128,10.4143 1.8757,0.5018 2.9854,2.4276 2.4808,4.2894 -0.5017,1.8757 -2.4275,2.9855 -4.2893,2.4809 0,0 -12.1639,-1.2979 -27.7387,-3.9853 -5.8065,-1.0002 -12.0377,-2.1385 -18.2195,-3.6761 -2.4084,-0.6036 -4.7754,-1.3597 -7.1119,-2.1076 -3.6545,-1.1673 -7.1899,-2.3875 -10.5535,-3.6496 -14.8083,-5.5759 -25.9603,-10.5835 -25.9603,-10.5835 z"
     id="path2110"
     style="stroke:none;stroke-width:0.2" /><path
     d="m 1314.0842,8338.1036 c -0.5018,1.8757 -2.4276,2.9854 -4.2894,2.4809 -1.8674,-0.4962 -2.9771,-2.422 -2.4809,-4.2894 0,0 1.248,-12.1611 3.8188,-27.7772 0.5823,-3.5511 1.3003,-7.216 2.1097,-10.9643 0.5259,-2.3999 1.0461,-4.8276 1.7329,-7.2167 1.768,-6.1128 3.8967,-12.0821 5.9264,-17.6129 5.4621,-14.836 10.4142,-26.0128 10.4142,-26.0128 0.5018,-1.8757 2.4276,-2.9854 4.2894,-2.4809 1.8757,0.5018 2.9854,2.4276 2.4809,4.2894 0,0 -1.2979,12.1639 -3.9853,27.7387 -1.0002,5.8065 -2.1384,12.0377 -3.6761,18.2195 -0.6035,2.4084 -1.3596,4.7754 -2.1075,7.1119 -1.1673,3.6545 -2.3875,7.19 -3.6496,10.5535 -5.5759,14.8083 -10.5835,25.9603 -10.5835,25.9603 z"
     id="path2112"
     style="stroke:none;stroke-width:0.2" /><path
     d="m 1324.4785,8295.4497 c -1.6713,0.9696 -3.8178,0.3925 -4.7873,-1.2788 -0.9695,-1.6713 -0.3925,-3.8178 1.2788,-4.7873 0,0 4.0621,-4.5427 10.2977,-9.993 1.3709,-1.1946 2.8439,-2.3384 4.4208,-3.4725 0.999,-0.7115 2.0157,-1.4368 3.1228,-2.0172 2.8374,-1.5107 5.8048,-2.6294 8.6116,-3.6341 7.7558,-2.7679 13.7059,-4.0699 13.7059,-4.0699 1.6811,-0.9715 3.8275,-0.3944 4.7873,1.2788 0.9715,1.6812 0.3944,3.8276 -1.2789,4.7873 0,0 -4.0994,4.5095 -10.3803,9.8363 -2.2738,1.9275 -4.724,3.9417 -7.4512,5.6444 -1.0599,0.6626 -2.1887,1.1861 -3.3116,1.688 -1.7755,0.8069 -3.4904,1.5098 -5.2173,2.1029 -7.8462,2.6739 -13.7983,3.9151 -13.7983,3.9151 z"
     id="path2114"
     style="stroke:none;stroke-width:0.2" /><path
     d="m 1272.578,8304.1927 c 0.78,1.77 -0.02,3.84 -1.79,4.62 -1.77,0.78 -3.84,-0.02 -4.62,-1.79 -9.5199,-19.6 -4.44,-46.09 9.96,-66.08 13.99,-19.43 36.7299,-32.21 62.6998,-28.34 18.42,3.05 31.48,10.38 40.3199,19.98 7.3,7.93 11.79,17.44 14,27.47 5.79,26.33 -4.2,56.25 -15.9899,70.22 -10.65,12.4 -22.41,19.86 -33.52,24.09 -18.8899,7.2 -35.6499,5.28 -40.9499,3.58 -1.86,-0.52 -2.95,-2.46 -2.43,-4.32 0.53,-1.86 2.46,-2.95 4.33,-2.43 4.7,1.15 19.3,1.53 35.2699,-5.82 9.4,-4.33 19.19,-11.44 27.74,-22.79 9.24,-12.06 16.0199,-37.23 10.47,-58.95 -1.88,-7.38 -5.28,-14.33 -10.7,-20.22 -6.86,-7.47 -16.9,-13.21 -31.1799,-15.88 -20.47,-4.16 -38.6699,5.83 -50.7499,20.57 -13.45,16.4 -19.81,38.66 -12.86,56.09 z"
     id="path2116"
     style="stroke:none;stroke-width:0.2" /><path
     d="m 1315.9979,8304.8227 c 1.14,-1.56 3.34,-1.91 4.9,-0.77 1.56,1.14 1.91,3.33 0.77,4.9 -5.07,7.4 -28.2599,43.72 -53.2699,80.4899 -7.9,11.61 -15.9799,23.24 -23.7399,34.03 -15.05,20.91 -28.8899,38.62 -37.3899,47.2 -0.86,0.85 -1.39,2.42 -2.08,4.39 -1.55,4.45 -2.77,10.54 -3.87,17.85 -2.55,16.96 -4.03,40.09 -4.72,64.91 -1.5,54.3099 0.77,116.5699 6.51,140.1499 0.5,1.87 -0.6,3.79 -2.47,4.3 -1.87,0.5 -3.79,-0.6 -4.3,-2.47 -7.04,-23.67 -13.3,-86.82 -13.87,-142.0899 -0.31,-30.72 1.18,-59.01 4.71,-76.84 2.14,-10.79 5.56,-18.2 8.97,-21.52 8.38,-8.02 21.8999,-24.86 37.0499,-44.44 8.08,-10.44 16.61,-21.64 25.0199,-32.77 26.82,-35.4699 52.2999,-70.2199 57.7799,-77.3199 z"
     id="path2118"
     style="stroke:none;stroke-width:0.2" /><path
     d="m 1159.3883,8707.6825 c 0.36,0.37 0.88,0.84 1.36,1.13 0.64,0.38 1.34,0.76 2.1,1.1 3.6,1.63 8.28,2.92 13.02,3.72 7.0299,1.18 14.1199,1.55 17.8299,0.36 1.81,-0.67 3.83,0.25 4.5,2.07 0.68,1.81 -0.25,3.83 -2.06,4.5 -7.17,3.03 -26.0199,2.6 -37.0499,-1.32 -6.7,-2.38 -10.41,-6.7 -10.89,-10.86 -0.29,-2.43 0.46,-5.14 2.72,-8.05 -0.05,0.06 -0.17,0.19 -0.17,0.19 0,0 0.5,-1.57 0.8,-2.87 0.64,-2.77 1.17,-6.58 1.71,-11.25 1.2,-10.25 2.12,-24.42 2.82,-40.73 0.37,-8.62 0.66,-17.82 0.96,-27.35 0.35,-11.0999 0.66,-22.6499 0.87,-34.1999 0.33,-17.54 0.46,-35.1 -0.14,-51.24 -0.73,-19.92 -2.31,-37.6 -5.51,-50.26 -2.14,-8.45 -4.56,-14.6 -8.39,-16.92 -1.69,-0.94 -2.31,-3.07 -1.38,-4.76 0.94,-1.7 3.07,-2.32 4.77,-1.38 6.29,3.13 11.74,13.13 15.71,27.9 4.79,17.77 7.91,42.66 9.45,69.37 0.71,12.22 1.11,24.81 1.07,37.26 -0.04,12.75 -0.5,25.3499 -1.26,37.2099 -1.58,24.6 -4.35,46.05 -7.02,59.48 -1.81,9.11 -4.06,14.97 -5.71,16.77 -0.03,0.04 -0.07,0.09 -0.11,0.13 z"
     id="path2120"
     style="stroke:none;stroke-width:0.2" /><path
     d="m 1168.4783,8463.7326 c 1.93,-0.18 3.64,1.24 3.82,3.17 0.18,1.92 -1.23,3.63 -3.16,3.82 -17.94,2.6 -36.9999,-6.81 -55.6399,-24.15 -9,-8.37 -17.8799,-18.62 -26.4099,-30.23 -5.68,-7.73 -11.21,-16.07 -16.43,-24.88 -4.95,-8.34 -9.58,-17.13 -14.03,-26.1099 -6.5399,-13.19 -12.5699,-26.82 -18.1499,-40.38 -5.77,-14.04 -10.93,-27.97 -15.65,-41.26 -0.73,-1.79 0.12,-3.84 1.91,-4.58 1.79,-0.73 3.84,0.12 4.58,1.91 8.18,17.54 17.6,36.1 27.5699,54.6 6.43,11.96 13.17,23.8 19.97,35.2899 4.65,7.86 9.36,15.51 14.02,22.91 7.5099,11.95 14.9899,23.13 22.6899,32.87 9.8,12.41 19.61,22.6 29.8299,29.09 8.28,5.27 16.59,8.28 25.08,7.93 z"
     id="path2122"
     style="stroke:none;stroke-width:0.2" /><path
     d="m 1133.6984,8416.8926 c -1.1,-1.59 -0.71,-3.78 0.88,-4.88 1.59,-1.1 3.7799,-0.71 4.8799,0.88 0,0 4.85,4.14 12.41,9.6 2.54,1.83 5.38,3.66 8.39,5.71 1.76,1.2 3.59,2.42 5.42,3.73 2.61,1.87 5.14,3.9 7.97,5.69 4.9699,3.14 9.9899,6.14 16.0699,7.58 1.94,0.12 3.4,1.78 3.28,3.72 -0.12,1.93 -1.79,3.4 -3.72,3.27 -5.19,0.61 -10.06,0.29 -14.9799,-0.55 -3.4,-0.58 -6.59,-1.55 -9.72,-2.76 -3.41,-1.31 -6.61,-2.96 -9.52,-4.89 -1.6,-1.06 -3.06,-2.27 -4.43,-3.51 -2.18,-1.97 -4.13,-3.97 -5.85,-6.02 -1.94,-2.34 -3.57,-4.55 -4.96,-6.68 -4.1699,-6.4 -6.1199,-10.89 -6.1199,-10.89 z"
     id="path2124"
     style="stroke:none;stroke-width:0.2" /><path
     d="m 1030.1886,8143.6283 c 0.12,-1.4567 0.27,-2.9421 0.47,-4.4655 0.12,-1.9043 1.74,-3.361 3.65,-3.2753 1.91,0.086 3.4,1.6852 3.35,3.599 0.04,1.2854 0.05,2.5518 0.05,3.7705 0.27,8.3693 1.55,15.4436 4.24,20.8137 3.02,6.0365 8.45,8.931 16.9199,8.3407 3.2,-0.048 5.99,2.1899 6.63,5.3319 0.65,3.1421 -1.03,6.2936 -4,7.5124 -8.4999,3.8656 -14.3399,7.4647 -18.0799,12.5301 -3.02,4.0751 -4.41,9.1595 -4.85,16.1482 -0.03,1.2949 -0.08,2.6279 -0.15,3.999 -0.01,0.1333 -0.01,0.2761 -0.02,0.4189 -0.35,4.3037 -4.06,7.5504 -8.38,7.3124 -4.31,-0.238 -7.65,-3.8657 -7.53,-8.1788 0.1,-2.4946 0.28,-4.8369 0.54,-7.0363 0.21,-5.4367 -0.3,-10.026 -2.25,-14.4058 -2.44,-5.5034 -6.8299,-10.6735 -14.1799,-16.71 -2.2,-1.6567 -3.05,-4.5512 -2.1,-7.1315 0.95,-2.5803 3.49,-4.2275 6.23,-4.0466 5.1099,0.6094 9.2799,-0.5427 12.3099,-4.1989 3.59,-4.3322 5.94,-11.0638 7.15,-20.3281 z m 2.28,43.4555 c 2.35,-2.5803 5.15,-4.8559 8.49,-6.9411 -2.21,-1.6662 -4.06,-3.6848 -5.58,-6.0365 -1.14,-1.752 -2.09,-3.6943 -2.87,-5.8176 -0.35,0.638 -0.72,1.2568 -1.11,1.8472 -2.01,3.0563 -4.46,5.4081 -7.32,7.1029 3.56,3.2753 6.3,6.5126 8.39,9.8451 z"
     id="path2126"
     style="stroke:none;stroke-width:0.195155" /><path
     d="m 1084.0482,8173.0543 c 0.1156,-1.0322 0.2457,-2.0851 0.4047,-3.1517 0.1229,-1.9062 1.7491,-3.3651 3.6572,-3.2825 1.908,0.09 3.3969,1.686 3.3463,3.599 0.051,0.9015 0.08,1.7755 0.094,2.6357 0.3397,5.8768 1.3877,10.804 3.3608,14.5406 1.9948,3.7573 5.5507,5.2231 10.8774,4.7414 3.2018,-0.048 5.9916,2.1952 6.6348,5.3332 0.6433,3.1379 -1.0335,6.2966 -4.004,7.5146 -5.7097,2.6976 -9.5981,5.1956 -12.0988,8.6432 -1.9803,2.732 -2.7681,6.1452 -2.9994,10.8246 -0.014,0.7639 -0.043,1.5484 -0.072,2.3466 0,0.048 0,0.1033 0,0.1514 h -0.01 c -0.01,0.1377 -0.014,0.2753 -0.022,0.4198 -0.3469,4.301 -4.0619,7.549 -8.3694,7.3082 -4.3149,-0.234 -7.654,-3.8606 -7.5311,-8.1753 0.087,-2.0369 0.2457,-3.9362 0.477,-5.7185 0.1301,-3.2756 -0.1662,-6.1108 -1.3298,-8.829 -1.6262,-3.778 -4.51,-7.3839 -9.4608,-11.5885 -2.1972,-1.6516 -3.05,-4.5487 -2.096,-7.1293 0.9468,-2.5737 3.4837,-4.2252 6.2301,-4.0463 3.9534,0.5574 7.0757,-0.6125 9.1283,-4.1909 1.7129,-2.9728 2.9922,-6.9159 3.78,-11.9463 z m 2.9055,28.3863 c 0.9034,-0.812 1.8863,-1.5896 2.9488,-2.3259 -0.8601,-0.9084 -1.619,-1.9062 -2.2984,-2.9935 -0.3903,-0.64 -0.7516,-1.3075 -1.0913,-2.0094 -0.9179,1.3006 -1.9587,2.4223 -3.1078,3.3651 1.3515,1.3143 2.5224,2.6356 3.5487,3.9637 z"
     id="path2152"
     style="stroke:none;stroke-width:0.141048" /><path
     d="m 1212.686,8686.047 c -1.9017,-0.3469 -3.1741,-2.1647 -2.8246,-4.0657 0.3496,-1.901 2.1674,-3.1776 4.069,-2.8307 18.4432,2.7336 34.2017,8.0758 45.4578,15.0416 12.6404,7.826 19.5478,18.011 19.8554,28.7232 0.3636,14.2368 -11.5497,28.1266 -32.2441,37.7011 -17.758,8.2007 -42.0879,13.2932 -68.9068,13.6539 -26.8328,-0.2775 -51.1907,-5.3006 -68.9767,-13.4597 -20.8482,-9.5744 -32.8174,-23.5753 -32.4958,-37.8953 0.3356,-12.5161 9.7879,-24.4078 26.5951,-32.7612 14.5141,-7.2155 34.4115,-12.1276 56.9376,-13.3625 1.9296,-0.1665 3.6355,1.2627 3.8033,3.1915 0.1538,1.9287 -1.2724,3.6216 -3.202,3.7881 -21.03,2.4422 -39.4173,8.0619 -52.617,15.5966 -11.6895,6.6743 -19.2402,14.5836 -19.0025,23.5475 0.098,4.2461 2.2652,8.1452 5.649,11.7807 4.6143,4.9676 11.6057,9.1721 20.1771,12.7798 16.4576,6.9103 38.6762,11.0869 63.1319,10.8372 24.4838,0.333 46.7442,-3.7604 63.2159,-10.6429 8.6273,-3.5939 15.6466,-7.8261 20.3028,-12.7937 3.4398,-3.691 5.6491,-7.6456 5.7749,-11.9611 0.2237,-7.493 -5.0477,-14.3339 -13.5492,-20.3422 -9.9977,-7.0906 -24.288,-12.8769 -41.1511,-16.5262 z"
     id="path2154"
     style="stroke:none;stroke-width:0.278584" /><path
     d="m 1120.1284,8753.7025 c 1.92,0.18 3.34,1.89 3.15,3.82 -0.18,1.93 -1.89,3.34 -3.82,3.15 -17.82,-0.25 -32.4499,-2.03 -44.0399,-5.16 -6.91,-1.87 -12.68,-4.3 -17.41,-6.89 -4.5999,-2.52 -8.2399,-5.33 -10.9199,-8.22 -9.17,-9.91 -9.45,-20.69 -1.76,-29.36 3.3,-3.73 8.31,-7.27 15.3499,-9.78 8.9,-3.17 21.04,-5.09 36.5199,-4.91 1.93,-0.13 3.61,1.32 3.74,3.26 0.13,1.92 -1.32,3.6 -3.26,3.73 -13.4899,2.02 -23.8199,5.37 -31.3599,9.19 -6.47,3.28 -10.3899,6.69 -10.8699,10.72 -0.17,1.42 0.62,2.72 1.5899,4.14 1.81,2.66 4.81,5.2 8.89,7.78 5.17,3.26 11.8,6.48 20.09,9.43 9.44,3.36 20.6499,6.66 34.1099,9.1 z"
     id="path2156"
     style="stroke:none;stroke-width:0.2" /><path
     d="m 1119.4584,8760.6725 c -20.47,-0.82 -36.7199,-3.72 -48.8999,-7.84 -8.8,-2.98 -15.4899,-6.74 -20.2499,-10.64 -8.14,-6.65 -10.83,-14.4 -9.85,-21.43 0.91,-6.52 5.44,-13.15 14.32,-18.36 4.4099,-2.59 10.0299,-4.9 16.8599,-6.6 7.09,-1.77 15.54,-2.86 25.2999,-3.29 3.27,-0.23 6.3,1.74 7.42,4.83 1.12,3.08 0.06,6.54 -2.6,8.46 -3.62,2.42 -6.6299,4.99 -8.7899,7.83 -2.22,2.91 -3.71,5.96 -3.85,9.27 -0.25,5.21 2.18,10.21 6.57,14.85 5.7799,6.11 14.4399,11.64 25.2699,16.13 1.67,0.59 2.64,2.33 2.26,4.06 -0.39,1.73 -2,2.9 -3.76,2.73 z m -28.5899,-13.45 c -0.83,-0.63 -1.62,-1.27 -2.38,-1.93 -7.55,-6.52 -11.46,-14.27 -11.85,-22.39 -0.18,-4.33 0.79,-8.56 2.67,-12.68 -1.8,0.44 -3.51,0.9 -5.14,1.38 -5.57,1.64 -10.06,3.51 -13.41,5.74 -2.8,1.87 -4.8599,3.64 -5.2999,5.91 -0.43,2.21 0.63,4.45 2.6599,6.76 4.1,4.7 11.23,9.24 21.45,13.28 3.45,1.37 7.21,2.69 11.3,3.93 z"
     id="path2158"
     style="stroke:none;stroke-width:0.2" /></g>&#10;</svg>
