<?xml version="1.0" encoding="UTF-8" standalone="no"?>
<svg
   width="3512.7681"
   height="2188.9773"
   viewBox="0 0 3512.7681 2188.9773"
   version="1.1"
   xml:space="preserve"
   style="clip-rule:evenodd;fill-rule:evenodd;stroke-linejoin:round;stroke-miterlimit:2"
   id="svg5353"
   xmlns="http://www.w3.org/2000/svg"
   xmlns:svg="http://www.w3.org/2000/svg"><defs
   id="defs5353" />&#10;    <g
   id="vectorly-UNI-mail-email-letter"
   style="stroke:none;stroke-width:0.2"
   transform="matrix(4.9999999,0,0,4.9999999,-20144.051,-37100.629)"><path
     d="m 4309.0705,7433.183 c -1.48,1.27 -3.58,3.74 -5.82,5.69 -16.58,14.48 -50.3099,48.03 -79.1198,79.26 -17.79,19.29 -33.7199,37.66 -42.2199,50.19 -1.89,2.79 -4.43,5.89 -5.41,7.77 0.39,0.46 1.03,1.19 1.59,1.71 2.38,2.28 5.89,5 10.22,8.1 15.6999,11.21 41.8499,26.66 68.6298,41.09 26.6299,14.3599 53.8599,27.7299 72.1898,34.6799 7.88,2.99 13.81,4.96 17,4.75 2.23,-0.15 5.02,-1.68 8.32,-3.89 6.08,-4.06 13.2999,-10.45 20.9099,-17.96 28.5199,-28.1299 62.1799,-71.5599 62.1799,-71.5599 1.15,-1.55 3.35,-1.87 4.9,-0.71 1.5499,1.15 1.8699,3.35 0.72,4.9 0,0 -32.49,45.19 -60.4099,74.6199 -9.51,10.02 -18.57,18.2 -25.6899,22.47 -3.76,2.26 -7.17,3.46 -9.97,3.74 -4.09,0.4 -11.93,-1.26 -22.15,-4.81 -18.9299,-6.57 -47.1598,-19.42 -74.6898,-33.51 -27.7399,-14.1999 -54.7698,-29.6599 -71.0098,-40.9499 -6.28,-4.37 -11.01,-8.23 -13.81,-11.19 -2.12,-2.23 -3.36,-4.27 -3.98,-5.86 -0.9999,-2.56 -1.1099,-6.8 1.31,-12.16 4.32,-9.58 18.02,-27.05 35.71,-46.58 30.9299,-34.13 73.8698,-75.24 94.5797,-92.77 5.31,-4.49 9.32,-7.51 11.46,-8.7 2.19,-1.23 3.92,-1.42 4.85,-1.37 2.81,0.16 7.58,2.2 13.3499,6.61 8.42,6.44 20.38,17.96 33.5,31.69 38.4399,40.2 87.3597,99.22 87.3597,99.22 1.26,1.47 1.09,3.69 -0.38,4.95 -1.4699,1.26 -3.6799,1.09 -4.9399,-0.38 0,0 -50.6299,-57.05 -90.0698,-95.88 -12.98,-12.78 -24.71,-23.58 -32.9499,-29.53 -2.21,-1.59 -5.04,-3.06 -6.16,-3.63 z m -132.6597,143.09 c -0.45,0.92 -0.48,1.51 0.21,1.56 0.62,0.05 0.08,-0.95 -0.21,-1.56 z m 132.8397,-143.23 c 0.8,0.12 2.19,0.35 1.76,-0.41 -0.3,-0.53 -0.92,-0.28 -1.76,0.41 z"
     id="path2062"
     style="stroke:none;stroke-width:0.2" /><path
     d="m 4177.2308,7585.603 c -0.12,2.88 0.29,7.87 0.79,14.36 1.42,18.29 5.1,46.8399 9.28,75.2899 4.18,28.45 8.86,56.82 13.04,74.58 1.1799,5 2.2699,9.13 3.3199,12.1 0.16,0.45 0.37,0.97 0.56,1.43 1.23,0.1 3.05,0.22 4.64,0.2 16.53,-0.28 51.3499,-5.59 89.3798,-12.15 69.4898,-11.99 149.4796,-28.28 149.4796,-28.28 1.89,-0.42 3.76,0.77 4.18,2.65 0.43,1.89 -0.76,3.77 -2.65,4.19 0,0 -125.8697,30.5 -198.7995,43.01 -21.5999,3.71 -38.7099,5.73 -46.9499,5.27 -5.1899,-0.29 -8.3199,-2.08 -9.6999,-3.49 -1.92,-1.96 -4.77,-8.09 -7.31,-17.5 -3.77,-14.02 -8.23,-36.44 -12.09,-60.71 -5.21,-32.67 -9.48,-68.6699 -11.09,-91.6799 -0.93,-13.28 -0.68,-22.68 0.3,-25.66 0.73,-2.2 2.93,-5.25 7.93,-7.08 6.83,-2.51 22.21,-4.49 41.9899,-5.65 65.1599,-3.8 180.0196,-0.86 180.0196,-0.86 1.93,0.01 3.49,1.59 3.48,3.53 -0.01,1.93 -1.6,3.49 -3.53,3.48 0,0 -72.2498,1 -134.4297,4.25 -28.3799,1.48 -54.6299,3.4 -70.7798,6.05 -4.41,0.73 -8.87,2 -11.06,2.67 z"
     id="path2064"
     style="stroke:none;stroke-width:0.2" /><path
     d="m 4444.9901,7588.813 c -0.16,-1.93 1.27,-3.63 3.2,-3.79 1.92,-0.16 3.62,1.27 3.79,3.19 0,0 3.42,17.17 6.86,39.37 0.78,5.06 1.49,10.3699 2.14,15.7999 0.42,3.49 0.84,7.02 1.09,10.56 0.66,9.07 0.91,18.14 1.09,26.55 0.48,22.45 0.06,39.94 0.06,39.94 0.17,1.93 -1.27,3.63 -3.19,3.79 -1.93,0.17 -3.63,-1.26 -3.79,-3.19 0,0 -3.37,-17.18 -6.69,-39.39 -1.24,-8.31 -2.52,-17.29 -3.41,-26.34 -0.35,-3.54 -0.53,-7.09 -0.71,-10.59 -0.28,-5.47 -0.47,-10.82 -0.55,-15.9399 -0.36,-22.47 0.11,-39.96 0.11,-39.96 z"
     id="path2066"
     style="stroke:none;stroke-width:0.2" /><path
     d="m 4032.6812,7694.0329 c -1.92,0.21 -3.65,-1.19 -3.85,-3.11 -0.21,-1.93 1.19,-3.65 3.11,-3.86 0,0 25.3999,-4.65 58.0298,-9.64 7.45,-1.14 15.27,-2.23 23.27,-3.26 5.13,-0.66 10.3299,-1.33 15.5499,-1.83 13.33,-1.29 26.68,-2.18 39.0399,-2.95 32.93,-2.04 58.7399,-2.85 58.7399,-2.85 1.92,-0.2 3.65,1.19 3.86,3.12 0.2,1.92 -1.2,3.65 -3.12,3.85 0,0 -25.41,4.59 -58.0399,9.47 -12.2599,1.83 -25.4999,3.74 -38.8099,5.26 -5.2,0.6 -10.4199,1.03 -15.5899,1.45 -8.03,0.66 -15.91,1.24 -23.43,1.68 -32.9499,1.92 -58.7598,2.67 -58.7598,2.67 z"
     id="path2068"
     style="stroke:none;stroke-width:0.2" /><path
     d="m 4042.0011,7742.9629 c -1.92,0.28 -3.6999,-1.04 -3.9799,-2.96 -0.28,-1.91 1.05,-3.69 2.9599,-3.97 0,0 16.56,-4.4 38.05,-9.1 4.8999,-1.07 10.0399,-2.08 15.3099,-3.04 3.39,-0.61 6.81,-1.23 10.26,-1.69 8.82,-1.17 17.6599,-1.94 25.8699,-2.6 21.91,-1.76 39.0399,-2.34 39.0399,-2.34 1.91,-0.28 3.69,1.05 3.97,2.96 0.28,1.92 -1.05,3.7 -2.96,3.98 0,0 -16.5799,4.34 -38.0799,8.92 -8.05,1.72 -16.7499,3.5 -25.5299,4.9 -3.44,0.55 -6.9,0.94 -10.31,1.32 -5.33,0.58 -10.54,1.08 -15.54,1.46 -21.9399,1.64 -39.0599,2.16 -39.0599,2.16 z"
     id="path2070"
     style="stroke:none;stroke-width:0.2" /><path
     d="m 4526.7599,7718.2129 c 1.39,-1.34 3.61,-1.31 4.96,0.08 1.34,1.39 1.31,3.61 -0.08,4.96 0,0 -15.9499,17.63 -33.3599,34.49 -5.07,4.92 -10.28,9.72 -15.2399,14.02 -7.58,6.58 -14.63,11.93 -19.77,14.85 -3.37,1.92 -6.3,2.82 -8.38,3.05 -3.21,0.32 -8.86,-0.26 -15.9599,-2.02 -5.74,-1.42 -12.59,-3.53 -19.95,-6.07 -11.94,-4.13 -25.2099,-9.33 -37.1699,-14.28 -20.1099,-8.31 -36.3799,-15.85 -36.3799,-15.85 -1.81,-0.7 -2.7,-2.73 -2,-4.53 0.69,-1.81 2.72,-2.7 4.53,-2 0,0 16.9999,5.33 37.6999,11.57 12.22,3.67 25.6799,7.62 37.6999,10.87 7.12,1.93 13.71,3.6 19.19,4.8 4.8299,1.06 8.5899,1.89 10.7699,1.67 1.1,-0.09 2.62,-1.08 4.65,-2.26 4.42,-2.57 9.99,-6.47 16.04,-11 5.12,-3.83 10.5599,-8.06 15.9699,-12.32 18.83,-14.85 36.7799,-30.03 36.7799,-30.03 z"
     id="path2072"
     style="stroke:none;stroke-width:0.2" /><path
     d="m 4716.0895,7599.503 c -1.19,-0.86 -4.36,-3.11 -7.44,-4.94 -19.52,-11.61 -63.4099,-32.82 -103.4698,-50.18 -24.8599,-10.77 -48.1898,-20.12 -63.3298,-24.56 -5.35,-1.57 -11.42,-2.42 -12.59,-2.57 -0.93,0.84 -1.96,2.51 -3.32,4.67 -4.4299,7.03 -10.1199,18.59 -16.1699,31.98 -18.5,40.96 -40.2799,98.6699 -40.2799,98.6699 -0.65,1.82 -2.66,2.77 -4.48,2.12 -1.82,-0.65 -2.77,-2.66 -2.12,-4.48 0,0 19.97,-58.7199 37.2599,-100.4699 5.87,-14.17 11.47,-26.4 15.87,-33.87 2.88,-4.87 5.64,-7.92 7.59,-9.14 1.9599,-1.22 6.3199,-1.9 12.6499,-0.81 14.32,2.49 43.2599,12.78 74.3798,25.5 41.1199,16.82 86.0998,37.8 106.0798,49.4 4.41,2.56 7.69,4.77 9.6599,6.39 2.18,1.8 3.34,3.49 3.88,4.63 0.55,1.17 1.05,2.89 1.1,5.18 0.05,2.21 -0.31,5.52 -1.17,9.69 -3.63,17.71 -16.1699,54.4199 -29.4399,86.4699 -10.1,24.4 -20.7099,46.08 -27.8199,55.14 -3.29,4.19 -6.53,6.25 -8.81,6.77 -1.68,0.37 -4.85,0.34 -9.19,-0.75 -10.01,-2.53 -29.6199,-10.33 -52.4198,-20.3 -55.2899,-24.19 -129.7497,-60.85 -129.7497,-60.85 -1.75,-0.83 -2.5,-2.92 -1.67,-4.67 0.82,-1.75 2.91,-2.5 4.66,-1.68 0,0 75.4898,33.89 131.3396,56.27 18.52,7.42 34.84,13.58 45.4599,16.72 4.07,1.2 8.9,1.98 8.9,1.98 0,0 -0.36,0.03 -0.49,0.07 -0.26,0.06 -1.13,0.02 -0.9,0.32 1.38,1.88 4,-5.02 6.72,-9.93 7.61,-13.72 17.22,-36.75 25.9599,-60.15 8.74,-23.38 16.58,-47.1299 20.39,-62.4499 0.91,-3.66 2.51,-7.73 2.96,-10.17 z m 0.04,-0.29 c 0.18,-1.22 0.02,-1.95 -0.76,-1.91 -0.6,0.03 0.28,1.02 0.43,1.35 0.06,0.13 0.19,0.34 0.33,0.56 z"
     id="path2074"
     style="stroke:none;stroke-width:0.2" /><path
     d="m 4703.2195,7598.473 c 1.82,-0.67 3.83,0.27 4.49,2.09 0.66,1.82 -0.27,3.83 -2.09,4.49 0,0 -25.5499,10.95 -52.4499,19.7 -7.86,2.55 -15.8299,4.87 -23.3099,6.7 -9.45,2.3099 -18.14,3.7799 -24.91,4.0399 -5.7699,0.23 -10.3999,-0.61 -13.5499,-2.0299 -3.09,-1.45 -7.23,-4.92 -11.56,-10.41 -4.74,-6.01 -10.21,-14.61 -15.7799,-24.55 -7.18,-12.82 -14.6,-27.87 -21.3,-42.24 -7.93,-17.02 -14.7,-33.04 -18.9499,-43.09 -0.84,-1.74 -0.1,-3.84 1.6399,-4.67 1.74,-0.84 3.84,-0.11 4.68,1.64 5.16,9.53 13.58,24.62 22.86,40.82 7.74,13.52 16.1399,27.7 23.8799,39.89 5.66,8.92 10.95,16.71 15.43,22.21 2.39,2.93 4.2,5.23 5.86,6.01 2.03,1 5.37,0.98 9.5099,0.78 8.25,-0.38 18.91,-2.22 30.12,-4.55 30.8499,-6.42 65.4298,-16.83 65.4298,-16.83 z"
     id="path2076"
     style="stroke:none;stroke-width:0.2" /><path
     d="m 4336.9304,7845.3329 c 4.18,-0.17 10.93,-1.03 19.59,-2.28 20.0099,-2.88 49.5498,-8.31 80.8598,-14.27 10.6799,-2.04 21.5599,-4.09 32.3399,-6.13 16.7999,-3.17 33.3499,-6.3 48.4699,-9.32 27.7699,-5.57 50.6298,-10.6 61.0598,-14.26 0.94,-0.33 1.97,-0.75 2.72,-1.08 -0.03,-0.87 -0.17,-1.98 -0.32,-3.28 -0.77,-6.92 -3.04,-17.42 -5.81,-28.62 -6.23,-25.26 -14.8899,-53.92 -14.8899,-53.92 -0.61,-1.83 0.39,-3.82 2.22,-4.43 1.8399,-0.61 3.8199,0.39 4.4399,2.23 0,0 12.95,35.78 20.53,62.54 2.59,9.15 4.53,17.27 5.22,22.69 0.46,3.67 0.22,6.43 -0.28,8.04 -0.36,1.17 -1.32,2.74 -3.42,4.2 -2.21,1.54 -7.3,3.68 -14.69,6.05 -17.3299,5.56 -48.4799,13.42 -82.9098,20.76 -18.1799,3.87 -37.2799,7.61 -55.6998,10.82 -40.0899,6.99 -76.9498,11.84 -94.1698,12.73 -5.89,0.3 -9.91,0 -11.63,-0.56 -3.97,-1.29 -5.05,-4 -5.17,-6.05 -0.26,-4.61 -2.26,-15.37 -4.8399,-28.02 -5.84,-28.69 -14.69,-66.71 -14.69,-66.71 -0.49,-1.87 0.62,-3.79 2.5,-4.28 1.87,-0.49 3.79,0.63 4.28,2.5 0,0 11.0699,37.59 18.4799,66.04 2.58,9.91 4.69,18.74 5.81,24.61 z"
     id="path2078"
     style="stroke:none;stroke-width:0.2" /><path
     d="m 4374.8103,7792.9029 c 1.91,-0.32 3.72,0.96 4.05,2.86 0.32,1.91 -0.96,3.73 -2.87,4.05 0,0 -26.6899,6.56 -61.0198,13.99 -7.85,1.7 -16.09,3.38 -24.52,5.01 -5.41,1.04 -10.8899,2.1 -16.3899,3 -14.08,2.29 -28.2,4.18 -41.2799,5.88 -34.8199,4.51 -62.1799,7.26 -62.1799,7.26 -1.9,0.33 -3.72,-0.96 -4.04,-2.86 -0.33,-1.91 0.95,-3.72 2.86,-4.05 0,0 26.71,-6.5 61.0599,-13.82 12.8999,-2.75 26.8399,-5.65 40.8799,-8.17 5.49,-0.99 11.0099,-1.81 16.4599,-2.63 8.49,-1.26 16.82,-2.42 24.78,-3.43 34.8499,-4.4 62.2098,-7.09 62.2098,-7.09 z"
     id="path2080"
     style="stroke:none;stroke-width:0.2" /></g>&#10;</svg>
