<?xml version="1.0" encoding="UTF-8" standalone="no"?>
<svg
   width="2278.5789"
   height="2794.1858"
   viewBox="0 0 2278.5789 2794.1858"
   version="1.1"
   xml:space="preserve"
   style="clip-rule:evenodd;fill-rule:evenodd;stroke-linejoin:round;stroke-miterlimit:2"
   id="svg5353"
   xmlns="http://www.w3.org/2000/svg"
   xmlns:svg="http://www.w3.org/2000/svg"><defs
   id="defs5353" />&#10;    <g
   id="vectorly-UNI-chess"
   style="stroke:none;stroke-width:0.181499"
   transform="matrix(5.5096807,0,0,5.5096807,-22676.498,-58287.854)"><path
     d="m 4366.4903,10621.812 c -0.9,-1.7 -0.24,-3.8 1.47,-4.7 1.71,-0.9 3.83,-0.3 4.73,1.4 0,0 4.38,5.5 8.73,14.2 1.58,3.1 3.01,6.6 4.2,10.4 0.94,3 1.67,6.2 2,9.4 0.34,3.3 0.27,6.7 -0.19,10 -0.49,3.4 -1.27,6.8 -2.67,9.9 -3.17,7.1 -8.02,13.3 -16.29,17 -1.62,1.1 -3.79,0.6 -4.85,-1 -1.06,-1.6 -0.6,-3.8 1.02,-4.9 5.12,-4.5 6.76,-10.2 7.5,-16 0.42,-3.4 0.09,-6.8 -0.16,-10.2 -0.16,-2.4 -0.33,-4.8 -0.56,-7.1 -0.39,-3.9 -0.78,-7.7 -1.35,-11.2 -1.62,-9.9 -3.58,-17.2 -3.58,-17.2 z"
     id="path3024"
     style="stroke:none;stroke-width:0.181499" /><path
     d="m 4391.3803,10647.012 c -0.4,-1.9 0.82,-3.7 2.72,-4.1 1.89,-0.4 3.75,0.8 4.14,2.7 0,0 3.06,8.3 5.8999,20.5 1,4.3 1.92,9 2.61,14 0.52,3.8 0.93,7.8 1,11.9 0.08,4 -0.16,8.1 -0.64,12 -0.67,5.7 -1.78,11.2 -3.42,16.1 -3.1099,9.5 -7.5899,17.3 -14.0699,21.6 -1.47,1.2 -3.69,1.1 -4.95,-0.4 -1.25,-1.5 -1.08,-3.7 0.39,-4.9 2.11,-2.4 3.37,-5.4 4.48,-8.7 1.5,-4.6 1.97,-9.9 2.29,-15.5 0.27,-4.9 0.07,-10.1 0,-15.3 -0.05,-3.4 -0.03,-6.9 -0.02,-10.3 0.02,-5.5 0.09,-10.8 0.06,-15.7 -0.07,-13.8 -0.49,-23.9 -0.49,-23.9 z"
     id="path3026"
     style="stroke:none;stroke-width:0.181499" /><path
     d="m 4413.7502,10689.512 c -0.24,-1.9 1.12,-3.7 3.03,-3.9 1.92,-0.3 3.68,1.1 3.92,3 0,0 3.75,14.2 3.48,32.8 -0.06,4.2 -0.46,8.7 -1.15,13.3 -0.45,2.9 -1.03,5.9 -1.86,8.8 -1.56,5.5 -3.74,10.8 -6.53,15.9 -2.62,4.7 -5.69,9.1 -9.4,13.1 -5.3599,5.8 -11.6599,10.7 -19.4099,14.1 -1.67,1 -3.81,0.5 -4.79,-1.2 -0.97,-1.7 -0.41,-3.8 1.26,-4.8 5.49,-4.1 9.5,-9.1 12.93,-14.4 3.5,-5.5 5.85,-11.5 7.8499,-17.5 1.23,-3.8 2.21,-7.6 3.17,-11.3 1.01,-3.9 2,-7.8 2.79,-11.5 1.07,-5.1 1.98,-9.9 2.63,-14.4 1.88,-12.8 2.08,-22 2.08,-22 z"
     id="path3028"
     style="stroke:none;stroke-width:0.181499" /><path
     d="m 4436.9702,10740.612 c 0.51,-1.8 2.45,-2.9 4.31,-2.4 1.87,0.5 2.9599,2.5 2.4399,4.3 0,0 -2.4099,15.8 -11.0099,35.6 -1.89,4.4 -4.16,8.9 -6.78,13.4 -1.64,2.8 -3.41,5.7 -5.43,8.5 -4.81,6.6 -10.55,12.9 -17.07,18.6 -9.2899,8.1 -20.0599,14.9 -32.2899,19.5 -1.74,0.9 -3.84,0.2 -4.7,-1.6 -0.85,-1.7 -0.13,-3.8 1.61,-4.7 6.72,-4.1 12.5,-9.1 17.93,-14.4 5.57,-5.5 10.36,-11.4 14.85,-17.4 2.7999,-3.7 5.3999,-7.5 7.9499,-11.1 2.72,-4 5.36,-7.7 7.78,-11.5 3.29,-5 6.27,-9.8 8.83,-14.2 7.57,-13.1 11.58,-22.6 11.58,-22.6 z"
     id="path3030"
     style="stroke:none;stroke-width:0.181499" /><path
     d="m 4446.0401,10793.112 c 0.82,-1.7 2.9,-2.5 4.66,-1.7 1.75,0.8 2.51,2.9 1.69,4.7 0,0 -4.51,14.1 -15.9999,31.9 -2.44,3.8 -5.27,7.7 -8.45,11.6 -1.96,2.4 -4.04,4.8 -6.35,7.2 -5.39,5.4 -11.61,10.5 -18.52,15.2 -9.4799,6.5 -20.1699,11.9 -31.9999,16.1 -1.75,0.8 -3.84,0.1 -4.65,-1.7 -0.82,-1.8 -0.07,-3.8 1.69,-4.7 6.62,-3.9 12.51,-8.4 18.15,-13 5.92,-4.9 11.21,-10 16.22,-15.1 3.1899,-3.2 6.2099,-6.4 9.1499,-9.5 3.18,-3.4 6.27,-6.6 9.13,-9.7 3.95,-4.3 7.54,-8.3 10.65,-12 9.45,-11.3 14.6299,-19.3 14.6299,-19.3 z"
     id="path3032"
     style="stroke:none;stroke-width:0.181499" /><path
     d="m 4514.7,11035.312 c -1.35,1.4 -3.57,1.4 -4.96,0.1 -1.39,-1.4 -1.42,-3.6 -0.08,-5 8.67,-10.4 9.8,-20.2 6.57,-28.8 -1.72,-4.6 -4.83,-8.7 -8.56,-12.5 -3.67,-3.8 -8.06,-7 -12.76,-9.8 -2.53,-1.5 -6.03,-3.6 -9.55,-6.4 -4.7299,-3.6 -9.5699,-8.2 -12.8999,-13.3 -4.71,-7.2 -6.87,-15.2 -3.41,-23.5 4.48,-10.2 6.79,-17.2 7.56,-22.3 1.05,-6.9 -0.85,-9.3 -3.27,-11.3 -1.59,-1.1 -1.99,-3.2 -0.89,-4.8 1.1,-1.6 3.28,-2 4.87,-0.9 3.88,2.2 7.4199,5 8.5599,12.9 0.85,5.8 -0.17,15.1 -4.6399,30.8 -1.19,4 0.84,7.4 3.2899,10.5 2.31,2.9 5.39,5.4 8.38,7.7 3.87,3 7.7,5.5 10.39,7.2 4.55,3 8.88,6.4 12.54,10.3 6.08,6.4 10.6899,13.8 12.5099,21.7 2.76,12.1 0.01,25.3 -13.6499,37.4 z"
     id="path3034"
     style="stroke:none;stroke-width:0.181499" /><path
     d="m 4310.9905,10589.012 c 0.72,1 1.46,1.9 2.17,2.8 5.18,6.8 11.5599,16.7 14.5599,30.1 0.47,1.9 -0.67,3.8 -2.55,4.3 -1.87,0.5 -3.7799,-0.7 -4.2499,-2.6 -4.98,-17.7 -16.34,-28.1 -20.64,-33 -2.25,-2.5 -2.88,-4.7 -2.89,-5.8 0,-1.4 0.53,-2.5 1.35,-3.4 0.7,-0.8 1.91,-1.7 3.99,-1.9 12.88,-1.2 25.6499,0.9 36.7299,4.2 14.46,4.2 25.9699,10.3 30.9899,13.2 5.88,-1.2 13.63,-0.2 22.47,3.3 12.7299,5.1 28.2499,15.3 43.3199,28.9 13.0199,11.7 25.7499,26 36.0599,41.6 10.73,16.2 18.7399,33.9 22.3399,51.2 6.7,34.3 6,61.5 2.1,83.3 -4.34,24.4 -12.51,41.9 -18.1999,55.1 -3.88,9 -6.86,15.6 -5.58,21 0.5,1.9 -0.61,3.8 -2.48,4.3 -1.87,0.5 -3.79,-0.6 -4.29,-2.5 -1.93,-6.4 0.44,-14.8 4.52,-25.9 4.75,-13 11.63,-30.2 14.6799,-53.7 2.69,-20.7 2.36,-46.4 -5.2999,-78.4 -2.98,-13 -8.97,-26 -16.49,-38.4 -7.36,-12.1 -16.29,-23.7 -25.7399,-34.1 -15.24,-16.7 -31.82,-30.3 -45.8399,-37.6 -4.79,-2.5 -9.2,-4.3 -13.1,-5.1 -2.7,-0.6 -5.05,-0.8 -6.93,-0.1 -1.98,0.8 -4.22,0.6 -5.99,-0.6 0,0 -12.4899,-8.8 -29.9399,-14.8 -7.62,-2.7 -16.1799,-4.8 -25.0699,-5.4 z"
     id="path3036"
     style="stroke:none;stroke-width:0.181499" /><path
     d="m 4343.4004,10616.612 c 1.02,1.7 0.51,3.8 -1.13,4.9 -1.65,1 -3.81,0.5 -4.83,-1.2 0,0 -4.75,-3.8 -11.69,-9.5 -2.3,-1.9 -4.8699,-3.9 -7.3999,-6.2 -1.7,-1.6 -3.2,-3.4 -4.92,-5.1 -1.13,-1.2 -2.14,-2.3 -3.3,-3.5 -2.94,-2.8 -5.69,-5.6 -9.21,-7.8 -1.83,-0.7 -2.78,-2.7 -2.14,-4.5 0.65,-1.8 2.65,-2.8 4.48,-2.1 4.11,0.5 7.84,1.5 11.71,2.9 2.59,0.9 4.94,2.1 7.2899,3.4 2.52,1.5 4.86,3.1 6.94,4.9 1.15,1.1 2.16,2.2 3.1,3.3 1.51,1.8 2.85,3.6 3.96,5.4 5.19,8.5 7.14,15.1 7.14,15.1 z"
     id="path3038"
     style="stroke:none;stroke-width:0.181499" /><path
     d="m 4358.2604,10627.712 c 1.81,0.7 2.72,2.7 2.02,4.5 -0.69,1.8 -2.71,2.7 -4.52,2 -3.14,-1.1 -13.08,-7.1 -22.6,-8 -4.16,-0.4 -8.23,0.3 -11.1299,3.8 -7.12,8.6 -29.66,33.8 -44.5599,54.9 -6.76,9.5 -12.16,17.9 -12.46,23.2 -0.33,5.5 0.65,12.6 2.66,19.1 1.79,5.7 4.1,11.1 8.03,12.9 4.21,2 8.0599,2.8 11.5299,2.5 3.7,-0.2 6.89,-1.8 9.56,-4.1 10.32,-9 22.39,-17.1 33.8399,-21.4 11.13,-4 21.75,-4.5 30.19,-0.3 8.8599,4.5 13.2399,15.2 10.1599,29.9 -3.09,14.7 -13.5099,33.9 -30.9399,51.8 -12.06,12.2 -21.7899,25.9 -27.9199,38.5 -5.62,11.4 -8.4,21.8 -6.65,28.9 0.51,1.9 -0.59,3.8 -2.46,4.4 -1.86,0.5 -3.79,-0.6 -4.3,-2.5 -2.52,-8.3 -0.5,-20.7 5.36,-34.5 5.82,-13.7 15.45,-28.9 27.6499,-42.6 9.78,-11 16.89,-22.3 21.27,-32.5 3.38,-7.9 5.07,-15.1 4.8,-20.8 -0.16,-3.4 -0.96,-6.2 -3.42,-7.3 -5.18,-2.4 -11.55,-1.1 -18.24,1.5 -9.76,3.9 -19.9899,11 -28.7499,18.8 -5.35,4.8 -11.8,7.7 -19.18,8.1 -5.8,0.3 -12.2499,-0.9 -19.1999,-4.3 -6.01,-2.9 -11.09,-9.6 -14.22,-18 -3.49,-9.4 -4.85,-20.8 -4.08,-29.2 0.65,-6.8 6.93,-18 16.22,-30 16.0699,-20.7 40.2899,-44.9 47.9599,-53.2 5.32,-5.8 12.2399,-7.2 19.3499,-6.1 10.24,1.6 20.7,8.6 24.03,10 z"
     id="path3040"
     style="stroke:none;stroke-width:0.181499" /><path
     d="m 4361.8704,10713.112 c -0.97,-1.7 -0.4,-3.9 1.2699,-4.8 1.68,-1 3.82,-0.4 4.79,1.2 3.75,5.7 5.23,14.6 1.73,26.2 -2.74,9.1 -8.8699,19.8 -19.6299,31.8 -9.93,10.6 -18.46,20.6 -26.09,29.6 -4.5299,5.3 -8.7399,10.3 -12.5099,15 -4.44,5.5 -8.35,10.6 -11.58,15.4 -4.21,6.2 -7.38,11.7 -9.25,16.5 -1.56,4.1 -2.43,7.5 -1.99,10.4 1,6.9 2.56,12.8 4.3,17.6 3.8,10.5 8.11,15.8 8.11,15.8 1.33,1.4 1.27,3.6 -0.13,5 -1.4,1.3 -3.62,1.2 -4.95,-0.2 0,0 -5.8,-5.4 -11.52,-17 -2.5399,-5.1 -4.9699,-11.4 -6.9299,-19 -1.39,-5.5 -0.57,-12.7 2.69,-21.4 2.7299,-7.3 7.2799,-15.9 13.7799,-25.4 4.68,-6.9 10.32,-14.4 17.17,-22.3 8.17,-9.3 18.1199,-19 29.2699,-29.6 10.39,-9.4 16.68,-18 19.95,-25.6 3.5199,-8.2 3.7499,-14.8 1.52,-19.2 z"
     id="path3042"
     style="stroke:none;stroke-width:0.181499" /><path
     d="m 4294.5305,10900.912 c 1.83,0.2 4.05,0.3 6.2,0.6 11.13,1.4 29.7099,2.4 59.6399,3.4 23.0699,0.8 52.7098,1.8 90.7797,2.4 1.93,0 3.53,1.6 3.56,3.5 0.04,1.9 -1.51,3.5 -3.44,3.6 -32.7799,1.7 -59.3198,3.1 -80.8398,3.7 -23.7799,0.7 -41.3599,0.7 -54.2298,0.3 -19.72,-0.7 -29.33,-2.8 -33.23,-4.9 -5.1899,-2.8 -6.2799,-6.5 -6.1699,-9.8 0.19,-4.8 3.03,-10.6 7.5199,-14.9 4.81,-4.5 11.12,-7 16.38,-6.1 14.56,2.6 31.9099,3.9 49.0599,4.8 31.9999,1.6 63.2798,1.3 75.2298,1.5 1.93,0 3.53,1.5 3.57,3.5 0.04,1.9 -1.5,3.5 -3.43,3.5 -12.01,0.8 -43.3599,3.9 -75.5998,4.4 -17.85,0.2 -35.9299,-0.5 -51.1799,-2.5 -0.42,-0.1 -0.74,0.4 -1.17,0.7 -0.98,0.6 -1.87,1.4 -2.65,2.3 z m -1.8,3.3 z m -0.97,-3.6 c -0.36,-0.8 -0.88,-1.9 -1.25,-1.2 -0.32,0.6 0.21,0.9 1.25,1.2 z"
     id="path3044"
     style="stroke:none;stroke-width:0.181499" /><path
     d="m 4248.3406,11032.312 c -5.9,-8.8 -7.8799,-19 -5.14,-29.7 2.58,-9.9 9.36,-20.4 21.49,-30 11.71,-9.2 20.5999,-17.9 24.3299,-28.3 3.53,-9.9 2.37,-21.3 -4.86,-36 -0.91,-1.7 -0.25,-3.8 1.46,-4.7 1.72,-0.9 3.84,-0.2 4.74,1.5 9.48,16.8 11.02,30.2 7.49,42.1 -3.64,12.2 -13.03,22.8 -25.9099,34.1 -9.21,8 -14.46,16.4 -16.15,24.3 -1.92,9 1.37,17.3 8.5,23.6 1.86,1.7 2.67,4.3 2.14,6.8 -0.53,2.4 -2.32,4.4 -4.72,5.2 0,0 -4.3,1.4 -6.39,4.4 -0.6,0.9 -0.34,2 0.56,3.4 3.48,5.6 11.39,10.6 23.07,14.5 11.7599,4 27.1699,6.8 46.2198,7 19.2,0.5 36.42,0.7 51.8799,1 33.6199,0.5 58.8199,0.5 77.7098,0 41.3199,-1 51.6799,-3.5 53.9399,-4.4 2.86,-1 5.44,-2.1 6.93,-5.4 1.53,-3.4 2.15,-8.6 1.67,-16.6 -0.17,-1.9 1.26,-3.6 3.18,-3.8 1.93,-0.2 3.6299,1.3 3.7999,3.2 1.12,9.8 0.39,16 -1.2599,20.3 -2.27,5.8 -6.31,8.3 -11.16,10.4 -2.34,1 -13.06,4.7 -56.5799,7.7 -18.9899,1.3 -44.3399,2.5 -78.2098,3.1 -15.5199,0.2 -32.8199,0.3 -52.1099,0.3 -21.0999,-0.3 -38.1899,-3.3 -51.1698,-7.9 -16.02,-5.6 -26.11,-13.8 -30.75,-21.5 -3.7799,-6.4 -3.5399,-11.8 -1.6799,-16.2 1.4699,-3.4 4.0799,-6.3 6.9799,-8.4 z"
     id="path3046"
     style="stroke:none;stroke-width:0.181499" /><path
     d="m 4510,11042.912 c 1.91,-0.3 3.7,1 3.99,2.9 0.29,1.9 -1.02,3.7 -2.93,4 0,0 -31.9199,6.8 -78.9098,11.2 -9.98,1 -20.64,1.7 -31.8199,2.2 -6.91,0.4 -14.01,0.6 -21.27,0.7 -17.0799,0 -34.9899,-0.7 -53.1999,-2.3 -26.2499,-2.1 -53.0198,-6.1 -78.9398,-11.9 -1.9,-0.3 -3.17,-2.1 -2.84,-4 0.34,-1.9 2.16,-3.2 4.07,-2.9 17.23,2.3 34.7599,3.6 52.2299,4.4 17.72,0.8 35.2899,1 52.3499,0.9 10.7299,0 21.2399,-0.2 31.4199,-0.3 10.9,-0.1 21.4199,-0.2 31.4299,-0.4 13.69,-0.3 26.39,-0.6 37.7799,-1.1 34.4099,-1.3 56.6399,-3.4 56.6399,-3.4 z"
     id="path3048"
     style="stroke:none;stroke-width:0.181499" /><path
     d="m 4469.7901,11030.512 c 1.93,-0.1 3.59,1.4 3.7,3.3 0.11,1.9 -1.36,3.6 -3.29,3.7 0,0 -27.0899,3.5 -63.1299,6.3 -8.0699,0.6 -16.5799,1.1 -25.3299,1.5 -5.56,0.3 -11.21,0.5 -16.91,0.5 -14.1499,0.1 -28.5399,-0.3 -42.3499,-1 -24.5599,-1.3 -47.1598,-3.8 -63.4798,-6.9 -1.92,-0.2 -3.26,-2 -3,-3.9 0.26,-1.9 2.03,-3.3 3.95,-3 10.4,0.8 23.2699,0.9 37.5499,0.7 11.87,-0.1 24.63,-0.6 37.7199,-1 8.33,-0.3 16.77,-0.6 25.16,-0.8 8.5199,-0.1 16.9799,-0.2 25.1999,-0.2 11.91,0 23.2899,0.1 33.6499,0.2 29.5599,0.3 50.5599,0.6 50.5599,0.6 z"
     id="path3050"
     style="stroke:none;stroke-width:0.181499" /><path
     d="m 4287.2605,10906.712 c 2.46,1.1 6.97,2.1 14.44,2.9 5.54,10 16.79,29.6 -6.04,60.3 -24.4899,33 -16.2299,48.3 2.07,67.5 0,0 -37.5799,14 22,40.9 -39.3399,-1.5 -62.8899,-13.3 -70.2699,-25.4 -7.71,-12.6 10.01,-18.4 10.01,-18.4 -15.87,-14.6 -15.4,-37.4 8.84,-57.5 24.1099,-20.1 35.9399,-38 18.9499,-70.3 z"
     id="path3052"
     style="stroke:none;stroke-width:0.181499" /><path
     d="m 4324.3204,10622.812 c 1.95,7.9 -10.1899,41.9 -27.1899,61.3 3.67,16.6 0.87,33 -9.9,49.1 0,0 10.23,2.7 19.23,7.5 -1.49,1.3 -2.95,2.5 -4.37,3.8 -7.37,6.5 -17.48,8.5 -29.7399,2.6 -10.54,-5 -15.49,-26.4 -14.49,-39.6 1.34,-17.6 49.3899,-67.7 60.5899,-80.6 1.73,-2 3.72,-3.3 5.8699,-4.1 z"
     id="path3054"
     style="stroke:none;stroke-width:0.181499" /><path
     d="m 4132.0109,11059.712 c 0.35,0.1 0.73,0.3 1.01,0.4 5.05,2.7 13.76,4.4 24.52,5.9 11.9099,1.8 26.1799,3.1 41.1699,4.1 13.7699,1 28.0999,1.7 41.7799,2.3 26.7299,1 50.8198,1.3 62.9098,1.1 1.93,-0.1 3.59,1.4 3.7,3.3 0.11,1.9 -1.37,3.6 -3.3,3.7 -12.14,1.2 -36.3899,3 -63.3498,3.9 -13.86,0.4 -28.42,0.6 -42.3899,0.3 -15.55,-0.4 -30.38,-1.2 -42.7199,-2.9 -13.11,-1.7 -23.56,-4.5 -29.67,-7.8 -8.8599,-4.9 -11.6799,-12.7 -8.8699,-19.2 1.1,-2.6 3.1,-5.3 6.6599,-7.5 4.66,-3 12.72,-5.5 25.23,-6.1 25.5099,-0.8 45.3399,-0.4 60.4098,0.7 28.93,2 40.3999,5.9 40.3999,5.9 1.86,0.5 2.92,2.5 2.38,4.3 -0.54,1.9 -2.49,3 -4.35,2.4 0,0 -11.1699,-2.6 -38.7699,-2.6 -14.8099,0 -34.2499,0.8 -59.1598,3.3 -7.35,0.6 -12.62,1.9 -16.16,3.6 -0.49,0.2 -1,0.6 -1.43,0.9 z m -0.77,-0.4 c 0.04,-0.2 0.02,-0.4 -0.18,-0.4 -0.24,0.1 -0.11,0.3 0.18,0.4 z"
     id="path3056"
     style="stroke:none;stroke-width:0.181499" /><path
     d="m 4303.6005,11077.012 c -31.9099,1.8 -147.8196,4.1 -174.2596,-9.9 -10.4599,-5.6 -8.72,-17 19.8,-18.9 72.8598,-4.8 99.3797,3 99.3797,3 0.25,0.5 0.57,1.1 0.94,1.7 6.31,10.4 24.44,20.5 54.1399,24.1 z"
     id="path3058"
     style="stroke:none;stroke-width:0.181499" /></g>&#10;</svg>
