<?xml version="1.0" encoding="UTF-8" standalone="no"?>
<svg
   width="3163.2593"
   height="2320.7026"
   viewBox="0 0 3163.2593 2320.7026"
   version="1.1"
   xml:space="preserve"
   style="clip-rule:evenodd;fill-rule:evenodd;stroke-linejoin:round;stroke-miterlimit:2"
   id="svg5353"
   xmlns="http://www.w3.org/2000/svg"
   xmlns:svg="http://www.w3.org/2000/svg"><defs
   id="defs5353" />&#10;    <g
   id="vectorly-UNI-sticky-note"
   transform="matrix(4.9999999,0,0,4.9999999,-319.23539,-85097.043)"
   style="stroke-width:0.2"><path
     d="m 299.44243,17081.109 c -1.873,-0.5 -3,-2.4 -2.516,-4.3 0.485,-1.9 2.399,-3 4.27199,-2.5 31.90692,6.9 47.31988,31.5 49.83288,56.4 1.74799,17.4 -3.06699,34.9 -12.68497,47.3 -7.38698,9.5 -17.72096,15.9 -30.17493,17.5 -9.36497,1.1 -18.02495,0.5 -25.78793,-1.8 -20.65995,-5.9 -35.31391,-22 -40.8059,-41.5 -6.78598,-24 0.108,-53.2 26.56593,-72.9 1.509,-1.2 3.71699,-1 4.92699,0.6 1.211,1.5 0.969,3.7 -0.539,4.9 -21.26594,18.4 -25.87193,43.5 -18.74595,63.6 3.01899,8.5 8.26498,16 15.20296,21.6 9.41398,7.7 22.14595,11.8 37.22191,9.7 10.44997,-1.2 18.50495,-7.7 23.88094,-16.5 5.47399,-8.9 8.35098,-20.2 7.97098,-31.6 -0.706,-21.1 -12.22197,-42.6 -38.6199,-50.5 z"
     id="path4752"
     style="stroke:none;stroke-width:0.2" /><path
     d="m 132.82084,17154.309 c 2.34899,80.4 -5.44299,143.8 -15.86896,191.9 -12.62997,58.4 -29.068929,94.4 -35.744912,111.6 -0.414999,1.1 -0.804998,2.2 -1.145997,3.2 63.880839,12.9 106.800739,6.6 135.970659,-6.9 36.78491,-17 51.05188,-45.4 57.79586,-59 2.64199,-5.3 4.78699,-8.8 6.22598,-10.1 2.534,-2.2 5.09999,-2.6 7.30899,-2.2 63.61884,10.8 103.54774,-6.7 128.03568,-36.8 15.88396,-19.5 25.36394,-44.2 30.78292,-69.5 9.50598,-44.4 6.59999,-91 2.698,-117.1 -1.184,-8 -2.42,-13.9 -3.44,-17.3 l -100.93275,4.4 c -1.93199,0.1 -3.58999,-1.4 -3.70199,-3.3 -0.112,-2 1.365,-3.6 3.296,-3.7 l 104.16574,-6.9 c 0.99499,0 3.93199,0.8 5.54398,4.8 1.276,3.3 3.097,10.4 4.80199,20.4 4.59299,26.9 8.54098,75 -0.428,121.1 -5.34198,27.5 -15.29496,54.3 -32.13892,75.6 -26.07993,33.1 -68.58783,53.7 -136.60966,44.2 -0.524,1 -1.122,2.2 -1.65599,3.3 -7.49899,15.3 -23.55095,47.5 -65.05184,66.6 -32.19892,14.9 -80.1368,21.8 -151.963626,5.7 -3.548992,-0.8 -5.905986,-2.9 -6.712984,-6.9 -0.289999,-1.4 -0.338999,-3.4 0.312,-6.1 0.660998,-2.7 2.154994,-6.7 4.349989,-12 8.718978,-21 28.763928,-65.1 41.965891,-137.3 7.86599,-42.9 13.37497,-95.8 12.56897,-159.6 -0.024,-2 0.876,-4.4 4.00099,-6 3.415,-1.8 11.86697,-3.3 22.93795,-4.2 34.48291,-2.6 96.02876,-1.2 96.02876,-1.2 1.93399,0.1 3.48399,1.6 3.45799,3.6 -0.025,1.9 -1.616,3.5 -3.54999,3.4 0,0 -29.92893,0 -59.61585,1.1 -18.11296,0.7 -36.13291,1.8 -47.07389,3.6 -2.43399,0.4 -5.14398,1.2 -6.61298,1.6 z m 152.07062,243.7 c -0.009,0 -0.018,0 -0.027,0 0.009,0 0.018,0 0.027,0 z m -210.894474,61.7 c -0.008,0 -0.016,0 -0.024,0 0.008,0 0.016,0 0.024,0 z"
     id="path4754"
     style="stroke:none;stroke-width:0.2" /><path
     d="m 171.16774,17477.709 c -1.89599,-0.4 -3.12199,-2.2 -2.73799,-4.1 0.385,-1.9 2.236,-3.2 4.13199,-2.8 0,0 21.02395,2.8 56.53986,-5.7 10.87497,-2.6 23.05794,-6.2 36.52491,-11.2 8.37798,-3.1 17.22196,-6.7 26.58093,-10.9 8.30398,-3.6 17.02296,-7.6 26.08394,-12.2 12.03897,-6.1 24.69394,-13.1 37.91491,-21.3 11.67697,-7.2 23.80394,-15.3 36.29391,-24.4 1.50099,-1.3 3.70999,-1 4.93098,0.5 1.22,1.5 0.993,3.7 -0.508,4.9 -20.54694,18.3 -40.1079,33.4 -58.86185,45.3 -15.35296,9.9 -30.03892,17.7 -43.91589,23.8 -6.40198,2.8 -12.67297,5.2 -18.71795,7.2 -10.31198,3.6 -20.00395,6.3 -29.01993,8.2 -47.39688,10.2 -75.23982,2.7 -75.23982,2.7 z"
     id="path4756"
     style="stroke:none;stroke-width:0.2" /><path
     d="m 179.69872,17239.809 c -1.93399,0.1 -3.54799,-1.5 -3.60099,-3.4 -0.054,-1.9 1.472,-3.5 3.40599,-3.6 0,0 25.82894,-2.7 58.93086,-5.1 7.56398,-0.6 15.49596,-1.1 23.58894,-1.5 5.20299,-0.3 10.46697,-0.5 15.73596,-0.6 13.46697,-0.3 26.92393,-0.1 39.3849,0 33.17892,0.5 59.12086,1.7 59.12086,1.7 1.93399,0 3.54799,1.5 3.60099,3.4 0.054,2 -1.472,3.6 -3.40599,3.6 0,0 -25.83694,2.7 -58.93586,5 -12.43097,0.9 -25.85893,1.8 -39.3199,2.3 -5.26599,0.2 -10.53697,0.2 -15.74596,0.2 -8.10398,0 -16.04996,0 -23.63394,-0.1 -33.18792,-0.6 -59.12586,-1.9 -59.12586,-1.9 z"
     id="path4758"
     style="stroke:none;stroke-width:0.2" /><path
     d="m 179.69864,17288.007 c -1.93349,0.08 -3.54734,-1.435 -3.60177,-3.435 -0.053,-1.9 1.47333,-3.484 3.40682,-3.565 0,0 19.02828,-2.513 43.53531,-4.672 5.58904,-0.545 11.44499,-0.987 17.43032,-1.328 3.8448,-0.263 7.73544,-0.424 11.6305,-0.486 9.96243,-0.202 19.9063,0.1 29.12042,0.286 24.58129,0.841 43.72512,2.128 43.72512,2.128 1.93421,0.02 3.54807,1.534 3.60177,3.434 0.053,1.9 -1.4726,3.585 -3.40682,3.566 0,0 -19.03789,2.513 -43.53973,4.572 -9.18469,0.809 -19.09988,1.612 -29.05568,2.014 -3.89285,0.162 -7.78937,0.123 -11.6408,0.09 -5.99635,-0.06 -11.86702,-0.117 -17.47519,-0.272 -24.59238,-0.841 -43.73027,-2.328 -43.73027,-2.328 z"
     id="path4760"
     style="stroke:none;stroke-width:0.171951" /><path
     d="m 179.69847,17347.183 c -1.93433,0.02 -3.54672,-1.437 -3.60169,-3.437 -0.0533,-1.901 1.47246,-3.539 3.40679,-3.563 0,0 10.54952,-2.186 24.44686,-4.141 3.13956,-0.477 6.41811,-0.848 9.79443,-1.116 2.1596,-0.215 4.34746,-0.33 6.54028,-0.344 5.62317,-0.08 11.20619,0.338 16.3938,0.64 13.96769,1.145 24.63644,2.66 24.63644,2.66 1.93433,-0.03 3.54834,1.537 3.60168,3.437 0.0534,1.9 -1.47245,3.539 -3.40678,3.563 0,0 -10.56493,2.185 -24.45057,4.04 -5.15889,0.698 -10.71196,1.38 -16.32938,1.66 -2.18995,0.115 -4.38397,0.03 -6.55094,-0.06 -3.38578,-0.03 -6.6799,-0.26 -9.83916,-0.484 -13.98554,-1.245 -24.64176,-2.859 -24.64176,-2.859 z"
     id="path4762"
     style="stroke:none;stroke-width:0.128964" /><path
     d="m 545.86482,17035.409 c -0.127,0 -0.252,0 -0.373,0 -4.98899,0.3 -12.21497,1.4 -19.95695,2.9 -10.47198,2 -21.85895,4.6 -29.95693,7.4 -2.32899,0.8 -5.54799,1.3 -7.09998,2 -0.186,3.4 0.729,11.1 1.86599,20.4 2.454,20.1 6.43899,46.4 7.52898,54.4 0.342,1.9 -0.92499,3.8 -2.82899,4.1 -1.90399,0.3 -3.72799,-0.9 -4.07099,-2.8 -1.78499,-8 -8.18498,-33.9 -12.24197,-53.8 -2.49899,-12.2 -3.83999,-22.3 -3.45899,-25.4 0.277,-2.2 2.046,-5.2 6.19599,-7.9 6.97098,-4.4 24.21794,-10 40.0069,-13.6 12.20597,-2.7 23.56894,-4.1 28.75292,-3.6 5.70399,0.5 8.33498,3.7 9.22098,5.8 0.446,1.1 1.196,4.1 1.782,8.6 0.835,6.3 1.80999,16.3 2.58099,27.1 1.499,21 2.357,44.9 1.724,51.3 -0.75,7 -4.55299,14.9 -13.05497,20.9 -7.09098,5.1 -17.47896,9 -32.00792,9.7 -1.927,0.2 -3.63199,-1.3 -3.80599,-3.2 -0.173,-1.9 1.24999,-3.6 3.17699,-3.8 9.90898,-1.3 17.45196,-4.1 23.03594,-7.6 7.71498,-4.8 11.20597,-11.2 11.35497,-16.8 0.145,-4.4 -1.27999,-17.8 -2.95499,-32.5 -1.62899,-14.3 -3.60099,-29.8 -5.11099,-39.6 -0.19999,-1.3 -0.25499,-2.7 -0.30399,-4 z m -57.40286,12.4 c -0.764,0.3 -1.117,0.7 -0.746,1.2 0.441,0.6 0.632,-0.4 0.746,-1.2 z m 0.033,-0.3 c 0.036,-0.3 0.064,-0.6 0.093,-0.7 -0.04,0.2 -0.071,0.4 -0.093,0.7 z m 57.24286,-14.4 c -0.123,-1.2 -0.373,-1.9 -1.001,-1.7 -0.103,0 0.07,0.1 0.094,0.2 0.232,0.5 0.526,1 0.907,1.5 z"
     id="path4764"
     style="stroke:none;stroke-width:0.2" /><path
     d="m 396.50919,17098.009 -6.91199,42.8 c -0.133,1.9 -1.80799,3.4 -3.73799,3.3 -1.92999,-0.2 -3.38799,-1.8 -3.25499,-3.8 0,0 -0.453,-19.2 -0.306,-33.7 0.069,-6.7 0.365,-12.4 0.586,-14.9 0.17,-1.7 1.54,-5 6.48498,-6.8 2.954,-1.1 9.57998,-2.5 18.97096,-3.5 3.77099,-0.4 8.02498,-0.7 12.67796,-0.9 5.75599,-0.3 12.11097,-0.4 18.94796,-0.3 14.20396,0.1 30.28392,0.8 47.23388,1.5 1.934,-0.1 3.55699,1.4 3.62399,3.4 0.067,1.9 -1.44899,3.5 -3.38199,3.6 -9.08398,1 -17.85296,2.2 -26.30793,3.2 -9.36498,1.1 -18.16396,2.1 -26.24094,3 -6.33498,0.6 -12.17297,1.3 -17.41196,1.7 -6.92198,0.6 -12.74896,0.9 -17.14095,1.4 -1.243,0.1 -2.648,0 -3.83099,0 z m -1.197,0 c -0.961,0.1 -1.559,0.3 -1.41,0.8 0.244,0.9 0.874,0.1 1.41,-0.8 z m 285.14229,230.9 c -5.19299,-16.2 -9.67297,-31.8 -13.38097,-46.9 -4.27398,-17.3 -7.61298,-33.9 -10.24897,-49.5 -10.85597,-64.5 -10.28997,-112.8 -13.12997,-135 -0.482,-3.8 -1.65899,-7.9 -2.01199,-9.1 -3.38999,-0.3 -11.77897,-0.6 -23.50594,-0.9 -15.46997,-0.3 -36.52491,-0.6 -59.64386,-0.7 -1.93399,0.1 -3.53399,-1.5 -3.56899,-3.4 -0.036,-1.9 1.505,-3.5 3.43899,-3.6 23.16595,-0.9 44.27289,-1.6 59.78886,-1.9 14.37196,-0.3 24.09094,-0.2 26.52793,0.2 2.70499,0.5 5.39199,2.5 7.26398,6.8 1.751,4 3.04299,11.2 4.15799,21.2 2.569,23 4.83099,61.9 13.51497,111.4 2.97899,17.1 6.70998,35.3 11.40597,54.7 4.15299,17.1 8.98498,35.1 14.94496,53.7 0.678,2.2 0.749,4.7 -0.392,7.5 -1.07299,2.6 -3.70499,6 -8.40598,9.5 -13.60796,10 -47.98788,23.8 -96.78976,25.9 -43.24389,1.8 -98.00375,-5.6 -159.3856,-32.6 -1.785,-0.7 -2.62899,-2.8 -1.883,-4.6 0.745,-1.8 2.8,-2.6 4.58499,-1.9 48.51788,19.2 92.42877,26.2 129.55368,26.8 56.19286,0.8 96.52376,-13.6 112.75072,-24.7 1.453,-1 3.30699,-2.1 4.41399,-2.9 z m 0.104,-0.1 c 0.786,-0.7 1.14,-1.2 0.591,-1.5 -0.724,-0.3 -0.755,0.5 -0.591,1.5 z m 0.469,1.8 c 0.011,0.1 0.021,0.1 0.031,0.1 -0.01,0 -0.021,0 -0.031,-0.1 z"
     id="path4766"
     style="stroke:none;stroke-width:0.2" /><path
     d="m 456.33604,17181.409 c -1.933,0.1 -3.55899,-1.4 -3.62699,-3.3 -0.069,-2 1.44499,-3.6 3.37899,-3.7 0,0 15.17396,-2.5 34.83991,-4.7 4.47399,-0.5 9.15898,-0.9 13.95797,-1.3 3.07799,-0.2 6.19398,-0.5 9.31697,-0.5 7.99098,-0.2 15.95996,0 23.34995,0.3 19.76195,0.7 35.08291,2.1 35.08291,2.1 1.93299,-0.1 3.55799,1.4 3.62699,3.4 0.068,1.9 -1.446,3.5 -3.37899,3.6 0,0 -15.18696,2.4 -34.84692,4.6 -7.35198,0.8 -15.28496,1.6 -23.26794,2 -3.11899,0.1 -6.24298,0.1 -9.33097,0.1 -4.81099,0 -9.51398,-0.1 -14.01397,-0.3 -19.77495,-0.9 -35.08791,-2.3 -35.08791,-2.3 z"
     id="path4768"
     style="stroke:none;stroke-width:0.2" /><path
     d="m 457.76603,17237.909 c -1.93099,0.1 -3.59599,-1.4 -3.71499,-3.3 -0.12,-1.9 1.35,-3.6 3.28099,-3.7 0,0 10.98298,-2.6 25.44494,-5.1 3.27099,-0.6 6.69299,-1 10.21498,-1.4 2.25499,-0.3 4.53799,-0.6 6.83198,-0.6 5.88098,-0.3 11.73697,-0.1 17.17996,0.1 14.63396,0.5 25.86793,1.7 25.86793,1.7 1.931,-0.1 3.59599,1.3 3.71599,3.3 0.12,1.9 -1.35099,3.6 -3.28099,3.7 0,0 -11.00097,2.5 -25.45594,4.9 -5.37698,0.9 -11.16897,1.7 -17.03595,2.2 -2.289,0.2 -4.58599,0.2 -6.85599,0.2 -3.54499,0.1 -6.99798,0 -10.31397,-0.1 -14.65496,-0.7 -25.87894,-1.9 -25.87894,-1.9 z"
     id="path4770"
     style="stroke:none;stroke-width:0.2" /><path
     d="m 551.7518,17300.309 c -1.92999,0.2 -3.59999,-1.3 -3.72699,-3.2 -0.127,-2 1.337,-3.6 3.26699,-3.7 0,0 9.04898,-2.6 21.13295,-4.9 2.71899,-0.6 5.55699,-1 8.49298,-1.4 1.87499,-0.2 3.77299,-0.5 5.68398,-0.6 4.90699,-0.2 9.77998,0 14.31797,0.3 12.26497,0.6 21.58095,1.9 21.58095,1.9 1.93099,-0.2 3.60099,1.3 3.72799,3.2 0.127,2 -1.337,3.6 -3.268,3.8 0,0 -9.06897,2.4 -21.14394,4.7 -4.46799,0.8 -9.27298,1.6 -14.16497,2.1 -1.90499,0.2 -3.81899,0.2 -5.70998,0.2 -2.96,0 -5.83199,-0.1 -8.59698,-0.3 -12.28997,-0.7 -21.59295,-2.1 -21.59295,-2.1 z"
     id="path4772"
     style="stroke:none;stroke-width:0.2" /></g>&#10;</svg>
