<?xml version="1.0" encoding="UTF-8" standalone="no"?>
<svg
   width="3423.5735"
   height="2365.3572"
   viewBox="0 0 3423.5735 2365.3572"
   version="1.1"
   xml:space="preserve"
   style="clip-rule:evenodd;fill-rule:evenodd;stroke-linejoin:round;stroke-miterlimit:2"
   id="svg5353"
   xmlns="http://www.w3.org/2000/svg"
   xmlns:svg="http://www.w3.org/2000/svg"><defs
   id="defs5353" />&#10;    <g
   id="vectorly-UNI-book"
   transform="matrix(4.9999999,0,0,4.9999999,-4212.4649,-92943.956)"
   style="stroke-width:0.2"><path
     d="m 858.91704,18978.808 c 22.04294,4.8 84.14179,16.7 132.34167,27.2 27.16989,5.9 49.99989,11.5 59.32989,14.9 6.1299,0.1 34.4599,0.7 70.9498,2.9 22.0599,1.4 47.1099,3.3 72.0298,6.2 34.3899,4 68.5198,9.8 94.4598,17.3 1.43,-0.4 6.66,-2 11.3399,-4 13.32,-5.8 33.88,-16.2 57.2699,-28.6 67.3698,-35.5 157.7396,-86.7 165.6996,-90 1.78,-0.7 3.84,0.1 4.59,1.9 0.76,1.8 -0.08,3.8 -1.86,4.6 -8.82,3.9 -119.5797,71.6 -185.9996,107.7 -20.1199,10.9 -36.2999,18.9 -44.5898,21.7 -4.56,1.5 -7.86,1.4 -9.47,1 -25.49,-7.1 -59.2799,-12 -93.2298,-15.8 -24.6799,-2.7 -49.4499,-4.8 -71.2698,-6.3 -40.9399,-2.9 -71.4998,-4 -71.4998,-4 -0.92,0 -1.83,-0.2 -2.68,-0.6 -5.82,-2.5 -20.03,-6.4 -38.2199,-11.1 -57.04889,-14.6 -152.21665,-35.7 -159.91363,-38.6 -5.22099,-2 -5.88999,-5.2 -5.66499,-6.9 0.185,-1.4 0.991,-3.1 2.99199,-4.4 2.255,-1.4 7.19098,-2.5 10.55398,-3.2 l 0.109,-6.3 c 0,-1.4 0.69099,-2.6 1.83199,-3.3 l 21.16195,-12.9 c 1.63499,-1 3.80099,-0.6 4.83499,1.1 1.03399,1.6 0.546,3.8 -1.089,4.8 0,0 -18.83595,12.4 -18.83595,12.4 l 0.133,7.7 c 0,2 -1.485,3.7 -3.493,4 z"
     id="path5266"
     style="stroke:none;stroke-width:0.2" /><path
     d="m 1511.6674,18902.408 c 0,-1.9 1.57,-3.5 3.51,-3.5 1.93,0 3.5,1.6 3.5,3.5 0,0 1.82,3.5 3.5,9 0.35,1.2 0.61,2.4 0.8,3.6 0.12,0.8 0.24,1.6 0.19,2.5 -0.12,2.1 -0.63,4.1 -1.16,6 -1.55,5.5 -3.33,9 -3.33,9 0,1.9 -1.57,3.5 -3.5,3.5 -1.94,0 -3.51,-1.6 -3.51,-3.5 0,0 -1.78,-3.5 -3.32,-9 -0.53,-1.9 -1.05,-3.9 -1.17,-6 -0.04,-0.9 0.07,-1.7 0.19,-2.5 0.2,-1.2 0.45,-2.4 0.8,-3.6 1.68,-5.5 3.5,-9 3.5,-9 z"
     id="path5268"
     style="stroke:none;stroke-width:0.2" /><path
     d="m 1057.4285,19018.008 c 1.46,1.2 1.6,3.5 0.32,4.9 -1.28,1.5 -3.4999,1.6 -4.9499,0.3 -3.57,-2.8 -18.22,-9.3 -39.4499,-17 -8.31,-3 -17.59,-6.1 -27.61598,-9.3 -7.36998,-2.4 -15.13996,-4.7 -23.17394,-7.1 -7.52798,-2.3 -15.27896,-4.6 -23.22594,-6.8 -12.69697,-3.5 -25.81494,-6.9 -39.2139,-9.5 -13.25097,-2.6 -26.62694,-4.7 -40.0409,-5.6 -1.934,0 -3.486,-1.6 -3.464,-3.5 0.023,-2 1.612,-3.5 3.546,-3.5 20.79094,-0.9 41.91689,0.4 62.32384,3.6 14.09597,2.2 27.81593,5.1 40.7109,8.8 5.45599,1.6 10.73197,3.3 15.84296,5.2 8.23298,2.9 16.02096,5.9 23.24096,9.1 30.2599,13.1 50.9599,26.2 55.1498,30.4 z"
     id="path5270"
     style="stroke:none;stroke-width:0.2" /><path
     d="m 874.929,18943.808 c 11.09597,1.5 21.53295,3.1 31.35192,4.9 10.71097,2 20.67995,4.1 29.93293,6.3 8.84198,2.2 17.02796,4.6 24.61594,6.9 8.85297,2.8 16.87695,5.7 24.17794,8.6 12.40097,4.9 22.68097,9.7 31.23087,14.3 29.25,15.7 38.56,28.4 41.0499,32.5 0.45,0.7 0.72,1.2 0.84,1.5 1.77,3.7 -3.0099,5.3 -3.0099,5.3 0,0 -0.25,0 -0.63,-0.1 -1.07,-0.1 -1.98,-0.8 -2.47,-1.8 -0.02,0 -0.04,0 -0.05,0 -0.09,-0.2 -0.29,-0.5 -0.6,-0.9 -2.95,-3.9 -15.13,-16.2 -51.80991,-30.3 -11.31997,-4.4 -24.92694,-8.8 -41.2389,-13.5 -8.59098,-2.4 -17.91895,-4.9 -28.04093,-7.6 -8.81098,-2.3 -18.19695,-4.7 -28.25893,-7.2 -13.13497,-3.2 -27.33393,-6.5 -42.82489,-9.7 -3.31699,-0.7 -4.52899,-2.6 -4.89299,-4.3 -0.278,-1.3 -0.497,-3.2 1.075,-5.2 0.606,-0.7 2.12199,-2.1 4.69499,-3.5 6.90498,-3.8 23.40794,-10.7 38.7759,-17 1.758,-0.8 3.84099,0 4.64899,1.8 0.808,1.7 0.036,3.8 -1.721,4.6 -9.45797,4.9 -19.37095,10.1 -26.84693,14.4 z m -13.78297,-1.9 c -0.034,0 -0.068,0 -0.103,0 0.034,0 0.069,0 0.103,0 z"
     id="path5272"
     style="stroke:none;stroke-width:0.2" /><path
     d="m 878.10699,18913.308 c 9.93198,1.8 19.37295,3.9 28.31393,6.3 25.23694,6.8 46.63589,15.4 64.65984,24.6 65.85784,33.6 87.07774,74.7 87.07774,74.7 0.96,1.6 0.37,3.8 -1.31,4.7 -1.6799,1 -3.8199,0.4 -4.7799,-1.3 0,0 -18.23,-28.9 -67.19087,-55.8 -19.50296,-10.7 -43.88289,-20.9 -73.92382,-29.2 -15.75296,-4.4 -33.00592,-8.5 -52.02887,-11.5 -3.49799,-0.6 -5.29199,-2.4 -6.23899,-4 -1.27899,-2.1 -1.94699,-4.7 -0.51099,-7.9 0.44499,-0.9 1.22499,-2.2 2.67299,-3.6 2.03699,-1.9 6.51198,-4.8 12.95397,-8.3 14.98996,-8.2 41.40689,-20.4 68.61783,-32.3 25.47593,-11.2 51.61887,-22 69.43885,-29.4 1.76,-0.8 3.84,0 4.63,1.8 0.8,1.8 0.01,3.8 -1.76,4.6 -17.29999,8.5 -42.59693,21 -67.39787,33.5 -24.48693,12.3 -48.40688,24.5 -63.22384,33.1 z m -16.62796,-2.8 c -0.054,0 -0.11,0 -0.166,0 0.056,0 0.111,0 0.166,0 z"
     id="path5274"
     style="stroke:none;stroke-width:0.2" /><path
     d="m 1055.2686,19024.108 c -1.93,0.1 -3.57,-1.4 -3.65,-3.3 -0.09,-2 1.41,-3.6 3.34,-3.7 0,0 29.0599,-3.2 69.3198,-4.5 8.8,-0.3 18.1199,-0.4 27.7899,-0.3 6.07,0 12.27,0.1 18.54,0.4 15.1699,0.7 30.7999,2.1 46.2399,3.9 24.2399,2.9 47.8798,7.2 68.6198,12.6 1.9,0.3 3.12,2.2 2.73,4.1 -0.39,1.9 -2.25,3.1 -4.14,2.7 -20.8,-3.2 -44.3599,-4.7 -68.3298,-5.8 -12.84,-0.5 -25.76,-0.9 -38.43,-1.3 -8.7099,-0.3 -17.2999,-0.7 -25.6299,-1 -13.71,-0.6 -26.7199,-1.3 -38.5099,-1.8 -34.1499,-1.4 -57.8898,-2 -57.8898,-2 z"
     id="path5276"
     style="stroke:none;stroke-width:0.2" /><path
     d="m 1058.2185,19022.208 c -0.6,1.2 -1.81,1.9 -3.0999,1.9 -0.36,0 -0.73,-0.1 -1.09,-0.2 -1.84,-0.6 -2.84,-2.6 -2.24,-4.4 0,0 1.34,-7.9 28.0799,-13.6 9.38,-2 22.1399,-3.9 39.6199,-4.9 7.82,-0.5 16.57,-0.7 26.3799,-0.7 8.56,0 17.92,0.3 28.15,0.9 8.6999,0.5 18.0099,1.4 27.9899,2.5 12.8,1.4 26.6499,3.3 41.7199,5.5 12.95,2 26.6999,4.3 41.4599,6.9 1.92,0.2 3.29,2 3.05,3.9 -0.23,1.9 -1.98,3.3 -3.9,3 -21.46,-1.5 -40.8399,-2.5 -58.4699,-3.5 -14.0999,-0.7 -27.0199,-1.3 -38.8799,-1.8 -9.25,-0.4 -17.8499,-0.8 -25.8399,-1.2 -14.89,-0.8 -27.6599,-1.4 -38.6399,-1.6 -36.8899,-0.9 -53.1199,1.9 -60.2699,5 -2.35,1 -3.49,1.7 -3.92,2.2 -0.03,0 -0.06,0.1 -0.1,0.1 z"
     id="path5278"
     style="stroke:none;stroke-width:0.2" /><path
     d="m 1303.8479,19017.308 c -1.71,0.9 -3.84,0.2 -4.73,-1.5 -0.9,-1.7 -0.24,-3.8 1.47,-4.7 0,0 34.19,-19.9 75.2399,-42.9 16.3399,-9.2 33.7499,-18.9 50.5298,-28 11.86,-6.4 23.41,-12.5 34.0199,-18 10.06,-5.1 19.24,-9.8 26.98,-13.6 l -73.4898,-1.8 c -1.94,0 -3.52,-1.6 -3.54,-3.5 -0.01,-1.9 1.54,-3.5 3.48,-3.5 l 101.3097,-4.2 c 3.14,0 5.89,2.1 6.65,5.2 0.77,3 -0.65,6.2 -3.43,7.7 0,0 -21.2299,12.1 -50.5899,27.8 -10.5099,5.6 -22.1099,11.6 -34.1199,17.8 -17.0099,8.6 -34.8599,17.4 -51.6999,25.7 -42.2899,20.7 -78.0798,37.5 -78.0798,37.5 z"
     id="path5280"
     style="stroke:none;stroke-width:0.2" /><path
     d="m 1052.7886,19018.008 c 0,0 22.9699,-21 91.7297,-60.1 35.3999,-20.2 82.9998,-45.1 145.9097,-74.5 39.9399,-18.5 117.2697,-28.7 164.4596,-31.4 19.6499,-1.1 34.2799,-0.7 39.3999,0.5 4.47,1 6.3999,3.6 7.1299,5 1.39,2.7 2.64,8.7 -5.1199,12.2 -12.69,5.8 -108.0698,56.2 -165.7296,83.4 -14.46,6.8 -26.61,12.1 -34.5399,15 -5.58,2.1 -9.57,3 -11.44,2.9 -45.8999,-1.7 -85.2998,2.7 -117.7997,9.7 -71.5098,15.3 -109.5798,42.7 -109.5798,42.7 -1.4999,1.1 -3.6299,0.9 -4.8099,-0.6 -1.19,-1.4 -1.01,-3.6 0.39,-4.8 z m 436.7789,-162.8 c 0.02,0 0.03,0 0.05,0 -0.02,0 -0.03,0 -0.05,0 z m -376.6491,131.6 c 14.61,-5.7 31.8299,-11.3 51.5899,-16.1 33.1099,-8 73.3698,-13.5 120.4297,-12.8 1.54,0 5.13,-1.6 10.47,-3.9 11.6299,-4.9 29.4699,-13.7 49.7598,-23.9 40.6699,-20.6 90.9898,-47.2 120.6397,-62.7 -25.1999,0.7 -63.5398,3.9 -99.6497,9.9 -26.76,4.5 -52.3099,10.4 -70.1798,18.3 -63.1999,27.9 -111.0498,51.6 -146.7297,70.8 -13.9099,7.5 -25.9599,14.3 -36.3299,20.4 z"
     id="path5282"
     style="stroke:none;stroke-width:0.2" /><path
     d="m 1406.0277,18748.508 c -18.03,7.6 -44.6599,19.1 -72.8398,31.3 -21.57,9.3 -44.0299,19 -64.2599,27.8 -33.6699,14.7 -61.0798,26.8 -66.9598,30.8 -34.4999,23.2 -62.3399,52.8 -84.0898,81.3 -40.1999,52.8 -59.4699,102.1 -59.4699,102.1 -0.67,1.8 -2.6799,2.8 -4.4999,2.1 -1.81,-0.7 -2.75,-2.7 -2.08,-4.5 0,0 17.5999,-51.2 56.9098,-106.4 21.58,-30.3 49.7599,-61.7 84.8498,-86.7 7.33,-5.1 47.0599,-23.8 91.9198,-43.3 18.2599,-8 37.3899,-16 55.4298,-23.5 43.6799,-18 81.0898,-32.5 85.3798,-33.2 4.71,-0.8 6.87,1.7 7.89,3.9 0.57,1.2 1.48,4.1 -0.86,7.7 -1.56,2.5 -6.25,7.6 -13.17,14.6 -20.3299,20.5 -60.5998,58.6 -88.7297,91.5 -14.79,17.3 -26.29,33 -29.24,44 -0.47,1.9 -2.38,3 -4.2499,2.5 -1.88,-0.4 -3.02,-2.4 -2.55,-4.2 4.3799,-18.9 31.3599,-52.3 59.7098,-83.7 18.6,-20.5 37.7099,-40.1 50.9099,-54.1 z"
     id="path5284"
     style="stroke:none;stroke-width:0.2" /><path
     d="m 1214.8082,18672.308 c -12.24,5 -74.1299,27.2 -132.5797,48.9 -34.2299,12.7 -67.2898,25.1 -88.1098,34.3 -5.97998,2.6 -12.75096,4.7 -16.43396,6.5 12.77397,26.1 23.63396,49.9 32.72396,71.5 12.5799,30 21.8799,55.8 28.8099,77.9 24.6199,78.4 19.3699,109.7 19.3699,109.7 -0.27,1.9 -2.05,3.2 -3.9599,3 -1.92,-0.3 -3.25,-2.1 -2.98,-4 0,0 3.44,-30.2 -22.94,-105.2 -7.58,-21.5 -17.6399,-46.7 -30.82991,-75.9 -10.02997,-22.3 -21.80994,-46.9 -35.85891,-73.9 -1.17699,-2.3 -1.45199,-5 0.137,-8.1 0.749,-1.4 2.494,-3.5 5.60999,-5.6 6.77298,-4.7 23.14194,-12.2 44.60193,-20.7 28.0899,-11.2 65.0498,-24.3 99.5697,-36.2 50.0099,-17.3 94.8898,-31.7 99.4798,-33.8 2.67,-1.2 6.2599,-1.2 10.1499,1.7 5.65,4.3 14.22,17.6 22.78,35.4 13.9699,29 28.8399,69.8 33.8199,97.9 0.37,1.9 -0.87,3.8 -2.77,4.1 -1.9,0.4 -3.74,-0.8 -4.11,-2.7 -4.16,-19.5 -13.53,-45.2 -23.8399,-68.4 -9.32,-21 -19.43,-40 -27.24,-50.5 -1.78,-2.4 -4.2399,-4.8 -5.3999,-5.9 z m -238.42645,90.5 c -1.3,0.8 -1.817,1.5 -1.157,2.3 0.815,0.9 1.044,-1.2 1.157,-2.3 z m -0.598,-4.6 c -0.007,0 -0.014,-0.1 -0.021,-0.1 0.007,0 0.014,0.1 0.021,0.1 z m 240.80445,-86.6 c 0,0 0,0 0.01,0 z"
     id="path5286"
     style="stroke:none;stroke-width:0.2" /><path
     d="m 879.82699,18763.708 c -1.934,-0.1 -3.44599,-1.7 -3.37599,-3.6 0.07,-2 1.69599,-3.5 3.62899,-3.4 0,0 5.80798,-0.6 14.93896,0.2 4.32999,0.4 9.28598,1.2 14.71696,2.5 3.69799,1 7.52498,2.3 11.43497,3.9 2.428,1 4.88799,2.2 7.26599,3.6 5.53298,3.3 10.90497,7.6 15.77296,12.8 6.40098,6.8 11.83597,15.1 15.99196,25.3 0.94,1.7 0.331,3.8 -1.36,4.7 -1.68999,1 -3.82599,0.4 -4.76599,-1.3 -3.75199,-5.1 -7.91398,-9.3 -12.15797,-13.1 -4.53999,-4.1 -9.30397,-7.3 -14.00896,-10.2 -3.01299,-1.9 -6.02599,-3.6 -8.93798,-5.2 -3.16399,-1.8 -6.18798,-3.5 -9.16098,-4.9 -4.13099,-2.1 -7.96898,-3.9 -11.56697,-5.4 -10.76697,-4.3 -18.41595,-5.9 -18.41595,-5.9 z"
     id="path5288"
     style="stroke:none;stroke-width:0.2" /><path
     d="m 1073.6685,18669.008 c -1.69,-1 -2.29,-3.1 -1.35,-4.8 0.95,-1.7 3.09,-2.3 4.78,-1.3 0,0 10.24,3.5 22.3799,11.5 2.71,1.7 5.41,3.8 8.1,6.1 1.7,1.4 3.4,3 4.95,4.7 3.82,4.2 7.2,9 9.92,14.1 4.15,7.9 6.77,16.3 7.13,25.2 0.35,1.9 -0.92,3.7 -2.82,4 -1.91,0.4 -3.73,-0.9 -4.08,-2.8 -2.31,-7.1 -6.74,-13 -11.59,-18.8 -2.69,-3.2 -5.66,-6.1 -8.52,-9 -1.98,-2.1 -3.88,-4.1 -5.75,-6.1 -3.1399,-3.3 -6.0599,-6.5 -8.8599,-9.3 -8.15,-8.2 -14.29,-13.5 -14.29,-13.5 z"
     id="path5290"
     style="stroke:none;stroke-width:0.2" /><path
     d="m 1091.7685,18595.408 c -1.71,-0.9 -2.37,-3.1 -1.47,-4.8 0.9,-1.7 3.02,-2.3 4.74,-1.4 0,0 19.3899,8 40.8599,27.8 4.5999,4.3 9.1999,9.1 13.6999,14.6 2.75,3.3 5.48,6.8 8,10.6 5.75,8.8 10.86,18.7 14.95,29.8 5.2899,14.3 8.6899,30.4 9.7099,48.4 0.25,1.9 -1.11,3.6 -3.03,3.9 -1.92,0.2 -3.6799,-1.1 -3.9199,-3 -3.29,-16.6 -8.94,-31 -15.31,-43.9 -4.8,-9.7 -10.28,-18.3 -15.67,-26.2 -6.21,-9.2 -12.3999,-17.4 -18.4999,-24.4 -17.97,-20.7 -34.0599,-31.4 -34.0599,-31.4 z"
     id="path5292"
     style="stroke:none;stroke-width:0.2" /><path
     d="m 1309.2979,18734.808 c -1.07,1.7 -3.25,2.1 -4.86,1 -1.61,-1 -2.05,-3.2 -0.98,-4.8 0,0 4.53,-8.4 14.93,-18.2 4.93,-4.7 11.17,-9.7 18.89,-14.1 5.1099,-3 10.8799,-5.7 17.2999,-7.9 3.84,-1.4 7.92,-2.5 12.25,-3.4 9.38,-1.7 19.8599,-2.3 31.3399,-1.2 13.46,1.3 28.1899,4.9 44.4399,11.3 1.85,0.6 2.88,2.6 2.3,4.4 -0.57,1.9 -2.54,2.9 -4.38,2.3 -16,-3.7 -30.1699,-4.6 -42.8799,-4.4 -10.24,0.2 -19.3599,1.6 -27.6699,3.3 -10.06,2.1 -18.84,4.8 -26.37,8.1 -22.6799,9.9 -34.3099,23.6 -34.3099,23.6 z"
     id="path5294"
     style="stroke:none;stroke-width:0.2" /></g>&#10;</svg>
