<?xml version="1.0" encoding="UTF-8" standalone="no"?>
<svg
   width="3344.436"
   height="2382.8816"
   viewBox="0 0 3344.4361 2382.8816"
   version="1.1"
   xml:space="preserve"
   style="clip-rule:evenodd;fill-rule:evenodd;stroke-linejoin:round;stroke-miterlimit:2"
   id="svg5353"
   xmlns="http://www.w3.org/2000/svg"
   xmlns:svg="http://www.w3.org/2000/svg"><defs
   id="defs5353" />&#10;    <g
   id="vectorly-UNI-money-dollar"
   transform="matrix(5.3439027,0,0,5.3439027,-4651.2656,-78243.581)"
   style="stroke-width:0.187129"><path
     d="m 1047.2586,15062.01 c 28.9299,-38.5 56.5098,-81.6 81.0798,-123.3 44.2199,-75.1 78.3898,-146.2 91.2397,-180.6 1.82,-4.8 4.19,-9.7 5.3,-13 -39.9299,-16.6 -71.3398,-32.7 -95.2997,-46.2 -23.65,-13.3 -39.9999,-23.9 -50.2199,-29.8 -1.86,-1 -3.84,-2 -5.37,-2.7 -30.6799,55.7 -62.7498,108.1 -92.00977,152.9 -58.41985,89.7 -105.29374,149.8 -105.29374,149.8 -1.16799,1.5 -3.36799,1.8 -4.90998,0.7 -1.542,-1.2 -1.845,-3.4 -0.676,-4.9 0,0 45.03389,-61.2 101.34775,-151.6 28.86194,-46.4 60.75184,-100.4 90.90174,-157.9 1.41,-2.7 3.71,-4.4 7.15,-4.8 1.59,-0.2 3.75,0 6.44,1 3,1 7.31,3.2 12.96,6.4 22.1799,12.8 67.8498,42.7 145.0496,74 2.5,1 6.35,4.3 5.53,11.4 -0.58,5.2 -4.08,16.1 -10.35,31.1 -7.67,18.3 -19.4499,43.3 -34.4399,72.1 -34.6299,66.4 -86.2598,152.9 -141.8296,223.8 -0.85,1.1 -3.46,2.9 -7.99,2 -4.57,-1 -13.96,-4.7 -25.72,-9.9 -39.34386,-17.3 -106.5507,-51.4 -106.5507,-51.4 -1.73499,-0.8 -2.44899,-2.9 -1.59299,-4.7 0.855,-1.7 2.95899,-2.4 4.69399,-1.6 0,0 86.1798,41.3 120.7997,54.2 3.71,1.4 7.67,2.5 9.76,3 z m 28.9799,-399.7 c 0.01,0 0.01,0 0.01,0 z m 149.0596,81.4 c 0.36,-1.5 0.25,-2.4 -0.64,-2.4 -1.16,0 -0.13,1.5 0.64,2.4 z m 3.55,3.1 c 0.02,0 0.04,0 0.06,0 -0.02,0 -0.04,0 -0.06,0 z"
     id="path4058"
     style="stroke:none;stroke-width:0.187129" /><path
     d="m 1037.4586,14808.41 c 1.91,-0.3 3.71,1 4.02,2.9 0.31,1.9 -0.99,3.7 -2.9,4 -4.73,1 -8.87,4.6 -12.36,9.2 -4.8,6.4 -8.04,14.9 -9.1,23.2 -1.01,7.9 0.03,15.5 5.17,19.7 2.83,2.3 6.94,3 12.42,2.4 13,-1.1 21.9399,-8.2 29.9299,-14.7 8.17,-6.7 15.56,-13 23.34,-15.7 6.55,-2.2 13.4299,-2.5 21.2099,1.2 6.14,2.9 10.21,8.4 11.71,15.7 2.02,9.9 -0.47,23.4 -6.67,35.3 -8.81,16.9 -24.3299,30.2 -40.8899,25.4 -1.88,-0.4 -3.04,-2.3 -2.6,-4.2 0.45,-1.9 2.34,-3 4.22,-2.6 10.58,2 19.33,-5.7 25.3999,-15.8 5.28,-8.7 8.3,-19.5 8.2,-28.4 -0.06,-5.6 -1.11,-10.5 -5.21,-12.1 -3.77,-1.6 -7.0099,-1.3 -10.0699,-0.1 -6.3,2.4 -11.83,8.3 -18.55,13.7 -10.2,8.3 -22.3299,16.1 -38.9599,17.1 -10.18,0.4 -17.48,-2.4 -22.3999,-6.9 -5.63,-5.3 -8.56,-12.9 -8.59,-21.5 -0.04,-9.6 3.14,-20.4 8.58,-29.2 6.1499,-10.1 14.8799,-17.6 24.0999,-18.6 z"
     id="path4060"
     style="stroke:none;stroke-width:0.187129" /><path
     d="m 1018.1886,14827.71 c 1.77,0.8 2.59,2.8 1.81,4.6 -0.77,1.8 -2.83,2.6 -4.6099,1.8 -3.09,0.1 -5.31,0.6 -8.29,0.4 -1.73,-0.2 -3.4,-0.3 -4.97,-0.9 -1.63,-0.7 -2.88001,-1.8 -4.22001,-2.8 -2.41999,-1.9 -3.82999,-3.7 -6.00998,-5.5 -1.85,-0.6 -2.88999,-2.6 -2.32,-4.4 0.57,-1.9 2.53,-2.9 4.37999,-2.3 2.99,-0.4 5.31999,-0.8 8.53,-0.7 1.81,0 3.55,0.2 5.35,0.7 0.67,0.2 1.29,0.6 1.89,1 0.95,0.5 1.79,1.1 2.63,1.9 2.3,2 3.6999,3.8 5.8299,6.2 z m 123.0997,70.7 c 1.6,1.1 2.01,3.3 0.91,4.9 -1.09,1.5 -3.27,2 -4.87,0.9 0,0 -3.4499,-0.4 -10.1099,-2.6 -1.2,-0.4 -2.4,-0.9 -3.73,-1.5 -0.76,-0.4 -1.56,-0.7 -2.3,-1.3 -1.69,-1.2 -3.23,-2.8 -4.87,-4.5 -2.32,-2.5 -4.06,-5.1 -6.52,-8.1 -1.64,-1.1 -2.13,-3.2 -1.1,-4.9 1.04,-1.6 3.21,-2.1 4.84,-1 3.82,0.9 6.92,1.4 10.18,2.5 2.31,0.8 4.37,1.6 6.21,2.6 0.8,0.5 1.47,1.1 2.12,1.7 1.12,0.9 2.05,1.8 2.89,2.8 4.6799,5.4 6.3499,8.5 6.3499,8.5 z"
     id="path4062"
     style="stroke:none;stroke-width:0.187129" /><path
     d="m 1273.138,14731.31 c -11.31,-6 -37.9499,-20.6 -65.8298,-36 -26.23,-14.5 -53.5399,-29.6 -70.2799,-38.2 -5.2099,-2.7 -9.3499,-4.8 -12.0299,-6 -1.01,1.8 -2.32,3.9 -3.83,6.2 -5.73,8.6 -13.97,20 -13.97,20 -1.09,1.6 -3.27,2 -4.87,0.9 -1.59,-1.1 -2,-3.3 -0.9,-4.9 0,0 6.03,-9.2 11.07,-17.4 3.06,-5 5.82,-9.6 6.12,-10.9 0.32,-1.5 1.26,-2.7 3.22,-3.2 0.58,-0.2 1.98,-0.3 4.03,0.3 2.62,0.8 8.02,3.1 15.3199,6.5 17.18,7.9 45.2699,21.8 72.0999,35.4 34.0599,17.2 66.0598,33.9 71.0298,36 2.48,1.1 4.72,3.3 5.1,7.5 0.23,2.5 -0.96,8 -4.24,15.6 -5.31,12.4 -15.9,32.4 -30.0299,56.2 -9.76,16.4 -21.26,34.6 -33.66,53.4 -18.9799,28.7 -40.1499,58.7 -60.7698,85.7 -26.1499,34.1 -51.4899,63.2 -70.4098,78.5 -1.48,1.3 -3.7,1.1 -4.94,-0.4 -1.25,-1.5 -1.06,-3.7 0.42,-4.9 17.9199,-15.8 41.3099,-45.6 65.7098,-80 24.72,-34.9 50.2599,-74.7 71.7498,-110 8.1,-13.3 15.65,-26 22.36,-37.6 8.67,-14.9 15.9399,-27.9 21.0399,-38 2.81,-5.5 5.17,-11.3 6.49,-14.7 z m -146.5896,-83.1 c 0.2,-0.3 0.35,-0.7 0.46,-1.1 -0.08,0.3 -0.23,0.7 -0.46,1.1 z m 151.4696,85.6 c 0.04,0 0.09,0.1 0.14,0.1 -0.05,0 -0.09,-0.1 -0.14,-0.1 z"
     id="path4064"
     style="stroke:none;stroke-width:0.187129" /><path
     d="m 1354.5978,14728.11 c -3.25,-1.9 -8.15,-4.6 -14.14,-8.1 -20.8499,-11.9 -54.1498,-30.5 -81.4398,-45.1 -21.7299,-11.6 -39.3999,-20.8 -43.3898,-21.4 -3.36,-0.5 -6.96,2.8 -10.56,6.5 -7.8,7.9 -14.45,19.4 -14.45,19.4 -0.94,1.6 -3.08,2.3 -4.77,1.3 -1.69,-0.9 -2.3,-3.1 -1.37,-4.7 0,0 8.49,-16 17.86,-24.8 4.74,-4.5 9.92,-6.9 14.41,-6.4 5.1399,0.5 32.2499,13 62.1598,27.9 30.7199,15.3 64.5398,33 80.0998,41.5 6.04,3.3 9.64,5.7 10.18,6.2 0.77,0.8 3.56,4.6 0.75,10.4 -1.39,2.8 -4.84,8.6 -10.17,16.6 -11.14,16.8 -30.5199,44 -55.6499,75.3 -17.8899,22.2 -38.7399,46.4 -61.3098,70.4 -48.7999,52.1 -105.7698,103.5 -159.0896,133 -1.68,1 -3.82,0.4 -4.79,-1.3 -0.96,-1.6 -0.39,-3.8 1.29,-4.7 41.5499,-25 84.5998,-64.4 124.3197,-106.3 32.2299,-33.9 62.0498,-69.6 86.8898,-100.8 23.1299,-29 41.9599,-54.1 53.5398,-70.6 4.21,-6.1 7.47,-10.9 9.63,-14.3 z"
     id="path4066"
     style="stroke:none;stroke-width:0.187129" /><path
     d="m 1427.1176,14789.01 c -7.15,-8.3 -20.4099,-21.5 -35.7799,-36.3 -35.2799,-34.2 -81.7198,-76.7 -94.6697,-88.6 l -11.82,18.4 c -1.01,1.7 -3.17,2.2 -4.82,1.2 -1.65,-1 -2.16,-3.2 -1.15,-4.9 l 13.52,-23 c 0.63,-1.1 1.67,-1.7 2.85,-1.9 1.18,-0.2 2.38,0.1 3.2799,0.9 0,0 58.9699,49.5 101.7498,88.3 19.6899,17.9 35.9199,33.6 41.9099,41.3 1.36,1.7 3.08,6.1 -1.04,11.3 -2.45,3.1 -8.82,8.8 -18.51,16.3 -17.9999,14.1 -47.7998,35.4 -83.7598,59.4 -30.3799,20.3 -65.1898,42.4 -100.5797,64.3 -54.6299,33.9 -110.7897,66.7 -154.6096,90.4 -1.68,1 -3.82,0.4 -4.77,-1.3 -0.95,-1.7 -0.36,-3.8 1.33,-4.8 28.5199,-16.8 62.2598,-37.9 97.4597,-60.6 31.8,-20.5 64.7099,-42.2 95.9498,-63.1 22.35,-14.9 43.8099,-29.5 63.3999,-42.8 24.6999,-16.8 46.3998,-31.7 62.7498,-43.5 12.81,-9.3 22.3199,-16.4 27.3099,-21 z m 3.42,4.2 c 0,0 0.01,0.1 0.01,0.1 z"
     id="path4068"
     style="stroke:none;stroke-width:0.187129" /><path
     d="m 1450.3676,14838.41 c -3.61,-8.4 -12.45,-25.9 -22.98,-46.4 -21.9699,-43 -51.4498,-98.8 -59.9498,-114.9 l -26.69,21.3 c -1.48,1.2 -3.6999,1 -4.9299,-0.5 -1.24,-1.5 -1.03,-3.7 0.46,-4.9 l 29.7899,-25.8 c 0.99,-0.8 2.28,-1.1 3.54,-0.9 1.25,0.2 2.34,1 2.96,2.1 0,0 39.0799,67.4 66.5798,117.3 14.3,26 25.3799,47.4 26.9999,52.7 0.42,1.4 0.91,5.2 -3.05,8.9 -1.98,1.9 -6.6999,5.3 -13.7599,9.8 -14.04,8.9 -37.8699,22.9 -67.3799,39.1 -20.6299,11.3 -44.0498,23.6 -68.7098,36.2 -37.7399,19.2 -78.4098,38.9 -116.5497,56.2 -47.6499,21.7 -91.3898,39.4 -120.6197,47.7 -1.85,0.6 -3.81,-0.5 -4.37,-2.3 -0.56,-1.9 0.48,-3.8 2.34,-4.4 28.6299,-9.3 71.1698,-28.6 117.6797,-51.5 47.5799,-23.4 99.1698,-50.6 144.0697,-75 13.3399,-7.2 26.1199,-14.2 38.0199,-20.7 22.7799,-12.4 42.3399,-23.3 56.5498,-31.6 9.13,-5.4 16.01,-9.6 20,-12.4 z m 1.57,4.1 c 0.01,0.1 0.01,0.1 0.01,0.1 z"
     id="path4070"
     style="stroke:none;stroke-width:0.187129" /><path
     d="m 1482.0275,14906.61 c -0.28,-2.5 -1.34,-6.3 -1.73,-9.9 -1.6,-14.4 -5.17,-36.9 -9.49,-61 -7.04,-39.3 -16.0699,-82.7 -22.5399,-101.7 -0.9,-2.7 -2.03,-5.2 -2.67,-6.6 -3.68,0.8 -9.05,2.2 -14.66,3.7 -12.2499,3.3 -25.6299,7.3 -25.6299,7.3 -1.85,0.5 -3.82,-0.5 -4.4,-2.3 -0.58,-1.9 0.44,-3.9 2.28,-4.4 0,0 13.29,-4.5 25.4599,-8.4 7.12,-2.2 13.88,-4.3 17.46,-5.1 1.44,-0.3 3.13,0 4.87,1.4 1.04,0.9 2.35,2.7 3.69,5.4 4.09,8.3 9.9399,27.7 15.8799,51.1 10.57,41.5 21.65,95.5 24.88,120.8 1.13,8.9 0.92,15 0.26,16.9 -0.4,1.2 -1.26,2.7 -3.09,4.3 -1.65,1.3 -5.41,3.4 -11.1,5.7 -10.11,4.1 -27.2999,10 -48.9399,16.6 -14.6199,4.5 -31.2799,9.3 -49.1399,14.2 -31.9999,8.9 -67.8098,18.2 -102.4797,27 -69.4998,17.4 -134.3997,32.4 -154.8696,36.1 -1.9,0.4 -3.75,-0.9 -4.13,-2.8 -0.38,-1.9 0.85,-3.7 2.75,-4.1 23.0899,-5.1 103.0197,-27.3 181.9595,-50 34.3999,-9.9 68.5799,-19.9 97.7998,-28.6 27.1299,-8.1 49.9599,-15 64.4498,-20.2 5.51,-2 11.04,-4.4 13.13,-5.4 z m 0.06,0.8 c -0.36,0.5 -0.72,1.1 -0.81,1.4 -0.04,0.1 -0.36,0.4 -0.15,0.4 0.76,0.1 1,-0.6 0.96,-1.8 z"
     id="path4072"
     style="stroke:none;stroke-width:0.187129" /><path
     d="m 1229.8281,15015.11 c -0.48,-1.9 0.67,-3.8 2.54,-4.3 1.88,-0.4 3.78,0.7 4.25,2.6 0,0 4.1,8.5 7.73,20.5 0.82,2.7 1.5,5.5 2.09,8.5 0.38,1.9 0.73,3.8 0.9,5.8 0.41,5 0.31,10 -0.18,14.8 -0.91,9 -3.01,16.9 -6.35,22.4 -0.75,1.8 -2.8,2.6 -4.59,1.9 -1.78,-0.8 -2.63,-2.8 -1.89,-4.6 0.84,-3.6 0.48,-7.9 0.03,-12.8 -0.31,-3.4 -0.96,-6.9 -1.5,-10.6 -0.51,-3.6 -1.19,-7.2 -1.56,-10.8 -0.47,-4.5 -0.61,-9 -0.8,-13.2 -0.53,-11.6 -0.67,-20.2 -0.67,-20.2 z"
     id="path4074"
     style="stroke:none;stroke-width:0.187129" /><path
     d="m 1264.458,14933.41 c -1.3,-1.4 -1.18,-3.6 0.25,-4.9 1.44,-1.3 3.66,-1.2 4.95,0.2 0,0 15.01,13.8 31.9699,35.8 3.73,4.9 7.46,10.1 11.13,15.7 2.3,3.6 4.59,7.2 6.7,11 5.08,9.3 9.59,19.2 13.31,29.5 5.6499,15.5 9.2599,31.7 10.0899,47.5 0.24,1.9 -1.13,3.6 -3.05,3.9 -1.9199,0.2 -3.6699,-1.2 -3.9099,-3.1 -1.96,-9.8 -5.34,-19.5 -9.33,-29.1 -3.91,-9.4 -8.61,-18.5 -13.48,-27.5 -2.99,-5.4 -6.08,-10.8 -9.07,-16 -3.16,-5.5 -6.2099,-10.9 -9.2199,-16 -4.08,-6.9 -7.95,-13.3 -11.58,-19.1 -10.69,-17 -18.76,-27.9 -18.76,-27.9 z"
     id="path4076"
     style="stroke:none;stroke-width:0.187129" /><path
     d="m 1245.4681,14849.41 c -1.88,-0.4 -3.06,-2.3 -2.63,-4.2 0.42,-1.8 2.31,-3 4.19,-2.6 0,0 33.3899,5.7 72.2698,30.3 8.36,5.4 16.91,11.6 25.3999,18.9 5.18,4.4 10.35,9.2 15.32,14.6 11.23,11.9 21.8099,26.1 31.0499,42.5 11.63,20.7 20.95,45 26.98,73.3 0.48,1.9 -0.64,3.8 -2.52,4.3 -1.87,0.5 -3.78,-0.7 -4.27,-2.5 -8.12,-26.6 -19.4,-48.9 -31.87,-68 -9.6799,-14.8 -20.2599,-27.5 -30.9599,-38.6 -4.73,-4.9 -9.4,-9.6 -14.0999,-13.9 -7.74,-7.2 -15.46,-13.5 -22.96,-19 -35.2499,-26.1 -65.8998,-35.1 -65.8998,-35.1 z"
     id="path4078"
     style="stroke:none;stroke-width:0.187129" /></g>&#10;</svg>
