<?xml version="1.0" encoding="UTF-8" standalone="no"?>
<svg
   width="2959.5105"
   height="2644.1047"
   viewBox="0 0 2959.5105 2644.1047"
   version="1.1"
   xml:space="preserve"
   style="clip-rule:evenodd;fill-rule:evenodd;stroke-linejoin:round;stroke-miterlimit:2"
   id="svg5353"
   xmlns="http://www.w3.org/2000/svg"
   xmlns:svg="http://www.w3.org/2000/svg"><defs
   id="defs5353" />&#10;    <g
   id="vectorly-UNI-dog"
   style="stroke:none;stroke-width:0.175417"
   transform="matrix(5.7007055,0,0,5.7007055,-749.49912,-42199.638)"><path
     d="m 272.18849,7422.733 c -2.25699,1.39 -4.79398,3 -7.48498,4.73 -5.16898,3.33 -10.88597,7.01 -16.13896,10.99 -7.75198,5.87 -14.75896,11.76 -16.84796,17.52 -0.48399,1.88 -2.39799,3 -4.27098,2.52 -1.873,-0.49 -3,-2.4 -2.516,-4.27 1.167,-7.3 7.49598,-16.3 15.54996,-24.8 4.87799,-5.15 10.35498,-10.04 15.55596,-14.13 8.02698,-6.31 15.37697,-10.6 18.11096,-11.94 5.36299,-2.3 13.69997,-0.22 13.63097,11.83 -0.032,5.55 -1.518,14.69 -4.10999,24.31 -3.422,12.71 -8.48198,26.17 -12.61497,33.37 -0.815,1.75 -2.901,2.51 -4.65599,1.7 -1.754,-0.81 -2.517,-2.9 -1.703,-4.66 2.245,-6.22 4.03499,-16.75 5.51999,-27.3 1.004,-7.13 1.74399,-14.22 1.97499,-19.87 z m -0.052,-7.06 c -0.033,-0.59 0.154,-1.52 -0.223,-1.42 -0.80099,0.21 -0.43699,0.81 0.223,1.42 z m 8.33898,2.32 c 0.105,-0.04 0.21,-0.09 0.317,-0.14 -0.099,0.04 -0.205,0.09 -0.317,0.14 z"
     id="path1896"
     style="stroke:none;stroke-width:0.175417" /><path
     d="m 246.23456,7473.843 c -1.357,1.38 -3.57799,1.4 -4.95699,0.04 -1.379,-1.36 -1.397,-3.58 -0.04,-4.96 0,0 3.75399,-6.59 9.74698,-18.05 1.87099,-3.58 3.82699,-7.66 6.35298,-11.96 2.147,-3.66 4.76299,-7.34 7.38698,-11.41 3.54999,-5.49 7.45798,-11.06 11.08198,-17.61 0.66099,-1.82 2.67299,-2.76 4.49098,-2.1 1.818,0.66 2.758,2.67 2.097,4.49 -1.506,7.73 -3.13299,14.71 -5.39099,21.21 -1.70999,4.93 -3.63499,9.42 -5.82698,13.43 -0.97,1.77 -2.079,3.39 -3.171,4.92 -1.82699,2.57 -3.62399,4.88 -5.44698,6.93 -9.32398,10.45 -16.32396,15.07 -16.32396,15.07 z"
     id="path1898"
     style="stroke:none;stroke-width:0.175417" /><path
     d="m 449.56305,7580.033 c 1.921,0.23 3.294,1.98 3.064,3.9 -0.23,1.92 -1.975,3.29 -3.89599,3.06 -26.75594,-1.83 -49.57488,-6.49 -69.19083,-13.69 -9.43898,-3.46 -18.08596,-7.57 -26.06494,-12.11 -5.73698,-3.26 -11.13697,-6.75 -16.13296,-10.53 -13.40796,-10.16 -24.35994,-21.84 -33.53791,-34.21 -14.60597,-19.69 -24.52894,-41.23 -32.97292,-62.22 -0.807,-1.76 -0.035,-3.84 1.72299,-4.65 1.758,-0.81 3.84099,-0.03 4.64799,1.72 10.02698,19.34 21.86095,38.74 37.26791,56.61 9.26698,10.75 19.94495,20.76 32.43492,29.93 4.61899,3.4 9.42298,6.76 14.54896,9.94 7.21198,4.49 14.98097,8.68 23.43194,12.57 18.19596,8.37 39.33991,15.35 64.67684,19.68 z"
     id="path1900"
     style="stroke:none;stroke-width:0.175417" /><path
     d="m 146.76181,7492.753 c -0.073,0.09 -0.149,0.13 -0.186,0.05 -0.029,-0.06 0.087,-0.05 0.186,-0.05 z m 0,0 c 0.12699,-0.14 0.24499,-0.43 0.12599,-0.49 -0.57399,-0.28 -0.26399,1.3 -0.16799,2.1 0.14799,1.22 0.44899,2.52 0.90499,3.86 0.681,2 1.57,4.07 2.67,6.05 2.56399,4.62 5.83298,9.01 9.04597,11.11 6.38599,4.23 14.28697,6.01 21.73095,6.53 10.78597,0.74 20.58695,-0.87 23.80894,-2.2 1.744,-0.84 3.83899,-0.1 4.67599,1.64 0.837,1.74 0.101,3.84 -1.643,4.68 -3.52499,1.94 -14.51996,5.32 -26.99593,5.79 -9.37598,0.36 -19.43895,-1.17 -27.96693,-5.65 -8.51398,-4.6 -18.84595,-18.52 -20.98495,-29.21 -1.87299,-9.37 1.596,-16.56 10.68498,-19.35 4.11099,-1.16 8.31897,-4.16 12.85796,-8.04 5.90299,-5.05 12.17597,-11.62 18.33996,-19.29 9.37297,-11.17 21.63294,-17.72 33.81091,-20.75 16.58196,-4.13 32.46992,-2.15 38.64191,0.69 1.80199,0.7 2.69399,2.74 1.99099,4.54 -0.70399,1.8 -2.73799,2.69 -4.53999,1.99 -5.51598,-1.79 -19.09295,-1.44 -32.80791,3.55 -9.42798,3.42 -18.86496,9.25 -25.50794,18.83 -6.46298,8.89 -12.97297,16.7 -19.46295,22.46 -6.52599,5.78 -13.10897,9.53 -19.13196,11.15 -0.022,0.01 -0.05,0.01 -0.08,0.01 z"
     id="path1902"
     style="stroke:none;stroke-width:0.175417" /><path
     d="m 226.03761,7822.8629 c 0.993,-10.51 1.34,-22.49 1.364,-35.26 0.025,-13.63 -0.349,-28.14 -0.995,-42.74 -0.981,-22.19 -2.563,-44.57 -4.15499,-64.34 -2.743,-34.03 -5.47999,-60.3699 -5.52099,-64.9399 -0.144,-23.32 -2.83999,-41.37 -6.81798,-55.27 -4.45199,-15.56 -10.41498,-25.82 -16.15496,-32.3 -1.318,-1.42 -1.237,-3.64 0.18,-4.95 1.41599,-1.32 3.63599,-1.24 4.95299,0.18 6.62798,6.79 13.82296,17.64 19.48895,34.43 4.84599,14.37 8.52098,33.16 9.75897,57.59 0.215,4.5 4.18699,30.3899 7.96598,63.9199 2.242,19.91 4.42399,42.46 5.81299,64.85 0.923,14.89 1.498,29.69 1.474,43.6 -0.028,16.39 -0.922,31.54 -2.715,44.13 -0.483,3.24 -2.00899,5.15 -3.83899,6.39 -1.54799,1.04 -3.53899,1.77 -6.08198,1.58 -1.44,-0.11 -3.47499,-0.7 -5.81999,-1.37 -2.00599,-0.57 -4.86499,-1.41 -7.12998,1.9 -0.487,0.72 -0.966,1.85 -0.966,1.85 0,0 -0.026,-0.48 -0.15,-0.4 -1.183,0.72 2.393,1.75 4.29699,2.38 4.84799,1.6 11.26697,2.19 17.50696,1.88 6.58698,-0.31 11.25297,-2.61 14.24296,-6.84 3.19299,-4.53 4.74699,-10.74 5.32699,-18.11 0.852,-10.58 5.30599,-43.89 9.86497,-73.55 3.317,-21.58 6.68699,-41.21 8.63598,-48.8 0.438,-1.89 2.324,-3.06 4.20799,-2.62 1.884,0.43 3.058,2.32 2.62,4.2 -1.582,7.57 -3.96499,27.05 -6.31599,48.42 -3.24399,29.51 -6.37098,62.6 -6.78498,73.08 -0.525,12.61 -3.89899,22.65 -10.38398,29.24 -4.85998,4.93 -11.54497,8.04 -20.52494,8.77 -7.86499,0.63 -15.97796,0.04 -22.24695,-1.74 -4.45099,-1.26 -8.05398,-3.24 -10.52297,-5.58 -2.542,-2.4 -4.00899,-5.3 -4.46599,-8.54 -0.48,-3.4 0.269,-7.42 3.20599,-11.94 6.36198,-9.79 14.20196,-10.23 20.68495,-9.1 z m -0.75,6.71 c -0.004,0.02 -0.008,0.05 -0.012,0.08 0.004,-0.03 0.008,-0.06 0.012,-0.08 z"
     id="path1904"
     style="stroke:none;stroke-width:0.175417" /><path
     d="m 309.8184,7845.1629 c 0.002,0.01 0.004,0.01 0.007,0.02 -0.003,-0.01 -0.005,-0.01 -0.007,-0.02 z m 0,0 c -0.119,-0.46 -0.406,-1.53 -0.69,-1.14 -1.50999,2.12 5.95199,1.67 9.99098,1.76 6.69098,0.16 13.98396,-0.68 18.27695,-1.57 2.097,-9.89 -1.84899,-32.45 -0.348,-51.91 2.073,-25.35 4.88199,-44.44 7.91698,-59.09 5.28299,-25.5 11.09198,-37.59 14.39797,-45.68 1.57499,-3.85 2.62699,-6.59 2.38299,-9.73 -0.202,-1.92 1.195,-3.64 3.11899,-3.85 1.924,-0.2 3.65,1.2 3.85299,3.12 0.552,4.16 -0.37099,7.93 -2.19799,13.17 -2.77799,7.97 -7.76898,19.92 -11.67297,44.77 -2.268,14.44 -4.17199,33.2 -5.05199,58.03 -0.488,12.39 1.258,25.94 2.106,36.76 0.58899,7.53 0.66199,13.9 -0.22,18.12 -1.239,5.93 -4.53999,9.05 -8.39198,10.21 -5.84599,1.75 -21.15395,4.14 -31.98892,2.71 -9.12398,-1.2 -15.21097,-5.77 -16.81296,-11.54 -1.258,-4.62 -0.492,-9.25 1.60499,-13.69 1.888,-4 4.98499,-7.85 7.64899,-11.24 0.93999,-1.19 2.24099,-3.13 2.48199,-3.49 1.827,-11.1 0.467,-38.72 -3.69499,-62.76 -1.865,-10.78 -4.22799,-20.85 -7.34098,-28.32 -1.603,-3.84 -3.21799,-6.97 -5.25199,-8.77 -9.11798,-8.15 -18.28095,-22.63 -26.07194,-38.5 -12.51896,-25.51 -21.83194,-54.3599 -23.55194,-63.4199 -0.412,-1.89 0.787,-3.76 2.677,-4.17 1.88999,-0.42 3.75899,0.78 4.17199,2.67 2.13799,8.66 12.76996,35.9699 26.13593,59.9799 7.74998,13.93 16.37596,26.74 24.94194,33.67 7.71498,6.32 14.41396,23.95 18.53695,44.17 5.35299,26.26 6.94399,56.67 5.11099,68.46 -0.266,1.62 -0.925,3.42 -2.01799,5.3 -1.754,3.03 -5.14499,6.7 -7.82898,10.66 -1.184,1.75 -2.706,3.41 -2.221,5.31 z m -3.65899,-23.91 c -10e-4,0.01 -0.002,0.01 -0.003,0.02 0.001,-0.01 0.002,-0.01 0.003,-0.02 z"
     id="path1906"
     style="stroke:none;stroke-width:0.175417" /><path
     d="m 517.09389,7833.8829 c 3.56799,-6.97 8.50798,-22.36 10.56697,-32.4 0.598,-2.91 1.189,-5.18 0.938,-6.28 -3.50599,-15.37 -8.95798,-29.65 -15.00396,-41.98 -8.14498,-16.62 -17.30996,-29.72 -24.30394,-37.1 -7.99298,-8.45 -18.67296,-12.71 -27.77694,-25.58 -5.59098,-7.91 -10.66197,-18.96 -14.10196,-36.05 -0.416,-1.89 0.781,-3.76 2.66999,-4.17 1.889,-0.42 3.76099,0.77 4.17599,2.67 3.71299,15.54 8.61698,25.54 13.98797,32.61 9.26597,12.2 19.85695,15.88 27.88493,23.83 7.72998,7.65 18.06095,21.28 27.31793,38.77 6.81798,12.88 13.01797,27.87 17.21996,44.06 0.484,1.87 0.428,5.69 -0.372,10.54 -1.515,9.19 -5.39899,23.14 -8.86998,32.15 -2.01399,5.22 -4.24199,8.97 -5.70498,10.4 -2.182,2.13 -4.49799,2.46 -6.25699,2.31 -1.546,-0.13 -2.86499,0.18 -3.87299,0.82 -0.846,0.54 -1.395,1.38 -1.495,2.28 0.26,0.08 0.566,0.18 0.809,0.24 1.08,0.29 2.301,0.43 3.58499,0.54 4.45999,0.38 9.57798,0.03 13.43697,-0.26 0.302,-0.02 0.494,-0.35 0.795,-0.58 0.848,-0.64 1.65799,-1.52 2.48299,-2.51 2.592,-3.13 5.01199,-7.42 7.21998,-11.92 4.30299,-8.78 7.65398,-18.43 9.06998,-23.23 1.457,-4.9 3.11399,-8.72 3.04999,-13.16 -0.047,-3.18 -1.16299,-6.64 -3.76799,-11.26 -9.70697,-17.4 -14.19796,-35.17 -15.87196,-52.9 -1.98999,-21.09 -0.016,-42.08 1.1,-62.15 1.138,-20.47 1.527,-39.9499 -5.25999,-57.4599 -9.57297,-24.95 -27.53593,-38.88 -48.70288,-46.32 -34.83991,-12.25 -78.0068,-7.6 -109.03373,-3.79 -1.91599,0.26 -3.68999,-1.07 -3.95899,-2.99 -0.27,-1.91 1.067,-3.69 2.982,-3.96 32.11492,-5.1 76.84481,-11.24 113.48972,0.29 24.66493,7.77 45.66888,23.41 57.58185,51.81 7.93298,19.11 8.46298,40.5199 7.65898,63.0899 -0.69,19.37 -2.30599,39.61 -0.183,59.92 1.634,15.64 5.49399,31.34 14.12397,46.65 4.29599,7.71 5.69698,13.61 5.73298,18.9 0.041,6.02 -1.85399,11.28 -3.90299,17.89 -2.25299,7.21 -8.63897,24.26 -16.16096,35.4 -5.36998,7.94 -11.86097,12.78 -17.49995,13.09 -6.15799,0.33 -14.95297,0.61 -21.06895,-0.96 -6.25498,-1.61 -10.27897,-5.15 -11.42797,-9.77 -1.485,-5.98 0.378,-12.37 5.07699,-16.64 2.88299,-2.63 6.81998,-4.55 11.64097,-4.84 z"
     id="path1908"
     style="stroke:none;stroke-width:0.175417" /><path
     d="m 354.77129,7721.3729 c -1.754,0.82 -3.84099,0.06 -4.65799,-1.7 -0.818,-1.75 -0.058,-3.83 1.695,-4.65 6.07198,-3.58 19.02595,-8.99 34.86691,-13.95 4.55899,-1.43 9.34898,-2.73 14.27196,-3.94 3.167,-0.77 6.37999,-1.53 9.63198,-2.1 8.26198,-1.45 16.61696,-2.36 24.52194,-2.93 15.74996,-1.14 29.53793,-0.74 37.68691,0.89 1.92299,0.2 3.31799,1.93 3.11299,3.85 -0.206,1.93 -1.934,3.32 -3.85799,3.12 -5.61099,-0.06 -13.70697,1.33 -23.27694,3.2 -5.87199,1.16 -12.16797,2.62 -18.76696,4.04 -6.14998,1.32 -12.46397,2.79 -18.79895,3.98 -7.79698,1.46 -15.54996,2.6 -22.78394,3.76 -14.95797,2.41 -27.52594,4.27 -33.64492,6.43 z"
     id="path1910"
     style="stroke:none;stroke-width:0.175417" /><path
     d="m 503.25692,7816.2829 c 1.002,-6.98 1.023,-13.13 0.295,-18.34 -0.835,-5.99 -2.73099,-10.54 -6.41098,-12.87 -7.88098,-5.43 -14.92397,-11 -21.00195,-16.84 -6.96498,-6.7 -12.78397,-13.57 -17.61296,-20.39 -12.98197,-18.35 -19.05195,-35.94 -21.71194,-48.63 -0.508,-1.86 0.59399,-3.79 2.46099,-4.3 1.867,-0.51 3.79499,0.6 4.30299,2.46 3.83199,11.38 11.61197,26.65 25.25894,42.38 4.99798,5.76 10.81297,11.52 17.49595,17.26 5.83799,5.01 12.30497,10.03 19.65395,14.75 5.84499,4.04 10.17298,10.52 11.85097,19.46 1.451,7.74 1.04,17.47 -1.60999,28.73 -0.452,1.88 -1.84,4.8 -5.99199,6.05 -1.63799,0.49 -4.28099,0.91 -7.19298,1.73 -2.41599,0.68 -5.16299,1.55 -7.27398,3.5 -1.965,1.82 -3.48499,4.41 -3.70799,8.36 -0.122,2.15 2.03399,3 4.32299,3.84 3.41599,1.27 7.50098,2 11.04197,2.53 1.928,0.17 3.35599,1.87 3.18799,3.8 -0.168,1.93 -1.86899,3.36 -3.79599,3.19 -6.20698,-0.17 -13.80996,-0.91 -18.55395,-3.57 -3.75099,-2.1 -5.84099,-5.39 -6.08899,-9.79 -0.419,-7.42 2.103,-12.53 5.41099,-16.31 3.74099,-4.28 11.53397,-5.48 15.67096,-7 z m 0.138,-0.06 c 1.873,-0.7 2.94699,-1.49 2.46199,-2.69 -0.70499,-1.75 -1.89699,0.93 -2.46199,2.69 z m -0.3,1.14 c -10e-4,0 -0.002,0.01 -0.003,0.01 10e-4,0 0.002,-0.01 0.003,-0.01 z"
     id="path1912"
     style="stroke:none;stroke-width:0.175417" /><path
     d="m 599.08168,7665.2729 c -8.25898,-9.27 -8.07198,-17.55 -5.54298,-22.62 3.81799,-7.67 14.88296,-11.5799 25.22993,-4.93 7.54699,4.94 12.91697,12.38 15.82497,21.34 3.52699,10.87 3.59899,23.96 0.046,36.53 -5.35999,18.97 -18.58596,36.74 -38.60691,43.65 -10.89597,3.71 -22.49594,3.63 -32.43592,0.75 -12.48497,-3.61 -22.26994,-11.41 -25.08894,-20.67 -0.62399,-1.83 0.356,-3.82 2.188,-4.44 1.83099,-0.63 3.82399,0.35 4.44799,2.18 2.63999,6.99 10.87497,12.06 20.67295,14.24 8.25298,1.83 17.71795,1.39 26.41693,-2.18 15.83996,-6.43 25.50994,-21.45 29.10593,-36.95 1.89199,-8.16 2.00899,-16.48 0.302,-23.84 -1.701,-7.33 -5.32499,-13.66 -11.29197,-17.31 -0.669,-0.42 -1.791,-0.98 -2.452,-1.09 0.162,-0.24 0.255,-0.51 0.069,-0.53 -0.401,-0.04 -0.514,0.16 -0.425,0.52 -0.142,0.04 -0.207,0.14 -0.161,0.33 0.03,0.12 0.141,0.08 0.266,-0.03 0.48,1.12 2.165,3.17 3.56799,4.71 1.793,2 3.60499,5.75 4.36399,10.88 1.244,8.4 0.393,21.46 -3.63999,32.35 -4.04199,10.92 -11.20097,19.52 -21.13595,21.53 -12.68896,2.49 -24.59994,-4.54 -33.83091,-21.39 -9.41898,-17.18 -16.69396,-44.92 -21.77095,-79.3099 -0.345,-1.91 0.92,-3.73 2.82299,-4.08 1.904,-0.34 3.729,0.92 4.07499,2.83 5.74099,26.5799 12.54597,48.8299 20.27095,64.7999 3.602,7.45 7.40599,13.43 11.43698,17.7 4.34899,4.61 8.88597,6.93 13.92296,5.68 5.28699,-1.29 8.00898,-6.83 9.98398,-12.76 2.41299,-7.25 3.08899,-15.63 2.58199,-21.97 -0.208,-2.59 0.022,-6.67 -1.18,-5.95 -0.016,0.01 -0.027,0.02 -0.034,0.03 z m 8.81598,-15.34 c -0.076,0.11 -0.166,0.22 -0.251,0.29 -0.047,-0.11 -0.082,-0.21 -0.105,-0.3 0.091,-0.02 0.213,-0.02 0.356,0.01 z m -8.81598,15.34 c 0.118,0.13 0.238,0.27 0.359,0.4 -0.101,-0.11 -0.421,-0.29 -0.359,-0.4 z"
     id="path1914"
     style="stroke:none;stroke-width:0.175417" /><path
     d="m 543.04682,7640.0029 c 10.88898,47.86 26.33194,77.24 46.21889,72.8 19.99695,-4.46 22.06394,-45.92 16.06196,-52.5 -12.35797,-13.55 -0.789,-22.27 9.23098,-15.93 26.94593,17.06 17.86995,75.43 -20.42595,89.81 -21.75895,8.17 -47.29089,-1.26 -52.30687,-15.99 -0.423,-27.22 3.64699,-53.91 1.22099,-78.19 z"
     id="path1916"
     style="stroke:none;stroke-width:0.175417" /><path
     d="m 440.19608,7698.2929 c 13.33896,-1.76 25.00294,-2.59 32.21892,-1.82 1.32799,1.22 2.66399,2.35 3.99499,3.41 1.26099,13.64 17.87795,44.45 31.03892,58.49 10.18098,10.86 17.99396,41.24 2.94799,56.07 2.705,-17.72 -0.498,-30.49 -8.83297,-36.03 -39.88191,-26.51 -55.83487,-59.79 -61.36785,-80.12 z"
     id="path1918"
     style="stroke:none;stroke-width:0.175417" /><path
     d="m 353.28929,7718.1929 c 3.052,-12.35 6.13099,-20.26 8.40998,-26.09 0,0 74.09982,-2.99 89.13278,4.96 -32.86392,3.22 -83.45779,14.57 -97.54276,21.13 z"
     id="path1920"
     style="stroke:none;stroke-width:0.175417" /><path
     d="m 244.27956,7620.583 c 3.69899,13.8899 18.55096,53.4099 35.69891,78.8799 -1.74299,7.49 -4.57798,26.68 -7.37498,47.85 -16.08096,-32.64 -27.88893,-106.72 -28.32393,-126.7299 z"
     id="path1922"
     style="stroke:none;stroke-width:0.175417" /><path
     d="m 252.45954,7848.5829 c 3.58899,-2.47 6.24199,-5.93 8.11898,-10.21 0,0 14.37797,-5.86 43.94789,-1.6 -2.03899,3.35 -3.32799,6.9 -2.36999,10.47 0.624,2.33 2.78099,3.88 5.80599,4.86 -39.34691,8.45 -55.50287,-3.52 -55.50287,-3.52 z"
     id="path1924"
     style="stroke:none;stroke-width:0.175417" /><path
     d="m 339.46033,7851.4229 c 0.667,-0.16 1.26399,-0.31 1.77999,-0.46 2.475,-0.7 3.50899,-4.01 3.79199,-9 8.95998,-2.67 71.05683,-7.2 142.86765,-8.2 -0.5,1.7 -0.782,3.64 -0.782,5.83 0,7.63 11.53997,9.13 20.00395,9.87 -0.243,1.34 -0.202,2.73 0.153,4.09 1.675,6.41 16.37796,5.7 25.12494,5.14 7.01998,-0.45 14.29896,-12.87 19.58995,-24.77 27.71593,0.56 55.02086,1.85 79.6118,4.14 18.70796,1.74 30.24293,21.81 2.326,21.35 -14.18897,-0.24 -182.74155,11.86 -210.42648,4.18 -27.68493,-7.67 -68.04483,-4.58 -84.04079,-12.17 z"
     id="path1926"
     style="stroke:none;stroke-width:0.175417" /></g>&#10;</svg>
