<?xml version="1.0" encoding="UTF-8" standalone="no"?>
<svg
   width="2320.3518"
   height="2798.1416"
   viewBox="0 0 2320.3518 2798.1416"
   version="1.1"
   xml:space="preserve"
   style="clip-rule:evenodd;fill-rule:evenodd;stroke-linejoin:round;stroke-miterlimit:2"
   id="svg5353"
   xmlns="http://www.w3.org/2000/svg"
   xmlns:svg="http://www.w3.org/2000/svg"><defs
   id="defs5353" />&#10;    <g
   id="vectorly-UNI-documents"
   style="stroke:none;stroke-width:0.2"
   transform="matrix(4.9999999,0,0,4.9999999,-12671.521,-36762.977)"><path
     d="m 2626.5947,7428.863 c -0.57,2.91 -0.34,8.58 -0.94,13.68 -3.82,32.85 -7.57,103.33 -10.26,173.87 -2.68,70.5499 -4.34,141.1499 -3.31,174.3299 0.2,6.61 0.49,11.68 0.93,14.89 0.03,0.25 0.07,0.52 0.12,0.78 1.92,0.58 6.47,1.86 10.89,2.57 14.1199,2.26 36.9299,4.12 63.1298,5.66 78.1498,4.57 186.2595,6.16 186.2595,6.16 1.94,0.01 3.5,1.59 3.49,3.53 -0.01,1.93 -1.59,3.49 -3.52,3.48 0,0 -135.9296,0.56 -213.4694,-4.02 -22.76,-1.34 -40.5999,-3.21 -48.8499,-5.54 -4.63,-1.31 -7.15,-3.44 -8.09,-4.95 -0.47,-0.76 -1.04,-2.14 -1.45,-4.18 -0.75,-3.75 -1.35,-11.32 -1.75,-21.85 -1.57,-41.37 -0.53,-130.39 2.21,-210.2199 2.06,-59.87 5.09,-114.58 8.28,-140.27 0.94,-7.59 2.02,-12.91 2.98,-15.51 0.75,-2.02 1.7,-3.33 2.45,-4.11 1.39,-1.45 4.63,-3.4 9.88,-4.69 10.7099,-2.65 33.3899,-4.87 60.2698,-6.36 40.6899,-2.25 91.1798,-3.03 123.2797,-2.32 16.82,0.38 28.8699,1.33 32.5499,2.48 2.57,0.8 6.05,2.7 10.03,5.66 7.48,5.55 17.51,15.08 27.6599,25.78 13.8,14.55 27.87,31.25 36.0699,42.58 4.76,6.57 7.57,11.76 8.08,14.2 0.79,3.75 -0.18,43.2 -2.04,92.74 -3.36,89.6299 -9.07,212.7999 -9.07,212.7999 -0.08,1.94 -1.6999,3.45 -3.6299,3.38 -1.94,-0.07 -3.45,-1.7 -3.38,-3.63 0,0 3.22,-123.22 4.92,-212.8599 0.9099,-47.94 1.5299,-86.11 0.7199,-89.72 -0.3199,-1.39 -2.2099,-3.93 -4.7599,-7.45 -6.41,-8.85 -17.43,-21.82 -29.06,-34.3 -9.6799,-10.37 -19.7899,-20.4 -28.0699,-27.37 -4.93,-4.16 -8.95,-7.24 -11.67,-8.06 -7.9099,-2.37 -57.6298,-2.01 -107.1297,-0.22 -33.0799,1.19 -66.0598,3.13 -86.7298,5.77 -7.66,0.98 -16.0499,3.05 -17.0199,3.29 z m 0.01,-0.07 c 0.18,-0.15 0.52,-0.44 0.64,-0.58 0.24,-0.24 1.6499,-1.02 0.96,-1.25 -0.84,-0.28 -1.31,0.45 -1.6,1.83 z"
     id="path2000"
     style="stroke:none;stroke-width:0.2" /><path
     d="m 2846.5641,7482.673 c 0.39,0.1 0.79,0.21 1.12,0.33 6.15,2.35 16.23,4.75 26.9799,6.96 16.52,3.4 34.36,6.48 42.7399,6.76 1.93,-0.08 3.56,1.43 3.64,3.36 0.08,1.93 -1.43,3.57 -3.36,3.64 -7.8399,0.9 -24.0099,1.04 -39.9899,-0.07 -9.6499,-0.67 -19.1599,-1.84 -26.6599,-3.35 -4.51,-0.92 -8.31,-2.06 -11.11,-3.21 -3.01,-1.24 -5.12,-2.74 -6.39,-4.06 -2.15,-2.26 -2.93,-4.69 -2.91,-6.97 0.12,-3.11 0.91,-15.45 2.4,-29.08 2.2,-20.14 5.61,-42.93 5.61,-42.93 0.11,-1.93 1.76,-3.42 3.69,-3.31 1.94,0.11 3.42,1.76 3.31,3.69 0,0 0.65,17.9 0.95,36.04 0.11,6.24 0.15,12.46 0.13,17.99 -0.03,5.87 -0.12,10.9 -0.15,14.21 z m -0.01,3.13 c 0,0.09 0,0.18 0.01,0.26 0,-0.07 -0.01,-0.16 -0.01,-0.26 z m -0.46,-3.26 c -0.29,-1.03 -0.73,-1.65 -1.34,-0.85 -0.3,0.39 0.43,0.62 1.34,0.85 z"
     id="path2002"
     style="stroke:none;stroke-width:0.2" /><path
     d="m 2681.5945,7528.833 c -1.93,0.02 -3.52,-1.53 -3.54,-3.47 -0.02,-1.93 1.53,-3.52 3.46,-3.54 0,0 7.88,-2.02 18.5,-3.72 2.38,-0.38 4.84,-0.67 7.41,-0.89 1.63,-0.13 3.2799,-0.27 4.9399,-0.25 4.26,0.07 8.46,0.54 12.37,1.02 10.64,1.33 18.58,3.11 18.58,3.11 1.93,-0.02 3.52,1.53 3.54,3.46 0.03,1.94 -1.53,3.53 -3.46,3.55 0,0 -7.9,1.97 -18.5,3.54 -3.9,0.58 -8.09,1.15 -12.34,1.31 -1.66,0.07 -3.3199,-0.03 -4.9499,-0.13 -2.57,-0.16 -5.04,-0.39 -7.43,-0.71 -10.65,-1.45 -18.58,-3.28 -18.58,-3.28 z"
     id="path2004"
     style="stroke:none;stroke-width:0.2" /><path
     d="m 2678.3368,7572.8066 c -1.9273,0.015 -3.5091,-1.5334 -3.5242,-3.4634 -0.043,-1.9399 1.5212,-3.5219 3.4487,-3.5466 0,0 23.0018,-2.2353 52.5137,-4.1202 6.7253,-0.4312 13.7888,-0.775 21.0209,-1.0501 4.6226,-0.1652 9.3021,-0.3408 14.0065,-0.3567 11.9873,-0.021 23.9662,0.3476 35.0375,0.7534 29.533,1.0752 52.593,2.7098 52.593,2.7098 1.9275,-0.025 3.5091,1.5334 3.5525,3.4633 0.015,1.93 -1.5496,3.5221 -3.477,3.5467 0,0 -23.0005,2.1753 -52.5098,3.9402 -11.066,0.6643 -23.0388,1.3255 -35.0027,1.5766 -4.7064,0.1058 -9.3807,0.041 -14.0267,-0.023 -7.2239,-0.1051 -14.2761,-0.2814 -21.0431,-0.5499 -29.5304,-1.1953 -52.5893,-2.8799 -52.5893,-2.8799 z"
     id="path2006"
     style="stroke:none;stroke-width:0.336718" /><path
     d="m 2678.3137,7628.0711 c -1.9187,0.02 -3.5148,-1.5316 -3.5325,-3.4717 -0.036,-1.9299 1.5177,-3.5182 3.4545,-3.5384 0,0 14.6083,-2.127 33.5207,-3.8967 4.2934,-0.4026 8.8031,-0.7164 13.4207,-0.9607 2.9516,-0.1455 5.9394,-0.3013 8.9439,-0.2971 7.6557,0.03 15.3077,0.4494 22.3801,0.9022 18.9384,1.2104 33.6005,2.9333 33.6005,2.9333 1.9368,-0.02 3.5148,1.5316 3.5326,3.4616 0.036,1.94 -1.5178,3.5283 -3.4546,3.5484 0,0 -14.6077,2.0671 -33.519,3.7167 -7.0646,0.6173 -14.6902,1.2275 -22.3481,1.4278 -3.0053,0.086 -5.9909,0 -8.9583,-0.083 -4.614,-0.1357 -9.1188,-0.342 -13.4417,-0.6392 -18.9553,-1.3303 -33.5988,-3.1033 -33.5988,-3.1033 z"
     id="path2008"
     style="stroke:none;stroke-width:0.269082" /><path
     d="m 2681.5976,7688.4255 c -1.9346,0.021 -3.5152,-1.5373 -3.5457,-3.4673 -0.02,-1.93 1.5312,-3.5212 3.4659,-3.5427 0,0 8.4561,-2.0364 19.7765,-3.735 2.5441,-0.3819 5.1844,-0.6739 7.9208,-0.896 1.7423,-0.1313 3.506,-0.2727 5.2802,-0.254 4.5532,0.066 9.042,0.5331 13.2207,1.01 11.3393,1.3114 19.8565,3.095 19.8565,3.095 1.9346,-0.022 3.5259,1.5273 3.5457,3.4673 0.02,1.93 -1.5312,3.5212 -3.4659,3.5427 0,0 -8.4774,1.9764 -19.7763,3.555 -4.169,0.5832 -8.6478,1.1566 -13.1905,1.32 -1.7744,0.071 -3.5486,-0.027 -5.2907,-0.126 -2.7361,-0.1579 -5.3866,-0.3859 -7.9409,-0.704 -11.3499,-1.4314 -19.8563,-3.265 -19.8563,-3.265 z"
     id="path2010"
     style="stroke:none;stroke-width:0.20677" /><path
     d="m 2681.5742,7738.2049 c -1.9241,0.014 -3.5188,-1.534 -3.5342,-3.4641 -0.015,-1.94 1.5341,-3.5217 3.4585,-3.546 0,0 21.9933,-2.2234 50.2118,-4.093 6.4305,-0.4278 13.1845,-0.768 20.0997,-1.0393 4.4201,-0.1629 8.8946,-0.3361 13.393,-0.3495 11.4623,-0.015 22.9168,0.3599 33.5035,0.7714 28.2402,1.0905 50.2911,2.7369 50.2911,2.7369 1.9244,-0.024 3.5189,1.534 3.5343,3.4641 0.015,1.93 -1.5341,3.5217 -3.4585,3.546 0,0 -21.9919,2.1534 -50.2081,3.913 -10.5811,0.6586 -22.0292,1.3136 -33.4691,1.5586 -4.5002,0.1034 -8.9698,0.037 -13.4124,-0.031 -6.9076,-0.1087 -13.6511,-0.2887 -20.1218,-0.5607 -28.2378,-1.2105 -50.2878,-2.9069 -50.2878,-2.9069 z"
     id="path2012"
     style="stroke:none;stroke-width:0.329262" /><path
     d="m 2938.8939,7753.9329 c 0.35,-1.16 1.32,-4.48 1.89,-7.85 3,-17.67 5.37,-55.77 7.54,-100.95 2.4,-50.0899 4.2699,-108.8299 5.9599,-158.1599 1.71,-49.62 3.2,-89.69 3.55,-101.7699 -2.55,-0.56 -6.52,-1 -10.1499,-1.74 -31.85,-6.46 -103.7398,-13.69 -160.1296,-17.93 -38.5599,-2.9 -69.7299,-4.67 -75.2299,-3.19 -0.23,0.3 -1.18,1.58 -1.63,2.65 -1.5499,3.6 -2.6799,8.83 -3.5399,14.49 -2.34,15.3599 -2.65,33.7299 -2.65,33.7299 0.01,1.94 -1.56,3.51 -3.49,3.51 -1.94,0.01 -3.51,-1.56 -3.52,-3.5 0,0 -0.45,-24.0099 2.34,-40.7199 1.05,-6.34 2.71,-11.68 4.76,-14.75 1.4,-2.08 3.11,-3.32 4.8599,-3.91 5.51,-1.87 40.9199,-1.59 83.9498,0.52 40.7599,2 88.4798,5.42 123.5397,9.36 22.28,2.49 39.5899,5.34 47.2399,7.95 3.26,1.11 5.37,2.49 6.51,3.57 2.2,2.1 2.84,4.43 2.85,6.5 0,3.89 -1.04,48.5599 -3.67,105.8599 -2.27,49.39 -5.77,108.17 -9.58,158.2699 -3.48,45.62 -7.43,84.04 -11.0799,101.79 -1.18,5.73 -2.47,9.55 -3.6,11.2 -0.92,1.36 -1.96,2.06 -2.86,2.36 -4.15,1.4 -8.82,2.12 -13.34,2.4 -10.21,0.62 -19.5899,-0.93 -19.5899,-0.93 -1.91,-0.28 -3.23,-2.06 -2.95,-3.98 0.28,-1.91 2.06,-3.24 3.98,-2.95 0,0 6.8699,0.86 14.9799,0.41 4.29,-0.24 8.95,-0.86 13.06,-2.24 z m 19.0199,-372.1498 c 0,-0.02 0,-0.03 0,-0.04 0,0.01 0,0.02 0,0.04 z m 0.55,3.57 c 0.43,1.61 1.09,2.84 1.94,1.57 0.45,-0.69 -0.38,-1.17 -1.94,-1.57 z"
     id="path2014"
     style="stroke:none;stroke-width:0.2" /><path
     d="m 2571.3748,7407.483 c 0.28,6.98 3.02,38.19 6.21,78.98 1.3,16.57 2.66,34.72 3.92,53.46 1.78,26.5 3.42,54.18 4.9,80.28 3.3199,58.5599 5.7299,109.1199 6.4799,120.4299 0.61,9.89 2.09,16.21 4.09,20.22 2.67,5.31 6.16,5.5 8.3,5.39 1.93,-0.15 3.62,1.3 3.76,3.23 0.15,1.93 -1.29,3.61 -3.22,3.76 -3.88,0.4 -10.37,0.66 -15.7,-8.72 -2.5599,-4.51 -4.8299,-11.69 -6.1299,-23.1 -1.23,-11.29 -6.42,-61.7 -11.66,-120.1799 -2.33,-26.05 -4.69,-53.69 -6.69,-80.18 -1.42,-18.74 -2.62,-36.91 -3.63,-53.51 -2.61,-43.04 -4.01,-75.61 -3.93,-80.81 0.06,-3.21 1.74,-6.91 6.35,-9.85 4.58,-2.92 13.01,-5.77 23.71,-8.1199 40.3199,-8.88 114.6597,-13.31 114.6597,-13.31 1.92,-0.16 3.62,1.27 3.78,3.2 0.16,1.93 -1.28,3.62 -3.21,3.78 0,0 -46.0299,4.94 -84.7798,12.1599 -17.67,3.29 -33.7799,7 -42.9799,11.06 -1.38,0.61 -3.22,1.25 -4.23,1.83 z m -0.02,0.01 c -0.65,0.37 -0.94,0.72 -0.53,1.01 0.39,0.27 0.5,-0.38 0.53,-1.01 z m 0,-0.68 c 0,-0.03 0,-0.06 0,-0.08 0,0.03 0,0.05 0,0.08 z"
     id="path2016"
     style="stroke:none;stroke-width:0.2" /><path
     d="m 2960.6338,7522.813 c -1.93,-0.06 -3.45,-1.68 -3.39,-3.62 0.06,-1.93 1.68,-3.45 3.62,-3.39 11.11,-0.04 19.9,1.35 26.06,5.53 6.6599,4.51 10.6099,12.29 10.8899,25.74 0.1,5.95 0.54,30.82 0.56,64.35 0.01,19.24 -0.06,41.3199 -0.45,64.2899 -0.17,10.17 -0.47,20.5 -0.82,30.84 -0.53,15.62 -1.19,31.22 -1.89,46.26 -2.9,62.88 -5.9499,115.6 -5.9499,115.6 -0.04,1.93 -1.65,3.47 -3.58,3.43 -1.94,-0.04 -3.47,-1.65 -3.43,-3.58 0,0 -0.64,-42.37 -0.86,-96.46 -0.08,-20.34 -0.11,-42.3 0.06,-64.3 0.06,-8.6 0.17,-17.2 0.36,-25.71 0.29,-13.2 0.72,-26.17 1.16,-38.55 0.49,-13.7499 1.04,-26.7599 1.57,-38.5399 1.37,-30.18 2.61,-52.22 2.85,-57.76 0.43,-9.31 -1.25,-15.09 -5.64,-18.52 -4.8,-3.77 -12.03,-4.99 -21.12,-5.61 z"
     id="path2018"
     style="stroke:none;stroke-width:0.2" /><path
     d="m 2550.1448,7864.1929 c 1.76,0.48 4.42,0.92 6.75,1.59 12.11,3.47 32.5399,7.66 56.5199,12.0399 17.8799,3.27 37.7199,6.64 57.5798,9.78 46.7799,7.4 93.6998,13.54 115.5198,13.72 3.5099,0.03 7.0699,-0.33 8.5899,-0.51 1.57,-4.08 3.45,-11.96 5.42,-21.11 5.18,-24.0599 10.57,-56.5799 10.57,-56.5799 0.28,-1.91 2.05,-3.24 3.97,-2.97 1.91,0.28 3.24,2.05 2.97,3.97 0,0 -4.01,32.96 -8.25,57.3799 -2.04,11.72 -4.26,21.53 -5.99,25.32 -0.52,1.15 -1.56,2.35 -3.38,3.27 -2.13,1.08 -6.9,1.91 -13.8099,2.08 -22.15,0.58 -70.0199,-3.84 -117.6997,-10.14 -20.1,-2.66 -40.16,-5.66 -58.2299,-8.74 -24.7199,-4.23 -45.7399,-8.6 -58.1899,-12.21 -6.6299,-1.92 -11.1699,-3.8799 -13.2599,-5.3699 -1.68,-1.2 -2.69,-2.47 -3.28,-3.54 -0.71,-1.29 -1.62,-4.48 -1.64,-9.45 -0.04,-9.35 1.71,-28.55 4.63,-52.79 3.98,-32.97 10.0399,-75.41 15.9799,-114.79 9.18,-60.85 18.12,-114.3699 18.12,-114.3699 0.27,-1.91 2.05,-3.24 3.97,-2.96 1.91,0.28 3.24,2.06 2.96,3.97 0,0 -14.56,116.3099 -23.46,201.0399 -3.58,34.16 -6.32,63.13 -6.47,77.06 -0.02,1.54 0.05,3.17 0.11,4.31 z m -0.61,-0.19 c -0.32,-0.75 -0.79,-1.84 -1.21,-1.23 -0.3599,0.51 0.18,0.89 1.21,1.23 z"
     id="path2020"
     style="stroke:none;stroke-width:0.2" /><path
     d="m 2807.3142,7871.8429 c -1.94,-0.06 -3.46,-1.68 -3.4,-3.62 0.06,-1.93 1.68,-3.45 3.62,-3.39 0,0 20.19,-1.32 46.0999,-2.05 5.92,-0.17 12.11,-0.23 18.4299,-0.22 4.06,0.01 8.17,0.02 12.27,0.19 10.49,0.45 20.95,1.29 30.6299,2.13 25.82,2.24 45.8899,4.77 45.8899,4.77 1.94,0.06 3.46,1.68 3.4,3.61 -0.06,1.94 -1.68,3.46 -3.62,3.4 0,0 -20.1899,1.2599 -46.0999,1.8799 -9.7099,0.22 -20.1999,0.41 -30.6999,0.2 -4.11,-0.09 -8.21,-0.33 -12.26,-0.58 -6.3099,-0.39 -12.4799,-0.8399 -18.3799,-1.3799 -25.8199,-2.35 -45.8799,-4.94 -45.8799,-4.94 z"
     id="path2022"
     style="stroke:none;stroke-width:0.2" /></g>&#10;</svg>
