<?xml version="1.0" encoding="UTF-8" standalone="no"?>
<svg
   width="2852.3232"
   height="2528.3545"
   viewBox="0 0 2852.3233 2528.3545"
   version="1.1"
   xml:space="preserve"
   style="clip-rule:evenodd;fill-rule:evenodd;stroke-linejoin:round;stroke-miterlimit:2"
   id="svg5353"
   xmlns="http://www.w3.org/2000/svg"
   xmlns:svg="http://www.w3.org/2000/svg"><defs
   id="defs5353" />&#10;    &#10;<g
   id="vectorly-UNI-hammer"
   style="stroke:none;stroke-width:0.2"
   transform="matrix(4.9999999,0,0,4.9999999,-8498.9346,-48920.704)"><path
     d="m 1703.2769,10284.912 c -1.93,0 -3.4999,-1.6 -3.4899,-3.5 0,-2 1.5699,-3.5 3.5099,-3.5 0,0 64.3499,-1.9 146.3897,-3.3 18.7799,-0.3 38.4799,-0.5 58.5498,-0.7 12.91,-0.1 25.97,-0.2 39.0399,-0.1 33.36,0.2 66.7199,0.8 97.5798,1.3 82.0298,1.6 146.3796,3.6 146.3796,3.6 1.93,0 3.5,1.6 3.5,3.5 0,2 -1.58,3.5 -3.51,3.5 0,0 -64.3598,1.8 -146.3896,3.1 -30.8699,0.5 -64.2298,0.9 -97.5898,1 -13.0599,0 -26.1199,-0.1 -39.0399,-0.3 -20.0699,-0.2 -39.7699,-0.5 -58.5498,-0.9 -82.0198,-1.6 -146.3797,-3.7 -146.3797,-3.7 z"
     id="path2710"
     style="stroke:none;stroke-width:0.2" /><path
     d="m 2058.5461,10094.712 c -1.86,0.5 -3.79,-0.6 -4.3,-2.4 -0.51,-1.9 0.59,-3.8 2.46,-4.3 0,0 6.19,-3.7 14.9199,-7.7 1.95,-0.9 3.99,-1.8 6.13,-2.5 1.37,-0.5 2.75,-1 4.18,-1.4 3.68,-0.9 7.39,-1.3 10.87,-1.7 9.52,-1.1 16.7199,-1.1 16.7199,-1.1 1.87,-0.6 3.8,0.5 4.3,2.4 0.51,1.9 -0.59,3.8 -2.45,4.3 0,0 -6.23,3.6 -14.9799,7.5 -3.2,1.5 -6.63,2.9 -10.25,4.1 -1.41,0.4 -2.86,0.7 -4.28,0.9 -2.25,0.4 -4.42,0.8 -6.55,1 -9.57,1 -16.7699,0.9 -16.7699,0.9 z"
     id="path2712"
     style="stroke:none;stroke-width:0.2" /><path
     d="m 2080.546,10084.512 c -0.19,-1.9 1.22,-3.7 3.14,-3.8 1.93,-0.2 3.65,1.2 3.84,3.1 0,0 4.45,25.3 7.79,59.4 0.75,7.5 1.36,15.6 1.83,23.8 0.3,5.3 0.56,10.6 0.63,16 0.15,13.3 -0.31,26.9 -1.22,40 -1.56,22.5 -4.69,43.5 -9.09,59.8 -0.4,1.9 -2.26,3.1 -4.16,2.7 -1.89,-0.4 -3.1,-2.3 -2.7,-4.2 1.69,-11.2 2.27,-24.5 2.41,-39 0.09,-10.1 -0.16,-20.7 -0.41,-31.4 -0.24,-10.5 -0.69,-21.1 -0.89,-31.5 -0.27,-13.2 -0.3,-26.1 -0.41,-37.9 -0.31,-32.8 -0.76,-57 -0.76,-57 z"
     id="path2714"
     style="stroke:none;stroke-width:0.2" /><path
     d="m 2138.1118,9857.2927 c -0.048,0.016 -0.069,0.031 -0.044,0.01 0.021,-0.016 0.037,-0.021 0.044,-0.01 z m 0,0 c 0.069,-0.031 0.1758,-0.084 0.2165,-0.053 0.08,0.036 0.117,-0.1359 0.1276,-0.2194 0.1742,-1.8888 -4.1017,0.7028 -6.2264,2.4968 -2.0362,1.7208 -4.1167,3.7495 -5.7949,6.4033 l -2.5977,4.6695 c -0.4837,1.8739 -2.3973,2.9945 -4.2702,2.5186 -1.8794,-0.4915 -3.0008,-2.4037 -2.5171,-4.2776 l 1.407,-6.5502 c 2.047,-6.6872 5.8009,-11.9018 9.749,-15.3118 5.2077,-4.5135 11.2633,-4.9179 16.2644,-3.1916 5.1248,1.9973 8.7976,7.1175 9.8015,14.1998 0.359,2.4981 0.3255,5.284 -0.2074,8.1701 -0.6298,3.4601 -1.8864,7.0886 -3.7864,10.6506 -3.6189,6.1846 -8.067,11.0825 -12.7956,13.5812 -5.4507,2.876 -10.7218,3.55 -14.7532,1.0546 -1.3549,-0.8578 -2.6356,-1.7575 -3.5416,-3.1171 -1.0763,-1.5888 -2.0024,-3.3866 -2.3297,-5.5927 -0.5671,-1.8611 0.489,-3.8145 2.3381,-4.3716 1.8491,-0.557 3.8063,0.4874 4.3734,2.3485 0.3698,0.787 0.9335,1.3596 1.4792,1.9114 0.3743,0.3852 0.9238,0.4467 1.4351,0.5916 0.6479,0.2073 1.2459,-0.2896 1.9383,-0.5415 1.3734,-0.5091 2.4692,-1.8261 3.7408,-3.227 1.9915,-2.1954 3.5024,-5.2662 4.6971,-8.7589 0.7372,-1.9475 1.0663,-3.9045 1.3705,-5.7467 0.355,-2.1345 0.4572,-4.1067 0.1651,-5.8172 -0.086,-0.5058 -0.082,-0.9962 -0.2604,-1.4184 -0.046,-0.1094 0.013,-0.36 -0.023,-0.4016 z"
     id="path2716"
     style="stroke:none;stroke-width:0.239668" /><path
     d="m 2126.2459,9891.302 -2.56,-5.9 c 1.33,-1.41 3.54,-1.48 4.96,-0.16 1.41,1.32 1.49,3.54 0.16,4.95 0,0 -0.74,1.44 -6.04,3 -1.58,0.46 -3.49,0.48 -6.54,0.4 -1.84,-0.05 -3.88,-0.37 -6.41,-1.06 -1.35,-0.37 -2.8,-0.89 -4.27,-1.71 -1.2399,-0.68 -2.4299,-1.57 -3.6799,-2.63 -1.32,-1.12 -2.56,-2.27 -3.92,-3.74 -1.78,-1.91 -3.3,-3.78 -5.24,-6.2 -1.63,-1.05 -2.09,-3.22 -1.05,-4.84 1.05,-1.63 3.22,-2.1 4.85,-1.05 4.07,1.1 7.25,1.53 10.4099,2.43 2.41,0.69 4.51,1.22 6.31,2.03 1.45,0.65 2.58,1.51 3.65,2.19 1.41,0.89 2.35,1.79 3.36,2.45 2.17,1.4 2.92,2.58 3.86,2.78 0.28,0.07 0.16,0.67 0.15,0.55 -0.04,-0.28 -0.25,0.35 -0.34,0.38 -4.39,1.6 2.34,6.13 2.34,6.13 z"
     id="path2718"
     style="stroke:none;stroke-width:0.2" /><path
     d="m 1938.8464,9992.412 c -0.87,1.8 -2.98,2.5 -4.71,1.6 -1.73,-0.9 -2.43,-3 -1.56,-4.7 3.07,-6.9 19.2699,-30 40.3899,-55.24 9.41,-11.25 19.7799,-22.91 30.3899,-33.67 9.41,-9.56 18.99,-18.44 28.1299,-25.75 12.95,-10.34 25.14,-17.54 34.4999,-20.26 6.99,-1.96 12.25,-2.37 17.03,-1.42 2.88,0.56 5.61,1.57 8.43,3.07 1.58,-3.19 3.71,-6.63 6.24,-9.82 5.05,-6.34 11.3799,-11.66 16.6699,-12.69 3.28,-0.64 7.32,0.03 11.39,1.85 8.79,3.94 18.05,12.48 18.05,12.48 1.4699,1.26 1.6499,3.47 0.39,4.94 -1.25,1.47 -3.47,1.65 -4.94,0.39 0,0 -7.07,-5.45 -14.34,-8.64 -3.02,-1.32 -6.03,-2.36 -8.33,-1.71 -3.48,0.98 -6.94,5.39 -9.98,9.91 -3.2399,4.8 -5.8499,10.02 -5.7999,12.76 -0.05,2.26 -1.33,4.32 -3.34,5.36 -2.01,1.04 -4.43,0.9 -6.31,-0.36 -3.81,-2.38 -6.88,-3.92 -10.28,-4.36 -3.05,-0.4 -6.3,0.31 -10.62,1.81 -7.9499,2.69 -17.7399,9.92 -28.7499,19.01 -8.68,7.17 -17.9999,15.55 -27.3599,24.42 -10.75,10.19 -21.6,20.95 -31.5999,31.3 -22.13,22.92 -40.1499,43.42 -43.6899,49.72 z"
     id="path2720"
     style="stroke:none;stroke-width:0.2" /><path
     d="m 2094.176,9828.7821 c 1.07,0.7199 4.48,2.9599 7.07,4.1999 5.0499,2.42 10.2799,4.44 10.2799,4.44 1.84,0.61 2.84,2.59 2.23,4.43 -0.61,1.84 -2.59,2.83 -4.43,2.22 0,0 -11.7299,-3.35 -18.0299,-6.55 -3.15,-1.61 -5.01,-3.71 -5.61,-5.12 -0.88,-2.1 -0.86,-12.4099 -7.22,-20.9599 -3.2,-4.31 -8.33,-7.92 -16.3799,-9.54 -15.77,-3.42 -33.44,-3.6 -53.2499,-1.01 -10.08,1.32 -20.7,3.35 -31.9299,6.16 -8.69,2.17 -17.76,4.75 -27.18,7.87 4.66,-1.05 9.68,-2.1 14.53,-2.99 10.08,-1.86 19.4199,-3.08 23.5299,-2.63 1.92,0.13 3.39,1.8 3.26,3.73 -0.13,1.93 -1.81,3.39 -3.73,3.27 -3.75,-0.09 -12.0799,1.93 -21.0699,4.38 -13.23,3.6 -27.7599,8.3599 -31.2899,10.0799 -7.32,3.55 -15.05,-1.63 -16.93,-7.4099 -1.45,-4.46 -0.28,-9.77 6.74,-13.09 16.47,-7.61 32.0099,-13.65 46.7399,-17.93 7.22,-2.1 14.2499,-3.78 21.0799,-5.03 12.82,-2.35 24.92,-3.32 36.2499,-3.14 13.12,0.21 25.2,2.03 36.3199,5.08 11.49,3.27 18.39,9.28 22.53,15.91 3.85,6.16 5.4,12.72 6.03,17.8 0.33,2.63 0.3,4.73 0.46,5.83 z"
     id="path2722"
     style="stroke:none;stroke-width:0.2" /><path
     d="m 1761.1468,10241.512 c 0.14,-0.3 0.27,-0.7 0.4,-0.9 0.8,-1.5 1.51,-3.2 2.23,-5.2 3.89,-10.9 7.99,-26.7 19.2299,-38 6,-6.1 15.6,-11.5 22.47,-17.2 1.52,-1.3 2.9,-2.6 3.96,-3.9 2.29,-3 3.23,-6.6 4.26,-10.2 0.99,-3.4 1.98,-6.7 3.49,-9.6 1.24,-2.4 2.77,-4.5 4.8,-6.3 4.6799,-4 11.4799,-7.4 16.7399,-11.7 1.76,-1.4 3.35,-2.9 4.38,-4.7 2.84,-4.9 3.51,-11.5 6.47,-19.1 1.66,-4.2 3.9,-8.7 7.33,-13.5 l 66.8898,-95.5 c 0.66,-0.9 0.47,-1.9 0.07,-2.9 -0.61,-1.6 -1.75,-3.3 -3.09,-4.8 -3.13,-3.6 -7.31,-6.9 -9.78,-8.3 -1.68,-1 -2.27,-3.1 -1.31,-4.8 0.96,-1.7 3.11,-2.3 4.79,-1.3 4.18,2.3 12.32,8.6 15.68,14.7 2.32,4.3 2.48,8.6 -0.17,12.1 l -64.2299,97 c -2.71,4 -4.4499,7.8 -5.7199,11.3 -3.01,8.3 -3.77,15.4 -6.73,20.8 -1.65,3.1 -4.12,5.8 -7.02,8.2 -5.04,4.2 -11.62,7.7 -16.1,11.7 -1.92,1.8 -2.67,4.4 -3.45,7 -1.1,3.8 -1.97,7.7 -3.48,11.4 -0.92,2.3 -2.0699,4.4 -3.5399,6.3 -1.54,2.1 -3.49,4.1 -5.7,6 -6.46,5.7 -15.61,10.9 -21.23,16.8 -8.11,8.5 -11.2099,19.9 -13.9999,28.8 -2.36,7.6 -4.85,13.6 -8.04,16.8 -2.13,2.1 -4.6,3.3 -7.4,3.7 -3.45,0.5 -7.9,-0.3 -13.44,-4.2 -15.7899,-11 -33.9799,-23.5 -40.3599,-36.8 -4.37,-9.1 -4.35,-18.6 3.04,-28.6 28.73,-38.4 54.7499,-70.8 78.7998,-98.6 38.5399,-44.7 71.6398,-78 100.7898,-107.3 37.7999,-37.86 69.0998,-68.62 97.6297,-108.1 12.93,-17.81 19.02,-31.15 21.05,-41.08 3.26,-15.9699 -4.33,-21.8299 -7.97,-22.0799 -1.93,-0.1 -3.42,-1.75 -3.32,-3.68 0.1,-1.93 1.75,-3.42 3.69,-3.32 4.65,0.18 15.65,5.33 16.12,21.77 0.31,11.1999 -4.59,28.3799 -21.91,53.7799 -27.8499,40.66 -58.5098,72.75 -95.9297,111.91 -28.35,29.6 -60.4799,63.4 -98.3598,108.1 -23.5899,27.9 -49.5499,59.9 -77.9898,98 -4.62,6.1 -2.85,11.9 1.34,17.4 7.26,9.5 20.4599,18.3 31.9099,26.5 0.88,0.6 2.11,1.3 2.71,1.6 z m -0.11,0.2 c -0.3,0.1 -0.62,0.2 -0.48,0.3 0.16,0.2 0.32,0 0.48,-0.3 z"
     id="path2724"
     style="stroke:none;stroke-width:0.2" /><path
     d="m 1921.0364,10013.812 c 1.91,0.3 3.22,2.1 2.92,4 -0.29,1.9 -2.09,3.2 -4,2.9 -4.09,-0.4 -8.72,-0.6 -13.12,0.3 -3.7,0.7 -7.1799,2.2 -9.8599,5.2 -1.57,1.8 -10.41,13.8 -23.41,31.1 -6.92,9.2 -14.9699,19.9 -23.7299,31.4 -5.14,6.7 -10.5,13.7 -16.06,20.7 -5.35,6.8 -10.85,13.6 -16.4299,20.4 -11.39,13.9 -22.97,27.6 -33.73,40.2 -28.6099,33.6 -51.4198,59.6 -51.4198,59.6 -1.2,1.6 -3.41,1.8 -4.92,0.6 -1.52,-1.2 -1.77,-3.4 -0.56,-4.9 0,0 20.2099,-28.1 46.6199,-63.5 9.9299,-13.3 20.6999,-27.6 31.7099,-41.8 5.39,-6.9 10.88,-13.8 16.32,-20.5 5.6499,-7 11.2799,-13.8 16.7199,-20.2 9.28,-11.1 18,-21.3 25.5499,-30 14.52,-16.8 24.73,-28.1 26.47,-29.8 3.6,-3.3 7.79,-5.4 12.29,-6.3 6.2199,-1.2 12.9199,-0.5 18.6399,0.6 z"
     id="path2726"
     style="stroke:none;stroke-width:0.2" /><path
     d="m 1944.4771,9844.6722 c -0.01,0.6712 0.019,1.3308 0.097,1.8675 6.2543,-1.999 23.8749,-8.1967 40.2529,-12.6873 12.5077,-3.4372 24.2387,-5.8325 30.0095,-5.393 1.9336,0.019 3.4982,1.5997 3.489,3.5328 -0.019,1.9336 -1.6002,3.4882 -3.5333,3.4791 -4.1722,0.258 -11.4263,2.86 -19.7481,6.1086 -7.5371,2.9372 -15.7702,6.5416 -23.3095,9.8194 -11.27,4.8946 -20.8636,9.1008 -23.6896,10.2098 -5.6482,2.0975 -9.9306,0.4387 -13.2306,-2.5432 -2.1232,-1.9219 -3.7566,-4.8206 -4.7677,-8.0723 -1.1443,-3.6953 -1.4228,-7.8764 -1.3209,-10.5254 0.085,-1.8169 0.7835,-4.9376 4.4199,-7.4006 2.3884,-1.6268 8.0484,-4.0754 15.6177,-6.3935 7.2929,-2.2435 16.4517,-4.6146 25.7365,-6.6818 15.8972,-3.5342 31.9797,-6.2068 39.2441,-6.8867 1.9059,-0.3199 3.716,0.9774 4.0259,2.8838 0.3199,1.9059 -0.9675,3.7156 -2.8839,4.026 -7.6354,1.8208 -25.1235,7.8714 -41.5115,13.7043 -10.539,3.7449 -20.5418,7.4018 -26.8242,10.2033 -0.646,0.2841 -1.3846,0.523 -2.0737,0.7492 z m 0.2056,2.4026 c 0.1937,0.6407 0.5305,0.9536 1.1035,0.6132 0.3885,-0.2306 -0.6847,-0.4549 -1.1035,-0.6132 z m -1.5178,-0.111 c -0.03,0.012 -0.059,0.023 -0.088,0.035 0.03,-0.012 0.059,-0.023 0.088,-0.035 z m 0.9479,-2.1724 c -1.2306,0.4047 -2.1626,0.7739 -1.8059,1.2759 0.841,1.1477 1.4296,0.1457 1.8059,-1.2759 z m 0.5174,-3.3215 c 0.012,-0.1608 0.025,-0.2917 0.03,-0.3921 0,0.1104 -0.017,0.2412 -0.03,0.3921 z"
     id="path2728"
     style="stroke:none;stroke-width:0.2" /><path
     d="m 2190.8557,9825.5121 c -1.78,0.77 -3.84,-0.05 -4.6,-1.83 -0.77,-1.78 0.05,-3.84 1.83,-4.6 0,0 8.43,-5.74 19.96,-12.4 2.6,-1.5 5.35,-2.97 8.22,-4.4 1.83,-0.92 3.69,-1.85 5.61,-2.63 4.9399,-1.99 9.9799,-3.6 14.6899,-5.05 12.69,-3.89 22.65,-6.12 22.65,-6.12 1.78,-0.76 3.84,0.06 4.6,1.84 0.77,1.77 -0.05,3.84 -1.83,4.6 0,0 -8.47,5.7 -20.03,12.23 -4.28,2.43 -8.92,4.98 -13.76,7.19 -1.89,0.86 -3.8399,1.57 -5.7699,2.27 -3.01,1.1 -5.97,2.09 -8.85,2.94 -12.75,3.79 -22.72,5.96 -22.72,5.96 z"
     id="path2730"
     style="stroke:none;stroke-width:0.2" /><path
     d="m 2192.0557,9901.922 c -1.78,-0.76 -2.62,-2.82 -1.86,-4.6 0.76,-1.78 2.82,-2.61 4.6,-1.85 0,0 10.25,2.25 23.37,6.13 2.96,0.87 6,1.89 9.1099,3.01 1.98,0.71 3.99,1.44 5.94,2.31 4.99,2.25 9.78,4.84 14.21,7.31 11.92,6.63 20.6899,12.41 20.6899,12.41 1.78,0.76 2.61,2.82 1.86,4.6 -0.76,1.78 -2.82,2.61 -4.5999,1.85 0,0 -10.24,-2.3 -23.3,-6.29 -4.84,-1.48 -10.03,-3.13 -15.12,-5.16 -1.9799,-0.8 -3.8999,-1.74 -5.7899,-2.67 -2.96,-1.46 -5.8,-2.95 -8.49,-4.48 -11.89,-6.75 -20.62,-12.57 -20.62,-12.57 z"
     id="path2732"
     style="stroke:none;stroke-width:0.2" /><path
     d="m 2160.6858,9943.722 c -1.1,-1.59 -0.71,-3.78 0.88,-4.88 1.59,-1.1 3.78,-0.71 4.88,0.88 0,0 5.34,4.34 11.84,10.92 1.43,1.47 2.83,3.07 4.23,4.67 0.89,1.1 1.79,2.2 2.55,3.4 1.9699,3 3.5599,6.2 5.0099,9.2 3.98,8.3 6.23,14.8 6.23,14.8 1.1,1.6 0.71,3.8 -0.88,4.9 -1.59,1.1 -3.78,0.7 -4.88,-0.9 0,0 -5.32,-4.3 -11.6899,-11 -2.33,-2.4 -4.77,-5 -6.93,-7.9 -0.84,-1.1 -1.54,-2.4 -2.23,-3.6 -1.09,-1.9 -2.07,-3.7 -2.93,-5.6 -3.88,-8.37 -6.08,-14.89 -6.08,-14.89 z"
     id="path2734"
     style="stroke:none;stroke-width:0.2" /><path
     style="fill:#000000;stroke:none;stroke-width:0.2;stroke-linecap:round;stroke-linejoin:round"
     d="m 1735.1502,10221.444 c 0,0 158.3332,-202.482 160.3038,-203.139 1.9707,-0.656 24.8178,-0.305 24.8178,-0.305 0,0 -48.4271,72.691 -67.3046,102.221 -17.2979,27.059 -22.2006,29.255 -29.034,35.137 -6.8335,5.882 10.601,23.096 -14.7341,33.892 -25.3351,10.795 -38.3545,46.611 -38.3545,46.611 l -5.6134,15.86 -36.2249,-25.417 z"
     id="path131" /></g></svg>
