<?xml version="1.0" encoding="UTF-8" standalone="no"?>
<svg
   width="3306.8113"
   height="2194.8137"
   viewBox="0 0 3306.8113 2194.8137"
   version="1.1"
   xml:space="preserve"
   style="clip-rule:evenodd;fill-rule:evenodd;stroke-linejoin:round;stroke-miterlimit:2"
   id="svg5353"
   xmlns="http://www.w3.org/2000/svg"
   xmlns:svg="http://www.w3.org/2000/svg"><defs
   id="defs5353" />&#10;    &#10;<g
   id="vectorly-UNI-mountain"
   transform="matrix(4.9999999,0,0,4.9999999,-12234.075,-57403.989)"
   style="stroke-width:0.2"><path
     d="m 2477.745,11902.611 c 2.79,0 6.11,0 9.89,-0.1 21.8299,-0.5 58.1099,-2.6 92.8598,-4.7 46.1999,-2.9 89.6897,-5.9 92.9997,-6.1 4.48,-0.3 6.39,1.9 7.21,2.9 1.08,1.3 1.63,2.8 1.75,4.4 0.05,0.9 -0.02,2 -0.49,3.2 3.91,0.2 9.13,0.1 16.03,-0.3 12.5899,-0.5 25.5399,-1.1 38.1699,-1.5 39.8699,-1.1 76.5398,-1.4 88.4198,-2.5 5.8299,-0.5 8.4699,0.9 9.8099,1.9 1.32,1 2.26,3.1 2.86,4.8 0.38,0.1 0.8,0.2 1.2,0.2 5.59,0.8 15.98,0.7 35.3499,-1.2 20.63,-1.9 37.11,-3.1 50.3799,-3.9 28.4999,-1.7 42.0399,-1.4 50.0099,-2.3 4.9,-0.5 7.07,1.1 8.09,2.3 1.22,1.5 1.88,3.5 1.42,5.9 -0.08,0.4 -0.28,1.2 -0.45,1.8 0.33,0.2 0.71,0.3 1.05,0.3 2.99,0.7 7.5899,0.8 14.6199,0.4 l 83.0398,-4.4 c 1.93,-0.1 3.6,1.4 3.73,3.3 0.13,1.9 -1.34,3.6 -3.27,3.7 l -82.7498,7.3 c -12.6799,1.2 -19.0499,0 -22.1499,-1.5 -3.53,-1.7 -4.61,-5.1 -4.83,-7.9 -8.35,0.9 -22.0099,1.3 -47.5899,3.6 -13.13,1.1 -29.4399,2.7 -49.8299,5.2 -21.1499,2.5 -32.5299,2.7 -38.6699,2 -6.5899,-0.7 -9.3699,-3 -10.8299,-4.6 -0.46,-0.5 -0.85,-1.1 -1.17,-1.8 -7.03,0.6 -20.38,1.3 -37.1699,1.8 -25.11,0.9 -58.0199,1.5 -88.7898,2.8 -15.28,0.6 -23.72,-0.2 -28.05,-1.4 -6.4199,-1.7 -8.3399,-5.2 -8.9799,-7.7 -0.11,-0.4 -0.19,-0.8 -0.25,-1.2 -16.87,0.8 -47.8999,2.2 -80.2598,3.3 -34.9799,1.1 -71.4899,1.9 -93.4398,1.6 -9.5,-0.1 -16.38,-0.5 -19.44,-1.1 -5.8599,-1.2 -5.7199,-5.7 -4.8599,-7.3 0.69,-1.4 2.31,-3.2 4.8399,-5.1 4.25,-3.2 11.34,-7.2 18.9,-10.2 10.12,-4 21.0299,-6.3 27.3999,-3.9 1.83,0.6 2.78,2.6 2.14,4.5 -0.64,1.8 -2.65,2.7 -4.47,2.1 -4.25,-1.4 -10.8099,0.3 -17.4499,2.8 -6.16,2.3 -12.34,5.6 -16.98,8.6 z m 196.4395,4.1 c 0.02,0 0.04,0 0.06,0 -0.01,0 -0.03,0 -0.06,0 z"
     id="path3280"
     style="stroke:none;stroke-width:0.2" /><path
     d="m 3068.0136,11907.311 c 0.6,1.9 -0.4,3.8 -2.24,4.4 -1.84,0.6 -3.82,-0.4 -4.42,-2.2 -2.86,-7.8 -13.43,-14.3 -24.96,-15.7 -9.2199,-1 -19.1999,1.6 -26.5599,10.4 -1.97,2.3 -5.3,2.7 -7.78,1 -2.48,-1.6 -3.35,-4.9 -2.03,-7.5 17.32,-37.1 3.04,-63.4 -22.0699,-76.2 -11.19,-5.6 -24.34,-8.8 -37.9099,-9.1 -40.1999,-0.8 -83.2698,23.8 -86.4498,83.7 -0.04,1.9 -1.65,3.5 -3.59,3.4 -1.93,0 -3.46,-1.6 -3.41,-3.6 -0.33,-45.2 21.27,-73.6 48.8999,-87.9 13.87,-7.1 29.3699,-10.6 44.5799,-10.8 16.1099,-0.2 31.9699,3.2 45.1799,10.1 27.0099,14.1 43.9499,41.6 32.7199,78.1 6.58,-2.1 13.4,-2.3 19.8799,-1.1 14.68,2.8 27.23,12.8 30.16,23 z"
     id="path3282"
     style="stroke:none;stroke-width:0.2" /><path
     d="m 3035.9536,11802.811 c -1.94,0.1 -3.58,-1.4 -3.67,-3.3 -0.09,-2 1.41,-3.6 3.34,-3.7 0,0 8.77,-2.4 20.5,-4.5 2.64,-0.4 5.39,-0.8 8.23,-1.2 1.81,-0.2 3.65,-0.4 5.5,-0.4 4.7499,-0.1 9.4499,0.2 13.8299,0.5 11.86,0.9 20.82,2.4 20.82,2.4 1.93,-0.1 3.58,1.4 3.67,3.3 0.09,2 -1.41,3.6 -3.34,3.7 0,0 -8.79,2.3 -20.51,4.3 -4.33,0.7 -8.99,1.4 -13.7199,1.8 -1.85,0.1 -3.7,0.1 -5.52,0 -2.87,0 -5.64,-0.1 -8.31,-0.4 -11.87,-1 -20.82,-2.5 -20.82,-2.5 z"
     id="path3284"
     style="stroke:none;stroke-width:0.2" /><path
     d="m 2824.9242,11805.111 c -1.93,0.1 -3.58,-1.4 -3.67,-3.3 -0.09,-1.9 1.41,-3.6 3.34,-3.7 0,0 15.1799,-2.7 34.8599,-5.1 4.48,-0.6 9.17,-1.1 13.9699,-1.5 3.08,-0.3 6.2,-0.5 9.33,-0.6 8.01,-0.3 16,-0.2 23.41,0 19.8099,0.5 35.1799,1.7 35.1799,1.7 1.93,-0.1 3.58,1.4 3.67,3.3 0.09,1.9 -1.41,3.6 -3.34,3.7 0,0 -15.19,2.6 -34.8699,5 -7.35,0.9 -15.29,1.7 -23.29,2.2 -3.12,0.2 -6.26,0.3 -9.35,0.3 -4.8199,0 -9.5399,0 -14.0499,-0.1 -19.83,-0.6 -35.1899,-1.9 -35.1899,-1.9 z"
     id="path3286"
     style="stroke:none;stroke-width:0.2" /><path
     d="m 2834.5541,11838.411 c 0.8,1.7 0.03,3.8 -1.73,4.6 -1.76,0.8 -3.8399,0.1 -4.6399,-1.7 -10.81,-21.2 -26.67,-35.1 -44.2199,-42.5 -12.71,-5.4 -26.31,-7.2 -39.5899,-5.8 -13.17,1.3 -25.91,6 -37.2199,13.6 -15.58,10.4 -28.55,26.4 -34.95,48.4 -0.63,2.3 -2.53,4.1 -4.8999,4.5 -2.38,0.5 -4.81,-0.4 -6.27,-2.4 -9.22,-13.3 -18.68,-22.3 -29.13,-25 -7.5999,-1.9 -15.5599,-0.5 -24.0299,4.9 -1.6,1.1 -3.78,0.7 -4.88,-0.9 -1.1,-1.6 -0.7,-3.8 0.89,-4.9 10.15,-7.7 20.18,-10 29.9799,-8.3 9.95,1.8 19.73,7.9 29.36,17.7 7.1799,-20.6 19.6299,-36.5 34.9699,-47.2 13.4199,-9.3 29.0699,-14.5 44.9199,-15.5 15.6999,-1 31.6999,2 46.1899,9.5 18.8699,9.6 35.2799,26.5 45.2498,51 z"
     id="path3288"
     style="stroke:none;stroke-width:0.2" /><path
     d="m 2598.5447,11850.011 c 1.84,0.6 2.85,2.6 2.26,4.4 -0.59,1.8 -2.56,2.9 -4.4,2.3 -7.55,-1.5 -14.4199,-2.1 -20.8899,-2.6 -4.8,-0.3 -9.23,-0.3 -13.43,-0.1 -3.76,0.1 -7.24,0.5 -10.53,1 -3.48,0.6 -6.7099,1.2 -9.7099,2.3 -5.3,1.9 -9.94,4.6 -13.78,8.7 -3.79,4.2 -7.11,9.1 -9.63,15.4 -0.5,1.9 -2.43,3 -4.29,2.5 -1.87,-0.5 -2.99,-2.4 -2.49,-4.3 1.78,-11.8 6.18,-21 12.71,-27.9 3.24,-3.5 7.13,-6.2 11.51,-8.4 3.98,-1.9 8.44,-3.4 13.3099,-4.1 4.16,-0.6 8.63,-0.6 13.36,-0.2 4.79,0.5 9.82,1.4 15.12,2.9 6.62,2 13.4699,4.7 20.8799,8.1 z"
     id="path3290"
     style="stroke:none;stroke-width:0.2" /><path
     d="m 2484.715,11786.511 c -0.75,1.8 -2.81,2.6 -4.59,1.9 -1.78,-0.8 -2.63,-2.8 -1.88,-4.6 5.32,-14 13.93,-22.6 25.24,-26.3 5.6299,-1.8 11.9999,-2.3 19.0899,-1.6 -17.1899,-24.8 -8.44,-46.3 9.23,-55.4 10.33,-5.3 24.4799,-6.5 39.5799,-1.4 8.3,2.8 16.89,7.6 25.2599,14.7 14.9,-15.9 33.4599,-18.5 48.7499,-12.6 15.11,5.8 27.2099,20 29.1399,37.9 3.5,-1.4 7.02,-2 10.56,-1.6 5.4,0.6 11.05,3.3 16.64,9.4 8.3899,-0.5 15.5099,0.6 20.8299,3.7 6.55,3.8 10.86,10.4 11.21,21.3 0.12,2 -1.34,3.6 -3.27,3.8 -1.93,0.1 -3.6,-1.4 -3.73,-3.3 -0.73,-7.5 -3.55,-12.1 -8.2,-14.4 -4.71,-2.4 -10.9999,-2.4 -18.3299,-1.3 -1.56,0.1 -3.12,-0.5 -4.17,-1.6 -4.18,-4.5 -8.05,-6.7 -11.86,-6.9 -4.16,-0.2 -7.92,2.2 -11.74,5.8 -1.81,1.6 -4.4299,2 -6.5799,0.9 -2.16,-1.1 -3.41,-3.5 -3.17,-5.9 1.3,-16.6 -8.98,-29.9 -22.2,-34.4 -11.9899,-4.1 -26.2799,-0.2 -36.4799,15.3 -1.34,1.9 -3.48,3.2 -5.85,3.4 -2.37,0.2 -4.7,-0.6 -6.38,-2.3 -8.3699,-8.5 -17.1899,-14 -25.6199,-17 -10.57,-3.8 -20.4699,-3.7 -27.8799,-0.2 -14.62,6.8 -16.87,25.5 3.82,47.3 1.88,1.9 2.2,4.8 0.78,7.1 -1.43,2.2 -4.22,3.2 -6.73,2.3 -11.72,-4.6 -21.73,-6.1 -30.1099,-4 -9.26,2.4 -16.33,9 -21.36,20 z"
     id="path3292"
     style="stroke:none;stroke-width:0.2" /><path
     d="m 2450.3151,11808.311 c -1.93,0 -3.5,-1.6 -3.5,-3.5 0,-2 1.57,-3.5 3.5,-3.5 0,0 9.11,-2 21.2099,-3.5 2.72,-0.4 5.55,-0.6 8.48,-0.8 1.87,-0.1 3.76,-0.3 5.66,-0.2 4.86,0.1 9.66,0.6 14.14,1.2 12.0799,1.4 21.1999,3.3 21.1999,3.3 1.94,0 3.51,1.5 3.51,3.5 0,1.9 -1.57,3.5 -3.51,3.5 0,0 -9.12,1.9 -21.1999,3.3 -4.48,0.5 -9.28,1.1 -14.14,1.2 -1.9,0 -3.79,-0.1 -5.66,-0.2 -2.93,-0.2 -5.76,-0.5 -8.48,-0.8 -12.0999,-1.6 -21.2099,-3.5 -21.2099,-3.5 z"
     id="path3294"
     style="stroke:none;stroke-width:0.2" /><path
     d="m 2659.3146,11791.711 c -1.93,0 -3.53,-1.5 -3.57,-3.5 -0.04,-1.9 1.5,-3.5 3.43,-3.5 0,0 9.76,-2.2 22.6699,-4 2.91,-0.4 5.95,-0.7 9.08,-1 2.01,-0.2 4.03,-0.3 6.07,-0.3 5.21,0 10.38,0.4 15.1799,0.8 12.96,1.2 22.81,2.9 22.81,2.9 1.94,0 3.54,1.5 3.58,3.4 0.04,2 -1.5,3.6 -3.43,3.6 0,0 -9.77,2.1 -22.68,3.8 -4.7799,0.6 -9.9299,1.3 -15.1399,1.5 -2.03,0.1 -4.06,0 -6.07,-0.1 -3.13,-0.1 -6.18,-0.3 -9.11,-0.6 -12.98,-1.3 -22.8199,-3 -22.8199,-3 z"
     id="path3296"
     style="stroke:none;stroke-width:0.2" /><path
     d="m 2859.2341,11775.611 c 0.27,2 -1.07,3.7 -2.99,4 -1.91,0.3 -3.69,-1.1 -3.95,-3 -4.48,-25 17.76,-53.1 41.3899,-63.7 15.68,-7 31.6099,-6.5 42.2799,4.9 7.58,-12 18.0299,-17.4 27.9299,-18.2 15.85,-1.2 31.1099,9.3 35.1799,25.1 8.61,2.1 15.25,5.7 18.94,11.1 1.82,2.6 3.1,5.7 3.57,9.3 3.26,-0.4 6.45,-0.1 9.55,1.2 3.5299,1.4 7.0999,4.1 10.4199,8.5 2.39,-0.9 4.87,-1.4 7.51,-1.3 4.04,0 8.47,1.1 13.46,2.6 7.34,2.3 16.0599,5.6 27.0599,6.3 1.93,0 3.47,1.6 3.43,3.5 -0.04,2 -1.65,3.5 -3.58,3.5 -15.29,0.2 -26.8199,-4.5 -35.9499,-5.7 -3.91,-0.5 -7.21,-0.3 -10.07,2.5 -1.21,1 -2.82,1.5 -4.4,1.3 -1.59,-0.3 -2.99,-1.2 -3.82,-2.6 -2.72,-4.2 -5.3699,-6.6 -8.1599,-7.5 -3.1,-1 -6.13,0.4 -9.31,2.3 -2.19,1.2 -4.89,1 -6.91,-0.5 -2.02,-1.4 -2.98,-4 -2.46,-6.4 0.89,-4.9 -0.07,-8.2 -2.81,-10.4 -3.24,-2.5 -8.18,-3.5 -13.94,-4.2 -3.3599,-0.5 -5.9499,-3.2 -6.2899,-6.6 -1.19,-10.2 -10.52,-16.9 -20.1,-16.1 -8.28,0.8 -16.3299,7.1 -21.0999,20.7 -1.05,3.1 -3.92,5.2 -7.17,5.2 -3.24,0 -6.14,-2 -7.22,-5.1 -6.15,-19.1 -25.3299,-16.5 -41.3699,-6.7 -16.57,10.1 -30.9199,28.2 -29.1199,46 z"
     id="path3298"
     style="stroke:none;stroke-width:0.2" /><path
     d="m 2805.5142,11567.611 c -5.75,-1.1 -16.1799,0.4 -25.1099,3.2 -5.54,1.8 -10.7,3.8 -12.8,6.9 -8.26,12.2 -15.64,20.9 -22.3099,27.5 -9.93,9.8 -18.2,14.8 -25.29,19.5 -5.18,3.4 -9.7,6.4 -13.6199,11.7 -12.43,16.7 -24.53,30 -35.41,40.3 -24.8199,23.7 -43.0598,32.4 -43.0598,32.4 -1.72,0.9 -3.84,0.2 -4.73,-1.5 -0.88,-1.7 -0.21,-3.8 1.51,-4.7 0,0 16.7699,-9.4 39.1899,-33.2 9.9499,-10.6 20.9899,-23.9 32.1399,-40.6 4.63,-6.8 9.97,-11.1 16.2999,-15.6 6.3,-4.5 13.68,-9.4 22.44,-18.6 5.91,-6.3 12.45,-14.4 19.7099,-25.8 2.14,-3.3 5.76,-6.5 10.45,-9 6.86,-3.8 16.21,-6.5 24.89,-7.8 8.6199,-1.3 16.6099,-1 21.2399,0.5 5.11,1.6 7.76,4.8 8.61,8 1.48,5.7 7.39,13.9 15.4399,25.1 11.2,15.7 26.6,36.5 42.3599,63.3 11.02,18.8 22.12,40.4 32.18,65.2 0.78,1.7 -0.02,3.8 -1.79,4.6 -1.77,0.8 -3.84,0 -4.62,-1.8 -11.31,-23.7 -23.56,-44.2 -35.3299,-62 -16.91,-25.6 -33.01,-45.5 -44.6199,-60.5 -8.85,-11.4 -15.06,-20.5 -17.77,-27.1 z m -0.92,-2.6 c 0,0 -0.01,0 -0.01,-0.1 0,0.1 0.01,0.1 0.01,0.1 z m 1.07,2.6 c 0.35,0.6 0.71,0.9 0.97,0.3 0.09,-0.2 -0.46,-0.2 -0.73,-0.2 -0.08,0 -0.16,-0.1 -0.24,-0.1 z"
     id="path3300"
     style="stroke:none;stroke-width:0.2" /><path
     d="m 2771.0543,11563.211 c 0.71,-1.8 2.75,-2.7 4.55,-2 1.8,0.8 2.68,2.8 1.97,4.6 -4.52,13.9 -8.89,24.1 -13.01,32.1 -5.35,10.4 -10.25,16.8 -14.37,22.2 -4.7599,6.2 -8.3699,10.5 -9.9499,19.1 -0.71,3.4 -2.47,12.2 -5.15,23 -1.74,7 -3.9,14.9 -6.15,22.7 -6.2,21.4 -13.23,42.4 -15.51,45.8 -2.29,3.3 -4.9799,5.7 -7.9899,7.3 -4.01,2.1 -8.37,3 -12.06,4.2 -1.92,0.6 -3.72,0.9 -4.61,2.4 -0.9,1.7 -3.02,2.4 -4.73,1.5 -1.72,-0.9 -2.38,-3 -1.48,-4.8 1.4,-3.1 4.34,-5 8.01,-6.6 3.05,-1.4 6.76,-2.5 10.01,-4.7 1.59,-1.1 2.96,-2.6 4.05,-4.7 0.92,-1.7 2.25,-8.1 4.19,-16.7 2.8299,-12.5 6.1299,-29.3 9.3699,-43.7 3.03,-13.6 6.02,-25 6.91,-29 0.89,-3.6 1.97,-6.7 3.31,-9.5 2.58,-5.2 5.85,-9.3 10.07,-13.9 7.75,-8.4 18.6799,-19.2 32.5699,-49.3 z"
     id="path3302"
     style="stroke:none;stroke-width:0.2" /><path
     d="m 2777.4243,11605.311 c -0.06,0 -0.06,0.1 0.03,0.2 0.07,0.1 0.12,-0.1 0.19,-0.2 0.01,0 0.01,0 0.02,0 0.51,-0.1 1.02,-0.1 1.52,-0.1 -0.36,0 -1.04,-0.1 -1.46,0 0.97,-1.2 1.79,-2.9 2.61,-4.9 1.32,-3.2 2.57,-7 3.79,-11 3.43,-11.3 6.5699,-23.9 9.0199,-30.6 0.46,-1.9 2.36,-3 4.24,-2.5 1.87,0.4 3.03,2.3 2.56,4.2 -0.81,6.3 -0.61,17.4 -1.7,28.1 -0.76,7.5 -2.21,14.7 -4.27,20 -1.45,3.7 -3.42,6.6 -5.4699,8.5 -3.01,2.9 -6.43,4.2 -10.11,3.9 -2.19,-0.3 -4.45,1.6 -7.05,3.6 -9.7,7.6 -20.23,19.7 -26.1999,21.5 -1.78,0.8 -3.84,0 -4.6,-1.8 -0.76,-1.8 0.06,-3.9 1.84,-4.6 0.97,-0.6 1.84,-1.8 2.98,-3.2 2.28,-2.7 4.6999,-6.5 7.4299,-10.4 4.05,-5.7 8.57,-11.6 13.1,-15.5 3.75,-3.2 7.78,-4.8 11.53,-5.2 z m 0,0 c 0.06,-0.1 0.17,-0.1 0.3,-0.1 -0.02,0 -0.04,0 -0.06,0.1 -0.08,0 -0.16,0 -0.24,0 z"
     id="path3304"
     style="stroke:none;stroke-width:0.2" /><path
     d="m 2811.6842,11570.311 c -0.28,-1.9 1.05,-3.7 2.97,-4 1.91,-0.2 3.69,1.1 3.97,3 0,0 3.26,11.2 6.94,25.8 1.37,5.4 2.78,11.3 4.03,17.2 0.7599,3.6 1.4499,7.3 2.0099,10.8 0.59,3.8 1,7.5 1.41,10.9 0.87,7.1 1.48,13.2 2.19,17.1 0.24,1.3 0.17,2.3 0.4,2.7 1.06,2.1 2.54,4 4.16,5.4 3.16,2.8 6.22,4.5 6.22,4.5 1.81,0.7 2.73,2.7 2.05,4.6 -0.68,1.8 -2.7,2.7 -4.51,2 0,0 -5.41,-1.5 -10.69,-4.8 -2.38,-1.5 -4.5299,-3.5 -6.3699,-5.7 -1.45,-1.8 -4.17,-8.9 -6.85,-18.7 -1.42,-5.2 -2.93,-11.1 -4.11,-17.4 -0.52,-2.8 -0.89,-5.7 -1.24,-8.5 -0.54,-4.3 -0.97,-8.6 -1.27,-12.8 -1.25,-17.5 -1.31,-32.1 -1.31,-32.1 z"
     id="path3306"
     style="stroke:none;stroke-width:0.2" /><path
     d="m 2852.2441,11673.211 c -0.8,-1.8 -0.02,-3.9 1.73,-4.7 1.77,-0.8 3.85,0 4.65,1.7 0,0 4.12,4.5 9.14,11.2 1.09,1.4 2.14,3 3.1699,4.6 0.64,1.1 1.29,2.1 1.83,3.3 0.84,1.7 1.48,3.5 2.14,5.3 0.69,1.9 1.22,3.8 1.77,5.6 1.45,4.7 2.26,8.5 3.4,10.6 1.28,1.5 1.14,3.7 -0.32,5 -1.45,1.3 -3.66,1.1 -4.94,-0.3 -2.64,-1.9 -6.6099,-5.8 -10.8399,-11 -1.95,-2.5 -3.88,-5.1 -5.48,-8 -0.62,-1.1 -1.09,-2.3 -1.54,-3.5 -0.71,-1.9 -1.32,-3.7 -1.8,-5.5 -2.18,-8.2 -2.91,-14.3 -2.91,-14.3 z"
     id="path3308"
     style="stroke:none;stroke-width:0.2" /><path
     d="m 2643.8346,11682.211 c 1.93,0.1 3.42,1.8 3.32,3.7 -0.11,1.9 -1.76,3.4 -3.69,3.3 0,0 -26.8099,0.3 -47.0599,-0.9 -9.5899,-0.6 -17.7399,-1.7 -21.4799,-2.9 -2.8,-0.9 -5.23,-2.2 -7.62,-3.4 -2.18,-1.1 -4.27,-2.3 -7.03,-2.4 -2.46,-0.1 -5.32,0.8 -9.24,2.7 -3.0199,1.4 -6.5299,3.4 -10.6299,6.2 -8.82,5.6 -20.48,13.9 -32.33,22.4 -24.0399,17.1 -48.4098,34.8 -48.4098,34.8 -1.49,1.2 -3.7,1 -4.93,-0.5 -1.24,-1.5 -1.03,-3.7 0.46,-4.9 0,0 22.0699,-20.8 44.6899,-40 11.3599,-9.6 22.9399,-18.7 31.5999,-25 10.31,-6.9 17.7099,-9.9 23.4099,-10.8 6.48,-1 11.23,0.2 15.49,2.3 3.15,1.5 5.88,3.7 9.47,5.2 3.88,1.7 13.7299,3.3 24.4399,4.9 18.6,2.8 39.5399,5.3 39.5399,5.3 z"
     id="path3310"
     style="stroke:none;stroke-width:0.2" /><path
     d="m 2793.4342,11497.111 c -3.8299,0.7 -8.7199,2.2 -13.7999,3.8 -7.56,2.4 -15.48,5.2 -20.97,7.4 0.17,0.1 0.33,0.1 0.48,0.2 7,2.8 16.49,5.2 21.86,5.4 1.94,0 3.55,1.5 3.6,3.4 0.05,2 -1.48,3.6 -3.41,3.6 -8,0.8 -24.61,-1.4 -32.2499,-4.7 -3.81,-1.7 -5.72,-4.3 -6.46,-6.2 -1.12,-3 -0.53,-6.3 3.75,-9.4 3.21,-2.3 11.5399,-7 20.8299,-11.1 7.6,-3.3 15.84,-6.4 22.2,-7.8 5.8399,-1.3 10.5899,-1.1 13.1999,-0.1 3.81,1.5 5.91,4.1 6.49,7.5 0.2,1.2 0.31,3.4 -0.01,6.3 -0.45,4.1 -1.46,10.4 -3.01,17.4 -4.54,20.7 -12.59,48.3 -12.59,48.3 -0.39,1.9 -2.25,3.1 -4.1399,2.7 -1.9,-0.4 -3.12,-2.2 -2.73,-4.1 0,0 1.95,-16.6 3.9099,-33.8 0.9,-7.8 1.79,-15.8 2.43,-22.3 0.24,-2.4 0.47,-4.7 0.62,-6.5 z m -40.4799,13.8 c -0.01,0 -0.03,0 -0.04,0.1 0.01,-0.1 0.03,-0.1 0.04,-0.1 z m 0.97,-4.4 c -0.13,-0.3 -0.31,-0.7 -0.54,-1.1 -0.06,-0.1 -0.17,-0.3 -0.26,-0.2 -0.43,0.4 -0.02,0.9 0.8,1.3 z m 39.6099,-14.4 c 0,0 -0.01,0 -0.01,0 z"
     id="path3312"
     style="stroke:none;stroke-width:0.2" /><path
     d="m 2913.5139,11678.211 c -0.48,-0.1 -1.54,-0.3 -2.32,-0.3 -2.2999,0.1 -5.0299,0.4 -7.7599,1 -5.45,1.1 -10.87,2.8 -13,3.8 -1.69,1 -3.83,0.4 -4.78,-1.3 -0.95,-1.7 -0.36,-3.8 1.32,-4.8 3.04,-2 12.57,-6.2 20.22,-7.9 5.3299,-1.2 9.9299,-0.5 12.3199,1 2.92,1.8 7.97,6.6 13.86,9.4 2.32,1 4.82,1.7 7.34,1.1 3.79,-0.8 8.57,-3 13.7999,-4.8 5.56,-2 11.52,-3.6 17.29,-3.9 6.13,-0.2 12.03,1.2 17.35,4.7 4.5699,3.3 14.0799,11 25.5199,20.3 11.41,9.4 24.7699,20.3 37.7399,29.2 10.59,7.2 20.6899,13.2 29.1399,15.5 1.89,0.4 3.09,2.3 2.67,4.2 -0.41,1.9 -2.28,3.1 -4.17,2.7 -11.9699,-2 -27.7799,-9.6 -43.4599,-19.1 -14.7199,-8.9 -29.3099,-19.2 -40.3699,-27.5 -7.2799,-5.4 -12.8999,-10 -16.1399,-12.2 -3.38,-2.4 -7.4,-2.5 -11.46,-2.1 -9.44,1.2 -19.1399,5.4 -25.6999,6.2 -5.41,0.7 -10.64,-0.7 -15.28,-3.4 -6.12,-3.6 -11.14,-9.3 -14.13,-11.8 z m 0.23,0.1 c 0.02,0 0.03,0 0.03,0 0,0 -0.01,0 -0.03,0 z"
     id="path3314"
     style="stroke:none;stroke-width:0.2" /><path
     style="fill:#000000;stroke:none;stroke-width:0.2;stroke-linecap:round;stroke-linejoin:round"
     d="m 2752.5143,11503.791 53.5835,-17.547 -9.5747,39.094 c -26.9696,-6.458 -30.7786,-10.651 -45.8504,-16.01 z"
     id="path143" /></g></svg>
