<?xml version="1.0" encoding="UTF-8" standalone="no"?>
<svg
   width="3787.8787"
   height="2142.7234"
   viewBox="0 0 3787.8787 2142.7234"
   version="1.1"
   xml:space="preserve"
   style="clip-rule:evenodd;fill-rule:evenodd;stroke-linejoin:round;stroke-miterlimit:2"
   id="svg5353"
   xmlns="http://www.w3.org/2000/svg"
   xmlns:svg="http://www.w3.org/2000/svg"><defs
   id="defs5353" />&#10;    <g
   id="vectorly-UNI-ship"
   style="stroke:none;stroke-width:0.2"
   transform="matrix(4.9999999,0,0,4.9999999,-20340.205,-16523.158)"><path
     d="m 4074.834,3719.7458 c -0.68,1.81 -2.7,2.74 -4.51,2.06 -1.81,-0.67 -2.74,-2.69 -2.06,-4.51 6.59,-20.92 20.8099,-29.82 39.3299,-32.54 11.96,-1.76 25.8999,-0.72 40.8699,1.75 12.2999,2.03 25.3299,4.98 38.5399,8.03 9.36,2.17 18.7899,4.5 28.1799,6.33 9.49,1.84 18.88,3.32 28.0899,3.87 19.21,1.16 37.46,-1.36 53.1499,-12.14 1.54,-1.17 3.75,-0.87 4.91,0.67 1.17,1.55 0.87,3.75 -0.67,4.92 -19.34,16.11 -43.8399,20.24 -69.8098,18.87 -15.58,-0.82 -31.6899,-3.54 -47.3699,-6.98 -13.07,-2.87 -25.7999,-6.28 -37.8299,-8.89 -13.45,-2.93 -25.89,-5.13 -36.8499,-4.5 -15.02,0.86 -26.99,6.85 -33.9699,23.06 z"
     id="path1292"
     style="stroke:none;stroke-width:0.2" /><path
     d="m 4205.2136,3653.4158 c -0.72,1.79 -2.76,2.67 -4.55,1.95 -1.7999,-0.72 -2.6699,-2.76 -1.9499,-4.56 7.7399,-22.35 25.0299,-30.26 44.7498,-31.41 13.3,-0.78 27.8,1.77 41.1299,5.25 15.51,4.05 29.28,9.49 37.4599,11.13 12.28,2.9 23.87,2.25 34.99,0.11 14.6999,-2.82 28.6099,-8.19 42.0599,-12.72 15.8899,-5.34 31.0899,-9.41 45.9798,-7.25 1.93,0.18 3.34,1.9 3.15,3.83 -0.19,1.92 -1.91,3.33 -3.83,3.14 -13.7699,-0.72 -27.2099,4.59 -41.3199,10.67 -13.6199,5.88 -27.7399,12.61 -42.9098,16.43 -13.03,3.28 -26.79,4.26 -41.4799,1.4 -8.37,-1.92 -22.49,-7.5 -38.2099,-12.45 -11.91,-3.75 -24.75,-7.19 -36.82,-7.49 -15.9899,-0.4 -30.4799,4.55 -38.4499,21.97 z"
     id="path1294"
     style="stroke:none;stroke-width:0.2" /><path
     d="m 4485.2329,3617.9058 c -1.76,-0.79 -2.55,-2.87 -1.75,-4.64 0.79,-1.76 2.87,-2.55 4.63,-1.75 23.82,9.22 43.9099,15.03 61.0799,18.94 9.02,2.05 17.1699,3.54 24.6599,4.53 5.87,0.78 11.31,1.22 16.38,1.49 11.82,0.64 21.6399,-0.05 30.2399,-1.65 11.68,-2.17 21.14,-5.68 30.0299,-8.73 14.53,-4.99 27.57,-8.71 44.9299,-3.95 1.89,0.4 3.09,2.27 2.68,4.16 -0.4,1.89 -2.27,3.1 -4.16,2.69 -19.8199,-3.19 -32.2799,5.15 -49.0199,12.48 -9.2299,4.04 -19.6099,7.83 -32.6099,9.8 -6.83,1.03 -14.3899,1.55 -22.8599,1.18 -5.58,-0.25 -11.56,-0.92 -17.98,-2.05 -7.94,-1.39 -16.5799,-3.43 -25.9699,-6.43 -17.24,-5.49 -36.9799,-14.02 -60.2799,-26.07 z"
     id="path1296"
     style="stroke:none;stroke-width:0.2" /><path
     d="m 4667.2625,3700.0058 c -1.53,1.18 -3.73,0.91 -4.92,-0.62 -1.19,-1.53 -0.91,-3.73 0.62,-4.92 12.34,-11.11 24.5999,-17.61 36.6999,-20.93 9.87,-2.7 19.59,-3.16 29.0099,-2.19 7.21,0.74 14.27,2.36 21.02,4.67 10.05,3.45 19.4399,8.31 28.2499,13.11 9.48,5.17 18.1,10.44 26.16,13.95 6.3099,2.75 12.0699,4.64 17.5199,4.26 1.91,-0.27 3.69,1.06 3.96,2.98 0.27,1.91 -1.06,3.69 -2.98,3.96 -9.07,1.95 -19.7699,-0.69 -31.7799,-5.18 -8.69,-3.25 -18.06,-7.43 -27.9699,-11.41 -5.87,-2.36 -11.94,-4.56 -18.14,-6.54 -5.89,-1.87 -11.88,-3.53 -18.08,-4.54 -7.8099,-1.29 -15.8599,-1.73 -24.3199,-0.47 -11.07,1.65 -22.7199,5.65 -35.0499,13.87 z"
     id="path1298"
     style="stroke:none;stroke-width:0.2" /><path
     d="m 4341.4333,3687.9458 c -1.68,0.95 -3.82,0.37 -4.78,-1.31 -0.96,-1.69 -0.37,-3.83 1.31,-4.78 34.7399,-21.64 62.7999,-27.15 86.9298,-24.25 18.0799,2.17 34.0299,9.1 48.8299,17.8 9.6399,5.67 18.7499,12.18 27.7899,18.5 10.02,7 19.89,13.85 30.3799,19.05 21.61,10.72 45.7099,14.43 78.5398,-1.24 1.71,-0.9 3.83,-0.24 4.73,1.47 0.9,1.72 0.24,3.84 -1.48,4.74 -35.2399,20.2199 -62.5798,17.7899 -87.4298,7.37 -11.4999,-4.83 -22.4499,-11.49 -33.3699,-18.59 -9,-5.86 -17.9999,-11.98 -27.3199,-17.61 -13.08,-7.9 -26.7999,-14.75 -42.7599,-17.63 -21.9999,-3.98 -47.9399,-0.84 -81.3698,16.48 z"
     id="path1300"
     style="stroke:none;stroke-width:0.2" /><path
     d="m 4369.9132,3626.6658 c 1.65,1 2.18,3.16 1.18,4.82 -1,1.65 -3.15,2.18 -4.81,1.18 -4.9699,-2.85 -29.8799,-31.14 -49.8598,-57.29 -9.77,-12.78 -18.34,-25.05 -22.96,-33.49 -3,-5.47 -4.26,-9.85 -4.2,-12.32 0.05,-2.06 0.99,-5.06 2.98,-8.66 2.99,-5.41 8.67,-12.95 15.57,-21.17 19.9999,-23.8799 50.3799,-53.9699 50.3799,-53.9699 2.71,-2.63 6.9399,-2.88 9.9599,-0.6 0,0 23.59,17.35 58.6099,39.6199 26.0199,16.54 58.2998,35.88 92.3498,52.29 36.9299,17.81 75.7898,32.44 110.8297,36.19 7.2,0.78 12.75,5.89 12.46,16.72 -0.23,8.29 -4.24,20.72 -14.62,37.37 -0.98,1.66 -3.14,2.21 -4.8,1.22 -1.66,-0.98 -2.21,-3.14 -1.22,-4.8 6.91,-12.25 10.48,-21.88 11.6,-29.11 1.19,-7.55 -0.09,-11.83 -4.24,-12.12 -36.2999,-2.55 -77.0998,-15.82 -115.7597,-33.09 -35.1199,-15.7 -68.5199,-34.52 -95.1098,-51.2 -25.8799,-16.2199 -45.3399,-30.3299 -54.1599,-36.9199 -8.0299,7.74 -24.8099,24.1199 -39.1799,39.5599 -8.6999,9.36 -16.5499,18.31 -20.8099,24.75 -1.31,1.99 -2.47,3.4 -2.54,4.47 -0.08,1.27 1.03,3.37 2.46,6.25 4.1,8.26 11.9,20.29 20.7299,32.92 18.13,25.93 40.5099,54.43 45.1599,57.38 z"
     id="path1302"
     style="stroke:none;stroke-width:0.2" /><path
     d="m 4394.2032,3618.1458 c 0.55,1.86 -0.51,3.81 -2.36,4.36 -1.86,0.55 -3.81,-0.51 -4.36,-2.37 0,0 -5.62,-14.34 -12.33,-35.15 -2.35,-7.27 -4.81,-15.29 -7.13,-23.8 -1.77,-6.5 -3.5,-13.25 -4.95,-20.13 -1.42,-6.77 -2.5899,-13.66 -3.5499,-20.48 -1.7,-12.13 -2.73,-23.99 -3.02,-34.73 -0.39,-14.6499 0.7,-27.1399 3.64,-35.4999 0.51,-1.87 2.4399,-2.96 4.3099,-2.45 1.86,0.51 2.96,2.45 2.44,4.31 -1.61,7.95 -0.67,19.36 1.29,32.6299 1.24,8.31 3.03,17.23 4.91,26.49 1.77,8.7 3.82,17.62 5.61,26.49 2.25,11.06 4.24,21.99 6.16,32.05 5.22,27.43 9.34,48.28 9.34,48.28 z"
     id="path1304"
     style="stroke:none;stroke-width:0.2" /><path
     d="m 4499.1329,3326.8059 c -14.16,11.94 -28.8599,29.01 -42.7899,47.13 -30.8899,40.18 -57.6498,85.86 -62.1798,97.93 -0.63,1.83 -2.63,2.8 -4.46,2.17 -1.83,-0.63 -2.8,-2.63 -2.17,-4.46 3.95,-12.58 28.0399,-61.24 57.8698,-103.68 17.21,-24.47 36.5,-46.68 54.2599,-59.48 2.97,-2.1 5.73,-2.05 8.02,-1.35 1.97,0.61 4.06,1.97 5.51,4.85 0.69,1.36 1.36,3.64 1.65,6.86 0.35,3.85 0.37,9.77 0.05,17.52 -0.75,18.1 -2.95,46.75 -4.01,82.43 -1.05,35.35 -1.22,77.5799 2.9,123.3399 0.22,1.92 -1.16,3.66 -3.08,3.89 -1.92,0.22 -3.66,-1.16 -3.89,-3.08 -7.41,-52.06 -9.49,-99.8199 -9.52,-138.1299 -0.01,-19.22 0.49,-36.04 0.98,-49.8 0.38,-10.73 0.78,-19.55 0.86,-26.14 z m 0.07,-8.72 c 0.06,-0.97 0.03,-1.68 -0.47,-1.55 -0.91,0.23 -0.34,0.91 0.47,1.55 z m 9.48,1.43 c 0.03,-0.02 0.06,-0.04 0.09,-0.06 -0.03,0.02 -0.06,0.04 -0.09,0.06 z"
     id="path1306"
     style="stroke:none;stroke-width:0.2" /><path
     d="m 4479.383,3477.3059 c -0.02,1.94 -1.6,3.5 -3.53,3.48 -1.94,-0.01 -3.49,-1.6 -3.48,-3.53 0,0 -1.76,-21.96 -0.82,-51.07 0.21,-6.52 0.63,-13.38 1.27,-20.43 0.4,-4.47 0.86,-9.02 1.55,-13.58 1.71,-11.3 4.17,-22.7 7.18,-33.56 5.1799,-18.66 12.1399,-35.56 20.4699,-47.77 0.98,-1.67 3.13,-2.22 4.8,-1.24 1.66,0.98 2.22,3.13 1.23,4.8 -6.27,12.45 -10.11,29.19 -13.17,47.2 -1.53,9.01 -2.71,18.3 -3.96,27.54 -0.84,6.22 -1.74,12.39 -2.6,18.43 -1.4,9.8 -2.76,19.19 -3.91,27.77 -3.2699,24.38 -5.0299,41.96 -5.0299,41.96 z"
     id="path1308"
     style="stroke:none;stroke-width:0.2" /><path
     d="m 4502.4029,3360.9659 c -0.49,-1.87 0.63,-3.78 2.5,-4.27 1.87,-0.5 3.79,0.62 4.28,2.5 3.07,9.44 10.8,30.43 20.1099,55.73 4.3,11.68 9.01,24.21 13.6,36.98 3.7,10.3 7.22,20.77 10.85,30.9 3.85,10.7199 7.6,21.0799 11.4599,30.5699 6.03,14.83 11.97,27.49 18.02,35.92 1.22,1.51 0.98,3.72 -0.52,4.93 -1.51,1.22 -3.72,0.98 -4.93,-0.52 -10.2,-11.33 -21.7499,-31.03 -32.4999,-54.11 -5.67,-12.17 -11.18,-25.2299 -16.04,-38.4299 -1.93,-5.23 -3.65,-10.52 -5.32,-15.75 -2.5899,-8.13 -4.9799,-16.15 -7.0999,-23.87 -7.49,-27.29 -12.36,-50.46 -14.41,-60.58 z"
     id="path1310"
     style="stroke:none;stroke-width:0.2" /><path
     d="m 4588.3527,3598.8358 c -0.61,-1.84 0.39,-3.82 2.23,-4.43 1.84,-0.61 3.82,0.39 4.42,2.23 3.56,6.13 4.21,11.2 4.02,15.42 -0.15,3.38 -1.63,5.96 -3.11,8.26 -1.57,2.42 -3.89,3.96 -6.26,5.18 -3.06,1.57 -6.62,2 -9.95,1.44 -3.41,-0.57 -6.69,-2.13 -9.04,-4.67 -1.84,-2 -3.53,-4.27 -4.13,-7.17 -0.39,-1.89 -0.82,-3.87 -0.43,-6.07 0.82,-4.55 3.04,-10.05 9.49,-15.67 1.19,-1.52 3.39,-1.8 4.91,-0.61 1.53,1.19 1.8,3.39 0.62,4.92 -1.48,2.97 -2.01,5.52 -2.41,7.81 -0.35,1.97 0.27,3.44 0.8,4.7 0.21,0.5 0.87,0.47 1.25,0.76 0.49,0.36 1.15,0.22 1.76,0.25 0.62,0.04 1.28,0.32 1.84,0.01 1.89,-1.05 3.62,-2.91 3.88,-6.68 0.12,-1.73 0.32,-3.52 0.11,-5.68 z"
     id="path1312"
     style="stroke:none;stroke-width:0.2" /><path
     d="m 4515.7175,3571.6836 c -0.61,-1.84 0.39,-3.82 2.23,-4.43 1.84,-0.61 3.82,0.39 4.42,2.23 3.56,6.13 4.21,11.2 4.02,15.42 -0.15,3.38 -1.63,5.96 -3.11,8.26 -1.57,2.42 -3.89,3.96 -6.26,5.18 -3.06,1.57 -6.62,2 -9.95,1.44 -3.41,-0.57 -6.69,-2.13 -9.04,-4.67 -1.84,-2 -3.53,-4.27 -4.13,-7.17 -0.39,-1.89 -0.82,-3.87 -0.43,-6.07 0.82,-4.55 3.04,-10.05 9.49,-15.67 1.19,-1.52 3.39,-1.8 4.91,-0.61 1.53,1.19 1.8,3.39 0.62,4.92 -1.48,2.97 -2.01,5.52 -2.41,7.81 -0.35,1.97 0.27,3.44 0.8,4.7 0.21,0.5 0.87,0.47 1.25,0.76 0.49,0.36 1.15,0.22 1.76,0.25 0.62,0.04 1.28,0.32 1.84,0.01 1.89,-1.05 3.62,-2.91 3.88,-6.68 0.12,-1.73 0.32,-3.52 0.11,-5.68 z"
     id="path1314"
     style="stroke:none;stroke-width:0.2" /><path
     d="m 4426.1107,3531.965 c -0.61,-1.84 0.39,-3.82 2.23,-4.43 1.84,-0.61 3.82,0.39 4.42,2.23 3.56,6.13 4.21,11.2 4.02,15.42 -0.15,3.38 -1.63,5.96 -3.11,8.26 -1.57,2.42 -3.89,3.96 -6.26,5.18 -3.06,1.57 -6.62,2 -9.95,1.44 -3.41,-0.57 -6.69,-2.13 -9.04,-4.67 -1.84,-2 -3.53,-4.27 -4.13,-7.17 -0.39,-1.89 -0.82,-3.87 -0.43,-6.07 0.82,-4.55 3.04,-10.05 9.49,-15.67 1.19,-1.52 3.39,-1.8 4.91,-0.61 1.53,1.19 1.8,3.39 0.62,4.92 -1.48,2.97 -2.01,5.52 -2.41,7.81 -0.35,1.97 0.27,3.44 0.8,4.7 0.21,0.5 0.87,0.47 1.25,0.76 0.49,0.36 1.15,0.22 1.76,0.25 0.62,0.04 1.28,0.32 1.84,0.01 1.89,-1.05 3.62,-2.91 3.88,-6.68 0.12,-1.73 0.32,-3.52 0.11,-5.68 z"
     id="path1316"
     style="stroke:none;stroke-width:0.2" /></g>&#10;</svg>
