<?xml version="1.0" encoding="UTF-8" standalone="no"?>
<svg
   width="2623.7043"
   height="2993.7253"
   viewBox="0 0 2623.7044 2993.7254"
   version="1.1"
   xml:space="preserve"
   style="clip-rule:evenodd;fill-rule:evenodd;stroke-linejoin:round;stroke-miterlimit:2"
   id="svg5353"
   xmlns="http://www.w3.org/2000/svg"
   xmlns:svg="http://www.w3.org/2000/svg"><defs
   id="defs5353" />&#10;    <g
   id="vectorly-UNI-coins"
   transform="matrix(4.9999999,0,0,4.9999999,-16543.723,-28554.833)"
   style="stroke-width:0.2"><path
     d="m 3663.8821,5890.7537 c 0.45,1.88 -0.71,3.77 -2.59,4.22 -1.88,0.45 -3.78,-0.71 -4.23,-2.59 -12.74,-49.2 -39.1399,-72.65 -68.7498,-78.62 -34.9599,-7.04 -73.8598,10.28 -97.8198,37 -25.4199,27.93 -39.9299,63.69 -42.0099,97.9299 -2.22,36.5 9.83,71.5 40.1499,93.03 32.6699,23.56 74.7498,13.85 108.5897,-11.85 31.48,-23.91 56.0899,-61.78 60.2999,-102.28 0.17,-1.9299 1.87,-3.3599 3.8,-3.1899 1.93,0.17 3.36,1.87 3.19,3.7999 -3.02,43.08 -27.76,84.15 -60.3699,110.51 -37.7599,30.51 -85.8598,40.87 -123.8897,14.96 -35.0599,-24.27 -50.2898,-64.1 -47.7198,-105.95 2.31,-37.5299 19.0999,-76.5199 47.3598,-106.7299 27.69,-29.16 71.9099,-47.24 110.7898,-38.1 32.1999,7.57 61.1798,33.52 73.1998,87.86 z"
     id="path1636"
     style="stroke:none;stroke-width:0.2" /><path
     d="m 3666.9321,5968.7436 c 0.59,-1.84 2.56,-2.87 4.4,-2.28 1.85,0.58 2.87,2.55 2.29,4.4 -2.46,9.81 -8.71,32.04 -24.11,53.33 -4.51,6.22 -9.87,12.27 -16.0799,17.9 -3.9,3.53 -8.14,6.9 -12.82,9.89 -10.54,6.74 -22.99,12 -37.3699,14.81 -16.76,3.27 -36.1399,3.12 -58.5499,-1.66 -1.91,-0.3 -3.23,-2.09 -2.93,-4 0.29,-1.91 2.08,-3.23 3.99,-2.93 21.22,1.98 39.0199,-0.27 54.2699,-4.69 12.32,-3.57 22.6999,-8.92 31.8599,-14.92 10.59,-6.94 19.43,-14.86 26.6899,-23.16 16.15,-18.47 24.96,-37.88 28.36,-46.69 z"
     id="path1638"
     style="stroke:none;stroke-width:0.2" /><path
     d="m 3585.4523,5898.4637 c 0.85,1.74 0.14,3.84 -1.6,4.69 -1.74,0.85 -3.84,0.14 -4.69,-1.6 -8.46,-15.25 -19.56,-19.73 -29.2399,-17.36 -10.53,2.57 -18.74,13.45 -17.39,25.46 0.25,2.41 1.56,4.76 3.13,7.27 2.57,4.11 6.19,8.27 9.81,12.6399 6.89,8.32 13.8899,17.17 16.9199,26.1 3.37,9.93 2.72,20.1 -6.3799,30.06 -10.89,11.64 -31.91,13.6 -46.6999,2.62 -10.35,-7.68 -17.91,-21.38 -14.83,-41.8 0.2,-1.92 1.93,-3.33 3.85,-3.13 1.92,0.2 3.33,1.92 3.13,3.85 -0.9,16.24 5.36,26.67 14,31.99 10.0399,6.18 23.4299,5.13 29.7899,-2.83 4.37,-5.34 4.39,-10.5 2.49,-15.52 -1.63,-4.28 -4.52,-8.41 -7.67,-12.57 -3.4,-4.49 -7.15,-8.94 -10.51,-13.3 -6.44,-8.39 -11.28,-16.7099 -11.65,-24.3099 -0.65,-18.8 13.13,-35.1 29.81,-37.63 13.1799,-2.01 28.5199,3.95 37.7299,25.37 z"
     id="path1640"
     style="stroke:none;stroke-width:0.2" /><path
     d="m 3500.7025,6020.8336 c -0.96,1.68 -3.1,2.26 -4.78,1.31 -1.68,-0.96 -2.27,-3.1 -1.31,-4.78 0,0 0.65,-4.92 2.58,-11.63 0.42,-1.44 0.94,-2.86 1.56,-4.35 0.4,-0.92 0.79,-1.87 1.34,-2.73 1.41,-2.25 3.11,-4.2 4.76,-6.02 4.65,-5.13 8.52,-8.25 8.52,-8.25 0.96,-1.68 3.0999,-2.26 4.7799,-1.31 1.68,0.96 2.27,3.1 1.31,4.78 0,0 -0.7,4.93 -2.74,11.54 -0.72,2.35 -1.5299,4.81 -2.7299,7.17 -0.47,0.91 -1.07,1.73 -1.67,2.54 -0.96,1.3 -1.92,2.47 -2.95,3.57 -4.77,5.09 -8.67,8.16 -8.67,8.16 z"
     id="path1642"
     style="stroke:none;stroke-width:0.2" /><path
     d="m 3579.3723,5846.1837 c 1.06,-1.62 3.23,-2.08 4.85,-1.02 1.62,1.06 2.08,3.23 1.02,4.85 0,0 -0.91,4.82 -3.21,11.34 -0.49,1.4 -1.09,2.78 -1.79,4.2 -0.44,0.9 -0.89,1.8 -1.48,2.62 -1.53,2.13 -3.33,3.95 -5.07,5.65 -4.91,4.78 -8.93,7.6 -8.93,7.6 -1.05,1.62 -3.23,2.08 -4.85,1.03 -1.62,-1.06 -2.07,-3.23 -1.02,-4.85 0,0 0.96,-4.82 3.36,-11.24 0.85,-2.28 1.78,-4.66 3.12,-6.92 0.51,-0.87 1.16,-1.65 1.8,-2.41 1.02,-1.22 2.04,-2.32 3.12,-3.34 5.04,-4.73 9.08,-7.51 9.08,-7.51 z"
     id="path1644"
     style="stroke:none;stroke-width:0.2" /><path
     d="m 3428.8327,5967.1936 c 1.44,1.29 1.57,3.51 0.28,4.95 -1.29,1.44 -3.51,1.56 -4.95,0.27 -19.63,-16.53 -33.8699,-16.78 -41.5599,-4.99 -4.45,6.82 -6.48,17 -6.38,29.17 0.1,13.72 3.13,29.87 9.39,46.81 5.63,15.64 13.8199,32.08 23.4199,47.88 9.34,15.38 20.1,30.09 31.8099,42.52 17.68,18.78 37.2499,32.63 57.2699,34.45 15.09,1.46 24.4599,-5.06 30.1299,-15 10.05,-17.66 9.75,-44.51 8.26,-59.66 -0.24,-1.92 1.12,-3.67 3.04,-3.92 1.92,-0.24 3.67,1.12 3.92,3.04 2.54,16.44 4.05,45.69 -5.9,65.53 -7.05,14.0599 -19.53,23.6499 -40.3599,22.6699 -23.0299,-1.23 -46.7099,-15.3299 -67.4698,-36.4099 -12.78,-12.97 -24.49,-28.56 -34.29,-45.04 -10.0099,-16.84 -17.9299,-34.65 -23.4499,-51.36 -4.9,-15.27 -7.54,-29.88 -7.98,-42.87 -0.65,-18.78 3.09,-34.23 10.07,-43.72 10.99,-14.9 30.2899,-17.57 54.7499,5.68 z"
     id="path1646"
     style="stroke:none;stroke-width:0.2" /><path
     d="m 3447.9026,5994.6736 c 1.87,0.49 2.99,2.41 2.5,4.28 -0.49,1.87 -2.41,2.99 -4.28,2.5 -8.94,-1.7 -15.1699,2.87 -17.8899,9.44 -2.58,6.2 -1.67,14.19 3.21,20.47 4.6799,6.3 9.7099,10.21 14.7499,13.12 3.59,2.07 7.23,3.55 10.86,4.91 4.21,1.59 8.41,2.97 12.53,4.61 8.8599,3.52 17.3499,8.02 24.8299,16.75 8.72,10.51 9.85,22.82 5.1,32.39 -4.6,9.27 -14.28,16.22 -27.0999,15.27 -1.94,-0.02 -3.49,-1.61 -3.47,-3.54 0.02,-1.94 1.61,-3.49 3.54,-3.47 8.7899,-0.46 14.9499,-5.71 17.3199,-12.38 2.17,-6.07 0.57,-13.32 -5.35,-19.06 -7.75,-7.79 -16.5199,-10.07 -25.1999,-12.9 -7.15,-2.34 -14.33,-4.87 -21.18,-9.24 -6.4499,-4.11 -12.5999,-9.83 -18.1499,-18.5 -6.64,-10.88 -6.73,-23.82 -1.41,-33.19 5.48,-9.63 15.93,-15.97 29.3899,-11.46 z"
     id="path1648"
     style="stroke:none;stroke-width:0.2" /><path
     d="m 3516.3724,6128.2836 c 1.35,1.39 1.31,3.61 -0.07,4.96 -1.3899,1.35 -3.6099,1.31 -4.9599,-0.07 0,0 -4.02,-1.5 -9.4,-4.65 -1.14,-0.67 -2.22,-1.41 -3.33,-2.28 -0.69,-0.54 -1.39,-1.09 -1.98,-1.75 -1.53,-1.75 -2.69,-3.68 -3.76,-5.54 -3.07,-5.35 -4.51,-9.41 -4.51,-9.41 -1.35,-1.39 -1.32,-3.61 0.07,-4.96 1.39,-1.34 3.61,-1.31 4.96,0.07 0,0 4.02,1.55 9.27,4.77 1.84,1.13 3.73,2.33 5.44,3.92 0.64,0.6 1.18,1.32 1.7,2.02 0.83,1.14 1.55,2.23 2.18,3.39 3,5.47 4.3899,9.53 4.3899,9.53 z"
     id="path1650"
     style="stroke:none;stroke-width:0.2" /><path
     d="m 3398.6627,5987.2236 c -1.3,-1.43 -1.2,-3.65 0.23,-4.95 1.43,-1.31 3.65,-1.21 4.95,0.22 0,0 3.93,1.58 9.17,4.85 1.11,0.69 2.15,1.45 3.22,2.34 0.67,0.56 1.34,1.12 1.9,1.8 1.46,1.77 2.53,3.71 3.52,5.59 2.86,5.39 4.13,9.45 4.13,9.45 1.31,1.43 1.2,3.65 -0.23,4.95 -1.42,1.3 -3.64,1.2 -4.95,-0.23 0,0 -3.92,-1.63 -9.03,-4.96 -1.78,-1.16 -3.62,-2.41 -5.25,-4.02 -0.62,-0.62 -1.12,-1.34 -1.62,-2.05 -0.78,-1.15 -1.45,-2.26 -2.04,-3.42 -2.78,-5.51 -4,-9.57 -4,-9.57 z"
     id="path1652"
     style="stroke:none;stroke-width:0.2" /><path
     d="m 3437.3726,6168.0636 c 1.74,0.85 2.45,2.9599 1.6,4.6899 -0.85,1.74 -2.96,2.45 -4.6899,1.6 -14.85,-6.4299 -30.23,-19.6199 -44.1299,-36.7399 -7.73,-9.52 -14.96,-20.26 -21.33,-31.67 -5.17,-9.27 -9.79,-18.97 -13.56,-28.84 -3.8999,-10.22 -6.8799,-20.61 -8.9299,-30.75 -2.26,-11.2 -3.36,-22.1 -3.09,-32.24 0.8,-30.19 12.8399,-53.7 40.9499,-59.7 1.87,-0.49 3.79,0.64 4.27,2.51 0.49,1.87 -0.64,3.79 -2.51,4.27 -16.73,5.17 -25.31,17.58 -28.33,33.68 -2.62,14 -0.83,30.65 3.53,48.16 2.32,9.34 5.44,18.88 9.04,28.41 3.51,9.3 7.45,18.59 11.86,27.55 5.46,11.07 11.48,21.67 18.0099,31.23 11.51,16.85 24.21,30.59 37.3099,37.84 z"
     id="path1654"
     style="stroke:none;stroke-width:0.2" /><path
     d="m 3355.0228,5717.8437 c 0.93,-1.69 3.06,-2.32 4.76,-1.39 1.7,0.93 2.32,3.06 1.39,4.76 0,0 -13.5799,28.83 -24.1399,72.76 -2.25,9.34 -4.41,19.35 -6.32,29.93 -1.18,6.49 -2.22,13.2 -3.26,20.07 -2.42,15.98 -4.31,32.9 -4.87,50.57 -0.77,24.34 0.56,49.9599 6.25,76.1399 0.49,1.87 -0.63,3.79 -2.5,4.28 -1.87,0.49 -3.79,-0.63 -4.28,-2.5 -8.1699,-26.48 -12.2899,-52.7399 -13.1299,-77.9099 -0.62,-18.41 0.4,-36.19 2.7,-52.87 0.99,-7.17 2.32,-14.12 3.7799,-20.83 2.36,-10.88 5.12,-21.14 8.13,-30.64 14.03,-44.35 31.4899,-72.37 31.4899,-72.37 z"
     id="path1656"
     style="stroke:none;stroke-width:0.2" /><path
     d="m 3375.4428,5780.6937 c 0.72,-1.79 2.77,-2.66 4.56,-1.94 1.8,0.73 2.66,2.78 1.94,4.57 0,0 -2.11,9.42 -4.45,23.87 -0.79,4.82 -1.53,10.14 -2.41,15.87 -0.52,3.38 -1.05,6.88 -1.69,10.47 -0.91,5.08 -2,10.27 -2.87,15.65 -1.5,9.29 -2.87,18.75 -2.84,28.47 0.23,1.92 -1.15,3.66 -3.07,3.88 -1.92,0.23 -3.66,-1.15 -3.89,-3.07 -2.34,-10.08 -3.67,-20.21 -3.82,-30.24 -0.11,-7 0.29,-13.82 1.24,-20.27 0.4,-2.74 1,-5.38 1.63,-7.93 1.03,-4.14 2.16,-8.03 3.41,-11.64 5.92,-16.99 12.26,-27.69 12.26,-27.69 z"
     id="path1658"
     style="stroke:none;stroke-width:0.2" /><path
     d="m 3715.482,5716.0137 c -0.85,-1.73 -0.13,-3.84 1.6,-4.69 1.7399,-0.85 3.8399,-0.13 4.6899,1.61 0,0 14.07,24.47 28.53,62.48 3.07,8.08 6.08,16.79 8.9399,26.02 1.77,5.7 3.5,11.58 5.01,17.66 3.54,14.28 6.39,29.48 8.42,45.17 2.89,22.35 3.86,45.61 2.62,68.7899 0,1.93 -1.58,3.49 -3.52,3.49 -1.93,-0.01 -3.49,-1.59 -3.49,-3.52 -0.71,-14.9999 -2.59,-29.8699 -4.97,-44.5199 -2.44,-15.02 -5.6399,-29.67 -9.0499,-43.78 -2.14,-8.92 -4.41,-17.59 -6.61,-25.99 -2.37,-9.02 -4.64,-17.71 -6.95,-25.94 -3.16,-11.27 -6.23,-21.69 -9.15,-30.99 -8.84,-28.07 -16.0699,-45.79 -16.0699,-45.79 z"
     id="path1660"
     style="stroke:none;stroke-width:0.2" /><path
     d="m 3805.6917,5799.0837 c -0.55,-1.85 0.5,-3.8 2.35,-4.36 1.86,-0.55 3.81,0.5 4.37,2.35 0,0 9.12,23.9 15.78,59.42 1.43,7.63 2.65,15.8 3.62,24.38 0.6,5.32 1.12,10.8 1.38,16.4 0.6,13.23 0.29,27.12 -1.01,41.1999 -1.86,20.23 -5.95,40.72 -12.48,60.45 -0.5,1.87 -2.43,2.98 -4.3,2.47 -1.87,-0.5 -2.97,-2.43 -2.46,-4.3 2.73,-13.04 4.16,-26.27 4.97,-39.46 0.83,-13.44 0.75,-26.75 0.31,-39.6799 -0.28,-8.12 -0.75,-16.07 -1.22,-23.78 -0.5,-8.25 -1,-16.22 -1.63,-23.81 -0.86,-10.36 -1.82,-19.97 -2.86,-28.61 -3.15,-25.87 -6.82,-42.67 -6.82,-42.67 z"
     id="path1662"
     style="stroke:none;stroke-width:0.2" /><path
     d="m 3645.8621,6116.1236 c -0.48,1.87 -2.4,3 -4.27,2.51 -1.87,-0.48 -3,-2.4 -2.51,-4.27 14.58,-61.36 35.37,-96.81 56.3599,-114.25 31.4499,-26.12 63.8098,-14.9 82.4898,11.73 7.48,10.8 13.1,28.01 15.39,48.62 2.45,22.05 1.3,48.07 -4.72,73.75 -9.41,40.0799 -30.61,79.1899 -66.5099,101.9399 -22.8399,14.3 -44.7899,11.06 -61.4198,-2.93 -19.93,-16.75 -32.1399,-49.63 -27.1299,-84.9599 0.23,-1.92 1.98,-3.29 3.8999,-3.06 1.92,0.24 3.29,1.99 3.06,3.91 -2.63,26.0699 4.54,50.3699 17.27,66.3999 14.16,17.81 35.5899,24.8 57.3999,10.02 32.2599,-21.61 49.9798,-58.0899 58.0998,-94.8199 5.3,-23.94 6.49,-48.06 4.4,-68.58 -1.8,-17.66 -5.79,-32.6 -12.01,-41.96 -13.5899,-20.71 -37.9199,-29.5 -62.5498,-10.49 -20.5,15.81 -40.9999,48.86 -57.2499,106.44 z"
     id="path1664"
     style="stroke:none;stroke-width:0.2" /><path
     d="m 3809.4617,6055.1136 c -0.12,-1.93 1.35,-3.59 3.28,-3.71 1.93,-0.12 3.6,1.35 3.71,3.28 0.83,7.36 2.12,28.53 -0.28,54.36 -1.06,11.39 -2.86,23.66 -5.75,36 -2.32,9.88 -5.32,19.82 -9.26,29.3199 -4.0199,9.7 -9.0199,18.96 -14.9499,27.36 -6.16,8.74 -13.34,16.58 -21.68,23 -17.6799,13.62 -40.2499,21.26 -69.0998,18.1 -1.93,-0.12 -3.39,-1.79 -3.27,-3.72 0.12,-1.93 1.79,-3.4 3.72,-3.27 17.99,0.28 32.8199,-3.77 45.2499,-10.63 13.72,-7.57 24.1399,-18.88 32.4899,-31.95 4.99,-7.82 9.14,-16.3 12.81,-25.0299 3.7,-8.83 6.89,-17.91 9.53,-26.98 3.3899,-11.61 6.0099,-23.13 7.9599,-33.88 4.47,-24.67 5.62,-45.09 5.54,-52.25 z"
     id="path1666"
     style="stroke:none;stroke-width:0.2" /><path
     d="m 3742.8419,6082.1036 c 0.83,1.75 0.08,3.84 -1.67,4.67 -1.75,0.83 -3.84,0.08 -4.67,-1.67 -3.94,-7.11 -8.02,-11.87 -11.9,-14.84 -3.17,-2.42 -6.13,-3.26 -8.7099,-2.74 -1.84,0.36 -3.17,1.82 -4.3,3.54 -2.72,4.16 -3.09,10.7 -0.87,17.9 2.09,7.25 5.79,14.49 9.0099,21.72 3.87,8.67 7.26,17.28 8.39,25.22 1.34,9.5 -0.22,18.24 -6.89,25.64 -10.4499,11.2999 -25.2099,13.1399 -35.9699,6.08 -8.3299,-5.46 -14.6299,-16.17 -12.8299,-31.87 0.1,-1.93 1.76,-3.41 3.69,-3.3 1.9299,0.1 3.4099,1.76 3.3099,3.69 0.04,11.45 4.77,18.95 11.2,22.23 6.54,3.34 14.73,1.33 20.02,-5.68 3.33,-4.28 3.32,-9.13 2.34,-14.27 -1.3,-6.74 -4.64,-13.88 -7.85,-21.35 -3.45,-8 -6.74,-16.32 -8.64,-24.4 -2.13,-9.91 -0.96,-18.78 2.44,-25.09 3.55,-6.58 9.04,-10.77 15.38,-11.29 4.1899,-0.35 8.8599,0.58 13.4299,3.94 5.2,3.81 10.65,10.67 15.09,21.87 z"
     id="path1668"
     style="stroke:none;stroke-width:0.2" /><path
     d="m 3686.162,6161.8836 c 0.98,-1.67 3.13,-2.22 4.79,-1.24 1.67,0.98 2.23,3.13 1.25,4.79 0,0 -0.32,4.17 -1.87,10.0799 -0.32,1.24 -0.74,2.45 -1.26,3.72 -0.33,0.79 -0.66,1.59 -1.14,2.31 -1.25,1.89 -2.77,3.46 -4.26,4.94 -4.28,4.26 -7.7499,6.61 -7.7499,6.61 -0.98,1.67 -3.13,2.23 -4.79,1.25 -1.67,-0.98 -2.23,-3.13 -1.25,-4.8 0,0 0.38,-4.18 2.02,-9.99 0.57,-2.01 1.2,-4.11 2.25,-6.12 0.4,-0.76 0.94,-1.44 1.47,-2.11 0.85,-1.0799 1.6999,-2.0299 2.6399,-2.9199 4.41,-4.22 7.9,-6.52 7.9,-6.52 z"
     id="path1670"
     style="stroke:none;stroke-width:0.2" /><path
     d="m 3736.5619,6027.5536 c 0.89,-1.72 3,-2.39 4.72,-1.5 1.72,0.89 2.4,3 1.51,4.72 0,0 -0.46,4.96 -2.14,11.75 -0.36,1.47 -0.82,2.92 -1.39,4.43 -0.35,0.94 -0.72,1.9 -1.23,2.79 -1.32,2.31 -2.95,4.34 -4.53,6.23 -4.44,5.33 -8.2,8.62 -8.2,8.62 -0.88,1.71 -3,2.39 -4.72,1.5 -1.72,-0.89 -2.39,-3 -1.5,-4.72 0,0 0.51,-4.97 2.29,-11.67 0.63,-2.39 1.34,-4.88 2.46,-7.3 0.43,-0.93 1,-1.78 1.57,-2.62 0.9,-1.34 1.82,-2.55 2.8,-3.69 4.58,-5.3 8.36,-8.54 8.36,-8.54 z"
     id="path1672"
     style="stroke:none;stroke-width:0.2" /><path
     d="m 3569.3623,6305.2135 c -1.94,0 -3.51,-1.57 -3.51,-3.51 0,-1.93 1.57,-3.5 3.51,-3.5 0,0 30.7099,-1.96 69.9798,-3.5 8.98,-0.36 18.39,-0.61 27.99,-0.8 6.17,-0.12 12.4199,-0.24 18.6599,-0.19 15.96,0.12 31.8999,0.63 46.6599,1.16 39.2599,1.43 69.9798,3.33 69.9798,3.33 1.93,0 3.51,1.57 3.51,3.5 0,1.94 -1.58,3.51 -3.51,3.51 0,0 -30.7199,1.9 -69.9798,3.32 -14.76,0.54 -30.6999,1.05 -46.6599,1.17 -6.24,0.04 -12.4899,-0.07 -18.6599,-0.19 -9.6,-0.19 -19.01,-0.45 -27.99,-0.8 -39.2699,-1.54 -69.9798,-3.5 -69.9798,-3.5 z m -192.7195,0 c -1.93,0 -3.5,-1.57 -3.5,-3.51 0,-1.93 1.57,-3.5 3.5,-3.5 0,0 20.3599,-1.96 46.5299,-3.5 5.97,-0.36 12.2199,-0.61 18.6099,-0.8 4.1,-0.12 8.25,-0.24 12.4,-0.19 10.62,0.12 21.21,0.63 31.0199,1.16 26.16,1.43 46.5299,3.33 46.5299,3.33 1.93,0 3.5,1.57 3.5,3.5 0,1.94 -1.57,3.51 -3.5,3.51 0,0 -20.3699,1.9 -46.5299,3.32 -9.8099,0.54 -20.3999,1.05 -31.0199,1.17 -4.15,0.04 -8.3,-0.07 -12.4,-0.19 -6.39,-0.19 -12.6399,-0.45 -18.6099,-0.8 -26.17,-1.54 -46.5299,-3.5 -46.5299,-3.5 z"
     id="path1674"
     style="stroke:none;stroke-width:0.2" /></g>&#10;</svg>
