<?xml version="1.0" encoding="UTF-8" standalone="no"?>
<svg
   width="2160.7026"
   height="2878.8306"
   viewBox="0 0 2160.7027 2878.8306"
   version="1.1"
   xml:space="preserve"
   style="clip-rule:evenodd;fill-rule:evenodd;stroke-linejoin:round;stroke-miterlimit:2"
   id="svg5353"
   xmlns="http://www.w3.org/2000/svg"
   xmlns:svg="http://www.w3.org/2000/svg"><defs
   id="defs5353" />&#10;    <g
   id="vectorly-UNI-task-todo"
   style="stroke:none;stroke-width:0.2"
   transform="matrix(4.9999999,0,0,4.9999999,-614.71585,-28641.093)"><path
     d="m 246.87656,5856.0737 c -0.892,-1.71 -0.221,-3.83 1.49599,-4.72 1.716,-0.89 3.83399,-0.22 4.72499,1.49 1.477,1.72 2.97099,2.81 4.37199,3.9 1.763,1.37 3.50199,1.46 5.05899,1.52 0.654,0.03 1.021,-0.68 1.61499,-1 0.927,-0.49 1.664,-1.37 2.551,-2.26 1.056,-1.05 2.23599,-2.12 3.30199,-3.49 3.24399,-4.15 6.59398,-9.06 8.53598,-15.55 0.193,-1.93 1.91199,-3.33 3.83599,-3.14 1.92499,0.19 3.33199,1.91 3.13899,3.84 0.594,5.62 0.287,10.66 -0.65,15.42 -0.784,3.99 -2.29699,7.41 -4.02599,10.38 -1.18399,2.03 -2.64699,3.73 -4.19599,5.12 -2.00899,1.8 -4.19899,3.11 -6.44198,3.84 -2.50199,0.81 -4.97299,1.36 -7.44398,0.95 -2.774,-0.45 -5.62499,-1.08 -8.04598,-3.21 -3.09299,-2.73 -6.11099,-6.58 -7.82698,-13.09 z"
     id="path1402"
     style="stroke:none;stroke-width:0.2" /><path
     d="m 246.663,5920.9939 c -0.89199,-1.71 -0.221,-3.83 1.496,-4.72 1.71599,-0.89 3.83399,-0.22 4.72499,1.49 1.47699,1.72 2.97099,2.81 4.37199,3.9 1.76299,1.37 3.50199,1.46 5.05898,1.52 0.654,0.03 1.021,-0.68 1.615,-1 0.927,-0.49 1.664,-1.37 2.55099,-2.26 1.056,-1.05 2.236,-2.12 3.302,-3.49 3.24399,-4.15 6.59398,-9.06 8.53597,-15.55 0.193,-1.93 1.912,-3.33 3.83599,-3.14 1.925,0.19 3.332,1.91 3.139,3.84 0.594,5.62 0.287,10.66 -0.65,15.42 -0.784,3.99 -2.297,7.41 -4.02599,10.38 -1.184,2.03 -2.64699,3.73 -4.19599,5.12 -2.009,1.8 -4.19899,3.11 -6.44198,3.84 -2.502,0.81 -4.97299,1.36 -7.44399,0.95 -2.77399,-0.45 -5.62498,-1.08 -8.04598,-3.21 -3.09299,-2.73 -6.11098,-6.58 -7.82698,-13.09 z"
     id="path1404"
     style="stroke:none;stroke-width:0.2" /><path
     d="m 246.44945,5985.9142 c -0.892,-1.71 -0.221,-3.83 1.496,-4.72 1.71599,-0.89 3.83399,-0.22 4.72498,1.49 1.477,1.72 2.971,2.81 4.37199,3.9 1.763,1.37 3.50199,1.46 5.05899,1.52 0.654,0.03 1.021,-0.68 1.615,-1 0.92699,-0.49 1.66399,-1.37 2.55099,-2.26 1.056,-1.05 2.236,-2.12 3.30199,-3.49 3.24399,-4.15 6.59399,-9.06 8.53598,-15.55 0.193,-1.93 1.912,-3.33 3.83599,-3.14 1.925,0.19 3.33199,1.91 3.13899,3.84 0.594,5.62 0.287,10.66 -0.64999,15.42 -0.784,3.99 -2.297,7.41 -4.02599,10.38 -1.184,2.03 -2.647,3.73 -4.19599,5.12 -2.009,1.8 -4.19899,3.11 -6.44199,3.84 -2.50199,0.81 -4.97299,1.36 -7.44398,0.95 -2.77399,-0.45 -5.62499,-1.08 -8.04598,-3.21 -3.09299,-2.73 -6.11098,-6.58 -7.82698,-13.09 z"
     id="path1406"
     style="stroke:none;stroke-width:0.2" /><path
     d="m 246.2359,6050.8344 c -0.892,-1.71 -0.221,-3.8299 1.49599,-4.7199 1.716,-0.89 3.83399,-0.22 4.72499,1.49 1.477,1.7199 2.97099,2.8099 4.37199,3.8999 1.763,1.37 3.50199,1.46 5.05899,1.52 0.654,0.03 1.02099,-0.68 1.61499,-1 0.927,-0.49 1.664,-1.37 2.551,-2.26 1.05599,-1.05 2.23599,-2.1199 3.30199,-3.4899 3.24399,-4.15 6.59398,-9.06 8.53598,-15.55 0.193,-1.93 1.91199,-3.33 3.83599,-3.14 1.92499,0.19 3.33199,1.91 3.13899,3.84 0.594,5.62 0.287,10.66 -0.65,15.42 -0.784,3.9899 -2.29699,7.4099 -4.02599,10.3799 -1.184,2.03 -2.64699,3.73 -4.19599,5.12 -2.00899,1.8 -4.19899,3.11 -6.44198,3.84 -2.502,0.81 -4.97299,1.36 -7.44398,0.95 -2.774,-0.45 -5.62499,-1.08 -8.04598,-3.21 -3.093,-2.73 -6.11099,-6.58 -7.82698,-13.09 z"
     id="path1408"
     style="stroke:none;stroke-width:0.2" /><path
     d="m 311.44184,6021.7331 -25.89893,10.5 c -1.519,0.56 -3.228,0.23 -4.41999,-0.87 -1.192,-1.1 -1.664,-2.78 -1.223,-4.34 l 6.97598,-27.36 c 0.211,-0.74 0.59,-1.43 1.109,-2 0,0 35.44991,-41.56 66.73483,-77.1299 23.05095,-26.21 43.9449,-49.11 46.13889,-51.09 10.48797,-9.17 23.41394,-6.16 31.26692,0.89 8.03898,7.23 9.78898,17.9 3.57099,24.42 -1.99499,2.07 -23.90594,25.07 -48.85887,50.7099 -34.22592,35.18 -74.05282,75.37 -74.05282,75.37 -0.371,0.4 -0.832,0.7 -1.343,0.9 z m 112.72472,-137.1699 c -0.487,-0.76 -1.94799,-2.02 -2.81099,-2.71 -0.994,-0.79 -2.16599,-1.43 -3.42299,-1.83 -2.076,-0.65 -4.44599,-0.43 -6.49899,1.4 -1.55599,1.36 -12.53396,13.35 -27.28293,29.14 -12.51797,13.4 -27.67393,29.4899 -41.88889,44.5499 -22.18195,23.49 -42.0969,44.38 -46.07089,48.55 0,0 -5.52599,17.74 -5.52599,17.74 l 17.53196,-5.97 c 4.70599,-5.4 38.9389,-44.63 69.21283,-78.73 22.94794,-25.8499 43.63789,-48.6799 46.75688,-52.1399 z m 0.007,0.01 c -0.226,0.29 -0.424,0.62 -0.176,0.62 0.408,-0.01 0.407,-0.25 0.176,-0.62 z m 0.222,-0.26 c 0.013,-0.02 0.024,-0.03 0.036,-0.04 -0.012,0.01 -0.024,0.02 -0.036,0.04 z"
     id="path1410"
     style="stroke:none;stroke-width:0.2" /><path
     d="m 289.3259,6003.5931 c -1.409,-1.33 -1.476,-3.55 -0.15,-4.96 1.32699,-1.41 3.54699,-1.47 4.95499,-0.15 0,0 3.27899,0.46 7.94698,2.67 1.50599,0.72 3.08399,1.51 4.37598,2.77 1.309,1.27 2.093,2.84 2.899,4.33 2.42299,4.46 3.26799,7.64 3.26799,7.64 1.408,1.33 1.475,3.55 0.149,4.95 -1.326,1.41 -3.54599,1.48 -4.95499,0.15 0,0 -3.22199,-0.65 -7.82598,-2.8 -1.532,-0.71 -3.14499,-1.4 -4.49599,-2.63 -1.33299,-1.21 -2.21499,-2.74 -3.01999,-4.2 -2.49699,-4.53 -3.14699,-7.77 -3.14699,-7.77 z"
     id="path1412"
     style="stroke:none;stroke-width:0.2" /><path
     d="m 310.2864,5859.6337 c -1.934,0.04 -3.53499,-1.5 -3.57299,-3.43 -0.038,-1.94 1.50099,-3.54 3.43499,-3.58 0,0 17.71896,-2.3 40.5669,-4.3 5.20699,-0.45 10.66097,-0.82 16.23796,-1.12 3.58099,-0.19 7.20498,-0.38 10.83297,-0.4 9.27898,-0.07 18.53496,0.26 27.11293,0.63 22.89795,0.98 40.7009,2.52 40.7009,2.52 1.934,-0.03 3.535,1.51 3.573,3.44 0.038,1.93 -1.501,3.53 -3.435,3.57 0,0 -17.72795,2.25 -40.5699,4.13 -8.55697,0.7 -17.79195,1.4 -27.06693,1.7 -3.62599,0.11 -7.25398,0.07 -10.83997,0.02 -5.58499,-0.08 -11.04897,-0.23 -16.26996,-0.48 -22.90894,-1.09 -40.7049,-2.7 -40.7049,-2.7 z"
     id="path1414"
     style="stroke:none;stroke-width:0.2" /><path
     d="m 310.2864,5924.5006 c -1.934,0.04 -3.53499,-1.5 -3.57299,-3.43 -0.038,-1.94 1.50099,-3.54 3.43499,-3.58 0,0 6.92998,-2.05 16.42196,-3.82 2.11099,-0.4 4.29799,-0.7 6.57998,-0.93 1.451,-0.15 2.92,-0.29 4.39399,-0.28 3.80099,0.04 7.53098,0.49 11.01697,0.95 9.52998,1.27 16.55596,3 16.55596,3 1.934,-0.04 3.53499,1.5 3.57299,3.43 0.038,1.94 -1.50099,3.54 -3.43499,3.58 0,0 -6.95198,2 -16.42496,3.65 -3.46499,0.6 -7.17398,1.19 -10.97097,1.38 -1.472,0.07 -2.94599,-0.02 -4.40099,-0.11 -2.28999,-0.14 -4.48699,-0.35 -6.61198,-0.66 -9.55398,-1.4 -16.55996,-3.18 -16.55996,-3.18 z m 92.26677,-1.82 c -1.93399,0.04 -3.53499,-1.5 -3.57299,-3.43 -0.038,-1.94 1.501,-3.54 3.43499,-3.58 0,0 5.29999,-1.99 12.88697,-3.75 1.657,-0.39 3.36199,-0.68 5.16599,-0.9 1.13799,-0.14 2.29199,-0.28 3.45099,-0.26 3.00599,0.06 5.91998,0.52 8.65998,0.99 7.62098,1.33 13.02096,3.07 13.02096,3.07 1.934,-0.03 3.535,1.51 3.573,3.44 0.038,1.93 -1.501,3.53 -3.435,3.57 0,0 -5.32698,1.95 -12.88996,3.58 -2.719,0.59 -5.61199,1.16 -8.61398,1.34 -1.158,0.07 -2.316,-0.03 -3.45799,-0.13 -1.812,-0.15 -3.527,-0.37 -5.19799,-0.69 -7.65098,-1.46 -13.02497,-3.25 -13.02497,-3.25 z"
     id="path1416"
     style="stroke:none;stroke-width:0.2" /><path
     d="m 341.13432,5988.7576 c -1.93399,0.04 -3.53499,-1.5 -3.57299,-3.43 -0.038,-1.94 1.501,-3.54 3.43499,-3.58 0,0 13.61397,-2.22 31.31193,-4.11 4.01999,-0.44 8.22498,-0.78 12.53696,-1.05 2.764,-0.17 5.56199,-0.35 8.36398,-0.35 7.17599,-0.03 14.31797,0.34 20.94395,0.75 17.74596,1.08 31.44692,2.7 31.44692,2.7 1.934,-0.03 3.535,1.51 3.573,3.44 0.038,1.93 -1.501,3.53 -3.435,3.57 0,0 -13.62596,2.17 -31.31592,3.95 -6.60498,0.66 -13.72696,1.31 -20.89695,1.57 -2.80099,0.1 -5.60298,0.04 -8.37298,-0.02 -4.31799,-0.11 -8.53397,-0.28 -12.56796,-0.55 -17.75896,-1.2 -31.44993,-2.89 -31.44993,-2.89 z"
     id="path1418"
     style="stroke:none;stroke-width:0.2" /><path
     d="m 310.2864,6054.2346 c -1.934,0.04 -3.53499,-1.5 -3.57299,-3.43 -0.038,-1.94 1.50099,-3.54 3.43499,-3.58 0,0 17.71896,-2.3 40.5669,-4.3 5.20699,-0.45 10.66097,-0.82 16.23796,-1.12 3.58099,-0.19 7.20498,-0.38 10.83297,-0.4 9.27898,-0.07 18.53496,0.26 27.11293,0.63 22.89795,0.98 40.7009,2.52 40.7009,2.52 1.934,-0.03 3.535,1.51 3.573,3.44 0.038,1.93 -1.501,3.53 -3.435,3.57 0,0 -17.72795,2.25 -40.5699,4.13 -8.55697,0.7 -17.79195,1.4 -27.06693,1.7 -3.62599,0.11 -7.25398,0.07 -10.83997,0.02 -5.58499,-0.08 -11.04897,-0.23 -16.26996,-0.48 -22.90894,-1.09 -40.7049,-2.7 -40.7049,-2.7 z"
     id="path1420"
     style="stroke:none;stroke-width:0.2" /><path
     d="m 310.2864,6119.1015 c -1.934,0.04 -3.53499,-1.5 -3.57299,-3.43 -0.038,-1.94 1.50099,-3.54 3.43499,-3.58 0,0 17.71896,-2.3 40.5669,-4.3 5.20699,-0.45 10.66097,-0.82 16.23796,-1.12 3.58099,-0.19 7.20498,-0.38 10.83297,-0.4 9.27898,-0.07 18.53496,0.26 27.11293,0.63 22.89795,0.98 40.7009,2.52 40.7009,2.52 1.934,-0.03 3.535,1.51 3.573,3.44 0.038,1.93 -1.501,3.53 -3.435,3.57 0,0 -17.72795,2.25 -40.5699,4.13 -8.55697,0.7 -17.79195,1.4 -27.06693,1.7 -3.62599,0.11 -7.25398,0.07 -10.83997,0.02 -5.58499,-0.08 -11.04897,-0.23 -16.26996,-0.48 -22.90894,-1.09 -40.7049,-2.7 -40.7049,-2.7 z"
     id="path1422"
     style="stroke:none;stroke-width:0.2" /><path
     d="m 421.81112,5796.9937 c -0.07,0.15 -0.144,0.29 -0.223,0.43 0.056,-0.1 0.135,-0.27 0.223,-0.43 z m 0,0 c 0.525,-1.16 0.799,-2.82 1.1,-4.77 0.725,-4.71 0.858,-10.81 0.647,-17.18 -0.303,-9.18 -1.444,-18.91 -3.20999,-25.92 -0.41,-1.63 -0.686,-3.86 -1.116,-5.16 0.174,0.06 0.327,0.11 0.43,0.15 0.194,0.09 0.716,0.62 0.78,0.28 0.087,-0.46 -0.426,-0.58 -1.254,-0.56 -0.271,-0.77 -0.605,-1.16 -1.069,-0.83 -0.416,0.3 0.19,0.61 0.787,0.84 -1.208,0.05 -2.93499,0.32 -4.48399,0.31 -7.51698,-0.06 -19.34795,0.4 -32.86892,0.97 -15.27996,0.63 -32.68092,1.43 -48.49288,2.17 -19.43595,0.92 -36.45591,1.71 -44.16989,2.08 -0.936,4.84 -2.36899,12.94 -3.27499,21.3 -0.643,5.93 -1.06,11.98 -0.774,17.06 0.317,5.82 1.167,9.68 2.736,12.34 2.26499,3.85 5.81398,5 9.89997,6.52 1.835,0.61 2.82799,2.6 2.217,4.43 -0.612,1.84 -2.599,2.83 -4.43399,2.22 -5.97799,-1.77 -10.84098,-3.6 -14.44597,-8.87 -2.29299,-3.35 -4.01799,-8.25 -4.95099,-15.84 -0.66699,-5.52 -0.67699,-12.14 -0.37699,-18.64 0.64199,-13.94 2.77599,-27.27 2.77599,-27.27 0.491,-2.61 2.67099,-4.56 5.31899,-4.77 0,0 21.98594,-2.42 48.51488,-4.77 15.85196,-1.4 33.31191,-2.81 48.65887,-3.72 13.90597,-0.83 26.09494,-1.23 33.83192,-1.13 5.99599,0.08 9.97798,0.81 11.33497,1.41 2.411,1.07 5.28099,3.66 7.19298,8.31 2.1,5.1 3.733,13.65 4.46799,23.05 0.777,9.95 0.679,20.87 -0.436,29.25 -0.84099,6.33 -2.33899,11.39 -4.18098,14.22 -1.16,1.78 -3.382,3.77 -7.06699,5.03 -4.16899,1.43 -10.95297,2.43 -19.24395,2.87 -32.38392,1.7 -89.35478,-3.44 -89.35478,-3.44 -1.93099,-0.12 -3.40399,-1.78 -3.28799,-3.71 0.116,-1.93 1.777,-3.41 3.70799,-3.29 0,0 35.60991,0.98 66.21284,-0.31 13.67196,-0.57 26.29793,-1.58 34.04891,-3.45 1.932,-0.47 4.98399,-0.65 4.35299,-1.56 -0.159,-0.23 -0.359,0.07 -0.524,0.38 z m -2.57899,-53.03 c -0.104,-0.04 -0.215,-0.08 -0.326,-0.12 0.097,-0.01 0.192,-0.01 0.282,-0.01 0.015,0.04 0.03,0.08 0.044,0.13 z"
     id="path1424"
     style="stroke:none;stroke-width:0.2" /><path
     d="m 483.82497,5800.7137 c -0.384,-0.04 -0.78,-0.08 -1.176,-0.11 -9.25897,-0.78 -28.76793,-1.58 -53.23887,-2.26 -1.93499,0.01 -3.50899,-1.56 -3.51399,-3.5 -0.005,-1.93 1.562,-3.5 3.49599,-3.51 24.70994,-0.81 44.42589,-1.19 53.80587,-0.96 3.08899,0.07 5.19899,0.26 6.19999,0.46 2.33299,0.45 3.32199,1.78 3.73499,2.33 0.232,0.31 0.90099,1.54 1.19799,3.83 0.268,2.06 0.622,6.36 1.003,12.5 0.937,15.1 2.249,41.58 3.36799,73.18 0.541,15.29 1.066,31.78 1.394,48.7499 0.207,10.71 0.303,21.6 0.347,32.51 0.066,16.45 0.021,32.9 -0.132,48.76 -0.639,66.26 -2.089,121.92 -2.089,121.92 0.021,1.94 -1.53299,3.52 -3.46699,3.54 -1.93499,0.02 -3.52199,-1.53 -3.54299,-3.46 0,0 -2.16799,-44.61 -4.27599,-101.51 -0.793,-21.41 -1.59699,-44.53 -2.15299,-67.68 -0.384,-15.98 -0.651,-31.96 -0.767,-47.3699 -0.199,-26.3 -0.027,-50.92 -0.017,-71.07 0.011,-21.41 0.065,-37.72 -0.148,-45.52 -0.008,-0.28 -0.017,-0.56 -0.026,-0.83 z m -264.00635,5.84 c -0.43899,2.14 -0.041,6.8 -0.28,11.06 -1.38499,24.76 -0.33299,77.56 1.527,135.3399 0.963,29.87 2.184,61.06 3.37599,90.39 1.395,34.35 2.806,66.14 4.25799,90.26 0.938,15.57 1.796,27.92 2.748,35.61 0.17099,1.3799 0.39899,2.7899 0.59999,3.9299 1.34,0.23 3.098,0.5 4.81499,0.66 17.32596,1.65 54.27687,1.69 94.71477,1.2 73.79381,-0.9 159.0626,-3.68 159.0626,-3.68 1.932,-0.1 3.57999,1.39 3.67799,3.32 0.098,1.93 -1.39099,3.58 -3.32299,3.68 0,0 -134.84866,9.11 -212.27747,10.56 -22.59795,0.43 -40.4039,0.12 -48.84288,-1.06 -5.38499,-0.76 -8.41698,-2.73 -9.48398,-3.92 -0.762,-0.85 -2.07099,-3.12 -2.88499,-7.04 -1.21,-5.83 -2.59399,-18.0499 -3.86099,-34.6799 -1.517,-19.91 -3.01699,-46.3 -4.15599,-75.6 -0.929,-23.89 -1.614,-49.73 -2.04,-75.56 -1.13999,-69.1099 -0.55899,-138.1899 1.83,-170.2999 0.659,-8.86 1.525,-15.07 2.47899,-17.96 0.777,-2.35 1.949,-3.61 2.803,-4.16 1.38299,-0.88 6.64598,-2.07 15.00396,-2.7 11.70697,-0.89 30.32492,-1.51 52.37187,-1.89 1.934,-0.07 3.55999,1.44 3.62999,3.37 0.07,1.94 -1.443,3.56 -3.37599,3.63 -14.93696,0.83 -28.27893,1.69 -38.9299,2.58 -8.94198,0.74 -15.94696,1.5 -20.34495,2.26 -1.194,0.2 -2.482,0.54 -3.097,0.7 z m 0.024,-0.11 c 0.354,-0.21 1.727,-0.81 1.062,-1.03 -0.552,-0.19 -0.875,0.22 -1.062,1.03 z"
     id="path1426"
     style="stroke:none;stroke-width:0.2" /><path
     d="m 533.08785,5777.1137 c -1.196,-0.12 -2.844,-0.15 -4.33099,-0.34 -7.29798,-0.95 -19.00196,-1.7 -33.78292,-2.28 -17.78895,-0.7 -39.9569,-1.16 -64.25184,-1.36 -1.93499,0.02 -3.52599,-1.53 -3.55099,-3.46 -0.026,-1.94 1.524,-3.53 3.45799,-3.55 35.56391,-1.22 66.63084,-1.71 86.15079,-1.15 9.86897,0.28 16.92796,0.9 20.37495,1.73 2.17999,0.52 3.55299,1.37 4.30899,2 0.71199,0.6 1.60899,1.72 2.31599,3.56 0.845,2.21 1.751,6.84 2.56299,13.54 2.665,22.04 5.36599,68.78 7.09299,124.11 0.639,20.4999 1.09199,42.1899 1.36499,64.2199 0.264,21.34 0.302,42.99 0.276,64.22 -0.033,26.89 -0.247,53.08 -0.515,77.06 -0.74199,66.2899 -1.88899,115.5799 -1.88899,115.5799 0.005,1.93 -1.562,3.51 -3.49699,3.51 -1.934,0.01 -3.50799,-1.56 -3.51299,-3.49 0,0 -1.923,-66.2999 -4.08999,-148.4899 -0.834,-31.61 -1.727,-65.55 -2.442,-98.97 -0.482,-22.52 -0.86,-44.8 -1.18299,-65.9599 -0.586,-38.38 -1.008,-73.06 -1.916,-98.82 -0.561,-15.92 -1.187,-28.39 -2.065,-36.12 -0.24299,-2.15 -0.64099,-4.33 -0.87899,-5.54 z m 0.624,0.08 c 0.072,0.08 0.136,0.15 0.187,0.2 0.19299,0.17 0.67899,0.93 0.84599,0.54 0.177,-0.4 -0.261,-0.61 -1.03299,-0.74 z m -348.01314,11.78 c -0.087,0.32 -0.188,0.71 -0.26,1.05 -0.625,2.98 -1.104,7.77 -1.515,14.09 -1.99499,30.7 -1.51399,95.87 -0.092,167.1299 0.832,41.67 2.066,85.4 3.309,125.56 1.60399,51.78 3.28799,97.5899 5.35998,125.2299 0.759,10.12 1.481,17.7 2.286,22.06 1.25899,0.2 2.86899,0.44 4.43499,0.58 15.65596,1.47 48.67787,1.89 87.70078,1.86 96.40476,-0.09 229.12343,-3.15 229.12343,-3.15 1.93299,-0.07 3.55999,1.44 3.63199,3.37 0.071,1.94 -1.44,3.56 -3.37299,3.64 0,0 -166.42159,8.37 -262.04135,9.6 -27.59993,0.35 -49.37588,0.05 -59.77385,-1.08 -5.75799,-0.62 -9.16698,-2.22 -10.30698,-3.19 -0.894,-0.77 -2.32499,-2.52 -3.23099,-5.73 -1.02,-3.61 -2.12399,-11.23 -3.13599,-22.06 -2.134,-22.82 -4.30399,-60.7199 -5.80499,-105.0199 -1.10599,-32.64 -1.84899,-68.76 -2.21699,-104.89 -0.866,-85.13 0.305,-170.2699 3.35399,-210.0099 0.818,-10.65 1.838,-18.19 2.94699,-21.83 0.635,-2.09 1.464,-3.42 2.149,-4.12 0.89199,-0.92 2.74699,-2.1 5.74798,-2.97 3.48499,-1 9.08198,-1.98 16.41596,-2.86 17.87696,-2.14 46.47489,-3.88 79.6758,-5.18 1.931,-0.11 3.584,1.38 3.689,3.31 0.104,1.93 -1.38,3.58 -3.311,3.69 -22.55794,1.55 -42.96189,3.25 -59.26485,5.02 -13.59097,1.47 -24.28094,2.99 -30.90892,4.51 -1.772,0.4 -3.63799,1.05 -4.58899,1.39 z"
     id="path1428"
     style="stroke:none;stroke-width:0.2" /><path
     d="m 146.06381,6286.0135 c 1.68499,0.35 4.40199,0.87 7.08498,1.16 21.56795,2.34 67.96683,2.23 118.8137,1.44 88.58678,-1.38 190.53253,-5.06 199.74651,-4.94 4.62599,0.07 6.52398,-4.23 7.59498,-9.09 2.024,-9.18 0.58,-21.26 -1.519,-24.53 -1.06999,-1.61 -0.62999,-3.79 0.982,-4.85 1.612,-1.07 3.78899,-0.63 4.85899,0.98 2.69499,3.93 5.50799,18.63 3.36499,29.98 -1.72299,9.11 -6.66298,15.78 -15.28196,15.91 -7.83798,0.1 -82.7448,5.07 -159.43261,8.52 -37.7159,1.7 -75.85381,3.02 -106.68373,3.33 -28.45193,0.28 -50.80087,-0.39 -61.22185,-2.21 -3.41899,-0.6 -5.89398,-1.44 -7.40898,-2.24 -2.125,-1.13 -3.35699,-2.57 -4.09999,-3.83 -0.532,-0.91 -1.32,-2.95 -1.859,-6.18 -0.95099,-5.68 -1.97699,-17.35 -2.85399,-33.39 -1.84999,-33.84 -3.40799,-87.6099 -4.30899,-145.4699 -0.863,-55.39 -1.038,-114.54 -0.799,-163.55 0.218,-44.6799 0.913,-80.9399 1.939,-98.2999 0.411,-6.95 1.065,-11.22 1.586,-12.34 2.09499,-4.5 7.87098,-7.79 15.41296,-9.39 14.60096,-3.1 35.70991,-1.16 35.70991,-1.16 1.92899,0.15 3.36899,1.85 3.21599,3.77 -0.154,1.93 -1.84499,3.37 -3.77299,3.22 0,0 -15.74296,-1.03 -28.82493,1.07 -3.87599,0.62 -7.50498,1.52 -10.32497,2.86 -1.73,0.82 -3.138,1.74 -3.71699,3.08 -0.613,1.42 -0.669,8.93 -0.8,21 -0.423,38.82 1.35999,121.4299 3.73599,204.0499 1.084,37.66 2.30499,75.32 3.49399,108.8199 0.987,27.8 1.939,52.74 2.91299,72.43 0.777,15.72 1.518,28.07 2.315,35.8 0.142,1.37 0.121,2.84 0.141,4.05 z m 0.055,1.31 c 0.08,0.91 0.271,1.46 0.75099,1.32 0.397,-0.11 -0.29799,-0.67 -0.41399,-0.87 -0.073,-0.13 -0.192,-0.28 -0.337,-0.45 z"
     id="path1430"
     style="stroke:none;stroke-width:0.2" /><path
     d="m 480.70498,6248.1235 c 4.01699,6.05 7.35398,39.75 -8.99598,39.75 -16.34996,0 -324.7092,16.51 -332.05018,3.83 -7.34098,-12.67 -14.66596,-441.4698 -9.24397,-453.5698 5.42298,-12.09 46.99588,-8.78 46.99588,-8.78 -3.97499,114.7299 3.59599,413.8498 11.60497,420.7898 7.74498,6.71 208.59748,0.74 291.68928,-2.02 z"
     id="path1432"
     style="stroke:none;stroke-width:0.2" /></g>&#10;</svg>
