<?xml version="1.0" encoding="UTF-8" standalone="no"?>
<svg
   width="2726.5813"
   height="3099.2153"
   viewBox="0 0 2726.5813 3099.2153"
   version="1.1"
   xml:space="preserve"
   style="clip-rule:evenodd;fill-rule:evenodd;stroke-linejoin:round;stroke-miterlimit:2"
   id="svg5353"
   xmlns="http://www.w3.org/2000/svg"
   xmlns:svg="http://www.w3.org/2000/svg"><defs
   id="defs5353" />&#10;    <g
   id="vectorly-UNI-calendar-date"
   transform="matrix(5.3600513,0,0,5.3600513,-9270.9523,-90900.354)"
   style="stroke-width:0.186565"><path
     d="m 1982.5663,16974.009 c -0.08,0 -0.15,0 -0.22,0 -10.23,-0.7 -33.12,2.3 -77.0199,4.3 -18.0699,0.8 -39.6399,1.5 -65.2698,1.6 -19.3499,0.2 -41.0099,0 -65.2298,-0.5 -3.2,-0.1 -7.91,1.8 -12.77,4.1 -7.13,3.3 -14.36,7.5 -18.25,9.9 -0.63,17.2 -3.3299,91.6 -4.9899,147.9 -0.96,32.8 -1.63,59.3 -1.13,64.5 0.21,2 -1.17,3.7 -3.1,3.9 -1.92,0.2 -3.66,-1.2 -3.87,-3.1 -0.68,-5.3 -1.02,-32.2 -1.07,-65.5 -0.1,-64.1 0.75,-151.8 0.75,-151.8 0.05,-2.2 1.19,-4.2 3.04,-5.5 0,0 14.2999,-9.6 26.6299,-15 5.68,-2.5 11.08,-4 14.94,-4 38.6299,0.2 70.7098,-0.5 97.2497,-1.3 49.7499,-1.4 80.0298,-3.8 97.2998,-4.5 10.34,-0.4 16.6699,0 20.0299,1.2 5.62,1.9 7.62,5.4 7.7,9.9 0.83,56.2 4.82,111.4 9.35,156.6 5.37,53.4 11.5,92.8 14.93,102.9 0.66,1.8 -0.29,3.8 -2.11,4.5 -1.82,0.6 -3.83,-0.3 -4.48,-2.1 -4.44,-11.7 -14.31,-62.9 -22.17,-130.2 -4.52,-38.8 -8.3,-82.9 -10.2399,-127.8 z m -0.15,-3.5 z m 1.5199,3.5 c 0.34,0.5 0.69,0.8 0.84,0.4 0.1,-0.4 -0.29,-0.4 -0.84,-0.4 z"
     id="path4872"
     style="stroke:none;stroke-width:0.186565" /><g
     id="g186"
     style="stroke-width:0.186565"><path
       d="m 2115.8159,17326.109 c -1.43,-0.9 -6.01,-3.6 -10.56,-5.8 -13.1199,-6.3 -34.9199,-16.9 -64.3498,-40.7 -18.8199,-15.2 -40.7199,-36 -65.5498,-64.6 -3.79,2.4 -8.73,7.1 -15.51,13.2 -10.01,9 -23.5199,21.1 -41.9499,34.2 -18.4499,13.2 -41.8399,27.4 -71.5198,40.9 0.59,1.2 1.4,2.6 2.02,3.9 8.8,18.3 35.7499,55.5 65.0698,86.7 21.64,23 44.4699,42.8 62.4199,48.9 1.84,0.6 2.86,2.6 2.27,4.4 -0.59,1.9 -2.57,2.9 -4.41,2.3 -26.92,-8.2 -65.4899,-44.5 -95.2998,-79.2 -21.5299,-25.1 -38.4499,-49.4 -43.5999,-61.5 -1.9,-4.5 -2.25,-8 -1.87,-10.1 0.55,-3 2.3,-4.9 4.64,-6 71.2698,-33.4 105.1198,-71.2 122.4597,-86 5.43,-4.7 9.86,-7.3 13.19,-8.1 5.06,-1.2 9.12,0.1 12.4999,4 24.54,29 46.2399,49.9 64.6999,65.4 35.3599,29.6 59.1098,38.9 69.3498,45 7.17,4.2 9.41,8.6 8.98,12.9 -1.15,11.1 -11.8,29.6 -26.7099,49.5 -32.1,42.8 -82.7598,93.8 -82.7598,93.8 -1.34,1.4 -3.56,1.4 -4.96,0.1 -1.39,-1.3 -1.44,-3.6 -0.1,-5 0,0 38.4399,-41.5 68.3398,-81.3 16.94,-22.6 31.4299,-44.2 33.2099,-56.9 z m -269.8293,-23.6 c 0.82,-1 1.17,-1.8 0.02,-1.8 -0.62,0 -0.48,0.7 -0.02,1.8 z m 127.6397,-89.5 c 0,0 -0.01,0 -0.01,0 z m 2.41,1.6 c 0.63,0.2 1.08,0.2 0.94,-0.4 -0.07,-0.3 -0.57,0.2 -0.94,0.4 z m 139.9196,110.2 z"
       id="path4860"
       style="stroke:none;stroke-width:0.186565" /><path
       d="m 1998.5762,17319.309 c -2.42,4.4 -5.86,8.2 -10.02,10.9 -8.3099,5.4 -19.2199,7 -29.8699,0.9 -11.75,-6.9 -12.62,-21.6 -5.46,-33.6 6.17,-10.3 17.42,-18 28.5,-14.7 1.8799,0.5 3.0399,2.4 2.5799,4.2 -0.46,1.9 -2.3599,3.1 -4.2399,2.6 -7.78,-1.4 -14.44,5.2 -17.93,12.6 -3.09,6.6 -3.92,14.6 2.51,17.6 5.8,2.8 11.43,1.6 15.61,-1.5 4.2999,-3.2 6.9399,-8.6 6.5499,-14.3 -0.3,-5.3 2.77,-7.5 5.56,-8.5 1.66,-0.6 4.58,-1 7.98,1.2 2.78,1.7 8.82,8.1 13.56,17.5 6.84,13.7 11.3999,33.6 2.35,51.9 -6.81,13.3 -17.52,17.6 -29.21,16.8 -16.7199,-1.1 -35.2099,-13.2 -41.5499,-17.9 -1.61,-1.1 -2.05,-3.3 -0.98,-4.9 1.07,-1.6 3.24,-2 4.86,-0.9 5.97,3.5 23.12,12.9 37.9199,12.5 7,-0.1 13.27,-3.1 16.68,-11.3 4.47,-10.4 2.74,-21.2 -0.42,-30.1 -1.42,-4.1 -3.18,-7.8 -4.98,-11 z m 3.95,-15.7 c 0,-0.1 0,-0.2 0,-0.3 0,0.1 0,0.2 0,0.3 z"
       id="path4862"
       style="stroke:none;stroke-width:0.186565" /><path
       d="m 2078.656,17525.909 c 0.48,0 1.12,0 1.71,0 3.3,-0.1 8.45,-0.6 14.91,-1.4 18.5999,-2.2 47.7199,-7.5 74.7098,-15.7 20.9999,-6.4 40.7999,-14.4 52.4399,-25.1 -0.67,-1.5 -1.92,-3.6 -2.72,-5.5 -4.41,-10.7 -12.49,-27.6 -19.53,-51.1 -5.43,-18.1 -10.2,-40 -12.35,-65.9 -1.21,0.3 -2.7499,0.8 -4.1399,1.1 -7.04,1.4 -17.81,3.9 -33.57,5.2 -12.4099,1.1 -27.8999,1.5 -47.0798,0 -1.94,-0.1 -3.43,-1.7 -3.33,-3.7 0.1,-1.9 1.74,-3.4 3.68,-3.3 47.1598,1.1 71.0098,-7.7 81.7398,-9.9 5.5199,-1.2 8.9899,-0.2 10.9999,1.4 1.68,1.3 2.86,3.3 3.24,6.4 3.3,27.9 9.76,50.9 16.31,69.3 7.11,20.1 14.4499,34.8 18.5999,44.3 2.48,5.7 3.81,10 4.01,12.8 0.29,4 -1.08,6.8 -2.99,8.7 -13.0099,12.8 -36.0999,22.9 -61.1198,29.8 -23.68,6.5 -48.9699,10.4 -67.8799,12.4 -17.0699,1.7 -29.2799,1.6 -31.5099,0.8 -1.52,-0.5 -3.8,-2.1 -5.86,-5.4 -2.34,-3.6 -5.2399,-9.8 -8.1099,-17.1 -7.61,-19.3 -15.48,-46.2 -15.55,-51.3 -0.08,-2 1.42,-3.6 3.36,-3.7 1.93,-0.1 3.56,1.4 3.65,3.4 0.26,3.7 5.73,19.1 11.86,34.2 4.1899,10.2 8.7399,20.3 12.3599,26.3 0.67,1.1 1.61,2.3 2.16,3 z m 110.0897,-164.9 c 0.48,0.5 1.1,1.1 1.19,0.5 0.09,-0.5 -0.4,-0.6 -1.19,-0.5 z m 35.19,121.3 c 0.03,0 0.06,-0.1 0.1,-0.1 -0.04,0 -0.07,0.1 -0.1,0.1 z m -1.42,1.7 c -0.71,1 -1.16,1.9 -0.13,1.9 0.71,-0.1 0.6,-0.8 0.13,-1.9 z"
       id="path4864"
       style="stroke:none;stroke-width:0.186565" /><path
       d="m 2115.1159,17436.709 c -5.37,-7.6 -6.22,-17.2 -2.95,-25.6 3.87,-10 13.27,-18.5 26.84,-19.2 11.0299,-0.3 19.3199,6.1 21.4999,15.3 2.18,9.2 -1.44,21.7 -16.8099,29.8 -1.66,1 -3.81,0.5 -4.81,-1.1 -1,-1.7 -0.47,-3.9 1.19,-4.9 7.8899,-5.4 11.1099,-11.8 10.9699,-17.4 -0.14,-5.6 -4.8,-9.8 -10.9299,-9 -7.37,1 -12.14,5.9 -13.93,11.5 -1.67,5.2 -0.28,11.2 5.09,14.5 12.08,8.2 19.1499,17.5 21.9099,25.7 3.98,11.7 0.36,21.5 -8.24,25.8 -13.5299,6.6 -30.2799,-0.8 -35.1999,-16 -2.64,-8.2 -2.06,-18.7 5.37,-29.4 z m 5.65,6 c -3.53,7.5 -3.41,14.3 -1.08,19.6 3.36,7.7 11.96,11.9 18.7,7.8 1.42,-0.8 1.77,-2.4 1.74,-4.2 -0.03,-2.3 -1.1,-4.9 -2.75,-7.7 -2.85,-4.8 -7.76,-9.7 -14.84,-14.2 -0.61,-0.5 -1.2,-0.9 -1.77,-1.3 z"
       id="path4866"
       style="stroke:none;stroke-width:0.186565" /><path
       d="m 2159.9858,17284.809 c 0.29,0.1 0.58,0.3 0.87,0.4 4.94,2.7 10.24,7.3 14.63,15 5.23,9.2 9.55,22.7 10.9699,41.9 0.25,1.9 -1.11,3.7 -3.0299,3.9 -1.91,0.3 -3.67,-1.1 -3.92,-3 -2.23,-11.9 -5.37,-21.3 -8.95,-28.4 -2,9.8 -10.71,15.1 -19.43,14.3 -8.8899,-0.9 -19.6699,-8.8 -19.1199,-28.1 0.34,-7.6 4.1,-13.5 9.81,-16.3 -13.2,-14.3 -31.18,-26.6 -38.3999,-29.1 -1.87,-0.5 -2.95,-2.4 -2.42,-4.3 0.53,-1.9 2.47,-3 4.3299,-2.4 8.35,1.8 30.46,13 46.4899,27.6 2.99,2.7 5.74,5.6 8.17,8.5 z m -8.94,11.6 c -0.23,0 -0.47,0 -0.7,0 -2.12,0.3 -3.29,2.2 -3.23,4.5 0.06,5.1 1.25,8.7 3.2,10.8 1.86,2 5.07,1.3 5.23,-1.5 0.3,-3.9 -1.15,-8 -3.51,-12.2 -0.31,-0.5 -0.64,-1.1 -0.99,-1.6 z"
       id="path4868"
       style="stroke:none;stroke-width:0.186565" /><path
       d="m 1808.0867,17355.209 c -0.58,-3 -0.66,-5.9 -0.22,-8.5 2.54,-14.7 15.1699,-19.4 24.4699,-15.9 7.14,2.7 13.83,11 11.81,26.1 -1.29,8.3 -4.54,14.4 -8.76,18.3 0.89,0.7 1.81,1.4 2.77,2.1 9.21,6.8 21.49,12 36.1899,12.7 1.93,0 3.49,1.6 3.48,3.5 -0.01,2 -1.59,3.5 -3.52,3.5 -20.6699,0.8 -37.8499,-6.5 -49.5199,-16 -0.22,-0.2 -0.44,-0.4 -0.66,-0.6 -7.4399,0.9 -16.1999,-2.2 -23.7099,-10.9 -6.99,-8 -13.38,-21.3 -15.88,-40.2 -2.13,-16.1 -1.54,-36.4 3.39,-61.1 0.29,-1.9 2.08,-3.2 3.99,-2.9 1.91,0.3 3.23,2.1 2.94,4 -3.14,29.6 -0.41,52.1 4.8,68.2 2.37,7.4 5.26,13.2 8.43,17.7 z m 16.9099,8 c 1.78,-1.7 2.86,-4.8 3.46,-8.7 0.56,-3.3 0.52,-5.9 -0.3,-7.8 -0.37,-0.9 -0.77,-1.6 -1.46,-1.9 -2.2,-1 -4.44,1.1 -5.2499,4.6 -0.79,3.3 0.13,7.3 2.2299,11.4 0.4,0.8 0.84,1.6 1.32,2.4 z"
       id="path4870"
       style="stroke:none;stroke-width:0.186565" /><path
       d="m 1793.9767,17238.909 c 10.98,2.1 30.6899,2.8 51.9499,3 34.0099,0.2 71.8398,-1.3 85.5298,-3.4 1.91,-0.4 3.74,0.9 4.09,2.8 0.35,1.9 -0.91,3.7 -2.81,4.1 -13.77,2.9 -52.0399,7 -86.5698,8.6 -25.3399,1.1 -48.6499,0.8 -59.2899,-1.7 -1.54,-0.3 -3.47,-1.3 -5.0599,-3.8 -0.9,-1.4 -2.09,-4.7 -3.06,-9.6 -1.73,-8.9 -3.63,-24.9 -5.27,-44.9 -0.74,-9.1 -1.43,-19.1 -2,-29.6 -1.29,-23.9 -2.18,-50.7 -2.75,-76.8 -1.02,-47.6 -0.8,-93 0.05,-115.3 0.03,-2 1.61,-3.5 3.55,-3.5 1.93,0 3.48,1.6 3.46,3.6 0.27,15.6 1.7,42.6 3.57,73.7 1.39,23.3 3.1099,48.8 4.8199,73.7 1.17,17 2.4,33.7 3.48,49.1 1.33,18.9 2.48,35.8 3.71,48.8 0.9,9.6 1.71,17 2.6,21.2 z m -3.44,-0.8 c -0.02,0 -0.04,0 -0.06,0 0.02,0 0.04,0 0.06,0 z"
       id="path4874"
       style="stroke:none;stroke-width:0.186565" /><path
       d="m 1769.6968,17229.709 c 0.61,1.8 -0.38,3.8 -2.22,4.4 -1.83,0.6 -3.82,-0.4 -4.43,-2.2 -3,-7.7 -7.53,-37.9 -11.23,-75.6 -0.94,-9.6 -1.77,-19.7 -2.49,-30.1 -0.45,-6.6 -0.9,-13.3 -1.16,-20.1 -0.66,-16.9 -0.83,-34.1 -0.82,-50.3 0.02,-30.8 1.03,-58.4 1.99,-75.6 0.03,-2 1.61,-3.5 3.55,-3.5 1.93,0 3.49,1.6 3.46,3.6 0.56,17.1 2.61,44.4 4.65,75 1.08,16.2 2.25,33.2 3.14,50.1 0.35,6.7 0.56,13.4 0.78,20 0.34,10.3 0.63,20.4 0.89,30.1 0.45,17 0.82,32.5 1.38,45 0.66,14.5 1.35,25 2.51,29.2 z"
       id="path4876"
       style="stroke:none;stroke-width:0.186565" /><path
       d="m 1772.7268,17011.209 c -1.93,0.1 -3.54,-1.5 -3.59,-3.4 -0.04,-1.9 1.49,-3.5 3.42,-3.6 0,0 28.7099,-2.6 65.4498,-5.1 8.4,-0.5 17.21,-1 26.1899,-1.4 5.78,-0.2 11.63,-0.5 17.48,-0.6 14.94,-0.2 29.8799,-0.1 43.7099,0.1 36.8099,0.6 65.6098,1.8 65.6098,1.8 1.94,-0.1 3.55,1.5 3.59,3.4 0.05,1.9 -1.48,3.5 -3.42,3.6 0,0 -28.7099,2.6 -65.4498,4.9 -13.81,0.9 -28.7199,1.7 -43.6599,2.2 -5.85,0.2 -11.7,0.2 -17.48,0.2 -8.9999,0 -17.8199,0 -26.2299,-0.2 -36.8199,-0.6 -65.6198,-1.9 -65.6198,-1.9 z"
       id="path4878"
       style="stroke:none;stroke-width:0.186565" /><path
       d="m 1836.3466,17064.409 c 0.18,-0.2 0.47,-0.6 0.65,-0.9 0.65,-0.9 1.29,-1.9 2.03,-2.9 1.94,-2.7 4.42,-5.3 8.02,-7.4 2.85,-1.7 6.46,-2.9 11.24,-3.4 6.2899,-0.5 12.5899,-1.1 18.8699,-1.7 6.34,-0.6 12.66,-1.1 18.88,-1.7 20.7199,-1.8 40.3399,-3.8 56.5398,-6.2 19.13,-2.7 33.3399,-5.4 38.4699,-8.3 1.62,-1.1 3.79,-0.6 4.84,1 1.04,1.6 0.57,3.8 -1.06,4.9 -6.26,4.4 -26.6299,10.7 -53.6498,16.4 -14.74,3 -31.44,6.1 -48.8499,8.3 -10.81,1.3 -21.91,2.1 -32.8999,2.9 -7.13,0.4 -8.97,4.9 -11.17,7.5 -2.27,2.6 -4.68,4.6 -7.78,5.3 -1.69,0.5 -3.6,0.7 -5.83,0.2 -2.79,-0.5 -9.86,-4.3 -17.1799,-9.5 -8.16,-5.7 -16.94,-12.9 -20.48,-16.9 -2.77,-3.2 -6.06,-4.8 -9.54,-4.9 -3.86,0 -7.8199,1.5 -11.2599,4.2 -1.43,1.3 -3.65,1.2 -4.95,-0.2 -1.3,-1.4 -1.19,-3.6 0.25,-5 4.5,-4.5 10.03,-7.1 15.5999,-7.6 5.95,-0.6 11.95,1.4 17.27,6.3 3,2.8 9.73,7.2 16.47,11.3 6.3899,3.9 12.6999,7.6 15.5199,8.3 z m 0.54,0.1 c 0.01,0 0.01,0 0.01,0 z"
       id="path4880"
       style="stroke:none;stroke-width:0.186565" /><path
       d="m 1829.1066,17092.809 c -1.55,1.2 -3.75,0.9 -4.91,-0.7 -1.15,-1.5 -0.84,-3.7 0.71,-4.9 3.85,-3.8 9.72,-4.6 14.47,-1.4 2.72,1.8 4.88,5.7 6.12,12.4 0.28,1.8 1.17,7.6 1.75,15.3 0.34,4.5 0.67,9.7 0.62,15 -0.06,6 -0.58,12.2 -1.08,18.1 -1.26,14.9 -2.97,27.1 -2.97,27.1 0.01,1.9 -1.55,3.5 -3.48,3.5 -1.94,0 -3.52,-1.6 -3.53,-3.5 0,0 -1.89,-12.2 -3.42,-27 -0.6,-5.8 -1.25,-12 -1.43,-18 -0.17,-5.3 0.03,-10.5 0.25,-15 0.35,-7.4 1.05,-13 1.11,-14.7 0.13,-2.1 0.28,-3.7 -0.16,-4.9 -0.2,-0.6 0,-1.2 -0.36,-1.4 -1.12,-0.6 -2.53,-0.5 -3.69,0.1 z"
       id="path4882"
       style="stroke:none;stroke-width:0.186565" /><path
       d="m 1819.3867,17179.909 c -1.92,0.3 -3.68,-1.1 -3.93,-3 -0.25,-1.9 1.11,-3.7 3.03,-3.9 0,0 5.0399,-2.6 12.3699,-5.2 1.6,-0.5 3.26,-1 5.03,-1.4 1.11,-0.3 2.24,-0.5 3.4,-0.6 2.98,-0.3 5.92,-0.2 8.69,0 7.71,0.5 13.26,1.6 13.26,1.6 1.9199,-0.2 3.6799,1.1 3.9199,3.1 0.25,1.9 -1.1,3.6 -3.0199,3.9 0,0 -5.07,2.5 -12.4,5 -2.63,0.8 -5.44,1.7 -8.4,2.2 -1.14,0.2 -2.3,0.2 -3.44,0.3 -1.82,0 -3.54,0 -5.24,-0.2 -7.75,-0.6 -13.2699,-1.8 -13.2699,-1.8 z"
       id="path4884"
       style="stroke:none;stroke-width:0.186565" /><path
       d="m 1939.5764,17100.309 c 0.84,1.7 0.1,3.8 -1.65,4.6 -1.74,0.9 -3.83,0.1 -4.67,-1.6 -5.84,-10.5 -14.73,-14.1 -23.06,-12 -7.9299,1.9 -14.8999,9 -18.0199,19.3 -2.83,8.6 -2.39,18.3 -0.74,27.2 0.89,4.8 2.17,9.4 3.73,13.5 1.78,4.6 3.75,8.6 6.02,11.1 6.8399,7.8 17.7499,10.8 24.5999,0.3 4.79,-7.3 8.05,-19.3 8.32,-37.6 -0.08,-1.9 1.43,-3.5 3.36,-3.6 1.93,-0.1 3.57,1.4 3.65,3.4 1.54,16 0.33,27.9 -2.38,36.6 -2.17,7 -5.51,11.9 -9.18,15.3 -11.47,10.7 -27.7599,7.1 -39.2399,-4 -3.5,-3.5 -7.06,-8.9 -9.86,-15.7 -2.07,-4.9 -3.75,-10.6 -4.72,-16.6 -1.84,-11.4 -1.22,-23.9 2.97,-34.7 6.03,-14.7 17.57,-23.8 29.4799,-25.4 12.14,-1.6 24.88,3.9 31.39,19.9 z"
       id="path4886"
       style="stroke:none;stroke-width:0.186565" /></g></g>&#10;</svg>
