<?xml version="1.0" encoding="UTF-8" standalone="no"?>
<svg
   width="3679.7842"
   height="2333.5393"
   viewBox="0 0 3679.7842 2333.5393"
   version="1.1"
   xml:space="preserve"
   style="clip-rule:evenodd;fill-rule:evenodd;stroke-linejoin:round;stroke-miterlimit:2"
   id="svg5353"
   xmlns="http://www.w3.org/2000/svg"
   xmlns:svg="http://www.w3.org/2000/svg"><defs
   id="defs5353" />&#10;    <g
   id="vectorly-UNI-paper-plane"
   transform="matrix(4.9999999,0,0,4.9999999,-10.295341,-73071.225)"
   style="stroke-width:0.2"><path
     d="m 208.03265,14989.11 c -4.92898,0.8 -9.66297,1.2 -14.12996,1.2 -7.92398,-0.1 -13.42597,-2.9 -17.10196,-6.6 -4.84899,-4.8 -6.65498,-11.7 -5.76999,-18.4 1.663,-12.7 12.90397,-24.1 27.69894,-20.6 9.19697,2.4 16.36096,9 20.35995,19 0.90799,2.3 1.65599,4.7 2.23299,7.3 11.93497,-3.7 24.68694,-9.9 37.36291,-18.1 18.54995,-12.1 36.94391,-28.5 52.23287,-48.8 1.111,-1.6 3.29899,-2 4.88199,-0.9 1.58399,1.1 1.96699,3.3 0.85599,4.9 -17.83595,27.2 -40.81289,48.9 -63.81384,63 -10.17097,6.3 -20.36595,11 -30.12192,14.2 -0.117,10.3 -2.437,21.7 -7.40398,33 -12.28297,28 -40.3139,55.9 -88.42179,62.6 -1.90699,0.3 -3.71799,-1 -4.04199,-2.9 -0.32399,-1.9 0.962,-3.7 2.869,-4 34.74991,-7 57.14186,-25.3 69.78882,-45.7 8.12898,-13.2 12.13097,-27.1 12.52197,-39.2 z m -1.50599,-14.7 c -0.059,-0.2 -0.121,-0.4 -0.184,-0.6 -1.966,-7 -5.56099,-12.3 -11.35397,-13.6 -4.69599,-1.1 -7.65399,3.2 -8.22398,7.2 -0.272,1.9 -0.123,4 1.22699,5.4 1.319,1.4 3.44299,2.1 6.35399,2.2 3.84999,0.2 7.92698,0 12.18097,-0.6 z"
     id="path4046"
     style="stroke:none;stroke-width:0.2" /><g
     id="g165"
     style="stroke-width:0.2"><path
       d="m 470.715,14795.71 c 0.112,0.9 0.351,2.8 0.667,4.5 1.251,6.7 3.86299,16.9 6.98098,28.6 5.39899,20.3 12.42797,44.7 17.47496,61.9 8.41998,-20.8 22.15094,-54.5 37.17691,-90.8 32.25892,-78 70.34582,-167.6 70.34582,-167.6 0.715,-1.8 2.755,-2.6 4.55299,-1.9 1.797,0.7 2.67599,2.7 1.96,4.5 0,0 -33.89292,91.3 -63.98984,170.1 -22.97095,60.1 -43.7919,112.9 -43.7919,112.9 -1.25899,3.2 -4.38499,5.2 -7.78698,5 -3.40099,-0.1 -6.32998,-2.4 -7.29398,-5.7 0,0 -14.18196,-48.8 -23.04994,-84.7 -3.66499,-14.8 -6.38899,-27.6 -7.06998,-33.9 -0.315,-3 -0.18,-5.1 0.109,-6.2 0.247,-1 1.12799,-3.1 3.04099,-5.7 3.71399,-5.3 12.08997,-15.4 22.98094,-27.9 37.83791,-43.6 105.98174,-117.2 105.98174,-117.2 1.287,-1.4 3.50399,-1.5 4.94899,-0.2 1.44399,1.2 1.57199,3.5 0.285,4.9 0,0 -51.94588,60.7 -88.94578,105.5 -12.34797,14.9 -23.03495,28.1 -29.48393,36.6 -2.127,2.8 -4.24599,6 -5.09299,7.3 z"
       id="path4038"
       style="stroke:none;stroke-width:0.2" /><path
       d="m 364.21327,14747.81 c -0.244,1.4 -0.361,3.6 -0.736,5.5 -1.83,9.2 -3.91999,23.8 -6.03399,39.7 -3.04199,22.7 -6.05698,47.8 -7.79598,62.6 l 112.22872,-63.5 c 1.662,-1 3.81499,-0.4 4.80399,1.2 0.99,1.7 0.443,3.9 -1.219,4.9 l -120.5587,75.4 c -2.16799,1.3 -4.87798,1.3 -7.00798,-0.1 -2.13099,-1.3 -3.32199,-3.8 -3.07899,-6.3 0,0 5.25599,-64.6 10.45497,-101.6 1.547,-11 3.19199,-19.6 4.52499,-23.7 0.887,-2.8 2.041,-4.5 2.82899,-5.3 0.665,-0.7 3.704,-2.9 9.03198,-5.6 11.45897,-5.8 35.86791,-17.2 64.85584,-30.2 21.20195,-9.5 44.86289,-19.9 67.62583,-29.8 53.41287,-23.2 101.82675,-43.7 101.82675,-43.7 1.762,-0.8 3.84099,0 4.63899,1.7 0.798,1.8 0.015,3.9 -1.747,4.7 0,0 -44.48489,21.5 -95.01176,45.8 -32.63792,15.8 -67.76883,32.7 -94.94576,45.9 -16.08197,7.8 -29.37393,14.3 -37.64191,18.6 -2.86099,1.5 -5.81799,3.1 -7.04398,3.8 z m 0.048,-0.3 c 0.016,0 0.03,0 0.041,0 0.26,-0.3 1.52299,-1 0.91099,-1.3 -0.494,-0.2 -0.76299,0.3 -0.95199,1.3 z"
       id="path4040"
       style="stroke:none;stroke-width:0.2" /><path
       d="m 357.37528,14740.91 c 1.935,0 3.50099,1.6 3.49499,3.6 -0.006,1.9 -1.58099,3.5 -3.51499,3.5 l -170.69157,2.8 c -3.382,0 -6.24599,-2.5 -6.73299,-5.9 -0.487,-3.3 1.55,-6.5 4.78799,-7.5 0,0 42.4099,-13.6 100.46675,-31.3 20.79995,-6.4 43.62789,-13.2 67.22784,-20.1 33.38191,-9.8 68.30783,-19.7 101.16774,-29 82.5188,-23.4 152.02763,-42.6 152.02763,-42.6 1.85199,-0.6 3.80899,0.5 4.36499,2.3 0.557,1.9 -0.495,3.8 -2.347,4.4 0,0 -68.58283,22.3 -150.32562,48.3 -32.55092,10.3 -67.16384,21.3 -100.39976,31.5 -23.49594,7.3 -46.29688,14.2 -67.15083,20.4 -21.93195,6.4 -41.6899,12.2 -57.79986,16.8 z"
       id="path4042"
       style="stroke:none;stroke-width:0.2" /><path
       d="m 88.28795,15029.41 c -1.934995,0 -3.531991,-1.5 -3.564991,-3.5 -0.034,-1.9 1.509996,-3.5 3.443991,-3.5 0,0 28.28693,-2.5 64.49484,-4.6 8.27698,-0.5 16.95596,-0.9 25.80794,-1.3 5.69198,-0.2 11.44997,-0.4 17.21195,-0.5 14.72497,-0.1 29.43593,0.2 43.0569,0.5 36.25291,0.8 64.61184,2.2 64.61184,2.2 1.93499,-0.1 3.53199,1.5 3.56499,3.4 0.034,2 -1.51,3.6 -3.44399,3.6 0,0 -28.29393,2.4 -64.49784,4.4 -13.60197,0.8 -28.29593,1.6 -43.0169,1.9 -5.75998,0.2 -11.52197,0.2 -17.21795,0.1 -8.85898,0 -17.54696,-0.1 -25.83594,-0.3 -36.25991,-0.9 -64.61484,-2.4 -64.61484,-2.4 z"
       id="path4044"
       style="stroke:none;stroke-width:0.2" /><path
       d="m 73.004988,15023.41 c -0.651998,1.8 -2.659993,2.7 -4.480989,2.1 -1.821995,-0.7 -2.770993,-2.7 -2.118995,-4.5 3.102993,-10.3 11.062973,-20 21.335948,-25.3 7.096982,-3.6 15.281958,-5 23.893938,-3.3 -0.184,-7.1 0.746,-13.9 2.594,-20.3 2.92399,-10 8.17498,-19.1 15.08296,-26.8 8.94898,-10 20.66995,-17.6 33.26892,-22.5 9.50297,-3.6 19.52595,-5.7 29.30592,-5.9 24.58994,-0.6 47.61389,9.5 57.48186,33.1 0.828,1.7 0.08,3.8 -1.668,4.6 -1.74799,0.9 -3.83999,0.1 -4.66798,-1.6 -7.22499,-13.6 -19.55096,-20.6 -33.44992,-22.8 -13.27797,-2.2 -27.93293,0.5 -41.3399,6.4 -10.24197,4.5 -19.63195,11.1 -27.08493,19.4 -5.46899,6 -9.95898,12.9 -12.68097,20.7 -2.56599,7.4 -3.80699,15.5 -2.90999,24.3 0.336,2.4 -0.748,4.9 -2.797,6.2 -2.04799,1.4 -4.70798,1.5 -6.86198,0.3 -8.23098,-5.2 -16.678957,-5.4 -23.951939,-2.5 -8.562979,3.4 -15.625961,10.4 -18.950953,18.4 z"
       id="path4048"
       style="stroke:none;stroke-width:0.2" /><path
       d="m 253.65154,14956.21 c -1.543,1.2 -3.74299,0.9 -4.90999,-0.6 -1.16699,-1.6 -0.862,-3.8 0.681,-5 11.97197,-10.9 25.66594,-14.9 38.6229,-14.3 5.92799,0.3 11.65398,1.8 16.98796,4 3.64099,1.5 7.09099,3.4 10.20398,5.7 6.03698,4.5 11.03397,10.2 14.37396,16.6 7.67598,14.7 7.85998,32.5 -5.29099,47.5 -1.15099,1.5 -3.34799,1.9 -4.90298,0.7 -1.555,-1.1 -1.883,-3.3 -0.732,-4.9 6.67598,-10.9 5.89598,-21.9 1.259,-31.3 -3.06,-6.2 -8.16798,-11.3 -14.09997,-15.6 -5.71499,-4.1 -12.22997,-7.4 -19.47095,-8.7 -10.29698,-2 -21.60495,-1 -32.72192,5.9 z"
       id="path4050"
       style="stroke:none;stroke-width:0.2" /><path
       d="m 354.53329,14924.11 c -0.505,1.9 -2.42999,3 -4.29799,2.5 -1.86799,-0.5 -2.97399,-2.4 -2.46999,-4.3 2.57499,-10.4 -6.04599,-23.6 -18.62896,-30.7 -10.23597,-5.7 -23.41594,-7.3 -36.16191,0.4 -1.56399,0.9 -3.48199,0.9 -5.08698,0.1 -1.605,-0.8 -2.673,-2.4 -2.834,-4.2 -3.87799,-36.5 -34.64791,-61.5 -67.53283,-67.4 -31.43192,-5.7 -65.13284,6.6 -78.46281,45.2 -0.86899,2.4 -2.87899,4.3 -5.38698,5 -2.508,0.7 -5.19999,0.2 -7.21598,-1.5 -15.29997,-12.7 -31.355927,-12.4 -43.738896,-4.9 -13.468967,8.2 -22.751944,24.4 -22.400944,41.5 0.069,2.2 -0.855998,4.3 -2.507994,5.6 -1.651996,1.4 -3.847991,2 -5.954985,1.5 -16.18996,-3.7 -27.698932,5.3 -33.468917,16.5 -4.16399,8 -5.655986,17.2 -3.483992,23.9 1.358997,4.2 4.313989,7.3 9.281977,7.5 l 100.106751,2.7 c 1.935,0 3.50099,1.5 3.49599,3.5 -0.006,1.9 -1.58099,3.5 -3.51499,3.5 l -100.30675,1.2 c -10.335975,0 -16.9089584,-6 -20.0339506,-14.6 -3.32199178,-9.2 -2.1939946,-22 3.209992,-33.3 6.8359826,-14.3 20.3259496,-26 39.3539026,-25.5 1.746995,-19.5 12.748968,-37.3 28.12593,-47 15.044963,-9.6 34.246916,-11.7 53.344866,-0.5 18.82996,-39.2 56.86586,-51.6 92.25677,-44.4 35.60491,7.3 68.24883,34.7 74.51282,73.2 14.18696,-5.1 28.01893,-2.3 38.9179,4.4 15.47696,9.6 24.68694,27.1 20.88295,40.1 z"
       id="path4052"
       style="stroke:none;stroke-width:0.2" /><path
       d="m 433.87109,15018.71 c 1.935,0 3.50499,1.5 3.50499,3.5 0,1.9 -1.56999,3.5 -3.50499,3.5 l -70.16282,1.7 c -1.699,0 -3.29099,-0.8 -4.26499,-2.2 -7.16298,-9.8 -1.729,-24.5 9.51097,-33.3 7.30999,-5.7 16.69796,-8.7 25.68494,-6.5 3.15999,-18.2 12.60497,-32.4 25.52494,-39.5 13.23196,-7.2 30.49392,-7.4 49.44387,4 9.98898,-11 20.51395,-19.8 31.32193,-26.4 23.38194,-14.4 47.87188,-19.1 70.08682,-16.7 40.9449,4.5 74.37982,33.1 80.9258,71.2 10.97498,-3.8 22.24195,-4 31.60592,-0.6 12.37197,4.4 21.64595,14.6 22.60995,30.3 0.164,1.9 -1.267,3.6 -3.19399,3.8 -1.928,0.1 -3.626,-1.3 -3.79099,-3.2 -1.312,-12 -8.67898,-19.7 -18.36796,-22.7 -9.23298,-2.8 -20.47895,-1.4 -30.69892,4.3 -1.503,0.8 -3.30199,0.8 -4.80099,0 -1.498,-0.8 -2.501,-2.3 -2.67599,-4 -4.36899,-35.6 -35.48792,-61.7 -72.97082,-64.6 -19.28596,-1.6 -40.2109,3.1 -60.34785,15.7 -11.12198,7 -22.05295,16.2 -32.25292,28.3 -2.673,3.2 -7.35299,3.8 -10.69898,1.3 -14.99496,-11.3 -28.71993,-13.2 -39.3319,-7.8 -11.53497,6 -18.99695,19.7 -20.48895,36.7 -0.169,2.4 -1.632,4.5 -3.80899,5.4 -2.17599,1 -4.71399,0.7 -6.60498,-0.7 -6.33399,-5.1 -14.26097,-3.2 -20.14895,1.1 -4.06099,2.9 -7.36299,6.8 -8.59098,10.9 -0.489,1.7 -0.683,3.3 -0.33,4.9 z"
       id="path4054"
       style="stroke:none;stroke-width:0.2" /><path
       d="m 485.31097,15025.71 c -1.935,0 -3.528,-1.5 -3.557,-3.5 -0.029,-1.9 1.518,-3.5 3.452,-3.5 0,0 25.46593,-1.8 59.91185,-3.7 11.23397,-0.6 23.39894,-1.2 35.95491,-1.7 7.89398,-0.3 15.93096,-0.6 23.97594,-0.8 6.41798,-0.1 12.83797,-0.2 19.18495,-0.3 9.86598,0 19.55095,0.1 28.78793,0.3 38.2869,0.6 68.78583,1.7 72.16182,2 1.532,0.1 2.88099,-0.1 3.83099,-0.7 0.307,-0.2 0.619,-0.4 0.793,-0.6 0.069,-0.1 0.351,0.2 0.303,0.1 -0.469,-1.1 -2.039,-1.5 -4.64499,-1.8 -1.93,-0.1 -3.39399,-1.8 -3.26699,-3.7 0.126,-2 1.79599,-3.4 3.72699,-3.3 9.87197,0.2 12.47297,5.7 12.04697,9.8 -0.452,4.3 -5.36999,9.1 -13.02897,9.3 -3.36599,0 -33.66792,1.9 -71.72582,3.5 -9.22798,0.4 -18.90295,0.8 -28.76393,1 -6.34498,0.2 -12.76397,0.3 -19.18295,0.3 -8.04498,0 -16.08696,0 -23.98494,-0.1 -12.56397,-0.1 -24.73994,-0.4 -35.98591,-0.7 -34.48292,-0.9 -59.98885,-1.9 -59.98885,-1.9 z"
       id="path4056"
       style="stroke:none;stroke-width:0.2" /></g></g>&#10;</svg>
