<?xml version="1.0" encoding="UTF-8" standalone="no"?>
<svg
   width="2476.1055"
   height="2884.9846"
   viewBox="0 0 2476.1055 2884.9846"
   version="1.1"
   xml:space="preserve"
   style="clip-rule:evenodd;fill-rule:evenodd;stroke-linejoin:round;stroke-miterlimit:2"
   id="svg5353"
   xmlns="http://www.w3.org/2000/svg"
   xmlns:svg="http://www.w3.org/2000/svg"><defs
   id="defs5353" />&#10;    <g
   id="vectorly-UNI-scales-neraca"
   transform="matrix(4.9999999,0,0,4.9999999,-20522.885,-76722.525)"
   style="stroke-width:0.2"><path
     d="m 4120.7715,15695.848 c 0.6649,0.352 1.4581,0.587 2.0297,0.939 4.9109,2.58 12.5048,4.691 21.7784,6.334 10.0434,1.759 21.93,3.167 34.7497,3.401 15.9342,0.587 30.562,-0.352 41.9703,-2.346 7.6172,-1.407 13.7412,-3.167 17.6373,-5.513 1.0032,-0.586 1.8664,-1.055 2.4613,-1.759 0.3616,-0.352 0.7815,-0.587 0.8049,-1.056 0.047,-0.938 -0.6999,-1.877 -1.7848,-2.815 -1.3298,-1.056 -3.0678,-2.229 -5.2025,-3.284 -1.7731,-0.704 -2.5779,-2.815 -1.8081,-4.575 0.7699,-1.759 2.8346,-2.58 4.6193,-1.877 4.561,1.76 7.8622,3.989 9.8802,6.1 1.8197,1.994 2.5896,4.223 2.7063,6.451 0.1399,3.05 -1.3532,6.1 -4.5027,8.915 -3.1028,2.815 -8.2821,5.63 -15.0827,7.976 -12.5748,4.34 -31.0286,7.39 -51.6988,8.093 -11.2916,0.352 -21.965,-0.117 -31.4019,-1.29 -8.0371,-0.938 -15.1877,-2.463 -21.0901,-4.222 -7.3839,-2.229 -12.9831,-5.044 -16.4125,-7.977 -4.1527,-3.636 -5.9375,-7.624 -5.8442,-11.495 0.07,-3.05 1.0615,-6.099 3.5228,-8.797 3.2312,-3.636 9.7052,-7.39 18.9788,-9.853 12.8781,-3.402 31.5419,-5.161 52.2471,-4.457 6.8356,0.352 13.4146,0.821 19.632,1.642 7.0456,0.821 13.5779,1.994 19.4337,3.401 1.9014,0.352 3.1495,2.112 2.7996,4.106 -0.3616,1.877 -2.193,3.167 -4.0944,2.815 -5.7041,-0.821 -12.0382,-1.408 -18.8388,-1.642 -6.0191,-0.117 -12.3648,-0.117 -18.9321,0.117 -12.9247,0.469 -24.8812,2.111 -34.9714,4.106 -9.3319,1.994 -16.9141,4.457 -21.7783,7.272 -0.6066,0.352 -1.2598,0.821 -1.8081,1.29 z m -0.8399,-0.469 c 0.023,-0.469 0.035,-0.821 -0.2099,-0.704 -0.3033,0.235 -0.1633,0.469 0.2099,0.704 z"
     id="path4456"
     style="stroke:none;stroke-width:0.233946" /><path
     d="m 4108.821,15694.91 c 0.44,-1.9 2.32,-3.1 4.2,-2.6 1.89,0.4 3.07,2.3 2.64,4.2 -3.79,22.1 4.5,38.3 17.3899,49.4 8.32,7.2 18.62,12 28.9699,15 7.33,2 14.68,3.3 21.44,3.2 17.8099,0.3 30.4399,-4.8 39.3499,-12 14.01,-11.5 19.1899,-27.8 20.0899,-37 0.09,-1.9 1.73,-3.4 3.66,-3.3 1.93,0 3.43,1.7 3.35,3.6 0.11,10.8 -3.86,30.8 -19.0299,45.7 -10.1,9.9 -25.21,17.3 -47.1099,18.6 -8.27,0.2 -17.36,-0.9 -26.2599,-3.6 -12.4,-3.9 -24.54,-10.7 -33.82,-20.2 -14.2499,-14.5 -22.2899,-35.1 -14.8699,-61 z"
     id="path4496"
     style="stroke:none;stroke-width:0.2" /><path
     d="m 4332.7304,15399.81 c 0.55,0.4 3.13,2 5.22,2.9 5.99,2.6 14.52,5 23.67,7.3 20.1099,5.2 43.2298,9.6 51.1398,11.1 5.38,-3.4 17.93,-10.7 31.0599,-15.4 9.38,-3.4 19.05,-5.4 26.89,-4.2 16.7799,2.6 31.1099,11.7 43.5999,21.8 13.6299,11.1 24.8199,23.3 35.3699,26.7 5.62,1.8 10.9,0.5 16.2899,-5.8 1.22,-1.5 3.43,-1.7 4.93,-0.5 1.5,1.2 1.73,3.4 0.51,4.9 -7.4899,9.8 -15.5099,11.7 -24.0499,9.5 -9.64,-2.5 -20.32,-11.3 -32.4199,-20.7 -13.08,-10.1 -28,-21 -45.9099,-22.9 -5.98,-0.6 -13.18,1.5 -20.21,4.3 -15.5899,6.3 -30.1599,16.6 -30.1599,16.6 -1.62,1.2 -3.62,1.6 -5.57,1.3 0,0 -14.8499,-2.2 -32.4399,-5.9 -10.63,-2.2 -22.2499,-5 -32.2399,-8 -9.65,-2.9 -17.84,-6.1 -22.61,-9.2 -3.8599,-2.5 -6.0699,-5.3 -6.9299,-7.7 -3.77,-10.8 -14.23,-22.2 -28.64,-27.9 -11.7399,-4.6 -26.0399,-5.7 -41.7699,0.3 -18.1899,6.7 -31.5399,7.9 -41.3799,6.4 -13.8899,-2.2 -21.0899,-9.5 -24.8699,-14.6 -1.19,-1.6 -0.91,-3.8 0.61,-5 1.53,-1.1 3.74,-0.9 4.92,0.7 3.25,3.9 9.32,9.2 20.4199,10.3 8.77,0.8 20.46,-1.1 36.1899,-8 18.66,-8.1 36.08,-7.6 50.5299,-2.6 18.65,6.5 32.2199,20.8 37.8499,34.3 z m 0.31,0.8 c 0.01,0 0.01,0 0.01,0 z"
     id="path4498"
     style="stroke:none;stroke-width:0.2" /><path
     d="m 4387.3803,15395.21 c 0.5,1.8 -0.62,3.8 -2.49,4.3 -1.87,0.5 -3.79,-0.7 -4.28,-2.5 0,0 -7.16,-24.2 -7.16,-24.2 -0.47,3.2 -0.96,6.4 -1.45,9.4 -1.16,7 -2.46,12.8 -3.36,14.8 -1.79,4.1 -1.78,7.1 -0.74,9.6 1.74,4.1 5.64,6.7 8.24,9.3 1.17,1.3 1.83,2.9 1.84,4.6 0,0 1.06,33.5 1.62,79.1 0.2,16.3 0.28,34.2 0.21,52.7 -0.09,26.1 -0.48,53.4 -0.87,79.1 -0.97,64.4 -2.28,118.6 -2.28,118.6 0.01,1.9 -1.55,3.5 -3.48,3.5 -1.94,0 -3.52,-1.5 -3.53,-3.5 0,0 -1.94,-54.1 -3.67,-118.5 -0.69,-25.7 -1.4,-53 -1.8,-79.1 -0.28,-18.5 -0.42,-36.4 -0.41,-52.7 0.02,-38.2 0.49,-67.9 0.64,-76.5 -3.9599,-4.3 -8.5399,-9.2 -9.5999,-16 -0.66,-4.3 -0.2,-9.3 2.82,-15.4 1.02,-2 2.51,-8.8 4.05,-16.2 2.5999,-12.6 5.1099,-26.9 5.1099,-26.9 0.34,-2.3 2.25,-4.1 4.58,-4.2 2.32,-0.1 4.42,1.4 5.01,3.7 z"
     id="path4500"
     style="stroke:none;stroke-width:0.2" /><path
     d="m 4336.6804,15854.51 c -1.18,1.6 -3.38,1.9 -4.91,0.7 -1.54,-1.2 -1.83,-3.4 -0.65,-4.9 4.22,-6.7 5.96,-16.4 6.81,-28.9 0.38,-5.5 0.46,-11.5 0.5,-18.1 0.04,-5.7 -0.08,-11.8 -0.07,-18.3 0.02,-5.8 0.18,-12 0.25,-18.4 0.07,-6 0.26,-12.2 0.28,-18.7 0.09,-5.6 2.56,-11.2 9.24,-14.2 4.49,-2 10.97,-3 19.8199,-1.4 1.93,0.2 3.34,1.9 3.16,3.8 -0.19,2 -1.91,3.4 -3.83,3.2 -5.3799,0 -9.4499,0.9 -12.4799,2.2 -2.99,1.3 -4.26,3.5 -3.93,5.7 0.89,6.7 1.76,13.1 2.33,19.3 0.63,6.8 1.05,13.3 1.14,19.5 0.05,3.6 -0.07,7.1 -0.25,10.5 -0.31,5.6 -0.84,10.9 -1.54,15.8 -0.67,4.7 -1.46,9.1 -2.46,13.2 -3.15,12.9 -7.55,22.7 -13.41,29 z"
     id="path4502"
     style="stroke:none;stroke-width:0.2" /><path
     d="m 4389.4503,15739.11 c -1.93,-0.1 -3.44,-1.7 -3.38,-3.7 0.08,-1.9 1.7,-3.4 3.63,-3.3 5.58,-0.4 10.62,-0.3 14.3899,6.1 2.07,3.4 3.44,9.5 3.78,20.2 0.05,3.9 0.46,10.5 0.87,18.7 0.28,5.6 0.69,11.9 0.96,18.7 0.24,6 0.33,12.3 0.58,18.6 0.25,6.3 0.5,12.5 1,18.6 0.98,12 2.49,22.9 5.83,30.5 0.92,1.7 0.29,3.8 -1.41,4.7 -1.7,0.9 -3.83,0.3 -4.75,-1.4 -4.29,-6.5 -7.84,-15.8 -10.6299,-26.5 -2.24,-8.6 -3.93,-18 -5.15,-27.4 -0.48,-3.7 -0.88,-7.3 -1.14,-11 -0.26,-3.7 -0.39,-7.4 -0.43,-11 -0.05,-4.7 0.06,-9.2 0.24,-13.2 0.41,-8.8 1.16,-15.9 1.64,-20 1.12,-8 1.27,-12.7 0.21,-15.5 -1.15,-3.1 -3.77,-2.8 -6.24,-3.1 z"
     id="path4504"
     style="stroke:none;stroke-width:0.2" /><path
     d="m 4343.9604,15745.11 c -1.53,-1.2 -1.81,-3.4 -0.62,-5 1.18,-1.5 3.39,-1.8 4.92,-0.6 0,0 7.18,2.6 18.0499,2.7 1.82,0 3.73,-0.1 5.78,-0.2 1.84,0 3.77,0.1 5.8,0 3.17,-0.2 6.47,-0.3 10.13,-1 3.38,-0.6 6.8,-1.2 10.58,-2.6 1.66,-1 3.82,-0.4 4.8199,1.2 1,1.7 0.47,3.8 -1.1899,4.8 -3.58,3.3 -7.01,5.8 -10.58,7.9 -2.8,1.7 -5.54,2.8 -8.3,3.8 -3.36,1.1 -6.65,1.7 -9.79,1.9 -1.85,0.1 -3.64,0 -5.35,-0.3 -2.84,-0.4 -5.44,-1 -7.7999,-1.9 -2.75,-1 -5.11,-2.1 -7.16,-3.4 -6.23,-3.8 -9.29,-7.3 -9.29,-7.3 z"
     id="path4506"
     style="stroke:none;stroke-width:0.2" /><path
     d="m 4328.5604,15870.31 c -1.39,-1.3 -1.44,-3.5 -0.1,-4.9 1.33,-1.4 3.55,-1.5 4.95,-0.1 0,0 6.23,3.3 20.75,4.8 3.61,0.4 7.68,0.5 12.3399,0.8 2.6,0.1 5.36,0.4 8.31,0.6 4.86,0.4 10.1,0.9 16,1.1 5.13,0.1 10.47,0.4 16.4499,0.3 1.9,-0.4 3.72,0.9 4.04,2.8 0.33,1.9 -0.95,3.7 -2.86,4.1 -8.8199,2.8 -16.5799,4.9 -23.8499,6 -6.09,1 -11.63,1.4 -16.65,1.2 -2.38,-0.1 -4.62,-0.4 -6.7299,-0.8 -3.71,-0.6 -7.02,-1.4 -9.98,-2.4 -3.77,-1.2 -6.92,-2.5 -9.6,-3.9 -9.65,-5.1 -13.07,-9.6 -13.07,-9.6 z"
     id="path4508"
     style="stroke:none;stroke-width:0.2" /><path
     d="m 4429.4802,15850.51 c -1.83,-0.6 -2.79,-2.6 -2.16,-4.4 0.64,-1.9 2.64,-2.8 4.47,-2.2 11.4499,3.4 18.8799,7.5 23.2499,11.7 4.29,4.1 5.79,8.6 5.7,12.9 -0.11,5.3 -3.24,10.6 -8.89,15.4 -4.84,4.2 -11.7699,7.9 -19.9899,11 -9.32,3.4 -21.04,6 -33.8299,7.4 -10.9,1.2 -22.56,1.7 -34.05,1.3 -14.4699,-0.6 -28.6499,-2.6 -40.7099,-5.6 -10.9099,-2.8 -20.1299,-6.6 -26.5499,-11 -12.63,-8.9 -20.7699,-20.7 -11.2,-31.1 5.25,-5.7 17.64,-11.7 42.0699,-16.1 1.89,-0.4 3.77,0.8 4.19,2.7 0.43,1.9 -0.76,3.8 -2.65,4.2 -20.7099,5.6 -31.3099,10.9 -35.4199,16.2 -1.65,2.1 -0.81,4 0.66,5.9 2.16,2.7 5.67,5.1 9.39,7.3 5.59,3.4 13.55,5.7 22.7699,7.6 11.35,2.3 24.57,3.4 38.0399,3.9 10.82,0.4 21.78,0.4 32.09,-0.4 11.6599,-0.8 22.4599,-2.2 31.0999,-4.8 8.19,-2.3 15.02,-5.4 19.1799,-9.2 1.87,-1.7 3.32,-3.4 3.53,-5.4 0.27,-2.5 -1.15,-5.1 -4.2,-7.7 -3.6299,-3.2 -9.0999,-6.5 -16.7899,-9.6 z"
     id="path4510"
     style="stroke:none;stroke-width:0.2" /><path
     d="m 4283.8205,15867.81 c 0.02,-2 1.61,-3.5 3.54,-3.5 1.93,0 3.49,1.6 3.47,3.5 0.27,4.2 -0.1,12.7 2.95,19.5 1.28,2.9 3.46,5.2 6.94,6.4 5.28,1.9 10.36,3.5 15.27,4.9 8.0699,2.4 15.6699,4 23.0499,5.2 4.36,0.6 8.64,1.2 12.89,1.6 4.35,0.4 8.67,0.7 13.0199,0.8 10.69,0.3 21.52,-0.3 33.28,-1.6 10.4899,-1.2 21.5899,-2.7 33.8799,-4.7 1.89,-0.4 3.77,0.8 4.2,2.7 0.43,1.9 -0.75,3.7 -2.63,4.2 -18.14,5.4 -33.7399,9.9 -48.6599,12.4 -11.73,1.9 -22.9799,2.8 -34.3799,2 -9.28,-0.6 -18.65,-2.4 -28.38,-5.5 -8.4399,-2.6 -17.0699,-6.3 -26.3299,-10.8 -6.37,-3.3 -10.08,-8.2 -11.75,-14.1 -2.3999,-8.4 -0.77,-18.2 -0.36,-23 z"
     id="path4512"
     style="stroke:none;stroke-width:0.2" /><path
     d="m 4452.4401,15869.01 c -0.8,-1.8 -0.03,-3.9 1.73,-4.7 1.77,-0.8 3.85,0 4.65,1.8 0,0 1.74,1.8 4.08,5.6 0.79,1.2 1.27,2.6 1.87,4.2 0.54,1.5 0.71,3.1 0.86,4.8 0.1,1.1 0.06,2.2 -0.16,3.3 -0.41,2 -1.12,4 -2.37,5.9 -0.85,1.2 -1.56,2.4 -2.77,3.4 -2.39,2.1 -4.56,4 -8.18,5.2 -1.49,1.2 -3.7,1 -4.93,-0.5 -1.22,-1.5 -1,-3.7 0.5,-4.9 1.04,-1.8 1.12,-3.5 1.62,-5.2 0.37,-1.3 0.08,-2.4 0.26,-3.6 0.18,-1.1 -0.01,-2.2 0.16,-3.3 0.25,-1.5 0.89,-2.8 1.13,-4.2 0.85,-4.8 1.55,-7.8 1.55,-7.8 z"
     id="path4514"
     style="stroke:none;stroke-width:0.2" /><path
     d="m 4192.1108,15374.01 c 1.3,-1.5 3.52,-1.6 4.95,-0.3 1.44,1.3 1.55,3.5 0.25,5 -1.78,2.9 -2.02,7.9 -1.03,12.3 0.5,2.2 2.29,3.5 5.4599,3.8 2.26,0.7 4.67,0.5 5.98,-1.3 0.4,-0.5 0.98,-1 1.24,-1.6 0.98,-2.6 1.48,-5.7 0.06,-9.3 -1,-1.7 -0.48,-3.9 1.17,-4.9 1.66,-1 3.81,-0.4 4.82,1.2 6.08,6.9 6.16,14.2 4.33,20 -1.87,5.8 -7.06,9.7 -12.9,11.4 -2.44,0.6 -5.09,0.6 -7.7899,0.2 -2.09,-0.5 -3.96,-1 -5.53,-1.9 -5.22,-2.8 -8.4,-6.8 -9.38,-11.5 -0.56,-2.8 -0.82,-5.7 -0.14,-8.5 1.43,-6.1 4.8,-11.8 8.51,-14.6 z"
     id="path4516"
     style="stroke:none;stroke-width:0.2" /><path
     d="m 4115.601,15696.71 c -0.54,1.8 -2.49,2.9 -4.35,2.4 -1.85,-0.6 -2.92,-2.5 -2.37,-4.4 0,0 15.7899,-58.9 34.0899,-124.1 7.78,-27.8 15.99,-56.6 23.6599,-82.6 13.37,-45.2 25.08,-81.6 28.54,-88.7 1.54,-3.1 4.94,-4.8 8.3899,-4.3 3.44,0.5 6.14,3.2 6.66,6.7 0,0 7.96,54.9 16.44,117.3 11.12,81.7 23.2099,176.2 23.2099,176.2 0.29,1.9 -1.03,3.7 -2.95,4 -1.91,0.2 -3.7,-1.1 -3.98,-3 0,0 -16.2499,-93.8 -29.6999,-175.2 -5.47,-33.1 -10.45,-64.1 -13.9199,-85.9 -2.67,8.2 -5.75,17.7 -9.13,28.2 -8.73,27.1 -19.34,60.4 -29.8399,93.3 -22.68,71.1 -44.7499,140.1 -44.7499,140.1 z"
     id="path4518"
     style="stroke:none;stroke-width:0.2" /><path
     d="m 4188.4808,15713.91 c -0.11,1.9 -1.77,3.4 -3.7,3.3 -1.93,-0.1 -3.41,-1.8 -3.3,-3.7 0,0 0.32,-41.1 1.7,-93.5 0.32,-11.9 0.76,-24.5 1.29,-37.3 0.34,-8.2 0.69,-16.6 1.2,-24.9 1.3,-21.2 3,-42.4 4.63,-62.1 4.34,-52.2 8.52,-93 8.52,-93 0.11,-1.9 1.77,-3.4 3.6999,-3.3 1.93,0.1 3.41,1.7 3.3,3.7 0,0 -0.38,41 -1.88,93.4 -0.56,19.7 -1.24,41 -2.31,62.2 -0.4199,8.3 -0.9999,16.6 -1.5799,24.9 -0.9,12.7 -1.86,25.3 -2.87,37.2 -4.46,52.2 -8.7,93.1 -8.7,93.1 z"
     id="path4520"
     style="stroke:none;stroke-width:0.2" /><path
     d="m 4472.9517,15777.989 c 4.8745,2.259 12.2494,4.195 21.2315,5.808 9.7701,1.613 21.3156,2.904 33.7541,3.334 15.4746,0.645 29.678,-0.108 40.8453,-1.828 7.564,-1.076 13.6676,-2.582 17.6282,-4.517 1.3027,-0.646 2.3742,-1.291 3.0571,-2.044 0.2416,-0.215 0.5568,-0.322 0.5673,-0.645 0,-1.936 1.5758,-3.549 3.5088,-3.549 1.933,0 3.4983,1.613 3.4983,3.549 0.1366,2.689 -1.4077,5.485 -4.7274,8.066 -3.0991,2.474 -8.0997,4.732 -14.6131,6.775 -12.2074,3.872 -29.9301,6.561 -49.7645,7.421 -10.2848,0.323 -20.0444,0.108 -28.7955,-0.645 -12.0182,-1.076 -22.1665,-3.119 -29.2892,-5.7 -5.2108,-1.936 -9.0137,-4.302 -11.3355,-6.56 -2.952,-3.012 -4.1706,-6.238 -4.1496,-9.357 0.032,-3.119 1.1976,-6.453 4.1917,-9.357 2.3427,-2.258 6.1457,-4.517 11.3669,-6.345 12.3019,-4.302 33.7331,-6.775 58.0112,-6.023 13.2369,0.538 25.5388,1.936 35.8657,3.98 9.9067,1.936 18.0064,4.409 23.4798,7.205 1.7649,0.753 2.5528,2.797 1.7649,4.625 -0.7879,1.721 -2.8575,2.581 -4.6224,1.721 -5.2212,-2.044 -12.8167,-3.549 -21.988,-4.517 -10.0222,-1.076 -21.8409,-1.398 -34.5,-0.861 -12.4595,0.43 -24.026,1.721 -33.8171,3.442 -8.9612,1.613 -16.3045,3.656 -21.1685,6.022 z m -2.6789,1.183 c -0.5883,0.323 -0.9245,0.646 -0.5778,0.968 0.3887,0.215 0.5252,-0.322 0.5778,-0.968 z m 0,-2.258 c -0.042,-0.645 -0.1786,-1.183 -0.5463,-0.86 -0.3257,0.215 -0.021,0.537 0.5463,0.86 z"
     id="path4522"
     style="stroke:none;stroke-width:0.212588" /><path
     d="m 4540.7999,15448.81 c 1.6,-1.1 3.78,-0.7 4.87,0.9 1.09,1.6 0.68,3.8 -0.92,4.9 -2.6,2.6 -2.94,5.6 -2.72,8.2 0.08,1.1 0.81,1.8 1.29,2.7 0.29,0.5 0.87,0.7 1.29,1.1 0.81,0.8 1.98,1.1 3.26,1.1 1.55,0.3 3.08,0.6 4.33,0 1.13,-0.6 2.44,-1.1 2.93,-2.6 0.84,-2.5 1.38,-5.7 0.58,-9.9 -0.7,-1.8 0.2,-3.8 2,-4.5 1.8,-0.7 3.84,0.2 4.53,2 4.4299,7.2 4.7199,13.1 3.8599,17.8 -0.38,2.1 -1.42,3.8 -2.4499,5.4 -2.48,4 -6.75,6.2 -11.52,7.4 -1.73,0.4 -3.57,0.4 -5.44,0.3 -2.8,-0.2 -5.44,-0.9 -7.65,-2.2 -5.39,-3.2 -9.3,-8.6 -9.42,-14.8 -0.13,-6.6 2.49,-14 11.18,-17.8 z"
     id="path4524"
     style="stroke:none;stroke-width:0.2" /><path
     d="m 4546.5699,15515.11 c -4.24,15 -9.63,33.5 -15.64,53.7 -7.9099,26.5 -16.8999,56 -25.6499,84.2 -20.51,66.4 -39.5899,126.1 -39.5899,126.1 -0.55,1.8 -2.5,2.9 -4.35,2.3 -1.86,-0.5 -2.92,-2.4 -2.38,-4.3 0,0 17.81,-66.1 36.9799,-136.6 7.58,-27.9 15.39,-56.4 22.35,-81.9 5.7499,-21 10.9399,-39.9 14.8799,-54.5 4.36,-16.2 7.32,-26.7 7.34,-28.5 0.07,-4.1 3.31,-7.6 7.46,-7.8 4.15,-0.3 7.81,2.6 8.43,6.8 0,0 8.1499,56.7 16.8299,121.1 11.38,84.4 23.77,181.9 23.77,181.9 0.29,1.9 -1.03,3.7 -2.95,4 -1.91,0.2 -3.69,-1.1 -3.98,-3 0,0 -16.57,-96.9 -30.2799,-180.9 -5.08,-31.2 -9.76,-60.6 -13.22,-82.6 z"
     id="path4526"
     style="stroke:none;stroke-width:0.2" /><path
     d="m 4531.4299,15794.01 c -0.13,1.9 -1.8,3.4 -3.73,3.2 -1.93,-0.1 -3.39,-1.8 -3.27,-3.7 0,0 0.78,-42 2.73,-95.6 0.45,-12.3 1.03,-25.1 1.7,-38.2 0.43,-8.5 0.87,-17 1.47,-25.5 1.53,-21.7 3.46,-43.4 5.31,-63.5 4.91,-53.4 9.54,-95.2 9.54,-95.2 0.13,-1.9 1.8,-3.4 3.73,-3.3 1.93,0.2 3.39,1.8 3.27,3.8 0,0 -0.84,42 -2.91,95.6 -0.78,20.1 -1.68,41.9 -2.99,63.7 -0.51,8.5 -1.18,17 -1.85,25.4 -1.04,13.1 -2.13,25.9 -3.28,38.1 -5.03,53.4 -9.72,95.2 -9.72,95.2 z"
     id="path4528"
     style="stroke:none;stroke-width:0.2" /><path
     d="m 4592.8798,15799.31 c 0.43,-1.8 2.31,-3 4.2,-2.6 1.88,0.4 3.06,2.3 2.63,4.2 -3.23,19.1 -12.61,33.8 -23.93,44.4 -8.3,7.7 -17.7299,13.1 -26.5599,16.5 -8,3 -15.62,4.2 -21.69,4 -9.3299,-0.5 -17.8399,-2.2 -25.3999,-5 -13.29,-5 -23.8199,-13.2 -31.3599,-23 -13.82,-18 -17.92,-41.1 -11.84,-60.6 0.48,-1.9 2.39,-3 4.26,-2.5 1.88,0.5 3.01,2.4 2.53,4.3 -3.41,17 2.13,36.1 15.18,50.2 6.7399,7.4 15.6299,13.2 26.4999,16.8 6.3,2.1 13.26,3.6 20.9399,4 4.45,0.3 10.03,-0.5 16.04,-2.3 7.56,-2.3 15.73,-6.2 23.2899,-12 10.79,-8.3 20.47,-20 25.21,-36.4 z"
     id="path4530"
     style="stroke:none;stroke-width:0.2" /></g>&#10;</svg>
