<?xml version="1.0" encoding="UTF-8" standalone="no"?>
<svg
   width="3590.6533"
   height="1448.9801"
   viewBox="0 0 3590.6533 1448.9801"
   version="1.1"
   xml:space="preserve"
   style="clip-rule:evenodd;fill-rule:evenodd;stroke-linejoin:round;stroke-miterlimit:2"
   id="svg5353"
   xmlns="http://www.w3.org/2000/svg"
   xmlns:svg="http://www.w3.org/2000/svg"><defs
   id="defs5353" />&#10;    <g
   id="vectorly-UNI-ship-boat"
   transform="matrix(4.9999999,0,0,4.9999999,-145.68979,-93556.583)"
   style="stroke-width:0.2"><path
     d="m 150.3898,18972.708 c -13.07697,7 -27.26894,12.4 -41.2599,16.1 -39.486904,10.6 -76.366812,9.8 -76.366812,9.8 -1.932995,0.1 -3.556991,-1.4 -3.622991,-3.4 -0.067,-1.9 1.447996,-3.5 3.381991,-3.6 0,0 28.177931,-2.6 60.82985,-12.3 9.442972,-2.8 19.234952,-6.2 28.878932,-10.3 9.24497,-3.9 18.35195,-8.4 26.69193,-13.9 2.47099,-1.5 4.76199,-1.6 6.80598,-1.2 1.737,0.4 3.52499,1.3 5.06899,3.2 0.844,1.1 1.845,3 2.80199,5.6 2.245,6.3 6.72899,19.5 29.13993,24 16.05296,3.3 39.9949,2.8 76.45181,-6 1.86,-0.5 3.80299,0.6 4.33699,2.4 0.534,1.9 -0.542,3.8 -2.40099,4.4 -37.89991,12.6 -63.38285,15.2 -80.6728,12.8 -27.03094,-3.6 -35.94391,-18.1 -40.0649,-27.6 z m -1.768,-4.4 c -0.252,-0.7 -0.249,-2 -0.694,-1.7 -1.076,0.5 -0.416,1.1 0.694,1.7 z m 8.58698,0.5 c 0.082,-0.1 0.164,-0.1 0.246,-0.2 -0.082,0.1 -0.164,0.1 -0.246,0.2 z"
     id="path5216"
     style="stroke:none;stroke-width:0.2" /><path
     d="m 357.71828,18948.708 c -1.32899,2 -2.75899,3.9 -4.28399,5.8 -3.75599,4.6 -8.11098,8.9 -12.73497,12.8 -6.92998,5.8 -14.44496,10.8 -21.71594,14.9 -18.81696,10.8 -35.49891,16.1 -35.49891,16.1 -1.78,0.8 -3.83999,0 -4.59699,-1.8 -0.757,-1.8 0.073,-3.9 1.85299,-4.6 0,0 14.54997,-8 31.04893,-20.5 6.15498,-4.7 12.50996,-10 18.56395,-15.7 3.83099,-3.7 7.49198,-7.5 10.89797,-11.4 5.11899,-5.9 9.74598,-12 12.46497,-18.9 4.32199,-10.4 11.93197,-6.1 13.44497,-3.6 0.47,0.7 1.399,2.4 1.49999,5 0.123,3.3 -0.32799,9.9 -0.55699,17.5 -0.254,8.3 -0.375,17.7 1.75199,23.9 0.768,1.8 -0.05,3.8 -1.82599,4.6 -1.775,0.8 -3.83999,-0.1 -4.60799,-1.8 -2.92199,-5.6 -4.60899,-14.1 -5.70399,-22.3 z"
     id="path5218"
     style="stroke:none;stroke-width:0.2" /><path
     d="m 485.18497,18937.708 c -7.80998,11.1 -18.01096,20.1 -29.53393,27.2 -5.36699,3.3 -11.03097,6.2 -16.85196,8.6 -11.82397,4.8 -24.17894,7.9 -35.79291,9.8 -29.96393,5 -54.78486,2.6 -54.78486,2.6 -1.934,-0.1 -3.477,-1.6 -3.443,-3.6 0.034,-1.9 1.632,-3.5 3.566,-3.4 0,0 23.62594,-1.6 51.76187,-9.1 10.54397,-2.8 21.65494,-6.5 32.54592,-11.1 8.59997,-3.6 17.08495,-7.7 24.82693,-12.9 7.64799,-5.2 14.74397,-11.1 20.44395,-18.4 3.73299,-4.8 7.37099,-5.3 9.94298,-4.4 1.92799,0.6 4.11799,2.1 5.38499,5.1 2.83199,6.8 2.50499,24.6 -1.688,33.5 -0.714,1.8 -2.75299,2.7 -4.55099,2 -1.79799,-0.7 -2.67799,-2.8 -1.96299,-4.6 1.80699,-5.5 1.60699,-15 0.136,-21.3 z m 2.51699,-3.9 c 0.28,0 0.439,-0.1 0.238,-0.3 -0.1,-0.1 -0.162,0.1 -0.238,0.3 z"
     id="path5220"
     style="stroke:none;stroke-width:0.2" /><path
     d="m 488.86196,18984.608 c -1.24,1.5 -3.45199,1.7 -4.93699,0.5 -1.485,-1.3 -1.684,-3.5 -0.444,-5 0,0 13.45697,-19.1 36.87991,-38.9 5.24599,-4.4 11.03897,-8.8 17.28196,-13 3.93899,-2.6 8.04998,-5.2 12.38597,-7.5 10.42897,-5.6 21.84994,-10.2 33.85991,-13.4 17.17096,-4.5 35.46991,-5.8 54.19387,-2.7 1.92399,0.2 3.32499,1.9 3.12499,3.9 -0.199,1.9 -1.923,3.3 -3.84699,3.1 -11.59897,-0.4 -22.69595,1.1 -33.40292,3.8 -11.04097,2.7 -21.45795,6.8 -31.37192,11.5 -6.17199,3 -12.09397,6.2 -17.82596,9.4 -6.06998,3.5 -11.91597,6.9 -17.40495,10.4 -7.39999,4.8 -14.19597,9.5 -20.20395,14 -17.52096,13.1 -28.28893,23.9 -28.28893,23.9 z"
     id="path5222"
     style="stroke:none;stroke-width:0.2" /><path
     d="m 649.37056,18946.408 c -0.245,0.1 -0.49,0.2 -0.735,0.2 -7.36398,1.9 -14.72996,4.3 -21.89995,7.2 -9.05597,3.7 -17.79495,7.8 -25.72593,12 -21.30595,11.3 -36.75091,22.7 -36.75091,22.7 -1.454,1.3 -3.66999,1.2 -4.94599,-0.3 -1.27699,-1.4 -1.132,-3.7 0.321,-4.9 0,0 13.98197,-14.4 34.70392,-28.6 7.92698,-5.4 16.82695,-10.7 26.28893,-15 7.84298,-3.7 16.07296,-6.7 24.35994,-8.5 8.88898,-2 17.83996,-2.6 26.44893,-1.8 4.75799,0.5 6.51799,2.8 7.06199,3.9 0.80999,1.6 2.25099,7.5 -4.21299,10.8 -2.6,1.3 -8.10598,3.5 -13.29197,7.2 -3.44199,2.5 -6.89698,5.6 -8.84098,9.8 -2.33299,5.1 -2.75899,11.5 0.665,19.7 0.857,1.8 0.146,3.9 -1.588,4.7 -1.73299,0.9 -3.83799,0.2 -4.69498,-1.6 -8.03298,-13.8 -5.82099,-24.7 -0.832,-33 0.977,-1.6 2.23999,-3.1 3.66899,-4.5 z m 16.23096,-10.9 c 1.91199,-1.4 2.88899,-2.5 2.16499,-3.6 -0.778,-1.1 -1.52299,1.7 -1.70499,2.1 -0.198,0.5 -0.352,1 -0.46,1.5 z m 4.97599,8 c 0.031,0 0.063,0 0.094,0 -0.031,0 -0.062,0 -0.094,0 z"
     id="path5224"
     style="stroke:none;stroke-width:0.2" /><path
     d="m 674.5885,18991.408 c -1.53,1.2 -3.73299,0.9 -4.91799,-0.6 -1.185,-1.6 -0.905,-3.8 0.624,-4.9 0,0 6.81698,-7.7 18.47995,-15.9 2.54199,-1.7 5.34199,-3.4 8.35298,-5 1.884,-1 3.84299,-2 5.91799,-2.8 5.00598,-2 10.40097,-3.4 15.96396,-4.2 8.27898,-1.3 16.62195,-1.3 24.87993,0.2 1.934,0.1 3.447,1.7 3.377,3.6 -0.069,1.9 -1.695,3.5 -3.629,3.4 -7.35998,0.8 -14.24196,3.3 -21.12194,6 -3.87099,1.5 -7.54598,3.2 -11.23097,4.8 -2.569,1.1 -5.11999,2.1 -7.58999,3.1 -4.16499,1.7 -8.08098,3.2 -11.63297,4.6 -10.51397,4.3 -17.47295,7.7 -17.47295,7.7 z"
     id="path5226"
     style="stroke:none;stroke-width:0.2" /><path
     d="m 46.362054,18823.908 c -0.119,1.3 0.279999,4 0.520999,6 0.850998,7.4 3.730991,17.6 8.05498,29.4 4.576989,12.5 10.750973,26.8 17.913955,41.2 13.852966,27.9 31.366922,56.7 48.285882,75.5 1.314,1.4 1.228,3.7 -0.192,5 -1.42,1.3 -3.63899,1.2 -4.95299,-0.2 -25.044936,-26.4 -51.92887,-72.9 -67.447831,-109.2 -9.733976,-22.7 -14.668964,-41.9 -13.017968,-50.3 0.952998,-4.8 3.653991,-7.5 7.102982,-8.6 1.575996,-0.5 7.543982,-0.7 17.172958,-0.3 24.30994,1.1 74.932809,5.1 136.794659,10.8 28.41593,2.6 59.20685,5.6 90.89978,8.9 19.94195,2.1 40.2409,4.3 60.52785,6.6 52.51787,5.9 104.98474,12.4 151.10262,18.4 82.9388,10.8 145.50464,20.6 151.98462,23.9 11.66398,6.1 26.87994,17 39.30791,28.4 9.76397,8.9 17.80395,18 21.32894,25.1 2.956,5.9 2.747,12.6 0.833,18.9 -3.60999,12 -13.09597,22.7 -13.09597,22.7 -1.27199,1.4 -3.48799,1.6 -4.94598,0.3 -1.457,-1.3 -1.608,-3.5 -0.336,-4.9 0,0 8.08698,-9.6 10.94397,-20.2 1.193,-4.4 1.465,-9 -0.693,-13.1 -4.09699,-7.6 -14.42496,-17.7 -26.02593,-26.9 -10.70698,-8.6 -22.55695,-16.4 -31.96892,-21 -2.642,-1.2 -14.99797,-3.1 -34.35192,-5.7 -32.85392,-4.5 -85.09279,-10.4 -144.88764,-17 -40.1219,-4.4 -83.64479,-9 -126.99368,-13.7 -28.63693,-3.1 -57.19386,-6.3 -84.65079,-9.3 -68.59783,-7.6 -130.33468,-14.4 -169.290585,-17.9 -22.155945,-2 -36.531909,-3.3 -39.923901,-2.8 z m 0.006,-0.1 c 0.477999,-0.2 1.011998,-0.4 0.695998,-0.7 -0.424999,-0.2 -0.627998,0.1 -0.695998,0.7 z"
     id="path5228"
     style="stroke:none;stroke-width:0.2" /><path
     d="m 347.21531,18947.108 c 1.87999,0.5 3.03499,2.4 2.57799,4.2 -0.458,1.9 -2.35499,3.1 -4.23399,2.6 0,0 -38.4729,-7.3 -87.35878,-17.6 -11.18497,-2.4 -22.88994,-5 -34.79991,-7.7 -7.66099,-1.7 -15.40997,-3.5 -23.12095,-5.4 -19.69995,-4.9 -39.2919,-10.2 -57.41086,-15.1 -48.181876,-13.2 -85.745783,-24.3 -85.745783,-24.3 -1.878995,-0.5 -3.033992,-2.4 -2.576993,-4.3 0.456999,-1.8 2.353994,-3 4.233989,-2.5 0,0 38.461905,7.4 87.315787,17.8 18.37195,3.9 38.2069,8.2 57.96285,12.9 7.73198,1.8 15.42496,3.8 23.02895,5.8 11.82297,3 23.40494,6.1 34.42391,9.2 48.15788,13.3 85.70379,24.4 85.70379,24.4 z"
     id="path5230"
     style="stroke:none;stroke-width:0.2" /><path
     d="m 44.262059,18824.508 c 0.546999,1.8 -0.514998,3.8 -2.369994,4.3 -1.855995,0.6 -3.80599,-0.5 -4.353989,-2.4 -2.705993,-7.5 -4.228989,-23.4 2.053995,-34.8 3.92399,-7.1 10.805973,-12.4 21.812946,-13.7 4.250989,-0.5 20.829948,-0.7 42.241893,0.1 8.58098,0.3 17.95096,0.8 27.59193,1.5 13.67997,1 27.88793,2.4 41.2529,3.8 33.66392,3.6 61.75385,7.2 61.75385,7.2 1.92999,0.2 3.38899,1.8 3.25599,3.8 -0.133,1.9 -1.808,3.4 -3.73799,3.2 0,0 -28.30393,-0.2 -62.11985,-1 -13.41396,-0.3 -27.66893,-0.6 -41.35189,-1.3 -9.62598,-0.4 -18.95596,-1 -27.49294,-1.6 -20.513945,-1.5 -36.346906,-3.1 -40.447896,-3 -8.496978,0.2 -13.350966,4.7 -15.87696,10.4 -3.588991,8.1 -3.453992,18.1 -2.211995,23.5 z"
     id="path5232"
     style="stroke:none;stroke-width:0.2" /><path
     d="m 182.83072,18789.608 c 0.69299,-1.8 2.72199,-2.7 4.52798,-2 1.806,0.7 2.71,2.7 2.017,4.5 0,0 0.006,5.2 -1.027,12.4 -0.224,1.6 -0.55,3.2 -0.975,4.8 -0.26599,1 -0.53899,2.1 -0.96599,3.1 -1.109,2.5 -2.549,4.8 -3.95099,7 -3.92799,6.1 -7.40099,10 -7.40099,10 -0.69299,1.8 -2.72199,2.7 -4.52798,2 -1.806,-0.7 -2.71,-2.7 -2.017,-4.5 0,0 0.048,-5.2 1.191,-12.4 0.409,-2.5 0.888,-5.2 1.77699,-7.9 0.342,-1 0.836,-1.9 1.325,-2.9 0.778,-1.5 1.582,-2.9 2.46199,-4.2 4.05999,-6 7.56499,-9.9 7.56499,-9.9 z"
     id="path5234"
     style="stroke:none;stroke-width:0.2" /><path
     d="m 148.1458,18787.308 c 0.718,-1.8 2.75899,-2.7 4.55599,-1.9 1.796,0.7 2.67199,2.7 1.954,4.5 0,0 -0.051,5.2 -1.162,12.4 -0.24,1.5 -0.583,3.1 -1.025,4.7 -0.278,1 -0.562,2 -0.999,3 -1.13599,2.5 -2.59999,4.8 -4.02399,6.9 -3.99299,6 -7.50198,9.8 -7.50198,9.8 -0.717,1.8 -2.75799,2.7 -4.55499,2 -1.79599,-0.7 -2.67199,-2.8 -1.95499,-4.6 0,0 0.104,-5.2 1.32599,-12.2 0.436,-2.6 0.944,-5.2 1.861,-7.8 0.352,-1 0.856,-2 1.355,-2.9 0.79399,-1.5 1.61099,-2.8 2.50499,-4.1 4.12499,-6 7.66498,-9.8 7.66498,-9.8 z"
     id="path5236"
     style="stroke:none;stroke-width:0.2" /><path
     d="m 113.10689,18785.608 c 0.522,-1.9 2.45699,-3 4.31999,-2.5 1.86299,0.6 2.95199,2.5 2.43099,4.4 0,0 0.599,4.7 0.39,11.6 -0.044,1.4 -0.189,2.9 -0.425,4.4 -0.148,1 -0.3,2 -0.61,2.9 -0.80999,2.5 -1.96899,4.7 -3.10999,6.8 -3.22299,6 -6.18398,9.8 -6.18398,9.8 -0.521,1.8 -2.457,2.9 -4.31999,2.4 -1.863,-0.5 -2.952,-2.4 -2.431,-4.3 0,0 -0.549,-4.8 -0.221,-11.6 0.116,-2.3 0.285,-4.9 0.866,-7.4 0.224,-0.9 0.604,-1.9 0.981,-2.8 0.601,-1.4 1.237,-2.7 1.95899,-4 3.359,-6 6.35399,-9.7 6.35399,-9.7 z"
     id="path5238"
     style="stroke:none;stroke-width:0.2" /><path
     d="m 78.565974,18783.808 c 0.516999,-1.9 2.448994,-3 4.31399,-2.5 1.863995,0.5 2.958992,2.5 2.441994,4.3 0,0 0.644998,4.7 0.502998,11.3 -0.031,1.5 -0.160999,2.9 -0.381999,4.4 -0.137999,0.9 -0.279999,1.9 -0.580998,2.8 -0.784998,2.4 -1.918996,4.6 -3.036993,6.6 -3.168992,5.8 -6.076985,9.5 -6.076985,9.5 -0.515998,1.9 -2.448994,3 -4.312989,2.5 -1.864995,-0.6 -2.958993,-2.5 -2.442994,-4.4 0,0 -0.595998,-4.6 -0.332999,-11.2 0.093,-2.3 0.235999,-4.8 0.792998,-7.2 0.212999,-1 0.583998,-1.9 0.950998,-2.8 0.586998,-1.4 1.207997,-2.7 1.916995,-3.9 3.305992,-5.8 6.245984,-9.4 6.245984,-9.4 z"
     id="path5240"
     style="stroke:none;stroke-width:0.2" /><path
     d="m 214.17464,18834.708 c -1.412,1.4 -3.63199,1.3 -4.95399,-0.1 -1.323,-1.4 -1.25,-3.7 0.161,-5 14.35496,-14.3 23.05494,-22.9 35.33091,-27.9 10.43698,-4.3 23.49794,-5.8 44.95589,-5.9 3.86199,0.1 31.13992,2 66.91783,5.3 10.45598,0.9 21.63995,2 33.17092,3.2 10.83698,1.2 21.98295,2.4 33.11592,3.8 22.96694,2.8 45.89389,5.9 66.09184,8.8 34.70591,4.9 61.36384,9.3 66.53483,10.9 8.00598,2.4 14.20797,7.7 18.81195,14.8 5.72999,8.8 9.07298,20.3 10.95098,31.3 0.383,1.9 -0.846,3.8 -2.742,4.1 -1.89599,0.4 -3.74699,-0.8 -4.12999,-2.7 -2.29199,-9.8 -5.80998,-20 -11.42797,-27.6 -3.65199,-4.9 -8.26498,-8.7 -14.19296,-10.2 -6.51399,-1.6 -47.13388,-5.3 -94.57177,-10 -20.65195,-2.1 -42.58289,-4.3 -63.56784,-6.6 -14.83896,-1.7 -29.19193,-3.4 -42.30789,-5.1 -33.81692,-4.1 -59.28986,-7.5 -62.99385,-7.7 -19.50595,-1 -31.46592,-0.5 -41.1869,2.8 -11.57097,3.9 -19.91395,11.5 -33.96691,23.8 z"
     id="path5242"
     style="stroke:none;stroke-width:0.2" /><path
     d="m 247.05356,18809.508 c -1.368,1.4 -3.58899,1.4 -4.95699,0 -1.367,-1.4 -1.366,-3.6 0.003,-4.9 8.92298,-9.6 20.36595,-23.5 34.72091,-32.7 9.51298,-6.1 20.28495,-10.1 32.30092,-10.1 7.75198,0.1 31.08593,0.5 60.39485,1.9 18.49296,0.8 39.36991,1.9 60.17785,3.5 25.62994,1.9 51.13888,4.5 72.07682,6.9 25.78794,2.8 44.75389,5.7 49.04388,7.5 8.54498,3.5 14.48997,9.6 18.37996,17.1 5.59898,10.7 7.00898,24 6.82998,34.3 0.03,1.9 -1.516,3.5 -3.45099,3.5 -1.934,0.1 -3.52799,-1.5 -3.55799,-3.4 -0.436,-9 -2.292,-20.8 -7.83498,-29.9 -3.17799,-5.3 -7.69198,-9.6 -14.06897,-11.7 -2.58199,-0.9 -10.76397,-1.7 -22.57694,-2.6 -14.06797,-1.1 -33.01792,-2.2 -53.91687,-3.4 -17.24596,-1 -35.81091,-2 -54.03186,-3.2 -18.99296,-1.3 -37.60291,-2.8 -53.99287,-4.1 -26.22194,-2 -46.70688,-3.8 -53.86087,-4.2 -9.74197,-0.6 -18.62095,2.2 -26.65893,6.7 -14.20797,7.9 -25.91994,20.3 -35.01991,28.8 z"
     id="path5244"
     style="stroke:none;stroke-width:0.2" /><path
     d="m 321.54237,18746.508 -19.16395,24 c -1.092,1.6 -3.27599,2 -4.87199,0.9 -1.59599,-1.1 -2.00599,-3.2 -0.913,-4.8 0,0 12.23297,-21 21.69695,-36.3 4.75299,-7.7 8.89298,-13.9 10.25897,-15.7 1.846,-2.4 6.23299,-4.2 12.72497,-2.8 5.93699,1.4 15.46896,5.6 24.70894,9.9 4.67699,2.2 9.24398,4.6 13.24397,6.3 2.98999,1.3 5.48299,2.5 7.31098,2.7 5.94999,0.7 7.59198,4.3 7.94498,5.6 0.639,2.3 1.006,5.7 -2.74399,8.4 -0.91,0.6 -3.39899,1.9 -7.31898,2.6 -5.62099,1.1 -15.26497,2.4 -25.67094,2.8 -13.66797,0.5 -28.48193,-0.3 -37.20691,-3.6 z m 5.03899,-6.3 c 6.73898,0.9 15.92696,0.2 25.05794,-1 3.61099,-0.4 7.20198,-1 10.62297,-1.6 -1.056,-0.4 -2.11499,-0.9 -3.17399,-1.4 -8.15998,-3.9 -16.21496,-8.4 -21.42295,-9.9 z m 54.83886,-6.8 c 1.124,-0.3 2.481,-0.3 2.245,-0.9 -0.756,-1.6 -1.582,-0.7 -2.245,0.9 z m 3.83399,12.1 c 0.017,0 0.035,0 0.052,0 -0.017,0 -0.034,0 -0.052,0 z"
     id="path5246"
     style="stroke:none;stroke-width:0.2" /><path
     d="m 716.41839,18904.508 c 0.107,0.1 0.212,0.3 0.315,0.4 -0.067,-0.1 -0.2,-0.3 -0.315,-0.4 z m 0,0 c -3.87799,-5.4 -10.01797,-10.8 -17.50495,-16.3 -4.30699,-3.1 -9.09398,-6.2 -14.20397,-9.3 -3.94799,-2.4 -8.09898,-4.7 -12.38997,-7.1 -4.11499,-2.2 -8.34798,-4.5 -12.69797,-6.6 -8.46298,-4.3 -17.31295,-8.3 -26.35593,-11.7 -13.89297,-5.4 -28.02393,-9.7 -41.7549,-11.8 -1.92799,-0.1 -3.36199,-1.8 -3.19999,-3.8 0.161,-1.9 1.858,-3.3 3.78499,-3.2 14.59096,0.3 29.99593,2.6 45.11589,6.6 9.90797,2.6 19.61595,6 28.83693,9.9 4.77999,2.1 9.41097,4.2 13.83296,6.6 4.65499,2.5 9.09398,5.1 13.22597,7.8 15.87196,10.6 27.79493,22.5 33.76092,33 0.593,1 1.17899,2.4 1.22799,4.2 0.056,1.9 -0.349,4.8 -1.43799,8.1 -3.34899,10.2 -11.93897,25.8 -14.49697,29.7 -0.97399,1.6 -3.12099,2.2 -4.79299,1.2 -1.67199,-0.9 -2.23899,-3.1 -1.26599,-4.8 1.27199,-2.5 4.34499,-10.2 6.89598,-18 1.979,-6 6.52698,-15.5 3.38099,-15.2 -0.296,0 -0.153,0.4 0.039,0.7 z"
     id="path5248"
     style="stroke:none;stroke-width:0.2" /><path
     d="m 705.38642,18885.408 c 0.775,-1.7 2.84199,-2.5 4.61499,-1.8 1.77299,0.8 2.58399,2.9 1.80999,4.6 0,0 0.006,4.7 -1.04699,11.2 -0.225,1.4 -0.548,2.8 -0.973,4.2 -0.265,0.9 -0.536,1.8 -0.958,2.7 -1.104,2.2 -2.52099,4.2 -3.90499,6 -3.92999,5.2 -7.30298,8.4 -7.30298,8.4 -0.775,1.8 -2.84199,2.6 -4.61499,1.8 -1.773,-0.7 -2.58399,-2.8 -1.81,-4.6 0,0 0.046,-4.6 1.208,-11.1 0.41,-2.2 0.884,-4.6 1.77,-6.9 0.34,-0.9 0.828,-1.7 1.31099,-2.5 0.774,-1.3 1.563,-2.5 2.433,-3.6 4.06499,-5.2 7.46398,-8.4 7.46398,-8.4 z"
     id="path5250"
     style="stroke:none;stroke-width:0.2" /><path
     d="m 685.87847,18871.208 c 0.674,-1.8 2.69199,-2.7 4.50599,-2 1.81399,0.6 2.73899,2.6 2.06599,4.5 0,0 0.328,4.4 -0.275,10.8 -0.128,1.3 -0.353,2.7 -0.676,4.1 -0.201,0.9 -0.40699,1.7 -0.76799,2.6 -0.945,2.2 -2.216,4.1 -3.464,6 -3.56099,5.2 -6.67498,8.4 -6.67498,8.4 -0.673,1.8 -2.69199,2.7 -4.50599,2.1 -1.81299,-0.7 -2.73899,-2.7 -2.06599,-4.5 0,0 -0.278,-4.5 0.44,-10.8 0.251,-2.2 0.557,-4.5 1.27999,-6.8 0.276,-0.8 0.705,-1.7 1.129,-2.5 0.68,-1.2 1.382,-2.4 2.169,-3.5 3.69999,-5.2 6.83998,-8.4 6.83998,-8.4 z"
     id="path5252"
     style="stroke:none;stroke-width:0.2" /><path
     d="m 661.17753,18857.608 c 0.755,-1.8 2.81399,-2.7 4.59499,-1.9 1.78099,0.7 2.61499,2.8 1.85999,4.6 0,0 0.277,4 -0.412,9.9 -0.145,1.3 -0.38199,2.5 -0.72099,3.8 -0.21,0.8 -0.425,1.6 -0.793,2.3 -0.966,2 -2.242,3.7 -3.49599,5.3 -3.63099,4.6 -6.69899,7.3 -6.69899,7.3 -0.75399,1.8 -2.81299,2.6 -4.59399,1.9 -1.78199,-0.8 -2.61499,-2.9 -1.85999,-4.6 0,0 -0.229,-4.1 0.574,-9.9 0.277,-2 0.604,-4.1 1.35099,-6.2 0.285,-0.8 0.719,-1.5 1.147,-2.2 0.692,-1.1 1.396,-2.2 2.188,-3.1 3.77199,-4.6 6.85998,-7.2 6.85998,-7.2 z"
     id="path5254"
     style="stroke:none;stroke-width:0.2" /><path
     d="m 636.39959,18847.708 c 0.672,-1.9 2.68999,-2.8 4.50399,-2.1 1.814,0.7 2.74099,2.7 2.06899,4.5 0,0 0.308,4.5 -0.31899,10.9 -0.134,1.4 -0.365,2.8 -0.694,4.2 -0.206,0.9 -0.416,1.8 -0.781,2.6 -0.954,2.3 -2.236,4.3 -3.49299,6.1 -3.58199,5.3 -6.72099,8.6 -6.72099,8.6 -0.67199,1.8 -2.68999,2.7 -4.50398,2.1 -1.814,-0.7 -2.741,-2.7 -2.069,-4.6 0,0 -0.258,-4.5 0.484,-10.8 0.261,-2.3 0.577,-4.6 1.31,-6.9 0.28,-0.9 0.71299,-1.7 1.13999,-2.5 0.687,-1.3 1.395,-2.5 2.188,-3.6 3.71999,-5.3 6.88598,-8.5 6.88598,-8.5 z"
     id="path5256"
     style="stroke:none;stroke-width:0.2" /><path
     d="m 605.82067,18839.708 c 0.507,-1.8 2.43399,-2.9 4.30099,-2.4 1.86699,0.5 2.97099,2.4 2.46399,4.3 0,0 0.608,4.9 0.414,11.8 -0.041,1.5 -0.184,3 -0.417,4.6 -0.146,1 -0.295,2 -0.605,2.9 -0.805,2.5 -1.96199,4.8 -3.09999,7 -3.20699,6.1 -6.17299,10 -6.17299,10 -0.50699,1.9 -2.43499,3 -4.30098,2.5 -1.867,-0.5 -2.971,-2.4 -2.464,-4.3 0,0 -0.559,-4.9 -0.245,-11.8 0.111,-2.4 0.275,-5 0.852,-7.6 0.222,-1 0.601,-1.9 0.976,-2.8 0.599,-1.5 1.23399,-2.9 1.95399,-4.2 3.34399,-6.1 6.34399,-10 6.34399,-10 z"
     id="path5258"
     style="stroke:none;stroke-width:0.2" /><path
     d="m 389.1942,18890.108 c 0.999,-1.6 3.155,-2.2 4.81099,-1.2 1.657,1 2.19,3.2 1.191,4.8 0,0 0.44,3.1 0.063,8 -0.112,1.4 -0.053,2.9 -0.463,4.5 -0.27,1 -0.92,1.8 -1.333,2.8 -0.44,1.1 -1.18699,1.8 -1.55999,2.8 -0.545,1.5 -1.531,2.5 -1.57,4 0.741,1.8 -0.109,3.9 -1.89599,4.6 -1.787,0.8 -3.83899,-0.1 -4.57999,-1.9 -2.294,-2.2 -3.012,-4.7 -4.13499,-7.8 -0.433,-1.2 -0.493,-2.4 -0.645,-3.7 -0.195,-1.6 -0.09,-3.3 0.263,-4.9 0.182,-0.9 0.512,-1.6 0.897,-2.4 0.61499,-1.2 1.20699,-2.2 1.98799,-3.2 0.917,-1.1 1.628,-1.9 2.54299,-2.8 2.809,-2.5 4.42599,-3.6 4.42599,-3.6 z"
     id="path5260"
     style="stroke:none;stroke-width:0.2" /><path
     d="m 507.98991,18910.808 c -1.283,1.4 -3.49999,1.5 -4.94799,0.3 -1.44699,-1.3 -1.57999,-3.5 -0.297,-5 0,0 1.255,-2.8 3.98299,-7.1 0.9,-1.4 1.915,-2.8 3.18799,-4.3 1.106,-1.4 2.368,-2.6 3.791,-3.9 0.89299,-0.8 1.84799,-1.6 2.90799,-2.2 1.97599,-1.2 4.12099,-2.1 6.38398,-2.8 1.637,-0.5 3.18699,-0.9 4.88299,-1.1 4.12199,-0.5 7.84398,-0.7 11.79997,0.2 1.932,-0.1 3.57799,1.4 3.67199,3.3 0.095,2 -1.39699,3.6 -3.32899,3.7 -2.95399,1 -5.15399,2.9 -7.75498,4.7 -0.996,0.7 -1.818,1.5 -2.80499,2.2 -1.468,1.1 -2.753,2.3 -4.24299,3.3 -2.203,1.4 -4.46399,2.4 -6.51699,3.5 -6.29598,3.2 -10.71497,5.2 -10.71497,5.2 z"
     id="path5262"
     style="stroke:none;stroke-width:0.2" /><path
     d="m 712.9274,18867.008 c -1.089,1.6 -3.27099,2.1 -4.86999,1 -1.59899,-1.1 -2.01299,-3.3 -0.92399,-4.9 0,0 0.53799,-1.8 2.25799,-5.2 0.753,-1.5 1.828,-2.8 3.30299,-4.5 0.929,-1 2.098,-1.9 3.43799,-2.8 0.782,-0.5 1.653,-1 2.619,-1.3 1.64499,-0.5 3.42299,-0.8 5.37598,-0.8 1.266,0 2.419,0 3.75399,0.3 2.73,0.6 5.06699,1.2 8.04498,2.6 1.93,0.1 3.39,1.8 3.26,3.7 -0.131,2 -1.804,3.4 -3.73399,3.3 -2.541,0.8 -4.10899,2 -6.11599,3 -0.787,0.4 -1.343,0.9 -2.07999,1.3 -1.068,0.5 -1.898,1.2 -2.882,1.6 -1.52199,0.6 -2.96399,0.6 -4.22699,1 -4.63399,1.3 -7.21998,1.7 -7.21998,1.7 z"
     id="path5264"
     style="stroke:none;stroke-width:0.2" /></g>&#10;</svg>
