<?xml version="1.0" encoding="UTF-8" standalone="no"?>
<svg
   width="2721.7114"
   height="2799.1738"
   viewBox="0 0 2721.7114 2799.1738"
   version="1.1"
   xml:space="preserve"
   style="clip-rule:evenodd;fill-rule:evenodd;stroke-linejoin:round;stroke-miterlimit:2"
   id="svg5353"
   xmlns="http://www.w3.org/2000/svg"
   xmlns:svg="http://www.w3.org/2000/svg"><defs
   id="defs5353" />&#10;    <g
   id="vectorly-UNI-shop-bag"
   transform="matrix(4.9999999,0,0,4.9999999,-8681.3216,-80835.085)"
   style="stroke-width:0.2"><path
     d="m 2131.4059,16573.509 c 10.54,9.2 42.1899,37.3 60.2298,56 6.77,7 11.64,12.9 13.19,16.1 1.25,2.6 0.93,4.6 0.34,5.8 -2.35,4.8 -38.1299,40.7 -60.8198,57 -6.75,4.9 -12.54,8 -16.15,8.7 -4.8,0.9 -7.68,-1.1 -9.01,-4.5 -1.33,-3.4 -1.57,-34.8 -0.8,-78.4 1.47,-84.5 5.5,-216.2 5.78,-275.5 0.06,-10.6 -0.01,-18.9 -0.24,-24.1 -0.04,-0.7 -0.08,-1.4 -0.14,-2 -2.98,-0.4 -7.89,-0.3 -12.43,-0.9 -31.5699,-3.9 -99.6397,-8.4 -167.7596,-12.1 -68.1098,-3.8 -136.2696,-6.7 -168.1395,-6.6 -5.05,0 -9.12,0 -12.04,0.2 -0.35,2.7 -0.72,6.4 -1.12,11 -2.57,29.7 -5.83,93.3 -8.5,156.9 -2.68,63.6 -4.77,127.3 -4.71,157.1 0.01,5.9 0.09,10.3 0.28,13.2 2.25,0.7 6.19,1.9 10.09,2.8 24.2499,5.9 76.3298,15.9 133.3797,26.3 103.6597,18.9 223.6894,39.4 223.6894,39.4 1.91,0.3 3.21,2.1 2.9,4 -0.31,1.9 -2.11,3.2 -4.02,2.9 0,0 -190.3095,-29.4 -299.0492,-48.9 -31.25,-5.6 -55.7999,-10.5 -67.2999,-13.5 -3.99,-1.1 -6.66,-2.1 -7.8999,-2.8 -1.66,-0.9 -2.48,-2 -2.92,-2.8 -0.37,-0.6 -0.95,-2.1 -1.23,-4.4 -0.39,-3.3 -0.63,-10.1 -0.71,-19.6 -0.31,-37.2 1.63,-117.3 4.31,-189.2 1.9999,-53.8 4.4399,-103 6.4499,-126.2 0.57,-6.6 1.16,-11.3 1.66,-13.5 0.56,-2.5 1.51,-3.9 2.03,-4.6 0.71,-0.8 2.65,-2.7 6.62,-3.3 2.97,-0.5 9.21,-0.8 18.06,-0.8 32.0399,-0.1 100.5897,2.6 169.0595,6.6 68.5399,3.9 136.9897,9.2 168.7196,13.3 8.91,1.2 15.14,2.4 18.01,3.4 3.56,1.2 5.11,3.2 5.7,4.4 0.4,0.7 1.12,3 1.33,6.7 0.35,5.9 0.32,18.3 -0.01,35 -0.95,48.1 -4.26,133.2 -6.83,206.9 z m -6.82,-240.8 c 0.6,1.2 1.53,2.8 1.96,1.5 0.27,-0.8 -0.51,-1.2 -1.96,-1.5 z m 6.49,250 c -1.27,36.9 -2.32,70.3 -2.74,93.8 -0.26,14.7 -0.45,25.3 -0.15,30.1 1.2,-0.5 2.76,-1.2 4.05,-1.9 9.74,-5.7 24.4299,-17.9 37.4699,-29.6 12.63,-11.4 23.7899,-22.3 26.9699,-26.4 -0.76,-1.2 -2.29,-3.5 -4.01,-5.6 -6.51,-7.8 -18.0499,-19.3 -29.8599,-30.7 -11.91,-11.5 -24.0799,-22.7 -31.7299,-29.7 z"
     id="path4622"
     style="stroke:none;stroke-width:0.2" /><path
     d="m 2195.8157,16314.809 c -1.12,-0.1 -2.42,-0.1 -3.6,0 -24.3699,1 -86.6698,12.2 -86.6698,12.2 -1.8899,0.4 -3.7499,-0.9 -4.1499,-2.8 -0.39,-1.9 0.83,-3.7 2.72,-4.1 0,0 48.9498,-11.6 77.2598,-15.9 8.9299,-1.3 15.9899,-1.7 19.3099,-1.2 3.2,0.4 4.92,2 5.78,3.2 0.35,0.5 1,1.8 1.35,4 0.34,2.1 0.69,6.5 1.01,12.7 0.75,15.1 1.53,41.6 1.85,73.2 0.15,15.2 0.22,31.7 0.05,48.6 -0.28,26.8 -0.98,54.7 -1.76,81 -1.97,66.1 -4.64,121.5 -4.64,121.5 -0.02,2 -1.61,3.5 -3.55,3.5 -1.93,0 -3.48,-1.6 -3.46,-3.6 0,0 -1.21,-55.5 -1.98,-121.5 -0.3,-26.3 -0.56,-54.2 -0.55,-81 0.02,-16.9 0.21,-33.3 0.4,-48.6 0.4,-31.3 0.91,-57.7 0.78,-72.7 -0.03,-3.5 -0.07,-6.4 -0.15,-8.5 z"
     id="path4624"
     style="stroke:none;stroke-width:0.2" /><path
     d="m 2185.5257,16306.009 c 1.93,0.1 3.39,1.8 3.26,3.7 -0.13,1.9 -1.8,3.4 -3.7299,3.3 0,0 -46.8799,-1.3 -106.6198,-3.8 -22.4699,-0.9 -46.7399,-2 -71.0098,-3.4 -11.89,-0.7 -23.78,-1.6 -35.4499,-2.4 -12.13,-0.9 -24.01,-1.9 -35.4299,-2.9 -56.8799,-4.7 -101.9198,-8.9 -105.1198,-8.3 -2.27,0.4 -3.39,2.5 -4.14,4.5 -1.56,4.3 -1.48,9.1 -1.48,9.1 0.11,2 -1.37,3.6 -3.31,3.7 -1.9299,0.1 -3.5799,-1.3 -3.6899,-3.3 0,0 -0.62,-8.1 2.01,-14.3 1.6199,-3.8 4.4799,-6.8 8.7499,-7.9 3.24,-0.8 49.4999,0 107.8498,2.2 11.4599,0.4 23.3799,0.9 35.5299,1.6 11.6999,0.6 23.5999,1.2 35.4999,2 24.2599,1.7 48.4799,3.8 70.8798,5.8 59.5699,5.3 106.1997,10.4 106.1997,10.4 z"
     id="path4626"
     style="stroke:none;stroke-width:0.2" /><path
     d="m 2167.6158,16311.509 c -0.09,-1.9 1.41,-3.5 3.34,-3.6 1.94,-0.1 3.58,1.4 3.66,3.3 0,0 2.24,7 4.25,16.5 0.45,2.1 0.8,4.3 1.1,6.6 0.18,1.5 0.37,3 0.39,4.5 0.05,3.8 -0.29,7.6 -0.67,11.1 -1.02,9.7 -2.57,16.8 -2.57,16.8 0.09,1.9 -1.41,3.6 -3.34,3.7 -1.93,0 -3.57,-1.5 -3.66,-3.4 0,0 -2.19,-7 -4.07,-16.5 -0.69,-3.5 -1.38,-7.2 -1.67,-11 -0.11,-1.5 -0.06,-3 -0.01,-4.5 0.09,-2.3 0.25,-4.5 0.5,-6.7 1.15,-9.6 2.75,-16.8 2.75,-16.8 z"
     id="path4628"
     style="stroke:none;stroke-width:0.2" /><path
     d="m 2138.9259,16316.309 c -0.07,-1.9 1.44,-3.5 3.38,-3.6 1.93,-0.1 3.5599,1.5 3.6299,3.4 0,0 3.1,31.2 6.11,71.2 0.68,9.1 1.29,18.7 1.84,28.5 0.35,6.3 0.7,12.6 0.88,19 0.48,16.3 0.56,32.5 0.58,47.6 0.04,40 -0.71,71.4 -0.71,71.4 0.07,1.9 -1.45,3.6 -3.38,3.6 -1.93,0.1 -3.56,-1.4 -3.63,-3.3 0,0 -3.0499,-31.3 -5.9299,-71.2 -1.09,-15 -2.19,-31.3 -2.91,-47.5 -0.27,-6.4 -0.39,-12.8 -0.5,-19.1 -0.17,-9.7 -0.26,-19.3 -0.25,-28.5 0.08,-40.1 0.89,-71.5 0.89,-71.5 z"
     id="path4630"
     style="stroke:none;stroke-width:0.2" /><path
     d="m 2202.0057,16547.109 c -1.94,0 -3.52,-1.5 -3.53,-3.4 -0.01,-2 1.55,-3.6 3.48,-3.6 0,0 24.4199,-1.7 42.6899,-2.3 9.03,-0.2 16.61,0 19.51,0.5 7.4999,1.4 14.8999,6.6 16.2699,16.8 0.84,6.3 -1.09,15.3 -8.99,27.4 -1.31,1.8 -9.0299,11.7 -19.2499,23.5 -6.18,7.1 -13.27,14.9 -20.23,22.2 -12.9599,13.5 -25.4899,24.9 -31.1299,27.1 -1.76,0.8 -3.84,0 -4.64,-1.8 -0.79,-1.7 -0.01,-3.8 1.76,-4.6 3.93,-2.1 10.93,-10.4 19.1,-20.6 8.28,-10.3 17.3499,-22.6 25.0299,-33 8.37,-11.2 15.01,-20.1 16.12,-21.8 4.2,-6 6.38,-10.7 6.95,-14.5 0.61,-4.1 -1.56,-6.3 -4.05,-6.9 -2.45,-0.7 -8.99,-1.3 -16.8,-2 -18.07,-1.5 -42.2899,-3 -42.2899,-3 z"
     id="path4632"
     style="stroke:none;stroke-width:0.2" /><path
     d="m 2201.9857,16543.609 c 0,0 52.2099,-0.3 60.6399,1.6 8.4299,1.9 17.1799,10.6 2.19,32.8 -3.34,4.9 -52.4699,68.2 -65.4299,74.1 1.01,-1.2 1.67,-2.1 1.93,-2.6 0.23,-0.5 0.05,-1.2 -0.49,-2.3 0,0 0.6,-45.8 1.16,-103.6 z"
     id="path4634"
     style="stroke:none;stroke-width:0.2" /><path
     d="m 1887.6665,16308.609 c 0.18,-2 1.89,-3.4 3.82,-3.2 1.93,0.2 3.34,1.9 3.16,3.8 -0.96,13.5 -3.22,66.3 -2.47,117.2 0.43,28.9 1.73,57.1 5.26,77 3.23,19.4 19.5399,27.3 36.0499,27 17.3599,-0.2 35.6699,-8.9 40.6399,-25.2 2.67,-8.4 5.74,-30.1 8.96,-55.9 7.1799,-57.4 14.5399,-134.4 14.5399,-134.4 0.13,-2 1.81,-3.4 3.74,-3.3 1.93,0.2 3.38,1.8 3.25,3.8 0,0 -3.57,77.5 -8.56,135.3 -2.34,27 -5.13,49.8 -7.64,58.8 -6.4599,22.5 -30.7399,36.5 -54.6898,36.9 -23.98,0.4 -46.9899,-12.4 -51.3199,-40.6 -2.97,-20.6 -3.67,-49.7 -2.91,-79.4 1.31,-51.3 6.56,-104.3 8.17,-117.8 z"
     id="path4636"
     style="stroke:none;stroke-width:0.2" /><path
     d="m 2133.6159,16194.309 c 4.42,-5.8 10.35,-11.1 17.6099,-15.4 19.38,-11.6 47.8899,-16.6 77.9298,-6.3 1.85,0.6 2.9,2.6 2.35,4.4 -0.56,1.9 -2.51,2.9 -4.37,2.4 -22.2899,-5.8 -42.9498,-2.9 -58.8698,4.5 -7.54,3.5 -13.95,8 -18.81,13.2 2.09,1.2 4.1,2.7 6.03,4.5 12.03,11.9 6.3,30.1 -3.14,37.5 -5.62,4.5 -12.2499,5.3 -17.7699,2.2 -3.42,-1.9 -6.92,-5.7 -8.83,-12.7 -1.38,-5.2 -1.52,-10.6 -0.5,-16 -4.32,2.4 -8.69,5.8 -12.97,9.7 -11.8599,11 -22.8699,26.1 -29.1699,39.2 -3.62,7.5 -5.87,14.2 -5.39,18.9 0.28,1.9 -1.04,3.7 -2.95,3.9 -1.92,0.3 -3.7,-1 -3.98,-2.9 -1.34,-6.9 1.42,-18.3 7.03,-30.5 5.98,-13 15.16,-27.1 25.34,-37.8 8.7199,-9.2 18.3499,-15.8 27.2599,-18.1 1.08,-0.3 2.14,-0.5 3.2,-0.7 z m 7.52,15.8 c -1.67,4.7 -1.96,9.5 -0.48,14.2 0.28,0.9 0.61,2.1 0.94,2.8 -0.12,0 -0.2,0 -0.17,0.1 0.08,0.3 0.23,0.4 0.41,0.3 0.17,0.2 0.33,0.2 0.48,0 0.06,-0.1 0.01,-0.1 -0.11,-0.2 0.72,-0.6 1.71,-2.1 2.29,-3 0.4499,-0.7 0.8499,-1.4 1.1799,-2.2 1.24,-3 1.56,-6.7 -1.1799,-9.5 -1.05,-1.1 -2.17,-2 -3.36,-2.5 z m 0.46,17 c 0.18,0 0.45,0.1 0.61,0.2 -0.13,0.1 -0.25,0.2 -0.37,0.2 -0.08,-0.1 -0.16,-0.2 -0.24,-0.4 z"
     id="path4638"
     style="stroke:none;stroke-width:0.2" /></g>&#10;</svg>
