<?xml version="1.0" encoding="UTF-8" standalone="no"?>
<svg
   width="3161"
   height="2449.2522"
   viewBox="0 0 3161 2449.2522"
   version="1.1"
   xml:space="preserve"
   style="clip-rule:evenodd;fill-rule:evenodd;stroke-linejoin:round;stroke-miterlimit:2"
   id="svg5353"
   xmlns="http://www.w3.org/2000/svg"
   xmlns:svg="http://www.w3.org/2000/svg"><defs
   id="defs5353" />&#10;    <g
   id="vectorly-UNI-card"
   style="stroke:none;stroke-width:0.2"
   transform="matrix(4.9999999,0,0,4.9999999,-12329.609,-28828.702)"><path
     d="m 2856.7429,6104.1779 c 0,1.94 -1.5709,3.51 -3.5049,3.51 -1.935,0 -3.505,-1.57 -3.505,-3.51 -0.12,-8.13 -7.546,-54.67 -15.327,-95.3 -5.602,-29.24 -11.151,-55.39 -14.604,-60.86 -3.429,-5.44 -8.5489,-8.38 -14.7019,-9.82 -8.86,-2.06 -19.699,-1.07 -31.4329,1.03 -10.713,1.88 -92.6538,14.57 -153.4687,24.88 -31.8189,5.4 -57.7348,9.94 -63.6878,12.33 -3.162,1.25 -5.545,3.5 -6.441,7.25 -0.863,3.61 -0.611,8.2 0.744,13.96 0.62,2.7 14.097,73.08 22.319,113.95 2.9509,14.67 5.1119,25.41 5.8079,27.32 1.811,4.98 4.953,7.75 9.32,9 6.952,1.98 16.088,1.03 26.8489,-0.6 l 216.8105,-31.61 c 1.91,-0.3 3.708,1.01 4.011,2.92 0.303,1.91 -1.002,3.71 -2.913,4.01 l -215.8685,37.1699 c -12.9479,2.26 -23.9729,3.16 -32.4149,0.94 -8.552,-2.26 -14.9019,-7.3999 -18.6159,-17.0199 -1.006,-2.6 -5.166,-20.73 -10.027,-43.38 -8.765,-40.82 -20.123,-96.65 -20.706,-99.03 -2.7339,-11.4 -1.939,-19.86 0.719,-26.02 2.883,-6.69 7.959,-11.12 14.495,-13.72 6.282,-2.48 33.5129,-7.57 67.0768,-12.87 60.9229,-9.62 143.1137,-20.59 153.8557,-22.29 13.6639,-2.11 26.2649,-2.68 36.4779,-0.03 9.2319,2.39 16.7009,7.24 21.6609,15.58 3.53,5.94 9.354,33.84 14.46,65.19 6.738,41.38 12.7329,88.77 12.6119,97.02 z"
     id="path1594"
     style="stroke:none;stroke-width:0.2" /><path
     d="m 2592.7176,6151.9779 c 1.902,-0.35 3.731,0.91 4.081,2.81 0.35,1.9 -0.91,3.7299 -2.812,4.0799 -10.564,2.53 -23.3879,3.35 -33.5189,-0.7 -7.625,-3.0499 -13.644,-8.8699 -16.842,-18.3299 -1.045,-3.21 -4.977,-18.07 -9.366,-37.44 -2.5789,-11.38 -5.3779,-24.31 -7.8499,-37.3 -1.95,-10.25 -3.613,-20.53 -5.14,-30.06 -3.822,-23.85 -6.391,-43.01 -6.522,-45.85 -0.254,-6.53 2.395,-11.3 7.306,-14.66 6.801,-4.65 18.3879,-6.41 28.5799,-7.93 1.896,-0.38 3.745,0.85 4.124,2.75 0.38,1.9 -0.852,3.75 -2.749,4.12 -7.39,1.87 -15.692,3.76 -21.4989,7.07 -3.166,1.8 -5.387,4.1 -4.903,7.72 0.348,2.75 4.756,21.07 9.9239,44.03 2.115,9.4 4.428,19.54 6.494,29.74 2.619,12.93 4.971,25.93 7.003,37.39 3.377,19.05 5.639,33.85 6.428,37.04 1.816,7.74 6.984,11.96 13.348,14.04 7.4989,2.46 16.3109,2.46 23.9139,1.48 z"
     id="path1596"
     style="stroke:none;stroke-width:0.2" /><path
     d="m 2546.7857,6018.1379 c -1.905,0.33 -3.723,-0.95 -4.057,-2.85 -0.334,-1.91 0.942,-3.73 2.847,-4.06 0,0 37.1569,-8.5 84.7638,-18.4 10.892,-2.27 22.334,-4.54 34.0099,-6.77 7.509,-1.44 15.106,-2.89 22.731,-4.18 19.4839,-3.29 39.0209,-6.2 57.1128,-8.82 48.1139,-6.99 85.9418,-11.69 85.9418,-11.69 1.905,-0.33 3.723,0.95 4.057,2.85 0.334,1.91 -0.942,3.72 -2.847,4.06 0,0 -37.1709,8.44 -84.7938,18.23 -17.9079,3.68 -37.2679,7.59 -56.7108,11.12 -7.61,1.38 -15.248,2.6 -22.798,3.8 -11.739,1.87 -23.2709,3.63 -34.2849,5.2 -48.1379,6.87 -85.9718,11.51 -85.9718,11.51 z"
     id="path1598"
     style="stroke:none;stroke-width:0.2" /><path
     d="m 2678.3944,6027.0279 c -1.902,0.35 -3.732,-0.91 -4.085,-2.81 -0.353,-1.9 0.904,-3.73 2.806,-4.08 0,0 13.739,-4.54 31.7279,-9.45 4.089,-1.12 8.386,-2.18 12.801,-3.19 2.832,-0.65 5.699,-1.3 8.596,-1.79 7.4179,-1.26 14.8689,-2.12 21.7899,-2.86 18.522,-1.98 32.9739,-2.73 32.9739,-2.73 1.902,-0.36 3.732,0.9 4.085,2.8 0.353,1.9 -0.904,3.73 -2.806,4.09 0,0 -13.7599,4.48 -31.7599,9.27 -6.726,1.8 -13.99,3.66 -21.3649,5.15 -2.881,0.58 -5.791,1 -8.666,1.42 -4.484,0.64 -8.875,1.19 -13.092,1.61 -18.5549,1.87 -33.0059,2.57 -33.0059,2.57 z"
     id="path1600"
     style="stroke:none;stroke-width:0.2" /><path
     d="m 2684.7462,6057.6415 c -1.902,0.35 -3.732,-0.91 -4.085,-2.81 -0.353,-1.9 0.904,-3.73 2.806,-4.08 0,0 13.739,-4.54 31.7279,-9.45 4.089,-1.12 8.386,-2.18 12.801,-3.19 2.832,-0.65 5.699,-1.3 8.596,-1.79 7.4179,-1.26 14.8689,-2.12 21.7899,-2.86 18.522,-1.98 32.9739,-2.73 32.9739,-2.73 1.902,-0.36 3.732,0.9 4.085,2.8 0.353,1.9 -0.904,3.73 -2.806,4.09 0,0 -13.7599,4.48 -31.7599,9.27 -6.726,1.8 -13.99,3.66 -21.3649,5.15 -2.881,0.58 -5.791,1 -8.666,1.42 -4.484,0.64 -8.875,1.19 -13.092,1.61 -18.5549,1.87 -33.0059,2.57 -33.0059,2.57 z"
     id="path1602"
     style="stroke:none;stroke-width:0.2" /><path
     d="m 2691.0826,6088.2433 c -1.9019,0.3503 -3.7324,-0.9045 -4.0852,-2.8045 -0.3536,-1.9099 0.9045,-3.7353 2.8063,-4.0855 0,0 7.8868,-3.4309 18.6322,-7.0198 2.4096,-0.808 4.9345,-1.5338 7.5626,-2.2179 1.6765,-0.4358 3.3743,-0.869 5.1039,-1.142 4.447,-0.702 8.9005,-1.0121 13.0596,-1.2399 11.2782,-0.6211 19.8785,-0.2999 19.8785,-0.2999 1.9012,-0.3601 3.7324,0.9045 4.0852,2.8045 0.3529,1.9 -0.9052,3.7254 -2.8063,4.0855 0,0 -7.9147,3.3787 -18.6648,6.8399 -3.9647,1.2778 -8.2304,2.5979 -12.6346,3.5299 -1.7132,0.363 -3.4546,0.5661 -5.1733,0.7719 -2.6977,0.3043 -5.3161,0.53 -7.8545,0.6381 -11.3178,0.5088 -19.9096,0.1397 -19.9096,0.1397 z"
     id="path1604"
     style="stroke:none;stroke-width:0.154324" /><path
     d="m 2580.9676,6038.9429 c -1.9019,0.3502 -3.7324,-0.9045 -4.0852,-2.8045 -0.3536,-1.9099 0.9045,-3.7353 2.8063,-4.0855 0,0 7.8868,-3.431 18.6322,-7.0198 2.4096,-0.808 4.9345,-1.5338 7.5626,-2.218 1.6765,-0.4357 3.3743,-0.8689 5.1039,-1.1419 4.447,-0.702 8.9005,-1.0121 13.0596,-1.24 11.2782,-0.621 19.8785,-0.2999 19.8785,-0.2999 1.9012,-0.3601 3.7324,0.9046 4.0852,2.8046 0.3529,1.9 -0.9052,3.7254 -2.8063,4.0855 0,0 -7.9147,3.3787 -18.6648,6.8399 -3.9647,1.2778 -8.2304,2.5979 -12.6346,3.5299 -1.7132,0.3629 -3.4546,0.5661 -5.1733,0.7719 -2.6977,0.3042 -5.3161,0.5299 -7.8545,0.6381 -11.3178,0.5087 -19.9096,0.1397 -19.9096,0.1397 z"
     id="path1606"
     style="stroke:none;stroke-width:0.154324" /><path
     d="m 2645.6185,6059.9679 c -0.73,-0.19 -1.895,0 -3.371,0.07 -3.233,0.16 -7.426,0.78 -12.051,1.55 -9.362,1.56 -20.3109,4.13 -28.3039,6.67 -2.081,0.66 -4.954,1.04 -6.552,1.63 0.081,-0.27 0.15,-0.5 0.202,-0.63 0.072,-0.17 0.421,-0.56 0.187,-0.61 -0.447,-0.1 -0.499,0.44 -0.41,1.25 -0.93,0.34 -1.419,0.75 -1.05,1.34 0.417,0.65 0.798,-0.46 1.055,-1.3 0.106,0.92 0.387,2.17 0.476,3.2 0.397,4.64 1.396,10.73 2.745,16.76 1.344,6 2.922,11.93 4.684,16.25 0.527,1.3 1,2.45 1.537,3.34 0.174,0.29 0.156,0.63 0.328,0.76 -0.077,-0.06 -0.231,-0.22 -0.281,-0.13 -0.417,0.8 2.055,0.56 3.592,0.62 2.807,0.11 6.1879,-0.04 9.7309,-0.4 11.958,-1.21 25.465,-4.16 25.465,-4.16 1.86,-0.53 3.802,0.54 4.333,2.41 0.531,1.85 -0.547,3.8 -2.407,4.33 0,0 -17.178,6.01 -30.286,8.35 -4.8459,0.87 -9.1939,1.09 -12.2139,0.69 -1.996,-0.28 -3.561,-0.98 -4.768,-1.72 -2.018,-1.24 -4.434,-4.29 -6.72,-8.66 -2.466,-4.72 -4.954,-11.27 -6.997,-17.98 -2.441,-8.01 -4.148,-16.23 -4.606,-21.7 -0.327,-3.9 0.189,-6.88 0.825,-8.55 0.737,-1.89 2.659,-4.44 6.409,-6.44 3.394,-1.82 9.121,-3.79 15.879,-5.36 8.282,-1.91 18.1719,-3.4 26.6379,-4.08 9.361,-0.74 17.138,-0.34 20.171,0.93 1.969,0.84 3.989,2.25 5.5809,4.62 1.65,2.45 3.179,5.92 4.255,10 3.031,11.52 3.678,27.72 3.323,31.34 -0.067,1.94 -1.691,3.45 -3.624,3.39 -1.933,-0.07 -3.449,-1.69 -3.382,-3.63 -0.078,-2.51 -1.627,-11.47 -4.0569,-20.08 -1.143,-4.05 -2.525,-7.98 -4.101,-11.04 -0.591,-1.15 -1.768,-2.51 -2.235,-3.03 z m -50.2779,9.92 c -0.01,0.02 -0.011,0.03 -0.016,0.05 0,-0.01 0,-0.03 -0.01,-0.04 0.01,-0.01 0.014,-0.01 0.021,-0.01 z m 50.2319,-9.97 c -0.095,-0.11 -0.151,-0.16 -0.151,-0.16 0,0 0.072,0.09 0.151,0.16 z m 0.106,0.07 z"
     id="path1608"
     style="stroke:none;stroke-width:0.2" /><path
     d="m 3026.9375,6151.9179 c -2.162,-0.43 -4.584,-0.86 -6.977,-1.21 -44.8018,-6.55 -161.4346,-15.2 -161.4346,-15.2 -1.931,-0.11 -3.4079,-1.77 -3.2959,-3.7 0.112,-1.93 1.7709,-3.41 3.7019,-3.3 0,0 117.4168,4.91 162.6076,10.17 8.556,0.99 14.705,2.12 17.402,3.1 5.103,1.86 5.59,5.8 5.414,7.61 -0.124,1.27 -1.703,4.69 -5.624,8.8899 -7.767,8.32 -25.8619,24.45 -44.7059,39.85 -15.549,12.71 -31.6209,24.89 -42.7449,31.92 -6.237,3.93 -11.288,6.27 -14.252,6.87 -2.8159,0.57 -14.4649,0.57 -31.9269,-0.25 -18.0519,-0.85 -42.6969,-2.36 -70.1828,-4.37 -36.7639,-2.7 -78.6198,-6.22 -116.6267,-9.58 -63.6609,-5.62 -116.4897,-10.88 -116.4897,-10.88 -2.277,-0.18 -4.156,-1.85 -4.607,-4.09 -0.45,-2.24 0.637,-4.51 2.666,-5.56 l 82.6248,-40.97 c 1.717,-0.89 3.834,-0.21 4.724,1.5 0.89,1.72 0.217,3.84 -1.501,4.73 0,0 -65.3299,35.3 -65.3289,35.3 23.509,1.47 67.6349,4.26 115.6257,7.37 45.7669,2.97 95.0438,6.17 133.3017,8.53 35.0459,2.17 60.5559,3.9 64.7509,3.09 1.57,-0.29 3.9699,-1.6 7.0819,-3.4 8.567,-4.95 20.845,-13.69 33.678,-23.41 20.1399,-15.26 41.6039,-32.97 52.1188,-43.0099 z"
     id="path1610"
     style="stroke:none;stroke-width:0.2" /><path
     d="m 3034.6095,6149.2979 c -0.477,-1.88 0.657,-3.78 2.531,-4.26 1.875,-0.48 3.784,0.65 4.262,2.53 0,0 3.934,11.0099 4.017,21.4299 0.053,6.57 -1.998,12.59 -5.768,16.76 -2.684,2.78 -8.24,8.6 -15.501,15.19 -3.321,3.02 -7.021,6.16 -10.9049,9.27 -5.586,4.48 -11.531,8.86 -17.15,12.96 -14.303,10.43 -26.4019,18.6 -26.4019,18.6 -1.474,1.25 -3.688,1.07 -4.941,-0.4 -1.253,-1.48 -1.073,-3.69 0.401,-4.95 0,0 9.998,-10.61 22.5149,-23.11 4.912,-4.9 10.133,-10.1 15.387,-14.94 3.645,-3.37 7.285,-6.55 10.73,-9.4 7.3899,-6.1 13.7609,-10.72 16.6599,-13.14 2.181,-1.69 3.267,-4.64 3.85,-7.81 1.619,-8.81 0.314,-18.7299 0.314,-18.7299 z"
     id="path1612"
     style="stroke:none;stroke-width:0.2" /><path
     d="m 2604.1706,6234.4478 c 4.752,-0.27 47.4749,-0.19 101.0507,0.78 12.934,0.24 26.498,0.55 40.3099,1 8.886,0.29 17.871,0.67 26.855,1.1 11.2559,0.52 22.5049,1.13 33.5509,1.78 17.5609,1.03 34.5899,2.14 50.3038,3.23 48.1469,3.34 83.7998,6.25 83.7998,6.25 1.933,0.08 3.437,1.71 3.357,3.65 -0.08,1.93 -1.715,3.43 -3.648,3.35 0,0 -35.7679,-0.05 -84.0238,-0.65 -15.7489,-0.19 -32.8089,-0.46 -50.3938,-0.85 -11.06,-0.25 -22.32,-0.54 -33.5809,-0.91 -8.986,-0.3 -17.972,-0.64 -26.851,-1.05 -13.7999,-0.64 -27.3419,-1.4 -40.2519,-2.17 -54.1538,-3.24 -97.0467,-6.34 -100.1177,-6.21 -4.255,0.15 -7.69,-2.72 -8.648,-8.67 -1.549,-9.63 2.899,-29.04 2.899,-29.04 0.384,-1.89 2.235,-3.12 4.131,-2.74 1.896,0.39 3.123,2.24 2.739,4.13 0,0 -1.557,9.49 -1.67,18.03 -0.039,2.87 -0.333,7.21 0.189,8.99 z m 0.01,0.02 c 0.206,0.68 0.538,0.98 1.059,0.63 0.415,-0.27 -0.453,-0.58 -1.059,-0.63 z m -0.258,0 c 0,0 -0.01,0 -0.011,0 0,0 0.01,0 0.011,0 z"
     id="path1614"
     style="stroke:none;stroke-width:0.2" /><path
     d="m 2515.1118,6192.3478 c 2.892,-0.61 5.702,-0.86 8.42,-0.74 10.3539,0.49 19.8839,5.85 27.4719,18.37 0.868,-0.92 1.73,-1.94 2.584,-3.06 1.892,-2.49 3.777,-5.37 5.615,-8.71 0.839,-1.74 2.934,-2.48 4.678,-1.64 1.743,0.84 2.479,2.93 1.64,4.68 -1.997,4.82 -4.15,8.91 -6.415,12.3 -2.071,3.09 -4.314,5.54 -6.599,7.47 -1.078,0.82 -2.46,1.13 -3.785,0.85 -1.326,-0.28 -2.465,-1.12 -3.122,-2.31 -6.673,-10.77 -13.9239,-15.63 -22.1299,-15.33 -8.049,0.3 -16.512,5.47 -25.738,13.58 -3.051,2.49 -7.5059,2.22 -10.2289,-0.63 -2.723,-2.85 -2.799,-7.31 -0.174,-10.25 5.8849,-6.83 9.7979,-12.84 11.9879,-18.06 1.583,-3.77 2.291,-6.89 1.22,-9.58 -1.132,-2.83 -3.809,-4.95 -7.603,-6.81 -5.3279,-2.62 -12.4249,-4.65 -21.2309,-6.05 -3.069,-0.37 -5.464,-2.83 -5.752,-5.91 -0.289,-3.0799 1.607,-5.9399 4.553,-6.8699 13.767,-3.64 24.2839,-7.49 30.9779,-11.85 6.293,-4.11 8.888,-8.37 5.372,-13.58 -1.173,-1.54 -0.876,-3.74 0.663,-4.91 1.538,-1.17 3.739,-0.88 4.912,0.66 6.002,7 5.385,13.98 -0.38,20.97 -3.428,4.15 -9.249,8.29 -17.226,12.42 3.302,1.0599 6.201,2.2999 8.691,3.6899 5.704,3.2 9.443,7.41 11.527,12.19 2.334,5.36 2.624,11.77 0.071,19.11 z"
     id="path1616"
     style="stroke:none;stroke-width:0.2" /><path
     d="m 3026.6965,6091.2279 c -1.918,0.26 -3.682,-1.09 -3.937,-3.01 -0.256,-1.92 1.094,-3.68 3.012,-3.94 6.398,-1.34 12.198,-3.99 17.527,-8 4.69,-3.53 8.807,-8.26 12.509,-14.33 1.7939,-2.54 5.1449,-3.46 7.9829,-2.17 2.838,1.28 4.363,4.4 3.633,7.43 -0.859,4.59 -1.083,8.54 -0.854,11.88 0.217,3.18 0.995,5.56 2.708,7.08 1.313,1.16 3.201,1.47 5.458,1.66 3.732,0.32 8.29,-0.15 13.683,-1.44 3.405,-0.84 6.956,0.69 8.686,3.74 1.7299,3.05 1.2169,6.88 -1.256,9.37 -6.58,6.08 -11.221,12.23 -12.83,18.94 -1.617,6.74 -0.416,13.85 4.525,21.55 0.957,1.31 1.216,3 0.692,4.54 -0.523,1.53 -1.762,2.71 -3.32,3.16 0,0 -4.565,0.93 -8.698,3.09 -2.337,1.22 -4.849,2.5 -5.429,4.71 -0.354,1.9 -2.185,3.1599 -4.087,2.7999 -1.902,-0.3499 -3.159,-2.1799 -2.805,-4.0799 0.389,-3.5 2.825,-6.62 5.919,-9.24 1.901,-1.6 4.09,-2.95 6.093,-4.02 -5.434,-8.38 -7.052,-16.75 -5.97,-24.94 0.545,-4.12 1.885,-8.2 3.92,-12.26 -0.196,-0.01 -0.39,-0.03 -0.583,-0.05 -6.267,-0.62 -11.11,-2.85 -14.567,-6.28 -2.8179,-2.8 -4.9519,-6.37 -5.8859,-10.93 -0.241,-1.18 -0.414,-2.44 -0.511,-3.77 -1.139,0.76 -2.294,1.46 -3.467,2.12 -6.983,3.86 -14.338,5.94 -22.148,6.39 z"
     id="path1618"
     style="stroke:none;stroke-width:0.2" /><path
     d="m 2968.9697,6044.8279 c 1.736,0.85 2.453,2.95 1.6,4.69 -0.854,1.74 -2.956,2.45 -4.692,1.6 0,0 -18.304,-6.81 -41.4129,-16.45 -5.271,-2.2 -10.743,-4.6 -16.299,-7.13 -3.569,-1.62 -7.178,-3.26 -10.716,-5.05 -9.0479,-4.58 -17.8959,-9.5 -26.0659,-14.11 -21.7919,-12.3 -38.4019,-22.58 -38.4019,-22.58 -1.736,-0.85 -2.452,-2.95 -1.599,-4.69 0.853,-1.73 2.955,-2.45 4.692,-1.6 0,0 18.285,6.87 41.3349,16.61 8.642,3.65 17.942,7.65 27.0929,12.02 3.578,1.71 7.083,3.56 10.547,5.4 5.391,2.86 10.635,5.72 15.596,8.55 21.7469,12.41 38.3239,22.74 38.3239,22.74 z"
     id="path1620"
     style="stroke:none;stroke-width:0.2" /><path
     d="m 3071.2654,5880.988 c -1.618,-1.1 -4.959,-2.44 -7.698,-4.03 -19.6179,-11.34 -63.4998,-31.38 -107.7167,-50.61 -18.866,-8.21 -37.7609,-16.34 -54.9429,-23.42 -23.0539,-9.5 -42.9329,-17.24 -55.3128,-20.89 -3.958,-1.17 -8.342,-1.94 -9.173,-2.08 -1.081,1.35 -2.444,3.88 -3.904,5.84 -6.247,8.39 -15.13,22.2 -24.9959,38.16 -29.83,48.26 -68.2959,116.0299 -68.2959,116.0299 -0.919,1.7 -3.047,2.34 -4.7489,1.42 -1.703,-0.92 -2.339,-3.05 -1.42,-4.75 0,0 35.6469,-69.5699 63.8178,-119.0199 11.589,-20.34 22.0029,-37.28 28.1189,-44.94 2.579,-3.23 4.865,-5.1 6.314,-5.86 1.265,-0.67 3.36,-1.23 6.305,-1.07 2.661,0.14 6.723,0.92 11.924,2.32 12.8009,3.47 33.4589,10.82 57.2618,20.3 17.399,6.94 36.5219,14.95 55.4639,23.39 44.6869,19.89 88.5388,41.68 108.1457,53.69 4.449,2.72 7.739,5.02 9.677,6.74 1.971,1.75 3.032,3.34 3.474,4.46 0.773,1.96 1.018,5.66 -0.509,10.66 -1.776,5.81 -5.711,14.56 -11.043,24.87 -21.9049,42.3699 -67.0618,112.5999 -67.0618,112.5999 -1.014,1.65 -3.175,2.17 -4.822,1.15 -1.647,-1.01 -2.161,-3.18 -1.146,-4.82 0,0 26.6089,-45.23 47.7399,-85.29 9.567,-18.14 18.0089,-35.1899 22.2019,-46.4099 1.262,-3.38 2.113,-7.31 2.346,-8.44 z m -234.7764,-101.11 c 0.338,-0.1 0.996,-0.3 1.26,-0.43 0.092,-0.05 0.411,-0.08 0.319,-0.2 -0.395,-0.49 -0.935,-0.15 -1.579,0.63 z m 234.9204,101.21 c 0.043,0.2 0.097,0.43 0.151,0.55 0.101,0.23 0.167,1.19 0.476,0.89 0.435,-0.42 0.129,-0.9 -0.627,-1.44 z"
     id="path1622"
     style="stroke:none;stroke-width:0.2" /><path
     d="m 3088.2604,5895.478 c -0.036,0.06 0.051,0.2 0.051,0.2 0,0 -0.144,-1.21 -0.49,-1.85 -0.811,-1.52 -2.018,-3.09 -3.389,-4.56 -4.293,-4.6 -9.735,-8.47 -9.735,-8.47 -1.647,-1.01 -2.16,-3.17 -1.144,-4.82 1.015,-1.65 3.176,-2.16 4.823,-1.14 0,0 11.116,6.19 16.402,12.76 3.4289,4.26 4.1499,8.87 2.285,12.73 -1.339,2.7 -11.526,24.4799 -24.896,51.4499 -2.729,5.51 -5.603,11.22 -8.635,16.99 -2.919,5.56 -5.963,11.17 -9.0899,16.74 -6.384,11.38 -12.959,22.62 -19.128,32.98 -16.429,27.6 -29.8309,48.86 -29.8309,48.86 -0.916,1.7 -3.043,2.34 -4.747,1.43 -1.704,-0.92 -2.344,-3.05 -1.428,-4.75 0,0 10.329,-22.91 24.2899,-51.84 5.242,-10.86 10.992,-22.54 16.959,-34.14 2.923,-5.68 5.932,-11.32 8.957,-16.82 3.144,-5.71 6.325,-11.26 9.4159,-16.57 15.165,-26.07 27.756,-46.5999 29.33,-49.1799 z m 0,0 c 0,0 0,0 10e-4,0 z"
     id="path1624"
     style="stroke:none;stroke-width:0.2" /><path
     d="m 2807.6451,5812.528 c -1.765,-0.79 -2.553,-2.87 -1.76,-4.63 0.793,-1.77 2.869,-2.56 4.634,-1.76 0,0 33.8869,13.08 76.7678,30.67 9.8099,4.02 20.0519,8.34 30.4599,12.81 6.693,2.88 13.464,5.79 20.1669,8.86 17.128,7.82 34.08,16.01 49.7449,23.63 41.6629,20.29 73.9688,36.8999 73.9688,36.8999 1.765,0.79 2.553,2.87 1.76,4.63 -0.793,1.77 -2.869,2.55 -4.634,1.76 0,0 -33.8669,-13.1299 -76.6958,-30.8299 -16.1039,-6.65 -33.4759,-13.89 -50.6988,-21.51 -6.741,-2.98 -13.415,-6.11 -20.01,-9.2 -10.256,-4.82 -20.2859,-9.61 -29.8069,-14.27 -41.6189,-20.4 -73.8968,-37.06 -73.8968,-37.06 z"
     id="path1626"
     style="stroke:none;stroke-width:0.2" /><path
     d="m 2825.961,5858.098 c -1.753,-0.81 -2.512,-2.9 -1.694,-4.65 0.817,-1.76 2.905,-2.52 4.658,-1.7 0,0 12.838,3.84 29.1129,9.72 3.695,1.34 7.51,2.83 11.389,4.44 2.487,1.02 5.003,2.07 7.45,3.26 6.268,3.05 12.33,6.45 17.93,9.65 15.0029,8.58 26.2259,15.91 26.2259,15.91 1.753,0.81 2.512,2.9 1.694,4.65 -0.817,1.76 -2.905,2.52 -4.658,1.7 0,0 -12.824,-3.9 -29.0379,-9.88 -6.052,-2.23 -12.548,-4.7 -18.914,-7.54 -2.486,-1.11 -4.902,-2.37 -7.288,-3.61 -3.721,-1.94 -7.3189,-3.91 -10.7159,-5.88 -14.963,-8.69 -26.152,-16.07 -26.152,-16.07 z"
     id="path1628"
     style="stroke:none;stroke-width:0.2" /><path
     d="m 2810.392,5887.2979 c -1.753,-0.81 -2.512,-2.9 -1.694,-4.65 0.817,-1.76 2.905,-2.52 4.658,-1.7 0,0 12.838,3.84 29.1129,9.72 3.695,1.34 7.51,2.83 11.389,4.44 2.487,1.02 5.003,2.07 7.45,3.26 6.268,3.05 12.33,6.45 17.93,9.65 15.0029,8.58 26.2259,15.9099 26.2259,15.9099 1.753,0.81 2.512,2.9 1.694,4.65 -0.817,1.76 -2.905,2.52 -4.658,1.7 0,0 -12.824,-3.9 -29.0379,-9.88 -6.052,-2.2299 -12.548,-4.6999 -18.914,-7.5399 -2.486,-1.11 -4.902,-2.37 -7.288,-3.61 -3.721,-1.94 -7.3189,-3.91 -10.7159,-5.88 -14.963,-8.69 -26.152,-16.07 -26.152,-16.07 z"
     id="path1630"
     style="stroke:none;stroke-width:0.2" /><path
     d="m 2941.5247,5963.1379 c -1.794,0.73 -3.838,-0.14 -4.562,-1.94 -0.7239,-1.79 0.145,-3.84 1.939,-4.56 9.548,-5.58 18.461,-2.54 24.79,2.79 5.338,4.5 8.066,11.49 8.246,17.67 0.105,3.62 -1.039,7.01 -2.823,9.94 -1.809,2.57 -3.666,4.73 -5.745,6.29 -6.756,5.05 -14.187,6 -20.403,3.55 -8.9079,-3.51 -15.6769,-12.65 -13.2109,-22.16 0.225,-1.92 1.968,-3.3 3.889,-3.08 1.921,0.23 3.2989,1.97 3.0739,3.89 0.103,4.99 4.725,8.31 9.541,8.98 1.465,0.2 2.895,-0.34 4.371,-0.96 1.972,-0.82 3.587,-2.65 5.1,-5.27 0.969,-1.33 0.953,-3.19 0.478,-5.02 -0.666,-2.55 -1.618,-5.25 -3.696,-7.08 -2.735,-2.42 -6.281,-4.16 -10.988,-3.04 z"
     id="path1632"
     style="stroke:none;stroke-width:0.2" /><path
     d="m 2964.5047,5974.2096 c -1.794,0.73 -3.838,-0.14 -4.5619,-1.93 -0.723,-1.8 0.1459,-3.84 1.9399,-4.57 9.432,-5.55 18.437,-2.73 24.921,2.41 5.569,4.42 8.53,11.42 8.782,17.61 0.151,3.68 -0.993,7.15 -2.862,10.11 -1.715,2.3699 -3.438,4.3899 -5.374,5.8699 -6.252,4.78 -13.014,6.11 -18.937,4.3 -8.5989,-2.61 -15.5869,-10.3199 -15.0849,-19.1699 -0.164,-1.93 1.267,-3.63 3.195,-3.79 1.927,-0.16 3.6249,1.27 3.7899,3.2 1.032,4.47 5.641,7.11 10.29,7.33 1.393,0.07 2.692,-0.57 4.06,-1.24 1.844,-0.91 3.302,-2.73 4.707,-5.23 0.923,-1.29 0.758,-3.08 0.24,-4.83 -0.75,-2.52 -1.784,-5.2 -3.923,-7.01 -2.838,-2.39 -6.447,-4.16 -11.182,-3.06 z"
     id="path1634"
     style="stroke:none;stroke-width:0.2" /></g>&#10;</svg>
