<?xml version="1.0" encoding="UTF-8" standalone="no"?>
<svg
   width="3275.8655"
   height="3731.4675"
   viewBox="0 0 3275.8655 3731.4675"
   version="1.1"
   xml:space="preserve"
   style="clip-rule:evenodd;fill-rule:evenodd;stroke-linejoin:round;stroke-miterlimit:2"
   id="svg5353"
   xmlns="http://www.w3.org/2000/svg"
   xmlns:svg="http://www.w3.org/2000/svg"><defs
   id="defs5353" />&#10;    <g
   id="vectorly-UNI-handshake"
   style="stroke:none;stroke-width:0.2"
   transform="matrix(4.9999999,0,0,4.9999999,-322.17535,-48337.591)"><path
     d="m 272.29349,10030.612 c 8.85698,4.1 18.71196,1.9 28.03493,-2.3 20.80995,-9.4 39.15791,-29.4 42.3819,-32.5 2.68299,-2.5 11.81397,-7.5 22.60194,-12.3 11.95397,-5.2 25.93794,-10.4 34.08792,-12.2 5.62798,-1.3 12.35997,-0.8 18.90095,0.6 12.34597,2.7 23.95094,8.5 23.95094,8.5 0.383,0.2 0.749,0.4 1.096,0.7 0,0 53.98287,39.3 93.79377,67.7 19.74895,14.2 35.92191,25.6 40.0699,27.9 15.88396,8.9 34.26191,8 43.28989,11.3 3.04599,1.1 5.39099,2.6 7.01398,4.5 2.813,3.1 4.54899,8.1 4.58599,14.1 0.046,7.8 -2.48699,17.6 -7.29098,26.6 -6.56498,12.3 -17.24096,22.9 -30.24693,25.1 -19.60195,3.4 -38.5659,-0.8 -57.59185,-9.6 -34.68892,-16.1 -69.70583,-47.5 -110.26273,-71 -1.68599,-0.9 -2.28499,-3 -1.337,-4.7 0.949,-1.7 3.088,-2.3 4.77399,-1.4 40.7919,22.3 76.26081,52.6 111.03273,67.7 17.07795,7.4 33.95191,11.1 51.28887,7.7 9.52898,-1.9 16.76796,-10.3 21.40095,-19.5 3.02199,-5.9 4.87698,-12.3 5.31098,-17.8 0.288,-3.6 0.231,-6.8 -1.35699,-8.5 -1.135,-1.3 -3.44099,-1.4 -6.18499,-1.8 -6.80298,-1.2 -15.88196,-1.9 -25.27894,-4.3 -5.30598,-1.4 -10.69097,-3.3 -15.87896,-6.1 -5.23298,-2.8 -29.07792,-19.1 -55.42086,-37.6 -35.31191,-24.7 -75.21181,-53.3 -80.4368,-57 -2.16099,-1.1 -10.68597,-5 -19.66995,-6.9 -4.19999,-0.9 -8.51098,-1.4 -12.12197,-0.6 -6.29198,1.4 -16.37796,5 -25.95094,9 -10.70697,4.4 -20.85594,9 -23.43794,11.4 -3.56699,3.3 -24.08494,24.8 -46.98788,34.8 -14.30297,6.3 -29.46293,8.1 -42.71489,0.6 -1.985,-1.1 -3.946,-3.1 -4.95299,-6.5 -1.432,-4.9 -0.814,-15.5 3.91899,-29 5.58898,-16.1 16.64196,-37.1 35.07091,-57.72 4.38399,-4.9 36.80691,-26.56 68.14883,-42.73 19.76595,-10.2 39.1079,-18.15 50.68588,-18.91 13.54996,-0.88 53.05886,0.47 88.28278,2.93 25.79593,1.8 49.29287,4.2 58.71585,6.61 1.879,0.46 3.03399,2.36 2.57699,4.24 -0.45799,1.88 -2.35499,3.03 -4.23498,2.58 -11.03198,-2.55 -41.5339,-4.49 -72.10883,-5.61 -30.44692,-1.11 -60.95984,-1.38 -72.44082,-0.37 -10.62797,0.92 -28.09693,9 -46.07088,18.75 -29.22993,15.85 -59.67385,36.43 -63.71684,41.13 -11.04498,12.8 -19.12896,25.7 -24.76494,37.3 -6.63799,13.6 -9.83398,25.3 -10.27698,32.7 -0.047,0.8 -0.219,1.8 -0.278,2.5 z m -0.009,0.2 c -0.046,0.7 0.034,1.3 0.478,1.1 0.646,-0.2 0.178,-0.7 -0.478,-1.1 z"
     id="path2614"
     style="stroke:none;stroke-width:0.2" /><path
     d="m 570.61075,9899.602 c 3.65199,5.76 11.03098,15.78 19.39296,34.14 3.79799,8.33 7.71598,18.37 11.54697,30.47 5.03198,15.8 9.90997,35.1 14.11296,58.7 3.10199,17.4 5.70599,37.1 7.86598,59.5 0.263,1.9 -1.07999,3.7 -2.99699,3.9 -1.917,0.3 -3.68599,-1 -3.94799,-3 -5.38299,-30.5 -11.56197,-55.8 -17.51096,-77 -7.17298,-25.5 -14.45296,-44.8 -20.81994,-59.61 -8.11198,-18.85 -14.85697,-30.23 -18.96596,-37.09 -2.52999,-4.22 -4.07699,-7.19 -4.61899,-9.23 -0.87199,-3.27 -0.427,-5.77 0.781,-7.75 0.857,-1.41 2.058,-2.77 4.03199,-3.73 3.25299,-1.57 14.43697,-5.58 28.12193,-10.02 27.34293,-8.87 64.67484,-19.91 64.67484,-19.91 1.828,-0.63 3.82599,0.34 4.45899,2.17 0.634,1.83 -0.337,3.82 -2.16499,4.46 0,0 -45.11389,17.88 -71.53483,28.79 -5.00498,2.06 -9.30997,3.85 -12.42697,5.21 z m -4.46198,2.09 c -0.008,0.01 -0.016,0.01 -0.024,0.02 0.008,-0.01 0.016,-0.01 0.024,-0.02 z"
     id="path2616"
     style="stroke:none;stroke-width:0.2" /><path
     d="m 714.8664,10070.012 c 1.80999,-0.7 3.83299,0.2 4.51599,2.1 0.68199,1.8 -0.233,3.8 -2.044,4.5 0,0 -10.95197,6.2 -25.81394,13.1 -3.35999,1.6 -6.91698,3.1 -10.60597,4.6 -2.35999,0.9 -4.75599,1.9 -7.21198,2.7 -6.26299,2 -12.65297,3.6 -18.68096,4.9 -13.19796,2.9 -24.45793,4.3 -29.62692,4 -1.932,0 -3.57899,-1.4 -3.67599,-3.4 -0.097,-1.9 1.39399,-3.6 3.32599,-3.7 4.11999,-0.7 11.89197,-4 21.51095,-8.1 3.48099,-1.5 7.12098,-3 10.93697,-4.6 3.61499,-1.4 7.30298,-2.9 11.05897,-4.3 2.402,-0.8 4.83699,-1.5 7.24498,-2.3 3.77399,-1.1 7.46598,-2.1 11.02698,-3 15.80796,-4 28.03893,-6.5 28.03893,-6.5 z"
     id="path2618"
     style="stroke:none;stroke-width:0.2" /><path
     d="m 566.27576,10154.512 c -0.70499,-1.8 0.185,-3.9 1.987,-4.6 1.801,-0.7 3.83599,0.2 4.54099,2 2.36299,5.2 4.77699,15.5 5.44399,25.3 0.48899,7.2 -0.206,14 -2.044,18.6 -1.639,4 -6.93698,12.8 -13.37997,19 -5.31298,5.2 -11.63597,8.2 -17.28195,8 -8.86098,-0.5 -20.33095,-2.9 -32.94292,-7 -9.57698,-3.2 -19.84295,-7.3 -30.18193,-12 -14.71496,-6.7 -29.54892,-14.6 -42.96189,-22 -17.53496,-9.8 -32.44992,-19.1 -41.2589,-24.9 -1.67099,-1 -2.23599,-3.1 -1.261,-4.8 0.975,-1.6 3.123,-2.2 4.79399,-1.2 9.22898,4.8 24.92394,12.2 43.0209,20.3 13.76296,6.2 28.92292,12.6 43.66789,18.5 10.14697,4.1 20.08995,7.9 29.26293,11 11.16397,3.9 21.08894,7 28.94292,7.8 1.269,0.1 2.589,-0.5 3.92799,-1.2 1.933,-1.2 3.86399,-2.7 5.64699,-4.4 4.48899,-4.2 8.31098,-9.3 9.66998,-11.9 2.11099,-4 2.74799,-10.8 2.68899,-17.5 -0.065,-7.5 -0.941,-15 -2.282,-19 z"
     id="path2620"
     style="stroke:none;stroke-width:0.2" /><path
     d="m 522.59287,10211.712 c 0.011,-2 1.59,-3.5 3.52499,-3.5 1.934,0 3.496,1.6 3.485,3.5 0.31499,5.6 -0.312,13.9 -4.37699,20.7 -3.46199,5.9 -9.44898,10.5 -19.28696,12.2 -7.77298,1.2 -14.11296,2.3 -28.27893,-0.4 -6.60598,-1.3 -15.00196,-3.4 -26.13993,-7 -6.70398,-2.2 -14.42596,-4.9 -23.32594,-8.4 -6.85099,-2.7 -14.36997,-5.9 -22.72595,-9.6 -8.16398,-3.6 -17.07095,-7.7 -26.87393,-12.3 -11.95697,-5.6 -25.11494,-12 -39.8639,-19.3 -1.782,-0.7 -2.61699,-2.8 -1.863,-4.6 0.753,-1.7 2.811,-2.6 4.59299,-1.8 14.60497,5.2 27.76793,9.8 39.6719,14 15.15597,5.5 28.22193,10.1 39.54491,14.1 10.03697,3.6 18.69295,6.8 26.18693,9.5 10.76997,4 19.12395,7.1 25.91594,9.3 17.67495,5.7 23.86394,5.5 31.92892,5 6.14498,-0.3 10.19697,-2.6 12.74297,-5.9 3.73999,-4.9 4.84898,-11.2 5.14098,-15.5 z"
     id="path2622"
     style="stroke:none;stroke-width:0.2" /><path
     d="m 222.04662,9917.732 c -15.50796,-5.7 -67.94683,-28.87 -103.37175,-42.71 -11.05497,-4.32 -20.399945,-7.74 -26.38593,-9.33 -1.881995,-0.44 -3.045992,-2.33 -2.597993,-4.22 0.447999,-1.88 2.339994,-3.04 4.220989,-2.59 8.545984,1.8 23.807944,6.73 41.148894,12.83 36.47591,12.84 82.2548,30.82 93.04677,33.86 2.923,0.84 6.41799,4.13 6.76099,11.3 0.422,8.81 -3.246,28 -9.51298,52.34 -3.44799,13.4 -7.63598,28.4 -12.34097,44.1 -4.25199,14.2 -8.88598,28.9 -13.69597,43.5 -20.08895,61.1 -42.01389,120.3 -44.20889,128.9 -4.05299,15.5 -14.29696,25.2 -34.06191,23.6 -13.14797,-1 -31.097924,-7.6 -54.844865,-21.8 -1.679996,-1 -2.265994,-3.1 -1.306997,-4.8 0.958998,-1.7 3.100992,-2.3 4.780988,-1.3 22.740944,12.3 39.642904,17.8 51.936874,18.3 13.33996,0.4 20.16695,-6.1 22.43394,-16.6 1.757,-7.9 17.98796,-58.9 35.27491,-114.7 4.68099,-15.1 9.46798,-30.6 14.08997,-45.6 3.20199,-10.4 6.35198,-20.7 9.30298,-30.4 8.13598,-26.9 14.73896,-50.38 17.31795,-65.12 0.59,-3.37 1.862,-7.34 2.013,-9.56 z m 0.014,-0.46 c -0.01,-0.88 -0.274,-1.37 -0.953,-1.27 -0.696,0.12 0.41,0.86 0.953,1.27 z m 2.03099,1.18 c 0.025,0.01 0.05,0.01 0.075,0.02 -0.025,-0.01 -0.05,-0.01 -0.075,-0.02 z"
     id="path2624"
     style="stroke:none;stroke-width:0.2" /><path
     d="m 228.9976,9921.282 c -1.85999,0.53 -3.80099,-0.55 -4.33299,-2.41 -0.531,-1.86 0.548,-3.8 2.408,-4.33 7.76198,-2.79 26.85693,-8.37 50.92987,-13.53 6.55198,-1.41 13.46497,-2.71 20.61495,-3.9 4.53099,-0.76 9.14998,-1.5 13.83796,-2.05 11.51298,-1.35 23.33995,-2.16 34.92292,-2.6 19.10295,-0.72 37.4129,-0.13 52.71787,1.43 1.93299,0.08 3.44299,1.71 3.36899,3.64 -0.074,1.93 -1.703,3.44 -3.63599,3.37 -10.32998,0.31 -21.91395,1.48 -34.21092,2.95 -8.87298,1.06 -18.02095,2.4 -27.28593,3.68 -9.11998,1.27 -18.27895,2.69 -27.27893,3.82 -11.46797,1.44 -22.62195,2.58 -32.89592,3.72 -23.02194,2.55 -41.4859,4.57 -49.15988,6.21 z"
     id="path2626"
     style="stroke:none;stroke-width:0.2" /><path
     d="m 163.84176,10136.312 c -1.51299,-1.2 -1.76199,-3.4 -0.556,-4.9 1.205,-1.6 3.412,-1.8 4.92499,-0.6 6.78199,5 31.07592,16.4 60.79185,29.9 13.81597,6.2 28.77993,12.9 43.72189,19.5 9.84998,4.4 19.68695,8.7 29.15193,13 10.24198,4.6 20.05695,9 29.04993,13.1 20.12795,9.1 36.02891,16.1 43.18489,18 19.03695,5.3 37.23991,7.7 52.21587,8.2 16.62096,0.6 29.11593,-0.7 33.91692,-3.1 1.69599,-1 3.82799,-0.3 4.75999,1.3 0.93199,1.7 0.312,3.9 -1.384,4.8 -5.12599,3.1 -18.80595,6.1 -37.30891,6.8 -15.74596,0.5 -35.00591,-0.8 -55.34286,-5 -8.57298,-1.8 -29.42493,-9.5 -54.72187,-20.3 -6.73298,-2.8 -13.76996,-6 -20.96494,-9.3 -10.14298,-4.7 -20.60395,-9.7 -30.99893,-14.9 -14.03796,-7 -27.92893,-14.2 -40.7439,-21.1 -29.46992,-15.8 -53.16286,-29.8 -59.69685,-35.4 z"
     id="path2628"
     style="stroke:none;stroke-width:0.2" /><path
     d="m 325.17436,10208.612 c 1.885,0.4 3.062,2.3 2.627,4.2 -0.435,1.8 -2.318,3 -4.20299,2.6 -9.85498,-1.6 -21.08595,4.6 -28.03693,13.4 -5.83399,7.4 -8.21998,17.2 -1.617,26.1 1.322,1.9 3.34999,3.1 5.67199,4 2.56199,1.1 5.53598,1.7 8.78697,2.1 9.06698,1 20.07195,-0.2 31.20793,-3.2 18.34395,-4.8 37.00191,-13.6 47.36088,-25.6 1.177,-1.6 3.37899,-1.8 4.91399,-0.7 1.53499,1.2 1.82499,3.4 0.647,4.9 -7.22199,10.8 -19.46096,20.5 -33.32792,27.7 -8.74498,4.6 -18.11796,8.2 -27.21793,10.4 -11.08298,2.7 -21.79995,3.3 -30.48193,1.6 -9.10398,-1.8 -16.14196,-6.2 -20.28295,-12.6 -9.45297,-15.6 -5.44998,-31.6 5.40799,-42.5 10.26697,-10.4 26.09693,-16.2 38.5439,-12.4 z"
     id="path2630"
     style="stroke:none;stroke-width:0.2" /><path
     d="m 283.94446,10233.912 c 1.934,0 3.523,1.5 3.547,3.5 0.023,1.9 -1.528,3.5 -3.462,3.5 -11.44597,1.3 -21.59994,0.9 -30.39192,-1 -7.93398,-1.7 -14.59496,-4.7 -19.88595,-8.3 -3.79699,-2.6 -6.85098,-5.5 -9.13198,-8.6 -3.00399,-4.1 -4.78999,-8.5 -5.27798,-12.9 -0.712,-6.3 0.71199,-12.6 5.35398,-18.1 2.306,-2.7 5.22999,-5.3 9.14998,-7.4 5.78398,-3.1 13.39297,-5.5 23.29394,-6.5 1.893,-0.4 3.75199,0.8 4.14799,2.7 0.397,1.9 -0.819,3.7 -2.71199,4.1 -8.24098,2.7 -14.21497,6.1 -18.57096,9.7 -4.93898,4 -6.67598,8.6 -5.68598,13 0.595,2.7 2.36599,5.2 4.70399,7.7 2.29799,2.5 5.14598,4.9 8.67597,7.1 3.834,2.3 8.21098,4.5 13.32197,6.3 6.69999,2.4 14.23597,4.4 22.92394,5.2 z"
     id="path2632"
     style="stroke:none;stroke-width:0.2" /><path
     d="m 226.10161,10201.112 c 1.90899,-0.3 3.71499,1 4.02999,2.9 0.316,1.9 -0.977,3.7 -2.88599,4 -8.13598,2.5 -15.28597,3.3 -21.65895,3.1 -3.62899,-0.2 -6.90698,-0.8 -9.93698,-1.6 -6.13998,-1.7 -10.95397,-4.9 -14.59096,-8.5 -1.934,-1.9 -3.48899,-4.1 -4.63799,-6.3 -3.10399,-6.2 -3.79299,-13.1 -1.65899,-19.6 1.30599,-3.9 3.40599,-7.8 6.77898,-11.1 5.36699,-5.3 13.21497,-9.7 24.12194,-11.1 1.87399,-0.5 3.78399,0.7 4.26299,2.5 0.478,1.9 -0.655,3.8 -2.529,4.3 -8.01198,3.1 -13.17196,7.7 -16.29295,12.6 -1.303,2.1 -1.882,4.2 -2.258,6.4 -0.528,3 0.278,5.8 1.722,8.5 1.19099,2.2 2.83999,4.4 5.22098,6.1 2.342,1.8 5.05999,3.4 8.43698,4.6 5.89799,2.1 13.00997,3.6 21.87595,3.2 z"
     id="path2634"
     style="stroke:none;stroke-width:0.2" /><path
     d="m 180.65772,10171.512 c 1.605,-1.1 3.78499,-0.7 4.86499,0.9 1.08,1.6 0.654,3.8 -0.951,4.9 0,0 -1.62099,2.1 -5.01399,5 -1.16099,1 -2.44899,1.7 -4.02899,2.6 -1.40599,0.8 -2.96299,1.2 -4.66498,1.6 -1.081,0.3 -2.223,0.5 -3.384,0.4 -2.12899,-0.1 -4.29699,-0.5 -6.37198,-1.4 -1.397,-0.7 -2.73499,-1.2 -3.98799,-2.3 -2.46999,-2.1 -4.69499,-4 -6.49998,-7.5 -1.418,-1.3 -1.5,-3.6 -0.184,-5 1.31599,-1.4 3.53599,-1.5 4.95298,-0.2 1.988,0.9 3.64799,0.8 5.45699,1 1.353,0.2 2.48599,-0.2 3.72599,-0.2 1.178,0 2.256,-0.4 3.34699,-0.4 1.624,0 3.073,0.4 4.49799,0.4 4.94399,0.1 8.24098,0.2 8.24098,0.2 z"
     id="path2636"
     style="stroke:none;stroke-width:0.2" /><path
     d="m 164.64776,10286.012 c 0.835,-1.8 2.92899,-2.5 4.67399,-1.7 1.74499,0.8 2.48399,2.9 1.65,4.7 0,0 -3.89,12.6 -9.83798,28.7 -1.351,3.6 -2.86099,7.3 -4.48099,11.2 -1.038,2.4 -2.09099,4.9 -3.29199,7.3 -3.07699,6.2 -6.49299,12.1 -9.71498,17.6 -8.63498,14.7 -15.99696,25.7 -15.99696,25.7 -0.835,1.8 -2.92899,2.5 -4.67399,1.7 -1.74499,-0.9 -2.48399,-2.9 -1.64899,-4.7 0,0 3.94499,-12.6 9.99597,-28.6 2.258,-6 4.74799,-12.3 7.61398,-18.6 1.119,-2.5 2.386,-4.8 3.639,-7.2 1.95599,-3.6 3.93199,-7.2 5.91698,-10.5 8.74798,-14.7 16.15596,-25.6 16.15596,-25.6 z"
     id="path2638"
     style="stroke:none;stroke-width:0.2" /><path
     d="m 332.93534,10311.312 c 0.458,-1.8 2.356,-3 4.23499,-2.5 1.88,0.4 3.033,2.3 2.575,4.2 0,0 0.319,6.8 -0.263,15.8 -0.129,2.1 -0.366,4.1 -0.692,6.2 -0.207,1.4 -0.419,2.8 -0.791,4.1 -0.959,3.4 -2.28399,6.7 -3.57399,9.7 -3.54099,8.4 -6.89598,14.3 -6.89598,14.3 -0.458,1.9 -2.356,3 -4.23599,2.5 -1.879,-0.4 -3.033,-2.3 -2.574,-4.2 0,0 -0.264,-6.8 0.434,-15.8 0.254,-3.3 0.58,-6.8 1.311,-10.3 0.284,-1.3 0.726,-2.7 1.164,-4 0.69199,-2 1.42699,-3.9 2.23999,-5.8 3.66799,-8.3 7.06698,-14.2 7.06698,-14.2 z"
     id="path2640"
     style="stroke:none;stroke-width:0.2" /><path
     d="m 396.77119,10312.312 c -0.067,-1.9 1.44699,-3.6 3.38099,-3.6 1.93299,-0.1 3.55699,1.4 3.62499,3.3 0,0 2.39499,12.8 4.52899,29.3 0.484,3.8 0.87899,7.8 1.20699,11.8 0.21,2.6 0.42,5.2 0.467,7.8 0.118,6.8 -0.161,13.5 -0.478,19.7 -0.84999,16.7 -2.29499,29.5 -2.29499,29.5 0.068,2 -1.447,3.6 -3.37999,3.7 -1.933,0 -3.55799,-1.5 -3.62499,-3.4 0,0 -2.34,-12.7 -4.35299,-29.3 -0.751,-6.2 -1.498,-12.9 -1.85,-19.6 -0.138,-2.6 -0.111,-5.3 -0.082,-7.9 0.044,-4 0.164,-8 0.384,-11.8 0.969,-16.7 2.47,-29.5 2.47,-29.5 z"
     id="path2642"
     style="stroke:none;stroke-width:0.2" /><path
     d="m 511.6239,10288.912 c -0.766,-1.8 0.055,-3.9 1.831,-4.7 1.77599,-0.7 3.83999,0.1 4.60598,1.9 0,0 5.96199,8.9 12.88897,21 1.565,2.8 3.09599,5.7 4.59999,8.7 0.963,1.9 1.935,3.9 2.75699,5.9 2.107,5.2 3.82999,10.5 5.37899,15.4 4.16899,13.3 6.61898,23.8 6.61898,23.8 0.766,1.7 -0.054,3.8 -1.83099,4.6 -1.776,0.7 -3.83999,-0.1 -4.60599,-1.9 0,0 -5.91698,-8.9 -12.72697,-21.1 -2.52899,-4.5 -5.19499,-9.4 -7.51798,-14.5 -0.906,-2 -1.66,-4 -2.40299,-6 -1.161,-3.2 -2.22,-6.3 -3.138,-9.3 -4.06399,-13.4 -6.45798,-23.8 -6.45798,-23.8 z"
     id="path2644"
     style="stroke:none;stroke-width:0.2" /><path
     d="m 599.61468,10262.512 c -0.962,-1.7 -0.38,-3.9 1.298,-4.8 1.67799,-1 3.82199,-0.4 4.78399,1.3 0,0 10.50997,14.4 23.20694,33.4 2.89399,4.4 5.82798,9 8.75898,13.7 1.88299,3 3.78499,6.1 5.54598,9.3 4.50299,8.1 8.64698,16.3 12.43497,24 10.11398,20.5 17.28496,36.9 17.28496,36.9 0.962,1.7 0.38,3.8 -1.299,4.8 -1.67799,0.9 -3.82099,0.3 -4.78298,-1.3 0,0 -10.46598,-14.5 -23.05495,-33.6 -4.71699,-7.1 -9.75097,-14.9 -14.45696,-22.9 -1.84,-3.1 -3.53699,-6.3 -5.21199,-9.4 -2.60799,-5 -5.09399,-9.8 -7.37698,-14.5 -10.01498,-20.6 -17.13096,-36.9 -17.13096,-36.9 z"
     id="path2646"
     style="stroke:none;stroke-width:0.2" /><path
     d="m 584.71772,9757.1821 c 1.13,-1.57 3.32199,-1.93 4.89199,-0.8 1.56999,1.13 1.92799,3.32 0.79799,4.89 0,0 -3.63699,8.37 -9.30097,18.92 -1.273,2.38 -2.686,4.78 -4.20999,7.22 -0.973,1.56 -1.961,3.13 -3.08199,4.61 -2.882,3.8 -6.04799,7.33 -9.04098,10.57 -8.09698,8.78 -14.84196,14.94 -14.84196,14.94 -1.13,1.57 -3.322,1.92 -4.89199,0.79 -1.571,-1.12 -1.928,-3.32 -0.798,-4.89 0,0 3.69099,-8.35 9.44298,-18.82 2.12599,-3.87 4.45898,-7.99 7.14998,-11.93 1.047,-1.53 2.22699,-2.97 3.39399,-4.39 1.828,-2.22 3.65899,-4.32 5.50399,-6.28 8.20598,-8.72 14.98496,-14.83 14.98496,-14.83 z"
     id="path2648"
     style="stroke:none;stroke-width:0.2" /><path
     d="m 495.43394,9669.6321 c 0.767,-1.77 2.83099,-2.59 4.60699,-1.83 1.77599,0.77 2.59599,2.84 1.82899,4.61 0,0 -5.48198,17.64 -13.43396,39.96 -1.813,5.09 -3.81399,10.37 -5.92899,15.74 -1.35799,3.45 -2.73499,6.94 -4.26299,10.36 -3.90799,8.76 -8.16798,17.33 -12.16897,25.25 -10.67697,21.13 -19.70295,37.25 -19.70295,37.25 -0.766,1.77 -2.83099,2.6 -4.60699,1.83 -1.77599,-0.77 -2.59499,-2.83 -1.82899,-4.61 0,0 5.53898,-17.62 13.59696,-39.88 3.019,-8.35 6.33699,-17.33 10.02998,-26.18 1.444,-3.46 3.03799,-6.85 4.61599,-10.21 2.45699,-5.22 4.93099,-10.3 7.39098,-15.11 10.78997,-21.09 19.86395,-37.18 19.86395,-37.18 z"
     id="path2650"
     style="stroke:none;stroke-width:0.2" /><path
     d="m 312.92039,9733.2021 c -0.392,-1.89 0.828,-3.75 2.722,-4.14 1.89499,-0.39 3.75099,0.83 4.14299,2.72 0,0 3.67899,8.24 7.59198,19.42 0.88,2.51 1.68799,5.15 2.44599,7.89 0.484,1.75 0.971,3.52 1.299,5.33 0.84,4.64 1.27999,9.3 1.63499,13.65 0.96,11.77 0.907,20.8 0.907,20.8 0.392,1.89 -0.828,3.75 -2.72199,4.14 -1.894,0.39 -3.75099,-0.83 -4.14299,-2.72 0,0 -3.62999,-8.26 -7.41998,-19.45 -1.4,-4.14 -2.846,-8.59 -3.91599,-13.19 -0.417,-1.78 -0.672,-3.6 -0.922,-5.4 -0.392,-2.82 -0.696,-5.56 -0.886,-8.21 -0.845,-11.82 -0.735,-20.84 -0.735,-20.84 z"
     id="path2652"
     style="stroke:none;stroke-width:0.2" /><path
     d="m 172.40474,9728.1621 c -0.907,-1.71 -0.255,-3.83 1.453,-4.74 1.70899,-0.9 3.83299,-0.25 4.73899,1.46 0,0 8.89297,12.59 19.53195,29.34 2.42099,3.81 4.85499,7.85 7.27898,12.02 1.555,2.67 3.12699,5.38 4.55399,8.17 3.65099,7.13 6.93598,14.41 9.92997,21.2 8.00398,18.13 13.50097,32.54 13.50097,32.54 0.906,1.6999 0.255,3.8299 -1.454,4.7299 -1.70799,0.91 -3.83199,0.26 -4.73898,-1.45 0,0 -8.84698,-12.6299 -19.37596,-29.4199 -3.93799,-6.28 -8.12898,-13.09 -11.98797,-20.11 -1.50699,-2.74 -2.86999,-5.56 -4.21299,-8.35 -2.09499,-4.34 -4.07399,-8.63 -5.87198,-12.77 -7.90398,-18.2 -13.34597,-32.62 -13.34597,-32.62 z"
     id="path2654"
     style="stroke:none;stroke-width:0.2" /><path
     d="m 586.71571,10086.012 c 0.574,1.8 -0.45899,3.8 -2.30699,4.4 -1.847,0.5 -3.81299,-0.5 -4.38699,-2.3 -4.55899,-12 -12.77897,-25 -21.45395,-36.7 -5.40798,-7.3 -11.03697,-14 -16.22196,-19.5 -4.34199,-4.5 -8.29298,-8.1 -11.56297,-10.1 -5.24198,-3.5 -11.26697,-6.5 -17.58195,-9.6 -9.08598,-4.3 -18.82996,-8.4 -28.45893,-11.8 -20.34595,-7.2 -39.7919,-11.8 -49.77788,-11.3 -1.92199,0.2 -3.65799,-1.2 -3.87399,-3.1 -0.216,-1.9 1.169,-3.6 3.09199,-3.8 10.54798,-1.9 31.92592,0 54.34087,5.6 10.54397,2.6 21.28594,6 31.14192,10.2 7.19298,3 13.84097,6.7 19.73295,10.5 4.02499,2.7 9.04698,7.3 14.14697,13.5 5.16798,6.2 10.60497,14 15.54896,22.4 7.80498,13.4 14.43196,28.4 17.62195,41.6 z"
     id="path2656"
     style="stroke:none;stroke-width:0.2" /><path
     d="m 583.36872,10087.012 c -3.20699,-1.1 -6.40898,-2.4 -9.52297,-4.1 -12.63497,-7 -135.14667,-95.4 -135.14667,-95.4 0,0 -1.56199,-0.8 -4.12599,-1.9 18.55696,-2 70.66083,10.2 100.51775,29.5 13.97197,9.1 39.6909,44.3 48.27788,71.9 z"
     id="path2658"
     style="stroke:none;stroke-width:0.2" /></g>&#10;</svg>
