<?xml version="1.0" encoding="UTF-8" standalone="no"?>
<svg
   width="2845.4958"
   height="1823.1027"
   viewBox="0 0 2845.4959 1823.1027"
   version="1.1"
   xml:space="preserve"
   style="clip-rule:evenodd;fill-rule:evenodd;stroke-linejoin:round;stroke-miterlimit:2"
   id="svg5353"
   xmlns="http://www.w3.org/2000/svg"
   xmlns:svg="http://www.w3.org/2000/svg"><defs
   id="defs5353" />&#10;    <g
   id="vectorly-UNI-cheese"
   style="stroke:none;stroke-width:0.2"
   transform="matrix(4.9999999,0,0,4.9999999,-8334.2436,-33129.498)"><path
     d="m 1787.8067,6748.7133 c -0.01,1.77 0.77,4.94 1.01,7.57 1.93,21.68 11.42,66.88 15.04,126.28 1.66,27.2299 2.04,57.4199 0.02,89.6699 6.19,1.14 17,1.8 31.1199,2.3 97.5698,3.41 345.1992,-6.35 361.5591,-6.7 0.84,-0.01 1.44,-0.87 2.28,-1.84 1.72,-1.99 3.38,-4.86 5.05,-8.49 6.76,-14.74 12.87,-40.69 17.3,-72.5299 5.7399,-41.28 8.5799,-92.32 5.9899,-141.95 -0.12,-1.93 1.35,-3.6 3.28,-3.71 1.93,-0.12 3.6,1.35 3.71,3.28 4.22,60.14 0.56,122.48 -6.92,167.4199 -4.2399,25.48 -9.7999,45.45 -15.7299,56.59 -4.47,8.4 -9.94,12.21 -14.65,12.38 -14.4499,0.49 -209.0495,10.86 -321.8792,11.51 -34.4399,0.19 -61.3898,-0.61 -73.6498,-2.66 -6.38,-1.07 -10.07,-3.3 -11.42,-4.82 -1.81,-2.06 -2.39,-4.3 -2.24,-6.53 6.83,-94.9499 -8.2499,-172.3599 -12.8699,-209.2499 -1.16,-9.21 -1.63,-16.13 -1.19,-20.43 0.51,-4.96 2.43,-7.92 4.36,-9.44 4.6299,-3.66 71.2998,-31.88 138.4796,-58.82 50.2599,-20.16 100.7398,-39.7099 124.8897,-48.0799 8.62,-2.99 14.28,-4.52 15.89,-4.54 42.4199,-0.52 74.7198,7.6 99.1497,19.14 56.1999,26.5599 70.9098,71.1599 70.9098,71.1599 0.63,1.83 -0.35,3.83 -2.1799,4.45 -1.83,0.63 -3.82,-0.34 -4.45,-2.17 0,0 -14.81,-41.37 -68.0299,-65.3299 -23.5599,-10.6 -54.6098,-17.76 -95.1697,-16.53 -1.28,0.03 -5.64,1.66 -12.45,4.15 -23.8999,8.74 -73.8198,29.1199 -123.5897,49.8999 -63.2098,26.41 -126.2297,53.29 -133.6197,58.02 z m 15.71,228.8499 c 0,0.01 0,0.02 0,0.04 0,-0.02 0,-0.03 0,-0.04 z m -15.99,-228.6599 c -0.08,0.05 -0.14,0.1 -0.2,0.15 0.05,-0.05 0.12,-0.1 0.2,-0.15 z m 0.28,-0.2 c 0.66,-0.48 1.59,-1.17 0.88,-1.33 -0.65,-0.15 -0.88,0.39 -0.88,1.33 z"
     id="path1810"
     style="stroke:none;stroke-width:0.2" /><path
     d="m 2208.7757,6730.2133 c 1.93,-0.05 3.54,1.48 3.59,3.42 0.05,1.93 -1.48,3.54 -3.41,3.59 0,0 -56.2899,3.4 -128.0697,6.78 -16.43,0.77 -33.6699,1.47 -51.2399,2.1 -11.2999,0.41 -22.7299,0.82 -34.1599,1.07 -29.2199,0.63 -58.4298,0.86 -85.4698,1.01 -71.8498,0.42 -128.2296,-0.05 -128.2296,-0.05 -1.94,0.05 -3.55,-1.48 -3.6,-3.41 -0.05,-1.93 1.48,-3.55 3.42,-3.59 0,0 56.2798,-3.35 128.0596,-6.6 27.01,-1.23 56.1999,-2.49 85.4098,-3.35 11.43,-0.34 22.87,-0.51 34.1799,-0.68 17.57,-0.26 34.82,-0.45 51.2799,-0.51 71.8598,-0.3 128.2397,0.22 128.2397,0.22 z"
     id="path1812"
     style="stroke:none;stroke-width:0.2" /><path
     d="m 1957.7363,6799.5633 c -1.76,-0.81 -2.52,-2.89 -1.71,-4.65 0.81,-1.76 2.9,-2.52 4.65,-1.71 22.56,9.14 30.3699,35.88 23.8099,58.1 -4.6299,15.72 -16.6099,29.02 -34.8999,33.2 -6.27,1.44 -13.3399,1.64 -21.1599,0.51 -32.4599,-5.91 -43.1999,-30.41 -38.2799,-54.34 4.51,-21.95 22.5099,-43.09 46.8999,-45.66 1.91,-0.29 3.7,1.02 3.99,2.94 0.29,1.91 -1.03,3.7 -2.94,3.99 -19.84,3.94 -32.87,22.54 -35.2999,40.87 -2.23,16.75 5.4699,33.44 28.0999,36.4 21.7499,3.95 35.7199,-7.38 41.2999,-22.07 6.51,-17.15 2.62,-38.64 -14.46,-47.58 z"
     id="path1814"
     style="stroke:none;stroke-width:0.2" /><path
     d="m 1847.1479,6945.4376 c 1.3364,1.3955 1.2818,3.6171 -0.1233,4.9526 -1.3977,1.3329 -3.6185,1.2798 -4.9528,-0.1205 -11.6103,-10.2032 -9.735,-26.8458 -0.658,-37.3117 6.3023,-7.27 16.425,-11.2596 28.1133,-8.9094 3.7333,0.7514 7.5975,2.3553 11.6027,4.7016 2.689,1.6984 5.0005,3.463 6.8445,5.3868 10.6666,11.1192 9.9365,24.6303 2.2261,34.5288 -7.8003,10.0202 -22.672,16.4801 -36.8003,11.2903 -1.8666,-0.5131 -2.9591,-2.4449 -2.4479,-4.3091 0.5113,-1.8643 2.4429,-2.9611 4.3095,-2.448 10.3688,1.9414 19.8197,-4.0162 24.305,-11.6977 3.6651,-6.2713 2.5042,-13.9829 -6.7931,-19.1162 -8.7858,-5.9435 -16.904,-4.8521 -22.1866,-0.2351 -6.5854,5.7446 -9.5165,15.6602 -3.4391,23.2876 z"
     id="path1816"
     style="stroke:none;stroke-width:0.109721" /><path
     d="m 2077.465,6782.3126 c -1.8065,-0.6847 -2.7228,-2.7113 -2.0375,-4.5188 0.6854,-1.8105 2.708,-2.7234 4.5183,-2.0388 9.0699,1.9141 12.7203,9.6614 12.7352,17.1136 0,2.06 -0.5885,4.0471 -1.3261,6.0372 -2.2051,5.9459 -7.8631,10.9302 -16.4228,12.5338 -2.4658,0.4626 -5.2296,0.4078 -8.243,0.067 -1.8624,-0.3134 -3.5721,-0.6542 -5.077,-1.2263 -10.3029,-3.9315 -14.1543,-11.5875 -12.7873,-19.201 0.3278,-1.8379 0.7524,-3.6911 1.6911,-5.4225 2.8979,-5.3404 8.1275,-10.276 15.3835,-11.5419 1.8364,-0.6055 3.8217,0.3925 4.4288,2.2305 0.6072,1.8349 -0.3911,3.8189 -2.2274,4.4275 -4.6858,2.3278 -6.958,7.0565 -6.7159,11.1371 0.067,1.1442 1.043,1.8441 2.0822,2.5744 1.2255,0.855 2.9985,1.062 5.2446,1.205 3.032,0.5112 5.5239,0.3895 7.4683,-0.493 1.3558,-0.6147 2.6446,-1.132 3.3635,-2.2031 2.3019,-3.4263 2.2647,-8.2494 -2.0785,-10.6807 z"
     id="path1818"
     style="stroke:none;stroke-width:0.0673334" /><path
     d="m 2147.0296,6893.7793 c 1.6087,-1.0773 3.7906,-0.6513 4.8651,0.9575 1.079,1.612 0.6493,3.7884 -0.9594,4.8657 -14.1329,11.3045 -31.2677,5.2691 -39.169,-7.4795 -5.0668,-8.1668 -6.1396,-19.5415 -0.3302,-31.3861 1.7414,-3.5625 4.2975,-7.0965 7.5151,-10.6382 15.6165,-15.3426 30.7178,-14.1299 40.2963,-5.2167 8.7481,8.1435 13.1043,23.3487 7.4266,37.5586 -0.5686,1.8503 -2.532,2.8859 -4.3798,2.3165 -1.8479,-0.5693 -2.8874,-2.5345 -2.3144,-4.3817 2.3598,-10.6017 -1.7951,-20.8124 -8.7004,-25.7455 -5.6432,-4.0344 -13.1578,-2.6113 -20.6124,6.2852 -4.8305,4.9972 -7.4124,10.038 -8.1859,14.8007 -0.6075,3.7291 -0.376,7.22 0.9499,10.2164 3.7812,8.5575 13.7297,13.3212 23.5985,7.8471 z"
     id="path1820"
     style="stroke:none;stroke-width:0.119456" /><path
     d="m 1784.6367,6781.9533 c 1.92,-0.22 3.66,1.17 3.88,3.09 0.21,1.92 -1.17,3.66 -3.09,3.88 -7.7899,1.19 -34.9299,8.46 -60.5698,18.04 -14.11,5.27 -27.7599,11.21 -37.1799,17.48 -4.66,3.04 -5.95,7.4 -5.2,12.04 0.87,5.42 4.1,11.08 8.41,16.28 6.94,8.71 13.8699,17.03 20.5199,25.06 11.16,13.47 21.73,25.9399 31.4699,37.1099 32.16,36.9 55.0699,59.61 55.0699,59.61 1.44,1.3 1.55,3.52 0.25,4.95 -1.3,1.44 -3.52,1.55 -4.95,0.25 0,0 -25.1299,-20.82 -59.8298,-56.03 -10.53,-10.68 -21.92,-22.6699 -33.6599,-35.8899 -7.02,-7.9 -14.08,-16.3 -21.27,-25 -7.67,-9.66 -12.26,-20.66 -11.57,-30.19 0.58,-8.06 4.37,-15.43 13.02,-20.59 10.54,-6.15 25.5199,-11.91 41.0899,-16.53 26.9999,-8 55.5199,-12.97 63.6098,-13.56 z"
     id="path1822"
     style="stroke:none;stroke-width:0.2" /><path
     d="m 1785.0267,6785.4333 c 6.09,41.52 16.29,110.15 10.57,191.6099 0,0.03 0,0.07 0,0.1 0,0 -53.0099,-48.03 -110.9097,-119.3499 -11.14,-13.72 -15.35,-30.52 -0.87,-39.55 27.6099,-17.24 88.8098,-31.41 101.2097,-32.81 z"
     id="path1824"
     style="stroke:none;stroke-width:0.2" /></g>&#10;</svg>
