<?xml version="1.0" encoding="UTF-8" standalone="no"?>
<svg
   width="3027.1038"
   height="2639.5852"
   viewBox="0 0 3027.1038 2639.5852"
   version="1.1"
   xml:space="preserve"
   style="clip-rule:evenodd;fill-rule:evenodd;stroke-linejoin:round;stroke-miterlimit:2"
   id="svg5353"
   xmlns="http://www.w3.org/2000/svg"
   xmlns:svg="http://www.w3.org/2000/svg"><defs
   id="defs5353" />&#10;    <g
   id="vectorly-UNI-empty-boxs"
   style="stroke:none;stroke-width:0.2"
   transform="matrix(4.9999999,0,0,4.9999999,-16511.467,-36800.229)"><path
     d="m 3798.2017,7610.803 c -1.3299,0.69 -2.9599,1.68 -4.3499,2.3 -6.28,2.81 -14.23,6.86 -23.11,10.02 -6.39,2.27 -13.2299,4.09 -20.2699,4.82 0.89,14.2799 2.89,46.4899 4.75,78.7099 2.4899,43.21 4.7299,86.4 4.7299,86.4 0.16,1.93 -1.28,3.62 -3.2099,3.77 -1.93,0.16 -3.62,-1.28 -3.77,-3.21 0,0 -4.68,-43 -9.1,-86.05 -4.43,-43.04 -8.6,-86.0899 -8.6,-86.0899 -0.17,-2.07 0.54,-4.11 1.95,-5.63 1.42,-1.51 3.41,-2.37 5.48,-2.34 11.08,-0.04 21.6399,-4.18 30.6299,-8.26 9.4,-4.27 17.32,-8.56 22.63,-9.96 7.0799,-1.88 11.8399,0.21 14.5999,4.18 0.75,1.09 1.96,4 2.66,8.64 1.35,9.04 2.59,27.9299 3.41,50.2799 0.75,20.24 1.17,43.34 1.39,64.39 0.32,32.03 0.09,59.28 -0.15,64.56 -0.29,5.86 -4.26,11.1 -10.65,14.96 -10.6699,6.46 -27.7699,9.57 -34.6199,9.38 -1.94,0 -3.51,-1.58 -3.51,-3.51 0,-1.94 1.57,-3.5 3.51,-3.5 5.23,-0.15 17.09,-2.89 26.0699,-7.63 5.06,-2.67 9.49,-5.69 9.47,-9.91 -0.01,-7.68 -2.7,-62.18 -5.52,-109.71 -1.37,-23.17 -2.72,-44.6599 -4.13,-58.1999 -0.29,-2.89 -0.18,-6.09 -0.29,-8.41 z m -0.11,-1.42 c -0.1699,-1.29 -0.5099,-2.03 -1.2399,-1.82 -0.5,0.15 0.42,0.8 0.56,1.01 0.16,0.23 0.4,0.51 0.6799,0.81 z m 1.04,0.98 c 0.89,0.73 1.74,1.14 1.71,0.21 -0.03,-0.71 -0.71,-0.64 -1.71,-0.21 z"
     id="path2024"
     style="stroke:none;stroke-width:0.2" /><path
     d="m 3743.1719,7624.343 c 0,0 -55.2199,9.9299 -110.5197,19.5799 -55.2899,9.65 -110.6098,19.01 -110.6098,19.01 -3.59,0.57 -7.0599,-1.52 -8.2399,-4.96 -2.97,-8.29 -9.07,-14.57 -15.53,-19.53 -9.01,-6.9199 -18.95,-11.2299 -24.3399,-13.8399 -3.56,-1.72 -5.78,-3.35 -6.6,-4.27 -2.85,-3.23 -2.54,-6.38 -1.53,-8.82 0.63,-1.54 2.28,-4.5 7.29,-5.32 3.6499,-0.56 37.1899,-7.26 77.2298,-14.53 25.3199,-4.61 53.2298,-9.39 77.8198,-13.31 34.2999,-5.47 62.2898,-9.01 68.5598,-8.12 5.81,0.84 12.74,5.22 19.4,11.53 14.9199,14.11 29.4499,37.19 29.4499,37.19 0.66,1 0.77,2.26 0.28,3.35 -0.48,1.09 -1.48,1.86 -2.66,2.04 z m -262.7494,-12.94 c -0.36,-1.02 -1.15,-3.64 -1.98,-2.44 -0.54,0.79 0.3,1.57 1.98,2.44 z m -4.66,10.56 c -0.05,0 -0.1,0.01 -0.14,0.02 0.04,-0.01 0.09,-0.02 0.14,-0.02 z m 19.98,-3.92 c 1.15,0.59 2.27,1.22 3.35,1.89 10.08,6.33 20.5999,15.2899 26.4999,27.3499 15.69,-2.24 60.4599,-8.61 105.2698,-14.7999 44.9499,-6.2 89.8997,-12.22 105.4897,-14.3 -4.45,-5.97 -12.78,-16.63 -21.6899,-25.34 -6.67,-6.52 -13.5,-12.12 -19.17,-12.69 -4.58,-0.47 -21.0699,2.36 -43.0699,6.43 -30.5099,5.64 -71.1898,14.08 -105.8697,21.17 -19.94,4.08 -37.9099,7.71 -50.8099,10.29 z"
     id="path2026"
     style="stroke:none;stroke-width:0.2" /><path
     d="m 3524.3724,7655.1829 22.5,192.54 c 0.3,2.98 -1.32,5.82 -4.03,7.08 0,0 -56.0899,26.9599 -77.7098,32.1999 -5.56,1.35 -9.74,1.1 -11.83,0.33 -2.09,-0.77 -3.52,-2.03 -4.51,-3.45 -1.18,-1.7 -1.84,-3.76 -1.55,-6.3199 1.49,-12.5 -0.14,-45.54 -1.94,-82.81 -2.21,-45.63 -4.84,-97.46 -4.94,-126.49 -0.03,-10.98 0.39,-18.87 1.24,-22.29 1.43,-5.72 5.47,-6.21 7.64,-5.54 7.84,2.45 18,4.51 28.1799,6.18 21.81,3.58 43.6799,5.42 43.6799,5.42 1.72,0.1 3.1,1.44 3.27,3.15 z m -61.2898,224.0799 c -0.01,0.04 -0.01,0.08 -0.01,0.12 0,-0.04 0,-0.08 0.01,-0.12 z m -16.67,-228.9899 c 0,-0.01 -0.01,-0.01 -0.02,-0.01 0.01,0 0.02,0 0.02,0.01 z m 4.9,1.19 c -0.2,3.71 -0.07,9.4 0.2,16.57 1.12,28.9 5.78,80.42 8.91,125.84 2.19,31.92 3.55,60.88 3.13,77.19 18.2099,-4.73 55.9598,-21.28 68.8698,-27.05 l -14.78,-185.12 c -6.8299,-0.33 -24.1499,-1.3 -41.4799,-3.38 -8.7199,-1.05 -17.4299,-2.39 -24.8499,-4.05 z m 8.22,220.71 c -0.91,-0.8 -1.74,-1.18 -1.76,-0.02 -0.02,0.55 0.78,0.35 1.76,0.02 z"
     id="path2028"
     style="stroke:none;stroke-width:0.2" /><path
     d="m 3618.8622,7872.9529 c 1.29,-0.02 4.75,-0.12 7.95,-0.49 20.3199,-2.32 63.3798,-11.01 102.0897,-19.91 34.9799,-8.04 66.3799,-16.07 73.8398,-20.16 1.68,-0.97 3.82,-0.4 4.79,1.28 0.97,1.67 0.4,3.82 -1.27,4.79 -10.0499,6.14 -64.3798,22.38 -112.3797,34.49 -29.2999,7.3899 -56.2399,13.2099 -69.2398,14.6899 -6.41,0.73 -10.61,-0.14 -12.09,-0.94 -7.81,-4.21 -18.5399,-8.8 -29.3799,-13.2399 -22.66,-9.29 -45.9299,-17.6 -45.9299,-17.6 -3.34,-1.17 -5.5,-4.42 -5.27,-7.95 0.23,-3.54 2.78,-6.49 6.24,-7.22 0,0 53.5499,-10.79 107.2197,-21.05 53.6999,-10.26 107.4498,-20 107.4498,-20 1.89,-0.4 3.76,0.81 4.16,2.7 0.4,1.9 -0.81,3.76 -2.7,4.16 0,0 -53.0799,12.93 -106.3198,25.34 -29.8699,6.97 -59.7698,13.77 -80.2598,18.39 6.71,2.58 14.14,5.53 21.48,8.63 10.9099,4.61 21.5999,9.62 29.6199,14.09 z m 0.99,0.56 z"
     id="path2030"
     style="stroke:none;stroke-width:0.2" /><path
     d="m 3747.6219,7792.3029 c 1.93,0.11 3.41,1.76 3.31,3.69 -0.11,1.93 -1.76,3.42 -3.69,3.31 0,0 -24.09,0.66 -54.9299,0.54 -7.04,-0.03 -14.41,-0.17 -21.9299,-0.39 -4.84,-0.14 -9.73,-0.29 -14.61,-0.6 -12.48,-0.79 -24.9199,-1.97 -36.4299,-3.13 -30.6599,-3.09 -54.5599,-6.28 -54.5599,-6.28 -1.93,-0.11 -3.41,-1.76 -3.31,-3.69 0.11,-1.93 1.76,-3.42 3.69,-3.31 0,0 24.1,-0.6 54.9199,-0.36 11.57,0.09 24.0599,0.25 36.5499,0.81 4.89,0.21 9.77,0.6 14.59,0.98 7.4999,0.59 14.8499,1.24 21.8499,1.98 30.6699,3.2 54.5499,6.45 54.5499,6.45 z"
     id="path2032"
     style="stroke:none;stroke-width:0.2" /><path
     d="m 3740.1719,7618.383 c 1.38,-1.35 3.6,-1.34 4.95,0.04 1.36,1.38 1.35,3.6 -0.03,4.96 0,0 -17.59,19.2399 -41.8699,44.7099 -5.75,6.02 -11.87,12.36 -18.25,18.86 -7.9799,8.11 -16.2899,16.5 -24.7399,24.74 -5.6,5.46 -11.26,10.87 -16.91,16.09 -12.7799,11.77 -25.3699,22.77 -36.4899,32.23 -19.0899,16.27 -34.1399,27.8 -39.6499,30.32 -3.52,1.59 -8.09,3.13 -12.7099,4.43 -9.46,2.66 -18.99,4.45 -18.99,4.45 -1.88,0.45 -3.77,-0.72 -4.22,-2.61 -0.44,-1.88 0.73,-3.77 2.61,-4.21 0,0 9,-2.58 17.86,-5.94 4.03,-1.52 7.9999,-3.21 11.0299,-4.9 2.85,-1.58 8.29,-6.43 15.75,-13.29 9.72,-8.94 22.4299,-21.33 36.5599,-35.16 5.58,-5.46 11.37,-11.16 17.34,-16.89 5.7599,-5.53 11.6599,-11.12 17.6199,-16.63 15.48,-14.32 31.0899,-28.42 44.8399,-40.81 25.9199,-23.36 45.2999,-40.3899 45.2999,-40.3899 z"
     id="path2034"
     style="stroke:none;stroke-width:0.2" /><path
     d="m 3742.6319,7620.883 c 0,0 -156.9996,154.6599 -177.6596,165.0599 -10.1999,5.14 -30.2899,9.86 -30.2899,9.86 l -13.8,-140.27 z"
     id="path2036"
     style="stroke:none;stroke-width:0.2" /><path
     d="m 3902.3115,7617.943 c 1.62,-1.05 3.8,-0.58 4.84,1.04 1.05,1.63 0.59,3.8 -1.04,4.85 0,0 -8.23,7.62 -19.57,16.7899 -2.57,2.08 -5.3,4.15 -8.1599,6.21 -1.83,1.32 -3.68,2.66 -5.62,3.86 -4.98,3.07 -10.13,5.78 -14.94,8.26 -12.95,6.64 -23.2799,11.05 -23.2799,11.05 -1.62,1.05 -3.79,0.59 -4.84,-1.04 -1.05,-1.63 -0.58,-3.8 1.04,-4.85 0,0 8.2799,-7.58 19.6699,-16.64 4.24,-3.37 8.83,-6.95 13.68,-10.22 1.89,-1.27 3.87,-2.41 5.83,-3.5299 3.06,-1.75 6.07,-3.39 9.0199,-4.87 13.03,-6.55 23.37,-10.91 23.37,-10.91 z"
     id="path2038"
     style="stroke:none;stroke-width:0.2" /><path
     d="m 3847.1416,7756.2329 c -1.88,-0.47 -3.03,-2.37 -2.56,-4.25 0.46,-1.87 2.36,-3.02 4.24,-2.56 0,0 6.84,-0.28 16,0.35 2.04,0.14 4.11,0.39 6.26,0.73 1.37,0.21 2.75,0.43 4.09,0.81 3.47,0.98 6.7599,2.32 9.8299,3.63 8.42,3.59 14.37,6.98 14.37,6.98 1.88,0.46 3.03,2.36 2.56,4.24 -0.46,1.88 -2.36,3.03 -4.24,2.56 0,0 -6.85,0.23 -15.97,-0.52 -3.3199,-0.27 -6.8599,-0.62 -10.3799,-1.37 -1.37,-0.29 -2.7,-0.74 -4,-1.18 -2.06,-0.7 -4.01,-1.45 -5.88,-2.27 -8.4,-3.72 -14.32,-7.15 -14.32,-7.15 z"
     id="path2040"
     style="stroke:none;stroke-width:0.2" /><path
     d="m 3683.522,7476.933 c -2.9,-0.93 -7.2199,-1.1 -11.6699,-1.23 -5.52,-0.16 -11.25,0.01 -15.49,0.22 -0.6,7.46 -1.74,20.1 -3.49,34.25 -1.65,13.39 -3.89,28.09 -6.53,41.06 -3.31,16.2 -7.4,29.67 -11.7699,35.01 -1.16,1.56 -3.36,1.88 -4.91,0.72 -1.55,-1.16 -1.87,-3.35 -0.71,-4.9 3.48,-5.16 5.57,-17.66 7.29,-32.45 1.4999,-12.89 2.4599,-27.43 3.2099,-40.65 1.26,-22.35 1.75,-40.82 1.75,-40.82 0.19,-3.9 3.21,-7.07 7.1,-7.45 0,0 23.63,-2.28 36.4499,0.5 6.88,1.5 11.3,4.94 12.75,8.41 0.59,1.39 1.25,4.53 1.25,9.07 -0.01,5.89 -0.61,15.04 -1.67,25.46 -3.12,30.57 -9.6,72.15 -9.6,72.15 -0.2,1.92 -1.92,3.32 -3.85,3.12 -1.92,-0.2 -3.32,-1.93 -3.12,-3.85 0,0 2.26,-41.75 3.06,-72.29 0.26,-9.94 0.4,-18.64 0.12,-24.22 -0.03,-0.7 -0.1,-1.45 -0.17,-2.11 z"
     id="path2042"
     style="stroke:none;stroke-width:0.2" /><path
     d="m 3689.722,7427.783 c 1.74,-0.85 3.84,-0.12 4.68,1.62 0.84,1.74 0.12,3.84 -1.62,4.68 0,0 -15.8199,8.23 -27.6199,19.15 -5.47,5.06 -10.14,10.65 -11.21,16.33 -0.51,2.39 -2.67,4.06 -5.11,3.96 0,0 -46.1599,-0.68 -92.3198,-1.87 -46.1498,-1.19 -92.2797,-2.88 -92.2797,-2.88 -2.67,-0.11 -5.09,-1.55 -6.48,-3.82 -1.39,-2.27 -1.56,-5.08 -0.45,-7.5 0,0 10.33,-22.32 23.6099,-39.86 8.05,-10.62 17.36,-19.31 25.89,-21.97 7.19,-2.21 29.9899,-1.74 57.4298,0.62 54.2199,4.66 127.4197,15.17 127.4197,15.17 1.92,0.23 3.29,1.97 3.07,3.89 -0.23,1.93 -1.97,3.3 -3.89,3.07 0,0 -73.3098,-6.82 -127.4397,-9.3 -24.9299,-1.14 -45.5799,-1.66 -52.0098,0.56 -6.21,2.12 -12.26,9.32 -18.02,17.22 -6.52,8.92 -12.28,19.09 -16.2,26.55 16.75,0.82 48.3499,2.41 79.9298,4.24 38.39,2.23 76.7399,4.81 88.5098,5.61 2.64,-5.89 7.68,-11.65 13.7,-16.67 13.14,-10.95 30.4099,-18.8 30.4099,-18.8 z"
     id="path2044"
     style="stroke:none;stroke-width:0.2" /><path
     d="m 3418.6127,7364.8531 c -0.72,-1.79 0.15,-3.84 1.94,-4.55 1.8,-0.73 3.84,0.15 4.56,1.94 0,0 5.13,7.59 11.0199,18.05 1.32,2.36 2.6,4.85 3.85,7.45 0.79,1.66 1.6,3.3499 2.25,5.0899 1.67,4.49 2.95,9.06 4.1,13.34 3.09,11.57 4.68,20.59 4.68,20.59 0.72,1.8 -0.15,3.84 -1.95,4.56 -1.79,0.72 -3.83,-0.15 -4.55,-1.94 0,0 -5.09,-7.62 -10.8599,-18.12 -2.13,-3.88 -4.37,-8.07 -6.26,-12.47 -0.74,-1.71 -1.32,-3.49 -1.9,-5.24 -0.89,-2.74 -1.69,-5.4199 -2.36,-8.0399 -2.99,-11.63 -4.52,-20.66 -4.52,-20.66 z"
     id="path2046"
     style="stroke:none;stroke-width:0.2" /><path
     d="m 3323.0329,7471.953 c -1.9,-0.38 -3.13,-2.22 -2.76,-4.12 0.38,-1.9 2.22,-3.13 4.12,-2.76 0,0 7.04,-0.56 16.5,-0.3 2.1,0.06 4.25,0.23 6.48,0.48 1.41,0.16 2.85,0.32 4.25,0.64 3.6199,0.84 7.0899,2.05 10.3199,3.24 8.83,3.24 15.16,6.39 15.16,6.39 1.9,0.38 3.13,2.23 2.76,4.12 -0.38,1.9 -2.22,3.14 -4.12,2.76 0,0 -7.06,0.5 -16.46,0.13 -3.44,-0.14 -7.0999,-0.34 -10.7699,-0.95 -1.42,-0.24 -2.81,-0.63 -4.18,-1.03 -2.15,-0.62 -4.21,-1.28 -6.17,-2.03 -8.84,-3.37 -15.13,-6.57 -15.13,-6.57 z"
     id="path2048"
     style="stroke:none;stroke-width:0.2" /><path
     d="m 3399.3127,7582.773 c -0.06,-0.1 -0.12,-0.2 -0.16,-0.31 0.03,0.08 0.25,0.27 0.16,0.31 z m 59.7899,0.07 c 1.2,0.32 2.79,0.71 4.3,0.98 8.33,1.47 21.5799,2.84 35.8699,4.06 31.7399,2.7 68.4498,4.6 68.4498,4.6 1.94,0.05 3.47,1.65 3.43,3.59 -0.04,1.93 -1.65,3.46 -3.58,3.42 0,0 -58.4498,0.4 -92.0198,-1.75 -10.0099,-0.64 -17.9199,-1.61 -21.7899,-2.73 -2.17,-0.62 -3.61,-1.52 -4.45,-2.22 -1.13,-0.94 -2.46,-2.85 -3.16,-6 -0.96,-4.28 -1.1,-13.32 -0.54,-24.78 0.73,-14.74 2.44,-33.77 4.44,-51.41 2,-17.59 4.23,-33.8 5.55,-43.01 -11.73,-1.43 -33.2999,-3.71 -43.5099,-2.57 -0.24,0.03 -0.51,0.07 -0.78,0.11 -0.44,1.91 -1.11,4.98 -1.59,7.85 -1.93,11.77 -4.16,30.48 -6.09,49.23 -2.32,22.49 -4.21,45 -4.43,55.7 -0.04,2.3 -0.8,5.01 0.09,4.87 0.01,0 0.01,-0.01 0.02,-0.01 0.79,1.23 2.82,1.56 4.72,1.96 4.1,0.85 8.4,0.74 8.4,0.74 1.93,-0.12 3.59,1.36 3.71,3.29 0.11,1.93 -1.36,3.59 -3.29,3.71 0,0 -8.55,0.66 -14.43,-1.33 -3.08,-1.05 -5.4199,-2.91 -6.6099,-5.3 -0.45,-0.92 -0.95,-4.17 -1.07,-9.16 -0.33,-13.43 0.68,-42.14 2.32,-67.89 1.24,-19.41 2.8799,-37.12 4.3899,-45.53 0.73,-4.1 1.9,-6.66 2.59,-7.62 0.97,-1.36 2.73,-2.75 5.44,-3.69 2.5,-0.87 6.52,-1.45 11.43,-1.67 17.65,-0.78 48.6299,2.67 48.6299,2.67 2.11,0.26 4.02,1.36 5.31,3.05 1.28,1.69 1.84,3.82 1.53,5.92 0,0 -2.27,16.69 -5.07,37.92 -1.57,11.92 -3.34,25.27 -4.84,37.92 -1.87,15.92 -3.39,30.7 -3.52,40.02 -0.02,1.83 0.07,3.76 0.15,5.06 z"
     id="path2050"
     style="stroke:none;stroke-width:0.2" /><path
     d="m 3320.8529,7626.293 c -0.25,1.58 -0.62,4.02 -0.84,6.38 -1.02,11.1799 -1.42,29.7499 -1.63,50.7699 -0.17,16.38 -0.2,34.24 -0.11,51.26 0.13,24.02 0.43,46.38 1.3,60.53 0.26,4.18 0.53,7.62 0.87,10.12 0.13,0.91 0.32,1.97 0.41,2.41 1.43,0.61 4,1.19 6.13,1.92 9.98,3.45 26.28,7.39 43.9599,11.21 39.1099,8.46 84.7698,16.3 84.7698,16.3 1.91,0.28 3.24,2.06 2.96,3.98 -0.28,1.91 -2.06,3.24 -3.97,2.96 0,0 -73.2298,-8.88 -114.4597,-17.7 -12.52,-2.68 -22.21,-5.54 -26.6099,-7.96 -2.6,-1.43 -4.05,-3.14 -4.79,-4.47 -0.52,-0.93 -1.15,-2.71 -1.65,-5.29 -1.1,-5.64 -2.2,-17.06 -3,-31.67 -1.23,-22.44 -2.07,-52.58 -1.87,-80.42 0.21,-29.73 1.61,-56.86 3.52,-69.5099 0.67,-4.43 1.57,-7.49 2.37,-8.98 0.75,-1.39 1.59,-2.33 2.37,-2.93 0.92,-0.72 3.29,-1.95 7.0999,-2.96 7.86,-2.1 24.36,-5.14 43.9099,-8.24 47.5199,-7.53 113.1098,-15.84 113.1098,-15.84 1.9199,-0.29 3.7099,1.02 3.9999,2.93 0.3,1.91 -1.02,3.71 -2.93,4 0,0 -51.4798,9.38 -95.9897,18.17 -20.19,3.99 -38.9299,7.84 -50.6899,10.72 -3.04,0.75 -6.27,1.71 -8.24,2.31 z m -0.08,181.4399 c -0.02,-0.04 -0.03,-0.07 -0.05,-0.1 -0.17,-0.33 -0.46,-1.44 -0.81,-1.04 -0.37,0.41 0.03,0.78 0.86,1.14 z"
     id="path2052"
     style="stroke:none;stroke-width:0.2" /><path
     d="m 3429.0727,7632.853 c 1.91,0.28 3.24,2.0699 2.96,3.9799 -0.29,1.91 -2.07,3.24 -3.98,2.96 0,0 -14.88,-0.21 -33.9999,-1.44 -4.35,-0.28 -8.88,-0.69 -13.51,-1.18 -2.97,-0.31 -5.98,-0.63 -8.96,-1.12 -7.63,-1.23 -15.17,-2.8599 -22.1599,-4.4199 -18.68,-4.18 -33,-8.2 -33,-8.2 -1.92,-0.28 -3.2399,-2.06 -2.9599,-3.98 0.28,-1.91 2.0599,-3.24 3.9699,-2.95 0,0 14.88,0.26 33.97,1.61 7.1399,0.51 14.8299,1.12 22.4999,2.12 3,0.39 5.97,0.95 8.9,1.5 4.58,0.86 9.04,1.77 13.2799,2.75 18.68,4.3 32.99,8.37 32.99,8.37 z"
     id="path2054"
     style="stroke:none;stroke-width:0.2" /><path
     d="m 3461.8126,7462.943 c -1.19,-1.52 -0.92,-3.73 0.61,-4.92 1.52,-1.19 3.72,-0.91 4.91,0.61 0,0 15.3699,16.51 34.3099,38.29 4.32,4.97 8.77,10.25 13.24,15.69 2.8799,3.49 5.7799,7.03 8.5599,10.66 7.11,9.3 13.88,18.82 20.11,27.68 16.5999,23.6 28.9199,42.49 28.9199,42.49 1.19,1.52 0.92,3.73 -0.61,4.92 -1.52,1.19 -3.73,0.92 -4.92,-0.61 0,0 -15.3199,-16.55 -34.1599,-38.4 -7.07,-8.2 -14.66,-17.09 -21.9499,-26.24 -2.85,-3.58 -5.57,-7.27 -8.26,-10.91 -4.18,-5.66 -8.21,-11.26 -11.98,-16.66 -16.5099,-23.68 -28.7799,-42.6 -28.7799,-42.6 z"
     id="path2056"
     style="stroke:none;stroke-width:0.2" /><path
     d="m 3649.0521,7468.513 c 0,0 -4.6,98.6 -17.2899,115.64 -19.44,3.43 -41.1299,7.46 -62.0499,11.44 l -105.1397,-134.8 z"
     id="path2058"
     style="stroke:none;stroke-width:0.2" /><path
     d="m 3773.6118,7513.513 c 0.15,0.32 0.32,0.9 0.56,0.66 0.29,-0.29 0.02,-0.59 -0.55,-0.91 -0.02,-0.64 -0.16,-1.03 -0.6,-0.95 -0.36,0.07 0,0.47 0.28,0.78 -0.97,-0.48 -2.48,-1.02 -3.67,-1.65 -4.47,-2.34 -10.7,-5.16 -17.7099,-8.19 -5.82,-2.51 -12.15,-5.15 -18.46,-7.78 -21.9199,-9.12 -43.5999,-17.71 -43.5999,-17.71 -1.85,-0.59 -2.87,-2.56 -2.28,-4.4 0.58,-1.85 2.56,-2.87 4.4,-2.28 0,0 22.84,5.58 45.7399,12.41 6.69,2 13.33,4.13 19.44,6.24 9.3599,3.24 17.4099,6.49 22.3399,9.09 4.14,2.17 6.57,4.55 7.55,6.06 0.98,1.55 2.13,5.12 2.18,10.39 0.06,6.12 -0.78,15.69 -2.28,26.55 -1.62,11.79 -3.99,25.11 -6.31,37.21 -3.87,20.21 -7.67,36.84 -7.67,36.84 -0.31,1.91 -2.11,3.21 -4.02,2.91 -1.91,-0.31 -3.21,-2.11 -2.91,-4.02 0,0 3.22,-34.16 5.46,-63.87 1,-13.24 1.84,-25.53 1.78,-33.38 0,-1.3 0.3,-2.92 0.33,-4 z m 0,0 c -0.02,-0.05 -0.04,-0.09 -0.06,-0.13 -0.04,-0.07 -0.14,-0.17 -0.25,-0.29 0.11,0.06 0.22,0.11 0.32,0.17 0,0.08 0,0.16 -0.01,0.25 z"
     id="path2060"
     style="stroke:none;stroke-width:0.2" /></g>&#10;</svg>
