<?xml version="1.0" encoding="UTF-8" standalone="no"?>
<svg
   width="3553.1021"
   height="2906.531"
   viewBox="0 0 3553.1021 2906.531"
   version="1.1"
   xml:space="preserve"
   style="clip-rule:evenodd;fill-rule:evenodd;stroke-linejoin:round;stroke-miterlimit:2"
   id="svg5353"
   xmlns="http://www.w3.org/2000/svg"
   xmlns:svg="http://www.w3.org/2000/svg"><defs
   id="defs5353" />&#10;    <g
   id="vectorly-UNI-piggy-bank"
   transform="matrix(4.9999999,0,0,4.9999999,-8042.6428,-72758.99)"
   style="stroke-width:0.2"><path
     d="m 2165.0858,14873.61 c -0.29,1.9 -2.07,3.2 -3.99,2.9 -1.91,-0.3 -3.23,-2.1 -2.94,-4 3.63,-27.9 19.89,-54.2 41.1399,-71.5 24.43,-20 55.3799,-27.8 81.8998,-14.9 13.53,6.6 22.75,19.4 27.5099,35.7 5.36,18.3 4.98,41.4 -1.06,64.3 -4.4199,16.8 -11.8699,33.7 -22.2099,48.5 -10.3,14.8 -23.4899,27.7 -39.1899,36.9 -19.35,11.3 -36.6499,16.8 -52.5499,19.1 -30.9099,4.5 -56.1498,-3.2 -80.6398,-1.7 -31.5599,2 -56.3798,0 -77.3198,-7.6 -16.3499,-5.9 -30.3699,-15.3 -43.3699,-29 -1.36,-1.3 -1.35,-3.6 0.03,-4.9 1.38,-1.4 3.6,-1.4 4.96,0 15.67,15.3 32.5399,24.3 53.0899,28.5 17.4499,3.5 37.5099,3.7 61.6898,1.3 24.02,-2.3 49.0499,4.6 79.3198,-0.6 14.26,-2.5 29.72,-7.8 46.8999,-18.3 13.68,-8.3 24.95,-19.8 33.9499,-32.8 9.26,-13.4 16.08,-28.4 20.26,-43.5 5.57,-20 6.59,-40.1 2.28,-56.3 -3.29,-12.4 -9.58,-22.5 -19.64,-27.8 -22.0399,-11.7 -48.2199,-4.8 -69.5198,11.2 -20.21,15.3 -36.1899,38.8 -40.5999,64.5 z"
     id="path4080"
     style="stroke:none;stroke-width:0.2" /><path
     d="m 1964.5163,14772.51 c 0.38,1.9 -0.85,3.8 -2.75,4.1 -1.89,0.4 -3.74,-0.8 -4.12,-2.7 -2.79,-12.3 -9.87,-36.7 -14.5399,-55.8 -2.79,-11.4 -4.62,-21.1 -4.54,-25.7 0.14,-7.3 3.83,-12.8 9.6099,-16.6 6.12,-4.1 15.03,-6.1 24.46,-5.9 7.71,0.3 14.9999,1.3 21.2899,2.6 6.71,1.3 12.26,3 15.93,4.2 7.84,-7.6 29.0999,-24.5 66.8198,-28.6 20.17,-2.2 45.1499,-0.5 75.2898,8.3 29.45,9 50.0199,24.4 65.6199,42 16.3699,18.6 27.1999,39.6 37.5499,57.6 8.23,14.3 16.0099,26.7 26.5299,33.9 1.62,1 2.08,3.2 1.02,4.8 -1.05,1.7 -3.22,2.1 -4.84,1.1 -11.73,-7.3 -21.0099,-20 -30.6199,-35 -10.82,-16.9 -22.1599,-36.7 -38.6999,-54 -14.74,-15.5 -33.7399,-28.8 -60.6599,-36 -27.8899,-7.7 -50.8898,-8.8 -69.4998,-6.9 -41.9999,4.4 -60.9798,25.7 -60.9798,25.7 -2.02,2.5 -5.41,3.3 -8.33,2 0,0 -7.32,-3.2 -18.09,-5.8 -5.57,-1.3 -12.0499,-2.5 -18.9199,-3 -5.51,-0.4 -10.84,0.1 -15.08,1.8 -3.9,1.6 -6.91,4.2 -7.19,8.3 -0.26,4.1 1.18,12.7 3.15,23.1 3.71,19.3 9.45,44.1 11.59,56.5 z"
     id="path4082"
     style="stroke:none;stroke-width:0.2" /><path
     d="m 2096.726,14657.61 c -1.36,1.4 -3.58,1.4 -4.96,0 -1.37,-1.3 -1.38,-3.5 -0.02,-4.9 5.59,-6.7 13.2799,-15.8 21.6099,-24.6 5.25,-5.4 10.69,-10.7 15.84,-15.2 5.04,-4.4 9.84,-8 13.8,-10.3 3.4499,-2.1 6.4999,-3.3 8.7799,-3.7 12.09,-1.9 19.87,-0.3 24.57,8.9 1.78,3.5 3.24,8.4 3.8,15.3 0.61,7.7 0.39,18 -0.55,32 0.04,1.9 -1.51,3.5 -3.44,3.6 -1.94,0 -3.53,-1.6 -3.56,-3.5 -1.72,-17.7 -3.67,-29.1 -6.24,-36.2 -0.92,-2.6 -1.93,-4.2 -3.22,-5.3 -0.67,-0.5 -1.53,-0.3 -2.47,-0.3 -1.68,0 -3.56,0.4 -5.71,1 -1.9,0.4 -4.51,2.2 -7.87,4.5 -4.2199,2.8 -9.1899,6.4 -14.3999,10.3 -3.53,2.7 -7.18,5.5 -10.83,8.4 -9.37,7.2 -18.5699,14.5 -25.1299,20 z"
     id="path4084"
     style="stroke:none;stroke-width:0.2" /><path
     d="m 2154.2658,14643.61 c -3.12,2.8 -6.76,5.7 -10.2399,8.6 -4.49,3.6 -8.68,6.5 -10.9,8.6 -1.09,1.6 -3.28,2 -4.87,1 -1.6,-1.1 -2,-3.3 -0.91,-4.9 1.86,-4.1 6.05,-11.4 11.01,-18.3 2.12,-3 4.34,-5.8 6.4999,-8.1 4.11,-4.3 7.64,-6.9 7.64,-6.9 1.99,-2 4.95,-2.7 7.61,-1.8 2.67,0.9 4.58,3.3 4.93,6.1 0,0 0.02,5.9 -0.21,11.9 -0.23,6.1 -0.69,11.9 -0.69,11.9 0.24,1.9 -1.12,3.7 -3.04,3.9 -1.92,0.3 -3.67,-1.1 -3.92,-3 0,0 -1.41,-4.1 -2.91,-9 z"
     id="path4086"
     style="stroke:none;stroke-width:0.2" /><path
     d="m 1981.3563,14705.01 c 0.64,2.4 1.27,5 1.88,7.7 1.5799,7.1 2.9399,14.6 4.1299,20.4 0.83,4 1.18,7 1.6,7.9 1.11,1.6 0.72,3.7 -0.87,4.8 -1.59,1.1 -3.78,0.8 -4.8799,-0.8 -1.53,-1.7 -7.17,-12.2 -12.06,-23.2 -2.15,-4.9 -4.12,-9.8 -5.53,-13.9 -1.88,-5.6 -2.74,-9.6 -2.74,-9.6 -0.76,-2.5 -0.23,-5.2 1.4,-7.2 1.63,-2 4.15,-3 6.73,-2.8 0,0 9.39,1.4 18.9699,6.4 5.82,3.1 11.62,7.2 15.59,12.8 1.32,1.4 1.24,3.7 -0.17,5 -1.42,1.3 -3.64,1.2 -4.96,-0.2 -3.38,-2.7 -7.5,-4.3 -11.6,-5.6 -2.57,-0.8 -5.11,-1.2 -7.4899,-1.7 z"
     id="path4088"
     style="stroke:none;stroke-width:0.2" /><path
     d="m 1956.2863,14762.31 c 1.12,-1.6 3.31,-2 4.88,-0.9 1.58,1.1 1.95,3.3 0.83,4.9 -7.52,12.1 -11.84,30.8 -12.75,52 -0.29,7 -0.21,14.3 0.28,21.7 0.31,4.7 0.84,9.5 1.42,14.3 1.42,11.7 3.75,23.5 7.65,35.1 5.68,16.8 14.09,33 27.0299,46.7 1.41,1.3 1.48,3.5 0.15,4.9 -1.33,1.4 -3.5499,1.5 -4.9499,0.2 -15.67,-13.1 -27.21,-29.3 -34.97,-46.9 -5.3899,-12.2 -8.9699,-25.1 -10.7599,-37.9 -0.74,-5.3 -1.07,-10.6 -1.16,-15.8 -0.15,-8.1 0.3,-16 1.36,-23.6 3.23,-23 11.1799,-42.6 20.9899,-54.7 z"
     id="path4090"
     style="stroke:none;stroke-width:0.2" /><path
     d="m 1904.9264,14972.61 c -1.93,-0.2 -3.3699,-1.8 -3.2299,-3.8 0.15,-1.9 1.8299,-3.3 3.7599,-3.2 0,0 17.29,-0.2 39.5499,3.2 7.47,1.1 15.44,2.7 23.5,4.8 5.17,1.3 10.32,3 15.4099,4.8 3.96,1.6 8.03,2.7 12.1,3.5 6.51,1.3 13.06,1.9 19.51,2 21.9999,0.2 42.4499,-4.8 52.8398,-4 1.94,0 3.49,1.6 3.48,3.5 -0.02,1.9 -1.6,3.5 -3.53,3.5 -5.8599,0.4 -14.6199,3.3 -25.1799,6 -8.23,2.1 -17.4,4.1 -27.0199,5 -7.47,0.6 -15.18,0.6 -22.82,-0.5 -5.12,-0.8 -10.1799,-2.2 -15.1599,-4.1 -5.79,-2.4 -11.76,-4.5 -17.62,-6.5 -6.26,-2.1 -12.38,-3.9 -18.1799,-5.6 -20.97,-5.9 -37.41,-8.6 -37.41,-8.6 z"
     id="path4092"
     style="stroke:none;stroke-width:0.2" /><path
     d="m 2153.9858,14987.11 c -1.21,-1.5 -0.96,-3.7 0.55,-5 1.51,-1.2 3.71,-0.9 4.92,0.6 9.5,9.9 12.54,19.3 12.4,27.3 -0.22,12.9 -9.61,22.1 -19.35,26.4 -7.13,2.7 -14.2799,3.2 -21.2199,1.4 -6.09,-1.5 -12.05,-4.7 -17.65,-9.1 -5.34,-4.3 -10.4399,-9.7 -15.1599,-15.9 -6.1,-8 -11.56,-17.2 -16.6,-26.7 -1.04,-1.7 -0.57,-3.8 1.06,-4.9 1.63,-1 3.8,-0.6 4.84,1.1 5.19,6.7 10.71,13.1 16.34,19 5.8999,6.1 11.9999,11.4 18.1499,15.4 4.23,2.7 8.49,4.6 12.78,5.6 4.02,1 8.1,1.1 12.2799,-0.3 5.7,-1.6 11.52,-6 12.74,-13.1 1.02,-5.9 -0.36,-13.2 -6.08,-21.8 z"
     id="path4094"
     style="stroke:none;stroke-width:0.2" /><path
     d="m 1868.3465,14977.71 c -1.19,-0.4 -2.78,-0.8 -4.19,-1.1 -15.0399,-3.6 -46.6198,-10.6 -77.6798,-34.9 -20.7299,-16.2 -41.1499,-40.3 -56.3298,-75.9 -18.09,-43.2 -10.51,-86.9 8.78,-124 21.6699,-41.6 57.8898,-74.7 86.5397,-88.6 1.72,-0.9 3.83,-0.2 4.71,1.5 0.88,1.7 0.19,3.9 -1.54,4.7 -26.8899,14.3 -60.2498,47 -79.7198,87.4 -16.5399,34.3 -23.0099,74.3 -5.46,113.2 14.48,32.6 33.66,54.3 52.8199,69.1 28.7599,22.3 57.7099,29 71.5498,32.5 4.84,1.2 8.21,2.3 9.82,3.2 1.56,0.9 2.57,2 3.2,2.9 0.89,1.3 2.05,4.2 2.7,8.5 0.78,5.2 1.32,13.3 1.62,22.8 0.65,20.9 0.21,48.5 -0.52,64.9 -0.67,14.3 4.81,23.3 12.38,27.4 9.3499,5.1 21.5499,3 25.1199,-6.2 3.35,-8.7 8.24,-18.6 13.77,-28.7 14.3499,-26.1 32.8299,-53.5 37.2999,-62.2 0.85,-1.7 2.95,-2.4 4.69,-1.6 1.74,0.9 2.46,3 1.61,4.7 -3.68,7.9 -17.75,30.8 -30.28,54.5 -6.7999,12.9 -13.1499,26 -16.9799,37 -5.41,15.5 -25.07,21.1 -40.8199,13.2 -11.11,-5.6 -20.36,-18 -20,-38.5 0.27,-13.9 0.09,-35.8 -0.63,-54.8 -0.45,-11.5 -1.09,-21.9 -2.02,-28.5 -0.12,-0.9 -0.29,-1.8 -0.44,-2.5 z m 67.6999,-335.4 c -1.93,0 -3.44,-1.7 -3.35,-3.6 0.08,-1.9 1.71,-3.4 3.65,-3.4 10.8099,-0.6 22.4899,-0.9 35.3699,0 4.59,0.3 9.27,0.8 14.0899,1.6 3.05,0.4 6.16,0.9 9.28,1.6 7.34,1.7 14.85,4 22.58,6.8 10.4999,3.7 21.1299,8.4 32.4199,13.7 1.82,0.6 2.77,2.6 2.12,4.5 -0.65,1.8 -2.66,2.7 -4.48,2.1 -11.32,-2.9 -22.04,-4.9 -32.3299,-6.9 -7.44,-1.5 -14.59,-2.7 -21.44,-4.1 -6.14,-1.2 -12.0099,-2.7 -17.6799,-3.9 -6.19,-1.4 -12.04,-2.9 -17.74,-4.1 -7.97,-1.7 -15.3599,-3.2 -22.4899,-4.3 z"
     id="path4096"
     style="stroke:none;stroke-width:0.2" /><path
     d="m 1845.8866,14668.01 c 1.77,0.8 2.58,2.8 1.8,4.6 -0.77,1.8 -2.84,2.6 -4.61,1.8 -15.82,-6.1 -25.4099,-20.5 -29.6399,-37.3 -3.97,-15.7 -2.83,-33.5 2.11,-48.2 7.0499,-19.9 22.8199,-29.7 39.7799,-32.4 8.6299,-1.5 17.5899,-1 25.6999,0.8 9.7,2.2 18.22,6.3 23.8999,11.1 16.11,14 23.14,31.7 23.96,48.7 1.03,21.1 -7.24,40.8 -17.49,49.9 -1.39,1.4 -3.61,1.4 -4.95,0 -1.35,-1.4 -1.32,-3.6 0.07,-5 8.09,-8.5 13.4,-26 11.16,-44 -1.71,-13.7 -8.13,-27.7 -21.9699,-38.2 -4.3,-3.4 -10.74,-5.8 -17.87,-7.1 -6.35,-1.3 -13.28,-1.5 -20.0099,-0.5 -11.96,1.9 -23.42,7.9 -28.88,21.7 -5.11,12.3 -6.9799,27.3 -4.69,41 2.38,14.1 8.99,26.9 21.63,33.1 z"
     id="path4098"
     style="stroke:none;stroke-width:0.2" /><path
     d="m 1853.1366,14568.51 c -1.69,0.9 -3.82,0.3 -4.76,-1.4 -0.94,-1.7 -0.33,-3.8 1.36,-4.8 18.1699,-11.7 37.5999,-12.9 54.3498,-7.2 7.39,2.5 14.17,6.6 20.11,11.7 3.93,3.4 7.47,7.3 10.44,11.6 5.38,7.9 9.0799,17.1 10.5799,27 1.28,8.4 1.04,17.4 -1.21,26.5 -2.7699,11.3 -8.3699,22.8 -17.6299,33.9 -1.13,1.6 -3.32,2 -4.89,0.8 -1.57,-1.1 -1.92,-3.3 -0.79,-4.9 8.27,-13.2 11.76,-26.2 11.99,-38.2 0.11,-5.4 -0.58,-10.5 -1.73,-15.4 -1.79,-7.6 -5.2,-14.4 -9.44,-20.5 -5.85,-8.4 -13.52,-15.3 -22.6599,-19.5 -13.42,-6.2 -29.39,-7.3 -45.7199,0.4 z"
     id="path4100"
     style="stroke:none;stroke-width:0.2" /><path
     d="m 1845.6166,14688.41 c -1.79,0.7 -3.84,-0.2 -4.57,-1.9 -0.73,-1.8 0.13,-3.9 1.93,-4.6 0,0 8.55,-5.4 23.3199,-9.9 3.04,-1 6.33,-1.7 9.86,-2.3 2.16,-0.4 4.39,-0.8 6.71,-0.9 5.32,-0.3 10.99,-0.1 16.89,0.7 7.9599,1 16.0399,3.1 24.4799,6 1.89,0.4 3.12,2.3 2.74,4.2 -0.39,1.8 -2.24,3.1 -4.13,2.7 -8.3,-0.5 -16,0.1 -23.4399,0.7 -4.48,0.4 -8.72,1 -12.82,1.4 -2.95,0.3 -5.81,0.5 -8.54,0.6 -4.73,0.4 -9.04,0.6 -12.93,0.9 -12.0499,1 -19.4999,2.4 -19.4999,2.4 z"
     id="path4102"
     style="stroke:none;stroke-width:0.2" /><path
     d="m 1773.0568,15042.61 c -0.92,1.7 -3.05,2.3 -4.75,1.4 -1.7,-1 -2.33,-3.1 -1.41,-4.8 4.98,-10.6 10.96,-19.5 17.2599,-26.5 5.72,-6.3 11.81,-10.9 17.62,-13.7 15.42,-7.4 25.6199,-4.5 31.6099,1.5 4.4,4.4 6.78,11.1 7.03,19.1 0.26,7.9 -1.78,17 -5.39,25.4 -5.39,11.5 -12.18,22 -19.1099,30.6 -11.18,13.9 -22.36,23 -26.67,25.2 -9.7899,5.1 -18.5399,5.3 -25.1099,2.2 -7.79,-3.6 -12.92,-11.5 -12.51,-21.3 -0.03,-1.9 1.52,-3.5 3.45,-3.6 1.94,0 3.53,1.6 3.56,3.5 0.42,6.2 3.86,11 8.99,12.8 4.41,1.5 9.9,0.4 15.8299,-3.5 3.56,-2.3 12.09,-11.3 20.98,-24 5.74,-8.1 11.6,-17.7 15.98,-28.3 1.9199,-4.3 3.2799,-8.8 3.9899,-13.1 0.73,-4.5 0.89,-8.7 -0.19,-12.1 -1.8,-5.6 -7.3499,-6.8 -17.4899,-2.9 -6.01,2.2 -12.41,6.7 -18.65,12.9 -5.24,5.3 -10.3799,11.7 -15.0199,19.2 z"
     id="path4104"
     style="stroke:none;stroke-width:0.2" /><path
     d="m 1845.1066,15022.01 c -0.04,-1.9 1.5,-3.5 3.44,-3.6 1.93,0 3.53,1.5 3.57,3.5 0,0 0.92,6.1 0.21,15.8 -0.34,4.6 -1.08,9.8 -2.51,15.7 -0.96,3.8 -2.3,7.9 -4.04,12 -1.06,2.6 -2.26,5.2 -3.75,7.7 -3.37,5.7 -7.72,11.4 -13.11,16.7 -6.8299,6.8 -15.1899,12.9 -25.3699,18.3 -1.6,1 -3.79,0.6 -4.87,-1 -1.09,-1.6 -0.67,-3.8 0.93,-4.8 7.97,-6.9 13.82,-14.2 18.91,-21.3 3.8199,-5.4 6.7799,-10.7 9.5999,-15.8 3.29,-5.8 6.2,-11.3 8.44,-16.4 6.73,-15.3 8.55,-26.8 8.55,-26.8 z"
     id="path4106"
     style="stroke:none;stroke-width:0.2" /><path
     d="m 1699.847,15013.81 c -0.24,-2 1.13,-3.7 3.0499,-4 1.92,-0.2 3.67,1.2 3.9,3.1 3.45,19.5 1.71,33.9 -2.59,43.9 -3.3799,7.9 -8.5599,13.1 -14.3199,16.2 -13.41,7.2 -31.1299,2.4 -43.8899,-12.7 -4.9,-6.1 -8.7,-12.4 -11.4,-18.8 -3.02,-7.2 -4.76,-14.4 -5.54,-21.2 -2.23,-19.6 3.11,-36.4 8.25,-43.4 6.54,-8.6 17.38,-15.3 29.9699,-12.1 7.46,1.9 15.78,7.3 23.79,18.7 1.19,1.6 0.91,3.8 -0.61,5 -1.53,1.2 -3.74,0.9 -4.92,-0.6 -7.32,-8.5 -14.14,-12.5 -20.23,-13.4 -7.9899,-1.2 -14.1699,3.8 -17.7199,9.5 -3.61,5.7 -5.94,19 -3.41,34.1 0.92,5.6 2.59,11.3 5.1,17.1 2.23,5.2 5.1,10.4 8.98,15.4 8.9699,12.1 22.8499,16.1 31.8199,6.4 7.04,-7.6 11.2599,-21.6 9.77,-43.2 z"
     id="path4108"
     style="stroke:none;stroke-width:0.2" /><path
     d="m 1624.6871,14969.91 c 0.95,-1.7 3.09,-2.3 4.78,-1.3 1.68,0.9 2.28,3.1 1.33,4.7 -4.75,10.9 -6.52,21.5 -7.03,31.6 -0.37,7.2 0.31,14.1 1.47,20.6 0.93,5.2 2.01,10.2 3.74,15 1.21,3.3 2.5,6.5 4.11,9.5 4.31,8.1 9.84,15.1 16.83,20.3 1.67,1 2.22,3.1 1.24,4.8 -0.98,1.6 -3.13,2.2 -4.8,1.2 -10.98,-5.1 -20.57,-13.6 -27.5499,-24.5 -4.4,-7 -7.66,-14.9 -9.31,-23.5 -0.63,-3.3 -0.92,-6.7 -0.96,-10.1 -0.07,-4.9 0.28,-9.9 1.32,-15 2.29,-11.2 7.12,-22.4 14.8299,-33.3 z"
     id="path4110"
     style="stroke:none;stroke-width:0.2" /><path
     d="m 1845.7266,14962.51 c 1.09,-1.6 3.28,-2 4.87,-0.9 1.6,1.1 2,3.3 0.91,4.9 0,0 -1.75,5.9 -5.27,13.6 -0.77,1.6 -1.67,3.3 -2.68,5 -0.64,1.1 -1.3,2.2 -2.1,3.2 -2.03,2.6 -4.36,4.8 -6.68,6.9 -4.92,4.4 -9.38,7.5 -12.24,9 -1.4499,1.3 -3.6699,1.2 -4.9499,-0.3 -1.28,-1.4 -1.14,-3.6 0.31,-4.9 1.43,-2.1 2.87,-5.7 5.0599,-10.1 0.84,-1.7 1.66,-3.4 2.66,-5.2 0.93,-1.6 1.87,-3.3 2.99,-4.9 0.72,-1 1.53,-2 2.34,-2.9 1.29,-1.4 2.58,-2.8 3.9,-4 6.07,-5.7 10.88,-9.4 10.88,-9.4 z"
     id="path4112"
     style="stroke:none;stroke-width:0.2" /><path
     d="m 1777.7468,14924.71 c 0.95,-1.7 3.09,-2.3 4.7699,-1.3 1.69,0.9 2.29,3.1 1.34,4.7 0,0 -5.5299,12.9 -12.1399,28.3 -1.69,3.9 -3.46,7.9 -5.24,12 -1.99,4.5 -3.91,9 -5.8,13.2 -2.15,4.8 -4.16,9.2 -5.73,12.9 -1.11,2.6 -2.1,4.8 -2.56,6.5 -2.59,8.5 -1.35,14.5 2.67,18.3 5.42,5.2 13.89,7.3 21.35,6.9 1.92,-0.3 3.69,1 3.96,2.9 0.27,1.9 -1.06,3.7 -2.98,4 -9.77,2.3 -21.5,1.1 -29.74,-4.7 -7.9799,-5.6 -12.5999,-15.4 -10.0299,-30.9 0.65,-3.2 2.14,-8 4.5699,-13.6 2.33,-5.4 5.49,-11.5 8.99,-17.8 3.21,-5.7 6.75,-11.5 10.17,-16.9 8.68,-13.6 16.4,-24.5 16.4,-24.5 z"
     id="path4114"
     style="stroke:none;stroke-width:0.2" /><path
     d="m 2203.4657,15036.51 c 0.91,-1.8 3.04,-2.4 4.74,-1.5 1.71,0.9 2.36,3 1.45,4.7 -5.51,12.6 -3.39,27.2 4.23,40.6 4.3,7.6 10.61,14.6 18.5299,21 6.95,5.6 15.04,10.7 24.73,14.6 12.4399,5.1 26.9799,8.7 44.0799,9.2 1.93,-0.1 3.56,1.4 3.65,3.3 0.08,2 -1.43,3.6 -3.36,3.7 -18.48,2.1 -34.79,0.8 -48.8199,-3.2 -11.82,-3.4 -22,-8.7 -30.2599,-15.1 -3.75,-3 -7.05,-6.2 -9.96,-9.6 -4.73,-5.6 -8.51,-11.5 -11.14,-17.6 -7.47,-17.5 -6.84,-35.9 2.13,-50.1 z"
     id="path4116"
     style="stroke:none;stroke-width:0.2" /><path
     d="m 2284.5155,15047.71 c 1.67,0.9 2.24,3.1 1.27,4.8 -0.97,1.6 -3.12,2.2 -4.79,1.2 -13.31,-6.7 -25.0499,-9.5 -34.6399,-9.7 -6.31,-0.1 -11.52,1.1 -15.46,3.2 -3.86,2.1 -6.0699,5.4 -6.0499,9.3 -0.04,4.5 1.8499,8.8 4.5799,12.8 2.8,4.1 6.67,7.9 11.02,11.5 7.78,6.3 17.22,11.7 26.4099,15.5 7,2.9 13.74,5 19.41,5.7 10.7,1.5 18.08,0.2 21.6499,-4.1 4.07,-5 2.61,-12.6 -3.2199,-20.9 -1.19,-1.6 -0.92,-3.8 0.61,-5 1.5299,-1.2 3.7299,-0.9 4.9199,0.6 10.04,11.6 11.08,23.3 5.75,31.3 -4.61,6.9 -14.8099,11.5 -30.8099,10.9 -8.21,-0.4 -18.58,-2.8 -28.9499,-6.9 -9.11,-3.7 -18.22,-8.7 -25.79,-14.7 -4.52,-3.6 -8.4799,-7.6 -11.6399,-11.8 -5.87,-7.8 -9.1,-16.5 -8.57,-25.4 0.95,-12.4 10.84,-22.8 28.3199,-23.6 12.11,-0.5 28.0899,3.5 45.9799,15.3 z"
     id="path4118"
     style="stroke:none;stroke-width:0.2" /><path
     d="m 2150.2458,15050.01 c -1.9,0.4 -3.75,-0.9 -4.14,-2.8 -0.38,-1.9 0.84,-3.7 2.74,-4.1 0,0 6.3,-3.2 16.22,-5.5 2.11,-0.6 4.36,-0.9 6.75,-1.1 1.48,-0.2 3.01,-0.3 4.56,-0.3 3.77,0.2 7.61,0.9 11.4099,1.9 5.81,1.6 11.11,3.9 16.12,7 1.82,0.7 2.75,2.7 2.09,4.5 -0.67,1.9 -2.69,2.8 -4.5,2.1 -4.24,-0.6 -8.37,-0.3 -12.75,-0.2 -2.14,0.1 -4.1899,0.3 -6.2999,0.4 -2.13,0.1 -4.21,0.4 -6.27,0.3 -3.62,0 -7.03,-0.4 -10.17,-0.7 -9.39,-0.8 -15.76,-1.5 -15.76,-1.5 z"
     id="path4120"
     style="stroke:none;stroke-width:0.2" /><path
     d="m 2200.2357,15062.51 c 1.67,-0.9 3.82,-0.4 4.79,1.3 0.97,1.7 0.4,3.8 -1.27,4.8 -6.53,4.7 -16.2,8.4 -27.1099,11.3 -6.04,1.5 -12.4,2.7 -18.76,3.6 -4.8,0.7 -9.58,1.2 -14.1499,1.4 -3.28,0.2 -6.46,0.3 -9.45,0.3 -12.57,-0.2 -22.09,-1.4 -24.29,-1.9 -10.9399,-2.6 -16.7599,-7.1 -18.7899,-11.6 -3.12,-7 0.3,-15.6 10.84,-19.3 1.77,-0.8 3.8399,0 4.6399,1.8 0.8,1.7 0.01,3.8 -1.75,4.6 -3.4399,2 -5.5199,4.5 -5.2799,7 0.1,1 1.28,1.5 2.61,2.3 2.21,1.2 5.4399,1.8 9.7399,2.1 1.8,0.2 8.82,-0.2 18.34,-0.7 3.89,-0.1 8.17,-0.3 12.68,-0.5 4.0799,-0.1 8.3399,-0.2 12.6499,-0.4 6.33,-0.2 12.73,-0.4 18.87,-1 10.02,-0.8 19.1699,-2.1 25.6899,-5.1 z"
     id="path4122"
     style="stroke:none;stroke-width:0.2" /><path
     d="m 2206.3157,15080.11 c 1.8,-0.7 3.83,0.2 4.54,2 0.7,1.8 -0.19,3.9 -1.99,4.6 -9.29,4.6 -19.64,8.5 -30.4399,11.3 -7.07,1.8 -14.23,3.2 -21.3,4.1 -7.52,0.9 -14.8899,1.3 -21.7499,1.1 -13.87,-0.5 -25.63,-3.3 -33.0999,-6.6 -7.85,-3.8 -13.59,-10.6 -15.43,-16.9 -1.58,-5.4 -0.89,-10.2 2.28,-12.8 1.39,-1.1 3.15,-2.1 5.55,-2.3 1.91,-0.3 3.71,1 4.01,2.9 0.3,1.9 -1.01,3.7 -2.92,4 -1.05,0.3 -1.27,1.2 -1.23,2.1 0.06,1.5 1.05,3 2.24,4.7 2.12,3 5.7,5.5 9.8999,6.7 3.69,1.2 8.47,1.7 14.02,2.1 4.56,0.3 9.58,0.2 14.95,0.2 6.36,0.1 13.1699,0 20.1899,-0.4 6.68,-0.3 13.49,-0.7 20.3,-1.4 10.4799,-1.1 20.7599,-2.6 30.1799,-5.4 z"
     id="path4124"
     style="stroke:none;stroke-width:0.2" /><path
     d="m 2231.2756,14845.71 c 1.41,-1.3 3.63,-1.2 4.95,0.2 1.33,1.4 1.25,3.6 -0.16,4.9 0,0 -2.02,4.5 -4.66,12 -0.83,2.3 -1.48,4.9 -2.51,7.7 -0.73,2 -1.75,4 -2.62,6.2 -0.8399,2.1 -1.8499,4.1 -2.6399,6.5 -0.96,2.8 -1.98,5.5 -2.62,8.8 0.1,1.9 -1.4,3.5 -3.33,3.6 -1.93,0.1 -3.58,-1.4 -3.67,-3.3 -1.15,-3.9 -1.73,-7.3 -2.08,-11 -0.25,-2.6 -0.18,-5.1 0.03,-7.5 0.25,-2.9 0.81,-5.6 1.65,-8 0.48,-1.4 1.12,-2.8 1.8,-4 1.14,-2 2.31,-3.8 3.6,-5.4 1.54,-1.9 2.95,-3.4 4.43,-4.7 4.6399,-4.2 7.8299,-6 7.8299,-6 z"
     id="path4126"
     style="stroke:none;stroke-width:0.2" /><path
     d="m 2259.6356,14851.31 c -1.65,-1 -2.17,-3.2 -1.16,-4.9 1.01,-1.6 3.17,-2.1 4.82,-1.1 0,0 2.7799,0.7 7.4099,2.9 1.47,0.7 2.86,1.6 4.49,2.7 1.37,0.9 2.65,2.1 3.97,3.4 0.79,0.8 1.57,1.7 2.22,2.7 1.15,1.8 2.09,3.8 2.77,6 0.61,2 1.12,3.9 1.34,6.1 0.31,3 0.45,5.8 0.1,9.1 0.37,1.9 -0.86,3.7 -2.76,4.1 -1.9,0.4 -3.74,-0.9 -4.12,-2.8 -1.53,-2.9 -3.39,-4.9 -5.2,-7.2 -0.73,-0.9 -1.51,-1.6 -2.2,-2.5 -1.05,-1.3 -2.22,-2.4 -3.11,-3.7 -1.35,-2 -2.26,-4 -3.2799,-5.7 -3.34,-5.6 -5.29,-9.1 -5.29,-9.1 z"
     id="path4128"
     style="stroke:none;stroke-width:0.2" /></g>&#10;</svg>
