<?xml version="1.0" encoding="UTF-8" standalone="no"?>
<svg
   width="3420.2283"
   height="1934.5706"
   viewBox="0 0 3420.2283 1934.5706"
   version="1.1"
   xml:space="preserve"
   style="clip-rule:evenodd;fill-rule:evenodd;stroke-linejoin:round;stroke-miterlimit:2"
   id="svg5353"
   xmlns="http://www.w3.org/2000/svg"
   xmlns:svg="http://www.w3.org/2000/svg"><defs
   id="defs5353" />&#10;    <g
   id="vectorly-UNI-chainsaw"
   style="stroke:none;stroke-width:0.2"
   transform="matrix(4.9999999,0,0,4.9999999,-102.51003,-33244.251)"><path
     d="m 27.7221,6947.0932 c 0.036,1.94 -1.504996,3.53 -3.438991,3.57 -1.934995,0.04 -3.533991,-1.5 -3.569991,-3.44 -1.513996,-21.29 5.194987,-39.72 17.560956,-55.5199 7.707981,-9.84 17.694956,-18.57 29.309928,-26.18 7.83698,-5.13 16.440959,-9.74 25.621936,-13.72 8.596982,-3.72 17.711952,-6.86 27.105932,-9.58 13.49597,-3.9 27.56593,-6.87 41.7279,-9.08 14.18196,-2.21 28.38493,-3.56 42.18589,-4.37 1.923,-0.21 3.65499,1.18 3.86699,3.1 0.211,1.92 -1.17799,3.66 -3.10099,3.87 -13.37897,2.16 -27.05793,5.05 -40.7069,8.47 -13.42397,3.37 -26.68793,7.39 -39.4569,11.97 -8.70298,3.12 -17.11396,6.57 -25.195938,10.2 -8.427979,3.78 -16.462959,7.78 -23.896941,12.2 -10.639973,6.32 -20.07595,13.34 -27.676931,21.49 -12.03497,12.8999 -19.702951,28.2499 -20.33595,47.0199 z"
     id="path1706"
     style="stroke:none;stroke-width:0.2" /><path
     d="m 47.233052,6859.9833 c -1.639996,1.02 -3.803991,0.52 -4.830988,-1.11 -1.025997,-1.65 -0.527999,-3.81 1.111997,-4.83 0,0 9.831976,-8.32 26.869934,-17.51 3.537991,-1.9 7.403981,-3.74 11.568971,-5.52 2.547994,-1.09 5.195987,-2.17 7.98498,-3.08 6.464984,-2.09 13.466964,-3.73 20.834944,-4.95 10.18098,-1.68 20.86495,-2.33 31.98093,-2.2 1.92599,-0.18 3.63799,1.23 3.81999,3.16 0.183,1.92 -1.233,3.64 -3.159,3.82 -10.37497,2.11 -20.03395,5.29 -29.33192,8.47 -5.54799,1.9 -10.81698,3.94 -15.938964,5.76 -3.671991,1.31 -7.251982,2.49 -10.683974,3.62 -5.879985,1.94 -11.304972,3.67 -16.16596,5.34 -14.841963,5.1 -24.06094,9.03 -24.06094,9.03 z"
     id="path1708"
     style="stroke:none;stroke-width:0.2" /><path
     d="m 464.44802,6740.3933 c 0.42,-1.89 2.29299,-3.08 4.18199,-2.66 1.88799,0.42 3.08099,2.29 2.66099,4.18 -1.011,5.39 -4.67799,32.39 -12.49297,49.34 -2.96199,6.43 -6.70798,11.42 -10.76097,14.11 -3.01599,2 -6.31199,2.79 -9.81198,2.44 -10.19497,-1.06 -43.34089,-9.43 -70.20582,-22.22 -12.06197,-5.74 -22.81395,-12.47 -30.00593,-19.54 -4.99099,-4.91 -8.31698,-10.14 -9.80597,-15.33 -1.007,-3.62 -1.662,-9.99 -1.399,-17.64 0.392,-11.39 2.59699,-25.82 7.21398,-37.53 6.29399,-15.97 17.12096,-26.74 31.97992,-24.15 4.92199,0.88 17.78696,5.56 32.92892,11.77 31.01192,12.71 72.09182,31.43 72.09182,31.43 1.785,0.75 2.62899,2.8 1.884,4.59 -0.745,1.78 -2.8,2.63 -4.58499,1.88 0,0 -42.0159,-15.97 -73.55282,-26.89 -14.25096,-4.94 -26.23493,-8.89 -30.80692,-9.47 -3.84199,-0.5 -6.84699,1.16 -9.31498,3.8 -2.87299,3.06 -4.96599,7.42 -6.68398,12.25 -3.65699,10.29 -5.09799,22.84 -5.26799,32.73 -0.096,5.59 0.148,10.25 0.9,12.89 1.08399,3.92 4.37099,7.57 8.64998,11.26 5.95798,5.13 13.87096,9.99 22.48694,14.48 24.83394,12.95 55.43086,22.72 64.96884,24.18 1.86899,0.3 3.44299,-0.9 4.99899,-2.57 2.91799,-3.14 5.47998,-7.83 7.75198,-13.1 6.71598,-15.57 10.84397,-35.77 11.99597,-40.23 z"
     id="path1710"
     style="stroke:none;stroke-width:0.2" /><path
     d="m 339.44933,6702.3133 c -1.813,-0.67 -2.738,-2.69 -2.064,-4.51 0.674,-1.81 2.693,-2.73 4.50599,-2.06 0,0 15.09096,3.52 34.26792,9 4.36299,1.25 8.88997,2.66 13.49596,4.17 2.956,0.97 5.94599,1.96 8.87998,3.09 7.50798,2.92 14.84396,6.19 21.62595,9.29 18.12995,8.26 31.88792,15.4 31.88792,15.4 1.81399,0.67 2.73899,2.69 2.06499,4.5 -0.674,1.82 -2.69399,2.74 -4.50699,2.07 0,0 -15.07996,-3.59 -34.20591,-9.17 -7.15398,-2.09 -14.84696,-4.4 -22.43795,-7.1 -2.96499,-1.05 -5.87298,-2.26 -8.74497,-3.45 -4.47699,-1.87 -8.82398,-3.76 -12.94197,-5.66 -18.09796,-8.38 -31.82692,-15.57 -31.82692,-15.57 z"
     id="path1712"
     style="stroke:none;stroke-width:0.2" /><path
     d="m 333.75534,6734.1533 c -1.83899,-0.6 -2.84599,-2.58 -2.24699,-4.42 0.6,-1.84 2.57899,-2.85 4.41899,-2.24 0,0 14.05096,2.52 31.97192,6.73 4.07299,0.95 8.29798,2.06 12.60197,3.27 2.75999,0.77 5.55298,1.55 8.29597,2.5 7.02299,2.41 13.88497,5.18 20.23095,7.81 16.98696,7.04 29.85793,13.22 29.85793,13.22 1.839,0.6 2.84599,2.58 2.247,4.42 -0.599,1.84 -2.579,2.85 -4.41899,2.25 0,0 -14.04397,-2.58 -31.91692,-6.9 -6.67799,-1.61 -13.85797,-3.41 -20.95295,-5.6 -2.771,-0.86 -5.49099,-1.87 -8.17698,-2.87 -4.18899,-1.56 -8.25398,-3.15 -12.10797,-4.78 -16.96096,-7.15 -29.80393,-13.39 -29.80393,-13.39 z"
     id="path1714"
     style="stroke:none;stroke-width:0.2" /><path
     d="m 386.78721,6683.8833 c -0.118,1.93 -1.781,3.4 -3.71199,3.28 -1.931,-0.11 -3.40299,-1.78 -3.28599,-3.71 0.275,-8.44 2.92399,-17.84 9.04197,-23.54 4.10099,-3.8299 9.75398,-6.0599 17.39996,-5.4899 6.65799,0.52 18.81396,4.2299 33.51592,9.7199 21.80294,8.15 49.39688,20.21 72.69482,30.4 7.37998,3.27 12.53197,10.34 15.65696,19.72 3.02599,9.09 4.12099,20.52 4.40399,31.65 0.084,3.91 0.072,7.79 0.002,11.5 -0.118,6.29 -0.393,12.1 -0.505,16.8 -0.119,3.22 -1.041,35.64 -2.50599,71.51 -1.025,25.09 -2.409,51.85 -3.392,71.5199 l -1.79099,29.45 c -1.253,10.14 -8.46798,15.61 -20.80395,13.81 -10.57197,-1.55 -25.73094,-9.1 -43.03689,-24.11 -1.494,-1.23 -1.709,-3.44 -0.48,-4.93 1.229,-1.5 3.43999,-1.71 4.93399,-0.48 13.17696,10.27 24.77993,16.45 33.87691,18.98 8.66898,2.42 14.62697,1.77 15.07496,-4.3 l 0.36,-28.78 c 0.343,-27.5199 0.513,-68.9199 0.948,-100.1699 0.322,-23.08 0.793,-40.62 0.843,-42.95 l 0.796,-27.63 c -0.024,-9.58 -0.635,-19.44 -3.019,-27.33 -1.52899,-5.06 -3.50599,-9.38 -7.39198,-11.25 -22.64794,-11.11 -49.50387,-24.18 -70.72282,-33.29 -13.32397,-5.72 -24.28294,-9.93 -30.40093,-10.72 -6.02698,-0.8 -10.25797,1.21 -13.05096,4.71 -3.39,4.25 -4.96499,10.2 -5.44999,15.63 z"
     id="path1716"
     style="stroke:none;stroke-width:0.2" /><path
     d="m 514.15689,6957.7832 c -1.93199,-0.1 -3.41899,-1.75 -3.31999,-3.68 0.1,-1.93 1.75,-3.42 3.68199,-3.32 7.69598,0.17 15.29597,-1.77 20.93495,-6.03 5.10899,-3.87 8.34098,-9.83 8.34198,-17.95 0.034,-5.66 -0.683,-53.7199 -1.086,-101.9599 -0.148,-17.67 -0.25,-35.36 -0.249,-50.99 0,-25.09 0.216,-44.81 -0.195,-50.39 -0.60699,-9.57 -1.01599,-17.97 -3.91799,-24.48 -1.72699,-3.87 -4.43198,-6.95 -9.01697,-8.91 -7.95998,-3.42 -29.74793,-11.85 -49.25088,-19.08 -14.50597,-5.38 -27.70193,-10.12 -32.91892,-11.39 -7.84798,-1.8999 -16.24496,-1.9899 -23.75694,-1.35 -13.41197,1.14 -24.04994,4.53 -24.04994,4.53 -1.823,0.65 -3.82899,-0.3 -4.47699,-2.12 -0.648,-1.83 0.305,-3.8299 2.12799,-4.4799 0,0 11.16298,-4.34 25.44694,-6.35 8.39998,-1.19 17.84196,-1.49 26.77294,0.18 5.45898,1.03 19.38395,5.12 34.64291,9.9599 20.08795,6.38 42.48289,14.05 50.69087,17.16 8.51098,3.25 13.68297,8.68 17.07696,15.65 3.78499,7.78 4.97399,17.89 6.04899,29.47 0.416,4.94 0.79999,20.68 0.74599,41.44 -0.032,12.25 -0.246,26.28 -0.53799,40.86 -0.325,16.22 -0.778,33.11 -1.286,49 -1.19,37.28 -2.60399,69.0099 -2.85099,73.5499 -0.674,11.45 -5.83299,19.55 -13.37197,24.58 -7.26998,4.85 -16.74496,6.88 -26.22694,6.1 z"
     id="path1718"
     style="stroke:none;stroke-width:0.2" /><path
     d="m 378.51223,6951.2832 c -0.006,0.02 0,0.04 0.023,0.05 0.082,0.06 0.136,0.03 0.172,-0.05 0.195,0 0.341,-0.03 0.296,-0.16 -0.026,-0.07 -0.137,-0.06 -0.247,-0.02 0.043,-0.27 0.038,-0.68 0.092,-0.94 0.319,-1.54 0.299,-3.43 0.177,-5.64 -0.165,-3.54 -2.054,-22.43 -1.777,-43.0199 0.133,-9.88 0.807,-20.14 2.237,-29.31 2.38199,-15.26 7.42898,-27.54 14.37396,-32.48 8.68998,-6.05 25.29994,-13.13 43.2149,-19.39 31.11792,-10.88 65.91983,-19.81 65.91983,-19.81 1.854,-0.55 3.80799,0.5 4.36099,2.36 0.554,1.85 -0.501,3.8 -2.35499,4.36 0,0 -33.60492,11.5 -63.62685,24.22 -16.11796,6.83 -31.18892,13.92 -38.8739,19.95 -2.44399,1.88 -3.76199,5.66 -5.04599,10.2 -1.79799,6.36 -2.75299,14.21 -3.40799,22.48 -0.782,9.87 -1.01,20.3099 -1.01,29.6799 0.002,15.15 0.546,27.53 0.581,30.31 0.063,9.01 -2.23299,14.98 -6.05398,17.96 -2.538,1.97 -5.79099,3.22 -10.11298,2.85 -5.90298,-0.5 -15.07796,-4.41 -28.28093,-13.24 -2.15199,-1.46 -4.12299,-3.7 -5.52698,-6.85 -1.656,-3.72 -2.797,-8.81 -3.29199,-14.62 -1.306,-15.34 1.13799,-35.8699 3.31899,-45.1599 0.368,-1.9 2.20799,-3.14 4.10699,-2.77 1.89899,0.37 3.14299,2.21 2.77499,4.1 -1.17,7.69 -1.856,23.2799 -0.55,36.6299 0.5,5.11 1.316,9.87 2.56299,13.64 0.767,2.32 1.524,4.21 2.869,4.99 10.87597,6.31 18.06095,9.55 22.74794,9.66 0.094,0 0.213,0.01 0.332,0.02 z m 0,0 c 0.016,-0.06 0.129,-0.14 0.244,-0.18 -0.012,0.07 -0.027,0.14 -0.049,0.18 -0.062,0 -0.128,0 -0.195,0 z"
     id="path1720"
     style="stroke:none;stroke-width:0.2" /><path
     d="m 384.74621,6959.3532 c -1.86299,0.52 -3.79799,-0.57 -4.31798,-2.43 -0.52,-1.86 0.57099,-3.8 2.43399,-4.32 0,0 10.84797,-4.29 27.70493,-10.46 5.60499,-2.05 11.82497,-4.29 18.57895,-6.58 4.96199,-1.68 10.16598,-3.43 15.60497,-5.04 5.11198,-1.51 10.44297,-2.81 15.82096,-4.27 7.69398,-1.75 15.49696,-3.62 23.35494,-5.32 12.03997,-2.6 23.97394,-4.88 35.25391,-7.23 1.856,-0.55 3.80599,0.51 4.35099,2.37 0.546,1.86 -0.518,3.81 -2.37399,4.35 -10.77298,4.13 -22.09295,8.6 -33.68592,12.81 -7.56598,2.75 -15.18796,5.3 -22.65094,7.89 -5.34299,1.6 -10.56698,3.31 -15.71596,4.71 -5.47899,1.5 -10.83098,2.74 -15.94297,3.92 -6.95498,1.59 -13.43496,2.94 -19.28995,4.11 -17.61195,3.55 -29.12593,5.49 -29.12593,5.49 z m 165.36559,-47.57 c -1.85099,0.56 -3.80999,-0.48 -4.37398,-2.33 -0.563,-1.85 0.48199,-3.81 2.33299,-4.37 8.73898,-3 16.16596,-5.6199 21.68095,-7.6699 4.15599,-1.54 7.16098,-2.75 8.73897,-3.54 17.91996,-8.78 24.59494,-17.63 30.42193,-25.86 3.80399,-5.37 7.33798,-10.46 12.65497,-15.24 5.63698,-5.07 13.29396,-9.72 25.42093,-13.82 16.02996,-5.29 26.98894,-8.69 33.88192,-12.41 2.62299,-1.42 4.47799,-2.65 5.27199,-4.56 0.825,-1.98 0.45,-4.39 -0.238,-7.55 -5.02999,-25.02 -7.93398,-44.09 -11.94097,-56.56 -1.248,-3.89 -2.49,-7.06 -4.15299,-9.38 -1.357,-1.89 -2.89099,-3.13 -5.09899,-3.23 -6.25698,-0.31 -28.56193,-0.8 -56.90686,-0.44 -17.52495,0.23 -37.31791,0.72 -57.07286,1.91 -1.92599,0.18 -3.63399,-1.24 -3.81099,-3.17 -0.177,-1.93 1.244,-3.64 3.16999,-3.81 19.78996,-2.45 39.65591,-4.27 57.27186,-5.52 28.67693,-2.03 51.30288,-2.61 57.65586,-2.63 8.20198,0 14.27996,4.16 19.07595,12.8 4.07899,7.34 7.24298,18.73 10.56698,33.93 2.06199,9.42 4.16099,20.39 6.86098,32.8 2.42299,11.8 0.243,19 -6.71198,24.85 -6.76999,5.68 -20.35995,9.79 -43.5799,16.6 -9.99197,2.85 -16.42696,6.22 -21.21194,10.09 -4.78299,3.87 -8.00198,8.13 -11.54397,12.55 -7.13599,8.9 -15.28997,18.46 -36.15192,27.1299 -1.78999,0.73 -5.17298,1.85 -9.84997,3.23 -5.69499,1.68 -13.35397,3.8 -22.36095,6.2 z m -25.88793,-169.2399 c 1.91899,-0.24 3.67399,1.12 3.91699,3.04 0.242,1.92 -1.119,3.68 -3.03799,3.92 -6.16399,1.99 -11.78897,4.2 -17.67696,6.06 -2.37399,0.75 -4.70299,1.4 -7.04998,2 -1.582,0.41 -3.14599,0.82 -4.72199,1.08 -4.13799,0.68 -8.14198,0.99 -12.03097,1.37 -6.67298,0.64 -12.63697,0.85 -18.23896,1.74 -1.82699,0.63 -3.82699,-0.33 -4.46198,-2.16 -0.636,-1.83 0.331,-3.83 2.15799,-4.46 5.21599,-2.94 10.80397,-5.88 17.40496,-8.42 3.82799,-1.47 7.84298,-2.82 12.14197,-3.78 1.62699,-0.35 3.30399,-0.55 4.99899,-0.73 2.49299,-0.26 4.99298,-0.44 7.57098,-0.48 6.29298,-0.08 12.43797,0.42 19.02695,0.82 z"
     id="path1722"
     style="stroke:none;stroke-width:0.2" /><path
     d="m 394.90019,6818.6133 c 0.011,0 0.022,0 0.032,0 -0.01,0 -0.021,0 -0.032,0 z m -20.58995,-9.6 c 1.456,0.82 3.55799,1.88 5.88799,3.07 2.29899,1.18 4.82398,2.47 7.28898,3.6 1.93199,0.89 3.77099,1.77 5.45198,2.31 0.778,0.24 1.409,0.63 1.961,0.62 -0.609,0.02 -2.29199,0.22 -1.775,0.83 3.486,4.15 9.13698,-13.78 16.06596,-19.48 4.26999,-3.5 8.94698,-5.79 14.35597,-4.97 1.93299,0.09 3.42999,1.73 3.34199,3.66 -0.088,1.94 -1.728,3.43 -3.66099,3.35 -4.85199,0.28 -7.54798,4.69 -10.13098,9.19 -3.52899,6.13 -6.15798,13.06 -8.77897,16.82 -2.348,3.37 -5.36599,4.65 -7.89198,5.11 -3.483,0.53 -9.24298,-0.62 -15.11697,-2.91 -2.95099,-1.16 -5.94198,-2.6 -8.58698,-4.05 -3.63999,-2 -6.62698,-4.03 -8.19997,-5.2 -2.396,-1.82 -4.33399,-4.49 -4.08799,-8.75 0.11599,-2.01 0.77599,-4.85 1.60499,-8.32 0.918,-3.84 2.095,-8.66 1.136,-14.38 -0.749,-4.47 -2.346,-9.4 -6.10499,-14.71 -1.28399,-1.44 -1.15099,-3.66 0.296,-4.95 1.447,-1.28 3.66399,-1.15 4.94799,0.3 8.01598,7.28 11.39597,14.79 12.94697,21.56 1.393,6.08 -0.527,13.25 -0.951,17.3 z m -0.018,0.19 c -0.188,1.97 0.016,3.14 1.215,2.99 1.42399,-0.18 0.057,-1.86 -1.215,-2.99 z m -1.03,-0.81 c -0.017,-0.01 -0.034,-0.02 -0.051,-0.03 0.017,0.01 0.034,0.02 0.051,0.03 z"
     id="path1724"
     style="stroke:none;stroke-width:0.2" /><path
     d="m 367.16126,6784.6733 c 1.80199,-0.71 3.83599,0.18 4.53999,1.99 0.703,1.8 -0.19,3.83 -1.992,4.54 -5.75198,2.37 -12.20097,5.21 -16.55096,9.24 -2.56599,2.38 -4.29699,5.23 -4.15199,8.84 l 1.985,42.75 c 0.069,2.43 -1.621,4.56 -4.00499,5.04 0,0 -78.32081,17.46 -149.09863,36.44 -39.5899,10.6199 -76.84381,21.5399 -96.09876,30.8399 -15.093966,7.09 -23.341945,18.99 -22.187948,29.32 1.106997,9.9 11.378971,16.04 30.125928,14.44 3.09399,-0.25 21.29594,-4.02 46.26988,-9.21 68.88283,-14.31 188.16254,-39.77 188.16254,-39.77 1.88399,-0.43 3.76899,0.74 4.20699,2.63 0.43699,1.88 -0.737,3.77 -2.622,4.2 0,0 -94.44976,23.78 -163.42259,40.45 -37.20891,8.99 -67.10484,15.84 -71.20883,16.28 -30.402921,3.18 -44.960885,-11.12 -46.98188,-27.18 -1.941995,-15.44 8.29498,-34.81 30.793924,-45.61 19.946946,-9.3199 58.317856,-20.5599 99.309756,-30.6099 61.91984,-15.19 129.71668,-28.09 146.72763,-31.27 l -0.308,-38.57 c -0.004,-6.11 2.798,-10.98 7.29999,-14.84 5.14098,-4.41 12.54297,-7.5 19.20695,-9.94 z"
     id="path1726"
     style="stroke:none;stroke-width:0.2" /><ellipse
     cx="-3925.5205"
     cy="5621.8594"
     rx="7.6306496"
     ry="8.7475805"
     id="ellipse1728"
     transform="rotate(-37.62429)"
     style="stroke:none;stroke-width:0.20423" /><ellipse
     cx="-3948.1292"
     cy="5611.2471"
     rx="7.6306496"
     ry="8.7475805"
     id="ellipse1730"
     transform="rotate(-37.62429)"
     style="stroke:none;stroke-width:0.20423" /><ellipse
     cx="-3973.7383"
     cy="5599.9648"
     rx="7.6306496"
     ry="8.7475805"
     id="ellipse1732"
     transform="rotate(-37.62429)"
     style="stroke:none;stroke-width:0.20423" /><ellipse
     cx="-4000.0557"
     cy="5587.436"
     rx="7.6306496"
     ry="8.7475805"
     id="ellipse1734"
     transform="rotate(-37.62429)"
     style="stroke:none;stroke-width:0.20423" /><ellipse
     cx="-4024.5261"
     cy="5575.5303"
     rx="7.6306496"
     ry="8.7475805"
     id="ellipse1736"
     transform="rotate(-37.62429)"
     style="stroke:none;stroke-width:0.20423" /><ellipse
     cx="-4049.2827"
     cy="5565.4722"
     rx="7.6306496"
     ry="8.7475805"
     id="ellipse1738"
     transform="rotate(-37.62429)"
     style="stroke:none;stroke-width:0.20423" /><ellipse
     cx="-4075.9294"
     cy="5553.2065"
     rx="7.6306496"
     ry="8.7475805"
     id="ellipse1740"
     transform="rotate(-37.62429)"
     style="stroke:none;stroke-width:0.20423" /><ellipse
     cx="-4103.7051"
     cy="5542.3726"
     rx="7.6306496"
     ry="8.7475805"
     id="ellipse1742"
     transform="rotate(-37.62429)"
     style="stroke:none;stroke-width:0.20423" /><ellipse
     cx="-4128.3643"
     cy="5535.1094"
     rx="7.6306496"
     ry="8.7475805"
     id="ellipse1744"
     transform="rotate(-37.62429)"
     style="stroke:none;stroke-width:0.20423" /><ellipse
     cx="-5742.3208"
     cy="3853.1216"
     rx="7.6306686"
     ry="8.7475853"
     id="ellipse1746"
     transform="matrix(0.5469007,-0.83719748,0.83719677,0.54690179,0,0)"
     style="stroke:none;stroke-width:0.20423" /><ellipse
     cx="-6829.0923"
     cy="1191.8153"
     rx="7.6306529"
     ry="10.039532"
     id="ellipse1748"
     transform="rotate(-80.665961)"
     style="stroke:none;stroke-width:0.218792" /><ellipse
     cx="-6464.0444"
     cy="-2571.1982"
     rx="7.6306839"
     ry="10.039532"
     id="ellipse1750"
     transform="matrix(-0.37825296,-0.92570227,0.92570149,-0.37825487,0,0)"
     style="stroke:none;stroke-width:0.218792" /><ellipse
     cx="-3726.7153"
     cy="-5901.437"
     rx="7.6306496"
     ry="10.039538"
     id="ellipse1752"
     transform="matrix(-0.85135682,-0.52458704,0.52458546,-0.8513578,0,0)"
     style="stroke:none;stroke-width:0.218792" /><ellipse
     cx="-3747.3186"
     cy="-5893.3545"
     rx="7.6306496"
     ry="10.039538"
     id="ellipse1754"
     transform="matrix(-0.85135682,-0.52458704,0.52458546,-0.8513578,0,0)"
     style="stroke:none;stroke-width:0.218792" /><ellipse
     cx="-3766.7258"
     cy="-5878.3657"
     rx="7.6306496"
     ry="10.039538"
     id="ellipse1756"
     transform="matrix(-0.85135682,-0.52458704,0.52458546,-0.8513578,0,0)"
     style="stroke:none;stroke-width:0.218792" /><ellipse
     cx="-2666.5408"
     cy="-6447.7007"
     rx="7.6306553"
     ry="10.039543"
     id="ellipse1758"
     transform="rotate(-158.75565)"
     style="stroke:none;stroke-width:0.218792" /><ellipse
     cx="-2389.5552"
     cy="-6550.0244"
     rx="7.6306539"
     ry="10.03955"
     id="ellipse1760"
     transform="rotate(-161.39127)"
     style="stroke:none;stroke-width:0.218792" /><ellipse
     cx="-2413.1899"
     cy="-6536.2651"
     rx="7.6306539"
     ry="10.03955"
     id="ellipse1762"
     transform="rotate(-161.39127)"
     style="stroke:none;stroke-width:0.218792" /><ellipse
     cx="-2437.6345"
     cy="-6521.5825"
     rx="7.6306539"
     ry="10.03955"
     id="ellipse1764"
     transform="rotate(-161.39127)"
     style="stroke:none;stroke-width:0.218792" /><ellipse
     cx="-2461.969"
     cy="-6505.6943"
     rx="7.6306539"
     ry="10.03955"
     id="ellipse1766"
     transform="rotate(-161.39127)"
     style="stroke:none;stroke-width:0.218792" /><ellipse
     cx="-2485.8169"
     cy="-6490.6206"
     rx="7.6306539"
     ry="10.03955"
     id="ellipse1768"
     transform="rotate(-161.39127)"
     style="stroke:none;stroke-width:0.218792" /><ellipse
     cx="-2507.7957"
     cy="-6476.5894"
     rx="7.6306539"
     ry="10.03955"
     id="ellipse1770"
     transform="rotate(-161.39127)"
     style="stroke:none;stroke-width:0.218792" /><ellipse
     cx="-2529.6958"
     cy="-6462.7642"
     rx="7.6306539"
     ry="10.03955"
     id="ellipse1772"
     transform="rotate(-161.39127)"
     style="stroke:none;stroke-width:0.218792" /><path
     d="m 419.69513,6666.1733 c -0.019,-0.05 -0.029,-0.08 -0.003,-0.05 0.053,0.07 0.043,0.08 0.003,0.05 z m 0,0 c 0.031,0.11 0.084,0.29 0.006,0.38 -0.533,0.61 0.172,1.74 -0.085,3.74 -0.131,1.03 0.159,2.14 0.084,3.6 -0.06,1.16 0.04,2.44 -0.153,3.89 -0.187,1.41 -0.665,2.87 -1.058,4.57 -0.247,1.06 -0.603,2.04 -0.936,3.21 -0.76099,2.67 -1.67099,5.15 -2.48999,8.5 0.148,1.93 -1.297,3.61 -3.22599,3.76 -1.929,0.15 -3.61499,-1.3 -3.76399,-3.23 -1.228,-2.91 -2.105,-5.19 -2.898,-7.7 -0.62199,-1.97 -0.98799,-3.67 -1.26099,-5.42 -0.323,-2.07 -0.404,-3.94 -0.239,-5.67 0.137,-1.42 0.482,-2.7 0.894,-3.84 0.99499,-2.75 1.93599,-4.81 3.17099,-6.39 1.66599,-2.12 2.78299,-3.58 4.25099,-4.43 1.29799,-0.75 2.07999,-1.47 3.07799,-1.68 2.92999,-0.63 4.31499,-0.59 4.31499,-0.59 1.93399,0.03 3.48199,1.63 3.45299,3.56 -0.029,1.94 -1.622,3.48 -3.50499,3.45 0,0 0.267,0.24 0.363,0.29 z"
     id="path1774"
     style="stroke:none;stroke-width:0.2" /><path
     d="m 641.87758,6770.2933 c -0.175,-0.2 -0.346,-0.45 -0.45,-0.58 0.155,0.19 0.305,0.38 0.45,0.58 z m 3.45999,16.73 c 0.131,-0.16 0.051,-0.42 0.11,-0.65 0.189,-0.76 0.24,-1.6 0.253,-2.49 0.028,-2.07 -0.292,-4.35 -0.872,-6.55 -0.686,-2.61 -1.604,-5.17 -2.95099,-7.04 0.206,0.23 0.416,0.39 0.528,0.15 0.57299,-1.19 -3.042,-0.9 -5.32699,-1.14 -6.07599,-0.64 -14.28997,-0.59 -22.61194,-0.28 -14.38697,0.54 -28.89293,1.76 -33.45292,2.23 -1.906,0.34 -3.72299,-0.94 -4.05699,-2.85 -0.333,-1.9 0.943,-3.72 2.84899,-4.05 4.96999,-1.24 21.80895,-5.34 37.56791,-7.72 6.00998,-0.91 11.83697,-1.49 16.81196,-1.68 5.54898,-0.21 10.14697,0.31 13.13596,1.25 2.502,0.78 4.24199,2.11 5.45999,3.39 4.48399,4.82 7.95198,13.06 8.73198,20.66 0.739,7.2 -1.119,13.71 -4.59699,17.42 -1.214,1.25 -3.27499,2.78 -6.27898,3.98 -4.19899,1.67 -10.76998,3.32 -17.95596,4.44 -13.64997,2.13 -29.32393,2.69 -34.21792,1.16 -3.07799,-1 -6.17598,-3.39 -8.59297,-6.93 -4.87299,-7.14 -7.87998,-18.17 -7.87998,-18.17 -0.616,-1.84 0.37299,-3.82 2.20699,-4.44 1.834,-0.62 3.82199,0.37 4.43799,2.21 0,0 3.08399,7.25 7.29698,12.78 1.582,2.08 3.25499,3.95 5.11599,4.29 1.302,0.24 3.52399,-0.06 6.31598,-0.37 4.93099,-0.56 11.24297,-1.77 17.50496,-3.19 6.20698,-1.41 12.30097,-3.11 16.78596,-4.8 1.81899,-0.68 4.70999,-1.15 4.05899,-1.94 -0.116,-0.14 -0.274,0.21 -0.377,0.33 z m 0,0 c -0.002,0 -0.003,0 -0.005,0.01 0.002,-0.01 0.003,-0.01 0.005,-0.01 z"
     id="path1776"
     style="stroke:none;stroke-width:0.2" /><path
     d="m 549.76581,6799.3933 c -1.912,-0.29 -3.225,-2.09 -2.93,-4 0.295,-1.91 2.087,-3.22 3.99799,-2.93 10.27098,-0.04 17.31496,4.61 23.10395,11.08 2.98399,3.33 5.39598,7.3 7.43798,11.49 1.21899,2.5 2.20899,5.11 3.13999,7.7 1.663,4.62 2.85299,9.14 5.05399,12.89 2.08599,3.55 4.34199,6.69 8.64598,8.09 1.91099,0.3 3.21899,2.1 2.91899,4.01 -0.301,1.91 -2.096,3.22 -4.00699,2.92 -6.76998,0.02 -11.76397,-2.91 -16.29896,-7.02 -3.15599,-2.87 -5.73999,-6.53 -8.15698,-10.6 -1.979,-3.33 -3.79399,-6.92 -5.44699,-10.58 -1.07599,-2.38 -1.95199,-4.83 -3.02799,-7.15 -0.687,-1.48 -1.298,-2.95 -2.06399,-4.35 -2.734,-4.99 -5.92999,-9.47 -12.36697,-11.55 z"
     id="path1778"
     style="stroke:none;stroke-width:0.2" /><path
     d="m 609.54566,6881.4033 c -1.861,0.53 -3.80099,-0.55 -4.32999,-2.41 -0.53,-1.86 0.551,-3.8 2.41099,-4.33 0,0 23.37994,-7.94 40.8329,-14.08 7.78998,-2.74 14.34397,-5.1 16.91996,-6.24 6.17898,-2.68 13.64197,-3.89 20.49195,-2.78 5.17799,0.84 9.94997,3.15 13.88496,6.95 6.01099,5.87 6.13099,13.55 1.673,21.03 -3.42799,5.76 -10.28297,11.39 -18.62795,14.94 -2.831,1.13 -10.69298,4.08 -21.37695,7.7099 -9.09898,3.09 -20.24995,6.71 -31.97792,10.4 -37.40191,11.75 -80.4268,24.38 -80.4268,24.38 -1.827,0.64 -3.82599,-0.33 -4.45999,-2.16 -0.635,-1.82 0.333,-3.82 2.16099,-4.46 0,0 32.32292,-13.08 65.03984,-25.9 13.80797,-5.4099 27.65393,-10.7799 39.1509,-15.0999 12.85097,-4.83 22.71495,-8.32 25.89794,-9.64 3.34399,-1.3 6.36898,-3.08 8.70798,-5.12 1.374,-1.2 2.55399,-2.42 3.27299,-3.73 0.406,-0.75 1.022,-1.46 0.445,-2.09 -2.14199,-2.33 -5.02599,-3.48 -8.07098,-3.82 -3.75199,-0.41 -7.70098,0.1 -11.12897,1.29 -3.45499,1.18 -13.41797,3.84 -24.36794,6.55 -16.92496,4.19 -36.12191,8.61 -36.12191,8.61 z"
     id="path1780"
     style="stroke:none;stroke-width:0.2" /><path
     d="m 547.87081,6933.6632 c 0.523,-2.07 0.834,-4.31 0.905,-6.71 0.056,-1.91 0.171,-8.62 0.315,-18.52 15.85096,-4.83 27.49893,-8.5899 31.31592,-10.3199 14.60596,-6.6 22.43894,-13.44 28.17993,-20.08 0,0 50.55987,-14.39 59.12085,-17.74 8.56098,-3.35 19.88995,-3.72 26.78794,3.35 6.89898,7.07 -1.848,18.24 -14.68997,23.45 -12.84196,5.21 -131.93467,46.5699 -131.93467,46.5699 z"
     id="path1782"
     style="stroke:none;stroke-width:0.2" /><path
     d="m 126.08486,7010.5932 c 17.75595,-4.37 40.1419,-9.84 63.76384,-15.48 71.06482,-16.97 153.24462,-35.66 153.24462,-35.66 1.90599,-0.47 3.91999,0.01 5.40998,1.29 3.206,2.84 11.79498,7.08 21.56095,9.57 7.71498,1.96 16.19196,2.91 23.41994,0.82 5.91599,-1.7 38.72291,-9.86 64.76884,-16.8 11.37597,-3.03 21.44695,-5.82 27.35993,-7.74 1.829,-0.63 3.826,0.34 4.45699,2.17 0.631,1.83 -0.341,3.83 -2.16899,4.46 -5.91899,2.16 -16.01396,5.38 -27.42793,8.87 -25.69494,7.86 -58.09786,17.13 -63.93084,19.03 -8.88298,2.88 -19.43796,2.32 -29.08793,0.19 -9.98698,-2.19 -18.93696,-6.14 -24.07894,-9.35 -14.46697,3.79 -86.39079,22.56 -149.80363,38.39 -51.75787,12.93 -97.866758,23.79 -102.063748,24.74 -9.068977,1.97 -16.03496,-0.69 -19.340952,-4.16 -2.164994,-2.27 -3.326992,-4.99 -3.393991,-7.93 -0.111,-4.83 3.519991,-12.6 16.715958,-17.04 2.837993,-0.95 34.847913,-8.78 75.161813,-18.27 67.81483,-15.96 159.23861,-36.89 172.68757,-39.97 0.823,-1.27 2.247,-2.89 4.68299,-4.49 2.221,-1.45 5.41299,-2.98 10.04598,-4.05 1.87599,-0.47 3.78199,0.66 4.25399,2.54 0.47299,1.88 -0.667,3.78 -2.543,4.25 -2.81199,0.77 -4.93199,1.69 -6.52998,2.64 -2.98699,1.75 -3.64999,3.35 -3.64999,3.35 -0.348,1.35 -1.409,2.4 -2.763,2.74 z"
     id="path1784"
     style="stroke:none;stroke-width:0.2" /><path
     d="m 486.75696,6949.9132 c -19.34495,6.67 -83.28379,23.63 -91.74377,26.22 -18.23896,5.58 -43.95789,-5.18 -50.47188,-10.76 0,0 -244.810388,59.91 -254.747364,62.16 -13.957965,3.16 -20.658948,-8 -1.860995,-14.52 7.94698,-2.75 247.993389,-61.99 247.993389,-61.99 0,0 1.42499,-5.53 12.99596,-8.44 0.933,1.82 2.051,3.21 3.378,4.04 18.18795,11.34 27.48793,13.86 31.50392,9.36 0,0 36.93291,-10.31 78.8928,-22.3 8.74998,7.2 16.86696,12.57 24.05994,16.23 z"
     id="path1786"
     style="stroke:none;stroke-width:0.2" /></g>&#10;</svg>
