<?xml version="1.0" encoding="UTF-8" standalone="no"?>
<svg
   width="1627.663"
   height="3722.3843"
   viewBox="0 0 1627.663 3722.3843"
   version="1.1"
   xml:space="preserve"
   style="clip-rule:evenodd;fill-rule:evenodd;stroke-linejoin:round;stroke-miterlimit:2"
   id="svg5353"
   xmlns="http://www.w3.org/2000/svg"
   xmlns:svg="http://www.w3.org/2000/svg"><defs
   id="defs5353" />&#10;    <g
   id="vectorly-UNI-mic-podcast-sound"
   transform="matrix(4.9999999,0,0,4.9999999,-4720.5994,-60273.67)"
   style="stroke-width:0.2"><path
     d="m 1109.1284,12413.611 c 1.59,1.1 1.98,3.3 0.88,4.9 -1.1,1.6 -3.29,2 -4.88,0.9 -6.16,-3.4 -13.5799,-4.2 -20.2299,-2.5 -5.36,1.4 -9.82,5.3 -12.26,11.9 -1.06,2.5 -1.44,4.8 -1.47,6.8 -0.06,5.4 3.64,8.9 8.43,10.9 8.65,3.5 20.1899,3.3 25.6299,-4.2 0.97,-1.7 3.12,-2.3 4.79,-1.3 1.67,1 2.24,3.1 1.26,4.8 -4.84,10.5 -17.4099,15.2 -29.2699,14.6 -5.33,-0.3 -10.43,-1.9 -14.72,-4.4 -7.93,-4.6 -12.9799,-12.8 -11.9399,-23.3 0.31,-3.2 1.3399,-6.6 3.0899,-10.3 5.86,-10.9 14.67,-16.7 24.39,-17.5 9.31,-0.8 19.0699,2.5 26.2999,8.7 z"
     id="path3442"
     style="stroke:none;stroke-width:0.2" /><path
     d="m 1084.2985,12507.011 c 1.09,1.6 0.67,3.7 -0.92,4.8 -1.6,1.1 -3.78,0.7 -4.87,-0.9 -4.77,-5.7 -13.18,-5.7 -20.63,-3.4 -2.8699,0.9 -5.5099,2.3 -7.8799,4 -3.01,2.1 -5.3,4.8 -5.73,8.1 -0.71,3.9 -0.33,7.3 0.76,10.1 1.89,4.8 5.94,8 10.8,9.1 8.9999,2 19.7699,-1.4 24.5799,-12.5 0.62,-1.8 2.61,-2.8 4.44,-2.2 1.84,0.6 2.83,2.6 2.21,4.4 -4.19,17.4 -19.67,24.7 -33.2599,23.6 -8.18,-0.7 -15.65,-4.8 -20.55,-11.4 -2.05,-2.8 -3.56,-6 -4.42,-9.7 -0.96,-4.2 -1.01,-9 0.04,-14.3 0.89,-3.9 2.65,-7.6 5.47,-10.7 4.99,-5.4 12.68,-9.4 20.94,-10.5 11.5399,-1.5 23.6599,1.7 29.0199,11.5 z"
     id="path3444"
     style="stroke:none;stroke-width:0.2" /><path
     d="m 1143.3983,12628.811 c -0.48,-1.5 -1.55,-3.2 -3.46,-5.1 -2.81,-2.7 -6.9199,-5.6 -12.8299,-8.7 -10.36,-5.4 -25.65,-11.3 -48.1599,-17.4 -1.89,-0.4 -3.08,-2.3 -2.67,-4.1 0.42,-1.9 2.3,-3.1 4.19,-2.7 30.6699,5.4 49.1299,11.6 60.0598,17.6 17.68,9.8 18.33,20.4 16.8,27.6 -0.64,3 -2.79,5.5 -6.99,6.8 -2.84,0.9 -7.81,1 -13.9999,0.1 -7.71,-1.1 -17.81,-3.5 -27.56,-6.6 -10.07,-3.2 -19.7499,-7.1 -26.2699,-10.2 -16.41,-8.1 -31.4199,-17 -40.7099,-26.2 -6.98,-7 -10.98,-14.1 -11.14,-20.9 -0.06,-2.3 0.6,-6.7 2.2,-12.8 1.74,-6.6 4.49,-15.5 8.01,-26 0.51,-1.9 2.45,-3 4.31,-2.5 1.86,0.5 2.96,2.5 2.44,4.3 -1.95,8.8 -3.49,16.4 -4.6,22.5 -1.22,6.8 -1.87,11.5 -1.61,13.7 0.65,5.8 6.24,10.8 13.71,16.1 8.9399,6.4 20.9299,12.4 33.8099,17.8 6.82,3.1 17.4099,6.7 27.8799,10 10.15,3.2 20.1699,6.1 26.5899,6.7 z m 1.84,0.2 c 0.65,0.1 1.28,0.3 1.2,-0.1 -0.21,-0.8 -0.69,-0.6 -1.2,0.1 z m 54.6699,-401 c 1.93,0.2 3.38,1.9 3.22,3.8 -0.15,1.9 -1.84,3.4 -3.77,3.2 -9.83,-0.2 -26.2899,0.2 -39.4499,4.8 -7.46,2.6 -13.82,6.5 -15.86,13.5 -0.64,2 -4.82,16.7 -11.9599,38.6 -2.51,7.6 -5.46,16.2 -8.74,25.4 -4.18,11.8 -8.95,24.5 -13.99,37.9 -6.82,18.2 -14.2999,37.3 -21.6099,56.7 -0.6,1.9 -2.58,2.9 -4.42,2.3 -1.84,-0.6 -2.85,-2.6 -2.25,-4.4 5.43,-20 10.76,-39.9 16.0899,-58.6 3.94,-13.8 7.77,-26.9 11.48,-38.8 2.91,-9.3 5.71,-18 8.36,-25.6 7.53,-21.8 13.17,-36 13.91,-38 4.14,-10.5 13.7499,-17 25.7699,-19.9 14.73,-3.6 32.6199,-2.3 43.2199,-0.9 z m -131.4897,221.2 c 0.59,-1.8 2.56,-2.9 4.41,-2.3 1.84,0.6 2.86,2.6 2.28,4.4 -0.54,5.7 -0.77,11 -1.53,16.5 -0.3,2.1 -0.69,4.2 -1.17,6.4 -0.31,1.4 -0.63,2.8 -1.1,4.1 -1.2,3.5 -2.72,6.7 -4.29,10 -2.53,5.1 -5.3,9.6 -7.9,14.4 -0.57,1.9 -2.52,2.9 -4.3799,2.3 -1.85,-0.5 -2.89,-2.5 -2.33,-4.3 0.5,-5.5 0.73,-10.8 1.55,-16.5 0.52,-3.5 1.1,-7.1 2.09,-10.6 0.3799,-1.4 0.9199,-2.7 1.4699,-4.1 0.82,-2 1.69,-4 2.69,-5.9 2.54,-5 5.37,-9.4 8.21,-14.4 z"
     id="path3446"
     style="stroke:none;stroke-width:0.2" /><path
     d="m 1218.9981,12238.211 c -1.7999,-0.7 -2.6899,-2.7 -1.9799,-4.5 0.7099,-1.8 2.7499,-2.7 4.5499,-2 9.57,3.4 25.15,13.2 35.85,25.4 7.8099,8.9 12.7599,19.1 12.1899,29 -0.25,4 -8.89,38.8 -21.6099,84.9 -4.76,17.2 -10.04,36.1 -15.83,55.5 -8.2,27.4 -17.2399,55.8 -25.8099,82.5 -21.53,67.2 -40.5299,123.4 -40.5299,123.4 -0.56,1.8 -2.51,2.9 -4.37,2.3 -1.85,-0.6 -2.9,-2.5 -2.34,-4.4 0,0 12.3,-45.9 28.3799,-104.3 6.05,-22 12.63,-45.7 19.35,-69.5 3.29,-11.6 6.61,-23.2 9.98,-34.6 5.3599,-18.1 10.7199,-35.5 15.7099,-51.7 14.31,-46.2 25.5399,-81 25.9699,-85.1 0.83,-7.3 -3.0399,-14.9 -8.4899,-21.9 -9.04,-11.5 -22.55,-21.3 -31.02,-25 z"
     id="path3448"
     style="stroke:none;stroke-width:0.2" /><path
     d="m 1220.8481,12432.811 c 7.7,-0.7 14.77,2.1 20.23,6.8 5.74,4.9 9.15,12.1 9.77,20.2 0.47,8.5 -2.74,16.2 -8.04,22 -5.43,5.9 -13.32,9.3 -21.96,9.6 -8.6099,-0.3 -16.4699,-3.8 -21.8599,-9.7 -5.25,-5.8 -8.46,-13.5 -7.97,-21.9 0.59,-8 4,-15.2 9.68,-20.1 5.43,-4.7 12.48,-7.5 20.1499,-6.9 z m 0,7 c -5.3199,0.5 -9.8199,3.2 -13.0499,7 -2.97,3.4 -4.41,8.1 -4.05,13 0.27,4.6 2.62,8.5 5.77,11.4 2.97,2.7 6.98,4.3 11.3299,4.2 4.33,0.1 8.29,-1.5 11.25,-4.3 3.1,-2.9 5.43,-6.7 5.69,-11.3 0.37,-4.9 -1.02,-9.5 -3.97,-13 -3.19,-3.8 -7.65,-6.5 -12.97,-7 z"
     id="path3450"
     style="stroke:none;stroke-width:0.2" /><ellipse
     cx="1220.8481"
     cy="12459.811"
     rx="23.46694"
     ry="23.52199"
     id="ellipse3452"
     style="stroke:none;stroke-width:0.2" /><path
     d="m 1225.0981,12362.811 c 1.68,0.9 2.28,3 1.33,4.7 -0.96,1.7 -3.1,2.3 -4.78,1.4 0,0 -11.0599,-4.5 -27.9199,-9.9 -5.68,-1.8 -11.98,-3.7 -18.7299,-5.8 -4.01,-1.2 -8.17,-2.4 -12.41,-3.7 -6.03,-1.9 -12.2,-4 -18.58,-5.8 -11.1099,-3.1 -22.4799,-5.9 -34.1099,-7 -1.94,0 -3.51,-1.5 -3.52,-3.5 -0.01,-1.9 1.56,-3.5 3.49,-3.5 12.31,-1.2 24.75,-1 36.8599,0.6 8.35,1.1 16.47,2.8 24.06,5 3.21,0.9 6.2899,2 9.2599,3.2 4.8,1.8 9.3,3.8 13.46,5.8 19.4,9.4 31.5899,18.5 31.5899,18.5 z"
     id="path3454"
     style="stroke:none;stroke-width:0.2" /><path
     d="m 1147.8083,12150.711 c 1.84,-0.6 3.81,0.4 4.38,2.3 0.57,1.8 -0.47,3.8 -2.31,4.4 0,0 -16.8299,7.3 -35.3999,27.4 -6,6.5 -12.04,14.4 -18.1999,23.7 -5.08,7.7 -10.32,16.2 -15.09,26 -5.99,12.5 -11.67,26.6 -15.83,43.4 -0.34,1.9 -2.15,3.2 -4.06,2.8 -1.9,-0.3 -3.18,-2.1 -2.85,-4 1.87,-18.1 5.28,-33.8 10.13,-47.4 4.03,-11.3 8.91,-21.2 14.35,-29.6 2.49,-3.9 5.19,-7.4 7.9,-10.7 4.57,-5.5 9.2199,-10.2 13.8699,-14.2 22.8,-19.8 43.1099,-24.1 43.1099,-24.1 z"
     id="path3456"
     style="stroke:none;stroke-width:0.2" /><path
     d="m 1116.9184,12100.611 c 1.86,-0.5 3.79,0.6 4.29,2.5 0.5,1.9 -0.61,3.8 -2.48,4.3 0,0 -25.4599,9 -51.3299,34.5 -8.76,8.7 -17.4399,19.3 -25.6099,32 -6.81,10.7 -13.36,22.7 -18.73,36.7 -6.66,17.4 -11.9899,37.6 -14.2299,61.4 -0.08,1.9 -1.72,3.4 -3.65,3.4 -1.94,-0.1 -3.44,-1.8 -3.36,-3.7 -0.22,-25 2.77,-46.7 8.3,-65.4 4.62,-15.7 10.8999,-29.3 18.1899,-41 3.32,-5.3 6.94,-10.1 10.64,-14.5 6.14,-7.4 12.55,-13.8 18.9999,-19.2 29.98,-25.2 58.9699,-31 58.9699,-31 z"
     id="path3458"
     style="stroke:none;stroke-width:0.2" /><path
     d="m 1096.5884,12054.811 c 1.89,-0.4 3.74,0.8 4.11,2.7 0.37,1.9 -0.87,3.8 -2.77,4.1 0,0 -38.3499,9.7 -75.0298,39.2 -13.3799,10.8 -26.4099,24.3 -37.62887,40.9 -9.57898,14.3 -17.91996,30.8 -23.45095,50.4 -6.68698,23.6 -9.76297,51.5 -6.45798,84.7 0.265,1.9 -1.076,3.7 -2.99199,4 -1.917,0.2 -3.68699,-1.1 -3.95199,-3 -6.09099,-34.4 -5.40299,-63.9 0.152,-89.1 4.78898,-21.7 13.07896,-40.2 23.42094,-55.9 4.63099,-7 9.76597,-13.3 15.12896,-19.1 8.62998,-9.4 17.89998,-17.4 27.30998,-24 40.4699,-28.8 82.1597,-34.9 82.1597,-34.9 z"
     id="path3460"
     style="stroke:none;stroke-width:0.2" /><path
     d="m 1079.8085,12618.911 c -0.32,-1.9 0.96,-3.7 2.87,-4 1.91,-0.3 3.72,0.9 4.04,2.9 1.81,6.3 5.78,13.9 10.0999,21 2.08,3.4 4.3,6.6 6.44,9.4 2.26,3 4.41,5.3 6.39,6.5 1.01,0.6 2.92,1.1 5.29,2 2.96,1 6.52,2.2 10.39,3.5 6.66,2.3 14.0999,4.7 20.9099,7 11.64,3.8 21.1,7.1 21.1,7.1 1.89,0.3 3.11,2.2 2.72,4.1 -0.39,1.9 -2.25,3.1 -4.14,2.7 0,0 -10.06,-0.8 -22.33,-2.5 -7.2699,-1 -15.1999,-2.3 -22.2399,-3.8 -4.33,-0.9 -8.3,-1.9 -11.53,-3 -4.03,-1.3 -7.05,-2.8 -8.73,-3.9 -2.28,-1.6 -4.8699,-4.1 -7.2099,-7.5 -2.18,-3.2 -4.39,-7.1 -6.25,-11.4 -4.23,-9.8 -7.27,-21.4 -7.82,-30.1 z"
     id="path3462"
     style="stroke:none;stroke-width:0.2" /><path
     d="m 1217.3482,12483.411 c -0.05,-1.9 1.4799,-3.5 3.4099,-3.5 1.94,-0.1 3.55,1.4 3.6,3.4 0.63,7.9 3.11,27 5.43,49.8 0.7,6.9 1.37,14.1 1.94,21.5 0.75,9.5 1.42,19.2 1.8,28.7 0.26,6.6 0.39,13.1 0.34,19.3 -0.11,11.8 -0.75,22.5 -1.76,31.3 -1.24,10.7 -3.28,18.7 -5.75,22.6 -5.83,8.9 -13.6399,16.3 -21.9699,21.5 -10.38,6.4 -21.29,9.5 -29.4599,8.7 -1.93,-0.1 -3.41,-1.8 -3.31,-3.7 0.11,-2 1.76,-3.4 3.69,-3.3 6.7899,0 15.3699,-3.8 23.3799,-10 6.52,-5 12.51,-11.7 16.66,-19.7 0.87,-1.6 1.26,-4.3 1.7,-7.7 0.7799,-5.9 0.9799,-13.8 1.0499,-22.8 0.06,-8.2 -0.14,-17.4 -0.27,-27 -0.12,-8.8 -0.16,-17.9 -0.25,-27.1 -0.11,-11.2 -0.18,-22.3 -0.2499,-32.7 -0.15,-22.5 -0.21,-41.4 0.02,-49.3 z"
     id="path3464"
     style="stroke:none;stroke-width:0.2" /><path
     d="m 1121.4684,12668.411 c -0.25,-1.9 1.11,-3.7 3.02,-3.9 1.92,-0.3 3.68,1.1 3.94,3 0,0 4.29,20.2 7.24,40.3 1.4799,10.1 2.4699,20.2 2.8199,27.7 0.08,3.1 1.05,5.6 2.75,7.3 1.58,1.6 3.89,2.4 6.59,2.2 2.15,0 3.52,-1.4 4.54,-3.1 1.91,-3.2 2.97,-7.1 3.38,-10.1 0.33,-2.3 0.44,-8.5 0.54,-16 0.21,-16.8 0.23,-39.3 0.23,-39.3 -0.13,-1.9 1.32,-3.6 3.25,-3.7 1.93,-0.2 3.61,1.3 3.74,3.2 0,0 2.52,17.9 4.29,33.7 1.18,10.5 1.9,20.2 1.78,23.3 -0.29,5.9 -2.07,13.8 -6.04,19.4 -3.39,4.9 -8.39,8 -14.99,8.5 -7.82,0.3 -14.3499,-2.3 -18.8199,-7.1 -4.08,-4.4 -6.6,-10.7 -6.4,-18.3 0.45,-8.9 0.03,-21.4 -0.41,-33.3 -0.64,-17.7 -1.45,-33.8 -1.45,-33.8 z"
     id="path3466"
     style="stroke:none;stroke-width:0.2" /><path
     d="m 1124.9484,12667.911 c 12.1799,3.3 26.7799,6.6 35.0699,8.4 0,0 3.35,48.4 2.65,56.1 -0.71,7.7 -4.21,20.1 -14.48,20.6 -10.28,0.4 -17.2799,-6.6 -17.2799,-17.5 0,-22.2 -5.96,-67.6 -5.96,-67.6 z"
     id="path3468"
     style="stroke:none;stroke-width:0.2" /><path
     d="m 1184.6282,12728.711 c -1.92,-0.3 -3.27,-2.1 -3.02,-4 0.25,-1.9 2.01,-3.2 3.93,-3 20.67,2 35.2799,6.5 44.8899,12 8.35,4.9 13.07,10.8 15.21,16.7 2.86,7.9 1.07,16.1 -4.56,23.6 -7.66,10.1 -23.37,18.7 -43.9799,21.5 -17.32,2.2 -34.2499,3.6 -50.0799,3.7 -11.9999,0 -23.3799,-0.6 -33.7899,-2 -24.5099,-3.1 -43.8399,-10.2 -54.6999,-20.8 -7.8299,-7.8 -12.8899,-19.5 -9.4099,-30.9 1.8,-5.9 5.74,-11.8 13.1799,-16.9 11.67,-8 32.61,-14.3 67.6399,-14.8 1.94,-0.1 3.58,1.4 3.67,3.3 0.09,1.9 -1.41,3.6 -3.34,3.7 -32.1,2.5 -51.0799,8.9 -61.3499,16.9 -5.79,4.4 -8.27,9.4 -8.37,14.2 -0.12,5.7 3.21,10.9 7.3,14.6 9.53,8.6 26.39,13 47.1999,15.2 9.87,1 20.61,1.5 31.9499,1.5 15.3,0.1 31.6899,-0.6 48.4699,-2.2 16.42,-1.5 29.3699,-7.1 35.8599,-14.8 3.21,-3.8 4.85,-8 3.58,-12.3 -1.54,-5.2 -6.41,-10.2 -14.88,-14.6 -8.3999,-4.3 -20.0199,-8.1 -35.3999,-10.6 z"
     id="path3470"
     style="stroke:none;stroke-width:0.2" /></g>&#10;</svg>
