<?xml version="1.0" encoding="UTF-8" standalone="no"?>
<svg
   width="2651.0393"
   height="3004.0308"
   viewBox="0 0 2651.0393 3004.0308"
   version="1.1"
   xml:space="preserve"
   style="clip-rule:evenodd;fill-rule:evenodd;stroke-linejoin:round;stroke-miterlimit:2"
   id="svg5353"
   xmlns="http://www.w3.org/2000/svg"
   xmlns:svg="http://www.w3.org/2000/svg"><defs
   id="defs5353" />&#10;    <g
   id="vectorly-UNI-flowers"
   style="stroke:none;stroke-width:0.2"
   transform="matrix(4.9999999,0,0,4.9999999,-12558.263,-40698.344)"><path
     d="m 2868.0241,8175.8927 c -1.41,1.24 -2.83,3.07 -4.47,5.28 -1.72,2.31 -3.49,5.1 -5.41,8.27 -2.38,3.92 -4.96,8.41 -7.56,13.57 -2.21,4.39 -4.53,9.15 -6.8,14.41 -2.98,6.88 -6.03,14.32 -8.79,22.71 -0.41,1.89 -2.29,3.08 -4.17,2.67 -1.8899,-0.42 -3.0899,-2.29 -2.6699,-4.18 1.27,-10.81 2.9799,-20.46 5.2199,-29.11 1.14,-4.41 2.44,-8.48 3.83,-12.27 2.22,-6.09 4.65,-11.4 7.19,-15.88 2.25,-3.95 4.61,-7.25 6.89,-9.93 4.35,-5.11 8.52,-8.25 11.92,-9.61 4.69,-1.88 8.6199,-1.63 11.5199,0.41 2.74,1.93 5.6,5.51 5.57,11.87 -0.04,6.34 -2.42,16.4 -8.89,30.32 -0.65,1.82 -2.6499,2.77 -4.4799,2.13 -1.82,-0.65 -2.77,-2.66 -2.12,-4.48 2.66,-10.6 3.52,-18.52 3.31,-24.1 -0.02,-0.65 -0.04,-1.38 -0.09,-2.08 z m -0.21,-1.88 c -0.15,-0.77 -0.4,-1.2 -0.82,-0.91 -0.34,0.24 0.4,0.69 0.71,0.85 0.03,0.02 0.07,0.04 0.11,0.06 z m 1.34,0.75 c 0.32,0.14 0.52,0.15 0.42,-0.16 -0.06,-0.19 -0.22,-0.06 -0.42,0.16 z"
     id="path2174"
     style="stroke:none;stroke-width:0.2" /><path
     d="m 2923.9139,8214.4727 c -2.84,0.17 -6.22,0.64 -10.17,1.42 -7.2299,1.42 -16.1599,3.85 -26.8199,7.51 -11.44,3.94 -24.7699,8.98 -39.9499,16.06 -1.69,0.94 -3.83,0.33 -4.77,-1.36 -0.94,-1.7 -0.32,-3.83 1.37,-4.77 12.74,-8.3 24.12,-15 34.3699,-20.11 9.4,-4.7 17.74,-8.06 24.95,-10.41 8.5499,-2.79 15.5999,-4.06 20.9399,-4.35 5.03,-0.27 8.88,0.42 11.51,1.47 4.44,1.77 6.8,4.68 7.64,7.86 0.89,3.38 0.52,8.03 -3.73,12.71 -3.42,3.77 -9.84,8.49 -19.88,12.79 -11.2199,4.8 -27.0699,9.43 -47.8699,13.07 -1.8799,0.45 -3.7699,-0.71 -4.2299,-2.59 -0.45,-1.88 0.7,-3.77 2.58,-4.23 15.7399,-4.94 28.1699,-10.22 37.7999,-15.07 7.2399,-3.64 12.6499,-7.01 16.2599,-10 z m 3.64,-3.65 c 0.02,-0.02 0.04,-0.03 0.05,-0.05 0.23,-0.31 0.76,-0.76 0.5,-0.88 -0.58,-0.26 -0.66,0.25 -0.55,0.93 z m 1.29,3.34 c 0.3,0.55 0.62,0.96 0.85,0.52 0.2,-0.39 -0.18,-0.51 -0.85,-0.52 z"
     id="path2176"
     style="stroke:none;stroke-width:0.2" /><path
     d="m 2921.3939,8264.6127 c -0.16,-0.05 -0.32,-0.1 -0.48,-0.16 -4.53,-1.57 -10.8499,-3.17 -19.3899,-4.82 -8.47,-1.65 -18.71,-3.67 -31.4999,-5.24 -1.93,-0.03 -3.47,-1.63 -3.44,-3.56 0.03,-1.93 1.63,-3.48 3.56,-3.44 13.2599,-1.17 24.0399,-1.8 32.9499,-1.47 10.0299,0.37 17.5199,1.73 22.8099,3.37 5.85,1.82 9.47,4.34 11.42,6.55 3.37,3.8 4.07,7.66 2.78,11.21 -1.21,3.33 -4.71,7.56 -11.66,9.67 -4.12,1.24 -9.49,2.21 -15.88,2.3 -6.6299,0.09 -14.2099,-0.56 -22.4399,-2.21 -1.93,-0.18 -3.34,-1.89 -3.17,-3.81 0.18,-1.93 1.89,-3.35 3.82,-3.17 11.95,-0.09 22.0699,-2.19 29.1799,-4.72 0.46,-0.17 0.94,-0.33 1.44,-0.5 z m 4.09,-1.56 c 0.86,-0.47 1.27,-0.93 0.78,-1.39 -0.37,-0.35 -0.62,0.7 -0.71,1.07 -0.02,0.09 -0.05,0.2 -0.07,0.32 z m -0.26,2.64 c 0.01,0.93 0.2,1.53 0.79,0.93 0.35,-0.37 -0.04,-0.65 -0.79,-0.93 z"
     id="path2178"
     style="stroke:none;stroke-width:0.2" /><path
     d="m 2873.484,8297.0127 c -0.72,-3.54 -1.89,-7.76 -3.7899,-12.68 -2.24,-5.81 -5.07,-12.45 -9.21,-19.93 -1.12,-1.58 -0.76,-3.77 0.82,-4.89 1.57,-1.13 3.76,-0.76 4.89,0.81 6.4899,7.19 11.3999,13.65 15.0499,19.51 2.2,3.51 3.83,6.79 5.1,9.78 3.54,8.3 3.71,14.79 2.78,18.65 -1.61,6.64 -6.29,9.39 -11.8,9.04 -3.56,-0.23 -8.9899,-2.49 -13.9799,-9.04 -2.96,-3.88 -6.17,-9.32 -9,-16.67 -2.68,-6.93 -5.05,-15.41 -7.06,-25.77 -0.57,-1.85 0.47,-3.82 2.32,-4.38 1.85,-0.57 3.81,0.47 4.38,2.31 6.17,14.69 12.6,24.6 17.8699,31.2 0.53,0.66 1.08,1.37 1.63,2.06 z m 3.87,4.37 c 0.74,0.6 1.29,0.73 1.5,0.09 0.08,-0.25 -0.48,-0.13 -0.7,-0.14 -0.23,-0.02 -0.5,0 -0.8,0.05 z m -2.88,0.95 c -1.05,0.56 -1.61,1.22 -0.61,1.62 0.61,0.24 0.73,-0.48 0.61,-1.62 z"
     id="path2180"
     style="stroke:none;stroke-width:0.2" /><path
     d="m 2783.7243,8273.7227 c 2.51,-0.7 5.44,-1.73 8.8199,-3.16 7.17,-3.02 16.09,-7.22 26.72,-13.88 1.52,-1.2 3.72,-0.95 4.93,0.56 1.2,1.52 0.95,3.73 -0.56,4.93 -6.05,6.12 -11.46,11.08 -16.52,15.07 -4.73,3.73 -9.05,6.47 -12.87,8.53 -4.7599,2.57 -8.8799,3.87 -12.1299,4.47 -3.18,0.59 -5.81,0.38 -7.83,-0.16 -6,-1.61 -9.06,-5.69 -8.84,-11.41 0.13,-3.24 1.56,-7.93 5.92,-12.79 2.91,-3.25 7.01,-6.95 12.65,-10.59 5.52,-3.57 12.3099,-7.14 20.6399,-10.64 1.68,-0.94 3.82,-0.34 4.77,1.35 0.94,1.69 0.34,3.83 -1.35,4.77 -12.28,8.65 -19.9899,16.75 -24.3499,22.95 z m -2.51,3.66 c -0.49,0.85 -0.67,1.48 -0.08,1.54 0.78,0.1 0.55,-0.71 0.08,-1.54 z m -1.91,-2.47 c -0.42,-0.45 -0.85,-0.77 -0.98,-0.3 -0.1,0.4 0.32,0.43 0.98,0.3 z"
     id="path2182"
     style="stroke:none;stroke-width:0.2" /><path
     d="m 2771.5243,8199.5227 c 0.38,0.52 0.75,1.03 1.09,1.52 3.22,4.63 7.96,10.17 14.67,16.4 4.9499,4.59 10.7299,9.57 17.7299,14.78 1.65,1.01 2.17,3.17 1.16,4.82 -1.01,1.65 -3.18,2.17 -4.82,1.15 -10.48,-5.24 -18.9499,-10.36 -25.7099,-15.28 -6.92,-5.03 -11.93,-9.88 -15.44,-14.07 -4.96,-5.92 -6.78,-11.24 -7.08,-14.84 -0.32,-3.85 1.06,-6.78 3,-8.93 1.88,-2.1 4.69,-3.58 8.51,-3.75 2.41,-0.11 5.53,0.33 9.14,1.85 3.8,1.6 8.49,4.34 13.67,8.74 4.2599,3.62 8.9599,8.27 13.8799,14.25 5.29,6.45 10.78,14.29 16.58,23.77 1.16,1.55 0.84,3.75 -0.71,4.91 -1.55,1.16 -3.75,0.84 -4.91,-0.71 -7.11,-7.91 -13.77,-14.19 -19.76,-19.47 -5.1999,-4.59 -9.8999,-8.17 -14.0499,-10.99 -2.55,-1.73 -4.87,-3.1 -6.95,-4.15 z m -5.06,-2.38 c -0.67,-0.26 -1.14,-0.31 -1.12,0.15 0.03,0.59 0.56,0.3 1.12,-0.15 z m 2.08,-2.13 c 0.63,-0.83 1.14,-1.76 0.29,-1.62 -0.7,0.12 -0.69,0.74 -0.29,1.62 z"
     id="path2184"
     style="stroke:none;stroke-width:0.2" /><path
     d="m 2801.8342,8180.3327 c -0.19,6.14 0.72,14.57 3.27,24.91 0.64,1.82 -0.32,3.83 -2.15,4.47 -1.82,0.64 -3.82,-0.32 -4.47,-2.15 -4.75,-10.12 -7.49,-18.72 -8.7599,-25.48 -1.11,-5.89 -0.78,-10.5 -0.04,-13.62 1.2399,-5.3 4.7799,-7.53 8.0199,-8.41 2.83,-0.77 6.54,-0.08 10.61,3.23 2.45,1.99 5.44,5.46 8.32,10.85 2.22,4.16 4.45,9.59 6.47,16.38 1.44,4.83 2.74,10.32 3.87,16.6 1.33,7.35 2.34,15.58 3.27,25 0.3899,1.89 -0.83,3.75 -2.72,4.14 -1.89,0.4 -3.75,-0.82 -4.15,-2.71 -3.98,-12.53 -8.1,-22.66 -11.53,-31.24 -3.26,-8.16 -6.14,-14.55 -8.67,-19.4 -0.47,-0.92 -0.91,-1.77 -1.34,-2.57 z m -3.24,-5.68 c -0.23,-0.39 -0.43,-0.6 -0.6,-0.35 -0.21,0.32 0.13,0.37 0.6,0.35 z m 4,-0.78 c 0.84,-0.4 1.33,-0.9 0.62,-1.35 -0.33,-0.21 -0.47,0.76 -0.61,1.33 0,0.01 -0.01,0.01 -0.01,0.02 z"
     id="path2186"
     style="stroke:none;stroke-width:0.2" /><path
     d="m 2835.2866,8484.0193 c -1.9059,-0.3352 -3.1721,-2.1534 -2.8396,-4.0489 0.3326,-1.9085 2.1616,-3.185 4.0675,-2.8498 21.9233,3.2882 39.7791,8.5879 51.2652,15.074 10.6547,6.0089 15.9628,13.5266 16.1419,20.9926 0.1151,5.1708 -2.2128,10.29 -6.9454,15.1127 -5.6407,5.7639 -15.1698,11.2184 -27.7942,15.796 -23.9954,8.6911 -59.592,14.3647 -99.3328,14.9579 -17.7536,0.026 -34.6885,-0.9026 -50.1269,-2.8626 -19.2372,-2.45 -36.1594,-6.3829 -49.5257,-11.154 -12.8419,-4.5776 -22.5501,-10.0708 -28.3187,-15.8734 -5.0395,-5.0676 -7.4698,-10.5092 -7.3802,-15.9766 0.1023,-5.4287 2.5325,-10.8187 7.7,-15.6542 5.9093,-5.5189 15.6431,-10.6768 28.4977,-14.7387 24.1617,-7.6595 59.6816,-12.0566 99.1538,-11.1153 1.9314,0 3.5046,1.5732 3.5046,3.5074 0,1.9342 -1.5732,3.5074 -3.5046,3.5074 -31.5547,0.7608 -60.3211,4.8871 -82.4107,11.025 -14.8372,4.1134 -26.5408,9.1037 -33.6908,14.7645 -3.5686,2.8239 -5.9349,5.5705 -5.8709,8.7039 0.051,3.069 2.6349,5.5577 6.2419,8.2011 7.2651,5.3255 19.0326,9.7355 33.8186,13.2944 11.8315,2.8498 25.5559,5.0032 40.5595,6.4861 12.957,1.2766 26.8733,2.1147 41.3524,2.1405 31.2989,0.4513 59.9885,-2.5531 82.1293,-7.7497 14.9907,-3.5203 26.9117,-7.8916 34.3047,-13.23 4.0035,-2.9013 6.7407,-5.7511 6.8175,-9.1424 0.051,-2.3984 -1.164,-4.6679 -3.2489,-6.9116 -2.9674,-3.2108 -7.4442,-6.2539 -13.1489,-9.0908 -10.3988,-5.1836 -24.5965,-9.7097 -41.4163,-13.1655 z"
     id="path2188"
     style="stroke:none;stroke-width:0.256852" /><path
     d="m 2843.6141,8519.8026 c 1.92,0.23 3.29,1.98 3.06,3.9 -0.23,1.92 -1.98,3.29 -3.9,3.06 0,0 -18.8099,-0.6 -43.8499,-0.8 -9.0999,-0.08 -18.9899,-0.08 -29.0999,-0.1 -6.4,-0.01 -12.89,-0.01 -19.29,-0.05 -9.9599,-0.08 -19.7099,-0.2 -28.7399,0.2 -13.9899,0.62 -26.0699,1.96 -33.9899,5.55 -4.37,1.99 -7.54,4.28 -8.08,7.94 -0.15,1.93 -1.84,3.38 -3.77,3.23 -1.92,-0.15 -3.37,-1.84 -3.22,-3.77 0.05,-6.17 3.93,-11.3 10.72,-15.53 8.29,-5.16 21.51,-8.79 37.0599,-11.02 9.33,-1.34 19.5,-2.24 29.8899,-2.49 6.58,-0.15 13.26,0 19.83,0.34 10.29,0.53 20.3299,1.51 29.5299,2.62 25.16,3.03 43.8499,6.92 43.8499,6.92 z"
     id="path2190"
     style="stroke:none;stroke-width:0.2" /><path
     d="m 2833.7241,8263.7127 c 0.8,-1.76 2.88,-2.55 4.64,-1.75 1.76,0.79 2.55,2.87 1.75,4.64 -11.8299,29.14 -27.0299,53.93 -40.8499,81.64 -5.14,10.3 -10.0899,20.9899 -14.5799,32.5099 -2.76,7.08 -5.31,14.48 -7.75,22.26 -5.31,16.96 -9.67,35.81 -12.28,57.78 -3.01,25.41 -4.05,54.79 -1.46,89.88 0.22,1.93 -1.17,3.66 -3.1,3.87 -1.92,0.22 -3.65,-1.17 -3.87,-3.09 -5.27,-35.65 -6.8099,-65.75 -5.17,-91.89 1.45,-23.23 5.21,-43.34 10.6,-61.24 2.49,-8.27 5.43,-16.05 8.58,-23.46 5.04,-11.8799 10.68,-22.8299 16.68,-33.2499 15.3999,-26.71 32.8399,-49.88 46.8098,-77.9 z"
     id="path2192"
     style="stroke:none;stroke-width:0.2" /><path
     d="m 2796.1842,8380.5226 c -1.92,-0.26 -3.27,-2.02 -3.01,-3.94 0.26,-1.92 2.02,-3.26 3.94,-3.01 15.71,0.65 25.9,-2.88 32.18,-7.82 4.9499,-3.8899 6.2899,-9.0199 4.7399,-13.3599 -1.55,-4.34 -5.7999,-7.56 -12.3999,-7.63 -8.11,-0.08 -18.59,3.14 -31.28,12.5 -1.4499,1.28 -3.6599,1.14 -4.9399,-0.31 -1.28,-1.45 -1.15,-3.66 0.3,-4.94 9.8099,-10.39 19.0199,-16.17 27.0699,-19.04 5.96,-2.12 11.39,-2.41 16.09,-1.78 10.2799,1.37 17.3599,7.98 20.1999,15.78 2.92,8 1.51,17.76 -5.5,25.1799 -3.34,3.54 -7.91,6.76 -14.0699,8.62 -8.21,2.49 -19.16,3.06 -33.32,-0.25 z"
     id="path2194"
     style="stroke:none;stroke-width:0.2" /><path
     d="m 2776.9443,8386.1126 c 0.76,1.78 -0.07,3.84 -1.85,4.6 -1.78,0.76 -3.84,-0.06 -4.6,-1.84 -7.94,-15.55 -16.04,-26.9699 -23.5799,-35.5299 -7.27,-8.26 -14.08,-13.37 -20.21,-16.13 -4.03,-1.82 -7.63,-2.47 -10.73,-2.05 -3.04,0.4 -5.53,1.82 -6.9099,4.19 -2.74,4.73 -2.05,11.56 2.9199,18.44 5.6,7.7499 15.65,15.4399 31.9,21.0899 1.87,0.51 2.97,2.44 2.45,4.31 -0.51,1.86 -2.44,2.96 -4.31,2.45 -24.66,-5.11 -38.3999,-16.03 -44.6699,-26.6499 -5.66,-9.61 -5.27,-19.45 -1.69,-26.77 3.63,-7.42 10.98,-12.62 20.5299,-13.12 8.12,-0.42 18.41,2.72 28.83,12.13 5.4499,4.93 11.0599,11.61 16.4199,20.5 5.46,9.07 10.66,20.3799 15.5,34.3799 z"
     id="path2196"
     style="stroke:none;stroke-width:0.2" /><path
     d="m 2987.6538,8284.1927 c -1.4,1.34 -3.62,1.29 -4.95,-0.11 -1.34,-1.4 -1.28,-3.62 0.12,-4.96 0,0 2.5,-3.58 8.7899,-7.82 1.91,-1.29 4.13,-2.4 6.82,-3.52 2.16,-0.91 4.59,-1.59 7.31,-2.14 1.57,-0.31 3.24,-0.57 4.99,-0.59 3.75,-0.04 7.83,0.45 12.2,1.65 5.22,1.44 10.4799,3.71 16.4599,6.95 1.85,0.58 2.88,2.54 2.31,4.39 -0.57,1.85 -2.53,2.88 -4.38,2.31 -4.15,-0.37 -7.7499,-0.26 -11.3199,-0.26 -3.96,0.01 -7.41,0.4 -10.7,0.63 -1.92,0.13 -3.72,0.3 -5.43,0.37 -3.01,0.12 -5.66,0.07 -8.06,0.29 -9.26,0.81 -14.1599,2.81 -14.1599,2.81 z"
     id="path2198"
     style="stroke:none;stroke-width:0.2" /><path
     d="m 2940.1839,8164.5527 c -1.28,1.45 -3.5,1.59 -4.95,0.32 -1.45,-1.28 -1.6,-3.5 -0.32,-4.95 0,0 1.52,-2.92 6.13,-7.85 1.3,-1.4 2.82,-2.75 4.74,-4.28 1.51,-1.21 3.23,-2.35 5.22,-3.5 1.1399,-0.66 2.3599,-1.32 3.7199,-1.81 2.94,-1.09 6.26,-1.86 9.98,-2.32 4.67,-0.58 9.48,-0.57 15.21,-0.37 1.9,-0.37 3.74,0.88 4.11,2.77 0.37,1.9 -0.87,3.74 -2.77,4.11 -4.85,2.18 -8.64,4.55 -12.52,6.54 -2.91,1.5 -5.44,3.01 -7.97,4.07 -3.06,1.28 -5.86,1.99 -8.29,2.81 -8.3799,2.84 -12.2899,4.46 -12.2899,4.46 z"
     id="path2200"
     style="stroke:none;stroke-width:0.2" /><path
     d="m 2669.9745,8207.6227 c -1.7299,-0.87 -2.4199,-2.98 -1.5399,-4.71 0.8699,-1.72 2.9799,-2.41 4.7099,-1.54 0,0 7.06,1.52 16.32,6.19 1.99,1 3.95,2.24 5.97,3.64 1.25,0.87 2.5,1.82 3.66,2.91 2.11,1.98 4.04,4.25 5.79,6.72 1.63,2.29 3.08,4.62 4.32,7.19 1.8799,3.87 3.3499,7.64 4.3099,11.83 0.81,1.76 0.05,3.84 -1.7,4.66 -1.76,0.82 -3.8399,0.06 -4.6599,-1.7 -2.6,-3.47 -5.76,-6.12 -9.03,-8.96 -1.61,-1.39 -3.25,-2.61 -4.87,-3.94 -1.64,-1.35 -3.34,-2.55 -4.86,-3.92 -2.67,-2.43 -5,-4.92 -7.23,-7.14 -6.66,-6.65 -11.19,-11.23 -11.19,-11.23 z"
     id="path2202"
     style="stroke:none;stroke-width:0.2" /><path
     d="m 2632.8646,8330.2627 c -1.77,-0.78 -2.57,-2.85 -1.78,-4.62 0.78,-1.77 2.85,-2.57 4.62,-1.78 10.84,4.21 29.05,8.36 52.8799,38.13 7.45,9.3099 15.42,21.1699 23.6699,36.4699 4.62,8.56 9.34,18.21 13.97,29.15 3.85,9.11 7.6,19.13 11.35,30.08 4.72,13.78 9.37,29.03 13.9899,45.95 3.9,14.29 7.68,29.74 11.53,46.48 0.51,1.87 -0.58,3.8 -2.44,4.32 -1.87,0.52 -3.8,-0.58 -4.32,-2.44 -7.6099,-23.45 -15.1099,-44.18 -22.1299,-62.74 -5.71,-15.11 -11.21,-28.68 -16.39,-40.96 -4.1,-9.73 -8.04,-18.62 -11.7499,-26.79 -7.04,-15.51 -13.48,-28.3 -19.64,-38.83 -23.7099,-40.5099 -42.6599,-46.9999 -53.5599,-52.4199 z"
     id="path2204"
     style="stroke:none;stroke-width:0.2" /><path
     d="m 2643.6846,8301.1327 c -2.01,-0.14 -4.54,0.25 -7.6,1 -2.02,0.48 -4.21,1.21 -6.6,2.13 -2.5799,0.84 -5.4099,0.1 -7.2599,-1.88 -1.85,-1.99 -2.38,-4.87 -1.36,-7.38 3.23,-8.86 5.01,-16.82 6.09,-23.64 0.94,-5.98 1.22,-11.03 0.86,-15.08 -0.18,-2.03 -0.19,-4.87 -0.62,-6.02 -1.62,1.73 -3.92,6.5 -5.72,10.72 -3.84,8.99 -7.52,22.21 -9.86,40.67 -0.12,1.93 -1.78,3.4 -3.71,3.28 -1.93,-0.12 -3.41,-1.78 -3.29,-3.71 -0.06,-24.6 3.17,-41.14 7.27,-51 3,-7.21 6.99,-11.19 10.31,-13.09 2.92,-1.67 5.85,-1.84 8.5499,-1.34 4.24,0.78 8.57,4.27 11.04,11.18 1.88,5.23 2.84,13.14 1.41,23.12 -0.79,5.61 -2.4,11.92 -4.85,18.83 5.22,-0.17 9.16,0.62 11.71,1.91 4.7,2.38 6.63,5.89 6.11,9.52 -0.34,2.42 -1.6,5.41 -5.1,7.78 -3.97,2.69 -11.2,5.31 -22.36,5.84 -1.9199,0.23 -3.6699,-1.14 -3.8999,-3.06 -0.23,-1.92 1.14,-3.67 3.06,-3.9 7.2599,-1.44 12.3099,-3.54 15.5199,-5.66 0.1,-0.07 0.2,-0.14 0.3,-0.22 z m -16.5099,-50.93 c -0.18,-0.44 -0.43,-0.6 -0.79,-0.31 -0.21,0.16 0.46,0.17 0.67,0.26 0.03,0.02 0.07,0.04 0.12,0.05 z m 0.06,0.02 c 0.64,0.23 1.8899,0.44 1.6199,-0.15 -0.3399,-0.74 -0.9199,-0.59 -1.6199,0.15 z"
     id="path2206"
     style="stroke:none;stroke-width:0.2" /><path
     d="m 2573.4248,8231.5527 c -0.1,0.2 -0.26,0.57 -0.37,0.83 -0.54,1.37 -0.71,3.16 -0.74,5.32 -0.08,6.63 2.14,15.91 7,27.86 3.28,8.05 7.7,17.24 13.7099,27.46 1.71,2.92 1.38,6.6 -0.82,9.18 -2.2,2.57 -5.7899,3.46 -8.9399,2.23 -19.96,-8.29 -34.81,-11.37 -45.2299,-11.14 -4.17,0.09 -7.52,0.61 -10.05,1.7 -1.66,0.72 -2.98,1.47 -3.65,2.59 -1.87,3.18 0.88,6.85 5.5,9.85 8.68,5.61 23.9799,8.2 44.5999,2.23 1.84,-0.6 3.82,0.39 4.44,2.23 0.6,1.83 -0.39,3.82 -2.22,4.43 -29.5299,11.12 -50.6599,4.25 -59.4299,-4.78 -6.01,-6.19 -6.95,-13.7 -3.82,-19.91 2.91,-5.79 10.45,-11.11 23.98,-12.1 8.23,-0.61 19.0399,0.47 32.6599,4.05 -2.06,-4.33 -3.82,-8.43 -5.28,-12.31 -5.52,-14.6 -7.21,-26.09 -6.71,-34.1 0.8,-12.91 7.27,-18.71 13.93,-19.03 5.11,-0.24 12.15,2.83 18.1699,11.66 7.6,11.14 14.93,32.11 16.37,63.95 0.17,1.92 -1.26,3.62 -3.19,3.79 -1.93,0.17 -3.63,-1.26 -3.79,-3.19 -3.7,-28.94 -11.5399,-47.63 -19.2499,-57.28 -1.52,-1.9 -3.04,-3.35 -4.49,-4.42 -0.73,-0.54 -1.81,-0.92 -2.38,-1.1 z"
     id="path2208"
     style="stroke:none;stroke-width:0.2" /><path
     d="m 2539.9649,8352.3027 c 0.07,-0.01 0.16,-0.01 0.21,0 0.38,0.09 0.81,0.08 1.28,0.07 1.45,0 3.13,-0.41 5.05,-1.03 5.9599,-1.94 13.3799,-6.59 21.9699,-14.09 6,-5.24 12.54,-11.82 19.29,-20.09 2.4099,-2.91 6.5199,-3.73 9.8599,-1.97 3.34,1.77 4.98,5.63 3.93,9.26 -5.68,18.23 -6.82,32.04 -5.37,40.89 0.36,2.2199 0.79,4.0699 1.47,5.4899 0.28,0.58 0.81,1.43 0.81,1.43 0,0 -1.62,-0.46 -1.3,0 1.7,2.52 4.7,-6.11 6.57,-13.1199 2.63,-9.9 4.21,-24.17 3.35,-43.33 -0.17,-1.93 1.25,-3.64 3.18,-3.81 1.92,-0.18 3.63,1.24 3.8,3.17 3.42,24.96 2.06,42.47 -1.04,53.2299 -2.1,7.27 -5.34,11.77 -8.32,14.14 -3.48,2.77 -7.21,3.1 -10.66,2.1 -3.33,-0.97 -6.7099,-3.85 -9.2099,-9.09 -2.39,-5 -4.02,-12.8299 -3.8,-23.3199 0.03,-1.75 0.13,-3.58 0.28,-5.49 -12.04,10.39 -22.79,15.9 -30.87,18.03 -10.5599,2.7699 -17.7999,0.04 -20.9299,-4.45 -3.06,-4.37 -3.75,-11.94 2.7,-20.83 6.95,-9.56 22.6099,-22.11 50.3699,-33.95 1.75,-0.84 3.84,-0.1 4.68,1.65 0.83,1.74 0.09,3.84 -1.66,4.67 -24.28,12.89 -37.7999,25.11 -43.4199,34.29 -1.11,1.81 -1.8,3.47 -2.15,4.92 -0.1,0.38 -0.09,0.87 -0.07,1.23 z m 0.02,0.24 c 0.01,0.12 0.02,0.2 0.02,0.2 0,0 0.01,-0.12 -0.02,-0.2 z m -0.1,-0.24 c -0.01,-0.06 -0.03,-0.09 -0.05,-0.05 -0.02,0.03 0.01,0.04 0.05,0.05 z"
     id="path2210"
     style="stroke:none;stroke-width:0.2" /><path
     d="m 2880.004,8399.3426 c 1.9,-0.36 3.74,0.89 4.1,2.79 0.36,1.9 -0.89,3.73 -2.79,4.1 -8.15,2.11 -20.3599,10.06 -33.0899,23.82 -5.69,6.14 -11.35,13.5 -16.9,22.06 -3.5799,5.52 -7.0399,11.56 -10.4499,18.09 -3.1,5.91 -6.19,12.18 -9.05,18.97 -3.87,9.18 -7.46,19.15 -10.45,30.14 -2.67,9.81 -5.02,20.27 -6.68,31.62 -0.16,1.93 -1.85,3.37 -3.78,3.22 -1.9199,-0.16 -3.3599,-1.85 -3.2099,-3.78 0.41,-20.76 2.8499,-39.19 7.1699,-55.47 3.51,-13.26 8.14,-25.06 13.57,-35.36 2.47,-4.68 5.19,-9 7.98,-13.04 4.65,-6.72 9.52,-12.66 14.5099,-17.78 18.81,-19.32 38.01,-28.01 49.0699,-29.38 z"
     id="path2212"
     style="stroke:none;stroke-width:0.2" /><path
     d="m 2832.0141,8441.7226 c 0.52,1.86 -0.57,3.8 -2.4399,4.32 -1.86,0.52 -3.79,-0.57 -4.32,-2.43 -5.24,-13.41 -10.7,-22.78 -15.59,-29.53 -2.74,-3.78 -5.33,-6.45 -7.76,-8.25 -1.37,-1.01 -2.58,-1.62 -3.74,-1.66 -0.88,-0.03 -1.59,0.47 -2.17,1.24 -0.8,1.07 -1.55,2.33 -2.05,3.85 -1.49,4.47 -2.02,10.22 -0.75,16.69 1.09,5.55 3.04,11.49 6.63,17.5 1.16,1.55 0.84,3.75 -0.71,4.91 -1.55,1.16 -3.75,0.84 -4.9,-0.71 -9.7299,-10.7 -14.0299,-22.34 -14.8899,-32.09 -0.61,-6.87 0.87,-12.84 3.17,-17.3 3.47,-6.73 9.4799,-10.26 16.1099,-10.08 5.82,0.16 13.26,3.52 19.65,12.96 2.76,4.07 5.47,9.3 7.8,16.02 2.34,6.72 4.3099,14.77 5.9599,24.56 z"
     id="path2214"
     style="stroke:none;stroke-width:0.2" /><path
     d="m 2890.554,8433.3126 c 0.57,-0.9 1.14,-1.85 1.66,-2.67 3.04,-4.8 6.4,-11.12 8.94,-19.67 0.29,-1.92 2.07,-3.24 3.98,-2.96 1.92,0.28 3.24,2.06 2.96,3.97 0,9.37 -1.18,16.94 -2.99,22.92 -1.3,4.28 -3.15,7.56 -4.92,10.06 -4.13,5.87 -9.52,7.34 -13.32,6.83 -4.35,-0.57 -9.55,-3.87 -10.67,-12.21 -0.48,-3.56 -0.5,-8.42 1.02,-14.55 1.29,-5.17 3.47,-11.1 6.76,-18.27 0.53,-1.86 2.46,-2.95 4.33,-2.43 1.86,0.52 2.95,2.46 2.43,4.32 -0.66,5.81 -0.72,10.66 -0.79,14.97 -0.06,3.95 0.18,7.14 0.61,9.69 z m 0.76,3.32 c 0.12,0.49 0.23,1.16 0.52,0.99 0.56,-0.32 0.14,-0.68 -0.52,-0.99 z m -2.61,-0.75 c -0.85,-0.13 -2,-0.21 -1.62,0.42 0.36,0.6 0.94,0.32 1.62,-0.42 z"
     id="path2216"
     style="stroke:none;stroke-width:0.2" /><path
     d="m 2968.6738,8403.5226 c -0.91,-0.36 -1.83,-0.71 -2.64,-1.04 -8.09,-3.3 -20.2199,-5.65 -34.4799,-4.8 -3.57,0.24 -6.83,-2.02 -7.86,-5.44 -1.03,-3.42 0.44,-7.1 3.55,-8.86 22.7,-12.22 36.3999,-21.2499 43.5199,-27.5099 -12.57,3.01 -33.9399,13.7599 -50.4499,30.5799 -1.31,1.42 -3.53,1.52 -4.95,0.21 -1.43,-1.3 -1.53,-3.52 -0.22,-4.95 14.22,-16.6499 32.75,-28.5399 46.3899,-34.3499 6.33,-2.7 11.76,-4.02 15.43,-4.19 4.16,-0.19 6.93,1.32 8.5,2.95 1.92,1.98 2.8,4.82 1.62,8.68 -0.85,2.77 -3.72,7.02 -9.71,12.4399 -4.76,4.32 -11.77,9.68 -21.48,16.17 9.33,1.53 16.94,4.21 22.08,7.18 8.45,4.88 11.22,11.55 10.49,16.12 -0.57,3.53 -2.72,7.36 -8.25,9.74 -3.61,1.56 -9.41,2.78 -17.8,2.66 -6.31,-0.09 -14.2999,-0.87 -24.1699,-2.58 3.73,12.33 3.83,21.99 2.05,27.64 -2.43,7.68 -7.57,10.34 -13.13,8.45 -2.73,-0.93 -6.11,-3.32 -9.19,-8.16 -4.19,-6.59 -8.5899,-18.18 -11.6199,-36.04 -0.39,-1.89 0.82,-3.75 2.72,-4.15 1.8899,-0.39 3.7499,0.82 4.1399,2.71 3.3,13.16 7.04,22.46 10.63,28.57 2.42,4.13 5.82,9.01 6.33,7.09 0.11,-0.39 -1.02,0.14 -1.02,0.14 0,0 0.2,-0.56 0.32,-0.93 0.36,-1.06 0.48,-2.4 0.51,-3.96 0.14,-6.45 -2.29,-15.94 -8.16,-27.31 -1.09,-2.27 -0.81,-4.96 0.73,-6.96 1.54,-1.99 4.07,-2.95 6.54,-2.49 16.63,2.75 28.6099,3.38 36.7199,2.77 0.97,-0.08 1.94,-0.21 2.86,-0.38 z m 4.13,1.92 c -0.08,0.79 -0.09,1.6 0.42,1.27 0.54,-0.35 0.29,-0.79 -0.42,-1.27 z"
     id="path2218"
     style="stroke:none;stroke-width:0.2" /><path
     d="m 2919.0639,8339.2327 c -0.95,1.28 -1.99,2.83 -2.92,4.11 -3.72,5.11 -7.7299,12.23 -11.2999,21.57 -2.73,7.1399 -5.45,15.2399 -7.44,24.7099 -0.21,1.93 -1.94,3.31 -3.87,3.11 -1.92,-0.22 -3.31,-1.95 -3.1,-3.87 0.27,-15.8 2.45,-28.8399 5.77,-39.0599 1.99,-6.12 4.5,-11.15 6.99,-15.16 2.68,-4.32 5.57,-7.46 8.1899,-9.51 5.86,-4.59 11.5,-4.7 15.29,-2.71 2.92,1.54 5.79,4.35 6.68,9.43 0.71,4 0.56,10.16 -2.18,18.35 -2.8,8.38 -8.08,19.1999 -16.69,32.7099 -0.89,1.72 -3,2.39 -4.7199,1.5 -1.72,-0.89 -2.39,-3.01 -1.5,-4.72 4.6299,-11.34 7.3699,-20.6399 9.0899,-28.1299 1.19,-5.17 1.75,-9.25 1.71,-12.33 z m -0.32,-3.25 c -0.05,-0.25 -0.11,-0.48 -0.17,-0.69 -0.04,-0.12 -0.08,-0.33 -0.17,-0.29 -0.49,0.24 -0.18,0.63 0.34,0.98 z m 2.26,1 c 0.7,0.26 1.53,0.53 1.31,0 -0.24,-0.59 -0.71,-0.5 -1.31,0 z"
     id="path2220"
     style="stroke:none;stroke-width:0.2" /><path
     d="m 2874.074,8359.5327 c 0.07,0.77 0.16,1.57 0.28,2.39 0.51,3.49 1.23,7.3099 2.34,11.1799 1.68,5.83 3.63,11.63 6.61,16.22 1.27,1.46 1.12,3.67 -0.34,4.94 -1.46,1.28 -3.68,1.12 -4.95,-0.33 -4.69,-4.06 -8.9199,-9.56 -12.4099,-15.5 -2.38,-4.05 -4.18,-8.26 -5.51,-12.21 -1.1,-3.2599 -1.69,-6.3599 -1.96,-9.0499 -0.31,-3.14 0,-5.85 0.62,-7.92 1.21,-4.07 3.68,-6.63 6.67,-7.72 2.88,-1.06 7.0899,-1.56 11.9399,1.93 2.39,1.73 5.46,4.46 8.73,9 3.65,5.05 7.75,12.14 12.64,22.0299 1.07,1.61 0.64,3.79 -0.97,4.86 -1.61,1.07 -3.79,0.64 -4.86,-0.97 -4.51,-5.12 -8.46,-9.08 -11.87,-12.48 -2.68,-2.6899 -4.98,-4.7799 -6.96,-6.3699 z m -4.1999,-2.89 c -0.15,-0.08 -0.3,-0.16 -0.45,-0.23 -0.22,-0.11 -0.58,-0.36 -0.64,-0.18 -0.18,0.56 0.43,0.56 1.09,0.41 z m 3.8399,-1.66 c 0.7,-0.46 1.06,-0.93 0.36,-1.17 -0.41,-0.14 -0.43,0.43 -0.36,1.17 z"
     id="path2222"
     style="stroke:none;stroke-width:0.2" /><path
     d="m 2966.0838,8509.1626 c -1.65,-1 -2.18,-3.16 -1.18,-4.81 1.01,-1.65 3.17,-2.18 4.82,-1.18 0,0 3,0.77 7.84,2.8 1.58,0.66 3.14,1.45 4.92,2.47 1.54,0.88 3.01,1.93 4.53,3.15 0.94,0.77 1.87,1.59 2.69,2.55 1.51,1.76 2.8099,3.73 3.8999,5.88 0.78,1.52 1.47,2.99 1.99,4.63 1.24,3.88 2.12,7.49 2.18,11.59 0.54,1.85 -0.53,3.8 -2.38,4.34 -1.86,0.55 -3.81,-0.52 -4.3499,-2.38 -1.74,-2.81 -4.01,-4.77 -6.35,-7.07 -0.91,-0.89 -1.87,-1.6 -2.77,-2.48 -1.35,-1.31 -2.82,-2.41 -4.04,-3.75 -1.81,-1.99 -3.24,-4.08 -4.66,-5.95 -4.42,-5.77 -7.14,-9.79 -7.14,-9.79 z"
     id="path2224"
     style="stroke:none;stroke-width:0.2" /><path
     d="m 2564.8648,8447.3726 c -1.91,-0.33 -3.2,-2.14 -2.88,-4.04 0.32,-1.91 2.13,-3.2 4.04,-2.88 0,0 6.27,-0.87 15.82,-2.75 3.11,-0.62 6.46,-1.48 10.1599,-2.13 2.69,-0.48 5.53,-0.71 8.47,-1.15 2.81,-0.43 5.63,-0.7 8.58,-1.29 3.61,-0.73 7.13,-1.39 10.82,-2.68 1.67,-0.98 3.82,-0.43 4.81,1.23 0.98,1.66 0.43,3.82 -1.23,4.8 -5.05,4.46 -10.16,7.9 -15.67,10.56 -4,1.92 -8.03,3.28 -11.99,4.09 -1.69,0.35 -3.38,0.48 -5.01,0.55 -2.6699,0.13 -5.1699,0.09 -7.5399,-0.13 -2.78,-0.25 -5.21,-0.62 -7.45,-1.1 -6.95,-1.48 -10.93,-3.08 -10.93,-3.08 z"
     id="path2226"
     style="stroke:none;stroke-width:0.2" /><path
     d="m 2797.4942,8610.9525 c -1.93,0.18 -3.64,-1.24 -3.82,-3.1699 -0.18,-1.92 1.24,-3.63 3.16,-3.81 12.44,-2.11 23.33,-4.37 32.99,-6.49 8.1199,-1.78 15.2199,-3.57 21.4599,-5.24 10.19,-2.74 17.75,-5.39 22.9099,-8.09 1.39,-0.73 2.6,-1.4 3.57,-2.12 0.61,-0.46 1.2,-0.74 1.43,-1.21 0.59,-1.16 1.58,-5.84 3.05,-12.07 4.86,-20.61 12.8,-56.09 12.8,-56.09 0.28,-1.91 2.07,-3.23 3.98,-2.95 1.91,0.29 3.24,2.07 2.95,3.98 0,0 -2.14,29.13 -4.6,50.43 -1.36,11.79 -3.18,21.25 -4,23.25 -1.34,3.06 -4.12,6.38 -8.92,9.33 -4.54,2.79 -11.27,5.55 -20.3899,7.79 -7.28,1.79 -16.15,3.31 -26.72,4.41 -11.3399,1.1699 -24.5299,1.7499 -39.8499,2.0499 z m -159.7996,-97.4099 c -0.2,-1.93 1.2,-3.65 3.13,-3.85 1.92,-0.2 3.65,1.2 3.84,3.13 2,9.77 4.1,22.99 6.95,36.2 0.84,3.86 1.73,7.69 2.67,11.43 0.95,3.75 2,7.38 3.18,10.8 1.27,3.75 2.58,7.27 4.43,10.31 1.83,3.01 3.81,5.74 6.62,7.6 3.3299,2.26 7.1099,4.36 11.3499,6.26 3.96,1.78 8.15,3.46 12.64,4.97 1.89,0.42 3.08,2.29 2.65,4.18 -0.42,1.89 -2.29,3.08 -4.18,2.66 -6.09,-0.72 -11.8,-1.74 -17.11,-3.11 -4.16,-1.07 -7.9299,-2.46 -11.4099,-3.98 -7.48,-3.47 -13.25,-9.83 -17.48,-18.03 -2.25,-4.39 -3.98,-9.36 -5.23,-14.62 -0.85,-3.57 -1.43,-7.28 -1.83,-11.05 -0.59,-5.44 -0.85,-10.94 -0.87,-16.35 -0.05,-9.89 0.63,-19.13 0.65,-26.55 z"
     id="path2228"
     style="stroke:none;stroke-width:0.2" /><path
     d="m 2866.1341,8705.9725 c -0.59,1.84 -2.56,2.85 -4.41,2.26 -1.84,-0.59 -2.85,-2.56 -2.26,-4.41 1.73,-8.1 2.45,-20.3 3.47,-33.9 0.33,-4.48 0.73,-9.07 1.18,-13.7 0.29,-3.04 0.57,-6.1 0.99,-9.12 1.11,-7.88 2.52,-15.58 3.81,-22.69 3.5399,-19.4299 6.6199,-34.0499 6.6199,-34.0499 0.15,-1.93 1.85,-3.37 3.77,-3.21 1.93,0.15 3.37,1.85 3.21,3.77 0,0 0.66,15.07 -0.02,34.9599 -0.25,7.3 -0.64,15.21 -1.52,23.22 -0.34,3.08 -0.86,6.16 -1.4,9.21 -0.82,4.68 -1.73,9.29 -2.79,13.75 -3.28,13.84 -7.1899,25.99 -10.6499,33.91 z m -203.0295,-110.2299 c -0.28,-1.92 1.05,-3.7 2.96,-3.98 1.92,-0.27 3.6999,1.06 3.9699,2.97 1.51,7.76 5.21,20.6999 9.61,35.3899 3.95,13.22 8.59,27.75 12.79,41.15 5.57,17.73 10.44,33.39 13.12,40.76 0.87,2.54 3.47,4.16 6.6399,5.76 5.21,2.64 12.04,4.54 19.59,6.01 18.3899,3.56 40.6799,4.5 55.6199,4.64 6.9899,0.13 14.3799,-0.24 21.7099,-1.11 7.4,-0.88 14.72,-2.2 21.4699,-4.04 1.84,-0.59 3.82,0.42 4.41,2.26 0.6,1.84 -0.42,3.82 -2.26,4.42 -6.9099,2.59 -14.4499,4.72 -22.1399,6.35 -7.69,1.62 -15.49,2.68 -22.9099,3.19 -11.04,0.69 -25.98,1.35 -40.6499,0.69 -9.75,-0.45 -19.36,-1.5 -27.67,-3.39 -7.25,-1.64 -13.5599,-4.02 -18.3199,-7.03 -5.35,-3.38 -8.91,-7.7 -10.58,-12.62 -1.88,-5.9 -5.11,-16.86 -8.55,-30.06 -2.41,-9.28 -4.95,-19.66 -7.33,-30.13 -5.55,-24.39 -10.2999,-49.1099 -11.4799,-61.2299 z"
     id="path2230"
     style="stroke:none;stroke-width:0.2" /><path
     d="m 2641.3946,8515.3926 c 1.25,6.4 7.86,12.37 18.54,17.54 12.0999,15.71 30.1899,52.37 26.1799,69.52 0,0 26.2999,57.6499 34.7999,126.7699 -11.6399,-2.93 -20.4899,-7.53 -22.8999,-14.63 -6.59,-19.39 -27.92,-95 -31.4399,-119.3599 -0.37,-0.19 -0.73,-0.38 -1.09,-0.58 -21.74,-12.01 -21.85,-54.89 -24.09,-79.26 z"
     id="path2232"
     style="stroke:none;stroke-width:0.2" /><path
     d="m 2669.0745,8600.1426 c 1.85,0.58 2.88,2.55 2.3,4.39 -0.57,1.85 -2.5399,2.88 -4.3899,2.3 -12.93,-3.36 -33.23,2 -48.5999,12.7299 -13.06,9.12 -22.6,22.6 -17.8,39.61 0.74,2.85 2.81,5.81 5.51,9.02 2.52,2.98 5.62,6.05 9.14,9.18 9.16,8.13 21.0899,16.45 33.6099,23.79 15.25,8.93 31.1899,16.53 44.0099,20.29 8.01,2.36 14.57,3.52 18.6399,2.04 1.79,-0.74 3.84,0.1 4.59,1.89 0.74,1.78 -0.1,3.84 -1.88,4.58 -4.8999,2.33 -13.2499,2.35 -23.5199,0.32 -13.85,-2.73 -31.4399,-9.09 -48.1699,-17.39 -16.7799,-8.32 -32.6799,-18.56 -43.2299,-28.65 -7.62,-7.28 -12.4099,-14.79 -13.9999,-21.25 -4.29,-19.41 3.1299,-35.49 16.4299,-46.84 8.95,-7.6299 20.44,-13.0999 31.9599,-15.9999 13.15,-3.31 26.2,-3.4 35.3999,-0.01 z"
     id="path2234"
     style="stroke:none;stroke-width:0.2" /><path
     d="m 2668.0346,8603.4926 c 5.9799,29.9899 24.0099,93.5599 29.9799,111.0999 1.81,5.34 7.28,9.27 14.8299,12.14 -21.6099,9.03 -112.7897,-37.16 -119.9097,-65.65 -10.5299,-42.11 48.4699,-65.9099 75.0999,-57.5899 z"
     id="path2236"
     style="stroke:none;stroke-width:0.2" /></g>&#10;</svg>
