<?xml version="1.0" encoding="UTF-8" standalone="no"?>
<svg
   width="3171.8389"
   height="2687.1562"
   viewBox="0 0 3171.8389 2687.1563"
   version="1.1"
   xml:space="preserve"
   style="clip-rule:evenodd;fill-rule:evenodd;stroke-linejoin:round;stroke-miterlimit:2"
   id="svg5353"
   xmlns="http://www.w3.org/2000/svg"
   xmlns:svg="http://www.w3.org/2000/svg"><defs
   id="defs5353" />&#10;    &#10;<g
   id="vectorly-UNI-call-telephone"
   transform="matrix(4.9999999,0,0,4.9999999,-8449.0727,-96420.798)"
   style="stroke-width:0.2"><path
     d="m 2035.3841,19382.179 c -0.64,1.9 -2.64,2.8 -4.46,2.2 -1.83,-0.7 -2.79,-2.7 -2.15,-4.5 3.29,-10.1 4.49,-20.6 3.29,-31.8 -1.05,-9.9 -4.01,-20.2 -9.01,-31 -1.03,-2.4 -0.08,-5.1 2.17,-6.3 2.25,-1.2 5.05,-0.5 6.43,1.7 27.5999,41.2 59.4399,62.9 92.9898,54.9 12.82,-3 25.7199,-10.5 38.7299,-22.5 14.28,-13.3 28.5699,-31.9 42.6199,-56.7 2.06,-3.6 6.53,-5 10.29,-3.3 3.7499,1.7 5.5599,6.1 4.1599,10 -10.4499,28.5 -16.3099,51.2 -17.1899,68.4 -0.56,11 0.79,19.5 5.06,25.2 4.45,6.1 11.9099,8.7 22.2199,8.9 16.36,0.2 38.8999,-5.6 68.0799,-17.2 2.3299,-1 5.0299,-0.3 6.6099,1.7 1.59,2 1.69,4.8 0.25,6.8 -11.0799,15.4 -16.4299,28.4 -16.1099,39 0.4,13.2 9.87,22.2 26.3199,27.2 1.29,0.4 2.31,1.4 2.71,2.7 0.41,1.3 0.14,2.7 -0.71,3.7 -2.75,3.3 -4.79,6.4 -5.93,9.6 -1.23,3.5 -1.45,6.9 -0.41,10.2 0.61,1.9 -0.38,3.8 -2.21,4.5 -1.84,0.6 -3.82,-0.4 -4.44,-2.3 -1.38,-3.9 -1.6,-7.8 -0.8,-11.9 0.66,-3.4 2.09,-6.9 4.24,-10.4 -17.7999,-6.2 -27.4599,-17.5 -28.4799,-32.8 -0.59,-8.8 1.85,-19.2 7.74,-31.1 -23.51,9.1 -42.3999,13.7 -56.8699,13.9 -15.7199,0.2 -26.7599,-4.7 -33.7599,-13.7 -6.1,-7.9 -9.16,-19.4 -8.63,-34.7 0.26,-7.4 1.38,-15.8 3.33,-25.3 -5.96,7.2 -11.94,13.4 -17.9099,18.8 -15.41,13.7 -30.83,21.8 -45.8699,25 -17.9,3.7 -35.3699,0.6 -51.9199,-8.6 -12.56,-7.1 -24.6399,-17.7 -35.9699,-31.6 0.29,2.2 0.51,4.3 0.65,6.4 0.81,12.4 -0.97,24 -5.06,34.9 z"
     id="path152-6"
     style="clip-rule:evenodd;fill-rule:evenodd;stroke:none;stroke-width:0.2;stroke-linejoin:round;stroke-miterlimit:2" /><path
     d="m 2287.6735,19489.579 c -1.52,-1.2 -1.78,-3.4 -0.57,-4.9 1.2,-1.6 3.4,-1.8 4.92,-0.6 16.9899,12.6 26.5799,34.9 30.3299,57.1 2.89,17 2.2,33.9 -0.98,46.2 -2.54,9.8 -7.09,16.8 -12.13,20.1 -17.0799,10.8 -45.2599,13 -71.5898,8.1 -15.07,-2.8 -29.4699,-8 -40.7099,-14.5 -10.65,-6.3 -18.5199,-13.9 -22.2499,-22.1 -2.76,-6.1 -3.77,-15.2 -2.17,-25.7 2.35,-15.5 9.9299,-34.2 23.2799,-49.1 15.61,-17.3 38.8499,-29.7 70.2398,-25.5 1.92,0.2 3.32,2 3.12,3.9 -0.21,1.9 -1.94,3.3 -3.86,3.1 -27.9699,-2.1 -47.9298,9.8 -60.8998,25.9 -9.17,11.3 -14.77,24.8 -17.21,36.9 -2.03,10 -1.95,18.9 0.73,24.2 2.85,5.8 9.01,10.6 16.7,14.9 10.03,5.6 22.7699,9.8 36.0299,12.3 12.88,2.5 26.2499,3.5 38.1999,2.2 8.75,-0.9 16.73,-3 22.9699,-6.7 2.99,-1.7 5.04,-6.1 6.78,-11.6 3.36,-10.8 4.63,-25.8 2.94,-41.1 -2.22,-20.1 -9.31,-40.8 -23.8699,-53.1 z"
     id="path154-6"
     style="clip-rule:evenodd;fill-rule:evenodd;stroke:none;stroke-width:0.2;stroke-linejoin:round;stroke-miterlimit:2" /><path
     d="m 2213.6237,19556.279 c -1.69,-0.9 -2.28,-3.1 -1.33,-4.7 0.95,-1.7 3.09,-2.3 4.78,-1.4 0,0 8.3799,3.2 21.3499,6.6 4.35,1.2 9.18,2.3 14.39,3.4 3.8,0.8 7.7999,1.5 11.9199,2.4 3.85,0.7 7.8,1.5 11.85,2.2 6.49,1.1 13.12,2 19.97,2.2 6.7099,0.2 13.4199,0.1 20.2499,-1.2 1.85,-0.5 3.81,0.5 4.36,2.4 0.56,1.8 -0.49,3.8 -2.35,4.3 -10.67,4.5 -21.6899,6.8 -32.6599,7.4 -7.68,0.4 -15.23,0 -22.36,-1.3 -2.99,-0.5 -5.8799,-1.2 -8.6799,-2 -4.47,-1.3 -8.68,-2.7 -12.56,-4.4 -17.74,-7.4 -28.9299,-15.9 -28.9299,-15.9 z"
     id="path156-4"
     style="clip-rule:evenodd;fill-rule:evenodd;stroke:none;stroke-width:0.2;stroke-linejoin:round;stroke-miterlimit:2" /><path
     d="m 2011.9742,19488.979 c 1.08,0.4 2.99,1.1 4.68,1.5 8.8699,2 23.4999,3.5 38.2799,4.5 21.8099,1.6 43.9298,2.3 49.1198,2.6 2.99,0.1 4.83,-1.5 6.06,-3.6 2.91,-5.1 3.38,-12.5 4.24,-16.6 0.27,-1.2 0.93,-2.5 2.22,-3.5 1.47,-1.3 4.13,-2.5 7.44,-3.2 6.3,-1.5 15.1299,-2 19.7499,-1.2 4.31,0.8 7.66,2.8 9.98,5.5 2.42,2.9 3.79,6.5 3.87,10.6 0.06,1.9 -1.46,3.6 -3.39,3.6 -1.93,0.1 -3.55,-1.4 -3.62,-3.4 -0.1,-2.3 -0.89,-4.4 -2.32,-6 -1.35,-1.5 -3.29,-2.5 -5.72,-2.9 -5.0499,-0.7 -16.1499,0.4 -20.3099,2.9 -0.81,4.8 -1.51,12.8 -4.55,18.4 -2.72,5.1 -7.07,8.5 -13.99,8.4 -7.7599,-0.3 -53.0598,-0.5 -79.2498,-3.6 -9.3699,-1.1 -16.4999,-2.9 -19.5199,-4.8 -2.17,-1.4 -3.22,-3.1 -3.68,-4.6 -1.55,-5.1 0.35,-13 0.18,-19 -0.03,-0.8 -0.08,-1.6 -0.37,-2.1 -0.12,-0.3 -0.48,-0.1 -0.89,-0.1 -7.14,-0.6 -13.73,-0.5 -18.7,0.3 -1.36,0.2 -3.16,0.4 -4.34,0.6 0.54,5.9 3.53,25.6 1.6,50.8 -1.23,16.1 -4.4499,34.2 -11.3499,52.5 -13.22,34.9 -24.56,58.3 -33.9599,74.3 -12.93,22.001 -22.36,30.501 -27.98,35.501 -1.5,1.3 -4.39,2.5 -3.4,3.2 0.15,0.1 0.18,-0.3 0.19,-0.5 -0.14,6.5 -0.58,26.5 -0.51,44.1 0.04,9.1 0.19,17.5 0.66,22.9 0.01,0.1 0.02,0.2 0.03,0.4 2.55,0.4 6.34,1 10.04,1.5 29.8799,3.5 95.7898,7.6 147.3796,9.9 27.91,1.2 51.6099,1.9 63.0899,1.7 2.75,-0.1 4.59,-0.1 5.29,-0.3 5.95,-2 9.44,-1.2 20.4599,-15.9 7.97,-10.7 19.42,-28.6 37.2899,-59.2 0.61,-1.1 2.04,-2.6 4.13,-4.5 5.37,-4.8 16.13,-14 19.39,-31.7 2.71,-14.701 0.33,-35.001 -13.64,-63.101 -0.88,-1.8 -0.19,-3.9 1.53,-4.7 1.72,-0.9 3.83,-0.2 4.71,1.5 15.82,29.9 18.5399,51.9 16,67.801 -2.75,17.2 -11.64,27.8 -18.07,34.1 -2.68,2.7 -4.94,4.3 -5.54,5.4 -17.4699,31.6 -28.7199,50.1 -36.5899,61.1 -13.61,19.1 -18.26,17.9 -25.7799,20.6 -2.57,0.9 -15.8,1.4 -34.9599,1.3 -34.2,-0.3 -88.3698,-2.1 -132.0597,-4.5 -28.6299,-1.6 -52.7899,-3.5 -64.0799,-5.2 -4.23,-0.7 -7.0799,-1.5 -8.3799,-2.2 -2.55,-1.2 -3.67,-2.9 -4.23,-4.1 -1.19,-2.6 -2.28,-12.7 -2.51,-25.3 -0.36,-19.1 0.24,-44.4 0.4,-52 0.09,-4 1.36,-6.9 4.02,-9.9 3.96,-4.5 13.9199,-9.6 29.6999,-35.901 9.25,-15.4 20.5099,-37.9 33.7299,-71.5 6.65,-16.9 9.85,-33.6 11.25,-48.5 2.59,-27.4 -0.85,-48.3 -0.71,-51.4 0.15,-3.6 2.69,-7.7 8.9,-9.8 5.9499,-1.9 16.4699,-2.6 28.1899,-1.3 7.25,0.8 10.32,4.6 11.44,9.9 0.74,3.4 0.3,7.8 -0.28,12.2 -0.3,2.3 -0.72,4.6 -0.56,6.5 z m -35.1,-15.6 c -0.7599,0.2 -1.1599,0.5 -0.8499,0.9 0.38,0.5 0.67,-0.1 0.8499,-0.9 z m -74.6298,215.701 z"
     id="path158-8"
     style="clip-rule:evenodd;fill-rule:evenodd;stroke:none;stroke-width:0.2;stroke-linejoin:round;stroke-miterlimit:2" /><path
     d="m 2167.7638,19492.279 c -0.15,0.5 -0.44,1.3 -0.64,1.9 -0.98,3.3 -2.09,8.5 -3.38,15.3 -1.94,10.2 -4.1,23.8 -6.46,39.7 -1.82,12.2 -3.67,25.7 -5.68,40 -1.81,12.8 -3.69,26.3 -5.61,40 -2.82,20 -5.7,40.301 -8.0399,60.001 -3.93,32.9 -6.69,63.5 -6.18,85.9 0.11,1.9 -1.37,3.6 -3.3,3.7 -1.93,0.1 -3.59,-1.4 -3.7,-3.3 -2.07,-22.7 -1.8,-53.9 0.29,-87.5 1.17,-19 2.84,-38.601 5.04,-58.001 1.39,-12.2 3.01,-24.3 4.79,-36 1.91,-12.6 4.0299,-24.6 6.1399,-35.8 4.59,-24.3 9.23,-44.4 12.69,-57 2.51,-9.1 4.9,-14.6 6.18,-15.9 1.76,-1.8 4.03,-2.9 6.86,-3.1 3.09,-0.2 7.05,0.6 11.25,2.4 12.0299,5.2 26.9799,17.4 26.9799,17.4 1.54,1.2 1.85,3.4 0.68,4.9 -1.17,1.6 -3.37,1.9 -4.91,0.7 0,0 -9.04,-6.3 -18.53,-10.9 -3.9199,-1.9 -7.8999,-3.5 -11.2799,-4.2 -0.89,-0.2 -1.73,-0.3 -2.49,-0.3 -0.21,0 -0.48,0.1 -0.7,0.1 z m -0.24,0.1 c -0.09,0 -0.14,0.1 -0.14,0.1 0,0 0.08,-0.1 0.14,-0.1 z"
     id="path160-2"
     style="clip-rule:evenodd;fill-rule:evenodd;stroke:none;stroke-width:0.2;stroke-linejoin:round;stroke-miterlimit:2" /><path
     d="m 2175.3938,19490.879 c -0.46,-1.8 0.69,-3.7 2.56,-4.2 1.8799,-0.5 3.7799,0.7 4.2499,2.6 0,0 2.97,4.4 6.19,11.8 0.67,1.6 1.23,3.2 1.76,5 0.32,1.1 0.64,2.2 0.79,3.4 0.37,2.9 0.36,5.8 0.17,8.8 -0.31,4.8 -1.15,9.1 -2.1,13.4 0.07,1.9 -1.44,3.6 -3.37,3.6 -1.94,0.1 -3.56,-1.4 -3.64,-3.3 -1.19,-3.9 -2.97,-7.6 -4.4299,-11.9 -0.91,-2.7 -1.91,-5.2 -2.39,-7.9 -0.53,-2.9 -0.52,-5.7 -0.53,-8.3 -0.03,-7.8 0.74,-13 0.74,-13 z"
     id="path162-5"
     style="clip-rule:evenodd;fill-rule:evenodd;stroke:none;stroke-width:0.2;stroke-linejoin:round;stroke-miterlimit:2" /><path
     d="m 2178.8037,19490.079 c 0,0 6.04,24.4 6.7,41.7 -7.3099,17.5 -8.5299,35 -4.19,44.1 3.08,6.5 9.38,12.4 17.66,17.4 38.4699,75.001 -5.31,97.201 -8.75,103.301 -45.1899,79.6 -48.9899,74.6 -60.0598,78.4 -0.38,0.1 -1.02,0.2 -1.89,0.3 -4.72,-82.6 28.0599,-278.401 35.4699,-286.401 2.69,-3 8.62,-1.7 15.0599,1.2 z"
     id="path164-9"
     style="clip-rule:evenodd;fill-rule:evenodd;stroke:none;stroke-width:0.2;stroke-linejoin:round;stroke-miterlimit:2" /><path
     d="m 1894.1545,19693.08 c -1.94,-0.1 -3.46,-1.7 -3.4,-3.6 0.05,-2 1.67,-3.5 3.6,-3.4 0,0 31.2099,-1.1 71.0698,-1.5 9.12,-0.1 18.6699,0 28.4099,0.1 6.27,0 12.6,0.1 18.93,0.3 16.1799,0.6 32.3299,1.6 47.2798,2.6 39.7799,2.5 70.8799,5.3 70.8799,5.3 1.93,0.1 3.45,1.7 3.4,3.6 -0.06,2 -1.67,3.5 -3.61,3.4 0,0 -31.21,1 -71.0599,1.3 -14.9799,0.1 -31.1599,0.2 -47.3498,-0.2 -6.33,-0.1 -12.66,-0.4 -18.92,-0.7 -9.73,-0.5 -19.2699,-1 -28.3599,-1.7 -39.7799,-2.7 -70.8698,-5.5 -70.8698,-5.5 z"
     id="path166-4"
     style="clip-rule:evenodd;fill-rule:evenodd;stroke:none;stroke-width:0.2;stroke-linejoin:round;stroke-miterlimit:2" /><path
     d="m 1908.4244,19452.079 c -1.89,-0.4 -3.07,-2.3 -2.64,-4.1 0.43,-1.9 2.31,-3.1 4.2,-2.7 0,0 5.31,0.4 13.45,2.5 3.87,1 8.23,2.3 12.95,4.3 3.2299,1.4 6.5199,3.1 9.8299,5.1 2.07,1.2 4.15,2.6 6.11,4.2 4.62,3.8 8.93,8.4 12.62,13.8 4.98,7.2 8.78,15.5 11,25.3 0.66,1.8 -0.27,3.8 -2.09,4.5 -1.81,0.6 -3.83,-0.3 -4.49,-2.1 -2.69,-5.1 -5.96,-9.3 -9.36,-13.2 -3.57,-4.2 -7.5,-7.7 -11.41,-10.9 -2.48,-2.1 -4.99,-4 -7.41,-5.8 -2.61,-2 -5.0899,-4 -7.5599,-5.8 -3.43,-2.4 -6.6,-4.7 -9.62,-6.5 -9.03,-5.7 -15.58,-8.6 -15.58,-8.6 z"
     id="path168-3"
     style="clip-rule:evenodd;fill-rule:evenodd;stroke:none;stroke-width:0.2;stroke-linejoin:round;stroke-miterlimit:2" /><path
     d="m 1969.3343,19528.779 c 1.71,-1 3.83,-0.3 4.75,1.4 0.91,1.7 0.27,3.8 -1.44,4.7 0,0 -30.38,18.5 -59.5599,31.5 -9,4 -17.9099,7.4 -25.7599,9.7 -7.86,2.3 -14.81,3.3 -20,3.1 -7.78,-0.5 -14.6399,-4.5 -19.9399,-11.6 -7.01,-9.5 -11.42,-24.9 -12.35,-41.8 -0.8,-14.7 0.87,-30.5 5.01,-44.2 5.24,-17.4 14.34,-31.3 26.9099,-36.1 1.77,-0.8 3.84,0.1 4.61,1.8 0.77,1.8 -0.04,3.9 -1.81,4.6 -6.95,3.5 -11.83,10.7 -15.3399,19.6 -4.46,11.4 -6.23,25.6 -6.04,39.7 0.2,14.2 2.66,28.2 7.18,38.6 1.6699,3.9 3.6099,7.2 5.9099,9.7 2,2.2 4.21,3.8 6.91,4 3.89,0.3 9.1,-0.6 15.08,-2 7.47,-1.7 15.9799,-4.5 24.6999,-7.5 29.5999,-10.5 61.1799,-25.2 61.1799,-25.2 z"
     id="path170-6"
     style="clip-rule:evenodd;fill-rule:evenodd;stroke:none;stroke-width:0.2;stroke-linejoin:round;stroke-miterlimit:2" /><path
     d="m 1942.9843,19498.479 c 1.72,-0.8 3.83,-0.1 4.71,1.6 0.87,1.7 0.18,3.8 -1.54,4.7 0,0 -11.5799,8 -27.7499,17.4 -3.62,2.1 -7.48,4.2 -11.5,6.2 -2.56,1.3 -5.16,2.6 -7.86,3.8 -6.7599,2.9 -13.7599,5.3 -20.5299,7.5 -12.57,4.1 -24.1899,6.7 -32.4199,7.7 -1.88,0.4 -3.76,-0.8 -4.19,-2.6 -0.43,-1.9 0.76,-3.8 2.64,-4.2 7.49,-2.6 17.5399,-7.9 28.7999,-13.5 6.21,-3.2 12.66,-6.5 19.18,-9.5 2.61,-1.2 5.2699,-2.3 7.8899,-3.4 4.13,-1.7 8.15,-3.3 12.02,-4.7 17.35,-6.4 30.5499,-11 30.5499,-11 z"
     id="path172"
     style="clip-rule:evenodd;fill-rule:evenodd;stroke:none;stroke-width:0.2;stroke-linejoin:round;stroke-miterlimit:2" /><path
     d="m 1886.2745,19445.179 c -1.88,0.5 -3.77,-0.7 -4.22,-2.6 -0.46,-1.9 0.7,-3.8 2.58,-4.2 0,0 26.5199,-7.7 91.8398,-8.9 17.5399,-0.3 37.8699,-0.2 61.2398,0.9 14.13,0.7 29.3799,1.7 45.7599,3.2 14.3,1.4 29.4599,3.2 45.5299,5.4 21.0599,2.8 43.6399,6.3 67.8698,10.5 21.22,3.7 43.6399,8.1 67.3998,12.9 1.91,0.3 3.19,2.1 2.87,4 -0.33,2 -2.14,3.2 -4.05,2.9 -34.3799,-4.8 -65.9798,-8.5 -95.0097,-11.6 -22.71,-2.5 -43.8099,-4.5 -63.3999,-6.2 -14.9599,-1.4 -29.0399,-2.5 -42.2599,-3.6 -23.8199,-2 -44.8599,-3.5 -63.3898,-4.5 -80.2898,-4.3 -112.7597,1.8 -112.7597,1.8 z"
     id="path174"
     style="clip-rule:evenodd;fill-rule:evenodd;stroke:none;stroke-width:0.2;stroke-linejoin:round;stroke-miterlimit:2" /><path
     d="m 2007.0342,19480.779 c -1.93,-0.1 -3.41,-1.8 -3.29,-3.7 0.11,-1.9 1.77,-3.4 3.7,-3.3 0,0 14.5199,-1.1 33.2799,-1.6 4.26,-0.1 8.72,-0.1 13.27,0 2.93,0.1 5.8799,0.1 8.8299,0.3 7.55,0.6 15.04,1.5 21.98,2.5 18.5799,2.5 32.8799,5.2 32.8799,5.2 1.94,0.1 3.41,1.8 3.3,3.7 -0.11,2 -1.77,3.4 -3.7,3.3 0,0 -14.53,1.1 -33.2699,1.4 -7.01,0.1 -14.55,0.2 -22.12,-0.1 -2.95,-0.1 -5.8999,-0.4 -8.8099,-0.7 -4.53,-0.5 -8.96,-1 -13.18,-1.6 -18.58,-2.6 -32.8699,-5.4 -32.8699,-5.4 z"
     id="path176"
     style="clip-rule:evenodd;fill-rule:evenodd;stroke:none;stroke-width:0.2;stroke-linejoin:round;stroke-miterlimit:2" /><path
     d="m 2117.4839,19483.679 c -1.28,8.1 -3.64,18.7 -13.6,18.4 -10.7999,-0.5 -94.7397,-1.7 -97.1497,-10.1 -1.15,-4 0.12,-9.7 0.51,-14.7 z"
     id="path178"
     style="clip-rule:evenodd;fill-rule:evenodd;stroke:none;stroke-width:0.2;stroke-linejoin:round;stroke-miterlimit:2" /><path
     d="m 2094.454,19546.779 c 1.42,1.3 1.51,3.5 0.2,4.9 -1.32,1.4 -3.53,1.5 -4.96,0.2 -16.73,-14.5 -39.8599,-16.3 -60.3899,-10.3 -20.8799,6 -39.2799,20.4 -44.4099,39 -6.42,22.2 -1.59,41.9 10.91,55.2 12.19,13 31.5099,19.901 54.9999,16.8 21.1799,-2.6 36.8099,-15.8 44.8199,-33 8.1799,-17.5 8.7299,-39.1 -0.63,-58.6 -0.89,-1.7 -0.21,-3.8 1.5,-4.7 1.7199,-0.9 3.8399,-0.2 4.7299,1.5 11.88,21.3 12.52,45.8 4.38,66.1 -8.6099,21.5 -27.1499,38.201 -52.7498,42.601 -29.07,4.7 -53.4499,-3.7 -68.6599,-19.701 -15.9899,-16.9 -22.0699,-42.4 -13.3399,-70.4 7.3499,-22.4 29.7999,-39.8 55.5898,-45.8 23.77,-5.5 49.9999,-1.5 68.0099,16.2 z"
     id="path180"
     style="clip-rule:evenodd;fill-rule:evenodd;stroke:none;stroke-width:0.2;stroke-linejoin:round;stroke-miterlimit:2" /><path
     d="m 2056.6723,19576.461 c 0.4589,0.321 0.8462,0.74 1.12,1.283 4.0385,5.921 4.3815,13.001 2.4917,19.144 -2.1512,7.007 -8.0301,12.113 -15.9986,14.112 -9.2488,1.899 -17.1654,-0.864 -22.0822,-5.971 -5.2794,-5.501 -7.3369,-13.988 -4.2062,-23.066 0.9547,-2.443 2.1857,-4.811 4.0927,-6.71 3.5451,-3.578 8.4101,-6.365 13.8326,-7.13 7.174,-1.012 14.8267,0.419 19.6448,6.167 0.6439,0.592 1.0139,1.382 1.1052,2.171 z m -5.4743,3.282 c -0.1332,-0.07 -0.2615,-0.198 -0.3824,-0.297 -3.5722,-2.541 -8.0844,-1.899 -12.0341,-0.37 -3.3748,1.308 -6.1206,3.948 -6.7398,7.105 -0.8314,3.208 -0.012,5.971 1.7713,7.895 1.8872,2.047 4.7465,3.355 8.4273,3.01 3.5599,-0.148 6.5006,-1.752 8.0721,-4.515 1.9267,-3.355 2.7729,-7.549 1.2557,-11.62 -0.2023,-0.37 -0.3232,-0.789 -0.3701,-1.208 z"
     id="path182"
     style="clip-rule:evenodd;fill-rule:evenodd;stroke:none;stroke-width:0.0493402;stroke-linejoin:round;stroke-miterlimit:2" /><path
     d="m 2075.264,19548.879 c 1.24,-1.5 3.45,-1.7 4.94,-0.5 1.48,1.2 1.68,3.4 0.45,4.9 0,0 -0.23,3.3 -2.14,8.1 -0.61,1.5 -1.29,3.1 -2.45,4.5 -1.19,1.3 -2.69,2.2 -4.12,3.1 -4.28,2.6 -7.38,3.7 -7.38,3.7 -1.24,1.4 -3.45,1.6 -4.93,0.4 -1.49,-1.2 -1.69,-3.4 -0.45,-4.9 0,0 0.43,-3.3 2.27,-8 0.61,-1.5 1.18,-3.2 2.32,-4.6 1.11,-1.4 2.57,-2.3 3.97,-3.2 4.35,-2.7 7.52,-3.5 7.52,-3.5 z"
     id="path184"
     style="clip-rule:evenodd;fill-rule:evenodd;stroke:none;stroke-width:0.2;stroke-linejoin:round;stroke-miterlimit:2" /><path
     d="m 2091.724,19576.979 c 1.92,-0.2 3.63,1.2 3.81,3.2 0.17,1.9 -1.24,3.6 -3.17,3.8 0,0 -2.34,2.1 -6.93,4.1 -1.46,0.7 -3.01,1.3 -4.74,1.4 -1.74,0.2 -3.36,-0.3 -4.93,-0.7 -4.79,-1.2 -7.55,-2.6 -7.55,-2.6 -1.92,0.2 -3.63,-1.3 -3.81,-3.2 -0.18,-1.9 1.25,-3.6 3.17,-3.8 0,0 2.45,-2 6.94,-4 1.48,-0.6 2.98,-1.4 4.73,-1.6 1.71,-0.2 3.36,0.2 4.91,0.6 4.89,1.1 7.57,2.8 7.57,2.8 z"
     id="path186"
     style="clip-rule:evenodd;fill-rule:evenodd;stroke:none;stroke-width:0.2;stroke-linejoin:round;stroke-miterlimit:2" /><path
     d="m 2090.804,19600.879 c 1.92,0.2 3.32,1.9 3.11,3.8 -0.2,2 -1.92,3.4 -3.85,3.2 0,0 -2.45,1.6 -7.13,2.7 -1.46,0.4 -3,0.7 -4.61,0.5 -1.64,-0.2 -3.01,-0.9 -4.38,-1.6 -4.24,-2.1 -6.42,-4 -6.42,-4 -1.92,-0.2 -3.32,-1.9 -3.11,-3.9 0.2,-1.9 1.92,-3.3 3.85,-3.1 0,0 2.53,-1.4 7.11,-2.6 1.48,-0.4 2.98,-0.8 4.63,-0.7 1.62,0.2 3.05,0.8 4.4,1.5 4.34,2.1 6.4,4.2 6.4,4.2 z"
     id="path188"
     style="clip-rule:evenodd;fill-rule:evenodd;stroke:none;stroke-width:0.2;stroke-linejoin:round;stroke-miterlimit:2" /><path
     d="m 2076.884,19627.579 c 1.2,1.5 0.94,3.7 -0.58,4.9 -1.51,1.2 -3.72,1 -4.92,-0.6 0,0 -2.52,-0.2 -6.42,-2.4 -1.16,-0.7 -2.36,-1.4 -3.23,-2.5 -0.89,-1.2 -1.18,-2.5 -1.54,-3.8 -1.16,-4.2 -1.07,-6.7 -1.07,-6.7 -1.2,-1.6 -0.94,-3.8 0.58,-5 1.51,-1.2 3.72,-0.9 4.92,0.6 0,0 2.46,0.5 6.28,2.6 1.19,0.6 2.43,1.2 3.37,2.4 0.91,1.1 1.31,2.4 1.68,3.7 1.23,4.3 0.93,6.8 0.93,6.8 z"
     id="path190"
     style="clip-rule:evenodd;fill-rule:evenodd;stroke:none;stroke-width:0.2;stroke-linejoin:round;stroke-miterlimit:2" /><path
     d="m 2040.9841,19621.379 c -0.83,-1.7 -0.09,-3.8 1.66,-4.6 1.74,-0.9 3.84,-0.1 4.67,1.6 0,0 2.84,1.5 6.36,5.2 1.13,1.2 2.29,2.4 3.02,4 0.75,1.7 0.8899,3.4 1.0899,5 0.59,5 0.19,8.1 0.19,8.1 0.84,1.8 0.1,3.9 -1.6499,4.7 -1.74,0.8 -3.84,0.1 -4.67,-1.6 0,0 -2.72,-1.7 -6.2,-5.3 -1.15,-1.2 -2.39,-2.4 -3.19,-4 -0.78,-1.5 -1.03,-3.3 -1.24,-4.9 -0.64,-5 -0.04,-8.2 -0.04,-8.2 z"
     id="path192"
     style="clip-rule:evenodd;fill-rule:evenodd;stroke:none;stroke-width:0.2;stroke-linejoin:round;stroke-miterlimit:2" /><path
     d="m 2025.4041,19619.279 c 0.34,-1.9 2.17,-3.2 4.07,-2.8 1.9,0.3 3.17,2.1 2.83,4 0,0 1.4,3.2 2.05,8.5 0.21,1.7 0.39,3.6 0.03,5.4 -0.36,1.9 -1.26,3.5 -2.08,5 -2.43,4.7 -4.68,7.3 -4.68,7.3 -0.34,1.9 -2.16,3.2 -4.06,2.8 -1.91,-0.3 -3.18,-2.1 -2.84,-4 0,0 -1.2,-3.3 -1.87,-8.5 -0.22,-1.7 -0.51,-3.5 -0.21,-5.4 0.3,-1.9 1.12,-3.5 1.91,-5.1 2.44,-4.7 4.85,-7.2 4.85,-7.2 z"
     id="path194"
     style="clip-rule:evenodd;fill-rule:evenodd;stroke:none;stroke-width:0.2;stroke-linejoin:round;stroke-miterlimit:2" /><path
     d="m 2013.1942,19611.679 c 1.42,-1.3 3.64,-1.2 4.9499,0.2 1.32,1.4 1.23,3.6 -0.18,4.9 0,0 -0.4,3 -2.6299,7.3 -0.7,1.3 -1.46,2.7 -2.67,3.8 -1.24,1.1 -2.72,1.6 -4.13,2.2 -4.37,1.9 -7.28,2.2 -7.28,2.2 -1.41,1.4 -3.63,1.3 -4.95,-0.1 -1.31,-1.5 -1.23,-3.7 0.19,-5 0,0 0.59,-2.9 2.75,-7.1 0.69,-1.4 1.35,-2.8 2.54,-3.9 1.18,-1.2 2.63,-1.8 4.02,-2.4 4.44,-1.9 7.39,-2.1 7.39,-2.1 z"
     id="path196"
     style="clip-rule:evenodd;fill-rule:evenodd;stroke:none;stroke-width:0.2;stroke-linejoin:round;stroke-miterlimit:2" /><path
     d="m 2010.1142,19596.479 c 1.9,-0.3 3.73,1 4.08,2.9 0.35,1.9 -0.91,3.7 -2.82,4 0,0 -2.14,2.4 -6.55,4.8 -1.4,0.8 -2.9,1.6 -4.61,1.8 -1.73,0.3 -3.39,0 -5,-0.2 -4.88,-0.8 -7.78,-2 -7.78,-2 -1.9,0.4 -3.73,-0.9 -4.08,-2.8 -0.35,-1.9 0.91,-3.7 2.82,-4.1 0,0 2.27,-2.1 6.58,-4.6 1.42,-0.8 2.85,-1.6 4.58,-2 1.7,-0.3 3.38,-0.1 4.97,0.1 4.98,0.7 7.81,2.1 7.81,2.1 z"
     id="path198"
     style="clip-rule:evenodd;fill-rule:evenodd;stroke:none;stroke-width:0.2;stroke-linejoin:round;stroke-miterlimit:2" /><path
     d="m 2012.4142,19582.179 c 1.7,0.9 2.34,3.1 1.41,4.8 -0.92,1.7 -3.05,2.3 -4.75,1.4 0,0 -2.77,0.6 -7.46,-0.1 -1.44,-0.2 -2.96,-0.4 -4.33,-1.2 -1.4,-0.8 -2.34,-2 -3.31,-3.1 -3.03,-3.5 -4.21,-6.1 -4.21,-6.1 -1.71,-0.9 -2.34,-3 -1.42,-4.7 0.92,-1.7 3.05,-2.4 4.75,-1.4 0,0 2.79,-0.4 7.38,0.2 1.48,0.2 2.99,0.3 4.42,1 1.4,0.8 2.43,1.9 3.39,3 3.12,3.6 4.13,6.2 4.13,6.2 z"
     id="path200-5"
     style="clip-rule:evenodd;fill-rule:evenodd;stroke:none;stroke-width:0.2;stroke-linejoin:round;stroke-miterlimit:2" /><path
     d="m 2022.6341,19569.079 c 1.28,1.5 1.14,3.7 -0.31,4.9 -1.45,1.3 -3.67,1.2 -4.95,-0.3 0,0 -2.4699,-0.1 -6.4599,-2 -1.17,-0.6 -2.39,-1.2 -3.3,-2.2 -0.93,-1.1 -1.26,-2.4 -1.68,-3.7 -1.34,-4.1 -1.34,-6.6 -1.34,-6.6 -1.28,-1.4 -1.14,-3.6 0.31,-4.9 1.45,-1.3 3.67,-1.1 4.95,0.3 0,0 2.43,0.3 6.33,2.2 1.1999,0.5 2.4499,1 3.4299,2.1 0.95,1 1.39,2.3 1.81,3.5 1.42,4.2 1.21,6.7 1.21,6.7 z"
     id="path202-4"
     style="clip-rule:evenodd;fill-rule:evenodd;stroke:none;stroke-width:0.2;stroke-linejoin:round;stroke-miterlimit:2" /><path
     d="m 2032.3341,19565.579 c 0.24,1.9 -1.13,3.6 -3.05,3.9 -1.92,0.2 -3.67,-1.2 -3.91,-3.1 0,0 -1.98,-1.5 -4.17,-5.3 -0.65,-1.1 -1.31,-2.3 -1.45,-3.7 -0.15,-1.4 0.31,-2.7 0.69,-4 1.21,-4.1 2.59,-6.1 2.59,-6.1 -0.23,-1.9 1.14,-3.7 3.06,-3.9 1.92,-0.2 3.67,1.1 3.9,3 0,0 1.83,1.7 4.01,5.4 0.67,1.1 1.41,2.2 1.62,3.7 0.2,1.3 -0.16,2.6 -0.52,3.9 -1.2,4.3 -2.77,6.2 -2.77,6.2 z"
     id="path204-2"
     style="clip-rule:evenodd;fill-rule:evenodd;stroke:none;stroke-width:0.2;stroke-linejoin:round;stroke-miterlimit:2" /><path
     d="m 2048.8941,19565.179 c -0.59,1.9 -2.57,2.9 -4.41,2.3 -1.84,-0.6 -2.85,-2.6 -2.26,-4.4 0,0 -1.08,-2.8 -1.22,-7.6 -0.05,-1.6 -0.07,-3.2 0.46,-4.7 0.55,-1.6 1.57,-2.8 2.52,-4.1 2.92,-3.7 5.28,-5.5 5.28,-5.5 0.59,-1.9 2.57,-2.9 4.41,-2.3 1.84,0.6 2.86,2.6 2.27,4.4 0,0 0.87,2.8 1.05,7.6 0.06,1.6 0.18,3.1 -0.3,4.8 -0.48,1.5 -1.43,2.8 -2.35,4 -2.95,3.9 -5.45,5.5 -5.45,5.5 z"
     id="path206-9"
     style="clip-rule:evenodd;fill-rule:evenodd;stroke:none;stroke-width:0.2;stroke-linejoin:round;stroke-miterlimit:2" /><path
     d="m 1894.0945,19763.78 c -0.1,-2 1.38,-3.6 3.3099,-3.7 1.93,-0.1 3.59,1.4 3.69,3.3 0.68,3.6 -0.15,8.8 4.9,12 1.75,1.1 4.24,1.6 7.64,2.1 3.72,0.7 8.4,1.1 14.39,1 3.01,0.2 5.78,0.2 8.33,0.4 3.0399,0.1 5.7399,0.3 8.1899,0.4 7.19,0.2 11.73,0 14.69,-1.2 1.22,-0.5 2.21,-0.7 2.71,-1.4 1.54,-2.2 1.29,-4.8 1.65,-6.8 0.09,-1.9 1.74,-3.4 3.67,-3.3 1.93,0.1 3.42,1.8 3.33,3.7 0.16,1.9 0.69,4.1 0.63,6.4 -0.11,3.7 -1.79,7.4 -6.87,10.9 -3.95,2.8 -10.76,5.3 -22.62,6.5 -4.13,0.4 -8.9199,0.4 -14.4499,0.3 -4.37,-0.4 -8.16,-0.8 -11.4,-1.6 -8.87,-2.1 -14.19,-5.1 -17.35,-8.3 -3.5499,-3.7 -5.1499,-7.4 -5.3199,-11.2 -0.16,-3.5 0.65,-6.7 0.88,-9.5 z"
     id="path208-4"
     style="clip-rule:evenodd;fill-rule:evenodd;stroke:none;stroke-width:0.2;stroke-linejoin:round;stroke-miterlimit:2" /><path
     d="m 1897.5944,19763.58 c 7.66,2 35.54,4.4 69.4999,6.5 -0.33,6.6 4.85,18.4 -39.4399,16.3 -34.4099,-1.5 -29.62,-14.9 -30.06,-22.8 z"
     id="path210-9"
     style="clip-rule:evenodd;fill-rule:evenodd;stroke:none;stroke-width:0.2;stroke-linejoin:round;stroke-miterlimit:2" /><path
     d="m 2060.644,19774.78 c -0.01,-2 1.56,-3.5 3.49,-3.5 1.94,-0.1 3.51,1.5 3.52,3.4 0.26,2.1 0.36,4.1 1.38,6 0.57,1 1.84,1.4 3.66,2 3.27,1.2 8.18,1.4 15.79,1.5 4.76,0.1 10.4499,0.1 17.3399,-0.3 6.49,0.2 11.89,0.1 16.4,0 6.89,-0.1 11.43,-0.3 14.46,-1.5 1.23,-0.5 2.2599,-0.7 2.7499,-1.6 0.72,-1.2 1.09,-2.6 1.21,-4.2 0.19,-2.7 0.12,-5.7 0.33,-9.1 -0.1,-1.9 1.38,-3.6 3.32,-3.7 1.93,-0.1 3.58,1.4 3.68,3.4 0.74,4.4 1.78,8.3 1.98,11.7 0.34,5.7 -1.65,10.2 -7.86,14.1 -3.68,2.3 -9.4999,4.3 -18.6399,5.6 -4.81,0.7 -10.62,1 -17.61,1.3 -7.4,-0.4 -13.5199,-0.8 -18.5699,-1.6 -9.52,-1.5 -15.44,-3.7 -19.18,-6 -8.9,-5.5 -8.16,-11.3 -7.45,-17.5 z"
     id="path212-9"
     style="clip-rule:evenodd;fill-rule:evenodd;stroke:none;stroke-width:0.2;stroke-linejoin:round;stroke-miterlimit:2" /><path
     d="m 2064.154,19774.78 c 34.8699,1.1 62.2899,1.4 66.0099,0.2 4.81,-1.7 8.2499,-1.7 14.3099,-7.7 0.81,15.5 7.06,24.5 -38.6399,24.6 -44.1099,0 -41.6599,-8.9 -41.6799,-17.1 z"
     id="path214-3"
     style="clip-rule:evenodd;fill-rule:evenodd;stroke:none;stroke-width:0.2;stroke-linejoin:round;stroke-miterlimit:2" /><path
     d="m 1703.5049,19697.18 c -4.65,-4.2 -7.58,-9.8 -7.13,-16.4 0.56,-8.1 6.17,-15.7 13.31,-21.3 -3.44,-3.8 -5.33,-8.701 -4.28,-14.201 1.43,-7.5 6.93,-13.5 13.74,-17.6 -1.63,-3.7 -1.96,-8 -0.3,-12.5 1.98,-5.3 5.43,-9.6 9.38,-12.8 -5.22,-6 -9.94,-14.2 -12.05,-23.7 -4.9,-21.9 1.83,-45.1 17.95,-65.2 18.1799,-22.7 48.3398,-41.4 86.3997,-49.4 1.89,-0.4 3.76,0.8 4.18,2.7 0.41,1.9 -0.79,3.8 -2.68,4.2 -29.1599,6.6 -53.3198,19.8 -70.3998,36.2 -21.2399,20.4 -31.4699,45.7 -25.7899,69.3 1.45,6 4.19,11.3 7.37,15.7 1.35,1.9 2.7799,3.5 4.2399,5 1.19,-0.5 2.37,-0.8 3.5,-1.1 4.76,-1.1 8.86,-0.6 11.22,0.8 3.03,1.7 4.6,4.4 4.06,8.1 -0.57,3.9 -2.51,6.3 -4.97,7.6 -3.32,1.7 -8.87,1.3 -14.69,-2.6 -2.9799,2.1 -5.6599,5.1 -7.0399,9.1 -0.52,1.4 -0.37,2.8 0.18,4 0.17,-0.1 0.34,-0.1 0.51,-0.2 7.6199,-2.1 14.9199,-2.1 18.6599,-0.6 4.74,1.8 6.54,5.3 5.83,9.3 -0.77,4.5 -3.39,7.4 -7.13,8.9 -4.73,1.9 -12.04,1.2 -18.2199,-2.2 -0.64,-0.4 -1.27,-0.8 -1.88,-1.2 -4.59,2.3 -8.78,5.6 -9.63,10.5 -0.41,2.3 1.25,3.9 3.28,5.1 5.9,-2.5 11.45,-3.5 14.7899,-3 5.2,0.8 7.87,3.9 8.2,8.301 0.27,3.6 -1.16,6.4 -4.06,8.4 -3.18,2.2 -9.9499,3 -16.8399,1.1 -0.27,-0.1 -0.54,-0.2 -0.81,-0.2 -1.35,0.7 -2.63,1.4 -3.72,2.2 -4.33,3.3 -8.29,7.4 -8.56,12.1 -0.19,3.5 2.39,5.7 5.39,7.3 1.62,-0.8 3.24,-1.6 4.83,-2.3 7.45,-3.1 14.21,-3.7 17.7399,-2.5 4.49,1.4 6.86,4.5 6.96,9 0.11,4.8 -2.25,8.6 -6.84,10.9 -4.0299,2.1 -10.5799,2.8 -17.3799,1.5 -1.09,-0.2 -2.19,-0.5 -3.27,-0.8 -0.61,0.5 -1.22,0.9 -1.81,1.4 -5.25,3.9 -10.01,9 -10.9,14.9 -0.22,1.4 0.41,2.4 1.41,3.1 0.58,-0.5 1.16,-1.1 1.74,-1.6 5.84,-5.2 11.97,-7.7 16.2,-7.6 5.26,0.1 9.33,2.6 11.1599,8.4 1.91,6 -0.04,10.8 -4.6099,14.3 -4.06,3 -11.41,4.7 -18.78,3.9 -4.35,6.4 -7.45,14.6 -5.93,22.6 0.26,1.4 1.46,2 2.74,2.3 1.61,0.5 3.44,0.6 5.29,0.4 2.95,-7.4 8.49,-12.4 12.67,-13.8 5.08,-1.7 9.5199,-0.3 12.5499,3.8 4.07,5.5 3.44,11.3 -1.27,16.5 -2.18,2.4 -5.6999,4.6 -9.8699,6.4 0.55,4.3 3.06,9.3 8.7599,13.8 3.87,3.1 8.28,4.6 12.62,5 2.41,0.2 4.81,0.1 7.09,-0.2 -0.19,-5.9 1.69,-11.5 4.45,-14.9 3.89,-4.7 9.21,-6.3 14.8499,-3.9 6.31,2.7 8.89,6.9 9.62,10.8 0.63,3.4 -0.15,7.1 -2.64,10.7 -1.08,1.6 -2.55,3.2 -4.35,4.6 3.1,0.9 7.23,0.9 12.57,-0.1 6.31,-1.3 9.62,-5.3 10.9,-10 0.3,-1.1 0.51,-2.2 0.64,-3.4 -0.39,-0.1 -0.78,-0.2 -1.16,-0.4 -4.97,-1.9 -9.02,-4.7 -11.49,-7.7 -2.13,-2.5 -3.22,-5.3 -3.41,-8.1 -0.26,-3.8 1.12,-7.9 5.62,-11.5 2.7,-2.1 5.51,-2.9 8.22,-2.8 1.18,0.1 2.39,0.3 3.59,0.8 -3.32,-3.2 -4.74,-7.6 -3.41,-12.3 1.58,-5.6 5.59,-8.1 11.02,-7.9 4.3299,0.1 10.4899,2.8 16.0799,7.4 0.65,0.6 1.29,1.1 1.92,1.7 2.46,-1.6 4.53,-4 5.63,-7.3 1,-3 0.67,-5.8 -0.42,-8.4 -6.01,1.8 -12.13,1.7 -16.92,0.1 -8.4399,-2.7 -13.1099,-9.3 -10.9799,-17.7 1.19,-4.6 4.66,-7.3 9.7399,-7.7 4.47,-0.4 10.88,1.5 16.79,5.4 2.01,1.4 3.95,3 5.72,4.7 5.4,-4.3 7.36,-9.3 6.98,-14.1 -0.03,-0.4 -0.08,-0.8 -0.15,-1.3 -1.41,0.1 -2.78,0 -4.1,-0.1 -14.43,-1.2 -22.87,-11.3 -18.83,-21 1.9,-4.5 5.6,-6.4 10.16,-6.1 6.21,0.4 15.32,6.9 20.3,16.2 5.5799,-1.7 11.3299,-5.1 16.2999,-11 1.12,-1.3 2.02,-2.6 2.73,-3.7 -1.42,-0.7 -2.9,-1.8 -4.46,-3.1 -8.91,-7.6 -5.84,-13.3 -2.55,-15.2 3.25,-1.8 10.36,-1.1 14.62,3.6 1.33,1.4 2.47,3.3 3.06,5.5 3.17,-3.7 5.39,-9.7 7.28,-14.3 1.56,-3.801 3.06,-6.801 4.36,-8.101 4.0299,-4 8.3499,-5.8 12.8299,-6.4 6.28,-0.7 12.93,1.2 19.41,3.6 1.82,0.6 2.79,2.6 2.15,4.4 -0.64,1.9 -2.64,2.8 -4.47,2.2 -4.55,-1.6 -9.17,-3 -13.63,-3 -3.86,0 -7.56,1.2 -10.91,4.6 -1.6,1.6 -3.01,7.201 -5.3099,12.501 -2.58,6 -6.07,11.6 -10.46,14 -0.75,0.4 -1.54,0.7 -2.36,0.9 -1.06,2.6 -2.73,5.4 -5.18,8.4 -6.07,7.4 -13.19,11.9 -20.17,14.2 1.64,8.7 -0.7,18.3 -10.9299,26.5 2.7,5.5 3.63,11.9 1.55,18.4 -1.87,5.8 -5.35,10.3 -9.56,13.4 1.69,2.9 2.92,5.8 3.48,8.6 1,5 0.16,9.8 -2.83,13.8 -5.05,6.9 -12.92,10 -20.96,10.4 -1.29,11.9 -8.0099,23.1 -23.4399,26.2 -16.52,3.4 -26.2999,-0.8 -31.7299,-7.1 -11.06,2.5 -24.52,1.4 -35.4299,-7.3 -9.37,-7.5 -13.51,-15.7 -14.65,-23.3 -10.6,-0.2 -19.8699,-5.2 -21.7999,-15.7 -1.97,-10.8 1.3,-21.9 6.6099,-31 -5.1799,-3.9 -8.2299,-9.8 -7.0299,-17.3 1.29,-8.1 6.6699,-15.5 13.4299,-21.5 z m 121.5497,69.8 c -1.61,0.3 -3.21,0.5 -4.77,0.6 -4.16,0.2 -7.9199,-0.5 -11.0299,-1.8 1.28,1.2 2.48,2.7 3.54,4.5 1.59,2.7 2.9299,6 3.8099,9.7 4.04,0 8.05,-1.2 10.6,-4.6 0.59,-0.8 0.58,-1.7 0.4,-2.7 -0.34,-1.8 -1.23,-3.6 -2.39,-5.4 -0.05,-0.1 -0.11,-0.2 -0.16,-0.3 z m 16.48,-72.1 c -1.93,-2.5 -4.22,-4.5 -6.43,-5.7 -0.67,-0.4 -1.33,-0.7 -1.96,-0.9 -0.2,-0.1 -0.48,-0.1 -0.68,-0.1 -0.54,1.5 0.43,2.9 1.85,3.9 1.83,1.4 4.33,2.4 7.22,2.8 z m -15.88,30.4 c -1.55,-1 -3.14,-1.8 -4.64,-2.3 -0.73,-0.3 -1.68,-0.4 -2.42,-0.5 0.21,0.5 0.62,0.9 1.12,1.2 1.55,1 3.64,1.5 5.94,1.6 z m -55.9398,67.7 c 0.66,-0.5 0.94,-1 0.4,-1.2 -0.41,-0.2 -0.5,0.5 -0.4,1.2 z m -37.9799,-137.2 c 0.75,0.1 1.31,0 1.12,-0.4 -0.32,-0.6 -0.75,-0.3 -1.12,0.4 z m 11.3899,-26.301 c 0.01,0 0.01,0 0.01,0 z"
     id="path216-1"
     style="clip-rule:evenodd;fill-rule:evenodd;stroke:none;stroke-width:0.2;stroke-linejoin:round;stroke-miterlimit:2" /><path
     d="m 1828.9046,19469.779 c 0.05,-0.1 0.08,-0.3 0.1,-0.4 -0.03,0.2 -0.16,0.3 -0.26,0.5 -0.34,0.1 -0.53,0.3 -0.33,0.5 0.05,0.1 0.13,0 0.18,-0.1 0.01,0 0.01,0.1 0.02,0.1 0.68,1.2 1.78,2.4 3.56,3.3 3.61,1.9 8.08,3.7 13.66,5.2 1.93,0.1 3.36,1.8 3.2,3.8 -0.16,1.9 -1.86,3.3 -3.79,3.1 -6.56,0.6 -12.09,0.5 -16.73,-0.2 -3.35,-0.6 -6.01,-1.9 -8.27,-3.2 -5.1199,-3.2 -7.1299,-8.2 -7.0499,-14.7 0.99,-6.9 5.6199,-11.9 13.7199,-13 3.46,-0.4 7.51,-0.3 11.77,0.6 5.17,1 10.34,2.9 15.06,4.7 1.9,0.4 3.1399,2.2 2.7699,4.1 -0.38,1.9 -2.2199,3.2 -4.1199,2.8 -5.89,-0.1 -12.41,0.4 -18.07,1.4 -1.4,0.3 -2.66,0.7 -3.85,1 -0.44,0.2 -1.1,0.3 -1.57,0.5 z m 0,0 c -0.07,0.2 -0.16,0.3 -0.27,0.5 -0.01,0 -0.02,0 -0.04,0 -0.05,-0.1 0.04,-0.3 0.15,-0.4 0.05,-0.1 0.1,-0.1 0.16,-0.1 z"
     id="path218-9"
     style="clip-rule:evenodd;fill-rule:evenodd;stroke:none;stroke-width:0.2;stroke-linejoin:round;stroke-miterlimit:2" /><path
     d="m 1853.0746,19463.479 c -3.19,5.4 -5.7,11.9 -7.53,18.9 -15.31,-1.3 -25.4,-4.7 -24.45,-13.9 0.98,-9.3 18.95,-7.6 31.98,-5 z"
     id="path220-6"
     style="clip-rule:evenodd;fill-rule:evenodd;stroke:none;stroke-width:0.2;stroke-linejoin:round;stroke-miterlimit:2" /></g></svg>
