<?xml version="1.0" encoding="UTF-8" standalone="no"?>
<svg
   width="3560.4153"
   height="2517.3992"
   viewBox="0 0 3560.4153 2517.3992"
   version="1.1"
   xml:space="preserve"
   style="clip-rule:evenodd;fill-rule:evenodd;stroke-linejoin:round;stroke-miterlimit:2"
   id="svg5353"
   xmlns="http://www.w3.org/2000/svg"
   xmlns:svg="http://www.w3.org/2000/svg"><defs
   id="defs5353" />&#10;    <g
   id="vectorly-UNI-ball-football-soccer"
   transform="matrix(4.9999999,0,0,4.9999999,-16367.469,-80966.948)"
   style="stroke-width:0.2"><path
     d="m 3369.2126,16356.562 c -1.6613,0.983 -3.8203,0.438 -4.8033,-1.224 -0.9831,-1.661 -0.4217,-3.816 1.2396,-4.799 43.5715,-26.485 93.8272,-32.672 139.7559,-21.439 46.3008,11.294 88.1995,40.473 114.8103,84.447 26.681,44.353 32.8577,95.372 21.184,141.954 -11.7265,46.754 -41.499,88.906 -86.1366,115.461 -44.8011,26.231 -96.0164,32.005 -142.6011,19.758 -46.3883,-12.223 -88.0551,-42.1 -114.0612,-86.853 -24.541,-42.395 -30.5799,-90.552 -20.3475,-134.879 10.2626,-44.205 36.5905,-84.739 76.6368,-111.661 1.5998,-1.087 3.77,-0.689 4.8673,0.905 1.0973,1.594 0.7012,3.791 -0.8987,4.878 -37.5924,26.591 -62.0176,65.579 -70.914,107.994 -8.7278,41.895 -2.3291,87.035 21.4649,126.367 24.7148,41.031 63.8322,68.211 106.8986,78.895 42.9209,10.77 89.8824,5.27 130.8444,-19.11 41.0641,-24.16 68.363,-62.745 79.5481,-105.533 11.2275,-42.954 6.3205,-90.098 -17.7713,-131.497 -24.1005,-41.674 -62.9031,-69.602 -106.088,-81.197 -43.5466,-11.662 -91.4877,-6.704 -133.6282,17.533 z"
     id="path4668"
     style="stroke:none;stroke-width:0.241298" /><path
     d="m 3398.5427,16338.609 c -0.5,-1.9 0.62,-3.8 2.49,-4.3 1.87,-0.5 3.79,0.6 4.29,2.4 2.21,6.4 3.57,12.4 4.24,18.2 0.43,3.8 0.52,7.4 0.33,11 9.86,-0.9 19.82,-0.9 29.8799,0.1 6.11,0.6 12.24,1.6 18.36,3 4.52,1 9,2.3 13.5,3.8 5.0099,-4.8 10.5099,-9 16.6199,-12.3 6.28,-3.4 13.07,-6.1 20.43,-8 l 0.97,-15.9 c -0.01,-1.9 1.54,-3.5 3.48,-3.5 1.93,0 3.5199,1.5 3.5299,3.5 l 1.55,19.8 c 0.02,2.2 -1.42,4.1 -3.5199,4.7 -7.32,2.6 -13.82,6.1 -19.73,10.2 -5.94,4.2 -11.12,9.1 -15.57,14.9 -1.95,2.3 -5.0899,3.3 -7.9699,2.4 -5.61,-1.6 -11.23,-2.9 -16.78,-4.1 -5.66,-1.2 -11.26,-2.3 -16.85,-3.2 -11.4899,-1.8 -22.8299,-3 -34.2299,-2.6 -1.93,0.2 -3.81,-0.6 -5.07,-2.1 -1.26,-1.4 -1.73,-3.4 -1.28,-5.3 1.56,-5 2.5,-10.3 2.66,-16 0.14,-5.2 -0.22,-10.8 -1.33,-16.7 z"
     id="path4670"
     style="stroke:none;stroke-width:0.2" /><path
     d="m 3401.9327,16337.709 c 36.6599,-12.4 75.6098,-12.2 111.2298,-1.1 l 0.17,19.8 c -16.2,4.7 -29.47,13 -39.6699,25 -23.85,-7.5 -47.3999,-10.6 -70.5799,-8.7 2.52,-10.4 2.32,-22 -1.15,-35 z"
     id="path4672"
     style="stroke:none;stroke-width:0.2" /><path
     d="m 3581.3823,16377.409 c 0.78,-1.7 2.85,-2.5 4.62,-1.7 1.77,0.7 2.57,2.8 1.79,4.6 0,0 -5.66,16.6 -5.66,16.6 4.6,9.5 8.37,19 11,28.7 1.46,5.3 2.55,10.7 3.24,16.1 0.5799,4.5 0.7999,9.1 0.8699,13.6 5.73,6.5 12.07,12.1 18.79,17.3 7.86,6.1 16.02,11.6 24.5699,16.8 1.72,0.9 2.42,3 1.56,4.7 -0.87,1.8 -2.98,2.5 -4.71,1.6 -11.6099,-4.7 -22.9199,-9.8 -33.4699,-16.4 -7.18,-4.5 -13.8199,-9.8 -20.0999,-15.8 -1.31,-1.4 -2.04,-3.2 -2.08,-5.1 -0.17,-5 -0.71,-9.9 -1.26,-14.9 -0.54,-4.9 -1.17,-9.8 -1.99,-14.7 -1.63,-9.8 -3.74,-19.6 -7.04,-29.5 -0.55,-1.3 -0.53,-2.8 0.05,-4.1 z"
     id="path4674"
     style="stroke:none;stroke-width:0.2" /><path
     d="m 3584.5823,16378.909 c 11.41,11 21.5399,23.7 29.9999,38 14.14,23.9 22.13,49.7 24.4399,75.7 -18.0799,-9.1 -35.4099,-19.3 -49.4898,-34.4 -0.38,-20.3 -4.74,-40.6 -13.11,-60.9 z"
     id="path4676"
     style="stroke:none;stroke-width:0.2" /><path
     d="m 3627.3922,16569.709 c 1.91,-0.2 3.66,1.1 3.9,3.1 0.24,1.9 -1.13,3.6 -3.05,3.9 -10.31,2.1 -20.05,5.4 -29.62,9.4 -8.2399,3.4 -16.2199,7.5 -23.9099,12.4 -1.06,5.1 -2.34,10 -4.02,14.7 -2.15,5.9 -4.8,11.5 -7.84,16.7 -5.23,9.1 -11.4999,17.1 -18.5099,24.6 l 9.19,6.1 c 1.69,0.9 2.3,3.1 1.36,4.8 -0.94,1.7 -3.07,2.3 -4.76,1.3 l -15.75,-7.1 c -1.29,-0.7 -2.19,-2 -2.45,-3.5 -0.25,-1.4 0.17,-2.9 1.15,-4 6.75,-8.8 12.31,-18.4 16.91,-28.7 2.17,-4.9 4.01,-10 5.72,-15.4 1.6299,-5 3.1799,-10.2 4.2799,-15.7 0.42,-2.2 1.74,-4.1 3.64,-5.2 10.07,-5.4 20.32,-9.8 31.03,-12.6 10.6599,-2.9 21.5299,-4.4 32.7299,-4.8 z"
     id="path4678"
     style="stroke:none;stroke-width:0.2" /><path
     d="m 3627.8122,16573.209 c -13.95,36.6 -39.8299,68.9 -75.9798,90.5 l -15.08,-8.4 c 14.83,-16.9 26.0899,-36.6 30.9199,-61.5 18.69,-11.3 38.7899,-18 60.1399,-20.6 z"
     id="path4680"
     style="stroke:none;stroke-width:0.2" /><path
     d="m 3416.0427,16687.309 c -1.92,0.2 -3.66,-1.2 -3.89,-3.1 -0.23,-1.9 1.14,-3.7 3.06,-3.9 6.36,-1.1 12.13,-3.7 17.5,-7.3 4.2899,-2.9 8.2399,-6.6 11.9399,-10.9 -1.06,-5.2 -3.13,-10.6 -6.34,-16.5 -3.7099,-6.9 -9.0399,-14.4 -16.6099,-22.8 -5.27,-0.7 -10.48,-1.5 -15.57,-2.5 -6.2,-1.3 -12.2399,-2.8 -18.1399,-4.5 -10.72,-3.2 -20.94,-7.1 -30.72,-11.5 -3.9899,5.1 -6.7799,10.7 -8.5699,16.8 -2.28,7.7 -3.13,16 -2.88,24.8 0.17,1.9 -1.27,3.6 -3.2,3.8 -1.92,0.2 -3.62,-1.3 -3.78,-3.2 -1.34,-9.6 -1.38,-18.9 0.25,-27.7 1.74,-9.4 5.57,-18.1 11.74,-26.2 1.78,-2.2 4.7399,-2.8 7.2699,-1.7 10.76,4.2 22.03,7.5 33.75,10.2 5.6599,1.3 11.4199,2.4 17.2899,3.5 5.72,1.1 11.52,2.1 17.45,2.9 1.9,0.3 3.64,1.2 4.9,2.6 9.0999,11.1 15.3099,20.7 19.1799,29.4 3.85,8.7 5.58,16.4 6,23.5 0.17,1.7 -0.34,3.3 -1.4,4.5 -5.59,5.8 -11.43,10.4 -17.71,13.7 -6.7799,3.5 -13.9099,5.6 -21.5199,6.1 z"
     id="path4682"
     style="stroke:none;stroke-width:0.2" /><path
     d="m 3415.6327,16683.809 c -26.6999,-6.7 -51.8899,-19.4 -73.2998,-37.6 -1.55,-18.6 1.5,-35.6 13.2699,-49.6 21.29,9.3 44.6799,15.4 69.9599,18.7 17.3999,19.9 23.8999,35.2 25.2999,48.4 -10.11,11.6 -21.7899,18.5 -35.2299,20.1 z"
     id="path4684"
     style="stroke:none;stroke-width:0.2" /><path
     d="m 3324.6629,16524.209 c 3.26,-4.1 12.63,-17.2 20.77,-29.1 3.75,-5.4 7.22,-10.6 9.6599,-14.5 0.79,-1.3 2.02,-2.6 2.57,-3.6 0.14,0 0.2,-0.2 0.21,-0.4 0.13,-0.3 0.13,-0.5 -0.08,-0.6 -0.21,-1 -0.8,-2.5 -1.07,-3.8 -0.94,-4.6 -2.4999,-10.5 -4.2199,-16.9 -3.14,-11.6 -6.83,-24.2 -8.9,-31.2 l -46.5699,11.2 c -1.86,0.6 -3.81,-0.5 -4.36,-2.3 -0.55,-1.9 0.51,-3.9 2.36,-4.4 l 51.0999,-18 c 3.22,-1 6.62,0.7 7.72,3.9 0,0 9.5299,24.4 15.1999,42.7 1.97,6.3 3.41,12 4.04,15.8 0.52,3.1 0.4,5.5 0.12,6.8 -0.27,1.2 -1.03,3.2 -2.44,5.7 -1.9,3.3 -5.14,8.1 -9.08,13.4 -11.1199,14.9 -27.4099,34 -29.5099,35.8 -1.11,0.9 -3.28,2.2 -6.69,1.9 -4.27,-0.3 -12.9799,-2.8 -22.1199,-7.7 -10.59,-5.6 -21.85,-14.2 -27.42,-25.1 -0.96,-1.7 -0.38,-3.9 1.29,-4.8 1.68,-1 3.82,-0.4 4.79,1.3 3.78,5.8 9.7,10.5 15.98,14.2 9.96,6 20.9799,9.2 26.6499,9.7 z m 32.9999,-47.2 c -0.04,0 -0.09,0.1 -0.16,0.1 -0.29,-0.1 0.06,-0.6 0.1,-0.8 0.03,-0.1 -0.04,-0.4 0.11,-0.4 0.03,0 0.06,0 0.08,0.1 0.06,0.2 0.09,0.5 0.08,0.6 -0.05,0.2 -0.12,0.3 -0.21,0.4 z m -33.9799,48.4 c 0,0 -0.01,0 -0.01,0 z"
     id="path4686"
     style="stroke:none;stroke-width:0.2" /><path
     d="m 3278.993,16502.009 c 0.94,-24.2 6.75,-48.1 17.04,-70 l 51.8899,-15.4 c 0,0 18.9899,54.7 17.4899,61.4 -1.5,6.8 -34.4799,49.3 -37.4799,52 -3,2.8 -37.1599,-7.5 -48.9399,-28 z"
     id="path4688"
     style="stroke:none;stroke-width:0.2" /><path
     d="m 3488.0125,16436.609 c 0.59,-0.1 3.24,0.4 7.1,2.1 8.96,3.9 27.9899,13.6 42.5399,21.8 8.25,4.6 15.05,8.8 18.03,11.1 2.5299,2.1 3.3099,4.2 3.5199,5.1 0.46,2.1 -0.18,19.2 -1.43,36.2 -1.2,16.5 -3.0199,32.9 -3.9899,36 -0.55,1.7 -2.74,4.8 -7.68,7 -7.07,3.2 -23.23,7.3 -39.6699,10 -13.54,2.2 -27.25,3.5 -36.0299,3.2 -6.35,-0.3 -10.82,-1.7 -12.82,-3.3 -1.71,-1.3 -4.09,-4.1 -6.52,-8.1 -4.13,-6.9 -9.29,-17.9 -13.76,-29.1 -4.4599,-11.3 -8.2699,-22.8 -9.8799,-30.6 -0.93,-4.4 -1.15,-7.9 -0.74,-10 0.34,-1.7 1.28,-3.9 3.16,-6.3 2.78,-3.7 7.7199,-8.4 13.6899,-13.5 12.81,-10.8 30.26,-23.1 38.5499,-28.4 3.18,-2.1 5.38,-3.1 5.93,-3.2 z m 59.4999,42.3 z m -8.08,65.2 z m -73.1898,9.2 c 0.8,0.1 3.67,0.3 6.08,0.3 6.1499,-0.1 14.3999,-1 23.1299,-2.2 14.42,-2 30.0799,-5 39.6499,-7.8 1.69,-0.5 3.63,-1.2 4.86,-1.7 0.85,-4.4 2.03,-13.5 3.28,-23.5 1.96,-15.5 4.1,-33 4.29,-38.2 -0.79,-0.7 -1.95,-1.6 -3.11,-2.5 -11.71,-8.5 -38.9599,-25.1 -51.2199,-31.7 -1.54,-0.8 -3.06,-2 -4.01,-2.5 -0.06,0.1 -0.15,0.1 -0.25,0.1 -0.55,0.5 -1.31,1.2 -2.12,1.8 -6.41,4.7 -19.6699,15.2 -30.9999,25.5 -5.69,5.1 -10.87,10.2 -14.37,14.3 -1.75,2.1 -3.13,3.6 -3.29,4.8 -0.17,1.1 0.37,2.9 0.99,5.3 1.88,7.2 6.03,17.7 10.68,28 3.93,8.7 8.24,17.2 11.95,23.4 1.8,3 3.25,5.4 4.46,6.6 z m 22.6999,-109.7 c 0.06,0 0.12,-0.1 0.17,-0.1 -0.45,-0.2 -0.76,-0.2 -0.86,0.1 -0.12,0.3 0.35,0.2 0.69,0 z m 0.17,-0.1 c 0.03,0 0.05,0 0.08,0 0.03,0 0.06,0 0.07,0 0.11,0 0.64,0.1 0.52,-0.1 -0.11,-0.2 -0.35,-0.1 -0.67,0.1 z"
     id="path4690"
     style="stroke:none;stroke-width:0.2" /><path
     d="m 3488.6425,16440.109 c 2.75,-0.5 63.9599,33.7 64.7099,37.7 0.75,4 -4.75,62.7 -6.74,68.7 -2,6 -76.2098,19.5 -84.4598,13.3 -8.24,-6.3 -31.4799,-60.6 -29.7299,-70.8 1.75,-10.2 53.4698,-48.4 56.2198,-48.9 z"
     id="path4692"
     style="stroke:none;stroke-width:0.2" /><path
     d="m 3470.2526,16382.209 c -0.44,-1.9 0.72,-3.8 2.61,-4.2 1.88,-0.5 3.7699,0.7 4.2099,2.6 0,0 3.57,6.9 7.59,16.9 0.88,2.2 1.69,4.5 2.45,7 0.49,1.5 0.97,3 1.31,4.6 0.82,4 1.27,8.1 1.65,12.2 0.65,6.9 0.68,13.2 0.95,18.5 0.44,1.9 -0.73,3.7 -2.61,4.2 -1.88,0.4 -3.77,-0.7 -4.21,-2.6 -2.11,-4.8 -4.91,-10.5 -7.42,-17 -1.4599,-3.8 -2.8799,-7.7 -3.9299,-11.6 -0.42,-1.6 -0.68,-3.2 -0.93,-4.8 -0.4,-2.5 -0.7,-4.9 -0.89,-7.2 -0.89,-10.8 -0.78,-18.6 -0.78,-18.6 z"
     id="path4694"
     style="stroke:none;stroke-width:0.2" /><path
     d="m 3402.4727,16369.309 c 1.9,-0.4 3.72,0.9 4.06,2.8 0.33,1.9 -0.94,3.7 -2.85,4.1 0,0 -5.27,2.2 -12.8799,7.2 -2.47,1.6 -5.04,3.5 -7.9,5.6 -2.01,1.6 -4.04,3.3 -6.25,5 -2,1.5 -4.13,3.1 -6.27,4.8 -3.33,2.7 -6.78,5.5 -10.14,8.9 -3.12,3.2 -6.2699,6.4 -9.1899,10.5 -0.88,1.7 -2.99,2.4 -4.71,1.5 -1.73,-0.9 -2.42,-3 -1.55,-4.7 2.67,-8.2 6.04,-15 10.1899,-21 3.24,-4.6 6.87,-8.5 10.69,-11.7 1.68,-1.4 3.47,-2.6 5.23,-3.7 2.9,-1.7 5.73,-3.1 8.5,-4.3 3.24,-1.3 6.21,-2.2 8.99,-2.9 8.5699,-2.1 14.0799,-2.1 14.0799,-2.1 z"
     id="path4696"
     style="stroke:none;stroke-width:0.2" /><path
     d="m 3364.7728,16481.209 c -1.9,-0.3 -3.13,-2.2 -2.76,-4.1 0.37,-1.9 2.22,-3.1 4.12,-2.7 0,0 8.9,-0.2 20.68,0.4 2.63,0.2 5.35,0.4 8.1599,0.8 1.78,0.2 3.59,0.4 5.37,0.8 4.54,1 8.96,2.4 13.12,3.7 8.98,2.8 16.13,5.7 19.3,6.7 1.92,0.2 3.2799,2 3.0399,3.9 -0.23,1.9 -1.9899,3.3 -3.9099,3 -3.38,0.2 -11.29,0.4 -20.92,-0.2 -4.37,-0.3 -9.01,-0.6 -13.62,-1.4 -1.81,-0.3 -3.5799,-0.7 -5.3199,-1.2 -2.74,-0.7 -5.37,-1.5 -7.88,-2.3 -11.2,-3.8 -19.38,-7.4 -19.38,-7.4 z"
     id="path4698"
     style="stroke:none;stroke-width:0.2" /><path
     d="m 3322.5429,16531.209 c -0.41,-1.9 0.79,-3.8 2.68,-4.2 1.89,-0.4 3.76,0.8 4.17,2.7 0,0 3.76,8.1 8.66,19.2 1.75,3.9 3.7,8.1 5.43,12.6 1.36,3.4 2.46,7.1 3.7,10.6 1.3,3.6 2.42,7.1 3.84,10.3 2.03,4.6 3.8899,8.6 6.6199,11.3 1.57,1.1 1.94,3.3 0.82,4.9 -1.12,1.6 -3.31,2 -4.8899,0.8 -6.04,-3 -11.94,-9.3 -17.21,-17.2 -2.78,-4.2 -5.3,-8.8 -7.29,-13.7 -0.78,-1.9 -1.38,-3.8 -1.93,-5.8 -0.86,-3 -1.59,-6 -2.11,-8.9 -2.32,-12.8 -2.49,-22.6 -2.49,-22.6 z"
     id="path4700"
     style="stroke:none;stroke-width:0.2" /><path
     d="m 3459.4126,16558.609 c 0.79,-1.8 2.87,-2.5 4.63,-1.8 1.77,0.8 2.56,2.9 1.77,4.7 0,0 -1.76,8.5 -6.21,19.9 -0.97,2.4 -2.14,4.9 -3.46,7.5 -0.83,1.6 -1.71,3.3 -2.76,4.8 -2.57,3.9 -5.6,7.5 -8.87,10.9 -5.28,5.4 -10.9399,9.9 -16.6799,13.4 -1.47,1.2 -3.68,1.1 -4.94,-0.4 -1.25,-1.5 -1.07,-3.7 0.4,-5 3.89,-4.5 6.91,-10.3 10.3,-16.2 2.1299,-3.8 4.0499,-7.6 6.2999,-11.2 2.42,-3.9 5.08,-7.4 7.48,-10.7 6.89,-9.4 12.04,-15.9 12.04,-15.9 z"
     id="path4702"
     style="stroke:none;stroke-width:0.2" /><path
     d="m 3451.0926,16667.209 c -1.93,0.1 -3.6,-1.4 -3.72,-3.3 -0.13,-1.9 1.33,-3.6 3.26,-3.7 0,0 10.92,-2.7 25.5099,-5.4 3.27,-0.6 6.69,-1.2 10.23,-1.6 2.25,-0.4 4.53,-0.7 6.83,-0.8 5.81,-0.4 11.66,-0.4 17.19,-0.5 10.9199,0 20.2999,0.4 25.6199,0 1.89,-0.4 3.76,0.8 4.17,2.7 0.4,1.9 -0.8,3.7 -2.69,4.1 -5.23,1.9 -14.61,4.6 -25.7099,6.8 -5.49,1.1 -11.32,2.2 -17.18,2.8 -2.32,0.3 -4.64,0.3 -6.93,0.4 -3.6,0.1 -7.08,0.1 -10.43,0.1 -14.8999,-0.5 -26.1499,-1.6 -26.1499,-1.6 z"
     id="path4704"
     style="stroke:none;stroke-width:0.2" /><path
     d="m 3543.3224,16548.309 c -0.84,-1.7 -0.11,-3.8 1.63,-4.7 1.74,-0.8 3.84,-0.1 4.68,1.6 0,0 4.5,5 9.8399,12.6 1.17,1.6 2.27,3.4 3.36,5.3 0.68,1.1 1.37,2.4 1.91,3.7 1.37,3.2 2.37,6.6 3.23,9.9 1.63,6.3 2.42,11.8 2.99,15.9 0.67,1.8 -0.27,3.8 -2.09,4.5 -1.81,0.6 -3.83,-0.3 -4.49,-2.1 -2.12,-3.4 -5.5,-7.6 -8.8999,-12.7 -1.84,-2.9 -3.72,-5.8 -5.27,-8.9 -0.61,-1.2 -1.08,-2.5 -1.54,-3.8 -0.73,-2 -1.36,-4 -1.88,-5.9 -2.4,-8.9 -3.47,-15.4 -3.47,-15.4 z"
     id="path4706"
     style="stroke:none;stroke-width:0.2" /><path
     d="m 3554.9924,16480.809 c -1.7,0.9 -3.83,0.3 -4.75,-1.4 -0.91,-1.7 -0.27,-3.8 1.43,-4.8 0,0 3.55,-4 9.1999,-8.9 1.23,-1.1 2.54,-2.1 3.97,-3 0.89,-0.7 1.81,-1.3 2.8,-1.8 2.58,-1.2 5.25,-2.1 7.79,-2.8 7.1,-2.2 12.44,-3 12.44,-3 1.7,-0.9 3.83,-0.2 4.75,1.5 0.92,1.7 0.28,3.8 -1.42,4.7 0,0 -3.6,4 -9.29,8.8 -2.03,1.7 -4.22,3.4 -6.69,4.9 -0.95,0.6 -1.97,1 -2.98,1.4 -1.61,0.7 -3.16,1.2 -4.73,1.6 -7.18,2.1 -12.5199,2.8 -12.5199,2.8 z"
     id="path4708"
     style="stroke:none;stroke-width:0.2" /><path
     d="m 3499.3425,16425.909 c -1.81,0.6 -3.83,-0.3 -4.5,-2.1 -0.66,-1.8 0.27,-3.8 2.08,-4.5 0,0 45.6299,-18.9 104.6097,-41.9 13.46,-5.2 27.63,-10.6 42.1199,-16 9.31,-3.4 18.73,-6.9 28.23,-10.3 24.1299,-8.4 48.4898,-16.5 71.2298,-23.8 50.3099,-16.3 92.7898,-28.6 108.5597,-31.7 1.89,-0.4 3.77,0.8 4.19,2.7 0.43,1.9 -0.76,3.8 -2.65,4.2 -10.72,2.8 -33.8299,11 -63.4498,22 -18.98,7 -40.5499,15.1 -63.2399,23.6 -13.7799,5.1 -27.9499,10.4 -42.2199,15.6 -14.1999,5.1 -28.4899,10 -42.4799,14.9 -19.9299,6.8 -39.2399,13.3 -56.8798,19.1 -49.4299,16.5 -85.5998,28.2 -85.5998,28.2 z"
     id="path4710"
     style="stroke:none;stroke-width:0.2" /><path
     d="m 3537.9424,16325.509 c -1.82,0.7 -3.83,-0.2 -4.49,-2.1 -0.65,-1.8 0.29,-3.8 2.11,-4.5 0,0 48.7199,-19.7 111.6197,-43.4 14.37,-5.4 29.5,-11 44.9599,-16.5 9.94,-3.6 20,-7.2 30.1299,-10.7 25.8,-8.7 51.8099,-17 76.0498,-24.4 55.3599,-17 101.6498,-29.3 116.5898,-30.5 1.92,-0.2 3.65,1.2 3.85,3.1 0.2,2 -1.2,3.7 -3.12,3.9 -6.78,0.9 -20.05,4.8 -37.7699,10.5 -26.49,8.5 -62.6099,21.4 -101.5398,35.3 -11.09,4 -22.3999,8 -33.8099,12 -11.28,4 -22.64,7.9 -33.9199,11.7 -11.49,3.9 -22.9,7.7 -34.0399,11.4 -17.99,5.9 -35.29,11.5 -51.1799,16.7 -49.6799,16.1 -85.4398,27.5 -85.4398,27.5 z"
     id="path4712"
     style="stroke:none;stroke-width:0.2" /><path
     d="m 3568.7723,16488.909 c -1.84,0.6 -3.82,-0.4 -4.43,-2.2 -0.6,-1.8 0.39,-3.8 2.23,-4.4 0,0 53.4999,-19.8 122.5097,-43.5 15.76,-5.4 32.3399,-11 49.2899,-16.5 10.89,-3.6 21.9199,-7.2 33.0099,-10.6 28.2299,-8.7 56.6799,-17 83.2098,-24.3 59.8199,-16.7 109.9997,-28.8 127.1297,-30.1 1.93,-0.2 3.65,1.3 3.84,3.2 0.18,1.9 -1.22,3.6 -3.15,3.8 -7.74,1 -22.25,4.8 -41.3999,10.4 -29.1299,8.4 -68.7098,21.2 -111.3097,35.1 -12.15,3.9 -24.56,7.9 -37.0499,11.9 -12.36,3.9 -24.81,7.8 -37.1599,11.7 -12.58,3.8 -25.07,7.6 -37.26,11.3 -19.6999,5.9 -38.6199,11.6 -55.9998,16.7 -54.3599,16.1 -93.4598,27.5 -93.4598,27.5 z"
     id="path4714"
     style="stroke:none;stroke-width:0.2" /><path
     d="m 3645.5021,16520.109 c -1.89,0.4 -3.76,-0.7 -4.18,-2.6 -0.43,-1.9 0.76,-3.8 2.65,-4.2 0,0 30.27,-8.8 69.7399,-18.9 8.9499,-2.4 18.3899,-4.7 28.0499,-6.9 6.19,-1.5 12.47,-2.9 18.7899,-4.2 16,-3.3 32.16,-6.2 47.3699,-8.7 31.0699,-5.3 58.0899,-8.9 71.7998,-10.1 1.92,-0.3 3.69,1.1 3.95,3 0.26,1.9 -1.08,3.7 -3,3.9 -13.4399,2.5 -39.6299,9.2 -70.0098,16.5 -14.9499,3.7 -30.8799,7.5 -46.7799,11 -6.2999,1.4 -12.6099,2.6 -18.8399,3.8 -9.73,1.9 -19.26,3.7 -28.3599,5.3 -40.0799,7.2 -71.1799,12.1 -71.1799,12.1 z"
     id="path4716"
     style="stroke:none;stroke-width:0.2" /><path
     d="m 3725.0719,16569.309 c 1.86,-0.5 3.8,0.6 4.32,2.5 0.52,1.8 -0.57,3.8 -2.44,4.3 0,0 -14.6399,6.1 -34.5599,13.7 -4.41,1.6 -9.08,3.3 -13.92,5 -3.0599,1.1 -6.1699,2.2 -9.3499,3.1 -7.86,2.3 -15.95,4.4 -23.78,6.4 -13.4999,3.5 -26.1199,6.4 -35.6599,9.4 -1.78,0.8 -3.84,-0.1 -4.58,-1.8 -0.75,-1.8 0.09,-3.9 1.88,-4.6 9.01,-4.8 20.91,-10.6 34.0499,-15.9 7.57,-3.1 15.44,-6.2 23.32,-8.8 3.18,-1 6.39,-1.9 9.55,-2.7 4.9799,-1.3 9.8399,-2.5 14.4799,-3.6 20.92,-4.6 36.6899,-7 36.6899,-7 z"
     id="path4718"
     style="stroke:none;stroke-width:0.2" /></g>&#10;</svg>
