<?xml version="1.0" encoding="UTF-8" standalone="no"?>
<svg
   width="3672.0535"
   height="3261.5803"
   viewBox="0 0 3672.0535 3261.5803"
   version="1.1"
   xml:space="preserve"
   style="clip-rule:evenodd;fill-rule:evenodd;stroke-linejoin:round;stroke-miterlimit:2"
   id="svg5353"
   xmlns="http://www.w3.org/2000/svg"
   xmlns:svg="http://www.w3.org/2000/svg"><defs
   id="defs5353" />&#10;    <g
   id="vectorly-UNI-air-balloon"
   style="stroke:none;stroke-width:0.2"
   transform="matrix(4.9999999,0,0,4.9999999,-4052.4129,-0.25253902)"><path
     d="m 1050.3886,273.29097 c -1,-1.66 -0.46,-3.814 1.2,-4.809 1.66,-0.995 3.81,-0.456 4.8099,1.204 2.28,1.298 3.96,1.59 6.12,3.051 1.12,0.755 2.22,1.435 3.04,2.508 0.61,0.801 0.82,1.75 1.18,2.691 0.27,0.716 0.35,1.299 0.54,2.041 0.54,2.08599 0.6,3.45499 1.16,5.54199 1.35,1.392 1.31,3.613 -0.09,4.956 -1.39,1.343 -3.61,1.302 -4.95,-0.09 -2.66,-0.86 -4.42,-1.368 -6.88,-2.688 -1.4099,-0.76 -2.6299,-1.59 -3.6999,-2.788 -0.41,-0.454 -0.68,-1.005 -0.92,-1.56 -0.4,-0.896 -0.72,-1.688 -0.91,-2.651 -0.54,-2.78599 -0.53,-4.55999 -0.6,-7.40699 z m 9.6899,-177.02993 c 1.64,-1.023999 3.8,-0.521999 4.82,1.12 1.03,1.640999 0.53,3.805 -1.12,4.828 -4.1,3.039 -7.5,10.26599 -10.6499,19.94999 -1.72,5.258 -3.15,11.216 -4.49,17.72099 -1.17,5.692 -2.12,11.77 -2.99,18.135 -0.8,5.88799 -1.42,12.01099 -1.99,18.27399 -0.56,6.014 -1.1,12.13999 -1.37,18.34799 -0.39,9.177 -0.41,18.44099 0.34,27.64599 0.77,9.35499 2.08,18.53899 4.47,27.38399 0.64,1.825 -0.32,3.828 -2.15,4.47 -1.82,0.642 -3.82,-0.317 -4.47,-2.142 -6.4,-14.806 -10.43,-31.03699 -12.1,-47.48998 -1.13,-11.065 -1.24,-22.16599 -0.34,-32.79299 0.38,-4.441 1.04,-8.786 1.81,-13.009 1.23,-6.75299 2.78,-13.18599 4.61,-19.17499 3.32,-10.85599 7.34,-20.22099 11.58,-27.48099 4.66,-7.96999 9.51,-13.451991 14.0399,-15.78599 z"
     id="path48"
     style="stroke:none;stroke-width:0.2" /><path
     d="m 1198.3782,524.59786 c -9.79,0.195 -18.55,-1.61499 -26.0899,-5.86999 -7.3,-4.11 -13.47,-10.528 -18.3,-19.81399 -62.0998,-119.68296 -113.2297,-156.09794 -141.5096,-200.86992 -10.84,-17.166 -18.43,-35.51499 -22.21999,-59.75698 -10.30697,-66.58297 8.36998,-130.10594 50.17989,-174.766926 38.7399,-41.384983 97.3797,-66.6229729 171.2896,-63.15197432 73.8298,3.88099842 127.9796,37.47598432 159.0196,83.08896632 35.4299,52.067974 40.7999,119.831954 11.0999,177.091924 -29.3499,56.38798 -86.4897,128.28695 -118.9097,183.78293 -10.7699,18.43699 -18.8099,34.98898 -21.9399,48.49398 -2.23,9.57099 -5.72,18.87399 -14.82,24.95799 -6.11,4.092 -14.8599,6.79699 -27.7999,6.81399 z m -0.08,-7.00899 c 11.03,-0.216 18.51,-2.418 23.6599,-6 7.23,-5.034 9.59,-12.75899 11.24,-20.50199 3.05,-14.191 11.04,-31.70799 22,-51.19098 31.3899,-55.82898 87.2697,-128.32795 115.6297,-184.97692 26.6999,-53.13998 20.9799,-115.47196 -12.16,-163.150938 -29.1199,-41.882983 -79.4398,-72.36997 -147.7196,-75.468969 -68.6199,-3.497998 -123.1697,19.508992 -159.4396,57.665977 -39.2699,41.30698 -57.1299,100.24796 -48.2399,162.38393 3.16,22.33699 9.91,39.29699 19.6199,55.23798 27.61,45.30598 78.0698,82.74997 138.1997,203.72292 3.89,7.84899 8.89,13.37699 14.93,16.93299 6.3999,3.767 13.8999,5.354 22.2799,5.346 z"
     id="path50"
     style="stroke:none;stroke-width:0.2" /><path
     d="m 1152.1383,488.45188 c -1.88,0.462 -3.78,-0.687 -4.24,-2.565 -0.46,-1.878 0.69,-3.779 2.56,-4.242 8.73,-3.407 17.26,-6.361 26.2,-8.32199 3.6399,-0.799 7.2999,-1.333 10.9899,-1.715 2.47,-0.256 4.94,-0.447 7.42,-0.423 6.22,0.063 12.39,0.801 18.51,2.053 8.9899,1.839 17.5999,4.82999 26.3199,8.67799 1.85,0.556 2.91,2.511 2.35,4.364 -0.56,1.853 -2.51,2.906 -4.36,2.351 -8.76,-1.476 -17.21,-1.747 -25.7699,-1.81 -4.77,-0.035 -9.46,0.197 -14.2,0.3 -3.15,0.068 -6.3,0.06 -9.45,0.071 -4.79,0.017 -9.53,-0.014 -14.3499,0.113 -7.33,0.194 -14.53,0.354 -21.98,1.147 z"
     id="path52"
     style="stroke:none;stroke-width:0.2" /><path
     d="m 1168.9383,513.24187 c -1.65,1.007 -3.81,0.482 -4.81,-1.17 -1.01,-1.652 -0.48,-3.811 1.17,-4.817 5.93,-5.207 11.8499,-9.03599 18.2799,-11.70399 2.84,-1.178 5.76,-1.907 8.7,-2.459 2,-0.375 4.02,-0.623 6.04,-0.616 5.01,0.018 9.97,0.889 14.8,2.566 6.6099,2.293 12.7199,5.80299 18.8799,10.47499 1.71,0.9 2.38,3.021 1.47,4.733 -0.89,1.713 -3.02,2.372 -4.73,1.473 -4.25,-1.356 -8.29,-2.051 -12.3899,-2.706 -4.08,-0.651 -7.98,-0.718 -11.93,-0.744 -2.31,-0.016 -4.58,0.126 -6.88,0.215 -2.29,0.089 -4.57,0.095 -6.89,0.302 -2.82,0.252 -5.61,0.462 -8.52,1.015 -4.34,0.828 -8.6399,1.71 -13.1899,3.437 z"
     id="path54"
     style="stroke:none;stroke-width:0.2" /><path
     d="m 1230.3681,508.61987 c -5.31,7.187 -14.5599,12.291 -32.0299,12.473 -12.34,0.129 -22.9199,-3.029 -31.2199,-10.844 21.0799,-12.84099 42.1699,-12.70799 63.2498,-1.629 z"
     id="path56"
     style="stroke:none;stroke-width:0.2" /><path
     d="m 1166.9983,514.25087 c -0.76,-1.778 0.06,-3.84 1.84,-4.6 1.78,-0.76 3.84,0.067 4.6,1.846 0,0 4.3499,5.389 9.1499,13.74699 1.05,1.822 2,3.773 2.92,5.86 0.58,1.312 1.15,2.658 1.56,4.071 1.03,3.549 1.65,7.228 2.02,10.852 0.67,6.53999 0.5,12.39799 -0.28,17.19199 0.08,1.932 -1.42,3.571 -3.35,3.656 -1.93,0.085 -3.57,-1.415 -3.66,-3.347 -0.92,-3.522 -2.84,-7.269 -4.8399,-11.66 -0.88,-1.923 -1.8,-3.80399 -2.67,-5.82399 -0.85,-1.965 -1.78,-3.898 -2.42,-5.926 -1.11,-3.442 -1.81,-6.878 -2.44,-10.064 -1.81,-9.15699 -2.43,-15.80299 -2.43,-15.80299 z"
     id="path58"
     style="stroke:none;stroke-width:0.2" /><path
     d="m 1238.2081,585.71184 c 0.63,0.562 1.48,2.157 2.14,4.691 1.43,5.584 2.79,17.75399 3.13,28.82599 0.21,6.98399 -0.09,13.50499 -0.86,17.79999 -0.52,2.873 -1.51,4.968 -2.4,6.275 -1.23,1.761 -4.33,3.78299 -9.09,5.20599 -6.34,1.896 -16.6199,3.285 -26.9799,3.719 -10.39,0.436 -20.84,-0.172 -27.4899,-1.693 -4.63,-1.059 -7.87,-2.902 -9.6,-4.60899 -1.98,-2.003 -4,-5.55 -5.3,-10.32 -1.45,-5.316 -2.33,-12.423 -2.49,-19.53399 -0.16,-7.101 0.33,-14.191 1.45,-19.47099 1.05,-4.93 2.74,-8.597 4.57,-10.445 1.37,-1.383 4.07,-3.048 8.16,-3.89 5.2499,-1.081 13.5199,-1.592 22.4399,-1.523 13.96,0.108 29.4299,1.377 36.5399,2.758 3.25,0.632 5.24,1.599 5.78,2.21 z m -60.1399,48.51398 c 0.1,0.102 0.21,0.295 0.29,0.376 -0.11,-0.107 -0.2,-0.233 -0.29,-0.376 -0.07,-0.069 -0.14,-0.097 -0.19,-0.021 -0.67,1.005 2.86,0.977 5.12,1.393 5.66,1.041 13.3,1.582 20.94,1.693 7.76,0.112 15.5099,-0.127 21.1999,-0.972 1.72,-0.255 3.96,-0.262 5.07,-0.539 0.21,-0.507 0.79,-1.962 1.05,-3.156 0.81,-3.614 1.4,-8.46 1.78,-13.61899 0.64,-8.75 0.78,-18.285 0.35,-24.31599 -0.1,-1.423 0.04,-3.114 -0.09,-3.976 -0.95,-0.121 -2.8,0.091 -4.4,0.016 -6.26,-0.289 -16.1599,-0.071 -26.0699,0.572 -8.18,0.531 -16.31,1.395 -22.3,2.58 -2.75,0.545 -6.7499,0.724 -5.9999,1.819 0.17,0.247 0.47,-0.314 0.62,-0.492 0.05,-0.06 0.18,-0.176 0.18,-0.176 0,0 -0.62,2.29399 -0.87,3.99799 -0.63,4.461 -0.56,10.385 -0.1,16.295 0.44,5.802 1.37,11.57199 2.68,15.88499 0.3699,1.23 0.5999,2.324 1.0299,3.016 z m 52.0899,1.67 c -0.01,0.039 -0.03,0.068 -0.03,0.068 0,0 0.01,-0.024 0.03,-0.068 z m 3.14,-45.18598 c -0.07,-0.417 -0.21,-0.638 -0.47,-0.538 -0.25,0.098 0.32,0.373 0.43,0.497 0.01,0.01 0.02,0.024 0.04,0.041 z m 0,0.004 c 0.17,0.202 0.51,0.798 0.61,0.474 0.09,-0.28 -0.16,-0.416 -0.61,-0.474 z m -3.08,45.06298 c 0.55,-0.139 0.81,-0.345 0.59,-0.683 -0.18,-0.264 -0.39,0.444 -0.56,0.636 -0.01,0.012 -0.02,0.029 -0.03,0.047 z"
     id="path60"
     style="stroke:none;stroke-width:0.2" /><path
     d="m 1186.2282,587.00584 c 0.13,1.93 -1.33,3.606 -3.26,3.741 -1.93,0.135 -3.6,-1.322 -3.74,-3.251 0,0 -2.2299,-10.615 -1.79,-19.26199 0.21,-4.245 1.59,-7.849 3.13,-10.381 1.47,-2.274 4.36,-4.174 8.27,-5.518 4.02,-1.386 9.58,-2.06 15.11,-1.712 4.42,0.277 8.78,1.233 12.3,2.463 4.6299,1.618 8.0799,3.704 9.5999,5.783 1.69,2.404 3.12,6.027 3.05,10.391 -0.13,7.86999 -3.05,17.69899 -3.05,17.69899 -0.31,1.908 -2.12,3.203 -4.03,2.888 -1.9,-0.315 -3.2,-2.12 -2.88,-4.029 0,0 0,-5.542 -0.73,-11.214 -0.36,-2.81099 -0.64,-8.32299 -2.2399,-7.13899 -0.06,0.045 -0.04,0.169 0.01,0.216 0.08,0.072 0.15,0.315 0.15,0.315 0,0 -0.38,-0.053 -0.59,-0.129 -0.56,-0.199 -1.21,-0.254 -1.91,-0.408 -2.1,-0.461 -4.65,-0.595 -7.32,-0.767 -1.89,-0.122 -3.83,-0.178 -5.73,-0.207 -1.91,-0.03 -3.76,-0.09 -5.45,0.054 -1.09,0.092 -2.09,0.119 -2.96,0.341 -0.31,0.08 -0.87,0.115 -0.87,0.115 0,0 0.17,-0.386 0.3,-0.523 -1.25,1.255 -2.16,3.554 -2.83,6.097 -1.78,6.85299 -2.54,14.43699 -2.54,14.43699 z"
     id="path62"
     style="stroke:none;stroke-width:0.2" /><path
     d="m 1224.3281,510.76887 c 0.51,-1.866 2.44,-2.964 4.31,-2.451 1.86,0.512 2.96,2.443 2.45,4.308 0,0 0.34,6.425 -0.18,15.50899 -0.18,3.137 -0.41,6.528 -1.04,9.985 -0.37,2.03 -1.03,4.003 -1.61,6.001 -0.59,2.047 -1.27,3.968 -1.9,5.93399 -1.42,4.435 -2.86,8.262 -3.5,11.862 0.08,1.933 -1.42,3.571 -3.35,3.657 -1.93,0.086 -3.5699,-1.414 -3.6599,-3.346 -1.22,-4.644 -2.08,-10.163 -2.25,-16.38899 -0.1,-3.536 0.02,-7.133 0.55,-10.65 0.22,-1.408 0.6,-2.769 0.99,-4.098 0.63,-2.12 1.3,-4.107 2.08,-5.984 3.6099,-8.66699 7.1099,-14.33799 7.1099,-14.33799 z"
     id="path64"
     style="stroke:none;stroke-width:0.2" /><path
     d="m 1245.6581,471.27489 c -1.93,-0.022 -3.48,-1.611 -3.46,-3.545 0.02,-1.934 1.61,-3.487 3.54,-3.465 0,0 7.24,-0.204 14.7899,3.334 2.31,1.087 4.62,2.547 6.77,4.457 18.75,-31.46099 47.6799,-35.64599 69.2699,-25.38499 10.8099,5.13499 19.9399,14.14799 25.2699,25.49299 5.09,10.83399 6.75,23.84799 3.32,37.64698 11.94,-2.51 24.0699,-1.736 33.9999,2.581 14.71,6.393 25.1199,19.94399 22.5399,41.52598 -0.14,1.929 -1.83,3.377 -3.7599,3.232 -1.93,-0.146 -3.37,-1.83 -3.23,-3.759 0.53,-16.76299 -7.81,-26.77899 -19.51,-30.79798 -11.58,-3.977 -26.2099,-2.027 -38.5599,4.81899 -2.71,1.374 -5.98,0.876 -8.16,-1.24 -2.17,-2.116 -2.76,-5.37899 -1.45,-8.11799 6.57,-14.527 5.55,-28.17199 0.35,-39.03799 -3.88,-8.11899 -10.0999,-14.69799 -17.6799,-18.75399 -17.38,-9.31 -40.8599,-5.187 -57.2699,22.44499 -0.83,1.523 -2.42,2.479 -4.15,2.501 -1.74,0.022 -3.35,-0.893 -4.22,-2.394 -1.91,-3.682 -4.62,-6.207 -7.4199,-7.86899 -5.47,-3.245 -10.98,-3.67 -10.98,-3.67 z"
     id="path66"
     style="stroke:none;stroke-width:0.2" /><path
     d="m 1365.9278,457.03589 c -1.93,-0.091 -3.43,-1.734 -3.33,-3.667 0.09,-1.932 1.73,-3.42699 3.66,-3.33599 0,0 15.2199,-0.795 37.0799,-1.893 7.57,-0.379 15.8799,-0.801 24.6599,-1.122 5.99,-0.218 12.17,-0.42 18.45,-0.486 6.11,-0.066 12.28,0.034 18.4299,0.072 9.43,0.058 18.74,0.141 27.64,-0.019 9.9399,-0.178 19.2399,-0.474 27.5099,-1.314 1.9,-0.342 3.73,0.926 4.07,2.83 0.34,1.903 -0.93,3.72699 -2.83,4.06999 -13.24,3.372 -29.3899,6.292 -46.4399,8.144 -10.29,1.118 -20.8499,1.939 -31.1799,2.232 -4.21,0.12 -8.39,0.048 -12.48,-0.045 -6.48,-0.148 -12.7499,-0.416 -18.6899,-0.815 -26.87,-1.804 -46.5499,-4.651 -46.5499,-4.651 z"
     id="path68"
     style="stroke:none;stroke-width:0.2" /><path
     d="m 1297.258,385.04092 c -1.92,-0.201 -3.32,-1.927 -3.12,-3.851 0.2,-1.924 1.93,-3.322 3.85,-3.121 11.7699,0.578 21.6199,3.811 29.7399,9.347 5.8,3.946 10.62,9.145 14.5599,15.52999 4.09,-4.71599 8.49,-8.87899 13.13,-12.47599 7.98,-6.195 16.62,-10.745 25.3599,-13.54099 13.44,-4.305 27.11,-4.657 38.8899,-1.318 27.45,7.78099 46.5599,34.89498 30.78,79.88496 -0.56,1.852 -2.52,2.903 -4.37,2.345 -1.85,-0.558 -2.9,-2.515 -2.34,-4.367 9.46,-37.37198 -5.16,-58.49597 -27.6899,-63.44297 -9.37,-2.058 -19.88,-1.243 -30.43,2.097 -7.2299,2.288 -14.4899,5.67 -21.3499,10.41699 -6.36,4.4 -12.49,9.757 -17.88,16.381 -1.44,1.906 -3.81,2.872 -6.17,2.519 -2.3699,-0.353 -4.3499,-1.969 -5.1699,-4.213 -2.83,-9.101 -7.23,-16.36099 -13.51,-21.66799 -6.37,-5.386 -14.4,-8.934 -24.2799,-10.523 z"
     id="path70"
     style="stroke:none;stroke-width:0.2" /><path
     d="m 1475.5375,403.85491 c -1.5,1.219 -3.71,0.99 -4.93,-0.512 -1.22,-1.50199 -0.99,-3.71099 0.51,-4.92999 8.54,-8.691 19.02,-14.261 29.5199,-16.471 4.96,-1.042 9.89,-1.082 14.57,-0.473 3.45,0.449 6.77,1.357 9.82,2.747 5.99,2.735 11.12,7.046 14.62,12.886 2.7599,4.619 4.7399,10.08699 5.1499,16.57599 0.42,6.757 -0.5,14.46899 -3.52,23.33599 -0.41,1.89 -2.2799,3.089 -4.1699,2.675 -1.89,-0.414 -3.09,-2.284 -2.68,-4.174 1.02,-9.55799 -0.18,-17.11099 -2.54,-23.18899 -1.06,-2.717 -2.57,-4.931 -4.17,-6.939 -2.45,-3.072 -5.67,-5.03299 -9.16,-6.54699 -3.01,-1.308 -6.25,-2.269 -9.73,-2.657 -3.54,-0.394 -7.22,-0.505 -11.0099,-0.027 -7.51,0.948 -15.22,3.213 -22.28,7.69899 z"
     id="path72"
     style="stroke:none;stroke-width:0.2" /><path
     d="m 1519.2474,392.12392 c -1.3,1.427 -3.52,1.525 -4.95,0.219 -1.43,-1.307 -1.52,-3.525 -0.22,-4.952 10.1,-12.08999 5.38,-27.90999 -6.1,-36.46098 -9.4599,-7.051 -23.6799,-8.708 -38.4899,0.896 -2.59,1.55599 -5.86,1.389 -8.28,-0.423 -2.4199,-1.811 -3.5099,-4.907 -2.7399,-7.832 3.2599,-13.309 3.1799,-24.63999 0.9799,-33.96999 -2.7499,-11.70799 -9.1199,-20.08699 -17.6899,-24.62599 -17.37,-9.20499 -41.8799,-3.418 -58.5199,19.46 -0.84,1.25099 -2.24,2.01399 -3.75,2.04499 -1.5099,0.032 -2.9299,-0.671 -3.8299,-1.885 -2.03,-3.02499 -4.37,-5.71699 -7.55,-7.54499 -2.8,-1.614 -6.17,-2.661 -10.39,-2.797 -1.94,0.026 -3.53,-1.522 -3.55,-3.457 -0.03,-1.934 1.52,-3.526 3.45,-3.553 5.68,-0.34 10.31,0.71 14.26,2.536 2.58,1.197 4.85,2.784 6.8999,4.645 12.01,-16.61399 28.15,-25.23099 43.5799,-26.92699 9.12,-1.003 18.06,0.534 25.98,4.246 12.5499,5.885 22.7199,17.44899 26.6799,34.18798 1.88,7.957 2.25,17.151 0.79,27.47099 15.82,-4.091 29.8199,0.202 39.3899,8.607 14.63,12.84299 19.22,34.98799 4.05,50.11498 z"
     id="path74"
     style="stroke:none;stroke-width:0.2" /><path
     d="m 1275.758,557.15985 c -1.93,0 -3.5,-1.571 -3.5,-3.505 0,-1.935 1.57,-3.505 3.5,-3.505 0,0 12.87,-1.94999 29.6099,-3.50199 3.8,-0.352 7.77,-0.61 11.85,-0.796 2.61,-0.12 5.25,-0.238 7.89,-0.193 6.77,0.117 13.4999,0.631 19.7399,1.165 16.74,1.432 29.61,3.32599 29.61,3.32599 1.94,0 3.51,1.57 3.51,3.505 0,1.934 -1.57,3.505 -3.51,3.505 0,0 -12.87,1.893 -29.61,3.325 -6.24,0.534 -12.9699,1.048 -19.7399,1.165 -2.64,0.046 -5.28,-0.073 -7.89,-0.192 -4.08,-0.187 -8.05,-0.445 -11.85,-0.797 -16.7399,-1.552 -29.6099,-3.501 -29.6099,-3.501 z"
     id="path76"
     style="stroke:none;stroke-width:0.2" /><path
     d="m 1104.4684,567.88685 c 1.94,0.024 3.49,1.614 3.47,3.548 -0.03,1.93499 -1.62,3.48499 -3.55,3.46099 0,0 -12.1899,1.796 -28.0799,3.151 -3.6,0.307 -7.36,0.518 -11.22,0.656 -2.47,0.089 -4.97,0.176 -7.48,0.099 -6.4099,-0.197 -12.7599,-0.79 -18.6699,-1.398 -15.84,-1.632 -27.9899,-3.676 -27.9899,-3.676 -1.93,-0.024 -3.48,-1.61399 -3.46,-3.54799 0.03,-1.935 1.62,-3.485 3.55,-3.461 0,0 12.1999,-1.74 28.0699,-2.975 5.92,-0.461 12.29,-0.894 18.6999,-0.931 2.51,-0.015 5.01,0.135 7.48,0.286 3.85,0.234 7.61,0.539 11.2,0.936 15.85,1.752 27.9799,3.852 27.9799,3.852 z"
     id="path78"
     style="stroke:none;stroke-width:0.2" /><path
     d="m 998.35869,563.21285 c 0.14,1.929 -1.30999,3.609 -3.23999,3.748 -1.92999,0.139 -3.60999,-1.314 -3.74999,-3.243 -1.73,-13.206 5.65999,-26.51299 17.91999,-33.57099 7.2799,-4.193 16.3199,-6.013 26.3399,-4.309 -1.12,-11.17199 2.01,-21.20799 7.98,-29.52098 7.82,-10.899 20.7399,-18.837 34.8299,-22.42999 27.6199,-7.045 59.5498,1.81099 66.3098,32.08798 0.51,1.865 -0.58,3.797 -2.45,4.311 -1.87,0.514 -3.8,-0.583 -4.31,-2.448 -7.7899,-23.62499 -33.8199,-27.39799 -55.5098,-20.18299 -10.5,3.491 -19.93,9.696 -25.89,17.98799 -5.4899,7.651 -7.9699,17.161 -4.3799,28.31599 0.96,2.764 0.14,5.833 -2.06,7.754 -2.21,1.92 -5.36,2.305 -7.97,0.972 -10.3,-5.888 -20.13,-6.116 -27.8799,-2.675 -9.56,4.247 -16.08001,13.35099 -15.94001,23.20299 z"
     id="path80"
     style="stroke:none;stroke-width:0.2" /><path
     d="m 1049.8286,438.0839 c 1.93,-0.061 3.55,1.46 3.61,3.393 0.06,1.934 -1.46,3.553 -3.39,3.614 0,0 -28.55,2.861 -65.10987,5.555 -8.35598,0.61599 -17.11996,1.14999 -26.06094,1.61799 -5.74798,0.301 -11.56397,0.603 -17.38496,0.741 -14.87696,0.352 -29.74692,0.307 -43.51489,0.206 -36.64291,-0.269 -65.32084,-1.268 -65.32084,-1.268 -1.93399,0.061 -3.55299,-1.45999 -3.61399,-3.39299 -0.061,-1.934 1.459,-3.553 3.39299,-3.614 0,0 28.55893,-2.803 65.11184,-5.379 13.73397,-0.968 28.57093,-1.949 43.4409,-2.535 5.81798,-0.229 11.64097,-0.294 17.39695,-0.356 8.95298,-0.096 17.73296,-0.114 26.11194,-0.026 36.65087,0.387 65.33087,1.444 65.33087,1.444 z"
     id="path82"
     style="stroke:none;stroke-width:0.2" /><path
     d="m 902.76993,400.03692 c 1.446,1.285 1.576,3.50199 0.291,4.94799 -1.285,1.446 -3.50199,1.577 -4.94799,0.292 -19.35095,-15.62499 -21.42195,-38.20698 -13.89696,-55.18697 6.13598,-13.845 18.70295,-23.87399 34.14591,-24.96199 -2.36699,-4.31 -4.14199,-8.643 -5.33699,-12.956 -5.05598,-18.24899 -0.61399,-36.01598 10.58498,-49.52398 15.00996,-18.10499 42.48089,-28.89799 74.73881,-22.52499 1.91001,0.293 3.22001,2.084 2.93001,3.996 -0.3,1.912 -2.09001,3.226 -4,2.932 -28.19793,-3.113 -51.13588,7.379 -62.99085,23.85099 -7.56098,10.50699 -10.04697,23.49199 -6.02698,36.87098 2.29299,7.636 6.56898,15.44 13.42396,22.95399 2.521,2.74 2.753,6.879 0.556,9.884 -2.19799,3.005 -6.21398,4.037 -9.58897,2.465 -15.96196,-8.045 -30.61193,-0.3 -37.46991,12.39599 -7.01098,12.98 -6.54198,30.75599 7.58798,44.56499 z"
     id="path84"
     style="stroke:none;stroke-width:0.2" /><path
     d="m 825.16612,440.1769 c 0.778,1.771 -0.028,3.841 -1.79899,4.619 -1.77,0.779 -3.83999,-0.027 -4.61899,-1.798 -5.10999,-8.957 -7.56298,-17.57399 -8.15698,-25.65899 -0.316,-4.291 0.082,-8.376 0.88,-12.281 1.16699,-5.70499 3.53499,-10.88199 6.67898,-15.47699 2.13699,-3.126 4.70799,-5.959 7.66898,-8.365 5.24199,-4.26099 11.59197,-7.39199 18.61895,-9.05899 5.81799,-1.38 12.05998,-1.889 18.57796,-1.194 8.26398,0.88 16.82996,3.373 25.41094,7.93599 1.78999,0.736 2.64499,2.786 1.90899,4.575 -0.736,1.789 -2.78599,2.644 -4.57499,1.908 -9.68997,-2.932 -18.84995,-3.256 -27.17393,-1.991 -3.52999,0.537 -6.81598,1.522 -9.96098,2.673 -4.79298,1.753 -8.93797,4.382 -12.59296,7.454 -3.047,2.562 -5.76699,5.421 -7.84498,8.82099 -2.066,3.38 -3.752,7.061 -4.65799,11.235 -1.683,7.759 -1.585,16.62399 1.63599,26.60299 z"
     id="path86"
     style="stroke:none;stroke-width:0.2" /></g>&#10;</svg>
