<?xml version="1.0" encoding="UTF-8" standalone="no"?>
<svg
   width="3001.7622"
   height="3090.6577"
   viewBox="0 0 3001.7622 3090.6577"
   version="1.1"
   xml:space="preserve"
   style="clip-rule:evenodd;fill-rule:evenodd;stroke-linejoin:round;stroke-miterlimit:2"
   id="svg5353"
   xmlns="http://www.w3.org/2000/svg"
   xmlns:svg="http://www.w3.org/2000/svg"><defs
   id="defs5353" />&#10;    <g
   id="vectorly-UNI-stethoscope-doctor-health"
   transform="matrix(4.9999999,0,0,4.9999999,-20466.105,-80689.958)"
   style="stroke-width:0.2"><path
     d="m 4227.6507,16164.809 c 0.53,-1.9 2.46,-2.9 4.33,-2.4 1.86,0.5 2.95,2.4 2.42,4.3 -1.96,12.1 -11.84,18.9 -22.07,20.5 -7.02,1.1 -14.2299,-0.8 -19.8299,-4.9 -3.84,-2.9 -6.69,-7 -8.45,-12.1 -0.77,-2.7 -1.24,-5.1 -1.27,-7.4 -0.13,-12.3 7.73,-20.6 17.98,-23.1 11.2099,-2.7 24.8099,1.1 29.4999,12.2 0.93,1.7 0.32,3.8 -1.37,4.8 -1.7,0.9 -3.83,0.3 -4.77,-1.4 -4.23,-6 -12.78,-6.1 -19.28,-3.4 -4.8399,2.1 -7.9999,6.8 -5.5099,13.6 0.97,3.8 3.5899,6.4 6.8699,7.6 1.7,0.6 3.46,1.2 5.3,1.2 6.44,0.2 13.27,-2.4 16.15,-9.5 z"
     id="path4720"
     style="stroke:none;stroke-width:0.2" /><path
     d="m 4236.7207,16155.809 c -1.02,1.6 -3.18,2.1 -4.82,1.1 -1.65,-1 -2.15,-3.2 -1.13,-4.8 2.81,-5.2 13.0599,-13.5 25.0099,-14.1 8.49,-0.3 17.73,3.3 26,14.3 4.6299,6.3 9.2599,13.3 13.6799,20.9 4.07,6.9 8.03,14.2 11.62,21.9 4.66,9.9 8.8,20.2 12.45,30.5 4.8699,13.7 8.7699,27.2 11.7199,39.4 4.14,17.2 6.26,31.8 6.07,41.2 0.07,1.9 -1.45,3.5 -3.38,3.6 -1.93,0.1 -3.56,-1.5 -3.63,-3.4 -1.12,-12.8 -8.4899,-35.5 -18.5799,-60.6 -3.48,-8.7 -7.3,-17.6 -11.25,-26.5 -2.58,-5.9 -5.21,-11.7 -7.84,-17.5 -3.37,-7.4 -6.73,-14.6 -10.21,-21.6 -3.7299,-7.4 -7.4299,-14.4 -11.3199,-20.8 -4.54,-7.6 -9.99,-10.9 -15.46,-11.2 -8.49,-0.6 -16.4899,4.1 -18.9299,7.6 z"
     id="path4722"
     style="stroke:none;stroke-width:0.2" /><path
     d="m 4321.7405,16292.409 c 1.8599,-0.5 3.7899,0.6 4.3099,2.4 0.51,1.9 -0.59,3.8 -2.45,4.3 -2.1999,0.7 -3.4699,1.2 -3.8299,2.2 -0.22,0.6 0.22,1.3 0.5,2.1 0.6,1.8 1.61,3.9 2.5899,6.4 7.44,19.3 9.1,49.7 5.24,75.2 -2.12,13.9 -6.0399,26.4 -11.0899,35 -3.98,6.8 -8.95,11.3 -14.15,13.4 -7.29,2.8 -15.35,3.6 -23.7499,2.2 -9.91,-1.6 -20.39,-6 -30.44,-12.9 -18.8099,-13.1 -36.4199,-34.9 -46.8699,-61.8 -0.7999,-2.1 -1.9299,-3.3 -3.3999,-3.8 -2.31,-0.7 -4.9,-0.4 -7.05,-0.1 -1.9,0.4 -3.74,-0.9 -4.11,-2.8 -0.37,-1.9 0.87,-3.7 2.77,-4.1 3.87,-0.9 8.74,-1.5 12.8999,0.3 2.64,1.2 4.98,3.4 6.76,7.1 9.3,19.5 22.73,35.5 37.0699,46.7 9.98,7.8 20.43,13.1 30.34,15.3 7.1299,1.5 13.9399,1.4 19.9199,-1 3.19,-1.3 5.6,-4.8 8.01,-9.4 5.09,-9.6 8.8,-23.4 10.94,-38.2 2.97,-20.6 3.13,-42.8 -1.47,-58.2 -1.85,-6.4 -3.4,-11.1 -1.87,-14.3 1.12,-2.4 3.54,-4.8 9.13,-6 z"
     id="path4724"
     style="stroke:none;stroke-width:0.2" /><path
     d="m 4341.1404,16299.209 c -1.93,0.2 -3.65,-1.2 -3.85,-3.1 -0.2,-1.9 1.2,-3.6 3.13,-3.8 4.51,-0.6 8.77,0.5 12.1,3.9 2.91,3 5.11,8.1 5.58,16.3 0.24,4.6 6.6999,78.6 14.4499,146.9 4.4,38.8 9.07,75.7 13.93,96.7 1.34,6 0.61,13.3 -2.91,19.6 -2.93,5.3 -7.75,10 -14.93,12.8 -8.7999,3.4 -16.5499,4.3 -26.8999,-2.2 -6.28,-4 -13.86,-11.3 -23.7799,-23.9 l -143.2597,-173.1 c -4.62,-5.4 -7.37,-10.3 -8.18,-14.6 -0.88,-4.6 0.19,-8.7 3.62,-12.3 1.32,-1.4 3.54,-1.5 4.96,-0.2 1.42,1.4 1.5,3.6 0.18,5 -1.58,1.8 -2.01,3.8 -1.49,6 0.76,3.2 3.23,6.7 6.93,10.7 3.52,3.8 49.8299,55.6 89.8798,100.9 29.9499,33.9 56.3598,64.3 59.3898,68 8.52,10.5 14.8,16.7 20.13,20 4.93,3 8.6,2.4 12.7699,0.8 3.2,-1.2 5.42,-3.3 6.74,-5.6 1.53,-2.8 1.94,-5.9 1.38,-8.5 -4.5,-21.5 -8.8599,-59.1 -12.1699,-98.7 -5.74,-68.8 -8.77,-143.4 -8.84,-148 -0.06,-4.6 -0.71,-7.9 -1.99,-10.1 -1.59,-2.8 -4.15,-3.7 -6.87,-3.5 z"
     id="path4726"
     style="stroke:none;stroke-width:0.2" /><path
     d="m 4198.5208,16352.809 c 0.84,-1.8 2.9399,-2.5 4.6799,-1.6 1.74,0.8 2.47,2.9 1.62,4.6 0,0 -0.52,3 -2.53,8 -0.64,1.5 -1.5099,3 -2.6099,4.8 -0.93,1.5 -2.11,2.8 -3.47,4.3 -0.83,0.8 -1.75,1.7 -2.8,2.4 -1.85,1.2 -3.93,2.2 -6.26,3 -1.54,0.5 -3.02,0.9 -4.71,1.2 -3.56,0.4 -6.94,0.7 -11.01,0.2 -1.91,0.3 -3.72,-1 -4.05,-2.9 -0.32,-1.9 0.96,-3.7 2.87,-4 3.05,-1.5 5.16,-3.4 7.53,-5.1 0.95,-0.8 1.69,-1.6 2.59,-2.3 1.35,-1 2.44,-2.2 3.72,-3.1 1.95,-1.4 3.9,-2.4 5.58,-3.5 5.49,-3.7 8.85,-6 8.85,-6 z"
     id="path4728"
     style="stroke:none;stroke-width:0.2" /><path
     d="m 4315.1705,16308.309 c -1.8,-0.8 -2.67,-2.8 -1.95,-4.6 0.71,-1.8 2.76,-2.7 4.55,-1.9 0,0 3.31,-0.8 9.3899,-2.1 1.77,-0.4 3.66,-1.1 5.89,-1.4 1.44,-0.2 2.96,-0.1 4.6,-0.2 1.07,0 2.09,0 3.24,0 2.8,-0.2 5.42,-0.1 8.64,-0.6 1.72,-0.9 3.84,-0.3 4.74,1.5 0.89,1.7 0.23,3.8 -1.48,4.7 -2.23,2.3 -4.2,3.9 -6.45,5.5 -1.69,1.3 -3.3,2.1 -5.01,3 -2.02,0.9 -4,1.6 -5.96,1.9 -1.14,0.2 -2.28,0.3 -3.36,0.2 -1.85,0 -3.5,-0.2 -5.05,-0.6 -1.92,-0.5 -3.45,-0.9 -4.8899,-1.6 -4.76,-2.1 -6.9,-3.8 -6.9,-3.8 z"
     id="path4730"
     style="stroke:none;stroke-width:0.2" /><path
     d="m 4143.5409,16182.809 c 0.08,1.9 -1.42,3.5 -3.35,3.6 -1.93,0.1 -3.57,-1.4 -3.66,-3.3 -1.57,-9.3 6.63,-19.3 17.01,-23 7.24,-2.6 15.4799,-1.4 22.4199,4.2 2.33,1.8 4.36,4.4 6.23,7.5 1.77,3.4 2.92,6.7 3.2,9.8 0.77,8.9 -2.93,16.8 -9.63,21.6 -7.89,5.5 -19.3099,7.3 -29.1099,0.8 -1.73,-0.8 -2.42,-2.9 -1.54,-4.7 0.87,-1.7 2.98,-2.4 4.7,-1.5 6.86,2.5 13.3999,-0.1 17.5799,-4.4 3.34,-3.4 4.2,-8.6 0.85,-13.8 -2.73,-5.7 -7.22,-7.6 -11.6299,-6.9 -4.3,0.6 -8.53,2.4 -10.88,5.5 -1.07,1.5 -2.04,2.9 -2.19,4.6 z"
     id="path4732"
     style="stroke:none;stroke-width:0.2" /><path
     d="m 4137.5709,16184.409 c 1.92,-0.2 3.69,1.1 3.94,3.1 0.26,1.9 -1.09,3.6 -3.01,3.9 -4.74,0.9 -15.53,7.1 -23.4199,17.1 -5.31,6.8 -9.08,15.5 -8.18,25.9 0.69,10.5 5.33,23.1 11.67,36.4 2.2099,4.7 4.5999,9.5 7.1599,14.3 3.72,6.9 7.74,14 12.04,20.8 7.34,11.8 15.34,23.1 23.4799,32.8 10.04,12 20.03,21.8 29.03,27 1.72,0.9 2.4,3 1.51,4.7 -0.88,1.8 -3,2.4 -4.72,1.6 -10.21,-4.7 -22.18,-13.8 -34.1299,-25.7 -9.45,-9.3 -18.85,-20.4 -27.34,-32.2 -4.9999,-6.9 -9.6699,-14.1 -13.7799,-21.4 -2.87,-5.1 -5.48,-10.2 -7.72,-15.2 -6.87,-15.6 -10.74,-30.5 -10.88,-42.5 0.12,-14 5.91,-25.3 13.85,-33.5 10.71,-11 24.7099,-16.6 30.4999,-17.1 z"
     id="path4734"
     style="stroke:none;stroke-width:0.2" /><path
     d="m 4339.0904,16526.009 c 0.18,-1.3 0.36,-2.9 0.42,-4.3 0.27,-6.1 -0.21,-14.2 -1.05,-23.2 -0.69,-7.5 -1.65,-15.6 -2.93,-23.6 -2.01,-12.6 -4.64,-24.9 -8.33,-34.2 -1.43,1.2 -3.11,2.7 -4.58,3.8 -5.0199,3.7 -10.6599,8.1 -15.6799,10.5 -4.15,2 -8.53,2.6 -12.95,2.9 -3.55,0.2 -7.08,0.1 -10.36,1.1 -2.2599,0.7 -4.4099,1.8 -6.2699,4.1 -1.15,1.5 -3.35,1.9 -4.91,0.7 -1.55,-1.1 -1.88,-3.3 -0.73,-4.9 2.56,-3.8 5.76,-6 9.2,-7.4 6.5699,-2.8 14.5899,-1.5 21.1699,-5.5 5.1,-3 10.67,-8.7 15.41,-12.7 3.78,-3.3 7.3399,-5.4 9.8499,-6.1 4.63,-1.3 7.92,0.4 10.13,4.4 5.74,10.6 10.59,26.4 13.68,42.6 1.91,10 3.16,20.1 3.69,29.1 0.81,14.1 -0.26,25.5 -2.28,30.5 -1.54,3.9 -3.88,5.9 -6.01,6.6 -2.75,1 -6.5,1.2 -10.88,-0.7 -5.24,-2.4 -12.42,-7.8 -19.9299,-15.1 -16.75,-16.3 -36.0699,-41.3 -42.0699,-52.6 -0.99,-1.6 -0.44,-3.8 1.22,-4.8 1.67,-0.9 3.82,-0.4 4.81,1.3 4.9599,7.5 17.6699,21.6 30.8899,34.3 8.54,8.2 17.2799,15.8 24.3499,20.4 1.3,0.8 2.82,1.9 4.14,2.8 z m -13.29,-88.5 c 0,0 -0.01,0 -0.01,0 z m 2.47,2.4 c 1.18,0.7 2.25,0.9 2.03,-0.2 -0.15,-0.8 -0.94,-0.5 -2.03,0.2 z m 12.55,87.1 c 0.79,0.3 1.33,0.3 1.42,-0.4 0.05,-0.4 -0.79,0.1 -1.09,0.2 -0.1,0 -0.21,0.1 -0.33,0.2 z"
     id="path4736"
     style="stroke:none;stroke-width:0.2" /><path
     d="m 4294.1005,16622.109 c -0.59,-1.8 0.42,-3.8 2.26,-4.4 1.84,-0.6 3.82,0.4 4.41,2.3 0,0 11.61,29.1 39.1299,59 9.68,10.5 21.39,21 35.1999,30.8 11.92,8.4 25.31,16.3 40.8299,22.6 19.77,8 42.5999,13.7 69.3898,14.9 1.93,0 3.5,1.6 3.5,3.6 0,1.9 -1.57,3.5 -3.5,3.5 -28.1699,1.2 -52.7498,-2.3 -74.0598,-9.2 -17.2499,-5.6 -32.3699,-13.3 -45.3599,-22.3 -5.7199,-4 -10.9799,-8.3 -15.8599,-12.7 -7.9,-7.1 -14.82,-14.6 -20.77,-22.1 -26.7199,-33.6 -35.1699,-66 -35.1699,-66 z"
     id="path4738"
     style="stroke:none;stroke-width:0.2" /><path
     d="m 4288.1905,16718.309 c -1.4,-1.4 -1.46,-3.6 -0.12,-5 1.33,-1.4 3.56,-1.5 4.96,-0.1 0,0 7.78,5.1 19.4,11.4 4.01,2.2 8.46,4.4 13.1699,6.7 2.82,1.4 5.74,2.8 8.68,4.3 4.25,2 8.52,4.2 13.02,6 8.03,3.2 16.2099,5.8 24.8699,5.8 1.92,-0.3 3.67,1.1 3.9,3 0.24,1.9 -1.13,3.7 -3.05,3.9 -9.73,2.4 -19.7099,2.3 -29.5299,0.4 -6.5,-1.2 -12.82,-3.3 -18.65,-6 -2.39,-1.1 -4.6399,-2.4 -6.7999,-3.7 -3.41,-2.1 -6.59,-4.3 -9.47,-6.6 -12.85,-10.3 -20.38,-20.1 -20.38,-20.1 z"
     id="path4740"
     style="stroke:none;stroke-width:0.2" /><path
     d="m 4515.56,16228.009 c -1.8,0.7 -3.84,-0.2 -4.54,-2 -0.71,-1.8 0.18,-3.9 1.99,-4.6 0,0 7.93,-4 20.6499,-6.4 6.26,-1.1 13.61,-1.8 21.72,-1.3 5.56,0.3 11.4199,1.2 17.4499,2.9 3.69,1 7.44,2.3 11.15,4.1 8.11,3.9 16.22,9.4 23.8099,17.1 8.72,8.9 16.66,20.4 23.55,35.4 0.94,1.7 0.35,3.8 -1.34,4.8 -1.69,0.9 -3.82,0.3 -4.77,-1.4 -6.95,-10.2 -14.29,-18.1 -21.6199,-24.5 -4.22,-3.7 -8.47,-6.8 -12.66,-9.5 -4.6,-3 -9.22,-5.3 -13.67,-7.4 -8.25,-3.8 -16.1499,-6.3 -23.5599,-7.6 -21.45,-3.9 -38.1599,0.4 -38.1599,0.4 z"
     id="path4742"
     style="stroke:none;stroke-width:0.2" /><path
     d="m 4614.9397,16210.909 c -1.93,-0.1 -3.47,-1.7 -3.44,-3.6 0.04,-1.9 1.64,-3.5 3.57,-3.4 0,0 3.85,-0.8 10.53,0.3 2.05,0.4 4.14,1.1 6.56,2.1 1.96,0.8 3.9,1.9 5.95,3.4 1.17,0.8 2.35,1.7 3.44,2.9 1.77,1.8 3.4099,4.1 4.8499,6.7 1.16,2.1 2.21,4.3 3.09,6.9 1.11,3.3 2,6.6 2.7,10.6 0.77,1.8 -0.04,3.8 -1.82,4.6 -1.77,0.8 -3.84,0 -4.61,-1.8 -2.1999,-2.9 -4.3999,-5 -6.4999,-7.3 -2.29,-2.5 -4.57,-4.3 -6.61,-6.2 -1.17,-1.1 -2.3,-2.1 -3.31,-3.1 -1.76,-1.8 -3.16,-3.5 -4.65,-4.9 -5.75,-5.2 -9.75,-7.2 -9.75,-7.2 z"
     id="path4744"
     style="stroke:none;stroke-width:0.2" /><path
     d="m 4529.6999,16256.809 c -1.92,-0.3 -3.27,-2.1 -3.01,-4 0.26,-1.9 2.02,-3.2 3.94,-3 9.96,0.4 18.85,4.5 26.1,10.2 8.4499,6.7 14.0199,15.9 16.6199,23.9 2.5,9.1 -1.45,17 -9.01,21.2 -7.2199,4 -18.3499,4.3 -28.4899,-2.4 -6.45,-4.6 -13.1599,-12.9 -16.5199,-21.4 -2.9,-7.3 -3.6,-14.5 -0.81,-19 0.84,-1.8 2.94,-2.5 4.68,-1.7 1.7399,0.9 2.4699,3 1.6199,4.7 -0.42,1.2 -0.19,2.5 0.09,3.9 0.64,3.4 2.81,7 5.42,10.5 3.5,4.7 8.22,8.9 12.63,11.1 3.4,1.8 6.84,2.1 9.79,1.7 1.64,-0.2 3.07,-0.8 4.2,-1.6 1.04,-0.7 1.81,-1.8 1.49,-3.2 -1.12,-6.1 -4.58,-13.1 -9.9,-18.9 -4.95,-5.5 -11.1,-10.2 -18.84,-12 z"
     id="path4746"
     style="stroke:none;stroke-width:0.2" /><path
     d="m 4552.8999,16323.209 c 1.01,-1.7 3.17,-2.2 4.82,-1.2 1.65,1 2.18,3.2 1.18,4.8 -2.56,5.2 -9.23,10.7 -19.05,13.3 -6.39,1.8 -14.09,1.9 -22.8899,0 -6.33,-1.6 -13.29,-5.6 -19.46,-11.2 -3.5,-3.1 -6.73,-6.8 -9.38,-10.9 -2.77,-4.2 -4.9399,-8.7 -6.2899,-13.3 -2.46,-8.3 -2.54,-16.6 0.82,-23.6 2.7999,-5.7 8.3499,-10.2 15.5399,-12 8.18,-2.1 18,-1.5 25.33,2.6 1.7499,0.8 2.5199,2.9 1.7099,4.7 -0.81,1.7 -2.8999,2.5 -4.6599,1.7 -4.91,-1.8 -10.76,-1.4 -15.93,0.1 -4.66,1.4 -8.68,4 -9.91,7.8 -0.96,2.8 -0.67,5.9 -0.05,9 0.98,4.8 3.61,9.6 6.7,14.1 3.16,4.7 6.9,9 10.94,12.4 2.87,2.3 5.69,4.4 8.56,5.4 6.3599,2.4 12.0999,3.2 17.0799,2.8 7.09,-0.7 12.53,-3.2 14.94,-6.5 z"
     id="path4748"
     style="stroke:none;stroke-width:0.2" /><path
     d="m 4620.2997,16463.509 c -17.2099,36.4 -51.2499,63.4 -86.5598,66.7 -26.9399,2.4 -43.4499,-5.1 -51.2198,-15.6 -10.36,-14.1 -6.7,-35.3 11.0099,-52.9 16.41,-16.3 46.1699,-25.5 77.8698,-24.6 15.05,0.4 30.49,3 45.0699,8 1.51,-4.4 2.76,-9 3.71,-13.6 7.72,-37.6 -4.4,-80.6 -50.9399,-115.1 -1.57,-1.1 -1.92,-3.3 -0.79,-4.9 1.13,-1.5 3.33,-1.9 4.9,-0.8 50.7699,35.9 64.1399,82.2 56.6799,122.7 -0.96,5.3 -2.28,10.4 -3.91,15.4 8.03,3.5 15.69,7.8 22.7399,12.9 14.88,10.8 27.36,28.1 35.27,49 9.8099,25.8 12.7399,57.2 5.1399,88 -10.1799,41.3 -39.1099,81.6 -95.7097,105.8 -44.8499,19 -97.6898,19.3 -143.5997,-7.8 -35.2599,-20.7 -66.5198,-57.7 -86.4898,-114.9 -0.66,-1.8 0.28,-3.8 2.1,-4.5 1.82,-0.6 3.83,0.3 4.49,2.1 20.4,54.3 50.8699,89.2 85.0698,108.3 43.0599,24.2 91.9498,23.1 133.1197,4.6 51.2199,-22.7 77.3098,-59.5 86.1598,-97.1 6.5,-27.7 3.71,-55.7 -5.17,-78.9 -6.79,-17.7 -17.1,-32.5 -29.7499,-41.7 -5.96,-4.4 -12.41,-8.1 -19.19,-11.1 z m -9.91,-3.9 c -12.7699,-4.4 -26.2899,-6.7 -39.4599,-7.2 -27.2099,-1 -53.0898,5.7 -67.3498,19.5 -12.02,11.6 -16.82,25.2 -10.05,34.7 5.77,8.1 18.69,12.3 39.1799,10.8 31.39,-2.2 61.5999,-25.8 77.6798,-57.8 z"
     id="path4750"
     style="stroke:none;stroke-width:0.2" /></g>&#10;</svg>
