<?xml version="1.0" encoding="UTF-8" standalone="no"?>
<svg
   width="3196.8843"
   height="2359.3345"
   viewBox="0 0 3196.8843 2359.3345"
   version="1.1"
   xml:space="preserve"
   style="clip-rule:evenodd;fill-rule:evenodd;stroke-linejoin:round;stroke-miterlimit:2"
   id="svg5353"
   xmlns="http://www.w3.org/2000/svg"
   xmlns:svg="http://www.w3.org/2000/svg"><defs
   id="defs5353" />&#10;    <g
   id="vectorly-UNI-note"
   transform="matrix(4.9999999,0,0,4.9999999,-16373.414,-65160.294)"
   style="stroke-width:0.2"><path
     d="m 3688.542,13099.911 c 0,-2 1.57,-3.5 3.51,-3.5 1.93,0 3.5,1.5 3.5,3.5 1.07,4.2 -0.67,8.1 -3.14,11.5 -2.48,3.5 -6.74,5.1 -11.42,6 -4.9799,0.5 -9.7199,-1.2 -13.0299,-4.2 -3.65,-3.3 -5.68,-8.2 -5.15,-13.3 0.92,-4.8 2.76,-9.2 6.83,-11.5 3.37,-2 7.14,-3.3 11.3499,-2.3 1.93,0 3.5,1.5 3.5,3.5 0,1.9 -1.57,3.5 -3.5,3.5 -1.58,0.3 -2.52,1.6 -3.56,2.6 -1.0399,1.1 -0.6899,2.7 -0.3799,4.2 0.07,0.6 0.8799,0.7 1.2699,1.2 0.43,0.4 0.87,1 1.51,1.2 0.4,0.2 0.71,0.5 1.16,0.6 1.77,0.4 3.51,0.9 4.77,-0.1 1.11,-0.9 2.42,-1.5 2.78,-2.9 z"
     id="path3716"
     style="stroke:none;stroke-width:0.2" /><path
     d="m 3650.4074,13099.911 c 0,-2 1.57,-3.5 3.51,-3.5 1.93,0 3.5,1.5 3.5,3.5 1.07,4.2 -0.67,8.1 -3.14,11.5 -2.48,3.5 -6.74,5.1 -11.4199,6 -4.98,0.5 -9.72,-1.2 -13.03,-4.2 -3.65,-3.3 -5.68,-8.2 -5.15,-13.3 0.92,-4.8 2.76,-9.2 6.83,-11.5 3.37,-2 7.14,-3.3 11.35,-2.3 1.9299,0 3.4999,1.5 3.4999,3.5 0,1.9 -1.57,3.5 -3.4999,3.5 -1.58,0.3 -2.52,1.6 -3.56,2.6 -1.04,1.1 -0.69,2.7 -0.38,4.2 0.07,0.6 0.88,0.7 1.27,1.2 0.43,0.4 0.87,1 1.51,1.2 0.4,0.2 0.71,0.5 1.16,0.6 1.7699,0.4 3.5099,0.9 4.7699,-0.1 1.11,-0.9 2.42,-1.5 2.78,-2.9 z"
     id="path3718"
     style="stroke:none;stroke-width:0.2" /><path
     d="m 3612.2728,13099.911 c 0,-2 1.57,-3.5 3.51,-3.5 1.93,0 3.5,1.5 3.5,3.5 1.07,4.2 -0.67,8.1 -3.14,11.5 -2.48,3.5 -6.7399,5.1 -11.4199,6 -4.98,0.5 -9.72,-1.2 -13.03,-4.2 -3.65,-3.3 -5.68,-8.2 -5.15,-13.3 0.92,-4.8 2.76,-9.2 6.83,-11.5 3.37,-2 7.14,-3.3 11.35,-2.3 1.93,0 3.5,1.5 3.5,3.5 0,1.9 -1.57,3.5 -3.5,3.5 -1.58,0.3 -2.52,1.6 -3.56,2.6 -1.04,1.1 -0.69,2.7 -0.38,4.2 0.07,0.6 0.88,0.7 1.27,1.2 0.43,0.4 0.87,1 1.51,1.2 0.4,0.2 0.71,0.5 1.16,0.6 1.77,0.4 3.51,0.9 4.77,-0.1 1.1099,-0.9 2.4199,-1.5 2.7799,-2.9 z"
     id="path3720"
     style="stroke:none;stroke-width:0.2" /><path
     d="m 3574.1381,13099.911 c 0,-2 1.5699,-3.5 3.5099,-3.5 1.93,0 3.5,1.5 3.5,3.5 1.07,4.2 -0.67,8.1 -3.14,11.5 -2.48,3.5 -6.7399,5.1 -11.4199,6 -4.98,0.5 -9.72,-1.2 -13.03,-4.2 -3.65,-3.3 -5.68,-8.2 -5.15,-13.3 0.92,-4.8 2.76,-9.2 6.83,-11.5 3.37,-2 7.14,-3.3 11.35,-2.3 1.93,0 3.5,1.5 3.5,3.5 0,1.9 -1.57,3.5 -3.5,3.5 -1.58,0.3 -2.52,1.6 -3.56,2.6 -1.04,1.1 -0.69,2.7 -0.38,4.2 0.07,0.6 0.88,0.7 1.27,1.2 0.43,0.4 0.87,1 1.51,1.2 0.4,0.2 0.71,0.5 1.16,0.6 1.77,0.4 3.51,0.9 4.77,-0.1 1.11,-0.9 2.42,-1.5 2.78,-2.9 z"
     id="path3722"
     style="stroke:none;stroke-width:0.2" /><path
     d="m 3536.0035,13099.911 c 0,-2 1.57,-3.5 3.51,-3.5 1.93,0 3.5,1.5 3.5,3.5 1.07,4.2 -0.67,8.1 -3.14,11.5 -2.48,3.5 -6.74,5.1 -11.42,6 -4.98,0.5 -9.72,-1.2 -13.03,-4.2 -3.65,-3.3 -5.68,-8.2 -5.15,-13.3 0.92,-4.8 2.76,-9.2 6.83,-11.5 3.37,-2 7.14,-3.3 11.35,-2.3 1.93,0 3.5,1.5 3.5,3.5 0,1.9 -1.57,3.5 -3.5,3.5 -1.58,0.3 -2.52,1.6 -3.56,2.6 -1.04,1.1 -0.69,2.7 -0.38,4.2 0.07,0.6 0.88,0.7 1.27,1.2 0.43,0.4 0.87,1 1.51,1.2 0.4,0.2 0.71,0.5 1.16,0.6 1.77,0.4 3.51,0.9 4.77,-0.1 1.11,-0.9 2.42,-1.5 2.78,-2.9 z"
     id="path3724"
     style="stroke:none;stroke-width:0.2" /><path
     d="m 3497.8689,13099.911 c 0,-2 1.57,-3.5 3.51,-3.5 1.93,0 3.5,1.5 3.5,3.5 1.07,4.2 -0.67,8.1 -3.14,11.5 -2.48,3.5 -6.74,5.1 -11.42,6 -4.98,0.5 -9.72,-1.2 -13.03,-4.2 -3.65,-3.3 -5.68,-8.2 -5.15,-13.3 0.92,-4.8 2.76,-9.2 6.83,-11.5 3.37,-2 7.14,-3.3 11.35,-2.3 1.93,0 3.5,1.5 3.5,3.5 0,1.9 -1.57,3.5 -3.5,3.5 -1.58,0.3 -2.52,1.6 -3.56,2.6 -1.04,1.1 -0.69,2.7 -0.38,4.2 0.07,0.6 0.88,0.7 1.27,1.2 0.43,0.4 0.87,1 1.51,1.2 0.4,0.2 0.71,0.5 1.16,0.6 1.77,0.4 3.51,0.9 4.77,-0.1 1.11,-0.9 2.42,-1.5 2.78,-2.9 z"
     id="path3726"
     style="stroke:none;stroke-width:0.2" /><path
     d="m 3683.832,13039.111 c -1.93,-0.1 -3.44,-1.7 -3.36,-3.7 0.07,-1.9 1.71,-3.4 3.64,-3.3 6.53,-0.7 13.71,5.7 17.46,17.1 1.44,4.4 2.08,9.6 1.9,15.3 -0.08,2.9 -0.44,5.9 -1.21,9 -1.03,4.1 -2.69,8.3 -4.99,12.5 -2.02,3.6 -4.44,7.2 -7.47,10.8 -3.88,4.5 -8.42,8.8 -13.9999,13 -1.37,1.3 -3.59,1.3 -4.95,0 -1.37,-1.4 -1.36,-3.6 0.02,-5 3.11,-4.1 5.46,-8.2 7.6199,-12.2 2.35,-4.3 3.98,-8.6 5.4,-12.6 1.02,-3 1.71,-5.8 2.41,-8.5 0.76,-3 1.43,-5.8 1.85,-8.5 0.7,-4.4 1.11,-8.3 0.76,-11.8 -0.28,-2.8 -0.55,-5.3 -1.43,-7.3 -1.02,-2.4 -1.85,-4.5 -3.65,-4.8 z"
     id="path3728"
     style="stroke:none;stroke-width:0.2" /><path
     d="m 3645.6974,13039.111 c -1.93,-0.1 -3.4399,-1.7 -3.3599,-3.7 0.07,-1.9 1.7099,-3.4 3.6399,-3.3 6.53,-0.7 13.71,5.7 17.46,17.1 1.44,4.4 2.08,9.6 1.9,15.3 -0.08,2.9 -0.44,5.9 -1.21,9 -1.03,4.1 -2.69,8.3 -4.99,12.5 -2.02,3.6 -4.44,7.2 -7.47,10.8 -3.88,4.5 -8.4199,8.8 -13.9999,13 -1.37,1.3 -3.59,1.3 -4.95,0 -1.37,-1.4 -1.36,-3.6 0.02,-5 3.11,-4.1 5.46,-8.2 7.62,-12.2 2.35,-4.3 3.9799,-8.6 5.3999,-12.6 1.02,-3 1.71,-5.8 2.41,-8.5 0.76,-3 1.43,-5.8 1.85,-8.5 0.7,-4.4 1.11,-8.3 0.76,-11.8 -0.28,-2.8 -0.55,-5.3 -1.43,-7.3 -1.02,-2.4 -1.85,-4.5 -3.65,-4.8 z"
     id="path3730"
     style="stroke:none;stroke-width:0.2" /><path
     d="m 3607.5629,13039.111 c -1.93,-0.1 -3.44,-1.7 -3.36,-3.7 0.07,-1.9 1.71,-3.4 3.64,-3.3 6.5299,-0.7 13.7099,5.7 17.4599,17.1 1.44,4.4 2.08,9.6 1.9,15.3 -0.08,2.9 -0.44,5.9 -1.21,9 -1.03,4.1 -2.69,8.3 -4.99,12.5 -2.02,3.6 -4.44,7.2 -7.47,10.8 -3.8799,4.5 -8.4199,8.8 -13.9999,13 -1.37,1.3 -3.59,1.3 -4.95,0 -1.37,-1.4 -1.36,-3.6 0.02,-5 3.11,-4.1 5.46,-8.2 7.62,-12.2 2.35,-4.3 3.98,-8.6 5.4,-12.6 1.02,-3 1.71,-5.8 2.41,-8.5 0.7599,-3 1.4299,-5.8 1.8499,-8.5 0.7,-4.4 1.11,-8.3 0.76,-11.8 -0.28,-2.8 -0.55,-5.3 -1.43,-7.3 -1.02,-2.4 -1.8499,-4.5 -3.6499,-4.8 z"
     id="path3732"
     style="stroke:none;stroke-width:0.2" /><path
     d="m 3569.4281,13039.111 c -1.93,-0.1 -3.44,-1.7 -3.36,-3.7 0.07,-1.9 1.71,-3.4 3.64,-3.3 6.5299,-0.7 13.7099,5.7 17.4599,17.1 1.44,4.4 2.08,9.6 1.9,15.3 -0.08,2.9 -0.44,5.9 -1.21,9 -1.03,4.1 -2.69,8.3 -4.99,12.5 -2.02,3.6 -4.44,7.2 -7.47,10.8 -3.8799,4.5 -8.4199,8.8 -13.9999,13 -1.37,1.3 -3.59,1.3 -4.95,0 -1.37,-1.4 -1.36,-3.6 0.02,-5 3.11,-4.1 5.46,-8.2 7.62,-12.2 2.35,-4.3 3.98,-8.6 5.4,-12.6 1.02,-3 1.71,-5.8 2.41,-8.5 0.76,-3 1.43,-5.8 1.85,-8.5 0.7,-4.4 1.1099,-8.3 0.76,-11.8 -0.28,-2.8 -0.55,-5.3 -1.43,-7.3 -1.02,-2.4 -1.85,-4.5 -3.65,-4.8 z"
     id="path3734"
     style="stroke:none;stroke-width:0.2" /><path
     d="m 3531.2935,13039.111 c -1.93,-0.1 -3.44,-1.7 -3.36,-3.7 0.07,-1.9 1.71,-3.4 3.64,-3.3 6.53,-0.7 13.7099,5.7 17.4599,17.1 1.44,4.4 2.08,9.6 1.9,15.3 -0.08,2.9 -0.44,5.9 -1.21,9 -1.03,4.1 -2.69,8.3 -4.99,12.5 -2.0199,3.6 -4.4399,7.2 -7.4699,10.8 -3.88,4.5 -8.42,8.8 -14,13 -1.37,1.3 -3.59,1.3 -4.95,0 -1.37,-1.4 -1.36,-3.6 0.02,-5 3.11,-4.1 5.46,-8.2 7.62,-12.2 2.35,-4.3 3.98,-8.6 5.4,-12.6 1.02,-3 1.71,-5.8 2.41,-8.5 0.76,-3 1.43,-5.8 1.85,-8.5 0.7,-4.4 1.11,-8.3 0.76,-11.8 -0.28,-2.8 -0.55,-5.3 -1.43,-7.3 -1.02,-2.4 -1.85,-4.5 -3.65,-4.8 z"
     id="path3736"
     style="stroke:none;stroke-width:0.2" /><path
     d="m 3493.1589,13039.111 c -1.93,-0.1 -3.44,-1.7 -3.36,-3.7 0.07,-1.9 1.71,-3.4 3.64,-3.3 6.53,-0.7 13.71,5.7 17.4599,17.1 1.44,4.4 2.08,9.6 1.9,15.3 -0.08,2.9 -0.44,5.9 -1.21,9 -1.0299,4.1 -2.6899,8.3 -4.9899,12.5 -2.02,3.6 -4.44,7.2 -7.47,10.8 -3.88,4.5 -8.42,8.8 -14,13 -1.37,1.3 -3.59,1.3 -4.95,0 -1.37,-1.4 -1.36,-3.6 0.02,-5 3.11,-4.1 5.46,-8.2 7.62,-12.2 2.35,-4.3 3.98,-8.6 5.4,-12.6 1.02,-3 1.71,-5.8 2.41,-8.5 0.76,-3 1.43,-5.8 1.85,-8.5 0.7,-4.4 1.11,-8.3 0.76,-11.8 -0.28,-2.8 -0.55,-5.3 -1.43,-7.3 -1.02,-2.4 -1.85,-4.5 -3.65,-4.8 z"
     id="path3738"
     style="stroke:none;stroke-width:0.2" /><path
     d="m 3706.132,13083.111 c -1.71,-0.4 -4.58,-1 -7.48,-1.4 -21.11,-2.9 -67.2398,-4.9 -113.4997,-6.3 -52.9899,-1.6 -106.1598,-2.6 -122.3497,-2.7 0.01,3.6 0.77,9.3 0.99,14.9 0.95,22.9 5.22,61.2 11.43,105.6 4.6299,33.1 10.2999,69.5 16.6999,105.4 10.33,58 22.39,114.6 34.6699,153.5 0.23,0.3 0.99,1 1.72,1.5 1.65,1.1 3.97,2.2 7.15,3.4 10.25,3.9 28.3499,8 59.4499,11.3 38.0599,4.1 95.1797,7 180.4495,6.7 1.94,0 3.53,1.5 3.55,3.5 0.03,1.9 -1.52,3.5 -3.45,3.5 -85.7398,2.1 -143.2396,0.4 -181.5995,-2.9 -42.3099,-3.6 -61.9799,-9.5 -70.5599,-14.2 -5.54,-3.1 -7.6099,-6.4 -8.3799,-8.7 -11.61,-34.8 -23.45,-83.8 -33.77,-135.4 -9.2999,-46.5 -17.4799,-95 -23.3299,-137.2 -6.77,-48.9 -10.44,-89.2 -9.88,-107.8 0.23,-7.9 1.74,-12.9 3.11,-14.8 2.08,-2.9 4.71,-3.9 7.33,-3.9 9.32,0 132.4397,3.3 203.6295,8.7 21.7299,1.7 38.7099,3.6 46.4199,5.6 3.85,1 6.15,2.4 7.08,3.4 1.09,1.2 1.61,2.4 1.77,3.6 5.2099,38.4 10.8099,73.2 16.5599,104.8 7.17,39.5 14.58,73.9 21.96,103.8 0.49,1.9 -0.64,3.8 -2.51,4.3 -1.87,0.5 -3.79,-0.7 -4.27,-2.5 -8.13,-29.9 -16.45,-64.3 -24.53,-103.8 -6.31,-30.8 -12.4599,-64.7 -18.3599,-101.9 z m -247.7294,-10.5 c -0.01,0 -0.01,0 -0.02,0 0.01,0 0.01,0 0.02,0 z m 4.46,-1.4 c 1.16,-0.7 2.51,-1.7 1.38,-2.1 -0.85,-0.3 -1.25,0.5 -1.38,2.1 z m 359.5091,391.4 c 1.16,1.6 0.85,3.8 -0.7,4.9 -1.55,1.2 -3.75,0.9 -4.91,-0.7 0,0 -10.1,-10.8 -25.3199,-40.1 -2.62,-5.1 -5.32,-10.8 -8.08,-17 -1.6,-3.7 -3.25,-7.5 -4.77,-11.6 -3.29,-8.9 -6.42,-18.8 -9.49,-29.8 -3.78,-13.5 -7.16,-28.6 -10.75,-45.5 -0.53,-1.8 0.54,-3.8 2.4,-4.3 1.85,-0.5 3.8,0.5 4.34,2.4 5.64,15.3 11.26,28.9 16.26,41.3 3.99,9.9 7.78,19 11.05,27.3 3.27,8.4 6.0299,16 8.6199,22.9 3.35,8.8 6.16,16.4 8.74,22.8 7.85,19.3 12.61,27.4 12.61,27.4 z"
     id="path3740"
     style="stroke:none;stroke-width:0.2" /><path
     d="m 3493.9025,13149.511 c -1.94,0 -3.45,-1.6 -3.38,-3.6 0.06,-1.9 1.69,-3.4 3.62,-3.4 0,0 25.9399,-1 59.2799,-1.5 7.5899,-0.1 15.5599,-0.2 23.6899,-0.1 5.21,0 10.5,0.1 15.78,0.3 13.4399,0.5 26.8799,1.3 39.3899,2.2 27.8799,1.8 50.9798,3.9 58.8698,3.9 1.93,-0.1 3.58,1.4 3.68,3.3 0.1,2 -1.39,3.6 -3.32,3.7 -7.92,0.9 -31.3299,2.2 -59.5498,2.7 -12.56,0.3 -26.06,0.4 -39.5299,0.2 -5.29,-0.2 -10.57,-0.4 -15.79,-0.7 -8.12,-0.4 -16.08,-0.9 -23.6599,-1.5 -33.26,-2.6 -59.0799,-5.5 -59.0799,-5.5 z"
     id="path3742"
     style="stroke:none;stroke-width:0.2" /><path
     d="m 3501.2825,13193.211 c -1.93,0 -3.46,-1.6 -3.41,-3.6 0.05,-1.9 1.66,-3.4 3.59,-3.4 0,0 15.5099,-1.5 35.8499,-2.7 4.58,-0.3 9.39,-0.5 14.32,-0.6 3.14,-0.1 6.3299,-0.2 9.5299,-0.1 8.07,0.2 16.16,0.8 23.81,1.3 15.0899,1.1 28.1699,2.5 35.5399,2.6 1.93,-0.1 3.62,1.3 3.76,3.2 0.15,2 -1.3,3.7 -3.23,3.8 -7.41,1.3 -20.71,3 -36.0799,4.1 -7.7,0.5 -15.85,1 -23.97,1 -3.21,0 -6.4199,-0.2 -9.5699,-0.3 -4.95,-0.3 -9.76,-0.6 -14.35,-1 -20.34,-1.9 -35.7899,-4.3 -35.7899,-4.3 z"
     id="path3744"
     style="stroke:none;stroke-width:0.2" /><path
     d="m 3505.3225,13236.911 c -1.93,0 -3.48,-1.6 -3.45,-3.5 0.03,-2 1.63,-3.5 3.56,-3.5 0,0 17.9799,-1.6 41.6699,-3.1 5.32,-0.3 10.9099,-0.5 16.6499,-0.7 3.65,-0.1 7.36,-0.2 11.09,-0.2 9.34,0.1 18.76,0.6 27.7199,1 16.86,0.9 31.88,2 41.4699,2.1 1.93,-0.2 3.62,1.3 3.76,3.2 0.14,1.9 -1.31,3.6 -3.24,3.8 -9.6099,1.5 -24.7699,3.4 -41.8399,4.6 -8.9899,0.6 -18.4699,1.2 -27.8599,1.3 -3.74,0.1 -7.47,-0.1 -11.13,-0.2 -5.77,-0.2 -11.3699,-0.5 -16.6999,-0.8 -23.73,-1.8 -41.6999,-4 -41.6999,-4 z"
     id="path3746"
     style="stroke:none;stroke-width:0.2" /><path
     d="m 3512.3125,13279.011 c -1.94,-0.1 -3.46,-1.7 -3.4,-3.7 0.06,-1.9 1.67,-3.4 3.6,-3.4 0,0 21.3099,-1.3 48.8598,-2.3 6.25,-0.2 12.81,-0.4 19.51,-0.4 4.29,-0.1 8.64,-0.2 13,-0.1 11.0399,0.3 22.0999,0.9 32.4499,1.4 21.8299,1.1 40.2799,2.4 48.2799,1.7 1.91,-0.3 3.6899,1.1 3.9799,3 0.28,1.9 -1.04,3.7 -2.9599,4 -8.03,1.7 -26.9,3.8 -49.2799,5 -10.41,0.5 -21.55,0.9 -32.6599,0.9 -4.37,0 -8.74,-0.2 -13.05,-0.3 -6.72,-0.3 -13.29,-0.7 -19.54,-1.2 -27.5499,-2.1 -48.7898,-4.6 -48.7898,-4.6 z"
     id="path3748"
     style="stroke:none;stroke-width:0.2" /><path
     d="m 3520.3024,13325.611 c -1.93,0 -3.48,-1.6 -3.45,-3.6 0.03,-1.9 1.62,-3.4 3.56,-3.4 0,0 19.84,-1.7 45.5999,-2.9 5.84,-0.3 11.96,-0.5 18.23,-0.6 4.01,-0.1 8.07,-0.2 12.14,-0.1 10.3199,0.2 20.6499,0.8 30.3399,1.4 20.1699,1.3 37.3399,2.8 45.4099,3.1 1.94,0 3.56,1.5 3.63,3.4 0.07,2 -1.44,3.6 -3.37,3.7 -8.1,0.8 -25.4,2.5 -45.7399,3.5 -9.72,0.5 -20.08,0.9 -30.4199,0.9 -4.08,0 -8.14,-0.1 -12.16,-0.3 -6.27,-0.2 -12.39,-0.6 -18.23,-1 -25.7399,-1.8 -45.5399,-4.1 -45.5399,-4.1 z"
     id="path3750"
     style="stroke:none;stroke-width:0.2" /><path
     d="m 3529.4924,13379.011 c -1.94,-0.1 -3.47,-1.7 -3.42,-3.6 0.05,-1.9 1.65,-3.5 3.59,-3.4 0,0 20.07,-1.5 46.4399,-2.7 5.92,-0.3 12.15,-0.5 18.55,-0.6 4.0699,-0.1 8.1999,-0.2 12.3499,-0.1 10.4,0.1 20.89,0.6 30.8699,1.1 18.75,0.8 35.48,1.9 46.1399,1.7 1.93,-0.2 3.64,1.2 3.81,3.1 0.18,2 -1.24,3.7 -3.16,3.8 -10.6899,1.8 -27.6299,3.8 -46.6599,5 -10.0299,0.7 -20.5999,1.2 -31.0599,1.3 -4.17,0 -8.33,-0.2 -12.4099,-0.3 -6.42,-0.2 -12.67,-0.6 -18.61,-1 -26.3999,-1.9 -46.4299,-4.3 -46.4299,-4.3 z"
     id="path3752"
     style="stroke:none;stroke-width:0.2" /><path
     d="m 3883.6415,13175.611 c 0.59,-0.5 1.25,-1 1.97,-1.4 4.28,-2.3 13.59,-1.9 19.78,7.8 3.45,5.4 5.94,14 5.24,27.2 -0.04,0.7 -0.3,1.9 -1.21,3.2 -0.73,1.1 -2.52,3 -5.27,5.6 -8.56,8 -27.5999,23.8 -50.4399,42 -20.8299,16.7 -44.7599,35.5 -66.6998,52.3 -36.0499,27.7 -66.7299,50.2 -68.9199,51.3 l -30.1699,15.4 c -2.82,1.4 -6.23,1 -8.66,-1 -2.4199,-2.1 -3.3699,-5.4 -2.4099,-8.4 l 11.2799,-34.4 c 0.41,-1.4 1.19,-2.6 2.24,-3.5 0,0 46.7299,-39.5 93.6598,-78.9 46.9299,-39.4 94.0398,-78.5 94.0398,-78.5 1.4599,-1.3 3.6799,-1.1 4.9399,0.3 0.28,0.3 0.48,0.7 0.63,1 z m -3.49,6.2 c -10.1099,9.2 -49.2398,44.5 -88.5197,79.8 -40.5299,36.3 -81.2098,72.4 -89.7698,80 l -4.53,14.8 13.4,-7 c 1.41,-0.7 14.8699,-10.7 34.1599,-24.8 22.8199,-16.7 53.4498,-39.2 81.6598,-60.2 29.6899,-22.1 56.7298,-42.3 68.8998,-52.6 2.2,-1.8 4.35,-3.9 5.25,-4.8 0.56,-7.4 -0.14,-13 -1.65,-17.2 -1.67,-4.5 -4.17,-7.1 -6.69,-7.9 -1.13,-0.4 -2.18,-0.6 -2.88,-0.2 -1.17,0.5 -1.55,1.9 -1.76,3.5 -0.28,2 -0.15,4.4 0.27,6.8 0.86,5 2.79,10.3 4.95,13.8 1.04,1.7 0.55,3.8 -1.08,4.9 -1.63,1 -3.8,0.5 -4.84,-1.1 -3.91,-5.9 -7.43,-15.9 -7.38,-23.4 0.01,-1.6 0.18,-3 0.51,-4.4 z"
     id="path3754"
     style="stroke:none;stroke-width:0.2" /><path
     d="m 3786.5918,13158.811 c 0.78,-1.8 2.85,-2.6 4.62,-1.8 1.77,0.8 2.57,2.9 1.79,4.6 0,0 -1.72,7.7 -4.41,18.6 -0.93,3.8 -1.92,7.9 -3.13,12.2 -0.82,3 -1.7,6 -2.72,9 -1,2.9 -2.17,5.8 -3.27,8.7 -1.73,4.5 -3.47,8.8 -4.86,13 -1.62,4.9 -3.03,9.2 -3.56,13.2 0.04,1.9 -1.51,3.5 -3.44,3.5 -1.94,0 -3.53,-1.5 -3.56,-3.4 -1.08,-6.9 -0.9,-15.8 0.5,-25.3 0.78,-5.4 1.9,-10.8 3.49,-16.1 0.64,-2.1 1.44,-4.1 2.25,-6.1 1.29,-3.2 2.62,-6.1 4.04,-8.9 6.36,-12.6 12.26,-21.2 12.26,-21.2 z"
     id="path3756"
     style="stroke:none;stroke-width:0.2" /><path
     d="m 3798.5117,13186.611 c 0.78,-1.7 2.85,-2.6 4.62,-1.8 1.77,0.8 2.57,2.9 1.79,4.6 0,0 -0.3,5.7 -1.62,13.9 -0.44,2.8 -0.91,5.7 -1.78,8.8 -0.51,1.7 -1.29,3.4 -1.99,5.1 -0.7,1.7 -1.48,3.3 -2.2099,5 -1.58,3.7 -3.18,6.9 -4.02,10.3 0,2 -1.57,3.5 -3.5,3.5 -1.94,0 -3.51,-1.5 -3.51,-3.5 -1.11,-4.6 -1.63,-9.6 -1.43,-15.2 0.11,-3.3 0.51,-6.6 1.32,-9.8 0.32,-1.2 0.81,-2.4 1.31,-3.6 0.81,-1.9 1.64,-3.6 2.59,-5.2 4.41,-7.5 8.4299,-12.1 8.4299,-12.1 z"
     id="path3758"
     style="stroke:none;stroke-width:0.2" /><path
     d="m 3891.4215,13222.911 c -1.49,-1.2 -1.7,-3.4 -0.47,-4.9 1.23,-1.5 3.45,-1.7 4.94,-0.5 0,0 3.91,2.7 6.97,6.9 1.4,2 2.37,4.3 2.98,6.7 1.01,4 0.21,8.4 -2.84,13.2 -1.79,2.6 -6.21,7.9 -12.36,14 -3.81,3.8 -8.22,8.1 -13.0699,12.1 -5.44,4.5 -11.37,8.8 -16.98,12.8 -14.23,10.2 -26.4599,18 -26.4599,18 -1.49,1.2 -3.7,1 -4.93,-0.5 -1.23,-1.5 -1.02,-3.7 0.48,-4.9 0,0 9.8799,-10.5 22.2599,-22.8 4.86,-4.8 9.99,-9.9 15.22,-14.6 4.63,-4.2 9.31,-7.9 13.4199,-11.2 6.01,-4.9 10.95,-8.5 12.9,-10.5 1.84,-1.9 2.51,-3.8 2.13,-5.6 -0.94,-4.5 -4.19,-8.2 -4.19,-8.2 z"
     id="path3760"
     style="stroke:none;stroke-width:0.2" /><path
     d="m 3828.4917,13331.011 c -1.93,0.1 -3.57,-1.4 -3.66,-3.4 -0.09,-1.9 1.41,-3.5 3.34,-3.6 0,0 6.78,-1.9 16.5499,-4.3 3.38,-0.9 7.03,-1.8 10.92,-2.7 2.66,-0.5 5.38,-1.1 8.15,-1.6 2.72,-0.4 5.47,-0.7 8.18,-1 4.26,-0.5 8.3199,-0.9 12.1099,-1.7 4.41,-0.8 8.25,-1.6 11.27,-3.1 1.56,-1.2 3.75,-0.9 4.91,0.7 1.15,1.5 0.83,3.7 -0.72,4.9 -4.45,4.5 -11.55,8.6 -20.05,12 -4.5299,1.7 -9.3799,3.2 -14.3099,4.2 -1.95,0.4 -3.92,0.6 -5.86,0.8 -3.04,0.2 -5.98,0.4 -8.81,0.3 -12.6599,0 -22.0199,-1.5 -22.0199,-1.5 z"
     id="path3762"
     style="stroke:none;stroke-width:0.2" /><path
     d="m 3866.5416,13349.211 c -1.94,0.1 -3.57,-1.4 -3.65,-3.3 -0.08,-1.9 1.42,-3.6 3.36,-3.7 0,0 5.09,-2.2 12.8099,-4.8 2.58,-0.8 5.35,-1.8 8.36,-2.5 1.73,-0.4 3.52,-0.5 5.31,-0.7 1.82,-0.2 3.56,-0.3 5.36,-0.5 3.84,-0.4 7.3,-0.6 10.63,-1.7 1.65,-1 3.81,-0.5 4.82,1.2 1.01,1.6 0.5,3.8 -1.15,4.8 -3.46,3.5 -7.54,6.4 -12.4,9 -2.96,1.5 -6.06,2.8 -9.23,3.6 -1.28,0.3 -2.58,0.4 -3.85,0.5 -2.04,0.2 -3.96,0.3 -5.83,0.2 -8.7199,-0.5 -14.5399,-2.1 -14.5399,-2.1 z"
     id="path3764"
     style="stroke:none;stroke-width:0.2" /><path
     d="m 3695.492,13337.411 c -1.31,-1.4 -1.23,-3.6 0.2,-5 1.42,-1.3 3.64,-1.2 4.95,0.2 0,0 1.42,0.6 4.27,2.2 1.27,0.6 2.4,1.4 3.88,2.5 0.95,0.7 1.77,1.5 2.65,2.5 0.53,0.6 1.04,1.2 1.43,2 0.72,1.3 1.22,2.7 1.56,4.3 0.25,1.1 0.46,2.1 0.52,3.3 0.13,2.9 0.22,5.2 -0.29,8 0.43,1.9 -0.75,3.8 -2.64,4.2 -1.89,0.4 -3.77,-0.8 -4.2,-2.7 -1.35,-1.8 -2.91,-2.9 -4.56,-4.5 -0.61,-0.7 -1.22,-1.1 -1.79,-1.7 -0.81,-1 -1.73,-1.7 -2.33,-2.8 -0.91,-1.5 -1.32,-3.1 -1.8,-4.5 -1.63,-5 -1.85,-8 -1.85,-8 z"
     id="path3766"
     style="stroke:none;stroke-width:0.2" /><path
     d="m 3493.5325,13487.911 c 2.66,0.4 7.21,0.3 11.33,0.8 36.1299,4.2 121.4297,7.5 154.3696,6.9 1.93,0 3.56,1.5 3.63,3.4 0.07,1.9 -1.45,3.6 -3.38,3.6 -28.6699,1.6 -96.8898,1.9 -138.4497,0 -15.0799,-0.7 -26.7499,-1.7 -32.0799,-3 -5.56,-1.3 -7.5,-4.7 -7.91,-6.2 -8.5099,-31.9 -15.7099,-68.3 -21.1399,-106.2 -2.02,-14.1 -3.76,-28.5 -5.27,-42.9 -2.26,-21.6 -3.99,-43.3 -5.28,-64.5 -1.84,-30.2 -2.77,-59.5 -2.99,-86.3 -0.55,-65.3 3.2,-115.9 8.74,-129.9 0.68,-1.8 2.7,-2.7 4.51,-2 1.81,0.7 2.73,2.7 2.05,4.5 -4.84,13.8 -5.79,63.4 -2.98,127.1 1.16,26.6 3.02,55.6 5.52,85.5 1.77,21 3.86,42.5 6.26,63.9 1.59,14.2 3.32,28.4 5.1499,42.4 4.79,36.6 10.5,71.8 17.92,102.9 z m 0.52,2.1 z m -0.77,-2.2 c -0.61,-1.4 -1.45,-2.8 -1.99,-1.4 -0.3,0.8 0.51,1.2 1.99,1.4 z"
     id="path3768"
     style="stroke:none;stroke-width:0.2" /><path
     d="m 3289.033,13307.311 c 0.55,1.1 1.58,3.1 2.71,4.6 4.42,5.8 12.03,12.9 21.83,20.4 7.1599,5.5 15.4299,11.1 24.4999,16.5 20.1499,12 44.1299,22.9 68.2898,28.3 1.9,0.4 3.14,2.2 2.77,4.1 -0.37,1.9 -2.21,3.1 -4.11,2.8 -36.8299,-6.2 -73.9598,-24.5 -98.7197,-41.7 -13.97,-9.7 -24,-19.4 -28.43,-26.3 -4.5699,-7.2 -3.68,-13.1 -0.77,-16.6 14.18,-17 27.28,-34.9 39.6999,-52.5 13.18,-18.7 25.47,-37.2 36.56,-54.8 12.9399,-20.7 24.3599,-40 33.8499,-56.8 17.3099,-30.7 28.3999,-52.9 31.6299,-58.5 5.53,-9.5 11.55,-14.2 17.2299,-16.3 9.71,-3.6 18.55,0.6 22.44,0.9 1.93,0 3.44,1.7 3.37,3.6 -0.07,1.9 -1.69,3.4 -3.63,3.4 -3.31,-0.1 -11.03,-3.8 -19.12,-0.2 -4.1599,1.8 -8.2399,5.7 -11.9799,13.1 -2.94,5.8 -12.67,28.6 -28.65,60 -8.8599,17.5 -19.5699,37.5 -32.1799,58.7 -10.85,18.2 -23.0099,37.3 -36.5499,56.1 -12.49,17.5 -26.2399,34.6 -40.7399,51.2 z m -1.17,1.3 c 0,0 -0.01,0 -0.01,0 z"
     id="path3770"
     style="stroke:none;stroke-width:0.2" /><path
     d="m 3408.2027,13418.711 c 0.4,0.3 1.07,0.7 1.64,0.9 2.91,1 6.96,1.5 11.61,1.7 4.41,0.1 9.31,-0.1 14.3199,-0.4 13.77,-1.1 28.32,-3.5 35.91,-5.5 1.86,-0.5 3.7999,0.5 4.3399,2.4 0.54,1.9 -0.53,3.8 -2.3899,4.3 -12.42,4 -43.0999,10.3 -60.1799,8.8 -5.75,-0.5 -10.16,-2 -12.73,-4.2 -2.6,-2.1 -3.78,-5 -3.61,-8.4 1.47,-27.9 3.01,-53.7 4.88,-77.6 1.44,-18.3 2.98,-35.5 4.72,-51.6 1.65,-15.3 3.47,-29.6 5.35,-42.9 2.16,-15.5 4.46,-29.7 6.73,-42.8 2.72,-15.8 5.44,-29.9 8.12,-42.5 15.7899,-74.7 28.3299,-97.6 28.3299,-97.6 0.86,-1.7 2.97,-2.4 4.7,-1.6 1.73,0.9 2.44,3 1.58,4.7 0,0 -10.82,24.7 -23.24,103.9 -3.2699,20.8 -6.6199,45.5 -10.2099,74.4 -1.9,15.3 -3.89,31.9 -6,49.7 -1.85,15.6 -3.87,32.2 -5.87,49.8 -2.62,23.1 -5.39,47.8 -8,74.5 z"
     id="path3772"
     style="stroke:none;stroke-width:0.2" /><path
     d="m 3339.4229,13355.811 c 58.2498,-163.2 71.2598,-251.9 71.2598,-251.9 6.37,-12.8 10.55,-21.6 12.32,-24.8 12.9099,-23.9 29.7899,-14.4 35.3799,-14.2 -10.64,28.4 -9.39,209.3 14.28,353.9 -4.78,1.4 -12.3,3 -20.68,4.4 -18.8799,-80.8 -17.0699,-270.4 -17.0699,-270.4 -9.45,48.6 -20.21,121.4 -29.22,227.7 -23.1599,-4.5 -46.3299,-13.9 -66.2698,-24.7 z"
     id="path3774"
     style="stroke:none;stroke-width:0.2" /></g>&#10;</svg>
