<?xml version="1.0" encoding="UTF-8" standalone="no"?>
<svg
   width="3385.1895"
   height="2942.6316"
   viewBox="0 0 3385.1895 2942.6316"
   version="1.1"
   xml:space="preserve"
   style="clip-rule:evenodd;fill-rule:evenodd;stroke-linejoin:round;stroke-miterlimit:2"
   id="svg5353"
   xmlns="http://www.w3.org/2000/svg"
   xmlns:svg="http://www.w3.org/2000/svg"><defs
   id="defs5353" />&#10;    <g
   id="vectorly-UNI-iron"
   style="stroke:none;stroke-width:0.2"
   transform="matrix(4.9999999,0,0,4.9999999,-12064.606,-52673.427)"><path
     d="m 2568.2448,10784.212 c -1.88,0.4 -3.77,-0.7 -4.23,-2.6 -0.46,-1.9 0.7,-3.8 2.58,-4.3 0,0 13.61,-5.3 31.4899,-11.2 4.07,-1.4 8.34,-2.7 12.74,-3.9 2.83,-0.9 5.68,-1.7 8.58,-2.3 7.41,-1.7 14.8799,-3 21.8199,-4.1 18.57,-3.1 33.1099,-4.7 33.1099,-4.7 1.88,-0.4 3.78,0.7 4.24,2.6 0.45,1.9 -0.7,3.8 -2.58,4.2 0,0 -13.6399,5.3 -31.5399,11.1 -6.69,2.2 -13.91,4.5 -21.2699,6.4 -2.88,0.8 -5.79,1.3 -8.67,1.9 -4.48,0.9 -8.88,1.7 -13.11,2.4 -18.6199,2.9 -33.1599,4.5 -33.1599,4.5 z"
     id="path2974"
     style="stroke:none;stroke-width:0.2" /><path
     d="m 2838.3141,10563.012 c -0.56,0.5 -1.13,1.1 -1.68,1.6 -16.1199,14 -44.6599,51.4 -74.0898,123.3 -29.2399,70.5 -47.1599,119.9 -56.9298,154.3 -10.89,38.4 -11.91,57.3 -6.18,66 1.08,1.6 0.66,3.8 -0.94,4.9 -1.6,1.1 -3.79,0.7 -4.87,-0.9 -6.53,-9.4 -7.52,-30.2 3.19,-72.3 8.87,-35 25.6899,-85.2 53.2998,-157 23.46,-60.1 46.8999,-97.4 63.8699,-117.5 7.59,-9 14.07,-14.8 18.7599,-17.9 3.53,-2.3 6.5,-3.4 8.59,-3.7 3.55,-0.5 6.16,0.6 8.01,2 1.73,1.4 3.02,3.4 3.48,6.1 3.88,23.3 5,72.1 -2.08,137.8 -6.07,56.3 -18.29,125.2 -38.7899,201.2 -4.11,15.1 -13.21,29.4 -27.8499,37.5 -11.65,6.5 -26.83,9.2 -45.8499,4.9 -1.9,-0.4 -3.11,-2.3 -2.72,-4.2 0.4,-1.9 2.26,-3.1 4.15,-2.7 16.8499,3.3 30.1499,0.7 40.1999,-5.3 12.2099,-7.3 19.4699,-19.7 22.5499,-32.6 18.46,-75.9 28.4399,-144.4 33.5399,-200.2 5.18,-56.8 5.17,-100.4 2.34,-125.3 z m -1.19,-8.4 c 0,0 0,0 -0.01,-0.1 z m 5.06,5 c 0.51,0.1 1.75,0.6 1.52,0 -0.22,-0.6 -0.77,-0.5 -1.52,0 z"
     id="path2976"
     style="stroke:none;stroke-width:0.2" /><path
     d="m 2702.9245,10825.112 c -0.75,-1.8 0.08,-3.8 1.86,-4.6 1.78,-0.7 3.84,0.1 4.5999,1.9 0,0 7.02,11.6 15.25,27 1.86,3.5 3.71,7.2 5.54,11.1 1.17,2.4 2.35,4.9 3.38,7.5 2.65,6.5 4.91,13.2 6.95,19.4 5.47,16.5 8.96,29.6 8.96,29.6 0.7599,1.8 -0.08,3.9 -1.86,4.6 -1.78,0.8 -3.84,0 -4.59,-1.8 0,0 -6.98,-11.6 -15.09,-27.1 -3.03,-5.8 -6.23,-12.1 -9.09,-18.5 -1.12,-2.5 -2.08,-5.1 -3.03,-7.6 -1.48,-4 -2.86,-7.9 -4.08,-11.7 -5.3699,-16.7 -8.7999,-29.8 -8.7999,-29.8 z"
     id="path2978"
     style="stroke:none;stroke-width:0.2" /><path
     d="m 2736.1944,10729.812 c -0.7,-1.8 0.19,-3.9 1.99,-4.6 1.8,-0.7 3.84,0.2 4.54,2 0,0 9.1199,18 19.9399,41.5 2.46,5.4 4.95,11 7.41,16.9 1.58,3.7 3.18,7.5 4.62,11.3 3.7,9.8 7.02,19.7 10.03,28.9 8.0499,24.6 13.5799,44 13.5799,44 0.7,1.8 -0.19,3.8 -1.99,4.5 -1.8,0.7 -3.84,-0.1 -4.54,-1.9 0,0 -9.0699,-18.1 -19.7699,-41.6 -4.02,-8.8 -8.29,-18.4 -12.2,-28.1 -1.54,-3.8 -2.91,-7.7 -4.27,-11.5 -2.12,-5.9 -4.12,-11.8 -5.9299,-17.4 -7.94,-24.6 -13.41,-44 -13.41,-44 z"
     id="path2980"
     style="stroke:none;stroke-width:0.2" /><path
     d="m 2760.2243,10669.512 c -0.72,-1.8 0.15,-3.8 1.95,-4.6 1.79,-0.7 3.84,0.2 4.56,2 0,0 8.34,15.5 18.19,35.8 2.24,4.7 4.49,9.6 6.7099,14.6 1.43,3.3 2.87,6.5 4.17,9.9 3.3,8.5 6.22,17.1 8.88,25.2 7.08,21.4 11.85,38.4 11.85,38.4 0.72,1.8 -0.15,3.8 -1.94,4.5 -1.8,0.8 -3.84,-0.1 -4.56,-1.9 0,0 -8.3,-15.5 -18.03,-35.9 -3.6499,-7.7 -7.5199,-15.9 -11.0399,-24.4 -1.38,-3.3 -2.6,-6.6 -3.81,-10 -1.88,-5.1 -3.64,-10.2 -5.23,-15.1 -6.98,-21.5 -11.7,-38.5 -11.7,-38.5 z"
     id="path2982"
     style="stroke:none;stroke-width:0.2" /><path
     d="m 2782.6043,10622.912 c -0.64,-1.8 0.32,-3.8 2.15,-4.4 1.82,-0.7 3.82,0.3 4.46,2.1 0,0 7.0999,14.4 15.3499,33.3 1.88,4.3 3.74,8.8 5.57,13.5 1.17,2.9 2.36,6 3.39,9.1 2.64,7.9 4.9,15.9 6.93,23.3 5.44,19.8 8.91,35.5 8.91,35.5 0.63,1.8 -0.33,3.8 -2.16,4.5 -1.82,0.6 -3.82,-0.4 -4.46,-2.2 0,0 -7.05,-14.4 -15.18,-33.3 -3.05,-7.1 -6.27,-14.7 -9.13,-22.6 -1.12,-3 -2.08,-6.1 -3.03,-9.2 -1.48,-4.8 -2.85,-9.5 -4.07,-14 -5.3199,-19.9 -8.7299,-35.6 -8.7299,-35.6 z"
     id="path2984"
     style="stroke:none;stroke-width:0.2" /><path
     d="m 2795.7242,10600.712 c -0.69,-1.8 0.21,-3.9 2.01,-4.6 1.8,-0.7 3.84,0.2 4.53,2.1 0,0 7.35,13.5 15.94,31.5 1.95,4.1 3.89,8.4 5.81,12.8 1.22,2.9 2.46,5.8 3.55,8.7 2.7899,7.5 5.1899,15.2 7.3599,22.3 5.81,19 9.57,34 9.57,34 0.69,1.8 -0.21,3.8 -2.01,4.5 -1.8,0.7 -3.84,-0.2 -4.53,-2 0,0 -7.3,-13.6 -15.7699,-31.6 -3.17,-6.7 -6.53,-14 -9.53,-21.4 -1.18,-3 -2.2,-5.9 -3.2,-8.9 -1.57,-4.5 -3.03,-9 -4.33,-13.4 -5.7,-19 -9.4,-34 -9.4,-34 z"
     id="path2986"
     style="stroke:none;stroke-width:0.2" /><path
     d="m 2645.7146,10541.012 c -1.58,-1.1 -1.97,-3.3 -0.86,-4.9 1.11,-1.5 3.3,-1.9 4.88,-0.8 0,0 15.65,8.5 35.2499,20.4 4.47,2.7 9.09,5.6 13.76,8.6 3,2 6.04,4 8.98,6.1 7.5199,5.4 14.7899,11.1 21.4899,16.4 17.9,14.3 31.3399,26 31.3399,26 1.59,1.1 1.98,3.3 0.87,4.9 -1.11,1.6 -3.3,2 -4.89,0.9 0,0 -15.6199,-8.7 -35.1499,-20.6 -7.31,-4.4 -15.1699,-9.3 -22.8299,-14.5 -2.99,-2.1 -5.89,-4.2 -8.76,-6.4 -4.46,-3.3 -8.77,-6.7 -12.84,-9.9 -17.8299,-14.4 -31.2399,-26.2 -31.2399,-26.2 z"
     id="path2988"
     style="stroke:none;stroke-width:0.2" /><path
     d="m 2626.3347,10668.012 c -1.92,-0.3 -3.3,-2 -3.07,-3.9 0.23,-2 1.97,-3.3 3.89,-3.1 0,0 11.2999,-0.6 25.9999,-0.5 3.32,0.1 6.78,0.2 10.32,0.4 2.27,0.2 4.57,0.3 6.8499,0.7 5.84,0.8 11.59,2 16.92,3.1 14.33,3.2 25.1899,6.3 25.1899,6.3 1.93,0.3 3.3,2 3.08,3.9 -0.23,1.9 -1.97,3.3 -3.89,3.1 0,0 -11.3099,0.6 -25.9799,0.3 -5.45,-0.1 -11.32,-0.3 -17.1899,-0.9 -2.29,-0.2 -4.56,-0.6 -6.8,-1 -3.5,-0.6 -6.9,-1.2 -10.14,-2 -14.33,-3.2 -25.1799,-6.4 -25.1799,-6.4 z"
     id="path2990"
     style="stroke:none;stroke-width:0.2" /><path
     d="m 2908.724,10980.112 c 1.93,0.1 3.3699,1.8 3.1999,3.7 -0.16,2 -1.8599,3.4 -3.7899,3.2 -9.44,-0.5 -16.91,-5.5 -22.21,-14 -5.41,-8.6 -8.39,-21.2 -8.54,-36.6 -0.06,-8.5 1.22,-29.3 3.28,-55.8 1.29,-16.7 2.85,-35.6 4.6,-55.3 1.62,-18.2 3.33,-37.1 5.09,-55.2 1.49,-15.4 3.03,-30.4 4.39,-44.1 3.15,-31.8 5.49,-56.7 4.59,-64.9 -2.73,-26.4 -10.66,-52.5 -22.23,-72.5 -9.5399,-16.5 -21.4099,-28.9 -35.0899,-33.6 -1.85,-0.6 -2.88,-2.5 -2.31,-4.4 0.58,-1.8 2.55,-2.9 4.39,-2.3 15.53,4.4 29.7699,17.3 41.3099,35.2 13.32,20.7 22.97,48 27.1499,76 1.4,9.8 -0.25,43.5 -3.7399,84.5 -1.05,12.4 -2.32,25.4 -3.7,38.7 -1.34,12.8 -2.79,25.8 -4.3,38.6 -6.19,52.6 -12.6,101 -13.15,115.3 -0.59,13.3 1.19,24.4 5.47,32.2 3.53,6.4 8.71,10.5 15.59,11.3 z"
     id="path2992"
     style="stroke:none;stroke-width:0.2" /><path
     d="m 2905.564,10686.812 c -1.94,-0.1 -3.43,-1.8 -3.33,-3.7 0.09,-1.9 1.74,-3.4 3.67,-3.3 7.5299,-0.5 14.0299,6.6 18.2799,18.2 2.19,5.9 3.66,13.1 4.33,20.8 0.39,4.5 0.43,9.3 0.08,14 -0.21,2.9 -0.62,5.8 -1.17,8.6 -1.39,7.2 -3.44,13.9 -6.16,19.7 -5.78,12.4 -13.8699,20.5 -23.3599,20.4 -1.93,0.2 -3.63,-1.3 -3.8,-3.2 -0.17,-1.9 1.25,-3.6 3.18,-3.8 4.22,-0.8 6.85,-4.6 9.19,-9.4 2.98,-6.2 4.37,-14.5 5.3699,-23.3 0.54,-4.8 0.83,-9.8 1.12,-14.7 0.45,-7.9 0.76,-15.5 0.05,-22.1 -0.56,-5.4 -1.24,-10 -2.9399,-13.4 -1.2,-2.4 -2.36,-4.4 -4.51,-4.8 z"
     id="path2994"
     style="stroke:none;stroke-width:0.2" /><path
     d="m 2945.0939,10759.212 c -1.85,8.5 -3.66,16.4 -5.45,23.9 -8.19,34 -15.51,58.2 -21.84,75.5 -13.8799,38 -23.7599,44.2 -31.0899,48.2 -1.68,1 -3.82,0.4 -4.79,-1.3 -0.98,-1.6 -0.41,-3.8 1.26,-4.7 6.4,-4 14.21,-10.6 24.9,-45.5 5.3099,-17.3 11.1099,-41.4 17.8499,-75.2 3,-15 6.26,-31.9 9.62,-50.9 1.48,-8.1 4.46,-14.6 7.27,-18.1 2.77,-3.4 5.97,-4.8 8.5499,-5.1 3.55,-0.3 7.16,0.9 9.88,5.2 1.09,1.7 2.15,4.3 2.68,8.2 0.68,4.8 0.63,12.4 -0.8,23.3 -2.6,18.1 -5.06,34.7 -7.59,49.8 -5.0299,30.1 -9.9199,54.6 -14.3499,74.4 -14.93,66.7 -24.93,81.3 -24.93,81.3 -1.02,1.6 -3.19,2.1 -4.83,1.1 -1.6399,-1 -2.1399,-3.2 -1.1199,-4.8 0,0 8.2699,-14.8 19.6099,-79.9 3.45,-19.8 7.14,-44.2 11.13,-74.3 1.3,-9.7 2.66,-20.1 4.04,-31.1 z m 8.4899,-37.2 c 1.22,0 2.34,-0.2 1.68,-1 -0.56,-0.6 -1.13,-0.1 -1.68,1 z"
     id="path2996"
     style="stroke:none;stroke-width:0.2" /><path
     d="m 2956.2638,10715.012 c -0.45,1.6 -2.08,2.7 -3.84,2.5 -1.9199,-0.2 -3.2699,-2 -3.0199,-3.9 0,0 -0.15,-5.1 9.8299,-7.9 4.37,-1.3 11.25,-2.1 22.12,-1.7 3.97,0.2 7.47,1.7 10.3799,4.2 3.28,3 5.7,7.5 6.72,14 0.62,4 -0.29,21 -2.79,45.3 -1.91,18.5 -4.6099,41.4 -8.2199,65.8 -1.41,9.5 -2.99,19.3 -4.74,29.1 -2.58,14.5 -5.5,29.1 -8.58,43.3 -3.62,16.8 -7.5,33.1 -11.46,47.9 -8.95,33.6 -18.3599,60 -26.2899,70 -1.15,1.6 -3.35,1.9 -4.91,0.8 -1.55,-1.2 -1.89,-3.4 -0.74,-4.9 8.15,-11.9 15.98,-45.8 23.5999,-86.6 2.51,-13.4 4.99,-27.6 7.45,-42 2.39,-14 4.68,-28.2 7.04,-42.1 2.99,-17.6 5.99,-34.8 8.62,-50.5 6.56,-39.2 11.21,-69.4 10.68,-74.8 -0.28,-3.1 -0.94,-5.5 -2.2,-7.3 -1.29,-1.8 -3.09,-2.9 -5.25,-3.1 -5.97,-0.7 -10.61,-0.8 -14.24,-0.6 -6.36,0.3 -11,1.5 -10.16,2.5 z m 0,0 c 0.04,-0.2 0.07,-0.3 0.09,-0.5 0,0 0.22,0.7 -0.03,0.5 -0.03,0 -0.04,0 -0.06,0 z"
     id="path2998"
     style="stroke:none;stroke-width:0.2" /><path
     d="m 2913.8939,11028.212 c 1.77,-0.8 3.84,0 4.61,1.8 0.76,1.8 -0.05,3.8 -1.83,4.6 -10.9599,5.3 -26.0499,9.6 -41.8999,12.8 -24.1299,4.8 -49.9098,7 -65.0398,7 -5.1,-0.1 -19.8799,0.4 -36.6399,-0.4 -12.35,-0.5 -25.7399,-1.8 -37.1799,-4 -9.32,-1.8 -17.41,-4.3 -22.94,-7.5 -5.0499,-2.9 -8.3399,-6.4 -9.7099,-10.2 -2.11,-5.9 -3.12,-13.3 -3.17,-21.6 -0.16,-24.6 7.3,-57.6 3.23,-78 -0.45,-1.8 0.71,-3.7 2.6,-4.2 1.88,-0.4 3.7699,0.7 4.2199,2.6 5.64,20.3 0.96,54.2 2.76,79.1 0.48,6.6 1.42,12.4 3.37,17 0.26,0.6 0.97,1 1.68,1.5 1.14,0.8 2.56,1.4 4.14,2 4.43,1.8 10.17,3 16.54,4.1 10.9,1.8 23.5899,2.7 35.2899,3.3 16.5699,1 31.1899,1.4 36.2299,1.6 14.54,0.9 39.4199,0.2 62.9298,-2.7 15.29,-1.9 29.98,-4.7 40.8099,-8.8 z"
     id="path3000"
     style="stroke:none;stroke-width:0.2" /><path
     d="m 2986.8338,11002.112 c -0.02,0 -0.05,0.1 -0.1,0 -0.05,0 0.01,0 0.1,0 z m 0,0 c 0.02,-0.1 0.03,-0.3 0.05,-0.4 0.25,-0.7 0.33,-1.4 0.37,-2.2 0.1,-1.8 0,-3.6 -0.28,-5 -3.55,-1 -8.81,-1.7 -14.32,-2.2 -12,-1.2 -24.7299,-1.9 -24.7299,-1.9 -1.93,0.2 -3.6,-1.3 -3.73,-3.2 -0.12,-2 1.34,-3.6 3.27,-3.8 0,0 13.6199,-2.4 26.2699,-3.4 4.23,-0.3 8.31,-0.4 11.77,-0.2 4.25,0.1 7.6499,0.9 9.7399,1.8 2.74,1.1 4.16,3.1 5.02,4.7 1.42,2.8 2.79,7.5 2.93,12.3 0.09,3.3 -0.41,6.5 -1.58,9.3 -2.5,5.8 -7.33,10.3 -16.0999,9.6 -3.12,-0.4 -8.04,-0.5 -13.54,-0.5 -14.89,-0.2 -33.4799,0.1 -33.4799,0.1 -1.92,0.2 -3.66,-1.1 -3.89,-3.1 -0.23,-1.9 1.14,-3.6 3.06,-3.9 0,0 14.7099,-3.3 28.5599,-5.6 7.98,-1.3 15.6,-2.1 20.05,-2.2 0.33,0 0.93,0 0.85,-0.2 -0.03,-0.1 -0.18,-0.1 -0.29,0 z m -0.33,-9.3 c -0.01,0 -0.02,0 -0.03,0 0.01,0 0.02,0 0.03,0 z m 0.9,1.8 c 0.47,0.7 0.99,1.2 1.32,0.5 0.14,-0.3 -0.61,-0.3 -1.02,-0.4 -0.1,0 -0.2,-0.1 -0.3,-0.1 z"
     id="path3002"
     style="stroke:none;stroke-width:0.2" /><path
     d="m 2570.4648,11062.312 c 13.62,-2.2 27.7199,-4.6 40.3999,-7.1 19.2099,-3.8 35.0599,-7.6 39.8299,-11.7 2.57,-2.2 4.21,-4.3 4.47,-6.6 0.27,-2.3 -0.9,-4.6 -3.02,-6.9 -4.98,-5.5 -14.61,-10.9 -28.5599,-16.2 -8.92,-3.3 -22.25,-5 -35.9599,-5.8 -27.37,-1.6 -56.2499,0.3 -56.2499,0.3 -1.93,0.2 -3.61,-1.3 -3.76,-3.2 -0.15,-1.9 1.29,-3.6 3.22,-3.8 0,0 29.3299,-2.5 57.1899,-1.3 14.6899,0.6 28.9699,2.3 38.5699,5.7 20.7099,7.5 32.7899,16 36.5199,24 3.26,7 1.62,14.2 -6.09,21.1 -5.26,4.6 -22.65,9.9 -44.0599,14.5 -9.87,2.2 -20.62,4.2 -31.3299,6.2 2.19,1.6 4.48,3.2 6.8399,4.7 10.07,-2 21.96,-3.1 35.32,-2.8 15.3399,0.3 23.6199,5.9 26.5699,10.9 5.26,8.8 -0.72,22.9 -21.61,21.4 -14.0899,-1 -27.8899,-6.2 -40.1899,-13.3 -0.3299,-0.2 -0.6499,-0.4 -0.9699,-0.6 -7.3,1.8 -13.27,4 -17.68,6.4 -0.82,0.4 -1.68,1 -2.48,1.6 50.3999,8.3 118.6597,8.8 187.4495,5.8 102.6998,-4.5 206.6095,-16.9 254.4994,-25.4 9.09,-1.7 16.09,-3.1 20.54,-4.3 -0.38,-0.3 -0.81,-0.6 -1.27,-0.9 -2.44,-1.5 -5.68,-2.5 -9.4,-3.4 -16.3,-3.7 -40.4999,-3.4 -55.9399,-7.3 -11.5,-2.9 -18.5499,-8.6 -19.0399,-16.8 -0.14,-2.3 0.66,-4.8 3.27,-7 2.21,-1.9 6.4899,-3.9 12.4099,-5.8 26.21,-8 88.9398,-15.2 113.8297,-23.2 2.39,-0.7 4.96,-1.9 6.43,-2.7 -0.08,0 -0.15,-0.1 -0.22,-0.1 -1.13,-0.7 -2.56,-1.3 -4.25,-1.9 -6.0999,-2 -15.0399,-3.3 -24.7999,-4.1 -21.2399,-1.8 -46.2699,-1.4 -55.2499,-0.3 -1.92,0.3 -3.68,-1.1 -3.93,-3 -0.2499,-1.9 1.1,-3.7 3.02,-3.9 10.58,-1.5 42.9599,-2.6 66.2599,0 10.2,1.1 18.7199,3 23.3499,5.7 3.58,2.1 5.29,4.8 5.54,7.6 0.18,2 -0.57,4.1 -2.82,6.1 -2.1,1.8 -6.24,3.8 -11.94,5.7 -26.0299,8.3 -88.4997,16.6 -113.1997,25.1 -2.21,0.7 -4.58,1.9 -5.96,2.6 0.46,0.7 1.19,1.3 2.02,1.8 2.84,1.8 6.92,2.8 11.65,3.7 17,3 41.4399,2.4 56.5499,6.7 11.6099,3.2 18.2599,9.6 18.0799,19 -0.03,1.5 -0.94,5 -5.82,7.1 -3.38,1.4 -10.9599,3.4 -21.9799,5.6 -38.9599,7.9 -123.0897,19.7 -213.2495,26.2 -39.7399,2.9 -80.6498,4.8 -119.3597,4.8 -44.5199,0 -86.1498,-2.5 -119.8397,-8.2 -9.04,-1.6 -13.22,-5.9 -14.57,-9.7 -0.92,-2.6 -0.95,-5.5 0.25,-8.5 1.45,-3.6 5.44,-8.1 12.45,-11.9 2.64,-1.4 5.76,-2.8 9.33,-4.1 -2.65,-2 -5.17,-4.2 -7.53,-6.3 -24.5599,4.2 -46.0999,7.4 -52.5899,8.8 -11.3099,2.4 -19.1999,-1.1 -22.2199,-5.6 -3.45,-5.1 -2.89,-14 8.67,-22.2 7.35,-5.2 20.2399,-10.3 33.6899,-10.7 12.04,-0.3 24.4299,3.1 34.0499,12.8 1.51,1.5 3.14,3.1 4.87,4.7 z m -16.65,2.5 c -6.4299,-5.3 -14.3399,-7.2 -21.9999,-7.1 -10.65,0.2 -20.94,3.9 -26.8199,8 -2.05,1.4 -3.59,2.8 -4.59,4.1 -0.31,0.4 -0.61,1 -0.77,1.3 0.22,0.2 0.51,0.3 0.74,0.4 1.03,0.4 2.28,0.5 3.72,0.5 1.48,0.1 3.13,-0.1 4.9099,-0.5 5.81,-1.1 23.58,-3.5 44.8099,-6.7 z m 59.5999,23.5 c 5.31,1.7 10.76,2.8 16.2699,3.1 2.93,0.2 5.29,0 6.97,-0.7 -0.3,-0.1 -0.6,-0.2 -0.85,-0.4 -2.79,-1.3 -6.87,-2.1 -12.2599,-2.1 -3.49,-0.1 -6.87,0 -10.13,0.1 z m 24.2799,2.9 c -0.08,0.5 -0.07,0.8 0.2,0.6 0.22,-0.2 0.09,-0.4 -0.2,-0.6 z"
     id="path3004"
     style="stroke:none;stroke-width:0.2" /><path
     d="m 2470.365,11040.712 c 0.15,1.9 -1.28,3.6 -3.2099,3.8 -1.93,0.1 -3.62,-1.3 -3.78,-3.2 0,0 -3.97,-26.5 -6.59,-45.8 -1.5,-11 -2.51,-19.7 -2.51,-19.7 -0.31,-3.7 2.34,-7.1 6.06,-7.7 0,0 18.2999,-3.6 36.0899,-1.2 9.05,1.3 17.8599,4.2 24.4699,9 16.36,12.5 19.75,29.1 14.47,43.1 -5.12,13.6 -18.29,24.9 -34.5699,26.2 -1.92,0.3 -3.69,-1.1 -3.96,-3 -0.27,-1.9 1.07,-3.7 2.98,-3.9 12.3399,-2.5 21.5399,-12 24.4099,-22.9 2.51,-9.4 -0.68,-19.8 -12.01,-27.1 -4.8999,-3.3 -11.4599,-4.6 -17.9899,-5.5 -9.5,-1.4 -19.18,-1.2 -25.29,-0.9 0.13,3.4 0.29,7.7 0.43,12.5 0.58,19.5 1,46.3 1,46.3 z"
     id="path3006"
     style="stroke:none;stroke-width:0.2" /><path
     d="m 2416.5949,11003.129 c -1.9319,0.101 -3.5798,-1.398 -3.6698,-3.298 -0.09,-2 1.4078,-3.601 3.3398,-3.702 0,0 5.7565,-2.203 13.8897,-4.108 1.7906,-0.501 3.6418,-0.801 5.5839,-1.103 1.2341,-0.2 2.4885,-0.401 3.7427,-0.402 3.257,0 6.4429,0.397 9.4265,0.795 8.2429,1.096 14.2098,2.593 14.2098,2.593 1.932,-0.101 3.5698,1.398 3.6597,3.398 0.09,1.9 -1.3977,3.501 -3.3297,3.602 0,0 -5.7969,2.203 -13.8997,4.008 -2.9438,0.701 -6.0797,1.303 -9.3166,1.605 -1.2542,0.1 -2.5185,0 -3.7626,0 -1.9622,-0.1 -3.8334,-0.298 -5.6539,-0.598 -8.2833,-1.195 -14.2198,-2.792 -14.2198,-2.792 z"
     id="path3008"
     style="stroke:none;stroke-width:0.201146" /><path
     d="m 2416.5944,11033.954 c -1.9399,0.116 -3.5732,-1.371 -3.6625,-3.371 -0.09,-1.9 1.404,-3.513 3.3319,-3.629 0,0 6.1165,-2.15 14.6558,-4.221 1.8823,-0.415 3.8364,-0.732 5.8874,-1.048 1.2987,-0.211 2.6085,-0.322 3.9416,-0.333 3.4185,-0.128 6.7835,0.245 9.9304,0.619 8.653,1.13 14.9632,2.679 14.9632,2.679 1.9399,-0.116 3.5732,1.372 3.6625,3.372 0.09,1.9 -1.404,3.513 -3.3319,3.628 0,0 -6.1408,2.151 -14.6538,4.021 -3.1083,0.626 -6.4115,1.353 -9.831,1.581 -1.3219,0.111 -2.6429,0.122 -3.9507,0.03 -2.0713,-0.08 -4.0447,-0.267 -5.9686,-0.552 -8.6894,-1.129 -14.9743,-2.779 -14.9743,-2.779 z"
     id="path3010"
     style="stroke:none;stroke-width:0.220212" /></g>&#10;</svg>
