<?xml version="1.0" encoding="UTF-8" standalone="no"?>
<svg
   width="3292.0281"
   height="2942.6458"
   viewBox="0 0 3292.0281 2942.6458"
   version="1.1"
   xml:space="preserve"
   style="clip-rule:evenodd;fill-rule:evenodd;stroke-linejoin:round;stroke-miterlimit:2"
   id="svg5353"
   xmlns="http://www.w3.org/2000/svg"
   xmlns:svg="http://www.w3.org/2000/svg"><defs
   id="defs5353" />&#10;    <g
   id="vectorly-UNI-empty-box"
   style="stroke:none;stroke-width:0.2"
   transform="matrix(4.9999999,0,0,4.9999999,-293.79474,-4152.7355)"><path
     d="m 430.0781,857.06573 c 2.061,-2.806 4.48399,-5.539 7.30998,-8.122 14.46497,-13.22199 39.66391,-23.01899 80.7548,-16.12899 1.918,0.256 3.266,2.022 3.009,3.939 -0.257,1.917 -2.022,3.265 -3.93899,3.009 -28.90393,-2.882 -48.71888,2.15699 -61.92585,10.48899 -6.01799,3.796 -10.54797,8.302 -13.83897,12.984 2.004,1.912 3.80199,4.17899 5.30299,6.70799 6.81398,11.476 6.46499,26.90899 -7.41698,33.56699 -3.85999,1.841 -7.37498,1.775 -10.39497,0.418 -3.214,-1.444 -6.27799,-4.541 -7.79199,-9.514 -1.02199,-3.356 -1.39799,-7.85399 -0.82699,-12.91999 -1.668,3.786 -2.983,8.31 -4.07299,13.34799 -2.338,10.803 -3.42799,23.81099 -3.60299,37.65199 -0.424,33.59098 4.56798,71.891 12.92096,95.561 0.705,1.8 -0.185,3.84 -1.98699,4.54 -1.801,0.71 -3.83599,-0.18 -4.54099,-1.98 -10.28997,-23.9 -18.59795,-63.13002 -20.04995,-97.919 -0.751,-18.008 0.452,-34.81999 3.75199,-47.77898 2.23299,-8.768 5.60699,-15.863 9.76398,-20.83899 5.35398,-6.241 11.63597,-8.134 17.57495,-7.013 z m 4.38199,23.33099 c -0.143,1.01 -0.234,1.993 -0.277,2.943 -0.087,1.923 0.073,3.676 0.393,5.188 0.004,0.015 0.007,0.031 0.01,0.048 1.731,-2.203 1.17,-5.348 -0.126,-8.179 z m 0.409,9.59099 c 0.147,0.626 0.329,1.084 0.581,0.805 0.326,-0.36 -0.013,-0.652 -0.581,-0.805 z m -2.21399,0.14 c -10e-4,10e-4 -0.003,0.002 -0.005,0.003 0.002,-10e-4 0.004,-0.002 0.005,-0.003 z"
     id="path130"
     style="stroke:none;stroke-width:0.2" /><path
     d="m 185.86671,966.35568 c 5.28299,-5.36999 13.04397,-9.23999 23.53594,-9.20999 7.52498,0.2 15.53896,3.26 23.04394,9.07999 11.47897,8.89 22.23895,24.03999 28.77993,41.55002 8.45698,22.64 10.12198,48.9499 -0.987,69.5299 -0.84199,1.74 -2.93899,2.47 -4.68098,1.63 -1.742,-0.84 -2.472,-2.94 -1.63,-4.68 8.18398,-19.05 4.19399,-41.9999 -4.74499,-61.4799 -5.58598,-12.17 -13.24497,-22.90003 -21.50795,-30.34002 -6.12398,-5.52 -12.44196,-9.26 -18.55395,-9.3 -5.04799,-0.14 -8.94398,1.36 -11.72597,3.75 0.993,1.42 1.832,2.83 2.51599,4.22 2.354,4.78 2.65,9.40999 1.754,12.83999 -1.321,5.05 -5.13199,8.50003 -11.86097,8.79003 -5.06899,0.21 -8.85898,-2.52 -11.12497,-7.15003 -2.196,-4.49 -2.375,-11.86999 0.55399,-19.09999 0.034,-0.08 0.068,-0.16 0.102,-0.25 -4.12699,-2.83 -9.46797,-4.81 -15.90196,-4.84 -8.47798,-0.05 -18.59195,2.94 -30.19092,10.94 -1.543,1.17 -3.74299,0.86 -4.90999,-0.68 -1.168,-1.54 -0.864,-3.74 0.678,-4.91 22.27994,-18.44999 41.2579,-17.80999 53.94487,-11.91 1.00899,0.47 1.97899,0.98 2.91099,1.52 z m 5.66598,22.67999 c -0.023,0.41 0.037,0.67 0.309,0.56 0.395,-0.17 0.155,-0.38 -0.309,-0.56 z m -2.26999,-0.08 c -0.051,0.09 -0.099,0.18 -0.164,0.23 -0.241,0.2 -0.827,0.79 -0.467,0.83 0.627,0.08 0.777,-0.35 0.631,-1.06 z"
     id="path132"
     style="stroke:none;stroke-width:0.2" /><path
     d="m 236.75458,1230.7256 c -0.764,1.78 -2.82699,2.6 -4.60399,1.84 -1.77799,-0.77 -2.59999,-2.83 -1.83599,-4.61 0,0 8.00198,-19.95 25.97993,-42.17 7.82398,-9.67 17.55196,-19.72 29.28593,-28.78 -16.16596,-9.71 -56.65886,-34.1 -92.61277,-56.17 -27.39993,-16.83 -52.13787,-32.33 -61.79185,-38.4 -7.51898,4.98 -23.90294,16.43 -38.204901,30.61 -7.096983,7.03 -13.742966,14.69 -18.343955,22.62 l 136.864656,106.2 c 1.551,1.15 1.872,3.35 0.716,4.9 -1.15599,1.55 -3.35399,1.87 -4.90498,0.72 l -145.732644,-104.27 c -2.621993,-1.96 -3.536991,-5.47 -2.201994,-8.45 4.824988,-11.2 13.376967,-22.33 22.944943,-32.25 20.128955,-20.85 44.598885,-36.2899 44.598885,-36.2899 2.589,-1.61 5.87299,-1.61 8.45698,0.02 0,0 30.90093,19.3599 65.67384,41.7399 45.55889,29.33 97.79876,63.76 97.79876,63.76 1.63299,1.02 2.63199,2.81 2.65199,4.74 0.019,1.93 -0.943,3.74 -2.55499,4.79 -14.48397,9.1 -26.27594,20.04 -35.55291,30.51 -18.04996,20.38 -26.63094,38.94 -26.63094,38.94 z"
     id="path134"
     style="stroke:none;stroke-width:0.2" /><path
     d="m 111.74689,1154.4756 c 0.02,-1.94 1.607,-3.49 3.54099,-3.47 1.935,0.02 3.48899,1.61 3.46799,3.54 0,0 1.852,64.03 3.345,101.19 0.496,12.35 0.80999,21.54 1.33699,23.83 l 147.68464,126.4899 c 1.52299,1.19 1.79099,3.4 0.598,4.92 -1.193,1.52 -3.398,1.79 -4.92099,0.6 0,0 -32.31892,-23.25 -67.48084,-49.89 -14.99596,-11.36 -30.49392,-23.32 -44.21589,-34.35 -7.63398,-6.14 -14.70196,-12.01 -20.83394,-17.3 -9.12198,-7.88 -16.20296,-14.54 -20.24195,-18.8499 -3.69199,-3.95 -5.27199,-7.13 -5.53599,-8.51 -0.609,-3.31 -0.819,-19.51 -0.325,-39.48 0.928,-37.51 3.58099,-88.72 3.58099,-88.72 z"
     id="path136"
     style="stroke:none;stroke-width:0.2" /><path
     d="m 294.91644,1153.1556 c 0,0 87.50178,-24.85 175.10756,-49.4 87.59879,-24.54 175.27757,-48.76 175.27757,-48.76 1.407,-0.38 2.89299,-0.35 4.28099,0.09 2.53599,0.79 7.11698,4.14 12.11797,9.79 8.48698,9.58 19.91795,26.1 26.91293,39.95 4.73499,9.37 7.22698,17.86 6.82898,22.92 -0.44399,5.65 -3.27599,9.17 -7.73898,10.8 -4.82098,1.74 -50.70087,17.56 -107.28873,35.96 -53.06187,17.26 -115.53871,36.78 -162.0756,50.01 -28.79993,8.18 -51.58187,13.88 -62.45484,15.22 -4.50699,0.56 -7.54198,0.23 -8.90898,-0.38 -1.589,-0.71 -2.515,-1.75 -3.01999,-2.86 -6.78899,-14.9 -14.90897,-28.73 -22.64295,-40.46 -14.74396,-22.36 -28.05393,-37.1 -28.05393,-37.1 -0.838,-0.9 -1.144,-2.18 -0.804,-3.36 0.339,-1.18 1.273,-2.1 2.462,-2.42 z m 387.29304,-29.62 c 0.005,-0.01 0.011,-0.01 0.016,-0.01 -0.005,0 -0.011,0 -0.016,0.01 z m -330.51818,106.54 c 1.90499,-0.2 5.69598,-0.66 9.44697,-1.48 22.43695,-4.91 69.52483,-19.88 120.9377,-36.9 33.46592,-11.08 68.73683,-23.06 100.23975,-33.8 47.09689,-16.05 85.73279,-29.37 96.99676,-33.33 -1.95799,-10.19 -13.20996,-28.46 -22.92694,-41.55 -3.38099,-4.56 -6.58298,-8.49 -9.24198,-11.18 -0.38699,-0.4 -0.85399,-0.82 -1.28799,-1.21 -16.97396,4.41 -94.84077,24.59 -172.77757,44.53 -74.93782,19.17 -149.92363,38.11 -170.70658,43.35 5.28599,5.93 15.20296,17.58 25.89294,32.8 7.91298,11.26 16.23095,24.47 23.42694,38.77 z"
     id="path138"
     style="stroke:none;stroke-width:0.2" /><path
     d="m 629.93661,1305.9955 c 0.424,-2.59 1.09899,-7.02 1.50799,-11.3 3.96999,-41.5399 7.15599,-148.9699 7.15599,-148.9699 0.027,-1.93 1.61999,-3.48 3.55399,-3.46 1.93399,0.03 3.48299,1.62 3.45599,3.56 0,0 0.184,107.98 -2.621,149.8099 -0.52299,7.81 -1.23799,13.48 -1.96399,16.04 -1.227,4.34 -4.27399,5.4 -5.63399,5.63 -12.79996,2.11 -37.3359,8.83 -67.60483,17.69 -39.7389,11.65 -89.17078,27.24 -134.88266,41.63 -18.92896,5.96 -37.23991,11.65 -53.93187,16.85 -46.79988,14.59 -80.9098,25.25 -80.9098,25.25 -2.20299,0.71 -4.61599,0.33 -6.49098,-1.03 -1.875,-1.36 -2.984,-3.54 -2.984,-5.85 0,0 0.299,-33.69 0.89,-76.59 1.035,-75.2199 2.84099,-178.7099 2.84099,-178.7099 0,-1.94 1.57,-3.51 3.505,-3.51 1.93399,0 3.50499,1.57 3.50499,3.51 0,0 1.80599,103.49 2.84099,178.7099 0.396,28.8 0.661,53.45 0.793,66.54 15.85096,-5.33 50.26987,-16.78 91.45377,-29.82 31.64292,-10.02 67.29883,-20.91 101.49675,-30.95 57.02586,-16.74 110.06173,-30.98 134.02367,-35.03 z m 3.62299,-0.57 c 0.008,0 0.015,0 0.022,0 -0.007,0 -0.014,0 -0.022,0 z"
     id="path140"
     style="stroke:none;stroke-width:0.2" /><path
     d="m 373.90124,1232.0656 c -1.073,-1.61 -0.637,-3.79 0.972,-4.86 1.61,-1.07 3.78799,-0.63 4.86099,0.97 4.53899,6.16 9.62997,10.06 15.38896,11.7 5.57299,1.58 11.72497,0.75 18.61195,-2.07 2.604,-1.06 15.22597,-5.86 33.51892,-12.4 9.79698,-3.51 21.20895,-7.51 33.57592,-11.7 7.22198,-2.45 14.76096,-4.96 22.50694,-7.41 7.41998,-2.35 15.02696,-4.64 22.67794,-6.88 15.40197,-4.52 30.95693,-8.87 45.64189,-12.86 29.32193,-7.96 55.08086,-14.38 69.09183,-17.49 1.869,-0.49 3.78999,0.62 4.28499,2.49 0.496,1.87 -0.62,3.79 -2.48999,4.29 -15.75297,4.84 -46.52489,15.76 -80.5348,27.57 -10.55998,3.67 -21.42095,7.4 -32.25092,11.04 -7.24699,2.43 -14.46797,4.84 -21.58595,7.09 -12.69797,4 -24.99794,7.69 -36.23591,11 -29.04193,8.54 -50.91987,14.5 -54.45987,15.64 -9.57297,2.99 -17.94795,3.14 -25.23493,0.34 -7.12499,-2.74 -13.31597,-8.09 -18.33996,-16.46 z"
     id="path142"
     style="stroke:none;stroke-width:0.2" /><path
     d="m 633.8086,1308.1255 c 6.26698,-6.29 19.05995,-27.0499 32.40092,-50.1199 16.15196,-27.92 32.88092,-59.26 38.8489,-74.39 0.763,-1.93 1.392,-3.95 1.734,-5.11 -3.81499,-3.44 -11.03798,-8.45 -18.85596,-13.59 -15.59096,-10.24 -33.51691,-20.86 -33.51691,-20.86 -1.688,-0.95 -2.291,-3.09 -1.345,-4.78 0.945,-1.68 3.08299,-2.29 4.76999,-1.34 0,0 23.34494,12.35 40.5209,22.9 7.70398,4.73 14.16696,9.18 17.08695,12.04 0.724,0.72 1.337,1.77 1.619,3.25 0.263,1.38 -0.003,4.14 -1.155,7.95 -3.01099,9.97 -12.15097,30.44 -23.17494,52.55 -12.01997,24.11 -26.23793,50.17 -36.67591,66.6499 -5.07199,8.01 -9.44497,13.85 -12.27997,16.57 -0.634,0.61 -3.19299,2.25 -7.69898,4.21 -8.82198,3.84 -27.44593,11.14 -51.71587,19.7 -19.63995,6.93 -43.00189,14.67 -67.72183,22.38 -22.27995,6.96 -45.67589,13.83 -68.47883,20.01 -57.80886,15.67 -111.79473,26.75 -134.61567,23.29 -1.91799,-0.25 -3.27199,-2.01 -3.02099,-3.93 0.251,-1.92 2.01199,-3.27 3.92999,-3.02 17.96195,1.96 55.05086,-6.48 97.88176,-18.74 30.29592,-8.68 63.37184,-19.38 94.61376,-29.93 22.37095,-7.55 43.77189,-15.08 62.52785,-21.71 27.56193,-9.76 49.34387,-17.67 59.62385,-21.92 1.95999,-0.81 3.97999,-1.73 4.69799,-2.06 z m 74.43081,-128.2099 c 10e-4,0 0.002,0 0.002,0 0,0 -10e-4,0 -0.002,0 z m -74.99181,128.7499 c -0.001,0 -0.003,0 -0.005,0.01 0.002,-0.01 0.004,-0.01 0.005,-0.01 z"
     id="path144"
     style="stroke:none;stroke-width:0.2" /><path
     d="m 656.13254,1140.9956 c 0,0 46.68189,26.14 55.71486,35.4 4.98799,5.11 -57.75485,123.1699 -73.33281,137.8599 -5.88999,5.56 -266.26834,99.32 -324.5062,91.7 63.30984,-20.41 272.78432,-87.32 320.47821,-94.59 3.96699,-0.61 6.25198,-92.2299 7.15898,-138.9099 -45.40089,12.03 -215.62647,66.79 -226.03944,70.54 -16.41696,5.91 -29.15893,1.57 -38.78791,-12.87 59.09286,-15.1 195.28352,-60.55 265.28735,-84.35 5.03598,-1.71 9.72897,-3.31 14.02696,-4.78 z"
     id="path146"
     style="stroke:none;stroke-width:0.2" /><path
     d="m 630.8476,1306.9955 c 0.354,-2.12 0.941,-5.91 1.28,-9.61 2.365,-25.7699 3.97999,-82.6299 4.81099,-118.9299 -18.72795,5.15 -50.78287,14.83 -84.73979,25.3 -61.34685,18.93 -128.89068,40.45 -135.32966,42.74 -9.11398,3.25 -17.20396,3.56 -24.33694,1.15 -7.12299,-2.4 -13.36697,-7.54 -18.66396,-15.55 -0.638,-0.96 -0.772,-2.17 -0.36,-3.24 0.411,-1.08 1.318,-1.88 2.432,-2.17 25.21193,-6.32 64.47284,-18.11 106.64173,-31.35 56.69086,-17.81 118.62471,-38.26 158.79461,-51.71 l 14.04696,-4.7 c 0.589,-0.21 1.236,-0.15 1.779,0.16 0,0 23.04994,12.75 39.9869,23.57 7.41898,4.74 13.67397,9.14 16.46896,11.97 0.54,0.55 1.041,1.53 1.005,3.04 -0.029,1.22 -0.432,3.13 -1.223,5.6 -3.13899,9.84 -12.56897,29.98 -23.78494,51.75 -17.89196,34.74 -40.3749,73.5499 -48.87688,81.6499 -0.945,0.9 -8.02798,4.16 -19.71495,8.72 -33.42192,13.04 -106.07874,38.88 -173.48057,58.73 -57.49786,16.94 -111.25872,29.34 -134.17367,26.42 -2.14099,-0.28 -3.80199,-2.01 -3.99799,-4.16 -0.196,-2.15 1.125,-4.15 3.18099,-4.81 41.0349,-13.31 143.44365,-46.36 223.47245,-69.8 41.3549,-12.11 76.77981,-21.62 94.78276,-24.77 z m 2.894,-0.48 c 0.002,0 0.004,0 0.006,0 -0.002,0 -0.004,0 -0.006,0 z m 7.21398,-0.19 c 8.65698,-11.53 22.90894,-35.7199 36.22591,-60.1399 13.75197,-25.22 26.46893,-50.7 30.89092,-63.07 0.803,-2.25 1.304,-4.64 1.463,-5.45 -3.58899,-3.45 -11.68397,-8.9 -20.51495,-14.48 -13.77397,-8.71 -29.34693,-17.65 -33.10892,-19.8 l -13.07697,4.53 c -40.0669,13.83 -101.84074,34.88 -158.3996,53.22 -39.4419,12.79 -76.35181,24.26 -101.61875,31.07 3.57799,4.2 7.55498,7.07 12.01697,8.54 5.73899,1.89 12.21697,1.4 19.50895,-1.26 6.43799,-2.35 73.96382,-24.46 135.31767,-43.86 37.9089,-11.98 73.46481,-22.93 90.81477,-27.59 1.387,-0.37 2.86599,-0.06 3.99499,0.83 1.128,0.88 1.775,2.25 1.748,3.68 -0.609,35.89 -1.959,98.3 -4.36399,125.7199 -0.276,3.14 -0.58,5.85 -0.898,8.06 z m -26.08794,14.15 c -19.15595,4.61 -45.97688,12.12 -75.99581,20.89 -61.90584,18.08 -137.30466,41.63 -187.23653,57.45 25.59893,-4.29 58.88485,-12.76 93.61976,-22.71 64.89284,-18.58 134.73067,-42.55 169.61258,-55.63 z"
     id="path147"
     style="stroke:none;stroke-width:0.2" /><path
     d="m 648.76856,1059.1956 c 1.751,0.82 2.50499,2.91 1.682,4.67 -0.822,1.75 -2.912,2.5 -4.66199,1.68 0,0 -30.63993,-12.83 -66.94884,-28.4999 -14.45296,-6.24 -29.78392,-12.92 -44.42389,-19.45 -13.20696,-5.89 -25.85893,-11.6 -36.77991,-16.71 -10.59097,-4.95003 -19.57695,-9.28003 -25.97193,-12.39003 -0.44,12.82003 -1.206,34.26003 -2.099,55.70003 -1.40899,33.8299 -3.13399,67.6099 -3.13399,67.6099 -0.022,1.94 -1.60999,3.49 -3.54499,3.47 -1.93399,-0.03 -3.48599,-1.61 -3.46399,-3.55 0,0 -0.955,-33.81 -1.594,-67.6599 -0.63799,-33.84 -0.95899,-67.66002 -0.95899,-67.66002 0.029,-2.59 1.37099,-4.98 3.56099,-6.36 2.18999,-1.37 4.92799,-1.53 7.26798,-0.44 0,0 15.24896,6.7 36.72491,16.83 10.90397,5.14999 23.37894,11.23999 36.34391,17.65002 14.37196,7.1 29.29793,14.63 43.32689,21.78 35.24391,17.94 64.67484,33.3299 64.67484,33.3299 z"
     id="path148"
     style="stroke:none;stroke-width:0.2" /><path
     d="m 131.91084,1056.4056 c -1.88499,0.43 -3.76699,-0.75 -4.19999,-2.63 -0.433,-1.89 0.747,-3.77 2.632,-4.2 0,0 43.50189,-11.9999 99.21875,-26.3699 12.75197,-3.28 26.15193,-6.62 39.8229,-9.95 8.79398,-2.14 17.68996,-4.31 26.62394,-6.31 22.82294,-5.12 45.72288,-9.85003 66.92783,-14.17003 56.37586,-11.46999 100.74675,-19.70999 100.74675,-19.70999 1.88499,-0.43 3.76699,0.75 4.19999,2.64 0.433,1.88 -0.747,3.76 -2.63199,4.2 0,0 -43.5189,11.93999 -99.25876,26.19002 -20.96595,5.36 -43.63589,11.09 -66.40683,16.43 -8.91298,2.1 -17.86296,4.03 -26.70994,5.94 -13.75496,2.96 -27.26993,5.8 -40.1789,8.4 -56.40586,11.37 -100.78575,19.5399 -100.78575,19.5399 z"
     id="path150"
     style="stroke:none;stroke-width:0.2" /></g>&#10;</svg>
