<?xml version="1.0" encoding="UTF-8" standalone="no"?>
<svg
   width="2912.0149"
   height="2910.5798"
   viewBox="0 0 2912.0149 2910.5798"
   version="1.1"
   xml:space="preserve"
   style="clip-rule:evenodd;fill-rule:evenodd;stroke-linejoin:round;stroke-miterlimit:2"
   id="svg5353"
   xmlns="http://www.w3.org/2000/svg"
   xmlns:svg="http://www.w3.org/2000/svg"><defs
   id="defs5353" />&#10;    <g
   id="vectorly-UNI-ransel-bag"
   style="stroke:none;stroke-width:0.2"
   transform="matrix(4.9999999,0,0,4.9999999,-20989.505,-8209.2543)"><path
     d="m 4543.5528,2191.6064 c 0,0 0,0 0,0 0.11,0.03 0.14,-0.1 0.15,-0.29 0.02,-0.03 0.03,-0.05 0.05,-0.08 -0.01,0.02 -0.02,0.03 -0.05,0.06 0.01,-0.23 -0.01,-0.53 0.03,-0.77 0.23,-1.75 0.4,-4.51 0.53,-8.1 0.68,-18.69 -0.06,-58.85 -1.7,-94.97 -1.01,-22.09 -2.35,-42.65 -4.08,-55.74 -0.46,-3.48 -0.84,-6.32 -1.28,-8.33 -1.23,-0.08 -2.78,-0.15 -4.16,-0.16 -15.9799,-0.1 -48.5999,2.8 -68.6798,5.94 -3.93,0.61 -8.68,0.61 -11.44,1.12 0.36,-0.36 0.51,-0.71 0.05,-0.91 -0.41,-0.17 -0.61,0.26 -0.71,1.05 -1.23,0.31 -1.88,0.78 -1.57,1.57 0.13,0.32 0.5,-0.37 0.65,-0.5 0.17,-0.14 0.52,-0.37 0.88,-0.63 -0.11,1.32 -0.05,3.29 -0.22,5.05 -1.67,17.57 -1.6,55.72 -0.57,90 0.65,21.2 1.6,40.91 2.94,53.38 0.6,5.53 0.89,9.4 1.6,10.77 0.5,0.24 2.8,1.32 4.77,1.76 5.17,1.15 12.34,1.71 19.99,1.93 20.6299,0.6 44.6498,-1.22 44.6498,-1.22 1.92,-0.19 3.64,1.21 3.83,3.14 0.2,1.92 -1.21,3.64 -3.13,3.83 0,0 -30.8299,3.83 -53.0898,3.39 -8.06,-0.16 -15.05,-0.97 -19.4,-2.5 -3.06,-1.07 -5.09,-2.7 -6.25,-4.35 -1.47,-2.09 -3.42,-10.23 -4.91,-22.15 -2.5199,-20.12 -4.8399,-52.04 -5.9799,-81.18 -1.04,-26.37 -1.05,-50.47 0.2,-61.77 0.47,-4.22 1.33,-7.15 2.08,-8.61 0.69,-1.36 1.54,-2.2799 2.29,-2.9399 1.6499,-1.41 6.9899,-3.58 14.9099,-5.03 11.73,-2.14 30.3799,-4.13 47.4199,-5.23 15.59,-1 29.8599,-1.22 36.4499,-0.42 5.71,0.69 8.52,3.44 9.26,4.79 1.3,2.36 2.73,8.1799 3.55,16.5799 1.31,13.44 1.98,34.48 2.04,57.08 0.11,36.45 -1.23,76.93 -2.85,95.72 -0.6,6.89 -1.52,11.22 -2.15,12.14 -1.05,1.63 -3.22,2.1 -4.85,1.05 -1.5,-0.97 -2.02,-2.9 -1.25,-4.47 z m -90.6298,-161.32 c -0.19,0.19 -0.45,0.39 -0.7,0.58 0.01,-0.16 0.03,-0.3 0.04,-0.44 0.21,-0.05 0.43,-0.1 0.66,-0.14 z m 90.6298,161.32 c -0.14,-0.05 0.05,-0.21 0.15,-0.31 0,0 0,0.01 0,0.02 -0.05,0.09 -0.11,0.19 -0.15,0.29 z"
     id="path1084"
     style="stroke:none;stroke-width:0.2" /><path
     d="m 4271.1735,1967.9965 c -0.21,0.45 -0.46,1.02 -0.68,1.55 -0.95,2.35 -2.05,5.64 -3.28,9.63 -4.33,13.94 -9.94,36.25 -15.01,58.6699 -5.04,22.35 -9.48,44.8 -11.15,59.19 -0.5,4.27 -0.5499,9.09 -0.5499,10.65 1.4999,0.67 4.0799,1.34 6.1199,2.14 10.78,4.26 28.42,9.07 46.2199,13.27 17.94,4.23 36.0299,7.84 47.6099,9.38 2.72,0.35 5.68,0.56 7.54,0.66 0.58,-1.45 1.4,-3.58 2.02,-5.66 3.01,-9.99 6.65,-26.2 10.26,-43.76 7.4799,-36.33 14.7899,-78.3299 15.6099,-83.6899 0.25,-1.92 2.01,-3.28 3.92,-3.03 1.92,0.25 3.28,2.01 3.03,3.93 -0.73,6.91 -9.07,74.1599 -16.56,112.9899 -2.37,12.29 -4.7899,21.84 -6.7199,26.18 -1.44,3.25 -3.4,4.83 -4.65,5.48 -1.41,0.74 -5.21,1.41 -10.85,1.07 -13.42,-0.8 -41.6999,-5.58 -66.7098,-11.43 -15.74,-3.68 -30.18,-7.84 -38.9999,-11.52 -6.72,-2.8 -10.73,-6.15 -12.08,-8.43 -1,-1.71 -1.98,-5.19 -1.84,-10.24 0.29,-10.62 4.32,-32.25 9.88,-55.65 6.13,-25.78 14.0399,-53.7499 19.9299,-71.1899 3.59,-10.64 6.94,-17.68 8.61,-19.28 1.27,-1.23 3.93,-2.63 8.09,-2.87 4.31,-0.26 11.1099,0.28 19.2899,1.45 32.9499,4.72 89.5998,18.9 89.5998,18.9 1.89,0.43 3.07,2.31 2.65,4.2 -0.43,1.88 -2.31,3.07 -4.2,2.64 0,0 -35.8499,-7.25 -67.0498,-11.87 -14.06,-2.09 -27.15,-3.63 -35.4199,-3.68 -1.62,-0.01 -3.53,0.19 -4.63,0.32 z m -30.9199,139.5799 c -0.08,-0.17 -0.15,-0.33 -0.2,-0.42 -0.16,-0.26 -0.35,-1.11 -0.62,-0.82 -0.41,0.43 -0.02,0.83 0.82,1.24 z"
     id="path1086"
     style="stroke:none;stroke-width:0.2" /><path
     d="m 4358.7133,1975.4165 c 0.39,-1.89 2.24,-3.12 4.1399,-2.73 1.9,0.39 3.12,2.24 2.73,4.14 0,0 -2.43,21.64 -6.5099,49.2199 -0.93,6.3 -2.01,12.88 -3.2,19.57 -0.76,4.31 -1.53,8.66 -2.46,12.98 -2.38,11.05 -5.15,21.99 -7.77,32.12 -6.98,26.98 -13.2,47.85 -13.2,47.85 -0.38,1.9 -2.24,3.12 -4.13,2.73 -1.9,-0.39 -3.12,-2.24 -2.73,-4.14 0,0 2.49,-21.63 6.68,-49.19 1.57,-10.33 3.33,-21.48 5.49,-32.58 0.84,-4.34 1.84,-8.64 2.83,-12.9 1.55,-6.62 3.14,-13.09 4.76,-19.25 7.1,-26.9599 13.37,-47.8199 13.37,-47.8199 z"
     id="path1088"
     style="stroke:none;stroke-width:0.2" /><path
     d="m 4242.7335,2174.7364 c 1.19,1.53 0.9,3.73 -0.63,4.92 -1.53,1.18 -3.7299,0.9 -4.9099,-0.63 -3.01,-2.61 -5.23,-7.99 -6.7,-16.16 -0.56,-3.1 -0.87,-6.54 -0.91,-10.42 -0.02,-2.41 0.09,-4.96 0.46,-7.62 0.33,-2.4 0.91,-4.85 1.58,-7.39 0.94,-3.51 2.07,-7.02 3.42,-10.78 1.25,-3.47 2.63,-6.83 4.13,-10.51 0.37,-1.9 2.2099,-3.14 4.1099,-2.76 1.9,0.37 3.14,2.21 2.77,4.11 -0.1,6.64 0.21,12.59 0.12,18.39 -0.06,4.25 -0.08,8.21 -0.4,11.91 -0.23,2.57 -0.71,4.96 -1.07,7.22 -0.41,2.59 -0.91,4.9 -1.25,7.09 -0.6,3.86 -1.21,6.89 -1.04,9.45 0.09,1.28 -0.08,2.34 0.32,3.18 z m 45.5799,-211.1599 c -0.6,1.84 -2.58,2.84 -4.42,2.24 -1.84,-0.61 -2.84,-2.59 -2.24,-4.43 2.33,-10.99 4.44,-21.61 7.06,-31.86 1.09,-4.3 2.3,-8.46 3.57,-12.53 0.87,-2.81 1.74,-5.57 2.76,-8.23 2.72,-7.12 5.73,-13.73 8.7,-19.93 5.4,-11.29 10.84,-20.85 15.49,-28.89 0.79,-1.77 2.8599,-2.56 4.6299,-1.77 1.76,0.8 2.55,2.87 1.76,4.64 -2.87,8.68 -5.6199,19.14 -9.1399,30.94 -1.94,6.5 -3.96,13.38 -6.42,20.48 -0.92,2.66 -2,5.31 -3.09,8 -1.59,3.92 -3.24,7.88 -5.03,11.89 -4.28,9.61 -9.03,19.26 -13.63,29.45 z"
     id="path1090"
     style="stroke:none;stroke-width:0.2" /><path
     d="m 4336.1133,1831.6165 c 3.22,1.62 6.49,3.39 9.8,5.25 4.51,2.54 9.06,5.25 13.61,7.97 10.0199,-3.15 18.8899,-4.25 26.8199,-3.34 7.76,0.89 14.35,4.1 20.1999,8.59 3.05,2.7 6.02,5.33 8.66,8.15 4.26,4.55 7.92,9.23 11.17,13.9 6.24,8.96 10.8,17.65 14.47,25.68 1,1.67 0.45,3.82 -1.21,4.81 -1.66,0.99 -3.81,0.45 -4.8,-1.21 -4.14,-5.43 -9.08,-10.93 -14.72,-16.83 -4.32,-4.52 -9.16,-8.98 -14.31,-13.74 -3.11,-2.87 -6.2399,-5.93 -9.6799,-8.87 -4.3,-4.34 -9.68,-7.04 -16.33,-8.38 -5.56,-1.12 -11.72,-1.69 -18.7899,-1.25 -0.63,0.67 -1.46,1.15 -2.4,1.36 -4.9,1.28 -10.08,3.04 -15.59,5.2 -7.06,2.76 -14.6,6.23 -22.6899,10.39 -4.71,2.38 -15.76,8.95 -28.37,14.67 -10.62,4.82 -22.3099,9 -32.2999,10.1 -14.96,1.65 -26.4399,-3.26 -30.3199,-16.92 -1.77,-6.65 -0.87,-13.52 2.58,-20.13 3.51,-6.71 9.5799,-13.34 17.4499,-18.95 15.69,-11.19 38.1099,-18.85 56.4799,-18.28 4.14,0.16 8.65,1.18 13.38,3.04 5.3499,2.1 11.0299,5.14 16.8899,8.79 z m -3.43,6.12 c -5.69,-2.86 -11.17,-5.18 -16.2699,-6.66 -3.78,-1.09 -7.3,-1.63 -10.51,-1.46 -13.35,0.61 -28.6499,6.55 -40.9999,14.57 -7.71,5 -14.18,10.88 -17.96,17.04 -2.38,3.86 -3.6,7.79 -2.45,11.59 0.99,3.36 3.49,4.82 6.63,5.33 4.25,0.7 9.35,0.06 14.79,-1.15 19.2299,-4.29 41.8199,-16.01 49.0599,-19.16 7.1799,-3.04 13.9399,-5.65 20.3399,-7.75 3.8,-1.25 7.46,-2.34 10.98,-3.25 -1.53,-1.08 -3.07,-2.14 -4.59,-3.19 -3.05,-2.07 -6.05,-4.07 -9.02,-5.91 z"
     id="path1092"
     style="stroke:none;stroke-width:0.2" /><path
     d="m 4354.8633,2208.4064 c 0.47,-1.08 1.63,-3.81 2.58,-6.53 4.9499,-14.16 13.4899,-44.39 23.4599,-82.8 9.88,-38.06 20.9299,-84.16 31.1199,-130.6599 6.51,-29.7 12.72,-59.55 17.8,-87.62 10.58,-58.44 16.6299,-109 10.4,-133.5099 -3.4,-13.52 -11.68,-19.81 -21.26,-20.33 -10.5,-0.56 -22.0299,5.04 -30.0499,14.27 -10.65,12.26 -19.97,24.8399 -27.6499,36.0999 -14.97,21.95 -23.72,38.9 -23.72,38.9 -0.85,1.73 -2.96,2.45 -4.69,1.59 -1.74,-0.85 -2.45,-2.95 -1.6,-4.69 0,0 8.3,-17.62 22.84,-40.51 7.4899,-11.79 16.6499,-24.9499 27.1599,-37.8399 9.9,-12.14 24.6799,-19.37 38.1399,-19.05 14.14,0.34 27.1899,8.61 32.7499,28.38 5.26,18.8099 4.47,52.6299 -0.52,93.6999 -3.37,27.75 -8.5,58.91 -14.8999,90.9 -7.18,35.93 -15.87,72.9199 -24.67,107.4599 -10.3899,40.74 -21.0599,78.02 -29.6899,106.15 -6.99,22.77 -12.75,39.54 -16.06,47.39 -1.9,4.48 -3.83,6.79 -4.65,7.31 -2.0999,1.34 -5.0899,2.29 -8.8799,2.56 -6.81,0.49 -16.81,-0.98 -27.97,-3.72 -29.0899,-7.17 -66.4598,-22.54 -74.0998,-27.83 -1.61,-1.07 -2.05,-3.25 -0.97,-4.86 1.07,-1.61 3.25,-2.04 4.86,-0.97 6.62,4.24 35.6399,15.01 61.7399,21.64 11.0699,2.81 21.6099,4.86 29.6499,5.26 3.79,0.18 6.89,0.16 8.88,-0.69 z"
     id="path1094"
     style="stroke:none;stroke-width:0.2" /><path
     d="m 4357.6033,1849.1365 c -7.79,-5.11 -15.66,-10.23 -23.2,-14.46 0,0 19.52,-39.65 50.6799,-76.6699 17.8699,-21.23 52.1899,-25.78 61.0998,7.69 6.55,24.5999 1.74,75.2499 -8.3499,133.9199 -8.02,-13.42 -19.7,-28.87 -36.4999,-43.59 -10.22,-8.95 -24.67,-11.06 -43.7299,-6.89 z"
     id="path1096"
     style="stroke:none;stroke-width:0.2" /><path
     d="m 4360.6433,2209.8264 c 0,0.01 -0.01,0.01 -0.01,0.02 -0.06,0.12 0.07,0.17 0.28,0.21 0.07,0.06 0.13,0.13 0.18,0.19 -0.03,-0.04 -0.07,-0.1 -0.12,-0.17 0.26,0.04 0.6199,0.06 0.8999,0.13 2.17,0.52 5.69,0.97 10.27,1.4 23.82,2.2 75.4498,2.96 121.8997,1.02 28.15,-1.18 54.3599,-3.34 71.1698,-6.89 6.68,-1.42 11.68,-2.83 14.16,-4.79 5.53,-4.36 8.45,-10.11 10.07,-16.41 2.75,-10.7 1.88,-22.92 1.63,-34.07 -0.42,-24.14 -4.36,-76.23 -9.3,-134.5199 -3.77,-44.47 -8.05,-92.54 -12.81,-134.54 -4.27,-37.65 -8.7299,-70.41 -13.2199,-91.25 -2.15,-9.95 -4.05,-16.9999 -6.14,-20.0999 -3.86,-5.74 -8.21,-9.82 -13.89,-12.53 -5.25,-2.49 -11.52,-3.89 -19.3299,-4.53 l -90.6798,-7.1 c -1.93,-0.12 -3.4,-1.78 -3.28,-3.71 0.12,-1.94 1.79,-3.4 3.72,-3.28 l 90.8998,4.37 c 9.2499,0.49 16.6999,2.06 22.9899,4.84 7.49,3.31 13.37,8.37 18.59,15.68 3.12,4.37 6.7299,15.4499 10.2099,31.4399 6.24,28.64 12.9,73.83 18.74,122.95 4.53,38.19 8.67,78.74 11.73,115.6899 4.2099,50.78 6.4499,94.75 6.6399,116.39 0.05,12.44 0.51,26.08 -2.8099,37.95 -2.56,9.15 -7.2,17.34 -15.42,23.54 -3.56,2.68 -10.45,5.19 -19.93,6.95 -17.3899,3.21 -44.4299,4.8 -73.4298,5.17 -46.9499,0.6 -99.0397,-1.87 -123.0097,-4.86 -6.28,-0.78 -10.7399,-1.64 -12.8699,-2.45 -1.31,-0.51 -2.14,-1.12 -2.58,-1.62 -1.29,-1.43 -1.18,-3.65 0.26,-4.95 1.28,-1.15 3.17,-1.19 4.49,-0.17 z m 0,0 c 0.09,-0.12 0.22,0.07 0.33,0.25 -0.02,-0.01 -0.04,-0.01 -0.06,-0.02 -0.09,-0.08 -0.18,-0.16 -0.27,-0.23 z"
     id="path1098"
     style="stroke:none;stroke-width:0.2" /><path
     d="m 4545.8028,1759.9866 c -1.79,0.72 -3.84,-0.15 -4.56,-1.95 -0.72,-1.79 0.15,-3.83 1.95,-4.56 8.67,-4.23 16.23,-11.48 21.8899,-19.13 3.63,-4.92 6.26,-10.06 7.7,-14.71 0.9,-2.92 1.22,-5.56 0.45,-7.61 -1.9,-5.43 -6.78,-6.25 -12.4999,-4.08 -5.88,2.22 -12.59,6.74 -19.29,14.05 -7.6,7.92 -15.8,13.83 -23.9799,18.05 -10.1,5.22 -19.86,8.01 -27.58,9.68 -1.86,0.54 -3.8,-0.53 -4.34,-2.39 -0.54,-1.86 0.53,-3.8 2.39,-4.34 6.83,-2.49 15.33,-6.34 23.96,-12.26 6.58,-4.51 13.1199,-10.31 18.8899,-17.87 5.28,-6.68 10.69,-11.8 15.95,-15.36 5.29,-3.6 10.52,-5.64 15.22,-6.36 12.0599,-1.85 21.6699,3.67 25.4799,16.21 0.91,3.24 1.14,7 0.2,11.07 -1.3,5.62 -4.39,12.09 -9.24,18.19 -7.88,9.92 -19.7599,19.24 -32.5899,23.37 z"
     id="path1100"
     style="stroke:none;stroke-width:0.2" /><path
     d="m 4557.1928,1777.9365 c -1.93,-0.16 -3.36,-1.8599 -3.19,-3.7899 0.17,-1.93 1.86,-3.36 3.79,-3.19 6.7499,0.39 16.1099,1.03 24.4499,4.2 5.66,2.1499 10.79,5.5099 14.62,10.4899 7.8499,10.29 18.5899,45.68 28.0299,91.57 5.81,28.22 11.36,60.44 15.47,93.05 3.2,25.41 5.4499,51.0699 6.8099,75.1899 2.79,49.06 1.5,91.8 -4.9499,114.04 -2.49,8.48 -9.26,16.65 -18.68,22.22 -7.73,4.56 -17.13,7.47 -26.9799,7.48 -1.93,0.05 -3.55,-1.47 -3.6,-3.41 -0.06,-1.93 1.47,-3.54 3.4,-3.6 8.4199,-0.46 16.2999,-3.38 22.6999,-7.62 7.01,-4.65 12.17,-10.97 13.76,-17.58 5.31,-21.77 3.97,-63.11 -0.19,-110.48 -2.09,-23.81 -5.02,-49.1099 -8.13,-74.2599 -3.98,-32.31 -8.38,-64.36 -13.12,-92.51 -7.44,-44.06 -14.9999,-78.5 -21.9999,-88.65 -2.6,-3.81 -6.28,-6.4 -10.33,-8.21 -7.36,-3.29 -15.79,-4.24 -21.8599,-4.94 z"
     id="path1102"
     style="stroke:none;stroke-width:0.2" /><path
     d="m 4590.3227,2203.2164 c -1.93,0.14 -3.61,-1.31 -3.75,-3.24 -0.15,-1.93 1.3,-3.61 3.23,-3.75 9.31,-0.92 19.4499,-3.93 28.5599,-7.61 11.25,-4.53 20.88,-10.09 25.03,-14.15 2.9399,-2.87 5.1799,-7.78 7.1699,-14.22 3.21,-10.45 5.25,-24.7 6.48,-41.56 1.52,-20.69 1.62,-45.23 0.75,-71.6 -0.76,-22.99 -2.35,-47.3499 -4.49,-71.7499 -1.21,-13.7 -2.54,-27.41 -4.05,-40.9 -2.39,-21.21 -5.19,-41.86 -8.4499,-61 -7.51,-44.09 -17.08,-80.11 -28.88,-95.88 -7.74,-10.3899 -16.4899,-16.2199 -25.7199,-19.2099 -10.94,-3.53 -22.45,-3.24 -33.5199,-2 -1.92,0.26 -3.69,-1.08 -3.95,-3 -0.26,-1.92 1.09,-3.68 3,-3.95 12.1099,-1.92 24.7499,-2.68 36.9399,0.67 11.02,3.03 21.6399,9.42 31.2599,21.27 14.88,18.4399 28.7999,64.6299 38.5099,120.0299 4.59,26.16 8.33,54.37 10.79,82.59 2.14,24.74 3.25,49.4899 3.48,72.8099 0.26,26.95 -0.78,52.02 -3.12,73.07 -3.45,31.12 -10.22,53.69 -19.41,61.9 -4.89,4.36 -15.9099,10.34 -28.8299,14.84 -9.95,3.47 -20.9899,6.14 -31.0299,6.64 z"
     id="path1104"
     style="stroke:none;stroke-width:0.2" /><path
     d="m 4570.6127,1777.4365 c -0.31,-1.9099 0.98,-3.7099 2.89,-4.0199 1.91,-0.32 3.72,0.98 4.03,2.8899 1.1,5.44 8.45,29.33 17.18,68.08 2.78,12.35 5.67,26.2 8.48,41.45 1.6199,8.82 3.1999,18.1 4.6799,27.82 1.1,7.21 2.15,14.67 3.08,22.36 1.3,10.78 2.44,22.02 3.42,33.68 2.19,26.17 3.55,54.4199 4.32,84.4499 0.09,3.92 -1.73,7.5 -5.05,10.35 -5.62,4.82 -15.3699,7.68 -18.9299,8.21 -1.9,0.37 -3.74,-0.88 -4.11,-2.78 -0.36,-1.9 0.89,-3.74 2.78,-4.1 2.12,-0.5 6.92,-2.27 11.0099,-4.86 2.71,-1.73 5.44,-3.63 5.18,-6.28 -1.97,-20.98 -4.36,-41.0099 -6.7499,-60.0999 -1.74,-13.84 -3.54,-27.15 -5.3,-39.91 -1.27,-9.15 -2.55,-18 -3.72,-26.57 -1.92,-14.13 -3.69,-27.44 -5.44,-39.87 -2.31,-16.36 -4.46,-31.17 -6.5,-44.27 -5.87,-37.67 -10.6,-61.15 -11.25,-66.53 z"
     id="path1106"
     style="stroke:none;stroke-width:0.2" /><path
     d="m 4574.0727,1776.8765 c 7.26,1.83 14.45,5.14 19.05,11.49 22.9699,31.66 62.9198,300.4899 44.3999,369.8799 -3.75,14.04 -21.3,26.89 -41.0599,27.44 2.83,-11.12 2.2,-23.77 2.04,-35.32 -0.22,-16.41 -1.85,-45.72 -4.45,-81.1 4.56,-0.88 20.5799,-6.3 20.0799,-14.85 -9.22,-157.2299 -38.0599,-265.1999 -40.0599,-277.5399 z"
     id="path1108"
     style="stroke:none;stroke-width:0.2" /><path
     d="m 4665.4725,2058.0064 c -1.94,0.04 -3.55,-1.49 -3.59,-3.42 -0.05,-1.94 1.48,-3.55 3.42,-3.59 18.8199,-1.13 42.9499,6.29 64.2998,18.51 21.95,12.55 40.6099,30.33 48.5599,48.21 3.94,9.14 2.19,18.04 -3.17,26.02 -5.63,8.37 -15.7499,15.65 -26.1299,20.75 -5.59,2.61 -22.86,10.26 -44.4799,18.45 -21.1199,8 -46.3599,16.54 -68.5798,22.13 -23.37,5.89 -43.5399,8.2 -52.8399,3.9 -1.79,-0.75 -2.62,-2.81 -1.87,-4.59 0.75,-1.79 2.81,-2.62 4.59,-1.87 8.65,3.3 26.5099,-0.93 47.2399,-7.54 21.4399,-6.85 45.6399,-16.76 66.0298,-25.5 20.77,-8.91 37.5499,-16.6 42.9299,-19.32 6.6,-3.19 13.13,-7.4 17.72,-12.33 3.97,-4.27 6.7099,-9.02 4.6,-14.33 -6.13,-16.01 -22.19,-31.86 -40.7099,-44.04 -19,-12.5 -40.5999,-21.24 -58.0199,-21.44 z"
     id="path1110"
     style="stroke:none;stroke-width:0.2" /><path
     d="m 4584.3227,2205.7364 c 2.24,-1.83 4.14,-3.85 5.74,-6.02 21.9299,-1.63 48.6499,-14.08 56.7298,-21.62 13.94,-13.01 19.4,-62.84 18.59,-123.6 36.2699,-0.87 91.7898,32.25 105.7997,66.1 6.25,15.12 -9.5199,28.79 -25.8099,36.72 -16.26,7.91 -134.0897,59.79 -161.0496,48.42 z"
     id="path1112"
     style="stroke:none;stroke-width:0.2" /><path
     d="m 4279.8835,1645.9266 c -0.32,-1.91 0.9799,-3.72 2.8899,-4.03 1.91,-0.31 3.71,0.99 4.03,2.9 0,0 3.21,7.8 6.89,18.68 0.81,2.38 1.57,4.89 2.29,7.52 0.45,1.65 0.91,3.33 1.23,5.05 0.79,4.3 1.23,8.67 1.69,12.89 0.82,7.64 1.11,14.42 2.15,19.22 0.72,1.8 -0.16,3.84 -1.95,4.56 -1.8,0.71 -3.84,-0.16 -4.56,-1.96 -2.73,-4.48 -6.01,-10.96 -8.93,-18.63 -1.55,-4.1 -3.01,-8.4 -4.05,-12.8 -0.41,-1.74 -0.66,-3.51 -0.8799,-5.25 -0.36,-2.76 -0.62,-5.41 -0.75,-7.98 -0.59,-11.61 -0.05,-20.17 -0.05,-20.17 z"
     id="path1114"
     style="stroke:none;stroke-width:0.2" /><path
     d="m 4209.8036,1722.6366 c -1.68,-0.95 -2.28,-3.09 -1.33,-4.78 0.95,-1.68 3.09,-2.28 4.78,-1.33 0,0 7.82,2.2 18.19,5.78 2.28,0.79 4.62,1.69 7.02,2.68 1.52,0.62 3.0499,1.26 4.5399,2.01 2.31,1.17 4.53,2.51 6.74,3.8 2.31,1.35 4.46,2.73 6.59,4.04 5.27,3.23 9.62,6.1 13.09,7.3 1.91,0.3 3.22,2.1 2.92,4.01 -0.3,1.91 -2.09,3.22 -4,2.92 -4.82,0.09 -12,-1.02 -20.07,-3.31 -4.05,-1.15 -8.2299,-2.56 -12.2399,-4.36 -1.58,-0.72 -3.07,-1.58 -4.53,-2.44 -2.3,-1.36 -4.47,-2.75 -6.49,-4.19 -9.1,-6.5 -15.21,-12.13 -15.21,-12.13 z"
     id="path1116"
     style="stroke:none;stroke-width:0.2" /><path
     d="m 4203.1836,1826.2265 c -1.67,0.97 -3.8199,0.41 -4.7999,-1.26 -0.98,-1.67 -0.42,-3.82 1.25,-4.79 0,0 5.3299,-5.31 13.5999,-11.84 1.79,-1.41 3.72,-2.78 5.8,-4.15 1.29,-0.86 2.62,-1.73 4.04,-2.46 3.52,-1.81 7.26,-3.28 10.98,-4.62 6.41,-2.3 12.4099,-3.79 17.4599,-5.05 1.76,-0.8 3.84,-0.03 4.65,1.72 0.81,1.76 0.03,3.85 -1.72,4.65 -4.12,2.92 -8.65,6.86 -13.9899,10.75 -3.13,2.29 -6.32,4.59 -9.67,6.56 -1.36,0.8 -2.78,1.45 -4.17,2.08 -2.23,1.03 -4.38,1.94 -6.49,2.73 -9.78,3.67 -16.94,5.68 -16.94,5.68 z"
     id="path1118"
     style="stroke:none;stroke-width:0.2" /></g>&#10;</svg>
