<?xml version="1.0" encoding="UTF-8" standalone="no"?>
<svg
   width="2542.1321"
   height="2640.9377"
   viewBox="0 0 2542.1321 2640.9378"
   version="1.1"
   xml:space="preserve"
   style="clip-rule:evenodd;fill-rule:evenodd;stroke-linejoin:round;stroke-miterlimit:2"
   id="svg5353"
   xmlns="http://www.w3.org/2000/svg"
   xmlns:svg="http://www.w3.org/2000/svg"><defs
   id="defs5353" />&#10;    &#10;<g
   id="vectorly-UNI-router"
   transform="matrix(4.9999999,0,0,4.9999999,-16489.61,-96124.185)"
   style="stroke-width:0.2"><g
     transform="matrix(2.00373,0,0,6.01733,-27.233385,-177.86836)"
     id="g3"
     style="clip-rule:evenodd;fill-rule:evenodd;stroke:none;stroke-width:0.2;stroke-linejoin:round;stroke-miterlimit:2">&#10;            <g
   transform="scale(0.499068,0.166187)"
   id="g2"
   style="stroke:none;stroke-width:0.2">&#10;                <path
   d="m 3823.55,19833.8 c -7.16,-0.6 -22.23,-0.8 -42.76,-0.9 -32.69,0 -79.1,0.5 -129.47,1.1 -42.32,0.5 -87.43,1.2 -129.53,1.7 -31.23,0.4 -60.8,0.8 -86.36,1 -37.24,0.4 -65.96,0.6 -78.88,0.7 0.57,10.7 4.68,32.1 26.65,49.1 18.51,14.3 48.99,25.4 98.91,25.8 l 249.55,1.8 c 1.94,0 3.51,1.6 3.52,3.5 0.01,2 -1.55,3.5 -3.49,3.5 l -249.58,3.8 c -54.21,0.5 -87.37,-11.6 -107.71,-26.8 -38.4,-28.8 -33.09,-69.4 -33.09,-69.4 0.48,-3.8 3.71,-6.7 7.57,-6.7 0,0 30.79,-0.6 76.79,-1.1 22.55,-0.3 48.76,-0.5 76.79,-0.6 75.68,-0.3 164.57,0 230.43,0.8 40.1,0.5 71.68,1.3 86.63,2.3 4.76,0.3 7.98,0.7 9.44,1.1 4.2,1 4.66,4.2 4.63,5.3 -0.6,17.6 -7.42,32 -16.84,43.5 -21.64,26.5 -56.92,37.5 -56.92,37.5 -1.84,0.6 -3.82,-0.4 -4.42,-2.2 -0.6,-1.9 0.41,-3.8 2.25,-4.4 0,0 25.75,-8.8 45.25,-28.4 10.57,-10.6 19.3,-24.5 20.64,-42 z m 0.17,-4.2 z"
   id="path1-6"
   style="stroke:none;stroke-width:0.2" />&#10;            </g>&#10;        </g><g
     transform="matrix(2.00373,0,0,6.01733,-27.233385,-177.86836)"
     id="g5"
     style="clip-rule:evenodd;fill-rule:evenodd;stroke:none;stroke-width:0.2;stroke-linejoin:round;stroke-miterlimit:2">&#10;            <g
   transform="scale(0.499068,0.166187)"
   id="g4"
   style="stroke:none;stroke-width:0.2">&#10;                <path
   d="m 3461.62,19914.5 c 1.93,-0.1 3.58,1.4 3.68,3.3 0.11,1.9 -1.38,3.6 -3.31,3.7 0,0 -19.25,2.4 -42.41,4.8 -9.17,1 -18.91,1.9 -28.32,2.6 -10.36,0.9 -20.26,1.5 -28.42,1.8 -9.45,0.3 -16.6,0.1 -19.55,-0.1 -12.97,-1.1 -20.65,-12.8 -17.37,-22.5 2.03,-6 8.33,-12.7 22.53,-12.7 7.79,0 14.92,0.1 21.05,0.2 12.8,0.3 21.04,0.8 21.04,0.8 1.93,0 3.52,1.6 3.53,3.5 0.01,1.9 -1.55,3.5 -3.48,3.5 l -41.51,3.9 c -4.92,0.5 -8.02,1.8 -9.58,3.7 -0.49,0.7 -0.28,1.4 -0.03,2 0.6,1.6 2.44,2.4 4.53,2.4 2.76,0.1 9.45,-0.4 18.29,-0.7 8.11,-0.3 17.97,-0.5 28.3,-0.6 9.42,-0.1 19.19,-0.1 28.39,-0.1 23.26,0.1 42.64,0.5 42.64,0.5 z"
   id="path2-0"
   style="stroke:none;stroke-width:0.2" />&#10;            </g>&#10;        </g><g
     transform="matrix(2.00373,0,0,6.01733,-27.233385,-177.86836)"
     id="g7"
     style="clip-rule:evenodd;fill-rule:evenodd;stroke:none;stroke-width:0.2;stroke-linejoin:round;stroke-miterlimit:2">&#10;            <g
   transform="scale(0.499068,0.166187)"
   id="g6"
   style="stroke:none;stroke-width:0.2">&#10;                <path
   d="m 3461.8,19918 c 0,0 -104.64,5.6 -118.16,5 -13.52,-0.6 -18.68,-20.4 5.12,-21.7 23.81,-1.3 41.8,-1.4 41.8,-1.4 16.48,9.1 39.4,16 71.24,18.1 z"
   id="path4-0"
   style="stroke:none;stroke-width:0.2" />&#10;            </g>&#10;        </g><g
     transform="matrix(2.00373,0,0,6.01733,-27.233385,-177.86836)"
     id="g9"
     style="clip-rule:evenodd;fill-rule:evenodd;stroke:none;stroke-width:0.2;stroke-linejoin:round;stroke-miterlimit:2">&#10;            <g
   transform="scale(0.499068,0.166187)"
   id="g8"
   style="stroke:none;stroke-width:0.2">&#10;                <path
   d="m 3426.97,19871.6 c -1.93,-0.1 -3.48,-1.6 -3.46,-3.6 0.02,-1.9 1.61,-3.5 3.55,-3.4 0,0 12.89,-1.8 29.66,-3.2 3.81,-0.3 7.78,-0.5 11.86,-0.6 2.61,-0.1 5.26,-0.2 7.9,-0.1 6.77,0.2 13.49,0.8 19.73,1.4 16.72,1.7 29.58,3.7 29.58,3.7 1.93,0 3.48,1.6 3.46,3.6 -0.03,1.9 -1.62,3.5 -3.55,3.4 0,0 -12.91,1.8 -29.66,3 -6.25,0.4 -12.99,0.9 -19.76,0.9 -2.65,0 -5.29,-0.1 -7.9,-0.3 -4.07,-0.2 -8.04,-0.5 -11.84,-0.9 -16.73,-1.8 -29.57,-3.9 -29.57,-3.9 z"
   id="path6-3"
   style="stroke:none;stroke-width:0.2" />&#10;            </g>&#10;        </g><g
     transform="matrix(2.00373,0,0,6.01733,-27.233385,-177.86836)"
     id="g11"
     style="clip-rule:evenodd;fill-rule:evenodd;stroke:none;stroke-width:0.2;stroke-linejoin:round;stroke-miterlimit:2">&#10;            <g
   transform="scale(0.499068,0.166187)"
   id="g10"
   style="stroke:none;stroke-width:0.2">&#10;                <path
   d="m 3692.65,19857 c 0.05,-2 1.67,-3.5 3.6,-3.4 1.93,0 3.46,1.6 3.41,3.6 0,0 1.82,2.4 3.31,7.1 0.47,1.5 0.94,3.1 0.86,4.8 -0.07,1.7 -0.72,3.2 -1.29,4.7 -1.73,4.5 -3.51,6.9 -3.51,6.9 -0.05,2 -1.66,3.5 -3.6,3.5 -1.93,-0.1 -3.46,-1.7 -3.41,-3.6 0,0 -1.64,-2.6 -3.13,-7.2 -0.49,-1.5 -1.06,-3 -1.04,-4.8 0.01,-1.6 0.56,-3.2 1.11,-4.6 1.74,-4.7 3.69,-7 3.69,-7 z"
   id="path8-5"
   style="stroke:none;stroke-width:0.2" />&#10;            </g>&#10;        </g><g
     transform="matrix(2.00373,0,0,6.01733,-27.233385,-177.86836)"
     id="g13"
     style="clip-rule:evenodd;fill-rule:evenodd;stroke:none;stroke-width:0.2;stroke-linejoin:round;stroke-miterlimit:2">&#10;            <g
   transform="matrix(0.499068,0,0,0.166187,13.1809,0)"
   id="g12"
   style="stroke:none;stroke-width:0.2">&#10;                <path
   d="m 3692.65,19857 c 0.05,-2 1.67,-3.5 3.6,-3.4 1.93,0 3.46,1.6 3.41,3.6 0,0 1.82,2.4 3.31,7.1 0.47,1.5 0.94,3.1 0.86,4.8 -0.07,1.7 -0.72,3.2 -1.29,4.7 -1.73,4.5 -3.51,6.9 -3.51,6.9 -0.05,2 -1.66,3.5 -3.6,3.5 -1.93,-0.1 -3.46,-1.7 -3.41,-3.6 0,0 -1.64,-2.6 -3.13,-7.2 -0.49,-1.5 -1.06,-3 -1.04,-4.8 0.01,-1.6 0.56,-3.2 1.11,-4.6 1.74,-4.7 3.69,-7 3.69,-7 z"
   id="path10-3"
   style="stroke:none;stroke-width:0.2" />&#10;            </g>&#10;        </g><g
     transform="matrix(2.00373,0,0,6.01733,-27.233385,-177.86836)"
     id="g15"
     style="clip-rule:evenodd;fill-rule:evenodd;stroke:none;stroke-width:0.2;stroke-linejoin:round;stroke-miterlimit:2">&#10;            <g
   transform="matrix(0.499068,0,0,0.166187,26.3619,0)"
   id="g14"
   style="stroke:none;stroke-width:0.2">&#10;                <path
   d="m 3692.65,19857 c 0.05,-2 1.67,-3.5 3.6,-3.4 1.93,0 3.46,1.6 3.41,3.6 0,0 1.82,2.4 3.31,7.1 0.47,1.5 0.94,3.1 0.86,4.8 -0.07,1.7 -0.72,3.2 -1.29,4.7 -1.73,4.5 -3.51,6.9 -3.51,6.9 -0.05,2 -1.66,3.5 -3.6,3.5 -1.93,-0.1 -3.46,-1.7 -3.41,-3.6 0,0 -1.64,-2.6 -3.13,-7.2 -0.49,-1.5 -1.06,-3 -1.04,-4.8 0.01,-1.6 0.56,-3.2 1.11,-4.6 1.74,-4.7 3.69,-7 3.69,-7 z"
   id="path12-0"
   style="stroke:none;stroke-width:0.2" />&#10;            </g>&#10;        </g><g
     transform="matrix(2.00373,0,0,6.01733,-27.233385,-177.86836)"
     id="g17"
     style="clip-rule:evenodd;fill-rule:evenodd;stroke:none;stroke-width:0.2;stroke-linejoin:round;stroke-miterlimit:2">&#10;            <g
   transform="scale(0.499068,0.166187)"
   id="g16"
   style="stroke:none;stroke-width:0.2">&#10;                <path
   d="m 3371.66,19830.3 c -0.52,-1.8 0.58,-3.8 2.45,-4.3 1.86,-0.5 3.79,0.6 4.31,2.5 0,0 5.96,13.9 19.73,31.2 4.58,5.8 10.11,11.8 16.37,18.2 5.35,5.4 11.12,11.1 17.9,16.6 8.95,7.2 19.06,14.3 31.38,20.3 1.81,0.6 2.72,2.7 2.04,4.5 -0.69,1.8 -2.72,2.7 -4.52,2 -14.07,-4 -26.26,-9.2 -36.76,-15.6 -8.22,-5.1 -15.36,-10.7 -21.39,-16.6 -2.67,-2.6 -5.04,-5.3 -7.23,-8.1 -3.6,-4.5 -6.71,-8.9 -9.3,-13.3 -12.32,-20.7 -14.98,-37.4 -14.98,-37.4 z"
   id="path14-6"
   style="stroke:none;stroke-width:0.2" />&#10;            </g>&#10;        </g><g
     transform="matrix(2.00373,0,0,6.01733,-27.233385,-177.86836)"
     id="g19"
     style="clip-rule:evenodd;fill-rule:evenodd;stroke:none;stroke-width:0.2;stroke-linejoin:round;stroke-miterlimit:2">&#10;            <g
   transform="scale(0.499068,0.166187)"
   id="g18"
   style="stroke:none;stroke-width:0.2">&#10;                <path
   d="m 3375.04,19829.4 c 0,0 17.06,61.9 87.52,88.6 -123.84,-7.6 -113.59,-88.3 -113.59,-88.3 0,0 9.59,-0.1 26.07,-0.3 z"
   id="path16-1"
   style="stroke:none;stroke-width:0.2" />&#10;            </g>&#10;        </g><g
     transform="matrix(2.00373,0,0,6.01733,-27.233385,-177.86836)"
     id="g21"
     style="clip-rule:evenodd;fill-rule:evenodd;stroke:none;stroke-width:0.2;stroke-linejoin:round;stroke-miterlimit:2">&#10;            <g
   transform="scale(0.499068,0.166187)"
   id="g20"
   style="stroke:none;stroke-width:0.2">&#10;                <path
   d="m 3490.94,19649.2 c -0.41,-1.9 0.79,-3.8 2.68,-4.2 1.89,-0.4 3.76,0.8 4.17,2.7 0,0 7.08,23.1 15.21,53 1.86,6.9 3.69,14.1 5.49,21.4 1.16,4.7 2.33,9.5 3.34,14.3 2.57,12.3 4.75,24.7 6.72,36.2 5.23,30.5 8.54,54.5 8.54,54.5 0.41,1.9 -0.79,3.8 -2.68,4.2 -1.88,0.4 -3.75,-0.8 -4.17,-2.7 0,0 -7.02,-23.2 -15.04,-53.1 -3,-11.2 -6.19,-23.4 -9,-35.7 -1.09,-4.7 -2.03,-9.6 -2.95,-14.4 -1.44,-7.4 -2.77,-14.7 -3.94,-21.7 -5.11,-30.5 -8.37,-54.5 -8.37,-54.5 z"
   id="path18-12"
   style="stroke:none;stroke-width:0.2" />&#10;            </g>&#10;        </g><g
     transform="matrix(2.00373,0,0,6.01733,-27.233385,-177.86836)"
     id="g23"
     style="clip-rule:evenodd;fill-rule:evenodd;stroke:none;stroke-width:0.2;stroke-linejoin:round;stroke-miterlimit:2">&#10;            <g
   transform="scale(0.499068,0.166187)"
   id="g22"
   style="stroke:none;stroke-width:0.2">&#10;                <path
   d="m 3673.92,19603.5 c 0.36,-1.9 2.19,-3.1 4.09,-2.8 1.9,0.4 3.16,2.2 2.8,4.1 0,0 -3.58,29.8 -9.1,67.6 -1.27,8.6 -2.7,17.7 -4.24,26.9 -0.99,5.9 -1.99,11.9 -3.16,17.9 -2.97,15.2 -6.33,30.4 -9.5,44.4 -8.44,37.3 -15.82,66.3 -15.82,66.3 -0.36,1.9 -2.19,3.1 -4.09,2.8 -1.9,-0.4 -3.16,-2.2 -2.8,-4.1 0,0 3.64,-29.7 9.28,-67.5 2.12,-14.2 4.47,-29.6 7.22,-44.9 1.07,-5.9 2.31,-11.9 3.53,-17.8 1.91,-9.1 3.85,-18.1 5.8,-26.6 8.56,-37.3 15.99,-66.3 15.99,-66.3 z"
   id="path20-4"
   style="stroke:none;stroke-width:0.2" />&#10;            </g>&#10;        </g><g
     transform="matrix(2.00373,0,0,6.01733,-27.233385,-177.86836)"
     id="g25"
     style="clip-rule:evenodd;fill-rule:evenodd;stroke:none;stroke-width:0.2;stroke-linejoin:round;stroke-miterlimit:2">&#10;            <g
   transform="scale(0.499068,0.166187)"
   id="g24"
   style="stroke:none;stroke-width:0.2">&#10;                <circle
   cx="3591.6201"
   cy="19627.199"
   r="16.9"
   id="circle22"
   style="stroke:none;stroke-width:0.2" />&#10;            </g>&#10;        </g><g
     transform="matrix(2.00373,0,0,6.01733,-27.233385,-177.86836)"
     id="g27"
     style="clip-rule:evenodd;fill-rule:evenodd;stroke:none;stroke-width:0.2;stroke-linejoin:round;stroke-miterlimit:2">&#10;            <g
   transform="scale(0.499068,0.166187)"
   id="g26"
   style="stroke:none;stroke-width:0.2">&#10;                <path
   d="m 3508.05,19595.9 c -0.77,1.8 -2.83,2.6 -4.61,1.8 -1.77,-0.8 -2.59,-2.8 -1.81,-4.6 0,0 3.45,-10.1 13.16,-22.3 4.68,-5.9 10.82,-12.2 18.74,-18.1 5.24,-3.8 11.29,-7.4 18.17,-10.5 4.09,-1.8 8.47,-3.5 13.19,-4.7 10.04,-2.7 21.49,-4.1 34.32,-3.7 14.65,0.5 31.01,3.6 49.46,9.7 1.87,0.4 3.01,2.3 2.53,4.2 -0.48,1.9 -2.39,3 -4.26,2.5 -18.03,-3.3 -33.7,-3.7 -47.51,-2.7 -11.4,0.8 -21.33,2.8 -30.24,5.4 -10.93,3.1 -20.19,7 -27.94,11.5 -23.18,13.7 -33.2,31.5 -33.2,31.5 z"
   id="path24-9"
   style="stroke:none;stroke-width:0.2" />&#10;            </g>&#10;        </g><g
     transform="matrix(2.00373,0,0,6.01733,-27.233385,-177.86836)"
     id="g29"
     style="clip-rule:evenodd;fill-rule:evenodd;stroke:none;stroke-width:0.2;stroke-linejoin:round;stroke-miterlimit:2">&#10;            <g
   transform="scale(0.499068,0.166187)"
   id="g28"
   style="stroke:none;stroke-width:0.2">&#10;                <path
   d="m 3461.16,19561.9 c -1.01,1.7 -3.17,2.2 -4.82,1.2 -1.65,-1 -2.17,-3.2 -1.16,-4.8 0,0 14.17,-26.8 46.76,-51.2 7.03,-5.2 14.96,-10.3 23.77,-14.8 5.35,-2.8 11.03,-5.5 17.09,-7.8 13.51,-5 28.71,-8.7 45.45,-10.4 20.57,-2 43.45,-0.8 68.75,4.4 1.91,0.3 3.22,2.1 2.92,4 -0.3,2 -2.1,3.3 -4.01,3 -24.56,-2.7 -46.34,-1.3 -65.8,2.2 -15.37,2.7 -29.1,7 -41.59,11.8 -14.74,5.7 -27.64,12.2 -38.66,19.2 -32.31,20.4 -48.7,43.2 -48.7,43.2 z"
   id="path26-8"
   style="stroke:none;stroke-width:0.2" />&#10;            </g>&#10;        </g><g
     transform="matrix(2.00373,0,0,6.01733,-27.233385,-177.86836)"
     id="g31"
     style="clip-rule:evenodd;fill-rule:evenodd;stroke:none;stroke-width:0.2;stroke-linejoin:round;stroke-miterlimit:2">&#10;            <g
   transform="scale(0.499068,0.166187)"
   id="g30"
   style="stroke:none;stroke-width:0.2">&#10;                <path
   d="m 3413.36,19529.2 c -0.59,1.9 -2.56,2.9 -4.4,2.3 -1.84,-0.6 -2.86,-2.5 -2.28,-4.4 0,0 5.13,-18.9 21.06,-42.4 7.74,-11.4 18.01,-23.8 31.5,-35.5 8.97,-7.8 19.37,-15.3 31.34,-21.9 7.13,-4 14.82,-7.7 23.14,-10.8 17.81,-6.8 38.37,-11.5 61.84,-13.2 26.97,-1.9 57.79,0.4 93,7.9 1.9,0.4 3.17,2.2 2.83,4.1 -0.33,1.9 -2.15,3.2 -4.06,2.8 -34.55,-4.8 -64.43,-4.5 -90.42,-1.2 -21.87,2.8 -40.81,8 -57.45,14.5 -20.54,7.9 -37.48,17.8 -51.31,28.6 -40.58,31.6 -54.79,69.2 -54.79,69.2 z"
   id="path28-1"
   style="stroke:none;stroke-width:0.2" />&#10;            </g>&#10;        </g></g></svg>
