<?xml version="1.0" encoding="UTF-8" standalone="no"?>
<svg
   width="2094.627"
   height="3465.4512"
   viewBox="0 0 2094.627 3465.4512"
   version="1.1"
   xml:space="preserve"
   style="clip-rule:evenodd;fill-rule:evenodd;stroke-linejoin:round;stroke-miterlimit:2"
   id="svg5353"
   xmlns="http://www.w3.org/2000/svg"
   xmlns:svg="http://www.w3.org/2000/svg"><defs
   id="defs5353" />&#10;    <g
   id="vectorly-UNI-cup-reward-medal"
   transform="matrix(4.9999999,0,0,4.9999999,-716.63656,-88315.352)"
   style="stroke-width:0.2"><path
     d="m 502.13933,17672.148 c 0.12686,-1.868 0.28091,-3.773 0.4712,-5.716 0.0815,-1.918 1.69449,-3.41 3.60646,-3.36 1.92102,0.06 3.43428,1.655 3.39804,3.573 0.0544,1.667 0.0815,3.284 0.0906,4.851 0.38965,12.787 1.93009,23.455 5.19221,31.102 2.7275,6.381 6.94107,10.041 13.55593,9.59 3.01746,-0.06 5.70871,1.906 6.54236,4.814 0.83366,2.908 -0.3987,6.017 -2.99027,7.559 -8.52683,5.466 -14.06337,10.631 -17.30737,18.516 -2.29255,5.553 -3.46147,12.36 -3.83299,21.374 -0.0181,1.742 -0.0634,3.535 -0.12686,5.403 -0.009,0.09 -0.009,0.188 -0.009,0.288 -0.24466,4.337 -3.92361,7.685 -8.26404,7.522 -4.3495,-0.163 -7.76567,-3.774 -7.68411,-8.124 0.0997,-3.159 0.26278,-6.105 0.49838,-8.888 0.22653,-7.446 -0.19935,-13.764 -1.75792,-19.719 -2.11132,-8.086 -6.2071,-15.494 -13.56499,-24.132 -1.73074,-1.88 -2.12038,-4.638 -0.97864,-6.932 1.14174,-2.307 3.57927,-3.661 6.12554,-3.422 4.95661,0.702 8.51776,-2.282 11.2362,-8.337 2.76374,-6.13 4.70289,-14.73 5.79932,-25.962 z m 2.70938,57.691 c 2.44659,-3.423 5.3825,-6.431 8.88022,-9.227 -2.41035,-1.88 -4.44918,-4.312 -6.11648,-7.258 -1.2686,-2.244 -2.31973,-4.814 -3.16245,-7.697 -0.37152,0.815 -0.76116,1.592 -1.16892,2.306 -2.02977,3.623 -4.50354,6.256 -7.3579,8.036 3.81487,4.663 6.72359,9.201 8.92553,13.84 z"
     id="path2136"
     style="stroke:none;stroke-width:0.213162" /><path
     d="m 458.06729,17966.054 c 0.12686,-1.867 0.28091,-3.773 0.4712,-5.716 0.0815,-1.918 1.69449,-3.41 3.60646,-3.36 1.92102,0.06 3.43428,1.655 3.39804,3.573 0.0544,1.667 0.0816,3.285 0.0906,4.852 0.38965,12.786 1.93009,23.454 5.19221,31.101 2.7275,6.381 6.94107,10.042 13.55593,9.59 3.01746,-0.06 5.70871,1.906 6.54236,4.814 0.83366,2.909 -0.3987,6.017 -2.99027,7.559 -8.52683,5.466 -14.06337,10.631 -17.30737,18.516 -2.29255,5.554 -3.46147,12.361 -3.83299,21.374 -0.0181,1.742 -0.0634,3.535 -0.12686,5.403 -0.009,0.09 -0.009,0.188 -0.009,0.288 -0.24466,4.338 -3.92361,7.685 -8.26404,7.522 -4.3495,-0.163 -7.76567,-3.773 -7.68411,-8.123 0.0997,-3.16 0.26278,-6.105 0.49838,-8.888 0.22653,-7.447 -0.19935,-13.765 -1.75792,-19.72 -2.11132,-8.085 -6.2071,-15.494 -13.56499,-24.131 -1.73074,-1.881 -2.12038,-4.639 -0.97864,-6.933 1.14174,-2.306 3.57927,-3.66 6.12554,-3.422 4.95661,0.702 8.51776,-2.282 11.2362,-8.337 2.76374,-6.13 4.70289,-14.729 5.79932,-25.962 z m 2.70938,57.691 c 2.44659,-3.422 5.3825,-6.431 8.88022,-9.226 -2.41035,-1.881 -4.44918,-4.313 -6.11648,-7.259 -1.2686,-2.244 -2.31973,-4.814 -3.16245,-7.697 -0.37152,0.815 -0.76116,1.592 -1.16892,2.307 -2.02977,3.623 -4.50354,6.255 -7.3579,8.035 3.81487,4.664 6.72359,9.202 8.92553,13.84 z"
     id="path2138"
     style="stroke:none;stroke-width:0.213162" /><path
     d="m 165.95995,17907.575 c -0.29473,-2.671 -0.57317,-5.398 -0.81034,-8.185 -0.22933,-1.9 1.11104,-3.637 3.00718,-3.902 1.89906,-0.248 3.6606,1.056 3.94283,2.964 0.43571,2.363 0.83771,4.678 1.19058,6.93 3.28136,17.763 7.71183,32.346 13.91089,42.31 5.74617,9.258 13.18302,13.893 23.3117,11.604 2.97866,-0.554 5.95411,0.937 7.24908,3.671 1.30748,2.732 0.60951,5.997 -1.68461,7.947 -11.11651,9.87 -17.96922,18.65 -20.81895,30.829 -1.96105,8.366 -2.10069,18.24 -0.5788,30.965 0.39851,2.6 0.77404,5.293 1.12952,8.096 0.0174,0.103 0.0195,0.192 0.0369,0.296 0.48045,4.311 -2.58923,8.223 -6.90272,8.788 -4.31349,0.565 -8.27754,-2.449 -8.92049,-6.733 -0.57057,-4.083 -1.01296,-7.938 -1.34256,-11.581 -1.53034,-11.016 -3.74497,-20.138 -7.53862,-28.409 -5.04241,-10.959 -12.78821,-20.414 -25.42159,-30.809 -2.02345,-1.562 -2.87018,-4.229 -2.126,-6.683 0.74418,-2.455 2.93277,-4.192 5.48586,-4.372 7.96538,-0.325 12.86698,-5.879 15.40652,-16.156 2.29274,-9.223 2.7946,-21.683 1.4736,-37.57 z m 16.1772,85.154 c 2.99618,-8.096 7.60566,-15.006 13.99936,-21.699 -7.60866,-2.829 -13.72782,-8.877 -18.47637,-17.858 -1.06999,-2.007 -2.05074,-4.172 -2.97684,-6.47 -0.56891,3.421 -1.36426,6.488 -2.37646,9.183 -2.32439,6.205 -5.77226,10.697 -10.19914,13.646 8.82339,7.531 15.2184,14.991 20.02945,23.198 z"
     id="path2140"
     style="stroke:none;stroke-width:0.298162" /><path
     d="m 365.38501,17816.758 c 1.93423,0 3.5052,1.572 3.5052,3.562 0,1.886 -1.57097,3.457 -3.5052,3.457 -35.69044,0.943 -67.70536,-4.19 -88.94978,-12.885 -11.22785,-4.61 -19.53053,-10.372 -24.35063,-16.553 -3.53617,-4.504 -5.25721,-9.428 -5.35964,-14.352 -0.20962,-11.733 10.07374,-23.676 29.09332,-32.267 13.75641,-6.285 32.18523,-11.314 53.33794,-13.933 11.38507,-1.362 23.57408,-2.095 36.22879,-1.99 36.04774,0.523 68.19129,6.914 89.24277,16.657 18.56579,8.485 28.71933,20.114 28.47398,31.533 -0.22154,9.009 -6.56378,17.914 -18.71587,24.933 -14.04463,7.962 -35.97152,14.038 -62.07892,16.657 -1.91994,0.21 -3.67195,-1.152 -3.91135,-3.038 -0.2382,-1.885 1.12672,-3.666 3.04666,-3.876 20.16416,-3.038 37.57227,-8.171 50.3032,-14.457 6.86868,-3.352 12.28072,-7.124 15.85143,-11.105 2.56787,-2.933 4.02807,-5.971 3.95065,-9.114 -0.0941,-4.4 -3.30034,-8.171 -8.13831,-11.838 -6.05163,-4.61 -14.76402,-8.486 -25.34633,-11.629 -19.33997,-5.971 -44.80898,-9.323 -72.67791,-8.904 -12.90244,0 -25.27487,0.838 -36.77071,2.304 -13.26927,1.677 -25.35705,4.086 -35.67614,7.334 -10.45368,3.143 -19.05531,7.019 -25.02476,11.628 -4.55688,3.457 -7.66785,6.915 -7.74646,11.105 -0.087,4.19 2.75366,8.067 7.25099,11.733 5.88013,4.924 14.40195,9.219 24.89732,12.991 19.29113,6.809 44.87924,11.314 73.06976,12.047 z"
     id="path5000"
     style="stroke:none;stroke-width:0.223404" /><path
     d="m 303.57342,18154.309 c 0.53299,0.7 2.95999,4 5.70498,6.4 8.15498,6.9 23.03394,14.9 44.46789,16.9 16.68896,1.5 37.19291,-0.6 61.49485,-9.5 1.80099,-0.7 3.83599,0.2 4.54199,2 0.705,1.8 -0.184,3.9 -1.986,4.6 -32.10192,13.4 -58.32785,14.8 -78.2098,11.3 -23.60394,-4.1 -38.52891,-15.2 -44.46289,-22.1 -2.671,-3.1 -3.74999,-5.9 -3.99799,-7.6 -2.108,-14.6 2.13199,-30 8.93097,-46.7 7.56099,-18.6 18.22796,-38.8 25.25494,-61.3 4.32499,-13.8 7.32498,-28.5 6.94599,-44.4 -0.053,-3.2 -1.456,-6.3 -3.508,-10 -2.82799,-5.1 -6.88798,-10.8 -11.65697,-17.6 -11.89897,-16.9 -28.18693,-40 -41.93489,-75.8 -11.53497,-30 -21.19795,-68.8 -25.19994,-120.1 -0.195,-2 1.209,-3.7 3.13399,-3.9 1.924,-0.2 3.64499,1.2 3.83999,3.1 6.22799,50 17.57196,87.3 29.94693,116.2 17.76395,41.3 38.0569,64.8 49.85787,81.6 7.15199,10.1 11.17098,18.4 11.40298,26.1 0.37799,17.8 -2.778,34.3 -7.81398,49.7 -7.49199,22.8 -18.99196,43.2 -27.27194,61.9 -6.16598,13.9 -10.70797,26.8 -9.48097,39.2 z"
     id="path5002"
     style="stroke:none;stroke-width:0.2" /><path
     d="m 473.82499,17779.809 c 0.113,-1.9 1.773,-3.4 3.70399,-3.3 1.931,0.1 3.407,1.8 3.294,3.7 -1.526,52.1 -10.45798,92 -22.31595,123 -7.28498,19 -15.68196,34.6 -23.93394,47.6 -7.29098,11.5 -14.51696,20.8 -20.84095,28.6 -6.55998,8.1 -12.16997,14.4 -15.69496,19.7 -1.64699,2.5 -2.95799,4.5 -3.07299,6.4 -1.633,25.2 0.837,42.5 5.12099,56 4.03999,12.6 9.60697,21.8 14.75796,30.6 8.47598,14.5 15.87596,28.1 14.57596,52.6 -0.044,2 -1.64999,3.5 -3.58399,3.4 -1.93299,0 -3.46799,-1.6 -3.42399,-3.5 -0.176,-22.4 -7.77698,-34.3 -16.26096,-47.1 -6.08198,-9.1 -12.58197,-18.6 -17.60295,-32 -5.38999,-14.4 -8.96798,-33.2 -8.41098,-60.6 0.175,-6.6 5.03898,-14.9 13.53096,-25.7 6.33899,-8.1 14.63297,-18.1 23.58694,-31 9.21298,-13.3 19.09896,-29.7 28.08993,-50.4 12.82797,-29.5 24.05695,-67.6 28.48093,-118 z"
     id="path5004"
     style="stroke:none;stroke-width:0.2" /><path
     d="m 475.85399,17822.609 c -1.29,1.5 -3.50699,1.6 -4.94899,0.3 -1.442,-1.3 -1.56499,-3.5 -0.276,-4.9 17.67796,-21.8 36.33591,-28.7 51.70787,-27.5 14.11997,1 25.78594,9.1 32.83392,19.9 4.96099,7.5 7.41298,16.6 7.04598,25.7 -0.66399,10.6 -2.76999,20.7 -6.37798,30.1 -5.63999,14.7 -14.51096,27.6 -25.15294,38 -19.55395,19.1 -44.95989,30 -67.64283,29 -1.93399,0 -3.50499,-1.6 -3.50499,-3.5 0,-1.9 1.571,-3.5 3.50499,-3.5 20.28895,-0.9 41.7729,-12.8 57.98086,-31.2 8.59198,-9.7 15.50896,-21.3 20.05095,-34.2 2.84099,-8.1 4.84399,-16.7 5.39598,-25.7 0.776,-9 -2.89099,-17.9 -9.46097,-24.1 -4.31299,-4.1 -9.75498,-7.1 -16.13296,-8.2 -12.78097,-2 -28.46993,3 -45.02289,19.8 z"
     id="path5006"
     style="stroke:none;stroke-width:0.2" /><path
     d="m 471.351,17848.409 c -1.138,1.6 -3.33199,1.9 -4.89599,0.8 -1.56399,-1.1 -1.90999,-3.3 -0.772,-4.9 5.40999,-8.8 16.33196,-18.4 27.68894,-24.3 5.42198,-2.8 10.97997,-4.7 16.05896,-5.4 11.67397,-1.6 20.92794,2.8 25.09493,14.1 1.977,6.2 2.315,13.6 0.538,21.3 -2.01999,8.8 -6.46998,18 -12.78797,26 -10.16697,12.9 -24.72193,22.6 -40.6199,22.7 -1.92799,0.2 -3.61799,-1.3 -3.77099,-3.2 -0.154,-1.9 1.288,-3.6 3.216,-3.8 12.91796,-1.9 23.26094,-11.8 30.31992,-23.3 4.24899,-6.9 7.02498,-14.5 8.27798,-21.5 0.861,-4.9 1.045,-9.5 -0.217,-13.3 -0.897,-3.1 -3.20099,-4.5 -6.16098,-4.7 -4.24799,-0.4 -9.24598,0.5 -14.36097,2.3 -10.64297,3.7 -21.67694,10.3 -27.60893,17.2 z"
     id="path5008"
     style="stroke:none;stroke-width:0.2" /><path
     d="m 262.42352,17822.309 c 1.307,1.4 1.209,3.6 -0.217,4.9 -1.427,1.3 -3.64599,1.2 -4.95199,-0.2 -11.82197,-11.7 -26.02893,-17.7 -38.9399,-18.5 -13.86097,-0.9 -26.17294,5 -30.52593,18.2 -4.05399,11.2 -3.21999,22.4 0.359,32.9 3.67399,10.8 10.23998,21 18.68196,29.9 17.64995,18.7 42.63789,32.2 64.37584,33.6 1.93399,0.1 3.46999,1.7 3.42799,3.6 -0.042,2 -1.647,3.5 -3.58099,3.5 -17.56096,0.4 -37.80191,-5.9 -55.59887,-16.9 -11.39697,-7 -21.71094,-16 -29.68392,-26.2 -7.31898,-9.3 -12.66097,-19.8 -15.04196,-30.7 -2.467,-11.3 -1.699,-23.2 2.84099,-35 6.33398,-15.5 19.49495,-24.2 35.26391,-25.1 17.54896,-1 38.32391,7.5 53.59087,26 z"
     id="path5010"
     style="stroke:none;stroke-width:0.2" /><path
     d="m 265.24651,17837.409 c 1.511,1.2 1.758,3.4 0.551,5 -1.207,1.5 -3.41399,1.7 -4.92599,0.5 -8.49998,-5.8 -18.06995,-8.9 -26.77893,-9.9 -4.79699,-0.6 -9.26198,-0.3 -13.09597,0.6 -3.41599,0.8 -6.16898,2.3 -7.49098,4.8 -3.03299,5.4 -2.43299,11.4 -0.451,17.6 2.075,6.4 5.69599,13 10.39897,19.1 10.09898,13.1 24.14795,24.5 36.12492,27.9 1.89499,0.3 3.11699,2.2 2.72699,4.1 -0.39,1.9 -2.244,3.1 -4.13899,2.7 -10.40498,-1.3 -22.96794,-7.3 -34.15992,-15.8 -6.84598,-5.3 -13.05096,-11.5 -17.91995,-18.2 -4.76899,-6.5 -8.18498,-13.6 -9.64898,-20.4 -1.83299,-8.7 -0.644,-17.2 3.89999,-24.6 2.004,-3.2 4.68099,-5.8 8.17698,-7.7 5.47499,-2.8 12.80897,-4.2 20.96495,-3.1 11.64597,1.6 25.01194,7.4 35.76691,17.4 z"
     id="path5012"
     style="stroke:none;stroke-width:0.2" /><path
     d="m 247.85255,18195.809 c 0.117,-0.5 0.498,-2.2 0.595,-3.5 0.308,-4.1 0.085,-9.5 -0.385,-15.7 -1.70699,-22.1 -6.33298,-51.7 -4.95098,-57 0.409,-1.5 1.33599,-3.2 3.11899,-4.7 2.20599,-1.9 6.11498,-3.9 11.19697,-5.6 14.58196,-4.8 39.5589,-8.6 53.01687,-10.4 1.90999,-0.3 3.70799,1 4.01199,2.9 0.303,1.9 -1.002,3.7 -2.91199,4 -9.65198,1.8 -25.40694,4.9 -38.62091,8.7 -6.64198,1.8 -12.60797,3.8 -16.71296,5.9 -1.24599,0.6 -2.66299,1.6 -3.22199,2.1 -0.152,1.7 0.458,5.5 1.161,10.3 2.02799,14 6.15198,35.8 7.27698,50.8 0.448,6 0.35,11.1 -0.297,14.4 -0.467,2.5 -1.331,4.3 -2.24699,5.6 -9.05798,12.7 -17.16596,21.5 -21.83595,28.2 -1.019,1.4 -1.83199,2.8 -2.38099,4 -0.27,0.6 -0.596,1.1 -0.264,1.6 2.36099,3.6 14.04196,24.2 27.17093,46.5 6.03899,10.2 12.37397,20.8 18.28996,30.2 6.39898,10.2 12.22396,19 16.67495,24.2 0.927,1 2.163,2.2 2.722,2.8 1.43699,0 5.58598,0 9.31197,-0.3 11.47198,-0.8 29.45693,-3 49.99088,-5.8 61.83485,-8.4 146.43664,-22.2 146.43664,-22.2 1.90099,-0.4 3.73299,0.9 4.08899,2.8 0.355,1.9 -0.9,3.7 -2.802,4.1 0,0 -84.06879,17.7 -145.69564,28.4 -25.28593,4.4 -46.84688,7.5 -57.46185,8 -4.61199,0.2 -7.77098,-0.2 -9.23998,-0.8 -2.15799,-0.7 -5.32099,-3 -8.83898,-6.9 -4.93399,-5.5 -11.54597,-14.8 -18.57995,-25.8 -6.11199,-9.5 -12.59097,-20.2 -18.65296,-30.7 -12.81496,-22.1 -23.79994,-42.7 -26.07393,-46.3 -3.29399,-5.3 -3.37799,-10.8 0.094,-17.2 3.93799,-7.3 14.08896,-16.9 26.01593,-32.6 z"
     id="path5014"
     style="stroke:none;stroke-width:0.2" /><path
     d="m 410.62815,18096.509 c -1.82599,0.6 -3.82699,-0.3 -4.46699,-2.2 -0.64,-1.8 0.322,-3.8 2.148,-4.4 0,0 4.65398,-2.3 12.89896,2.7 3.359,2.1 7.37599,5.6 12.09597,11.3 4.58199,5.8 12.05797,13.4 19.65496,22 6.71698,7.6 13.58796,15.9 18.89095,24.1 6.18198,9.5 10.09297,19 10.72897,26.8 0.242,5.4 -0.169,19.1 -1.15099,34 -1.552,23.5 -4.19099,49.8 -4.19099,49.8 -0.063,1.9 -1.684,3.4 -3.617,3.4 -1.93399,-0.1 -3.45199,-1.7 -3.38899,-3.6 0,0 -1.22399,-41.2 -2.28399,-66.3 -0.301,-7.2 -0.519,-12.9 -0.88,-16 -0.299,-2.9 -1.516,-6.1 -3.07399,-9.5 -1.497,-3.3 -3.38699,-6.7 -5.50099,-10.3 -4.71499,-7.9 -10.57197,-16.1 -16.22696,-23.8 -6.92498,-9.5 -13.40996,-18.2 -17.39995,-24.6 -2.521,-4 -4.79499,-6.9 -6.90199,-9 -4.66799,-4.5 -7.33498,-4.4 -7.33498,-4.4 z"
     id="path5016"
     style="stroke:none;stroke-width:0.2" /><path
     d="m 320.12538,18290.009 c 2.84499,-0.5 6.51298,-1.1 10.81797,-1.9 5.90198,-1 12.96597,-2.2 20.72695,-3.4 6.54598,-1.1 13.58496,-2.1 20.82895,-3.2 11.83097,-1.6 24.17494,-3.3 35.81391,-4.8 29.27392,-3.8 53.86886,-6.6 53.86886,-6.6 1.905,-0.3 3.72399,1 4.05999,2.9 0.336,1.9 -0.93799,3.7 -2.84299,4.1 0,0 -23.25394,5.6 -51.46687,11.7 -16.83296,3.6 -35.37291,7.5 -51.71387,10.5 -7.24499,1.3 -14.06597,2.5 -20.09195,3.4 -8.86698,1.3 -16.03596,2.2 -20.37895,2.7 -4.42399,0.4 -7.10799,0.2 -7.60398,0 -1.476,-0.5 -4.25199,-1.7 -5.36399,-5.6 -0.444,-1.6 -0.878,-5 -0.931,-9.8 -0.088,-7.8 0.347,-19.9 1.137,-32.4 1.25799,-20 3.30699,-41.1 4.42599,-48.2 0.209,-1.9 1.93999,-3.3 3.86399,-3.1 1.92299,0.2 3.31399,2 3.10499,3.9 -0.717,11.4 -0.007,59.3 1.695,79.1 0.021,0.2 0.037,0.5 0.05,0.7 z m 0.064,3 c 0.028,1.5 0.11999,2.5 0.66999,2.3 1.522,-0.5 0.687,-1.4 -0.66999,-2.3 z"
     id="path5018"
     style="stroke:none;stroke-width:0.2" /><path
     d="m 317.05738,18204.909 c 0.84,0.1 2.506,0.1 3.98799,0.1 6.08599,-0.2 15.57696,-1.1 26.94494,-2.4 9.63197,-1 20.57995,-2.2 31.92792,-3.7 15.96996,-2.1 32.70192,-4.6 47.66288,-7.5 12.92397,-2.6 24.48394,-5.3 33.00892,-8.4 5.44198,-1.9 9.59997,-3.8 11.78097,-6 1.31099,-1.4 3.53099,-1.5 4.95299,-0.2 1.42299,1.4 1.51299,3.6 0.20199,5 -6.91898,8.2 -33.47891,17.4 -63.59284,24.7 -11.27297,2.7 -23.01794,5.2 -34.35291,7.2 -12.52897,2.3 -24.52594,4.1 -34.75392,5.3 -10.43397,1.2 -19.06495,1.7 -24.58994,1.6 -4.39198,0 -7.39298,-0.5 -8.75097,-1.1 -1.71,-0.7 -4.59099,-2.7 -7.84398,-6.2 -4.35199,-4.8 -10.45898,-12.7 -16.97996,-22.1 -18.10796,-26 -40.0469,-62.7 -41.9499,-67.6 -0.781,-1.7 0.022,-3.8 1.791,-4.6 1.76999,-0.8 3.84099,0 4.62199,1.8 1.99799,4 21.68994,30.7 39.5839,53.5 8.59298,11 16.73996,21 22.47094,27 1.353,1.4 3.04999,2.9 3.87799,3.6 z"
     id="path5020"
     style="stroke:none;stroke-width:0.2" /><path
     d="m 250.35255,18201.209 c -0.91,-1.7 -0.264,-3.8 1.44299,-4.7 1.707,-0.9 3.832,-0.3 4.74199,1.4 0,0 7.35298,9.7 16.08496,22.8 1.978,2.9 3.94699,6.1 5.89999,9.3 1.251,2.1 2.51499,4.2 3.63499,6.4 2.86999,5.7 5.36699,11.4 7.63598,16.8 6.08799,14.5 10.05998,25.9 10.05998,25.9 0.91099,1.7 0.26399,3.9 -1.442,4.8 -1.707,0.9 -3.83199,0.2 -4.74299,-1.5 0,0 -7.30998,-9.6 -15.92896,-22.8 -3.21099,-4.8 -6.61398,-10.1 -9.68998,-15.6 -1.20099,-2.2 -2.25599,-4.4 -3.29599,-6.6 -1.62399,-3.5 -3.13799,-6.9 -4.49499,-10.1 -5.98898,-14.6 -9.90597,-26.1 -9.90597,-26.1 z"
     id="path5022"
     style="stroke:none;stroke-width:0.2" /><path
     d="m 471.911,18238.209 c -1.339,-1.4 -1.293,-3.6 0.103,-4.9 1.396,-1.4 3.61699,-1.3 4.95599,0.1 0,0 8.24798,5.8 17.91395,15 2.172,2.1 4.31399,4.4 6.43999,6.8 1.35699,1.6 2.71299,3.2 3.92099,4.9 3.06599,4.4 5.70698,9.1 7.87598,13.8 4.12999,8.9 6.51398,17.4 6.30598,24 0.22,1.9 -1.162,3.7 -3.08299,3.9 -1.922,0.2 -3.66099,-1.2 -3.88099,-3.1 -1.031,-3.7 -3.62999,-7.6 -6.68999,-12 -2.10299,-3 -4.57698,-5.9 -7.06398,-9.1 -2.37699,-3 -4.92599,-6 -7.21798,-9.2 -2.90799,-4 -5.48399,-8.1 -7.91898,-11.8 -6.81098,-10.5 -11.66097,-18.4 -11.66097,-18.4 z"
     id="path5024"
     style="stroke:none;stroke-width:0.2" /><path
     d="m 293.20444,17841.509 c -1.29699,-8.7 -8.02598,-13.3 -9.34897,1 -2.363,25.7 22.02994,84.4 29.66692,94.8 2.309,3.2 11.14197,2 6.93998,-6.3 -5.98898,-11.8 -22.73394,-59 -27.25793,-89.5 z"
     id="path5026"
     style="stroke:none;stroke-width:0.2" /><path
     d="m 328.74136,17952.108 c -0.938,-1.7 -0.326,-3.8 1.36599,-4.7 1.692,-1 3.82699,-0.4 4.76499,1.3 0,0 3.20199,1.8 7.43698,5.9 1.339,1.2 2.79199,2.6 3.88399,4.4 1.025,1.7 1.536,3.5 2.162,5.4 1.09499,3.3 1.39699,6.1 2.35299,8.8 1.238,1.5 1.037,3.7 -0.449,4.9 -1.48599,1.3 -3.69799,1.1 -4.93599,-0.4 -2.74099,-1.6 -5.36598,-3.2 -8.27798,-5.6 -1.63299,-1.4 -3.13699,-2.8 -4.36498,-4.6 -0.488,-0.6 -0.825,-1.4 -1.144,-2.2 -0.527,-1.2 -0.938,-2.3 -1.235,-3.5 -1.47199,-5.9 -1.55999,-9.7 -1.55999,-9.7 z"
     id="path5028"
     style="stroke:none;stroke-width:0.2" /><path
     d="m 337.53733,18027.709 c -1.77099,-0.7 -2.57799,-2.8 -1.79899,-4.6 0.77799,-1.8 2.84799,-2.6 4.61899,-1.8 0,0 4.12098,-0.3 10.53197,-0.3 2.00899,0 4.16499,-0.2 6.46298,0 1.531,0.2 3.006,0.7 4.59099,1 1.067,0.2 2.013,0.6 3.09799,0.8 2.811,0.5 5.25499,1.3 8.19398,1.2 1.819,-0.7 3.83099,0.3 4.48999,2.1 0.659,1.8 -0.282,3.8 -2.10099,4.5 -2.965,2.2 -5.92199,3.5 -9.32498,4.8 -1.461,0.6 -2.85899,0.9 -4.36699,1.2 -2.12699,0.4 -4.22899,0.5 -6.28898,0.3 -1.122,0 -2.205,-0.3 -3.24199,-0.6 -1.677,-0.5 -3.196,-1 -4.61899,-1.7 -1.664,-0.8 -3.01,-1.5 -4.29199,-2.4 -3.95099,-2.6 -5.95299,-4.5 -5.95299,-4.5 z"
     id="path5030"
     style="stroke:none;stroke-width:0.2" /><path
     d="m 370.52025,17864.609 c 4.15099,-8.9 7.97598,-16.7 7.97598,-16.7 1.315,-2.9 4.34299,-4.7 7.53698,-4.4 3.19399,0.3 5.84799,2.6 6.60699,5.7 l 2.53999,12.6 6.50598,-0.7 c 2.645,-0.2 5.07499,1.4 5.97799,3.9 0.903,2.5 0.065,5.3 -2.062,6.9 l -7.21998,5.8 2.59799,12.8 c 0.556,2.3 -0.31099,4.7 -2.20099,6.1 -1.889,1.4 -4.43199,1.5 -6.45098,0.3 l -9.77198,-6.5 -11.81697,9.5 c -2.81599,2.1 -6.68898,2 -9.42298,-0.2 -2.73299,-2.2 -3.63699,-6 -2.19899,-9.2 0,0 2.24499,-5.4 5.27199,-12.3 l -8.42998,-5.6 c -1.324,-0.8 -1.978,-2.4 -1.612,-3.9 0.366,-1.5 1.667,-2.6 3.20599,-2.6 z"
     id="path5032"
     style="stroke:none;stroke-width:0.2" /></g>&#10;</svg>
