<?xml version="1.0" encoding="UTF-8" standalone="no"?>
<svg
   width="3484.5803"
   height="3346.1409"
   viewBox="0 0 3484.5803 3346.1409"
   version="1.1"
   xml:space="preserve"
   style="clip-rule:evenodd;fill-rule:evenodd;stroke-linejoin:round;stroke-miterlimit:2"
   id="svg5353"
   xmlns="http://www.w3.org/2000/svg"
   xmlns:svg="http://www.w3.org/2000/svg"><defs
   id="defs5353" />&#10;    <g
   id="vectorly-UNI-headphone"
   style="stroke:none;stroke-width:0.2"
   transform="matrix(4.9999999,0,0,4.9999999,-4268.9557,-48433.889)"><path
     d="m 1425.6176,10180.412 c -0.59,1.9 -2.57,2.9 -4.41,2.3 -1.84,-0.6 -2.8499,-2.6 -2.2599,-4.4 8.9899,-30.3 13.0299,-56.6 12.8199,-78.5 -0.2,-20.6 -4.26,-37 -11.9,-48.5 -13.5499,-20.5 -38.7699,-23.7 -72.2698,-7.9 -22.1499,10 -41.8199,22.7 -59.1898,36.7 -29.85,23.9 -52.7099,52 -67.6199,79.3 -15.6199,28.7 -22.7999,56.3 -20.1799,76.9 1.56,12.2 6.49,21.9 15.41,27.3 1.6799,0.9 2.2599,3.1 1.3,4.7 -0.96,1.7 -3.1,2.3 -4.78,1.3 -11.15,-6 -17.99,-17.2 -20.56,-32 -3.82,-22.1 2.2,-52.3 17.9,-83.8 14.6499,-29.4 37.6099,-60.1 68.6598,-85.8 18.14,-15.1 39.1399,-28.3 62.5698,-38.9 42.5399,-18.6 73.8199,-11.2 89.9098,15.1 6.54,10.7 10.59,24.7 11.55,41.7 1.41,25.1 -3.84,57.1 -16.95,94.5 z"
     id="path2660"
     style="stroke:none;stroke-width:0.2" /><path
     d="m 1406.7577,10027.012 c 1.63,1 2.11,3.2 1.06,4.8 -1.04,1.7 -3.21,2.1 -4.84,1.1 -22.17,-13.6 -42.1199,-19.2 -59.9599,-19.6 -23.4799,-0.7 -43.1799,7.7 -59.2998,17.9 -24.17,15.2 -45.2499,32.5 -63.2899,50.7 -20.4799,20.7 -36.8799,42.6 -49.0798,63.9 -11.79,20.7 -19.62,40.8 -23.15,59 -2.93,15.1 -3,28.7 0.44,39.9 12.85,42.9 55.5599,60.4 103.2098,56.1 40.3399,-3.6 84.3698,-22.6 118.8597,-56.3 1.36,-1.3 3.58,-1.3 4.96,0 1.38,1.4 1.39,3.6 0.03,5 -42.9899,44.9 -102.0498,67 -151.1397,63.9 -42.3899,-2.7 -77.3198,-24 -90.4397,-64.1 -4.28,-13.3 -4.87,-29.6 -1.51,-47.5 3.69,-19.7 12.0999,-41.6 25.0999,-63.9 13.03,-22.2 30.7099,-44.9 52.7199,-66.1 19.1499,-18.4 41.6199,-35.7 67.1398,-50.8 18.09,-10.6 40.0899,-18.9 65.8798,-17.3 19.04,1.2 40.1899,7.9 63.3099,23.3 z"
     id="path2662"
     style="stroke:none;stroke-width:0.2" /><path
     d="m 1168.0883,10265.912 c 6.54,-3.5 14.4999,-4.2 21.1499,-2.9 6.56,1.3 11.49,5 14.06,9.6 1.34,2.5 1.26,5.7 -0.16,9.5 -1.12,3 -3.59,6.5 -6.83,10.2 -3.59,4 -8.21,8.3 -12.79,12 -5.95,4.8 -11.8099,8.4 -14.4499,9.9 -5.54,2.9 -12.43,1.8 -17.85,-3.2 -2.95,-2.8 -5.57,-6.4 -6.93,-10 -1.47,-3.8 -1.91,-7.5 -0.96,-10.3 1.35,-3.8 4.79,-9.9 10.05,-15.1 4.16,-4.2 9.15,-7.9 14.71,-9.7 z m 23.6299,11.9 c 0.01,0 0.01,0 0.02,0.1 -0.01,-0.1 -0.01,-0.1 -0.02,-0.1 z m -30.4699,23.1 c -0.01,0 -0.02,0 -0.03,0 0.01,0 0.02,0 0.03,0 1.63,-1.1 4.5,-3.2 7.98,-5.8 2.53,-1.8 5.36,-3.9 8.1599,-6.1 3.24,-2.5 6.49,-5 9.13,-7.5 1.86,-1.7 3.52,-3.3 4.41,-4.8 0.04,0 0.09,-0.1 0.14,-0.2 -1.37,-2 -4.05,-3.4 -7.12,-4.2 -4.14,-1 -8.8299,-1.3 -13.1199,0 -4.04,2.2 -7.28,5.9 -9.94,9.6 -3.12,4.4 -5.06,9.1 -5.58,12 0.02,-0.1 0.16,-0.2 0.16,-0.2 0,0 0.12,0.2 0.16,0.3 0.13,0.5 0.45,0.9 0.72,1.4 1.28,2.4 5.49,7.7 6.08,5.4 0.11,-0.4 -0.79,-0.2 -1.18,0.1 z"
     id="path2664"
     style="stroke:none;stroke-width:0.2" /><path
     d="m 1169.4583,10269.112 c 10.6099,-4.5 24.6399,-1.4 28.0599,6.1 3.41,7.6 -25.5399,28.3 -32.3699,32.3 -6.84,4.1 -17.45,-9.1 -15.83,-15.2 1.62,-6.1 9.53,-18.7 20.14,-23.2 z"
     id="path2666"
     style="stroke:none;stroke-width:0.2" /><path
     d="m 934.69638,10324.693 c -2.12498,5.033 -10.29541,9.867 -20.98067,12.041 -10.67911,2.163 -23.64917,1.474 -34.60958,-3.247 -12.53335,-5.673 -20.15809,-14.26 -23.50028,-23.22 -2.90964,-8.03 -2.24973,-16.544 1.47299,-24.268 3.92215,-7.611 10.31214,-13.239 18.56478,-15.67 9.14739,-2.684 20.58663,-1.749 32.5464,4.818 10.37568,5.893 18.73404,15.833 23.35232,25.572 4.71314,9.805 5.89011,19.256 3.15404,23.974 z m -6.25452,-3.118 c 0.57076,-1.402 0.23819,-3.303 -0.32007,-5.521 -1.12214,-4.426 -3.90887,-9.621 -7.69239,-14.614 -4.5728,-5.978 -10.7906,-11.481 -18.05329,-14.631 -6.90543,-3.096 -13.31148,-3.856 -18.66903,-2.867 -5.71992,0.946 -10.05685,4.253 -12.37614,9.162 -2.51514,4.788 -2.4196,10.246 0.17846,15.306 2.55081,4.898 6.91636,9.494 13.55093,13.134 6.77871,3.864 14.90786,5.532 22.41962,5.615 6.35856,0.09 12.16207,-0.772 16.36602,-2.528 2.10453,-0.883 3.82006,-1.757 4.59589,-3.056 z"
     id="path2668"
     style="stroke:none;stroke-width:0.22933" /><path
     d="m 931.51785,10323.108 c -4.24408,8.514 -30.77385,13.711 -49.43487,4.408 -18.55849,-9.252 -24.33157,-25.148 -17.92936,-37.99 6.40222,-12.843 22.57121,-17.8 41.1297,-8.548 18.66102,9.303 30.47861,33.617 26.23453,42.13 z"
     id="path2670"
     style="stroke:none;stroke-width:0.22933" /><path
     d="m 930.26986,10326.412 c -1.80599,-0.7 -2.71199,-2.7 -2.02099,-4.5 0.691,-1.8 2.71899,-2.7 4.52599,-2.1 20.18595,6.6 42.89389,9.3 66.11383,9.6 8.88001,0.1 17.81991,-0.1 26.73991,-0.6 5.95,-0.3 11.88,-0.8 17.77,-1.3 15.2299,-1.4 30.1199,-3.4 44.0999,-6.3 24.8199,-5.3 46.7199,-13 61.9998,-23.4 1.54,-1.2 3.74,-0.9 4.91,0.7 1.17,1.5 0.87,3.7 -0.68,4.9 -15.02,12.6 -37.1099,23.5 -62.8998,31 -14.42,4.2 -29.95,7.4 -45.9199,9 -6.19,0.6 -12.45,0.9 -18.71,1 -9.38,0.2 -18.7899,-0.1 -28.07991,-1 -24.20494,-2.3 -47.52288,-8 -67.84883,-17 z"
     id="path2672"
     style="stroke:none;stroke-width:0.2" /><path
     d="m 1411.3677,10032.312 c -0.49,1.9 -2.4,3 -4.28,2.5 -1.87,-0.5 -2.99,-2.4 -2.5,-4.3 1.24,-7.1 3.66,-24 8.31,-36.1 1.8,-4.7 4.14,-8.5 6.5399,-11.3 2,-2.3 4.32,-3.7 6.59,-4.5 7.17,-2.6 18.2,-1.6 25.83,2.7 7.4699,4.2 11.6399,11.1 10.2199,19 -0.88,4 -3.2899,13 -6.7699,22.8 -2.62,7.3 -5.79,15.1 -9.03,21.7 -2.6,5.2 -5.19,9.7 -7.66,12.6 -2.53,3 -4.99,4.6 -7.13,4.8 -1.91,0.3 -3.7,-1 -4.01,-2.9 -0.31,-1.9 1,-3.7 2.91,-4 0.27,-0.1 0.31,-0.5 0.58,-0.9 0.69,-0.7 1.27,-1.9 1.94,-3.2 2.08,-4 3.91,-9.9 5.74,-16.3 4.09,-14.4 7.39,-31.3 8.02,-37.2 0.11,-0.7 -0.65,-1 -1.21,-1.5 -1.54,-1.3 -3.63,-2.3 -5.83,-2.9 -3.13,-0.9 -6.49,-1.5 -9.06,-0.8 -0.96,0.3 -1.79,1.2 -2.67,2.3 -1.95,2.5 -3.84,5.7 -5.57,9.3 -4.9499,10.2 -8.9899,22.6 -10.9599,28.2 z"
     id="path2674"
     style="stroke:none;stroke-width:0.2" /><path
     d="m 1407.9777,10031.412 c 2.66,-10.2 9.77,-42.4 20.3199,-45.9 9.67,-3.1 27.88,2.7 26.08,13.5 -1.8,10.8 -14.28,58.2 -23.44,59.7 -4.95,-12.7 -12.7099,-22 -22.9599,-27.3 z"
     id="path2676"
     style="stroke:none;stroke-width:0.2" /><path
     d="m 1454.0476,10000.612 c -1.92,-0.2 -3.28,-2 -3.04,-3.9 0.25,-1.9 2,-3.3 3.92,-3 3.87,0.3 12.2399,-2.1 18.9699,-8.1 4.58,-4.1 8.26,-10 9.08,-18.1 1.78,-16.86 0.19,-37.26 -4.16,-59.14 -3.68,-18.48 -9.49,-37.94 -17.22,-57.23 -3.9099,-9.76 -8.2999,-19.47 -13.1499,-28.9999 -7.2,-14.15 -15.44,-27.87 -24.85,-40.6 -26.4299,-35.73 -61.9398,-63.64 -107.4897,-70.73 -1.92,-0.25 -3.27,-2.01 -3.03,-3.93 0.25,-1.91 2,-3.27 3.92,-3.03 36.5899,3.59 68.0898,19.8 94.0698,43.24 17.1499,15.49 31.8999,34.13 43.9999,54.32 6.0099,10.03 11.3399,20.46 15.9699,31.0799 4.71,10.8 8.68,21.8 11.99,32.74 4.17,13.82 7.26,27.55 9.26,40.77 3.54,23.4 3.72,45.11 0.83,62.91 -1.8,10.7 -7.19,18.3 -13.67,23.3 -9.23,7.2 -20.4299,9.2 -25.3999,8.4 z"
     id="path2678"
     style="stroke:none;stroke-width:0.2" /><path
     d="m 1149.9483,9754.5521 c -1.7,0.92 -3.83,0.28 -4.75,-1.42 -0.91,-1.7 -0.28,-3.83 1.42,-4.75 40.6099,-23.35 81.0298,-30.72 116.5197,-22.85 26.53,5.88 50.3899,20.26 69.4799,42.74 8.4099,9.89 15.8699,21.42 22.1399,34.52 5.52,11.51 10.13,24.25 13.7,38.1699 8.47,33.05 11.1799,72.81 6.9,118.95 -0.35,3.6 -1.01,8.3 6.1599,13.3 5.2,3.6 13.65,7.4 27.29,11.1 1.88,0.5 3.03,2.4 2.58,4.2 -0.46,1.9 -2.36,3.1 -4.24,2.6 -19.85,-4.2 -29.9699,-9.4 -35.2199,-14.2 -7,-6.4 -6.6,-12.7 -6.37,-17.7 2.19,-44.62 -2.27,-82.72 -11.52,-114.29 -3.75,-12.83 -8.33,-24.5399 -13.57,-35.1799 -5.8199,-11.81 -12.5099,-22.25 -19.9699,-31.35 -20.84,-25.43 -47.9499,-40.04 -78.7798,-43.27 -28.3799,-2.98 -59.6899,3.25 -91.7698,19.43 z"
     id="path2680"
     style="stroke:none;stroke-width:0.2" /><path
     d="m 1384.9577,9979.112 c -0.42,1.9 -2.29,3.1 -4.18,2.7 -1.89,-0.4 -3.0799,-2.3 -2.6699,-4.2 16.1599,-78.21 11.6499,-146.85 -8.64,-196.4499 -18.54,-45.34 -50.3699,-74.49 -92.1298,-78.75 -57.0299,-6.08 -106.4597,15.2 -145.8596,45.29 -50.1899,38.33 -84.2998,91.2399 -95.3898,123.3799 -1.05,3.04 -1.2,5.57 -0.46,7.65 0.89,2.52 2.88,4.26 5.01,5.47 2.58,1.46 12.85,5.19 24.2699,9.21 16.25,5.7 34.7799,11.86 38.2499,12.77 3.77,0.99 6.92,-0.37 9.82,-2.64 3.62,-2.83 6.87,-6.9 10.05,-11.08 38.8399,-51.02 75.4298,-87.9699 112.1097,-106.6399 33.3799,-17 66.8598,-19.17 102.1598,-3.24 1.7699,0.78 2.5799,2.85 1.8099,4.62 -0.7799,1.77 -2.8499,2.58 -4.6199,1.81 -33.19,-14.06 -64.2799,-11.37 -94.9998,5.14 -35.1499,18.89 -69.7198,55.5999 -106.3297,105.8599 -4.72,6.47 -9.77,12.54 -15.48,16.07 -5.28,3.28 -11.12,4.58 -17.79,2.95 -3.5799,-0.88 -22.7199,-6.86 -39.4899,-12.44 -12.5999,-4.19 -23.8799,-8.26 -26.7499,-9.82 -5.08,-2.76 -9.55,-7.14 -11.75,-13.07 -1.74,-4.69 -2.08,-10.45 0.23,-17.38 11.46,-34.06 46.5599,-90.8499 99.6798,-131.3199 42.3299,-32.25 95.9597,-53.99 157.1196,-46.87 46.3499,5.61 82.0098,37.81 101.5497,88.66 19.79,51.48 23.03,122.2599 4.48,202.3199 z"
     id="path2682"
     style="stroke:none;stroke-width:0.2" /><path
     d="m 1200.7982,10096.312 c -0.07,2 -1.69,3.5 -3.63,3.4 -1.93,0 -3.45,-1.7 -3.38,-3.6 0.72,-46.9 -10.58,-86.9 -31.5599,-113.3 -23.41,-29.4 -59.2599,-40.87 -103.8498,-24.4 -16.3699,5.9 -31.1399,17.8 -43.6398,33.6 -11.18,14.1 -20.44,31.3 -27.27398,50.3 -12.46897,34.5 -16.85496,75.1 -8.39098,114.2 7.17198,33.9 26.21496,61.6 51.09486,78.3 26.4899,17.9 59.5199,23.4 91.9498,11.3 1.8,-0.7 3.84,0.1 4.55,1.9 0.71,1.8 -0.18,3.9 -1.98,4.6 -34.7499,14.4 -70.8598,9.5 -100.2498,-9 -27.8599,-17.4 -49.58285,-47.2 -58.55783,-84.1 -9.88497,-41.7 -6.39098,-85.4 6.62499,-122.6 7.27398,-20.7 17.55295,-39.5 29.88294,-54.8 14.5499,-18 32.0499,-31.3 51.0299,-37.81 40.7499,-13.78 74.7498,-7.57 99.8997,12.61 32.8899,26.5 50.6699,77.6 47.4799,139.4 z"
     id="path2684"
     style="stroke:none;stroke-width:0.2" /><path
     d="m 1075.4685,10197.712 c 1.87,0.5 2.98,2.4 2.48,4.2 -0.5,1.9 -2.43,3 -4.29,2.5 -28.9699,-6.5 -52.7299,-30.5 -66.6798,-62.7 -4.84,-11.2 -8.40001,-23.4 -10.58,-36.1 -1.39,-8.2 -2.24,-16.6 -2.33,-25.1 -0.23,-20.4 3.28,-41.4 10.86,-61.4 10.47,-27.6 28.7899,-53.2 56.0098,-72.88 1.52,-1.19 3.73,-0.92 4.92,0.61 1.19,1.52 0.92,3.73 -0.61,4.87 -24.0599,20.3 -39.0799,45.5 -47.4199,71.9 -5.9099,18.7 -8.1899,38 -7.7699,56.7 0.17,7.7 0.71,15.4 1.76,22.8 1.64,11.7 4.3899,23 8.1799,33.4 10.79,29.8 29.89,53.2 55.4699,61.2 z"
     id="path2686"
     style="stroke:none;stroke-width:0.2" /><path
     d="m 1168.9483,10140.612 c -0.18,1.9 -1.89,3.4 -3.82,3.2 -1.92,-0.2 -3.34,-1.9 -3.16,-3.8 0.87,-19 0.43,-37.2 -1.11,-54.2 -1.12,-12.4 -2.94,-24.2 -5.43,-35.1 -2.25,-10 -5.15,-19.2 -8.63,-27.7 -3.74,-9.2 -8.17,-17.4 -13.6399,-24.7 -9.34,-12.3 -21.44,-21.6 -37.1899,-26.9 -13.53,-4.5 -29.47,-6.4 -48.2799,-4.8 -1.92,0.3 -3.68,-1.1 -3.94,-3 -0.25,-1.9 1.1,-3.7 3.02,-3.9 24.9099,-4.5 45.6899,-2.8 62.8498,3.7 14.24,5.4 25.98,14.1 35.4299,25.5 6.7,8 12.25,17.5 16.53,28.1 3.8,9.4 6.6,19.7 8.51,30.7 2.02,11.8 3.04,24.3 3.12,37.5 0.11,17.5 -1.48,36.1 -4.26,55.4 z"
     id="path2688"
     style="stroke:none;stroke-width:0.2" /><path
     d="m 1047.2286,9963.212 c 4.86,-5 10.1399,-9.8 15.8699,-14.22 85.0698,-25.21 137.5997,45.82 134.1897,147.22 -12.56,14.5 -23.1999,29.4 -31.8299,44.1 10.02,-105.8 -17.11,-190.56 -118.2297,-177.1 z"
     id="path2690"
     style="stroke:none;stroke-width:0.2" /><path
     d="m 1058.0085,9898.032 c 0.81,-1.76 2.9,-2.53 4.65,-1.71 1.76,0.81 2.53,2.89 1.72,4.65 0,0 -1.03,6.89 -2.89,16.04 -0.66,3.27 -1.31,6.77 -2.3,10.25 -0.79,2.76 -1.88,5.42 -2.78,8.03 -0.9599,2.8 -2.0399,5.3 -2.6399,7.77 -0.57,2.37 -1.28,4.33 -1.05,6.12 0.09,0.71 -0.11,1.37 0.21,1.93 1.33,1.4 1.27,3.6 -0.13,4.9 -1.41,1.4 -3.63,1.3 -4.96,-0.1 -3.83,-2.7 -5.48,-8.56 -5.96,-16.14 -0.19,-3.15 0.01,-6.5 0.49,-10.03 0.33,-2.36 0.81,-4.76 1.53,-7.08 0.72,-2.31 1.67,-4.51 2.68,-6.62 1.32,-2.74 2.71,-5.21 4.12,-7.47 4.02,-6.48 7.3099,-10.54 7.3099,-10.54 z"
     id="path2692"
     style="stroke:none;stroke-width:0.2" /><path
     d="m 1091.4485,9909.542 c 0.58,-1.84 2.55,-2.87 4.4,-2.3 1.8399,0.58 2.8699,2.54 2.2999,4.39 0,0 0.46,4.68 -0.07,11.56 -0.11,1.46 -0.34,2.91 -0.66,4.45 -0.2,0.96 -0.41,1.93 -0.79,2.86 -0.9499,2.37 -2.2399,4.53 -3.6099,6.6 -2.64,4.01 -5.25,6.93 -7.41,9.25 -0.86,1.74 -2.96,2.46 -4.7,1.61 -1.73,-0.85 -2.45,-2.96 -1.6,-4.69 0.47,-2.9 0.34,-6.53 0.91,-10.94 0.31,-2.36 0.54,-4.78 1.32,-7.1 0.8,-2.4 2.06,-4.51 3.25,-6.47 3.52,-5.81 6.66,-9.22 6.66,-9.22 z"
     id="path2694"
     style="stroke:none;stroke-width:0.2" /><path
     d="m 1061.1885,9899.502 c 11.98,4.11 25.5,8.54 33.61,11.09 0,0 -7.75,24.85 -12.34,34.22 -8.48,1.12 -17.34,3.27 -26.5599,6.5 -1.85,0.7 -3.69,1.4 -5.51,2.2 -9.49,-10.04 10.7999,-54.01 10.7999,-54.01 z"
     id="path2696"
     style="stroke:none;stroke-width:0.2" /><path
     d="m 929.06287,9898.742 c -1.32,-1.42 -1.245,-3.64 0.16899,-4.96 1.413,-1.32 3.633,-1.24 4.95399,0.17 0,0 8.66698,6.43 19.33395,15.57 2.411,2.06 4.84499,4.29 7.29199,6.64 1.56599,1.5 3.14999,3.02 4.61398,4.65 3.757,4.19 7.18699,8.62 10.33298,12.77 8.46798,11.17 14.34996,20.23 14.34996,20.23 1.32,1.4 1.24,3.6 -0.17,4.9 -1.41999,1.4 -3.63599,1.3 -4.95598,-0.1 0,0 -8.63698,-6.5 -19.20596,-15.71 -3.92699,-3.42 -8.10798,-7.14 -12.03497,-11.17 -1.53099,-1.57 -2.94199,-3.26 -4.33299,-4.92 -2.17499,-2.6 -4.23298,-5.18 -6.12798,-7.73 -8.38998,-11.26 -14.21796,-20.34 -14.21796,-20.34 z"
     id="path2698"
     style="stroke:none;stroke-width:0.2" /><path
     d="m 877.97499,10031.612 c -1.91099,-0.3 -3.22099,-2.1 -2.92299,-4 0.298,-1.9 2.09199,-3.2 4.00299,-2.9 0,0 8.12998,-0.7 18.91795,-0.6 2.413,0 4.90299,0.1 7.47298,0.3 1.638,0.2 3.296,0.3 4.93099,0.6 4.20499,0.8 8.27998,1.9 12.07197,3.1 10.30198,3 17.86496,6.1 17.86496,6.1 1.91099,0.3 3.22099,2.1 2.92299,4 -0.298,1.9 -2.09199,3.2 -4.00399,2.9 0,0 -8.13998,0.7 -18.88895,0.5 -3.95599,-0.1 -8.18998,-0.3 -12.43197,-0.8 -1.648,-0.2 -3.26999,-0.6 -4.87099,-1 -2.51199,-0.5 -4.92299,-1.2 -7.22798,-1.9 -10.30198,-3.2 -17.83796,-6.3 -17.83796,-6.3 z"
     id="path2700"
     style="stroke:none;stroke-width:0.2" /><path
     d="m 879.55999,10137.412 c -1.847,0.6 -3.81399,-0.4 -4.38999,-2.3 -0.577,-1.8 0.454,-3.8 2.30099,-4.4 0,0 6.16599,-3.9 14.88897,-8.3 1.94099,-1 3.98399,-1.9 6.13598,-2.7 1.368,-0.6 2.75399,-1.2 4.19099,-1.6 3.70499,-1 7.45198,-1.6 10.96897,-2.2 9.60898,-1.4 16.92396,-1.8 16.92396,-1.8 1.847,-0.5 3.81399,0.5 4.38999,2.3 0.577,1.9 -0.454,3.9 -2.30099,4.4 0,0 -6.20199,3.9 -14.94197,8.2 -3.19899,1.5 -6.63998,3.1 -10.27497,4.4 -1.41,0.5 -2.86699,0.8 -4.30599,1.1 -2.263,0.6 -4.45899,1 -6.60998,1.3 -9.66598,1.3 -16.97596,1.6 -16.97596,1.6 z"
     id="path2702"
     style="stroke:none;stroke-width:0.2" /><path
     d="m 1467.9875,10114.012 c -1.91,0.3 -3.7,-1.1 -3.99,-3 -0.28,-1.9 1.04,-3.7 2.95,-4 0,0 10.04,-3.4 23.4,-7 3.02,-0.8 6.18,-1.5 9.4499,-2.2 2.09,-0.5 4.21,-0.9 6.35,-1.2 5.5,-0.7 11,-1 16.12,-1.2 13.79,-0.6 24.4099,-0.3 24.4099,-0.3 1.92,-0.3 3.7,1 3.99,2.9 0.29,2 -1.03,3.7 -2.95,4 0,0 -10.0599,3.4 -23.4199,6.9 -4.97,1.3 -10.32,2.6 -15.78,3.5 -2.13,0.4 -4.28,0.6 -6.41,0.8 -3.3199,0.3 -6.5599,0.5 -9.6799,0.7 -13.82,0.4 -24.44,0.1 -24.44,0.1 z"
     id="path2704"
     style="stroke:none;stroke-width:0.2" /><path
     d="m 1447.9176,10216.012 c -1.59,-1.1 -2,-3.3 -0.9,-4.9 1.1,-1.6 3.28,-2 4.88,-0.9 0,0 9.7499,4.3 22.0099,10.9 2.76,1.5 5.59,3.1 8.46,4.9 1.83,1.1 3.68,2.2 5.45,3.5 4.51,3.3 8.76,6.8 12.6799,10.2 10.55,9 18.14,16.5 18.14,16.5 1.59,1.1 1.99,3.3 0.89,4.9 -1.1,1.6 -3.28,2 -4.87,0.9 0,0 -9.73,-4.4 -21.9099,-11.1 -4.53,-2.5 -9.36,-5.2 -14.01,-8.2 -1.82,-1.2 -3.54,-2.6 -5.23,-3.9 -2.65,-2 -5.19,-4.1 -7.56,-6.2 -10.4899,-9.1 -18.0299,-16.6 -18.0299,-16.6 z"
     id="path2706"
     style="stroke:none;stroke-width:0.2" /><path
     d="m 1373.0078,10303.212 c -0.87,-1.8 -0.17,-3.9 1.56,-4.7 1.73,-0.9 3.84,-0.2 4.7099,1.5 0,0 4.97,5.6 10.82,13.7 1.3,1.8 2.55,3.7 3.78,5.8 0.79,1.3 1.58,2.6 2.23,4 1.66,3.5 2.94,7.2 4.08,10.7 3.13,9.4 4.73,16.7 4.73,16.7 0.87,1.8 0.17,3.9 -1.56,4.7 -1.73,0.9 -3.83,0.2 -4.7,-1.5 0,0 -4.94,-5.7 -10.67,-13.8 -2.09,-3 -4.29,-6.2 -6.17,-9.7 -0.72,-1.3 -1.31,-2.7 -1.88,-4.1 -0.89,-2.2 -1.6899,-4.4 -2.3599,-6.5 -3.02,-9.5 -4.57,-16.8 -4.57,-16.8 z"
     id="path2708"
     style="stroke:none;stroke-width:0.2" /></g>&#10;</svg>
