<?xml version="1.0" encoding="UTF-8" standalone="no"?>
<svg
   width="3127.8271"
   height="2206.3105"
   viewBox="0 0 3127.8272 2206.3106"
   version="1.1"
   xml:space="preserve"
   style="clip-rule:evenodd;fill-rule:evenodd;stroke-linejoin:round;stroke-miterlimit:2"
   id="svg5353"
   xmlns="http://www.w3.org/2000/svg"
   xmlns:svg="http://www.w3.org/2000/svg"><defs
   id="defs5353" />&#10;    <g
   id="vectorly-UNI-brush"
   style="stroke:none;stroke-width:0.2"
   transform="matrix(4.9999999,0,0,4.9999999,-8331.6017,-4407.2797)"><path
     d="m 2002.2162,1267.3656 c -1.83,-0.63 -2.81,-2.62 -2.18,-4.45 0.63,-1.83 2.62,-2.81 4.45,-2.18 15.9,4.67 21.7199,13.4 21.5699,21.98 -0.21,11.2699 -12.2799,24.4899 -31.6199,32.4699 -17.6199,7.27 -41.2599,10.45 -65.4998,4.19 -13.35,-3.45 -26.7699,-9.99 -39.5399,-19.88 -2.7,-2.07 -3.73,-5.67 -2.52,-8.8499 1.2,-3.18 4.34,-5.2 7.73,-4.98 31.4899,3 46.5999,-8.73 57.0198,-21.08 7.76,-9.19 13.35,-18.51 20.2,-23.56 7.05,-5.21 15.3299,-7.01 27.8799,-0.28 1.74,0.84 2.47,2.94 1.63,4.68 -0.84,1.74 -2.94,2.47 -4.68,1.63 -6.02,-2.6 -10.54,-3.06 -14.2699,-1.88 -4.39,1.4 -7.42,5.17 -10.61,9.7 -3.65,5.19 -7.21,11.45 -11.82,17.62 -6.25,8.38 -14.34,16.46 -26.3299,21.9899 -4.24,1.95 -9,3.56 -14.35,4.7 2.56,1.12 5.13,2.12 7.69,3.02 16.5699,5.8 32.9999,6.85 47.3699,4.73 15.1099,-2.23 27.8999,-7.53 35.5199,-14.32 4.17,-3.7099 6.94,-7.5699 6.81,-11.5699 -0.16,-5.3 -4.84,-9.9 -14.45,-13.68 z"
     id="path222"
     style="stroke:none;stroke-width:0.2" /><path
     d="m 1949.1763,1298.1955 c 11.67,0.65 23.45,-0.43 33.08,-5.9 1.6199,-1.0599 3.7999,-0.6099 4.8599,1.01 1.05,1.62 0.6,3.79 -1.02,4.85 -10.3799,7.77 -23.8799,10.98 -37.5299,11.7 -10.0999,0.54 -20.2199,-0.38 -29.0999,-1.83 -16.29,-2.67 -28.2699,-7.21 -28.2699,-7.21 -3.91,-1.52 -5.98,-5.81 -4.73,-9.8199 1.25,-4 5.38,-6.36 9.46,-5.4 7.9099,2.01 15.1499,3 21.7699,3.4 8.14,0.49 15.31,0.06 21.65,-1.16 25.5599,-4.88 37.2799,-20.85 37.2799,-20.85 1.01,-1.65 3.17,-2.17 4.82,-1.16 1.65,1.01 2.1699,3.17 1.17,4.82 0,0 -9.28,17.77 -33.44,27.5499 z"
     id="path224"
     style="stroke:none;stroke-width:0.2" /><path
     d="m 2014.7562,1249.0556 c -0.78,1.77 -2.85,2.57 -4.62,1.79 -1.77,-0.78 -2.58,-2.85 -1.8,-4.62 2.22,-5.41 24.9899,-42.97 56.0898,-91.76 7.81,-12.26 16.17,-25.2 24.88,-38.51 9.08,-13.88 18.4899,-28.19 28.1199,-42.47 9.53,-14.12 19.2,-28.2499 28.8699,-41.9699 17.41,-24.72 34.65,-48.22002 49.9899,-68.70001 24.54,-32.75699 44.5099,-57.58098 53.8299,-66.55398 12.5,-11.97699 22.3099,-15.41399 28.8899,-14.72099 9.77,1.032 14.45,10.11099 12.41,19.33599 -0.37,1.899 -2.21,3.142 -4.11,2.774 -1.9,-0.368 -3.14,-2.209 -2.78,-4.108 0.79,-4.75 -1.16,-9.687 -6.16,-9.95399 -5.16,-0.275 -12.19,3.57699 -21.4699,13.39999 -8.74,9.207 -26.9,34.63799 -49.7599,67.64697 -13.98,20.18999 -29.5699,43.25002 -45.9199,67.12002 -10.07,14.7099 -20.4399,29.7299 -30.8299,44.6099 -20.39,29.21 -40.7099,57.96 -58.4299,83.26 -31.3399,44.75 -54.8098,78.36 -57.1998,83.43 z"
     id="path226"
     style="stroke:none;stroke-width:0.2" /><path
     d="m 2285.1255,912.07771 c 0.86,-1.736 2.96,-2.451 4.69,-1.596 1.74,0.854 2.45,2.957 1.6,4.69299 -13.91,30.27099 -37.8599,70.42098 -66.6098,112.521 -9.62,14.08 -19.82,28.3399 -30.33,42.5199 -6.9,9.31 -13.9099,18.6 -21.0999,27.7 -18.54,23.47 -37.6799,46.05 -55.9799,66.62 -38.6899,43.46 -73.9198,77.69 -94.0197,91.17 -1.58,1.12 -3.77,0.75 -4.89,-0.83 -1.12,-1.58 -0.74,-3.77 0.84,-4.89 13.9999,-10.5 35.1599,-32.71 59.8998,-61.28 17.08,-19.74 35.7299,-42.56 54.8999,-66.68 10.57,-13.31 21.2699,-27.02 31.9899,-40.78 10.66,-13.68 21.3399,-27.4 31.6899,-41.0099 12.96,-17.04 25.47,-33.83 36.9999,-49.96003 20.93,-29.28998 38.7299,-56.25797 50.3199,-78.19796 z"
     id="path228"
     style="stroke:none;stroke-width:0.2" /><path
     d="m 2017.7662,1237.0656 c 8.7899,-14.11 25.9899,-40.35 47.3198,-72.26 13.12,-5.85 27.63,-7.7 23.21,22.59 -23.64,26.34 -44.6099,47.56 -59.7499,59.93 -4.8699,-2.18 -8.3099,-6.02 -10.7799,-10.26 z"
     id="path230"
     style="stroke:none;stroke-width:0.2" /><path
     d="m 1882.7511,1278.1652 c 3.2899,0.75 4.8899,2.5 5.5799,4.24 1.11,2.81 -0.64,7.45 -5.7499,11.41 -6.87,5.33 -19.53,10.26 -31.22,8.87 -8.2399,-1 -13.1499,-3.95 -16.3099,-7.59 -4.53,-5.22 -5.29,-12.38 -6.15,-19.12 -0.56,-4.39 -0.81,-8.74 -5.21,-10.52 -8.51,-3.45 -17.63,-1.98 -26.7099,1.4 -14.15,5.26 -28.14,15.3 -39.9099,22.49 -22.81,13.86 -48.7799,16.08 -66.7399,6.78 -17.9999,-9.31 -29.1799,-30.04 -21.6099,-63.6699 3.42,-14.83 11.36,-30.52 22.2299,-45.42 9.47,-12.97 21.15,-25.37 33.6899,-36.16 16.29,-14.02 34.06,-25.32 50.3499,-31.79 16.23,-6.46 31.1799,-8.07 42.3699,-3.9 15.17,5.69 21.22,18.35 20.65,33.87 -0.59,16.08 -8.64,35.42 -19.06,50.63 -4.64,6.77 -6.7,14.25 -5.01,20.27 1.61,5.72 6.79,9.56 15.57,9.89 8.96,0.35 17.5799,3.52 24.0099,9.33 6.08,5.5 10.32,13.2699 10.94,23.2199 0.28,4.45 2.43,7.71 5.62,10.14 3.44,2.61 7.93,4.37 12.67,5.63 z m -1.64,6.82 c -0.01,-0.01 -0.03,-0.01 -0.04,-0.01 -7.11,-1.62 -13.72,-4.31 -18.27,-8.6 -3.58,-3.37 -5.92,-7.72 -6.48,-13.32 -0.75,-7.41 -4.04,-13.13 -8.73,-17.0599 -4.9799,-4.18 -11.5599,-6.26 -18.2799,-6.28 -14.58,-0.06 -22.68,-7.28 -25.6599,-16.67 -2.75,-8.65 -0.8,-19.74 5.6199,-29.78 8.66,-13.52 15.43,-30.48 15.55,-44.51 0.07,-9.28 -3.08,-17.14 -12.23,-20.31 -8.56,-2.97 -19.7399,-0.65 -31.9499,4.47 -14.81,6.21 -30.8399,16.9 -45.6499,29.88 -11.55,10.13 -22.3299,21.66 -31.1599,33.68 -9.57,13.03 -16.91,26.56 -20.04,39.53 -6.0399,24.5699 0.17,40.4099 13.23,47.5499 14.25,7.79 35.0399,5.58 53.6299,-5.08 12.56,-7.16 27.5799,-17.16 42.5799,-22.21 11.8199,-3.99 23.6399,-5.01 34.4499,-0.21 6.78,3.02 9.33,8.48 10.34,15.07 0.51,3.36 0.62,7.03 1.16,10.56 0.42,2.74 1.04,5.42 2.8,7.59 1.96,2.42 5.2299,4.12 10.5499,4.94 5.05,0.78 10.37,0.06 15.11,-1.4 5.08,-1.57 9.52,-3.94 12.15,-6.33 0.49,-0.45 0.99,-1.06 1.32,-1.5 z m 0.56,0.13 c 0.06,0.21 0.15,0.35 0.26,0.22 0.09,-0.1 -0.06,-0.16 -0.26,-0.22 z"
     id="path232"
     style="stroke:none;stroke-width:0.2" /><path
     d="m 1881.9111,1281.5652 c -10.9,-2.69 -20.63,-7.84 -21.52,-18.84 -1.45,-17.8699 -15.75,-27.6299 -30.9799,-27.9499 -23.01,-0.47 -26.5799,-21.28 -15.3,-38.3 17.36,-26.21 27.82,-64.94 0.86,-74.66 -38.3999,-13.84 -125.2697,55.39 -138.7096,112.41 -13.97,59.2699 36.9199,73.6999 77.5998,49.6899 20.8699,-12.33 48.6599,-33 71.8298,-23.16 15.87,6.74 -1.72,33.85 26.2499,37.69 19.23,2.65 41.6399,-13.99 29.97,-16.88 z"
     id="path234"
     style="stroke:none;stroke-width:0.2" /></g>&#10;</svg>
