<?xml version="1.0" encoding="UTF-8" standalone="no"?>
<svg
   width="1947.9761"
   height="2709.6155"
   viewBox="0 0 1947.9761 2709.6155"
   version="1.1"
   xml:space="preserve"
   style="clip-rule:evenodd;fill-rule:evenodd;stroke-linejoin:round;stroke-miterlimit:2"
   id="svg5353"
   xmlns="http://www.w3.org/2000/svg"
   xmlns:svg="http://www.w3.org/2000/svg"><defs
   id="defs5353" />&#10;    <g
   id="vectorly-UNI-hourglass"
   style="stroke:none;stroke-width:0.2"
   transform="matrix(4.9999999,0,0,4.9999999,-16670.837,-44962.078)"><path
     d="m 3401.3226,9128.6671 c 0.13,-2.0613 0.29,-4.1641 0.48,-6.2946 0.08,-1.923 1.7,-3.4171 3.61,-3.3479 1.92,0.055 3.43,1.6463 3.4,3.5693 0.05,1.8538 0.07,3.6522 0.07,5.4092 0.36,14.1664 2.02,25.9809 5.59,34.4614 3.09,7.346 7.91,11.5516 15.4999,11.0813 3.02,-0.069 5.71,1.9091 6.55,4.8143 0.83,2.9052 -0.4,6.0041 -2.99,7.5536 -9.5899,6.1009 -15.8199,11.8837 -19.4799,20.71 -2.55,6.1701 -3.88,13.7375 -4.31,23.7259 -0.03,1.9783 -0.08,4.012 -0.16,6.1148 0,0.097 -0.01,0.1937 -0.01,0.2905 -0.24,4.344 -3.92,7.6919 -8.26,7.5398 -4.35,-0.166 -7.76,-3.7907 -7.68,-8.1346 0.1,-3.4033 0.27,-6.5852 0.52,-9.5872 0.25,-8.4113 -0.24,-15.5222 -2.01,-22.2042 -2.38,-9.02 -6.9899,-17.2514 -15.2199,-26.8525 -1.74,-1.8814 -2.13,-4.6483 -0.99,-6.9448 1.14,-2.2965 3.58,-3.6523 6.13,-3.4033 5.7299,0.7748 9.8499,-2.6562 12.9599,-9.6563 3.03,-6.8065 5.14,-16.3661 6.3,-28.8447 z m 2.47,65.1875 c 2.96,-4.3993 6.6,-8.1761 11.05,-11.6624 -2.93,-2.1028 -5.38,-4.8973 -7.37,-8.3836 -1.61,-2.7945 -2.89,-6.0733 -3.89,-9.7809 -0.58,1.3973 -1.21,2.6839 -1.88,3.8737 -2.37,4.1641 -5.26,7.1247 -8.62,9.02 4.71,5.7274 8.18,11.2473 10.71,16.9332 z"
     id="path2128"
     style="stroke:none;stroke-width:0.235238" /><path
     d="m 3360.2561,9227.9958 c 0.12,-1.3586 0.27,-2.7539 0.46,-4.1768 0.12,-1.9094 1.75,-3.3597 3.66,-3.2771 1.9,0.092 3.39,1.6982 3.34,3.5984 0.04,1.2576 0.05,2.4785 0.04,3.6627 0.27,8.1241 1.57,14.9813 4.32,20.1403 3.05,5.6822 8.47,8.2893 16.8499,7.7018 3.22,-0.046 6.02,2.2123 6.64,5.3793 0.63,3.1578 -1.09,6.3156 -4.09,7.4998 -8.3999,3.6994 -14.1999,7.151 -17.9599,11.9428 -3.05,3.9014 -4.45,8.7758 -4.89,15.4953 -0.03,1.2393 -0.08,2.5153 -0.15,3.828 -0.01,0.1377 -0.02,0.2845 -0.02,0.4314 -0.37,4.2961 -4.08,7.5274 -8.39,7.2887 -4.31,-0.2478 -7.64,-3.8738 -7.52,-8.1883 0.1,-2.4234 0.28,-4.7 0.54,-6.8389 0.21,-5.1773 -0.31,-9.556 -2.27,-13.7328 -2.45,-5.2416 -6.8099,-10.1803 -14.0699,-15.9543 -2.25,-1.6157 -3.15,-4.5256 -2.21,-7.1327 0.93,-2.607 3.48,-4.2777 6.24,-4.1033 6.3499,0.7436 11.2399,-1.3127 14.4399,-6.8205 2.4,-4.1401 4.09,-9.6846 5.04,-16.7438 z m 2.25,41.8503 c 2.28,-2.4418 5,-4.5991 8.23,-6.5727 -1.94,-1.4779 -3.59,-3.2129 -4.98,-5.2141 -1.27,-1.8267 -2.33,-3.8738 -3.18,-6.132 -0.44,0.7894 -0.9,1.533 -1.39,2.2307 -1.9,2.7171 -4.18,4.8285 -6.82,6.3982 3.44,3.0844 6.1,6.1504 8.14,9.2899 z"
     id="path2150"
     style="stroke:none;stroke-width:0.191621" /><path
     d="m 3701.792,9060.4524 c 0.27,0.24 0.35,0.44 0.06,0.55 -0.15,0.06 -0.14,-0.3 -0.06,-0.55 z m 0,0 c -0.53,-0.47 -1.78,-1.11 -2.55,-1.59 -2.33,-1.46 -5.4,-2.58 -8.12,-3.16 l -0.85,-0.18 -25.0299,-4.44 c 0,0 -26.66,-3.13 -26.77,-3.14 -14.5299,-1.4 -31.0799,-2.07 -49.8598,-2.3 -10.41,-0.13 -21.5,-0.11 -33.3299,0.1 -13.02,0.22 -26.91,0.64 -41.7499,1.46 -13.18,0.72 -27.09,1.6 -41.7999,2.98 l -8.38,1.27 c -5.1,1.14 -9.21,2.7 -11.79,4.61 -0.55,0.41 -1.05,0.79 -1.41,1.22 -0.22,0.26 -0.7,0.37 -0.48,0.62 1.7,1.98 5.79,3.42 12.64,4.48 1.92,0.21 3.31,1.94 3.1,3.86 -0.22,1.93 -1.95,3.32 -3.87,3.1 -9.74,-0.65 -15.38,-3.11 -18.01,-5.67 -2.28,-2.23 -2.85,-4.83 -2.47,-7.45 0.35,-2.48 2.04,-5.17 5.07,-7.71 3.19,-2.67 8.21,-5.2 14.54,-7.15 l 9.64,-2.22 c 14.7799,-2.42 28.7599,-4.45 42.0699,-5.92 15.0599,-1.66 29.1999,-2.74 42.4599,-3.25 12.1099,-0.46 23.4799,-0.46 34.1399,-0.09 19.2999,0.68 36.2299,2.58 51.0798,4.7 0.04,0 0.07,0.01 0.11,0.01 l 27.18,4.98 c 4.51,1 8.74,2 12.7099,3.01 4.53,1.16 8.72,2.31 12.59,3.43 l 0.85,0.25 c 4.38,1.28 9.3,3.73 12.44,6.51 2.55,2.26 4.08,4.76 4.28,7.03 0.21,2.32 -0.4,4.69 -2.89,6.65 -2.32,1.82 -7.02,3.61 -15.4,4.17 -1.92,0.2 -3.65,-1.19 -3.86,-3.12 -0.21,-1.92 1.19,-3.65 3.11,-3.85 5.92,-0.89 12.28,-1.86 10.85,-3.4 -0.1,-0.1 -0.19,0.02 -0.24,0.2 z"
     id="path2550"
     style="stroke:none;stroke-width:0.2" /><path
     d="m 3676.3721,9015.0224 c -1.87,-0.51 -2.97,-2.44 -2.45,-4.31 0.51,-1.87 2.44,-2.96 4.2999,-2.45 5.76,0.66 11.26,1.38 16.85,2.46 3.77,0.73 7.39,1.69 11.07,2.64 1.88,0.57 4.89,1.6 7.82,3.26 1.91,1.08 3.7299,2.49 5.2399,4.15 3.04,3.36 4.93,7.64 4.5,12.74 -0.91,5.67 -1.84,17.67 -6.24,24.81 -2.8399,4.61 -6.4099,7.86 -11.5899,7.56 -1.93,0.17 -3.63,-1.25 -3.81,-3.18 -0.17,-1.92 1.25,-3.63 3.17,-3.8 0.99,-0.25 1.47,-1.09 2.04,-1.83 1.03,-1.38 1.16,-3.35 1.46,-5.46 0.41,-2.85 0.22,-5.94 0.12,-8.92 -0.13,-3.91 -0.42,-7.49 -0.53,-9.89 0,-0.48 -0.47,-0.7 -0.74,-1.02 -0.49,-0.6 -1.06,-1.15 -1.67,-1.61 -1.86,-1.42 -3.82,-2.53 -5.04,-3.1 z m -226.9895,43.86 c 1.87,0.48 3,2.39 2.52,4.27 -0.48,1.87 -2.39,3 -4.26,2.52 -5.89,-1.19 -10.42,-4.95 -13.6099,-12.36 -2.39,-5.54 -3.87,-13.43 -4.47,-24.34 -0.21,-4.07 1.77,-9.83 7.9399,-15.07 4.12,-3.51 10.42,-6.74 19.61,-8.86 9.81,-2.17 19.4899,-4.2 29.1099,-5.88 9.92,-1.73 19.73,-3.21 29.44,-4.26 13.4599,-1.45 26.6999,-2.19 39.6499,-2.42 17.0799,-0.3 33.6399,0.42 49.6598,2 17.01,1.68 33.3199,4.44 48.9599,8.16 1.9,0.36 3.14,2.2 2.78,4.1 -0.36,1.9 -2.2,3.15 -4.1,2.78 -24.3699,-3.6 -50.1899,-4.41 -77.3498,-3.34 -11.37,0.45 -22.9499,1.27 -34.7599,2.31 -7.62,0.68 -15.32,1.47 -23.12,2.29 -9.4999,1 -19.1399,2.07 -28.9099,3.32 -9.51,1.22 -19.1399,2.48 -28.8799,4.01 -5.45,0.82 -9.64,2.13 -12.75,3.84 -4.22,2.33 -6.48,4.78 -6.56,6.94 -0.36,9.47 0.15,16.42 1.76,21.41 1.51,4.72 3.82,7.49 7.34,8.58 z"
     id="path2552"
     style="stroke:none;stroke-width:0.2" /><path
     d="m 3705.012,9474.8122 c 0.01,0.04 0.02,0.07 0.03,0.1 -0.01,-0.03 -0.02,-0.07 -0.02,-0.11 0.09,-0.09 0.11,-0.17 0.01,-0.24 -0.02,-0.01 -0.03,-0.01 -0.04,-0.01 -0.12,-1.76 1.1,-3.37 2.88,-3.69 1.9,-0.34 3.72,0.92 4.07,2.83 0.55,2.67 -0.63,5.44 -4.03,7.82 -3.81,2.67 -11.3,5.14 -21.1,7.22 -28.2299,5.98 -76.4098,9.34 -104.6997,10.52 -30.7199,1.1 -57.4299,-0.49 -78.4798,-3.42 -18.71,-2.59 -33.0299,-6.28 -41.9099,-9.78 -0.43,-0.17 -0.86,-0.35 -1.27,-0.52 -0.32,3.87 -0.47,8.29 -0.47,12.08 0.01,2.53 -0.04,4.72 0.13,6.04 -0.07,-0.29 -0.19,-0.51 -0.4,-0.35 -0.35,0.25 -0.09,0.59 0.53,1 0.01,0.05 0.02,0.1 0.04,0.14 -0.01,-0.04 -0.02,-0.08 -0.04,-0.14 1,0.66 2.93,1.48 4.65,2.35 7.2,3.62 19.8299,7.67 40.3699,10.55 19.6899,2.76 46.3399,4.48 82.0198,3.51 44.5999,-1.01 73.9298,-3.78 92.9797,-7.4 12.73,-2.43 20.69,-5.13 25.44,-8.05 3.53,-2.17 5.02,-4.14 4.96,-6.23 -0.11,-1.94 1.38,-3.59 3.31,-3.69 1.94,-0.1 3.5899,1.39 3.6899,3.32 0.3,3.98 -1.3299,8.52 -7.8599,12.95 -5.11,3.46 -13.73,7.02 -27.72,10.29 -19.2299,4.48 -48.9498,8.47 -94.2797,11.27 -45.9399,2.61 -77.4798,0.53 -98.6198,-3.17 -22.1699,-3.87 -33.6499,-9.71 -38.6499,-13.61 -3.34,-2.61 -4.75,-5.15 -5.31,-6.75 -0.66,-1.88 -1.21,-6.46 -1.22,-11.99 -0.03,-8.37 0.86,-19.19 2.21,-24.08 1.61,-5.82 5.66,-7.78 7.65,-8.11 2.42,-0.4 5.3,-0.09 7.88,2.85 0.91,1.04 3.01,1.92 5.89,3.11 8.0799,3.32 21.1699,6.76 38.2499,9.55 20.3299,3.33 46.1599,5.76 75.9698,5.61 20.5099,0 51.6199,-0.75 77.8398,-2.97 16.94,-1.43 31.7899,-3.39 40.1899,-6.34 1.62,-0.57 2.98,-1.14 4,-1.79 0.34,-0.22 0.92,-0.47 1.13,-0.67 z m -244.8994,28.84 c 0.06,0.21 0.1,0.47 0.13,0.65 0,0 0,0 0,0 -0.05,-0.19 -0.09,-0.4 -0.13,-0.65 z m 244.8994,-28.84 c -0.03,-0.12 -0.06,-0.25 -0.02,-0.26 0.01,0.09 0.02,0.17 0.03,0.25 z"
     id="path2554"
     style="stroke:none;stroke-width:0.2" /><path
     d="m 3458.5126,9046.3924 c 0.01,-1.94 1.58,-3.5 3.52,-3.49 1.93,0.01 3.5,1.59 3.49,3.52 0,0 1.7,56.7399 2.9,129.0699 0.28,16.56 0.46,33.93 0.56,51.63 0.07,11.38 0.13,22.9 0.03,34.42 -0.25,29.41 -0.9,58.82 -1.56,86.0299 -1.76,72.32 -3.92,129.04 -3.92,129.04 -0.01,1.94 -1.59,3.5 -3.52,3.49 -1.94,-0.01 -3.5,-1.59 -3.49,-3.52 0,0 -1.64,-56.74 -2.73,-129.07 -0.41,-27.2199 -0.79,-56.6299 -0.77,-86.0499 0.01,-11.51 0.18,-23.03 0.35,-34.41 0.27,-17.69 0.61,-35.06 1.04,-51.62 1.87,-72.32 4.1,-129.0399 4.1,-129.0399 z"
     id="path2556"
     style="stroke:none;stroke-width:0.2" /><path
     d="m 3687.952,9050.7924 c -0.01,-1.93 1.55,-3.51 3.49,-3.53 1.93,-0.01 3.51,1.55 3.52,3.49 0,0 2.3,56.9799 4.28,129.6299 0.45,16.63 0.81,34.08 1.1,51.86 0.19,11.43 0.38,23 0.4,34.57 0.06,29.56 -0.28,59.1 -0.65,86.4499 -0.99,72.66 -2.55,129.67 -2.55,129.67 0.01,1.94 -1.55,3.52 -3.49,3.53 -1.93,0.01 -3.51,-1.55 -3.52,-3.49 0,0 -2.25,-56.98 -4.1,-129.63 -0.7,-27.3399 -1.39,-56.8799 -1.68,-86.4299 -0.11,-11.57 -0.07,-23.14 -0.01,-34.58 0.08,-17.77 0.23,-35.23 0.48,-51.86 1.11,-72.68 2.73,-129.6799 2.73,-129.6799 z"
     id="path2558"
     style="stroke:none;stroke-width:0.2" /><path
     d="m 3649.1421,9088.3424 c -1.92,-0.26 -3.26,-2.03 -3,-3.94 0.26,-1.92 2.03,-3.26 3.95,-3 5.08,-0.62 9.43,-1.23 13.96,-1.29 1.95,-0.03 3.77,0.12 5.59,0.33 1.27,0.14 2.51,0.32 3.68,0.65 3.35,0.96 6.2399,2.3 8.7999,3.74 5.85,3.3 9.68,6.53 11.93,9.82 1.46,1.28 1.59,3.4899 0.31,4.9399 -1.28,1.45 -3.5,1.59 -4.95,0.31 -2.34,-1.19 -5.47,-1.33 -9.61,-1.89 -1.63,-0.22 -3.2899,-0.32 -5.1399,-0.59 -1.65,-0.23 -3.38,-0.3499 -5.15,-0.7899 -2.61,-0.66 -5.26,-1.66 -8.08,-2.76 -4.06,-1.58 -7.75,-3.64 -12.29,-5.53 z m -186.0795,11.3499 c -1.8,0.71 -3.83,-0.18 -4.54,-1.98 -0.71,-1.7999 0.18,-3.8399 1.98,-4.5499 12.25,-5.86 28.7299,-10.99 47.6299,-14.67 6.3,-1.23 12.8399,-2.22 19.5699,-3.02 4.31,-0.52 8.69,-0.99 13.12,-1.24 10.81,-0.61 21.8699,-0.56 32.8599,-0.14 16.97,0.65 33.5899,2.47 48.9699,4.58 1.93,0.13 3.39,1.8 3.25,3.73 -0.13,1.93 -1.8,3.39 -3.73,3.26 -12.9,0.03 -26.5899,0.73 -40.5999,1.59 -8.95,0.55 -17.95,1.26 -26.9099,1.95 -6.01,0.45 -11.98,0.94 -17.87,1.33 -9.21,0.6 -18.18,1.13 -26.7599,1.84 -18.3,1.51 -34.5999,3.46 -46.9699,7.3199 z"
     id="path2560"
     style="stroke:none;stroke-width:0.2" /><path
     d="m 3456.9626,9432.6022 c -0.7,-1.8 0.2,-3.84 2,-4.53 1.81,-0.7 3.84,0.19 4.54,2 0.85,1.89 3.63,3.09 7.42,4.55 9.5599,3.67 25.5599,5.99 44.6999,7.77 15.8399,1.47 33.7599,2.22 51.9898,2.85 11.62,0.4 23.34,0.85 34.7299,1.02 10.71,0.16 21.11,0.24 30.84,0.01 18.5599,-0.44 34.5499,-1.72 45.2798,-4.56 4.05,-1.08 7.31,-2.23 9.49,-3.76 1.35,-0.95 2.43,-1.77 2.32,-3.05 -0.26,-1.91 1.08,-3.68 2.99,-3.95 1.92,-0.27 3.69,1.07 3.96,2.99 0.67,3.49 -0.73,6.76 -3.99,9.77 -3.32,3.07 -9.15,5.83 -16.9499,8.19 -14.22,4.29 -35.35,7.42 -59.0499,8.87 -12.67,0.77 -26.0599,1.14 -39.4699,0.78 -12.48,-0.33 -24.9699,-1.31 -36.8999,-2.61 -13.16,-1.43 -25.6099,-3.4 -36.6699,-5.64 -16.97,-3.44 -30.6099,-7.63 -38.5199,-12.12 -4.82,-2.73 -7.76,-5.68 -8.71,-8.58 z"
     id="path2562"
     style="stroke:none;stroke-width:0.2" /><path
     d="m 3490.8025,9443.8722 c 0.08,1.93 -1.43,3.56 -3.37,3.63 -1.93,0.07 -3.56,-1.44 -3.63,-3.37 -3.08,-45.99 3.3,-78.11 13.34,-101.66 12.47,-29.2399 30.4699,-45.3799 43.0999,-58.4899 6.78,-7.04 12.25,-12.55 12.21,-20.1 0.02,-5.3 -2.33,-8.69 -5.89,-11.58 -4.39,-3.55 -10.19,-6.47 -16.49,-10 -15.4499,-8.67 -33.6999,-20.28 -44.7699,-47.5 -8.93,-21.96 -13.1199,-54.5 -6.53,-104.8999 0.2,-1.92 1.92,-3.32 3.84,-3.12 1.93,0.19 3.33,1.91 3.13,3.84 -3.56,48.0899 1.85,78.6699 11.3,99.0799 13.14,28.39 34.6799,35.91 49.5599,44.02 13.1599,7.16 21.7399,15.12 21.8399,30.16 -0.07,11.38 -6.61,20.71 -17.0999,31.07 -12.08,11.93 -29.43,26.22 -42.3599,52.9099 -10.64,21.96 -18.51,52.08 -18.18,96.01 z"
     id="path2564"
     style="stroke:none;stroke-width:0.2" /><path
     d="m 3673.1421,9090.1324 c 0.07,-1.93 1.7,-3.44 3.63,-3.37 1.9299,0.07 3.4499,1.7 3.3699,3.63 -0.31,46.0299 -6.8699,77.7099 -16.1199,100.2299 -13.35,32.49 -32.0499,46.41 -45.6599,56.66 -4.12,3.11 -7.76,5.77 -10.46,8.65 -2.13,2.27 -3.53,4.64 -3.51,7.91 -0.06,13.7 7.39,20.02 16.37,27.75 12.43,10.71 27.9099,23.13 38.0899,50.4299 8.13,21.84 12.79,53.47 9.24,102.13 -0.08,1.94 -1.72,3.44 -3.66,3.35 -1.93,-0.09 -3.43,-1.72 -3.34,-3.66 0.74,-46.66 -5.3,-76.59 -14.09,-97.07 -10.26,-23.9199 -24.5999,-34.2799 -35.9899,-43.5099 -12.96,-10.5 -22.3199,-20.04 -22.6099,-39.34 -0.01,-9.68 4.45,-16.44 12.3099,-22.93 6.42,-5.3 15.47,-10.61 25.03,-19.29 8.9,-8.07 18.2599,-19.16 26.3399,-36.33 9.96,-21.17 18.09,-51.11 21.06,-95.2399 z"
     id="path2566"
     style="stroke:none;stroke-width:0.2" /><path
     d="m 3491.8725,9396.9122 c -1.36,1.36 -3.59,1.36 -4.95,-0.01 -1.37,-1.37 -1.37,-3.59 0,-4.95 8.39,-9.38 26.97,-26.21 45.9999,-38.31 7.48,-4.75 15.08,-8.67 22.06,-11.29 6.6399,-2.4899 12.8599,-3.6499 18.1399,-3.5099 5.35,0.25 10.43,1.12 15.21,2.6499 7.27,2.33 13.8999,5.96 19.9499,10.43 13.39,9.89 24,23.68 33.8799,34.71 7.66,8.54 14.46,15.61 22.56,16.25 1.94,0.04 3.47,1.64 3.43,3.57 -0.04,1.94 -1.64,3.47 -3.58,3.43 -9.88,0.36 -19.6,-6.39 -29.9299,-15.79 -10.36,-9.42 -21.51,-21.42 -34.76,-29.92 -8.1199,-5.2 -17.0399,-9.1 -27.4999,-9.42 -4.46,-0.3 -9.87,1.06 -15.79,3.2 -5.3899,1.95 -11.1099,4.55 -16.8999,7.52 -19.19,9.82 -38.8399,23.43 -47.8199,31.44 z"
     id="path2568"
     style="stroke:none;stroke-width:0.2" /><path
     d="m 3557.3423,9257.6123 c -1.8499,-0.57 -2.8999,-2.53 -2.3399,-4.38 0.57,-1.85 2.5299,-2.89 4.3799,-2.33 11.59,1.89 17.89,6.6 22.05,20.13 1.26,4.12 2.19,9.22 2.54,15.53 0.18,3.04 0.12,6.37 -0.11,10.01 -0.27,4.44 -0.84,9.29 -1.62,14.7 -0.95,6.53 -2.31,13.6 -3.79,21.74 -0.09,1.93 -1.73,3.43 -3.66,3.33 -1.93,-0.09 -3.43,-1.73 -3.34,-3.66 -0.77,-9.52 -1.69,-17.61 -2.23,-24.92 -0.45,-6.16 -0.9,-11.52 -1.06,-16.3 -0.17,-5.07 -0.07,-9.37 -0.23,-13.06 -0.22,-4.86 -0.32,-8.51 -1.39,-11.42 -1.65,-4.47 -4.4,-7.12 -9.2,-9.37 z"
     id="path2570"
     style="stroke:none;stroke-width:0.2" /><path
     d="m 3592.5323,9186.4723 c 6.0299,-4.55 13.0199,-8.22 20.0499,-10.85 11.32,-4.23 22.76,-5.39 30.8199,-3.6 13.14,3.04 18.62,12.94 17.33,21.13 -1.3,8.24 -10.93,17.85 -33.0699,17.22 -6.13,-0.28 -13.37,-1.56 -21.26,-3.63 -6.14,-1.6 -12.6999,-3.66 -19.4899,-5.9 -18.43,-6.08 -38.5699,-13.37 -56.5999,-15.37 -14.44,-1.6 -27.4399,-0.13 -36.5499,9.09 -1.29,1.44 -3.51,1.56 -4.95,0.27 -1.44,-1.3 -1.56,-3.51 -0.26,-4.95 9.83,-12.07 25.07,-15.98 42.5199,-15.49 19,0.52 40.6799,6.37 60.2799,11.75 0.39,0.11 0.79,0.22 1.18,0.33 z m 10.8399,2.97 c 2.39,0.64 4.74,1.26 7.01,1.84 6.77,1.71 12.89,3.12 18.13,3.44 5.06,0.39 9.1699,0.13 12.3999,-0.72 2.33,-0.61 4.15,-1.31 5.24,-2.48 1.09,-1.18 0.83,-2.73 -0.33,-3.95 -1.33,-1.4 -3.24,-2.63 -5.72,-3.41 -6.2099,-2.01 -15.2699,-1.49 -24.4999,0.95 -4.12,1.09 -8.27,2.53 -12.23,4.33 z"
     id="path2572"
     style="stroke:none;stroke-width:0.2" /><path
     d="m 3513.5325,9170.7023 c -0.38,-1.9 0.85,-3.75 2.7399,-4.13 1.9,-0.39 3.75,0.84 4.13,2.74 2.12,4.81 4.68,9.01 7.03,13.59 1.5,2.92 3.09,5.68 4.43,8.55 1.11,2.41 1.94,4.85 2.97,7.19 1.09,2.46 1.94,4.84 3.16,7.12 1.64,3.05 3.1,5.86 5.3,8.42 1.54,1.16 1.85,3.36 0.68,4.91 -1.16,1.54 -3.36,1.85 -4.9,0.69 -3.91,-1.81 -7.25,-4.14 -10.62,-7 -2.16,-1.84 -4.03,-3.88 -5.86,-6.17 -1.84,-2.3 -3.48,-4.81 -4.83,-7.55 -0.68,-1.4 -1.22,-2.89 -1.69,-4.4 -0.6899,-2.22 -1.2899,-4.45 -1.6499,-6.8 -0.88,-5.71 -0.97,-11.25 -0.89,-17.16 z m -3.38,-66.45 c 0.17,-1.92 1.88,-3.34 3.81,-3.17 1.9299,0.18 3.3399,1.89 3.1699,3.82 0,0 1.47,5.11 2.83,13.98 0.42,2.77 0.94,5.83 0.95,9.21 0.01,2.95 -0.48,5.99 -0.9,9.24 -0.61,4.62 -1.65,9.06 -2.29,14.09 0.2,1.92 -1.2,3.65 -3.1199,3.85 -1.93,0.2 -3.65,-1.2 -3.85,-3.13 -1.73,-4.98 -3.32,-9.46 -4.39,-14.19 -0.76,-3.36 -1.29,-6.57 -1.44,-9.66 -0.06,-1.34 0.05,-2.64 0.17,-3.89 0.2,-2.09 0.47,-4 0.86,-5.81 1.97,-9.18 4.2,-14.34 4.2,-14.34 z"
     id="path2574"
     style="stroke:none;stroke-width:0.2" /></g>&#10;</svg>
