<?xml version="1.0" encoding="UTF-8" standalone="no"?>
<svg
   width="2407.3325"
   height="3453.5959"
   viewBox="0 0 2407.3325 3453.596"
   version="1.1"
   xml:space="preserve"
   style="clip-rule:evenodd;fill-rule:evenodd;stroke-linejoin:round;stroke-miterlimit:2"
   id="svg5353"
   xmlns="http://www.w3.org/2000/svg"
   xmlns:svg="http://www.w3.org/2000/svg"><defs
   id="defs5353" />&#10;    <g
   id="vectorly-UNI-basketball"
   style="stroke:none;stroke-width:0.2"
   transform="matrix(4.9999999,0,0,4.9999999,-12978.059,-19940.631)"><path
     d="m 2982.7306,4516.6107 c 1.5004,-1.2174 3.7114,-0.9783 4.9285,0.5307 1.2074,1.5021 0.9703,3.7102 -0.53,4.9276 -40.7619,33.4691 -91.0597,51.9253 -142.4001,53.9313 -50.6093,1.9702 -102.1984,-12.0826 -146.8355,-43.3654 -54.4377,-38.2977 -88.2586,-95.1757 -98.7719,-156.0825 -10.5169,-61.1078 2.4381,-126.2684 41.068,-180.8442 39.0336,-54.3173 96.3517,-87.8936 157.583,-97.8932 61.0561,-9.96 125.8799,3.4485 179.9432,42.4774 53.7196,38.9336 86.6947,95.9464 96.3695,156.7301 9.6093,60.4016 -3.7534,124.4849 -42.4948,177.836 -1.1231,1.5747 -3.3121,1.9437 -4.8907,0.8179 -1.5786,-1.1259 -1.9426,-3.3157 -0.8195,-4.8904 36.4696,-52.0621 48.3868,-114.0156 38.1879,-172.0858 -10.1395,-57.7 -42.1815,-111.5687 -93.8818,-147.8508 -51.3767,-36.1998 -112.49,-48.0087 -169.9335,-38.1669 -57.2662,9.7992 -110.8494,41.2306 -147.0059,92.3383 -36.5602,50.8493 -48.9526,111.7171 -39.5967,169.0935 9.3582,57.5794 40.4897,111.6323 91.4223,148.4547 42.0702,30.5326 91.0749,44.6225 139.3565,43.5868 49.5637,-1.0607 98.3786,-17.9944 138.3015,-49.5451 z"
     id="path1318"
     style="stroke:none;stroke-width:0.239376" /><path
     d="m 3067.8725,4394.6955 c 0.803,1.7 0.027,3.8 -1.733,4.6 -1.76,0.8 -3.841,0.1 -4.644,-1.7 -18.919,-39 -46.3919,-67.77 -79.8488,-88.18 -22.212,-13.54 -47.0929,-23.26 -73.9838,-29.78 -18.957,-4.6 -38.8979,-7.55 -59.6179,-9.15 -19.6009,-1.51 -39.8819,-1.85 -60.6868,-0.94 -29.484,1.3 -59.9709,4.96 -90.9298,10.83 -29.5209,5.6 -59.4499,13.07 -89.2828,22.41 -1.832,0.62 -3.823,-0.36 -4.443,-2.2 -0.62,-1.83 0.364,-3.82 2.196,-4.44 29.7159,-10.83 59.5839,-19.92 89.1928,-26.82 31.3469,-7.3 62.3488,-12.24 92.4138,-14.42 21.4639,-1.56 42.4549,-1.75 62.7188,-0.3 21.6609,1.54 42.5009,4.92 62.2128,10.11 28.259,7.44 54.2439,18.64 77.1259,33.85 34.1879,22.73 61.4488,54.43 79.3098,96.13 z"
     id="path1320"
     style="stroke:none;stroke-width:0.2" /><path
     d="m 2686.9214,4160.4856 c -1.928,0.16 -3.626,-1.27 -3.789,-3.2 -0.164,-1.92 1.268,-3.62 3.196,-3.79 38.3999,-4.33 70.2348,0.78 94.8298,12.07 13.9029,6.38 25.5149,14.78 34.7219,24.59 22.6569,24.13 31.1669,56.8399 23.2959,89.9999 -6.341,26.72 -23.5049,53.84 -52.1438,76.74 -29.236,23.3 -70.7599,42.2 -125.2357,52.2 -1.894,0.4 -3.751,-0.9 -4.145,-2.8 -0.393,-1.8 0.825,-3.7 2.719,-4.1 51.8548,-12.1 90.6847,-32.3 117.9347,-55.8 24.9209,-21.53 39.6629,-45.92 45.3089,-69.92 6.6339,-28.19 0.415,-55.73 -18.108,-76.8999 -22.6869,-25.93 -62.7268,-42.37 -118.5847,-39.09 z"
     id="path1322"
     style="stroke:none;stroke-width:0.2" /><path
     d="m 3066.4295,4274.2255 c 1.677,0.97 2.257,3.11 1.294,4.79 -0.964,1.68 -3.108,2.26 -4.785,1.29 -37.1399,-19.48 -65.7479,-9.42 -83.7158,14.3 -7.681,10.14 -13.335,22.67 -17.184,36.36 -4.8,17.03 -6.726,35.93 -4.796,54.53 2.863,27.6 13.574,54.7 34.9879,73.6 1.498,1.1999 1.721,3.3999 0.497,4.8999 -1.224,1.5 -3.4339,1.7 -4.9319,0.5 -24.873,-18.7999 -39.2219,-47.2999 -44.0939,-77.1999 -3.336,-20.5 -2.272,-41.6 2.93,-60.61 4.3379,-15.81 11.5869,-30.1 21.0379,-41.32 22.441,-26.62 57.1659,-37.19 98.7598,-11.14 z"
     id="path1324"
     style="stroke:none;stroke-width:0.2" /><path
     d="m 2905.5139,4113.4056 c -0.244,-1.92 1.116,-3.68 3.035,-3.92 1.9189,-0.24 3.6749,1.12 3.9189,3.04 7.081,46.15 9.365,91.39 5.683,135.6399 -1.518,18.24 -4.099,36.29 -7.703,54.14 -2.4069,11.92 -5.2529,23.76 -8.6959,35.49 -8.473,28.8 -19.955,56.9 -34.3489,84.3 -20.165,38.4999 -46.2809,75.3999 -78.2579,110.9999 -1.2559,1.5 -3.4699,1.6 -4.9409,0.4 -1.471,-1.3 -1.646,-3.5 -0.389,-5 29.6189,-36.4 53.0168,-73.9999 71.3738,-112.4999 12.956,-27.1 23.1969,-54.7 31.2059,-82.68 3.247,-11.36 6.225,-22.76 8.788,-34.25 3.848,-17.26 6.835,-34.7 9.03,-52.34 5.382,-43.2699 5.8919,-87.6899 1.301,-133.3199 z"
     id="path1326"
     style="stroke:none;stroke-width:0.2" /><path
     d="m 2762.6532,3991.8956 c -0.146,-1.93 1.301,-3.61 3.23,-3.76 1.929,-0.14 3.614,1.3 3.76,3.23 0,0 4.576,34.83 8.693,81.24 0.92,10.38 1.742,21.32 2.458,32.59 0.454,7.15 0.895,14.42 1.147,21.76 0.625,18.17 0.731,36.68 0.521,54.52 -0.367,31.25 -2.021,60.3199 -4.505,81.8799 -0.143,1.93 -1.826,3.38 -3.755,3.24 -1.929,-0.15 -3.379,-1.83 -3.236,-3.76 0.413,-13.69 0.021,-30.33 -0.666,-48.6299 -0.577,-15.38 -1.471,-31.86 -2.379,-48.7 -0.58,-10.77 -1.229,-21.66 -1.711,-32.48 -0.49,-11 -0.842,-21.92 -1.156,-32.52 -0.457,-15.37 -0.776,-30.06 -1.062,-43.42 -0.816,-38.13 -1.339,-65.19 -1.339,-65.19 z"
     id="path1328"
     style="stroke:none;stroke-width:0.2" /><path
     d="m 2842.686,4032.4556 c -0.088,-1.93 1.409,-3.57 3.341,-3.66 1.933,-0.09 3.573,1.41 3.661,3.34 0,0 2.687,16.87 4.804,39.99 0.466,5.09 0.828,10.47 1.097,16.04 0.17,3.52 0.331,7.1 0.314,10.72 -0.042,8.88 -0.532,17.96 -1.209,26.82 -1.127,14.75 -3.052,28.71 -5.015,40.18 -0.167,1.93 -1.867,3.36 -3.795,3.19 -1.927,-0.16 -3.356,-1.87 -3.189,-3.79 0.04,-11.44 -0.93,-25.24 -1.661,-39.75 -0.442,-8.78 -0.938,-17.75 -1.121,-26.52 -0.075,-3.59 0,-7.14 0.072,-10.62 0.107,-5.54 0.265,-10.88 0.497,-15.95 1.055,-23.06 2.204,-39.99 2.204,-39.99 z"
     id="path1330"
     style="stroke:none;stroke-width:0.2" /><path
     d="m 3045.5015,4639.7954 c 16.753,4.4 23.196,14.2 21.881,21.8 -1.271,7.4 -10.206,14.8 -27.376,15.3 -4.064,0.1 -64.4268,1.2 -136.6216,1.7 -44.5289,0.3 -93.5478,0.4 -136.6227,-0.1 -32.1109,-0.3 -60.9208,-0.9 -82.1198,-1.9 -19.0979,-0.8 -32.2969,-2 -36.7679,-3.3 -5.076,-1.5 -8.308,-4.4 -10.025,-7.7 -2.196,-4.1 -2.287,-9.2 0.619,-14 3.008,-5.1 10.244,-10.6 22.902,-12.3 25.4699,-3.2 57.4248,-6 92.1387,-8 44.2319,-2.6 92.9348,-4 138.3337,-3.7 66.2188,0.3 125.4017,4.1 153.6586,12.2 z m -393.46,18.1 c -0.163,-0.3 -0.35,-0.4 -0.507,-0.2 -0.113,0.1 0.218,0.1 0.507,0.2 z m 0.548,0.1 c 4.309,1.1 16.0409,1.9 32.7859,2.7 21.079,1 49.7229,1.9 81.6508,2.6 43.0099,1.1 91.9568,2 136.4247,2.8 72.0928,1.2 132.3796,2.1 136.4406,2.1 7.478,0 13.044,-1.4 16.518,-3.8 1.731,-1.2 2.905,-2.6 3.23,-4.2 0.441,-2.2 -0.596,-4.5 -2.759,-6.6 -2.768,-2.8 -7.176,-5.2 -13.232,-7 -28.0599,-7.3 -86.4708,-9.1 -151.7216,-7.8 -80.3948,1.6 -171.1306,7.9 -228.4774,16.1 -4.043,0.5 -8.885,1.9 -10.86,3.1 z m -0.37,0.3 c -0.638,0.5 -0.751,1 -0.088,1.4 0.441,0.2 0.346,-0.7 0.088,-1.4 z"
     id="path1332"
     style="stroke:none;stroke-width:0.2" /><path
     d="m 3044.5755,4643.1954 c 27.5089,7.6 24.676,28.9 -4.627,29.3 -10.0309,0.2 -363.2411,0.8 -389.876,-6.9 -10.428,-3 -7.27,-15.9 12.337,-18.5 104.5747,-14 319.4352,-21.1 382.166,-3.9 z"
     id="path1334"
     style="stroke:none;stroke-width:0.2" /></g>&#10;</svg>
