<?xml version="1.0" encoding="UTF-8" standalone="no"?>
<svg
   width="994.75714"
   height="2119.5789"
   viewBox="0 0 994.75715 2119.5789"
   version="1.1"
   xml:space="preserve"
   style="clip-rule:evenodd;fill-rule:evenodd;stroke-linejoin:round;stroke-miterlimit:2"
   id="svg5353"
   xmlns="http://www.w3.org/2000/svg"
   xmlns:svg="http://www.w3.org/2000/svg"><defs
   id="defs5353" />&#10;    &#10;<path
   id="vectorly-UNI-up-down-arrow"
   style="fill:#000000;stroke-width:0.999995"
   d="m 534.29403,0 c -1.31,0 -2.538,0.45 -3.766,0.96 -16.356,-2.68 -30.447,2.12 -44.731,9.97 C 374.19303,72.3 -13.750967,633.78 0.37603287,694.66 25.412033,733.46 77.255033,736.29 252.71803,543 l 181.672,-200.13 c 39.803,482.11 18.447,952.37 0,1434.06 l -181.672,-200.15 C 77.255033,1383.51 25.412033,1386.34 0.37603287,1425.14 -13.750967,1486.01 374.19303,2047.48 485.79703,2108.86 c 14.28,7.86 28.368,12.65 44.717,9.97 4.771,1.88 10.129,0.15 16.188,-5.07 44.571,-19.68 108.172,-95.15 230.116,-300.37 213.158,-358.71 252.93197,-487.54 192.077,-492.42 -61.747,-4.94 -228.749,287.34 -354.877,442.15 4.152,-134.24 3.962,-1278.32 0,-1406.44 126.128,154.81 293.13,447.08 354.877,442.13 60.85497,-4.86 21.081,-133.7 -192.077,-492.41 C 654.88503,101.2 591.28003,25.73 546.71303,6.04 542.21403,2.15 538.06603,0 534.29403,0 Z" /></svg>
