<?xml version="1.0" encoding="UTF-8" standalone="no"?>
<svg
   width="3092.7432"
   height="2338.1885"
   viewBox="0 0 3092.7432 2338.1885"
   version="1.1"
   xml:space="preserve"
   style="clip-rule:evenodd;fill-rule:evenodd;stroke-linejoin:round;stroke-miterlimit:2"
   id="svg5353"
   xmlns="http://www.w3.org/2000/svg"
   xmlns:svg="http://www.w3.org/2000/svg"><defs
   id="defs5353" />&#10;    <g
   id="vectorly-UNI-streaming-video"
   transform="matrix(4.9999999,0,0,4.9999999,-8336.6848,-89035.533)"
   style="stroke-width:0.2"><path
     d="m 2281.5755,18173.309 c -0.01,1.9 -1.59,3.5 -3.52,3.5 -1.94,-0.1 -3.5,-1.6 -3.49,-3.6 0,0 -0.3,-351.9 -0.3,-351.9 -33.4899,0.2 -205.7895,1 -357.0391,1.5 -108.4197,0.2 -206.0195,0.3 -233.9294,0.3 l -1.81,362.1 596.1885,3.8 c 1.93,0 3.5,1.5 3.5,3.5 0,1.9 -1.57,3.5 -3.51,3.5 l -603.1285,3 c -1.84,0 -3.6,-0.8 -4.9,-2.1 -1.3,-1.3 -2.02,-3 -2.02,-4.9 l -0.28,-377 c 0.01,-4.4 3.59,-8 8.01,-7.9 0,0 113.3397,0.1 241.8894,0.6 168.3796,0.6 362.8391,1.9 362.8391,1.9 1.55,0 3.03,0.7 4.12,1.8 1.09,1.1 1.7,2.5 1.69,4.1 z"
     id="path5060"
     style="stroke:none;stroke-width:0.2" /><path
     d="m 1763.8868,18117.909 c 0.05,-1.9 1.66,-3.4 3.59,-3.4 1.94,0.1 3.47,1.7 3.42,3.6 0,0 1.74,5.6 3.14,13.6 0.3,1.7 0.51,3.5 0.65,5.4 0.08,1.1 0.17,2.3 0.09,3.5 -0.2,3.2 -0.79,6.2 -1.4,9 -1.69,7.8 -3.69,13.3 -3.69,13.3 -0.05,2 -1.66,3.5 -3.59,3.4 -1.94,0 -3.46,-1.6 -3.41,-3.6 0,0 -1.7,-5.6 -2.97,-13.5 -0.45,-2.8 -0.89,-5.9 -0.92,-9 -0.01,-1.2 0.14,-2.4 0.29,-3.6 0.24,-1.8 0.54,-3.6 0.94,-5.3 1.81,-7.9 3.86,-13.4 3.86,-13.4 z"
     id="path5062"
     style="stroke:none;stroke-width:0.2" /><path
     d="m 1674.677,18125.109 h 92.5198 l -0.79,29.5 h -91.7898 z"
     id="path5064"
     style="stroke:none;stroke-width:0.2" /><path
     d="m 1766.7868,18143.909 c -1.93,0 -3.5,-1.5 -3.5,-3.5 0,-1.9 1.57,-3.5 3.5,-3.5 0,0 67.4598,-1.9 153.4396,-3.5 19.69,-0.3 40.3399,-0.6 61.3799,-0.8 13.5299,-0.1 27.2199,-0.2 40.9099,-0.2 34.9799,0.2 69.9398,0.7 102.2997,1.2 85.9698,1.4 153.4396,3.3 153.4396,3.3 1.93,0 3.5,1.6 3.5,3.5 0,2 -1.57,3.5 -3.5,3.5 0,0 -67.4698,1.9 -153.4396,3.4 -32.3599,0.5 -67.3198,1 -102.2997,1.1 -13.69,0.1 -27.38,0 -40.9099,-0.2 -21.04,-0.2 -41.6899,-0.4 -61.3799,-0.8 -85.9798,-1.5 -153.4396,-3.5 -153.4396,-3.5 z"
     id="path5066"
     style="stroke:none;stroke-width:0.2" /><path
     d="m 2017.7262,17994.909 c 14.8199,4.6 10.0999,16.3 1.31,21 -2.22,1.2 -54.0599,33.4 -56.2299,35.1 -6.4,5 -15.73,5 -18.04,-8.1 -0.75,-4.3 -3.6899,-51.1 -2.0999,-61.7 0.8899,-5.9 5.7699,-9.2 15.4699,-5.7 6.04,2.1 54.7699,17.9 59.5899,19.4 z"
     id="path5068"
     style="stroke:none;stroke-width:0.2" /><path
     d="m 2006.4085,18240.903 c 8.4733,2.63 5.7747,9.32 0.749,12.007 -1.2693,0.686 -30.9086,19.096 -32.1493,20.068 -3.6592,2.859 -8.9935,2.859 -10.3143,-4.631 -0.4288,-2.459 -2.1097,-29.216 -1.2006,-35.277 0.5088,-3.373 3.2989,-5.26 8.8449,-3.259 3.4533,1.201 31.3145,10.234 34.0703,11.092 z"
     id="path5070"
     style="stroke:none;stroke-width:0.114349" /><path
     d="m 2113.6682,18240.903 c 8.4733,2.63 5.7746,9.32 0.749,12.007 -1.2693,0.686 -30.9086,19.096 -32.1493,20.068 -3.6592,2.859 -8.9936,2.859 -10.3143,-4.631 -0.4288,-2.459 -2.1098,-29.216 -1.2007,-35.277 0.5089,-3.373 3.299,-5.26 8.8449,-3.259 3.4534,1.201 31.3146,10.234 34.0704,11.092 z"
     id="path5072"
     style="stroke:none;stroke-width:0.114349" /><path
     d="m 1850.2315,18240.903 c -8.4733,2.63 -5.7747,9.32 -0.749,12.007 1.2692,0.686 30.9086,19.096 32.1493,20.068 3.6591,2.859 8.9935,2.859 10.3143,-4.631 0.4288,-2.459 2.1097,-29.216 1.2006,-35.277 -0.5088,-3.373 -3.2989,-5.26 -8.8449,-3.259 -3.4533,1.201 -31.3145,10.234 -34.0703,11.092 z"
     id="path5074"
     style="stroke:none;stroke-width:0.114349" /><path
     d="m 1675.227,17876.709 c -1.94,0 -3.51,-1.6 -3.52,-3.5 0,-1.9 1.56,-3.5 3.5,-3.5 0,0 79.7398,-2.2 181.3496,-4 23.2699,-0.5 47.6798,-0.8 72.5398,-1 15.9999,-0.2 32.1799,-0.4 48.3699,-0.4 41.3299,0 82.6698,0.4 120.9097,0.8 101.6197,1.2 181.3695,2.9 181.3695,2.9 1.94,-0.1 3.51,1.5 3.52,3.4 0,2 -1.56,3.6 -3.5,3.6 0,0 -79.7398,2.1 -181.3495,3.8 -38.2399,0.7 -79.5698,1.3 -120.9097,1.5 -16.18,0.1 -32.36,0 -48.3599,0 -24.87,-0.1 -49.2799,-0.3 -72.5498,-0.6 -101.6198,-1.3 -181.3696,-3 -181.3696,-3 z"
     id="path5076"
     style="stroke:none;stroke-width:0.2" /><path
     d="m 1700.417,17848.009 c -1.93,0 -3.5,-1.6 -3.5,-3.5 0,-1.9 1.57,-3.5 3.5,-3.5 0,0 31.8399,-2 72.5398,-3.5 9.3099,-0.3 19.0599,-0.6 29.0099,-0.8 6.4,-0.1 12.87,-0.2 19.35,-0.2 16.5399,0.1 33.0599,0.6 48.3498,1.2 40.6899,1.4 72.5399,3.3 72.5399,3.3 1.9299,0 3.4999,1.6 3.4999,3.5 0,1.9 -1.57,3.5 -3.4999,3.5 0,0 -31.85,1.9 -72.5399,3.3 -15.2899,0.6 -31.8099,1.1 -48.3498,1.2 -6.48,0.1 -12.95,-0.1 -19.35,-0.2 -9.95,-0.2 -19.7,-0.4 -29.0099,-0.8 -40.6999,-1.5 -72.5398,-3.5 -72.5398,-3.5 z"
     id="path5078"
     style="stroke:none;stroke-width:0.2" /><path
     d="m 2110.9676,18230.831 c -0.093,-1.86 1.3968,-3.475 3.3368,-3.576 1.9299,-0.101 3.57,1.307 3.6635,3.283 0,0 2.1125,4.665 4.07,11.537 0.4304,1.515 0.7608,3.028 1.022,4.657 0.1772,1.047 0.3444,2.095 0.3515,3.141 0.01,2.673 -0.3737,5.343 -0.7872,7.78 -1.1522,7.08 -2.7496,11.948 -2.7496,11.948 0.093,1.86 -1.396,3.592 -3.3259,3.693 -1.93,0.101 -3.5809,-1.423 -3.6744,-3.4 0,0 -2.0624,-4.665 -3.8898,-11.536 -0.6569,-2.445 -1.2946,-5.007 -1.5437,-7.798 -0.097,-1.047 -0.034,-2.092 0.04,-3.022 0.1081,-1.742 0.2879,-3.251 0.5677,-4.76 1.2822,-7.079 2.9196,-11.947 2.9196,-11.947 z"
     id="path5080"
     style="stroke:none;stroke-width:0.215646" /><path
     d="m 1845.9115,18230.538 c 0.093,-1.976 1.7336,-3.384 3.6635,-3.283 1.94,0.101 3.4295,1.716 3.3368,3.576 0,0 1.6374,4.868 2.9196,11.947 0.2798,1.509 0.4596,3.018 0.5677,4.76 0.074,0.93 0.1366,1.975 0.039,3.022 -0.2491,2.791 -0.8868,5.353 -1.5437,7.798 -1.8274,6.871 -3.8898,11.536 -3.8898,11.536 -0.094,1.977 -1.7444,3.501 -3.6744,3.4 -1.9299,-0.101 -3.4186,-1.833 -3.3259,-3.693 0,0 -1.5974,-4.868 -2.7496,-11.948 -0.4135,-2.437 -0.7954,-5.107 -0.7872,-7.78 0.01,-1.046 0.1743,-2.094 0.3515,-3.141 0.2612,-1.629 0.5916,-3.142 1.022,-4.657 1.9575,-6.872 4.07,-11.537 4.07,-11.537 z"
     id="path5082"
     style="stroke:none;stroke-width:0.215646" /></g>&#10;</svg>
