<?xml version="1.0" encoding="UTF-8" standalone="no"?>
<svg
   width="2881.0037"
   height="2722.6548"
   viewBox="0 0 2881.0037 2722.6548"
   version="1.1"
   xml:space="preserve"
   style="clip-rule:evenodd;fill-rule:evenodd;stroke-linejoin:round;stroke-miterlimit:2"
   id="svg5353"
   xmlns="http://www.w3.org/2000/svg"
   xmlns:svg="http://www.w3.org/2000/svg"><defs
   id="defs5353" />&#10;    &#10;<g
   id="vectorly-UNI-travel-bag-suitcase"
   transform="matrix(4.9999999,0,0,4.9999999,-16670.092,-92652.383)"
   style="stroke-width:0.2"><path
     d="m 3509.4004,18618.277 c 3.22,1.3 6.94,2.8 10.8,4.4 14.02,5.7 29.7599,12.301 32.6699,13.001 0.82,0.3 1.55,0.3 2.15,0.1 1.46,-0.6 2.45,-1.6 2.45,-1.6 1.06,-1.6 3.23,-2.101 4.85,-1 1.62,1.1 2.07,3.2 1.01,4.9 0,0 -1.68,2.8 -4.77,4.7 -1.89,1.2 -4.33,1.7 -7.23,1.5 -3.1199,-0.4 -20.4299,-4.3 -35.5899,-8.5 -11.2399,-3.1 -21.1999,-6.601 -23.9999,-8.001 -3.03,-1.7 -4.41,-3.9 -5.1,-6 -0.94,-2.7 -0.67,-5.8 1.37,-8.9 1.25,-1.9 3.57,-4 6.62,-5.7 4.8,-2.6 11.39,-4.3 15.3399,-4.1 2.25,0.2 9.55,2.2 18.13,5.7 15.67,6.2 36.3399,15.8 36.3399,15.8 1.82,0.7 2.77,2.7 2.11,4.5 -0.65,1.8 -2.66,2.8 -4.48,2.1 0,0 -27.2899,-7.2 -43.4599,-11 -4.4,-1 -7.75,-1.9 -8.99,-1.9 -0.07,0 -0.15,0 -0.22,0 z m -7.4299,1.9 c -0.92,0.5 -1.34,1.1 -0.78,1.8 0.4,0.5 0.54,-1 0.66,-1.4 0.05,-0.1 0.08,-0.3 0.12,-0.4 z m -2.21,-6.2 c -0.06,0 -0.13,0 -0.19,-0.1 0.06,0.1 0.12,0.1 0.19,0.1 z"
     id="path1-0"
     style="clip-rule:evenodd;fill-rule:evenodd;stroke:none;stroke-width:0.2;stroke-linejoin:round;stroke-miterlimit:2" /><path
     d="m 3873.3895,18653.178 c -3.2499,-1 -7.3099,-2.1 -12.0799,-3.5 -10.29,-2.9 -23.82,-6.6 -39.5899,-11.1 -12.01,-3.4 -25.3,-7.401 -39.5199,-11.701 -18.49,-5.5 -38.4899,-11.6 -59.1799,-17.9 -19.3799,-5.9 -39.2899,-12.1 -59.1298,-18.2 -1.87,-0.5 -2.98,-2.5 -2.48,-4.3 0.5,-1.9 2.43,-3 4.3,-2.5 36.7599,8.6 73.9398,17.3 107.0597,25.5 15.23,3.7 29.5899,7.4 42.6399,10.9 10.32,2.7 19.8199,5.4 28.2899,7.9 19.15,5.601 33.1399,10.101 39.7099,12.601 2.59,0.9 4.27,1.7 5.02,2.1 4.03,2.5 4.07,5.8 3.96,7.1 -0.07,0.8 -0.5,3.1 -2.67,5.8 -2.31,2.9 -7.58,8.6 -14.51,15.5 -23.5399,23.5 -66.0698,62.8 -66.0698,62.8 -1.36,1.4 -3.59,1.4 -4.95,0 -1.37,-1.4 -1.36,-3.6 0.01,-4.9 0,0 50.0199,-53.7 68.6798,-75.5 0.17,-0.2 0.34,-0.4 0.51,-0.6 z m -514.7687,-66.701 c 15.8,5.2 42.7999,13.7 75.8498,24.4 17.97,5.8 37.7299,12.2 58.4399,19 28.0599,9.301 57.8598,19.301 87.4398,29.201 110.6697,37.4 218.2494,74.3 218.2494,74.3 1.84,0.6 2.86,2.6 2.27,4.4 -0.6,1.9 -2.57,2.9 -4.41,2.3 0,0 -91.7197,-27.5 -192.9895,-58.8 -43.1499,-13.4 -88.0398,-27.4 -128.2797,-40.4 -17.4899,-5.7 -34.0699,-11.201 -49.2798,-16.201 -32.59,-10.9 -58.8099,-20 -73.6999,-25.3 -6.1999,-2.2 -10.4799,-3.8 -12.4899,-4.6 -5.2,-2.2 -5.65,-6.3 -5.67,-6.8 -0.04,-0.8 0.03,-4.6 4.51,-7.2 1.87,-1 5.97,-3 11.6299,-5.4 30.93,-13.5 110.2998,-44.4 114.2498,-44.9 0.56,0 6.0199,1 15.2199,3.4 11.7,3.2 30.3599,8.4 53.4099,14.9 1.87,0.5 2.99,2.4 2.5,4.3 -0.49,1.8 -2.4,2.9 -4.27,2.5 l -65.5998,-15.5 c -3.73,0.6 -75.5899,31.7 -107.0798,46.4 z"
     id="path2-3"
     style="clip-rule:evenodd;fill-rule:evenodd;stroke:none;stroke-width:0.2;stroke-linejoin:round;stroke-miterlimit:2" /><path
     d="m 3824.2697,18634.078 c -1.24,-1.5 -1.04,-3.701 0.44,-5.001 1.48,-1.2 3.7,-1 4.94,0.5 0,0 6.8499,6.101 14.8799,13.801 3.17,3 6.47,6.2 9.59,9.4 2.8,2.9 5.44,5.7 7.64,8.2 4.32,5 7.05,8.7 7.05,8.7 0.42,0.5 0.77,1.1 1.06,1.7 0,0 2.9399,7.2 5.9699,15.7 4,11.1 8.12,24 8.12,24 0.83,1.7 0.08,3.8 -1.66,4.6 -1.75,0.9 -3.84,0.1 -4.67,-1.6 0,0 -7.3399,-11.4 -13.4299,-21.5 -3.41,-5.7 -6.37,-11 -7.67,-13.3 -0.93,-1 -3.64,-4 -6.95,-8.1 -2.1,-2.6 -4.38,-5.7 -6.72,-9 -2.61,-3.6 -5.2,-7.4 -7.63,-11.1 -6.1499,-9.2 -10.9599,-17 -10.9599,-17 z"
     id="path4-1"
     style="clip-rule:evenodd;fill-rule:evenodd;stroke:none;stroke-width:0.2;stroke-linejoin:round;stroke-miterlimit:2" /><path
     d="m 3530.5604,18590.077 c -0.15,0.1 -1.89,1.3 -2.66,2.1 -1.87,1.9 -3.14,3.9 -3.14,3.9 -1.52,2.3 -4.14,3.6 -6.89,3.5 0,0 -7.16,-0.4 -12.5099,-1.7 -3.39,-0.8 -6.17,-2.1 -7.72,-3.5 -3.11,-2.7 -3.91,-6 -3.07,-9.5 0.78,-3 5.2,-13.1 12.11,-20 4.6499,-4.7 10.3399,-7.9 16.4099,-8.2 2.27,-0.1 11.82,1.4 24.8,4.4 14.8199,3.4 34.5199,8.5 52.6398,13.9 23.74,7.1 44.7199,14.9 49.7799,19.7 3.24,3.1 5,7.9 5.43,13.2 0.71,8.7 -1.63,18.2 -1.63,18.2 -0.4,1.9 -2.21,3.1 -4.08,2.8 0,0 -7.17,-1.1 -12.8,-2.2 -2.38,-0.5 -4.5,-0.9 -5.77,-1.3 -1.5099,-0.5 -2.6299,-1.4 -3.5299,-2.7 -1.04,-1.5 -1.6,-3.7 -2.02,-6.3 -0.37,-2.4 -0.33,-5.3 -2.48,-6.9 -0.51,-0.4 -1.96,-0.6 -4.01,-1.2 -5.12,-1.5 -13.24,-3.3 -22.53,-5.2 -25.6799,-5.5 -60.2298,-12 -66.3298,-13 z m -0.47,-0.1 c -0.03,0 -0.07,0 -0.09,0 0.02,0 0.05,0 0.09,0 z m -18.1,-5.6 c 0.78,0.1 1.59,0.1 2.37,0 2.06,-2.3 5.19,-5.5 8.59,-7.3 3.19,-1.7 6.56,-2.4 9.79,-1.7 4.03,0.8 40.2799,9.4 66.8298,16.6 15.42,4.3 27.65,8.4 29.69,10.1 2.1599,1.8 3.5299,4.1 4.2699,6.6 0.66,2.3 0.87,4.7 1.09,6.9 0.06,0.6 -0.07,1.5 -0.01,2 l 13.09,3.4 c 0.29,-3.1 0.5,-7.8 -0.18,-12.1 -0.46,-3 -1.29,-5.8 -3.23,-7.3 -3.97,-3.3 -17.8099,-7.2 -34.5799,-11.5 -19.68,-5 -43.3299,-10 -61.1798,-13.4 -12.87,-2.5 -22.45,-4.4 -24.57,-4.2 -3.09,0.2 -5.47,2.9 -7.61,5.5 -1.76,2.1 -3.25,4.4 -4.36,6.4 z m -2.59,-0.3 c -0.04,0 -0.09,-0.1 -0.13,-0.2 -0.3199,-0.6 -1.2599,-2.7 -1.6799,-1.8 -0.49,1.1 0.38,1.7 1.8099,2 z m 125.2197,33.6 c 0.04,0.3 0.14,0.4 0.37,0.3 0.22,-0.1 -0.06,-0.2 -0.37,-0.3 z m -124.6297,-28.9 c 0,0 0,0 -0.01,0.1 z"
     id="path6-8"
     style="clip-rule:evenodd;fill-rule:evenodd;stroke:none;stroke-width:0.2;stroke-linejoin:round;stroke-miterlimit:2" /><path
     d="m 3664.2201,18615.477 c -0.42,-8.6 -2.27,-18.8 -5.76,-26.8 -2.07,-4.8 -4.61,-8.8 -8.58,-9.7 -2.47,-0.7 -12.13,-2.7 -24.5499,-5.5 -5.13,-1.2 -10.73,-2.5 -16.47,-4 -14.93,-3.8 -30.9199,-8.2 -42.9599,-11.2 -8.88,-2.3 -15.32,-4.1 -17.0799,-4.1 -7.42,0.1 -12.95,1.3 -17.21,3.4 -6.61,3.3 -10.23,8.2 -13.16,12.1 -1.07,1.6 -3.25,2 -4.86,1 -1.62,-1.1 -2.06,-3.3 -0.99,-4.9 3.02,-5.2 6.89,-11.4 14.46,-16.2 5.05,-3.3 11.78,-5.7 21.08,-6.8 3.8899,-0.3 29.0399,3.7 54.0398,9 7.11,1.5 14.19,3.1 20.73,4.7 15.5899,3.9 28.1199,7.7 31.0099,8.6 7.52,2.5 13.36,9.5 16.4899,19 3.13,9.6 4.01,21.6 3.45,31.5 -0.14,2.2 -1.49,5 -4.7599,7 -5.69,3.4 -17.46,6.2 -17.46,6.2 -1.86,0.5 -3.8,-0.6 -4.33,-2.4 -0.53,-1.9 0.55,-3.8 2.41,-4.4 0,0 18.71,-4.7 14.95,-7.7 -0.41,-0.3 -0.47,0.8 -0.45,1.2 z m 0,0 z"
     id="path8-0"
     style="clip-rule:evenodd;fill-rule:evenodd;stroke:none;stroke-width:0.2;stroke-linejoin:round;stroke-miterlimit:2" /><path
     d="m 3425.5007,18554.277 c -1.93,0.1 -3.56,-1.4 -3.64,-3.3 -0.08,-1.9 1.43,-3.6 3.36,-3.7 0,0 11.3599,-2.4 26.2799,-4.5 3.38,-0.5 6.91,-0.9 10.54,-1.2 2.32,-0.3 4.67,-0.5 7.0299,-0.5 6.05,-0.2 12.07,0.1 17.66,0.4 15.03,0.9 26.5599,2.3 26.5599,2.3 1.93,-0.1 3.56,1.4 3.64,3.3 0.08,2 -1.42,3.6 -3.36,3.7 0,0 -11.3799,2.3 -26.2799,4.4 -5.55,0.7 -11.53,1.5 -17.57,1.9 -2.3599,0.1 -4.7199,0.1 -7.0599,0 -3.64,0 -7.19,-0.1 -10.59,-0.3 -15.05,-1 -26.5699,-2.5 -26.5699,-2.5 z"
     id="path10-6"
     style="clip-rule:evenodd;fill-rule:evenodd;stroke:none;stroke-width:0.2;stroke-linejoin:round;stroke-miterlimit:2" /><path
     d="m 3388.8607,18563.877 c 0.36,-1.9 2.21,-3.1 4.11,-2.8 1.89,0.4 3.14,2.2 2.77,4.1 0,0 -0.56,12.6 -1.52,23.6 -0.74,8.3 -1.74,15.5 -1.74,15.5 -0.32,1.6 -1.15,3.1 -2.37,4.2 0,0 -3.1799,3.4 -8.1399,7.8 -2.52,2.2 -5.53,4.6 -8.71,7.1 -4.47,3.5 -9.22,6.9 -13.54,10.101 -7.74,5.6 -13.8299,9.8 -13.8299,9.8 -1.42,1.3 -3.64,1.2 -4.95,-0.2 -1.31,-1.4 -1.21,-3.7 0.22,-5 0,0 4.69,-5.7 10.9799,-12.901 3.5,-4 7.4,-8.4 11.26,-12.6 2.75,-2.9 5.4,-5.7 7.83,-8.1 2.84,-2.7 5.28,-4.8 6.79,-6 0.74,-2.8 1.97,-7.4 3.45,-12.2 3.21,-10.6 7.3899,-22.4 7.3899,-22.4 z"
     id="path12-3"
     style="clip-rule:evenodd;fill-rule:evenodd;stroke:none;stroke-width:0.2;stroke-linejoin:round;stroke-miterlimit:2" /><path
     d="m 3334.0609,18602.177 c -0.3,-1.9 1.02,-3.7 2.93,-4 1.91,-0.2 3.7,1.1 4,3 0,0 7.2599,34.301 15.5899,78.301 1.91,10.1 3.79,20.6 5.64,31.4 1.19,6.9 2.39,14 3.43,21 2.65,18 4.91,36 6.94,52.7 5.4,44.5 8.85,79.4 8.85,79.4 0.29,1.9 -1.02,3.7 -2.93,4 -1.92,0.3 -3.71,-1 -4,-2.9 0,0 -7.21,-34.4 -15.42,-78.4 -3.09,-16.5 -6.36,-34.4 -9.25,-52.4 -1.12,-7 -2.0899,-14 -3.0399,-21 -1.48,-10.9 -2.86,-21.5 -4.07,-31.7 -5.28,-44.4 -8.67,-79.401 -8.67,-79.401 z"
     id="path14-1"
     style="clip-rule:evenodd;fill-rule:evenodd;stroke:none;stroke-width:0.2;stroke-linejoin:round;stroke-miterlimit:2" /><path
     d="m 3387.6608,18874.178 c -1.73,-0.9 -2.44,-3 -1.58,-4.7 0.85,-1.8 2.9599,-2.5 4.6899,-1.6 0,0 128.2197,61 238.9695,114.5 35.0699,16.9 68.3598,33.1 95.3197,46.3 26.6799,13 47.1399,23.1 56.9699,28 l 76.9998,-120.6 22.3599,-286.1 c 0.13,-1.9 1.8,-3.4 3.73,-3.2 1.93,0.1 3.4,1.8 3.27,3.7 l -15.4,288.4 c -0.08,1.2 -0.44,2.3 -1.0699,3.3 l -80.2599,129.1 c -2.1799,3.5 -6.6299,4.7 -10.3099,2.9 0,0 -25.4,-12.5 -63.2199,-31.5 -26.8199,-13.5 -59.8998,-30.1 -94.6097,-47.8 -109.6198,-55.7 -235.8594,-120.7 -235.8594,-120.7 z"
     id="path16-5"
     style="clip-rule:evenodd;fill-rule:evenodd;stroke:none;stroke-width:0.2;stroke-linejoin:round;stroke-miterlimit:2" /><path
     d="m 3816.0497,18799.478 c -0.59,1.8 -2.57,2.8 -4.41,2.2 -1.84,-0.6 -2.85,-2.5 -2.25,-4.4 0,0 12.52,-44.3 21.88,-76.5 2.3699,-8.2 4.5299,-15.5 6.2099,-21.2 -11.8999,2.4 -31.4099,6.2 -50.9898,9.7 -19.65,3.4 -39.3599,6.6 -51.3299,8.4 l 61.3398,79.9 c 1.22,1.5 1,3.7 -0.5,5 -1.49,1.2 -3.7,1 -4.9299,-0.5 l -74.0799,-85.1 c -1.57,-1.9 -2.01,-4.5 -1.14,-6.9 0.86,-2.3 2.89,-4 5.33,-4.4 0,0 31.1599,-6.5 62.4999,-12.2 31.3499,-5.6 62.8298,-10.3 62.8298,-10.3 2.48,-0.5 5.01,0.4 6.67,2.3 1.65,1.9 2.19,4.6 1.41,7 0,0 -4.91,14.1 -11.35,32.1 -11.31,31.6 -27.1899,74.9 -27.1899,74.9 z"
     id="path18-1"
     style="clip-rule:evenodd;fill-rule:evenodd;stroke:none;stroke-width:0.2;stroke-linejoin:round;stroke-miterlimit:2" /><path
     d="m 3799.3997,18744.878 c 0.11,-2 1.76,-3.5 3.7,-3.3 1.93,0.1 3.41,1.7 3.3,3.6 0,0 -0.39,42.6 -1.85,96.8 -0.33,12.4 -0.79,25.4 -1.34,38.6 -0.35,8.5 -0.71,17.1 -1.23,25.7 -1.34,22 -3.07,44 -4.73,64.3 -4.42,54.1 -8.6599,96.4 -8.6599,96.4 -0.11,1.9 -1.77,3.4 -3.7,3.3 -1.93,-0.1 -3.41,-1.8 -3.3,-3.7 0,0 0.44,-42.5 2.02,-96.7 0.59,-20.4 1.3,-42.4 2.4,-64.4 0.43,-8.7 1.03,-17.3 1.62,-25.8 0.92,-13.2 1.89,-26.2 2.93,-38.5 4.5299,-54 8.8399,-96.3 8.8399,-96.3 z"
     id="path20-8"
     style="clip-rule:evenodd;fill-rule:evenodd;stroke:none;stroke-width:0.2;stroke-linejoin:round;stroke-miterlimit:2" /><path
     d="m 3731.1199,19043.278 c -1.86,0.5 -3.8,-0.5 -4.32,-2.4 -0.52,-1.9 0.56,-3.8 2.43,-4.3 0,0 8.77,-4.3 19.77,-8.9 4.3199,-1.7 8.8899,-3.5 13.4099,-5 3.18,-1 6.3,-1.9 9.18,-2.6 8.09,-1.8 14.09,-2.6 14.09,-2.6 1.08,-0.3 2.22,-0.3 3.31,-0.1 l 20.7299,8.2 c 1.88,0.4 3.04,2.3 2.59,4.2 -0.45,1.9 -2.34,3 -4.22,2.6 0,0 -19.5699,-1.9 -19.5699,-1.9 -1.74,0.7 -6.48,2.7 -12.68,4.8 -2.8,0.9 -5.91,1.8 -9.16,2.6 -4.62,1.1 -9.47,1.9 -14.08,2.6 -11.7399,1.9 -21.4799,2.8 -21.4799,2.8 z"
     id="path22-3"
     style="clip-rule:evenodd;fill-rule:evenodd;stroke:none;stroke-width:0.2;stroke-linejoin:round;stroke-miterlimit:2" /><path
     d="m 3866.8496,18871.978 c 0.48,-1.9 2.39,-3 4.26,-2.5 1.8799,0.4 3.0099,2.3 2.5399,4.2 0,0 -1.33,13.3 -4.0199,30.3 -0.61,3.8 -1.35,7.8 -2.19,11.9 -0.54,2.6 -1.09,5.3 -1.8,7.9 -1.8,6.7 -3.99,13.3 -6.07,19.3 -5.58,16.3 -10.64,28.6 -10.64,28.6 -0.47,1.9 -2.38,3 -4.25,2.5 -1.88,-0.4 -3.02,-2.3 -2.55,-4.2 0,0 1.39,-13.3 4.2,-30.2 1.04,-6.3 2.23,-13.2 3.81,-19.9 0.62,-2.6 1.4,-5.2 2.17,-7.8 1.2,-4 2.44,-7.9 3.73,-11.6 5.7,-16.2 10.81,-28.5 10.81,-28.5 z"
     id="path24-6"
     style="clip-rule:evenodd;fill-rule:evenodd;stroke:none;stroke-width:0.2;stroke-linejoin:round;stroke-miterlimit:2" /><path
     d="m 3871.0096,18913.878 c -0.49,1.9 -2.4,3 -4.27,2.5 -1.88,-0.5 -3,-2.4 -2.52,-4.3 0,0 3.67,-20.6 8.9099,-47.1 1.96,-9.9 4.16,-20.6 6.48,-31.3 1.14,-5.2 2.31,-10.4 3.55,-15.5 1.28,-5.3 2.61,-10.4 3.95,-15.4 5.64,-21 10.72,-38.6 11.9,-45.8 0.75,-4.1 -2.09,-6.7 -5.35,-8.5 -6.55,-3.7 -14.91,-4.9 -14.91,-4.9 -1.93,-0.1 -3.39,-1.8 -3.27,-3.7 0.13,-1.9 1.8,-3.4 3.73,-3.3 0,0 13.37,0.3 22.15,5.5 5.7,3.3 9.28,8.7 8.82,16.3 -0.39,5.6 -2.09,17.4 -4.89,32.2 -1.81,9.5 -3.9,20.3 -6.59,31.4 -3.01,12.4 -6.64,25.1 -10.17,37 -8.95,30.2 -17.5199,54.9 -17.5199,54.9 z"
     id="path26-4"
     style="clip-rule:evenodd;fill-rule:evenodd;stroke:none;stroke-width:0.2;stroke-linejoin:round;stroke-miterlimit:2" /><path
     d="m 3867.6096,18912.978 11.3699,-172.9 c 0,0 27.51,1.8 25.62,17.6 -2.76,23 -36.9899,155.3 -36.9899,155.3 z"
     id="path28-4"
     style="clip-rule:evenodd;fill-rule:evenodd;stroke:none;stroke-width:0.2;stroke-linejoin:round;stroke-miterlimit:2" /><path
     d="m 3736.9899,18604.777 c 1.51,-1.2 3.72,-1 4.92,0.5 1.2,1.6 0.95,3.8 -0.57,5 0,0 -94.1098,78.801 -94.1098,78.801 0.53,9.2 2.07,36.8 3.47,72.2 0.63,15.6 1.15,32.7 1.57,50.3 0.6,25 0.97,51.1 1.28,75.6 0.79,61.6 0.98,113.4 0.98,113.4 0.07,1.9 -1.45,3.6 -3.38,3.6 -1.93,0.1 -3.56,-1.4 -3.62,-3.3 0,0 -3.38,-51.7 -6.85,-113.2 -1.38,-24.5 -2.82,-50.6 -3.94,-75.5 -0.8,-17.7 -1.46,-34.8 -1.91,-50.4 -1.28,-43.6 -1.55,-75.6 -1.55,-75.6 -0.08,-2.1 0.89,-4.2 2.6,-5.6 z"
     id="path30-0"
     style="clip-rule:evenodd;fill-rule:evenodd;stroke:none;stroke-width:0.2;stroke-linejoin:round;stroke-miterlimit:2" /><path
     d="m 3713.0199,18598.077 c 1.58,-1.1 3.77,-0.7 4.89,0.8 1.11,1.6 0.73,3.8 -0.86,4.9 0,0 -101.3197,75.301 -101.3197,75.301 0.57,9.4 2.16,36.4 3.62,70.7 0.66,15.4 1.21,32.2 1.68,49.6 0.67,24.6 1.13,50.3 1.52,74.4 1,60.7 1.39,111.6 1.39,111.6 0.08,2 -1.43,3.6 -3.37,3.7 -1.93,0.1 -3.56,-1.5 -3.63,-3.4 0,0 -3.53,-50.9 -7.19,-111.4 -1.45,-24.1 -2.96,-49.7 -4.18,-74.3 -0.87,-17.4 -1.61,-34.2 -2.14,-49.6 -1.46,-42.9 -1.86,-74.4 -1.86,-74.4 -0.09,-2.3 1.02,-4.6 2.96,-5.9 z"
     id="path32-9"
     style="clip-rule:evenodd;fill-rule:evenodd;stroke:none;stroke-width:0.2;stroke-linejoin:round;stroke-miterlimit:2" /><path
     d="m 3506.7505,18571.977 c 1.67,-0.9 3.8199,-0.4 4.7899,1.3 0.98,1.7 0.41,3.8 -1.26,4.8 0,0 -69.9698,44 -69.9698,44 1.21,9.1 4.43,33.901 8.02,65.301 1.64,14.3 3.35,30 4.88,46.2 2.18,22.9 4.07,46.9 5.84,69.4 4.43,56.6 7.55,104.3 7.55,104.3 0.2,1.9 -1.2,3.6 -3.13,3.8 -1.92,0.2 -3.64,-1.2 -3.84,-3.1 0,0 -6.62,-47.3 -13.78,-103.6 -2.85,-22.5 -5.86,-46.3 -8.39,-69.2 -1.79,-16.2 -3.3,-31.9 -4.6,-46.2 -3.63,-40.1 -5.6899,-69.501 -5.6899,-69.501 -0.25,-2.5 0.97,-4.9 3.1199,-6.1 z"
     id="path34-7"
     style="clip-rule:evenodd;fill-rule:evenodd;stroke:none;stroke-width:0.2;stroke-linejoin:round;stroke-miterlimit:2" /><path
     d="m 3516.3804,18545.577 c 1.64,-1.1 3.8,-0.6 4.83,1.1 1.03,1.6 0.54,3.8 -1.1,4.8 0,0 -96.9497,64.9 -96.9497,64.9 1.14,9.3 4.04,33.601 7.1999,64.201 1.45,14.2 2.87,29.7 4.25,45.7 1.94,22.6 3.74,46.2 5.4,68.5 4.15,55.9 7.2,102.9 7.2,102.9 0.19,1.9 -1.22,3.6 -3.14,3.8 -1.93,0.2 -3.65,-1.2 -3.84,-3.1 0,0 -6.16,-46.7 -12.9599,-102.3 -2.71,-22.2 -5.55,-45.7 -8.05,-68.3 -1.77,-16 -3.39,-31.5 -4.72,-45.6 -3.7,-39.5 -5.74,-68.501 -5.74,-68.501 -0.26,-2.6 0.99,-5.2 3.23,-6.6 z"
     id="path36-2"
     style="clip-rule:evenodd;fill-rule:evenodd;stroke:none;stroke-width:0.2;stroke-linejoin:round;stroke-miterlimit:2" /><path
     d="m 3368.5908,18824.278 c -1.1,-1.6 -0.7,-3.8 0.9,-4.9 1.59,-1.1 3.77,-0.7 4.87,0.9 0,0 5.79,5 12.8,12.4 1.5699,1.7 3.0999,3.4 4.6299,5.3 0.97,1.2 1.95,2.4 2.8,3.8 2.19,3.3 4,6.9 5.65,10.2 4.51,9.1 7.19,16.3 7.19,16.3 1.09,1.6 0.69,3.8 -0.9,4.9 -1.59,1.1 -3.78,0.7 -4.88,-0.9 0,0 -5.76,-5.1 -12.65,-12.5 -2.5299,-2.8 -5.1999,-5.7 -7.5799,-9 -0.92,-1.2 -1.71,-2.6 -2.48,-3.9 -1.22,-2.1 -2.33,-4.2 -3.32,-6.2 -4.4,-9.2 -7.03,-16.4 -7.03,-16.4 z"
     id="path38-0"
     style="clip-rule:evenodd;fill-rule:evenodd;stroke:none;stroke-width:0.2;stroke-linejoin:round;stroke-miterlimit:2" /><path
     d="m 3732.3199,18640.278 c 0.74,0.2 1.47,0.5 2.15,0.7 5.82,2.4 13.74,5.3 22.1499,8.4 20.65,7.7 44.1799,16.4 47.7299,17.2 1.41,0.3 2.81,-0.8 4.11,-1.9 2.95,-2.6 5.2,-5.8 5.2,-5.8 0.98,-1.7 3.13,-2.2 4.8,-1.3 1.67,1 2.23,3.2 1.25,4.8 0,0 -3.89,7.3 -8.8,11 -2.48,1.8 -5.29,2.6 -8.04,2.3 -3.72,-0.4 -28.9399,-6.2 -50.7799,-12.5 -10.6299,-3 -20.4099,-6.2 -26.5899,-8.6 -4.23,-1.6 -7.05,-3.2 -8.18,-4.1 -4.92,-3.9 -5.97,-9.9 -1.04,-16.4 2.88,-3.701 8.66,-8.001 14.39,-10.801 5.19,-2.4 10.31,-3.6 13.43,-3.2 2.44,0.4 11.5299,3.3 22.4699,7.4 20.63,7.701 48.3399,19.101 48.3399,19.101 1.83,0.6 2.8,2.6 2.17,4.5 -0.63,1.8 -2.62,2.8 -4.45,2.1 0,0 -35.9199,-10 -57.0399,-15.5 -6.5199,-1.7 -11.4499,-2.9 -13.0499,-3 -0.84,-0.1 -1.91,0.7 -3.23,1.3 -2.34,1.1 -4.9,2.7 -6.99,4.3 z m -3.98,-1.1 c -0.27,-0.5 -0.63,-0.9 -1.08,-1.2 -0.05,0 -0.14,-0.2 -0.19,-0.2 -0.31,0.6 0.26,1 1.27,1.4 z"
     id="path40-0"
     style="clip-rule:evenodd;fill-rule:evenodd;stroke:none;stroke-width:0.2;stroke-linejoin:round;stroke-miterlimit:2" /><path
     d="m 3770.3898,18660.878 c 0.85,-1.7 2.96,-2.5 4.69,-1.6 1.74,0.9 2.45,3 1.6,4.7 0,0 -4.1,11.1 -11.04,19.4 -4.12,5 -9.46,8.4 -14.9999,9.6 -5.57,0.9 -13.56,1.3 -21.12,0.1 -5.24,-0.8 -10.25,-2.4 -14.16,-4.6 -7.7699,-4.4 -12.0199,-10.7 -10.4099,-18.2 0.94,-4.1 3.54,-8.3 7.8099,-11.7 8.63,-6.9 22.39,-11.5 22.39,-11.5 1.77,-0.8 3.84,0 4.63,1.7 0.78,1.8 -0.01,3.9 -1.78,4.7 0,0 -6.8,4.1 -12.87,9.4 -3.33,2.9 -6.56,6.1 -6.73,9.3 -0.03,0.4 0.49,0.5 0.75,0.8 0.45,0.5 1.11,0.7 1.77,1.1 2.22,1.3 5.16,2 8.24,2.7 2.55,0.5 5.21,1 7.83,1.4 4.39,0.6 8.63,1 11.91,0.8 3.9199,-0.1 7.6999,-2.8 10.9499,-5.8 6.08,-5.7 10.54,-12.3 10.54,-12.3 z"
     id="path42-6"
     style="clip-rule:evenodd;fill-rule:evenodd;stroke:none;stroke-width:0.2;stroke-linejoin:round;stroke-miterlimit:2" /></g></svg>
