<?xml version="1.0" encoding="UTF-8" standalone="no"?>
<svg
   width="3008.0842"
   height="2178.4573"
   viewBox="0 0 3008.0842 2178.4573"
   version="1.1"
   xml:space="preserve"
   style="clip-rule:evenodd;fill-rule:evenodd;stroke-linejoin:round;stroke-miterlimit:2"
   id="svg5353"
   xmlns="http://www.w3.org/2000/svg"
   xmlns:svg="http://www.w3.org/2000/svg"><defs
   id="defs5353" />&#10;    <g
   id="vectorly-UNI-deposit-box-save"
   style="stroke:none;stroke-width:0.2"
   transform="matrix(4.9999999,0,0,4.9999999,-16592.95,-41311.609)"><path
     d="m 3334.3229,8314.5127 c -0.14,2.76 0.3,7.36 0.2,11.59 -0.37,15.18 0.36,38.72 1.45,65.2799 1.31,31.58 3.16,67.38 5.08,98.49 2.44,39.64 4.72,71.55 5.93,76.63 0.39,0.54 2.68,3.63 4.95,6.08 6.5199,7.05 17.5099,17.39 30.2999,28.97 38.6099,34.9599 93.4997,80.8999 93.4997,80.8999 1.5,1.21 1.73,3.42 0.52,4.93 -1.2199,1.5 -3.4299,1.73 -4.9299,0.52 0,0 -56.5699,-44.21 -96.3498,-78.08 -16.36,-13.9299 -29.8799,-26.1899 -35.7499,-32.9899 -2.47,-2.85 -3.77,-5.21 -4.2,-6.62 -1.61,-5.32 -6.5,-52.42 -10.4,-105.42 -2.65,-36.01 -4.93,-74.75 -5.74,-104.7199 -0.6,-22.5 -0.28,-40.17 0.98,-48.36 0.65,-4.28 1.95,-6.98 2.94,-8.2 1.15,-1.4 2.43,-2.23 3.67,-2.69 9.4,-3.51 61.9799,-11.4 121.1397,-18.8 75.8798,-9.49 162.5996,-18.54 180.5596,-19.69 1.93,-0.15 3.62,1.29 3.77,3.22 0.16,1.93 -1.28,3.62 -3.21,3.77 -20.28,1.96 -128.5297,17.48 -209.1795,30.16 -40.7499,6.4 -74.3498,11.9 -85.2298,15.03 z m -2.27,0.74 c -0.01,0.01 -0.02,0.01 -0.02,0.01 0,0 0.01,0 0.02,-0.01 z m 2.29,-1.06 c 1.42,-0.76 2.65,-1.7 1.27,-2.16 -0.81,-0.27 -1.15,0.6 -1.27,2.16 z"
     id="path2238"
     style="stroke:none;stroke-width:0.2" /><path
     d="m 3849.2616,8590.7726 c 0.34,-9.21 0.84,-38.94 1.39,-75.07 0.38,-24.67 0.67,-52.3 1.02,-78.47 0.53,-39.93 0.97,-76.4299 -0.08,-93.6099 -0.12,-1.98 0.03,-4.13 0,-5.63 -0.77,-0.37 -1.77,-0.85 -2.75,-1.27 -9.56,-4.08 -29.9299,-11.29 -54.0398,-19.62 -59.8299,-20.69 -142.4997,-47.92 -142.4997,-47.92 -1.85,-0.57 -2.9,-2.53 -2.33,-4.38 0.56,-1.85 2.53,-2.89 4.38,-2.32 0,0 83.8898,23.66 144.4696,42.33 24.82,7.64 45.7299,14.52 55.5699,18.42 4.62,1.83 7.35,3.57 8.2,4.4 0.67,0.65 1.44,1.69 2.06,3.26 0.59,1.5 1.23,4.54 1.67,8.93 1.25,12.72 1.84,39.6199 1.61,71.4099 -0.17,23.08 -0.77,48.76 -1.56,73.43 -1.79,56.28 -4.56,107.29 -5.07,110.6 -0.17,1.11 -0.86,3.63 -4.16,5.4 -2,1.08 -6.47,2.77 -13.05,4.8 -22.1999,6.8699 -70.0898,18.9999 -123.7397,31.9699 -1.88,0.49 -3.7899,-0.63 -4.2799,-2.5 -0.49,-1.87 0.63,-3.79 2.4999,-4.28 52.8499,-14.92 99.9898,-28.8399 121.8197,-36.4499 3.43,-1.19 6.83,-2.58 8.87,-3.43 z m 2.31,-253.1999 c -0.05,-1.04 -0.24,-1.66 -0.75,-1.5 -0.76,0.24 0.09,0.97 0.75,1.5 z m -357.5191,345.7198 c 4.17,-0.7 11.51,-2.17 21.3,-4.09 15.9299,-3.14 37.7999,-7.62 62.8698,-12.93 1.88,-0.46 3.77,0.69 4.24,2.56 0.46,1.88 -0.69,3.78 -2.57,4.24 -29.8099,8.33 -55.0499,15.2 -70.9998,19.24 -11.44,2.9 -18.61,4.16 -19.93,4.06 -1.75,-0.14 -3.87,-1.02 -5.52,-3.71 -0.91,-1.48 -1.97,-5.04 -2.7,-10.48 -1.94,-14.51 -3.33,-45.86 -3.49,-83.0299 -0.06,-13.65 0.15,-28.09 0.48,-42.76 0.32,-14.19 0.82,-28.59 1.38,-42.71 2.7,-67.28 6.54,-128.02 6.54,-128.02 0.06,-1.93 1.68,-3.45 3.61,-3.4 1.93,0.06 3.46,1.68 3.4,3.62 0,0 0.17,44.11 0.39,98.78 0.09,21.03 0.21,43.6 0.23,65.82 0.01,14.97 0.02,29.78 -0.08,43.84 -0.18,25.4999 -0.5,48.5199 -0.2,65.5699 0.18,10.45 0.44,18.55 1.05,23.4 z m -3.76,0.44 c -0.01,0 -0.01,0 -0.01,0 z"
     id="path2240"
     style="stroke:none;stroke-width:0.2" /><path
     d="m 3328.8029,8310.7127 c -1.7,-0.91 -2.34,-3.04 -1.43,-4.74 0.92,-1.71 3.04,-2.35 4.75,-1.44 0,0 63.9698,32.31 111.4897,54.53 22.82,10.6699 41.5099,19.2199 46.6699,19.6099 2.29,0.18 11.73,-1.1 26.1499,-3.04 16.36,-2.2 38.74,-5.55 64.3299,-9.11 28.1299,-3.9199 60.1098,-8.2099 92.0998,-12.4299 92.2397,-12.18 184.4195,-23.87 184.4195,-23.87 1.92,-0.29 3.71,1.03 4,2.94 0.29,1.91 -1.03,3.7 -2.94,3.99 0,0 -72.9698,13 -154.0296,26.32 -34.5199,5.6699 -70.4898,11.4599 -102.9098,16.2399 -20.2399,2.98 -39.0999,5.5 -55.3298,7.57 -31.4399,4.01 -53.3199,6.1 -57.1099,5.7 -2.2,-0.23 -6.43,-1.49 -12.08,-3.86 -9.2399,-3.88 -23.1699,-10.66 -38.8299,-18.75 -46.7398,-24.1399 -109.2497,-59.6599 -109.2497,-59.6599 z"
     id="path2242"
     style="stroke:none;stroke-width:0.2" /><path
     d="m 3602.4422,8435.7626 c 1.73,1.18 3.62,2.32 5.57,2.06 1.13,-0.15 5.11,-1.83 11.31,-4.21 7.63,-2.93 18.0599,-7.07 30.2499,-11.83 18.95,-7.4 42.0599,-16.38 65.1399,-25.27 26.3799,-10.16 52.7198,-20.02 72.6398,-27.65 1.78,-0.75 3.84,0.08 4.59,1.87 0.76,1.78 -0.08,3.84 -1.86,4.59 -20.24,9.4 -47.1799,22.05 -74.1298,34.24 -17.24,7.79 -34.44,15.42 -49.7899,22.02 -14.94,6.43 -28.13,11.88 -37.8099,15.67 -10.01,3.93 -16.73,6.05 -18.38,6.24 -4.86,0.55 -9.86,-0.91 -14.2699,-3.62 -7.27,-4.46 -12.87,-11.97 -12.87,-11.97 -1.43,-1.87 -1.9,-4.31 -1.26,-6.58 0.63,-2.27 2.28,-4.11 4.48,-4.98 0,0 32.6099,-12.13 65.3398,-23.99 32.7399,-11.87 65.5499,-23.45 65.5499,-23.45 1.7999,-0.71 3.8399,0.18 4.5499,1.98 0.71,1.79 -0.17,3.83 -1.97,4.54 0,0 -31.8599,13.99 -63.8598,27.73 -20.5399,8.81 -41.1199,17.51 -53.2199,22.61 z"
     id="path2244"
     style="stroke:none;stroke-width:0.2" /><path
     d="m 3587.0323,8674.6325 c -0.18,-0.17 -0.33,-0.31 -0.4,-0.39 0.13,0.16 0.26,0.32 0.4,0.47 -0.01,0.84 0.1,1.39 0.56,1.29 0.33,-0.07 0.33,-0.28 0.19,-0.53 1.58,1.44 3.67,2.53 5.68,3.46 0.2,0.1 0.41,0.19 0.61,0.28 0.57,-16.51 1.76,-50.23 3.3099,-87.0499 2.85,-68.02 6.8,-146.51 6.8,-146.51 0.05,-1.94 1.66,-3.47 3.59,-3.42 1.93,0.05 3.46,1.66 3.42,3.59 0,0 0.08,78.59 -0.42,146.67 -0.38,51.9599 -1.15,97.7599 -1.15,97.7599 -0.05,2.36 -1.15,4.57 -3,6.03 -1.84,1.47 -4.24,2.04 -6.55,1.57 0,0 -8.4199,-1.68 -15.9299,-5.69 -3.98,-2.13 -7.66,-4.91 -10.17,-8.21 -0.79,-1.04 -2.16,-4 -2.57,-8.95 -0.66,-7.89 -0.53,-24.35 0.28,-45.19 0.89,-22.8299 2.5,-50.9899 4.39,-78.8099 4.07,-59.77 9.24,-117.88 9.24,-117.88 0.12,-1.93 1.78,-3.4 3.71,-3.28 1.93,0.11 3.41,1.78 3.29,3.71 0,0 -1.64,49.01 -3.19,103.31 -0.66,23.12 -1.29,47.18 -1.78,68.81 -0.65,29.2199 -0.99,53.9499 -0.23,65.7099 0.07,1.07 -0.07,2.32 -0.08,3.25 z m 0,0 c 0.27,0.26 0.59,0.57 0.75,0.84 -0.27,-0.24 -0.52,-0.49 -0.75,-0.76 0,-0.02 0,-0.05 0,-0.08 z"
     id="path2246"
     style="stroke:none;stroke-width:0.2" /><path
     d="m 3826.9317,8575.3426 c 0.24,-1.51 0.64,-4.16 0.87,-6.76 1.63,-18.12 2.4,-57.15 2.85,-96.19 0.48,-40.41 0.58,-80.85 0.6,-98.37 -17.27,2.48 -57.7799,8.31 -104.1898,14.92 -36.8799,5.25 -77.4798,10.93 -113.0597,16.12 -38.5899,5.64 -71.2498,10.59 -86.7398,13.6 -2.16,0.42 -4.39,0.93 -5.89,1.29 -0.43,1.73 -1.09,4.58 -1.51,7.38 -3.2,20.9 -6.1399,66.18 -8.0699,111.53 -1.94,45.41 -2.9,90.8799 -1.95,112.0899 0.16,3.62 0.59,7.35 0.82,9.13 0.63,0.07 1.43,0.14 2.11,0.13 5.3399,-0.09 13.6299,-1.6 22.4999,-3.58 19.9,-4.45 42.5699,-11.37 42.5699,-11.37 1.85,-0.58 3.82,0.44 4.4,2.29 0.59,1.84 -0.43,3.81 -2.28,4.4 0,0 -36.2199,11.94 -57.5799,15.68 -5.42,0.94 -9.9599,1.33 -12.9199,1.03 -2.36,-0.24 -4.05,-1.01 -5.09,-1.87 -0.6,-0.49 -1.48,-1.6 -2.02,-3.57 -0.63,-2.36 -1.18,-7.32 -1.57,-14.32 -1.48,-26.52 -1.19,-83.9799 0.47,-135.4699 1.25,-38.75 3.31,-74.13 5.84,-90.59 0.82,-5.37 1.89,-9.06 2.8,-10.8 0.88,-1.69 1.97,-2.67 2.87,-3.26 1,-0.67 5.0699,-2.06 11.7899,-3.47 15.57,-3.27 48.3999,-8.83 87.2098,-14.96 35.5599,-5.62 76.1298,-11.8 113.0297,-17.18 61.7699,-8.9899 113.1898,-15.8899 113.1898,-15.8899 2.2399,-0.31 4.5099,0.37 6.2099,1.86 1.71,1.49 2.68,3.64 2.67,5.9 0,0 -1.08,109.5399 -4.08,172.2399 -0.87,18.27 -1.94,32.63 -3.12,39.37 -0.51,2.96 -1.22,4.92 -1.7799,5.86 -0.72,1.22 -1.56,1.97 -2.29,2.44 -2.19,1.4 -32.17,15.57 -70.0199,33.1899 -68.2998,31.78 -162.3996,75.09 -162.3996,75.09 -1.75,0.82 -3.84,0.08 -4.67,-1.67 -0.83,-1.75 -0.08,-3.84 1.67,-4.67 0,0 116.6198,-56.96 183.5496,-89.9999 21.5399,-10.64 37.8599,-18.72 43.2099,-21.55 z"
     id="path2248"
     style="stroke:none;stroke-width:0.2" /><path
     d="m 3718.2319,8382.1626 -129.4196,51.17 c 0,0 -9.1,149.33 -9.91,215.2799 0,0 -64.9298,20.62 -71.7398,14.87 -6.25,-5.28 0.48,-243.3299 9.2799,-249.0599 5.09,-3.32 112.3298,-19.34 201.7895,-32.26 z"
     id="path2250"
     style="stroke:none;stroke-width:0.2" /><path
     d="m 3810.6317,8433.3226 c 0.01,-1.94 1.59,-3.5 3.52,-3.49 1.93,0.01 3.5,1.59 3.49,3.52 0,0 1.87,16.83 3.3,38.53 0.33,4.94 0.56,10.12 0.72,15.41 0.1,3.39 0.2,6.83 0.14,10.27 -0.16,8.79 -0.72,17.55 -1.3,25.66 -1.54,21.68 -3.52,38.49 -3.52,38.49 -0.01,1.94 -1.59,3.5 -3.53,3.49 -1.93,-0.01 -3.49,-1.59 -3.48,-3.52 0,0 -1.81,-16.84 -3.13,-38.53 -0.49,-8.12 -0.96,-16.88 -1.03,-25.68 -0.03,-3.43 0.11,-6.87 0.24,-10.26 0.22,-5.29 0.5,-10.46 0.88,-15.4 1.66,-21.69 3.7,-38.49 3.7,-38.49 z"
     id="path2252"
     style="stroke:none;stroke-width:0.2" /><path
     d="m 3704.572,8445.5926 c -1.59,0.36 -5.98,1.39 -9.83,2.65 -8.64,2.83 -20.0599,7.47 -30.3899,11.99 -7.56,3.31 -14.49,6.55 -19.05,9.23 -0.61,0.36 -1.39,0.69 -2.04,0.99 -0.34,4.05 -1.15,13.63 -1.15,13.63 6.11,-1.81 14.18,-4.19 22.28,-6.53 16.4699,-4.76 32.9399,-9.29 32.9399,-9.29 1.83,-0.64 3.83,0.32 4.47,2.15 0.63,1.83 -0.33,3.83 -2.16,4.47 0,0 -15.71,6.7 -31.5599,13.24 -15.83,6.53 -31.6999,12.85 -31.6999,12.85 -2.25,0.78 -4.75,0.42 -6.68,-0.99 -1.92,-1.4 -3.04,-3.66 -2.99,-6.04 0,0 -0.15,-8.46 0.09,-16.32 0.15,-4.56 0.48,-8.91 0.86,-11.51 0.29,-1.87 1.51,-4.75 4.87,-7.35 4.4099,-3.41 15.0899,-8.43 27.2399,-12.69 15.52,-5.44 33.3299,-9.93 41.7699,-10.67 4.48,-0.4 7.41,0.53 8.45,1.49 2.32,2.15 3.85,5.24 4.12,9.1 0.34,5.02 -1.02,11.39 -2.31,16.57 -0.35,1.9 -2.17,3.17 -4.07,2.83 -1.91,-0.34 -3.18,-2.16 -2.83,-4.07 0.35,-3.25 0.71,-7.01 0.61,-10.46 -0.06,-2.05 -0.17,-3.98 -0.94,-5.27 z m -61.4099,24.91 c -0.8,0.38 -1.34,0.73 -1.01,1.05 0.55,0.52 0.84,-0.19 1.01,-1.05 z m 60.5499,-25.86 c 0,0 -0.01,0 -0.01,-0.01 0,0.01 0.01,0.01 0.01,0.01 z"
     id="path2254"
     style="stroke:none;stroke-width:0.2" /><path
     d="m 3705.022,8494.3626 c -0.59,0.11 -1.22,0.23 -1.8,0.37 -12.78,3.03 -37.8999,13.34 -53.1499,20.35 -3.11,1.43 -6.94,2.45 -9.07,3.44 0.38,-0.43 1.17,-1.23 0.51,-1.37 -0.53,-0.11 -0.72,0.5 -0.76,1.49 -1.09,0.55 -1.64,1.1 -1.24,1.7 0.49,0.74 0.98,-0.79 1.23,-1.41 -0.02,1.58 0.24,3.96 0.13,6.1 -0.55,9.98 -0.92,25.8 -1.1,40.25 -0.15,11.41 -0.34,21.92 -0.26,27.68 16.66,-3.93 57.2699,-19.45 57.2699,-19.45 1.78,-0.76 3.84,0.06 4.6,1.84 0.76,1.78 -0.06,3.84 -1.84,4.6 0,0 -41.0199,19.43 -57.4699,24.44 -4.41,1.35 -7.7099,1.42 -9.1599,1.08 -2.81,-0.67 -4.06,-2.55 -4.73,-4.4 -1,-2.88 -3,-36.46 -3.25,-61.19 -0.11,-10.52 0.14,-19.43 0.6,-23.72 0.33,-3 1.14,-4.88 1.6,-5.65 0.59,-0.99 3.17,-3.59 8.02,-6.01 9.6399,-4.81 31.4799,-13.39 48.8498,-18.68 10.34,-3.15 19.23,-5.05 23.52,-4.89 3.57,0.13 5.82,1.41 6.96,2.7 0.93,1.06 2.09,2.97 2.57,5.93 0.4699,2.92 0.6099,7.5 0.3899,13.04 -0.8099,19.93 -5.4899,53.2 -6.1399,59.32 -0.12,1.93 -1.79,3.4 -3.72,3.27 -1.93,-0.12 -3.4,-1.79 -3.27,-3.72 0.11,-4.74 1.26,-25.87 1.45,-44.34 0.09,-9.08 -0.06,-17.46 -0.74,-22.77 z m -64.0199,24.16 c -0.08,0.09 -0.14,0.16 -0.16,0.21 -0.03,0.04 -0.06,0.11 -0.1,0.2 0,-0.1 0.01,-0.2 0.01,-0.29 0.08,-0.04 0.16,-0.08 0.25,-0.12 z m -1.22,78.84 z m 65.0999,-105.11 c -0.06,-0.63 -0.17,-1.06 -0.5,-0.92 -0.41,0.16 0.14,0.62 0.5,0.92 z"
     id="path2256"
     style="stroke:none;stroke-width:0.2" /><ellipse
     cx="2617.7891"
     cy="8847.8105"
     rx="2.5224178"
     ry="4.3149471"
     id="ellipse2258"
     transform="rotate(-6.8111867)"
     style="stroke:none;stroke-width:0.29707" /><ellipse
     cx="2626.5808"
     cy="8845.499"
     rx="2.5224178"
     ry="4.3149471"
     id="ellipse2260"
     transform="rotate(-6.8111867)"
     style="stroke:none;stroke-width:0.29707" /><ellipse
     cx="2635.7651"
     cy="8842.2686"
     rx="2.5224178"
     ry="4.3149471"
     id="ellipse2262"
     transform="rotate(-6.8111867)"
     style="stroke:none;stroke-width:0.29707" /><ellipse
     cx="2647.2773"
     cy="8839.3154"
     rx="2.5224178"
     ry="4.3149471"
     id="ellipse2264"
     transform="rotate(-6.8111867)"
     style="stroke:none;stroke-width:0.29707" /><ellipse
     cx="8013.6094"
     cy="4667.8433"
     rx="2.5224221"
     ry="4.3149366"
     id="ellipse2266"
     transform="matrix(0.80270346,0.59637837,-0.59637566,0.80270547,0,0)"
     style="stroke:none;stroke-width:0.29707" /><ellipse
     cx="8024.2729"
     cy="4681.7256"
     rx="2.5224221"
     ry="4.3149366"
     id="ellipse2268"
     transform="matrix(0.80270346,0.59637837,-0.59637566,0.80270547,0,0)"
     style="stroke:none;stroke-width:0.29707" /><ellipse
     cx="8033.9009"
     cy="4696.0283"
     rx="2.5224221"
     ry="4.3149366"
     id="ellipse2270"
     transform="matrix(0.80270346,0.59637837,-0.59637566,0.80270547,0,0)"
     style="stroke:none;stroke-width:0.29707" /><ellipse
     cx="8043.0352"
     cy="4709.23"
     rx="2.5224221"
     ry="4.3149366"
     id="ellipse2272"
     transform="matrix(0.80270346,0.59637837,-0.59637566,0.80270547,0,0)"
     style="stroke:none;stroke-width:0.29707" /><ellipse
     cx="8023.1714"
     cy="4655.0781"
     rx="2.5224221"
     ry="4.3149366"
     id="ellipse2274"
     transform="matrix(0.80270346,0.59637837,-0.59637566,0.80270547,0,0)"
     style="stroke:none;stroke-width:0.29707" /><ellipse
     cx="8033.8179"
     cy="4668.9033"
     rx="2.5224221"
     ry="4.3149366"
     id="ellipse2276"
     transform="matrix(0.80270346,0.59637837,-0.59637566,0.80270547,0,0)"
     style="stroke:none;stroke-width:0.29707" /><ellipse
     cx="8043.479"
     cy="4683.251"
     rx="2.5224221"
     ry="4.3149366"
     id="ellipse2278"
     transform="matrix(0.80270346,0.59637837,-0.59637566,0.80270547,0,0)"
     style="stroke:none;stroke-width:0.29707" /><ellipse
     cx="8052.6133"
     cy="4696.4526"
     rx="2.5224221"
     ry="4.3149366"
     id="ellipse2280"
     transform="matrix(0.80270346,0.59637837,-0.59637566,0.80270547,0,0)"
     style="stroke:none;stroke-width:0.29707" /><ellipse
     cx="8030.7251"
     cy="4639.542"
     rx="2.5224221"
     ry="4.3149366"
     id="ellipse2282"
     transform="matrix(0.80270346,0.59637837,-0.59637566,0.80270547,0,0)"
     style="stroke:none;stroke-width:0.29707" /><ellipse
     cx="8041.3887"
     cy="4653.4243"
     rx="2.5224221"
     ry="4.3149366"
     id="ellipse2284"
     transform="matrix(0.80270346,0.59637837,-0.59637566,0.80270547,0,0)"
     style="stroke:none;stroke-width:0.29707" /><ellipse
     cx="8051.0161"
     cy="4667.7271"
     rx="2.5224221"
     ry="4.3149366"
     id="ellipse2286"
     transform="matrix(0.80270346,0.59637837,-0.59637566,0.80270547,0,0)"
     style="stroke:none;stroke-width:0.29707" /><ellipse
     cx="8060.1504"
     cy="4680.9287"
     rx="2.5224221"
     ry="4.3149366"
     id="ellipse2288"
     transform="matrix(0.80270346,0.59637837,-0.59637566,0.80270547,0,0)"
     style="stroke:none;stroke-width:0.29707" /><ellipse
     cx="8038.7319"
     cy="4624.7173"
     rx="2.5224221"
     ry="4.3149366"
     id="ellipse2290"
     transform="matrix(0.80270346,0.59637837,-0.59637566,0.80270547,0,0)"
     style="stroke:none;stroke-width:0.29707" /><ellipse
     cx="8049.3784"
     cy="4638.5425"
     rx="2.5224221"
     ry="4.3149366"
     id="ellipse2292"
     transform="matrix(0.80270346,0.59637837,-0.59637566,0.80270547,0,0)"
     style="stroke:none;stroke-width:0.29707" /><ellipse
     cx="8059.0234"
     cy="4652.9023"
     rx="2.5224221"
     ry="4.3149366"
     id="ellipse2294"
     transform="matrix(0.80270346,0.59637837,-0.59637566,0.80270547,0,0)"
     style="stroke:none;stroke-width:0.29707" /><ellipse
     cx="8068.1738"
     cy="4666.0918"
     rx="2.5224221"
     ry="4.3149366"
     id="ellipse2296"
     transform="matrix(0.80270346,0.59637837,-0.59637566,0.80270547,0,0)"
     style="stroke:none;stroke-width:0.29707" /><path
     d="m 3854.3216,8598.9326 c -1.91,0.24 -3.67,-1.12 -3.91,-3.04 -0.24,-1.92 1.12,-3.68 3.04,-3.92 3.06,-0.62 6.64,-3.02 10.68,-6.23 7.06,-5.6 14.7599,-14.16 21.7599,-23.22 5.83,-7.54 11,-15.48 14.49,-22.57 1.57,-3.2 2.8,-6.17 3.46,-8.83 0.36,-1.43 0.68,-2.69 0.44,-3.74 -1.28,-6.5 -7.73,-15.39 -14.99,-24.5 -13.0799,-16.43 -29.2399,-32.91 -32.2899,-35.64 -1.52,-1.19 -1.79,-3.4 -0.59,-4.92 1.19,-1.52 3.4,-1.79 4.92,-0.59 3.49,2.4 22.6199,16.86 37.8999,32.36 6.19,6.29 11.64,12.81 15.39,18.65 2.53,3.93 4.19,7.7 5.0699,10.97 1.01,4.16 0.59,9.64 -1.7399,15.74 -2.82,7.36 -8.31,16.09 -15.27,24.43 -7.68,9.19 -17.04,17.99 -25.8599,24.41 -8.65,6.32 -16.78,10.33 -22.5,10.64 z"
     id="path2298"
     style="stroke:none;stroke-width:0.2" /><path
     d="m 3859.1616,8464.4826 c 5.27,4.14 48.2899,42.02 52.8299,61.06 4.24,17.82 -39.5199,67.56 -58.0999,69.91 0.83,-0.44 1.28,-0.79 1.31,-1.04 0.52,-3.69 2.71,-66.68 3.96,-129.93 z"
     id="path2300"
     style="stroke:none;stroke-width:0.2" /></g>&#10;</svg>
