<?xml version="1.0" encoding="UTF-8" standalone="no"?>
<svg
   width="3472.1147"
   height="1894.9905"
   viewBox="0 0 3472.1148 1894.9905"
   version="1.1"
   xml:space="preserve"
   style="clip-rule:evenodd;fill-rule:evenodd;stroke-linejoin:round;stroke-miterlimit:2"
   id="svg5353"
   xmlns="http://www.w3.org/2000/svg"
   xmlns:svg="http://www.w3.org/2000/svg"><defs
   id="defs5353" />&#10;    <g
   id="vectorly-UNI-glasses"
   style="stroke:none;stroke-width:0.2"
   transform="matrix(4.9999999,0,0,4.9999999,-16190.685,-49349.039)"><path
     d="m 3516.6524,10177.712 c -17.8699,-18.8 -32.9699,-46.8 -41.5798,-72.5 -8.06,-24.1 -9.94,-46.3 -4.4,-57.9 4.05,-8.5 10.5899,-14.7 21.8999,-18.1 12.14,-3.8 30.5999,-4.1 59.0499,0.1 20.8899,3.1 66.2898,11.7 98.3597,26.5 17.83,8.3 31.4699,18.9 36.5699,30.5 7.46,17.3 9.89,38.1 9.09,57.5 -0.99,24.1 -6.88,46 -12.96,56.7 -6.1299,10.6 -15.2699,17.8 -26.4799,21.7 -13.77,4.8 -30.7099,4.8 -48.3199,0.5 -11.7599,-2.9 -35.9399,-10.9 -57.1998,-21.5 -13.99,-7 -26.71,-15.1 -34.03,-23.5 z m 5.17,-4.7 c 7.11,7.5 19.32,14.4 32.57,20.3 20.8799,9.5 44.4398,16.4 55.8698,18.7 12.6,2.6 24.71,2.9 35.1599,0.4 11.05,-2.6 20.13,-8.5 25.47,-18.5 5.14,-9.5 9.4199,-29.2 9.8599,-50.6 0.35,-17.1 -1.82,-35.4 -8.6599,-50.6 -2.18,-4.9 -6.78,-9.2 -12.64,-13.3 -7.83,-5.4 -17.93,-10.2 -28.8599,-14.5 -29,-11.3 -63.8799,-18.6 -81.2198,-21.5 -20.56,-3.6 -35.3999,-4.6 -46.2499,-3.3 -11.7,1.4 -18.11,5.5 -21.73,12.5 -2.15,4.2 -2.86,10.2 -2.6,17.2 0.47,12.8 4.14,28.8 10.11,45.1 7.74,21.1 19.28,42.6 32.9199,58.1 z"
     id="path2846"
     style="stroke:none;stroke-width:0.2" /><path
     d="m 3894.5715,10006.912 -151.1896,86.4 c -3.66,2.2 -7.07,4 -10.25,5.6 -10.25,5 -17.8999,7.3 -23.0499,11 -2.37,1.6 -5.36,8.9 -8.58,17 -5.6,14 -10.8,30.4 -10.8,30.4 -0.55,1.9 -2.5,3 -4.35,2.4 -1.86,-0.5 -2.92,-2.5 -2.38,-4.3 0,0 5.84,-21.4 11.68,-36.6 3.1,-8.1 6.59,-14.5 9.02,-16.3 2.01,-1.6 4.38,-2.9 7.1,-4.3 6.4499,-3.4 15.1599,-6.9 26.1499,-13.8 7.28,-4.6 42.8699,-26.5 78.4098,-48.1 39.3999,-24 78.7198,-47.5 78.7198,-47.5 1.9,-1.1 4.2,-1.4 6.3,-0.7 2.11,0.7 3.82,2.2 4.71,4.3 0,0 2.35,5.2 3.74,11 0.73,3 1.16,6.1 1.07,8.8 -0.08,2.2 0.2,3.8 0.95,5 1.09,1.6 3.16,1.8 4.26,1.4 0.15,0 0.33,-0.1 0.49,-0.2 0,-0.3 0,-0.8 -0.05,-1.2 -0.1,-0.7 -0.27,-1.4 -0.47,-2.1 -0.98,-3.6 -2.63,-7.2 -3.51,-10 -2.15,-6.6 -4.32,-11.5 -6.82,-14.8 -2.4,-3.1 -5.1,-4 -8.46,-3.1 -2.35,0.6 -18.53,9.3 -40.1299,20.8 -29.6499,15.7 -68.9198,36.7 -97.1198,51.2 -19.2099,9.9 -33.5099,16.8 -36.6199,17.4 -3.84,0.8 -15.8499,-0.6 -30.2299,-3.2 -27.8199,-5.2 -65.2198,-14.2 -65.2198,-14.2 -1.89,-0.4 -3.08,-2.3 -2.67,-4.2 0.42,-1.9 2.3,-3.1 4.18,-2.7 0,0 37.4699,7.6 65.2598,11.8 12.59,1.9 23.0299,3.2 26.3399,2.4 4.25,-1.1 30.26,-15.8 60.7699,-32.9 32.8499,-18.5 70.6798,-40 92.3398,-51.9 10.4099,-5.7 17.4699,-9.1 19.0399,-9.6 8.24,-2.3 15.26,-0.9 21.56,4.8 4.6899,4.2 9.0799,11.6 12.9399,23.3 1.02,3.1 2.91,7.2 3.95,11.3 1.07,4.2 1.26,8.3 0.22,11.8 -1.37,4.6 -4.48,8.6 -11.16,10.6 -4.9599,1.5 -13.5899,0.9 -19.4699,-4.8 -3.6,-3.5 -6.5,-9 -6.11,-17.6 0.07,-1.4 -0.19,-3 -0.56,-4.6 z"
     id="path2848"
     style="stroke:none;stroke-width:0.2" /><path
     d="m 3687.342,10156.412 c 2.23,-21.6 0.84,-46.8 -8.02,-66.9 -6.1399,-13.9 -26.8999,-25.2 -50.6198,-33.7 0,0 82.5598,18.3 93.5197,15.8 10.96,-2.6 165.2196,-89.9 173.0096,-92 10.65,-2.8 18.27,2.8 24.8899,23.1 2.34,7.1 9.64,20.1 -1.7299,23.6 -4.94,1.5 -15.97,-0.5 -15.39,-14.4 0.27,-6.6 -4.03,-16.4 -4.03,-16.4 0,0 -142.8096,83.9 -158.3196,93.4 -15.51,9.4 -26.5299,12.3 -33.2699,17.3 -6.75,4.9 -20.04,50.2 -20.04,50.2 z"
     id="path2850"
     style="stroke:none;stroke-width:0.2" /><path
     d="m 3631.0022,10059.712 c -1.14,-1.5 -0.8,-3.7 0.76,-4.9 1.56,-1.1 3.75,-0.8 4.9,0.8 0,0 8.6399,8.5 19.1199,20.2 2.38,2.7 4.77,5.5 7.17,8.5 1.53,1.9 3.08,3.8 4.5,5.8 3.63,5.2 6.92,10.6 9.9299,15.6 8.06,13.5 13.61,24.3 13.61,24.3 1.14,1.5 0.8,3.7 -0.76,4.9 -1.57,1.1 -3.76,0.8 -4.9,-0.8 0,0 -8.6099,-8.6 -18.9899,-20.3 -3.86,-4.4 -7.98,-9.2 -11.8,-14.2 -1.49,-2 -2.85,-4.1 -4.19,-6.1 -2.1,-3.2 -4.07,-6.3 -5.88,-9.4 -7.9799,-13.5 -13.4699,-24.4 -13.4699,-24.4 z"
     id="path2852"
     style="stroke:none;stroke-width:0.2" /><path
     d="m 3569.3323,10042.112 c -1,-1.6 -0.45,-3.8 1.21,-4.8 1.66,-1 3.81,-0.4 4.8,1.2 0,0 13.34,18.5 29.6099,42.8 3.71,5.5 7.51,11.3 11.32,17.4 2.45,3.8 4.92,7.7 7.26,11.7 5.96,10.2 11.58,20.6 16.7299,30.3 13.72,25.7 23.74,46.2 23.74,46.2 0.99,1.7 0.45,3.8 -1.21,4.8 -1.66,1 -3.81,0.5 -4.81,-1.2 0,0 -13.28,-18.5 -29.4499,-42.8 -6.06,-9.1 -12.56,-19 -18.73,-29.1 -2.41,-3.9 -4.68,-7.9 -6.93,-11.9 -3.49,-6.2 -6.8399,-12.4 -9.9499,-18.2 -13.62,-25.9 -23.59,-46.4 -23.59,-46.4 z"
     id="path2854"
     style="stroke:none;stroke-width:0.2" /><path
     d="m 3524.0624,10035.212 c -0.96,-1.7 -0.39,-3.8 1.29,-4.8 1.67,-1 3.82,-0.4 4.78,1.3 0,0 15.07,22.1 33.5199,51 4.21,6.6 8.53,13.6 12.88,20.7 2.79,4.6 5.61,9.3 8.29,14 6.85,12.1 13.3499,24.4 19.3099,35.8 15.88,30.3 27.6,54.4 27.6,54.4 0.97,1.7 0.39,3.9 -1.28,4.8 -1.68,1 -3.82,0.4 -4.79,-1.2 0,0 -15.02,-22.3 -33.3599,-51.2 -6.89,-10.8 -14.27,-22.6 -21.33,-34.6 -2.76,-4.7 -5.37,-9.4 -7.96,-14.2 -4.02,-7.3 -7.8899,-14.5 -11.4999,-21.5 -15.78,-30.4 -27.45,-54.5 -27.45,-54.5 z"
     id="path2856"
     style="stroke:none;stroke-width:0.2" /><path
     d="m 3269.2209,9960.4308 c 15.3265,-2.9859 53.9682,4.5305 86.7353,16.7834 23.7826,8.958 44.2519,20.799 51.8542,32.2278 13.6902,20.902 18.9447,53.954 14.4423,81.343 -2.0632,12.562 -6.2099,23.991 -12.1962,32.64 -5.224,7.517 -11.9014,13.077 -19.829,15.96 -15.4282,5.56 -34.251,1.853 -52.403,-10.091 -18.2231,-12.047 -35.9381,-32.125 -48.5714,-57.249 -13.7308,-27.594 -23.7825,-55.498 -27.8175,-75.9881 -2.1038,-10.7084 -2.5815,-19.5635 -1.2907,-25.3295 1.3517,-6.1779 4.5126,-9.6788 9.076,-10.2966 z m 1.1586,6.8987 c -2.5815,0.5149 -2.9576,3.5009 -3.1202,7.7224 -0.2845,7.2076 1.8396,17.6071 5.6713,29.8601 5.661,18.019 15.1741,39.95 27.1162,61.47 12.247,22.344 28.8643,40.054 45.7052,50.453 13.7614,8.546 27.5736,12.15 38.9567,7.723 6.2099,-2.266 10.9055,-7.414 14.5338,-14.004 5.1936,-9.472 8.1004,-21.622 8.9744,-34.596 1.4127,-20.902 -2.4189,-43.657 -11.9726,-59.205 -3.3844,-5.56 -10.4786,-11.12 -19.4326,-16.475 -10.8546,-6.4864 -24.3619,-12.6643 -38.2453,-17.9155 -27.1263,-10.0906 -55.5841,-16.7834 -68.1869,-15.033 z"
     id="path2858"
     style="stroke:none;stroke-width:0.204596" /><path
     d="m 3368.4528,9992.612 c -1.88,-0.5 -2.99,-2.4 -2.49,-4.3 0.5,-1.8 2.42,-3 4.29,-2.5 16.91,3.8 35.6599,9.8 50.6999,18 11.79,6.4 21.1499,14.4 26.3299,23.4 l 29.0699,8.5 c 7.04,2 11.61,6.2 14.62,10.8 2.75,4.2 4.03,8.7 4.63,12 10.46,7.6 18.41,19.1 22.3499,32.1 3.93,13 3.99,27.3 -0.73,40.2 1.82,5.6 7.29,21.1 17.37,36.8 7.3,11.4 16.92,23 29.4799,31 1.67,1 2.23,3.1 1.25,4.8 -0.98,1.7 -3.13,2.2 -4.79,1.3 -14.2799,-7.7 -25.7399,-19.4 -34.5399,-31.2 -15.2299,-20.4 -22.2799,-41 -22.2799,-41 -0.46,-1.4 -0.41,-3 0.14,-4.4 3.78,-10.6 3.1,-22.3 -0.46,-32.8 -3.6,-10.6 -10.3,-20 -19.42,-25.5 -2.31,-1.4 -3.74,-3.9 -3.79,-6.6 0,0 -0.04,-4.4 -2.44,-8.3 -1.16,-1.9 -2.8899,-3.7 -5.6999,-4.6 l -31.57,-10.9 c -1.89,-0.6 -3.42,-2.1 -4.18,-3.9 -3.1499,-8.3 -11.1199,-15.6 -21.0799,-22.1 -13.7,-8.8 -31.0099,-15.9 -46.7599,-20.8 z"
     id="path2860"
     style="stroke:none;stroke-width:0.2" /><path
     d="m 3474.1626,10061.612 c 1.8399,0.6 2.8299,2.6 2.2199,4.5 -0.62,1.8 -2.5999,2.8 -4.4399,2.2 0,0 -24.21,-5.8 -24.21,-5.8 -0.33,2.5 -0.79,5.6 -1.43,9.1 -0.88,4.7 -2.08,10.1 -3.81,15.7 -1.25,4 -2.79,8.1 -4.61,12.2 -2.7699,6.1 -6.1199,12.1 -10.0499,17.3 -10.25,13.6 -23.68,22.6 -40.4299,18.4 -1.91,-0.3 -3.2,-2.1 -2.88,-4 0.31,-1.9 2.12,-3.2 4.03,-2.9 13.0499,1.1 21.4499,-7.8 27.7899,-19 2.77,-5 5,-10.4 7.06,-15.8 1.42,-3.8 2.71,-7.5 3.92,-11.1 1.73,-5.2 3.3,-10 4.53,-14.3 2.48,-8.5 3.8699,-14.4 3.8699,-14.4 0.26,-1.9 1.35,-3.5 2.98,-4.6 1.62,-1 3.61,-1.2 5.42,-0.6 z"
     id="path2862"
     style="stroke:none;stroke-width:0.2" /><path
     d="m 3369.3528,9989.212 c 29.3999,7.9 64.5299,22.8 73.2398,43.7 0,0 25.49,8.3 31.6,10.1 1.8199,0.6 3.4099,1.3 4.7799,2.2 8.96,5.8 9.18,17.8 9.18,17.8 20.88,12.9 31.3599,43 21.97,67.5 0,0 15.5599,49.6 52.1798,71.1 -17.2299,-7.3 -34.1499,-16.5 -43.0699,-26.2 -26.8699,-29.4 -46.7298,-80.9 -46.1798,-110.5 l -30.96,-10.3 c 0,0 -11.7899,84.2 -54.1198,77.2 32.6799,-12.9 36.3799,-83.6 14.0599,-118.8 -5.21,-8.1 -17.4799,-16.4 -32.6799,-23.8 z"
     id="path2864"
     style="stroke:none;stroke-width:0.2" /><path
     d="m 3297.873,10068.212 c 1.45,1.3 1.58,3.6 0.29,5 -1.29,1.4 -3.51,1.6 -4.95,0.3 -5.51,-4.8 -15.48,-16.9 -25.6999,-37 -7.78,-15.2 -15.7,-35.1 -21.95,-59.7 -2.28,-1 -5.01,-3 -6.49,-6.9 -1.2,-3.1 -1.6,-7.9 0.98,-15.1 0.8,-2.3 2.65,-4.43 5.14,-6.24 4.1,-3 10.1,-5.08 11.71,-5.61 4.26,-1.83 86.7298,-37.24 152.1196,-57.99 29.5799,-9.39 55.8399,-15.6 70.3198,-15.14 12.69,0.47 50.5299,4.75 86.6698,19.56 18.66,7.65 36.8099,18.15 51.0399,32.05 9.06,8.9 9.04,18.36 5.44,24.9 -4.26,7.77 -14.34,12.37 -24.76,8.07 -2.2499,-0.9 -7.0399,-4.62 -13.5999,-10.07 -10.61,-8.82 -27.2,-22.4 -47.2599,-31.64 -13.49,-6.21 -28.5599,-10.52 -44.4299,-9.78 -4.53,0.2 -30.4599,7.89 -62.5898,17.64 -62.7099,19.04 -148.3197,46.35 -148.3197,46.35 -1.84,0.6 -3.83,-0.4 -4.44,-2.2 -0.61,-1.9 0.38,-3.9 2.21,-4.5 0,0 84.9198,-29.65 147.1797,-50.25 33.4199,-11.05 60.4998,-19.36 65.2398,-19.68 18.02,-1.21 35.2899,3.18 50.7499,9.95 21.5599,9.42 39.5399,23.49 50.9899,32.69 4.8899,3.93 8.1899,6.98 9.8599,7.63 2.4,0.95 4.84,0.36 5.8,-1.43 0.98,-1.86 -0.25,-4.12 -2.82,-6.58 -16.2599,-15.63 -38.2099,-26.07 -59.3798,-33.22 -29.57,-10 -57.7999,-13.47 -68.1799,-13.9 -13.4399,-0.61 -37.7899,5.33 -65.4098,13.56 -66.9798,19.97 -152.3296,54.33 -152.3296,54.33 -0.19,0 -0.39,0.1 -0.59,0.2 0,0 -3.48,0.9 -6.73,2.6 -0.95,0.4 -1.9,1 -2.68,1.6 -0.37,0.3 -0.81,0.4 -0.94,0.8 -0.93,2.4 -1.41,4.3 -1.46,5.9 -0.1,2.7 1.6,3.3 1.6,3.3 2.21,0.2 4.05,1.8 4.55,3.9 5.43,25.4 12.83,45.7 20.1999,61.3 9.03,19 17.9,30.7 22.92,35.3 z"
     id="path2866"
     style="stroke:none;stroke-width:0.2" /><path
     d="m 3295.543,10070.912 c -9.49,-8.5 -32.5399,-40.5 -45.7399,-98.1 0,0 -10.42,-0.9 -4.75,-16.2 1.88,-5 13.82,-8.45 13.82,-8.45 0,0 173.4896,-72.35 220.1694,-70.53 18.53,0.71 92.2398,10.23 132.6297,49.36 12.46,12.07 0.9,25.32 -11.15,20.5 -8.3499,-3.37 -54.4898,-53.95 -108.4397,-50.89 -13.47,0.76 -211.6595,66.91 -211.6595,66.91 -4.21,-0.2 -7.8099,-0.1 -10.6199,0.4 -15.39,2.5 -1.74,54.7 24.8399,105.3 0.3,0.5 0.6,1.1 0.9,1.7 z"
     id="path2868"
     style="stroke:none;stroke-width:0.2" /><path
     d="m 3300.203,9968.412 c -0.77,-1.8 0.04,-3.9 1.81,-4.7 1.77,-0.7 3.84,0.1 4.62,1.9 0,0 10.5899,19.3 23.2999,44.6 2.9,5.7 5.84,11.8 8.77,18 1.88,4.1 3.79,8.1 5.54,12.2 4.48,10.6 8.58,21.3 12.3299,31.2 9.98,26.4 17.05,47.3 17.05,47.3 0.77,1.8 -0.04,3.9 -1.81,4.6 -1.78,0.8 -3.84,0 -4.62,-1.8 0,0 -10.54,-19.4 -23.1399,-44.7 -4.73,-9.4 -9.77,-19.7 -14.47,-30.2 -1.83,-4 -3.52,-8.2 -5.18,-12.3 -2.59,-6.4 -5.05,-12.7 -7.31,-18.7 -9.8799,-26.5 -16.8899,-47.4 -16.8899,-47.4 z"
     id="path2870"
     style="stroke:none;stroke-width:0.2" /><path
     d="m 3355.1728,9985.812 c -0.8899,-1.7 -0.21,-3.8 1.51,-4.7 1.71,-0.9 3.83,-0.2 4.72,1.5 0,0 9.03,13.2 19.83,30.7 2.46,4 4.93,8.2 7.39,12.6 1.58,2.8 3.18,5.6 4.63,8.5 3.7199,7.5 7.0599,15 10.1099,22.1 8.15,18.9 13.77,33.8 13.77,33.8 0.89,1.8 0.21,3.9 -1.5,4.8 -1.72,0.8 -3.84,0.2 -4.73,-1.5 0,0 -8.98,-13.3 -19.6699,-30.8 -4,-6.6 -8.26,-13.7 -12.18,-21 -1.53,-2.9 -2.92,-5.8 -4.29,-8.7 -2.13,-4.6 -4.14,-9 -5.98,-13.3 -8.05,-19 -13.61,-34 -13.61,-34 z"
     id="path2872"
     style="stroke:none;stroke-width:0.2" /><path
     d="m 3597.9822,9948.092 c -0.14,-1.93 1.31,-3.61 3.24,-3.75 1.93,-0.14 3.61,1.31 3.75,3.24 0.91,4.83 -0.06,13.33 -14.4899,25.93 -3.84,3.3 -8.73,6.9 -15.03,10.6 -3.52,2.1 -7.5,4.3 -12.01,6.3 -3.79,1.7 -7.9699,3.2 -12.5299,4.8 -5.78,1.9 -12.12,3.8 -19.17,5.6 -6.01,1.6 -12.39,3 -19.3799,4.5 -1.83,0.7 -3.82,-0.3 -4.43,-2.2 -0.62,-1.8 0.37,-3.8 2.21,-4.4 10.7399,-4.9 19.8899,-9.5 28.1999,-13.6 6.87,-3.4 12.9,-6.5 18.4099,-9.2 5.74,-2.8 10.84,-5 15.23,-7.2 6,-2.9 10.76,-5.3 14.45,-7.8 8.85,-5.8 11.4199,-9.7 11.5499,-12.82 z"
     id="path2874"
     style="stroke:none;stroke-width:0.2" /><path
     d="m 3466.4096,10014.661 c 1.88,-0.4 3.79,0.7 4.26,2.6 0.47,1.9 -0.66,3.8 -2.54,4.2 0,0 -84.1498,22.5 -143.8097,43.7 -19.5399,6.9 -36.4099,13.7 -46.6398,19.6 -3.87,2.2 -6.69,3.9 -7.71,5.7 -1.16,2 -0.57,3.9 0.71,5.8 1.75,2.5 4.61,4.9 8.08,7.4 9.0199,6.3 22.0199,12.2 34.3199,17.6 6.92,3.1 80.3998,28.5 155.7896,54.5 36.8099,12.7 74.0498,25.6 104.3597,35.8 33.9699,11.6 58.9999,19.9 64.3899,20.7 15.1299,2.2 25.8199,3.1 35.4299,1.2 9.93,-2 18.5899,-7.1 30.0399,-16.5 10.28,-8.5 103.3098,-73.2 157.7296,-112.4 20.22,-14.6 35.0499,-25.6 37.8899,-28.6 5.42,-5.9 8.64,-11.8 10.48,-17.1 3.81,-10.9 1.8,-19.3 1.8,-19.3 -0.5,-1.9 0.61,-3.8 2.48,-4.3 1.87,-0.5 3.79,0.6 4.29,2.5 0,0 2.89,10.1 -1.39,23.5 -1.98,6.2 -5.51,13.2 -11.62,20.1 -2.86,3.3 -17.8399,15.1 -38.4099,30.6 -53.2699,40.3 -144.5296,106.6 -154.5896,115.3 -13.5,11.5 -23.96,17.5 -35.8099,20 -10.89,2.4 -23.07,1.8 -40.3199,-0.4 -8.71,-1.1 -67.4099,-20 -132.8197,-42.5 -39.8299,-13.7 -82.1498,-28.8 -117.2097,-41.5 -42.1099,-15.2 -73.7498,-27 -78.1898,-29.1 -15.88,-7.4 -32.7399,-15.7 -41.9399,-24.3 -8.68,-8.1 -11.37,-16.8 -6.14,-25.4 1.77,-2.9 5.98,-6.4 12.49,-9.9 10.78,-5.9 28.4799,-12.6 48.9899,-19.3 60.4598,-19.8 145.6096,-40.2 145.6096,-40.2 z"
     id="path2876"
     style="stroke:none;stroke-width:0.2" /></g>&#10;</svg>
