<?xml version="1.0" encoding="UTF-8" standalone="no"?>
<svg
   width="2461.6455"
   height="3130.7915"
   viewBox="0 0 2461.6455 3130.7915"
   version="1.1"
   xml:space="preserve"
   style="clip-rule:evenodd;fill-rule:evenodd;stroke-linejoin:round;stroke-miterlimit:2"
   id="svg5353"
   xmlns="http://www.w3.org/2000/svg"
   xmlns:svg="http://www.w3.org/2000/svg"><defs
   id="defs5353" />&#10;    <g
   id="vectorly-UNI-cat"
   style="stroke:none;stroke-width:0.2"
   transform="matrix(4.9999999,0,0,4.9999999,-16959.278,-24216.211)"><path
     d="m 3479.0371,4963.295 c 1.48,1.25 1.67,3.46 0.43,4.94 -1.25,1.48 -3.46,1.68 -4.94,0.43 -2.9,-1.76 -8.21,-4.01 -15.24,-6.34 -3.18,-1.05 -6.6699,-1.94 -10.4599,-2.88 -2.75,-0.68 -5.65,-1.23 -8.66,-1.86 -2.78,-0.58 -5.63,-1.22 -8.61,-1.73 -4.7,-0.8 -9.54,-1.53 -14.76,-1.59 -4.9299,-0.05 -9.9399,0.05 -15.3099,1.02 -1.84,0.62 -3.83,-0.37 -4.44,-2.2 -0.62,-1.83 0.37,-3.82 2.2,-4.44 8.5,-4.22 16.7599,-6.61 24.8899,-7.53 6.17,-0.7 12.12,-0.47 17.67,0.5 2.38,0.41 4.66,1.07 6.84,1.81 3.49,1.17 6.7399,2.51 9.6999,4.09 10.45,5.57 17.41,12.12 20.69,15.78 z"
     id="path1532"
     style="stroke:none;stroke-width:0.2" /><path
     d="m 3397.0673,5006.415 c -1.7,0.94 -3.83,0.33 -4.77,-1.36 -0.94,-1.69 -0.33,-3.83 1.36,-4.77 0,0 8.27,-6.77 20.64,-14.04 2.7599,-1.63 5.7299,-3.16 8.8599,-4.64 1.99,-0.94 4.03,-1.87 6.15,-2.62 5.31,-1.87 10.88,-3.25 16.36,-4.17 9.5399,-1.61 18.5499,-1.8 25.9899,-0.32 1.93,0.12 3.4,1.78 3.28,3.71 -0.12,1.93 -1.78,3.41 -3.71,3.29 -4.57,0.38 -9.41,1.91 -14.69,3.73 -3.7899,1.31 -7.5699,2.95 -11.5199,4.55 -3.85,1.55 -7.68,3.28 -11.55,4.72 -4.96,1.85 -9.87,3.37 -14.37,4.84 -12.7199,4.14 -22.0299,7.08 -22.0299,7.08 z"
     id="path1534"
     style="stroke:none;stroke-width:0.2" /><path
     d="m 3548.2369,4981.405 c -1.92,0.21 -3.65,-1.17 -3.87,-3.1 -0.21,-1.92 1.18,-3.65 3.1,-3.87 4.72,-1.2 14.49,-1.89 26.65,-0.61 3.3299,0.34 6.7699,0.94 10.3199,1.72 2.23,0.49 4.5,1.05 6.73,1.81 5.42,1.85 10.79,4.32 15.93,7.24 7.87,4.47 14.9399,9.88 20.9799,15.99 1.53,1.18 1.81,3.38 0.63,4.91 -1.19,1.53 -3.39,1.82 -4.92,0.63 -6.75,-3.92 -14.3799,-6.52 -22.2099,-9.03 -4.29,-1.37 -8.61,-2.49 -12.83,-3.77 -2.9,-0.87 -5.73,-1.81 -8.48,-2.74 -5.7999,-1.96 -11.1499,-3.87 -16.0099,-5.31 -7.17,-2.13 -12.71,-3.75 -16.02,-3.87 z"
     id="path1536"
     style="stroke:none;stroke-width:0.2" /><path
     d="m 3549.6169,4969.015 c -1.67,0.97 -3.82,0.4 -4.79,-1.27 -0.98,-1.67 -0.41,-3.81 1.26,-4.79 3.24,-2.57 10.79,-8.67 21.84,-13.72 3.06,-1.39 6.38,-2.56 9.9299,-3.55 2.23,-0.63 4.54,-1.17 6.94,-1.49 4.3,-0.57 8.8,-0.66 13.39,-0.25 4.08,0.37 8.17,1.07 12.31,2.3 5.71,1.69 11.2799,4.05 16.8399,7.51 1.77,0.78 2.58,2.84 1.81,4.61 -0.78,1.78 -2.85,2.59 -4.62,1.81 -5.24,-1.45 -10.2299,-1.89 -15.1899,-2.14 -5.19,-0.25 -10.09,0.26 -14.88,0.85 -3.02,0.37 -5.94,0.89 -8.79,1.35 -3.07,0.49 -6.04,0.91 -8.88,1.45 -3.9099,0.74 -7.5199,1.45 -10.8299,2.29 -7.76,1.98 -13.54,3.93 -16.34,5.04 z"
     id="path1538"
     style="stroke:none;stroke-width:0.2" /><path
     d="m 3448.8772,4854.7451 c -0.26,1.08 -0.59,2.56 -0.74,3.85 -0.68,5.63 -0.71,13.43 -0.46,21.77 0.67,22.16 3.55,47.9199 3.55,47.9199 0.1,1.08 -0.06,2.17 -0.46,3.18 0,0 -4.94,13.04 -6.92,25.98 -0.86,5.63 -1.25,11.25 0.09,15.4 0.98,3.01 3.46,6.02 6.61,9.15 4.39,4.36 10.1899,8.64 16.4599,12.7 11.03,7.13 23.58,13.43 33.4399,17.51 6.1,2.54 10.94,4.33 13.34,4.45 4.6,0.25 12.76,-2.49 21.38,-5.78 13.8399,-5.27 28.6499,-12.45 33.1499,-15.48 10.3199,-6.89 15.0299,-16.61 17.0499,-26.11 2.74,-12.9 0.86,-25.48 0.2,-31.54 -0.35,-3.29 -0.19,-5.54 0.11,-6.44 2.79,-8.36 4.5,-19.0699 5.39,-29.7599 1.17,-14.12 0.96,-28.18 -0.24,-36.88 -0.28,-1.97 -0.78,-4.04 -1.09,-5.19 -1.03,0.41 -2.46,1.19 -3.62,1.75 -4.99,2.41 -11.2599,6.61 -17.3499,11.2 -10.27,7.73 -20.07,16.43 -22.15,19.5 -1.05,1.63 -3.22,2.1 -4.84,1.05 -1.63,-1.05 -2.1,-3.22 -1.05,-4.85 2.76,-4.48 19.24,-20.33 32.88,-29.97 5.5399,-3.92 10.6899,-6.77 14.3599,-7.77 2.85,-0.78 5.2,-0.48 6.89,0.29 1.31,0.6 3.02,2.26 4.18,5.4 1.9,5.12 3.39,16.57 3.72,29.94 0.4,15.93 -0.87,34.5899 -4.64,48.1799 0.12,0.89 0.58,4.24 0.98,7.2 1.3,9.52 2.51,24.47 -2.1,38.77 -3.27,10.15 -9.44,19.92 -20.22,27.53 -4.8799,3.42 -20.8599,11.74 -35.9299,17.75 -11.1299,4.43 -21.8699,7.38 -27.8499,7.12 -3.32,-0.16 -10.22,-2.06 -18.6899,-5.59 -10.62,-4.43 -24.13,-11.32 -35.91,-19.18 -14.2799,-9.53 -25.7799,-20.79 -28.6999,-30.51 -1.81,-6.03 -1.6,-14.12 -0.15,-22.21 2.08,-11.6 6.37,-23.2 7.93,-27.2 -0.61,-8.13 -3.02,-43.1999 -1.37,-63.9699 0.5,-6.31 1.41,-11.42 2.7,-14.46 1.25,-2.95 3.01,-4.67 4.72,-5.44 1.59,-0.71 3.63,-1.04 6.06,-0.48 2.85,0.66 6.8099,2.71 11.1899,5.88 13.37,9.65 32.46,29.59 37.7899,35.26 3,-0.34 8.66,-0.9 15.29,-1.13 5.55,-0.2 11.77,-0.18 17.69,0.39 1.93,0.15 3.38,1.83 3.24,3.76 -0.15,1.93 -1.83,3.38 -3.76,3.23 -5.62,-0.3 -11.5,-0.06 -16.73,0.34 -9.38,0.73 -16.68,2.05 -16.68,2.05 -1.37,0.22 -2.7599,-0.25 -3.7199,-1.25 0,0 -14.95,-15.01 -28.92,-26.41 -5.19,-4.23 -10.2399,-7.95 -14.2599,-10.09 -0.56,-0.31 -1.23,-0.58 -1.84,-0.81 z m 148.9796,80.3599 z m -7.49,-75.8499 c 0.1,0.07 0.2,0.13 0.27,0.16 0.15,0.08 0.46,0.33 0.49,0.15 0.07,-0.4 -0.23,-0.45 -0.76,-0.31 z"
     id="path1540"
     style="stroke:none;stroke-width:0.2" /><path
     d="m 3440.6972,4984.815 c 0.72,-1.79 2.76,-2.66 4.56,-1.95 1.79,0.72 2.66,2.77 1.95,4.56 -6.43,17.58 -14.14,52.76 -11.05,96.84 1.06,15.13 3.43,31.28 7.49,48.19 3.57,14.91 8.41,30.4299 15.1399,46.2599 4.97,12.42 12.73,31.98 20.71,54.1 6.32,17.51 12.8,36.61 18.4599,54.96 9.72,31.46 16.92,60.7 16.86,76.17 0.05,1.93 -1.48,3.54 -3.42,3.59 -1.93,0.05 -3.54,-1.48 -3.59,-3.41 -0.67,-11.89 -6.54,-31.86 -14.3999,-54.62 -8.34,-24.14 -19.12,-51.24 -28.81,-75.09 -8.2,-20.19 -15.5799,-38.05 -20.5499,-49.57 -6.85,-16.8 -11.91,-33.2099 -15.24,-49.0499 -3.77,-17.89 -5.5,-35.01 -5.8,-50.94 -0.87,-46.05 9.88,-82.16 17.69,-100.04 z"
     id="path1542"
     style="stroke:none;stroke-width:0.2" /><path
     d="m 3493.4571,5153.275 c -1.27,-1.46 -1.12,-3.67 0.34,-4.94 1.46,-1.28 3.6699,-1.13 4.9399,0.33 10.92,11.4999 21.68,35.0399 29.93,63.6299 4.1,14.21 7.5499,29.65 10.1399,45.39 1.51,9.19 2.71,18.49 3.51,27.7 0.55,6.27 0.91,12.51 1.05,18.63 0.66,27.16 -1.97,52.2 -7.8499,70.18 -0.4,1.21 -1.01,2.48 -1.95,3.7 -1.82,2.37 -5.03,4.88 -7.98,7.65 -1.78,1.65 -3.66,3.28 -4.1,5.47 -1.19,5.97 -1.88,13.3899 0.59,18.8799 1.43,3.17 3.93,5.65 8.22,6.39 1.91,0.25 3.27,2.01 3.02,3.93 -0.25,1.92 -2.01,3.28 -3.93,3.03 -7.32,-0.62 -11.87,-4.49 -14.73,-9.63 -3.77,-6.79 -4.03,-16.3799 -3.12,-24.1699 0.36,-3.07 1.83,-5.89 3.77,-8.53 2,-2.72 4.66,-5.19 6.84,-7.48 0.92,-0.96 1.81,-1.74 2.03,-2.6 4.56,-17.15 5.06,-40.71 3.52,-66.15 -0.36,-5.9 -0.8,-11.89 -1.31,-17.93 -0.75,-8.91 -1.67,-17.93 -2.79,-26.87 -1.91,-15.35 -4.39,-30.45 -7.39,-44.46 -5.86,-27.39 -13.43,-50.5 -22.7499,-62.1499 z"
     id="path1544"
     style="stroke:none;stroke-width:0.2" /><path
     d="m 3568.0569,5405.5248 c -0.09,-0.67 -0.3,-2.22 -0.46,-3.26 -0.33,-2.1899 -0.53,-4.6199 -0.3,-7.2899 0.22,-2.55 0.93,-5.29 2.35,-8.24 2.52,-5.18 7.5199,-19.64 13.5099,-39.1 2.53,-8.2 5.2,-17.29 8,-26.93 6.09,-20.95 12.44,-44.58 17.18,-68.04 6.91,-34.19 10.8299,-67.87 5.42,-91.88 -0.48,-1.88 0.64,-3.7899 2.51,-4.2799 1.8799,-0.49 3.7899,0.64 4.2799,2.5099 7.27,24.61 6.22,59.97 0.87,95.94 -3.59,24.18 -9.0099,48.61 -14.9099,70.09 -2.71,9.87 -5.61,19.09 -8.38,27.39 -6.81,20.41 -13.06,35.34 -15.93,40.71 -2.31,4.22 -1.13,7.81 -0.96,10.5399 0.16,2.48 -0.01,4.68 -0.8,6.58 -0.62,1.48 -1.47,2.88 -2.84,4.08 -6.2299,5.4 -14.7799,9.51 -23.3399,11.54 -10.4,2.47 -20.6599,1.97 -26.7299,-1.77 -1.57,-0.97 -3.13,-2.58 -4.19,-4.96 -1.81,-4.1 -2.61,-10.76 -1.45,-17.14 1.44,-7.9499 5.62,-15.2799 12.99,-17.1499 1.8599,-0.54 3.8099,0.52 4.3499,2.37 0.55,1.86 -0.51,3.81 -2.37,4.36 -3.5199,1.19 -5.2199,4.71 -6.1199,8.5 -1.04,4.4099 -0.7,9.3799 0.42,12.9599 0.35,1.15 0.6,2.17 1.24,2.5 4.4399,2.33 11.6599,1.51 18.8499,-0.72 6.18,-1.9 12.31,-5.15 16.81,-9.31 z m 0.71,-0.69 c 0.01,0 0.01,0 0.01,-0.01 0,0.01 0,0.01 -0.01,0.01 z"
     id="path1546"
     style="stroke:none;stroke-width:0.2" /><path
     d="m 3553.9469,5387.0749 c 1.74,-0.84 3.84,-0.12 4.68,1.62 0.85,1.74 0.12,3.84 -1.62,4.69 -0.69,0.67 -0.96,1.72 -1.68,2.87 -1.27,2.03 -1.78,4.63 -2.68,7.2999 -0.43,1.27 -0.56,2.56 -0.74,3.81 -0.12,0.8 -0.95,1.45 -0.68,2.27 0.71,2.16 1.52,4.61 4.7,6.82 1.83,0.62 2.81,2.62 2.18,4.45 -0.63,1.83 -2.62,2.8 -4.46,2.18 -5.78,-0.28 -9.26,-2.31 -12.22,-4.42 -1.21,-0.87 -1.88,-2.04 -2.72,-3.11 -1.17,-1.49 -1.64,-3.23 -2.17,-4.97 -0.62,-2.06 -0.6,-4.26 -0.27,-6.43 0.17,-1.15 0.48,-2.3 0.98,-3.3899 1.01,-2.23 2.24,-4.41 4,-6.2 1.09,-1.11 2.07,-2.13 3.3,-2.97 3.6,-2.44 6.72,-4.13 9.4,-4.52 z"
     id="path1548"
     style="stroke:none;stroke-width:0.2" /><path
     d="m 3514.647,5367.8249 c 1.93,0.16 3.36,1.86 3.19,3.79 -0.16,1.93 -1.86,3.36 -3.79,3.19 -4.28,0.22 -8.83,0.64 -13.04,2.51 -2.83,1.25 -4.97,3.71 -6.7899,7.67 -1.13,2.22 -1.76,4.33 -2.29,6.25 -0.56,2.05 -0.74,3.88 -0.72,5.54 0.04,2.58 0.48,4.7099 1.59,6.1999 0.53,0.71 0.91,1.45 1.51,1.84 2.6499,1.76 6.3199,2.81 10.1199,3.2 4.56,0.45 9.07,0.45 12.32,-0.33 1.8,-0.69 3.83,0.22 4.52,2.02 0.7,1.81 -0.21,3.84 -2.02,4.53 -4.3,2.33 -11.03,4.2 -17.69,4.71 -4.94,0.38 -9.6599,-0.47 -13.5299,-1.97 -4.78,-2.02 -10.04,-7.12 -12.08,-14.98 -0.83,-3.1899 -1.02,-6.9299 -0.19,-11.0099 0.83,-4.1 2.73,-8.61 6.02,-13.44 3.84,-5.12 7.78,-8.35 12.2,-9.88 2.9799,-1.04 5.9299,-1.63 8.9699,-1.56 4.06,0.08 7.98,0.85 11.7,1.72 z"
     id="path1550"
     style="stroke:none;stroke-width:0.2" /><path
     d="m 3591.5168,5397.4349 c 0.12,0.11 0.49,0.21 0.67,0.32 0.48,0.3 1.05,0.54 1.66,0.78 3.37,1.38 8.02,2 13.37,2.52 4.7,0.4599 9.8899,0.7099 15.3099,0.9099 7.72,0.29 15.88,0.5 23.71,0.6 l 74.9598,0.64 c 1.93,-0.13 3.6,1.34 3.73,3.27 0.13,1.93 -1.33,3.6 -3.26,3.73 -7.1,0.87 -22.41,2.5 -37.5399,3.88 -16.69,1.52 -33.0599,2.73 -37.6699,3.01 -10.86,0.41 -22.35,0.98 -32.5299,0.48 -9.07,-0.45 -17.14,-1.72 -23.01,-3.77 -9.25,-3.23 -14,-8.82 -14.06,-15.5499 0.11,-14.65 9.95,-28.83 23.32,-34.45 12.17,-5.11 26.9099,-3.89 37.7399,10.55 1.25,1.48 1.07,3.69 -0.41,4.94 -1.48,1.25 -3.69,1.07 -4.94,-0.41 -8.87,-9.32 -19.2399,-9.45 -27.4899,-4.92 -8.36,4.59 -14.43,14.13 -13.62,23.73 0,-0.06 0.03,-0.17 0.06,-0.26 z m 0,0 c -0.05,-0.04 -0.06,-0.08 -0.01,-0.13 0.06,-0.05 0.03,0.03 0.01,0.13 z"
     id="path1552"
     style="stroke:none;stroke-width:0.2" /><path
     d="m 3794.8363,5437.6148 c 1.49,-1.24 3.7,-1.03 4.93,0.46 1.24,1.48 1.04,3.69 -0.45,4.93 -33.3899,29.19 -60.9799,30.42 -77.8098,21.56 -15.25,-8.03 -22.43,-24.58 -19.57,-39.88 2.49,-13.25 12.61,-25.8399 32.3,-31.3099 1.37,-0.37 2.89,-0.65 4.5599,-0.85 1.85,-0.23 3.9,-0.34 6.12,-0.38 16.29,-0.2 43.6399,4.44 71.5399,-3.85 13.1899,-3.92 26.5899,-10.73 38.8799,-22.87 27.6899,-26.7 12.6799,-67.67 -19.13,-70.7 -21.9699,-2.1 -50.5099,12.73 -79.7898,57.15 -1.03,1.64 -3.19,2.14 -4.83,1.11 -1.64,-1.03 -2.14,-3.19 -1.11,-4.83 30.0899,-50.56 62.2699,-66.74 86.6298,-65.38 42.7199,2.39 65.0598,56.7 29.1699,93.64 -14.2699,14.35 -29.8399,22.68 -45.3199,27.1899 -29.6599,8.65 -58.6998,3.17 -75.9998,3.05 l -7.16,0.51 c -10.5699,2.53 -17.5699,7.77 -21.1099,14.31 -6.27,11.56 -1.93,26.37 10.17,33.49 14.2399,8.38 37.7399,6.53 67.9798,-17.35 z"
     id="path1554"
     style="stroke:none;stroke-width:0.2" /><path
     d="m 3578.4168,4993.185 c -0.07,-1.94 1.44,-3.56 3.37,-3.63 1.94,-0.07 3.56,1.45 3.63,3.38 1.37,21.85 8.98,36.52 20.37,48.06 11.2399,11.41 26.0999,19.7 42.1499,28.84 21.3299,12.16 44.6199,25.69 65.3198,47.77 14.3,15.63 25.3299,32.45 33.3499,50.1399 8.42,18.55 13.64,37.98 16.58,57.57 4.47,29.83 3.6,60.06 0.41,88.53 -3.6,32.03 -10.2,61.76 -15.21,86.18 -0.34,1.8999 -2.16,3.1699 -4.07,2.8299 -1.9,-0.34 -3.17,-2.1699 -2.83,-4.0699 3.75,-24.39 8.66,-54.12 10.81,-85.96 1.86,-27.5 1.53,-56.55 -3.63,-85.11 -3.29,-18.17 -8.62,-36.09 -16.5599,-53.35 -7.48,-16.24 -17.19,-31.9499 -30.21,-46.4699 -18.8899,-21.58 -40.7299,-34.85 -60.4498,-47.2 -16.59,-10.38 -31.7599,-20.13 -43.0199,-32.8 -12.03,-13.53 -19.81,-30.28 -20.01,-54.71 z"
     id="path1556"
     style="stroke:none;stroke-width:0.2" /><path
     d="m 3718.8765,5354.3649 c 1.32,-1.41 3.54,-1.49 4.95,-0.17 1.41,1.32 1.49,3.54 0.17,4.96 0,0 -2.37,3.83 -8.11,8.88 -1.79,1.58 -3.89,3.08 -6.42,4.63 -2.09,1.3 -4.46,2.43 -7.11,3.47 -1.56,0.61 -3.23,1.19 -5.02,1.55 -3.9199,0.79 -8.2599,1.09 -12.9599,0.73 -5.8,-0.44 -11.77,-1.77 -18.52,-4.02 -1.92,-0.27 -3.26,-2.03 -3,-3.95 0.27,-1.92 2.04,-3.26 3.95,-3 4.34,-0.26 8.09,-0.99 11.82,-1.63 4.08,-0.7 7.63,-1.76 11.06,-2.63 1.98,-0.51 3.85,-1.04 5.66,-1.45 3.1399,-0.72 5.9899,-1.24 8.5499,-1.92 9.64,-2.59 14.98,-5.45 14.98,-5.45 z"
     id="path1558"
     style="stroke:none;stroke-width:0.2" /><path
     d="m 3713.5165,5211.5049 c 1.38,1.35 1.41,3.57 0.05,4.95 -1.35,1.39 -3.57,1.42 -4.95,0.06 -31.1499,-27.9 -55.1598,-14.69 -71.2198,12.87 -4.4,7.56 -8.3,16.08 -11.72,25.13 -3.26,8.64 -6.16,17.7 -8.43,26.91 -3.5099,14.25 -5.7499,28.71 -6.2099,42.05 -0.57,16.36 1.18,30.9 6.4399,40.81 0.99,1.66 0.44,3.81 -1.2199,4.8 -1.67,0.99 -3.82,0.44 -4.81,-1.22 -6.86,-10.37 -10.76,-26.16 -11.71,-44.29 -0.75,-14.22 0.33,-29.83 3.17,-45.23 1.85,-10.06 4.43,-20.02 7.84,-29.37 3.67,-10.11 8.2899,-19.5 13.5499,-27.68 4.04,-6.27 8.47,-11.84 13.28,-16.43 20.6899,-19.76 47.2399,-24.12 75.9398,6.64 z"
     id="path1560"
     style="stroke:none;stroke-width:0.2" /><path
     d="m 3619.4367,5365.2149 c 1.18,-1.54 3.38,-1.83 4.92,-0.65 1.53,1.18 1.82,3.38 0.64,4.92 0,0 0.01,3.15 -0.07,7.9 -0.02,1.33 0.4,2.68 0.39,4.22 0,1.02 -0.36,2.04 -0.35,3.17 0.02,1.21 -0.42,2.32 -0.23,3.67 0.26,1.8 0.15,3.44 0.93,5.46 1.29,1.45 1.16,3.66 -0.29,4.95 -1.44,1.29 -3.66,1.16 -4.95,-0.29 -3.4,-1.82 -5.2999,-3.96 -7.3399,-6.31 -1.06,-1.23 -1.61,-2.54 -2.27,-3.9 -1,-2.07 -1.39,-4.23 -1.48,-6.34 -0.05,-1.17 0.1,-2.32 0.39,-3.4 0.45,-1.72 0.9,-3.29 1.72,-4.68 0.93,-1.56 1.66,-2.84 2.72,-3.96 3.0999,-3.27 5.2699,-4.76 5.2699,-4.76 z"
     id="path1562"
     style="stroke:none;stroke-width:0.2" /><path
     d="m 3595.9568,5369.4149 c 0.79,-1.77 2.86,-2.56 4.63,-1.77 1.77,0.79 2.56,2.86 1.77,4.63 0,0 0.66,3.29 1.6,8.07 0.26,1.36 0.96,2.64 1.3,4.16 0.23,1 0.1,2.07 0.39,3.14 0.31,1.15 0.13,2.34 0.7,3.55 0.76,1.65 1.13,3.28 2.52,4.97 1.67,0.99 2.22,3.14 1.24,4.81 -0.99,1.6599 -3.14,2.2099 -4.81,1.2299 -3.97,-0.77 -6.49,-2.4099 -9.16,-4.2099 -1.41,-0.96 -2.31,-2.17 -3.32,-3.38 -1.54,-1.85 -2.46,-3.97 -3.04,-6.12 -0.32,-1.17 -0.43,-2.36 -0.4,-3.53 0.06,-1.81 0.17,-3.48 0.67,-5.07 0.56,-1.75 1.02,-3.19 1.81,-4.55 2.28,-3.9 4.1,-5.93 4.1,-5.93 z"
     id="path1564"
     style="stroke:none;stroke-width:0.2" /></g>&#10;</svg>
