<?xml version="1.0" encoding="UTF-8" standalone="no"?>
<svg
   width="3150.0813"
   height="2880.5837"
   viewBox="0 0 3150.0813 2880.5838"
   version="1.1"
   xml:space="preserve"
   style="clip-rule:evenodd;fill-rule:evenodd;stroke-linejoin:round;stroke-miterlimit:2"
   id="svg5353"
   xmlns="http://www.w3.org/2000/svg"
   xmlns:svg="http://www.w3.org/2000/svg"><defs
   id="defs5353" />&#10;    <g
   id="vectorly-UNI-rubik-2"
   transform="matrix(4.9999999,0,0,4.9999999,-16375.235,-76790.406)"
   style="stroke-width:0.2"><path
     d="m 3841.6516,15442.01 c -13.3599,-4.7 -35.0399,-12 -59.9398,-20.2 -73.2198,-24.3 -174.2096,-56.9 -174.2096,-56.9 -1.84,-0.6 -2.88,-2.5 -2.31,-4.4 0.57,-1.8 2.54,-2.8 4.39,-2.3 0,0 127.5397,38 200.5495,60.7 20.86,6.5 37.2899,11.8 45.0899,14.6 3.83,1.4 6.06,2.6 6.6,3 1.24,1 1.9,2.2 2.25,3.4 0.38,1.4 0.37,3.1 -0.61,4.9 -0.42,0.8 -1.85,2.5 -4.96,4.1 -4.07,2.1 -13.21,5.8 -25.8699,10.5 -30.03,11.1 -80.2598,28.4 -128.4797,44.5 -66.4799,22.2 -129.0997,42.2 -129.0997,42.2 -1.72,0.6 -3.57,0.5 -5.26,-0.1 0,0 -63.7398,-24.3 -127.3997,-48.8 -63.6698,-24.5 -127.2497,-49.2 -127.2497,-49.2 -2.5799,-1 -4.2499,-3.5 -4.1499,-6.3 0.11,-2.7 1.98,-5.1 4.6299,-5.9 l 276.9294,-77.6 c 1.86,-0.5 3.8,0.5 4.3399,2.4 0.54,1.8 -0.5199,3.8 -2.3799,4.3 0,0 -256.8594,77.7 -256.8594,77.7 23.4899,8.6 66.7598,24.6 109.9997,40.7 56.3199,20.9 112.5697,42 125.1797,46.7 12.56,-4 68.0098,-21.6 126.5797,-40.5 48.2299,-15.6 98.5998,-31.9 128.6997,-42.6 5.16,-1.8 9.71,-3.4 13.5399,-4.9 z m 11.53,3.8 c 0.21,0.2 0.44,0.4 0.69,0.6 0.1,0.1 0.43,0.7 0.58,0.4 0.21,-0.4 -0.34,-0.7 -1.27,-1 z"
     id="path4422"
     style="stroke:none;stroke-width:0.2" /><path
     d="m 3530.2224,15382.91 c -1.81,-0.7 -2.72,-2.7 -2.03,-4.5 0.68,-1.8 2.71,-2.7 4.51,-2 0,0 29.9399,9.2 67.8698,21.9 8.67,2.9 17.73,6.1 26.94,9.4 5.91,2.1 11.8999,4.2 17.8299,6.5 15.15,5.9 30.15,12.1 44.0099,17.9 36.8699,15.5 65.4499,28.3 65.4499,28.3 1.81,0.7 2.72,2.7 2.03,4.6 -0.68,1.8 -2.71,2.7 -4.52,2 0,0 -29.92,-9.3 -67.7999,-22.1 -14.2399,-4.8 -29.5999,-10.1 -44.8299,-15.7 -5.9599,-2.2 -11.8699,-4.6 -17.6999,-6.9 -9.07,-3.7 -17.95,-7.3 -26.3699,-10.9 -36.84,-15.6 -65.3899,-28.5 -65.3899,-28.5 z"
     id="path4424"
     style="stroke:none;stroke-width:0.2" /><path
     d="m 3432.5627,15411.41 c -1.81,-0.7 -2.72,-2.7 -2.03,-4.6 0.69,-1.8 2.72,-2.7 4.52,-2 0,0 29.9799,9.4 67.9398,22.2 8.69,2.9 17.7499,6.1 26.9599,9.4 5.93,2.1 11.92,4.3 17.85,6.6 15.1699,5.9 30.1799,12.2 44.0499,18.1 36.9099,15.6 65.5098,28.5 65.5098,28.5 1.8,0.7 2.71,2.7 2.02,4.5 -0.69,1.8 -2.72,2.7 -4.52,2.1 0,0 -29.9599,-9.4 -67.8798,-22.4 -14.25,-4.8 -29.62,-10.1 -44.8699,-15.8 -5.97,-2.3 -11.88,-4.6 -17.72,-7 -9.0799,-3.7 -17.9599,-7.3 -26.3899,-10.9 -36.8699,-15.7 -65.4398,-28.7 -65.4398,-28.7 z"
     id="path4426"
     style="stroke:none;stroke-width:0.2" /><path
     d="m 3854.4116,15441.61 c 0,-1.9 1.57,-3.5 3.51,-3.5 1.93,0 3.5,1.6 3.5,3.5 0,0 1.96,14.2 3.51,32.7 0.35,4.2 0.6,8.6 0.79,13.1 0.12,2.8 0.24,5.8 0.19,8.7 -0.11,7.5 -0.63,14.9 -1.16,21.8 -1.43,18.4 -3.33,32.7 -3.33,32.7 0,1.9 -1.57,3.5 -3.5,3.5 -1.94,0 -3.51,-1.6 -3.51,-3.5 0,0 -1.89,-14.3 -3.32,-32.7 -0.54,-6.9 -1.05,-14.3 -1.17,-21.8 -0.04,-2.9 0.08,-5.9 0.2,-8.7 0.18,-4.5 0.44,-8.9 0.79,-13.1 1.55,-18.5 3.5,-32.7 3.5,-32.7 z"
     id="path4428"
     style="stroke:none;stroke-width:0.2" /><path
     d="m 3879.1915,15460.81 c -1.7999,-0.7 -2.6899,-2.8 -1.9799,-4.6 0.7,-1.8 2.7399,-2.7 4.5399,-2 13.71,4.3 21.2,12.3 22.94,21.2 1.69,8.8 -2.3,19.2 -13.64,29.6 -6.58,6 -15.8399,12.1 -28.0999,17.6 -5.98,2.6 -12.73,5.1 -20.22,7.3 -9.2199,2.7 -19.5599,5.1 -31.0699,7 -13.9599,2.3 -29.5599,4 -46.9899,5.1 -1.92,0.2 -3.67,-1.1 -3.91,-3.1 -0.24,-1.9 1.12,-3.6 3.04,-3.9 16.81,-3.2 31.72,-6.9 45.0899,-10.6 10.77,-3 20.39,-6.1 29.06,-9.2 6.8399,-2.4 13.0299,-4.9 18.6399,-7.2 10.79,-4.6 19.29,-9.1 25.4699,-13.8 7.9,-6 12.27,-11.6 11.89,-17.4 -0.42,-6.3 -5.68,-11.7 -14.76,-16 z"
     id="path4430"
     style="stroke:none;stroke-width:0.2" /><path
     d="m 3895.9715,15514.71 c -0.23,-1.9 1.14,-3.6 3.06,-3.9 1.92,-0.2 3.67,1.2 3.9,3.1 0.89,3.5 0.88,12.8 -11.04,23.5 -3.36,3.1 -7.82,6.1 -13.6699,8.9 -3.21,1.6 -6.87,3 -11.05,4.2 -3.43,1 -7.22,1.8 -11.35,2.3 -5.16,0.8 -10.79,1.3 -17.07,1.5 -5.2699,0.1 -10.8099,0 -16.9199,-0.2 -1.93,0.1 -3.63,-1.3 -3.8,-3.2 -0.18,-1.9 1.25,-3.6 3.17,-3.8 6.85,-1.5 12.87,-3.2 18.5399,-4.7 6.76,-1.9 12.59,-3.8 17.87,-5.5 3.32,-1.1 6.36,-2.1 9.19,-3 5.22,-1.7 9.6,-3.2 13.2099,-4.8 6.95,-3.2 11.14,-6.1 13.35,-9.1 1.7,-2.4 2.58,-4.1 2.61,-5.3 z"
     id="path4432"
     style="stroke:none;stroke-width:0.2" /><path
     d="m 3848.8316,15557.41 c 1.81,-0.7 3.83,0.2 4.52,2 0.68,1.8 -0.24,3.9 -2.05,4.5 0,0 -34.5899,15.2 -79.0998,33.6 -10.18,4.2 -20.8999,8.5 -31.8499,12.8 -7.04,2.8 -14.17,5.6 -21.35,8.2 -18.3499,6.8 -36.8399,13.2 -53.9598,19.1 -45.5499,15.6 -81.4998,27.1 -81.4998,27.1 -1.81,0.7 -3.84,-0.2 -4.52,-2 -0.68,-1.8 0.24,-3.8 2.05,-4.5 0,0 34.6099,-15.1 79.1498,-33.4 16.75,-6.9 34.8699,-14.2 53.1499,-21.2 7.1499,-2.8 14.3599,-5.4 21.4899,-7.9 11.08,-4 21.98,-7.8 32.4099,-11.4 45.5899,-15.5 81.5598,-26.9 81.5598,-26.9 z"
     id="path4434"
     style="stroke:none;stroke-width:0.2" /><path
     d="m 3322.4829,15552.61 c 1.5,0.8 3.98,2 6.43,3.1 11.06,4.9 30.7899,12.8 54.2399,22.4 11.41,4.6 23.6799,9.7 36.2699,15.1 19.9599,8.4 40.7399,17.3 60.2698,25.7 49.0699,21.2 90.1798,39.3 90.1798,39.3 1.8,0.7 2.68,2.7 1.97,4.5 -0.71,1.8 -2.75,2.7 -4.55,2 0,0 -51.4199,-18 -107.8697,-39.4 -24.05,-9.1 -48.9999,-18.8 -71.2798,-27.9 -9.69,-4 -18.83,-7.9 -27.2,-11.6 -18.0499,-7.8 -32.4699,-14.5 -40.5399,-18.6 -3.76,-2 -6.2999,-3.4 -7.4599,-4.3 -1.55,-1.2 -2.31,-2.4 -2.64,-3.1 -0.36,-0.7 -0.88,-2.2 -1.1,-4.4 -0.4,-3.9 -0.46,-11.7 -0.2,-21.5 0.88,-33.7 4.92,-92 4.92,-92 0.07,-2 1.6999,-3.5 3.6299,-3.4 1.93,0.1 3.44,1.7 3.37,3.6 0,0 -0.28,46.5 0.31,80.4 0.2,11.2 0.47,21 0.94,27.1 0.07,1.1 0.19,2.1 0.31,3 z"
     id="path4436"
     style="stroke:none;stroke-width:0.2" /><path
     d="m 3654.7221,15373.01 c 1.82,-0.6 3.83,0.3 4.47,2.1 0.65,1.9 -0.31,3.9 -2.13,4.5 0,0 -42.9099,17 -94.2198,36.6 -20.4299,7.8 -42.1699,16 -63.0798,23.7 -14.78,5.4 -29.1299,10.5 -42.2899,15 -28.2899,9.8 -50.8999,17.2 -59.7899,20.1 l -10.3299,112.2 c -0.12,1.9 -1.79,3.4 -3.72,3.3 -1.93,-0.1 -3.4,-1.8 -3.27,-3.7 l 4.2,-117.3 c 0.17,-2.7 1.95,-5 4.51,-6 0,0 26.5799,-10.3 63.1098,-23.5 13.09,-4.7 27.4799,-9.8 42.3699,-14.9 21.06,-7.2 43.1199,-14.5 63.8998,-21.3 52.2099,-17 96.2698,-30.8 96.2698,-30.8 z"
     id="path4438"
     style="stroke:none;stroke-width:0.2" /><path
     d="m 3742.3419,15411.61 c 1.83,-0.7 3.82,0.3 4.45,2.1 0.62,1.9 -0.35,3.9 -2.18,4.5 0,0 -42.4299,16.3 -93.1598,35 -20.1899,7.5 -41.6799,15.3 -62.3398,22.6 -14.61,5.2 -28.79,10.2 -41.7799,14.5 -27.38,9.2 -49.3699,16.2 -58.5099,19 l -2.03,118.1 c 0.02,1.9 -1.53,3.5 -3.47,3.5 -1.93,0.1 -3.52,-1.5 -3.54,-3.4 l -4.6799,-123.2 c -0.03,-3 1.8499,-5.6 4.6699,-6.6 0,0 26.29,-9.9 62.4099,-22.4 12.95,-4.5 27.1799,-9.3 41.8999,-14.2 20.8199,-6.8 42.6199,-13.8 63.1498,-20.2 51.5899,-16.2 95.1098,-29.3 95.1098,-29.3 z"
     id="path4440"
     style="stroke:none;stroke-width:0.2" /><path
     d="m 3569.1223,15538.61 c -0.05,-1.9 1.48,-3.6 3.41,-3.6 1.93,-0.1 3.54,1.5 3.59,3.4 0,0 2.32,14.5 4.35,33.3 0.46,4.3 0.83,8.8 1.14,13.4 0.19,2.9 0.38,5.9 0.41,8.9 0.08,7.6 -0.24,15.3 -0.6,22.3 -0.95,18.9 -2.48,33.5 -2.48,33.5 0.05,2 -1.48,3.6 -3.41,3.6 -1.93,0.1 -3.54,-1.5 -3.59,-3.4 0,0 -2.27,-14.5 -4.17,-33.3 -0.72,-7.1 -1.42,-14.7 -1.73,-22.3 -0.12,-3 -0.08,-6 -0.04,-8.9 0.07,-4.6 0.22,-9.1 0.46,-13.4 1.07,-18.9 2.66,-33.5 2.66,-33.5 z"
     id="path4442"
     style="stroke:none;stroke-width:0.2" /><path
     d="m 3679.372,15502.91 c -0.03,-1.9 1.51,-3.5 3.45,-3.5 1.93,-0.1 3.53,1.5 3.56,3.4 0,0 2.2,15.7 4.08,36 0.43,4.6 0.76,9.4 1.03,14.3 0.17,3.2 0.34,6.4 0.34,9.6 0.02,8.3 -0.36,16.5 -0.78,24.1 -1.1,20.3 -2.74,36 -2.74,36 0.03,1.9 -1.51,3.5 -3.45,3.6 -1.93,0 -3.53,-1.5 -3.56,-3.5 0,0 -2.15,-15.7 -3.9,-35.9 -0.6599,-7.6 -1.3099,-15.8 -1.5499,-24 -0.1,-3.2 -0.04,-6.4 0.03,-9.6 0.11,-5 0.29,-9.8 0.57,-14.4 1.2199,-20.3 2.9199,-36.1 2.9199,-36.1 z"
     id="path4444"
     style="stroke:none;stroke-width:0.2" /><path
     d="m 3774.7618,15471.31 c -0.03,-1.9 1.51,-3.5 3.45,-3.6 1.93,0 3.53,1.6 3.56,3.5 0,0 2.2,15.1 4.07,34.6 0.42,4.5 0.76,9.2 1.02,13.9 0.17,3.1 0.34,6.2 0.34,9.3 0.02,7.9 -0.37,15.8 -0.78,23.1 -1.11,19.6 -2.76,34.8 -2.76,34.8 0.03,2 -1.52,3.5 -3.45,3.6 -1.93,0 -3.53,-1.5 -3.56,-3.5 0,0 -2.14,-15.1 -3.89,-34.6 -0.66,-7.3 -1.3,-15.2 -1.54,-23.2 -0.1,-3.1 -0.03,-6.2 0.04,-9.2 0.11,-4.8 0.29,-9.5 0.57,-13.9 1.22,-19.6 2.93,-34.8 2.93,-34.8 z"
     id="path4446"
     style="stroke:none;stroke-width:0.2" /><path
     d="m 3836.2217,15564.61 c -0.04,-1.9 1.49,-3.5 3.4299,-3.6 1.93,0 3.53,1.5 3.57,3.5 0,0 2.14,9.2 3.97,21.4 0.42,2.7 0.73,5.6 0.99,8.6 0.16,1.9 0.32,3.8 0.31,5.7 -0.01,4.9 -0.42,9.8 -0.85,14.3 -1.18,12.3 -2.86,21.6 -2.86,21.6 0.04,1.9 -1.49,3.5 -3.43,3.6 -1.93,0 -3.5399,-1.5 -3.5799,-3.4 0,0 -2.08,-9.2 -3.79,-21.5 -0.63,-4.5 -1.25,-9.3 -1.47,-14.3 -0.09,-1.9 -0.02,-3.8 0.06,-5.7 0.13,-3 0.32,-5.8 0.61,-8.6 1.3,-12.3 3.04,-21.6 3.04,-21.6 z"
     id="path4448"
     style="stroke:none;stroke-width:0.2" /><path
     d="m 3838.2817,15647.21 c 1.4899,-1.2 3.6999,-1 4.9299,0.5 1.23,1.5 1.01,3.7 -0.49,4.9 0,0 -67.1598,57.7 -117.2497,98.4 -20.4699,16.6 -38.1599,30.3 -47.2099,36.3 -3.8199,2.6 -6.6399,3.9 -7.9899,4.2 -0.82,0.2 -2.34,0.4 -4.52,0.3 -3.49,-0.2 -10.4,-1.3 -19.94,-3.1 -19.1299,-3.6 -49.3799,-10.1 -83.8298,-18.3 -30.5699,-7.2 -64.4298,-15.8 -96.9297,-24.1 -76.2698,-19.5 -144.8797,-38.1 -144.8797,-38.1 -1.88,-0.4 -3.03,-2.3 -2.57,-4.2 0.47,-1.9 2.37,-3.1 4.24,-2.6 0,0 96.5198,21.4 187.9696,41.5 26.2799,5.8 52.1298,11.5 75.1298,16.6 19.0799,4.2 36.1999,8.1 49.9999,11 12.0399,2.6 21.5199,4.6 27.5399,5.5 2.39,0.4 5.02,0.6 5.02,0.6 0,0 -0.69,0.1 -0.91,0.2 -0.07,0 -0.31,0 -0.26,0.1 0.84,1.7 4.84,-2.9 8.95,-5.7 9.8099,-6.7 24.8499,-17.9 41.9599,-30.8 51.3998,-38.7 121.0397,-93.2 121.0397,-93.2 z"
     id="path4450"
     style="stroke:none;stroke-width:0.2" /><path
     d="m 3338.7029,15565.91 c 1.57,-1.2 3.76,-0.8 4.89,0.8 1.12,1.6 0.76,3.7 -0.81,4.9 0,0 -15.73,12.6 -15.73,12.6 7.21,1.5 17.72,3.8 30.1499,6.7 12.08,2.8 25.98,6.1 40.3799,9.8 6.36,1.6 12.8,3.4 19.23,5.3 9.71,2.8 19.3699,5.7 28.6799,8.5 38.9099,12 71.3798,22.6 71.3798,22.6 1.87,0.5 2.98,2.5 2.48,4.3 -0.49,1.9 -2.42,3 -4.2899,2.5 0,0 -33.44,-6.9 -73.1499,-15.9 -9.4899,-2.2 -19.3299,-4.5 -29.1299,-6.9 -6.5,-1.6 -12.98,-3.3 -19.3099,-5 -14.35,-3.9 -28.03,-8 -39.9099,-11.6 -23.42,-7.1 -39.6699,-12.5 -39.6699,-12.5 -1.94,-0.5 -3.41,-2.1 -3.77,-4.1 -0.36,-2 0.45,-4 2.09,-5.1 z"
     id="path4452"
     style="stroke:none;stroke-width:0.2" /><path
     d="m 3342.1429,15565.51 176.7595,67.7 c 3.88,1.5 5.88,5.8 4.56,9.8 -1.31,4 -5.49,6.2 -9.5299,5.2 0,0 -16.59,-4.3 -40.1499,-10.7 -11.96,-3.3 -25.71,-7.2 -39.9999,-11.3 -55.6399,-15.9 -119.6897,-35 -119.6897,-35 -1.65,-0.4 -2.9,-1.8 -3.2,-3.4 -0.31,-1.7 0.38,-3.4 1.77,-4.4 l 26.0399,-17.5 c 1,-0.7 2.31,-0.9 3.44,-0.4 z m 74.0198,41.2 c -29.0299,-12.7 -56.1499,-25 -74.9998,-33.9 0,0 -15.83,12 -15.83,12 16.55,4 53.5999,12.8 90.8298,21.9 z"
     id="path4454"
     style="stroke:none;stroke-width:0.2" /><path
     d="m 3311.733,15587.21 c -0.1,-2 1.39,-3.6 3.3199,-3.7 1.93,-0.1 3.58,1.4 3.68,3.3 0,0 2.71,14.4 5.23,33.1 0.58,4.3 1.07,8.7 1.49,13.3 0.27,2.9 0.54,5.9 0.65,8.8 0.28,7.7 0.16,15.3 0,22.3 -0.45,18.9 -1.59,33.5 -1.59,33.5 0.1,1.9 -1.39,3.5 -3.32,3.6 -1.93,0.1 -3.58,-1.3 -3.68,-3.3 0,0 -2.65,-14.4 -5.0599,-33.1 -0.9,-7 -1.8,-14.5 -2.31,-22.1 -0.21,-3 -0.24,-6 -0.27,-8.9 -0.06,-4.6 -0.03,-9.1 0.1,-13.4 0.57,-18.8 1.76,-33.4 1.76,-33.4 z"
     id="path4458"
     style="stroke:none;stroke-width:0.2" /><path
     d="m 3275.093,15610.61 c -0.31,-1.9 0.98,-3.7 2.9,-4 1.9,-0.3 3.71,1 4.02,2.9 1.78,8.1 10.71,23.8 45.1699,36.5 9.35,3.4 20.52,6.6 33.8699,9.6 7.13,1.6 14.84,3.3 23.24,4.9 10.6999,2 22.4499,4 35.4499,5.8 16.1099,2.3 33.9699,4.4 54.0299,5.8 1.9299,0.1 3.4699,1.7 3.4299,3.6 -0.04,2 -1.64,3.5 -3.5699,3.4 -14.08,0.5 -27.12,0.7 -39.2999,0.5 -14.4,-0.3 -27.49,-1.1 -39.43,-2.3 -9.4799,-0.9 -18.2099,-2.2 -26.2399,-3.7 -9.59,-1.9 -18.1799,-4.2 -25.8699,-6.6 -13.6,-4.4 -24.43,-9.3 -33.0699,-14.3 -28.02,-16.4 -33.74,-33.6 -34.63,-42.1 z"
     id="path4460"
     style="stroke:none;stroke-width:0.2" /><path
     d="m 3426.0627,15617.41 c 0.06,-2 1.67,-3.5 3.61,-3.4 1.93,0 3.45,1.6 3.4,3.6 0,0 1.52,14.8 2.4999,33.9 0.23,4.4 0.35,9 0.4,13.6 0.03,3 0.06,6 -0.07,9 -0.35,7.8 -1.0899,15.5 -1.8299,22.6 -1.99,19 -4.32,33.7 -4.32,33.7 -0.06,2 -1.68,3.5 -3.61,3.4 -1.93,0 -3.46,-1.6 -3.4,-3.6 0,0 -1.46,-14.8 -2.33,-33.9 -0.32,-7.2 -0.61,-14.9 -0.5,-22.6 0.04,-3 0.25,-6.1 0.46,-9 0.32,-4.7 0.71,-9.2 1.19,-13.6 2.11,-19 4.5,-33.7 4.5,-33.7 z"
     id="path4462"
     style="stroke:none;stroke-width:0.2" /><path
     d="m 3543.3924,15652.81 c 0.03,-1.9 1.62,-3.5 3.56,-3.4 1.93,0 3.48,1.6 3.45,3.5 0,0 1.75,13.8 3.04,31.8 0.3,4 0.49,8.3 0.62,12.7 0.08,2.8 0.15,5.6 0.07,8.4 -0.23,7.3 -0.84,14.5 -1.47,21.1 -1.69,17.9 -3.79,31.7 -3.79,31.7 -0.03,1.9 -1.62,3.5 -3.55,3.5 -1.94,-0.1 -3.48,-1.7 -3.46,-3.6 0,0 -1.69,-13.8 -2.86,-31.8 -0.44,-6.6 -0.85,-13.9 -0.86,-21.1 -0.01,-2.8 0.15,-5.7 0.31,-8.5 0.25,-4.3 0.57,-8.6 0.98,-12.6 1.81,-17.9 3.96,-31.7 3.96,-31.7 z"
     id="path4464"
     style="stroke:none;stroke-width:0.2" /><path
     d="m 3667.3321,15660.81 c 0,0 0,0 0,0 0.26,0.5 1.19,-0.7 2.07,-1.3 3.03,-2 7.52,-5.4 13.1299,-9.5 7.17,-5.3 16.01,-11.7 25.34,-18.4 10.6699,-7.7 22.0099,-15.6 32.1299,-22.7 18.0999,-12.7 32.3299,-22.5 32.3299,-22.5 1.52,-1.2 3.72,-1 4.93,0.5 1.2,1.5 0.94,3.7 -0.57,4.9 0,0 -19.3799,17.6 -41.5399,36.5 -9.44,8 -19.3199,16.3 -28.4599,23.4 -7.07,5.6 -13.72,10.4 -19.15,14.2 -8.07,5.6 -14.0699,8.8 -15.9199,9.3 -1.34,0.3 -3.65,0.5 -6.71,0.2 -4.36,-0.4 -10.91,-1.5 -18.29,-3.1 -21.6299,-4.6 -50.5398,-12.9 -50.5398,-12.9 -1.89,-0.4 -3.09,-2.3 -2.68,-4.2 0.41,-1.8 2.28,-3 4.1699,-2.6 0,0 29.4,4.4 51.1599,6.8 8.65,1 15.85,1.9 18.6,1.4 z m 0,0 c -0.08,-0.2 0.36,-0.1 0.48,-0.1 -0.14,0 -0.3,0.1 -0.48,0.1 z"
     id="path4466"
     style="stroke:none;stroke-width:0.2" /><path
     d="m 3774.5118,15589.11 c 0,0 -96.6498,76.7 -104.7997,78.8 -8.15,2.2 -72.8799,-11.9 -72.8799,-11.9 z"
     id="path4468"
     style="stroke:none;stroke-width:0.2" /><path
     d="m 3789.7018,15582.11 c -0.03,-1.9 1.51,-3.5 3.44,-3.5 1.93,-0.1 3.54,1.5 3.57,3.4 0,0 2.2199,13.6 4.1199,31.3 0.43,4.1 0.77,8.3 1.04,12.6 0.17,2.7 0.34,5.5 0.35,8.3 0.03,7.2 -0.35,14.4 -0.75,21 -1.09,17.8 -2.72,31.5 -2.72,31.5 0.04,1.9 -1.4999,3.5 -3.4299,3.5 -1.94,0.1 -3.54,-1.5 -3.57,-3.4 0,0 -2.16,-13.6 -3.94,-31.3 -0.66,-6.6 -1.32,-13.8 -1.57,-20.9 -0.1,-2.8 -0.04,-5.7 0.02,-8.4 0.11,-4.3 0.28,-8.6 0.56,-12.6 1.2,-17.8 2.88,-31.5 2.88,-31.5 z"
     id="path4470"
     style="stroke:none;stroke-width:0.2" /><path
     d="m 3734.8619,15617.41 c 0.03,-1.9 1.63,-3.5 3.57,-3.4 1.93,0 3.47,1.6 3.44,3.5 0,0 1.72,13.1 2.98,30 0.28,3.8 0.47,7.8 0.58,11.9 0.08,2.7 0.15,5.4 0.06,8 -0.24,6.9 -0.87,13.6 -1.52,19.9 -1.72,16.9 -3.84,29.8 -3.84,29.8 -0.04,2 -1.64,3.5 -3.57,3.5 -1.93,0 -3.48,-1.6 -3.44,-3.6 0,0 -1.67,-13 -2.8,-29.9 -0.43,-6.3 -0.82,-13.1 -0.82,-20 0,-2.6 0.16,-5.3 0.33,-7.9 0.26,-4.1 0.59,-8.1 1.01,-12 1.84,-16.8 4.02,-29.8 4.02,-29.8 z"
     id="path4472"
     style="stroke:none;stroke-width:0.2" /><path
     d="m 3667.6721,15667.21 c 0.06,-2 1.68,-3.5 3.62,-3.4 1.93,0 3.45,1.7 3.39,3.6 0,0 1.47,15.4 2.3899,35.2 0.21,4.5 0.32,9.2 0.35,14 0.02,3.1 0.04,6.3 -0.1,9.4 -0.3699,8 -1.1399,16 -1.9099,23.4 -2.05,19.7 -4.43,35 -4.43,35 -0.06,1.9 -1.68,3.4 -3.62,3.3 -1.93,0 -3.45,-1.6 -3.39,-3.6 0,0 -1.41,-15.3 -2.21,-35.2 -0.3,-7.4 -0.56,-15.4 -0.43,-23.4 0.06,-3.1 0.28,-6.3 0.49,-9.3 0.34,-4.9 0.75,-9.6 1.24,-14.1 2.18,-19.7 4.61,-34.9 4.61,-34.9 z"
     id="path4474"
     style="stroke:none;stroke-width:0.2" /><path
     d="m 3840.9716,15675.71 c -0.81,-0.7 -1.67,-1.3 -2.54,-1.9 -6.4199,-4.6 -13.6499,-9.2 -13.6499,-9.2 -1.72,-0.9 -2.4,-3 -1.52,-4.7 0.89,-1.8 3,-2.4 4.72,-1.6 0,0 8.23,3.4 15.5599,7 4.53,2.2 8.59,4.7 10.66,6.5 1.98,1.6 3.51,5.8 -1.17,10.6 -2.7,2.7 -9.87,7.6 -19.5799,13.1 -5.18,3 -11.08,6.2 -17.45,9.3 -5.74,2.8 -11.85,5.4 -17.97,7.9 -9.5199,4 -19.0599,7.6 -27.4799,10.7 -15.9799,5.9 -27.7999,9.8 -27.7999,9.8 -1.77,0.7 -3.84,-0.1 -4.61,-1.9 -0.77,-1.7 0.04,-3.8 1.82,-4.6 0,0 15.48,-8.5 34.8899,-18.8 7.44,-3.9 15.39,-8.2 23.3399,-12.2 5.34,-2.7 10.67,-5.2 15.76,-7.6 9.22,-4.2 17.6,-7.8 23.61,-10.7 1.2399,-0.7 2.3799,-1.2 3.4099,-1.7 z"
     id="path4476"
     style="stroke:none;stroke-width:0.2" /><path
     d="m 3826.3817,15661.51 c 0,0 18.9599,9.7 23.7199,14.4 4.75,4.7 -108.7397,54 -108.7397,54 31.9699,-25.3 66.3198,-53.2 85.0198,-68.4 z"
     id="path4478"
     style="stroke:none;stroke-width:0.2" /><path
     d="m 3317.9229,15798.51 c 19.56,9.3 119.8697,54.9 195.2596,87.4 27.8699,11.9 52.2898,22.2 67.9598,27.9 6.53,2.4 11.35,4 14.06,4.4 3.9999,-1.1 17.3199,-7.4 35.8999,-16.1 23.9699,-11.3 56.1298,-26.9 88.2197,-42.5 45.8299,-22.4 91.4998,-45 112.6398,-56.3 5.3,-2.8 8.9399,-4.6 10.1899,-5.4 0.24,-1.1 0.85,-4.2 1.16,-7 1,-9.2 1.68,-23.9 2.18,-39.6 1.1,-34.8 1.25,-75 1.25,-75 -0.03,-1.9 1.52,-3.5 3.45,-3.6 1.94,0 3.53,1.6 3.56,3.5 0,0 1.91,63.8 0.91,100.4 -0.3,10.8 -0.9,19.3 -1.78,23.4 -0.51,2.4 -1.38,3.9 -2.02,4.7 -0.73,0.9 -5.46,4.1 -13.4399,8.6 -20.91,11.8 -66.0699,35.8 -111.6198,59.2 -31.8799,16.3 -63.9498,32.4 -87.8898,43.9 -21.5799,10.4 -36.9599,17 -40.3299,17.7 -1.7999,0.3 -6.3399,-0.1 -12.9199,-2.2 -14.42,-4.7 -43.5099,-17 -77.5198,-32.4 -76.9798,-34.7 -179.5496,-84.9 -194.9795,-92.8 -1.16,-0.6 -2.66,-1.9 -3.43,-4.5 -0.9,-3.1 -1.23,-9.8 -0.95,-18.3 0.89,-27.3 6.7499,-74.9 6.7499,-74.9 0.21,-1.9 1.94,-3.3 3.86,-3.1 1.92,0.2 3.32,1.9 3.11,3.9 0,0 -2.12,23.2 -3.44,46.4 -0.79,14.1 -1.3,28.2 -0.81,36.9 0.12,2.1 0.47,4.3 0.67,5.4 z m 276.6794,119.9 c 0,0 -0.01,0 -0.01,0 z"
     id="path4480"
     style="stroke:none;stroke-width:0.2" /><path
     d="m 3393.7128,15723.31 c 0.02,-1.9 1.5999,-3.5 3.5399,-3.5 1.93,0.1 3.49,1.6 3.47,3.6 0,0 1.84,13.5 3.25,31.1 0.32,4 0.54,8.2 0.69,12.5 0.1,2.7 0.2,5.5 0.13,8.3 -0.17,7.1 -0.75,14.2 -1.33,20.7 -1.58,17.6 -3.58,31.1 -3.58,31.1 -0.02,2 -1.6,3.5 -3.54,3.5 -1.9299,0 -3.4899,-1.6 -3.4699,-3.5 0,0 -1.79,-13.6 -3.07,-31.2 -0.49,-6.5 -0.94,-13.6 -1,-20.7 -0.02,-2.8 0.12,-5.6 0.26,-8.3 0.22,-4.3 0.51,-8.5 0.9,-12.5 1.69,-17.6 3.75,-31.1 3.75,-31.1 z"
     id="path4482"
     style="stroke:none;stroke-width:0.2" /><path
     d="m 3592.7123,15795.11 53.3698,-17.3 c 1.81,-0.7 3.83,0.2 4.51,2.1 0.68,1.8 -0.24,3.8 -2.05,4.5 l -52.6498,22.6 c -1.33,0.6 -5.48,0.7 -11.68,-1 -8.55,-2.2 -23.21,-7.2 -40.4099,-13.8 -8.24,-3.2 -17.08,-6.7 -26.06,-10.6 -14.2099,-6.2 -28.8399,-13 -42.5498,-19.6 -34.44,-16.5 -62.8199,-31.5 -62.8199,-31.5 -1.77,-0.7 -2.55,-2.8 -1.76,-4.6 0.8,-1.8 2.88,-2.5 4.64,-1.7 0,0 23.9899,9.1 54.5099,21 11.4699,4.5 23.8499,9.4 36.1799,14.4 12.2999,5 24.5799,10 35.8799,14.8 13.79,5.9 26.0899,11.4 35.5499,15.2 7.18,2.9 12.5,5 15.27,5.5 0.02,0 0.05,0 0.07,0 z m -1.21,0.4 c -0.02,0 -0.04,0 -0.05,0 z"
     id="path4484"
     style="stroke:none;stroke-width:0.2" /><path
     d="m 3647.3121,15781.11 c 0,0 -45.0599,16.8 -53.6398,20.2 -8.58,3.3 -179.8596,-73.9 -179.8596,-73.9 79.4498,19.1 187.9895,44.8 233.4994,53.7 z"
     id="path4486"
     style="stroke:none;stroke-width:0.2" /><path
     d="m 3494.2425,15764.31 c 0.06,-2 1.67,-3.5 3.6,-3.4 1.94,0 3.46,1.6 3.41,3.6 0,0 1.5,15.9 2.46,36.4 0.22,4.7 0.34,9.6 0.39,14.6 0.03,3.2 0.05,6.5 -0.09,9.7 -0.35,8.3 -1.1,16.6 -1.85,24.3 -2.01,20.4 -4.36,36.3 -4.36,36.3 -0.05,1.9 -1.67,3.4 -3.6,3.4 -1.94,-0.1 -3.46,-1.7 -3.41,-3.6 0,0 -1.44,-16 -2.29,-36.5 -0.31,-7.7 -0.59,-16 -0.47,-24.3 0.04,-3.3 0.26,-6.5 0.47,-9.7 0.32,-5 0.72,-9.9 1.21,-14.5 2.13,-20.5 4.53,-36.3 4.53,-36.3 z"
     id="path4488"
     style="stroke:none;stroke-width:0.2" /><path
     d="m 3590.1623,15801.31 c 0.01,-2 1.58,-3.5 3.51,-3.5 1.94,0 3.5099,1.5 3.5099,3.5 0,0 1.93,16.3 3.46,37.4 0.35,4.8 0.6,9.8 0.78,15 0.12,3.3 0.24,6.6 0.19,10 -0.13,8.5 -0.65,17 -1.19,24.9 -1.45,21.1 -3.36,37.5 -3.36,37.5 -0.01,1.9 -1.5799,3.5 -3.5099,3.5 -1.94,0 -3.51,-1.6 -3.5,-3.5 0,0 -1.89,-16.4 -3.29,-37.5 -0.53,-7.9 -1.04,-16.4 -1.14,-24.9 -0.05,-3.4 0.08,-6.7 0.2,-10 0.19,-5.2 0.45,-10.2 0.81,-15 1.57,-21.1 3.53,-37.4 3.53,-37.4 z"
     id="path4490"
     style="stroke:none;stroke-width:0.2" /><path
     d="m 3693.662,15764.31 c 0.06,-2 1.67,-3.5 3.6,-3.4 1.94,0 3.46,1.6 3.41,3.6 0,0 1.56,14 2.61,32.1 0.24,4.2 0.37,8.5 0.44,12.9 0.04,2.8 0.08,5.7 -0.05,8.5 -0.32,7.4 -1.03,14.6 -1.76,21.4 -1.93,18.1 -4.21,32 -4.21,32 -0.06,1.9 -1.67,3.4 -3.6,3.4 -1.94,-0.1 -3.46,-1.7 -3.41,-3.6 0,0 -1.51,-14 -2.43,-32.2 -0.35,-6.8 -0.66,-14.1 -0.57,-21.4 0.03,-2.9 0.23,-5.7 0.43,-8.6 0.31,-4.4 0.68,-8.7 1.15,-12.8 2.05,-18 4.39,-31.9 4.39,-31.9 z"
     id="path4492"
     style="stroke:none;stroke-width:0.2" /><path
     d="m 3776.4018,15712.71 c 0.07,-2 1.69,-3.5 3.62,-3.4 1.93,0 3.45,1.7 3.39,3.6 0,0 1.41,16.6 2.25,38 0.2,4.9 0.29,10 0.3,15.2 0.01,3.3 0.02,6.7 -0.14,10.1 -0.4,8.7 -1.19,17.3 -1.99,25.2 -2.13,21.3 -4.57,37.8 -4.57,37.8 -0.06,2 -1.68,3.5 -3.62,3.4 -1.93,0 -3.45,-1.7 -3.38,-3.6 0,0 -1.36,-16.6 -2.08,-38 -0.28,-8 -0.51,-16.7 -0.34,-25.3 0.07,-3.4 0.3,-6.8 0.52,-10.1 0.36,-5.2 0.79,-10.3 1.3,-15.2 2.25,-21.3 4.74,-37.7 4.74,-37.7 z"
     id="path4494"
     style="stroke:none;stroke-width:0.2" /></g>&#10;</svg>
