<?xml version="1.0" encoding="UTF-8" standalone="no"?>
<svg
   width="2502.1023"
   height="2502.0989"
   viewBox="0 0 2502.1023 2502.0989"
   version="1.1"
   xml:space="preserve"
   style="clip-rule:evenodd;fill-rule:evenodd;stroke-linejoin:round;stroke-miterlimit:2"
   id="svg5353"
   xmlns="http://www.w3.org/2000/svg"
   xmlns:svg="http://www.w3.org/2000/svg"><defs
   id="defs5353" />&#10;    &#10;<path
   id="vectorly-UNI-arrow-4"
   style="fill:#000000;stroke-width:0.999995"
   d="m 1235.4355,0.1842875 c -37.794,-3.48 -87.633,40.9899995 -210.466,247.7000025 -172.45703,290.23 -204.63703,394.46 -155.40103,398.4 52.574,4.21 199.53503,-258.17 302.93203,-376.68 0,0 -8.345,308.32 -10.781,398.75 -2.536,93.79 -7.028,290.49 -7.581,485.78001 -195.28703,0.55 -391.99503,5.05 -485.78203,7.58 -90.43,2.44 -398.739,10.78 -398.739,10.78 118.513,-103.4 380.887,-250.36001 376.68,-302.93001 -3.941,-49.24 -108.181,-17.06 -398.404,155.40001 -254.4200037,151.18 -263.067004,191.78 -239.0500037,235.45 49.6529997,90.3 503.9210037,404.17 553.1710037,392.73 31.39,-20.25 33.686,-62.2 -122.691,-204.15 l -161.926,-146.99 732.15503,-28.03 c 58.607,-2.24 99.326,-3.58 144.447,-5.13 -0.799,219.08 4.839,458.39 7.72,564.89 2.436,90.44 10.781,398.75 10.781,398.75 -103.397,-118.52 -250.35803,-380.89 -302.93203,-376.68 -49.236,3.94 -17.056,108.18 155.40103,398.4 151.182,254.42 191.78,263.07 235.453,239.05 90.295,-49.66 404.164,-503.92 392.734,-553.17 -20.255,-31.39 -62.199,-33.69 -204.159,122.69 l -146.983,161.93 -28.037,-732.16 c -3.518,-91.95 -5.635,-155.94 -8.047,-226.62 70.679,2.41 134.677,4.53 226.619,8.05 l 732.16,28.03 -161.923,146.99 c -156.38,141.95 -154.089,183.9 -122.703,204.15 49.254,11.44 503.524,-302.43 553.18,-392.73 4.506,-8.19 7.853,-16.27 8.655,-24.98 3.475,-37.8 -40.989,-87.64 -247.705,-210.47 -290.223,-172.46001 -394.462,-204.64001 -398.404,-155.40001 -4.207,52.57 258.174,199.53001 376.686,302.93001 0,0 -308.321,-8.34 -398.751,-10.78 -106.513,-2.88 -345.802,-8.52 -564.898,-7.72 1.558,-45.12 2.887,-85.84 5.131,-144.45 l 28.037,-732.16001 146.983,161.93 c 141.96,156.37 183.904,154.08 204.159,122.69 11.43,-49.25 -302.439,-503.520003 -392.734,-553.1700025 -8.189,-4.51 -16.268,-7.86 -24.987,-8.65 z" /></svg>
