<?xml version="1.0" encoding="UTF-8" standalone="no"?>
<svg
   width="3875.2234"
   height="2244.8381"
   viewBox="0 0 3875.2234 2244.8381"
   version="1.1"
   xml:space="preserve"
   style="clip-rule:evenodd;fill-rule:evenodd;stroke-linejoin:round;stroke-miterlimit:2"
   id="svg5353"
   xmlns="http://www.w3.org/2000/svg"
   xmlns:svg="http://www.w3.org/2000/svg"><defs
   id="defs5353" />&#10;    <g
   id="vectorly-UNI-keyboard"
   transform="matrix(4.9999999,0,0,4.9999999,-7979.4425,-57000.136)"
   style="stroke-width:0.2"><path
     d="m 2033.5561,11514.411 c 1.91,-0.3 3.73,1 4.06,2.9 0.34,1.9 -0.94,3.7 -2.84,4 l -418.0689,77.4 c -3.39,1 -5.86,1.4 -6.45,4 -0.63,2.8 0.02,6.6 1.35,12.2 2.59,10.9 22.8499,88.7 37.6499,146.6 8.31,32.4 14.8799,58.6 15.8899,63.2 0.52,2.3 1.13,4.4 2.88,5.8 1.59,1.3 3.9,2 7.08,2.3 7.23,0.9 17.75,-0.2 33.2499,-3.5 12.55,-2.6 78.6198,-17.3 164.4496,-36.2 50.3399,-11 107.4698,-23.5 164.5796,-35.9 164.7896,-36 329.2692,-71.6 329.2692,-71.6 1.89,-0.4 3.77,0.8 4.19,2.7 0.43,1.9 -0.76,3.8 -2.64,4.2 0,0 -210.6195,49.7 -393.699,92.1 -129.7997,30.2 -245.7794,56.6 -262.8394,60.3 -23.6099,5 -37.5399,5 -45.8599,2.2 -10.1399,-3.3 -14.2999,-10 -16.2499,-19 l -51.9699,-210 c -2.68,-11.8 -2,-18.8 0.72,-23.5 2.62,-4.4 7.24,-7.4 14.72,-9.4 3.25,-0.9 54.5498,-9.7 126.5097,-21.8 84.3697,-14.2 197.2595,-32.8 294.0192,-49 z m 336.2292,157.2 c 0.92,1.7 0.28,3.9 -1.42,4.8 -1.7,0.9 -3.83,0.3 -4.75,-1.4 0,0 -33.9599,-58.3 -62.9698,-109.1 -9.16,-16.1 -17.77,-31.4 -24.74,-43.9 -8.89,-15.9 -15.0099,-27 -16.1599,-28.8 -1.79,-2.9 -3.66,-5.1 -7.87,-5.5 -3.63,-0.3 -8.36,0.2 -14.78,1.7 -4.05,0.9 -30.0799,5.3 -69.5098,11.4 -28.6499,4.4 -64.3898,9.6 -103.8597,15.4 -1.9,0.4 -3.72,-0.9 -4.06,-2.8 -0.33,-1.9 0.94,-3.7 2.85,-4.1 l 170.9495,-34.9 c 11.41,-2.9 19,-3 24.43,-1.7 7.33,1.8 11.6099,6 15.3799,11.9 1.17,1.9 7.53,13.4 16.33,30 6.71,12.6 14.9,28.2 23.3599,44.6 26.77,52.1 56.8199,112.4 56.8199,112.4 z"
     id="path3104"
     style="stroke:none;stroke-width:0.2" /><path
     d="m 1780.7368,11763.111 c -0.13,-1.9 1.3299,-3.6 3.2599,-3.7 1.93,-0.1 3.6,1.3 3.73,3.2 0,0 2.06,6.2 5.7,11.4 1.32,1.9 3.1,3.3 5.61,3 1.14,0 2.74,-0.4 4.65,-0.6 2.58,-0.4 5.56,-0.7 8.67,-1 10.9299,-1.1 22.7399,-2.1 22.7399,-2.1 1.86,-0.5 3.8,0.5 4.34,2.4 0.54,1.8 -0.53,3.8 -2.39,4.3 0,0 -5.56,2.9 -12.74,6 -2.8099,1.2 -5.7599,2.4 -8.7499,3.4 -3.26,1.2 -6.44,2.1 -9.25,2.7 -3.02,0.6 -5.64,0.7 -7.46,0.6 -6.95,-0.8 -12.15,-4.1 -14.93,-9.7 -1.62,-3.2 -2.6899,-6.8 -3.0499,-10.2 -0.58,-5.4 -0.13,-9.7 -0.13,-9.7 z"
     id="path3106"
     style="stroke:none;stroke-width:0.2" /><path
     d="m 2146.716,11686.146 c -0.13,-1.9 1.33,-3.6 3.26,-3.7 1.93,-0.1 3.6,1.3 3.73,3.2 0,0 2.36,6.1 6.24,11.1 0.6,0.8 1.37,1.3 2.05,2 0.5,0.5 1.15,0.6 1.76,0.9 0.38,0.2 0.78,0.4 1.26,0.4 2.92,0.5 6.66,0.5 10.26,0.4 6.2499,-0.1 11.5599,-0.2 11.5599,-0.2 1.86,-0.5 3.81,0.5 4.37,2.4 0.56,1.8 -0.49,3.8 -2.34,4.3 0,0 -6.29,3.7 -13.4699,6.4 -3.66,1.4 -7.44,2 -10.57,2.4 -2.91,0.1 -5.55,-0.5 -7.79,-1.7 -3.27,-1.7 -6,-4.3 -7.67,-7.6 -1.32,-2.7 -2.33,-5.5 -2.69,-8.4 -0.79,-6.4 0.04,-11.9 0.04,-11.9 z"
     id="path3108"
     style="stroke:none;stroke-width:0.2" /><path
     d="m 2103.191,11695.486 c -0.13,-1.9 1.33,-3.6 3.26,-3.7 1.93,-0.1 3.6,1.3 3.73,3.2 0,0 2.36,6.1 6.24,11.1 0.6,0.8 1.37,1.3 2.05,2 0.5,0.5 1.15,0.6 1.76,0.9 0.38,0.2 0.78,0.4 1.26,0.4 2.92,0.5 6.66,0.5 10.2599,0.4 6.25,-0.1 11.56,-0.2 11.56,-0.2 1.86,-0.5 3.81,0.5 4.37,2.4 0.56,1.8 -0.49,3.8 -2.34,4.3 0,0 -6.29,3.7 -13.47,6.4 -3.6599,1.4 -7.4399,2 -10.5699,2.4 -2.91,0.1 -5.55,-0.5 -7.79,-1.7 -3.27,-1.7 -6,-4.3 -7.67,-7.6 -1.32,-2.7 -2.33,-5.5 -2.69,-8.4 -0.79,-6.4 0.04,-11.9 0.04,-11.9 z"
     id="path3110"
     style="stroke:none;stroke-width:0.2" /><path
     d="m 2187.6262,11678.3 c -0.13,-1.9 1.33,-3.6 3.26,-3.7 1.93,-0.1 3.6,1.3 3.73,3.2 0,0 2.36,6.1 6.24,11.1 0.6,0.8 1.37,1.3 2.05,2 0.5,0.5 1.15,0.6 1.76,0.9 0.3799,0.2 0.7799,0.4 1.2599,0.4 2.92,0.5 6.66,0.5 10.26,0.4 6.25,-0.1 11.56,-0.2 11.56,-0.2 1.86,-0.5 3.81,0.5 4.37,2.4 0.56,1.8 -0.49,3.8 -2.34,4.3 0,0 -6.29,3.7 -13.47,6.4 -3.66,1.4 -7.44,2 -10.57,2.4 -2.9099,0.1 -5.5499,-0.5 -7.7899,-1.7 -3.27,-1.7 -6,-4.3 -7.67,-7.6 -1.32,-2.7 -2.33,-5.5 -2.69,-8.4 -0.79,-6.4 0.04,-11.9 0.04,-11.9 z"
     id="path3112"
     style="stroke:none;stroke-width:0.2" /><path
     d="m 2228.5363,11668.96 c -0.13,-1.9 1.33,-3.6 3.26,-3.7 1.93,-0.1 3.6,1.3 3.73,3.2 0,0 2.36,6.1 6.24,11.1 0.6,0.8 1.37,1.3 2.05,2 0.5,0.5 1.15,0.6 1.76,0.9 0.38,0.2 0.78,0.4 1.26,0.4 2.92,0.5 6.66,0.5 10.26,0.4 6.25,-0.1 11.5599,-0.2 11.5599,-0.2 1.86,-0.5 3.81,0.5 4.37,2.4 0.56,1.8 -0.49,3.8 -2.34,4.3 0,0 -6.2899,3.7 -13.4699,6.4 -3.66,1.4 -7.44,2 -10.57,2.4 -2.91,0.1 -5.55,-0.5 -7.79,-1.7 -3.27,-1.7 -6,-4.3 -7.67,-7.6 -1.32,-2.7 -2.33,-5.5 -2.69,-8.4 -0.79,-6.4 0.04,-11.9 0.04,-11.9 z"
     id="path3114"
     style="stroke:none;stroke-width:0.2" /><path
     d="m 2269.4465,11660.554 c -0.13,-1.9 1.33,-3.6 3.26,-3.7 1.93,-0.1 3.6,1.3 3.73,3.2 0,0 2.36,6.1 6.24,11.1 0.6,0.8 1.37,1.3 2.05,2 0.5,0.5 1.15,0.6 1.76,0.9 0.38,0.2 0.78,0.4 1.26,0.4 2.92,0.5 6.6599,0.5 10.2599,0.4 6.25,-0.1 11.56,-0.2 11.56,-0.2 1.86,-0.5 3.81,0.5 4.37,2.4 0.56,1.8 -0.49,3.8 -2.34,4.3 0,0 -6.29,3.7 -13.47,6.4 -3.66,1.4 -7.4399,2 -10.5699,2.4 -2.91,0.1 -5.55,-0.5 -7.79,-1.7 -3.27,-1.7 -6,-4.3 -7.67,-7.6 -1.32,-2.7 -2.33,-5.5 -2.69,-8.4 -0.79,-6.4 0.04,-11.9 0.04,-11.9 z"
     id="path3116"
     style="stroke:none;stroke-width:0.2" /><path
     d="m 2312.9695,11652.148 c -0.13,-1.9 1.33,-3.6 3.26,-3.7 1.93,-0.1 3.6,1.3 3.73,3.2 0,0 2.36,6.1 6.24,11.1 0.6,0.8 1.37,1.3 2.05,2 0.5,0.5 1.15,0.6 1.76,0.9 0.38,0.2 0.78,0.4 1.26,0.4 2.92,0.5 6.66,0.5 10.26,0.4 6.2499,-0.1 11.5599,-0.2 11.5599,-0.2 1.86,-0.5 3.81,0.5 4.37,2.4 0.56,1.8 -0.49,3.8 -2.34,4.3 0,0 -6.29,3.7 -13.4699,6.4 -3.66,1.4 -7.44,2 -10.57,2.4 -2.91,0.1 -5.55,-0.5 -7.79,-1.7 -3.27,-1.7 -6,-4.3 -7.67,-7.6 -1.32,-2.7 -2.33,-5.5 -2.69,-8.4 -0.79,-6.4 0.04,-11.9 0.04,-11.9 z"
     id="path3118"
     style="stroke:none;stroke-width:0.2" /><path
     d="m 1841.4474,11752.118 c -0.13,-1.9 1.33,-3.6 3.26,-3.7 1.93,-0.1 3.6,1.3 3.73,3.2 0,0 0.8499,6.8 3.9499,12.3 1.56,2.7 3.8,5.2 7.33,5.1 1.88,-0.1 14.96,-3.6 34.1299,-8.5 10.29,-2.6 22.24,-5.6 35.14,-8.8 7.5599,-1.8 15.4299,-3.8 23.4799,-5.6 7.76,-1.8 15.67,-3.5 23.5999,-5.2 16.18,-3.4 32.4,-6.5 47.4199,-9.3 39.9599,-7.6 71.3498,-13.1 71.3498,-13.1 1.89,-0.5 3.77,0.7 4.2,2.6 0.43,1.9 -0.75,3.8 -2.63,4.2 0,0 -38.2499,10.8 -84.0698,22.7 -10.9599,2.8 -22.3499,5.7 -33.7699,8.5 -7.57,1.8 -15.1499,3.5 -22.6299,5.1 -16.93,3.6 -33.2599,6.8 -47.4599,9.4 -26.9999,5 -46.5199,7.9 -48.8799,7.8 -6,-0.4 -10.31,-3.5 -13.1099,-8.1 -4.66,-7.5 -5.04,-18.6 -5.04,-18.6 z"
     id="path3120"
     style="stroke:none;stroke-width:0.2" /><path
     d="m 1668.5062,11785.097 c -0.13,-1.9 1.33,-3.6 3.26,-3.7 1.93,-0.1 3.6,1.3 3.73,3.2 0,0 2.06,6.2 5.7,11.4 1.32,1.9 3.1,3.3 5.61,3 1.14,0 2.74,-0.4 4.65,-0.6 2.58,-0.4 5.56,-0.7 8.67,-1 10.9299,-1.1 22.7399,-2.1 22.7399,-2.1 1.86,-0.5 3.8,0.5 4.34,2.4 0.54,1.8 -0.53,3.8 -2.39,4.3 0,0 -5.56,2.9 -12.74,6 -2.81,1.2 -5.76,2.4 -8.75,3.4 -3.2599,1.2 -6.4399,2.1 -9.2499,2.7 -3.02,0.6 -5.64,0.7 -7.46,0.6 -6.95,-0.8 -12.15,-4.1 -14.93,-9.7 -1.62,-3.2 -2.69,-6.8 -3.05,-10.2 -0.58,-5.4 -0.13,-9.7 -0.13,-9.7 z"
     id="path3122"
     style="stroke:none;stroke-width:0.2" /><path
     d="m 1658.8743,11746.569 c -0.13,-1.9 1.33,-3.6 3.26,-3.7 1.93,-0.1 3.6,1.3 3.73,3.2 0,0 1.41,6.6 4.81,11.8 1.45,2.3 3.52,4.1 6.49,3.8 2.22,-0.1 8.9899,-2.2 17.8499,-4.3 3.97,-0.9 8.32,-1.8 12.82,-2.6 6.45,-1.2 13.1799,-2.1 19.5299,-2.9 16.13,-2.2 29.54,-3.6 29.54,-3.6 1.89,-0.5 3.77,0.7 4.2099,2.6 0.44,1.9 -0.7399,3.8 -2.6199,4.2 0,0 -12.71,4.7 -28.29,9.5 -6.17,2 -12.6999,3.9 -19.0999,5.5 -4.5,1.2 -8.91,2.1 -12.98,2.8 -10.36,1.7 -18.5599,2.3 -21.1199,2.1 -6.52,-0.7 -11.25,-4 -14.02,-9.1 -4.32,-8.1 -4.11,-19.3 -4.11,-19.3 z"
     id="path3124"
     style="stroke:none;stroke-width:0.2" /><path
     d="m 1648.9504,11712.419 c -0.13,-1.9 1.33,-3.6 3.26,-3.7 1.93,-0.1 3.6,1.3 3.73,3.2 0,0 1.73,6.4 5.28,11.6 1.38,2 3.32,3.6 6.03,3.3 1.69,-0.1 4.95,-1.1 9.13,-1.9 3.14,-0.6 6.7099,-1.1 10.4199,-1.6 5.38,-0.7 10.95,-1.2 15.98,-1.7 9.16,-0.9 16.15,-1.4 16.15,-1.4 1.88,-0.4 3.7799,0.7 4.2299,2.6 0.45,1.9 -0.7099,3.8 -2.5899,4.2 0,0 -9.84,4.2 -21.37,8.1 -4.84,1.7 -9.89,3.2 -14.61,4.4 -2.2699,0.6 -4.4599,1 -6.4799,1.3 -4.98,0.8 -8.98,0.9 -11.04,0.8 -6.78,-0.9 -11.75,-4.2 -14.53,-9.6 -1.62,-3.1 -2.73,-6.6 -3.19,-9.9 -0.72,-5.3 -0.4,-9.7 -0.4,-9.7 z"
     id="path3126"
     style="stroke:none;stroke-width:0.2" /><path
     d="m 1636.9834,11674.134 c -0.13,-1.9 1.3299,-3.6 3.2599,-3.7 1.93,-0.1 3.6,1.3 3.73,3.2 0,0 1.79,6.4 5.36,11.6 1.37,2 3.28,3.4 5.95,3.2 1.64,-0.1 4.61,-1 8.39,-1.7 2.94,-0.6 6.27,-1 9.72,-1.5 5.03,-0.6 10.2299,-1.1 14.9299,-1.6 8.57,-0.9 15.1,-1.4 15.1,-1.4 1.87,-0.5 3.78,0.7 4.26,2.5 0.48,1.9 -0.66,3.8 -2.53,4.3 0,0 -9.13,4.1 -19.89,7.9 -4.51,1.7 -9.2199,3.2 -13.6299,4.4 -2.72,0.7 -5.33,1.2 -7.63,1.5 -3.92,0.6 -7.07,0.7 -8.9,0.6 -6.82,-0.9 -11.84,-4.2 -14.62,-9.6 -1.62,-3.2 -2.7199,-6.7 -3.1499,-10 -0.69,-5.4 -0.35,-9.7 -0.35,-9.7 z"
     id="path3128"
     style="stroke:none;stroke-width:0.2" /><path
     d="m 1630.8539,11639.984 c -0.13,-1.9 1.33,-3.6 3.26,-3.7 1.93,-0.1 3.6,1.3 3.73,3.2 0,0 2.5,6 6.36,11.1 0.85,1.1 2.02,1.8 3.12,2.6 0.53,0.4 1.08,0.8 1.83,0.8 2.17,0.4 4.59,0.6 7.04,0.6 6.44,0 12.1999,-0.3 12.1999,-0.3 1.82,-0.6 3.83,0.3 4.46,2.2 0.64,1.8 -0.32,3.8 -2.14,4.4 0,0 -5.4499,3.6 -12.1199,6.3 -3.19,1.2 -6.57,1.8 -9.63,2.3 -2.9,0.1 -5.53,-0.4 -7.8,-1.5 -3.31,-1.7 -6.07,-4.3 -7.76,-7.7 -1.34,-2.6 -2.35,-5.5 -2.7,-8.4 -0.76,-6.4 0.15,-11.9 0.15,-11.9 z"
     id="path3130"
     style="stroke:none;stroke-width:0.2" /><path
     d="m 1672.1372,11630.084 c -0.13,-1.9 1.33,-3.6 3.26,-3.7 1.93,-0.1 3.6,1.3 3.73,3.2 0,0 2.5,6 6.36,11.1 0.85,1.1 2.02,1.8 3.12,2.6 0.53,0.4 1.0799,0.8 1.8299,0.8 2.17,0.4 4.59,0.6 7.04,0.6 6.44,0 12.2,-0.3 12.2,-0.3 1.82,-0.6 3.83,0.3 4.46,2.2 0.64,1.8 -0.32,3.8 -2.14,4.4 0,0 -5.45,3.6 -12.12,6.3 -3.19,1.2 -6.57,1.8 -9.63,2.3 -2.8999,0.1 -5.5299,-0.4 -7.7999,-1.5 -3.31,-1.7 -6.07,-4.3 -7.76,-7.7 -1.34,-2.6 -2.35,-5.5 -2.7,-8.4 -0.76,-6.4 0.15,-11.9 0.15,-11.9 z"
     id="path3132"
     style="stroke:none;stroke-width:0.2" /><path
     d="m 1707.3375,11661.373 c -0.13,-1.9 1.33,-3.6 3.26,-3.7 1.93,-0.1 3.6,1.3 3.73,3.2 0,0 2.5,6 6.36,11.1 0.85,1.1 2.02,1.8 3.12,2.6 0.53,0.4 1.08,0.8 1.83,0.8 2.17,0.4 4.59,0.6 7.04,0.6 6.4399,0 12.1999,-0.3 12.1999,-0.3 1.82,-0.6 3.83,0.3 4.46,2.2 0.64,1.8 -0.32,3.8 -2.14,4.4 0,0 -5.45,3.6 -12.12,6.3 -3.1899,1.2 -6.5699,1.8 -9.6299,2.3 -2.9,0.1 -5.53,-0.4 -7.8,-1.5 -3.31,-1.7 -6.07,-4.3 -7.76,-7.7 -1.34,-2.6 -2.35,-5.5 -2.7,-8.4 -0.76,-6.4 0.15,-11.9 0.15,-11.9 z"
     id="path3134"
     style="stroke:none;stroke-width:0.2" /><path
     d="m 1724.8503,11697.858 c -0.13,-1.9 1.33,-3.6 3.26,-3.7 1.93,-0.1 3.6,1.3 3.73,3.2 0,0 2.5,6 6.36,11.1 0.85,1.1 2.02,1.8 3.12,2.6 0.53,0.4 1.08,0.8 1.83,0.8 2.17,0.4 4.59,0.6 7.04,0.6 6.4399,0 12.1999,-0.3 12.1999,-0.3 1.82,-0.6 3.83,0.3 4.46,2.2 0.64,1.8 -0.32,3.8 -2.14,4.4 0,0 -5.45,3.6 -12.1199,6.3 -3.19,1.2 -6.57,1.8 -9.63,2.3 -2.9,0.1 -5.53,-0.4 -7.8,-1.5 -3.31,-1.7 -6.07,-4.3 -7.76,-7.7 -1.34,-2.6 -2.35,-5.5 -2.7,-8.4 -0.76,-6.4 0.15,-11.9 0.15,-11.9 z"
     id="path3136"
     style="stroke:none;stroke-width:0.2" /><path
     d="m 1774.1776,11686.183 c -0.13,-1.9 1.33,-3.6 3.26,-3.7 1.93,-0.1 3.6,1.3 3.73,3.2 0,0 2.5,6 6.36,11.1 0.85,1.1 2.02,1.8 3.12,2.6 0.53,0.4 1.08,0.8 1.83,0.8 2.17,0.4 4.5899,0.6 7.0399,0.6 6.44,0 12.2,-0.3 12.2,-0.3 1.82,-0.6 3.83,0.3 4.46,2.2 0.64,1.8 -0.32,3.8 -2.14,4.4 0,0 -5.45,3.6 -12.12,6.3 -3.19,1.2 -6.5699,1.8 -9.6299,2.3 -2.9,0.1 -5.53,-0.4 -7.8,-1.5 -3.31,-1.7 -6.07,-4.3 -7.76,-7.7 -1.34,-2.6 -2.35,-5.5 -2.7,-8.4 -0.76,-6.4 0.15,-11.9 0.15,-11.9 z"
     id="path3138"
     style="stroke:none;stroke-width:0.2" /><path
     d="m 1762.7944,11724.711 c -0.13,-1.9 1.33,-3.6 3.26,-3.7 1.93,-0.1 3.6,1.3 3.73,3.2 0,0 2.4999,6 6.3599,11.1 0.85,1.1 2.02,1.8 3.12,2.6 0.53,0.4 1.08,0.8 1.83,0.8 2.17,0.4 4.59,0.6 7.04,0.6 6.44,0 12.2,-0.3 12.2,-0.3 1.82,-0.6 3.83,0.3 4.46,2.2 0.64,1.8 -0.32,3.8 -2.14,4.4 0,0 -5.45,3.6 -12.12,6.3 -3.19,1.2 -6.57,1.8 -9.63,2.3 -2.9,0.1 -5.53,-0.4 -7.8,-1.5 -3.3099,-1.7 -6.0699,-4.3 -7.7599,-7.7 -1.34,-2.6 -2.35,-5.5 -2.7,-8.4 -0.76,-6.4 0.15,-11.9 0.15,-11.9 z"
     id="path3140"
     style="stroke:none;stroke-width:0.2" /><path
     d="m 1803.6572,11717.122 c -0.13,-1.9 1.33,-3.6 3.26,-3.7 1.93,-0.1 3.6,1.3 3.73,3.2 0,0 2.5,6 6.36,11.1 0.85,1.1 2.02,1.8 3.12,2.6 0.53,0.4 1.08,0.8 1.83,0.8 2.17,0.4 4.59,0.6 7.04,0.6 6.4399,0 12.1999,-0.3 12.1999,-0.3 1.82,-0.6 3.83,0.3 4.46,2.2 0.64,1.8 -0.32,3.8 -2.14,4.4 0,0 -5.45,3.6 -12.1199,6.3 -3.19,1.2 -6.57,1.8 -9.63,2.3 -2.9,0.1 -5.53,-0.4 -7.8,-1.5 -3.31,-1.7 -6.07,-4.3 -7.76,-7.7 -1.34,-2.6 -2.35,-5.5 -2.7,-8.4 -0.76,-6.4 0.15,-11.9 0.15,-11.9 z"
     id="path3142"
     style="stroke:none;stroke-width:0.2" /><path
     d="m 1814.4567,11676.843 c -0.13,-1.9 1.33,-3.6 3.26,-3.7 1.93,-0.1 3.6,1.3 3.73,3.2 0,0 2.5,6 6.36,11.1 0.85,1.1 2.02,1.8 3.12,2.6 0.53,0.4 1.08,0.8 1.83,0.8 2.17,0.4 4.59,0.6 7.04,0.6 6.4399,0 12.1999,-0.3 12.1999,-0.3 1.82,-0.6 3.83,0.3 4.46,2.2 0.64,1.8 -0.32,3.8 -2.14,4.4 0,0 -5.45,3.6 -12.1199,6.3 -3.19,1.2 -6.57,1.8 -9.63,2.3 -2.9,0.1 -5.53,-0.4 -7.8,-1.5 -3.31,-1.7 -6.07,-4.3 -7.76,-7.7 -1.34,-2.6 -2.35,-5.5 -2.7,-8.4 -0.76,-6.4 0.15,-11.9 0.15,-11.9 z"
     id="path3144"
     style="stroke:none;stroke-width:0.2" /><path
     d="m 1858.2384,11668.67 c -0.13,-1.9 1.33,-3.6 3.26,-3.7 1.93,-0.1 3.6,1.3 3.73,3.2 0,0 2.5,6 6.36,11.1 0.85,1.1 2.02,1.8 3.12,2.6 0.53,0.4 1.08,0.8 1.83,0.8 2.17,0.4 4.59,0.6 7.04,0.6 6.4399,0 12.1999,-0.3 12.1999,-0.3 1.82,-0.6 3.83,0.3 4.46,2.2 0.64,1.8 -0.32,3.8 -2.14,4.4 0,0 -5.45,3.6 -12.1199,6.3 -3.19,1.2 -6.57,1.8 -9.63,2.3 -2.9,0.1 -5.53,-0.4 -7.8,-1.5 -3.31,-1.7 -6.07,-4.3 -7.76,-7.7 -1.34,-2.6 -2.35,-5.5 -2.7,-8.4 -0.76,-6.4 0.15,-11.9 0.15,-11.9 z"
     id="path3146"
     style="stroke:none;stroke-width:0.2" /><path
     d="m 1902.6038,11659.622 c -0.13,-1.9 1.33,-3.6 3.26,-3.7 1.93,-0.1 3.6,1.3 3.73,3.2 0,0 2.5,6 6.36,11.1 0.85,1.1 2.02,1.8 3.12,2.6 0.53,0.4 1.08,0.8 1.83,0.8 2.17,0.4 4.59,0.6 7.04,0.6 6.4399,0 12.1999,-0.3 12.1999,-0.3 1.82,-0.6 3.83,0.3 4.46,2.2 0.64,1.8 -0.32,3.8 -2.14,4.4 0,0 -5.45,3.6 -12.12,6.3 -3.1899,1.2 -6.5699,1.8 -9.6299,2.3 -2.9,0.1 -5.53,-0.4 -7.8,-1.5 -3.31,-1.7 -6.07,-4.3 -7.76,-7.7 -1.34,-2.6 -2.35,-5.5 -2.7,-8.4 -0.76,-6.4 0.15,-11.9 0.15,-11.9 z"
     id="path3148"
     style="stroke:none;stroke-width:0.2" /><path
     d="m 1943.4667,11652.617 c -0.13,-1.9 1.33,-3.6 3.26,-3.7 1.93,-0.1 3.6,1.3 3.73,3.2 0,0 2.5,6 6.3599,11.1 0.85,1.1 2.02,1.8 3.12,2.6 0.53,0.4 1.08,0.8 1.83,0.8 2.17,0.4 4.59,0.6 7.04,0.6 6.44,0 12.2,-0.3 12.2,-0.3 1.82,-0.6 3.83,0.3 4.46,2.2 0.64,1.8 -0.32,3.8 -2.14,4.4 0,0 -5.45,3.6 -12.12,6.3 -3.19,1.2 -6.57,1.8 -9.63,2.3 -2.9,0.1 -5.5299,-0.4 -7.7999,-1.5 -3.31,-1.7 -6.07,-4.3 -7.76,-7.7 -1.34,-2.6 -2.35,-5.5 -2.7,-8.4 -0.76,-6.4 0.15,-11.9 0.15,-11.9 z"
     id="path3150"
     style="stroke:none;stroke-width:0.2" /><path
     d="m 1984.6223,11645.028 c -0.13,-1.9 1.33,-3.6 3.26,-3.7 1.93,-0.1 3.6,1.3 3.73,3.2 0,0 2.5,6 6.36,11.1 0.85,1.1 2.02,1.8 3.12,2.6 0.53,0.4 1.0799,0.8 1.8299,0.8 2.17,0.4 4.59,0.6 7.04,0.6 6.44,0 12.2,-0.3 12.2,-0.3 1.82,-0.6 3.83,0.3 4.46,2.2 0.64,1.8 -0.32,3.8 -2.14,4.4 0,0 -5.45,3.6 -12.12,6.3 -3.19,1.2 -6.57,1.8 -9.63,2.3 -2.8999,0.1 -5.5299,-0.4 -7.7999,-1.5 -3.31,-1.7 -6.07,-4.3 -7.76,-7.7 -1.34,-2.6 -2.35,-5.5 -2.7,-8.4 -0.76,-6.4 0.15,-11.9 0.15,-11.9 z"
     id="path3152"
     style="stroke:none;stroke-width:0.2" /><path
     d="m 2026.6525,11635.98 c -0.13,-1.9 1.33,-3.6 3.26,-3.7 1.93,-0.1 3.6,1.3 3.73,3.2 0,0 2.5,6 6.36,11.1 0.85,1.1 2.02,1.8 3.12,2.6 0.53,0.4 1.08,0.8 1.83,0.8 2.17,0.4 4.59,0.6 7.04,0.6 6.44,0 12.1999,-0.3 12.1999,-0.3 1.82,-0.6 3.83,0.3 4.46,2.2 0.64,1.8 -0.32,3.8 -2.14,4.4 0,0 -5.45,3.6 -12.1199,6.3 -3.19,1.2 -6.57,1.8 -9.63,2.3 -2.9,0.1 -5.53,-0.4 -7.8,-1.5 -3.31,-1.7 -6.07,-4.3 -7.76,-7.7 -1.34,-2.6 -2.35,-5.5 -2.7,-8.4 -0.76,-6.4 0.15,-11.9 0.15,-11.9 z"
     id="path3154"
     style="stroke:none;stroke-width:0.2" /><path
     d="m 2066.639,11628.975 c -0.13,-1.9 1.33,-3.6 3.26,-3.7 1.93,-0.1 3.6,1.3 3.73,3.2 0,0 2.4999,6 6.3599,11.1 0.85,1.1 2.02,1.8 3.12,2.6 0.53,0.4 1.08,0.8 1.83,0.8 2.17,0.4 4.59,0.6 7.04,0.6 6.44,0 12.2,-0.3 12.2,-0.3 1.82,-0.6 3.83,0.3 4.46,2.2 0.64,1.8 -0.32,3.8 -2.14,4.4 0,0 -5.45,3.6 -12.12,6.3 -3.19,1.2 -6.57,1.8 -9.63,2.3 -2.9,0.1 -5.53,-0.4 -7.8,-1.5 -3.3099,-1.7 -6.0699,-4.3 -7.7599,-7.7 -1.34,-2.6 -2.35,-5.5 -2.7,-8.4 -0.76,-6.4 0.15,-11.9 0.15,-11.9 z"
     id="path3156"
     style="stroke:none;stroke-width:0.2" /><path
     d="m 1846.2713,11708.658 c -0.13,-1.9 1.33,-3.6 3.26,-3.7 1.93,-0.1 3.6,1.3 3.73,3.2 0,0 2.5,6 6.36,11.1 0.85,1.1 2.02,1.8 3.12,2.6 0.53,0.4 1.08,0.8 1.83,0.8 2.17,0.4 4.59,0.6 7.04,0.6 6.44,0 12.2,-0.3 12.2,-0.3 1.8199,-0.6 3.8299,0.3 4.4599,2.2 0.64,1.8 -0.32,3.8 -2.14,4.4 0,0 -5.4499,3.6 -12.1199,6.3 -3.19,1.2 -6.57,1.8 -9.63,2.3 -2.9,0.1 -5.53,-0.4 -7.8,-1.5 -3.31,-1.7 -6.07,-4.3 -7.76,-7.7 -1.34,-2.6 -2.35,-5.5 -2.7,-8.4 -0.76,-6.4 0.15,-11.9 0.15,-11.9 z"
     id="path3158"
     style="stroke:none;stroke-width:0.2" /><path
     d="m 1890.9287,11700.485 c -0.13,-1.9 1.33,-3.6 3.26,-3.7 1.93,-0.1 3.6,1.3 3.73,3.2 0,0 2.5,6 6.3599,11.1 0.85,1.1 2.02,1.8 3.12,2.6 0.53,0.4 1.08,0.8 1.83,0.8 2.17,0.4 4.59,0.6 7.04,0.6 6.44,0 12.2,-0.3 12.2,-0.3 1.82,-0.6 3.83,0.3 4.46,2.2 0.64,1.8 -0.32,3.8 -2.14,4.4 0,0 -5.45,3.6 -12.12,6.3 -3.19,1.2 -6.57,1.8 -9.63,2.3 -2.9,0.1 -5.53,-0.4 -7.7999,-1.5 -3.31,-1.7 -6.07,-4.3 -7.76,-7.7 -1.34,-2.6 -2.35,-5.5 -2.7,-8.4 -0.76,-6.4 0.15,-11.9 0.15,-11.9 z"
     id="path3160"
     style="stroke:none;stroke-width:0.2" /><path
     d="m 1932.6672,11691.437 c -0.13,-1.9 1.33,-3.6 3.26,-3.7 1.93,-0.1 3.6,1.3 3.73,3.2 0,0 2.4999,6 6.3599,11.1 0.85,1.1 2.02,1.8 3.12,2.6 0.53,0.4 1.08,0.8 1.83,0.8 2.17,0.4 4.59,0.6 7.04,0.6 6.44,0 12.2,-0.3 12.2,-0.3 1.82,-0.6 3.83,0.3 4.46,2.2 0.64,1.8 -0.32,3.8 -2.14,4.4 0,0 -5.45,3.6 -12.12,6.3 -3.19,1.2 -6.57,1.8 -9.63,2.3 -2.9,0.1 -5.53,-0.4 -7.8,-1.5 -3.3099,-1.7 -6.0699,-4.3 -7.7599,-7.7 -1.34,-2.6 -2.35,-5.5 -2.7,-8.4 -0.76,-6.4 0.15,-11.9 0.15,-11.9 z"
     id="path3162"
     style="stroke:none;stroke-width:0.2" /><path
     d="m 1977.3245,11682.388 c -0.13,-1.9 1.33,-3.6 3.26,-3.7 1.93,-0.1 3.6,1.3 3.73,3.2 0,0 2.5,6 6.36,11.1 0.85,1.1 2.02,1.8 3.12,2.6 0.53,0.4 1.08,0.8 1.83,0.8 2.17,0.4 4.5899,0.6 7.0399,0.6 6.44,0 12.2,-0.3 12.2,-0.3 1.82,-0.6 3.83,0.3 4.46,2.2 0.64,1.8 -0.32,3.8 -2.14,4.4 0,0 -5.45,3.6 -12.12,6.3 -3.19,1.2 -6.5699,1.8 -9.6299,2.3 -2.9,0.1 -5.53,-0.4 -7.8,-1.5 -3.31,-1.7 -6.07,-4.3 -7.76,-7.7 -1.34,-2.6 -2.35,-5.5 -2.7,-8.4 -0.76,-6.4 0.15,-11.9 0.15,-11.9 z"
     id="path3164"
     style="stroke:none;stroke-width:0.2" /><path
     d="m 2021.1062,11672.173 c -0.13,-1.9 1.33,-3.6 3.26,-3.7 1.93,-0.1 3.6,1.3 3.73,3.2 0,0 2.5,6 6.36,11.1 0.85,1.1 2.02,1.8 3.12,2.6 0.53,0.4 1.08,0.8 1.83,0.8 2.17,0.4 4.5899,0.6 7.0399,0.6 6.44,0 12.2,-0.3 12.2,-0.3 1.82,-0.6 3.83,0.3 4.46,2.2 0.64,1.8 -0.32,3.8 -2.14,4.4 0,0 -5.45,3.6 -12.12,6.3 -3.19,1.2 -6.5699,1.8 -9.6299,2.3 -2.9,0.1 -5.53,-0.4 -7.8,-1.5 -3.31,-1.7 -6.07,-4.3 -7.76,-7.7 -1.34,-2.6 -2.35,-5.5 -2.7,-8.4 -0.76,-6.4 0.15,-11.9 0.15,-11.9 z"
     id="path3166"
     style="stroke:none;stroke-width:0.2" /><path
     d="m 2061.9683,11664.292 c -0.13,-1.9 1.33,-3.6 3.26,-3.7 1.93,-0.1 3.6,1.3 3.73,3.2 0,0 2.4999,6 6.3599,11.1 0.85,1.1 2.02,1.8 3.12,2.6 0.53,0.4 1.08,0.8 1.83,0.8 2.17,0.4 4.59,0.6 7.04,0.6 6.44,0 12.2,-0.3 12.2,-0.3 1.82,-0.6 3.83,0.3 4.46,2.2 0.64,1.8 -0.32,3.8 -2.14,4.4 0,0 -5.45,3.6 -12.12,6.3 -3.19,1.2 -6.57,1.8 -9.63,2.3 -2.9,0.1 -5.53,-0.4 -7.8,-1.5 -3.3099,-1.7 -6.0699,-4.3 -7.7599,-7.7 -1.34,-2.6 -2.35,-5.5 -2.7,-8.4 -0.76,-6.4 0.15,-11.9 0.15,-11.9 z"
     id="path3168"
     style="stroke:none;stroke-width:0.2" /><path
     d="m 2103.4154,11658.746 c -0.13,-1.9 1.33,-3.6 3.26,-3.7 1.93,-0.1 3.6,1.3 3.73,3.2 0,0 2.5,6 6.36,11.1 0.85,1.1 2.02,1.8 3.12,2.6 0.53,0.4 1.08,0.8 1.83,0.8 2.17,0.4 4.59,0.6 7.04,0.6 6.44,0 12.1999,-0.3 12.1999,-0.3 1.82,-0.6 3.83,0.3 4.46,2.2 0.64,1.8 -0.32,3.8 -2.14,4.4 0,0 -5.45,3.6 -12.1199,6.3 -3.19,1.2 -6.57,1.8 -9.63,2.3 -2.9,0.1 -5.53,-0.4 -7.8,-1.5 -3.31,-1.7 -6.07,-4.3 -7.76,-7.7 -1.34,-2.6 -2.35,-5.5 -2.7,-8.4 -0.76,-6.4 0.15,-11.9 0.15,-11.9 z"
     id="path3170"
     style="stroke:none;stroke-width:0.2" /><path
     d="m 2142.5282,11649.406 c -0.13,-1.9 1.33,-3.6 3.26,-3.7 1.93,-0.1 3.6,1.3 3.73,3.2 0,0 2.5,6 6.36,11.1 0.85,1.1 2.02,1.8 3.12,2.6 0.53,0.4 1.08,0.8 1.83,0.8 2.17,0.4 4.59,0.6 7.04,0.6 6.44,0 12.1999,-0.3 12.1999,-0.3 1.82,-0.6 3.83,0.3 4.46,2.2 0.64,1.8 -0.32,3.8 -2.14,4.4 0,0 -5.4499,3.6 -12.1199,6.3 -3.19,1.2 -6.57,1.8 -9.63,2.3 -2.9,0.1 -5.53,-0.4 -7.8,-1.5 -3.31,-1.7 -6.07,-4.3 -7.76,-7.7 -1.34,-2.6 -2.35,-5.5 -2.7,-8.4 -0.76,-6.4 0.15,-11.9 0.15,-11.9 z"
     id="path3172"
     style="stroke:none;stroke-width:0.2" /><path
     d="m 2105.7498,11620.802 c -0.13,-1.9 1.33,-3.6 3.26,-3.7 1.93,-0.1 3.6,1.3 3.73,3.2 0,0 2.4999,6 6.3599,11.1 0.85,1.1 2.02,1.8 3.12,2.6 0.53,0.4 1.08,0.8 1.83,0.8 2.17,0.4 4.59,0.6 7.04,0.6 6.44,0 12.2,-0.3 12.2,-0.3 1.82,-0.6 3.83,0.3 4.46,2.2 0.64,1.8 -0.32,3.8 -2.14,4.4 0,0 -5.45,3.6 -12.12,6.3 -3.19,1.2 -6.57,1.8 -9.63,2.3 -2.9,0.1 -5.53,-0.4 -7.8,-1.5 -3.3099,-1.7 -6.0699,-4.3 -7.7599,-7.7 -1.34,-2.6 -2.35,-5.5 -2.7,-8.4 -0.76,-6.4 0.15,-11.9 0.15,-11.9 z"
     id="path3174"
     style="stroke:none;stroke-width:0.2" /><path
     d="m 2146.0308,11611.754 c -0.13,-1.9 1.33,-3.6 3.26,-3.7 1.93,-0.1 3.5999,1.3 3.7299,3.2 0,0 2.5,6 6.36,11.1 0.85,1.1 2.02,1.8 3.12,2.6 0.53,0.4 1.08,0.8 1.83,0.8 2.17,0.4 4.59,0.6 7.04,0.6 6.44,0 12.2,-0.3 12.2,-0.3 1.82,-0.6 3.83,0.3 4.46,2.2 0.64,1.8 -0.32,3.8 -2.14,4.4 0,0 -5.45,3.6 -12.12,6.3 -3.19,1.2 -6.57,1.8 -9.63,2.3 -2.9,0.1 -5.53,-0.4 -7.8,-1.5 -3.31,-1.7 -6.0699,-4.3 -7.7599,-7.7 -1.34,-2.6 -2.35,-5.5 -2.7,-8.4 -0.76,-6.4 0.15,-11.9 0.15,-11.9 z"
     id="path3176"
     style="stroke:none;stroke-width:0.2" /><path
     d="m 2254.7251,11591.128 c -0.13,-1.9 1.33,-3.6 3.26,-3.7 1.93,-0.1 3.6,1.3 3.73,3.2 0,0 2.5,6 6.36,11.1 0.85,1.1 2.02,1.8 3.12,2.6 0.53,0.4 1.0799,0.8 1.8299,0.8 2.17,0.4 4.59,0.6 7.04,0.6 6.44,0 12.2,-0.3 12.2,-0.3 1.82,-0.6 3.83,0.3 4.46,2.2 0.64,1.8 -0.32,3.8 -2.14,4.4 0,0 -5.45,3.6 -12.12,6.3 -3.19,1.2 -6.57,1.8 -9.63,2.3 -2.8999,0.1 -5.5299,-0.4 -7.7999,-1.5 -3.31,-1.7 -6.07,-4.3 -7.76,-7.7 -1.34,-2.6 -2.35,-5.5 -2.7,-8.4 -0.76,-6.4 0.15,-11.9 0.15,-11.9 z"
     id="path3178"
     style="stroke:none;stroke-width:0.2" /><path
     d="m 2249.6456,11626.348 c -0.13,-1.9 1.33,-3.6 3.26,-3.7 1.93,-0.1 3.6,1.3 3.73,3.2 0,0 2.5,6 6.36,11.1 0.85,1.1 2.02,1.8 3.12,2.6 0.53,0.4 1.08,0.8 1.83,0.8 2.17,0.4 4.59,0.6 7.04,0.6 6.44,0 12.1999,-0.3 12.1999,-0.3 1.82,-0.6 3.83,0.3 4.46,2.2 0.64,1.8 -0.32,3.8 -2.14,4.4 0,0 -5.4499,3.6 -12.1199,6.3 -3.19,1.2 -6.57,1.8 -9.63,2.3 -2.9,0.1 -5.53,-0.4 -7.8,-1.5 -3.31,-1.7 -6.07,-4.3 -7.76,-7.7 -1.34,-2.6 -2.35,-5.5 -2.7,-8.4 -0.76,-6.4 0.15,-11.9 0.15,-11.9 z"
     id="path3180"
     style="stroke:none;stroke-width:0.2" /><path
     d="m 2289.9246,11619.343 c -0.13,-1.9 1.33,-3.6 3.26,-3.7 1.93,-0.1 3.6,1.3 3.73,3.2 0,0 2.5,6 6.36,11.1 0.85,1.1 2.02,1.8 3.12,2.6 0.53,0.4 1.08,0.8 1.83,0.8 2.17,0.4 4.59,0.6 7.04,0.6 6.4399,0 12.1999,-0.3 12.1999,-0.3 1.82,-0.6 3.83,0.3 4.46,2.2 0.64,1.8 -0.32,3.8 -2.14,4.4 0,0 -5.45,3.6 -12.1199,6.3 -3.19,1.2 -6.57,1.8 -9.63,2.3 -2.9,0.1 -5.53,-0.4 -7.8,-1.5 -3.31,-1.7 -6.07,-4.3 -7.76,-7.7 -1.34,-2.6 -2.35,-5.5 -2.7,-8.4 -0.76,-6.4 0.15,-11.9 0.15,-11.9 z"
     id="path3182"
     style="stroke:none;stroke-width:0.2" /><path
     d="m 2186.6003,11605.041 c -0.13,-1.9 1.33,-3.6 3.26,-3.7 1.93,-0.1 3.6,1.3 3.73,3.2 0,0 1.79,6.4 5.35,11.6 1.3699,2 3.2899,3.4 5.9599,3.2 1.65,-0.1 4.68,-1 8.52,-1.7 2.95,-0.5 6.3,-0.9 9.78,-1.3 5.06,-0.6 10.28,-1.1 15.01,-1.5 8.6099,-0.8 15.1699,-1.2 15.1699,-1.2 1.88,-0.4 3.77,0.7 4.22,2.6 0.45,1.9 -0.71,3.8 -2.59,4.2 0,0 -9.21,4 -20.0599,7.7 -4.54,1.6 -9.27,3.1 -13.71,4.2 -2.74,0.7 -5.35,1.2 -7.66,1.5 -3.9,0.5 -7.05,0.6 -8.86,0.5 -6.8199,-0.9 -11.8399,-4.2 -14.6099,-9.6 -1.62,-3.2 -2.72,-6.7 -3.16,-10 -0.69,-5.4 -0.35,-9.7 -0.35,-9.7 z"
     id="path3184"
     style="stroke:none;stroke-width:0.2" /><path
     d="m 2185.1416,11642.401 c -0.13,-1.9 1.33,-3.6 3.26,-3.7 1.93,-0.1 3.5999,1.3 3.7299,3.2 0,0 1.9,6.3 5.49,11.5 1.35,1.9 3.21,3.4 5.82,3.1 1.54,0 4.12,-0.8 7.31,-1.3 2.63,-0.5 5.58,-0.9 8.65,-1.3 4.52,-0.6 9.14,-1 13.3499,-1.5 7.69,-0.8 13.51,-1.3 13.51,-1.3 1.86,-0.5 3.79,0.6 4.31,2.5 0.51,1.8 -0.59,3.7 -2.45,4.3 0,0 -8.06,3.8 -17.6699,7.6 -4.01,1.5 -8.21,3 -12.17,4.2 -2.44,0.7 -4.78,1.2 -6.87,1.6 -3.47,0.5 -6.35,0.6 -8.16,0.5 -6.86,-0.8 -11.97,-4.1 -14.7399,-9.6 -1.62,-3.2 -2.7,-6.7 -3.11,-10.1 -0.64,-5.4 -0.26,-9.7 -0.26,-9.7 z"
     id="path3186"
     style="stroke:none;stroke-width:0.2" /><path
     d="m 1746.3792,11653.154 c -0.13,-1.9 1.33,-3.6 3.26,-3.7 1.93,-0.1 3.6,1.3 3.73,3.2 0,0 2.5,6 6.36,11.1 0.85,1.1 2.02,1.8 3.12,2.6 0.53,0.4 1.08,0.8 1.8299,0.8 2.17,0.4 4.59,0.6 7.04,0.6 6.44,0 12.2,-0.3 12.2,-0.3 1.82,-0.6 3.83,0.3 4.46,2.2 0.64,1.8 -0.32,3.8 -2.14,4.4 0,0 -5.45,3.6 -12.12,6.3 -3.19,1.2 -6.57,1.8 -9.63,2.3 -2.8999,0.1 -5.5299,-0.4 -7.7999,-1.5 -3.31,-1.7 -6.07,-4.3 -7.76,-7.7 -1.34,-2.6 -2.35,-5.5 -2.7,-8.4 -0.76,-6.4 0.15,-11.9 0.15,-11.9 z"
     id="path3188"
     style="stroke:none;stroke-width:0.2" /><path
     d="m 1790.0908,11643.814 c -0.13,-1.9 1.33,-3.6 3.26,-3.7 1.93,-0.1 3.6,1.3 3.73,3.2 0,0 2.5,6 6.36,11.1 0.85,1.1 2.0199,1.8 3.1199,2.6 0.53,0.4 1.08,0.8 1.83,0.8 2.17,0.4 4.59,0.6 7.04,0.6 6.44,0 12.2,-0.3 12.2,-0.3 1.82,-0.6 3.83,0.3 4.46,2.2 0.64,1.8 -0.32,3.8 -2.14,4.4 0,0 -5.45,3.6 -12.12,6.3 -3.19,1.2 -6.57,1.8 -9.63,2.3 -2.9,0.1 -5.5299,-0.4 -7.7999,-1.5 -3.31,-1.7 -6.07,-4.3 -7.76,-7.7 -1.34,-2.6 -2.35,-5.5 -2.7,-8.4 -0.76,-6.4 0.15,-11.9 0.15,-11.9 z"
     id="path3190"
     style="stroke:none;stroke-width:0.2" /><path
     d="m 1835.11,11635.408 c -0.13,-1.9 1.33,-3.6 3.26,-3.7 1.93,-0.1 3.6,1.3 3.73,3.2 0,0 2.4999,6 6.3599,11.1 0.85,1.1 2.02,1.8 3.12,2.6 0.53,0.4 1.08,0.8 1.83,0.8 2.17,0.4 4.59,0.6 7.04,0.6 6.44,0 12.2,-0.3 12.2,-0.3 1.82,-0.6 3.83,0.3 4.46,2.2 0.64,1.8 -0.32,3.8 -2.14,4.4 0,0 -5.45,3.6 -12.12,6.3 -3.19,1.2 -6.57,1.8 -9.63,2.3 -2.9,0.1 -5.53,-0.4 -7.8,-1.5 -3.3099,-1.7 -6.0699,-4.3 -7.7599,-7.7 -1.34,-2.6 -2.35,-5.5 -2.7,-8.4 -0.76,-6.4 0.15,-11.9 0.15,-11.9 z"
     id="path3192"
     style="stroke:none;stroke-width:0.2" /><path
     d="m 1878.8215,11627.562 c -0.13,-1.9 1.33,-3.6 3.26,-3.7 1.93,-0.1 3.6,1.3 3.73,3.2 0,0 2.5,6 6.36,11.1 0.85,1.1 2.02,1.8 3.12,2.6 0.53,0.4 1.08,0.8 1.83,0.8 2.17,0.4 4.59,0.6 7.04,0.6 6.44,0 12.1999,-0.3 12.1999,-0.3 1.82,-0.6 3.83,0.3 4.46,2.2 0.64,1.8 -0.32,3.8 -2.14,4.4 0,0 -5.4499,3.6 -12.1199,6.3 -3.19,1.2 -6.57,1.8 -9.63,2.3 -2.9,0.1 -5.53,-0.4 -7.8,-1.5 -3.31,-1.7 -6.07,-4.3 -7.76,-7.7 -1.34,-2.6 -2.35,-5.5 -2.7,-8.4 -0.76,-6.4 0.15,-11.9 0.15,-11.9 z"
     id="path3194"
     style="stroke:none;stroke-width:0.2" /><path
     d="m 1919.3576,11620.277 c -0.13,-1.9 1.33,-3.6 3.26,-3.7 1.93,-0.1 3.6,1.3 3.73,3.2 0,0 2.5,6 6.36,11.1 0.85,1.1 2.02,1.8 3.12,2.6 0.53,0.4 1.08,0.8 1.83,0.8 2.17,0.4 4.5899,0.6 7.0399,0.6 6.44,0 12.2,-0.3 12.2,-0.3 1.82,-0.6 3.83,0.3 4.46,2.2 0.64,1.8 -0.32,3.8 -2.14,4.4 0,0 -5.45,3.6 -12.12,6.3 -3.19,1.2 -6.5699,1.8 -9.6299,2.3 -2.9,0.1 -5.53,-0.4 -7.8,-1.5 -3.31,-1.7 -6.07,-4.3 -7.76,-7.7 -1.34,-2.6 -2.35,-5.5 -2.7,-8.4 -0.76,-6.4 0.15,-11.9 0.15,-11.9 z"
     id="path3196"
     style="stroke:none;stroke-width:0.2" /><path
     d="m 1960.0804,11610.563 c -0.13,-1.9 1.33,-3.6 3.26,-3.7 1.93,-0.1 3.6,1.3 3.73,3.2 0,0 2.5,6 6.36,11.1 0.85,1.1 2.02,1.8 3.12,2.6 0.53,0.4 1.08,0.8 1.83,0.8 2.17,0.4 4.5899,0.6 7.0399,0.6 6.44,0 12.2,-0.3 12.2,-0.3 1.82,-0.6 3.83,0.3 4.46,2.2 0.64,1.8 -0.32,3.8 -2.14,4.4 0,0 -5.45,3.6 -12.12,6.3 -3.19,1.2 -6.5699,1.8 -9.6299,2.3 -2.9,0.1 -5.53,-0.4 -7.8,-1.5 -3.31,-1.7 -6.07,-4.3 -7.76,-7.7 -1.34,-2.6 -2.35,-5.5 -2.7,-8.4 -0.76,-6.4 0.15,-11.9 0.15,-11.9 z"
     id="path3198"
     style="stroke:none;stroke-width:0.2" /><path
     d="m 2003.2309,11603.651 c -0.13,-1.9 1.33,-3.6 3.26,-3.7 1.93,-0.1 3.6,1.3 3.73,3.2 0,0 2.5,6 6.36,11.1 0.85,1.1 2.02,1.8 3.12,2.6 0.53,0.4 1.08,0.8 1.83,0.8 2.17,0.4 4.59,0.6 7.04,0.6 6.44,0 12.1999,-0.3 12.1999,-0.3 1.82,-0.6 3.83,0.3 4.46,2.2 0.64,1.8 -0.32,3.8 -2.14,4.4 0,0 -5.45,3.6 -12.1199,6.3 -3.19,1.2 -6.57,1.8 -9.63,2.3 -2.9,0.1 -5.53,-0.4 -7.8,-1.5 -3.31,-1.7 -6.07,-4.3 -7.76,-7.7 -1.34,-2.6 -2.35,-5.5 -2.7,-8.4 -0.76,-6.4 0.15,-11.9 0.15,-11.9 z"
     id="path3200"
     style="stroke:none;stroke-width:0.2" /><path
     d="m 2042.6463,11595.992 c -0.13,-1.9 1.33,-3.6 3.26,-3.7 1.93,-0.1 3.6,1.3 3.73,3.2 0,0 2.5,6 6.36,11.1 0.85,1.1 2.02,1.8 3.12,2.6 0.53,0.4 1.08,0.8 1.83,0.8 2.17,0.4 4.5899,0.6 7.0399,0.6 6.44,0 12.2,-0.3 12.2,-0.3 1.82,-0.6 3.83,0.3 4.46,2.2 0.64,1.8 -0.32,3.8 -2.14,4.4 0,0 -5.45,3.6 -12.12,6.3 -3.19,1.2 -6.5699,1.8 -9.6299,2.3 -2.9,0.1 -5.53,-0.4 -7.8,-1.5 -3.31,-1.7 -6.07,-4.3 -7.76,-7.7 -1.34,-2.6 -2.35,-5.5 -2.7,-8.4 -0.76,-6.4 0.15,-11.9 0.15,-11.9 z"
     id="path3202"
     style="stroke:none;stroke-width:0.2" /><path
     d="m 2081.1279,11587.773 c -0.13,-1.9 1.33,-3.6 3.26,-3.7 1.93,-0.1 3.6,1.3 3.73,3.2 0,0 2.5,6 6.36,11.1 0.85,1.1 2.02,1.8 3.12,2.6 0.53,0.4 1.08,0.8 1.83,0.8 2.17,0.4 4.59,0.6 7.04,0.6 6.44,0 12.1999,-0.3 12.1999,-0.3 1.82,-0.6 3.83,0.3 4.46,2.2 0.64,1.8 -0.32,3.8 -2.14,4.4 0,0 -5.4499,3.6 -12.1199,6.3 -3.19,1.2 -6.57,1.8 -9.63,2.3 -2.9,0.1 -5.53,-0.4 -7.8,-1.5 -3.31,-1.7 -6.07,-4.3 -7.76,-7.7 -1.34,-2.6 -2.35,-5.5 -2.7,-8.4 -0.76,-6.4 0.15,-11.9 0.15,-11.9 z"
     id="path3204"
     style="stroke:none;stroke-width:0.2" /><path
     d="m 2120.357,11581.048 c -0.13,-1.9 1.33,-3.6 3.26,-3.7 1.93,-0.1 3.5999,1.3 3.7299,3.2 0,0 2.5,6 6.36,11.1 0.85,1.1 2.02,1.8 3.12,2.6 0.53,0.4 1.08,0.8 1.83,0.8 2.17,0.4 4.59,0.6 7.04,0.6 6.44,0 12.2,-0.3 12.2,-0.3 1.82,-0.6 3.83,0.3 4.46,2.2 0.64,1.8 -0.32,3.8 -2.14,4.4 0,0 -5.45,3.6 -12.12,6.3 -3.19,1.2 -6.57,1.8 -9.63,2.3 -2.9,0.1 -5.53,-0.4 -7.8,-1.5 -3.31,-1.7 -6.0699,-4.3 -7.7599,-7.7 -1.34,-2.6 -2.35,-5.5 -2.7,-8.4 -0.76,-6.4 0.15,-11.9 0.15,-11.9 z"
     id="path3206"
     style="stroke:none;stroke-width:0.2" /><path
     d="m 2160.2572,11576.864 c -0.13,-1.9 1.33,-3.6 3.26,-3.7 1.93,-0.1 3.6,1.3 3.73,3.2 0,0 2.5,6 6.36,11.1 0.85,1.1 2.02,1.8 3.12,2.6 0.53,0.4 1.08,0.8 1.83,0.8 2.17,0.4 4.59,0.6 7.04,0.6 6.44,0 12.1999,-0.3 12.1999,-0.3 1.82,-0.6 3.83,0.3 4.46,2.2 0.64,1.8 -0.32,3.8 -2.14,4.4 0,0 -5.4499,3.6 -12.1199,6.3 -3.19,1.2 -6.57,1.8 -9.63,2.3 -2.9,0.1 -5.53,-0.4 -7.8,-1.5 -3.31,-1.7 -6.07,-4.3 -7.76,-7.7 -1.34,-2.6 -2.35,-5.5 -2.7,-8.4 -0.76,-6.4 0.15,-11.9 0.15,-11.9 z"
     id="path3208"
     style="stroke:none;stroke-width:0.2" /><path
     d="m 2199.5604,11569.242 c -0.13,-1.9 1.33,-3.6 3.26,-3.7 1.93,-0.1 3.6,1.3 3.73,3.2 0,0 2.32,6.1 6,11.2 1.27,1.8 2.9,3.3 5.32,3.1 l 27.6499,-1 c 1.87,-0.6 3.8,0.5 4.33,2.4 0.53,1.8 -0.56,3.8 -2.42,4.3 0,0 -8.22,4.3 -16.71,7.5 -2.52,0.9 -5.01,1.6 -7.3,2.1 -2.15,0.5 -4.1399,0.6 -5.7499,0.7 -2.14,-0.1 -4.12,-0.4 -5.87,-1.2 -4.06,-1.7 -7.43,-4.5 -9.37,-8.5 -1.31,-2.6 -2.3,-5.4 -2.69,-8.3 -0.86,-6.3 -0.18,-11.8 -0.18,-11.8 z"
     id="path3210"
     style="stroke:none;stroke-width:0.2" /><path
     d="m 2254.7051,11561.621 c -0.13,-1.9 1.33,-3.6 3.26,-3.7 1.93,-0.1 3.5999,1.3 3.7299,3.2 0,0 2.5,6 6.36,11.1 0.85,1.1 2.02,1.8 3.12,2.6 0.53,0.4 1.08,0.8 1.83,0.8 2.17,0.4 4.59,0.6 7.04,0.6 6.44,0 12.2,-0.3 12.2,-0.3 1.82,-0.6 3.83,0.3 4.46,2.2 0.64,1.8 -0.32,3.8 -2.14,4.4 0,0 -5.45,3.6 -12.12,6.3 -3.19,1.2 -6.57,1.8 -9.63,2.3 -2.9,0.1 -5.53,-0.4 -7.8,-1.5 -3.31,-1.7 -6.0699,-4.3 -7.7599,-7.7 -1.34,-2.6 -2.35,-5.5 -2.7,-8.4 -0.76,-6.4 0.15,-11.9 0.15,-11.9 z"
     id="path3212"
     style="stroke:none;stroke-width:0.2" /><path
     d="m 1713.7939,11622.051 c -0.13,-1.9 1.33,-3.6 3.26,-3.7 1.93,-0.1 3.6,1.3 3.73,3.2 0,0 2.5,6 6.36,11.1 0.85,1.1 2.02,1.8 3.12,2.6 0.53,0.4 1.08,0.8 1.83,0.8 2.17,0.4 4.59,0.6 7.04,0.6 6.44,0 12.1999,-0.3 12.1999,-0.3 1.82,-0.6 3.83,0.3 4.46,2.2 0.64,1.8 -0.32,3.8 -2.14,4.4 0,0 -5.4499,3.6 -12.1199,6.3 -3.19,1.2 -6.57,1.8 -9.63,2.3 -2.9,0.1 -5.53,-0.4 -7.8,-1.5 -3.31,-1.7 -6.07,-4.3 -7.76,-7.7 -1.34,-2.6 -2.35,-5.5 -2.7,-8.4 -0.76,-6.4 0.15,-11.9 0.15,-11.9 z"
     id="path3214"
     style="stroke:none;stroke-width:0.2" /><path
     d="m 1755.4507,11613.272 c -0.13,-1.9 1.33,-3.6 3.26,-3.7 1.93,-0.1 3.6,1.3 3.73,3.2 0,0 2.5,6 6.3599,11.1 0.85,1.1 2.02,1.8 3.12,2.6 0.53,0.4 1.08,0.8 1.83,0.8 2.17,0.4 4.59,0.6 7.04,0.6 6.44,0 12.2,-0.3 12.2,-0.3 1.82,-0.6 3.83,0.3 4.46,2.2 0.64,1.8 -0.32,3.8 -2.14,4.4 0,0 -5.45,3.6 -12.12,6.3 -3.19,1.2 -6.57,1.8 -9.63,2.3 -2.9,0.1 -5.5299,-0.4 -7.7999,-1.5 -3.31,-1.7 -6.07,-4.3 -7.76,-7.7 -1.34,-2.6 -2.35,-5.5 -2.7,-8.4 -0.76,-6.4 0.15,-11.9 0.15,-11.9 z"
     id="path3216"
     style="stroke:none;stroke-width:0.2" /><path
     d="m 1799.1623,11605.239 c -0.13,-1.9 1.33,-3.6 3.26,-3.7 1.93,-0.1 3.6,1.3 3.73,3.2 0,0 2.5,6 6.36,11.1 0.85,1.1 2.02,1.8 3.12,2.6 0.53,0.4 1.08,0.8 1.83,0.8 2.17,0.4 4.59,0.6 7.04,0.6 6.44,0 12.1999,-0.3 12.1999,-0.3 1.82,-0.6 3.83,0.3 4.46,2.2 0.64,1.8 -0.32,3.8 -2.14,4.4 0,0 -5.45,3.6 -12.1199,6.3 -3.19,1.2 -6.57,1.8 -9.63,2.3 -2.9,0.1 -5.53,-0.4 -7.8,-1.5 -3.31,-1.7 -6.07,-4.3 -7.76,-7.7 -1.34,-2.6 -2.35,-5.5 -2.7,-8.4 -0.76,-6.4 0.15,-11.9 0.15,-11.9 z"
     id="path3218"
     style="stroke:none;stroke-width:0.2" /><path
     d="m 1841.5664,11597.954 c -0.13,-1.9 1.33,-3.6 3.26,-3.7 1.93,-0.1 3.6,1.3 3.73,3.2 0,0 2.5,6 6.36,11.1 0.85,1.1 2.02,1.8 3.1199,2.6 0.53,0.4 1.08,0.8 1.83,0.8 2.17,0.4 4.59,0.6 7.04,0.6 6.44,0 12.2,-0.3 12.2,-0.3 1.82,-0.6 3.83,0.3 4.46,2.2 0.64,1.8 -0.32,3.8 -2.14,4.4 0,0 -5.45,3.6 -12.12,6.3 -3.19,1.2 -6.57,1.8 -9.63,2.3 -2.8999,0.1 -5.5299,-0.4 -7.7999,-1.5 -3.31,-1.7 -6.07,-4.3 -7.76,-7.7 -1.34,-2.6 -2.35,-5.5 -2.7,-8.4 -0.76,-6.4 0.15,-11.9 0.15,-11.9 z"
     id="path3220"
     style="stroke:none;stroke-width:0.2" /><path
     d="m 1882.4759,11591.416 c -0.13,-1.9 1.33,-3.6 3.26,-3.7 1.93,-0.1 3.6,1.3 3.73,3.2 0,0 2.5,6 6.36,11.1 0.85,1.1 2.02,1.8 3.12,2.6 0.53,0.4 1.08,0.8 1.83,0.8 2.17,0.4 4.59,0.6 7.04,0.6 6.44,0 12.1999,-0.3 12.1999,-0.3 1.82,-0.6 3.83,0.3 4.46,2.2 0.64,1.8 -0.32,3.8 -2.14,4.4 0,0 -5.4499,3.6 -12.1199,6.3 -3.19,1.2 -6.57,1.8 -9.63,2.3 -2.9,0.1 -5.53,-0.4 -7.8,-1.5 -3.31,-1.7 -6.07,-4.3 -7.76,-7.7 -1.34,-2.6 -2.35,-5.5 -2.7,-8.4 -0.76,-6.4 0.15,-11.9 0.15,-11.9 z"
     id="path3222"
     style="stroke:none;stroke-width:0.2" /><path
     d="m 1924.8799,11582.449 c -0.13,-1.9 1.33,-3.6 3.26,-3.7 1.93,-0.1 3.6,1.3 3.73,3.2 0,0 2.5,6 6.3599,11.1 0.85,1.1 2.02,1.8 3.12,2.6 0.53,0.4 1.08,0.8 1.83,0.8 2.17,0.4 4.59,0.6 7.04,0.6 6.44,0 12.2,-0.3 12.2,-0.3 1.82,-0.6 3.83,0.3 4.46,2.2 0.64,1.8 -0.32,3.8 -2.14,4.4 0,0 -5.45,3.6 -12.12,6.3 -3.19,1.2 -6.57,1.8 -9.63,2.3 -2.9,0.1 -5.5299,-0.4 -7.7999,-1.5 -3.31,-1.7 -6.07,-4.3 -7.76,-7.7 -1.34,-2.6 -2.35,-5.5 -2.7,-8.4 -0.76,-6.4 0.15,-11.9 0.15,-11.9 z"
     id="path3224"
     style="stroke:none;stroke-width:0.2" /><path
     d="m 1966.1631,11575.164 c -0.13,-1.9 1.33,-3.6 3.26,-3.7 1.93,-0.1 3.6,1.3 3.73,3.2 0,0 2.5,6 6.36,11.1 0.85,1.1 2.02,1.8 3.12,2.6 0.53,0.4 1.08,0.8 1.83,0.8 2.17,0.4 4.59,0.6 7.04,0.6 6.44,0 12.1999,-0.3 12.1999,-0.3 1.82,-0.6 3.83,0.3 4.46,2.2 0.64,1.8 -0.32,3.8 -2.14,4.4 0,0 -5.45,3.6 -12.1199,6.3 -3.19,1.2 -6.57,1.8 -9.63,2.3 -2.9,0.1 -5.53,-0.4 -7.8,-1.5 -3.31,-1.7 -6.07,-4.3 -7.76,-7.7 -1.34,-2.6 -2.35,-5.5 -2.7,-8.4 -0.76,-6.4 0.15,-11.9 0.15,-11.9 z"
     id="path3226"
     style="stroke:none;stroke-width:0.2" /><path
     d="m 2006.1383,11568.252 c -0.13,-1.9 1.33,-3.6 3.26,-3.7 1.93,-0.1 3.6,1.3 3.73,3.2 0,0 2.5,6 6.36,11.1 0.85,1.1 2.02,1.8 3.12,2.6 0.53,0.4 1.08,0.8 1.83,0.8 2.17,0.4 4.59,0.6 7.04,0.6 6.44,0 12.1999,-0.3 12.1999,-0.3 1.82,-0.6 3.83,0.3 4.46,2.2 0.64,1.8 -0.32,3.8 -2.14,4.4 0,0 -5.4499,3.6 -12.1199,6.3 -3.19,1.2 -6.57,1.8 -9.63,2.3 -2.9,0.1 -5.53,-0.4 -7.8,-1.5 -3.31,-1.7 -6.07,-4.3 -7.76,-7.7 -1.34,-2.6 -2.35,-5.5 -2.7,-8.4 -0.76,-6.4 0.15,-11.9 0.15,-11.9 z"
     id="path3228"
     style="stroke:none;stroke-width:0.2" /><path
     d="m 2044.9927,11559.846 c -0.13,-1.9 1.33,-3.6 3.26,-3.7 1.93,-0.1 3.6,1.3 3.73,3.2 0,0 2.4999,6 6.3599,11.1 0.85,1.1 2.02,1.8 3.12,2.6 0.53,0.4 1.08,0.8 1.83,0.8 2.17,0.4 4.59,0.6 7.04,0.6 6.44,0 12.2,-0.3 12.2,-0.3 1.82,-0.6 3.83,0.3 4.46,2.2 0.64,1.8 -0.32,3.8 -2.14,4.4 0,0 -5.45,3.6 -12.12,6.3 -3.19,1.2 -6.57,1.8 -9.63,2.3 -2.9,0.1 -5.53,-0.4 -7.8,-1.5 -3.3099,-1.7 -6.0699,-4.3 -7.7599,-7.7 -1.34,-2.6 -2.35,-5.5 -2.7,-8.4 -0.76,-6.4 0.15,-11.9 0.15,-11.9 z"
     id="path3230"
     style="stroke:none;stroke-width:0.2" /><path
     d="m 2083.288,11552.374 c -0.13,-1.9 1.33,-3.6 3.26,-3.7 1.93,-0.1 3.5999,1.3 3.7299,3.2 0,0 2.5,6 6.36,11.1 0.85,1.1 2.02,1.8 3.12,2.6 0.53,0.4 1.08,0.8 1.83,0.8 2.17,0.4 4.59,0.6 7.04,0.6 6.44,0 12.2,-0.3 12.2,-0.3 1.82,-0.6 3.83,0.3 4.46,2.2 0.64,1.8 -0.32,3.8 -2.14,4.4 0,0 -5.45,3.6 -12.12,6.3 -3.19,1.2 -6.57,1.8 -9.63,2.3 -2.9,0.1 -5.53,-0.4 -7.8,-1.5 -3.31,-1.7 -6.0699,-4.3 -7.7599,-7.7 -1.34,-2.6 -2.35,-5.5 -2.7,-8.4 -0.76,-6.4 0.15,-11.9 0.15,-11.9 z"
     id="path3232"
     style="stroke:none;stroke-width:0.2" /><path
     d="m 2122.517,11545.462 c -0.13,-1.9 1.33,-3.6 3.26,-3.7 1.93,-0.1 3.6,1.3 3.73,3.2 0,0 2.5,6 6.3599,11.1 0.85,1.1 2.02,1.8 3.12,2.6 0.53,0.4 1.08,0.8 1.83,0.8 2.17,0.4 4.59,0.6 7.04,0.6 6.44,0 12.2,-0.3 12.2,-0.3 1.82,-0.6 3.83,0.3 4.46,2.2 0.64,1.8 -0.32,3.8 -2.14,4.4 0,0 -5.45,3.6 -12.12,6.3 -3.19,1.2 -6.57,1.8 -9.63,2.3 -2.9,0.1 -5.5299,-0.4 -7.7999,-1.5 -3.31,-1.7 -6.07,-4.3 -7.76,-7.7 -1.34,-2.6 -2.35,-5.5 -2.7,-8.4 -0.76,-6.4 0.15,-11.9 0.15,-11.9 z"
     id="path3234"
     style="stroke:none;stroke-width:0.2" /><path
     d="m 2234.784,11527.716 c -0.13,-1.9 1.33,-3.6 3.26,-3.7 1.93,-0.1 3.6,1.3 3.73,3.2 0,0 2.4999,6 6.3599,11.1 0.85,1.1 2.02,1.8 3.12,2.6 0.53,0.4 1.08,0.8 1.83,0.8 2.17,0.4 4.59,0.6 7.04,0.6 6.44,0 12.2,-0.3 12.2,-0.3 1.82,-0.6 3.83,0.3 4.46,2.2 0.64,1.8 -0.32,3.8 -2.14,4.4 0,0 -5.45,3.6 -12.12,6.3 -3.19,1.2 -6.57,1.8 -9.63,2.3 -2.9,0.1 -5.53,-0.4 -7.8,-1.5 -3.3099,-1.7 -6.0699,-4.3 -7.7599,-7.7 -1.34,-2.6 -2.35,-5.5 -2.7,-8.4 -0.76,-6.4 0.15,-11.9 0.15,-11.9 z"
     id="path3236"
     style="stroke:none;stroke-width:0.2" /><path
     d="m 2163.7998,11538.925 c -0.13,-1.9 1.33,-3.6 3.26,-3.7 1.93,-0.1 3.6,1.3 3.73,3.2 0,0 1.9,6.3 5.5,11.5 1.35,1.9 3.2,3.4 5.81,3.1 1.57,0 4.18,-0.7 7.42,-1.2 2.62,-0.4 5.56,-0.7 8.6099,-1 4.5,-0.5 9.1,-0.8 13.27,-1.2 7.65,-0.6 13.43,-0.9 13.43,-0.9 1.88,-0.4 3.77,0.7 4.23,2.6 0.46,1.9 -0.69,3.8 -2.57,4.2 0,0 -5.34,2.4 -12.59,5.2 -4,1.5 -8.42,3.1 -12.84,4.5 -3.1,1 -6.1299,1.8 -8.8899,2.3 -4.4,0.8 -8.11,0.9 -10.26,0.8 -6.87,-0.8 -11.98,-4.1 -14.75,-9.6 -1.62,-3.2 -2.7,-6.7 -3.1,-10.1 -0.64,-5.4 -0.26,-9.7 -0.26,-9.7 z"
     id="path3238"
     style="stroke:none;stroke-width:0.2" /><path
     d="m 1623.6638,11605.535 c 0.04,-1.9 1.64,-3.5 3.58,-3.4 1.93,0 3.47,1.6 3.43,3.6 0,0 1.54,3.7 4.0199,7.6 0.87,1.4 2.29,2.2 3.98,2.7 0.43,0.2 0.89,0.3 1.44,0.3 2.75,0.5 5.92,0.6 8.97,0.6 5.68,-0.1 10.26,-0.1 10.26,-0.1 1.83,-0.7 3.83,0.3 4.47,2.1 0.64,1.8 -0.33,3.8 -2.15,4.5 0,0 -5.37,3.7 -12.08,6.4 -3.19,1.3 -6.6,1.9 -9.67,2.3 -2.48,0 -4.71,-0.3 -6.61,-1.1 -3.3999,-1.5 -6.1399,-3.7 -7.7499,-6.6 -1.39,-2.6 -2.47,-5.2 -2.69,-8 -0.45,-5.9 0.8,-10.9 0.8,-10.9 z"
     id="path3240"
     style="stroke:none;stroke-width:0.2" /><path
     d="m 1664.0129,11596.223 c 0.04,-1.9 1.64,-3.5 3.58,-3.4 1.93,0 3.47,1.6 3.43,3.6 0,0 1.54,3.7 4.02,7.6 0.87,1.4 2.2899,2.2 3.9799,2.7 0.43,0.2 0.89,0.3 1.44,0.3 2.75,0.5 5.92,0.6 8.97,0.6 5.68,-0.1 10.26,-0.1 10.26,-0.1 1.83,-0.7 3.83,0.3 4.47,2.1 0.64,1.8 -0.33,3.8 -2.15,4.5 0,0 -5.37,3.7 -12.08,6.4 -3.19,1.3 -6.6,1.9 -9.67,2.3 -2.48,0 -4.7099,-0.3 -6.6099,-1.1 -3.4,-1.5 -6.14,-3.7 -7.75,-6.6 -1.39,-2.6 -2.47,-5.2 -2.69,-8 -0.45,-5.9 0.8,-10.9 0.8,-10.9 z"
     id="path3242"
     style="stroke:none;stroke-width:0.2" /><path
     d="m 1709.7793,11589.684 c 0.04,-1.9 1.64,-3.5 3.58,-3.4 1.93,0 3.47,1.6 3.43,3.6 0,0 1.54,3.7 4.02,7.6 0.87,1.4 2.2899,2.2 3.9799,2.7 0.43,0.2 0.89,0.3 1.44,0.3 2.75,0.5 5.92,0.6 8.97,0.6 5.68,-0.1 10.26,-0.1 10.26,-0.1 1.83,-0.7 3.83,0.3 4.47,2.1 0.64,1.8 -0.33,3.8 -2.15,4.5 0,0 -5.37,3.7 -12.08,6.4 -3.19,1.3 -6.6,1.9 -9.67,2.3 -2.48,0 -4.7099,-0.3 -6.6099,-1.1 -3.4,-1.5 -6.14,-3.7 -7.75,-6.6 -1.39,-2.6 -2.47,-5.2 -2.69,-8 -0.45,-5.9 0.8,-10.9 0.8,-10.9 z"
     id="path3244"
     style="stroke:none;stroke-width:0.2" /><path
     d="m 1750.8758,11580.372 c 0.04,-1.9 1.64,-3.5 3.58,-3.4 1.93,0 3.47,1.6 3.43,3.6 0,0 1.54,3.7 4.02,7.6 0.87,1.4 2.29,2.2 3.9799,2.7 0.43,0.2 0.89,0.3 1.44,0.3 2.75,0.5 5.92,0.6 8.97,0.6 5.68,-0.1 10.26,-0.1 10.26,-0.1 1.83,-0.7 3.83,0.3 4.47,2.1 0.64,1.8 -0.33,3.8 -2.15,4.5 0,0 -5.37,3.7 -12.08,6.4 -3.19,1.3 -6.6,1.9 -9.67,2.3 -2.4799,0 -4.7099,-0.3 -6.6099,-1.1 -3.4,-1.5 -6.14,-3.7 -7.75,-6.6 -1.39,-2.6 -2.47,-5.2 -2.69,-8 -0.45,-5.9 0.8,-10.9 0.8,-10.9 z"
     id="path3246"
     style="stroke:none;stroke-width:0.2" /><path
     d="m 1791.9721,11573.648 c 0.04,-1.9 1.64,-3.5 3.58,-3.4 1.93,0 3.47,1.6 3.43,3.6 0,0 1.54,3.7 4.02,7.6 0.87,1.4 2.29,2.2 3.98,2.7 0.43,0.2 0.89,0.3 1.44,0.3 2.75,0.5 5.92,0.6 8.97,0.6 5.68,-0.1 10.26,-0.1 10.26,-0.1 1.83,-0.7 3.8299,0.3 4.4699,2.1 0.64,1.8 -0.33,3.8 -2.1499,4.5 0,0 -5.37,3.7 -12.08,6.4 -3.19,1.3 -6.6,1.9 -9.67,2.3 -2.48,0 -4.71,-0.3 -6.61,-1.1 -3.4,-1.5 -6.14,-3.7 -7.75,-6.6 -1.39,-2.6 -2.47,-5.2 -2.69,-8 -0.45,-5.9 0.8,-10.9 0.8,-10.9 z"
     id="path3248"
     style="stroke:none;stroke-width:0.2" /><path
     d="m 1832.1344,11566.549 c 0.04,-1.9 1.64,-3.5 3.58,-3.4 1.93,0 3.47,1.6 3.43,3.6 0,0 1.54,3.7 4.02,7.6 0.87,1.4 2.29,2.2 3.98,2.7 0.43,0.2 0.89,0.3 1.44,0.3 2.75,0.5 5.92,0.6 8.97,0.6 5.68,-0.1 10.26,-0.1 10.26,-0.1 1.83,-0.7 3.83,0.3 4.47,2.1 0.6399,1.8 -0.33,3.8 -2.15,4.5 0,0 -5.37,3.7 -12.08,6.4 -3.19,1.3 -6.6,1.9 -9.67,2.3 -2.48,0 -4.71,-0.3 -6.61,-1.1 -3.4,-1.5 -6.14,-3.7 -7.75,-6.6 -1.39,-2.6 -2.4699,-5.2 -2.6899,-8 -0.45,-5.9 0.7999,-10.9 0.7999,-10.9 z"
     id="path3250"
     style="stroke:none;stroke-width:0.2" /><path
     d="m 1876.9669,11559.45 c 0.04,-1.9 1.64,-3.5 3.58,-3.4 1.93,0 3.47,1.6 3.43,3.6 0,0 1.54,3.7 4.02,7.6 0.87,1.4 2.29,2.2 3.98,2.7 0.43,0.2 0.89,0.3 1.44,0.3 2.75,0.5 5.92,0.6 8.9699,0.6 5.68,-0.1 10.26,-0.1 10.26,-0.1 1.83,-0.7 3.83,0.3 4.47,2.1 0.64,1.8 -0.33,3.8 -2.15,4.5 0,0 -5.37,3.7 -12.08,6.4 -3.1899,1.3 -6.5999,1.9 -9.6699,2.3 -2.48,0 -4.71,-0.3 -6.61,-1.1 -3.4,-1.5 -6.14,-3.7 -7.75,-6.6 -1.39,-2.6 -2.47,-5.2 -2.69,-8 -0.45,-5.9 0.8,-10.9 0.8,-10.9 z"
     id="path3252"
     style="stroke:none;stroke-width:0.2" /><path
     d="m 1916.569,11551.418 c 0.04,-1.9 1.64,-3.5 3.58,-3.4 1.93,0 3.47,1.6 3.43,3.6 0,0 1.54,3.7 4.02,7.6 0.87,1.4 2.29,2.2 3.98,2.7 0.43,0.2 0.89,0.3 1.44,0.3 2.75,0.5 5.92,0.6 8.97,0.6 5.6799,-0.1 10.2599,-0.1 10.2599,-0.1 1.83,-0.7 3.83,0.3 4.47,2.1 0.64,1.8 -0.33,3.8 -2.15,4.5 0,0 -5.37,3.7 -12.0799,6.4 -3.19,1.3 -6.6,1.9 -9.67,2.3 -2.48,0 -4.71,-0.3 -6.61,-1.1 -3.4,-1.5 -6.14,-3.7 -7.75,-6.6 -1.39,-2.6 -2.47,-5.2 -2.69,-8 -0.45,-5.9 0.8,-10.9 0.8,-10.9 z"
     id="path3254"
     style="stroke:none;stroke-width:0.2" /><path
     d="m 1957.1049,11545.254 c 0.04,-1.9 1.64,-3.5 3.58,-3.4 1.93,0 3.47,1.6 3.43,3.6 0,0 1.54,3.7 4.02,7.6 0.87,1.4 2.2899,2.2 3.9799,2.7 0.43,0.2 0.89,0.3 1.44,0.3 2.75,0.5 5.92,0.6 8.97,0.6 5.68,-0.1 10.26,-0.1 10.26,-0.1 1.83,-0.7 3.83,0.3 4.47,2.1 0.64,1.8 -0.33,3.8 -2.15,4.5 0,0 -5.37,3.7 -12.08,6.4 -3.19,1.3 -6.6,1.9 -9.67,2.3 -2.48,0 -4.7099,-0.3 -6.6099,-1.1 -3.4,-1.5 -6.14,-3.7 -7.75,-6.6 -1.39,-2.6 -2.47,-5.2 -2.69,-8 -0.45,-5.9 0.8,-10.9 0.8,-10.9 z"
     id="path3256"
     style="stroke:none;stroke-width:0.2" /><path
     d="m 1997.6405,11537.595 c 0.04,-1.9 1.64,-3.5 3.58,-3.4 1.93,0 3.47,1.6 3.43,3.6 0,0 1.54,3.7 4.02,7.6 0.87,1.4 2.29,2.2 3.98,2.7 0.43,0.2 0.89,0.3 1.44,0.3 2.75,0.5 5.92,0.6 8.97,0.6 5.68,-0.1 10.26,-0.1 10.26,-0.1 1.8299,-0.7 3.8299,0.3 4.4699,2.1 0.64,1.8 -0.33,3.8 -2.15,4.5 0,0 -5.3699,3.7 -12.0799,6.4 -3.19,1.3 -6.6,1.9 -9.67,2.3 -2.48,0 -4.71,-0.3 -6.61,-1.1 -3.4,-1.5 -6.14,-3.7 -7.75,-6.6 -1.39,-2.6 -2.47,-5.2 -2.69,-8 -0.45,-5.9 0.8,-10.9 0.8,-10.9 z"
     id="path3258"
     style="stroke:none;stroke-width:0.2" /><path
     d="m 2037.8033,11529.189 c 0.04,-1.9 1.64,-3.5 3.58,-3.4 1.93,0 3.47,1.6 3.43,3.6 0,0 1.54,3.7 4.02,7.6 0.87,1.4 2.29,2.2 3.98,2.7 0.43,0.2 0.89,0.3 1.44,0.3 2.75,0.5 5.92,0.6 8.9699,0.6 5.68,-0.1 10.26,-0.1 10.26,-0.1 1.83,-0.7 3.83,0.3 4.47,2.1 0.64,1.8 -0.33,3.8 -2.15,4.5 0,0 -5.37,3.7 -12.08,6.4 -3.1899,1.3 -6.5999,1.9 -9.6699,2.3 -2.48,0 -4.71,-0.3 -6.61,-1.1 -3.4,-1.5 -6.14,-3.7 -7.75,-6.6 -1.39,-2.6 -2.47,-5.2 -2.69,-8 -0.45,-5.9 0.8,-10.9 0.8,-10.9 z"
     id="path3260"
     style="stroke:none;stroke-width:0.2" /><path
     d="m 2077.0323,11522.277 c 0.04,-1.9 1.64,-3.5 3.58,-3.4 1.93,0 3.47,1.6 3.43,3.6 0,0 1.54,3.7 4.02,7.6 0.87,1.4 2.29,2.2 3.98,2.7 0.43,0.2 0.89,0.3 1.44,0.3 2.75,0.5 5.92,0.6 8.97,0.6 5.68,-0.1 10.2599,-0.1 10.2599,-0.1 1.83,-0.7 3.83,0.3 4.47,2.1 0.64,1.8 -0.33,3.8 -2.15,4.5 0,0 -5.3699,3.7 -12.0799,6.4 -3.19,1.3 -6.6,1.9 -9.67,2.3 -2.48,0 -4.71,-0.3 -6.61,-1.1 -3.4,-1.5 -6.14,-3.7 -7.75,-6.6 -1.39,-2.6 -2.47,-5.2 -2.69,-8 -0.45,-5.9 0.8,-10.9 0.8,-10.9 z"
     id="path3262"
     style="stroke:none;stroke-width:0.2" /><path
     d="m 2117.5678,11515.552 c 0.04,-1.9 1.64,-3.5 3.58,-3.4 1.93,0 3.47,1.6 3.43,3.6 0,0 1.54,3.7 4.02,7.6 0.87,1.4 2.29,2.2 3.98,2.7 0.43,0.2 0.89,0.3 1.44,0.3 2.7499,0.5 5.9199,0.6 8.9699,0.6 5.68,-0.1 10.26,-0.1 10.26,-0.1 1.83,-0.7 3.83,0.3 4.47,2.1 0.64,1.8 -0.33,3.8 -2.15,4.5 0,0 -5.37,3.7 -12.08,6.4 -3.19,1.3 -6.6,1.9 -9.6699,2.3 -2.48,0 -4.71,-0.3 -6.61,-1.1 -3.4,-1.5 -6.14,-3.7 -7.75,-6.6 -1.39,-2.6 -2.47,-5.2 -2.69,-8 -0.45,-5.9 0.8,-10.9 0.8,-10.9 z"
     id="path3264"
     style="stroke:none;stroke-width:0.2" /><path
     d="m 2154.1799,11507.706 c 0.04,-1.9 1.64,-3.5 3.58,-3.4 1.93,0 3.47,1.6 3.43,3.6 0,0 1.54,3.7 4.02,7.6 0.87,1.4 2.29,2.2 3.98,2.7 0.43,0.2 0.89,0.3 1.44,0.3 2.75,0.5 5.92,0.6 8.97,0.6 5.68,-0.1 10.26,-0.1 10.26,-0.1 1.8299,-0.7 3.8299,0.3 4.4699,2.1 0.64,1.8 -0.33,3.8 -2.15,4.5 0,0 -5.3699,3.7 -12.0799,6.4 -3.19,1.3 -6.6,1.9 -9.67,2.3 -2.48,0 -4.71,-0.3 -6.61,-1.1 -3.4,-1.5 -6.14,-3.7 -7.75,-6.6 -1.39,-2.6 -2.47,-5.2 -2.69,-8 -0.45,-5.9 0.8,-10.9 0.8,-10.9 z"
     id="path3266"
     style="stroke:none;stroke-width:0.2" /><path
     d="m 2192.6616,11500.048 c 0.04,-1.9 1.64,-3.5 3.58,-3.4 1.93,0 3.47,1.6 3.43,3.6 0,0 1.54,3.7 4.02,7.6 0.87,1.4 2.2899,2.2 3.9799,2.7 0.43,0.2 0.89,0.3 1.44,0.3 2.75,0.5 5.92,0.6 8.97,0.6 5.68,-0.1 10.26,-0.1 10.26,-0.1 1.83,-0.7 3.83,0.3 4.47,2.1 0.64,1.8 -0.33,3.8 -2.15,4.5 0,0 -5.37,3.7 -12.08,6.4 -3.19,1.3 -6.6,1.9 -9.67,2.3 -2.48,0 -4.7099,-0.3 -6.6099,-1.1 -3.4,-1.5 -6.14,-3.7 -7.75,-6.6 -1.39,-2.6 -2.47,-5.2 -2.69,-8 -0.45,-5.9 0.8,-10.9 0.8,-10.9 z"
     id="path3268"
     style="stroke:none;stroke-width:0.2" /><path
     d="m 2230.7705,11491.455 c 0.04,-1.9 1.64,-3.5 3.58,-3.4 1.93,0 3.47,1.6 3.43,3.6 0,0 1.54,3.7 4.02,7.6 0.87,1.4 2.29,2.2 3.98,2.7 0.43,0.2 0.89,0.3 1.44,0.3 2.75,0.5 5.92,0.6 8.97,0.6 5.6799,-0.1 10.2599,-0.1 10.2599,-0.1 1.83,-0.7 3.83,0.3 4.47,2.1 0.64,1.8 -0.33,3.8 -2.15,4.5 0,0 -5.37,3.7 -12.0799,6.4 -3.19,1.3 -6.6,1.9 -9.67,2.3 -2.48,0 -4.71,-0.3 -6.61,-1.1 -3.4,-1.5 -6.14,-3.7 -7.75,-6.6 -1.39,-2.6 -2.47,-5.2 -2.69,-8 -0.45,-5.9 0.8,-10.9 0.8,-10.9 z"
     id="path3270"
     style="stroke:none;stroke-width:0.2" /><path
     d="m 1724.6215,11774.104 c -0.13,-1.9 1.33,-3.6 3.26,-3.7 1.93,-0.1 3.6,1.3 3.73,3.2 0,0 2.06,6.2 5.7,11.4 1.32,1.9 3.1,3.3 5.6099,3 1.14,0 2.74,-0.4 4.65,-0.6 2.58,-0.4 5.56,-0.7 8.67,-1 10.93,-1.1 22.74,-2.1 22.74,-2.1 1.86,-0.5 3.7999,0.5 4.3399,2.4 0.54,1.8 -0.53,3.8 -2.3899,4.3 0,0 -5.56,2.9 -12.74,6 -2.81,1.2 -5.76,2.4 -8.75,3.4 -3.26,1.2 -6.44,2.1 -9.25,2.7 -3.02,0.6 -5.64,0.7 -7.46,0.6 -6.9499,-0.8 -12.1499,-4.1 -14.9299,-9.7 -1.62,-3.2 -2.69,-6.8 -3.05,-10.2 -0.58,-5.4 -0.13,-9.7 -0.13,-9.7 z"
     id="path3272"
     style="stroke:none;stroke-width:0.2" /><path
     d="m 2000.8262,11471.011 c 7.54,-6.6 20.39,-13.4 40.9199,-17.6 14.98,-3 27.3499,-7 37.9699,-11.5 16.97,-7.1 29.5299,-15.3 41.1499,-22.5 15,-9.2 28.5999,-16.7 46.9899,-18.8 21.1799,-2.3 34.5199,2.5 41.9299,9.1 10.77,9.5 10.6,23.1 3.7,31.5 -2.92,3.5 -5.01,6.6 -6.04,9.4 -0.48,1.3 -1.1,2.3 -0.53,3.1 0.35,0.5 1.01,0.7 1.82,0.9 1.81,0.5 4.13,0.6 7,0.4 12.1999,-0.9 27.4699,-1.8 41.1099,0.2 10.5999,1.5 20.2499,4.7 27.0999,10.5 3.11,2.6 4.34,6 4.79,9.9 0.36,3.1 -0.09,6.7 1.52,9.8 1.11,2.1 3.36,3.8 7.6,5.1 11.7099,3.6 18.7099,9.4 23.1999,16 4.1,6 6.11,12.7 7.6,19.3 1.49,6.5 2.4,12.8 5.08,17.6 0.96,1.7 0.38,3.9 -1.3,4.8 -1.68,1 -3.82,0.4 -4.78,-1.3 -5.54,-9.4 -4.87,-24.3 -13.16,-35.8 -3.75,-5.2 -9.5799,-9.6 -19.0799,-12.3 -7.45,-2.1 -11.05,-5.5 -13.06,-9.2 -1.93,-3.5 -2.23,-7.4 -2.58,-11.2 -0.2,-2.1 -0.15,-4.1 -1.82,-5.5 -5.7,-4.6 -13.7199,-6.7 -22.3999,-7.8 -12.95,-1.5 -27.38,-0.3 -38.8899,0.8 -9.99,1 -15.93,-1.7 -18.75,-5.3 -2.18,-2.8 -3.01,-6.5 -2.11,-11 0.87,-4.3 3.72,-9.8 8.52,-15.9 3.93,-4.9 2.04,-13.1 -6.77,-17.4 -6.23,-3.1 -15.4399,-4.3 -28.1499,-2.6 -16.21,2 -27.9899,9.1 -41.1099,17.5 -12.05,7.8 -25.0999,16.6 -42.7799,24.3 -11.34,5 -24.5799,9.4 -40.6399,12.9 -9.32,2 -16.76,4.6 -22.6299,7.4 -1.16,0.5 -2.26,1.1 -3.29,1.7 5.7199,4.3 7.0699,9.6 6.5199,13.4 -0.52,3.7 -2.6699,7.3 -6.4499,9.8 -1.55,1.1 -3.42,1.9 -5.55,2.6 10.4599,-1.4 20.7299,-2.8 30.5999,-4.2 16.73,-2.2 28.1999,-2.9 35.9199,-1.8 8.55,1.1 13.1,4.2 15.41,8.7 0.9,1.7 0.24,3.9 -1.47,4.8 -1.71,0.9 -3.83,0.2 -4.73,-1.5 -1.96,-3.6 -6.44,-4.8 -14.73,-4.9 -7.05,-0.1 -16.5199,0.9 -29.1599,3 -48.8899,7.9 -107.4897,17 -151.7996,22.8 -34.1599,4.5 -60.0399,6.9 -67.1299,6 -7.6599,-1.1 -13.3199,-3.3 -16.2099,-5.7 -2.95,-2.4 -4.08,-5.4 -4.04,-8.3 0.03,-2.4 0.93,-5 3.46,-7.6 2.35,-2.5 6.95,-5.4 14.5299,-8.1 23.86,-8.7 67.2199,-21.1 106.5098,-28.9 28.0999,-5.5 54.2098,-8.4 70.1898,-6.6 z m 5.5,33.2 c -1.83,0 -3.75,-0.2 -5.72,-0.7 -6.21,-1.5 -11.64,-8.3 -9.74,-17.3 -14.6199,-0.3 -35.2599,2.6 -57.2898,6.7 -38.5699,7.3 -81.2498,18.7 -104.7298,26.9 -1.82,0.6 -3.76,1.2 -5.43,1.8 1.53,0.5 3.27,0.9 4.92,1.2 6.69,1 31.25,-1.1 63.7399,-4.7 33.3699,-3.6 74.8798,-8.7 114.2497,-13.9 z m -186.3195,18.8 c -0.76,0.5 -1.04,0.9 -0.54,1.3 0.52,0.5 0.58,-0.4 0.54,-1.3 z m 186.2195,-33.8 c -0.23,0.5 -0.27,0.8 0.12,0.9 0.6,0 0.39,-0.4 -0.12,-0.9 z m -2,-1.2 z"
     id="path3274"
     style="stroke:none;stroke-width:0.2" /><path
     d="m 2343.9954,11573.811 c 0.57,0.4 1.21,0.6 1.91,0.5 2.7399,-0.4 5.4699,-1.7 7.2299,-2.7 1.55,-1.2 3.75,-0.8 4.9,0.7 1.15,1.6 0.83,3.8 -0.73,4.9 -2.52,2.4 -6.93,5.7 -11.4599,6.8 -3.92,0.9 -7.74,-0.3 -11.4,-3.7 -3.9,-3.7 -10.64,-9.7 -14.65,-15.4 -3.1,-4.5 -4.21,-9.2 -3.9,-12.9 0.75,-5.8 4.69,-10.8 9.97,-13.3 5.62,-2.7 12.28,-2.7 16.57,0.1 3.62,2.5 9.6399,9 12.2199,14.8 2.24,5.1 2.38,9.7 0.29,12.3 -1.12,1.4 -2.93,3.1 -5.27,4.6 -1.81,1.2 -3.8299,2.4 -5.6799,3.3 z m -5.09,-6.7 c 1.09,-0.9 2.26,-2 3.38,-3 1,-1 1.9,-2 2.57,-2.8 0.01,0 0.06,0 0.17,0 0.26,0 0.26,-0.2 0.12,-0.4 0.22,-0.4 0.41,-0.7 0.55,-1 -0.1,0.3 -0.39,0.6 -0.6,0.9 -0.38,-0.6 -1.44,-1.4 -1.97,-2.1 -2.22,-2.9 -5.66,-5.8 -7.88,-6.9 -0.05,-0.6 -1.73,0.7 -2.51,1.2 -0.45,0.3 -1.06,0.5 -1.17,1 0.02,-0.1 0.03,-0.2 -0.05,-0.2 -0.75,0 0.28,1.6 0.69,2.4 0.77,1.7 1.74,3.5 2.86,5.3 1.25,1.9 2.57,3.8 3.84,5.6 z m -7.34,-13.1 c -0.01,0 -0.01,0 -0.01,0.1 0,-0.1 0,-0.1 0.01,-0.1 z m 3.68,-2.2 c 0,0 0,0.1 -0.01,0.1 -0.02,0.1 -0.13,-0.2 -0.23,-0.2 0.08,0 0.16,0.1 0.24,0.1 z m 9.61,9.5 c -0.01,-0.1 0.1,-0.3 0.24,-0.5 0.02,0 0.03,0 0.05,0.1 -0.09,0.1 -0.19,0.2 -0.29,0.4 z"
     id="path3276"
     style="stroke:none;stroke-width:0.2" /><path
     d="m 2336.2654,11573.811 c -5.43,-6.1 -13.3,-15 -12.54,-20.8 0.89,-6.7 10.21,-10.5 15,-7.8 4.78,2.8 14.2199,13.7 11.5899,17.7 -2.63,4.1 -14.0499,10.9 -14.0499,10.9 z"
     id="path3278"
     style="stroke:none;stroke-width:0.2" /></g>&#10;</svg>
