<?xml version="1.0" encoding="UTF-8" standalone="no"?>
<svg
   width="2798.5625"
   height="2742.9668"
   viewBox="0 0 2798.5625 2742.9668"
   version="1.1"
   xml:space="preserve"
   style="clip-rule:evenodd;fill-rule:evenodd;stroke-linejoin:round;stroke-miterlimit:2"
   id="svg5353"
   xmlns="http://www.w3.org/2000/svg"
   xmlns:svg="http://www.w3.org/2000/svg"><defs
   id="defs5353" />&#10;    <g
   id="vectorly-UNI-rooster"
   transform="matrix(4.9999999,0,0,4.9999999,-8673.9037,-76733.466)"
   style="stroke-width:0.2"><path
     d="m 1753.3868,15374.91 c 0.57,-1.8 2.53,-2.9 4.38,-2.3 1.85,0.6 2.89,2.5 2.33,4.4 0,0 0.29,5.7 0.52,13.5 0.08,2.7 0.33,5.5 0.27,8.5 -0.04,2.2 -0.38,4.4 -0.43,6.6 -0.05,2.2 -0.4,4.2 -0.08,6.2 0.4,2.5 0.53,4.9 2.22,6.7 1.61,1.1 2.05,3.3 0.97,4.9 -1.07,1.6 -3.25,2 -4.86,1 -5.53,-2.1 -8.8,-6.9 -11.4,-12.7 -0.92,-2.1 -1.45,-4.3 -1.89,-6.7 -0.39,-2.1 -0.58,-4.4 -0.48,-6.6 0.1,-2.1 0.47,-4.3 0.98,-6.3 0.66,-2.6 1.44,-5 2.37,-7.2 2.62,-6.2 5.1,-10 5.1,-10 z"
     id="path4290"
     style="stroke:none;stroke-width:0.2" /><path
     d="m 1754.3868,15425.41 c 0.92,-0.3 1.84,-0.6 2.78,-0.8 5.77,-1.7 11.39,-2.4 15.92,-0.9 1.92,0.3 3.25,2.1 2.98,4 -0.28,1.9 -2.05,3.2 -3.97,3 -3.31,0.1 -6.48,2.5 -9.93,4.8 -3.24,2.1 -6.12,4.8 -8.68,6.8 -3.28,2.7 -5.65,4.6 -5.65,4.6 -2.62,2.2 -6.3299,2.5 -9.2399,0.7 -2.9,-1.8 -4.36,-5.2 -3.63,-8.5 0,0 1.95,-7.5 6.6599,-14.6 3.09,-4.8 6.91,-9.2 11.5,-11.9 1.44,-1.3 3.66,-1.2 4.95,0.2 1.29,1.5 1.17,3.7 -0.27,5 -1.63,2.2 -2.55,4.8 -3.42,7.6 z"
     id="path4292"
     style="stroke:none;stroke-width:0.2" /><path
     d="m 1766.4268,15351.91 c -0.92,-1.7 -0.29,-3.9 1.41,-4.8 1.7,-0.9 3.83,-0.3 4.75,1.4 0,0 2.14,2.2 4.94,6.9 0.88,1.5 1.56,3.1 2.3,5.1 0.62,1.6 1.01,3.4 1.32,5.4 0.19,1.2 0.29,2.5 0.22,3.7 -0.13,2.3 -0.56,4.5 -1.38,6.9 -0.69,2 -1.45,3.9 -2.63,5.9 -1.57,2.6 -3.18,5 -5.51,7.6 -0.83,1.7 -2.92,2.5 -4.67,1.7 -1.75,-0.9 -2.49,-3 -1.66,-4.7 0.57,-3.5 0.36,-6.3 0.33,-9.3 -0.01,-1.3 -0.18,-2.4 -0.2,-3.5 -0.02,-1.8 -0.31,-3.4 -0.27,-5 0.07,-2.5 0.48,-4.6 0.59,-6.6 0.38,-6.7 0.46,-10.7 0.46,-10.7 z"
     id="path4294"
     style="stroke:none;stroke-width:0.2" /><path
     d="m 1786.5867,15353.61 c -0.65,-1.8 0.31,-3.8 2.13,-4.4 1.82,-0.7 3.83,0.3 4.47,2.1 0,0 1.68,2.1 3.94,5.9 0.77,1.4 1.36,2.7 2.01,4.4 0.57,1.4 0.93,3 1.22,4.6 0.2,1.1 0.3,2.2 0.24,3.3 -0.14,2.2 -0.57,4.3 -1.41,6.4 -0.63,1.5 -1.18,2.9 -2.16,4.2 -2.36,3.2 -4.54,5.9 -8.38,7.4 -1.49,1.2 -3.7,1 -4.94,-0.5 -1.25,-1.4 -1.05,-3.7 0.43,-4.9 1.28,-2.1 0.9,-4.2 1.03,-6.5 0.05,-0.9 -0.22,-1.7 -0.23,-2.5 0,-1.4 -0.36,-2.6 -0.33,-3.9 0.05,-2.1 0.45,-3.9 0.64,-5.8 0.59,-5.8 1.34,-9.8 1.34,-9.8 z"
     id="path4296"
     style="stroke:none;stroke-width:0.2" /><path
     d="m 1777.9568,15408.71 c -1.24,1.4 -3.45,1.6 -4.94,0.4 -1.48,-1.2 -1.67,-3.5 -0.43,-4.9 4.37,-5.9 20.4799,-13.9 40.0799,-8 10.4699,3.1 21.8099,10.5 32.8499,24.3 9.03,11.9 16.48,24.7 21.7299,36.9 7.83,18.1 11.17,34.4 11.86,41.6 0.66,8.4 0.11,16.5 -1.23,24.2 -2.42,13.9 -7.12,26.3 -9.52,36.2 -1.31,5.4 -2.15,9.8 -0.78,13.3 0.82,1.7 0.05,3.8 -1.7,4.6 -1.76,0.8 -3.8399,0.1 -4.6599,-1.7 -1.31,-2.5 -1.9,-5.4 -2.03,-8.9 -0.31,-8.6 2.98,-20.5 5.1999,-34.3 1.58,-9.8 2.55,-20.5 0.75,-31.7 -0.93,-6.5 -5.4499,-20.6 -12.5599,-36.9 -4.88,-11.2 -10.78,-23.6 -18.67,-34.8 -8.03,-12.1 -16.6699,-19 -24.9499,-22.4 -14.39,-5.9 -27.2099,-2 -30.9999,2.1 z"
     id="path4298"
     style="stroke:none;stroke-width:0.2" /><path
     d="m 1803.0467,15374.11 c -1.32,-1.4 -1.24,-3.6 0.17,-4.9 1.42,-1.4 3.64,-1.3 4.95,0.1 0,0 2.42,1.5 5.65,4.8 1.14,1.2 1.81,2.7 2.7,4.4 0.91,1.8 1.21,3.8 1.41,6.1 0.08,0.9 0.03,1.8 -0.15,2.7 -0.41,2 -1.08,4.1 -2.48,6.1 -0.83,1.1 -1.56,2.3 -2.77,3.3 -2.21,1.9 -4.3,3.6 -7.71,5.1 -1.38,1.4 -3.6,1.4 -4.95,0 -1.36,-1.4 -1.33,-3.6 0.05,-5 0.95,-2.1 1.11,-3.7 1.62,-5.5 0.39,-1.4 0.17,-2.6 0.38,-3.8 0.19,-1 -0.02,-2 0.1,-2.9 0.18,-1.3 0.81,-2.3 0.85,-3.4 0.17,-4.3 0.18,-7.1 0.18,-7.1 z"
     id="path4300"
     style="stroke:none;stroke-width:0.2" /><path
     d="m 1759.1268,15429.61 c -0.43,-1.9 0.75,-3.8 2.63,-4.2 1.89,-0.4 3.77,0.8 4.2,2.6 2.18,6 2.29,11.5 1.62,16.6 -0.86,6.6 -3.44,12.4 -5.72,17.7 -0.84,2 -1.61,3.9 -2.24,5.7 -0.64,1.9 -1.06,3.6 -0.58,5.3 0.24,1.1 1,2.1 2.08,2.6 2.15,1.2 5,1.5 8.02,-0.3 4.75,-2.7 9.73,-8.1 13.8899,-17.9 0.56,-1.9 2.51,-2.9 4.36,-2.4 1.86,0.6 2.91,2.5 2.36,4.4 -1.88,10.5 -5.42,17.7 -9.3299,22.6 -3.04,3.9 -6.58,6.1 -9.96,7.6 -8.18,3.5 -16.31,1 -21.52,-3.7 -2.73,-2.4 -4.52,-5.7 -5.42,-9.2 -0.95,-4.7 -0.38,-9.5 1.81,-14.2 2.03,-4.4 5.31,-8.9 8.3,-13.9 3.21,-5.4 6.34,-11.3 5.5,-19.3 z"
     id="path4302"
     style="stroke:none;stroke-width:0.2" /><path
     d="m 1818.1167,15469.41 c 0.15,-1.9 1.83,-3.3 3.76,-3.2 1.9299,0.2 3.3799,1.9 3.2299,3.8 0,0 0.41,5 -0.31,12.9 -0.35,3.8 -1,8.1 -2.17,12.8 -0.8099,3.2 -1.9299,6.6 -3.3399,9.9 -0.9,2.2 -1.92,4.3 -3.16,6.4 -2.25,3.7 -5.01,7.3 -8.24,10.5 -2.9,3 -6.06,5.7 -9.69,8 -5.01,3.3 -10.46,5.9 -16.7899,7.7 -1.77,0.8 -3.84,0 -4.62,-1.8 -0.79,-1.8 0.02,-3.9 1.79,-4.6 4.5299,-2.9 8.0799,-6.3 11.4199,-9.8 3.48,-3.7 6.15,-7.8 8.67,-11.8 1.59,-2.5 2.98,-5.1 4.38,-7.5 1.51,-2.7 3.02,-5.3 4.34,-7.8 1.82,-3.5 3.48,-6.7 4.84,-9.8 4.02,-9.1 5.89,-15.7 5.89,-15.7 z"
     id="path4304"
     style="stroke:none;stroke-width:0.2" /><path
     d="m 1828.6566,15476.91 c -0.62,-1.8 0.36,-3.8 2.19,-4.4 1.83,-0.7 3.82,0.3 4.45,2.2 0,0 3.02,6.3 5.46,17 1.16,5.1 2.11,11 2.45,17.7 0.24,4.6 0.11,9.4 -0.43,14.5 -0.33,3.1 -0.82,6.3 -1.63,9.5 -1.86,7.4 -4.87,15 -9.22,22.4 -5.51,9.4 -13.0999,18.5 -23.2199,26.9 -1.35,1.4 -3.57,1.4 -4.95,0.1 -1.38,-1.4 -1.4,-3.6 -0.05,-5 7.51,-9.3 12.28,-18.8 15.95,-28 2.7599,-6.9 4.4399,-13.6 5.9199,-20 1.72,-7.4 3,-14.4 3.63,-20.7 1.83,-18.7 -0.55,-32.2 -0.55,-32.2 z"
     id="path4306"
     style="stroke:none;stroke-width:0.2" /><path
     d="m 1805.3967,15558.31 c 1.88,-0.4 3.77,0.7 4.22,2.6 0.46,1.9 -0.7,3.8 -2.59,4.2 -3.95,1.6 -9.03,6 -14.13,12.3 -1.87,2.3 -3.56,4.9 -5.29,7.7 -1.53,2.5 -2.86,5.2 -4.23,8.1 -1.4999,3.2 -3.0499,6.5 -4.1799,10.2 -0.72,2.3 -1.45,4.7 -1.95,7.3 -1.17,5.9 -1.87,12.4 -1.23,19.7 0.42,1.9 -0.77,3.8 -2.65,4.2 -1.89,0.5 -3.77,-0.7 -4.19,-2.6 -2.46,-6.6 -3.8,-12.7 -4.41,-18.5 -0.47,-4.7 -0.31,-9 0.23,-13.2 0.66,-5 2.02,-9.7 3.89,-13.9 1.07,-2.4 2.4,-4.6 3.82,-6.6 2.3,-3.3 4.8,-6.3 7.5,-8.7 2.2099,-2.1 4.4099,-3.8 6.6899,-5.3 7.14,-4.7 13.83,-7.1 18.5,-7.5 z"
     id="path4308"
     style="stroke:none;stroke-width:0.2" /><path
     d="m 1827.0366,15571.21 c 1.64,-1 3.81,-0.6 4.83,1.1 1.03,1.6 0.54,3.8 -1.1,4.8 -10.9399,7.9 -14.0699,22.6 -12.2399,39.1 0.77,7 2.57,14.2 5.0899,21.6 2.36,6.9 5.52,13.7 9.14,20.4 5.6,10.4 12.5,20.4 21.08,28.8 12.6399,12.4 28.2999,21.9 47.2999,24.4 1.9299,0.1 3.3799,1.8 3.2399,3.7 -0.15,2 -1.8299,3.4 -3.7599,3.3 -14.92,-0.2 -28.57,-4.3 -40.7299,-10.9 -8.42,-4.6 -16.03,-10.5 -22.77,-17.2 -7.26,-7.3 -13.48,-15.6 -18.3799,-24.4 -2.68,-4.8 -4.91,-9.8 -6.75,-14.9 -2.91,-7.9 -4.92,-16 -5.83,-23.8 -2.89,-24.8 3.91,-46.8 20.8799,-56 z"
     id="path4310"
     style="stroke:none;stroke-width:0.2" /><path
     d="m 1894.1265,15582.51 c -1.21,-1.5 -0.97,-3.8 0.53,-5 1.51,-1.2 3.72,-0.9 4.93,0.6 11.7999,12.8 19.5499,26.3 25.4299,40 4.17,9.8 7.38,19.6 10.45,29.4 2.02,6.4 3.98,12.7 6.08,19 3.0399,9.1 6.3899,18 11.3999,26.5 7.67,13 18.63,25.2 36.7999,36.1 1.72,0.9 2.39,3 1.5,4.7 -0.89,1.7 -3,2.4 -4.72,1.5 -21.3599,-9.5 -35.1899,-21.4 -44.9898,-34.8 -6.54,-9 -11.26,-18.6 -14.97,-28.7 -2.39,-6.5 -4.3,-13.2 -6.09,-20 -2.53,-9.6 -4.76,-19.3 -7.77,-29.2 -4.08,-13.3 -9.25,-26.8 -18.5799,-40.1 z"
     id="path4312"
     style="stroke:none;stroke-width:0.2" /><path
     d="m 1925.8764,15654.61 c -0.97,-1.6 -0.4,-3.8 1.28,-4.8 1.67,-0.9 3.81,-0.4 4.78,1.3 0,0 4.64,5.3 13.1499,11.9 2.8,2.2 6.03,4.3 9.62,6.7 2.55,1.6 5.32,3.2 8.21,4.9 2.64,1.5 5.36,3.1 8.28,4.7 4.51,2.4 9.27,4.8 14.6899,6.7 5,1.8 10.19,3.4 16.06,4.5 1.93,0.1 3.44,1.7 3.36,3.6 -0.08,2 -1.71,3.5 -3.64,3.4 -10.16,0.9 -19.2699,0.3 -27.6099,-1.6 -6.54,-1.5 -12.45,-3.8 -17.65,-6.6 -2.28,-1.3 -4.37,-2.7 -6.32,-4.2 -3.2,-2.4 -6.03,-4.9 -8.4999,-7.4 -3.67,-3.8 -6.56,-7.5 -8.84,-10.8 -4.87,-7.2 -6.87,-12.3 -6.87,-12.3 z"
     id="path4314"
     style="stroke:none;stroke-width:0.2" /><path
     d="m 1868.5665,15520.61 c -0.18,-1.9 1.25,-3.6 3.17,-3.8 1.93,-0.1 3.63,1.3 3.81,3.2 0,0 1.47,2.9 4.91,7.9 1.25,1.8 2.88,3.6 4.62,5.9 1.37,1.8 2.95,3.6 4.53,5.8 1.05,1.4 1.96,3.1 3.07,4.7 1.05,1.6 2.01,3.2 3.18,4.9 2.17,3.1 4.26,6.3 7.1399,9.7 1.54,1.2 1.84,3.4 0.67,5 -1.1699,1.5 -3.3699,1.8 -4.9099,0.6 -5.66,-2.6 -10.29,-5.2 -14.39,-8.3 -3.3,-2.5 -5.99,-5.1 -8.15,-7.9 -0.99,-1.2 -1.77,-2.5 -2.46,-3.8 -1.19,-2.2 -2.14,-4.3 -2.82,-6.4 -0.84,-2.5 -1.42,-4.6 -1.76,-6.7 -1.11,-7 -0.61,-10.8 -0.61,-10.8 z"
     id="path4316"
     style="stroke:none;stroke-width:0.2" /><path
     d="m 1869.3265,15505.21 c -0.85,-1.7 -0.13,-3.8 1.61,-4.7 1.74,-0.8 3.84,-0.1 4.69,1.6 0,0 11.09,18.4 41.3399,40.4 6.44,4.6 13.71,9.5 21.87,14.5 4.7399,2.9 9.7699,5.9 15.0899,8.9 8.98,5.2 18.76,10.7 29.6799,15.9 -0.1899,-3.6 -0.1999,-7.7 0.17,-12.1 0.65,-7.6 2.35,-15.9 6.29,-23 0.82,-1.8 2.91,-2.5 4.66,-1.7 1.75,0.8 2.5,2.9 1.68,4.7 -2.6,6.5 -3.08,13.7 -2.85,20.2 0.38,11.3 3.32,20.5 3.32,20.5 0.57,2.2 -0.16,4.6 -1.89,6.1 -1.73,1.6 -4.17,2 -6.32,1.2 -15.9599,-5.6 -30.1599,-11.4 -42.3999,-17.9 -9.8799,-5.3 -18.4899,-11 -26.0499,-16.6 -9.35,-6.9 -17.03,-13.8 -23.3699,-20.3 -21.12,-21.5 -27.52,-37.7 -27.52,-37.7 z"
     id="path4318"
     style="stroke:none;stroke-width:0.2" /><path
     d="m 1991.6762,15595.31 c -1.89,0.5 -3.76,-0.7 -4.18,-2.6 -0.42,-1.9 0.77,-3.8 2.66,-4.2 0,0 3.64,-2.7 9.67,-5.2 1.3,-0.5 2.65,-0.9 4.13,-1.2 0.93,-0.3 1.89,-0.4 2.86,-0.5 1.9,0 3.75,0.2 5.56,0.6 1.43,0.3 2.7,0.6 3.97,1.2 4.19,1.7 7.37,3.1 9.1799,5.7 1.57,1.1 1.92,3.3 0.78,4.9 -1.13,1.5 -3.3299,1.9 -4.8899,0.8 -0.44,-0.2 -0.83,0.1 -1.35,0.1 -1.17,-0.1 -2.21,0.5 -3.63,0.7 -1.41,0.3 -2.68,0.8 -4.23,1.1 -1.45,0.3 -2.87,0.8 -4.38,0.9 -2.16,0.1 -4.24,-0.2 -6.2,-0.4 -5.99,-0.7 -9.95,-1.9 -9.95,-1.9 z"
     id="path4320"
     style="stroke:none;stroke-width:0.2" /><path
     d="m 2011.0462,15563.11 c 4.44,-2.8 7.53,-4.4 7.53,-4.4 1.66,-1 3.82,-0.4 4.81,1.2 0.9999,1.7 0.4599,3.8 -1.2,4.8 0,0 -7.5,5.5 -14.9,13.9 -3.45,3.9 -6.81,8.5 -9.26,13.5 -0.61,1.4 -0.94,2.1 -0.94,2.1 h -0.01 c -0.09,0.2 -0.17,0.4 -0.25,0.6 -1.54,3.2 -5.27,4.5 -8.5,3.2 -3.22,-1.4 -4.79,-5.1 -3.57,-8.4 0,0 2.13,-7.2 6.04,-18 1.89,-5.2 4.16,-11.2 6.88,-17.6 1.9,-4.5 4.03,-9.2 6.33,-13.8 3.33,-6.8 7,-13.6 10.82,-20.2 11.0299,-18.9 23.1499,-35.2 32.6699,-40.5 1.62,-1 3.79,-0.5 4.84,1.1 1.05,1.6 0.58,3.8 -1.05,4.8 -6.27,4.7 -12.64,16.1 -19.17,29.7 -3.01,6.2 -5.93,12.9 -8.8499,19.6 -2.92,6.7 -5.69,13.5 -8.47,19.9 -1.26,3 -2.52,5.8 -3.75,8.5 z"
     id="path4322"
     style="stroke:none;stroke-width:0.2" /><path
     d="m 2047.8961,15508.71 c -0.6,1.8 -2.58,2.8 -4.42,2.2 -1.84,-0.6 -2.84,-2.6 -2.24,-4.4 10.65,-36 42.7599,-62.5 82.5198,-71.2 21.2799,-4.7 44.7599,-4.2 68.1798,2.7 13.98,4.2 27.87,10.7 41.3399,19.6 15.82,10.9 28.35,23.8 37.7499,38 10.17,15.4 16.79,32.2 20.32,49.3 7.78,37.6 0.6,76 -15.61,102.1 -0.98,1.6 -3.13,2.2 -4.8,1.2 -1.67,-1 -2.23,-3.1 -1.25,-4.8 13.75,-25 18.34,-61.1 9.41,-95.7 -3.92,-15.2 -10.54,-30.1 -20.1999,-43.8 -8.8,-12.4 -20.15,-23.7 -34.4899,-33 -15.22,-10.4 -31.15,-17 -46.9399,-20.8 -17.56,-4.1 -34.9599,-4.6 -51.1799,-1.8 -36.4299,6.2 -66.8798,28.3 -78.3898,60.4 z"
     id="path4324"
     style="stroke:none;stroke-width:0.2" /><path
     d="m 2078.146,15502.71 c -1.64,1 -3.8,0.5 -4.84,-1.1 -1.03,-1.6 -0.54,-3.8 1.09,-4.8 25.87,-18 52.5099,-27.5 77.8498,-29.4 11.81,-0.9 23.34,-0.1 34.3299,2.3 7.63,1.6 15.03,4 22.02,7.1 17.3899,7.9 32.6199,20.2 44.4699,36 15.3999,20.6 25.0899,47.3 26.9099,78.8 0.19,1.9 -1.22,3.6 -3.14,3.8 -1.93,0.2 -3.65,-1.2 -3.84,-3.1 -4.06,-29 -15.1499,-52.8 -30.6099,-71 -11.24,-13.2 -24.9799,-23.1 -40.2899,-29.9 -15.05,-6.6 -31.6099,-10.2 -49.2699,-10 -23.7199,0.2 -49.1898,6.7 -74.6798,21.3 z"
     id="path4326"
     style="stroke:none;stroke-width:0.2" /><path
     d="m 2170.4658,15489.81 c -1.8,-0.7 -2.69,-2.7 -1.98,-4.5 0.7,-1.9 2.74,-2.7 4.54,-2 16.4299,5.6 38.8999,26.6 54.0798,56.8 4.61,9.2 8.45,19.2 11.26,29.8 1.79,6.8 3.17,13.8 3.89,21 1.69,17 0.32,35 -5.12,53.1 -6.78,22.4 -19.9799,45 -41.5999,66.1 -1.32,1.4 -3.54,1.5 -4.96,0.1 -1.41,-1.3 -1.48,-3.5 -0.15,-4.9 18.4,-21.4 28.58,-43.5 33.51,-64.8 3.7999,-16.5 4.1099,-32.6 2.4099,-47.9 -1.1399,-10.2 -3.0899,-20.1 -5.8799,-29.5 -3.02,-10.1 -6.81,-19.6 -11.18,-28.2 -11.49,-22.7 -26.3899,-39.5 -38.8199,-45.1 z"
     id="path4328"
     style="stroke:none;stroke-width:0.2" /><path
     d="m 2148.3458,15494.21 c -1.81,-0.7 -2.75,-2.7 -2.09,-4.5 0.67,-1.8 2.68,-2.8 4.5,-2.1 14.28,3.8 26.49,12.1 36.1899,23.1 3.84,4.4 7.14,9.2 10.01,14.3 1.9,3.4 3.6,6.9 4.96,10.6 3.39,9 5.29,18.7 5.77,28.2 0.75,15.1 -1.98,29.7 -7.9,41.9 -0.7,1.8 -2.73,2.7 -4.53,2 -1.81,-0.7 -2.71,-2.7 -2.01,-4.5 2.85,-9.8 3.14,-20.6 1.82,-31.6 -0.62,-5.2 -1.71,-10.3 -3.06,-15.5 -1.33,-5 -3.07,-9.9 -5,-14.7 -1.22,-3.1 -2.4899,-6.2 -3.9099,-9.2 -2.14,-4.5 -4.53,-8.9 -7.27,-13 -7.03,-10.5 -15.87,-19.6 -27.48,-25 z"
     id="path4330"
     style="stroke:none;stroke-width:0.2" /><path
     d="m 2113.2959,15494.41 c -1.93,-0.2 -3.4,-1.8 -3.27,-3.8 0.13,-1.9 1.79,-3.4 3.72,-3.2 19.07,-0.1 35.9499,9.8 48.9099,25.2 4.7,5.6 8.76,12 12.2,18.9 2.2,4.4 4.14,9 5.66,13.8 3.74,11.7 5.5399,24.2 5.3299,36.5 -0.33,19.3 -5.5899,37.9 -16.0899,52.2 -1.04,1.6 -3.21,2.1 -4.84,1 -1.63,-1 -2.11,-3.2 -1.07,-4.8 6.42,-11.6 8.89,-25.5 8.75,-39.8 -0.07,-6.8 -0.84,-13.6 -2.07,-20.4 -1.21,-6.7 -3.03,-13.3 -5.19,-19.7 -1.4,-4.2 -2.9,-8.3 -4.61,-12.2 -2.66,-6.1 -5.72,-11.8 -9.25,-17 -9.5499,-14.1 -22.1799,-24.6 -38.1799,-26.7 z"
     id="path4332"
     style="stroke:none;stroke-width:0.2" /><path
     d="m 2033.5361,15540.11 c -1.57,1.1 -3.76,0.7 -4.89,-0.9 -1.13,-1.5 -0.77,-3.7 0.8,-4.8 15.91,-12.8 31.21,-20.4 45.3999,-23.8 8.06,-1.9 15.79,-2.4 23.07,-1.8 18.2199,1.7 33.7899,10.8 44.9399,25.4 4.0499,5.2 7.4299,11.3 10.1499,18 3.58,8.7 6.05,18.6 7.12,29.2 2.11,21.3 -1.05,45.8 -10.48,71.7 -0.58,1.8 -2.55,2.9 -4.39,2.3 -1.8499,-0.6 -2.8799,-2.6 -2.2999,-4.4 6.5099,-24.9 7.1099,-48 3.6399,-67.7 -2.7799,-15.7 -8.4899,-29.1 -16.4599,-39.4 -5.41,-7.1 -11.79,-12.7 -19.35,-16.4 -7.4199,-3.7 -15.7899,-5.7 -25.0799,-5.5 -15.38,0.2 -32.9499,5.7 -52.1699,18.1 z"
     id="path4334"
     style="stroke:none;stroke-width:0.2" /><path
     d="m 2048.7861,15556.61 c -1.81,0.6 -3.83,-0.3 -4.5,-2.1 -0.67,-1.8 0.27,-3.8 2.08,-4.5 18.3999,-8.2 34.6399,-7.1 48.0399,-0.8 6.56,3.1 12.3599,7.7 17.3999,13.1 6.7,7.3 12.04,16.3 15.42,26.2 4.32,12.6 5.62,26.5 3.92,39.5 -2.74,21.1 -13.21,40 -31.7499,48.4 -1.71,0.9 -3.83,0.2 -4.74,-1.5 -0.9,-1.7 -0.24,-3.8 1.47,-4.7 12.1799,-7.5 18.5099,-20.5 20.6799,-34.9 1.02,-6.9 0.96,-14 0.15,-21.1 -0.79,-7 -2.49,-13.9 -4.83,-20.5 -1.5,-4.2 -3.22,-8.3 -5.3,-12.1 -3.1699,-5.9 -7.0099,-11.2 -11.6799,-15.6 -11.17,-10.4 -26.58,-15.3 -46.3599,-9.4 z"
     id="path4336"
     style="stroke:none;stroke-width:0.2" /><path
     d="m 2035.6661,15597.01 c -1.93,0.2 -3.63,-1.3 -3.8,-3.2 -0.17,-1.9 1.25,-3.6 3.18,-3.8 12.96,-2.5 26.08,2.5 36.9299,11.8 3.95,3.3 7.43,7.4 10.48,11.8 1.99,2.9 3.76,6 5.18,9.2 2.69,6.1 4.38,12.6 4.96,19.2 0.42,4.7 0.33,9.4 -0.47,13.9 -1.83,10.6 -6.52,20.4 -15.33,27.8 -1.35,1.4 -3.57,1.5 -4.96,0.1 -1.39,-1.3 -1.42,-3.5 -0.08,-4.9 5.85,-7.4 7.88,-15.9 7.77,-24.6 -0.04,-3.4 -0.59,-6.8 -1.3,-10.2 -1.05,-5.1 -2.96,-10 -5.15,-14.7 -1.84,-4 -3.85,-7.9 -6.27,-11.4 -2.5,-3.7 -5.1799,-7.2 -8.2599,-10.1 -6.61,-6.3 -14.23,-10.8 -22.88,-10.9 z"
     id="path4338"
     style="stroke:none;stroke-width:0.2" /><path
     d="m 2028.2261,15619.81 c -0.7,-1.8 0.2,-3.8 2.01,-4.5 1.81,-0.7 3.83,0.2 4.53,2 2.46,5.1 10.07,19.6 15.35,38.7 1.45,5.2 2.61,10.8 3.45,16.5 0.54,3.7 0.96,7.5 1.06,11.4 0.26,9.4 -0.7,19.1 -3.15,28.5 -3.54,13.7 -10.13,26.5 -20.83,37.4 -1.24,1.5 -3.45,1.7 -4.94,0.5 -1.48,-1.3 -1.68,-3.5 -0.44,-5 5.09,-7.3 8.25,-15.1 10.44,-23.1 2.25,-8.2 3.03,-16.6 3.21,-25 0.11,-5.1 -0.1,-10.2 -0.38,-15.2 -0.29,-5.3 -0.65,-10.5 -1.2,-15.5 -0.74,-6.6 -1.62,-12.9 -2.65,-18.6 -2.45,-13.6 -5.3,-23.9 -6.46,-28.1 z"
     id="path4340"
     style="stroke:none;stroke-width:0.2" /><path
     d="m 1760.1968,15482.81 c 0.74,-1.8 2.78,-2.6 4.58,-1.9 1.79,0.7 2.65,2.8 1.91,4.6 -6.17,16.3 -13.9,46.1 -15.16,78.1 -1.01,25.7 2.17,52.9 14.67,75.3 12.48,23 28.2999,42.7 45.5799,59.6 18.7699,18.4 39.4099,33.3 60.6498,44.3 24.04,12.4 48.6199,20.1 71.4798,22.3 27.87,2.8 53.0499,-2.2 70.9499,-15.9 1.5,-1.2 3.71,-1 4.93,0.5 1.21,1.5 0.98,3.7 -0.52,4.9 -21.91,18.7 -55.3399,25.2 -92.1698,19.8 -19.79,-2.9 -40.5599,-9.2 -60.9699,-18.9 -22.9199,-11 -45.4998,-26.1 -65.4998,-45.6 -18.43,-17.9 -34.5299,-39.5 -47.3999,-64.1 -10.19,-20.1 -14.0699,-43.3 -13.8399,-66.3 0.39,-39.2 12.3199,-77.4 20.8099,-96.7 z"
     id="path4342"
     style="stroke:none;stroke-width:0.2" /><path
     d="m 1985.7562,15763.81 c 1.66,-1 3.81,-0.5 4.8,1.2 0.99,1.7 0.45,3.8 -1.22,4.8 -3.67,2.8 -8.9899,8.3 -15.0199,14.8 -3.07,3.3 -6.2,6.9 -9.36,10.6 -1.89,2.2 -3.75,4.4 -5.6,6.7 -1.87,2.2 -3.67,4.4 -5.43,6.6 -3.82,4.6 -7.38,8.9 -9.27,13 -1.46,2.9 -1.08,6.8 0.24,10.4 1.65,4.4 4.05,8.6 7.13,10.2 1.82,0.7 2.75,2.7 2.08,4.5 -0.67,1.8 -2.69,2.8 -4.5,2.1 -5.03,-1.2 -10.4199,-6.1 -14.2299,-12.1 -4.01,-6.3 -5.22,-13.9 -3.51,-20 1.67,-5.3 4.71,-11.4 9.04,-17.3 2.3299,-3.2 5.0799,-6.3 8.0399,-9.3 4.29,-4.3 8.98,-8.3 13.67,-11.9 9.13,-6.9 17.88,-12 23.1399,-14.3 z"
     id="path4344"
     style="stroke:none;stroke-width:0.2" /><path
     d="m 1958.7463,15820.31 c 0.1,0.3 0.19,0.6 0.29,0.9 2.49,7.4 5.46,14.1 7.8,17.4 1.03,1.5 2.63,2.4 4.34,2.8 3.95,0.9 7.8,0.6 7.8,0.6 1.87,-0.5 3.79,0.7 4.26,2.5 0.4799,1.9 -0.65,3.8 -2.52,4.3 0,0 -6.46,2.3 -12.85,1.8 -3.64,-0.4 -6.96,-2 -9.73,-4.6 -2.36,-2.2 -5.57,-6.1 -8.71,-11 -2.35,-3.7 -4.53,-7.9 -6.2799,-12.4 -1.18,-3 -2.11,-6.1 -2.68,-9.2 -0.63,-3.5 -0.77,-6.9 -0.51,-10.2 0.15,-3.1 2.1,-5.8 4.9599,-6.9 2.87,-1 6.11,-0.3 8.25,1.9 0,0 4.13,4.8 10.34,9.9 2.37,1.9 4.91,4 7.74,5.8 4.47,2.8 9.23,5.2 14.3199,5.8 1.94,-0.1 3.53,1.5 3.55,3.4 0.02,2 -1.53,3.5 -3.47,3.6 -6.3899,0.8 -12.9899,-0.6 -19.2099,-2.9 -2.7,-1 -5.28,-2.2 -7.69,-3.5 z"
     id="path4346"
     style="stroke:none;stroke-width:0.2" /><path
     d="m 1928.8464,15770.11 c -0.43,-1.9 0.75,-3.8 2.64,-4.2 1.88,-0.4 3.76,0.8 4.19,2.7 1.91,6.4 1.2,23.4 -3.26,37.4 -2.13,6.7 -5.3,12.6 -9.09,16.7 -2.49,2.8 -5.41,4.6 -8.5,5.7 -1.8,0.6 -3.75,0.4 -5.42,-0.5 -1.67,-0.8 -2.93,-2.3 -3.48,-4.1 -1.99,-5.8 -5.8399,-10.6 -10.4299,-15.4 -3.03,-3.1 -6.46,-6.2 -10.05,-9.3 -6.57,-5.6 -13.78,-11.3 -20.89,-17.4 -7.1999,-6.1 -14.2299,-12.6 -20.3199,-19.9 -8.94,-10.5 -15.9,-22.5 -18.41,-36.9 -0.45,-1.8 0.71,-3.7 2.59,-4.2 1.89,-0.4 3.78,0.7 4.23,2.6 2.51,8.2 6.71,15.1 11.77,21.4 7.49,9.3 17.13,16.8 26.8699,23.9 6.91,5.1 13.91,9.9 20.29,14.9 4.81,3.8 9.26,7.7 13.1399,11.8 4.69,4.9 8.56,10.1 11.35,15.6 0.57,-0.7 1.12,-1.5 1.65,-2.3 2.29,-3.4 4.31,-7.5 5.92,-11.9 3.89,-10.4 5.98,-21.7 5.21,-26.6 z"
     id="path4348"
     style="stroke:none;stroke-width:0.2" /><path
     d="m 1913.1864,15819.51 c 0.01,-1.9 1.59,-3.4 3.52,-3.4 1.93,0 3.5,1.6 3.49,3.5 0.53,3.5 1.68,12.2 1.44,22.9 -0.07,3 -0.34,6.1 -0.75,9.2 -0.27,2 -0.58,4.1 -1.1,6.1 -1.33,5.2 -3.25,10.2 -5.58,14.7 -4.42,8.6 -9.89,15.4 -16.3199,18.6 -1.58,1.1 -3.77,0.8 -4.89,-0.8 -1.13,-1.6 -0.76,-3.8 0.81,-4.9 2.75,-2.7 4.28,-6.7 5.84,-11.2 1.11,-3.3 1.81,-6.8 2.65,-10.5 0.7999,-3.6 1.3899,-7.3 2.2399,-10.9 1.07,-4.5 2.36,-9 3.46,-13.1 2.5,-9.4 4.66,-17 5.19,-20.2 z"
     id="path4350"
     style="stroke:none;stroke-width:0.2" /><path
     d="m 1866.2765,15892.71 c -0.52,1.9 -2.46,3 -4.3199,2.4 -1.86,-0.5 -2.95,-2.4 -2.42,-4.3 0.53,-4.5 3.9299,-8.8 9.6399,-12.6 3.22,-2.2 7.28,-3.8 12.16,-5.1 2.58,-0.7 5.38,-1 8.4,-1.3 2.51,-0.2 6.03,-0.6 9.9,-0.7 3.3699,-0.1 6.9599,0.1 10.3499,0.3 6.86,0.6 12.86,1.7 15.55,3.1 3.5,2 5.95,4 7.47,6.3 3.39,5.1 3.21,9.5 3.21,9.5 0.11,2 -1.36,3.6 -3.29,3.7 -1.93,0.1 -3.59,-1.3 -3.71,-3.3 0,0 -0.83,-1.8 -3.09,-3.7 -1.11,-0.9 -2.72,-1.4 -4.79,-1.9 -1.12,-0.2 -2.93,0.2 -5.17,0.3 -4.66,0.3 -10.52,1.2 -15.8599,1.6 -4,0.3 -7.69,0.1 -10.29,0.1 -4.32,-0.4 -8.12,-0.3 -11.47,0.2 -1.69,0.2 -3.23,0.4 -4.65,0.8 -3.68,1.1 -6.55,2.3 -7.62,4.6 z"
     id="path4352"
     style="stroke:none;stroke-width:0.2" /><path
     d="m 1844.7266,15879.11 c -1.51,1.2 -3.71,0.9 -4.93,-0.6 -1.21,-1.5 -0.98,-3.7 0.53,-4.9 1.88,-2.7 4.54,-4.9 8.28,-7.1 1.36,-0.8 2.84,-1.2 4.5,-1.7 1.92,-0.6 4,-0.8 6.3,-0.9 1.33,-0.1 2.72,0 4.1299,0.3 2.27,0.5 4.62,1.3 6.98,2.6 1.87,1.1 3.68,2.2 5.54,3.8 2.34,1.9 4.47,4 6.85,6.7 1.61,1.1 2.06,3.3 1,4.9 -1.06,1.6 -3.24,2 -4.86,1 -3.48,-1.1 -6.4,-1.5 -9.34,-2.1 -1.56,-0.3 -2.96,-0.4 -4.36,-0.6 -1.43,-0.2 -2.76,-0.2 -4.0199,-0.5 -1.78,-0.3 -3.35,-0.7 -4.87,-1 -1.85,-0.2 -3.37,-0.8 -4.94,-0.7 -2.7,0.1 -4.85,0 -6.79,0.8 z"
     id="path4354"
     style="stroke:none;stroke-width:0.2" /><path
     d="m 1827.2115,15835.753 c -1.73,-0.9 -2.42,-3 -1.54,-4.7 0.87,-1.7 2.98,-2.4 4.71,-1.6 0,0 4.64,0.4 11.2699,2.5 1.4,0.4 2.75,1.1 4.18,1.8 0.88,0.4 1.77,0.9 2.58,1.6 1.52,1.2 2.9,2.5 4.1,4.1 3.28,4.2 5.52,8.3 6.7,12.6 1.04,1.6 0.56,3.8 -1.08,4.8 -1.63,1.1 -3.8,0.6 -4.84,-1 -1.99,-1.7 -4.39,-2.5 -7.1,-3.9 -0.98,-0.5 -1.94,-0.8 -2.93,-1.3 -1.43,-0.8 -2.93,-1.4 -4.23,-2.4 -1.8899,-1.3 -3.4099,-3 -4.8699,-4.5 -4.49,-4.5 -6.95,-8 -6.95,-8 z"
     id="path4356"
     style="stroke:none;stroke-width:0.2" /><path
     d="m 1793.0467,15840.71 c -1.33,-1.4 -1.28,-3.7 0.12,-5 1.4,-1.3 3.62,-1.3 4.96,0.1 0,0 6.79,4.4 14.9,11.7 1.8,1.7 3.55,3.5 5.3,5.4 1.11,1.3 2.23,2.6 3.19,4 2.4599,3.5 4.5199,7.3 6.1999,11.2 3.14,7.2 4.94,13.9 4.96,19.5 0.36,1.9 -0.9,3.8 -2.8,4.1 -1.9,0.4 -3.73,-0.9 -4.09,-2.8 -1.07,-2.7 -3.1,-5.3 -5.3599,-8.3 -1.97,-2.7 -4.28,-5.2 -6.62,-8 -1.49,-1.8 -3.05,-3.5 -4.47,-5.4 -1.44,-1.9 -2.75,-3.8 -4.01,-5.7 -1.86,-2.9 -3.46,-5.6 -4.98,-8.2 -4.42,-7.4 -7.3,-12.6 -7.3,-12.6 z"
     id="path4358"
     style="stroke:none;stroke-width:0.2" /><path
     d="m 1936.6864,15865.41 c -1.2,-1.5 -0.96,-3.7 0.55,-4.9 1.51,-1.2 3.72,-0.9 4.93,0.6 0,0 1.3499,0.7 4.1899,2.7 1.19,0.8 2.25,1.8 3.64,3.1 0.86,0.9 1.58,1.8 2.36,2.9 0.45,0.7 0.89,1.4 1.19,2.2 0.53,1.4 0.85,2.9 1.01,4.5 0.15,1.5 0.22,2.9 0.1,4.5 -0.17,2.3 -0.37,4.1 -0.86,6.6 0.39,1.9 -0.84,3.7 -2.73,4.1 -1.9,0.4 -3.75,-0.8 -4.14,-2.7 -1.49,-2.2 -2.9,-3.6 -4.3699,-5.5 -0.59,-0.7 -1.14,-1.3 -1.65,-2 -0.74,-1.1 -1.55,-2 -2.03,-3.1 -0.74,-1.7 -0.93,-3.4 -1.24,-4.9 -1.08,-5.3 -0.95,-8.1 -0.95,-8.1 z"
     id="path4360"
     style="stroke:none;stroke-width:0.2" /><path
     d="m 2004.8862,15830.11 c 1.41,-1.4 3.63,-1.3 4.95,0.1 1.33,1.4 1.26,3.6 -0.15,5 0,0 -5.12,7.5 -12.34,17.4 -2.57,3.6 -5.3,7.5 -8.37,11.2 -2.41,3 -5.07,5.8 -7.5799,8.7 -2.61,3 -5.21,5.7 -7.46,8.6 -3.26,4.1 -6.07,7.7 -7.45,11.4 -0.39,1.9 -2.25,3.1 -4.14,2.7 -1.9,-0.4 -3.12,-2.2 -2.73,-4.1 0.38,-6.7 3.19,-14.8 7.64,-23.2 2.38,-4.4 5.21,-8.9 8.44,-13.1 1.27,-1.6 2.69,-3.1 4.1,-4.6 2.22,-2.2 4.4399,-4.4 6.6799,-6.3 10.01,-8.6 18.41,-13.8 18.41,-13.8 z"
     id="path4362"
     style="stroke:none;stroke-width:0.2" /><path
     d="m 1981.4263,15890.51 c -1.23,1.5 -3.44,1.7 -4.94,0.5 -1.49,-1.3 -1.7,-3.5 -0.47,-5 0,0 2.32,-5.7 6.96,-12.9 1.0299,-1.6 2.2099,-3.1 3.5199,-4.7 0.83,-1 1.7,-1.9 2.69,-2.8 2.56,-2.2 5.4,-4.1 8.29,-5.6 5.74,-2.9 11.01,-4.7 15.45,-4.7 1.88,-0.4 3.77,0.7 4.21,2.6 0.44,1.9 -0.73,3.8 -2.61,4.2 -2.55,1.3 -4.57,4.1 -7.28,7.1 -1.18,1.3 -2.25,2.7 -3.51,4.1 -1.2,1.4 -2.33,2.8 -3.67,4 -2.28,2.1 -4.72,3.9 -7,5.5 -6.58,4.8 -11.6399,7.7 -11.6399,7.7 z"
     id="path4364"
     style="stroke:none;stroke-width:0.2" /><path
     d="m 2012.5362,15874.91 c -1.82,-0.7 -2.77,-2.7 -2.11,-4.5 0.65,-1.8 2.66,-2.8 4.48,-2.1 0,0 4.74,-0.3 11.4999,0.8 1.45,0.2 2.88,0.6 4.39,1.1 0.95,0.3 1.9,0.6 2.8,1.1 1.72,0.9 3.31,2 4.75,3.2 4.72,4.1 8.02,8.2 9.28,11.7 1.15,1.5 0.82,3.7 -0.73,4.9 -1.56,1.1 -3.76,0.8 -4.91,-0.7 -0.54,-0.4 -1.21,-0.4 -1.96,-0.8 -1.57,-0.7 -3.32,-0.9 -5.41,-1.5 -1.33,-0.4 -2.64,-0.6 -4.04,-1.1 -1.32,-0.4 -2.68,-0.7 -3.95,-1.3 -2.14,-1.1 -4.0099,-2.4 -5.7599,-3.7 -5.23,-3.9 -8.33,-7.1 -8.33,-7.1 z"
     id="path4366"
     style="stroke:none;stroke-width:0.2" /><path
     d="m 2034.2361,15839.81 c -0.84,-1.8 -0.1,-3.9 1.64,-4.7 1.75,-0.9 3.84,-0.1 4.68,1.6 0,0 4.53,5.1 9.63,12.9 1.12,1.7 2.16,3.5 3.17,5.5 0.64,1.2 1.27,2.5 1.75,3.8 1.21,3.5 2.01,7 2.56,10.5 1.13,6.9 1.28,12.9 0.53,17 0.06,1.9 -1.46,3.6 -3.4,3.6 -1.93,0.1 -3.55,-1.4 -3.61,-3.4 -0.75,-2.9 -2.93,-6.4 -5.27,-10.7 -0.97,-1.8 -2,-3.6 -2.98,-5.5 -0.94,-1.9 -1.97,-3.7 -2.72,-5.6 -1.27,-3.3 -2.14,-6.6 -2.91,-9.7 -2.2,-8.8 -3.07,-15.3 -3.07,-15.3 z"
     id="path4368"
     style="stroke:none;stroke-width:0.2" /><path
     d="m 2091.246,15842.21 c 1.6,-1 3.78,-0.6 4.86,1 1.07,1.6 0.64,3.8 -0.97,4.9 0,0 -2.94,4.4 -7.33,11.1 -1.42,2.1 -2.79,4.5 -4.55,7 -1.17,1.6 -2.61,3.1 -3.92,4.7 -0.85,1.1 -1.78,2.1 -2.63,3.3 -2.16,2.9 -4.29,5.5 -5.88,9 -0.35,2 -2.17,3.2 -4.08,2.9 -1.9,-0.4 -3.1599,-2.2 -2.8099,-4.1 -0.25,-3.9 0.09,-7.4 0.7099,-11 0.43,-2.6 1.15,-4.8 2.03,-7.2 0.96,-2.5 2.17,-4.9 3.61,-7 0.8,-1.1 1.72,-2.2 2.67,-3.2 1.54,-1.5 3.06,-2.9 4.65,-4.1 1.85,-1.3 3.51,-2.4 5.18,-3.3 5.14,-2.8 8.46,-4 8.46,-4 z"
     id="path4370"
     style="stroke:none;stroke-width:0.2" /></g>&#10;</svg>
