<?xml version="1.0" encoding="UTF-8" standalone="no"?>
<svg
   width="2375.7175"
   height="3480.9111"
   viewBox="0 0 2375.7175 3480.9112"
   version="1.1"
   xml:space="preserve"
   style="clip-rule:evenodd;fill-rule:evenodd;stroke-linejoin:round;stroke-miterlimit:2"
   id="svg5353"
   xmlns="http://www.w3.org/2000/svg"
   xmlns:svg="http://www.w3.org/2000/svg"><defs
   id="defs5353" />&#10;    <g
   id="vectorly-UNI-rubik"
   transform="matrix(4.9999999,0,0,4.9999999,-12688.914,-76449.026)"
   style="stroke-width:0.2"><path
     d="m 2616.5247,15781.21 c 3.48,-1.7 9.23,-5 16.6299,-9.4 18.09,-10.9 45.4199,-28.3 73.5699,-46.4 53.5398,-34.3 109.8697,-70.9 109.8697,-70.9 1.59,-1.1 3.77,-0.7 4.87,0.9 1.09,1.6 0.69,3.8 -0.91,4.9 0,0 -46.5199,33.6 -94.8498,67.4 -22.4999,15.7 -45.3799,31.4 -64.1098,43.8 -17.11,11.3 -30.83,19.9 -37.6499,23.5 -2.95,1.5 -5.13,2.2 -6.27,2.4 -2,0.4 -3.5,0 -4.51,-0.4 -2.3,-0.8 -11.61,-6.1 -22.81,-12.9 -20.8799,-12.8 -48.9698,-30.9 -48.9698,-30.9 -2.19,-1.4 -3.54,-3.8 -3.6,-6.4 -0.06,-2.6 1.19,-5 3.32,-6.5 0,0 37.4199,-25.6 80.0598,-54.3 55.8598,-37.6 120.6097,-80.6 120.6097,-80.6 1.59,-1.1 3.78,-0.7 4.88,0.9 1.11,1.6 0.72,3.8 -0.87,4.9 0,0 -62.7099,45.9 -117.2697,85.4 -28.85,20.8 -55.4199,39.9 -69.0199,49.6 11.96,7.5 32.3099,20.2 46.1699,28.5 4.66,2.9 8.49,5.2 10.86,6.5 z m 2.14,1.1 z"
     id="path4372"
     style="stroke:none;stroke-width:0.2" /><path
     d="m 2753.6943,15602.61 c -1.53,-1.1 -1.8,-3.4 -0.62,-4.9 1.19,-1.5 3.39,-1.8 4.92,-0.6 0,0 9.31,4.8 20.96,11.8 2.64,1.6 5.31,3.4 8.02,5.2 1.73,1.2 3.4799,2.4 5.1399,3.8 4.23,3.4 8.19,7.1 11.83,10.6 9.8,9.5 16.78,17.3 16.78,17.3 1.53,1.1 1.81,3.3 0.62,4.9 -1.19,1.5 -3.39,1.8 -4.92,0.6 0,0 -9.29,-4.8 -20.85,-12 -4.3,-2.6 -8.8799,-5.5 -13.2699,-8.8 -1.7,-1.3 -3.31,-2.7 -4.89,-4 -2.48,-2.2 -4.84,-4.3 -7.04,-6.5 -9.75,-9.5 -16.68,-17.4 -16.68,-17.4 z"
     id="path4374"
     style="stroke:none;stroke-width:0.2" /><path
     d="m 2818.0642,15438.61 c -1.02,-0.8 -2.82,-1.7 -4.15,-2.7 -4.5,-3.3 -10.83,-7.3 -17.58,-11.5 -10.1799,-6.2 -21.3499,-12.8 -29.2499,-17.3 -1.12,17 -3.26,49.4 -5.56,81.9 -3.34,47.1 -7,94.2 -7,94.2 -0.1,1.9 -1.74,3.4 -3.68,3.3 -1.9299,-0.1 -3.4199,-1.8 -3.3299,-3.7 0,0 0.97,-47.2 2.2499,-94.4 1.29,-47.2 2.89,-94.4 2.89,-94.4 0.13,-2.6 1.6,-5 3.89,-6.3 2.29,-1.2 5.07,-1.3 7.38,0 0,0 27.9299,14.9 47.4499,27.3 6.78,4.3 12.55,8.4 16.04,11.4 2.67,2.3 4.3099,4.4 5.0199,5.9 0.5,1 1.31,4 1.65,8.8 0.7,9.9 1.02,30.4 0.8,54.7 -0.53,59.2 -3.56,140.5 -3.56,140.5 -0.01,2 -1.5999,3.5 -3.5299,3.5 -1.94,0 -3.49,-1.6 -3.48,-3.5 0,0 -1.65,-81.3 -3.45,-140.3 -0.6,-19.8 -1.13,-37 -1.85,-47.8 -0.29,-4.4 -0.88,-9.1 -0.95,-9.6 z m 0.02,0 c 0.06,0.1 0.23,0.6 0.3,0.7 0.08,0.2 0.11,0.7 0.29,0.5 0.4,-0.3 0.08,-0.7 -0.59,-1.2 z"
     id="path4376"
     style="stroke:none;stroke-width:0.2" /><path
     d="m 2585.6548,15534.61 c 0.01,-0.5 -0.02,-1 0,-1.2 -0.03,0.3 -0.08,0.8 -0.17,1.4 -0.68,0.6 -1.02,1 -0.63,1.3 0.19,0.1 0.33,0.1 0.44,0 -1.46,10.2 -6.96,44.9 -13.53,83.2 -10.18,59.5 -22.75,127.9 -22.75,127.9 -0.3,1.9 -2.0899,3.2 -3.9999,2.9 -1.91,-0.3 -3.23,-2.1 -2.93,-4 0,0 6.6399,-53.6 13.5399,-107.3 2.39,-18.7 4.82,-37.3 7.02,-53.7 3.84,-28.5 6.91,-50.2 7.13,-53.1 0.11,-1.4 1.22,-4.7 4.96,-8.5 5.18,-5.3 17.1299,-15 32.7699,-26.8 16.99,-12.9 38.3499,-28.2 59.6599,-43.1 45.7398,-32 91.0797,-62.1 91.0797,-62.1 1.57,-1.1 3.76,-0.7 4.88,0.9 1.12,1.5 0.75,3.7 -0.83,4.9 0,0 -58.6898,44.6 -109.2197,83.5 -27.6399,21.4 -52.8499,40.9 -63.9499,51.1 -1.1499,1 -2.5599,2 -3.4699,2.7 z m 0,0 c -0.01,0.7 -0.08,1.3 -0.36,1.5 0.08,-0.5 0.14,-0.9 0.19,-1.3 0.05,-0.1 0.11,-0.1 0.17,-0.2 z"
     id="path4378"
     style="stroke:none;stroke-width:0.2" /><path
     d="m 2683.9245,15746.41 c 1.64,1.1 2.13,3.2 1.1,4.9 -1.03,1.6 -3.19,2.1 -4.83,1.1 l -75.7098,-43.6 c -2.26,-1.4 -3.49,-4 -3.17,-6.7 0,0 1.89,-22.1 5.34,-52.3 1.24,-10.7 2.75,-22.5 4.43,-34.7 2.37,-17.2 5.12,-35.1 7.72,-52 6.55,-42.4 12.5199,-77.9 12.5199,-77.9 0.23,-1.9 1.98,-3.3 3.9,-3 1.92,0.2 3.29,2 3.06,3.9 0,0 -2.8,35.9 -6.69,78.6 -1.54,17 -3.2099,35 -5.0699,52.3 -1.31,12.2 -2.7,24 -4.11,34.8 -2.92,22.4 -5.63,40.3 -6.82,47.9 z"
     id="path4380"
     style="stroke:none;stroke-width:0.2" /><path
     d="m 2693.9745,15439.31 c 0.14,-2 1.82,-3.4 3.75,-3.3 1.92,0.2 3.38,1.9 3.24,3.8 0,0 -0.8,34.9 -2.47,76.5 -0.67,16.5 -1.46,34.1 -2.46,50.9 -0.7,11.9 -1.52,23.4 -2.39,33.9 -1.86,22.4 -3.72,40.2 -4.49,47.4 l 63.9798,52 c 1.54,1.2 1.85,3.4 0.69,4.9 -1.17,1.6 -3.37,1.9 -4.9099,0.7 l -70.9099,-49.3 c -1.82,-1.4 -2.83,-3.6 -2.66,-5.9 0,0 0.7,-21.6 2.52,-50.9 0.66,-10.6 1.52,-22.1 2.54,-33.9 1.45,-16.8 3.21,-34.3 4.94,-50.8 4.36,-41.4 8.63,-76 8.63,-76 z"
     id="path4382"
     style="stroke:none;stroke-width:0.2" /><path
     d="m 2558.8648,15676.01 c -1.55,1.2 -3.75,0.9 -4.91,-0.7 -1.16,-1.5 -0.85,-3.7 0.69,-4.9 0,0 31.22,-25.9 68.9699,-56 15.0299,-11.9 31.0499,-24.6 46.6198,-36.4 11,-8.4 21.82,-16.3 31.72,-23.5 27.6399,-20.1 48.2298,-34.3 48.2298,-34.3 2.02,-1.5 4.77,-1.7 6.91,-0.3 l 59.3099,40 c 1.64,1 2.15,3.2 1.12,4.8 -1.02,1.7 -3.18,2.2 -4.82,1.1 0,0 -58.2499,-33.4 -58.2499,-33.4 -6.4899,5.3 -22.6999,18.3 -43.2999,34.3 -9.6499,7.6 -20.2499,15.7 -31.3499,24 -15.7099,11.7 -32.3199,23.5 -47.9999,34.6 -39.3999,27.9 -72.9398,50.7 -72.9398,50.7 z"
     id="path4384"
     style="stroke:none;stroke-width:0.2" /><path
     d="m 2570.9348,15596.01 c -1.56,1.1 -3.76,0.8 -4.89,-0.8 -1.13,-1.6 -0.78,-3.8 0.79,-4.9 0,0 23.9299,-19.1 54.8899,-43 17.3499,-13.4 36.8199,-28.3 55.5198,-42.2 10.48,-7.7 20.74,-15.1 30.17,-21.7 26.3099,-18.5 45.9598,-31.6 45.9598,-31.6 2.15,-1.5 5.02,-1.6 7.27,-0.2 l 69.1399,46.8 c 1.6399,1 2.1399,3.2 1.1199,4.8 -1.0299,1.6 -3.1999,2.1 -4.8299,1.1 0,0 -68.3399,-39.3 -68.3399,-39.3 -6.41,4.9 -21.7299,16.7 -41.1499,31.1 -9.2499,6.9 -19.4499,14.3 -30.0899,21.8 -19.0099,13.4 -39.3099,27.2 -57.4599,39.5 -32.3999,21.9 -58.0998,38.6 -58.0998,38.6 z"
     id="path4386"
     style="stroke:none;stroke-width:0.2" /><path
     d="m 2596.7247,15401.11 c 0.09,-2 1.73,-3.5 3.67,-3.4 1.93,0.1 3.43,1.8 3.34,3.7 0,0 0.86,14.6 1.88,35.1 0.36,7.2 0.74,15.1 1.01,23.4 0.18,5.7 0.33,11.6 0.34,17.5 0.01,5.8 -0.15,11.7 -0.26,17.4 -0.16,9.2 -0.36,18 -0.3,26.2 0.07,10 0.32,18.8 1.27,25.8 0.42,1.9 -0.78,3.8 -2.67,4.2 -1.89,0.4 -3.76,-0.8 -4.18,-2.7 -3.28,-10.9 -6.16,-26.7 -7.94,-44.1 -0.98,-9.6 -1.7,-19.7 -1.91,-29.6 -0.08,-4 0.02,-7.9 0.14,-11.8 0.19,-6.1 0.49,-12 0.92,-17.7 1.9,-25.1 4.69,-44 4.69,-44 z"
     id="path4388"
     style="stroke:none;stroke-width:0.2" /><path
     d="m 2892.784,15347.71 c -0.15,-1.9 1.29,-3.6 3.22,-3.8 1.93,-0.1 3.62,1.3 3.76,3.3 0,0 3.84,24.3 7.52,56 0.83,7.2 1.58,14.7 2.25,22.5 0.43,4.9 0.86,9.9 1.11,15 0.6399,12.7 0.8299,25.6 0.8399,37.7 0.04,24.2 -0.9499,45.3 -2.2499,56.8 -0.1,2 -1.76,3.4 -3.69,3.3 -1.93,-0.1 -3.41,-1.7 -3.31,-3.7 -0.06,-11.3 -2.22,-32 -4.39,-55.8 -1.1,-12 -2.3,-24.7 -3.16,-37.4 -0.35,-5 -0.53,-10 -0.72,-15 -0.3,-7.7 -0.53,-15.3 -0.66,-22.5 -0.58,-31.9 -0.52,-56.4 -0.52,-56.4 z"
     id="path4390"
     style="stroke:none;stroke-width:0.2" /><path
     d="m 2962.9838,15293.31 c -0.03,-1.9 1.52,-3.5 3.45,-3.5 1.94,-0.1 3.53,1.5 3.56,3.4 0,0 2.32,26 4.32,59.4 0.46,7.6 0.82,15.6 1.12,23.7 0.19,5.3 0.38,10.6 0.4,15.9 0.07,13.5 -0.27,27 -0.65,39.6 -0.87,29.1 -2.31,52.9 -2.68,59.5 0,1.9 -1.57,3.5 -3.51,3.5 -1.93,0 -3.5,-1.6 -3.5,-3.5 -0.37,-6.6 -2.36,-30.3 -3.97,-59.3 -0.69,-12.6 -1.38,-26.1 -1.68,-39.6 -0.11,-5.3 -0.06,-10.6 -0.02,-15.9 0.08,-8.1 0.23,-16.1 0.48,-23.7 1.09,-33.4 2.68,-59.5 2.68,-59.5 z"
     id="path4392"
     style="stroke:none;stroke-width:0.2" /><path
     d="m 2648.4046,15772.91 c -1.6,-1.1 -2.02,-3.3 -0.93,-4.9 1.09,-1.6 3.27,-2 4.87,-0.9 0,0 32.4899,20.6 56.5199,35.3 11.6799,7.1 21.1899,12.9 23.4899,13.6 2.67,0.9 28.0199,2.1 58.1298,3.8 19.54,1.2 41.0299,2.4 59.8499,3.7 8.53,0.6 16.51,1.2 23.5099,1.7 -11.3599,-7.7 -25.6299,-17.4 -39.8699,-27.1 -31.5299,-21.6 -62.8998,-43.3 -62.8998,-43.3 -1.62,-1.1 -2.09,-3.2 -1.04,-4.9 1.06,-1.6 3.23,-2.1 4.85,-1 0,0 32.6799,19.7 65.2498,39.7 32.5699,19.9 64.9999,40.1 64.9999,40.1 2.81,1.8 4.03,5.3 2.99,8.4 -1.05,3.2 -4.12,5.3 -7.46,5.1 0,0 -18.25,-0.7 -42.8299,-2.2 -13.07,-0.8 -27.9299,-1.8 -42.7899,-3 -21.86,-1.7 -43.7099,-3.7 -59.8699,-5.4 -15.0499,-1.6 -25.4299,-3 -27.1299,-3.7 -2.49,-1 -12.79,-7.7 -25.2099,-16.3 -23.2,-16.1 -54.4299,-38.7 -54.4299,-38.7 z"
     id="path4394"
     style="stroke:none;stroke-width:0.2" /><path
     d="m 2827.9442,15487.51 c -1.93,0.1 -3.6,-1.3 -3.72,-3.3 -0.12,-1.9 1.35,-3.6 3.28,-3.7 l 48.8198,-6.3 c 2.35,-0.2 4.6,0.9 5.97,2.8 1.36,1.9 1.64,4.4 0.75,6.6 0,0 -4.16,12.2 -10.66,28.6 -2.3299,5.9 -5.0099,12.3 -7.9099,18.8 -4.1,9.3 -8.63,18.8 -12.92,27.7 -10.8,22.6 -20.27,41.3 -20.27,41.3 -0.74,1.8 -2.7899,2.6 -4.5799,1.9 -1.79,-0.8 -2.64,-2.8 -1.9,-4.6 0,0 6.4999,-19.9 14.7999,-43.5 3.3,-9.4 6.82,-19.3 10.45,-28.8 2.57,-6.6 5.18,-13 7.68,-18.8 3.16,-7.3 6.06,-13.7 8.29,-18.5 z"
     id="path4396"
     style="stroke:none;stroke-width:0.2" /><path
     d="m 2827.7242,15484.01 49.0298,-3 -48.7098,117.6 c 0.14,-32.4 0.2,-79.4 -0.32,-114.6 z"
     id="path4398"
     style="stroke:none;stroke-width:0.2" /><path
     d="m 2990.0738,15579.61 c -0.98,-1 -2.35,-2.3 -3.71,-3.6 -6.18,-5.6 -16.32,-14.1 -27.97,-23.8 -35.0199,-29.2 -83.7598,-68.4 -83.7598,-68.4 -1.54,-1.2 -1.85,-3.4 -0.68,-5 1.17,-1.5 3.37,-1.8 4.91,-0.6 0,0 51.1899,36.2 87.6598,63.7 15,11.3 27.4699,21.2 33.1599,26.4 2.89,2.6 4.39,4.7 4.84,5.7 0.41,0.8 0.85,2.3 0.73,4.4 -0.08,1.5 -0.7,4.6 -1.91,8.9 -2.18,7.6 -6.29,20.2 -11.8499,35.7 -3.77,10.5 -8.19,22.3 -13.07,34.9 -8.78,22.6 -18.95,47.7 -28.8599,71.6 -23.25,56.3 -45.1799,106.6 -45.1799,106.6 -0.71,1.8 -2.75,2.7 -4.55,2 -1.8,-0.7 -2.68,-2.8 -1.96,-4.6 0,0 18.6799,-51.6 39.4599,-108.7 8.85,-24.4 18.0499,-49.7 26.3699,-72.4 4.61,-12.6 8.99,-24.4 12.82,-34.8 5.53,-15.1 9.98,-27.2 12.28,-34.6 0.36,-1.2 0.88,-2.4 1.27,-3.4 z m 0.22,-0.6 c 0.37,-0.9 0.5,-1.6 0.03,-1.6 -0.85,-0.1 -0.48,0.8 -0.03,1.6 z"
     id="path4400"
     style="stroke:none;stroke-width:0.2" /><path
     d="m 2807.1842,15666.81 c -1.63,-1 -2.09,-3.2 -1.04,-4.8 1.04,-1.7 3.22,-2.1 4.84,-1.1 0,0 16.48,8.3 37.1699,19.9 4.71,2.6 9.59,5.4 14.54,8.4 3.17,1.9 6.38,3.9 9.4999,5.9 7.99,5.3 15.74,11 22.88,16.2 19.0699,14 33.4599,25.6 33.4599,25.6 1.63,1 2.1,3.2 1.04,4.8 -1.04,1.7 -3.22,2.1 -4.84,1.1 0,0 -16.4599,-8.4 -37.0699,-20 -7.73,-4.4 -16.03,-9.1 -24.1499,-14.2 -3.17,-2 -6.25,-4.2 -9.29,-6.3 -4.75,-3.3 -9.34,-6.5 -13.68,-9.8 -19.0099,-14.1 -33.3599,-25.7 -33.3599,-25.7 z"
     id="path4402"
     style="stroke:none;stroke-width:0.2" /><path
     d="m 2840.8841,15565.31 c -1.55,-1.1 -1.86,-3.3 -0.7,-4.9 1.16,-1.5 3.36,-1.8 4.91,-0.7 0,0 17.86,11 40.2099,25.8 5.1,3.4 10.38,7.1 15.72,10.8 3.44,2.5 6.91,4.9 10.2799,7.5 8.63,6.6 17,13.6 24.71,20 20.5699,17.2 36.1199,31.3 36.1199,31.3 1.55,1.2 1.86,3.4 0.7,4.9 -1.16,1.5 -3.36,1.9 -4.91,0.7 0,0 -17.8299,-11 -40.1099,-26 -8.36,-5.6 -17.3399,-11.7 -26.1099,-18.1 -3.43,-2.5 -6.76,-5.2 -10.04,-7.8 -5.13,-4.1 -10.09,-8.1 -14.77,-12.1 -20.4999,-17.3 -36.0099,-31.4 -36.0099,-31.4 z"
     id="path4404"
     style="stroke:none;stroke-width:0.2" /><path
     d="m 2937.3939,15528.71 c 0.7,-1.8 2.74,-2.7 4.54,-2 1.8,0.7 2.69,2.7 1.99,4.5 0,0 -11.04,33.6 -26.04,76.2 -3.43,9.8 -7.1399,20 -10.9799,30.3 -2.48,6.7 -4.98,13.4 -7.64,20.1 -6.79,17 -13.94,33.9 -20.62,49.5 -17.7499,41.5 -32.3999,73.7 -32.3999,73.7 -0.7,1.8 -2.73,2.7 -4.54,2 -1.8,-0.7 -2.69,-2.7 -1.98,-4.6 0,0 11.09,-33.6 26.2,-76.1 5.6799,-16 11.8799,-33.2 18.4499,-50.4 2.57,-6.7 5.3,-13.3 7.99,-19.9 4.19,-10.2 8.38,-20.2 12.46,-29.7 17.8699,-41.4 32.5699,-73.6 32.5699,-73.6 z"
     id="path4406"
     style="stroke:none;stroke-width:0.2" /><path
     d="m 2761.3243,15743.81 c 1.25,-2.4 3.6,-7.5 6.73,-13.7 3.58,-7.2 8.01,-15.9 12.54,-24.6 10.7099,-20.5 21.7599,-40.7 21.7599,-40.7 0.79,-1.7 2.86,-2.5 4.63,-1.7 1.76,0.8 2.56,2.8 1.77,4.6 0,0 -9.97,27.9 -19.4999,51.9 -3.01,7.5 -6.02,14.7 -8.58,20.4 -3.51,7.9 -6.37,13.4 -7.15,14.5 -0.86,1.2 -2.52,2.9 -5.61,3.8 -2.97,0.8 -9.3,1.5 -17.41,1.4 -9.8499,-0.1 -22.5599,-0.9 -34.5999,-2 -14.7499,-1.4 -28.3499,-3.4 -34.4199,-4.9 -1.91,-0.3 -3.2,-2.1 -2.88,-4 0.32,-1.9 2.12,-3.2 4.03,-2.9 7.66,0.8 27.1899,0.5 45.5599,-0.1 11.65,-0.4 22.7499,-1 29.9299,-1.8 1.02,-0.2 2.22,-0.1 3.2,-0.2 z m 0.13,0 c 1.11,0 1.89,-0.2 1.71,-0.7 -0.31,-0.9 -1.07,-0.2 -1.71,0.7 z m -0.78,1.2 c -0.07,0.1 -0.12,0.2 -0.17,0.3 0.05,-0.1 0.11,-0.2 0.17,-0.3 z"
     id="path4408"
     style="stroke:none;stroke-width:0.2" /><path
     d="m 2805.5542,15666.31 c 0,0 -35.4499,79.2 -38.5399,83.6 -3.09,4.3 -69.2898,2.1 -84.9598,-0.5 44.3699,-29.2 98.9598,-66.4 123.4997,-83.1 z"
     id="path4410"
     style="stroke:none;stroke-width:0.2" /><path
     d="m 2707.8145,15754.51 c -1.57,-1.2 -1.94,-3.3 -0.81,-4.9 1.12,-1.6 3.3099,-2 4.8899,-0.8 0,0 15.38,8.6 34.65,20.5 4.3899,2.7 8.9199,5.6 13.5099,8.6 2.95,2 5.92,4 8.81,6.1 7.38,5.4 14.5,11.1 21.07,16.5 17.5199,14.3 30.6799,26 30.6799,26 1.57,1.2 1.94,3.3 0.81,4.9 -1.12,1.6 -3.32,2 -4.89,0.8 0,0 -15.36,-8.6 -34.5499,-20.6 -7.19,-4.5 -14.91,-9.4 -22.42,-14.6 -2.94,-2 -5.78,-4.2 -8.59,-6.4 -4.3699,-3.3 -8.5999,-6.7 -12.5799,-10 -17.47,-14.3 -30.5799,-26.1 -30.5799,-26.1 z"
     id="path4412"
     style="stroke:none;stroke-width:0.2" /><path
     d="m 2667.8646,15760.31 c -1.61,-1 -2.05,-3.2 -0.98,-4.8 1.07,-1.6 3.2499,-2.1 4.8599,-1 0,0 12.7,6.1 28.63,14.8 3.62,2 7.34,4.2 11.1199,6.4 2.42,1.5 4.87,3 7.22,4.6 6.04,4.2 11.82,8.6 17.15,12.8 14.2799,11.2 24.8599,20.5 24.8599,20.5 1.61,1.1 2.05,3.3 0.98,4.9 -1.07,1.6 -3.25,2 -4.86,0.9 0,0 -12.6799,-6.1 -28.5399,-14.9 -5.92,-3.3 -12.27,-6.9 -18.44,-10.9 -2.3999,-1.5 -4.7199,-3.2 -7.0099,-4.9 -3.57,-2.5 -7,-5.1 -10.23,-7.7 -14.22,-11.3 -24.7599,-20.7 -24.7599,-20.7 z"
     id="path4414"
     style="stroke:none;stroke-width:0.2" /><path
     d="m 2675.3845,15790.51 c -1.93,-0.2 -3.4,-1.8 -3.27,-3.8 0.13,-1.9 1.8,-3.4 3.73,-3.2 0,0 18.88,-0.7 43.1199,-0.7 5.53,0 11.31,0.2 17.21,0.4 3.79,0.1 7.62,0.2 11.45,0.5 9.7799,0.8 19.5099,2 28.5099,3.1 24.0299,3 42.6699,6.2 42.6699,6.2 1.93,0.1 3.4,1.8 3.27,3.7 -0.13,1.9 -1.8,3.4 -3.73,3.3 0,0 -18.89,0.6 -43.1099,0.4 -9.08,0 -18.87,-0.2 -28.6699,-0.7 -3.83,-0.2 -7.65,-0.6 -11.42,-1 -5.88,-0.5 -11.63,-1.2 -17.11,-1.9 -24.0299,-3.1 -42.6499,-6.3 -42.6499,-6.3 z"
     id="path4416"
     style="stroke:none;stroke-width:0.2" /><path
     d="m 3010.5537,15914.21 c 0,0 -101.2697,35.9 -159.5596,56.8 -21.4999,7.8 -37.0999,13.4 -39.3499,14.4 -0.99,0.4 -3.93,0.9 -8.56,0.3 -8.43,-0.9 -25.7799,-4.3 -47.6699,-9 -35.7599,-7.7 -83.7998,-18.9 -124.6997,-28.7 -42.8898,-10.3 -77.8898,-19 -82.5998,-20.1 -4.6499,-1 -6.1499,-4 -6.7299,-6 -0.64,-2.1 -0.74,-5.1 1.9,-8.1 0.75,-0.8 2.24,-2.1 4.65,-3.3 2.3999,-1.2 6.2599,-2.8 11.2299,-4.7 34.9099,-12.7 128.2497,-38.1 136.1697,-39 4.35,-0.5 30.8599,-0.9 60.5598,-1.1 39.4499,-0.3 84.5698,-0.3 89.8698,-0.2 3.29,0 24.37,5 50.4999,11.7 48.1699,12.4 114.0297,30.3 114.0297,30.3 1.51,0.4 2.57,1.7 2.63,3.3 0.06,1.5 -0.91,2.9 -2.37,3.4 z m -458.9389,-1.9 c -0.03,0 -0.06,0 -0.09,0 0.03,0 0.06,0 0.09,0 z m 21.74,5.4 c 13.01,3.2 30.7499,7.6 50.7299,12.6 33.8099,8.5 74.0198,18.6 108.4597,26.9 30.8599,7.5 57.0299,13.6 69.6598,15.6 1.67,0.3 3.44,0.9 4.58,1.1 0.31,-0.2 1.04,-0.8 1.19,-0.5 7.55,-2.7 41.5499,-14 79.5198,-26.5 41.5699,-13.6 87.8998,-28.7 109.0797,-35.5 -21.2899,-5.2 -66.8698,-16.2 -102.6897,-24.5 -24.9399,-5.7 -44.9999,-10.2 -48.1199,-10.2 -5.98,0.1 -62.6598,1.4 -104.5897,2.6 -22.48,0.6 -40.6599,1.2 -44.1399,1.7 -7.13,0.9 -85.0798,23.3 -123.6797,36.7 z m 234.6194,55.7 c -0.53,0.2 -0.92,0.4 -1.19,0.5 0.76,0.1 1.24,0 1.21,-0.4 0,0 -0.01,-0.1 -0.02,-0.1 z m -1.19,0.5 c 0,0 0,0 0,0 -0.03,0 -0.05,0 -0.07,0 0.02,0 0.05,0 0.07,0 z"
     id="path4418"
     style="stroke:none;stroke-width:0.2" /><path
     d="m 3009.4237,15910.91 c 0,0 -191.7995,65.1 -200.2495,68.7 -8.44,3.7 -246.4894,-56.7 -259.3594,-59.5 -12.8599,-2.8 136.3197,-45 146.3697,-46.2 10.05,-1.2 140.3296,-2.8 149.5796,-2.8 9.25,0 163.6596,39.8 163.6596,39.8 z"
     id="path4420"
     style="stroke:none;stroke-width:0.2" /></g>&#10;</svg>
