<?xml version="1.0" encoding="UTF-8" standalone="no"?>
<svg
   width="2907.228"
   height="2006.8594"
   viewBox="0 0 2907.228 2006.8594"
   version="1.1"
   xml:space="preserve"
   style="clip-rule:evenodd;fill-rule:evenodd;stroke-linejoin:round;stroke-miterlimit:2"
   id="svg5353"
   xmlns="http://www.w3.org/2000/svg"
   xmlns:svg="http://www.w3.org/2000/svg"><defs
   id="defs5353" />&#10;    &#10;<g
   id="vectorly-UNI-cloud-download"
   style="stroke:none;stroke-width:0.186515"
   transform="matrix(5.3615003,0,0,5.3615003,-21982.513,-31258.986)"><path
     d="m 4537.1224,6093.0048 c 1.93,-0.01 3.51,1.56 3.52,3.49 0.01,1.94 -1.56,3.51 -3.49,3.52 0,0 -13.34,1.85 -35.4899,3.65 -4.4,0.36 -9.13,0.64 -14.19,0.86 -3.05,0.13 -6.21,0.26 -9.47,0.23 -7.4199,-0.08 -15.3299,-0.51 -23.6699,-1.07 -11.24,-0.76 -23.0399,-2.07 -35.5099,-3.2 -1.94,0.01 -3.51,-1.55 -3.52,-3.49 -0.01,-1.93 1.56,-3.51 3.49,-3.51 12.47,-1.22 24.2499,-2.62 35.4899,-3.46 8.33,-0.63 16.24,-1.13 23.6599,-1.26 3.26,-0.06 6.42,0.05 9.46,0.15 5.06,0.17 9.8,0.42 14.21,0.74 22.1499,1.62 35.5099,3.35 35.5099,3.35 z m -231.7394,0.85 c 1.94,0 3.51,1.56 3.52,3.5 0,1.93 -1.56,3.51 -3.5,3.51 -35.0999,1.21 -68.6399,2.52 -96.0598,3.25 -33.0199,0.87 -57.1199,1.1 -64.2198,1.08 -11.99,-0.19 -23.23,-6.5 -31.48,-16.76 -6.7499,-8.39 -11.5099,-19.4 -13.0299,-31.17 -2.66,-20.49 4.13,-43.36 26.3199,-58.64 20.76,-14.05 38.9099,-14.06 53.6099,-8.29 24.5899,9.66 39.1099,35.91 39.1099,35.91 0.98,1.67 0.42,3.82 -1.25,4.8 -1.67,0.98 -3.81,0.42 -4.79,-1.25 0,0 -14.21,-22.57 -36.5199,-29.84 -12.05,-3.92 -26.5199,-2.89 -42.5199,9.29 -16.59,12.43 -21.12,30.11 -18.63,45.81 1.4,8.84 5.06,17.03 10.15,23.34 5.19,6.43 11.85,10.99 19.37,11.21 8.1699,0.35 38.9299,0.8 79.8698,1.83 24.0399,0.61 51.5198,1.58 80.0498,2.42 z"
     id="path1678"
     style="stroke:none;stroke-width:0.186515" /><path
     d="m 4198.6032,6003.6048 c 0.34,1.91 -0.92,3.73 -2.83,4.08 -1.9,0.35 -3.7199,-0.92 -4.0699,-2.82 -10.31,-49.6699 0.04,-89.1599 21.3999,-117.9699 10.85,-14.63 24.6099,-26.49 40.0499,-35.51 22.0399,-12.87 47.5599,-20.02 73.0198,-21 26.11,-1 52.1799,4.45 74.3598,16.14 46.0499,24.27 76.3098,75.4 56.2499,153.7499 -0.44,1.89 -2.33,3.06 -4.21,2.62 -1.88,-0.44 -3.06,-2.32 -2.62,-4.2 15.2,-72.5599 -13.09,-118.3399 -55.9799,-139.2099 -20.2799,-9.87 -43.6898,-14.1 -67.1698,-13.12 -12.28,0.51 -24.5799,2.39 -36.4599,5.75 -17.8099,5.04 -34.6599,13.32 -49.0499,24.9 -32.1399,25.87 -51.8898,68.01 -42.6899,126.5899 z"
     id="path1684"
     style="stroke:none;stroke-width:0.186515" /><path
     d="m 4459.5126,5982.9748 c -1.26,1.46 -3.48,1.62 -4.94,0.35 -1.46,-1.27 -1.62,-3.49 -0.35,-4.95 18.06,-22.6099 39.6899,-33.8699 60.2599,-36.8999 11.1299,-1.63 21.9799,-0.75 31.8799,2.06 18.6099,5.28 33.9199,17.58 41.6799,33.8599 5.56,11.65 7.25,25.39 3.69,40.09 19.5499,-3.62 34.4399,1.99 42.7899,12.29 10.6899,13.19 11.3699,34.77 -4.25,55.45 -1.1,1.59 -3.29,1.98 -4.88,0.88 -1.58,-1.11 -1.98,-3.29 -0.87,-4.88 11.06,-17.32 10.72,-34.24 1.53,-44.07 -8.32,-8.91 -23.64,-10.84 -42.9799,-2.15 -2.75,1.14 -5.92,0.49 -8,-1.64 -2.08,-2.12 -2.66,-5.3 -1.47,-8.02 6.43,-15.32 5.53,-29.46 0.02,-41.1 -5.97,-12.5799 -17.36,-22.1799 -31.5099,-26.9799 -24.29,-8.24 -55.9199,-2.8 -82.5998,25.7099 z"
     id="path1690"
     style="stroke:none;stroke-width:0.186515" /><path
     d="m 4330.2704,6024.6636 c -0.22,-1.92 1.17,-3.66 3.09,-3.87 1.92,-0.22 3.66,1.17 3.87,3.09 0,0 3.42,13.19 6.54,30.92 0.7,3.98 1.3,8.16 1.82,12.48 0.33,2.75 0.66,5.55 0.8,8.37 0.38,7.1 0.3,14.27 0.02,21.1 -0.53,13.01 -1.99,24.53 -3.73,31.96 -0.24,1.92 -1.99,3.29 -3.91,3.05 -1.92,-0.24 -3.29,-2 -3.05,-3.92 0.14,-7.28 -1.46,-18.21 -2.96,-30.54 -0.81,-6.65 -1.73,-13.61 -2.32,-20.55 -0.24,-2.78 -0.32,-5.54 -0.41,-8.27 -0.14,-4.3 -0.22,-8.48 -0.22,-12.47 0.02,-17.86 0.46,-31.35 0.46,-31.35 z"
     id="path1694"
     style="stroke:none;stroke-width:0.186515" /><path
     d="m 4388.7703,6008.5036 c -0.09,-1.93 1.39,-3.58 3.33,-3.68 1.93,-0.1 3.58,1.39 3.67,3.33 0,0 2.71,15.33 5.08,35.87 0.52,4.59 0.96,9.42 1.32,14.4 0.23,3.16 0.45,6.38 0.5,9.62 0.14,8.08 -0.15,16.27 -0.56,24.11 -0.74,14.31 -2.19,27.23 -3.43,36.28 -0.08,1.94 -1.72,3.44 -3.65,3.35 -1.93,-0.08 -3.43,-1.72 -3.35,-3.65 -0.43,-8.98 -1.98,-21.68 -3.23,-35.72 -0.69,-7.77 -1.4,-15.86 -1.76,-23.88 -0.14,-3.22 -0.13,-6.42 -0.12,-9.58 0.02,-4.97 0.1,-9.79 0.27,-14.39 0.77,-20.59 1.93,-36.06 1.93,-36.06 z"
     id="path1698"
     style="stroke:none;stroke-width:0.186515" /><path
     d="m 4368.2938,6187.7828 c 0.32,-0.42 0.66,-0.85 1,-1.21 2.78,-3 6.27,-7.23 10.14,-11.94 14.54,-17.68 33.5399,-42.2999 33.5399,-42.2999 1.06,-1.61 3.23,-2.07 4.85,-1.01 1.62,1.07 2.07,3.24 1.01,4.86 0,0 -15.2299,27.5599 -27.9999,46.8599 -4.37,6.62 -8.56,12.18 -11.57,15.62 -2.21,2.53 -4.22,4.04 -5.5,4.75 -2.32,1.27 -5.6,1.74 -9.5999,0.18 -3.12,-1.22 -7.56,-4.27 -12.32,-8.85 -5.25,-5.05 -11.2,-11.98 -16.8,-19.2 -9.9699,-12.86 -18.7799,-26.53 -21.2299,-31.64 -1.6,-3.4299 -1.81,-6.0699 -1.17,-8.1099 0.68,-2.14 1.94,-3.93 3.95,-5.08 4.91,-2.78 14.5199,-1.77 14.5199,-1.77 1.93,0.16 3.37,1.84 3.22,3.77 -0.15,1.93 -1.84,3.37 -3.77,3.22 0,0 -4.9399,0.03 -8.2799,1.52 -0.41,0.18 -0.98,0.74 -0.98,0.74 l 0.36,-0.32 c 0,0 0.42,0.76 0.75,1.28 3.13,4.9699 14.9799,18.3699 26.5199,30.4799 7.01,7.36 13.88,14.2 18.8999,17.77 0.15,0.1 0.3,0.24 0.46,0.38 z m 0.62,0.57 c 0.53,0.5 1,0.87 1.16,0.47 0.31,-0.73 -0.33,-0.72 -1.16,-0.47 z m -1.55,0.62 c -0.39,0.18 -0.72,0.34 -0.9299,0.45 -0.11,0.05 -0.43,0.09 -0.35,0.22 0.27,0.39 0.7299,0 1.2799,-0.67 z"
     id="path1702"
     style="stroke:none;stroke-width:0.186515" /><path
     style="fill:#000000;stroke:none;stroke-width:0.186515;stroke-linecap:round;stroke-linejoin:round"
     d="m 4332.1155,6025.726 6.6905,105.2003 -21.3853,3.6833 50.6603,61.4852 48.861,-63.6843 c 0,0 -20.7097,0.2032 -20.7097,-1.79 0,-1.9932 -3.1678,-125.1617 -3.1678,-125.1617 -27.7439,2.1751 -61.5309,2.1683 -60.949,20.2672 z"
     id="path91" /></g></svg>
