<?xml version="1.0" encoding="UTF-8" standalone="no"?>
<svg
   width="3474.3606"
   height="2700.7629"
   viewBox="0 0 3474.3606 2700.763"
   version="1.1"
   xml:space="preserve"
   style="clip-rule:evenodd;fill-rule:evenodd;stroke-linejoin:round;stroke-miterlimit:2"
   id="svg5353"
   xmlns="http://www.w3.org/2000/svg"
   xmlns:svg="http://www.w3.org/2000/svg"><defs
   id="defs5353" />&#10;    <g
   id="vectorly-UNI-password"
   transform="matrix(4.9999999,0,0,4.9999999,-12057.913,-69054.185)"
   style="stroke-width:0.2"><path
     d="m 3055.4336,13873.51 c -3.39,-0.3 -9,-0.5 -16.48,-0.7 -34.8099,-0.9 -108.7197,-0.3 -189.5495,1 -108.1397,1.6 -228.6294,4.3 -284.4093,6.7 -11.11,0.5 -19.5999,1 -24.8299,1.5 -0.16,1.9 -0.35,4.4 -0.46,6.8 -1.03,23.2 -1.05,72.8 -0.65,122.4 0.41,49.6 1.23,99.2 2.13,122.5 0.12,3.1 0.24,5.8 0.35,7.9 7.9299,0.6 23.5599,1.1 44.5599,1.7 129.0496,3.2 459.0288,4.7 459.0288,4.7 1.93,0 3.51,1.5 3.51,3.5 0.01,1.9 -1.56,3.5 -3.49,3.5 0,0 -330.1592,3.3 -459.2988,1.7 -22.24,-0.2 -38.5699,-0.7 -46.3299,-1.3 -3.02,-0.2 -5.03,-0.6 -5.97,-0.8 -3.26,-1 -4.38,-3.1 -4.84,-4.1 -0.21,-0.5 -0.66,-1.8 -0.9,-4.1 -0.32,-2.9 -0.68,-9.1 -1.04,-17.6 -1.5,-35.2 -3.25,-112.1 -3.6,-172.1 -0.19,-33 0.07,-60.9 0.9,-74.2 0.28,-4.3 0.68,-7.3 1.07,-8.8 0.56,-2.1 1.51,-3.4 2.12,-4.1 0.55,-0.6 2.78,-2.5 7.41,-3.1 4.01,-0.6 12.43,-1.1 24.3499,-1.7 44.9899,-2 141.2297,-3.9 237.4894,-4.8 96.2698,-0.9 192.5396,-0.6 237.5294,0.9 11.92,0.4 20.33,0.9 24.32,1.5 3.69,0.5 5.54,2 6.06,2.6 0.66,0.8 1.91,3.6 2.45,8.4 0.97,8.7 1.67,26.9 2.12,50.1 1.56,80.5 0.4,220.7 0.4,220.7 0,2 -1.57,3.5 -3.51,3.5 -1.93,0 -3.5,-1.5 -3.5,-3.5 0,0 -0.95,-111.7 -3.13,-192.9 -0.89,-32.9 -1.96,-60.8 -3.31,-74 -0.13,-1.3 -0.33,-2.7 -0.5,-3.8 z"
     id="path3892"
     style="stroke:none;stroke-width:0.2" /><path
     d="m 2424.4324,14071.568 c -0.01,0.2 -0.03,0.3 -0.04,0.4 -0.57,6.7 -0.76,20.6 -0.69,38.8 0.06,30.9 0.96,74 1.93,114.5 1.05,43.4 2.2299,83.8 3.2499,102.8 0.1,1.9 0.19,3.5 0.29,4.9 8.1,0.5 23.44,0.9 43.8599,1.3 20.2,0.4 45.3399,0.7 73.3699,1.1 33.7299,0.5 71.6298,1 110.1597,1.5 133.9496,1.7 275.4693,3.4 275.4693,3.4 1.93,0 3.51,1.5 3.51,3.5 0.01,1.9 -1.56,3.5 -3.49,3.5 0,0 -120.8397,2.1 -244.9194,3.2 -57.6899,0.4 -116.0697,0.7 -163.3196,0.4 -42.6199,-0.3 -76.2098,-1 -92.1598,-1.9 -5.1299,-0.3 -8.6199,-0.7 -10.2599,-1 -4.59,-1 -6.1,-3.9 -6.54,-4.8 -0.29,-0.7 -1.02,-4 -1.31,-9.7 -0.57,-11 -1.18,-34 -1.54,-62.1 -0.63,-50.5 -0.57,-117.5 0.31,-160.7 0.34,-15.2 0.79,-27.5 1.36,-35.1 0.32,-4.4 0.71,-7.3 1.1,-8.8 0.42,-1.6 1.06,-2.5 1.51,-3 0.41,-0.4 2.01,-1.7 5.23,-2.1 3.39,-0.4 10.4999,-0.9 20.6399,-1.2 19.91,-0.8 51.7099,-1.3 89.9498,-1.6 1.94,-0.1 3.54,1.5 3.59,3.4 0.05,1.9 -1.48,3.5 -3.42,3.6 -46.3699,1.8 -83.2298,3.6 -100.7498,5 -2.63,0.2 -5.2799,0.5 -7.0899,0.7 z m 2.42,261.3 c -1.01,-1.3 -2.03,-2 -2.36,-0.3 -0.1,0.5 1.12,0.3 2.36,0.3 z m 529.4386,3.6 c 0,2 -1.57,3.5 -3.51,3.5 -1.9299,0 -3.4999,-1.5 -3.4999,-3.5 0,0 -1.88,-22.7 -3.65,-55.4 -0.37,-7 -0.67,-14.4 -0.91,-22.2 -0.14,-4.8 -0.3,-9.7 -0.28,-14.7 0.02,-12 0.4,-24.4 0.85,-37 0.67,-18.8 1.83,-37.7 2.59,-55.5 -0.04,-1.9 1.5,-3.5 3.4399,-3.5 1.93,-0.1 3.53,1.5 3.56,3.4 1.38,17.8 3.02,36.7 4.07,55.5 0.7,12.5 1.28,25 1.48,36.9 0.08,5.1 -0.01,10 -0.1,14.8 -0.14,7.8 -0.37,15.2 -0.68,22.2 -1.48,32.7 -3.36,55.5 -3.36,55.5 z"
     id="path3894"
     style="stroke:none;stroke-width:0.2" /><path
     d="m 2923.7739,14006.41 c -1.23,-1.5 -1.01,-3.7 0.48,-4.9 1.5,-1.3 3.71,-1 4.94,0.4 0,0 4.65,2.5 11.08,6.9 2.13,1.5 4.46,3.1 6.66,5 1.27,1.1 2.33,2.4 3.5,3.7 1.1899,1.3 2.2099,2.6 3.3599,3.9 2.47,2.7 4.48,5.4 7.1,7.4 1.77,0.8 2.58,2.9 1.81,4.6 -0.78,1.8 -2.85,2.6 -4.62,1.9 -4.61,-0.8 -9.1299,-2.3 -13.8399,-4.5 -2.85,-1.4 -5.53,-3.1 -7.93,-5.1 -0.97,-0.7 -1.8,-1.7 -2.59,-2.6 -1.28,-1.5 -2.41,-2.9 -3.38,-4.4 -4.55,-7 -6.57,-12.3 -6.57,-12.3 z"
     id="path3896"
     style="stroke:none;stroke-width:0.2" /><path
     d="m 2810.6814,14198.668 c -1.23,-1.5 -1.01,-3.7 0.48,-4.9 1.5,-1.3 3.71,-1 4.94,0.4 0,0 4.65,2.5 11.08,6.9 2.13,1.5 4.4599,3.1 6.6599,5 1.27,1.1 2.33,2.4 3.5,3.7 1.19,1.3 2.21,2.6 3.36,3.9 2.47,2.7 4.48,5.4 7.1,7.4 1.77,0.8 2.58,2.9 1.81,4.6 -0.78,1.8 -2.85,2.6 -4.62,1.9 -4.61,-0.8 -9.13,-2.3 -13.84,-4.5 -2.8499,-1.4 -5.5299,-3.1 -7.9299,-5.1 -0.97,-0.7 -1.8,-1.7 -2.59,-2.6 -1.28,-1.5 -2.41,-2.9 -3.38,-4.4 -4.55,-7 -6.57,-12.3 -6.57,-12.3 z"
     id="path3898"
     style="stroke:none;stroke-width:0.2" /><path
     d="m 2982.8693,14006.41 c -1.23,-1.5 -1.01,-3.7 0.48,-4.9 1.5,-1.3 3.71,-1 4.94,0.4 0,0 4.65,2.5 11.08,6.9 2.13,1.5 4.46,3.1 6.66,5 1.27,1.1 2.33,2.4 3.5,3.7 1.19,1.3 2.21,2.6 3.36,3.9 2.4699,2.7 4.4799,5.4 7.0999,7.4 1.77,0.8 2.58,2.9 1.81,4.6 -0.78,1.8 -2.85,2.6 -4.62,1.9 -4.6099,-0.8 -9.1299,-2.3 -13.8399,-4.5 -2.85,-1.4 -5.53,-3.1 -7.93,-5.1 -0.97,-0.7 -1.8,-1.7 -2.59,-2.6 -1.28,-1.5 -2.41,-2.9 -3.38,-4.4 -4.55,-7 -6.57,-12.3 -6.57,-12.3 z"
     id="path3900"
     style="stroke:none;stroke-width:0.2" /><path
     d="m 2869.7768,14198.668 c -1.23,-1.5 -1.01,-3.7 0.48,-4.9 1.5,-1.3 3.71,-1 4.94,0.4 0,0 4.65,2.5 11.08,6.9 2.13,1.5 4.4599,3.1 6.6599,5 1.27,1.1 2.33,2.4 3.5,3.7 1.19,1.3 2.21,2.6 3.36,3.9 2.47,2.7 4.48,5.4 7.1,7.4 1.77,0.8 2.58,2.9 1.81,4.6 -0.78,1.8 -2.85,2.6 -4.62,1.9 -4.61,-0.8 -9.13,-2.3 -13.8399,-4.5 -2.85,-1.4 -5.53,-3.1 -7.93,-5.1 -0.97,-0.7 -1.8,-1.7 -2.59,-2.6 -1.28,-1.5 -2.41,-2.9 -3.38,-4.4 -4.55,-7 -6.57,-12.3 -6.57,-12.3 z"
     id="path3902"
     style="stroke:none;stroke-width:0.2" /><path
     d="m 2957.1038,14001.61 c 1.42,-1.3 3.64,-1.2 4.95,0.2 1.32,1.4 1.24,3.6 -0.18,4.9 0,0 -2.81,5.2 -8,11.8 -1.11,1.4 -2.35,2.8 -3.7299,4.2 -0.86,0.9 -1.74,1.7 -2.75,2.5 -2.52,1.9 -5.28,3.4 -8.09,4.8 -4.96,2.5 -9.58,4 -13.72,5.1 -1.7,0.9 -3.83,0.3 -4.75,-1.4 -0.92,-1.7 -0.3,-3.8 1.4,-4.7 2.88,-2.7 5.49,-6.2 8.9,-9.9 2,-2.2 3.92,-4.5 6.2,-6.3 2.41,-2 5.02,-3.5 7.43,-4.9 7.0699,-4.2 12.3399,-6.3 12.3399,-6.3 z"
     id="path3904"
     style="stroke:none;stroke-width:0.2" /><path
     d="m 2844.0113,14193.868 c 1.42,-1.3 3.64,-1.2 4.95,0.2 1.32,1.4 1.24,3.6 -0.18,4.9 0,0 -2.81,5.2 -8,11.8 -1.11,1.4 -2.35,2.8 -3.73,4.2 -0.86,0.9 -1.74,1.7 -2.75,2.5 -2.52,1.9 -5.2799,3.4 -8.0899,4.8 -4.96,2.5 -9.58,4 -13.72,5.1 -1.7,0.9 -3.83,0.3 -4.75,-1.4 -0.92,-1.7 -0.3,-3.8 1.4,-4.7 2.88,-2.7 5.49,-6.2 8.9,-9.9 2,-2.2 3.92,-4.5 6.2,-6.3 2.41,-2 5.02,-3.5 7.4299,-4.9 7.07,-4.2 12.34,-6.3 12.34,-6.3 z"
     id="path3906"
     style="stroke:none;stroke-width:0.2" /><path
     d="m 3016.1992,14001.61 c 1.42,-1.3 3.64,-1.2 4.95,0.2 1.32,1.4 1.24,3.6 -0.18,4.9 0,0 -2.81,5.2 -7.9999,11.8 -1.11,1.4 -2.35,2.8 -3.73,4.2 -0.86,0.9 -1.74,1.7 -2.75,2.5 -2.52,1.9 -5.28,3.4 -8.09,4.8 -4.96,2.5 -9.58,4 -13.72,5.1 -1.7,0.9 -3.83,0.3 -4.75,-1.4 -0.92,-1.7 -0.3,-3.8 1.4,-4.7 2.88,-2.7 5.49,-6.2 8.9,-9.9 2,-2.2 3.92,-4.5 6.2,-6.3 2.41,-2 5.02,-3.5 7.43,-4.9 7.07,-4.2 12.3399,-6.3 12.3399,-6.3 z"
     id="path3908"
     style="stroke:none;stroke-width:0.2" /><path
     d="m 2903.1067,14193.868 c 1.42,-1.3 3.64,-1.2 4.95,0.2 1.32,1.4 1.24,3.6 -0.18,4.9 0,0 -2.81,5.2 -8,11.8 -1.11,1.4 -2.35,2.8 -3.73,4.2 -0.86,0.9 -1.74,1.7 -2.75,2.5 -2.52,1.9 -5.2799,3.4 -8.0899,4.8 -4.96,2.5 -9.58,4 -13.72,5.1 -1.7,0.9 -3.83,0.3 -4.75,-1.4 -0.92,-1.7 -0.3,-3.8 1.4,-4.7 2.88,-2.7 5.49,-6.2 8.9,-9.9 2,-2.2 3.92,-4.5 6.2,-6.3 2.41,-2 5.02,-3.5 7.4299,-4.9 7.07,-4.2 12.34,-6.3 12.34,-6.3 z"
     id="path3910"
     style="stroke:none;stroke-width:0.2" /><path
     d="m 2703.2045,14075.81 c -1.94,0 -3.52,-1.6 -3.53,-3.5 -0.01,-2 1.55,-3.5 3.49,-3.6 0,0 23.5399,-2 53.8198,-3.7 6.9,-0.4 14.14,-0.7 21.53,-0.9 4.75,-0.1 9.55,-0.2 14.3599,-0.2 12.26,0.1 24.52,0.6 35.91,1.1 26.4499,1.3 48.0598,3.1 53.9998,3.8 1.93,0.1 3.42,1.7 3.32,3.6 -0.1,2 -1.75,3.5 -3.68,3.4 -5.93,0 -27.3899,1.6 -53.6498,2.9 -11.37,0.5 -23.61,1 -35.86,1.2 -4.8099,0 -9.6099,-0.1 -14.3499,-0.2 -7.39,-0.1 -14.63,-0.4 -21.53,-0.7 -30.2799,-1.4 -53.8298,-3.2 -53.8298,-3.2 z"
     id="path3912"
     style="stroke:none;stroke-width:0.2" /><path
     d="m 2590.1119,14268.068 c -1.94,0 -3.5199,-1.6 -3.5299,-3.5 -0.01,-2 1.55,-3.5 3.4899,-3.6 0,0 23.54,-2 53.8199,-3.7 6.9,-0.4 14.14,-0.7 21.53,-0.9 4.7499,-0.1 9.5499,-0.2 14.3599,-0.2 12.26,0.1 24.52,0.6 35.9099,1.1 26.45,1.3 48.0599,3.1 53.9999,3.8 1.93,0.1 3.42,1.7 3.32,3.6 -0.1,2 -1.75,3.5 -3.68,3.4 -5.93,0 -27.3899,1.6 -53.6499,2.9 -11.3699,0.5 -23.6099,1 -35.8599,1.2 -4.81,0 -9.61,-0.1 -14.3499,-0.2 -7.39,-0.1 -14.63,-0.4 -21.53,-0.7 -30.2799,-1.4 -53.8299,-3.2 -53.8299,-3.2 z"
     id="path3914"
     style="stroke:none;stroke-width:0.2" /><path
     d="m 2659.7346,13993.11 c -2.41,-0.2 -7.01,0.5 -10.97,0.6 -8.72,0 -20.01,0.6 -31.0099,1.4 -11.78,0.8 -23.19,1.9 -30.5399,3.1 -1.03,0.1 -2.26,0.2 -3.28,0.2 -0.06,0.9 -0.11,1.9 -0.25,2.8 -1.18,7.1 -2.19,18.4 -2.41,28.8 -0.13,6.2 -0.06,12 0.54,16.3 0.21,1.6 0.72,3.7 0.8,4 1.24,1.1 4.19,1.8 8.0599,2.8 7.47,1.9 17.76,3.4 29.17,4 13.6799,0.8 28.8699,0.5 42.6999,-1.8 1.89,-0.4 3.75,0.8 4.14,2.7 0.4,1.9 -0.82,3.7 -2.72,4.1 -17.25,4.3 -36.8599,5.9 -53.2799,5.6 -12.25,-0.3 -22.7399,-1.7 -29.3399,-3.7 -4.53,-1.3 -7.56,-3.2 -9.16,-4.9 -1.35,-1.5 -2.65,-4 -3.58,-7.6 -1.35,-5.1 -2.1,-13 -2.28,-21.5 -0.23,-11.2 0.48,-23.5 1.61,-31.3 0.79,-5.5 2.25,-9.3 3.22,-10.6 0.88,-1.3 3.26,-3.4 7.73,-4.5 5.93,-1.5 18.7699,-2.7 32.8599,-3.2 18.4199,-0.7 38.9799,-0.1 48.3999,1.3 4.98,0.8 7.92,2.5 8.78,3.6 0.6799,0.8 1.5799,2.3 2.0199,4.6 0.44,2.3 0.74,5.8 0.78,10.1 0.19,16.9 -2.4,46 -2.4,46 -0.09,1.9 -1.7299,3.4 -3.6599,3.3 -1.93,0 -3.43,-1.7 -3.34,-3.6 0,0 -0.03,-18.2 -0.79,-34 -0.37,-7.8 -0.9,-14.9 -1.8,-18.6 z m -77.3498,56.9 c 0,0 -0.01,0 -0.01,0 z m 1.1,-51.5 c -1.06,0.1 -1.77,0.3 -1.56,0.8 0.32,0.9 1.01,0 1.56,-0.8 z m 0.53,-0.9 c 0.08,-0.1 0.14,-0.2 0.18,-0.3 0.15,-0.2 0.83,-0.7 0.48,-0.8 -0.39,-0.2 -0.56,0.3 -0.66,1.1 z m 76.0398,-4.5 c 0.35,0.5 1.14,1.8 1.33,1.1 0.16,-0.7 -0.37,-1 -1.33,-1.1 z"
     id="path3916"
     style="stroke:none;stroke-width:0.2" /><path
     d="m 2546.6421,14185.368 c -2.41,-0.2 -7.01,0.5 -10.97,0.6 -8.72,0 -20.01,0.6 -31.0099,1.4 -11.78,0.8 -23.19,1.9 -30.54,3.1 -1.03,0.1 -2.26,0.2 -3.28,0.2 -0.06,0.9 -0.11,1.9 -0.25,2.8 -1.18,7.1 -2.19,18.4 -2.41,28.8 -0.13,6.2 -0.06,12 0.54,16.3 0.21,1.6 0.72,3.7 0.8,4 1.24,1.1 4.19,1.8 8.06,2.8 7.47,1.9 17.76,3.4 29.17,4 13.6799,0.8 28.8699,0.5 42.6998,-1.8 1.89,-0.4 3.75,0.8 4.14,2.7 0.4,1.9 -0.82,3.7 -2.72,4.1 -17.2499,4.3 -36.8599,5.9 -53.2798,5.6 -12.25,-0.3 -22.74,-1.7 -29.34,-3.7 -4.5299,-1.3 -7.5599,-3.2 -9.1599,-4.9 -1.35,-1.5 -2.65,-4 -3.58,-7.6 -1.35,-5.1 -2.1,-13 -2.28,-21.5 -0.23,-11.2 0.48,-23.5 1.61,-31.3 0.79,-5.5 2.25,-9.3 3.22,-10.6 0.88,-1.3 3.26,-3.4 7.73,-4.5 5.9299,-1.5 18.7699,-2.7 32.8599,-3.2 18.4199,-0.7 38.9799,-0.1 48.3999,1.3 4.9799,0.8 7.9199,2.5 8.7799,3.6 0.68,0.8 1.58,2.3 2.02,4.6 0.44,2.3 0.74,5.8 0.78,10.1 0.19,16.9 -2.4,46 -2.4,46 -0.09,1.9 -1.73,3.4 -3.66,3.3 -1.93,0 -3.43,-1.7 -3.34,-3.6 0,0 -0.03,-18.2 -0.79,-34 -0.37,-7.8 -0.8999,-14.9 -1.7999,-18.6 z m -77.3499,56.9 c 0,0 -0.01,0 -0.01,0 z m 1.1,-51.5 c -1.06,0.1 -1.77,0.3 -1.56,0.8 0.32,0.9 1.01,0 1.56,-0.8 z m 0.53,-0.9 c 0.08,-0.1 0.14,-0.2 0.18,-0.3 0.15,-0.2 0.83,-0.7 0.48,-0.8 -0.39,-0.2 -0.56,0.3 -0.66,1.1 z m 76.0399,-4.5 c 0.35,0.5 1.1399,1.8 1.3299,1.1 0.16,-0.7 -0.37,-1 -1.3299,-1.1 z"
     id="path3918"
     style="stroke:none;stroke-width:0.2" /><path
     d="m 2595.9247,13989.31 c 0.12,1.9 -1.35,3.6 -3.28,3.7 -1.93,0.1 -3.59,-1.4 -3.71,-3.3 -1.4899,-9.1 -1.6299,-20.4 0.84,-30.1 2.11,-8.3 6.58,-15.1 12.53,-19.4 6.8,-4.4 15.31,-6.4 23.21,-5.5 9.4599,1 17.7899,5.7 21.7799,11.8 3.29,5.4 5.11,11.3 5.52,17.2 0.89,12.8 -3.57,24.4 -3.57,24.4 -0.54,1.8 -2.48,2.9 -4.34,2.4 -1.86,-0.6 -2.94,-2.5 -2.41,-4.4 0,0 1.31,-8.2 -0.2,-17.4 -0.8,-4.8 -2.6,-9.9 -6.16,-14.1 -0.66,-0.8 -1.64,-1.3 -2.63,-1.8 -2.58,-1.5 -5.9199,-2.1 -9.3899,-2.3 -2.39,-0.2 -4.85,-0.1 -7.25,0.4 -2.26,0.4 -4.51,1 -6.5,2.2 -4.92,2.6 -8.05,8.2 -10.24,14.5 -2.46,7.1 -3.93,14.9 -4.2,21.7 z"
     id="path3920"
     style="stroke:none;stroke-width:0.2" /><path
     d="m 2482.8322,14181.568 c 0.12,1.9 -1.35,3.6 -3.28,3.7 -1.93,0.1 -3.59,-1.4 -3.71,-3.3 -1.49,-9.1 -1.63,-20.4 0.84,-30.1 2.11,-8.3 6.58,-15.1 12.53,-19.4 6.8,-4.4 15.31,-6.4 23.2099,-5.5 9.46,1 17.79,5.7 21.78,11.8 3.29,5.4 5.11,11.3 5.52,17.2 0.89,12.8 -3.57,24.4 -3.57,24.4 -0.54,1.8 -2.48,2.9 -4.34,2.4 -1.86,-0.6 -2.94,-2.5 -2.41,-4.4 0,0 1.31,-8.2 -0.2,-17.4 -0.8,-4.8 -2.6,-9.9 -6.16,-14.1 -0.66,-0.8 -1.64,-1.3 -2.63,-1.8 -2.58,-1.5 -5.92,-2.1 -9.39,-2.3 -2.39,-0.2 -4.8499,-0.1 -7.2499,0.4 -2.26,0.4 -4.51,1 -6.5,2.2 -4.92,2.6 -8.05,8.2 -10.24,14.5 -2.46,7.1 -3.93,14.9 -4.2,21.7 z"
     id="path3922"
     style="stroke:none;stroke-width:0.2" /><path
     d="m 2611.6747,14017.11 c 1.55,1.1 1.88,3.3 0.73,4.9 -1.15,1.5 -3.35,1.9 -4.9,0.7 -4.15,-2.3 -5.47,-8.7 -3.51,-14.6 1.51,-4.6 5.5,-8.2 11.56,-10 11.76,-3 19.1499,2 23.0199,8 2.46,3.9 3.25,8.7 2.57,13.4 -0.62,4.3 -2.64,8.5 -5.73,11.8 -1.13,1.1 -1.96,3.6 -2.75,6 -1.53,4.7 -2.64,9.3 -2.64,9.3 -0.34,2.9 -2.6999,5.2 -5.6199,5.4 l -14.46,-0.4 c -1.26,0.1 -2.51,-0.4 -3.44,-1.2 -0.93,-0.9 -1.46,-2.1 -1.46,-3.4 l 1.04,-8.4 c 0,-1.9 1.57,-3.5 3.5,-3.5 1.94,0 3.51,1.6 3.51,3.5 l 0.38,3.1 c 0,0 4.61,-0.9 4.61,-0.9 0.27,-3.2 0.78,-7.6 1.71,-11.4 0.88,-3.6 2.47,-6.6 3.96,-8.5 1.14,-1.3 1.65,-3 1.74,-4.6 0.07,-1.4 0.15,-2.8 -0.77,-3.8 -1.44,-1.5 -3.73,-2.5 -7.17,-2.3 -2.12,0.1 -3.84,0.7 -4.71,2.1 -0.81,1.3 -1.59,2.6 -1.34,3.8 0.08,0.3 -0.08,0.7 0.17,1 z"
     id="path3924"
     style="stroke:none;stroke-width:0.2" /><path
     d="m 2498.5822,14209.368 c 1.55,1.1 1.88,3.3 0.73,4.9 -1.15,1.5 -3.35,1.9 -4.9,0.7 -4.15,-2.3 -5.47,-8.7 -3.51,-14.6 1.51,-4.6 5.5,-8.2 11.56,-10 11.7599,-3 19.1499,2 23.0199,8 2.46,3.9 3.25,8.7 2.57,13.4 -0.62,4.3 -2.64,8.5 -5.73,11.8 -1.13,1.1 -1.96,3.6 -2.75,6 -1.53,4.7 -2.64,9.3 -2.64,9.3 -0.34,2.9 -2.7,5.2 -5.62,5.4 l -14.4599,-0.4 c -1.26,0.1 -2.51,-0.4 -3.44,-1.2 -0.93,-0.9 -1.46,-2.1 -1.46,-3.4 l 1.04,-8.4 c 0,-1.9 1.57,-3.5 3.5,-3.5 1.94,0 3.51,1.6 3.51,3.5 l 0.38,3.1 c 0,0 4.61,-0.9 4.61,-0.9 0.27,-3.2 0.78,-7.6 1.71,-11.4 0.8799,-3.6 2.4699,-6.6 3.9599,-8.5 1.14,-1.3 1.65,-3 1.74,-4.6 0.07,-1.4 0.15,-2.8 -0.77,-3.8 -1.44,-1.5 -3.73,-2.5 -7.1699,-2.3 -2.12,0.1 -3.84,0.7 -4.71,2.1 -0.81,1.3 -1.59,2.6 -1.34,3.8 0.08,0.3 -0.08,0.7 0.17,1 z"
     id="path3926"
     style="stroke:none;stroke-width:0.2" /><path
     d="m 2713.4944,14000.71 c 4.64,-0.8 8.85,0.9 12.37,3.5 3.82,2.8 5.8,7.3 6.54,12.3 0.57,5.4 -1.55,10.3 -4.81,14.1 -3.37,4 -8.54,6.1 -14.1,6.3 -5.5399,-0.3 -10.6699,-2.4 -13.9999,-6.3 -3.21,-3.8 -5.32,-8.7 -4.74,-14.1 0.7,-5 2.68,-9.4 6.45,-12.2 3.48,-2.6 7.67,-4.3 12.2899,-3.6 z m 0,7 c -2.29,0.3 -3.92,1.9 -5.1999,3.6 -1.06,1.5 -1.07,3.4 -0.8,5.2 0.17,1.6 1.4,2.6 2.5099,3.5 0.92,0.8 2.19,1 3.49,0.9 1.28,0.1 2.5,-0.2 3.4,-1 1.07,-0.9 2.28,-1.8 2.44,-3.4 0.27,-1.8 0.32,-3.7 -0.71,-5.1 -1.27,-1.7 -2.84,-3.3 -5.13,-3.7 z"
     id="path3928"
     style="stroke:none;stroke-width:0.2" /><path
     d="m 2600.4019,14192.968 c 4.64,-0.8 8.85,0.9 12.37,3.5 3.82,2.8 5.8,7.3 6.54,12.3 0.57,5.4 -1.55,10.3 -4.81,14.1 -3.37,4 -8.54,6.1 -14.1,6.3 -5.54,-0.3 -10.67,-2.4 -13.9999,-6.3 -3.21,-3.8 -5.32,-8.7 -4.74,-14.1 0.7,-5 2.68,-9.4 6.45,-12.2 3.4799,-2.6 7.6699,-4.3 12.2899,-3.6 z m 0,7 c -2.29,0.3 -3.92,1.9 -5.2,3.6 -1.06,1.5 -1.07,3.4 -0.8,5.2 0.17,1.6 1.4,2.6 2.51,3.5 0.92,0.8 2.19,1 3.49,0.9 1.28,0.1 2.5,-0.2 3.4,-1 1.07,-0.9 2.28,-1.8 2.44,-3.4 0.27,-1.8 0.32,-3.7 -0.71,-5.1 -1.27,-1.7 -2.84,-3.3 -5.13,-3.7 z"
     id="path3930"
     style="stroke:none;stroke-width:0.2" /><path
     d="m 2757.7667,14000.71 c 4.6399,-0.8 8.8499,0.9 12.3699,3.5 3.82,2.8 5.8,7.3 6.54,12.3 0.57,5.4 -1.55,10.3 -4.81,14.1 -3.37,4 -8.54,6.1 -14.0999,6.3 -5.54,-0.3 -10.67,-2.4 -14,-6.3 -3.21,-3.8 -5.32,-8.7 -4.74,-14.1 0.7,-5 2.68,-9.4 6.45,-12.2 3.48,-2.6 7.67,-4.3 12.29,-3.6 z m 0,7 c -2.29,0.3 -3.92,1.9 -5.2,3.6 -1.06,1.5 -1.07,3.4 -0.8,5.2 0.17,1.6 1.4,2.6 2.51,3.5 0.92,0.8 2.19,1 3.49,0.9 1.28,0.1 2.4999,-0.2 3.3999,-1 1.07,-0.9 2.28,-1.8 2.44,-3.4 0.27,-1.8 0.32,-3.7 -0.71,-5.1 -1.27,-1.7 -2.84,-3.3 -5.1299,-3.7 z"
     id="path3932"
     style="stroke:none;stroke-width:0.2" /><path
     d="m 2644.6741,14192.968 c 4.64,-0.8 8.85,0.9 12.37,3.5 3.82,2.8 5.8,7.3 6.54,12.3 0.57,5.4 -1.55,10.3 -4.81,14.1 -3.37,4 -8.54,6.1 -14.1,6.3 -5.54,-0.3 -10.6699,-2.4 -13.9999,-6.3 -3.21,-3.8 -5.32,-8.7 -4.74,-14.1 0.7,-5 2.68,-9.4 6.45,-12.2 3.48,-2.6 7.6699,-4.3 12.2899,-3.6 z m 0,7 c -2.29,0.3 -3.92,1.9 -5.2,3.6 -1.06,1.5 -1.07,3.4 -0.8,5.2 0.17,1.6 1.4,2.6 2.51,3.5 0.92,0.8 2.19,1 3.49,0.9 1.28,0.1 2.5,-0.2 3.4,-1 1.07,-0.9 2.28,-1.8 2.44,-3.4 0.27,-1.8 0.32,-3.7 -0.71,-5.1 -1.27,-1.7 -2.84,-3.3 -5.13,-3.7 z"
     id="path3934"
     style="stroke:none;stroke-width:0.2" /><path
     d="m 2802.0389,14000.71 c 4.64,-0.8 8.8499,0.9 12.3699,3.5 3.82,2.8 5.8,7.3 6.54,12.3 0.57,5.4 -1.55,10.3 -4.81,14.1 -3.37,4 -8.5399,6.1 -14.0999,6.3 -5.54,-0.3 -10.67,-2.4 -14,-6.3 -3.21,-3.8 -5.32,-8.7 -4.74,-14.1 0.7,-5 2.68,-9.4 6.45,-12.2 3.48,-2.6 7.67,-4.3 12.29,-3.6 z m 0,7 c -2.29,0.3 -3.92,1.9 -5.2,3.6 -1.06,1.5 -1.07,3.4 -0.8,5.2 0.17,1.6 1.4,2.6 2.51,3.5 0.92,0.8 2.19,1 3.49,0.9 1.28,0.1 2.5,-0.2 3.4,-1 1.07,-0.9 2.28,-1.8 2.44,-3.4 0.27,-1.8 0.32,-3.7 -0.71,-5.1 -1.27,-1.7 -2.84,-3.3 -5.13,-3.7 z"
     id="path3936"
     style="stroke:none;stroke-width:0.2" /><path
     d="m 2688.9461,14192.968 c 4.64,-0.8 8.85,0.9 12.37,3.5 3.82,2.8 5.8,7.3 6.54,12.3 0.57,5.4 -1.55,10.3 -4.81,14.1 -3.37,4 -8.54,6.1 -14.1,6.3 -5.5399,-0.3 -10.6699,-2.4 -13.9999,-6.3 -3.21,-3.8 -5.32,-8.7 -4.74,-14.1 0.7,-5 2.68,-9.4 6.45,-12.2 3.48,-2.6 7.67,-4.3 12.2899,-3.6 z m 0,7 c -2.29,0.3 -3.9199,1.9 -5.1999,3.6 -1.06,1.5 -1.07,3.4 -0.8,5.2 0.17,1.6 1.4,2.6 2.51,3.5 0.9199,0.8 2.1899,1 3.4899,0.9 1.28,0.1 2.5,-0.2 3.4,-1 1.07,-0.9 2.28,-1.8 2.44,-3.4 0.27,-1.8 0.32,-3.7 -0.71,-5.1 -1.27,-1.7 -2.84,-3.3 -5.13,-3.7 z"
     id="path3938"
     style="stroke:none;stroke-width:0.2" /><path
     d="m 2846.3111,14000.71 c 4.64,-0.8 8.85,0.9 12.3699,3.5 3.82,2.8 5.8,7.3 6.54,12.3 0.57,5.4 -1.55,10.3 -4.81,14.1 -3.3699,4 -8.5399,6.1 -14.0999,6.3 -5.54,-0.3 -10.67,-2.4 -14,-6.3 -3.21,-3.8 -5.32,-8.7 -4.74,-14.1 0.7,-5 2.68,-9.4 6.45,-12.2 3.48,-2.6 7.67,-4.3 12.29,-3.6 z m 0,7 c -2.29,0.3 -3.92,1.9 -5.2,3.6 -1.06,1.5 -1.07,3.4 -0.8,5.2 0.17,1.6 1.4,2.6 2.51,3.5 0.92,0.8 2.19,1 3.49,0.9 1.28,0.1 2.5,-0.2 3.4,-1 1.07,-0.9 2.28,-1.8 2.44,-3.4 0.27,-1.8 0.32,-3.7 -0.71,-5.1 -1.27,-1.7 -2.84,-3.3 -5.13,-3.7 z"
     id="path3940"
     style="stroke:none;stroke-width:0.2" /><path
     d="m 2733.2184,14192.968 c 4.64,-0.8 8.85,0.9 12.37,3.5 3.82,2.8 5.8,7.3 6.5399,12.3 0.57,5.4 -1.5499,10.3 -4.8099,14.1 -3.37,4 -8.54,6.1 -14.1,6.3 -5.54,-0.3 -10.67,-2.4 -14,-6.3 -3.21,-3.8 -5.32,-8.7 -4.74,-14.1 0.7,-5 2.68,-9.4 6.45,-12.2 3.48,-2.6 7.67,-4.3 12.29,-3.6 z m 0,7 c -2.29,0.3 -3.92,1.9 -5.2,3.6 -1.06,1.5 -1.07,3.4 -0.8,5.2 0.17,1.6 1.4,2.6 2.51,3.5 0.92,0.8 2.19,1 3.49,0.9 1.28,0.1 2.5,-0.2 3.4,-1 1.07,-0.9 2.28,-1.8 2.44,-3.4 0.27,-1.8 0.32,-3.7 -0.71,-5.1 -1.27,-1.7 -2.84,-3.3 -5.13,-3.7 z"
     id="path3942"
     style="stroke:none;stroke-width:0.2" /><path
     d="m 2890.5831,14000.71 c 4.64,-0.8 8.85,0.9 12.37,3.5 3.82,2.8 5.8,7.3 6.54,12.3 0.57,5.4 -1.55,10.3 -4.81,14.1 -3.37,4 -8.54,6.1 -14.1,6.3 -5.54,-0.3 -10.67,-2.4 -14,-6.3 -3.21,-3.8 -5.32,-8.7 -4.74,-14.1 0.7,-5 2.68,-9.4 6.45,-12.2 3.48,-2.6 7.67,-4.3 12.29,-3.6 z m 0,7 c -2.29,0.3 -3.92,1.9 -5.2,3.6 -1.06,1.5 -1.07,3.4 -0.8,5.2 0.17,1.6 1.4,2.6 2.51,3.5 0.92,0.8 2.19,1 3.49,0.9 1.28,0.1 2.5,-0.2 3.4,-1 1.07,-0.9 2.28,-1.8 2.44,-3.4 0.27,-1.8 0.32,-3.7 -0.71,-5.1 -1.27,-1.7 -2.84,-3.3 -5.13,-3.7 z"
     id="path3944"
     style="stroke:none;stroke-width:0.2" /><path
     d="m 2777.4906,14192.968 c 4.64,-0.8 8.8499,0.9 12.3699,3.5 3.82,2.8 5.8,7.3 6.54,12.3 0.57,5.4 -1.55,10.3 -4.81,14.1 -3.37,4 -8.5399,6.1 -14.0999,6.3 -5.54,-0.3 -10.67,-2.4 -14,-6.3 -3.21,-3.8 -5.32,-8.7 -4.74,-14.1 0.7,-5 2.68,-9.4 6.45,-12.2 3.48,-2.6 7.67,-4.3 12.29,-3.6 z m 0,7 c -2.29,0.3 -3.92,1.9 -5.2,3.6 -1.06,1.5 -1.07,3.4 -0.8,5.2 0.17,1.6 1.4,2.6 2.51,3.5 0.92,0.8 2.19,1 3.49,0.9 1.28,0.1 2.5,-0.2 3.4,-1 1.07,-0.9 2.28,-1.8 2.44,-3.4 0.27,-1.8 0.32,-3.7 -0.71,-5.1 -1.27,-1.7 -2.84,-3.3 -5.13,-3.7 z"
     id="path3946"
     style="stroke:none;stroke-width:0.2" /><path
     d="m 2531.1149,13921.91 c -1.94,0 -3.52,-1.5 -3.52,-3.5 -0.01,-1.9 1.56,-3.5 3.49,-3.5 0,0 68.4698,-2.1 155.7796,-4 19.99,-0.4 40.9599,-0.7 62.3199,-1 13.7399,-0.2 27.6399,-0.4 41.5398,-0.4 35.49,0 70.9899,0.4 103.8698,0.8 81.3698,1 146.5996,2.4 155.7096,2.3 1.94,0 3.55,1.5 3.61,3.4 0.06,2 -1.47,3.6 -3.4,3.6 -9.11,0.5 -74.3998,2.7 -155.8696,4.3 -32.8699,0.7 -68.3598,1.4 -103.8598,1.6 -13.8999,0.1 -27.7999,0.1 -41.5398,0 -21.37,-0.1 -42.3399,-0.3 -62.3299,-0.6 -87.3298,-1.2 -155.7996,-3 -155.7996,-3 z"
     id="path3948"
     style="stroke:none;stroke-width:0.2" /><path
     d="m 2418.0224,14114.168 c -1.94,0 -3.52,-1.5 -3.52,-3.5 -0.01,-1.9 1.56,-3.5 3.49,-3.5 0,0 12.7199,-1.8 34.5799,-3.6 4.27,-0.3 8.88,-0.6 13.83,-0.8 2.9599,-0.2 6.0299,-0.3 9.2199,-0.2 7.19,0 14.88,0.5 23.06,1 10.8499,0.8 22.3199,2.1 34.5899,3.2 1.94,0 3.51,1.6 3.52,3.5 0,2 -1.56,3.6 -3.49,3.6 -12.27,1.2 -23.73,2.6 -34.5799,3.4 -8.17,0.6 -15.86,1.1 -23.05,1.2 -3.18,0.1 -6.26,0 -9.2199,-0.1 -4.95,-0.2 -9.56,-0.4 -13.84,-0.8 -21.86,-1.6 -34.5899,-3.4 -34.5899,-3.4 z"
     id="path3950"
     style="stroke:none;stroke-width:0.2" /><path
     d="m 2555.9248,13899.61 c -1.93,0 -3.51,-1.6 -3.51,-3.5 -0.01,-2 1.56,-3.5 3.49,-3.5 0,0 19.9,-2.1 45.5999,-3.7 5.85,-0.4 11.98,-0.7 18.24,-0.9 4.02,-0.2 8.09,-0.3 12.1599,-0.3 10.37,0 20.74,0.4 30.41,0.9 21.4799,0.9 39.2599,2.3 45.4799,2.4 1.9299,-0.1 3.5999,1.4 3.7099,3.3 0.12,1.9 -1.36,3.6 -3.2899,3.7 -6.22,0.8 -24.11,2.8 -45.7599,4.2 -9.67,0.7 -20.05,1.3 -30.43,1.5 -4.0799,0 -8.1499,0 -12.1799,-0.1 -6.27,-0.2 -12.41,-0.4 -18.26,-0.7 -25.7399,-1.4 -45.6599,-3.3 -45.6599,-3.3 z"
     id="path3952"
     style="stroke:none;stroke-width:0.2" /><path
     d="m 2442.8323,14091.868 c -1.93,0 -3.51,-1.6 -3.51,-3.5 -0.01,-2 1.56,-3.5 3.49,-3.5 0,0 10.73,-1.9 26.9499,-3.6 3.38,-0.4 6.97,-0.7 10.78,-0.9 2.33,-0.1 4.73,-0.3 7.18,-0.2 5.78,0.1 11.81,0.5 17.98,1 8.9899,0.8 17.9899,2.1 26.9799,3.2 1.94,-0.1 3.52,1.5 3.54,3.4 0.01,2 -1.54,3.6 -3.48,3.6 -8.98,1.2 -17.97,2.6 -26.9499,3.5 -6.17,0.6 -12.2,1.1 -17.98,1.3 -2.46,0 -4.86,-0.1 -7.2,-0.2 -3.8,-0.2 -7.4,-0.4 -10.79,-0.7 -16.2399,-1.6 -26.9899,-3.4 -26.9899,-3.4 z"
     id="path3954"
     style="stroke:none;stroke-width:0.2" /><path
     d="m 3088.6935,13828.11 c -3.81,-0.5 -10.1,-0.8 -18.4199,-1.1 -23.57,-0.7 -62.6099,-0.4 -108.2398,-0.1 -33.7699,0.3 -71.1398,0.6 -108.5097,1 -87.9398,0.8 -175.8696,2 -216.9895,3.4 -10.1599,0.4 -17.4199,0.7 -21.0599,1.1 -0.13,0.5 -0.25,1.1 -0.33,1.7 -0.43,3 -0.73,7.1 -0.93,11.5 -0.54,11.7 -0.42,25.3 -0.42,25.3 0.05,1.9 -1.49,3.6 -3.42,3.6 -1.93,0 -3.54,-1.5 -3.59,-3.4 0,0 -0.89,-21.8 -0.1,-34.4 0.32,-5.3 1.33,-9.3 2.25,-10.6 0.3,-0.4 1,-1.1 2.47,-1.6 0.59,-0.2 1.86,-0.4 3.75,-0.7 5.08,-0.6 15.7299,-1.4 30.5799,-2.2 34.1199,-2 90.4998,-4.7 152.0096,-6.7 50.4199,-1.7 104.2698,-3.2 152.0797,-3.8 58.2498,-0.7 107.5297,0 130.7996,1.5 7.18,0.4 12.12,1.1 14.45,1.8 2.98,0.8 4.51,2.3 5.2,3.2 0.74,1.1 2.03,4.1 2.66,9.1 1.14,9.3 2.02,28.6 2.56,53.2 1.89,85.2 0.41,233.5 0.41,233.5 0.01,2 -1.55,3.5 -3.49,3.5 -1.93,0 -3.51,-1.5 -3.52,-3.5 0,0 -2.34,-118.2 -5.61,-204 -1.32,-34.7 -2.74,-64.1 -4.39,-78.1 -0.13,-1 -0.16,-2.2 -0.2,-3.2 z m -0.09,-1.6 c -0.1,-0.9 -0.29,-1.5 -0.73,-1.3 -0.59,0.2 0.48,0.9 0.69,1.2 0.01,0 0.02,0 0.04,0.1 z"
     id="path3956"
     style="stroke:none;stroke-width:0.2" /></g>&#10;</svg>
