<?xml version="1.0" encoding="UTF-8" standalone="no"?>
<svg
   width="3239.5415"
   height="3334.4622"
   viewBox="0 0 3239.5415 3334.4622"
   version="1.1"
   xml:space="preserve"
   style="clip-rule:evenodd;fill-rule:evenodd;stroke-linejoin:round;stroke-miterlimit:2"
   id="svg5353"
   xmlns="http://www.w3.org/2000/svg"
   xmlns:svg="http://www.w3.org/2000/svg"><defs
   id="defs5353" />&#10;    <g
   id="vectorly-UNI-coffee-tea"
   style="stroke:none;stroke-width:0.2"
   transform="matrix(4.9999999,0,0,4.9999999,-20273.781,-23904.647)"><path
     d="m 4280.9551,4876.1851 c 1.67,0.98 2.22,3.13 1.23,4.8 -0.98,1.67 -3.13,2.22 -4.8,1.23 -13.13,-7 -20.1399,-20.81 -18.7099,-32.15 0.99,-7.77 5.7899,-14.61 15.2999,-18.32 3.18,-16.42 10.19,-27.89 20.2,-34.9 10.0699,-7.06 23.4999,-9.53 40.1099,-7.38 10.2199,-6.83 21.6899,-9.37 32.9899,-8.3 17.7999,1.7 35.1999,12.15 45.7499,26.9 15.6599,21.88 17.4399,53.17 -16.68,77.13 -1.54,1.17 -3.74,0.87 -4.91,-0.67 -1.17,-1.54 -0.87,-3.74 0.67,-4.91 26.28,-21.62 24.34,-46.53 10.45,-63.55 -8.92,-10.94 -22.6399,-18.41 -36.5299,-19.32 -8.62,-0.57 -17.34,1.46 -24.8799,7.32 -1.78,1.38 -4.06,1.93 -6.28,1.53 -13.49,-2.74 -24.43,-1.96 -32.75,3.24 -8.4299,5.28 -14.0699,14.74 -17.1499,28.49 -0.44,2.31 -2.2,4.13 -4.49,4.65 -8.87,1.64 -12.71,7.43 -12.25,14.07 0.51,7.3 5.12,15.17 12.73,20.14 z"
     id="path1566"
     style="stroke:none;stroke-width:0.2" /><path
     d="m 4301.5951,5027.725 c 1.6899,0.94 2.2999,3.07 1.3599,4.76 -0.94,1.7 -3.0699,2.31 -4.7699,1.37 -13.03,-6.79 -17.59,-21.06 -14.43,-33.13 2.76,-10.56 11.46,-19.54 25.8699,-20.92 5.83,-26.92 21.67,-46.84 40.6299,-56.89 20.17,-10.6799 43.8999,-10.3399 64.0999,3.94 5.99,-14.6299 15.3999,-25.3699 26.4599,-32.5399 15.79,-10.22 34.9799,-13.21 52.3599,-10.02 18.8399,3.45 35.5699,14.08 43.9599,30.1799 6.7199,12.91 8.3399,29.45 0.86,48.78 12.5599,12.14 17.2999,28.13 14.7499,42.71 -2.74,15.72 -13.7499,29.89 -32.4899,35.22 -1.85,0.57 -3.82,-0.46 -4.39,-2.31 -0.58,-1.85 0.45,-3.81 2.3,-4.39 15.11,-5.11 23.78,-16.94 25.4,-29.9 1.5799,-12.54 -3.64,-26.06 -15.93,-35.3 -2.02,-1.59 -2.72,-4.32 -1.74,-6.68 6.66,-16.92 5.56,-31.03 -0.52,-41.73 -6.89,-12.1399 -20.15,-19.5699 -34.6999,-21.8399 -11.11,-1.73 -23.01,-0.31 -33.7199,4.53 -14.11,6.37 -26.1,18.8599 -31.24,38.6299 -0.7,2.73 -2.83,4.87 -5.5499,5.59 -2.73,0.73 -5.63,-0.07 -7.6,-2.09 -16.33,-17.22 -37.8599,-19.49 -56.1499,-10.63 -17.3399,8.4 -31.8699,26.25 -37.2799,50.83 -0.5,2.53 -2.77,4.33 -5.36,4.22 -11.65,-0.75 -19.0799,5.26 -21.5599,13.06 -2.75,8.65 0.17,19.11 9.38,24.55 z"
     id="path1568"
     style="stroke:none;stroke-width:0.2" /><path
     d="m 4218.0189,5094.6133 c 0,1.9357 -1.5948,3.5033 -3.5344,3.5033 -1.9396,0 -3.4912,-1.5676 -3.4912,-3.5033 -0.2586,-14.1611 13.4909,-27.9807 37.4986,-38.5361 28.7489,-12.6581 72.4111,-21.1032 121.3316,-21.9306 49.2223,-0.52 93.3586,6.832 122.6248,18.8373 15.3873,6.3081 26.8093,14.0776 33.4039,22.3291 4.8705,6.1184 7.2842,12.6429 7.2842,19.3003 0,6.6536 -2.4137,13.1743 -7.3273,19.27 -6.5946,8.2211 -18.0166,15.926 -33.4039,22.1887 -29.2662,11.9217 -73.3594,19.2471 -122.5817,18.6626 -36.852,-0.5959 -70.687,-5.4997 -97.4101,-13.3185 -28.792,-8.4185 -49.3947,-20.3251 -57.3254,-33.4007 -0.9914,-1.6397 -0.5173,-3.8032 1.1206,-4.8356 1.6379,-1.0286 3.793,-0.5389 4.8274,1.1007 7.6721,11.7093 27.2404,21.331 53.8342,28.144 26.2059,6.6991 59.1788,10.4225 94.9533,9.8456 38.8348,-0.4821 74.1783,-6.0008 100.9876,-14.5901 14.7409,-4.7216 26.8094,-10.3466 35.2142,-16.7003 6.8101,-5.1202 11.1634,-10.3998 11.1634,-16.3664 0,-5.959 -4.3964,-11.1968 -11.2065,-16.2904 -8.4048,-6.3196 -20.4733,-11.8877 -35.2142,-16.5751 -26.8093,-8.5286 -62.1528,-14.017 -100.9445,-14.4497 -38.964,-0.6414 -74.6092,3.8335 -101.7634,11.6941 -18.5769,5.3669 -33.1022,12.1913 -41.7657,20.2454 -5.1291,4.7862 -8.1893,9.8912 -8.2755,15.3757 z"
     id="path1570"
     style="stroke:none;stroke-width:0.255808" /><path
     d="m 4237.2652,5124.135 c -1.52,1.2 -3.72,0.94 -4.92,-0.58 -1.2,-1.51 -0.94,-3.72 0.58,-4.92 11.32,-10.1 23.78,-19.14 38.0599,-26.61 8.94,-4.67 18.54,-8.7 28.94,-11.91 9.5199,-2.93 19.6899,-5.27 30.5799,-6.59 13.6199,-1.66 28.3199,-1.67 44.1899,-0.67 l 41.1499,-32.12 c 1.46,-1.28 3.68,-1.13 4.95,0.33 1.27,1.46 1.12,3.67 -0.33,4.95 l -39.4199,38.45 c -1.25,1.1 -2.87,1.67 -4.54,1.61 -15.92,-0.08 -30.45,1.4 -43.9499,3.27 -10.1,1.39 -19.62,3.05 -28.61,5.26 -9.8299,2.43 -19.0499,5.28 -27.7599,8.75 -14.23,5.66 -27.0899,12.55 -38.9199,20.78 z"
     id="path1572"
     style="stroke:none;stroke-width:0.2" /><path
     d="m 4235.0952,5121.385 c 33.9999,-26.85 77.7498,-44.18 141.6497,-41.85 l 41.4099,-36.17 c 62.1198,7.06 107.0497,27.34 107.0497,51.24 0,29.74 -69.5998,53.88 -155.3296,53.88 -57.6299,0 -107.9698,-10.91 -134.7797,-27.1 z"
     id="path1574"
     style="stroke:none;stroke-width:0.2" /><path
     d="m 4536.8545,5283.2649 c -9.27,8.25 -19.39,14.19 -29.75,16.47 -1.88,0.46 -3.7799,-0.7 -4.2399,-2.58 -0.46,-1.88 0.6999,-3.78 2.5699,-4.23 20.71,-5.58 39.1199,-27.89 50.7999,-52.35 6.92,-14.46 11.39,-29.74 12.37,-42.96 0.78,-10.38 -0.49,-19.38 -5.32,-24.99 -4.59,-5.38 -11.91,-6.5 -19.44,-6.1 -13.5699,0.71 -28.2099,7.03 -34.2899,11.89 -3.57,2.84 -7.1199,3.05 -10.1799,2.16 -3.29,-0.95 -6.59,-3.85 -8.3,-8.66 -2.45,-6.88 -1.47,-18.6199 6.9,-26.4199 21.1599,-19.31 50.7698,-25.11 76.3298,-18.53 26.4799,6.82 48.5399,26.56 52.5498,56.8699 2.77,21.72 -8.5499,46.29 -26.3699,65.9 -17.0199,18.74 -39.6399,32.97 -59.6698,36 -1.77,0.31 -3.47,-0.78 -3.96,-2.47 z m 5.23,-4.99 c 17.6099,-4.34 36.5599,-18.05 50.8198,-35.14 14.64,-17.56 24.43,-38.8 21.3,-57.43 -3.95,-24.14 -22.2,-39.1099 -43.4999,-44.1199 -20.89,-4.9 -44.8999,-0.28 -61.9099,15.62 -1.61,1.4699 -2.5,3.3199 -2.89,5.1299 9.26,-5.0499 23.76,-10.1199 37.35,-10.4799 12.1899,-0.33 23.5499,3.01 30.7099,11.9099 5.19,6.49 7.88,15.67 7.83,26.5 -0.07,16.25 -6.01,36.48 -15.98,55.16 -6.47,12.11 -14.6,23.55 -23.7299,32.85 z m -36.51,-111.83 c 0.04,0.44 0.17,0.69 0.46,0.52 0.06,-0.04 -0.09,-0.11 -0.13,-0.17 -0.11,-0.13 -0.22,-0.25 -0.33,-0.35 z m -5.6199,-0.34 c 0,0 0,0 -0.01,0.01 z"
     id="path1576"
     style="stroke:none;stroke-width:0.2" /><path
     d="m 4505.8345,5275.7349 c 0.41,0.07 0.79,0.07 0.73,-0.26 -0.51,-3.04 -7.8799,3.85 -10.4299,7.86 -1.64,2.56 -3.1,5.27 -0.86,7.6 1.51,1.2 1.77,3.4 0.56,4.92 -1.2,1.52 -3.41,1.77 -4.92,0.57 -7.91,-4.74 -6.84,-13.68 -2.67,-21.7 2.99,-5.73 8.2,-10.39 12.26,-12.58 2.9,-1.57 5.7199,-1.57 7.8599,-1.27 1.37,0.22 2.96,0.04 4.8,-0.12 1.67,-0.14 3.51,-0.43 5.54,-0.8 3.48,-0.65 7.43,-1.58 11.94,-3.01 7.04,-2.24 15.2099,-5.06 24.6699,-9.91 1.6,-1.09 3.78,-0.69 4.88,0.91 1.09,1.59 0.69,3.77 -0.91,4.87 -5.75,5.24 -10.99,9.46 -16.0599,12.87 -4.39,2.95 -8.54,5.14 -12.41,6.83 -4.31,1.88 -8.3,3.03 -11.87,3.6 -5.23,0.84 -9.62,0.46 -13.11,-0.38 z m 0,0 c -0.26,-0.04 -0.53,-0.12 -0.68,-0.17 0.22,0.06 0.45,0.12 0.68,0.17 z"
     id="path1578"
     style="stroke:none;stroke-width:0.2" /><path
     d="m 4533.1845,5249.8249 c 0.05,1.93 -1.47,3.55 -3.41,3.6 -1.93,0.06 -3.54,-1.46 -3.6,-3.4 0,0 -2.28,-11.37 -4.28,-26.28 -0.45,-3.38 -0.81,-6.91 -1.1,-10.54 -0.19,-2.32 -0.38,-4.67 -0.4,-7.03 -0.06,-6.04 0.28,-12.05 0.65,-17.63 0.99,-14.99 2.55,-26.48 2.55,-26.48 -0.06,-1.94 1.46,-3.55 3.4,-3.61 1.93,-0.06 3.55,1.47 3.6,3.4 0,0 2.23,11.39 4.1,26.29 0.7,5.55 1.39,11.53 1.68,17.56 0.12,2.36 0.07,4.71 0.02,7.04 -0.08,3.64 -0.24,7.19 -0.49,10.58 -1.11,15.01 -2.72,26.5 -2.72,26.5 z m -3.32,-112.7999 c 0.06,1.93 -1.46,3.55 -3.4,3.61 -1.93,0.05 -3.55,-1.47 -3.6,-3.4 0,0 -2.04,-5.01 -3.87,-12.26 -0.4,-1.58 -0.7,-3.2 -0.94,-4.92 -0.15,-1.08 -0.3,-2.18 -0.29,-3.29 0.04,-2.87 0.47,-5.65 0.92,-8.27 1.28,-7.32 2.97,-12.46 2.97,-12.46 -0.06,-1.94 1.46,-3.55 3.4,-3.61 1.93,-0.06 3.55,1.47 3.6,3.4 0,0 1.99,5.03 3.69,12.26 0.61,2.59 1.21,5.34 1.41,8.21 0.08,1.1 -0.01,2.21 -0.1,3.3 -0.14,1.73 -0.35,3.37 -0.65,4.97 -1.4,7.35 -3.14,12.46 -3.14,12.46 z"
     id="path1580"
     style="stroke:none;stroke-width:0.2" /><path
     d="m 4207.7653,5132.015 c 0.02,-1.93 1.6,-3.49 3.54,-3.47 1.93,0.02 3.49,1.61 3.46,3.55 0,0 1.17,58.4199 4.59,102.2999 1.45,18.65 3.1699,34.56 5.7499,41.61 2.04,5.68 6.37,10.89 12.21,15.82 7.44,6.28 17.41,11.84 29.1099,16.77 12.22,5.15 26.33,9.51 41.6399,12.94 13.74,3.07 28.41,5.42 43.5799,6.82 48.6099,4.51 102.1398,-0.5 144.4997,-21.17 1.72,-0.89 3.83,-0.22 4.73,1.5 0.89,1.72 0.21,3.84 -1.5,4.73 -30.94,17.04 -68.3299,26.18 -105.8098,28.86 -25.1699,1.8 -50.3499,0.67 -73.5698,-2.79 -12.79,-1.91 -24.9999,-4.55 -36.2599,-7.85 -13.05,-3.82 -24.8599,-8.51 -34.9499,-13.84 -19.64,-10.38 -32.8499,-23.39 -37.3399,-37.1 -2.5,-7.8 -4.12,-25.21 -4.74,-45.62 -1.33,-44.27 1.06,-103.0599 1.06,-103.0599 z"
     id="path1582"
     style="stroke:none;stroke-width:0.2" /><path
     d="m 4491.2346,5325.8549 c 1.55,-1.17 3.75,-0.86 4.91,0.69 1.16,1.54 0.86,3.74 -0.69,4.91 -15.88,13.2 -40.2599,23.88 -67.7699,30.09 -9.5199,2.14 -19.4199,3.67 -29.4199,4.6 -6.59,0.62 -13.24,0.99 -19.8599,0.96 -17.11,-0.1 -34.02,-2.21 -49.4299,-6.23 -27.7799,-7.23 -50.7099,-20.7 -62.3699,-40.53 -1.05,-1.62 -0.6,-3.79 1.03,-4.85 1.62,-1.06 3.79,-0.6 4.84,1.02 8.4,11.6 21.51,19.64 37.1399,25.2 13.6,4.84 29.14,7.5 45.4199,8.7 9.19,0.68 18.59,0.83 28.0299,0.66 9.39,-0.17 18.82,-0.65 28.07,-1.58 11.53,-1.17 22.7799,-2.91 33.3699,-5.34 18.4,-4.23 34.7499,-10.21 46.7299,-18.3 z"
     id="path1584"
     style="stroke:none;stroke-width:0.2" /><path
     d="m 4631.3742,5379.6149 c -1.6,1.09 -3.78,0.67 -4.87,-0.93 -1.09,-1.6 -0.67,-3.78 0.92,-4.87 23.31,-17.55 38.4199,-34.97 47.8299,-51.47 8.46,-14.82 11.75,-28.91 11.39,-42.18 -0.25,-9.34 -2.15,-18.25 -5.63,-26.62 -3.59,-8.64 -8.58,-16.73 -14.64,-24.06 -12.6399,-15.28 -29.4199,-27.43 -46.5198,-34.45 -1.82,-0.65 -2.77,-2.66 -2.13,-4.48 0.66,-1.82 2.66,-2.77 4.48,-2.13 22.9999,7.05 46.4498,22.02 62.0798,42.34 6.48,8.42 11.52,17.8 14.72,27.84 2.15,6.76 3.43,13.84 3.63,21.14 0.2,6.94 -0.58,14.08 -2.45,21.32 -2.41,9.39 -6.57,19.04 -13,28.64 -11.27,16.82 -29.2999,33.67 -55.8099,49.91 z"
     id="path1586"
     style="stroke:none;stroke-width:0.2" /><path
     d="m 4584.6843,5388.2149 c 1.67,-0.97 3.82,-0.4 4.79,1.28 0.97,1.67 0.4,3.82 -1.28,4.79 -48.0398,28.8499 -106.3197,45.1499 -166.5195,51.0099 -38.92,3.79 -78.6399,3.22 -116.8298,-1.06 -30.0699,-3.37 -59.1998,-9.05 -86.2597,-16.72 -19.71,-5.58 -38.3299,-12.24 -55.4099,-19.81 -30.4999,-13.5199 -56.1699,-29.9299 -74.7598,-48.2399 -16.3,-16.07 -27.21,-33.67 -31.4799,-52.18 -7.45,-32.55 4.7499,-64.21 28.1999,-89.71 30.4799,-33.14 79.7998,-55.86 126.0097,-56.42 1.94,-0.05 3.55,1.48 3.6,3.41 0.05,1.94 -1.48,3.55 -3.41,3.6 -36.3199,1.51 -74.2398,17.48 -102.1598,41.23 -29.7299,25.29 -48.2299,59.53 -39.2199,94.74 4.07,16.07 14.15,31.06 28.63,44.82 17.7699,16.9 42.1898,31.75 70.9598,44.23 16.5099,7.17 34.4599,13.5299 53.4198,19.0199 26.27,7.58 54.4999,13.45 83.6698,17.23 37.2099,4.81 75.9198,6.26 114.0098,3.57 58.8998,-4.16 116.2797,-18.06 164.0395,-44.7899 z"
     id="path1588"
     style="stroke:none;stroke-width:0.2" /><path
     d="m 4066.3356,5258.8549 c -1.82,-0.63 -2.79,-2.63 -2.16,-4.46 0.64,-1.83 2.64,-2.79 4.46,-2.16 9.82,2.93 45.0299,9.38 76.4298,21.42 10.66,4.09 20.84,8.9 29.51,14.29 7.1599,4.46 13.2399,9.44 17.8999,14.67 9.46,11.29 24.34,19.03 40.1699,24.89 28.57,10.58 60.4499,14.67 74.3098,15.89 1.94,0.09 3.43,1.73 3.35,3.67 -0.09,1.93 -1.73,3.43 -3.67,3.34 -14.4499,-0.04 -47.9498,-1.03 -78.2998,-9.98 -12.7099,-3.74 -24.8299,-8.97 -34.8699,-15.87 -4.89,-3.36 -9.23,-7.21 -12.9999,-11.41 -3.71,-4.29 -8.69,-8.25 -14.37,-12.05 -7.82,-5.23 -16.97,-10.06 -26.5099,-14.5 -30.08,-14.02 -63.8599,-24 -73.2499,-27.74 z"
     id="path1590"
     style="stroke:none;stroke-width:0.2" /><path
     d="m 4067.4856,5255.5449 c 19.98,-50.08 84.2798,-89.29 143.7597,-90.88 0.23,37.98 1.51,97.58 7.03,113.68 5.4399,15.86 24.5399,29.83 51.2698,40.09 8.17,12.53 21.26,21.9 37.2499,28.47 -22.4799,-1.03 -91.9697,-6.7 -120.3197,-39.03 -25.8499,-29.46 -103.7797,-47.04 -118.9897,-52.33 z"
     id="path1592"
     style="stroke:none;stroke-width:0.2" /></g>&#10;</svg>
