<?xml version="1.0" encoding="UTF-8" standalone="no"?>
<svg
   width="3314.6128"
   height="2168.0466"
   viewBox="0 0 3314.6128 2168.0466"
   version="1.1"
   xml:space="preserve"
   style="clip-rule:evenodd;fill-rule:evenodd;stroke-linejoin:round;stroke-miterlimit:2"
   id="svg5353"
   xmlns="http://www.w3.org/2000/svg"
   xmlns:svg="http://www.w3.org/2000/svg"><defs
   id="defs5353" />&#10;    <g
   id="vectorly-UNI-dollar-coins"
   transform="matrix(4.9999999,0,0,4.9999999,-8295.979,-61424.411)"
   style="stroke-width:0.2"><path
     d="m 2057.0261,12331.411 c 1.52,1.2 1.78,3.4 0.59,4.9 -1.2,1.5 -3.4,1.8 -4.92,0.6 -30.7299,-23.3 -65.2099,-36.5 -103.2098,-39.7 -33.9899,-2.8 -70.7698,2.4 -110.2197,15.7 -32.9699,11 -53.7299,29.2 -60.6498,49.9 -7.48,22.4 2.11,47 28.9999,67.2 25.8299,19.7 61.2898,28 95.4697,30.5 42.9999,3.1 84.1398,-3 102.6798,-9 23.7799,-7.7 40.1199,-18.8 51.3299,-30.5 24.3099,-25.3 24.4699,-53.2 24.4699,-53.2 -0.03,-1.9 1.52,-3.5 3.45,-3.5 1.94,-0.1 3.53,1.5 3.56,3.4 0,0 1.03,30.8 -24.8199,59.5 -11.71,13 -28.98,25.6 -54.4299,34.7 -22.29,7.9 -76.3298,17.1 -128.7297,10.5 -30.0699,-3.8 -59.5198,-12.9 -82.4398,-29.8 -33.6199,-25.2 -44.0099,-56.9 -34.3899,-84.8 8.33,-24.2 32.3199,-46.1 71.1498,-58.3 41.6199,-12.8 80.2298,-17.2 115.6497,-13.2 39.5999,4.6 75.1898,19.6 106.4598,45.1 z"
     id="path3472"
     style="stroke:none;stroke-width:0.2" /><path
     d="m 1945.4863,12321.511 c 1.9,0.4 3.14,2.2 2.77,4.1 -0.37,1.9 -2.21,3.1 -4.11,2.8 -17.0199,-2.6 -32.3399,-0.2 -43.7498,4.4 -5.8,2.4 -10.46,5.4 -13.66,8.7 -2.27,2.3 -3.68,4.7 -3.42,7.1 0.23,2.1 2.15,3.8 4.99,5.5 1.37,0.8 3.55,0.6 6.16,0.6 4.21,-0.1 9.2399,-0.7 14.7099,-1.3 6.27,-0.6 13.07,-1.4 19.88,-1.6 7.23,-0.3 14.4699,0.1 21.1399,1.4 11.48,2.4 21.37,7.8 27.52,18.1 4.39,7.5 4.12,14.9 -0.04,21.6 -3.87,6.2 -11.38,12 -21.25,15.7 -16.7999,6.4 -40.2299,7.7 -59.2398,-1.5 -1.77,-0.8 -2.59,-2.9 -1.81,-4.6 0.77,-1.8 2.83,-2.6 4.61,-1.9 14.1899,5.5 30.4399,4.6 43.7198,0.4 9.15,-2.9 16.81,-7.4 20.97,-12.6 2.34,-3 3.09,-6.3 0.95,-9.4 -4.25,-6.4 -10.97,-9.1 -18.38,-10.4 -6.5499,-1.2 -13.6799,-1.1 -20.7199,-0.7 -7.9,0.4 -15.68,1.2 -22.45,1.6 -10.6499,0.7 -19.2299,-0.2 -23.6999,-3.2 -7.28,-5.1 -10.47,-10.9 -10.73,-16.7 -0.27,-5.9 2.36,-12.2 8.33,-17.4 11.93,-10.4 37.9799,-17.8 67.5098,-10.7 z"
     id="path3474"
     style="stroke:none;stroke-width:0.2" /><path
     d="m 1965.6263,12432.311 c 0.94,1.7 0.34,3.8 -1.35,4.7 -1.69,1 -3.83,0.4 -4.77,-1.3 0,0 -2.88,-1.8 -7.84,-6.6 -0.89,-0.9 -1.74,-1.8 -2.64,-3 -0.51,-0.6 -1.06,-1.3 -1.47,-2.1 -0.96,-1.8 -1.63,-3.8 -2.3,-6.1 -0.96,-3.2 -1.35,-6.3 -2.1899,-10 -1.02,-1.7 -0.5,-3.8 1.1499,-4.8 1.65,-1 3.81,-0.5 4.82,1.1 2.99,2.5 5.5,4.3 7.92,6.7 1.71,1.6 3.2,3.2 4.35,5 0.51,0.7 0.84,1.5 1.17,2.3 0.56,1.4 0.98,2.6 1.3,3.8 1.76,6.8 1.85,10.3 1.85,10.3 z m -70.0198,-104.7 c 1.24,1.5 1.03,3.7 -0.46,5 -1.49,1.2 -3.7,1 -4.94,-0.5 -2.72,-1.3 -4.83,-1.8 -7.36,-3.3 -1.44,-0.8 -2.83,-1.7 -3.91,-2.9 -1.11,-1.3 -1.68,-2.8 -2.36,-4.3 -1.21,-2.7 -1.6,-4.9 -2.61,-7.5 -1.36,-1.4 -1.36,-3.6 0,-5 1.37,-1.3 3.59,-1.3 4.96,0 2.76,1.1 4.92,1.7 7.64,3.2 1.55,0.8 2.98,1.7 4.27,2.9 0.49,0.5 0.85,1.1 1.21,1.6 0.55,1 1.01,1.8 1.39,2.8 1.06,2.9 1.41,5 2.17,8 z"
     id="path3476"
     style="stroke:none;stroke-width:0.2" /><path
     d="m 2047.4361,12461.211 c 1.7,-0.9 3.83,-0.3 4.76,1.4 0.94,1.7 0.32,3.8 -1.38,4.7 -21.21,12.8 -43.4499,21.8 -65.8699,27.4 -15.8799,3.9 -31.8199,6.2 -47.4398,6.9 -13.69,0.6 -27.15,0.1 -40.0699,-1.5 -13.77,-1.8 -26.96,-4.8 -39.2399,-8.7 -23.59,-7.6 -43.9199,-18.7 -59.1099,-31.7 -20.2499,-17.4 -31.4699,-38.3 -29.6999,-59.7 0.09,-1.9 1.73,-3.4 3.66,-3.3 1.93,0.1 3.43,1.7 3.34,3.6 -0.19,18.9 11.3499,36.1 30.0499,50.2 14.77,11.2 34.0999,20.1 56.1498,26.3 11.62,3.3 24,5.8 36.88,7.5 12.1599,1.5 24.7499,2.4 37.6499,2.4 14.8099,-0.1 29.9699,-1.4 45.2399,-4.1 21.8399,-4 43.8298,-10.7 65.0798,-21.4 z"
     id="path3478"
     style="stroke:none;stroke-width:0.2" /><path
     d="m 1923.1664,12491.311 c 1.58,-1.1 3.77,-0.7 4.88,0.8 1.12,1.6 0.74,3.8 -0.85,4.9 -16.24,12.3 -43.7599,18.9 -74.4998,19.2 -16.59,0.3 -34.1099,-1.4 -51.2199,-4.9 -21.8599,-4.5 -43.0899,-12 -60.7998,-22.7 -20.79,-12.5 -36.66,-29.4 -44.2499,-49.6 -9.49,-26.4 0.11,-52.2 18.2999,-70.9 18.19,-18.8 44.5699,-30.4 65.8899,-28.7 1.9399,0.1 3.4199,1.8 3.3199,3.7 -0.1,1.9 -1.75,3.4 -3.6799,3.3 -19.13,-0.4 -41.8899,11.6 -57.2199,29.3 -13.91,16 -21.67,36.9 -12.95,58 6.83,17.1 21.16,30.5 38.8499,41.3 16.35,9.9 35.6599,17.4 55.7099,22.3 24.6899,6.1 50.3399,8.6 72.6498,6.8 18.56,-1.4 34.7499,-5.5 45.8699,-12.8 z"
     id="path3480"
     style="stroke:none;stroke-width:0.2" /><path
     d="m 1925.7564,12521.111 c 1.87,-0.5 3.79,0.6 4.3,2.5 0.5,1.8 -0.61,3.8 -2.48,4.3 -14.96,4.8 -33.1099,9 -52.6999,11.1 -11.71,1.3 -23.8899,1.8 -36.1599,1.3 -10.11,-0.4 -20.2799,-1.4 -30.2099,-3.4 -10.12,-2 -20.01,-5 -29.3899,-8.8 -12.89,-5.3 -24.86,-12.3 -35.27,-21.2 -14.8899,-12.8 -26.6199,-29.5 -33.3899,-50.8 -0.67,-1.8 0.26,-3.9 2.07,-4.5 1.82,-0.7 3.83,0.2 4.5,2 6.63,15.6 16.1,27.9 27.3399,37.7 11.68,10.2 25.43,17.4 40.1799,22.6 8.74,3.1 17.84,5.5 27.1,7.3 9.26,1.9 18.6599,3.3 28.0599,4.2 11.62,1.1 23.1799,1.5 34.3799,1.3 19.01,-0.4 36.8399,-2.4 51.6699,-5.6 z"
     id="path3482"
     style="stroke:none;stroke-width:0.2" /><path
     d="m 1994.4662,12508.311 c 1.13,-1.5 3.32,-1.9 4.89,-0.8 1.58,1.1 1.94,3.3 0.81,4.9 -20.1499,30.2 -54.8699,47.9 -93.7798,54.5 -14.3799,2.5 -29.3199,3.3 -44.2598,2.7 -9.85,-0.4 -19.72,-1.4 -29.39,-3.2 -25.1899,-4.5 -49.2199,-13.2 -69.3198,-25.2 -35.9499,-21.4 -59.4699,-53.1 -56.2899,-90.9 0.1,-1.9 1.76,-3.4 3.69,-3.3 1.93,0.1 3.41,1.7 3.31,3.7 -0.61,28.9 16.04,52.5 41.3199,69.8 11.27,7.7 24.27,14.1 38.2899,19.3 13.19,4.8 27.3,8.4 41.7399,10.9 9.07,1.5 18.27,2.7 27.4799,3.3 13.95,0.9 27.9,0.7 41.4399,-0.9 36.34,-4.3 69.5999,-18.1 90.0698,-44.8 z"
     id="path3484"
     style="stroke:none;stroke-width:0.2" /><path
     d="m 1889.7765,12558.211 c 1.88,-0.5 3.77,0.7 4.21,2.6 0.43,1.9 -0.74,3.8 -2.63,4.2 -26.24,7.1 -50.7899,10.8 -73.4398,11.5 -17.97,0.5 -34.72,-0.8 -50.0499,-3.6 -14.88,-2.8 -28.4599,-6.9 -40.5199,-12.2 -14.24,-6.2 -26.4199,-14 -36.2899,-22.7 -42.1999,-37.3 -44.9199,-90.3 6.59,-122.2 1.62,-1.1 3.7899,-0.6 4.8599,1 1.07,1.6 0.62,3.8 -0.99,4.8 -42.3798,29.9 -37.9999,74.3 -0.6399,104.8 9.1399,7.4 20.1599,14.1 32.8999,19.7 11.0999,4.9 23.4599,9.1 37.0699,12.1 14.3899,3.3 30.0899,5.3 47.0899,5.9 21.9599,0.7 45.9498,-0.9 71.8398,-5.9 z"
     id="path3486"
     style="stroke:none;stroke-width:0.2" /><path
     d="m 1918.6264,12574.711 c 1.85,-0.5 3.8,0.6 4.35,2.4 0.54,1.9 -0.53,3.8 -2.38,4.4 -18.5599,6.2 -40.8799,11.5 -64.6798,14.2 -14.47,1.7 -29.45,2.4 -44.3999,1.9 -12.52,-0.4 -25.01,-1.7 -37.1099,-4.1 -12.57,-2.4 -24.72,-6 -36.0699,-10.8 -11.96,-5.1 -23.06,-11.4 -32.86,-19.2 -22.0399,-17.5 -37.6999,-42 -42.1599,-75.3 -0.33,-1.9 0.95,-3.7 2.86,-4.1 1.9,-0.3 3.72,1 4.04,2.9 4.48,21.1 13.66,37.8 25.93,51 12.9099,13.9 29.4299,23.7 47.8198,30.6 10.65,4 21.92,7 33.52,9.3 11.3999,2.2 23.0899,3.8 34.8599,4.8 14.2899,1.1 28.6499,1.3 42.5999,0.7 23.2199,-1 45.2299,-4.1 63.6798,-8.7 z"
     id="path3488"
     style="stroke:none;stroke-width:0.2" /><path
     d="m 2310.5354,12543.811 c 1.21,1.5 0.97,3.7 -0.54,4.9 -1.5,1.2 -3.71,1 -4.9199,-0.5 -19,-22.8 -51.6499,-40.3 -89.2298,-49.7 -32.4799,-8.2 -68.6799,-10.3 -103.0798,-4.3 -26.1799,4.5 -47.9199,15.5 -63.6698,30 -18.27,16.8 -28.2899,38.5 -26.9999,60.5 0.97,16.6 8.3999,33.1 23.2599,47.9 16.26,16.2 41.0799,30.1 75.9298,39.6 71.0098,19.6 121.6297,10.4 153.2796,-11.2 33.8699,-23 45.7799,-60.1 37.1799,-89.7 -0.56,-1.8 0.48,-3.8 2.33,-4.4 1.85,-0.5 3.81,0.5 4.38,2.4 10.47,32.3 -1.3,73.7 -37.9499,100.2 -33.0699,23.9 -86.7298,35.6 -162.8896,16.7 -38.1999,-9.8 -65.4798,-24.8 -83.3698,-42.3 -18.1999,-17.8 -26.9599,-38.2 -28.0399,-58.3 -1.15,-21.6 6.56,-43 21.5399,-60.9 18.09,-21.7 46.8499,-38.3 82.8898,-43.8 36.2299,-5.2 74.1299,-2.1 107.9198,7.4 39.1899,11.1 72.7998,30.8 91.9797,55.5 z"
     id="path3490"
     style="stroke:none;stroke-width:0.2" /><path
     d="m 2190.9657,12540.011 c 1.8,0.7 2.69,2.7 1.98,4.5 -0.71,1.8 -2.74,2.7 -4.54,2 -14.8299,-5 -30.2899,-2.9 -41.8999,2.5 -5.3599,2.5 -9.7999,5.8 -12.8699,9.4 -2.23,2.6 -3.58,5.3 -3.52,8.1 0.06,2.3 1.58,4.4 4.09,6.4 1.67,1.4 3.98,2.1 6.6,2.7 4.1499,1 9.0199,1.5 14.2199,2 6.34,0.5 13.13,0.9 19.74,1.7 7.42,1 14.6399,2.6 20.8999,5.2 10.85,4.7 19.15,12.3 21.97,25.5 1.24,6 -0.03,11.6 -3.68,16.5 -5.13,6.7 -15.23,12.2 -27.53,14 -18.7099,2.9 -42.2198,-1.8 -56.3498,-18.7 -1.29,-1.5 -1.18,-3.7 0.25,-5 1.43,-1.3 3.65,-1.2 4.95,0.3 10.8299,11 26.4499,14.3 40.3599,13.2 9.35,-0.7 17.8899,-3.6 23.4999,-7.9 3.33,-2.5 5.52,-5.5 4.56,-9.1 -2.04,-7.7 -7.41,-11.7 -13.93,-14.3 -5.1599,-2 -11.0499,-3 -17.0799,-3.8 -6.44,-0.8 -13.04,-1.4 -19.2,-2.1 -12.1799,-1.4 -22.7599,-3.9 -28.7199,-9.2 -14.65,-13.5 -9.38,-30.4 8.13,-40.8 14.5099,-8.5 37.4399,-12.3 58.0698,-3.1 z"
     id="path3492"
     style="stroke:none;stroke-width:0.2" /><path
     d="m 2301.7455,12666.311 c 1.29,-1.5 3.51,-1.6 4.9499,-0.3 1.44,1.3 1.56,3.5 0.27,4.9 -19.6799,23.4 -56.6398,39.7 -98.2597,45.4 -14.28,2 -29.0999,2.6 -43.9099,1.9 -9.8,-0.4 -19.61,-1.5 -29.2199,-3.2 -18.54,-3.4 -36.4399,-9.2 -52.5399,-17.3 -38.9899,-19.8 -67.7098,-53.2 -71.0098,-101.8 -0.19,-1.9 1.21,-3.6 3.14,-3.8 1.93,-0.2 3.64,1.2 3.83,3.1 4.9299,37.9 26.3099,64.3 55.2198,81.6 18.92,11.2 41.0799,18.4 64.1699,22.4 9.0199,1.6 18.1699,2.8 27.3299,3.4 13.94,1 27.8999,0.9 41.4399,-0.2 39.1699,-3.4 74.7798,-15.5 94.5898,-36.1 z"
     id="path3494"
     style="stroke:none;stroke-width:0.2" /><path
     d="m 2131.3559,12507.211 c -0.88,-1.8 -0.2,-3.9 1.52,-4.8 1.72,-0.8 3.83,-0.2 4.72,1.6 0,0 3.31,2.8 8.4699,9.2 0.95,1.2 1.86,2.5 2.79,4 0.55,0.9 1.12,1.8 1.55,2.8 0.99,2.3 1.69,4.9 2.34,7.7 0.89,4 1.25,7.8 1.93,12.3 0.79,1.8 0,3.9 -1.77,4.7 -1.76,0.7 -3.84,0 -4.63,-1.8 -2.89,-3.5 -5.5599,-6.2 -7.9299,-9.4 -1.72,-2.3 -3.23,-4.5 -4.4,-6.7 -0.5,-0.9 -0.84,-1.9 -1.17,-2.9 -0.57,-1.6 -1,-3.1 -1.33,-4.6 -1.81,-7.9 -2.09,-12.1 -2.09,-12.1 z m 51.3499,128.3 c -0.51,-1.8 0.6,-3.8 2.4599,-4.3 1.87,-0.5 3.8,0.6 4.31,2.5 2.05,2.6 3.74,4.4 5.47,7.1 0.63,1 1.1,2 1.55,3.1 0.29,0.7 0.58,1.4 0.7,2.2 0.31,1.9 0.23,3.8 0.04,5.7 -0.31,3.3 -1.04,5.7 -1.73,8.8 0.32,1.9 -0.97,3.7 -2.87,4 -1.91,0.4 -3.72,-0.9 -4.04,-2.8 -1.61,-2.6 -3.22,-4.5 -4.7399,-7.3 -0.88,-1.6 -1.82,-3.1 -2.26,-4.9 -0.43,-1.8 -0.35,-3.6 -0.26,-5.4 0.16,-3.2 0.93,-5.5 1.37,-8.7 z"
     id="path3496"
     style="stroke:none;stroke-width:0.2" /></g>&#10;</svg>
