<?xml version="1.0" encoding="UTF-8" standalone="no"?>
<svg
   width="3056.1208"
   height="2550.3584"
   viewBox="0 0 3056.1209 2550.3584"
   version="1.1"
   xml:space="preserve"
   style="clip-rule:evenodd;fill-rule:evenodd;stroke-linejoin:round;stroke-miterlimit:2"
   id="svg5353"
   xmlns="http://www.w3.org/2000/svg"
   xmlns:svg="http://www.w3.org/2000/svg"><defs
   id="defs5353" />&#10;    <g
   id="vectorly-UNI-chains-link"
   style="stroke:none;stroke-width:0.2"
   transform="matrix(4.9999999,0,0,4.9999999,-8256.264,-28915.444)"><path
     d="m 1852.3582,6177.826 c -6.4322,2.6369 -12.8837,2.7215 -18.052,1.4219 -5.8676,-1.4628 -9.6279,-5.4923 -11.4976,-10.2769 -1.8404,-5.0682 -0.5024,-10.7557 3.1924,-15.9356 3.3825,-4.7425 9.3978,-8.6996 16.6593,-10.9771 7.4177,-1.6364 14.5888,-1.2216 19.879,1.1805 5.7393,2.622 9.7449,6.7945 10.6945,12.0601 0.8196,5.0253 -0.4041,10.351 -4.666,14.5713 -3.7682,3.7336 -9.3567,6.9356 -16.2096,7.9558 z m -1.8321,-6.7572 c 3.7204,-1.4938 6.6155,-3.8331 8.7397,-6.3163 1.6884,-1.9791 2.4241,-4.185 1.6751,-6.1205 -0.1777,-0.481 -0.7504,-0.6124 -1.1613,-0.9309 -0.9929,-0.7671 -2.4186,-0.9097 -3.9188,-1.1533 -2.6921,-0.4387 -5.8219,-0.075 -9.0156,0.9451 -3.244,0.7694 -6.0928,2.082 -8.1672,3.835 -1.1386,0.9591 -2.264,1.7934 -2.7253,2.9217 -0.1829,0.4575 -0.6191,0.8293 -0.5378,1.3034 0.3201,2.0078 2.006,3.524 4.4078,4.372 3.0767,1.0951 6.7351,1.7016 10.7034,1.1438 z"
     id="path1442"
     style="stroke:none;stroke-width:0.155702" /><path
     d="m 1873.1765,6187.9535 c -1.2,1 -8.2,6.97 -11.0099,11.83 -0.75,1.29 -1.35,2.61 -1.73,3.91 -0.28,0.96 -0.54,1.91 -0.05,2.7 1.52,2.46 4.7399,4.21 8.7999,5.43 7.98,2.4 19.04,1.92 31.67,-3.12 12.4399,-4.96 26.2899,-14.18 40.1499,-29.76 24.9799,-27.5199 42.9298,-49.5799 51.2798,-68.9299 8.04,-18.61 6.74,-34.46 -6.63,-50.26 -1.29,-1.44 -1.17,-3.66 0.27,-4.95 1.44,-1.29 3.66,-1.17 4.95,0.27 16.8,17.71 19.34,36.37 11.01,58.79 -7.67,20.63 -25.2299,44.62 -49.9499,74.5499 -19.5899,23.17 -39.5799,34.6 -56.4798,38.77 -14.02,3.45 -26.12,1.98 -34.6599,-1.68 -6.41,-2.75 -11.01,-6.79 -13.58,-11.17 -3.75,-6.39 -2.61,-14.68 2.11,-22.26 4.02,-6.47 10.29,-12.41 14.8799,-15.4 3.77,-2.44 7.13,-3.11 8.91,-2.89 9.46,1.21 18.58,-1.44 28.96,-8.8199 10.6499,-7.58 22.4299,-19.69 36.5499,-37.46 l 10.5799,-13.64 c 3.2,-4.24 5.33,-7.84 6.56,-10.95 1.12,-2.86 1.53,-5.17 1.19,-7.05 -0.4,-1.9 0.81,-3.76 2.7,-4.17 1.89,-0.4 3.75,0.81 4.16,2.7 0.71,2.9 0.56,6.54 -0.91,11.08 -1.2,3.71 -3.37,8.09 -6.79,13.26 l -9.86,14.5 c -13.9299,19.67 -25.7699,33.16 -36.6699,41.7599 -12.6899,10.01 -24.3799,13.6 -36.4099,12.96 z m -1.53,-0.11 c -0.01,0 -0.01,0 -0.01,0 z m 70.2799,-151.7499 c 1.9299,-0.03 3.5299,1.51 3.5699,3.45 0.03,1.93 -1.51,3.53 -3.4399,3.56 -10.28,0.85 -21.77,3.98 -33.95,10.43 -9.2199,4.88 -18.7499,11.72 -28.2399,21.35 -7.42,7.02 -14.08,13.68 -20.3199,19.63 -12.04,11.49 -21.78,20.91 -27.87,29.97 -8.83,13.14 -9.9199,24.75 -0.15,38.31 1.22,1.5 1,3.71 -0.5,4.93 -1.5,1.22 -3.71,0.99 -4.93,-0.51 -14.6199,-15.91 -14.9499,-31.24 -5.2399,-49.26 5.6199,-10.42 14.8799,-21.95 27.5799,-34.76 6.17,-6.22 13.37,-12.54 21.0499,-19.51 11.56,-9.77 22.8,-16.62 33.6599,-20.92 14.19,-5.62 27.37,-7.19 38.78,-6.67 z m -72.0199,118.38 c 0.89,1.72 0.22,3.83 -1.5,4.72 -1.72,0.89 -3.84,0.21 -4.73,-1.51 -3.6599,-5.13 -5.0299,-14.35 -3.1899,-24.25 0.88,-4.72 2.7499,-9.42 5.3899,-13.82 1.74,-2.89 4.01,-5.48 6.5,-7.91 2.93,-2.39 5.69,-4.66 8.46,-6.61 3.15,-2.22 6.17,-4.13 9.14,-5.8 7.42,-4.18 13.9099,-6.92 19.8199,-8.88 1.74,-0.85 3.84,-0.13 4.69,1.6 0.85,1.74 0.13,3.84 -1.6,4.7 -3.92,2.66 -7.9,6.01 -12.4699,10.1 -2.77,2.48 -5.56,5.26 -8.69,8.28 -2.7,2.6 -5.6,5.33 -8.57,8.4 -2.18,1.84 -4.01,3.98 -5.6,6.22 -1.76,2.49 -3.38,4.98 -4.54,7.61 -1.61,3.63 -2.86,7.1 -3.23,10.39 -0.29,2.6 -0.49,4.89 0.12,6.76 z"
     id="path1444"
     style="stroke:none;stroke-width:0.2" /><path
     d="m 1963.8563,6095.6136 c -0.27,1.92 -2.04,3.25 -3.96,2.98 -1.92,-0.27 -3.25,-2.04 -2.98,-3.96 0.12,-2.96 2.49,-8.69 6.77,-15.98 3.41,-5.83 8.02,-12.66 13.64,-19.77 3.17,-4.03 6.6799,-8.09 10.4499,-12.07 2.42,-2.56 4.93,-5.1 7.6,-7.47 6.84,-6.06 14.25,-11.48 21.64,-15.91 14.4399,-8.63 28.6999,-13.4 39.7499,-11.55 1.93,0.16 3.37,1.85 3.21,3.78 -0.16,1.93 -1.85,3.37 -3.78,3.21 -4.16,0.05 -8.52,1.55 -13.18,3.74 -5.95,2.8 -11.98,7.11 -18.23,12.06 -5.2699,4.18 -10.4499,8.97 -15.6999,13.79 -3.46,3.17 -6.94,6.33 -10.36,9.46 -6.95,6.38 -13.56,12.59 -19.0899,18.35 -5.08,5.28 -9.35,9.89 -12.21,13.71 -1.84,2.47 -3.24,4.3 -3.57,5.63 z"
     id="path1446"
     style="stroke:none;stroke-width:0.2" /><path
     d="m 1941.9764,6126.9036 c 1.9199,-0.26 3.6799,1.09 3.9399,3 0.26,1.92 -1.09,3.69 -3.0099,3.94 -20.05,3.55 -31.26,-6.71 -35.62,-21.6 -5.3099,-18.16 0.88,-44.26 15,-61.74 8.24,-9.86 19.15,-22.06 31.5499,-34.04 11.05,-10.67 23.24,-21.2 35.1199,-30.35 11.03,-8.48 21.88,-15.7 31.48,-20.71 10.3699,-5.41 19.4799,-8.25 26.1899,-7.81 10.69,0.75 18.4999,4.24 23.7199,10.28 6.62,7.62 9.32,19.47 7.6,35.41 -0.13,1.93 -1.8,3.39 -3.73,3.26 -1.93,-0.13 -3.39,-1.81 -3.26,-3.74 0.29,-10.57 -1.19,-18.91 -4.85,-24.83 -3.8499,-6.22 -10.4499,-9.09 -19.8499,-9.04 -3.99,0 -8.87,1.98 -14.5,4.94 -9.8999,5.19 -21.4399,13.88 -33.4699,23.9 -11.18,9.31 -22.6299,19.9 -33.3999,30.19 -12.1,11.55 -23.4099,22.67 -31.7299,31.95 -12.55,13.56 -19.07,34.57 -15.83,49.8 2.32,10.95 10.02,18.53 24.65,17.19 z"
     id="path1448"
     style="stroke:none;stroke-width:0.2" /><path
     d="m 2028.0461,6059.0236 c 0.81,-1.76 2.9,-2.53 4.65,-1.72 1.76,0.81 2.53,2.89 1.72,4.65 -0.9,4.65 -2.08,9.46 -4.41,14.91 -0.8,1.86 -1.81,3.64 -2.95,5.47 -0.72,1.15 -1.49,2.3 -2.42,3.35 -2.1999,2.47 -4.7899,4.71 -7.7499,6.79 -4.06,2.84 -8.38,5.08 -13.45,7.4 -1.53,1.18 -3.73,0.89 -4.91,-0.64 -1.18,-1.53 -0.9,-3.73 0.63,-4.91 3.22,-3.94 5.46,-7.78 8.06,-11.5 1.79,-2.57 3.29,-5.11 5.1,-7.34 1.97,-2.42 4.12,-4.42 6.07,-6.45 3.68,-3.83 7.0299,-6.7 9.6599,-10.01 z"
     id="path1450"
     style="stroke:none;stroke-width:0.2" /><path
     d="m 1996.1562,6049.2236 c -1.23,-1.49 -1.01,-3.7 0.48,-4.93 1.49,-1.23 3.7,-1.01 4.93,0.48 9.05,10.06 21.76,11.97 35.1399,9.98 19.45,-2.91 40.3099,-14.39 54.5599,-25.01 12.43,-8.8 23.1299,-18.14 32.4799,-27.42 7.96,-7.9 14.93,-15.77 20.65,-23.76 6.5199,-9.09 11.5599,-18.16 14.9499,-27.17 8.86,-23.51 6.81,-46.2199 -7.41,-64.7799 -1.24,-1.49 -1.03,-3.7 0.46,-4.94 1.48,-1.23 3.7,-1.03 4.93,0.46 17.92,19.91 22.5,45.7999 14.15,73.3599 -5.79,19.12 -17.84,39.21 -36.4699,58.1 -9.84,9.98 -21.74,19.4 -35.1599,28.51 -16.48,10.63 -40.3199,21.8 -61.9599,23.33 -16.5399,1.17 -31.7699,-2.95 -41.7299,-16.21 z"
     id="path1452"
     style="stroke:none;stroke-width:0.2" /><path
     d="m 2122.4359,5935.4036 c -0.96,-1.69 -0.36,-3.83 1.32,-4.78 1.69,-0.95 3.83,-0.36 4.78,1.33 l 1.27,1.96 c 2.51,4.15 3.57,8.98 2.81,14.47 -0.56,4.13 -2.61,8.46 -6.21,13.32 -3.55,4.51 -6.77,8.67 -9.95,12.44 -2.42,2.87 -4.74,5.55 -7.07,7.96 -4.6,4.76 -8.9699,8.72 -13.0799,12.18 -6.55,5.5 -12.47,9.65 -18.26,13.3 -6.49,4.09 -12.73,7.33 -19.6999,10.76 -1.64,1.03 -3.8,0.54 -4.83,-1.1 -1.03,-1.64 -0.54,-3.8 1.1,-4.83 7,-5.47 12.9499,-10.66 19.4899,-16.95 3.33,-3.2 6.7,-6.7 10.49,-10.61 3.18,-3.29 6.5,-6.94 10.37,-10.85 3.26,-3.29 6.9,-6.74 10.8799,-10.51 3.44,-3.26 7.22,-6.59 11.22,-10.34 2.82,-2.51 4.75,-4.79 5.65,-7.23 1.15,-3.14 1.2,-6.11 0.29,-8.89 z"
     id="path1454"
     style="stroke:none;stroke-width:0.2" /><path
     d="m 2129.2059,5933.3636 c 1.16,1.55 0.85,3.74 -0.69,4.91 -1.55,1.16 -3.75,0.85 -4.91,-0.7 -3.42,-3.8 -3.3,-11.3699 0.56,-21.1399 2.63,-6.67 7.04,-14.46 12.89,-22.68 3.15,-4.42 6.74,-8.92 10.7299,-13.37 3.96,-4.41 8.27,-8.8 12.97,-12.92 4.54,-3.99 9.44,-7.71 14.5,-11.19 6.1,-4.2 12.4399,-8.01 18.9099,-11.28 10.39,-5.26 20.91,-9.16 31.13,-11.19 1.8599,-0.52 3.7999,0.56 4.3299,2.42 0.52,1.87 -0.56,3.81 -2.42,4.33 -7.6099,2.82 -15.1099,7.02 -22.6199,11.91 -7.02,4.57 -13.81,9.88 -20.4399,15.48 -4.38,3.7 -8.6,7.57 -12.76,11.38 -4.31,3.94 -8.51,7.83 -12.47,11.7 -6.14,5.99 -11.76,11.8 -16.3799,17.35 -3.76,4.52 -6.97,8.67 -9.29,12.53 -2.24,3.75 -3.85,6.9499 -4.18,9.6499 -0.13,1.11 -0.32,2.07 0.14,2.81 z"
     id="path1456"
     style="stroke:none;stroke-width:0.2" /><path
     d="m 2171.6058,5936.6136 c -1.62,1.05 -3.8,0.59 -4.85,-1.04 -1.05,-1.62 -0.58,-3.79 1.04,-4.84 20.3499,-13.9799 37.3799,-31.7099 50.5999,-49.1399 18.6599,-24.61 29.6699,-48.49 29.7299,-60.29 0.15,-11.8 -7.18,-19.72 -17.81,-21.95 -9.5899,-2.01 -21.5099,0.31 -33.6799,7.65 -20.4099,11.84 -40.7099,27.63 -58.3698,44.33 -20.07,18.97 -36.7699,39.09 -45.5199,56.71 -4.92,9.82 -7.06,21.4499 -1.59,31.4099 4.29,7.8 12.96,14.44 27.6699,18.69 1.87,0.49 3,2.41 2.51,4.28 -0.49,1.87 -2.4,3 -4.27,2.51 -17.7399,-4.1 -28.1499,-11.93 -33.7199,-20.92 -7.74,-12.47 -6.23,-27.6299 -0.52,-40.6299 8.45,-19.06 24.9099,-41.41 45.4999,-62.22 17.9299,-18.12 39.0199,-34.98 60.1298,-47.89 20.67,-12.12 40.9499,-12.66 54.7099,-5.63 12.2,6.23 19.95,18.15 19.27,34.05 -0.56,11.35 -9.55,32.68 -26.22,55.18 -15.6199,21.08 -37.7599,43.42 -64.6098,59.7399 z"
     id="path1458"
     style="stroke:none;stroke-width:0.2" /><path
     d="m 2081.136,5926.9836 c 1.54,-1.1799 3.74,-0.8799 4.91,0.66 1.18,1.53 0.88,3.74 -0.65,4.91 0,0 -2.17,4.07 -6.44,11.15 -1.29,2.14 -2.6,4.59 -4.48,7.04 -1.61,2.09 -3.64,3.98 -5.71,6.17 -2.89,3.06 -6.0199,5.78 -9.1399,9.47 -0.85,1.74 -2.95,2.46 -4.69,1.61 -1.73,-0.85 -2.45,-2.95 -1.6,-4.69 1.1,-5.13 2.22,-9.51 3.93,-13.76 1.27,-3.16 2.73,-5.97 4.44,-8.43 0.75,-1.08 1.62,-2.01 2.4799,-2.88 1.46,-1.48 2.85,-2.76 4.29,-3.84 7.55,-5.64 12.66,-7.41 12.66,-7.41 z"
     id="path1460"
     style="stroke:none;stroke-width:0.2" /><path
     d="m 2112.9959,5865.7537 c 1.87,0.5 2.98,2.43 2.47,4.29 -0.5,1.87 -2.42,2.98 -4.29,2.48 -8.6699,-1.77 -20.3399,3.51 -32.5099,10.93 -6.11,3.73 -12.22,8.13 -18.1599,12.65 -9.59,7.29 -18.54,14.99 -25.15,21.61 -5.38,4.98 -11.5499,11.5199 -17.9599,18.6699 -8.47,9.45 -17.28,20.01 -24.21,30.54 -6.11,9.29 -10.9599,18.31 -12.6999,26.33 -0.89,4.13 -1.12,7.91 -0.02,11.2 0.72,1.79 -0.14,3.83 -1.94,4.56 -1.79,0.72 -3.84,-0.15 -4.56,-1.94 -5.2,-11.05 -0.6,-28.39 8.85,-46.28 6.2399,-11.81 14.4799,-23.88 22.9199,-34.33 6.43,-7.9599 13.08,-14.8799 18.6899,-20.2999 5.12,-4.62 11.36,-9.85 18.37,-14.86 9.41,-6.74 20.01,-13.22 30.3699,-18.09 15.24,-7.16 29.91,-10.77 39.8299,-7.46 z"
     id="path1462"
     style="stroke:none;stroke-width:0.2" /><path
     d="m 1836.3666,6038.9436 c 0.36,1.9 -0.89,3.74 -2.79,4.1 -1.9,0.37 -3.74,-0.88 -4.1,-2.78 0,0 -1.67,-3.93 -2.45,-10.48 -0.26,-2.21 -0.2,-4.57 0.04,-7.24 0.21,-2.32 0.8,-4.7 1.63,-7.19 0.5,-1.52 1.16,-3.05 2.04,-4.52 1.51,-2.51 3.45,-4.93 5.93,-7.1 2.03,-1.77 4.21,-3.44 6.89,-4.85 3.35,-1.76 6.87,-3.25 11.24,-4.35 1.72,-0.88 3.83,-0.19 4.71,1.54 0.88,1.72 0.19,3.83 -1.53,4.71 -2.75,2.29 -4.64,4.67 -6.6,6.98 -2.08,2.47 -3.41,4.97 -4.81,7.33 -0.89,1.49 -1.58,2.97 -2.33,4.35 -0.84,1.53 -1.71,2.92 -2.43,4.32 -4.33,8.38 -5.44,15.18 -5.44,15.18 z"
     id="path1464"
     style="stroke:none;stroke-width:0.2" /><path
     d="m 1771.1368,6094.9236 c -1.73,-0.87 -2.44,-2.98 -1.57,-4.71 0.86,-1.73 2.97,-2.43 4.7,-1.56 0,0 5.77,0.85 13.6299,4.18 1.67,0.71 3.3,1.62 5,2.68 1.06,0.65 2.11,1.37 3.08,2.22 1.78,1.57 3.38,3.38 4.84,5.36 1.38,1.89 2.59,3.75 3.63,5.86 1.62,3.27 2.88,6.31 3.66,9.77 0.9,1.71 0.23,3.83 -1.48,4.73 -1.71,0.9 -3.83,0.23 -4.73,-1.48 -2.32,-2.54 -5.05,-4.26 -7.94,-6.32 -1.12,-0.79 -2.24,-1.42 -3.34,-2.21 -1.65,-1.19 -3.38,-2.17 -4.88,-3.43 -2.22,-1.85 -4.0599,-3.87 -5.8299,-5.67 -5.41,-5.49 -8.77,-9.42 -8.77,-9.42 z"
     id="path1466"
     style="stroke:none;stroke-width:0.2" /><path
     d="m 1766.6168,6170.2536 c -1.91,0.3199 -3.72,-0.96 -4.04,-2.87 -0.33,-1.91 0.96,-3.72 2.86,-4.04 0,0 4.5,-2.64 11.51,-5.08 1.52,-0.53 3.1,-0.92 4.8,-1.26 1.0599,-0.21 2.1599,-0.39 3.2699,-0.43 2.11,-0.06 4.21,0.11 6.27,0.48 6.27,1.14 11.42,2.99 14.87,5.37 1.83,0.63 2.79,2.64 2.15,4.46 -0.64,1.83 -2.64,2.79 -4.46,2.15 -2.48,-0.13 -5.22,0.89 -8.72,1.6699 -1.5,0.33 -2.93,0.76 -4.52,1.06 -1.52,0.29 -3.03,0.68 -4.59,0.77 -2.63,0.16 -5.1899,-0.1 -7.5799,-0.34 -7.04,-0.71 -11.82,-1.9399 -11.82,-1.9399 z"
     id="path1468"
     style="stroke:none;stroke-width:0.2" /><path
     d="m 1709.2269,6154.6336 c -1.84,0.62 -3.83,-0.37 -4.45,-2.2 -0.61,-1.83 0.37,-3.82 2.2,-4.44 0,0 2.55,-1.78 7.51,-4.24 1.56,-0.78 3.22,-1.47 5.23,-2.18 1.68,-0.6 3.47,-1.07 5.45,-1.46 1.19,-0.24 2.43,-0.45 3.72,-0.47 3.01,-0.05 6.14,0.32 9.37,1.09 4.5499,1.09 8.7399,2.73 13.2999,5.02 1.89,0.41 3.09,2.28 2.68,4.17 -0.41,1.89 -2.28,3.09 -4.17,2.68 -3.73,0.17 -6.93,0.88 -10.3799,1.43 -1.74,0.27 -3.33,0.64 -4.99,0.88 -1.7,0.25 -3.31,0.61 -4.92,0.69 -2.91,0.15 -5.57,-0.07 -8.01,-0.17 -7.8,-0.33 -12.54,-0.8 -12.54,-0.8 z"
     id="path1470"
     style="stroke:none;stroke-width:0.2" /><path
     d="m 1749.4968,6205.7035 c 0.33,-1.91 2.15,-3.19 4.05,-2.85 1.91,0.33 3.19,2.15 2.85,4.05 0,0 1.15,3.42 1.54,9.36 0.07,1.18 0,2.35 -0.15,3.65 -0.09,0.79 -0.22,1.59 -0.49,2.36 -0.5,1.45 -1.2,2.81 -2.1,4.1 -2.38,3.46 -4.82,5.94 -7.74,8.35 -0.96,1.69 -3.1,2.28 -4.78,1.32 -1.6799,-0.95 -2.2699,-3.09 -1.3199,-4.78 0.3099,-2.34 0,-4.35 0.08,-6.96 0.04,-1.17 -0.02,-2.21 0.1,-3.38 0.1199,-1.12 0.1299,-2.21 0.4499,-3.26 0.57,-1.84 1.51,-3.38 2.36,-4.83 2.79,-4.76 5.15,-7.13 5.15,-7.13 z"
     id="path1472"
     style="stroke:none;stroke-width:0.2" /><path
     d="m 1662.117,6246.2635 c 0.92,-1.69 3.05,-2.32 4.75,-1.4 1.7,0.93 2.33,3.06 1.4,4.76 0,0 -0.36,4.67 -0.75,11.69 -0.12,2.25 -0.01,4.66 -0.23,7.26 -0.16,1.87 -0.62,3.76 -0.83,5.76 -0.21,1.97 -0.67,3.83 -0.72,5.91 -0.05,2.63 -0.27,5.08 0.26,7.87 0.86,1.73 0.14,3.83 -1.6,4.69 -1.73,0.85 -3.8299,0.13 -4.6899,-1.6 -2.93,-3.37 -4.71,-6.8 -6.29,-10.56 -0.73,-1.72 -1.14,-3.4 -1.52,-5.16 -0.55,-2.56 -0.74,-5.1 -0.6,-7.57 0.08,-1.36 0.34,-2.67 0.67,-3.93 0.53,-2.02 1.14,-3.88 1.94,-5.59 0.93,-1.97 1.81,-3.63 2.82,-5.14 3.06,-4.59 5.3899,-6.99 5.3899,-6.99 z"
     id="path1474"
     style="stroke:none;stroke-width:0.2" /><path
     d="m 1793.1667,6210.9835 c -0.13,-1.93 1.33,-3.6 3.26,-3.73 1.94,-0.12 3.6,1.34 3.73,3.27 0,0 2,3.58 3.51,9.67 0.32,1.28 0.45,2.58 0.53,4.01 0.05,0.89 0.05,1.79 -0.1,2.7 -0.28,1.72 -0.82,3.37 -1.55,4.97 -0.56,1.22 -1.05,2.3 -1.8,3.38 -2.05,2.97 -3.68,5.3 -6.23,7.03 -1.11,1.59 -3.3,1.97 -4.88,0.85 -1.58,-1.11 -1.96,-3.3 -0.85,-4.88 0.54,-2.1 -0.08,-4.08 -0.2,-6.62 -0.04,-0.93 -0.25,-1.74 -0.27,-2.69 -0.02,-1.35 -0.25,-2.68 -0.09,-4.02 0.25,-1.95 0.9,-3.71 1.44,-5.39 1.73,-5.36 3.5,-8.55 3.5,-8.55 z"
     id="path1476"
     style="stroke:none;stroke-width:0.2" /><path
     d="m 1829.8066,6193.9035 c 1.84,0.62 2.82,2.61 2.21,4.44 -0.62,1.83 -2.61,2.82 -4.44,2.2 0,0 -3.92,0.81 -9.7299,1.23 -1.87,0.13 -3.81,0.41 -5.85,0.29 -1.37,-0.08 -2.66,-0.54 -4.01,-0.73 -1.38,-0.2 -2.53,-0.75 -3.85,-0.81 -1.86,-0.08 -3.39,-0.72 -5,-0.04 -1.42,1.3 -3.64,1.2 -4.95,-0.23 -1.3,-1.42 -1.2,-3.64 0.23,-4.95 1.79,-3.31 4.77,-5.01 8.41,-6.97 1.32,-0.72 2.68,-1.07 4.18,-1.49 1.92,-0.54 3.91,-0.79 5.93,-0.74 1.03,0.02 2.04,0.2 3.02,0.45 1.54,0.38 2.94,0.81 4.29,1.41 1.53,0.69 2.7699,1.32 3.9799,2.08 3.65,2.28 5.58,3.86 5.58,3.86 z"
     id="path1478"
     style="stroke:none;stroke-width:0.2" /><path
     d="m 1729.2369,6096.6136 c 0.25,0.3 0.45,0.64 0.6,1.02 0.69,1.81 -0.22,3.84 -2.03,4.53 -7.19,3.99 -13.72,4.93 -19.14,4.51 -3.79,-0.29 -6.91,-1.73 -9.5799,-3.41 -5.52,-3.47 -8.13,-9.41 -8.03,-15.88 0.03,-2.38 0.7,-4.83 1.73,-7.35 1.21,-2.58 2.73,-4.81 4.66,-6.46 4.6899,-4.01 10.9399,-5.82 17.1799,-4.15 2.16,0.58 4.37,1.33 6.38,2.7 5.56,3.8 10.69,10.2 11.83,20.08 0.51,1.87 -0.6,3.79 -2.46,4.3 -0.39,0.1 -0.77,0.14 -1.14,0.11 z m -2.45,-1.23 c -0.33,-0.38 -0.57,-0.83 -0.71,-1.35 -2.16,-4.87 -5.47,-7.78 -8.82,-9.63 -1.47,-0.81 -3.03,-0.96 -4.49,-1.14 -2.39,-0.3 -4.5,0.9 -5.39,3.29 -1.59,2.91 -1.01,5.92 1.83,7.47 3.8,2.07 9.14,3.17 16.11,1.59 0.48,-0.19 0.98,-0.26 1.47,-0.23 z"
     id="path1480"
     style="stroke:none;stroke-width:0.2" /></g>&#10;</svg>
