<?xml version="1.0" encoding="UTF-8" standalone="no"?>
<svg
   width="2350.2434"
   height="3127.7854"
   viewBox="0 0 2350.2434 3127.7854"
   version="1.1"
   xml:space="preserve"
   style="clip-rule:evenodd;fill-rule:evenodd;stroke-linejoin:round;stroke-miterlimit:2"
   id="svg5353"
   xmlns="http://www.w3.org/2000/svg"
   xmlns:svg="http://www.w3.org/2000/svg"><defs
   id="defs5353" />&#10;    <g
   id="vectorly-UNI-padlock"
   transform="matrix(5.2923486,0,0,5.2923486,-9473.6727,-68707.127)"
   style="stroke-width:0.188952"><path
     d="m 1815.7767,13568.811 c -1.93,0 -3.5,-1.6 -3.49,-3.5 0,-2 1.58,-3.5 3.52,-3.5 0,0 41.0099,-1.8 95.1797,-3.4 12.14,-0.4 24.93,-0.6 38.0699,-0.9 8.35,-0.1 16.83,-0.2 25.38,-0.2 21.2099,0 42.7699,0.5 63.4398,0.9 36.9299,0.7 70.9598,1.8 95.1498,2 1.93,0 3.54,1.5 3.59,3.4 0.05,2 -1.48,3.6 -3.41,3.6 -24.19,1.5 -58.2499,3.4 -95.2398,4.6 -20.6799,0.7 -42.2499,1.3 -63.4898,1.5 -8.55,0.1 -17.04,0 -25.39,-0.1 -13.1499,-0.2 -25.9499,-0.5 -38.0999,-0.8 -54.1898,-1.6 -95.2097,-3.6 -95.2097,-3.6 z"
     id="path3628"
     style="stroke:none;stroke-width:0.188952" /><path
     d="m 2005.3762,13077.211 c 1.04,1.7 0.56,3.8 -1.07,4.9 -1.64,1 -3.8,0.5 -4.84,-1.1 -11.21,-17.1 -28.9599,-27 -48.5799,-26 -16.3199,0.9 -33.8099,9.3 -49.9598,26.9 -12.72,13.8 -20.57,35.7 -23.69,63.5 -3.29,29.4 -1.19,65.3 6.71,106 1.28,6.7 -1.51,13.5 -8.16,18.8 -5.27,4.2 -13.2699,7.3 -23.1299,8.1 -13.15,1 -21.7,-1.3 -27.39,-5.4 -5.4699,-4 -8.7099,-9.9 -10.3499,-17.8 -6.61,-32.1 -11.18,-65 -10.93,-96.6 0.17,-22.7 2.8,-44.7 8.66,-65.2 10.0799,-35.3 29.6799,-66.3 62.9998,-89.3 24.66,-16.9 57.1099,-24.5 87.0398,-20.7 30.9199,3.9 59.0899,19.7 73.3898,49.2 10.81,22.4 16.72,45.1 19.77,65.4 5.78,38.6 1.29,68.1 1.29,68.1 -0.26,1.9 -2.03,3.3 -3.95,3 -1.92,-0.3 -3.26,-2 -2.99,-4 0,0 3.52,-28.5 -3.01,-65.7 -3.4,-19.3 -9.55,-41 -20.42,-62.1 -13.1399,-25.7 -38.2899,-38.8 -65.4898,-41.6 -26.8599,-2.8 -55.7899,4.4 -77.5698,20 -29.9599,21.3 -47.1899,49.7 -56.0099,81.9 -5.29,19.3 -7.5399,39.9 -7.7099,61.1 -0.25,30.6 3.7999,62.4 9.9799,93.5 0.89,4.5 2.39,7.9 6.25,9.7 3.62,1.6 8.6,2.1 15.4,1.6 5.28,-0.3 9.82,-1.5 13.2399,-3.4 2.99,-1.7 5.43,-3.5 4.99,-6 -7.3399,-42.4 -8.7399,-79.7 -4.66,-110.1 4.12,-30.6 13.81,-54.2 28.19,-69.1 18.6999,-19.4 38.7799,-28.1 57.1898,-28.5 22.44,-0.5 42.5599,11 54.8099,30.9 z"
     id="path3630"
     style="stroke:none;stroke-width:0.188952" /><path
     d="m 2011.7462,13171.211 c 0.31,0.5 1.14,1.9 2.27,2.7 2.25,1.7 5.51,3.1 10.1799,3.7 5.42,0.7 12.35,0.5 21.25,-1.6 1.85,-0.6 3.81,0.5 4.37,2.3 0.57,1.9 -0.47,3.8 -2.32,4.4 -12.67,4.8 -22.19,5.6 -29.1399,4.8 -14.28,-1.8 -18.97,-11.2 -19.55,-14.9 -1.86,-14 -4.33,-26.3 -6.47,-37.3 -1.02,-5.2 -1.92,-10.1 -2.85,-14.7 -1.66,-8.2 -3.32,-15.4 -5.02,-21.8 -9.0899,-34.2 -19.8599,-43.6 -19.8599,-43.6 -1.6,-1.1 -2.03,-3.2 -0.94,-4.8 1.08,-1.7 3.26,-2.1 4.86,-1 0,0 15.0199,8 29.1899,45.1 2.5,6.5 4.9,14 7.06,22.6 1.2,4.8 2.35,9.9 3.25,15.4 1.87,11.3 2.91,24.2 3.72,38.7 z m 0.02,0.2 z"
     id="path3632"
     style="stroke:none;stroke-width:0.188952" /><path
     d="m 2063.6261,13166.011 c 0.04,0 0.09,0.1 0.12,0.1 -1.23,-1.5 -1.02,-3.7 0.4599,-4.9 1.49,-1.3 3.7,-1.1 4.94,0.4 2.08,2.3 2.36,7.1 -0.98,13.7 -4.2599,8.5 -14.4799,21.3 -31.0899,35.8 -10.11,8.8 -22.5899,18.3 -37.5599,27.6 -8.24,5.2 -17.2399,10.4 -27.0499,15.3 -8.8,4.4 -18.26,8.5 -28.31,12.5 -13.5499,5.4 -28.1599,10.4 -43.8498,14.9 -14.11,4 -29.04,7.6 -44.8399,10.7 -1.87,0.5 -3.78,-0.6 -4.25,-2.5 -0.46,-1.9 0.68,-3.8 2.56,-4.3 15.1899,-4.5 29.4499,-9.5 42.9699,-14.7 14.8899,-5.6 28.7099,-11.6 41.6099,-17.6 9.4999,-4.4 18.4299,-8.9 26.9099,-13.3 9.4,-4.8 18.19,-9.5 26.3399,-14.2 12.86,-7.3 24.11,-14.4 33.6399,-21.2 13.45,-9.6 23.54,-18.3 30.03,-25.5 3.74,-4.2 6.34,-7.7 7.55,-10.5 0.32,-0.7 0.58,-1.3 0.67,-1.9 0.01,-0.1 0.11,-0.3 0.13,-0.4 z m 0,0 c -0.05,0 -0.09,-0.1 -0.05,-0.1 0.05,0 0.06,0 0.05,0.1 z"
     id="path3634"
     style="stroke:none;stroke-width:0.188952" /><path
     d="m 1807.0667,13265.611 c 0.4,0.3 0.8,0.5 1.11,0.7 2.25,1.8 4.95,3.8 8.01,5.8 3.6,2.4 7.3899,4.9 11.3299,7.1 4.25,2.3 8.26,4.6 12.05,6.1 1.88,0.5 3.03,2.4 2.57,4.3 -0.46,1.8 -2.36,3 -4.24,2.5 -7.65,-0.7 -17.0499,-2.8 -25.4899,-5.8 -3.61,-1.3 -6.93,-2.9 -9.82,-4.5 -2.52,-1.5 -4.67,-3.1 -6.36,-4.6 -5.77,-5.4 -7.16,-11.3 -5.51,-15.2 0.72,-1.8 1.65,-3.6 3.58,-4.9 0.99,-0.7 3.74,-2.3 8.33,-4.1 4.34,-1.6 10.21,-3.5 17.53,-5.9 1.72,-0.9 3.8399,-0.2 4.7199,1.5 0.89,1.7 0.21,3.8 -1.51,4.7 z m -1.78,-1.1 c 0.05,-0.4 0.1,-0.8 -0.18,-0.7 -0.32,0.2 -0.18,0.4 0.18,0.7 z m 196.9495,-108.2 c 1.69,-0.9 3.83,-0.3 4.77,1.4 0.94,1.7 0.34,3.8 -1.35,4.7 -4.02,2.7 -18.23,11.7 -37.9299,23 -4.82,2.8 -9.99,5.7 -15.43,8.6 -3.38,1.8 -6.84,3.6 -10.4499,5.3 -8.55,4.1 -17.61,8.1 -26.83,12 -13.6499,5.7 -27.6199,11.1 -40.9199,16.5 -1.73,0.9 -3.84,0.1 -4.7,-1.6 -0.86,-1.7 -0.15,-3.8 1.58,-4.7 12.35,-7.3 25.09,-15.2 37.9899,-22.5 8.71,-4.9 17.36,-9.7 25.81,-14 3.56,-1.8 7.13,-3.5 10.6099,-5 5.61,-2.6 11,-5 16.13,-7.1 20.76,-8.7 36.3699,-14.6 40.7199,-16.6 z"
     id="path3636"
     style="stroke:none;stroke-width:0.188952" /><path
     d="m 1794.2267,13266.111 c -0.3,-1.9 1.01,-3.7 2.93,-4 1.91,-0.3 3.7,1 4,2.9 0,0 6.46,29 13.77,66.2 1.68,8.5 3.32,17.4 4.92,26.6 1.03,5.8 2.06,11.8 2.9399,17.7 2.24,15.3 4.08,30.5 5.73,44.7 4.38,37.6 7.03,67.2 7.03,67.2 0.29,1.9 -1.02,3.7 -2.93,4 -1.92,0.3 -3.71,-1 -4,-2.9 0,0 -6.4099,-29 -13.5999,-66.2 -2.71,-14 -5.57,-29.1 -8.03,-44.3 -0.97,-6 -1.77,-12 -2.56,-17.9 -1.24,-9.1 -2.37,-18.2 -3.34,-26.8 -4.27,-37.6 -6.86,-67.2 -6.86,-67.2 z"
     id="path3638"
     style="stroke:none;stroke-width:0.188952" /><path
     d="m 1873.4165,13512.311 c 0.52,-16.1 -1.63,-37.2 -4.45,-59.8 -0.96,-7.7 -1.97,-15.6 -2.98,-23.5 -1.5,-11.8 -3.03,-23.8 -4.6099,-35.3 -1.71,-12.5 -3.39,-24.4 -5.03,-35.4 -3.99,-26.6 -7.55,-47 -9.2,-52.4 -0.65,-1.8 0.31,-3.8 2.13,-4.5 1.83,-0.6 3.83,0.3 4.48,2.1 2.77,6.9 11.6099,37.6 19.4499,75.2 3.37,16.1 6.62,33.5 8.94,50.8 1.98,14.7 3.21,29.3 3.85,42.9 0.79,16.6 0.43,31.7 -1.01,43.7 -0.32,2.6 -1.56,4.9 -4.43,6.3 -2.27,1 -6.5,1.6 -12.13,0.3 -9.2399,-2.3 -23.6999,-9.1 -38.5899,-22.7 -1.49,-1.2 -1.69,-3.5 -0.45,-4.9 1.24,-1.5 3.45,-1.7 4.94,-0.5 16.49,12.6 31.4999,17.6 39.0899,17.7 z m 0.93,0 c 0.09,-0.1 0.17,-0.1 0.26,-0.1 0.33,0 0.93,0.1 0.85,-0.2 -0.23,-0.7 -0.68,-0.4 -1.11,0.3 z m -1.05,2.8 z"
     id="path3640"
     style="stroke:none;stroke-width:0.188952" /><path
     d="m 2104.376,13374.011 c 1.5399,-1.2 3.7399,-0.9 4.9099,0.6 1.17,1.6 0.87,3.8 -0.67,4.9 0,0 -18.4799,15.7 -45.6798,36.8 -9.49,7.3 -20.02,15.3 -31.26,23.5 -8.5799,6.2 -17.5299,12.5 -26.7399,18.6 -9.06,6 -18.36,11.8 -27.6399,17.4 -16.44,9.8 -32.81,18.7 -47.9199,26.1 -20.45,10 -38.6299,17 -51.7999,19.2 -1.89,0.4 -3.75,-0.9 -4.15,-2.8 -0.4,-1.8 0.82,-3.7 2.71,-4.1 17.23,-4.4 42.6199,-18.9 70.5498,-36.6 12.29,-7.8 24.98,-16.3 37.7599,-24.8 8.43,-5.6 16.9,-11.1 25.22,-16.5 13.3,-8.7 26.1999,-17.1 37.9599,-24.8 32.8699,-21.5 56.7499,-37.5 56.7499,-37.5 z"
     id="path3642"
     style="stroke:none;stroke-width:0.188952" /><path
     d="m 2078.806,13173.911 c -0.3,-1.9 1.02,-3.7 2.93,-4 1.91,-0.3 3.7,1 3.99,2.9 0,0 5.8,24.8 12.01,57.2 1.4,7.4 2.76,15.1 4.04,23 0.82,5.1 1.65,10.3 2.3,15.4 1.6499,13.1 2.8499,26.3 3.8199,38.8 1.92,24.8 2.56,46.6 2.11,58.8 0.03,1.9 -1.51,3.5 -3.44,3.5 -1.93,0.1 -3.5299,-1.5 -3.5699,-3.4 -0.91,-11.9 -4.65,-33 -8.66,-57.2 -2.04,-12.3 -4.24,-25.3 -6.11,-38.3 -0.74,-5.2 -1.32,-10.3 -1.91,-15.4 -0.91,-8 -1.75,-15.8 -2.45,-23.2 -3.13,-32.8 -5.06,-58.1 -5.06,-58.1 z"
     id="path3644"
     style="stroke:none;stroke-width:0.188952" /><path
     d="m 2046.0261,13382.011 c 0.87,1.7 0.16,3.8 -1.57,4.7 -1.73,0.9 -3.83,0.2 -4.7,-1.6 0,0 -11.43,-20.6 -18.8699,-36.4 -3.97,-8.5 -6.56,-15.7 -6.66,-18.5 -0.14,-4.4 0.73,-20.3 -3.57,-31.7 -1.74,-4.6 -4.42,-8.5 -9.73,-8.4 -6.65,0.1 -11.88,4 -15.66,9 -4.2399,5.6 -6.6899,12.8 -6.6099,19.1 -0.02,6.4 1.18,11.5 2.96,15.4 3.4699,7.6 8.8099,10.4 8.8099,10.4 2.25,1 3.87,3 4.32,5.4 0,0 9.97,63.8 9.97,63.8 l 33.2999,-15.2 c 1.73,-0.9 3.83,-0.2 4.7,1.5 0.87,1.8 0.18,3.9 -1.55,4.7 l -38.1599,21.1 c -1.45,0.7 -3.15,0.7 -4.59,0 -1.45,-0.7 -2.48,-2.1 -2.78,-3.7 0,0 -14.5299,-66 -14.5199,-66 -3.62,-2.3 -9.27,-7 -13.42,-15.4 -2.73,-5.4 -4.76,-12.6 -4.97,-21.9 -0.06,-9.5 3.46,-20.4 10.04,-28.8 6.77,-8.6 16.5399,-14.6 28.1899,-14.3 9.61,0.2 16.04,5 20.02,12.3 3.3599,6.2 4.9399,14.4 5.3499,22.2 0.47,9 -0.42,17.3 -0.53,20.5 -0.08,2.1 2.01,7.7 4.57,14.4 6.12,16.1 15.66,37.4 15.66,37.4 z"
     id="path3646"
     style="stroke:none;stroke-width:0.188952" /><path
     d="m 2017.9962,13298.911 c -32.02,18.3 -8.15,37.1 -7.64,42.5 0.5,5.3 6.89,71 6.89,71 l -16.56,8.3 -13.14,-69.9 c 0,0 -16.6099,-7.1 -16.8599,-32.6 -0.14,-15.5 11.71,-35.6 30.2599,-35.6 9.73,0.1 14.63,7.3 17.05,16.3 z"
     id="path3648"
     style="stroke:none;stroke-width:0.188952" /><path
     d="m 2127.6259,13225.911 c -1.93,0 -3.51,-1.6 -3.51,-3.5 -0.01,-1.9 1.55,-3.5 3.49,-3.5 11.01,-0.4 21.3999,1.6 31.1999,5.6 2.27,0.9 4.49,2 6.69,3.2 -4.2,-9.2 -6.98,-18.1 -8.06,-26.6 -1.11,-8.6 -0.39,-16.6 2.17,-23.8 3.55,-9.9 10.8,-18.3 22.68,-23.7 -0.28,-0.1 -0.57,-0.2 -0.85,-0.3 -18.85,-6.8 -30.99,-16.5 -37.9699,-29 -5.84,-10.4 -8.16,-22.9 -7.24,-37.6 0.35,-5.6 1.16,-11.5 2.39,-17.8 -7.06,8.7 -14.52,16.5 -22.46,23.2 -12.0599,10.2 -25.1699,17.9 -39.5999,22.8 -1.81,0.6 -3.83,-0.3 -4.49,-2.1 -0.66,-1.9 0.28,-3.9 2.1,-4.5 16.41,-6.5 30.6899,-17.1 43.4399,-30.8 11.51,-12.4 21.72,-27.4 30.9899,-44.3 1.57,-2.7 4.93,-3.8 7.8,-2.5 2.87,1.2 4.34,4.5 3.4,7.4 -5.53,19 -8.9,35.3 -9.3,49.2 -0.34,11.6 1.46,21.3 6.21,29.4 5.62,9.5 15.45,16.3 30.0599,21.5 10.87,3.8 24.23,6.7 40.4699,8.6 4.19,0.5 7.24,4.2 6.89,8.4 -0.36,4.2 -3.99,7.3 -8.2,7.1 -31.1299,-2.3 -47.9598,5.3 -53.7398,19.8 -6.5,16.2 0.25,38.9 13.8499,60.8 1.42,2.2 0.97,5.1 -1.0599,6.8 -2.03,1.7 -4.98,1.5 -6.84,-0.3 -7.05,-7.4 -14.64,-13.1 -22.84,-17 -8.59,-4.1 -17.7899,-6.3 -27.6699,-6.5 z"
     id="path3650"
     style="stroke:none;stroke-width:0.188952" /><path
     d="m 1900.1265,13029.011 c 1.55,-1.2 3.7499,-0.8 4.8999,0.7 1.15,1.6 0.81,3.8 -0.74,4.9 0,0 -13.4199,12.5 -26.8599,33.9 -4.61,7.3 -9.09,15.8 -13.4,25.1 -3.7499,8.1 -7.4599,16.8 -10.2499,26.4 -3.73,12.8 -6.39,26.9 -6.17,42.7 0.17,1.9 -1.26,3.6 -3.19,3.8 -1.92,0.1 -3.63,-1.3 -3.8,-3.2 -2.73,-16.7 -2.58,-32.2 -0.15,-46.4 1.86,-10.9 5.01,-20.9 9.03,-30 1.75,-3.9 3.76,-7.6 5.85,-11.1 3.37,-5.7 6.95,-10.8 10.6499,-15.4 16.99,-21.1 34.13,-31.4 34.13,-31.4 z"
     id="path3652"
     style="stroke:none;stroke-width:0.188952" /></g>&#10;</svg>
