<?xml version="1.0" encoding="UTF-8" standalone="no"?>
<svg
   width="3099.0757"
   height="2539.4607"
   viewBox="0 0 3099.0757 2539.4607"
   version="1.1"
   xml:space="preserve"
   style="clip-rule:evenodd;fill-rule:evenodd;stroke-linejoin:round;stroke-miterlimit:2"
   id="svg5353"
   xmlns="http://www.w3.org/2000/svg"
   xmlns:svg="http://www.w3.org/2000/svg"><defs
   id="defs5353" />&#10;    <g
   id="vectorly-UNI-folder"
   style="stroke:none;stroke-width:0.2"
   transform="matrix(4.9999999,0,0,4.9999999,-8242.6764,-36949.511)"><path
     d="m 1651.3871,7433.853 c -1.9,-0.36 -3.15,-2.2 -2.79,-4.1 0.37,-1.9 2.2,-3.15 4.1,-2.79 0,0 15.2299,0.96 34.0799,8.44 4.19,1.65 8.47,3.74 12.79,6.2 2.7099,1.54 5.4299,3.22 8.0199,5.18 6.15,4.63 11.97,10.27 17.04,16.86 6.89,8.95 12.34,19.51 15.67,31.87 0.68,1.81 -0.23,3.83 -2.04,4.52 -1.81,0.68 -3.84,-0.23 -4.52,-2.04 -3.38,-6.72 -7.56,-12.4 -12.01,-17.65 -4.7,-5.54 -9.91,-10.16 -15.19,-14.4 -3.34,-2.69 -6.7399,-5.12 -10.0699,-7.48 -3.57,-2.53 -7.03,-4.95 -10.46,-7.13 -4.69,-2.98 -9.13,-5.63 -13.29,-7.84 -12.2899,-6.55 -21.3299,-9.64 -21.3299,-9.64 z"
     id="path1972"
     style="stroke:none;stroke-width:0.2" /><path
     d="m 2186.8857,7581.263 c -0.72,1.8 -2.7599,2.68 -4.5599,1.97 -1.79,-0.72 -2.67,-2.75 -1.96,-4.55 0,0 4.55,-16.73 14.7099,-37.03 2.29,-4.57 4.94,-9.26 7.89,-13.96 1.88,-2.99 3.87,-6 6.08,-8.87 5.47,-7.11 11.79,-13.82 18.6599,-19.67 10.89,-9.27 23.07,-16.29 36.02,-19.45 1.83,-0.62 3.8199,0.37 4.4399,2.2 0.62,1.83 -0.37,3.82 -2.2,4.44 -10.9299,4.75 -20.1999,13.12 -28.7399,22.61 -4.63,5.15 -8.85,10.72 -12.9999,16.26 -2.84,3.78 -5.65,7.53 -8.34,11.23 -4.41,6.07 -8.55,11.93 -12.18,17.39 -10.38,15.57 -16.82,27.43 -16.82,27.43 z"
     id="path1974"
     style="stroke:none;stroke-width:0.2" /><path
     d="m 2139.1859,7517.983 c -0.35,-0.1 -0.94,-0.25 -1.38,-0.32 -1.71,-0.26 -3.81,-0.27 -6.21,-0.15 -7.38,0.37 -17.21,2.16 -27.6099,4.53 -25.38,5.79 -53.9699,15.13 -58.8999,17.08 -8.59,3.4 -12.8,10.47 -16.3,17.06 -3.89,7.34 -7.1399,14.3 -11.6499,18.46 -2.16,2 -4.61,3.47 -7.39,4.35 -7.44,2.34 -69.5398,10.72 -123.1097,19.7 -25.6699,4.31 -49.3499,8.72 -63.7199,12.85 -3.1799,0.92 -6.8599,1.62 -8.8999,2.35 0.07,3.07 0.94,9.23 2.13,17.53 2.97,20.6499 8.7399,52.9799 15.3099,85.0599 7.89,38.51 16.87,76.67 23.75,93.41 0.88,2.13 2.21,4.53 2.74,5.45 1.5,-0.21 3.7,-0.81 5.7399,-1.04 15.5,-1.69 47.4699,-6.95 85.1098,-13.52 93.0998,-16.24 220.7295,-40.56 220.7295,-40.56 1.89,-0.39 3.74,0.84 4.13,2.74 0.38,1.9 -0.85,3.75 -2.74,4.13 0,0 -127.1697,27.1 -220.0195,45.12 -37.8699,7.36 -70.0498,13.18 -85.6698,15.15 -6.2799,0.79 -10.3999,0.8 -11.8599,0.47 -2.22,-0.5 -5.65,-2.9 -8.5,-8.33 -4.95,-9.46 -11.52,-31.23 -18.05,-57.41 -9.7699,-39.18 -19.6899,-88.38 -24.8599,-119.69 -2.87,-17.3599 -4.05,-29.6799 -3.53,-32.7699 0.41,-2.41 2.18,-5.77 6.84,-8.38 5.91,-3.32 19.8099,-7.21 37.9099,-10.89 55.5399,-11.29 152.7896,-22.67 162.1696,-25.54 2.86,-0.87 4.31,-3.83 6.12,-7.03 3.57,-6.32 7.02,-14.08 12.6099,-20.52 4.05,-4.68 9.12,-8.72 15.91,-11.3 5.82,-2.21 43.2999,-13.79 71.6198,-18.76 10.84,-1.9 20.41,-2.8 26.63,-2.07 4.26,0.49 7.3599,1.82 9.2399,3.49 1.25,1.12 3.2,4.15 4.99,9.16 4.15,11.59 10.14,36.37 16.49,65.77 15.47,71.5999 33.3299,170.7999 33.3299,170.7999 0.36,1.9 -0.88,3.74 -2.78,4.1 -1.9,0.37 -3.74,-0.88 -4.1,-2.78 0,0 -20.0799,-98.59 -37.0299,-169.7199 -5.65,-23.73 -10.95,-44.39 -15.0499,-57.21 -1.47,-4.61 -3.58,-9.49 -4.14,-10.77 z m -281.6493,297.4099 c -0.4,-0.2 -0.88,-0.44 -1.15,-0.5 -0.07,-0.02 -0.26,-0.17 -0.27,-0.06 -0.02,0.53 0.53,0.65 1.42,0.56 z m -43.7399,-201.4199 c -1.13,0.43 -1.67,0.87 -1.19,1.38 0.6,0.63 0.96,-0.34 1.19,-1.38 z"
     id="path1976"
     style="stroke:none;stroke-width:0.2" /><path
     d="m 1920.1364,7445.453 c -1.74,7.81 -6.13,24.02 -11.75,42.98 -13.2999,44.87 -32.9499,105.63 -32.9499,105.63 -0.53,1.86 -2.47,2.94 -4.33,2.41 -1.86,-0.54 -2.94,-2.48 -2.41,-4.34 0,0 11.03,-44.58 21.17,-85.84 3.23,-13.1 6.39,-25.85 9.03,-36.74 3.65,-15.05 6.3399,-26.37 6.6499,-29.69 0.34,-3.6 2.79,-7.65 9.55,-8.77 6.01,-0.98 19.81,0.67 37.3799,4.58 17.5,3.91 39.0599,9.87 60.3399,16.12 41.5499,12.22 81.9398,25.77 88.4098,26.55 7.1399,0.87 10.0399,6.03 9.3299,13.53 -1,10.64 -9.9399,26.56 -9.9399,26.56 -0.91,1.71 -3.03,2.36 -4.74,1.45 -1.71,-0.9 -2.36,-3.03 -1.45,-4.74 0,0 4.25,-8.75 6.37,-17.17 0.73,-2.9 1.19,-5.75 1.02,-8.09 -0.09,-1.12 -0.31,-2.1 -1.46,-2.18 -7.19,-0.48 -56.1999,-13.48 -102.5598,-24.92 -14.2,-3.5 -28.1299,-6.87 -40.5099,-9.67 -10.27,-2.32 -19.4399,-4.28 -26.7899,-5.47 -3.56,-0.58 -7.71,-1.85 -10.36,-2.19 z m -0.98,-0.08 c -1.14,-0.02 -1.8,0.26 -1.68,1.09 0.14,0.98 1.04,-0.18 1.68,-1.09 z m 1.71,-3.65 c 0.01,-0.06 0.02,-0.13 0.03,-0.19 -0.01,0.06 -0.02,0.12 -0.03,0.19 z"
     id="path1978"
     style="stroke:none;stroke-width:0.2" /><path
     d="m 1933.0064,7486.423 c -1.87,-0.48 -3.01,-2.38 -2.54,-4.26 0.47,-1.88 2.38,-3.01 4.26,-2.54 0,0 13.4499,1.39 30.6899,4.15 3.92,0.63 7.98,1.39 12.13,2.24 2.66,0.55 5.35,1.11 8.0099,1.83 6.79,1.84 13.44,4.05 19.6,6.16 16.5,5.64 29.0199,10.76 29.0199,10.76 1.88,0.48 3.02,2.39 2.54,4.26 -0.47,1.88 -2.38,3.01 -4.25,2.54 0,0 -13.4499,-1.45 -30.6599,-4.32 -6.42,-1.07 -13.32,-2.29 -20.1699,-3.9 -2.68,-0.63 -5.31,-1.42 -7.91,-2.2 -4.06,-1.22 -8,-2.48 -11.74,-3.79 -16.48,-5.76 -28.9799,-10.93 -28.9799,-10.93 z"
     id="path1980"
     style="stroke:none;stroke-width:0.2" /><path
     d="m 1924.2825,7527.1546 c -1.8781,-0.4796 -3.0134,-2.3815 -2.5418,-4.2611 0.4786,-1.8803 2.3827,-3.0088 4.2616,-2.539 0,0 9.2218,0.3341 21.2358,1.7599 2.7049,0.3229 5.4921,0.7536 8.3481,1.284 1.8263,0.3392 3.6729,0.686 5.4863,1.192 4.6429,1.2921 9.1316,2.9608 13.2979,4.5668 11.2682,4.3369 19.5655,8.3699 19.5655,8.3699 1.8781,0.4795 3.0134,2.3814 2.5418,4.261 -0.4715,1.8796 -2.3826,3.0088 -4.2545,2.5383 0,0 -9.2244,-0.3922 -21.202,-1.929 -4.4271,-0.5662 -9.1666,-1.2351 -13.8682,-2.3069 -1.8343,-0.4162 -3.6214,-0.9931 -5.3882,-1.5625 -2.7658,-0.8903 -5.4303,-1.8303 -7.9576,-2.8338 -11.2522,-4.4554 -19.5247,-8.5396 -19.5247,-8.5396 z"
     id="path1982"
     style="stroke:none;stroke-width:0.165299" /><path
     d="m 2139.3259,7405.843 c -2.96,-0.29 -8.43,0.35 -13.32,0.19 -10.04,-0.33 -23.3499,-0.23 -38.1399,-0.13 -12.14,0.08 -25.2599,0.17 -38.3899,0.29 -34.9899,0.33 -69.9398,0.98 -86.1698,2.46 -2.36,0.22 -4.75,0.56 -6.15,0.78 -0.62,2.51 -1.07,6.8 -1.5,11.4 -1.01,10.57 -1.51,22.63 -1.51,22.63 -0.01,1.94 -1.58,3.5 -3.52,3.5 -1.93,-0.01 -3.5,-1.58 -3.49,-3.52 0,0 -0.53,-15.5 -0.08,-27.02 0.24,-6.09 1,-11.16 1.89,-13.11 0.38,-0.83 1.43,-2.16 3.76,-3.06 1.79,-0.69 5.71,-1.49 11.29,-2.29 11.47,-1.65 30.5599,-3.57 52.2099,-5.07 16.6799,-1.15 34.8499,-2.11 52.1898,-2.61 12.35,-0.36 24.27,-0.4599 34.89,-0.32 15.2599,0.21 27.8899,0.96 35.4499,1.97 4.54,0.61 7.6699,1.48 9.1899,2.28 1.42,0.76 2.4,1.61 3.01,2.41 0.72,0.95 1.65,2.57 2.21,5.01 0.97,4.2 1.61,12.73 1.75,23.51 0.44,36.09 -3.33,98.68 -3.33,98.68 -0.05,1.94 -1.66,3.47 -3.59,3.42 -1.94,-0.06 -3.4699,-1.67 -3.4199,-3.6 0,0 -0.38,-39.44 -1.71,-73.6 -0.59,-15.37 -1.35,-29.65 -2.5,-38.64 -0.26,-2.05 -0.72,-4.27 -1.02,-5.56 z m 0.46,0.05 c 0.46,0.69 1.42,2.36 1.7,1.37 0.22,-0.79 -0.45,-1.19 -1.7,-1.37 z"
     id="path1984"
     style="stroke:none;stroke-width:0.2" /><path
     d="m 1989.2162,7442.083 c -1.93,0.04 -3.53,-1.5 -3.56,-3.44 -0.04,-1.93 1.5,-3.53 3.44,-3.56 0,0 16.84,-2.26 38.5799,-4.2 4.96,-0.44 10.15,-0.79 15.45,-1.07 3.41,-0.18 6.85,-0.36 10.3,-0.38 8.83,-0.04 17.6299,0.32 25.7899,0.71 21.79,1.03 38.7099,2.63 38.7099,2.63 1.94,-0.03 3.54,1.51 3.57,3.44 0.04,1.94 -1.51,3.53 -3.44,3.57 0,0 -16.8499,2.2 -38.5899,4.02 -8.14,0.68 -16.9299,1.35 -25.7499,1.62 -3.45,0.11 -6.9,0.05 -10.31,-0.01 -5.31,-0.09 -10.51,-0.25 -15.48,-0.52 -21.7899,-1.15 -38.7099,-2.81 -38.7099,-2.81 z"
     id="path1986"
     style="stroke:none;stroke-width:0.2" /><path
     d="m 1847.5066,7516.233 c -1.11,0.27 -3.03,0.76 -4.87,1.36 -14.11,4.65 -43.2599,17.93 -72.1698,31.82 -28.74,13.81 -57.1999,28.26 -69.9098,36.23 -1.06,0.67 -2.13,1.4 -2.99,2.01 0.92,2.01 2.44,4.72 3.52,7.38 4.5099,11.07 12.2299,27.86 21.3899,47.1499 10.37,21.83 22.5699,46.83 34.3799,70.27 16.57,32.9 32.2599,62.74 41.0099,76.24 1.94,2.98 4.46,6.08 4.46,6.08 0,0 -0.15,-0.04 -0.19,-0.07 3.31,1.75 8.42,0.72 13.66,-0.84 11.2599,-3.35 22.8999,-10.17 22.8999,-10.17 1.65,-1.02 3.81,-0.52 4.83,1.13 1.02,1.64 0.52,3.8 -1.13,4.82 0,0 -15.36,10.01 -28.5299,13.45 -6.06,1.59 -11.72,1.62 -15.78,-0.3 -1.8,-0.85 -5.81,-5.31 -10.87,-12.89 -14.4199,-21.56 -41.8199,-69.93 -64.8398,-114.16 -17.33,-33.3 -32.1499,-64.2599 -37.9199,-79.3499 -1.89,-4.94 -2.83,-8.56 -2.99,-10.45 -0.18,-2.13 0.22,-3.69 0.65,-4.7 0.36,-0.85 0.95,-1.93 2.01,-3.07 1.27,-1.35 4.02,-3.49 8.16,-5.99 13.1499,-7.91 42.5299,-22.2 72.3798,-35.36 29.9199,-13.2 60.2898,-25.24 74.8698,-29.37 4.65,-1.32 8.02,-1.83 9.71,-1.66 1.76,0.17 2.96,0.79 3.72,1.45 2.16,1.89 6.44,9.27 10.8499,18.61 8.31,17.61 18.19,42.16 18.19,42.16 0.77,1.78 -0.05,3.84 -1.83,4.61 -1.77,0.77 -3.84,-0.05 -4.6,-1.82 0,0 -8.76,-18.89 -17.0799,-35.05 -4.39,-8.54 -8.48,-16.34 -10.99,-19.52 z m -150.3596,70.42 c 0.49,-0.93 1.2,-2.35 0.16,-2.18 -0.71,0.12 -0.64,0.94 -0.16,2.18 z m 149.2696,-71.57 c 0,0 0,-0.01 0,-0.01 z"
     id="path1988"
     style="stroke:none;stroke-width:0.2" /><path
     d="m 1735.8569,7607.053 c -1.74,0.85 -3.84,0.13 -4.69,-1.61 -0.85,-1.74 -0.13,-3.84 1.61,-4.69 0,0 13.1799,-8.6 30.6399,-18.85 3.97,-2.33 8.18,-4.67 12.51,-6.99 2.79,-1.49 5.61,-3 8.4999,-4.36 7.4,-3.48 14.94,-6.59 21.96,-9.43 18.7499,-7.56 33.6299,-12.71 33.6299,-12.71 1.73,-0.85 3.84,-0.13 4.68,1.61 0.85,1.74 0.13,3.84 -1.61,4.69 0,0 -13.21,8.56 -30.7099,18.69 -6.55,3.79 -13.64,7.82 -20.94,11.52 -2.85,1.44 -5.77,2.73 -8.66,4.01 -4.4999,1.99 -8.9299,3.87 -13.2199,5.57 -18.82,7.46 -33.6999,12.55 -33.6999,12.55 z"
     id="path1990"
     style="stroke:none;stroke-width:0.2" /><path
     d="m 1754.0782,7645.602 c -1.7375,0.8557 -3.837,0.1294 -4.6867,-1.6108 -0.8496,-1.7402 -0.1236,-3.8322 1.6092,-4.6904 0,0 3.4938,-3.7858 9.0848,-8.3282 1.2114,-0.9785 2.493,-1.8879 3.8957,-2.7851 0.8825,-0.5637 1.778,-1.1343 2.7498,-1.5531 2.5231,-1.1011 5.1213,-1.7923 7.5887,-2.4149 6.931,-1.7217 12.0786,-2.19 12.0786,-2.19 1.7354,-0.8496 3.837,-0.1294 4.6866,1.6108 0.8497,1.7402 0.1263,3.8409 -1.6138,4.6878 0,0 -3.5371,3.7681 -9.1591,8.1703 -2.0008,1.5743 -4.1468,3.1944 -6.5686,4.5048 -0.9277,0.5017 -1.9292,0.8603 -2.9156,1.206 -1.5706,0.5561 -3.0766,1.0128 -4.5966,1.3607 -7.0165,1.615 -12.153,2.0321 -12.153,2.0321 z"
     id="path1992"
     style="stroke:none;stroke-width:0.114902" /><path
     d="m 1767.9219,7675.8454 c -1.7375,0.8556 -3.837,0.1293 -4.6867,-1.6108 -0.8496,-1.7402 -0.1236,-3.8322 1.6092,-4.6905 0,0 3.4938,-3.7858 9.0848,-8.3281 1.2114,-0.9786 2.493,-1.8879 3.8957,-2.7851 0.8825,-0.5638 1.778,-1.1344 2.7498,-1.5532 2.5231,-1.1011 5.1213,-1.7922 7.5887,-2.4148 6.931,-1.7217 12.0786,-2.1901 12.0786,-2.1901 1.7354,-0.8495 3.837,-0.1293 4.6866,1.6109 0.8497,1.7401 0.1263,3.8409 -1.6138,4.6878 0,0 -3.5371,3.7681 -9.1591,8.1703 -2.0008,1.5742 -4.1468,3.1943 -6.5686,4.5048 -0.9277,0.5017 -1.9292,0.8603 -2.9156,1.206 -1.5706,0.5561 -3.0766,1.0127 -4.5966,1.3606 -7.0165,1.615 -12.153,2.0322 -12.153,2.0322 z"
     id="path1994"
     style="stroke:none;stroke-width:0.114902" /><path
     d="m 1685.457,7760.7629 c -1.91,0.32 -3.72,-0.97 -4.03,-2.88 -0.32,-1.91 0.97,-3.71 2.88,-4.03 0,0 7.39,-3.15 18.0699,-5.73 2.35,-0.57 4.83,-0.99 7.44,-1.34 1.64,-0.22 3.33,-0.42 5.03,-0.43 4.28,-0.03 8.59,0.43 12.74,1.19 7.39,1.37 13.87,3.56 18.8399,6.47 1.81,0.67 2.75,2.68 2.09,4.5 -0.67,1.81 -2.68,2.75 -4.5,2.09 -4.1099,-0.68 -8.8499,-0.18 -14.1599,0.3 -2.38,0.21 -4.74,0.53 -7.21,0.77 -2.42,0.24 -4.83,0.59 -7.25,0.66 -4.11,0.13 -8.1,-0.07 -11.8,-0.25 -10.5299,-0.5 -18.1399,-1.32 -18.1399,-1.32 z"
     id="path1996"
     style="stroke:none;stroke-width:0.2" /><path
     d="m 1809.5067,7894.9728 c -1.94,0.02 -3.52,-1.54 -3.54,-3.47 -0.02,-1.94 1.53,-3.52 3.47,-3.54 0,0 46.2099,-2.43 105.1797,-4.57 13.5,-0.49 27.65,-0.89 42.0799,-1.22 9.28,-0.22 18.67,-0.43 28.0599,-0.48 23.98,-0.12 47.9599,0.15 70.1499,0.46 58.9998,0.82 105.2597,2.26 105.2597,2.26 1.93,-0.02 3.52,1.53 3.54,3.47 0.02,1.93 -1.54,3.52 -3.47,3.54 0,0 -46.2199,2.37 -105.1897,4.39 -22.18,0.76 -46.1499,1.51 -70.1299,1.87 -9.3899,0.14 -18.7799,0.12 -28.0599,0.09 -14.4299,-0.04 -28.5899,-0.15 -42.0999,-0.37 -58.9998,-0.94 -105.2497,-2.43 -105.2497,-2.43 z"
     id="path1998"
     style="stroke:none;stroke-width:0.2" /></g>&#10;</svg>
