<?xml version="1.0" encoding="UTF-8" standalone="no"?>
<svg
   width="3342.877"
   height="2843.6846"
   viewBox="0 0 3342.877 2843.6846"
   version="1.1"
   xml:space="preserve"
   style="clip-rule:evenodd;fill-rule:evenodd;stroke-linejoin:round;stroke-miterlimit:2"
   id="svg5353"
   xmlns="http://www.w3.org/2000/svg"
   xmlns:svg="http://www.w3.org/2000/svg"><defs
   id="defs5353" />&#10;    &#10;<g
   id="vectorly-UNI-castle"
   style="stroke:none;stroke-width:0.2"
   transform="matrix(4.9999999,0,0,4.9999999,-4292.644,-44572.458)"><path
     d="m 862.09942,9483.1213 c -1.934,0.03 -3.534,-1.51 -3.56999,-3.44 -0.036,-1.94 1.50499,-3.54 3.43999,-3.57 0,0 87.23678,-3.59 198.40548,-7.19 25.46,-0.83 52.1699,-1.5799 79.3698,-2.2699 17.5,-0.45 35.2099,-0.9 52.9199,-1.18 45.2399,-0.72 90.4798,-1.05 132.3397,-1.29 111.2197,-0.65 198.5295,-0.37 198.5295,-0.37 1.93,-0.03 3.53,1.51 3.57,3.44 0.03,1.9399 -1.51,3.5399 -3.44,3.5699 0,0 -87.2398,3.53 -198.4095,7.02 -41.8399,1.31 -87.0598,2.66 -132.2897,3.62 -17.71,0.37 -35.4199,0.58 -52.9299,0.79 -27.2099,0.32 -53.9298,0.56 -79.3998,0.68 -111.2257,0.53 -198.53548,0.19 -198.53548,0.19 z"
     id="path2372"
     style="stroke:none;stroke-width:0.2" /><path
     d="m 1153.4583,9473.0422 c 0.67,1.81 -0.26,3.83 -2.07,4.5 -1.81,0.68 -3.83,-0.25 -4.5,-2.07 -6.04,-14.52 -12.3299,-45.15 -14.0099,-72.61 -0.81,-13.24 -0.45,-25.74 1.27,-35.4 1.24,-7.03 3.3999,-12.67 6.0799,-16.53 10.68,-14.9799 27.72,-22.6299 43.7699,-19.3999 13.22,2.67 26.2,12.7099 33.9199,32.8299 4.03,10.88 6.17,27.24 6.84,44.14 1.27,31.47 -1.83,64.65 -1.83,64.65 -0.1,1.94 -1.76,3.42 -3.69,3.32 -1.9299,-0.1 -3.4099,-1.75 -3.3099,-3.68 0,0 0.35,-32.68 -2.98,-63.41 -1.65,-15.25 -4.14,-29.99 -8.38,-39.62 -5.85,-13.73 -14.45,-20.86 -23.63,-22.61 -10.4399,-1.98 -21.2599,3.13 -28.3399,12.75 -2.39,3.15 -3.85,8.4 -4.94,14.82 -1.36,8.01 -1.97,17.64 -2.04,27.79 -0.19,26.4 3.16,56.18 7.84,70.53 z"
     id="path2374"
     style="stroke:none;stroke-width:0.2" /><path
     d="m 1074.4685,9066.9124 c 0.52,-4.42 0.27,-9.35 -0.7,-12.94 -1.7,-6.34 -0.38,-11.93 2.67,-16.5 4.15,-6.22 11.81,-10.43 18.49,-11.46 5.8099,-0.89 12.2799,-1.74 18.3799,1.88 4.83,2.87 9.99,8.79 13.58,21.74 0.61,2.19 0.87,4.61 1.23,6.16 0.39,-0.05 0.86,-0.13 1.21,-0.18 0.12,-0.44 0.26,-1.05 0.31,-1.58 0.29,-2.98 0.04,-7.25 -0.84,-13.41 -1.14,-7.9 1.7,-13.38 6.25,-17.17 5.8399,-4.86 15.2699,-6.52 21.3099,-6.66 6.32,-0.14 11.28,-0.24 15.95,4.3 3.02,2.93 6.1699,8.38 9.0099,19.04 0.87,3.31 2.05,6.41 2.59,7.8 0.64,-0.12 1.49,-0.29 2.16,-0.45 2.64,-0.63 5.25,-4.17 7.27,-8.19 1.93,-3.83 3.21,-8.32 2.62,-12.46 -0.89,-6.46 0.14,-10.53 2.04,-13.18 1.49,-2.06 3.53,-3.54 6.26,-4.4 2.84,-0.9 6.7,-1.12 11.48,-1.06 7.1999,0.1 12.6599,0.74 16.8599,5.09 3.41,3.54 6.26,10.04 7.73,22.62 0.52,4.49 1.06,6.93 2.3,8.15 0.95,0.94 2.15,0.84 3.4,0.83 3.71,-4.36 6.99,-17.35 7.44,-23.93 0.37,-5.47 3.66,-9.15 9.4499,-11.05 6.11,-2 15.58,-1.86 26,-0.59 6.16,0.75 10.1899,2.88 12.8499,5.36 6.2,5.78 5.33,13.65 5.33,13.65 -0.19,1.92 -1.9,3.34 -3.82,3.15 -1.93,-0.18 -3.34,-1.9 -3.16,-3.82 0,0 0.28,-4.39 -3.2799,-7.53 -1.83,-1.61 -4.62,-2.79 -8.75,-3.17 -7.53,-0.71 -14.49,-0.88 -19.7,0.13 -3.47,0.68 -6.17,1.57 -6.28,4.35 -0.3,6.89 -3.27,19.6 -6.8699,26.35 -2.58,4.84 -6.26,6.81 -9,6.57 -3.87,-0.34 -7.36,-0.56 -10.32,-3.33 -2.23,-2.09 -4.37,-5.97 -5.49,-13.83 -1.3,-9.1 -2.76,-14 -5.3,-16.5 -2.33,-2.3 -5.5,-1.67 -9.3899,-1.62 -3.8,0.05 -6.72,-0.13 -8.52,1 -0.24,0.15 -0.13,0.48 -0.18,0.85 -0.14,1.12 0,2.49 0.28,4.19 1.04,6.36 -0.48,13.4 -3.33,19.38 -3.71,7.83 -9.9,13.53 -14.95,14.85 -6.65,1.75 -10.4,1.27 -13.6199,-1.89 -2,-1.95 -4.02,-5.96 -6.33,-13.92 -2.07,-7.14 -3.73,-11.03 -5.8,-12.96 -0.67,-0.62 -1.42,-0.61 -2.19,-0.63 -1.35,-0.03 -2.77,0.11 -4.31,0.17 -3.18,0.14 -7.91,0.73 -11.49,2.78 -1.87,1.08 -3.21,2.82 -2.75,5.62 2.11,12.87 1.3,19.64 -0.23,23.32 -2.64,6.32 -7.2299,7.51 -12.4199,8.31 -5.04,0.76 -8.03,-0.16 -10.55,-2.3 -2.06,-1.75 -4.1,-5.58 -6.62,-14.17 -1.76,-5.99 -3.6,-9.73 -5.8,-11.89 -1.61,-1.58 -3.41,-1.59 -5.08,-1.44 -1.54,0.14 -3.05,0.45 -4.49,0.7 -2.4799,0.41 -5.2799,1.78 -7.1899,3.85 -1.18,1.28 -1.92,2.96 -1.36,4.94 2.12,7.57 2.17,19.16 -0.33,26.88 -2.48,7.67 -7.65,11.87 -13.48,12.09 -6.01,0.2 -10.5,-3.04 -13.31,-8.89 -2.68,-5.59 -3.43,-14.59 -4.18,-20.15 -0.02,-0.13 -0.02,-0.29 -0.03,-0.44 0.26,0.23 0.62,0.4 0.7,0.2 0.18,-0.48 -0.14,-0.64 -0.73,-0.61 -0.02,-0.15 -0.07,-0.23 -0.18,-0.17 -0.07,0.04 -0.09,0.11 -0.07,0.19 -1.2699,0.14 -3.4799,0.89 -5.0999,1.26 -1.11,0.25 -2.13,0.17 -2.75,0.9 -0.61,0.7 -0.77,1.82 -1.02,3.4 -0.74,4.64 -0.68,11.59 -0.01,22.18 l 32.4799,388.5998 c 0.18,1.93 -1.23,3.64 -3.15,3.83 -1.93,0.19 -3.64,-1.22 -3.83,-3.15 0,0 -14.08,-124.41 -25.5899,-232.7199 -8.04,-75.61 -14.73,-143.37 -15.64,-155.5099 -1.15,-16.54 -0.55,-25.67 1.27,-30.95 2.7,-7.85 7.34,-10.46 14.68,-12.14 7.29,-1.68 12.9299,-1.37 16.7599,0.58 4.08,2.07 7.16,5.77 8.05,12.44 0.33,2.53 0.59,5.93 1.12,9.26 z m -16.99,-7.59 c -0.14,-0.13 -0.25,-0.27 -0.28,-0.39 0.09,-0.01 0.17,-0.02 0.25,-0.02 0.02,0.11 0.03,0.25 0.03,0.41 z m 70.7799,-3.01 c 0.25,0.88 0.58,1.32 1.09,1.02 0.61,-0.35 -0.21,-0.74 -1.09,-1.02 z m -52.6999,16.7 c 0.19,0.63 0.44,0.96 0.83,0.64 0.37,-0.3 -0.18,-0.52 -0.83,-0.64 z"
     id="path2376"
     style="stroke:none;stroke-width:0.2" /><path
     d="m 1300.1279,9045.1624 c 0.07,-1.94 1.7,-3.45 3.63,-3.38 1.93,0.07 3.45,1.7 3.38,3.63 0,0 -0.11,56.2899 -1.74,128.3099 -0.38,16.45 -0.9,33.7 -1.55,51.3 -0.41,11.3 -0.85,22.74 -1.46,34.18 -1.56,29.12 -3.62,58.27 -5.7699,85.3699 -4.82,61.02 -10.41,111.58 -14.45,128.04 -0.41,1.89 -2.28,3.09 -4.17,2.68 -1.89,-0.41 -3.09,-2.28 -2.67,-4.17 2.17,-11.52 3.88,-39.6 5.55,-76.16 1.05,-22.95 2.01,-49.2 3.07,-76.7999 0.64,-16.73 1.26,-33.95 2.07,-51.22 0.81,-17.16 1.77,-34.37 2.75,-51.19 1.4,-23.95 2.91,-47.1 4.31,-68.24 3.92,-59.1499 7.0499,-102.3499 7.0499,-102.3499 z"
     id="path2378"
     style="stroke:none;stroke-width:0.2" /><path
     d="m 1366.3778,9125.1323 c 0.11,-0.13 0.51,-0.59 0.73,-0.94 0.9,-1.44 1.51,-3.57 1.88,-6.39 0.32,-2.48 0.38,-5.44 0.14,-8.9 -0.42,-5.91 1.94,-9.53 5.2,-11.8499 3.65,-2.6 9.4499,-3.19 15.4299,-2.32 5.52,0.82 12.16,1.34 17.44,7.9399 3.36,4.21 6.25,11.35 7.17,24.04 0.35,0.12 0.87,0.29 1.24,0.38 0.48,0.11 0.98,0.19 1.48,0.24 0.1,-1.97 0.22,-4.61 0.27,-6.66 0.14,-5.18 0.76,-10.41 2.3299,-13.91 2.32,-5.15 6.28,-7.88 12.14,-7.5 4.57,0.3 8.91,0.09 12.43,0.72 3.13,0.56 5.8,1.72 7.99,3.51 3.44,2.79 6.17,7.47 6.06,16.25 -0.06,3.48 -1.56,23.78 -4.24,53.03 -1.41,15.37 -3.17,33.23 -5.15,52.43 -3.16,30.75 -6.85,64.91 -10.46,97.76 -7.8,71.0699 -15.23,135.9099 -15.78,146.4099 -0.06,1.94 -1.69,3.45 -3.62,3.39 -1.9299,-0.06 -3.4499,-1.68 -3.3899,-3.62 0.17,-11.91 5.8699,-93.72 12.2699,-175.3699 2.92,-37.26 5.93,-74.48 8.63,-104.98 3.36,-37.9 6.2,-65.33 6.31,-69.39 0.04,-1.41 0,-2.57 -0.22,-3.53 -0.08,-0.35 -0.05,-0.65 -0.3,-0.75 -2.53,-0.97 -5.9,-0.75 -9.55,-0.88 -0.35,1.64 -0.88,4.44 -0.99,6.41 -0.28,4.79 -0.36,9.59 -1.05,12.49 -1.2,5 -4.23,7.29 -7.16,7.83 -4.6699,0.86 -12.2799,0.16 -16.8499,-2.8 -3.5,-2.28 -5.71,-5.52 -5.83,-9.71 -0.27,-9.42 -1.54,-14.86 -3.86,-17.97 -2.64,-3.55 -6.45,-3.17 -9.32,-3.7 -2.32,-0.43 -4.62,-0.78 -6.38,-0.17 -0.61,0.21 -0.81,0.8 -0.79,1.71 0.29,9.42 -1.29,15.9 -3.4299,19.93 -2.9,5.46 -6.99,7.41 -10.35,7.35 -3.27,-0.07 -7.29,-1.01 -10.43,-4.36 -2.44,-2.6 -4.59,-6.79 -4.71,-13.8 -0.1,-7.47 -0.86,-11.59 -2.94,-13.68 -1.94,-1.96 -4.75,-1.58 -7.81,-1.43 -2.41,0.12 -3.6099,2.77 -4.8099,5.7 -2.18,5.36 -3.25,12.35 -3.88,17.26 -0.21,1.93 -1.94,3.32 -3.86,3.12 -1.92,-0.21 -3.32,-1.94 -3.12,-3.86 0.55,-6.54 1.78,-16.28 4.92,-22.61 2.33,-4.71 5.83,-7.5999 10.1499,-7.9999 5.76,-0.55 10.79,-0.15 14.62,3.3699 3.22,2.98 5.81,8.69 6.46,19.78 0.17,2.94 0.77,4.99 1.71,6.39 0.89,1.31 2.19,1.6 3.28,1.64 z m 64.3098,-11.02 c 0,0 0,0 -0.01,0 z m -9.84,13.07 z"
     id="path2380"
     style="stroke:none;stroke-width:0.2" /><path
     d="m 1479.9775,9376.9922 c 0.62,-1.84 2.61,-2.82 4.44,-2.2 1.83,0.62 2.82,2.61 2.2,4.44 0,0 -2.11,12.28 -5.73,28.14 -0.82,3.57 -1.77,7.27 -2.82,11.06 -0.67,2.42 -1.35,4.87 -2.19,7.27 -2.12,6.11 -4.6,12.09 -6.96,17.68 -4.99,11.86 -9.6899,21.56 -11.3199,26.04 -0.44,1.88 -2.34,3.04 -4.22,2.6 -1.88,-0.45 -3.04,-2.34 -2.6,-4.22 0.57,-4.85 2.25,-15.75 5.13,-28.58 1.34,-5.96 2.86,-12.28 4.7699,-18.5 0.76,-2.44 1.67,-4.82 2.57,-7.17 1.41,-3.69 2.86,-7.24 4.34,-10.6 6.6,-14.9 12.39,-25.96 12.39,-25.96 z"
     id="path2382"
     style="stroke:none;stroke-width:0.2" /><path
     d="m 1498.5975,9421.2422 c 1.1799,-1.54 3.3799,-1.84 4.9199,-0.67 1.54,1.17 1.83,3.37 0.66,4.91 0,0 -2.69,6.68 -7.1999,15.39 -1,1.92 -2.1,3.84 -3.33,5.81 -0.77,1.24 -1.55,2.5 -2.47,3.67 -2.32,2.96 -4.93,5.67 -7.45,8.24 -4.91,5.02 -9.46,8.84 -12,11.58 -1.01,1.65 -3.17,2.17 -4.82,1.15 -1.65,-1.01 -2.17,-3.17 -1.15,-4.82 1.35,-3.64 3.56,-9.4 6.89,-15.89 1.66,-3.25 3.48,-6.6 5.65,-9.74 0.86,-1.24 1.84,-2.37 2.81,-3.48 1.54,-1.76 3.07,-3.39 4.64,-4.9 7.1,-6.84 12.85,-11.25 12.85,-11.25 z"
     id="path2384"
     style="stroke:none;stroke-width:0.2" /><path
     d="m 1405.4277,9182.6723 c 1.93,0.04 3.47,1.65 3.44,3.58 -0.04,1.93 -1.64,3.47 -3.58,3.43 0,0 -14.07,1.68 -32.2999,2.87 -4.14,0.27 -8.47,0.44 -12.91,0.54 -2.84,0.06 -5.72,0.13 -8.6,0.02 -7.36,-0.26 -14.6799,-0.92 -21.4599,-1.59 -18.16,-1.79 -32.1699,-3.96 -32.1699,-3.96 -1.93,-0.04 -3.47,-1.64 -3.43,-3.57 0.04,-1.93 1.64,-3.47 3.57,-3.44 0,0 14.0799,-1.61 32.2999,-2.68 6.8,-0.4 14.1399,-0.77 21.5099,-0.74 2.88,0.01 5.75,0.18 8.59,0.36 4.43,0.27 8.75,0.61 12.88,1.05 18.1699,1.91 32.1599,4.13 32.1599,4.13 z"
     id="path2386"
     style="stroke:none;stroke-width:0.2" /><path
     d="m 1327.7279,9372.7122 c 1.93,-0.11 3.59,1.37 3.7,3.3 0.1,1.93 -1.38,3.59 -3.31,3.69 -4.95,1.17 -7.96,-0.88 -10.28,-3.64 -2.21,-2.64 -2.84,-7.2 -2.76,-13.61 0.2,-3.99 0.83,-8.03 2.02,-11.58 0.69,-2.06 1.73,-3.89 2.9,-5.49 3.34,-4.5499 8.29,-7.1099 14.96,-6.6999 6.4299,1.02 11.0599,4.0599 13.4999,9.6799 1.37,3.16 2.33,6.94 2.49,11.26 0.18,4.64 -0.22,9.62 -0.65,14.7 0.15,1.93 -1.3,3.62 -3.23,3.76 -1.93,0.15 -3.61,-1.3 -3.76,-3.23 -1.28,-5.48 -2.74,-10.81 -4.5,-15.36 -1.0999,-2.85 -2.1799,-5.21 -4.8899,-5.11 -0.82,-0.06 -1.37,0.31 -1.8,0.85 -0.5,0.62 -1.04,1.24 -1.45,2.01 -1.2,2.24 -2.3,4.74 -3.06,7.33 -0.72,2.17 -1.42,3.89 -1.45,5.43 0,0.46 -0.26,0.85 -0.14,1.2 0.04,0.13 -0.26,0.25 -0.18,0.35 0.43,0.49 0.94,1.04 1.89,1.16 z"
     id="path2388"
     style="stroke:none;stroke-width:0.2" /><path
     d="m 973.70285,9380.1516 c 1.91859,-0.2367 3.67227,1.131 3.90888,3.0496 0.22663,1.9193 -1.14107,3.673 -3.06032,3.8996 -4.86239,1.4928 -8.0006,-0.3549 -10.49698,-2.9565 -2.37872,-2.489 -3.30706,-6.9978 -3.64852,-13.3992 -0.0627,-3.9945 0.30045,-8.0672 1.25455,-11.6877 0.55312,-2.1009 1.47059,-3.9953 2.5329,-5.6688 3.03373,-4.7597 7.80477,-7.6395 14.48728,-7.6687 6.48312,0.5952 11.30289,3.3243 14.10698,8.7718 1.57472,3.0631 2.78107,6.7719 3.22465,11.072 0.48457,4.6182 0.41274,9.6137 0.31754,14.711 0.27652,1.916 -1.05926,3.6976 -2.97589,3.9642 -1.91596,0.2765 -3.68762,-1.06 -3.96414,-2.9759 -1.6374,-5.3841 -3.44454,-10.6066 -5.49977,-15.0311 -1.28493,-2.7716 -2.5177,-5.0555 -5.21527,-4.7776 -0.82216,-0.01 -1.34666,0.3994 -1.74023,0.9665 -0.45817,0.6515 -0.95626,1.3057 -1.31476,2.1009 -1.05018,2.3141 -1.9835,4.881 -2.57163,7.5153 -0.57582,2.2127 -1.16126,3.9749 -1.08998,5.5136 0.0302,0.459 -0.20357,0.8652 -0.0608,1.2066 0.0485,0.1271 -0.24301,0.2665 -0.15661,0.3611 0.46128,0.4607 1.00632,0.9759 1.96215,1.0333 z"
     id="path2390"
     style="stroke:none;stroke-width:0.2" /><path
     d="m 1368.2425,9374.5977 c 1.93,-0.11 3.59,1.37 3.7,3.3 0.1,1.93 -1.38,3.59 -3.31,3.69 -4.95,1.17 -7.96,-0.88 -10.28,-3.64 -2.21,-2.64 -2.84,-7.2 -2.76,-13.61 0.2,-3.99 0.83,-8.03 2.02,-11.58 0.69,-2.06 1.73,-3.89 2.9,-5.49 3.34,-4.5499 8.29,-7.1099 14.96,-6.6999 6.43,1.02 11.0599,4.0599 13.4999,9.6799 1.37,3.16 2.33,6.94 2.49,11.26 0.18,4.64 -0.22,9.62 -0.65,14.7 0.15,1.93 -1.3,3.62 -3.23,3.76 -1.9299,0.15 -3.6099,-1.3 -3.7599,-3.23 -1.28,-5.48 -2.74,-10.81 -4.5,-15.36 -1.1,-2.85 -2.18,-5.21 -4.89,-5.11 -0.82,-0.06 -1.37,0.31 -1.8,0.85 -0.5,0.62 -1.04,1.24 -1.45,2.01 -1.2,2.24 -2.3,4.74 -3.06,7.33 -0.72,2.17 -1.42,3.89 -1.45,5.43 0,0.46 -0.26,0.85 -0.14,1.2 0.04,0.13 -0.26,0.25 -0.18,0.35 0.43,0.49 0.94,1.04 1.89,1.16 z"
     id="path2392"
     style="stroke:none;stroke-width:0.2" /><path
     d="m 1014.2543,9379.3701 c 1.9186,-0.2366 3.6723,1.1311 3.9089,3.0497 0.2266,1.9192 -1.1411,3.6729 -3.0603,3.8995 -4.8624,1.4929 -8.0006,-0.3549 -10.497,-2.9564 -2.3787,-2.4891 -3.307,-6.9978 -3.6485,-13.3993 -0.063,-3.9945 0.3004,-8.0672 1.2545,-11.6877 0.5532,-2.1009 1.4706,-3.9953 2.5329,-5.6687 3.0338,-4.7597 7.8048,-7.6395 14.4873,-7.6688 6.4831,0.5952 11.3029,3.3243 14.107,8.7718 1.5747,3.0632 2.7811,6.7719 3.2247,11.0721 0.4845,4.6181 0.4127,9.6136 0.3175,14.7109 0.2765,1.916 -1.0593,3.6976 -2.9759,3.9642 -1.916,0.2765 -3.6876,-1.0599 -3.9641,-2.9759 -1.6374,-5.384 -3.4446,-10.6066 -5.4998,-15.0311 -1.2849,-2.7715 -2.5177,-5.0554 -5.2153,-4.7775 -0.8221,-0.01 -1.3466,0.3993 -1.7402,0.9664 -0.4582,0.6515 -0.9563,1.3057 -1.3148,2.101 -1.0502,2.314 -1.9835,4.8809 -2.5716,7.5153 -0.5758,2.2126 -1.1613,3.9749 -1.09,5.5135 0.03,0.459 -0.2036,0.8653 -0.061,1.2066 0.048,0.1271 -0.243,0.2666 -0.1566,0.3611 0.4613,0.4607 1.0063,0.976 1.9621,1.0333 z"
     id="path2394"
     style="stroke:none;stroke-width:0.2" /><path
     d="m 946.75382,9179.4823 c -2.40499,-12.9 -1.011,-20.02 2.435,-24.54 3.22799,-4.24 8.60397,-6.77 16.52295,-8.89 3.71099,-0.98 6.62999,-0.61 8.95898,0.51 2.605,1.26 4.69499,3.43 6.05499,6.47 1.75799,3.94 2.31299,9.71 3.01999,14.45 0.107,0.72 0.307,1.64 0.474,2.35 1.80499,-0.04 3.68899,-0.17 4.92899,-0.26 -1.885,-9.7 -1.786,-16.44 -0.29,-20.99 2.28999,-7.01 7.22998,-10.2 14.54998,-10.72 5.33,-0.37 9.07,0.82 11.73,3.06 3.6199,3.05 5.4699,8.31 5.8999,15.4 0.17,2.8 0.77,4.72 2.04,5.78 1.53,1.27 3.66,1.26 5.71,0.73 1.86,-0.52 3.8,0.57 4.32,2.43 0.52,1.87 -0.57,3.8 -2.43,4.32 -4.35,1.34 -8.84,0.94 -12.25,-1.62 -2.63,-1.98 -4.6999,-5.42 -5.3199,-10.97 -0.4,-3.61 -1.01,-6.58 -2.54,-8.54 -1.24,-1.59 -3.28,-1.91 -6.3,-1.54 -3.04,0.36 -5.25001,1.52 -6.07001,4.49 -1.05999,3.81 -0.4,9.46 1.74,17.73 1.30001,5.02 -0.76,8.06 -4.53999,10.06 -2.87999,1.52 -8.06898,1.91 -13.42897,2.03 -3.16999,0.07 -5.64498,-1.48 -7.45898,-4.51 -1.87999,-3.13 -2.52499,-9.7 -3.86899,-15.28 -0.352,-1.46 -0.604,-4.47 -1.46399,-3.7 -0.114,0.1 0.127,0.32 0.34599,0.42 -0.102,0.05 -0.21299,0.11 -0.30199,0.13 -2.358,0.73 -4.41999,1.42 -6.17199,2.22 -1.84099,0.84 -3.19799,1.76 -3.70899,3.59 -0.895,3.21 -0.137,7.77 1.62,14.81 1.68899,6.84 -3.97499,13.79 -12.67697,15.11 -7.97498,1.22 -17.38196,-2.29 -19.98495,-13.47 -0.816,-3.55 -1.362,-6.13 -3.098,-7.25 -0.44599,-0.29 -1.01799,-0.15 -1.68199,-0.08 -1.384,0.15 -2.93799,0.62 -4.72599,1.31 -0.582,0.22 -0.697,0.76 -0.799,1.32 -0.229,1.24 -0.146,2.65 0.005,4.16 0.709,7.12 3.56199,15.79 4.59299,23.27 3.69699,29.44 7.01798,56.81 9.58998,82.12 3.10899,30.58 5.28098,58.1099 6.76598,82.4899 3.09499,50.83 2.92699,88 -0.166,110.76 -0.218,1.93 -1.95499,3.31 -3.87699,3.09 -1.92199,-0.22 -3.30599,-1.95 -3.08799,-3.87 1.64699,-18.21 0.796,-45.56 -2.183,-81.73 -2.60199,-31.59 -7.03198,-69.8199 -12.77096,-114.5099 -3.033,-23.63 -6.27399,-49.07 -10.09498,-76.24 -1.219,-9.52 -5.02499,-20.89 -4.55499,-29.04 0.45,-7.81 3.71099,-13.62 11.23197,-16.31 9.09898,-3.25 15.52397,-2.52 20.15595,0.63 4.13699,2.83 7.41999,8.11 9.18298,16.73 0.392,1.94 2.59899,2.15 3.96999,2.09 z m 0.515,2.58 c 0,0 10e-4,0 10e-4,0 z m 22.25494,-23.91 c 0.162,-0.08 0.303,-0.15 0.297,-0.03 -0.005,0.11 -0.146,0.1 -0.297,0.03 z"
     id="path2396"
     style="stroke:none;stroke-width:0.2" /><path
     d="m 1013.3187,9203.9223 c 1.9,-0.32 3.7099,0.97 4.0299,2.87 0.32,1.91 -0.97,3.72 -2.8799,4.04 0,0 -12.2,4.01 -28.53898,8.12 -3.67799,0.92 -7.54798,1.77 -11.54497,2.56 -2.55099,0.5 -5.13898,1 -7.76098,1.34 -6.64198,0.84 -13.34996,1.27 -19.68695,1.55 -12.96597,0.56 -24.11994,0.19 -30.11592,-0.46 -1.934,0.01 -3.513,-1.55 -3.524,-3.48 -0.01,-1.94 1.552,-3.52 3.486,-3.53 5.77398,-0.68 16.16996,-3.41 28.39493,-6.08 6.12598,-1.34 12.61296,-2.76 19.14695,-3.83 2.58799,-0.42 5.18898,-0.68 7.75398,-0.95 4.02699,-0.41 7.94898,-0.74 11.70997,-0.97 16.73997,-1.01 29.52997,-1.18 29.52997,-1.18 z"
     id="path2398"
     style="stroke:none;stroke-width:0.2" /><path
     d="m 976.43875,9240.6723 c 1.89199,-0.41 3.75599,0.8 4.15899,2.7 0.403,1.89 -0.806,3.75 -2.698,4.15 0,0 -6.70398,3.4 -16.03396,7 -2.07899,0.8 -4.25699,1.53 -6.53898,2.21 -1.452,0.43 -2.92299,0.86 -4.43099,1.14 -3.88199,0.7 -7.77298,1.01 -11.41697,1.24 -9.94198,0.63 -17.45596,0.31 -17.45596,0.31 -1.89199,0.41 -3.75499,-0.8 -4.15799,-2.69 -0.403,-1.9 0.806,-3.76 2.698,-4.16 0,0 6.73398,-3.35 16.06996,-6.83 3.42199,-1.27 7.09898,-2.58 10.93297,-3.51 1.488,-0.37 3.00799,-0.57 4.50999,-0.77 2.36099,-0.31 4.64499,-0.53 6.87098,-0.65 9.98798,-0.51 17.49196,-0.14 17.49196,-0.14 z"
     id="path2400"
     style="stroke:none;stroke-width:0.2" /><path
     d="m 1013.9987,9271.8823 c -1.94,0.05 -3.55,-1.47 -3.61,-3.4 -0.06,-1.94 1.47,-3.55 3.4,-3.61 0,0 5.2999,-2.05 12.8899,-3.88 1.66,-0.4 3.36,-0.71 5.17,-0.95 1.14,-0.15 2.29,-0.3 3.46,-0.29 3.01,0.03 5.94,0.46 8.69,0.91 7.65,1.26 13.0899,2.94 13.0899,2.94 1.93,-0.05 3.55,1.47 3.6,3.4 0.06,1.94 -1.47,3.55 -3.4,3.61 0,0 -5.3299,2 -12.8899,3.7 -2.72,0.62 -5.62,1.22 -8.63,1.42 -1.15,0.08 -2.32,0 -3.46,-0.09 -1.82,-0.14 -3.54,-0.34 -5.22,-0.64 -7.69,-1.39 -13.0899,-3.12 -13.0899,-3.12 z"
     id="path2402"
     style="stroke:none;stroke-width:0.2" /><path
     d="m 965.87977,9333.2123 c -1.91199,0.3 -3.70299,-1.02 -3.99699,-2.93 -0.294,-1.91 1.02,-3.7 2.932,-3.99 0,0 5.79998,-2.83 14.03096,-5.71 1.818,-0.63 3.70899,-1.18 5.70499,-1.68 1.26399,-0.31 2.54599,-0.63 3.85799,-0.78 3.37999,-0.41 6.72998,-0.4 9.87997,-0.35 8.68001,0.15 15.07001,1.05 15.07001,1.05 1.91,-0.29 3.6999,1.02 3.9999,2.93 0.29,1.91 -1.02,3.71 -2.9299,4 0,0 -5.83,2.78 -14.06,5.53 -2.99,0.99 -6.19,2.01 -9.52999,2.64 -1.29999,0.24 -2.61999,0.33 -3.91599,0.41 -2.05299,0.12 -4.02299,0.16 -5.94698,0.1 -8.71498,-0.27 -15.09597,-1.22 -15.09597,-1.22 z"
     id="path2404"
     style="stroke:none;stroke-width:0.2" /><path
     d="m 1082.2085,9210.8723 c -1.93,0.14 -3.61,-1.3 -3.76,-3.23 -0.14,-1.93 1.31,-3.62 3.23,-3.76 0,0 7.48,-2.5 17.6599,-4.85 2.27,-0.52 4.64,-0.96 7.1,-1.33 1.57,-0.24 3.16,-0.48 4.76,-0.56 4.13,-0.19 8.22,0.01 12.03,0.26 10.39,0.67 18.1699,1.96 18.1699,1.96 1.93,-0.14 3.61,1.31 3.76,3.23 0.14,1.93 -1.3,3.62 -3.23,3.76 0,0 -7.4999,2.45 -17.6699,4.67 -3.73,0.82 -7.74,1.64 -11.85,2.07 -1.6,0.16 -3.21,0.17 -4.79,0.17 -2.5,0 -4.9,-0.08 -7.23,-0.26 -10.4099,-0.79 -18.1799,-2.13 -18.1799,-2.13 z"
     id="path2406"
     style="stroke:none;stroke-width:0.2" /><path
     d="m 1199.6182,9210.8823 c -1.94,0 -3.51,-1.57 -3.51,-3.51 0,-1.93 1.57,-3.5 3.51,-3.5 0,0 6.23,-1.91 14.88,-3.5 1.92,-0.36 3.8899,-0.61 5.9599,-0.8 1.31,-0.12 2.64,-0.24 3.97,-0.19 3.43,0.11 6.78,0.63 9.92,1.16 8.63,1.47 14.88,3.33 14.88,3.33 1.94,0 3.51,1.57 3.51,3.5 0,1.94 -1.57,3.51 -3.51,3.51 0,0 -6.25,1.86 -14.88,3.32 -3.14,0.54 -6.49,1.05 -9.92,1.17 -1.33,0.04 -2.66,-0.07 -3.97,-0.19 -2.07,-0.19 -4.0399,-0.45 -5.9599,-0.8 -8.65,-1.59 -14.88,-3.5 -14.88,-3.5 z"
     id="path2408"
     style="stroke:none;stroke-width:0.2" /><path
     d="m 1127.4084,9270.6023 c -1.93,0.13 -3.6,-1.33 -3.73,-3.26 -0.13,-1.93 1.33,-3.6 3.26,-3.73 0,0 8.44,-2.51 19.7799,-4.85 2.55,-0.53 5.2,-0.96 7.95,-1.34 1.76,-0.24 3.54,-0.48 5.33,-0.55 4.61,-0.2 9.17,0.01 13.43,0.25 11.5299,0.67 20.2399,1.96 20.2399,1.96 1.93,-0.13 3.61,1.33 3.74,3.26 0.13,1.94 -1.33,3.61 -3.26,3.74 0,0 -8.46,2.46 -19.7999,4.67 -4.18,0.82 -8.68,1.64 -13.27,2.07 -1.78,0.17 -3.58,0.17 -5.35,0.17 -2.78,0 -5.47,-0.07 -8.06,-0.25 -11.5599,-0.79 -20.2599,-2.14 -20.2599,-2.14 z"
     id="path2410"
     style="stroke:none;stroke-width:0.2" /><path
     d="m 1244.3881,9280.5423 c -1.93,0.23 -3.67,-1.14 -3.91,-3.06 -0.23,-1.92 1.14,-3.67 3.06,-3.9 0,0 5.88,-2.59 14.6699,-5.01 1.89,-0.52 3.87,-0.94 5.98,-1.29 1.31,-0.22 2.66,-0.44 4.03,-0.48 3.42,-0.11 6.86,0.19 10.23,0.64 5.92,0.79 11.08,2.12 15.45,3.47 1.93,0.16 3.37,1.85 3.21,3.78 -0.15,1.93 -1.84,3.37 -3.77,3.21 -4.22,0.59 -8.96,2.07 -14.41,3.19 -3.19,0.65 -6.4,1.34 -9.65,1.66 -1.32,0.14 -2.63,0.11 -3.91,0.09 -2.08,-0.03 -4.04,-0.14 -5.93,-0.31 -8.8899,-0.84 -15.0499,-1.99 -15.0499,-1.99 z"
     id="path2412"
     style="stroke:none;stroke-width:0.2" /><path
     d="m 1278.118,9181.0123 c 0.43,1.89 -0.76,3.77 -2.65,4.19 -1.88,0.43 -3.76,-0.75 -4.19,-2.64 -6.66,-24.6 -29.5299,-40.93 -57.9098,-48.03 -9.96,-2.49 -20.6,-3.82 -31.55,-3.96 -6.9899,-0.09 -14.0799,0.36 -21.2099,1.21 -17.19,2.04 -34.5299,6.91 -50.6299,15.47 -22.2599,11.85 -42.2399,30.23 -55.7298,57.06 -0.8,1.76 -2.88,2.54 -4.64,1.74 -1.76,-0.8 -2.54,-2.88 -1.74,-4.64 12.2299,-30.04 32.0999,-51.8 55.3298,-66.02 17.26,-10.56 36.3799,-16.98 55.4199,-19.48 7.94,-1.04 15.88,-1.29 23.6499,-0.94 12.2,0.55 24.04,2.59 34.94,6.08 31.6399,10.14 55.6898,31.48 60.9098,59.96 z"
     id="path2414"
     style="stroke:none;stroke-width:0.2" /><path
     d="m 1296.288,9220.3223 c -1.93,-0.08 -3.44,-1.71 -3.37,-3.64 0.08,-1.93 1.71,-3.44 3.64,-3.37 0,0 7.5999,-1.63 17.8599,-2.81 2.28,-0.26 4.65,-0.43 7.11,-0.52 1.57,-0.06 3.15,-0.12 4.74,-0.01 4.07,0.28 8.05,0.94 11.76,1.62 10.1199,1.85 17.5899,4.01 17.5899,4.01 1.94,0.08 3.45,1.71 3.37,3.64 -0.07,1.93 -1.7,3.44 -3.64,3.37 0,0 -7.62,1.58 -17.8499,2.63 -3.75,0.39 -7.77,0.75 -11.85,0.71 -1.59,-0.02 -3.16,-0.2 -4.72,-0.38 -2.45,-0.28 -4.8,-0.63 -7.06,-1.07 -10.13,-1.97 -17.5799,-4.18 -17.5799,-4.18 z"
     id="path2416"
     style="stroke:none;stroke-width:0.2" /><path
     d="m 1292.608,9293.6923 c -1.93,-0.11 -3.41,-1.76 -3.3,-3.69 0.1,-1.93 1.75,-3.42 3.68,-3.31 0,0 4.59,-1.62 11.3399,-2.89 1.45,-0.27 2.92,-0.45 4.5,-0.55 0.98,-0.07 1.98,-0.13 2.98,-0.03 2.59,0.26 5.04,0.91 7.36,1.57 6.55,1.86 10.96,3.93 10.96,3.93 1.93,0.1 3.42,1.75 3.31,3.68 -0.1,1.94 -1.76,3.42 -3.69,3.31 0,0 -4.61,1.58 -11.32,2.72 -2.38,0.4 -4.89,0.78 -7.49,0.76 -1,-0.01 -1.99,-0.19 -2.96,-0.36 -1.56,-0.27 -3,-0.61 -4.42,-1.04 -6.5699,-1.99 -10.9499,-4.1 -10.9499,-4.1 z"
     id="path2418"
     style="stroke:none;stroke-width:0.2" /><path
     d="m 1396.8177,9272.3423 c -1.93,-0.06 -3.45,-1.68 -3.39,-3.61 0.06,-1.94 1.68,-3.46 3.61,-3.4 0,0 4.96,-1.72 12.13,-3.12 1.55,-0.31 3.14,-0.51 4.83,-0.65 1.06,-0.09 2.14,-0.17 3.21,-0.09 2.7899,0.2 5.4599,0.8 7.9799,1.41 7.05,1.71 11.92,3.7 11.92,3.7 1.93,0.06 3.45,1.68 3.39,3.61 -0.06,1.94 -1.68,3.46 -3.61,3.4 0,0 -4.99,1.68 -12.13,2.95 -2.55,0.45 -5.25,0.88 -8.0499,0.91 -1.07,0.01 -2.14,-0.14 -3.19,-0.29 -1.68,-0.24 -3.25,-0.55 -4.79,-0.95 -7.07,-1.84 -11.91,-3.87 -11.91,-3.87 z"
     id="path2420"
     style="stroke:none;stroke-width:0.2" /><path
     d="m 867.64702,9395.9522 c -0.652,-1.82 0.299,-3.83 2.11999,-4.48 1.822,-0.65 3.82899,0.3 4.48099,2.12 0,0 5.74099,10.28 12.31697,24.06 1.49,3.12 2.94099,6.41 4.35899,9.82 0.907,2.19 1.824,4.4 2.58599,6.67 1.954,5.81 3.51899,11.71 4.91699,17.21 3.75699,14.78 5.88999,26.36 5.88999,26.36 0.65099,1.82 -0.299,3.83 -2.121,4.48 -1.82199,0.65 -3.82899,-0.3 -4.47999,-2.12 0,0 -5.69298,-10.31 -12.15297,-24.12 -2.40399,-5.14 -4.93598,-10.7 -7.10998,-16.43 -0.849,-2.24 -1.542,-4.53 -2.22499,-6.79 -1.066,-3.54 -2.032,-7.01 -2.858,-10.37 -3.64799,-14.82 -5.72298,-26.41 -5.72298,-26.41 z"
     id="path2422"
     style="stroke:none;stroke-width:0.2" /><path
     d="m 906.34492,9432.2322 c -0.512,-1.87 0.587,-3.8 2.453,-4.31 1.86499,-0.51 3.79599,0.59 4.30698,2.45 0,0 3.463,5.42 7.26099,13.23 0.83799,1.73 1.59999,3.54 2.32199,5.45 0.457,1.22 0.918,2.45 1.221,3.73 0.784,3.3 1.16199,6.62 1.46599,9.74 0.839,8.61 0.677,15.04 0.677,15.04 0.512,1.86 -0.587,3.79 -2.45299,4.3 -1.865,0.52 -3.79499,-0.58 -4.30699,-2.45 0,0 -3.42199,-5.45 -7.09098,-13.27 -1.333,-2.84 -2.702,-5.89 -3.71299,-9.13 -0.391,-1.26 -0.623,-2.55 -0.85,-3.83 -0.358,-2.02 -0.626,-3.96 -0.786,-5.87 -0.723,-8.66 -0.507,-15.08 -0.507,-15.08 z"
     id="path2424"
     style="stroke:none;stroke-width:0.2" /><path
     d="m 1156.0183,8929.6324 c 1.77,11.12 3.22,23.52 4.08,35.6 2.13,30.12 1.61,57.99 1.61,57.99 0.09,1.93 -1.4,3.57 -3.33,3.67 -1.94,0.09 -3.58,-1.41 -3.67,-3.34 0,0 -3.14,-27.33 -7.82,-56.8 -2.01,-12.7 -4.16,-25.78 -6.83,-37.16 -0.77,-3.54 -0.1,-6.36 1.11,-8.61 1.36,-2.53 3.67,-4.53 7.04,-5.65 4.18,-1.38 11.4,-1.12 19.65,1.22 11.2099,3.17 24.8699,9.67 34.3699,16.05 7.43,4.99 12.36,10.3 13.45,14.04 1.8799,6.58 -1.8,13.57 -10.34,18.58 -10.47,6.15 -27.51,10.43 -35.0999,11.97 -1.87,0.49 -3.79,-0.63 -4.27,-2.51 -0.49,-1.87 0.64,-3.78 2.51,-4.27 5.01,-1.6 14.5399,-5.05 22.8799,-9.39 4.45,-2.31 8.49,-4.9 11.12,-7.62 0.95,-0.97 1.89,-1.77 1.49,-2.79 -0.37,-0.96 -1.79,-1.69 -3.34,-2.83 -3.67,-2.72 -9,-5.49 -14.83,-8.13 -6.82,-3.08 -14.3699,-5.78 -20.9799,-7.52 -2.75,-0.73 -6.33,-2.01 -8.8,-2.5 z m -1.49,-0.19 c -0.98,-0.03 -1.53,0.25 -1.35,1.04 0.16,0.69 0.89,-0.37 1.35,-1.04 z m 0.99,-2.85 c 0,-0.04 -0.01,-0.08 -0.02,-0.12 0.01,0.04 0.02,0.08 0.02,0.12 z"
     id="path2426"
     style="stroke:none;stroke-width:0.2" /><path
     d="m 1383.2777,9402.3522 c -1.93,-0.18 -3.35,-1.88 -3.18,-3.81 0.18,-1.92 1.88,-3.35 3.81,-3.17 0,0 4.98,-1.57 12.51,-2.59 2.55,-0.34 5.31,-0.7 8.18,-0.55 2.73,0.15 5.39,0.84 8.05,1.43 4.62,1.02 8.4599,2.44 12.0099,3.09 1.93,-0.16 3.62,1.28 3.77,3.21 0.16,1.93 -1.28,3.62 -3.21,3.77 -3.64,1.3 -7.8199,2.66 -12.8199,3.59 -2.8,0.51 -5.64,0.9 -8.5,0.89 -1.15,-0.01 -2.27,-0.18 -3.36,-0.36 -1.77,-0.28 -3.41,-0.63 -4.99,-1.08 -7.46,-2.14 -12.27,-4.42 -12.27,-4.42 z"
     id="path2428"
     style="stroke:none;stroke-width:0.2" /><path
     style="fill:#000000;stroke:none;stroke-width:0.2;stroke-linecap:round;stroke-linejoin:round"
     d="m 1155.957,8919.8858 58.7574,30.702 c -19.3254,10.289 -22.5108,21.1593 -57.9768,30.867 l -10.8347,-57.7216 z"
     id="path127" /></g></svg>
