<?xml version="1.0" encoding="UTF-8" standalone="no"?>
<svg
   width="3158.9841"
   height="3226.8899"
   viewBox="0 0 3158.9842 3226.8899"
   version="1.1"
   xml:space="preserve"
   style="clip-rule:evenodd;fill-rule:evenodd;stroke-linejoin:round;stroke-miterlimit:2"
   id="svg5353"
   xmlns="http://www.w3.org/2000/svg"
   xmlns:svg="http://www.w3.org/2000/svg"><defs
   id="defs5353" />&#10;    <g
   id="vectorly-UNI-web-browser-page"
   style="stroke:none;stroke-width:0.2"
   transform="matrix(4.9999999,0,0,4.9999999,-4266.4818,-4094.9987)"><path
     d="m 919.24389,874.07072 c 0,0 177.39451,-2.17 306.33421,-2.795 52.5799,-0.255 97.0998,-0.232 118.3197,0.215 8.63,0.183 13.85,0.641 14.91,0.961 1.38,0.421 3.08,1.377 4.37,3.628 0.77,1.337 1.7,4.384 2.3,9.04 1.5,11.61099 2.37,36.45798 2.7,68.06597 1.11,109.07991 -3.69,299.53991 -3.69,299.53991 -0.11,4.32 -3.64,7.76 -7.96,7.77 0,0 -175.6496,0.09 -303.3292,-0.81 -71.38087,-0.51 -127.93673,-1.53 -131.51072,-2.5 -1.33699,-0.36 -3.00999,-1.19 -4.25899,-3.33 -0.75899,-1.3 -1.69799,-4.28 -2.28999,-8.85 -1.502,-11.59 -2.35799,-36.4 -2.69999,-67.99 -1.181,-109.05 3.31499,-299.49588 3.31499,-299.49588 0.031,-1.908 1.58199,-3.441 3.48999,-3.449 z m 8.53298,371.42488 c 9.62397,0.45 40.7929,0.44 82.15183,0.41 69.9198,-0.04 168.4395,-0.61 242.5794,-0.97 45.0299,-0.22 81.0598,-0.35 96.2097,-0.4 0.66,-24.25 2.69,-101.73 4.02,-179.17 1.18,-68.12993 1.85,-136.2289 0.13,-167.82489 -0.26,-4.847 -0.83,-9.74099 -1.21,-12.59099 -13.15,-0.864 -63.8998,-1.346 -126.0997,-1.934 -118.3297,-1.117 -277.47928,-1.814 -302.82122,-1.92 -0.132,17.72599 -0.69,100.68996 -0.3,183.57988 0.322,68.2 1.28,136.34 3.74599,167.9 0.394,5.03 1.14,10.1 1.594,12.92 z"
     id="path152"
     style="stroke:none;stroke-width:0.2" /><path
     d="m 871.48248,1447.6964 c 6.19599,0.2 19.50696,0.22 37.69291,0.38 37.88391,0.33 96.00381,0.51 155.89361,0.87 99.7798,0.61 204.4595,1.56 228.7194,1.78 l 5.09,-148.44 c 0.03,-1.9299 1.63,-3.4799 3.56,-3.4399 1.94,0.03 3.48,1.62 3.45,3.5599 -0.13,33.82 -0.37,66.14 -0.64,92.37 -0.38,36.8 -0.79,61.58 -0.79,61.58 -0.08,2.93 -2.48,5.27 -5.41,5.28 0,0 -68.8298,1.12 -151.6496,1.89 -49.4699,0.45 -103.9197,0.82 -151.66962,0.85 -35.73992,0.02 -67.72484,-0.19 -91.05078,-0.5 -23.82994,-0.31 -39.0289,-0.99 -40.8579,-1.48 -1.59299,-0.43 -3.52799,-1.38 -5.02498,-3.75 -0.813,-1.29 -1.906,-4.25 -2.551,-8.85 -1.44399,-10.3 -2.36799,-32.38 -2.73099,-60.93 -0.984,-77.42 1.61299,-203.0199 3.05299,-267.1679 l 1.021,-40.489 c 0.036,-2.288 1.89699,-4.126 4.18499,-4.135 l 55.72286,0.504 c 1.934,-0.01 3.50999,1.56 3.51599,3.494 0.006,1.935 -1.55999,3.51 -3.49499,3.516 0,0 -51.53587,0.824 -51.53587,0.824 l -0.09,36.403 c -0.079,43.291 0.049,114.591 0.737,180.1309 0.494,47.11 1.27099,91.24 2.73999,119.79 0.603,11.71 1.271,20.68 2.11499,25.96 z"
     id="path154"
     style="stroke:none;stroke-width:0.2" /><path
     d="m 1405.8641,835.90643 c -7.04,-0.307 -20.2499,-0.5 -37.7999,-0.733 -38.2499,-0.507 -96.9497,-0.896 -157.4396,-1.431 -102.4997,-0.906 -210.1075,-2.083 -232.18541,-2.327 l -1.29,46.01298 c -0.023,1.935 -1.612,3.486 -3.54599,3.463 -1.935,-0.023 -3.48599,-1.612 -3.46299,-3.546 l -0.048,-50.27498 c 0.037,-2.305 1.91099,-4.156 4.21499,-4.166 0,0 69.5178,-1.37599 153.1576,-2.44599 49.9699,-0.64 104.9598,-1.204 153.1896,-1.391 43.3899,-0.168 81.2998,-0.015 105.1298,0.367 16.6599,0.267 26.9599,0.958 28.4499,1.423 1.65,0.523 3.94,1.72499 5.44,4.92999 0.8,1.713 1.73,5.568 2.28,11.341 1.49,15.68699 1.84,49.19198 1.54,89.87896 l -0.54,38.89999 c -0.72,38.79002 -1.79,80.62992 -2.95,118.16992 -2.02,65.64 -4.19,118.11 -4.19,118.11 -0.06,2.29 -1.94,4.12 -4.23,4.13 l -53.8199,-0.6 c -1.9399,0 -3.5099,-1.57 -3.5199,-3.5 0,-1.94 1.57,-3.51 3.4999,-3.51 l 49.6299,-0.82 c 0.2,-15.41 0.92,-72.65 1.33,-137.65 0.2,-30.9599 0.37,-63.66994 0.3,-94.44992 l -0.17,-38.78999 c -0.22,-39.98198 -0.97,-72.89297 -2.6,-88.29096 -0.1,-0.923 -0.23,-1.899 -0.37,-2.8 z m 3.29,-0.007 c 0.12,0.044 0.24,0.084 0.36,0.121 0.16,0.047 0.61,0.452 0.66,0.165 0.05,-0.288 -0.39,-0.315 -1.02,-0.286 z"
     id="path156"
     style="stroke:none;stroke-width:0.2" /><path
     d="m 1043.9493,1296.8624 c 7.82,0.48 40.2209,0.28 83.9448,-0.02 59.4898,-0.4 139.6696,-1.39 207.9295,-1.96 60.7498,-0.51 112.0497,-0.73 130.8996,-0.81 0.41,-14.16 1.33,-46.5 2.44,-86.4 1.2,-42.77 2.63,-94.2 3.54,-141.2099 0.76,-39.21 1.24,-75.32401 0.86,-100.763 -0.22,-15.971 -0.73,-27.64199 -1.72,-33.05199 -0.02,-0.107 -0.04,-0.219 -0.07,-0.332 -2.53,-0.217 -7.56,-0.409 -14.6499,-0.671 -10.12,-0.374 -24.16,-0.756 -40.9899,-1.138 -1.93,-0.016 -3.49,-1.599 -3.47,-3.534 0.01,-1.934 1.6,-3.492 3.53,-3.476 20.4399,-0.129 36.7699,-0.138 47.0098,0.015 7.42,0.111 11.92,0.442 12.87,0.723 1.13,0.334 3.46,2.186 4.42,6.701 1.2,5.625 2.14,17.80299 2.85,34.48999 1.32,32.67498 1.83,82.957 1.74,134.8169 -0.05,34.57 -0.33,69.83 -0.75,101.01 -0.77,57.41 -1.89,100.99 -1.89,100.99 -0.11,4.31 -3.63,7.74 -7.94,7.76 0,0 -44.0199,0.19 -103.9997,-0.06 -46.7299,-0.2 -103.1498,-0.7 -155.9896,-1.31 -90.2398,-1.04 -170.0906,-2.68 -174.3406,-3.86 -0.844,-0.23 -1.793,-0.7 -2.591,-1.74 -0.658,-0.86 -1.514,-2.85 -2.038,-6.01 -1.214,-7.33 -1.961,-23.09 -2.314,-44.21 -0.059,-1.93 1.463,-3.55 3.396,-3.61 1.934,-0.06 3.552,1.47 3.611,3.4 0.916,20.54 2.024,35.86 3.404,42.96 0.084,0.44 0.197,0.89 0.308,1.3 z"
     id="path158"
     style="stroke:none;stroke-width:0.2" /><path
     d="m 918.71389,921.5617 c -1.93399,0.008 -3.51199,-1.555 -3.52099,-3.489 -0.009,-1.935 1.555,-3.513 3.48899,-3.521 0,0 58.25086,-2.22799 132.51671,-4.10499 16.9999,-0.43 34.8399,-0.769 53.0098,-1.038 11.69,-0.173 23.52,-0.345 35.3399,-0.353 30.21,-0.021 60.4099,0.355 88.3598,0.763 74.2798,1.083 132.5497,2.722 132.5497,2.722 1.94,-0.009 3.51,1.554 3.52,3.48899 0.01,1.934 -1.55,3.512 -3.49,3.521 0,0 -58.2499,2.169 -132.5197,3.929 -27.9399,0.662 -58.1398,1.312 -88.3398,1.566 -11.8299,0.1 -23.6599,0.035 -35.3499,-0.031 -18.1699,-0.103 -36.0099,-0.28 -53.0198,-0.555 -74.27585,-1.201 -132.54471,-2.898 -132.54471,-2.898 z"
     id="path160"
     style="stroke:none;stroke-width:0.2" /><path
     d="m 861.24451,1125.2625 c -1.934,0.01 -3.51199,-1.555 -3.52099,-3.489 -0.009,-1.935 1.55499,-3.513 3.48899,-3.521 0,0 7.14798,-1.954 16.88796,-3.579 2.16899,-0.362 4.41699,-0.629 6.75798,-0.827 1.489,-0.126 2.99699,-0.252 4.50699,-0.213 3.89299,0.1 7.70998,0.596 11.27497,1.114 9.73298,1.412 16.91896,3.248 16.91896,3.248 1.935,-0.01 3.51199,1.555 3.52099,3.489 0.009,1.935 -1.55499,3.512 -3.48899,3.521 0,0 -7.16898,1.902 -16.88896,3.403 -3.55999,0.549 -7.37298,1.08 -11.26397,1.216 -1.51,0.052 -3.01899,-0.06 -4.50899,-0.172 -2.34199,-0.177 -4.59299,-0.424 -6.76498,-0.766 -9.75498,-1.536 -16.91996,-3.424 -16.91996,-3.424 z"
     id="path162"
     style="stroke:none;stroke-width:0.2" /><path
     d="m 973.7802,871.12341 c -1.934,0.008 -3.51199,-1.55499 -3.52099,-3.48899 -0.009,-1.935 1.55499,-3.513 3.48899,-3.521 0,0 58.2509,-2.228 132.5167,-4.105 16.9999,-0.43 34.8399,-0.769 53.0098,-1.038 11.69,-0.173 23.52,-0.345 35.34,-0.353 30.2099,-0.021 60.4098,0.355 88.3597,0.763 74.2798,1.083 132.5497,2.722 132.5497,2.722 1.94,-0.009 3.51,1.554 3.52,3.489 0.01,1.934 -1.55,3.512 -3.49,3.521 0,0 -58.2499,2.16899 -132.5197,3.92899 -27.9399,0.662 -58.1398,1.312 -88.3398,1.566 -11.8299,0.1 -23.6599,0.035 -35.3499,-0.031 -18.1699,-0.103 -36.0099,-0.28 -53.0198,-0.555 -74.2758,-1.201 -132.5447,-2.898 -132.5447,-2.898 z"
     id="path164"
     style="stroke:none;stroke-width:0.2" /><path
     d="m 1415.9934,969.3515 c -1.93,0.009 -3.51,-1.554 -3.52,-3.489 -0.01,-1.934 1.56,-3.512 3.49,-3.521 0,0 7.9799,-1.965 18.7199,-3.587 2.41,-0.363 4.91,-0.631 7.5,-0.83 1.65,-0.127 3.32,-0.253 4.99,-0.215 4.31,0.098 8.55,0.592 12.5,1.108 10.7399,1.401 18.7599,3.24 18.7599,3.24 1.94,-0.009 3.51,1.554 3.52,3.489 0.01,1.934 -1.55,3.512 -3.49,3.521 0,0 -8,1.91199 -18.7199,3.41099 -3.95,0.551 -8.19,1.084 -12.49,1.221 -1.68,0.053 -3.35,-0.058 -5,-0.169 -2.59,-0.176 -5.09,-0.422 -7.5,-0.763 -10.76,-1.523 -18.7599,-3.41599 -18.7599,-3.41599 z"
     id="path166"
     style="stroke:none;stroke-width:0.2" /><path
     d="m 1146.3183,897.06773 c -1.94,0.003 -3.51,-0.66549 -3.52,-1.492 0,-0.82609 1.56,-1.49926 3.49,-1.50225 0,0 14.49,-0.85514 33.2699,-1.54454 4.27,-0.15676 8.74,-0.27379 13.31,-0.36008 2.93,-0.0551 5.9,-0.1102 8.87,-0.0952 7.61,0.0389 15.18,0.24688 22.1899,0.46473 18.78,0.58304 33.29,1.37154 33.29,1.37154 1.9399,-0.003 3.5099,0.66548 3.5199,1.49158 0.01,0.82651 -1.56,1.49969 -3.4899,1.50267 0,0 -14.5,0.83079 -33.27,1.46937 -7.0099,0.23877 -14.5799,0.469 -22.1799,0.53051 -2.97,0.0239 -5.94,-0.0226 -8.88,-0.0692 -4.57,-0.0726 -9.04,-0.17641 -13.31,-0.32036 -18.7899,-0.6343 -33.2899,-1.44672 -33.2899,-1.44672 z m -130.7396,0.1935 c -1.94,0.003 -3.51,-0.66592 -3.52,-1.49201 -0.01,-0.82652 1.56,-1.49969 3.49,-1.50225 0,0 13.2499,-0.85257 30.4899,-1.54069 3.91,-0.15633 8,-0.27252 12.1999,-0.35837 2.69,-0.0551 5.41,-0.10978 8.13,-0.094 6.97,0.0397 13.9,0.24859 20.34,0.46729 17.2299,0.58603 30.5099,1.37539 30.5099,1.37539 1.93,-0.003 3.51,0.66548 3.51,1.492 0.01,0.82609 -1.55,1.49926 -3.49,1.50225 0,0 -13.26,0.82865 -30.4899,1.46552 -6.42,0.23792 -13.35,0.46729 -20.33,0.52752 -2.72,0.0235 -5.44,-0.0231 -8.13,-0.0701 -4.1899,-0.0735 -8.2899,-0.17769 -12.1999,-0.32207 -17.25,-0.63729 -30.5099,-1.45056 -30.5099,-1.45056 z"
     id="path168"
     style="stroke:none;stroke-width:0.199999" /><path
     d="m 1201.3846,846.79396 c -1.94,0.003 -3.51,-0.73961 -3.52,-1.65818 0,-0.9181 1.56,-1.66626 3.49,-1.66958 0,0 14.49,-0.95038 33.27,-1.71658 4.2699,-0.17422 8.7399,-0.30429 13.3099,-0.40018 2.93,-0.0612 5.9,-0.12248 8.87,-0.10587 7.61,0.0432 15.18,0.27439 22.1899,0.5165 18.78,0.64799 33.29,1.52431 33.29,1.52431 1.94,-0.003 3.5099,0.73961 3.5199,1.65772 0.01,0.91857 -1.5599,1.66672 -3.4899,1.67005 0,0 -14.5,0.92332 -33.27,1.63302 -7.0099,0.26537 -14.5799,0.52124 -22.1799,0.5896 -2.97,0.0266 -5.94,-0.0252 -8.88,-0.0769 -4.57,-0.0807 -9.04,-0.19606 -13.3099,-0.35604 -18.79,-0.70496 -33.29,-1.60787 -33.29,-1.60787 z m -130.7396,0.21505 c -1.94,0.003 -3.51,-0.74008 -3.52,-1.65818 -0.01,-0.91858 1.56,-1.66674 3.49,-1.66958 0,0 13.2499,-0.94754 30.4899,-1.71231 3.91,-0.17374 8,-0.30287 12.2,-0.39829 2.6899,-0.0612 5.4099,-0.122 8.1299,-0.10443 6.97,0.0441 13.9,0.27628 20.34,0.51934 17.2299,0.65131 30.5099,1.52859 30.5099,1.52859 1.93,-0.003 3.51,0.73961 3.51,1.65818 0.01,0.9181 -1.55,1.66626 -3.49,1.66958 0,0 -13.26,0.92095 -30.4899,1.62875 -6.42,0.26442 -13.35,0.51934 -20.33,0.58628 -2.72,0.0261 -5.44,-0.0256 -8.1299,-0.0779 -4.19,-0.0817 -8.29,-0.19749 -12.2,-0.35794 -17.25,-0.70828 -30.5099,-1.61214 -30.5099,-1.61214 z"
     id="path170"
     style="stroke:none;stroke-width:0.199999" /><ellipse
     cx="937.71503"
     cy="895.83441"
     rx="6.3875189"
     ry="6.0662155"
     id="ellipse172"
     style="stroke:none;stroke-width:0.252142" /><ellipse
     cx="880.24603"
     cy="1099.535"
     rx="6.3875189"
     ry="6.0662155"
     id="ellipse174"
     style="stroke:none;stroke-width:0.252142" /><ellipse
     cx="992.78156"
     cy="845.3963"
     rx="6.3875189"
     ry="6.0662155"
     id="ellipse176"
     style="stroke:none;stroke-width:0.252142" /><ellipse
     cx="959.73602"
     cy="895.54437"
     rx="6.3875189"
     ry="6.0662155"
     id="ellipse178"
     style="stroke:none;stroke-width:0.252142" /><ellipse
     cx="902.26703"
     cy="1099.245"
     rx="6.3875189"
     ry="6.0662155"
     id="ellipse180"
     style="stroke:none;stroke-width:0.252142" /><ellipse
     cx="1014.8026"
     cy="845.10626"
     rx="6.3875189"
     ry="6.0662155"
     id="ellipse188"
     style="stroke:none;stroke-width:0.252142" /><ellipse
     cx="984.61835"
     cy="895.16064"
     rx="6.3875189"
     ry="6.0662155"
     id="ellipse190"
     style="stroke:none;stroke-width:0.252142" /><ellipse
     cx="1039.6848"
     cy="844.72253"
     rx="6.3875189"
     ry="6.0662155"
     id="ellipse192"
     style="stroke:none;stroke-width:0.252142" /><ellipse
     cx="1332.5356"
     cy="895.99652"
     rx="6.3875189"
     ry="6.0662155"
     id="ellipse194"
     style="stroke:none;stroke-width:0.252142" /><ellipse
     cx="1387.6019"
     cy="845.55841"
     rx="6.3875189"
     ry="6.0662155"
     id="ellipse196"
     style="stroke:none;stroke-width:0.252142" /><ellipse
     cx="1450.511"
     cy="945.51349"
     rx="6.3875189"
     ry="6.0662155"
     id="ellipse198"
     style="stroke:none;stroke-width:0.252142" /><path
     d="m 1091.3882,983.77602 c 11.1987,-0.63831 21.4822,3.35573 29.2352,10.04893 8.2734,7.11265 13.3343,17.45345 13.9086,29.01605 0.4308,11.9092 -4.3251,22.8335 -12.2037,30.8033 -7.8068,7.8605 -18.8261,12.584 -30.9401,12.7664 -12.0781,-0.2371 -23.0615,-4.9971 -30.8324,-12.8758 -7.8427,-7.9516 -12.5806,-18.8394 -12.132,-30.6939 0.5384,-11.5079 5.5994,-21.8304 13.801,-28.9431 7.753,-6.6932 18.0006,-10.72372 29.1634,-10.12188 z m 0,7.00325 c -8.8657,0.47418 -16.6366,4.44998 -22.218,10.35893 -5.384,5.7084 -8.417,13.4047 -8.0222,21.7028 0.3051,7.9698 4.1278,14.9366 9.6912,19.9702 5.3841,4.8694 12.6166,7.7692 20.549,7.6051 7.9145,0.1277 15.1111,-2.8451 20.4772,-7.7145 5.5096,-5.0154 9.3143,-11.9274 9.6015,-19.8608 0.4127,-8.2616 -2.5844,-15.9397 -7.9145,-21.6116 -5.5635,-5.9272 -13.2985,-9.93948 -22.1642,-10.45013 z"
     id="path200"
     style="stroke:none;stroke-width:0.361832" /><path
     d="m 1186.186,1104.486 c 1.5032,-1.2155 3.7066,-0.9886 4.9349,0.5199 1.2155,1.5032 0.9758,3.7013 -0.5327,4.9297 -10.3482,8.9249 -22.9573,14.8679 -36.4043,17.286 -13.2326,2.3709 -27.2434,1.1813 -40.7248,-3.9037 -20.2714,-7.7453 -35.431,-23.0628 -43.5604,-41.4749 -8.228,-18.6475 -9.0278,-40.4819 -0.9792,-60.9442 8.4681,-20.3506 24.3144,-35.51888 43.2592,-43.18996 18.7999,-7.61035 40.5324,-7.94153 60.6106,0.71524 19.6991,8.66659 34.1825,24.35252 41.405,42.96362 7.0653,18.2615 7.2869,39.1987 -1.2679,58.4782 -0.7316,1.7866 -2.7787,2.6443 -4.5653,1.9127 -1.7866,-0.7315 -2.6442,-2.7787 -1.9127,-4.5652 6.5881,-17.5185 5.4027,-36.0288 -1.7342,-51.8433 -6.9798,-15.4649 -19.8258,-28.2592 -36.9142,-34.76121 -16.7198,-6.48611 -34.4476,-5.41563 -49.7161,1.19437 -15.1055,6.54169 -27.8294,18.66614 -34.4603,35.11644 -6.9786,16.383 -6.5935,34.0253 -0.5001,49.3825 6.1997,15.6108 18.1486,28.9833 34.746,36.2447 11.3849,5.037 23.3984,6.6695 34.9256,5.3112 12.1004,-1.4387 23.6667,-6.0077 33.3909,-13.3721 z"
     id="path202"
     style="stroke:none;stroke-width:0.27778" /><path
     d="m 999.9743,1085.9529 c -1.64926,0.9924 -3.80934,0.4524 -4.80182,-1.1968 -0.99247,-1.6639 -0.45245,-3.824 1.19681,-4.8165 0,0 7.28301,-6.6262 17.44121,-14.5514 2.2915,-1.7806 4.7289,-3.5467 7.2976,-5.2981 1.6347,-1.1238 3.284,-2.2476 5.0208,-3.2401 4.4807,-2.5542 9.1074,-4.7289 13.4276,-6.6992 11.6907,-5.3419 20.9586,-8.6988 20.9586,-8.6988 1.6639,-0.9925 3.8094,-0.4525 4.8165,1.1968 0.9924,1.6639 0.4524,3.8094 -1.2114,4.8164 0,0 -7.3268,6.5971 -17.5289,14.3909 -3.7801,2.8899 -7.8814,5.9549 -12.2307,8.6988 -1.6931,1.0655 -3.4737,1.9995 -5.2251,2.919 -2.7585,1.4304 -5.4586,2.7585 -8.1149,3.9408 -11.7638,5.2251 -21.0463,8.5382 -21.0463,8.5382 z"
     id="path204"
     style="stroke:none;stroke-width:0.291904" /><path
     d="m 1113.7984,1096.8656 c -1.79,-0.39 -3.68,-0.83 -5.62,-1.48 -2.16,-0.73 -4.37,-1.66 -6.52,-2.82 -4.22,-2.27 -8.2499,-5.19 -11.7499,-8.75 -1.03,-1.16 -2.34,-1.98 -4.02,-2.09 -2.55,-0.15 -5.22,-0.02 -7.82,0.68 -1.76,0.82 -3.84,0.06 -4.66,-1.7 -0.82,-1.75 -0.06,-3.84 1.69,-4.65 3.75,-2.61 8.03,-4.28 12.15,-4.92 4.04,-0.63 7.66,0.62 10.9999,2.63 2.47,1.63 5.21,2.67 7.87,3.79 2.14,0.9 4.29,1.62 6.33,2.38 2.34,0.88 4.49,1.83 6.51,2.49 7.21,2.82 10.55,8.79 6.62,16.93 -1,2.08 -2.31,4.36 -4.19,6.53 -3.45,3.98 -7.87,7.84 -12.37,10.42 -1.51,1.22 -3.71,0.99 -4.93,-0.52 -1.22,-1.5 -0.98,-3.71 0.52,-4.93 3.08,-3.34 7.81,-10.05 9.19,-13.99 z m 0.14,-0.46 c 0.49,-1.64 0.29,-2.69 -1.04,-2.61 -1.14,0.06 0.22,2.09 1.04,2.61 z m 0.94,0.69 c 0.01,0.01 0.03,0.01 0.05,0.01 -0.02,0 -0.04,0 -0.05,-0.01 z"
     id="path206"
     style="stroke:none;stroke-width:0.2" /><path
     d="m 1173.5383,985.06568 c 1.22,-1.5 3.43,-1.73 4.9299,-0.51 1.5,1.22 1.73,3.42999 0.51,4.92999 -2.9999,4.48 -5.4399,9.51 -7.3199,14.72003 -1.82,5.05 -2.86,10.24 -2.95,15.23 -0.52,12.5 -4.2,18.93 -8.23,22.54 -3.16,2.83 -6.99,4.07 -11.16,4.5 -3.81,0.4 -8.05,-0.2 -12.29,-0.32 -5.3399,-0.4 -9.2699,0.93 -12.8599,2.3799 -4,1.62 -7.68,3.33 -11.72,4.12 -4.51,0.88 -9.37,1.03 -15.28,-1.22 -4.0199,-1.58 -7.2399,-3.6499 -10.1399,-5.9799 -2.56,-2.06 -4.8,-4.25 -7.5,-5.87 -1.87,-1.12 -3.89,-2.09 -6.5,-2.34 -1.94,-0.01 -3.5,-1.59 -3.48,-3.53 0.01,-1.93 1.59,-3.49 3.53,-3.48 3.92,-0.32 7.17,0.49 10.21,1.68 5.66,2.2 10.1,6.66 17.3099,8.23 3.39,0.77 6.03,0.29 8.43,-0.51 3.16,-1.05 5.87,-2.92 8.97,-4.52 5.33,-2.75 11.37,-4.93 19.6499,-4.9 3.1,0.14 6.2,0.54 9.09,0.58 1.5,0.03 2.97,0.28 4.16,-0.6 2.36,-1.74 3.82,-5.35 4.87,-12.04 1.11,-6.14 3.3,-12.39 6.63,-18.22003 3.09,-5.44 6.89,-10.51 11.14,-14.86999 z m -50.7599,136.85992 c -1.28,1.44 -3.5,1.58 -4.95,0.3 -1.45,-1.28 -1.58,-3.5 -0.3,-4.95 3.4,-4.51 8.27,-8.55 13.53,-11.07 4.12,-1.98 8.5299,-2.73 12.7999,-2.34 2.09,0.19 5.12,-0.26 4.23,-0.98 -0.11,-0.09 -0.48,-0.2 -0.34,-0.23 0.51,-0.07 -0.55,-0.87 -0.94,-1.33 -0.44,-0.5 -1.09,-0.84 -1.77,-1.21 -7.7,-4.3 -9.9699,-13.05 -7.88,-20.65 2,-7.23 8.3,-13.18 17.62,-13.65 4.76,-0.06 6.79,-0.35 7.79,-3.56 1.8,-5.76 2.84,-14.6999 6.41,-28.0999 2.26,-7.93 7.61,-15.89 15.1399,-19.95 6.92,-3.73 15.42,-4.76 24.4,0.65 1.73,0.88 2.41,2.99 1.53,4.71 -0.88,1.72 -2.99,2.41 -4.71,1.53 -6.32,-2.68 -11.74,-1.45 -15.91,1.58 -4.51,3.27 -7.25,8.86 -8.05,14.17 -1.71,10.2 -2.14,17.8199 -2.87,23.4999 -0.72,5.65 -1.9399,9.74 -3.8099,12.75 -3.22,5.21 -8.5,8.29 -19.52,8.65 -1.74,0 -3.02,0.95 -3.48,2.26 -0.49,1.42 -0.7,3.2 0.69,4.14 7.38,5.11 9.78,13.04 7.5,18.71 -2.07,5.13 -7.53,10.13 -17.77,7.75 -3.11,-0.73 -6.4899,-0.23 -9.6999,1.09 -3.58,1.48 -6.98,3.65 -9.64,6.23 z"
     id="path208"
     style="stroke:none;stroke-width:0.2" /><path
     d="m 977.59774,1145.1656 c 0.317,-0.47 1.28,-1.39 3.279,-1.86 1.90699,-0.45 5.95698,-0.91 11.77197,-1.36 20.73999,-1.59 64.87979,-3.23 113.19969,-4.35 45.7399,-1.06 95.1898,-1.72 131.9897,-1.85 23.7599,-0.08 42.2599,0.12 51.1199,0.4 4.6,0.15 7.33,0.6 7.91,0.79 2.5099,0.86 4.7799,2.61 6.4799,5.32 1.63,2.6 2.77,6.41 3.07,10.59 0.36,4.99 -0.45,10.49 -2.22,14.46 -1.51,3.39 -3.74,5.86 -6.2399,7.27 -0.57,0.32 -2.01,0.98 -4.42,1.29 -2.46,0.32 -7.54,0.66 -14.7,0.91 -26.6499,0.93 -83.5398,1.26 -140.4197,0.85 -56.8998,-0.41 -113.7597,-1.64 -140.34961,-3.01 -7.04998,-0.36 -12.02697,-0.76 -14.40896,-1.15 -2.038,-0.34 -3.15899,-1.02 -3.52999,-1.35 -2.75199,-2.51 -4.78599,-7.76 -5.23099,-13.26 -0.433,-5.34 0.527,-10.76 2.69899,-13.69 z m 312.36026,15.57 c -0.31,0.14 -0.84,0.34 -0.6,0.5 0.3,0.2 0.48,-0.05 0.6,-0.5 z m 1.5,-8.83 c 0.09,0.04 0.18,0.08 0.26,0.11 0.19,0.07 1,0.8 1.07,0.27 0.04,-0.37 -0.5,-0.42 -1.33,-0.38 z m -308.63127,-1.78 c -0.85,2.02 -0.863,5.06 -0.513,7.99 0.348,2.92 1.096,5.83 2.448,7.48 1.83699,0.24 5.44698,0.38 10.50697,0.49 20.5799,0.47 64.2098,-0.05 111.9397,-0.91 27.88,-0.49 57.1499,-1.13 84.0298,-1.75 34.6399,-0.79 65.2999,-1.62 83.8698,-2.41 6.83,-0.29 11.96,-0.55 14.95,-0.83 0.1,-0.63 0.14,-1.39 0.23,-1.91 0.31,-1.88 0.34,-3.93 0.05,-5.72 -0.03,-0.17 -0.08,-0.37 -0.13,-0.58 -0.58,0.04 -1.22,0.07 -1.84,0.04 -8.78,-0.37 -27.1,-0.68 -50.6299,-1.07 -36.7399,-0.61 -86.1198,-1.28 -131.8097,-1.68 -48.1399,-0.42 -92.1497,-0.63 -112.84969,0.17 -4.84999,0.19 -8.35698,0.4 -10.25198,0.69 z"
     id="path210"
     style="stroke:none;stroke-width:0.2" /><path
     d="m 920.12836,1348.8664 c 0.317,-0.47 1.28,-1.39 3.279,-1.86 1.90699,-0.45 5.95698,-0.91 11.77197,-1.36 20.73994,-1.59 64.87987,-3.23 113.19967,-4.35 45.7399,-1.06 95.1898,-1.72 131.9897,-1.85 23.76,-0.08 42.2599,0.12 51.1199,0.4 4.6,0.15 7.33,0.6 7.91,0.79 2.51,0.86 4.78,2.61 6.48,5.32 1.63,2.6 2.7699,6.41 3.0699,10.59 0.36,4.99 -0.45,10.49 -2.2199,14.46 -1.51,3.39 -3.74,5.86 -6.24,7.27 -0.57,0.32 -2.01,0.98 -4.42,1.29 -2.46,0.32 -7.54,0.66 -14.7,0.91 -26.6499,0.93 -83.5398,1.26 -140.4196,0.85 -56.8999,-0.41 -113.75975,-1.64 -140.34969,-3.01 -7.04998,-0.36 -12.02697,-0.76 -14.40896,-1.15 -2.038,-0.34 -3.15899,-1.02 -3.52999,-1.35 -2.752,-2.51 -4.78599,-7.76 -5.23099,-13.26 -0.433,-5.34 0.527,-10.76 2.69899,-13.69 z m 312.36024,15.57 c -0.31,0.14 -0.84,0.34 -0.6,0.5 0.3,0.2 0.48,-0.05 0.6,-0.5 z m -307.13125,-10.61 c -0.85,2.02 -0.863,5.06 -0.513,7.99 0.348,2.92 1.096,5.83 2.448,7.48 1.83699,0.24 5.44698,0.38 10.50697,0.49 20.57995,0.47 64.20988,-0.05 111.93968,-0.91 27.88,-0.49 57.1499,-1.13 84.0298,-1.75 34.6399,-0.79 65.2999,-1.62 83.8698,-2.41 6.83,-0.29 11.96,-0.55 14.95,-0.83 0.1,-0.63 0.14,-1.39 0.23,-1.91 0.31,-1.88 0.34,-3.93 0.05,-5.72 -0.03,-0.17 -0.08,-0.37 -0.13,-0.58 -0.58,0.04 -1.22,0.07 -1.84,0.04 -8.78,-0.37 -27.0999,-0.68 -50.6299,-1.07 -36.7399,-0.61 -86.1198,-1.28 -131.8097,-1.68 -48.1398,-0.42 -92.14973,-0.63 -112.84967,0.17 -4.84999,0.19 -8.35698,0.4 -10.25198,0.69 z m 308.63125,1.78 c 0.09,0.04 0.18,0.08 0.26,0.11 0.19,0.07 1,0.8 1.07,0.27 0.04,-0.37 -0.5,-0.42 -1.33,-0.38 z"
     id="path212"
     style="stroke:none;stroke-width:0.2" /><path
     d="m 1108.0784,1145.8656 c -1.36,-1.37 -1.35,-3.6 0.02,-4.96 1.37,-1.36 3.6,-1.35 4.96,0.03 0,0 2.3,1.22 5.7,4.25 1.15,1.03 1.92,2.27 2.95,3.8 0.89,1.33 1.38,2.87 1.9,4.59 0.32,1.04 0.5,2.16 0.48,3.32 -0.03,1.98 -0.34,4.05 -1.25,6.1 -0.57,1.28 -1.03,2.51 -1.98,3.73 -1.79,2.31 -3.44,4.38 -6.42,6.47 -1.09,1.6 -3.27,2.02 -4.87,0.93 -1.6,-1.09 -2.02,-3.27 -0.93,-4.87 0.48,-2.12 0.25,-3.72 0.34,-5.54 0.08,-1.4 -0.38,-2.5 -0.43,-3.71 -0.04,-1.11 -0.42,-2.08 -0.45,-3.06 -0.04,-1.43 0.39,-2.64 0.33,-3.84 -0.26,-4.45 -0.35,-7.24 -0.35,-7.24 z"
     id="path214"
     style="stroke:none;stroke-width:0.2" /><path
     d="m 1050.609,1349.5664 c -1.36,-1.37 -1.35,-3.6 0.02,-4.96 1.37,-1.36 3.6,-1.35 4.96,0.03 0,0 2.3,1.22 5.7,4.25 1.15,1.03 1.92,2.27 2.95,3.8 0.89,1.33 1.38,2.87 1.9,4.59 0.32,1.04 0.5,2.16 0.48,3.32 -0.03,1.98 -0.34,4.05 -1.25,6.1 -0.57,1.28 -1.03,2.51 -1.98,3.73 -1.79,2.31 -3.44,4.38 -6.42,6.47 -1.09,1.6 -3.27,2.02 -4.87,0.93 -1.6,-1.09 -2.02,-3.27 -0.93,-4.87 0.48,-2.12 0.25,-3.72 0.34,-5.54 0.08,-1.4 -0.38,-2.5 -0.43,-3.71 -0.04,-1.11 -0.42,-2.08 -0.45,-3.06 -0.04,-1.43 0.39,-2.64 0.33,-3.84 -0.26,-4.45 -0.35,-7.24 -0.35,-7.24 z"
     id="path216"
     style="stroke:none;stroke-width:0.2" /><path
     d="m 1111.5384,1171.2256 c -66.8198,0.21 -126.82667,-0.34 -128.80567,-2.08 -4.47399,-3.93 -5.75898,-17.06 -2.27799,-21.95 1.54499,-2.18 62.39386,-3.34 130.11366,-3.8 0,0 11.78,11.9 0.97,27.83 z"
     id="path218"
     style="stroke:none;stroke-width:0.2" /><path
     d="m 1111.5384,1173.4156 c -26.1399,0.73 -51.2199,1.38 -72.2198,1.65 -11.81,0.15 -22.32,0.18 -30.9999,0.12 -11.38,-0.08 -19.64998,-0.35 -23.59897,-0.73 -3.075,-0.3 -4.73899,-1.28 -5.18799,-1.66 -2.96699,-2.57 -5.23799,-8.04 -5.85099,-13.81 -0.60499,-5.7 0.454,-11.5 2.705,-14.69 0.382,-0.54 1.003,-1.21 2.07299,-1.74 0.604,-0.3 1.861,-0.71 3.77799,-0.98 3.97099,-0.56 12.36197,-1.06 23.93197,-1.35 13.6099,-0.34 31.6999,-0.45 52.2198,-0.36 16.22,0.07 33.93,0.33 52.1599,0.61 0.79,-0.01 1.54,0.3 2.1,0.86 0,0 6.01,6.2 6.02,15.7 0.01,4.49 -1.27,9.76 -5.32,15.42 -0.41,0.6 -1.08,0.96 -1.81,0.96 z m -125.60668,-7.92 c 0,0 10e-4,0 10e-4,0 z m -2.06299,-14.06 c -0.571,1.76 -0.559,4.2 -0.338,6.56 0.244,2.6 0.705,5.24 1.796,6.81 1.97899,0.27 5.53198,0.51 10.39197,0.77 10.45,0.55 26.6599,1.07 46.2399,1.63 20.1099,0.58 43.7399,1.27 68.3698,1.8 2.6,-4.41 3.37,-8.41 3.19,-11.83 -0.26,-5.31 -2.87,-9.16 -4.23,-10.81 -20.2099,0.57 -39.7599,1.26 -57.2898,1.84 -25.01,0.83 -45.8399,1.62 -58.3899,2.42 -4.38998,0.28 -7.70298,0.53 -9.73997,0.81 z"
     id="path219"
     style="stroke:none;stroke-width:0.2" /><path
     d="m 1054.069,1374.9264 c -66.8198,0.21 -126.82665,-0.34 -128.80565,-2.08 -4.47399,-3.93 -5.75898,-17.06 -2.27799,-21.95 1.54499,-2.18 62.39384,-3.34 130.11364,-3.8 0,0 11.78,11.9 0.97,27.83 z"
     id="path220"
     style="stroke:none;stroke-width:0.2" /><path
     d="m 1054.069,1377.1164 c -26.1399,0.73 -51.2198,1.38 -72.21979,1.65 -11.80997,0.15 -22.31994,0.18 -30.99992,0.12 -11.37997,-0.08 -19.64995,-0.35 -23.59894,-0.73 -3.075,-0.3 -4.73899,-1.28 -5.18799,-1.66 -2.96699,-2.57 -5.23799,-8.04 -5.85099,-13.81 -0.605,-5.7 0.454,-11.5 2.705,-14.69 0.382,-0.54 1.00299,-1.21 2.07299,-1.74 0.604,-0.3 1.861,-0.71 3.77799,-0.98 3.97099,-0.56 12.36197,-1.06 23.93194,-1.35 13.60997,-0.34 31.69992,-0.45 52.21991,-0.36 16.2199,0.07 33.9299,0.33 52.1598,0.61 0.79,-0.01 1.54,0.3 2.1,0.86 0,0 6.01,6.2 6.02,15.7 0.01,4.49 -1.27,9.76 -5.32,15.42 -0.41,0.6 -1.08,0.96 -1.81,0.96 z m -125.60666,-7.92 c 0,0 10e-4,0 10e-4,0 z m -2.06299,-14.06 c -0.571,1.76 -0.559,4.2 -0.338,6.56 0.244,2.6 0.705,5.24 1.79599,6.81 1.979,0.27 5.53199,0.51 10.39198,0.77 10.44997,0.55 26.65993,1.07 46.23988,1.63 20.11,0.58 43.7399,1.27 68.3698,1.8 2.6,-4.41 3.37,-8.41 3.19,-11.83 -0.26,-5.31 -2.87,-9.16 -4.23,-10.81 -20.2099,0.57 -39.7599,1.26 -57.28982,1.84 -25.00994,0.83 -45.83989,1.62 -58.38986,2.42 -4.38999,0.28 -7.70298,0.53 -9.73997,0.81 z"
     id="path221"
     style="stroke:none;stroke-width:0.2" /></g>&#10;</svg>
