<?xml version="1.0" encoding="UTF-8" standalone="no"?>
<svg
   width="3330.5193"
   height="2662.603"
   viewBox="0 0 3330.5193 2662.603"
   version="1.1"
   xml:space="preserve"
   style="clip-rule:evenodd;fill-rule:evenodd;stroke-linejoin:round;stroke-miterlimit:2"
   id="svg5353"
   xmlns="http://www.w3.org/2000/svg"
   xmlns:svg="http://www.w3.org/2000/svg"><defs
   id="defs5353" />&#10;    <g
   id="vectorly-UNI-scissors"
   transform="matrix(4.9999999,0,0,4.9999999,-237.83962,-80768.793)"
   style="stroke-width:0.2"><path
     d="m 509.00791,16360.909 c -1.756,-0.8 -2.524,-2.9 -1.713,-4.7 0.81,-1.7 2.89399,-2.5 4.65099,-1.7 15.54196,5.8 28.82693,13.4 39.8659,22.7 4.90299,4.2 9.25698,8.7 13.17897,13.4 2.72699,3.2 5.24098,6.6 7.41898,10.1 5.73799,9.3 9.77598,19 12.32397,28.8 4.23899,16.2 4.36799,32.2 1.27,46.2 -0.274,1.9 -2.051,3.3 -3.96599,3 -1.915,-0.3 -3.248,-2.1 -2.974,-4 0.866,-12.9 -1.86199,-26.9 -7.32598,-41 -3.20899,-8.3 -7.64498,-16.3 -12.81297,-24.4 -4.80199,-7.5 -10.22897,-14.9 -16.79196,-21.9 -9.11697,-9.8 -19.77095,-19 -33.12491,-26.5 z"
     id="path4532"
     style="stroke:none;stroke-width:0.2" /><path
     d="m 636.95459,16410.909 c -0.222,-2 1.158,-3.7 3.07999,-3.9 1.922,-0.2 3.66199,1.1 3.88299,3.1 0,0 2.748,7.8 3.23499,20.1 0.103,2.5 -0.036,5.2 -0.33099,8.1 -0.182,1.8 -0.424,3.6 -0.887,5.4 -1.082,4.2 -2.754,8.5 -5.01199,12.8 -3.12299,5.8 -7.11598,11.2 -12.17397,16.4 -1.091,1.6 -3.27399,2 -4.87099,0.9 -1.59799,-1.1 -2.00999,-3.2 -0.919,-4.8 1.706,-3.9 2.741,-7.7 3.80599,-11.5 0.873,-3.2 1.394,-6.3 2.047,-9.3 0.682,-3.2 1.131,-6.2 1.793,-9.2 0.90699,-4 1.98699,-7.6 2.78699,-11 2.43499,-10.3 3.56299,-17.1 3.56299,-17.1 z"
     id="path4534"
     style="stroke:none;stroke-width:0.2" /><path
     d="m 176.98173,16213.209 c -1.498,-1.2 -1.722,-3.4 -0.498,-4.9 1.223,-1.5 3.43299,-1.7 4.93099,-0.5 0,0 58.44585,45.8 127.65368,100.7 27.56093,21.8 56.82286,45.1 84.75879,67.5 25.21094,20.2 49.37488,39.7 70.24683,56.8 33.72191,27.5 58.97685,48.6 66.96483,55.2 8.88098,-1.6 32.29392,-5.1 57.27286,-2.7 13.62297,1.2 27.69293,4.3 40.1949,10.2 22.11595,10.5 34.20792,25.8 39.1379,42.7 5.36299,18.4 2.223,38.7 -6.06498,56.9 -0.848,1.8 -1.358,3.6 -0.209,5.9 0.977,1.9 2.74799,4.1 5.54899,6.7 5.90798,5.6 15.75996,12.7 25.30793,18.2 6.89799,4 13.58997,7.1 18.45296,7.9 1.91299,0.3 3.23699,2.1 2.95299,4 -0.283,1.9 -2.067,3.3 -3.98099,3 -5.51499,-0.7 -13.24397,-3.9 -21.17595,-8.1 -10.33097,-5.5 -21.01995,-12.8 -27.48593,-18.4 -5.21399,-4.6 -7.74598,-8.4 -8.86698,-11.6 -1.43099,-4.2 -0.776,-7.7 0.772,-11.4 6.73498,-16.1 9.20398,-33.9 4.04499,-49.8 -4.51999,-13.9 -15.10196,-26.2 -33.74092,-34.4 -14.21396,-6.3 -30.56392,-8.3 -45.47188,-8.6 -25.59194,-0.3 -47.05989,4.9 -47.05989,4.9 -2.25999,0.5 -4.63599,-0.1 -6.43298,-1.5 0,0 -29.14793,-23.2 -70.27183,-56.7 -20.88094,-17.1 -44.79889,-36.9 -69.66282,-57.5 -27.55094,-22.9 -56.21086,-46.9 -83.1338,-69.5 -67.60283,-56.9 -124.18469,-105 -124.18469,-105 z"
     id="path4536"
     style="stroke:none;stroke-width:0.2" /><path
     d="m 102.54791,16159.809 c -1.37999,-1.4 -1.39999,-3.6 -0.044,-5 1.356,-1.4 3.577,-1.4 4.95699,0 0,0 47.66188,44.6 103.92874,98.2 22.40095,21.3 46.15889,44 68.78883,66 20.41395,19.7 39.94091,38.8 56.76886,55.5 31.66792,31.5 53.97787,54.5 56.14086,57.1 0.508,0.6 1.504,0.9 2.748,1.5 2.23999,1 5.07498,2.1 8.45598,3.4 12.76996,4.9 32.78592,12.7 57.63785,30.8 17.37496,12.7 37.13291,30.5 58.46586,56.1 2.46099,2.9 3.50299,6.9 4.00699,12.5 0.517,5.8 0.741,13.5 3.62899,23.7 1.725,6.1 4.37399,13.1 8.59898,21.1 0.94,1.7 0.33,3.8 -1.361,4.8 -1.69099,0.9 -3.82599,0.3 -4.76599,-1.4 -4.86998,-8.4 -8.00598,-15.7 -10.11297,-22.2 -3.50999,-10.7 -4.10699,-18.9 -4.88999,-25 -0.42,-3.3 -0.665,-5.7 -2.16999,-7.4 -21.51795,-23.9 -41.2499,-40.4 -58.45686,-52.1 -29.84192,-20.4 -52.15287,-26.1 -63.23384,-30.4 -4.71799,-1.9 -7.84598,-3.9 -9.62798,-5.9 -2.17299,-2.5 -24.95094,-24.4 -56.27586,-55.2 -16.89096,-16.7 -36.21191,-35.9 -56.26786,-56.1 -22.23694,-22.3 -45.32689,-45.7 -67.00283,-67.8 -54.45187,-55.4 -99.91776,-102.2 -99.91776,-102.2 z"
     id="path4538"
     style="stroke:none;stroke-width:0.2" /><path
     d="m 552.1458,16622.509 c 0.13,0.1 -0.314,0.4 -0.425,0.5 0.139,-0.2 0.281,-0.3 0.425,-0.5 z m -86.44679,-86.7 c -0.031,0 -0.061,0 -0.089,0 -0.78899,1.3 3.84499,1.7 7.31099,2.9 9.16797,3.3 23.65594,8.3 37.2749,16.2 9.86498,5.8 19.22196,13.1 26.02394,22.4 1.348,0.3 10.14597,2.5 14.62796,4.6 4.23399,1.9 7.21299,4.9 8.32798,8.7 2.098,7.1 1.988,12.8 0.947,17.4 -1.505,6.6 -5.14199,11.1 -7.97698,14.5 -0.01,0 -0.022,0 -0.037,0 -1.218,-0.6 -0.99,3.5 -1.656,6.4 -2.12299,9.3 -5.60998,23.7 -14.44596,35.5 -6.25998,8.3 -15.13196,15.4 -27.89593,18.9 -22.33295,6.1 -44.44589,2.5 -62.32385,-8 -18.24695,-10.8 -32.04992,-28.8 -37.2949,-51 -4.05199,-17.4 -1.902,-32.7 2.63699,-45.4 5.77299,-16.1 15.46296,-27.8 21.01095,-33.5 -2.879,-6.3 -10.36298,-20.5 -28.74693,-46.5 -17.98396,-25.5 -46.08689,-61.8 -89.78878,-112.5 -48.60388,-56.3 -116.29471,-130.4 -211.07048,-226.7 -1.37199,-1.3 -1.37999,-3.5 -0.016,-4.9 1.363,-1.4 3.584,-1.4 4.95599,0 97.06876,94.3 166.72859,166.9 216.43947,222.5 45.05888,50.5 73.85881,86.9 92.26777,112.5 29.65892,41.2 33.08691,55.6 33.08691,55.6 0.788,3 -0.21699,6.2 -2.58099,8.1 0,0 -13.62996,11.6 -20.63995,30.8 -3.70899,10.2 -5.56698,22.5 -2.41699,36.5 4.05199,18.1 15.10296,32.8 29.78792,41.7 14.57197,8.8 32.68492,12 51.10588,7.3 9.45397,-2.4 16.08496,-7.5 20.81295,-13.6 7.76098,-10 10.73797,-22.3 12.71096,-30.2 1.407,-5.7 2.844,-9.7 4.08399,-11.1 1.977,-2.3 4.92199,-5.1 6.08299,-9.8 0.743,-2.9 0.753,-6.6 -0.503,-11.3 -0.163,-0.6 -0.861,-0.8 -1.495,-1.1 -0.96599,-0.5 -2.06099,-1 -3.19699,-1.4 -4.03199,-1.4 -8.44498,-2.3 -11.08097,-3.4 -2.19699,-0.9 -3.68499,-2.2 -4.49999,-3.4 -5.74998,-8.5 -14.01296,-15.1 -22.68894,-20.5 -15.44196,-9.5 -32.21492,-14.8 -39.9579,-18.1 -3.50099,-1.5 -5.61199,-3 -6.32299,-4 -1.38799,-1.9 -8.12298,-17.4 -15.35596,-35.2 -8.75498,-21.4 -18.41495,-46 -20.39995,-52.4 -0.596,-1.8 0.413,-3.8 2.254,-4.4 1.83999,-0.6 3.81799,0.4 4.41398,2.2 1.842,5.5 9.74098,24.3 17.79696,42.8 8.07798,18.6 16.24696,37 18.52095,40.9 z m 0,0 c 0.133,0 0.277,0.4 0.362,0.5 -0.096,-0.1 -0.217,-0.3 -0.362,-0.5 z"
     id="path4540"
     style="stroke:none;stroke-width:0.2" /><path
     d="m 632.8366,16618.109 c 1.285,-4.1 3.24099,-7.5 5.79699,-10.3 5.66598,-6.2 13.04796,-9.2 15.78596,-10.5 1.65299,-1 3.81099,-0.5 4.81598,1.2 1.004,1.6 0.477,3.8 -1.17599,4.8 -1.726,1.3 -6.08699,4.3 -9.57398,8.9 -1.99699,2.7 -3.38299,6 -3.54299,10.1 -0.081,1.5 -1.639,4.8 -6.31698,7.4 -3.883,2.2 -11.35298,4.8 -21.56395,5.5 -4.26699,0.3 -9.04698,0.2 -14.17697,-0.6 -6.86298,-1 -14.37996,-3.1 -22.27194,-6.5 -9.16598,-4.1 -18.70395,-10 -28.53993,-18.2 -1.593,-1.1 -1.996,-3.3 -0.899,-4.9 1.098,-1.6 3.28199,-2 4.87499,-0.9 11.60597,6.5 22.44794,10 32.23292,12.3 7.24798,1.7 13.84697,2.5 19.74195,2.8 3.52999,0.2 6.78398,0.3 9.75298,0.3 3.65599,-0.1 6.85098,-0.3 9.51697,-0.7 1.892,-0.4 4.28899,-0.4 5.54299,-0.7 z m 0.305,-0.1 c 0.456,-0.2 0.664,-0.4 0.485,-0.8 -0.178,-0.3 -0.347,0.6 -0.485,0.8 z m -0.533,0.9 c -0.264,0.6 -0.337,1.2 -0.449,1.7 0.137,-0.6 0.287,-1.2 0.449,-1.7 z"
     id="path4542"
     style="stroke:none;stroke-width:0.2" /><path
     d="m 636.48959,16624.909 c -1.657,-1 -2.18999,-3.1 -1.191,-4.8 0.999,-1.6 3.155,-2.2 4.81099,-1.2 3.44299,1.5 11.52397,3.7 20.99795,7.9 4.46699,2 9.14198,4.4 13.70497,7.4 3.65599,2.3 7.21898,5.1 10.41097,8.2 3.26699,3.2 6.06898,6.8 8.56998,10.5 0.8,1.4 1.96299,3.9 4.33699,2.6 2.56199,-1.4 5.54898,-4 8.89198,-9 0.85599,-1.8 2.95899,-2.5 4.69398,-1.6 1.735,0.8 2.449,2.9 1.594,4.7 -3.72299,10.8 -8.73998,15.3 -12.80097,17.3 -7.38498,3.5 -13.99496,-1.2 -17.93995,-5.4 -3.023,-3.4 -6.71199,-6.3 -10.24798,-9.3 -3.72899,-3.2 -7.40798,-6.4 -11.10097,-9.2 -3.34499,-2.5 -6.48298,-5 -9.49298,-7.2 -7.01098,-5 -12.66997,-8.8 -15.23796,-10.9 z"
     id="path4544"
     style="stroke:none;stroke-width:0.2" /><path
     d="m 443.70807,16591.609 c -0.126,1.9 -1.795,3.4 -3.72599,3.2 -1.93,-0.1 -3.39499,-1.8 -3.26899,-3.7 0.114,-8.5 12.18097,-20.8 28.83492,-25.6 11.88198,-3.3 25.80594,-2.6 38.86391,5.3 14.21996,8.9 21.83394,22.6 24.22394,36.6 1.29699,7.6 0.987,15.4 -0.609,22.4 -1.839,8.1 -5.41399,15.3 -10.05198,20.7 -4.12299,4.7 -9.48997,8.2 -15.73896,10.1 -11.48397,3.4 -25.86793,1.7 -38.3899,-6 -13.04597,-8.1 -24.29694,-22.5 -27.35293,-43.9 -0.364,-1.9 0.88299,-3.8 2.78299,-4.1 1.9,-0.4 3.73799,0.8 4.10199,2.7 4.29499,17.8 14.62496,29.2 26.20093,35.1 6.74799,3.4 13.92297,4.7 20.47195,4.2 6.63499,-0.4 12.56597,-3 16.23396,-7.7 3.023,-3.9 5.02199,-9 6.18699,-14.5 1.095,-5.2 1.34199,-10.9 0.548,-16.5 -1.444,-10.3 -6.21399,-20.6 -16.23096,-27.7 -9.26798,-6.7 -19.68195,-8 -28.82193,-6.3 -8.15598,1.5 -15.35596,5 -19.84995,9.2 -2.386,2.2 -4.15399,4.3 -4.40899,6.5 z"
     id="path4546"
     style="stroke:none;stroke-width:0.2" /><path
     d="m 569.43976,16517.909 c -1.906,0.4 -3.72199,-0.9 -4.05199,-2.8 -0.33,-1.9 0.94999,-3.8 2.85599,-4.1 15.00596,-3.3 42.73389,-0.3 62.67684,12.7 13.05397,8.5 22.49895,21.3 24.35794,38.5 1.341,15.6 -8.22598,29.2 -23.17694,36.7 -17.66195,9 -42.45889,9.2 -60.30785,-3.5 -12.80697,-9.4 -19.89795,-19.9 -23.23294,-30.2 -5.02099,-15.4 -1.826,-29.9 2.34899,-37.6 0.847,-1.7 2.947,-2.4 4.68599,-1.6 1.739,0.9 2.463,3 1.616,4.7 -2.848,6.6 -4.29599,18.7 0.90399,31 3.426,8.1 9.92398,16.1 20.94995,22.9 11.58597,7.3 26.28094,7.3 38.50091,3.3 6.40398,-2.1 12.13197,-5.4 16.29796,-9.7 3.96699,-4.1 6.56898,-9.1 6.21398,-14.8 -0.705,-16.2 -11.40797,-27.3 -24.28694,-34.5 -15.79296,-8.9 -34.86691,-12.4 -46.35188,-11 z"
     id="path4548"
     style="stroke:none;stroke-width:0.2" /><path
     d="m 335.85179,16366.093 c 0.603,1.9 -0.40099,3.9 -2.23899,4.5 -1.839,0.6 -3.81999,-0.4 -4.42199,-2.3 -2.42799,-4.3 -0.82,-10.2 2.55999,-15.2 1.253,-1.9 2.997,-3.4 4.87799,-4.7 4.59399,-3.4 10.71998,-4.2 16.97396,-2.1 2.13399,0.8 4.17899,2.1 6.26998,3.8 2.22,2.2 3.93899,4.4 4.77999,6.9 2.047,6 1.151,12.7 -3.01299,17.5 -4.90399,5.7 -12.70997,9.5 -20.41095,6.1 -1.87699,-0.5 -3.01999,-2.4 -2.55099,-4.2 0.469,-1.9 2.37399,-3.1 4.25099,-2.6 3.20699,0.2 5.42098,-2 7.10798,-4.3 0.47,-0.7 0.606,-1.5 0.913,-2.2 0.75699,-1.8 0.219,-3.8 -1.649,-5.2 -2.15499,-2.3 -4.45499,-3 -6.57698,-2.3 -2.406,0.9 -4.84599,2 -5.85499,3.9 -0.434,0.9 -1.118,1.6 -1.017,2.4 z"
     id="path4550"
     style="stroke:none;stroke-width:0.2" /><path
     d="m 49.233047,16234.109 c -1.646996,-1 -2.158995,-3.2 -1.142997,-4.8 1.014997,-1.7 3.176992,-2.2 4.822988,-1.2 0,0 14.444964,7.4 36.23091,16.3 7.458982,3 15.754962,6.2 24.614942,9.5 6.61298,2.4 13.54396,4.8 20.63595,7.2 6.76898,2.3 13.67596,4.6 20.68894,6.7 11.57998,3.5 23.35095,6.6 35.09992,8.4 12.23797,2 24.28694,2.9 35.88091,1.7 1.90899,-0.3 3.71399,1 4.02799,2.9 0.313,1.9 -0.982,3.7 -2.89099,4 -17.93296,4.1 -37.61491,4.1 -57.27686,1.2 -12.61297,-1.8 -25.18194,-4.8 -37.10991,-8.6 -4.88799,-1.6 -9.63198,-3.4 -14.24396,-5.2 -7.29899,-3 -14.24597,-6.1 -20.707954,-9.3 -29.008928,-14.5 -48.629879,-28.8 -48.629879,-28.8 z"
     id="path4552"
     style="stroke:none;stroke-width:0.2" /><path
     d="m 109.6569,16316.609 c -1.922,-0.2 -3.30799,-1.9 -3.092,-3.9 0.215,-1.9 1.951,-3.3 3.873,-3.1 0,0 8.79097,-0.5 21.40394,-1.1 4.36999,-0.2 9.12598,-0.4 14.15397,-0.5 3.43399,-0.1 6.96798,-0.2 10.52997,-0.1 3.49899,0.1 6.99898,0.4 10.47697,0.6 5.43199,0.3 10.67098,0.7 15.65497,0.8 5.77698,0.1 10.95297,0.1 15.38096,-0.6 1.85299,-0.6 3.80899,0.5 4.36499,2.3 0.556,1.9 -0.497,3.9 -2.35,4.4 -7.08798,3.1 -16.62296,5.6 -27.22193,7.1 -5.96198,0.8 -12.16897,1.4 -18.30095,1.4 -2.457,0 -4.89099,-0.2 -7.28099,-0.4 -3.76799,-0.3 -7.39898,-0.7 -10.84697,-1.3 -15.49296,-2.4 -26.74593,-5.6 -26.74593,-5.6 z"
     id="path4554"
     style="stroke:none;stroke-width:0.2" /></g>&#10;</svg>
