<?xml version="1.0" encoding="UTF-8" standalone="no"?>
<svg
   width="3323.1125"
   height="3409.3557"
   viewBox="0 0 3323.1126 3409.3557"
   version="1.1"
   xml:space="preserve"
   style="clip-rule:evenodd;fill-rule:evenodd;stroke-linejoin:round;stroke-miterlimit:2"
   id="svg5353"
   xmlns="http://www.w3.org/2000/svg"
   xmlns:svg="http://www.w3.org/2000/svg"><defs
   id="defs5353" />&#10;    &#10;<g
   id="vectorly-UNI-ticket"
   transform="matrix(4.9999999,0,0,4.9999999,-12451.076,-96288.94)"
   style="stroke-width:0.2"><path
     d="m 2640.0526,19871.78 c -1.91,0.3 -3.69,-1 -3.95,-2.9 -0.27,-2 1.06,-3.7 2.98,-4 0,0 19.32,-4.6 47.9399,2.7 5.78,1.4 11.9,3.5 18.2799,6.2 3.79,1.6 7.68,3.4 11.57,5.6 8.49,4.9 17.16,11.1 25.78,18.9 10.5099,9.5 20.7399,21.3 30.7799,35.7 1.21,1.5 0.98,3.7 -0.52,4.9 -1.51,1.2 -3.71,1 -4.93,-0.5 -11.45,-12.2 -22.96,-21.6 -33.9099,-29.5 -8.66,-6.2 -17.08,-11.2 -24.96,-15.5 -9.5099,-5.2 -18.2599,-9.4 -26.3399,-12.5 -25.1099,-9.5 -42.7199,-9.1 -42.7199,-9.1 z"
     id="path222-3"
     style="clip-rule:evenodd;fill-rule:evenodd;stroke:none;stroke-width:0.2;stroke-linejoin:round;stroke-miterlimit:2" /><path
     d="m 2711.7524,19850.68 c -1.92,0.3 -3.71,-1 -4,-2.9 -0.3,-1.9 1.01,-3.7 2.93,-4 0,0 4.38,-1.6 12.76,-2 2.51,-0.2 5.27,-0.1 8.44,0.2 2.58,0.2 5.32,0.7 8.27,1.4 1.73,0.4 3.5299,0.9 5.3199,1.7 3.91,1.6 7.94,3.8 12.04,6.6 5.1,3.6 9.99,8 15.25,13.5 1.57,1.1 1.91,3.3 0.77,4.9 -1.13,1.5 -3.33,1.9 -4.89,0.7 -6.01,-2.9 -11.53,-4.8 -16.75,-6.7 -3.93,-1.4 -7.6,-2.5 -10.9599,-3.7 -3.23,-1.2 -6.11,-2.4 -8.81,-3.4 -3.41,-1.3 -6.27,-2.6 -8.92,-3.4 -7.31,-2.3 -11.45,-2.9 -11.45,-2.9 z"
     id="path224-4"
     style="clip-rule:evenodd;fill-rule:evenodd;stroke:none;stroke-width:0.2;stroke-linejoin:round;stroke-miterlimit:2" /><path
     d="m 2491.573,19264.079 c -1.53,-1.2 -1.81,-3.4 -0.62,-4.9 1.18,-1.6 3.39,-1.8 4.92,-0.7 0,0 19.7899,13 35.9799,40.2 3.5,5.9 6.7,12.5 9.48,19.7 1.6899,4.4 3.2399,9.1 4.4099,14 2.63,10.9 3.96,23 3.51,36.1 -0.54,16 -3.87,33.5 -10.5799,52.4 -0.53,1.9 -2.47,3 -4.33,2.4 -1.86,-0.5 -2.94,-2.4 -2.41,-4.3 4,-18.5 4.62,-35.2 3.66,-50.3 -0.75,-11.9 -2.86,-22.6 -5.36,-32.5 -2.95,-11.6 -6.6,-22 -10.78,-31 -12.33,-26.4 -27.8799,-41.1 -27.8799,-41.1 z"
     id="path226-1"
     style="clip-rule:evenodd;fill-rule:evenodd;stroke:none;stroke-width:0.2;stroke-linejoin:round;stroke-miterlimit:2" /><path
     d="m 2600.8927,19386.279 c -0.13,-1.9 1.33,-3.6 3.26,-3.7 1.93,-0.2 3.6,1.3 3.73,3.2 0,0 1.31,5.5 1.3,14.2 -0.01,2.9 -0.25,6.1 -0.77,9.5 -0.45,3 -1.21,6.1 -2.26,9.4 -0.65,2 -1.42,4 -2.43,5.9 -1.75,3.5 -4,6.9 -6.74,10.1 -2.35,2.8 -4.95,5.4 -8.01,7.9 -4.1,3.3 -8.5899,6.2 -13.9199,8.8 -1.59,1.1 -3.78,0.7 -4.89,-0.9 -1.1,-1.5 -0.71,-3.7 0.87,-4.8 3.57,-3.5 6.25,-7.1 8.83,-10.7 2.7599,-3.8 4.7699,-7.7 6.6999,-11.5 1.24,-2.4 2.29,-4.8 3.37,-7 1.17,-2.5 2.37,-4.9 3.37,-7.2 1.41,-3.2 2.69,-6.2 3.66,-8.9 2.95,-8.5 3.93,-14.3 3.93,-14.3 z"
     id="path228-7"
     style="clip-rule:evenodd;fill-rule:evenodd;stroke:none;stroke-width:0.2;stroke-linejoin:round;stroke-miterlimit:2" /><path
     d="m 2550.4828,19706.68 c -0.31,-0.3 -1.02,-1 -1.65,-1.5 -3.42,-2.4 -9.2099,-4.5 -17.8099,-6.8 -2.65,-0.7 -4.62,-2.9 -5.02,-5.6 -0.41,-2.7 0.82,-5.4 3.14,-6.9 4,-2.5 7.13,-5 9.12,-7.5 0.8,-0.9 1.56,-1.7 1.37,-2.6 -0.22,-1.1 -1.36,-1.8 -2.79,-2.8 -2.55,-1.8 -6.17,-3.5 -10.91,-5.1 -2.83,-1 -4.75,-3.7 -4.85,-6.7 -0.11,-3 1.64,-5.8 4.39,-7.001 4.11,-1.8 6.79,-4.8 7.52,-9.3 0.69,-4.2 -0.1,-9.5 -2.22,-16 -1.18,-3.7 0.62,-7.7 4.18,-9.3 12.4299,-5.6 22.3299,-14.1 29.6199,-25.5 6.6,-10.4 11.06,-23.1 13.38,-38.3 0.49,-3.2 2.89,-5.8 6.0599,-6.6 0,0 26.58,-6.3 66.3299,-15.4 28.1899,-6.4 62.9998,-14.4 99.6197,-22.6 115.6397,-25.9 249.2994,-55.4 249.2994,-55.4 1.88,-0.4 3.77,0.7 4.21,2.6 0.45,1.9 -0.72,3.8 -2.6,4.2 0,0 -132.7097,33.5 -247.7594,62 -36.4399,9 -71.0998,17.5 -99.2097,24.3 -29.35,7.1 -51.5399,12.4 -61.0799,14.7 -2.96,15.3 -7.99,28.3 -14.9699,39 -7.86,12.1 -18.16,21.5 -30.79,28.1 1.96,9.1 1.5,16.3 -0.65,22 -0.99,2.501 -2.3,4.801 -3.94,6.901 7,4.3 10.32,9.1 11.14,13.4 0.73,3.8 0,7.8 -2.57,11.8 -0.97,1.5 -2.25,3.1 -3.82,4.6 6.24,2.7 10.31,5.3 12.65,7.9 3.32,3.6 4.3,7.4 3.71,11 -0.45,2.9 -1.94,5.9 -4.74,8.8 -0.92,1 -1.99,1.9 -3.22,2.9 3.96,2.1 6.95,4.3 9.09,6.3 4.26,4.1 5.82,8.3 5.62,12.3 -0.17,3.5 -1.92,7.1 -5.15,10.7 6.76,1.8 10.99,4.4 13.21,7.3 2.57,3.2 3.3499,7 2.29,11.3 -0.59,2.3 -1.83,4.9 -3.68,7.6 13.7299,0.7 26.0599,3.7 37.0299,9.2 14.1899,7 26.1299,17.9 35.7899,32.8 1.08,1.6 0.65,3.8 -0.95,4.8 -1.6,1.1 -3.79,0.7 -4.86,-0.9 -9.27,-13.3 -20.45,-23 -33.6299,-29.1 -12.71,-5.8 -27.28,-8.1 -43.7599,-6.9 -2.04,0.1 -3.95,-1 -4.8,-2.9 -0.85,-1.8 -0.46,-4 0.97,-5.5 3.5,-3.7 6.08,-7.1 7.31,-10.1 0.6,-1.4 0.88,-2.7 0.03,-3.7 -0.77,-0.9 -2.07,-1.6 -3.78,-2.2 -3.48,-1.4 -8.38,-2.2 -14.9,-2.6 -2.42,-0.2 -4.44,-1.9 -5.02,-4.3 -0.58,-2.3 0.42,-4.8 2.47,-6.1 3.47,-2.2 6.28,-4.4 8.11,-6.7 1.24,-1.5 1.96,-2.9 1.01,-4.5 -2.22,-3.5 -8,-6.5 -17.7899,-10 -2.31,-0.8 -3.91,-3 -4.08,-5.4 -0.18,-2.5 1.09,-4.8 3.25,-6 3.6699,-2.1 6.7499,-4.1 8.9799,-6.1 0.88,-0.8 1.75,-2.1 2.1,-2.6 z"
     id="path230-6"
     style="clip-rule:evenodd;fill-rule:evenodd;stroke:none;stroke-width:0.2;stroke-linejoin:round;stroke-miterlimit:2" /><path
     d="m 2642.9726,19763.88 c 0.46,1.9 -0.69,3.8 -2.57,4.3 -1.88,0.4 -3.78,-0.7 -4.24,-2.6 0,0 -8.59,-27 -18.6499,-61.7 -2.3,-7.9 -4.6,-16.3 -6.87,-24.8 -1.47,-5.5 -2.94,-11.1 -4.26,-16.7 -3.36,-14.301 -6.34,-28.601 -9.03,-41.901 -7.18,-35.5 -12.02,-63.3 -12.02,-63.3 -0.46,-1.9 0.69,-3.8 2.57,-4.3 1.88,-0.4 3.78,0.7 4.24,2.6 0,0 8.54,27 18.48,61.7 3.73,13.1 7.71,27.2 11.3,41.501 1.3999,5.5 2.6499,11.1 3.8799,16.7 1.91,8.6 3.71,17.1 5.32,25.2 7.06,35.4 11.85,63.3 11.85,63.3 z"
     id="path232-3"
     style="clip-rule:evenodd;fill-rule:evenodd;stroke:none;stroke-width:0.2;stroke-linejoin:round;stroke-miterlimit:2" /><path
     d="m 2659.5526,19830.48 c -1.88,0.5 -3.79,-0.7 -4.26,-2.5 -0.47,-1.9 0.67,-3.8 2.54,-4.3 0,0 53.3498,-15.4 121.5997,-34.2 15.6299,-4.3 32.0399,-8.7 48.7898,-13.1 10.77,-2.9 21.66,-5.7 32.6,-8.4 27.9399,-6.9 55.9698,-13.5 81.9198,-19.4 68.9698,-15.9 123.2596,-27.6 123.2596,-27.6 1.88,-0.5 3.79,0.6 4.26,2.5 0.47,1.9 -0.67,3.8 -2.55,4.2 0,0 -53.3598,15.4 -121.6297,34.1 -25.6899,7 -53.4698,14.5 -81.3498,21.7 -10.9199,2.8 -21.8799,5.4 -32.6999,8 -16.8399,4.1 -33.3799,8 -49.1798,11.6 -68.9999,15.8 -123.2997,27.4 -123.2997,27.4 z"
     id="path234-8"
     style="clip-rule:evenodd;fill-rule:evenodd;stroke:none;stroke-width:0.2;stroke-linejoin:round;stroke-miterlimit:2" /><path
     d="m 3109.1114,19522.679 c 0.54,0.2 1.61,0.5 2.48,0.6 2.51,0.4 5.63,0.4 9.28,0.1 2.97,-0.1 5.75,1.5 7.03,4.2 1.28,2.7 0.81,5.9 -1.19,8.1 -3.06,3.4 -5.23,6.4 -6.54,9 -0.45,0.9 -0.79,2.1 -0.93,2.6 0.7,0.3 2.07,0.3 2.97,0.5 2.43,0.5 5.39,0.7 8.79,0.6 3.2,0 6.07,1.9 7.3,4.9 1.22,2.9 0.55,6.3 -1.7,8.6 -4.83,4.9 -7.62,8.6 -7.79,11.8 -0.05,1 0.56,1.8 1.36,2.5 1.57,1.3 3.75,2.5 6.38,3.5 2.72,1 4.64,3.5 5,6.4 0.36,2.9 -0.89,5.7 -3.26,7.4 -3.15,2.3 -5.56,4.2 -7.25,6.1 -0.54,0.6 -1.08,1.3 -1.43,1.9 0.79,0.5 2.12,1.3 3.26,1.8 3.18,1.3 7.25,2.4 12.02,3.4 3.0799,0.5 5.4699,2.9 5.9699,6 0.51,3.1 -1,6.2 -3.74,7.7 -3.4599,1.8 -6.7699,4.1 -8.8099,5.7 2.78,0.5 6.94,0.7 10.5099,1 2.86,0.3 5.23,2.4 5.86,5.2 0.62,2.8 -0.64,5.7 -3.12,7.1 -18.9099,10.4 -32.7599,21.701 -43.1299,33.801 -13.1099,15.2 -20.7199,31.5 -25.9099,48.4 -0.52,1.9 -2.45,3 -4.31,2.4 -1.87,-0.5 -2.96,-2.4 -2.45,-4.3 4.48,-18.2 11.6,-36.1 24.68,-53.1 7.8199,-10.1 17.7999,-19.901 30.6199,-29.301 -0.77,-0.3 -1.46,-0.6 -2.07,-0.9 -3.59,-1.8 -5.42,-4.4 -6.24,-6.9 -0.95,-2.9 -0.65,-6.3 1.89,-10 0.51,-0.7 1.16,-1.5 1.96,-2.4 -0.7,-0.2 -1.36,-0.5 -1.98,-0.8 -4.05,-1.9 -6.84,-4.3 -8.55,-6.9 -2.74,-4 -3.31,-8.7 -0.83,-14.2 0.94,-2 2.5,-4.3 4.82,-6.8 -5.12,-4.3 -7.55,-9.6 -7.23,-15.5 0.17,-3.1 1.2,-6.6 3.41,-10.5 -1.28,-0.4 -2.43,-0.9 -3.45,-1.4 -4.62,-2.2 -7.3399,-5.5 -8.3799,-9.5 -0.79,-3.1 -0.69,-6.9 1.21,-11.3 0.4399,-1 0.9999,-2.1 1.6699,-3.3 -1.9999,-0.5 -3.7099,-1.1 -5.0999,-1.9 -4.59,-2.6 -7.03,-6.4 -7,-11.6 0.02,-3 1.2,-6.9 4.04,-11.7 -17.33,0.6 -31.85,-3.2 -44.2399,-10.2 -16.71,-9.4 -29.55,-24.7 -40.0299,-43.6 -0.98,-1.7 -0.43,-3.8 1.24,-4.8 1.66,-1 3.81,-0.4 4.8,1.2 10.5499,16.8 22.9399,30.4 38.7399,38.3 14.2899,7.1 31.3899,9.4 52.4998,5 2.71,-0.5 5.43,0.8 6.78,3.2 1.35,2.4 1.02,5.4 -0.82,7.4 -4.11,4.8 -6.85,8.7 -8.33,12 -0.37,0.8 -0.63,1.8 -0.76,2.5 z m 27.13,102.9 c -0.14,-0.8 -0.48,-2.2 -0.91,-1.6 -0.45,0.7 -0.05,1.2 0.91,1.6 z m -17.1,-78.3 c -0.04,-0.3 -0.13,-0.7 -0.26,-0.5 -0.18,0.2 -0.05,0.4 0.26,0.5 z"
     id="path236-6"
     style="clip-rule:evenodd;fill-rule:evenodd;stroke:none;stroke-width:0.2;stroke-linejoin:round;stroke-miterlimit:2" /><path
     d="m 3005.6317,19464.179 c -0.49,-1.8 0.63,-3.7 2.51,-4.2 1.87,-0.5 3.78,0.6 4.27,2.5 0,0 9.96,30.4 21.7599,69.5 2.7,8.9 5.42,18.3 8.12,27.9 1.73,6.2 3.49,12.4 5.08,18.7 4.08,16.1 7.76,32.3 11.12,47.2 8.9299,39.901 15.1499,71.301 15.1499,71.301 0.49,1.8 -0.63,3.7 -2.51,4.2 -1.87,0.5 -3.78,-0.6 -4.27,-2.5 0,0 -9.9099,-30.4 -21.5899,-69.501 -4.39,-14.7 -9.07,-30.6 -13.37,-46.6 -1.68,-6.3 -3.21,-12.6 -4.71,-18.8 -2.3399,-9.7 -4.5599,-19.3 -6.5799,-28.4 -8.81,-39.9 -14.98,-71.3 -14.98,-71.3 z"
     id="path238-5"
     style="clip-rule:evenodd;fill-rule:evenodd;stroke:none;stroke-width:0.2;stroke-linejoin:round;stroke-miterlimit:2" /><path
     d="m 3063.4716,19524.379 c -0.5,-1.8 0.61,-3.7 2.4799,-4.2 1.86,-0.6 3.79,0.6 4.29,2.4 0,0 5.26,12.1 11.16,28 1.33,3.6 2.63,7.4 3.87,11.3 0.8,2.5 1.61,5.1 2.26,7.7 1.67,6.6 2.94,13.3 4.06,19.5 3.01,16.7 4.56,29.7 4.56,29.7 0.5,1.9 -0.61,3.8 -2.47,4.3 -1.87,0.5 -3.8,-0.6 -4.3,-2.4 0,0 -5.21,-12.1 -10.98,-28 -2.16,-6 -4.42,-12.4 -6.31,-19 -0.74,-2.5 -1.32,-5.2 -1.89,-7.7 -0.88,-4 -1.68,-8 -2.33,-11.8 -2.8999,-16.7 -4.3999,-29.8 -4.3999,-29.8 z"
     id="path240-0"
     style="clip-rule:evenodd;fill-rule:evenodd;stroke:none;stroke-width:0.2;stroke-linejoin:round;stroke-miterlimit:2" /><path
     d="m 2578.4328,19637.779 c -0.46,-1.9 0.69,-3.8 2.57,-4.3 1.8699,-0.4 3.7799,0.7 4.2399,2.6 0,0 5.32,13.4 11.26,31.001 1.35,4 2.66,8.2 3.92,12.5 0.81,2.8 1.62,5.6 2.28,8.4 1.68,7.3 2.97,14.7 4.11,21.5 3.05,18.3 4.63,32.6 4.63,32.6 0.47,1.9 -0.68,3.8 -2.56,4.3 -1.88,0.4 -3.78,-0.7 -4.24,-2.6 0,0 -5.27,-13.4 -11.09,-31 -2.18,-6.6 -4.46,-13.7 -6.37,-20.9 -0.75,-2.9 -1.34,-5.7 -1.91,-8.6 -0.9,-4.4 -1.71,-8.7 -2.37,-12.9 -2.9399,-18.301 -4.4699,-32.601 -4.4699,-32.601 z"
     id="path242-4"
     style="clip-rule:evenodd;fill-rule:evenodd;stroke:none;stroke-width:0.2;stroke-linejoin:round;stroke-miterlimit:2" /><path
     d="m 2661.7226,19652.779 0.8899,-29.9 c 0.17,-3.3 2.44,-6.2 5.65,-7.2 3.22,-0.9 6.67,0.3 8.61,3.1 0,0 7.85,10.8 17.04,23.8 l 14.5799,-4.6 c 1.4,-0.5 2.96,0 3.89,1.1 0.93,1.2 1.03,2.8 0.25,4.1 l -8.27,14.301 c 10.23,14.8 19.28,28.2 19.28,28.2 1.85,2.6 1.8,6.1 -0.14,8.7 -1.93,2.6 -5.31,3.6 -8.34,2.5 l -27.4599,-10.4 -16.47,28.6 c -1.46,2.4 -4.33,3.5 -6.98,2.7 -2.6499,-0.9 -4.4099,-3.4 -4.2699,-6.2 l 1.04,-35.2 -18.41,-7 c -2.22,-0.8 -3.71,-2.9 -3.71,-5.2 0,-2.4 1.49,-4.5 3.72,-5.3 z m -0.33,11.001 0.01,-0.2 -0.33,0.1 c 0,0 0.11,0.1 0.32,0.1 z m 16.6199,19 -3.73,-1.4 -0.55,7.9 z m 17.72,-10.3 -1.21,2.2 c 2.22,0.7 3.59,1.1 3.59,1.1 -0.78,-1 -1.57,-2.1 -2.38,-3.3 z m 2.88,-23.201 c 0.27,0.4 0.54,0.8 0.8,1.1 l 1.29,-1.9 z m -22.02,-1.2 1.36,-0.4 c -0.41,-0.6 -0.81,-1.2 -1.21,-1.7 z m 8.8,23.601 4.63,-7 c -0.82,-1.2 -1.65,-2.3 -2.47,-3.5 -1.44,-2 -2.87,-4 -4.28,-6 l -7.37,2.8 -0.71,10.3 c 3.35,1.1 6.91,2.3 10.2,3.4 z"
     id="path244-9"
     style="clip-rule:evenodd;fill-rule:evenodd;stroke:none;stroke-width:0.2;stroke-linejoin:round;stroke-miterlimit:2" /><path
     d="m 2942.2147,19596.654 0.89,-29.9 c 0.17,-3.3 2.44,-6.2 5.65,-7.2 3.22,-0.9 6.67,0.3 8.61,3.1 0,0 7.8499,10.8 17.0399,23.8 l 14.58,-4.6 c 1.4,-0.5 2.96,0 3.89,1.1 0.93,1.2 1.03,2.8 0.25,4.1 l -8.27,14.301 c 10.23,14.8 19.2799,28.2 19.2799,28.2 1.85,2.6 1.8,6.1 -0.14,8.7 -1.93,2.6 -5.3099,3.6 -8.3399,2.5 l -27.46,-10.4 -16.4699,28.6 c -1.46,2.4 -4.33,3.5 -6.98,2.7 -2.65,-0.9 -4.41,-3.4 -4.27,-6.2 l 1.04,-35.2 -18.41,-7 c -2.22,-0.8 -3.71,-2.9 -3.71,-5.2 0,-2.4 1.49,-4.5 3.72,-5.3 z m -0.33,11.001 0.01,-0.2 -0.33,0.1 c 0,0 0.11,0.1 0.32,0.1 z m 16.62,19 -3.73,-1.4 -0.55,7.9 z m 17.7199,-10.3 -1.21,2.2 c 2.22,0.7 3.59,1.1 3.59,1.1 -0.78,-1 -1.57,-2.1 -2.38,-3.3 z m 2.88,-23.201 c 0.27,0.4 0.54,0.8 0.8,1.1 l 1.29,-1.9 z m -22.0199,-1.2 1.36,-0.4 c -0.41,-0.6 -0.81,-1.2 -1.21,-1.7 z m 8.7999,23.601 4.63,-7 c -0.82,-1.2 -1.65,-2.3 -2.47,-3.5 -1.44,-2 -2.87,-4 -4.28,-6 l -7.3699,2.8 -0.71,10.3 c 3.3499,1.1 6.9099,2.3 10.1999,3.4 z"
     id="path246-8"
     style="clip-rule:evenodd;fill-rule:evenodd;stroke:none;stroke-width:0.2;stroke-linejoin:round;stroke-miterlimit:2" /><path
     d="m 2843.9059,19417.759 -11.0589,-27.794 c -1.1547,-3.096 -0.2233,-6.659 2.3255,-8.852 2.5976,-2.105 6.2405,-2.374 9.133,-0.574 0,0 11.4938,6.793 25.0912,15.074 l 11.5535,-10.013 c 1.0863,-1.015 2.7166,-1.175 4.007,-0.535 1.3301,0.732 2.0573,2.16 1.8578,3.663 l -1.91,16.409 c 15.2668,9.519 28.8945,18.222 28.8945,18.222 2.7305,1.652 4.0748,4.883 3.327,8.04 -0.7385,3.153 -3.4433,5.413 -6.661,5.607 l -29.3317,1.362 -3.7558,32.789 c -0.3867,2.782 -2.5837,4.932 -5.3334,5.25 -2.7895,0.227 -5.3977,-1.369 -6.3813,-3.994 l -13.0263,-32.717 -19.6759,0.888 c -2.3551,0.147 -4.5566,-1.188 -5.4701,-3.299 -0.9532,-2.203 -0.4199,-4.722 1.3089,-6.342 z m 4.0661,10.226 -0.07,-0.187 -0.2631,0.223 c 0,0 0.1406,0.05 0.3333,-0.04 z m 22.7993,10.836 -3.9792,0.197 2.633,7.468 z m 12.1714,-16.491 -0.2367,2.5 c 2.3154,-0.239 3.7316,-0.416 3.7316,-0.416 -1.113,-0.608 -2.2749,-1.304 -3.4949,-2.084 z m -6.5716,-22.435 c 0.4067,0.26 0.8134,0.52 1.1711,0.692 l 0.4293,-2.256 z m -20.6852,7.645 1.0893,-0.908 c -0.6146,-0.387 -1.22,-0.779 -1.7857,-1.079 z m 17.4496,18.163 1.4689,-8.263 c -1.2292,-0.776 -2.4278,-1.456 -3.657,-2.231 -2.1159,-1.264 -4.2226,-2.531 -6.311,-3.807 l -5.6516,5.497 3.4394,9.735 c 3.5113,-0.321 7.255,-0.634 10.7113,-0.931 z"
     id="path248-1"
     style="clip-rule:evenodd;fill-rule:evenodd;stroke:none;stroke-width:0.2;stroke-linejoin:round;stroke-miterlimit:2" /><path
     d="m 2803.6267,19624.486 10.2128,-55.124 c 0.6732,-3.371 3.3249,-5.907 6.6381,-6.338 3.3133,-0.431 6.5467,1.318 8.0698,4.279 0,0 11.481,22.123 24.8298,48.353 l 32.9112,-5.803 c 1.4729,-0.333 2.9327,0.427 3.6886,1.633 0.7737,1.208 0.629,2.831 -0.3221,3.97 l -22.3958,27.786 c 14.7288,29.17 27.8645,55.734 27.8645,55.734 1.4776,2.772 0.9035,6.34 -1.3921,8.563 -2.2778,2.225 -5.7779,2.811 -8.6082,1.304 l -49.3614,-26.723 -40.4734,49.991 c -1.7867,2.113 -4.7862,2.773 -7.3109,1.675 -2.4807,-1.274 -3.8689,-4.033 -3.3355,-6.694 l 12.2114,-65.973 -35.0036,-18.972 c -2.0695,-1.214 -3.2675,-3.397 -2.9292,-5.722 0.3822,-2.501 2.1348,-4.255 4.4384,-4.65 z m -4.4428,24.007 2.5141,-13.513 -20.6939,4.293 c 0,0 7.4959,3.83 18.1798,9.22 z m 27.5946,28.851 -17.3945,-9.471 -8.0593,38.82 z m 29.6379,-20.706 -12.0961,14.858 c 15.1348,7.681 27.0103,13.791 27.0103,13.791 -4.2621,-8.107 -9.4264,-18.172 -14.9142,-28.649 z m 0.7466,-33.492 c 1.6499,3.345 3.3079,6.508 4.9578,9.852 0.3788,0.786 0.7835,1.393 1.1623,2.178 l 14.1983,-16.378 z m -38.1878,-1.357 17.9643,-3.229 c -4.5336,-8.878 -8.7518,-17.161 -12.2759,-24.065 z m 16.6137,45.332 16.4744,-18.969 c -1.3606,-2.571 -2.713,-5.325 -4.0914,-7.899 -2.3522,-4.543 -4.6604,-9.261 -6.967,-13.615 l -24.0949,5.077 -4.8656,23.397 c 7.5854,3.843 15.7706,7.956 23.5445,12.009 z"
     id="path250-7"
     style="clip-rule:evenodd;fill-rule:evenodd;stroke:none;stroke-width:0.36142;stroke-linejoin:round;stroke-miterlimit:2" /><path
     d="m 2766.5192,19482.392 c 0.7266,0.05 1.4208,0.118 2.0824,0.2 2.9647,-3.837 7.2106,-9.095 11.1769,-14.017 5.5271,-6.677 10.5869,-12.327 10.5869,-12.327 2.2311,-2.28 5.6349,-2.918 8.5243,-1.502 2.9056,1.407 4.5922,4.406 4.2558,7.577 0,0 -0.227,7.934 -1.3253,16.89 -0.9757,8.295 -2.6245,17.315 -3.5481,21.974 0.6059,1.714 0.735,2.855 0.735,2.855 1.6371,0.816 2.2534,2.926 1.3704,4.756 -0.9451,1.66 -3.0717,2.284 -4.7873,1.305 0,0 -0.7488,0.361 -2.1754,0.648 -0.6923,0.936 -1.7829,1.462 -3.0247,1.258 -0.6941,-0.07 -1.3365,-0.359 -1.8161,-0.729 -0.7238,-0.253 -1.0407,-0.702 -1.0407,-0.702 l 0.2767,-0.134 c -0.3628,-0.627 -0.5168,-1.155 -0.5244,-1.753 l -5.5364,-3.951 c -1.7377,-0.566 -3.7625,-1.395 -5.6764,-2.078 -2.6021,-1.152 -5.077,-2.166 -7.1344,-2.979 -0.5075,0.445 -1.0638,0.914 -1.5905,1.569 -1.7015,1.423 -3.6176,3.149 -5.6801,4.946 -2.323,1.923 -4.8059,3.722 -7.1126,5.637 -3.8885,2.878 -7.3671,5.358 -9.375,6.727 l -0.068,0.234 c 0.4222,1 0.2937,2.065 -0.1736,3.093 l 0.6778,0.07 c 0,0 0.2,0.706 -0.4568,1.424 -0.2471,0.32 -0.6866,0.532 -1.1424,0.752 -0.8435,0.206 -1.1987,0.176 -2.0393,0.18 -3.1538,0.117 -3.6823,-0.23 -3.6823,-0.23 -1.4085,1.281 -3.6078,1.338 -4.9624,-0.01 -1.3709,-1.345 -1.3716,-3.551 -0.025,-5.003 0,0 -0.4116,-0.604 -0.3193,-3.658 -0.051,-0.979 -0.1263,-1.344 0.1917,-2.099 0.1686,-0.482 0.3534,-0.973 0.7278,-1.153 0.033,-0.02 0.065,-0.03 0.098,-0.05 -3.289,-6.239 -8.4187,-16.003 -13.0554,-25.203 -5.6274,-11.129 -10.2228,-20.95 -10.2228,-20.95 -1.2664,-3.001 -0.5526,-6.555 1.8709,-8.727 2.4073,-2.164 5.968,-2.476 8.8382,-0.851 0,0 9.5029,4.646 19.8128,10.508 9.635,5.586 20.031,12.209 25.2697,15.501 z m -25.1043,25.948 c 1.219,-1.59 2.6199,-3.47 4.1052,-5.59 1.8108,-2.278 3.6896,-4.789 5.6143,-7.121 1.2649,-1.413 2.4026,-2.964 3.5995,-4.143 -5.9874,-2.931 -13.8858,-6.746 -21.1523,-10.665 -0.5773,-0.324 -1.1383,-0.655 -1.6208,-0.824 0.2326,0.691 0.4814,1.373 0.714,2.063 3.2752,9.455 6.6039,19.687 8.7401,26.28 z m 35.0246,-21.102 c 1.8238,1.328 3.7615,2.6 5.8399,4.206 0.9133,0.563 1.8725,1.304 2.8318,2.045 0.1393,-4.079 0.3554,-8.999 0.6987,-13.778 -3.224,2.758 -6.5591,5.369 -9.3704,7.527 z"
     id="path252-7"
     style="clip-rule:evenodd;fill-rule:evenodd;stroke:none;stroke-width:0.36142;stroke-linejoin:round;stroke-miterlimit:2" /><path
     d="m 2668.0125,19672.48 -23.5499,-8.3 24.3899,-8.6 1.6,-32.301 18.01,25.4 21.1899,-7.4 -12.3199,20.001 20.2899,28.7 -31.1999,-11 -20.37,33 z"
     id="path254-2"
     style="clip-rule:evenodd;fill-rule:evenodd;stroke:none;stroke-width:0.2;stroke-linejoin:round;stroke-miterlimit:2" /><path
     d="m 2948.5047,19616.355 -23.55,-8.3 24.39,-8.6 1.6,-32.301 18.0099,25.4 21.19,-7.4 -12.32,20.001 20.29,28.7 -31.2,-11 -20.3699,33 z"
     id="path256-8"
     style="clip-rule:evenodd;fill-rule:evenodd;stroke:none;stroke-width:0.2;stroke-linejoin:round;stroke-miterlimit:2" /><path
     d="m 2857.503,19433.34 -24.9094,1.737 18.9679,-17.58 -11.3606,-30.279 26.6169,16.158 16.5077,-15.208 -3.3629,23.248 30.02,18.28 -33.0024,2.297 -5.5873,38.376 z"
     id="path258-5"
     style="clip-rule:evenodd;fill-rule:evenodd;stroke:none;stroke-width:0.2;stroke-linejoin:round;stroke-miterlimit:2" /><path
     d="m 2804.3823,19658.197 -39.9538,-20.971 45.8537,-9.032 11.2663,-57.345 25.597,50.109 39.8189,-7.719 -27.2358,32.559 28.8156,56.603 -52.9314,-27.789 -45.0142,53.712 z"
     id="path260-1"
     style="clip-rule:evenodd;fill-rule:evenodd;stroke:none;stroke-width:0.36142;stroke-linejoin:round;stroke-miterlimit:2" /><path
     d="m 2735.7625,19521.498 4.7063,-4.676 -22.7478,-53.832 49.252,27.208 28.6835,-28.677 -4.3558,42.225 5.9979,3.327 z"
     id="path262-1"
     style="clip-rule:evenodd;fill-rule:evenodd;stroke:none;stroke-width:0.36142;stroke-linejoin:round;stroke-miterlimit:2" /><path
     d="m 2948.0518,19336.379 c 0.16,0.1 0.41,0.2 0.59,0.2 0.85,0.2 1.85,0.2 2.99,0.2 3.81,-0.3 8.78,-1.6 14.97,-3.8 2.14,-0.8 4.56,-0.2 6.17,1.4 1.6,1.6 2.1,4.1 1.26,6.2 -1.76,4.3 -2.93,8 -3.25,11.1 -0.08,0.8 -0.12,1.5 -0.04,2.2 0.05,0.4 -0.03,0.8 0.22,1 0.87,0.7 2.27,0.5 4.2,0.2 3,-0.4 6.75,-1.5 11.3299,-3.4 2.04,-0.8 4.39,-0.3 5.89,1.3 1.5,1.6 1.82,4 0.81,6 -1.97,3.7 -3.37,6.9 -3.97,9.7 -0.36,1.6 -0.62,3 0,4 0.55,0.9 1.69,1.1 3.22,1.4 2.63,0.3 6.05,0.1 10.36,-0.7 1.91,-0.4 3.85,0.4 4.9,2.1 1.04,1.6 0.98,3.7 -0.17,5.3 -2.25,3 -3.84,5.5 -4.38,7.7 -0.18,0.8 -0.36,1.4 0.19,1.9 2.32,1.7 7.03,1.9 14.56,1.3 2,-0.2 3.86,1.1 4.46,3 0.6,1.9 -0.23,4 -1.99,4.9 -7.92,4.3 -14.08,9.1 -17.6,15 -3.62,6 -4.31,13 -1.37,21.4 0.67,1.8 -0.27,3.8 -2.08,4.5 -1.82,0.7 -3.83,-0.3 -4.5,-2.1 -4.12,-10.7 -3.21,-19.8 1.25,-27.7 2.13,-3.8 5.13,-7.3 8.89,-10.6 -3.07,-0.5 -5.35,-1.4 -6.92,-2.5 -3.59,-2.6 -4.85,-6.3 -3.81,-11.1 0.19,-0.9 0.47,-1.8 0.84,-2.7 -7.49,0 -12.0299,-2.4 -14.2399,-5.7 -1.94,-3 -2.38,-7.4 -1.11,-12.9 -2.11,0.5 -3.98,0.8 -5.62,1 -4.46,0.3 -7.7,-0.9 -10,-2.6 -2.77,-2.2 -4.42,-5.5 -4.63,-10.1 -0.08,-1.8 0.1,-3.9 0.53,-6.2 -7.69,1.9 -13.32,1.8 -16.8499,0.3 -4.48,-1.8 -7.04,-5.4 -7.48,-10.8 -0.16,-1.9 0.07,-4.3 0.74,-7.1 -6.77,0.8 -11.72,-0.2 -15.17,-2.2 -4.38,-2.5 -7.08,-7 -8.12,-13 -14.7299,9.3 -29.2499,12.7 -43.5099,11.8 -16.2099,-1.1 -32.1999,-8 -47.9498,-19.3 -7.49,6.8 -23.48,21.1 -44.4899,39.8 -20.95,18.6 -46.8899,41.5 -74.2399,65.4 -31.0299,27.3 -63.8798,55.9 -93.2397,81.4 -43.8999,38.1 -79.9998,69.2 -90.4798,78.3 8.11,13.9 11.61,27.9 10.79,41.9 -0.86,14.6 -6.39,29.3 -16.48,44.001 -1.07,1.6 -3.25,2 -4.86,0.9 -1.61,-1 -2.05,-3.2 -0.98,-4.801 8.79,-13.7 13.56,-27.1 13.94,-40.5 0.39,-13.4 -3.83,-26.7 -12.79,-39.9 -1.34,-2 -0.98,-4.7 0.83,-6.3 0,0 40.1199,-36.7 91.4198,-83.3 28.7799,-26.2 61.0499,-55.4 91.7298,-83.1 27.0299,-24.3 52.7898,-47.3 73.7398,-66 29.5499,-26.2 49.4899,-43.6 49.4899,-43.6 2.81,-2.5 7.01,-2.6 9.9599,-0.3 14.64,11.8 29.43,19.5 44.6999,20.7 14.67,1.2 29.63,-3.6 45.1399,-15.9 2.22,-1.8 5.32,-2 7.78,-0.6 2.46,1.5 3.76,4.3 3.26,7.1 -0.66,3.5 -1,6.7 -0.76,9.4 0.19,2 0.45,3.7 1.87,4.5 3.17,2 8.41,1.1 16.6099,-1.5 2.45,-0.8 5.14,-0.1 6.83,1.9 1.68,1.9 2.02,4.7 0.86,7 -1.85,3.6 -3.16,6.6 -3.84,9.2 -0.37,1.4 -0.4,3.3 -0.4,3.7 z"
     id="path264-4"
     style="clip-rule:evenodd;fill-rule:evenodd;stroke:none;stroke-width:0.2;stroke-linejoin:round;stroke-miterlimit:2" /><path
     d="m 2814.9722,19302.979 c -1.42,-1.3 -1.52,-3.5 -0.22,-4.9 1.31,-1.5 3.53,-1.6 4.96,-0.3 0,0 21.4899,17.1 48.3598,39.6 6.14,5.1 12.5,10.6 18.93,16.2 4.14,3.6 8.32,7.3 12.4,11.1 10.4099,9.7 20.5399,19.7 29.8799,28.9 24.8499,24.7 43.7499,44.6 43.7499,44.6 1.42,1.3 1.52,3.5 0.21,4.9 -1.3,1.5 -3.52,1.6 -4.95,0.3 0,0 -21.46,-17.1 -48.2399,-39.7 -10.06,-8.5 -20.8799,-17.7 -31.4499,-27.2 -4.13,-3.7 -8.16,-7.6 -12.13,-11.4 -6.19,-5.9 -12.2,-11.7 -17.8699,-17.4 -24.78,-24.8 -43.6299,-44.7 -43.6299,-44.7 z"
     id="path266-4"
     style="clip-rule:evenodd;fill-rule:evenodd;stroke:none;stroke-width:0.2;stroke-linejoin:round;stroke-miterlimit:2" /><path
     d="m 2896.222,19340.879 c -1.42,-1.3 -1.5,-3.5 -0.18,-5 1.32,-1.4 3.54,-1.5 4.95,-0.1 0,0 10.7199,7.3 24.0099,17.5 3.01,2.4 6.08,4.9 9.18,7.5 1.99,1.7 4,3.4 5.9,5.2 4.8599,4.7 9.4199,9.7 13.6199,14.3 11.24,12.4 19.35,22.5 19.35,22.5 1.41,1.4 1.49,3.6 0.17,5 -1.31,1.4 -3.53,1.5 -4.95,0.2 0,0 -10.69,-7.4 -23.8799,-17.7 -4.92,-3.9 -10.18,-8.1 -15.21,-12.6 -1.96,-1.7 -3.8,-3.6 -5.63,-5.5 -2.85,-2.9 -5.57,-5.8 -8.1,-8.6 -11.17,-12.5 -19.2299,-22.7 -19.2299,-22.7 z"
     id="path268-7"
     style="clip-rule:evenodd;fill-rule:evenodd;stroke:none;stroke-width:0.2;stroke-linejoin:round;stroke-miterlimit:2" /></g></svg>
